<svg viewBox="0 0 498.61 471.34" xmlns="http://www.w3.org/2000/svg"><path d="m6.9 9.85a2.28 2.28 0 0 1 -1.74-.77 2.87 2.87 0 0 1 -.69-2 2.89 2.89 0 0 1 .69-2 2.28 2.28 0 0 1 1.76-.78 2.47 2.47 0 0 1 2.26 1.48l-1 .43a1.41 1.41 0 0 0 -1.28-.85 1.11 1.11 0 0 0 -.9.43 2 2 0 0 0 -.4 1.32 1.81 1.81 0 0 0 .4 1.27 1.11 1.11 0 0 0 .87.45c.57 0 1-.37 1.35-1.13l1 .43a2.5 2.5 0 0 1 -2.32 1.72z" fill="#595757"/><path d="m14.57 9.14a2.69 2.69 0 0 1 -1.91.71 2.64 2.64 0 0 1 -1.9-.71 2.52 2.52 0 0 1 -.82-2 2.81 2.81 0 0 1 .74-2 2.64 2.64 0 0 1 2-.81 2.61 2.61 0 0 1 2 .81 2.87 2.87 0 0 1 .75 2 2.59 2.59 0 0 1 -.86 2zm-.77-3.27a1.56 1.56 0 0 0 -2.29 0 1.85 1.85 0 0 0 -.43 1.28 1.58 1.58 0 0 0 .46 1.21 1.49 1.49 0 0 0 1.12.47 1.53 1.53 0 0 0 1.14-.46 1.69 1.69 0 0 0 .45-1.22 1.86 1.86 0 0 0 -.45-1.28z" fill="#595757"/><path d="m20.65 9.21a2.27 2.27 0 0 1 -1.7.67 2.19 2.19 0 0 1 -1.62-.61v2.1h-1.1v-6.94h1.1v.57a2.1 2.1 0 0 1 1.56-.65 2.36 2.36 0 0 1 1.84.78 3 3 0 0 1 .68 2 2.77 2.77 0 0 1 -.76 2.08zm-.74-3.37a1.24 1.24 0 0 0 -1-.47 1.41 1.41 0 0 0 -1.1.47 2 2 0 0 0 -.46 1.4 1.5 1.5 0 0 0 .53 1.22 1.64 1.64 0 0 0 1.12.39 1.17 1.17 0 0 0 .91-.38 1.91 1.91 0 0 0 .42-1.36 2 2 0 0 0 -.42-1.27z" fill="#595757"/><path d="m24.64 10.1a2 2 0 0 1 -.73 1 2.65 2.65 0 0 1 -1.37.3v-1.09a2.14 2.14 0 0 0 .67-.08.91.91 0 0 0 .42-.53l.16-.39-1.9-4.85h1.11l1.32 3.37 1.32-3.37h1.15z" fill="#595757"/><path d="m28.52 7.08v2.68h-1.08v-5.31h1.08v.65a1.8 1.8 0 0 1 .8-.52 4.21 4.21 0 0 1 1-.13v1c-1.19.1-1.8.62-1.8 1.63z" fill="#595757"/><path d="m32 3v-1.22h1.1v1.22zm0 6.79v-5.33h1.1v5.29z" fill="#595757"/><path d="m39.11 10.66a2.27 2.27 0 0 1 -1.73.71 2.43 2.43 0 0 1 -2.28-1.37l1-.47a1.44 1.44 0 0 0 1.32.79 1.24 1.24 0 0 0 .94-.38 1.62 1.62 0 0 0 .36-1.12v-.16a1.94 1.94 0 0 1 -1.38.61 2.26 2.26 0 0 1 -1.72-.72 2.4 2.4 0 0 1 -.68-1.73 2.47 2.47 0 0 1 .67-1.75 2.29 2.29 0 0 1 1.73-.72 2.17 2.17 0 0 1 1.38.5v-.41h1.09v4.41a2.58 2.58 0 0 1 -.7 1.81zm-.83-4.89a1.26 1.26 0 0 0 -1-.4 1.16 1.16 0 0 0 -.89.42 1.49 1.49 0 0 0 -.38 1 1.37 1.37 0 0 0 .38 1 1.1 1.1 0 0 0 .89.42 1.3 1.3 0 0 0 1-.39 1.43 1.43 0 0 0 .39-1 1.45 1.45 0 0 0 -.39-1.05z" fill="#595757"/><path d="m44.51 9.75v-3.18a1.39 1.39 0 0 0 -.24-.92 1.15 1.15 0 0 0 -.87-.28 1.76 1.76 0 0 0 -1.58 1.24v3.14h-1.09v-7.85h1.09v3.1a2.2 2.2 0 0 1 1.58-.67 2 2 0 0 1 2.19 2.24v3.18z" fill="#595757"/><path d="m48.25 5.37v3a.45.45 0 0 0 .07.31c0 .06.1.08.21.08h1v1h-1a1.24 1.24 0 0 1 -1-.36 1.71 1.71 0 0 1 -.3-1.14v-2.89h-.93v-1h.93v-1.37h1.07v1.34h1.29v1z" fill="#595757"/><path d="m55.87 7.21c.1 0 .15.06.15.14s-.07.18-.19.28a20.1 20.1 0 0 1 -.55 2.62l-1-.32a7.86 7.86 0 0 0 .36-1.18 15.7 15.7 0 0 0 .3-1.82zm1.24-6.67c.11.06.17.11.17.16s-.06.16-.18.24l-1 1.49.76.57 1.14-1.69.76.5a.25.25 0 0 1 .12.2c0 .08-.08.11-.22.14l-2.25 3.08c.46-.05.93-.11 1.38-.18l-.27-.79.93-.19a11.7 11.7 0 0 1 .66 2.3l-.93.18c0-.23-.11-.46-.16-.67l-.69.12v4.91h-1v-4.76l-1.45.22c-.08.12-.15.18-.23.18s-.12 0-.12-.16l-.21-1 1-.08 1-1.56c-.59-.46-1.24-.91-1.94-1.36l.62-.71c.12.08.24.17.36.24l1-1.79zm2 9.05-.93.2a25.57 25.57 0 0 0 -.57-2.58l.94-.21a19.13 19.13 0 0 1 .56 2.59zm2.49-7.77v-1.69l1 .09c.18 0 .28.07.28.15a.59.59 0 0 1 -.18.28v1.17h2.48v.94h-2.5v1.69h2.32v.93h-5.74v-.93h2.34v-1.69h-2.53v-.94zm3.09 4.55v4.54h-1v-.85h-3v.85h-1v-4.54zm-1 2.76v-1.83h-3v1.83z" fill="#595757"/><path d="m67.87 2.34v-2.34l.92.06c.16 0 .26.05.26.12s-.07.17-.19.29v1.87h1.14v.93h-1.13a8.55 8.55 0 0 0 1.44 2.73l-.7.74a14.51 14.51 0 0 1 -.75-1.53v5.84h-1v-5.65c0 .17-.08.31-.1.44-.2.79-.4 1.51-.64 2.17l-1-.66a12.18 12.18 0 0 0 .88-1.89c.17-.48.39-1.2.65-2.19h-1.27v-.93zm4.03-1.34v-1l.92.06c.16 0 .26.05.26.12s-.07.17-.19.29v.53h1.55v-1l.91.06c.16 0 .26.05.26.12s-.07.17-.19.29v.53h1.5v.84h-1.5v.66h1.17v.79h-1.17v.66h1.87v.84h-3v.57h2.33v3h.84v.84h-.84v.8c0 .45-.27.75-.82.9a5.84 5.84 0 0 1 -1.29.16l-.37-1h1.06c.28 0 .44-.14.44-.36v-.48h-3.74v1.78h-1v-1.78h-1.14v-.84h1.16v-3h2.35v-.61h-3.27v-.84h1.9v-.66h-1.12v-.79h1.12v-.66h-1.54v-.82zm1.37 5.95v-.77h-1.37v.75zm0 1.45v-.68h-1.37v.66zm1.17-6.56h-1.55v.66h1.55zm0 1.45h-1.55v.66h1.55zm-.18 3.66h1.35v-.77h-1.35zm0 1.45h1.35v-.68h-1.35z" fill="#595757"/><path d="m0 .56h.84v11.26h-.84z" fill="#363736"/><path d="m498.61 68.23h-498.52v-37.13h498.52z" fill="#dcdddd"/><path d="m358 49.18.87.26a2.41 2.41 0 0 1 -.9 1.41 2.63 2.63 0 0 1 -1.67.53 2.7 2.7 0 0 1 -2-.81 3.06 3.06 0 0 1 -.78-2.23 3.55 3.55 0 0 1 .36-1.62 2.36 2.36 0 0 1 1-1 3 3 0 0 1 1.5-.35 2.61 2.61 0 0 1 1.56.44 2.24 2.24 0 0 1 .84 1.22l-.83.21a1.65 1.65 0 0 0 -1.6-1.08 1.71 1.71 0 0 0 -1.34.58 2.38 2.38 0 0 0 -.53 1.66 2.35 2.35 0 0 0 .52 1.6 1.64 1.64 0 0 0 1.29.55 1.78 1.78 0 0 0 1.11-.36 1.69 1.69 0 0 0 .64-1zm-1.71-5.31a4.49 4.49 0 0 0 -2.19.58 4.09 4.09 0 0 0 -1.66 1.64 4.39 4.39 0 0 0 0 4.45 4.13 4.13 0 0 0 1.65 1.64 4.43 4.43 0 0 0 4.42 0 4.13 4.13 0 0 0 1.65-1.64 4.46 4.46 0 0 0 0-4.45 4.06 4.06 0 0 0 -1.67-1.64 4.45 4.45 0 0 0 -2.18-.58zm0-.89a5.5 5.5 0 0 1 2.63.69 4.87 4.87 0 0 1 2 2 5.32 5.32 0 0 1 0 5.33 4.92 4.92 0 0 1 -2 2 5.34 5.34 0 0 1 -5.32 0 5 5 0 0 1 -2-2 5.41 5.41 0 0 1 -.71-2.66 5.35 5.35 0 0 1 .72-2.67 4.89 4.89 0 0 1 2-2 5.46 5.46 0 0 1 2.62-.69z" fill="#0c978f"/><path d="m368.22 53.53v-10.37h7.5v1.23h-6.13v3.17h5.74v1.21h-5.74v3.53h6.37v1.23z" fill="#0c978f"/><path d="m378.78 53.53v-1.45h1.45v1.45z" fill="#0c978f"/><path d="m382.87 50.2 1.29-.12a2.77 2.77 0 0 0 .43 1.28 2.3 2.3 0 0 0 1 .81 4 4 0 0 0 1.59.3 3.75 3.75 0 0 0 1.39-.23 1.91 1.91 0 0 0 .89-.63 1.49 1.49 0 0 0 .29-.9 1.36 1.36 0 0 0 -.28-.85 2.09 2.09 0 0 0 -.93-.61 18.31 18.31 0 0 0 -1.85-.51 9.76 9.76 0 0 1 -2-.64 2.77 2.77 0 0 1 -1.1-1 2.29 2.29 0 0 1 -.37-1.29 2.65 2.65 0 0 1 1.75-2.5 4.84 4.84 0 0 1 1.9-.36 5.29 5.29 0 0 1 2 .37 3 3 0 0 1 1.36 1.1 3.14 3.14 0 0 1 .51 1.63l-1.32.1a2.15 2.15 0 0 0 -.72-1.49 2.83 2.83 0 0 0 -1.81-.5 2.87 2.87 0 0 0 -1.81.46 1.36 1.36 0 0 0 -.57 1.1 1.21 1.21 0 0 0 .4.92 5.52 5.52 0 0 0 2.07.74 13.46 13.46 0 0 1 2.3.66 3.25 3.25 0 0 1 1.34 1 2.67 2.67 0 0 1 .43 1.48 2.88 2.88 0 0 1 -.47 1.56 3.16 3.16 0 0 1 -1.37 1.14 4.73 4.73 0 0 1 -2 .41 6.08 6.08 0 0 1 -2.36-.41 3.36 3.36 0 0 1 -1.49-1.24 3.42 3.42 0 0 1 -.56-1.86z" fill="#0c978f"/><path d="m400.52 43.16h1.37v6a7.08 7.08 0 0 1 -.35 2.49 3.06 3.06 0 0 1 -1.28 1.49 4.54 4.54 0 0 1 -2.42.58 4.88 4.88 0 0 1 -2.38-.51 2.89 2.89 0 0 1 -1.33-1.45 7 7 0 0 1 -.39-2.6v-6h1.37v6a5.71 5.71 0 0 0 .25 2 1.94 1.94 0 0 0 .86 1 3 3 0 0 0 1.5.35 2.82 2.82 0 0 0 2.15-.69 3.92 3.92 0 0 0 .65-2.64v-6z" fill="#0c978f"/><path d="m404.89 53.53v-10.37h1.41l5.44 8.14v-8.14h1.32v10.37h-1.41l-5.44-8.15v8.15z" fill="#0c978f"/><path d="m422.15 52.31h2.59a6.31 6.31 0 0 0 .93-.05 2.1 2.1 0 0 0 .79-.29 1.44 1.44 0 0 0 .52-.57 1.76 1.76 0 0 0 .21-.88 1.69 1.69 0 0 0 -.3-1 1.57 1.57 0 0 0 -.83-.61 5.26 5.26 0 0 0 -1.51-.17h-2.4zm0-4.79h2.24a5 5 0 0 0 1.31-.12 1.45 1.45 0 0 0 .79-.52 1.47 1.47 0 0 0 .27-.91 1.69 1.69 0 0 0 -.25-.9 1.25 1.25 0 0 0 -.71-.54 5.79 5.79 0 0 0 -1.58-.14h-2.07zm-1.37 6v-10.36h3.89a4.84 4.84 0 0 1 1.91.32 2.4 2.4 0 0 1 1.12 1 2.51 2.51 0 0 1 .41 1.36 2.39 2.39 0 0 1 -.36 1.26 2.6 2.6 0 0 1 -1.09.94 2.64 2.64 0 0 1 1.44 1 2.48 2.48 0 0 1 .51 1.56 3 3 0 0 1 -.31 1.36 2.58 2.58 0 0 1 -.76 1 3.19 3.19 0 0 1 -1.13.52 7.28 7.28 0 0 1 -1.67.17z" fill="#0c978f"/><path d="m433.08 49.27h3.51l-1.08-2.87c-.33-.87-.57-1.59-.74-2.15a12.7 12.7 0 0 1 -.56 2l-1.13 3zm-3 4.26 4-10.37h1.48l4.24 10.37h-1.56l-1.24-3.14h-4.33l-1.14 3.14z" fill="#0c978f"/><path d="m441.59 53.53v-10.37h1.41l5.45 8.14v-8.14h1.32v10.37h-1.42l-5.44-8.15v8.15z" fill="#0c978f"/><path d="m452.74 53.53v-10.37h1.37v5.14l5.15-5.14h1.86l-4.35 4.2 4.54 6.17h-1.81l-3.69-5.25-1.7 1.66v3.59z" fill="#0c978f"/><path d="m5.63 262.39a.11.11 0 0 1 -.09.12c-.06 0-.08.07-.08.17v1.67h2c.06 0 .1 0 .1.13v.27c0 .08 0 .13-.1.13h-2v1.79h3.22c.07 0 .1.05.1.14v.26c0 .09 0 .14-.1.14h-7.3c-.07 0-.11 0-.11-.14v-.26c0-.09 0-.14.11-.14h1.19v-2.92c0-.06 0-.1.13-.1.42 0 .63 0 .63.1s0 .12-.07.12-.09.07-.09.17v2.63h1.66v-4.28c0-.07 0-.11.13-.11.45 0 .67.04.67.11zm0-2.27s.08.07.08.11-.06.13-.16.13a.48.48 0 0 0 -.18 0 8.64 8.64 0 0 0 .68 1 5.59 5.59 0 0 0 1 .85 5.13 5.13 0 0 0 1.56.83c.07 0 .11 0 .11.07a.18.18 0 0 1 -.05.11c-.14.11-.25.21-.36.31s-.06.08-.08.08a4.72 4.72 0 0 1 -1.18-.61 5.07 5.07 0 0 1 -1.19-1 9.12 9.12 0 0 1 -.86-1.14 6.92 6.92 0 0 1 -.63.73 6.29 6.29 0 0 1 -.78.76c-.31.27-.63.51-.93.73a7.2 7.2 0 0 1 -.76.44.18.18 0 0 1 -.15-.09 1.6 1.6 0 0 0 -.28-.35c-.06 0-.1-.07-.1-.1a8.42 8.42 0 0 0 1.09-.55 8 8 0 0 0 1.2-.95 4.7 4.7 0 0 0 .65-.72 5.2 5.2 0 0 0 .52-.82c.05-.07.1-.11.15-.11z" fill="#383736"/><path d="m13.13 260c0 .08 0 .12-.08.13s-.09.07-.09.17v1.1h1.13v-1.43c0-.07 0-.1.14-.1.41 0 .63 0 .63.1a.12.12 0 0 1 -.09.13c-.06 0-.08.07-.08.17v1.13h.7a4 4 0 0 0 .32-.54c.11-.25.19-.48.26-.69 0 0 0-.06.08-.06l.52.27c.05 0 .08.07.08.09a.07.07 0 0 1 -.08.07c-.09 0-.13 0-.15.08a6.82 6.82 0 0 1 -.38.78h1.14s.07 0 .07.1v.26c0 .1 0 .14-.07.14h-1.85c-.09.31-.19.61-.3.89h1.48c.07 0 .11.05.11.14v.26c0 .1 0 .14-.11.14h-2.65v.67h2.25c.05 0 .07 0 .07.09v.28c0 .08 0 .12-.07.12h-2.25v.67h3c.06 0 .1.05.1.13v.26c0 .1 0 .14-.1.14h-2.67a5.8 5.8 0 0 0 .76.44 7.22 7.22 0 0 0 1.22.48 7.52 7.52 0 0 0 1.18.28s0 .07-.1.09-.23.25-.32.37a.21.21 0 0 1 -.08.07 11 11 0 0 1 -1.46-.5 6 6 0 0 1 -1.09-.62 3.54 3.54 0 0 1 -.44-.32v1.54c0 .07-.06.1-.17.1h-.33c-.09 0-.14 0-.14-.1v-1.52a.85.85 0 0 1 -.21.14 7.43 7.43 0 0 1 -.88.54c-.34.16-.72.31-1.14.47a7 7 0 0 1 -.88.24s-.08 0-.11-.11l-.29-.28c-.05-.06-.07-.09-.07-.11.56-.12 1-.23 1.44-.35a7 7 0 0 0 1.19-.49 4.52 4.52 0 0 0 .59-.39h-2.69c-.06 0-.1 0-.1-.14v-.26c0-.08 0-.13.1-.13h3.05v-.67h-2.35s-.07 0-.07-.12v-.34c0-.06 0-.09.07-.09h2.35v-.66h-2.68c-.07 0-.1 0-.1-.14v-.26c0-.09 0-.14.1-.14h1.56c-.15-.34-.29-.64-.43-.89h-1.83c-.05 0-.07 0-.07-.14v-.26c0-.07 0-.1.07-.1h1.41a2.4 2.4 0 0 0 -.11-.23 4.79 4.79 0 0 0 -.5-.77s.14-.11.43-.26a7.18 7.18 0 0 1 .51.75 3.91 3.91 0 0 1 .24.51h.55v-1.32c0-.06 0-.1.12-.1.43-.04.64 0 .64.1zm1.29 2.79c.08-.18.15-.33.2-.47a3.41 3.41 0 0 0 .14-.42h-2.5c.17.29.34.59.49.89z" fill="#383736"/><path d="m22 260.22.69.47-.05.08-.23.32h3c.07 0 .1 0 .1.11v.33c0 .08 0 .13-.1.13h-3v2.15h2.59c.07 0 .1 0 .1.11v.33c0 .09 0 .13-.1.13h-2.64v2.22h3.35a.09.09 0 0 1 .1.1v.3c0 .08 0 .13-.1.13h-7.37c-.07 0-.1-.05-.1-.13v-.34a.09.09 0 0 1 .1-.1h3.38v-2.22h-2.72c-.07 0-.11 0-.11-.13v-.33a.1.1 0 0 1 .11-.11h2.71v-2.15h-3c-.07 0-.1-.05-.1-.13v-.33c0-.07 0-.11.1-.11h3.52a9.08 9.08 0 0 0 -.81-.57 5.72 5.72 0 0 0 -.66-.33 2.06 2.06 0 0 1 .27-.37.1.1 0 0 1 .07-.05 8.5 8.5 0 0 1 .9.49z" fill="#383736"/><path d="m29.7 260c.07.06.1.09.1.12a.11.11 0 0 1 -.1.13c-.12 0-.2 0-.22.1l-.09.16h2.66c.09 0 .14 0 .16.05s.17.18.17.23l-1.27 1.29h2.21c.08 0 .13 0 .13.1v3.05c0 .07-.05.1-.13.1h-.32c-.1 0-.14 0-.14-.1v-.23h-4.62v1.36c0 .27.16.4.5.4h4.44a.44.44 0 0 0 .49-.33 4.16 4.16 0 0 0 .18-.77 1.43 1.43 0 0 0 .46.27.12.12 0 0 1 .11.13 3.11 3.11 0 0 1 -.29.89c-.1.24-.34.37-.75.37h-5c-.51 0-.77-.19-.77-.56v-4.2l-.43.28a.56.56 0 0 1 -.2 0l-.35-.15s-.05 0-.05-.05 0 0 .05-.07a5.55 5.55 0 0 0 1.25-1 4.1 4.1 0 0 0 .56-.7 5.09 5.09 0 0 0 .52-1 .14.14 0 0 1 .11-.07zm.63 2.08 1.05-1h-2.31a3.18 3.18 0 0 1 -.3.4 6.87 6.87 0 0 1 -.58.63zm-2.09 2.35h2.05v-1.82h-2.05zm2.65 0h2v-1.82h-2z" fill="#383736"/><path d="m38.52 261.92v-1h1v1zm0 3.41v-1h1v1z" fill="#383736"/><path d="m47.19 263.76a2.16 2.16 0 0 1 -1.38.41h-1.42v2.51h-.6v-5.58h2a2.28 2.28 0 0 1 1.4.41 1.37 1.37 0 0 1 .52 1.13 1.32 1.32 0 0 1 -.52 1.12zm-1.38-2.09h-1.42v1.93h1.42a1.61 1.61 0 0 0 1-.28.85.85 0 0 0 .31-.68c.02-.64-.43-.97-1.31-.97z" fill="#383736"/><path d="m52.86 266.66-.65-1.59h-2.74l-.66 1.59h-.62l2.32-5.57h.65l2.32 5.57zm-2-4.88-1.14 2.74h2.28z" fill="#383736"/><path d="m57.89 266.67-3.18-4.75v4.75h-.59v-5.58h.71l3.17 4.75v-4.75h.6v5.58z" fill="#383736"/><path d="m61.78 261.67v5h-.58v-5h-1.91v-.57h4.4v.57z" fill="#383736"/><path d="m68.39 265.9a2.3 2.3 0 0 1 -3.57 0 3.6 3.6 0 0 1 0-4 2.33 2.33 0 0 1 3.57 0 3.6 3.6 0 0 1 0 4zm-.47-3.69a1.59 1.59 0 0 0 -1.32-.63 1.56 1.56 0 0 0 -1.31.63 2.55 2.55 0 0 0 -.5 1.66 2.64 2.64 0 0 0 .5 1.69 1.56 1.56 0 0 0 1.31.63 1.59 1.59 0 0 0 1.32-.63 2.7 2.7 0 0 0 .5-1.69 2.61 2.61 0 0 0 -.5-1.66z" fill="#383736"/><path d="m73.63 266.67-3.17-4.75v4.75h-.6v-5.58h.71l3.18 4.75v-4.75h.6v5.58z" fill="#383736"/><path d="m75.37 266.67v-5.58h3.51v.57h-2.88v1.89h2.59v.55h-2.59v2h2.92v.56z" fill="#383736"/><path d="m85.6 266.3a1.83 1.83 0 0 1 -1.25.45 1.53 1.53 0 0 1 -1.68-1.3l.56-.19a1 1 0 0 0 1.12.93 1.19 1.19 0 0 0 .84-.29.94.94 0 0 0 .33-.72 1.13 1.13 0 0 0 -.31-.78 1.09 1.09 0 0 0 -.77-.31h-.66v-.56h.57a.93.93 0 0 0 .66-.34 1 1 0 0 0 .33-.7.83.83 0 0 0 -1-.91.93.93 0 0 0 -1 .89l-.56-.18a1.64 1.64 0 0 1 .47-.88 1.47 1.47 0 0 1 1.06-.38 1.56 1.56 0 0 1 1.13.4 1.41 1.41 0 0 1 .4 1.06 1.33 1.33 0 0 1 -.77 1.24 1.42 1.42 0 0 1 .71.55 1.63 1.63 0 0 1 .25.9 1.41 1.41 0 0 1 -.43 1.12z" fill="#383736"/><path d="m90.38 263.51a9 9 0 0 1 -.91 1 4.44 4.44 0 0 0 -1.28 1.66h2.57v.55h-3.39a4.12 4.12 0 0 1 .63-1.42 6.94 6.94 0 0 1 1.08-1.19 5.23 5.23 0 0 0 .84-.89 1.28 1.28 0 0 0 .26-.74.77.77 0 0 0 -.27-.6 1.31 1.31 0 0 0 -.87-.26c-.69 0-1.07.45-1.13 1.34l-.56-.22a1.94 1.94 0 0 1 .53-1.22 1.53 1.53 0 0 1 1.12-.52 2 2 0 0 1 1.26.36 1.3 1.3 0 0 1 .47 1.05 1.9 1.9 0 0 1 -.35 1.1z" fill="#383736"/><path d="m94.09 264a9.76 9.76 0 0 0 -.27 2.7h-.6a9.56 9.56 0 0 1 .28-2.63 6.08 6.08 0 0 1 1.42-2.39h-3.1v-.57h3.83v.56a5.67 5.67 0 0 0 -1.56 2.33z" fill="#383736"/><path d="m99.73 263.51a9 9 0 0 1 -.91 1 4.29 4.29 0 0 0 -1.27 1.66h2.56v.55h-3.39a4.12 4.12 0 0 1 .63-1.42 6.94 6.94 0 0 1 1.08-1.19 5.23 5.23 0 0 0 .84-.89 1.28 1.28 0 0 0 .26-.74.77.77 0 0 0 -.27-.6 1.31 1.31 0 0 0 -.87-.26c-.69 0-1.07.45-1.13 1.34l-.56-.22a1.94 1.94 0 0 1 .53-1.22 1.53 1.53 0 0 1 1.16-.45 2 2 0 0 1 1.26.36 1.3 1.3 0 0 1 .47 1.05 1.9 1.9 0 0 1 -.39 1.03z" fill="#383736"/><path d="m104.91 262.54a1.43 1.43 0 0 0 -1.43-1 1.53 1.53 0 0 0 -1.23.65 2.61 2.61 0 0 0 -.57 1.76 2.46 2.46 0 0 0 .52 1.66 1.45 1.45 0 0 0 1.15.54 1.47 1.47 0 0 0 .93-.28 2 2 0 0 0 .56-.82l.54.21a2.09 2.09 0 0 1 -2 1.45 2 2 0 0 1 -1.6-.74 3 3 0 0 1 -.66-2 3.2 3.2 0 0 1 .7-2.11 2.12 2.12 0 0 1 1.69-.85 2 2 0 0 1 2 1.3z" fill="#383736"/><path d="m117.92 260.45a3.16 3.16 0 0 1 -1 .44 4.52 4.52 0 0 1 -1.27.17v1.76h2.35c.06 0 .1.05.1.14v.26c0 .08 0 .13-.1.13h-2.33v2.52l.47-.11c.65-.15 1.25-.31 1.83-.5h.06a.07.07 0 0 1 .07.07 1.48 1.48 0 0 1 0 .47c-1 .29-2 .55-3.06.79-.08.16-.14.24-.19.24s-.16-.23-.33-.7c.18 0 .38-.06.59-.11v-5.5a.09.09 0 0 1 .1-.1l.31.12a6.12 6.12 0 0 0 1.16-.13 2.82 2.82 0 0 0 1.06-.47s.06-.06.09-.06a.18.18 0 0 1 .11.05c.28.24.43.39.43.45s0 .16-.1.16l-.2-.09zm1.49 6.95c0 .07 0 .1-.13.1h-.28c-.1 0-.14 0-.14-.1v-7c0-.08 0-.13.14-.13h2.85c.11 0 .17.05.17.13v5.27c0 .22-.16.4-.48.52a6.19 6.19 0 0 1 -1.18.19c-.06 0-.1 0-.11-.11a1.67 1.67 0 0 0 -.19-.52s0 0 .1 0a3.8 3.8 0 0 0 1.06-.08.27.27 0 0 0 .2-.26v-4.57h-2z" fill="#383736"/><path d="m124.23 262.62a20.51 20.51 0 0 1 -.12 2.39 7.6 7.6 0 0 1 -.33 1.47 3.91 3.91 0 0 1 -.35.85h-.09a1.7 1.7 0 0 0 -.3-.23.17.17 0 0 1 0-.12 5 5 0 0 0 .34-1 12.24 12.24 0 0 0 .22-1.43c0-.52.07-1.15.07-1.9v-2.39c0-.09 0-.13.14-.13h4c.08 0 .13 0 .13.09v1.87a.12.12 0 0 1 -.13.13h-1.23v1.1h1.3c.11 0 .17 0 .17.13v3.13c0 .14-.09.23-.26.31a2.8 2.8 0 0 1 -.61.11.1.1 0 0 1 -.11-.1 1.62 1.62 0 0 0 -.19-.53s0 0 0 0a1.18 1.18 0 0 0 .44 0 .14.14 0 0 0 .08-.13v-2.34h-.86v3.62c0 .07 0 .11-.13.11h-.33c-.1 0-.14 0-.14-.11v-3.62h-.86v3c0 .06 0 .09-.13.09h-.33c-.1 0-.14 0-.14-.09v-3.42c0-.09 0-.13.14-.13h1.38v-1.1h-1.72zm0-1h3.08v-1h-3.08zm5.18-.67c0 .08 0 .12-.08.13s-.09.07-.09.17v4.42c0 .07-.05.1-.14.1h-.33c-.08 0-.13 0-.13-.1v-4.67c0-.07.05-.1.13-.1.43-.01.64.02.64.1zm1.39-1c.06 0 .1.05.1.07s0 .08-.1.08-.17.17-.17.39v6.34c0 .39-.29.59-.89.59h-.53c-.05 0-.07-.05-.07-.14a1.89 1.89 0 0 0 -.16-.39s0-.06.07-.06a5 5 0 0 0 .62.06c.24 0 .37-.1.37-.3v-6.13a2.91 2.91 0 0 0 0-.38.41.41 0 0 1 0-.16s.05-.07.17-.07z" fill="#383736"/><path d="m133.41 264.11c.14.3.22.45.22.47a.18.18 0 0 1 0 .12c-.28.6-.55 1.11-.79 1.54-.14.23-.31.5-.51.79a.62.62 0 0 0 -.05.27c0 .07 0 .1-.07.1a2.48 2.48 0 0 1 -.51-.51.12.12 0 0 1 -.06-.08.11.11 0 0 1 0-.11 4.94 4.94 0 0 0 .49-.57 11.64 11.64 0 0 0 .67-1.07 9.92 9.92 0 0 0 .5-.95s0-.07 0-.07.1.03.11.07zm-.7-1.53c.22.16.42.28.59.4 0 0 0 0-.06.08l-.28.39a7.19 7.19 0 0 0 -.78-.54 3 3 0 0 0 -.55-.29 1.47 1.47 0 0 1 .26-.37s.05-.06.07-.06a7.16 7.16 0 0 1 .75.39zm.3-2.23.55.38v.07l-.26.36a6 6 0 0 0 -.75-.48 3.92 3.92 0 0 0 -.55-.25 1.89 1.89 0 0 1 .26-.37.15.15 0 0 1 .07-.06c.25.13.49.25.67.35zm5.13 1.37s.07 0 .07.11v.26c0 .09 0 .14-.07.14h-1.23v.69h1.86c.08 0 .13 0 .13.09v3c0 .07-.05.1-.13.1h-1a4 4 0 0 0 .69.5 5.39 5.39 0 0 0 .82.35s.07.05.07.08a2 2 0 0 1 -.37.43h-.08a6.27 6.27 0 0 1 -1.49-.92l-.05-.06q0-.08.33-.36h-2.07l.38.28c0 .05.07.08.07.12s0 0-.08 0a.43.43 0 0 0 -.17.05 6 6 0 0 1 -.6.46 7.37 7.37 0 0 1 -1 .5.15.15 0 0 1 -.14-.07 2.84 2.84 0 0 1 -.29-.24c-.06 0-.07 0-.07-.06s0 0 0 0a2.42 2.42 0 0 0 .46-.16 4.51 4.51 0 0 0 .69-.42 5.83 5.83 0 0 0 .52-.44h-1.05c-.08 0-.13 0-.13-.1v-3c0-.05.05-.09.13-.09h1.86v-.69h-1.2s-.07-.05-.07-.14v-.26c0-.07 0-.11.07-.11zm-1.06-1.93c0 .09 0 .13-.09.13s-.08.08-.08.18v.46h2.16c.08 0 .13 0 .13.1v1.34c0 .07 0 .1-.13.1h-.34c-.08 0-.12 0-.12-.1v-.93h-4.13v1c0 .07 0 .1-.12.1h-.36c-.1 0-.14 0-.14-.1v-1.36c0-.07 0-.1.14-.1h2.28v-.77c0-.05 0-.09.14-.09.44-.05.66-.01.66.04zm-.77 4.46v-.83h-1.39v.83zm0 .5h-1.39v.86h1.39zm.6-.5h1.39v-.83h-1.39zm1.39.5h-1.39v.86h1.39z" fill="#383736"/><path d="m143.12 260c.07.06.1.09.1.12a.11.11 0 0 1 -.1.13c-.12 0-.2 0-.22.1s-.07.12-.09.16h2.66a.23.23 0 0 1 .17.05c.11.1.17.18.17.23l-1.28 1.29h2.21c.09 0 .13 0 .13.1v3.05c0 .07 0 .1-.13.1h-.33c-.09 0-.14 0-.14-.1v-.23h-4.61v1.36c0 .27.16.4.5.4h4.45a.43.43 0 0 0 .48-.33 4.16 4.16 0 0 0 .18-.77 1.46 1.46 0 0 0 .47.27.12.12 0 0 1 .1.13 3.11 3.11 0 0 1 -.29.89c-.09.24-.34.37-.75.37h-5c-.51 0-.77-.19-.77-.56v-4.2c-.15.1-.29.2-.43.28a.6.6 0 0 1 -.2 0l-.34-.15s-.05 0-.05-.05 0 0 .05-.07a5.78 5.78 0 0 0 1.25-1 4.65 4.65 0 0 0 .56-.7 5.09 5.09 0 0 0 .52-1 .11.11 0 0 1 .11-.07zm.63 2.08 1.05-1h-2.31a3.18 3.18 0 0 1 -.3.4q-.27.33-.57.63zm-2.09 2.35h2.06v-1.82h-2.06zm2.65 0h2v-1.82h-2z" fill="#383736"/><path d="m155.19 262.54a1.41 1.41 0 0 0 -1.43-1 1.54 1.54 0 0 0 -1.23.65 2.66 2.66 0 0 0 -.53 1.81 2.42 2.42 0 0 0 .53 1.66 1.42 1.42 0 0 0 1.14.54 1.5 1.5 0 0 0 .94-.28 2 2 0 0 0 .55-.82l.55.21a2.09 2.09 0 0 1 -2 1.45 2 2 0 0 1 -1.71-.76 2.93 2.93 0 0 1 -.67-2 3.2 3.2 0 0 1 .7-2.11 2.12 2.12 0 0 1 1.69-.85 2 2 0 0 1 2 1.3z" fill="#383736"/><path d="m158.05 266.68v-4.46h-1.18v-.34a1.62 1.62 0 0 0 .74-.18 1.11 1.11 0 0 0 .55-.6h.43v5.58z" fill="#383736"/><path d="m163 266.75c-1.21 0-1.82-1-1.82-2.88a4.26 4.26 0 0 1 .4-2.08 1.71 1.71 0 0 1 2.84 0 4.38 4.38 0 0 1 .4 2.08c.01 1.92-.6 2.88-1.82 2.88zm.91-4.68a1 1 0 0 0 -.91-.48 1 1 0 0 0 -.91.48 3.67 3.67 0 0 0 -.32 1.8 3.72 3.72 0 0 0 .32 1.81 1.07 1.07 0 0 0 1.82 0 3.84 3.84 0 0 0 .32-1.81 3.79 3.79 0 0 0 -.31-1.8z" fill="#383736"/><path d="m167.69 266.75c-1.22 0-1.82-1-1.82-2.88a4.15 4.15 0 0 1 .4-2.08 1.53 1.53 0 0 1 1.42-.76 1.56 1.56 0 0 1 1.42.76 4.38 4.38 0 0 1 .4 2.08c0 1.92-.62 2.88-1.82 2.88zm.91-4.68a1 1 0 0 0 -.91-.48 1 1 0 0 0 -.91.48 3.66 3.66 0 0 0 -.33 1.8 3.7 3.7 0 0 0 .33 1.81 1 1 0 0 0 .91.51 1 1 0 0 0 .91-.51 3.84 3.84 0 0 0 .32-1.81 3.79 3.79 0 0 0 -.32-1.8z" fill="#383736"/><path d="m175.79 264.06v2.61h-.6v-2.61l-2.21-3h.71l1.8 2.48 1.8-2.48h.71z" fill="#383736"/><path d="m181.63 266.23a1.66 1.66 0 0 1 -1.25.52 1.61 1.61 0 0 1 -1.62-1.17l.55-.24a1.11 1.11 0 0 0 1.07.85 1.05 1.05 0 0 0 .83-.36 1.54 1.54 0 0 0 .37-1.11c0-.9-.34-1.36-1-1.36a1.08 1.08 0 0 0 -1 .69h-.58v-2.95h2.94v.57h-2.35v1.53a1.23 1.23 0 0 1 1-.39 1.47 1.47 0 0 1 1.18.52 2.42 2.42 0 0 1 -.11 2.9z" fill="#383736"/><path d="m185.14 266.75c-1.22 0-1.82-1-1.82-2.88a4.15 4.15 0 0 1 .4-2.08 1.53 1.53 0 0 1 1.42-.76 1.56 1.56 0 0 1 1.42.76 4.38 4.38 0 0 1 .4 2.08c.04 1.92-.62 2.88-1.82 2.88zm.91-4.68a1 1 0 0 0 -.91-.48 1 1 0 0 0 -.91.48 3.66 3.66 0 0 0 -.33 1.8 3.7 3.7 0 0 0 .33 1.81 1 1 0 0 0 .91.51 1 1 0 0 0 .91-.51 3.84 3.84 0 0 0 .32-1.81 3.79 3.79 0 0 0 -.32-1.8z" fill="#383736"/><path d="m.68 273.13h190.68v79.47h-190.68z" fill="#009e96"/><path d="m6.72 243v-2c0-.08 0-.12.16-.12.49 0 .74 0 .74.12s0 .14-.1.15-.1.08-.1.2v1.65h.9c.08 0 .12.06.12.16v.31c0 .11 0 .16-.12.16h-.77a9.76 9.76 0 0 0 .36 1.06 5 5 0 0 0 .71 1.25.16.16 0 0 1 .05.11s0 .05-.06.08a2.3 2.3 0 0 1 -.27.28.11.11 0 0 1 -.2 0 5.78 5.78 0 0 1 -.61-1.19 2.83 2.83 0 0 1 -.11-.31v5q0 .12-.15.12h-.39c-.11 0-.16 0-.16-.12v-4c-.1.3-.19.58-.29.83a7.7 7.7 0 0 1 -.57 1.23.18.18 0 0 1 -.16-.06 4.11 4.11 0 0 1 -.42-.21c-.06 0-.08 0-.08 0a9.22 9.22 0 0 0 .7-1.41 8.2 8.2 0 0 0 .42-1.27c.08-.28.17-.71.28-1.3h-1c-.08 0-.12-.05-.12-.16v-.31c0-.1 0-.16.12-.16zm3.52 5.15a.24.24 0 0 1 .07.13s0 0-.06 0a.27.27 0 0 0 -.16.06 4.3 4.3 0 0 1 -.54.58 7 7 0 0 1 -.88.61.14.14 0 0 1 -.15-.08c-.13-.11-.24-.2-.32-.28s-.07-.05-.07-.07a.05.05 0 0 1 0-.05 1.63 1.63 0 0 0 .42-.2 3.79 3.79 0 0 0 .61-.5c.14-.15.31-.34.49-.57 0 0 0-.05.05-.05zm4-1.43s.09 0 .09.11v.31c0 .11 0 .16-.09.16h-2.44v1.92c0 .49-.41.74-1.21.74h-.43c-.05 0-.07-.07-.07-.19a1.64 1.64 0 0 0 -.17-.52 3.57 3.57 0 0 0 .63.07c.36 0 .55-.12.55-.35v-1.64h-2.5c-.06 0-.08-.05-.08-.16v-.31c0-.07 0-.11.08-.11zm0-5.4s.07 0 .07.12v.31c0 .11 0 .16-.07.16h-1.74v.78h1.4c.11 0 .15 0 .15.12v1.91c0 .08 0 .12-.15.12h-5c-.11 0-.16 0-.16-.12v-1.91c0-.08.05-.12.16-.12h1.37v-.78h-1.6c-.05 0-.07 0-.07-.16v-.31c0-.08 0-.12.07-.12zm-.67 4.18s.08 0 .08.12v.31c0 .11 0 .16-.08.16h-4.31c-.06 0-.08 0-.08-.16v-.31c0-.08 0-.12.08-.12zm-3.31-2.22h-.8v1h.82zm1.56-1.37h-.9v.78h.9zm0 1.37h-.9v1h.9zm1.52 0h-.84v1h.86zm.36 5.16c.25.26.47.49.65.7v.07l-.3.4a7.38 7.38 0 0 0 -.86-.9 4.8 4.8 0 0 0 -.62-.47 1.67 1.67 0 0 1 .27-.41s.06-.06.08-.06a8.52 8.52 0 0 1 .8.65z" fill="#363736"/><path d="m16.7 243.09.65.44s0 0-.05.07a4.27 4.27 0 0 1 -.31.4c-.28-.2-.56-.39-.86-.57a4.48 4.48 0 0 0 -.62-.29 2 2 0 0 1 .27-.4s.06-.07.08-.07zm3.07 4.43v-.63q0-.12.15-.12.75 0 .75.12c0 .09 0 .14-.1.15s-.1.08-.1.2v.28h3.58q.12 0 .12.15v.33c0 .11 0 .16-.12.16h-3.58v1.8c0 .07-.06.11-.16.11h-.39c-.1 0-.15 0-.15-.11v-1.8h-4.14c-.08 0-.12 0-.12-.16v-.31q0-.15.12-.15zm-1.94-3.21c.14.32.22.49.22.51a.1.1 0 0 1 -.05.08 12.78 12.78 0 0 1 -1 1.16c-.17.18-.38.37-.62.58a.37.37 0 0 0 -.06.21c0 .08 0 .12-.08.12a2.64 2.64 0 0 1 -.56-.56.11.11 0 0 1 -.06-.11.1.1 0 0 1 0-.08 3.2 3.2 0 0 0 .6-.43 7.67 7.67 0 0 0 .82-.8c.23-.25.43-.49.61-.71 0 0 0-.05.07-.05s.09.03.11.08zm-.46-2.9.6.44s0 0 0 .07l-.3.4c-.26-.2-.52-.39-.8-.57a3.84 3.84 0 0 0 -.57-.29 1.85 1.85 0 0 1 .28-.4s0-.07.07-.07c.26.16.52.3.72.42zm3-.34c0 .06 0 .09-.05.09s-.16.05-.18.11c-.13.27-.25.5-.36.7h1.58l.19-.3a4.88 4.88 0 0 0 .29-.76s0-.07.06-.07a6.36 6.36 0 0 1 .82.39s0 .05-.12.07a.25.25 0 0 0 -.18.14c-.08.18-.17.35-.27.53h1.85s.07 0 .07.12v.31c0 .08 0 .12-.07.12h-2v.7h1.76c.05 0 .08 0 .08.12v.31c0 .1 0 .15-.08.15h-1.76v.67h1.76c.05 0 .08 0 .08.12v.31c0 .1 0 .15-.08.15h-1.76v.71h2.18s.09 0 .09.11v.32c0 .1 0 .15-.09.15h-4.65v.39q0 .12-.15.12h-.32q-.15 0-.15-.12v-3.65c-.18.19-.4.41-.67.65a.22.22 0 0 1 -.17-.09l-.27-.23a.14.14 0 0 1 -.06-.11c.22-.2.44-.42.67-.65a5 5 0 0 0 .76-1 4.66 4.66 0 0 0 .44-.94c0-.05 0-.08 0-.08a2.56 2.56 0 0 1 .74.44zm.94 1.45h-1.78v.7h1.76zm0 1.28h-1.78v.67h1.76zm0 2v-.71h-1.78v.71z" fill="#363736"/><path d="m28.91 241.13c.08.06.12.1.12.14a.14.14 0 0 1 -.12.15c-.14 0-.23 0-.26.12s-.08.14-.1.19h3.13a.27.27 0 0 1 .19.05c.13.12.2.21.2.27l-1.5 1.52h2.6c.09 0 .15 0 .15.12v3.59c0 .08-.06.12-.15.12h-.39c-.11 0-.16 0-.16-.12v-.28h-5.43v1.6c0 .32.19.47.59.47h5.22a.51.51 0 0 0 .57-.39 5.49 5.49 0 0 0 .21-.9 1.62 1.62 0 0 0 .54.31.15.15 0 0 1 .12.16 3.41 3.41 0 0 1 -.34 1.05c-.1.28-.4.43-.87.43h-5.84q-.9 0-.9-.66v-4.97l-.51.33a.53.53 0 0 1 -.23 0l-.41-.17s-.06 0-.06-.06 0-.06.06-.08a7 7 0 0 0 1.47-1.12 5.65 5.65 0 0 0 .66-.82 6.39 6.39 0 0 0 .61-1.18.14.14 0 0 1 .13-.08zm.74 2.44 1.24-1.21h-2.72a4.78 4.78 0 0 1 -.35.47 9.62 9.62 0 0 1 -.68.74zm-2.46 2.77h2.42v-2.14h-2.42zm3.12 0h2.31v-2.14h-2.31z" fill="#363736"/><path d="m37.62 245.52v-.78c0-.08.05-.12.16-.12.49 0 .74 0 .74.12s0 .14-.1.15-.1.08-.1.2v.43h1.92c.07 0 .11.06.11.16v.32c0 .11 0 .16-.11.16h-1.77a6.1 6.1 0 0 0 .53.73 3.54 3.54 0 0 0 .74.7 2.51 2.51 0 0 0 .73.4.11.11 0 0 1 -.09.11 3.53 3.53 0 0 0 -.33.37s-.07.07-.09.07a4.41 4.41 0 0 1 -.92-.69 4.17 4.17 0 0 1 -.69-.83v2.89q0 .12-.15.12h-.39c-.11 0-.16 0-.16-.12v-2.58l-.14.22a8.9 8.9 0 0 1 -.76.94 6.46 6.46 0 0 1 -.94.79.22.22 0 0 1 -.17-.06l-.38-.34a.26.26 0 0 1 0-.1 4.78 4.78 0 0 0 .73-.53 4.88 4.88 0 0 0 .87-.92c.17-.23.41-.61.72-1.13h-2c-.08 0-.12-.05-.12-.16v-.31c0-.1 0-.16.12-.16zm2.25-4a7 7 0 0 1 -1.09.35 12.16 12.16 0 0 1 -1.38.26 11.92 11.92 0 0 1 -1.38.09c-.12 0-.19 0-.21-.13l-.3-.41a.11.11 0 0 1 .12-.12h.58a8.92 8.92 0 0 0 1.36-.09 4.26 4.26 0 0 0 1-.2 3.34 3.34 0 0 0 1-.42h.08a.26.26 0 0 1 .17 0c.38.33.57.53.57.61a.11.11 0 0 1 -.12.12l-.27-.12zm-3.25 2a6 6 0 0 1 .34.77 2.17 2.17 0 0 1 -.67.2 3.11 3.11 0 0 0 -.23-.63 5.24 5.24 0 0 0 -.51-.86s.18-.16.55-.35c.21.35.38.59.52.85zm1.66-.23q.13.39.24.81a2.9 2.9 0 0 1 -.67.19 5.12 5.12 0 0 0 -.16-.66 6.6 6.6 0 0 0 -.34-.9s.18-.16.54-.35a9.2 9.2 0 0 1 .39.89zm2.34-.72q.09.07.09.12c0 .06 0 .09-.11.09s-.16.06-.18.12a10.47 10.47 0 0 1 -.77 1.55c-.1 0-.15 0-.16 0l-.46-.27a5.34 5.34 0 0 0 .52-.88 8 8 0 0 0 .34-1 .12.12 0 0 1 .11-.08zm3.83 4.22a.11.11 0 0 1 -.12.12.35.35 0 0 0 -.27.19c-.22.26-.52.59-.91 1a8.31 8.31 0 0 1 -1.39 1.16 10.41 10.41 0 0 1 -1.21.7.22.22 0 0 1 -.2-.1c-.11-.12-.21-.22-.29-.32s-.1-.06-.1-.09 0-.06.06-.08a8 8 0 0 0 1.5-.79 7.45 7.45 0 0 0 1.19-1 7.61 7.61 0 0 0 .89-1.16c.07-.08.12-.12.19-.12a3 3 0 0 1 .66.47zm-.4-5.55c.05.05.08.09.08.12s-.07.12-.19.12a.35.35 0 0 0 -.27.11 7.05 7.05 0 0 1 -.66.93 5.5 5.5 0 0 1 -.58.64q-.36.33-.69.6a5.52 5.52 0 0 1 -.57.38.17.17 0 0 1 -.17-.14 1.64 1.64 0 0 0 -.29-.35c-.07 0-.1-.07-.1-.1a5.65 5.65 0 0 0 .8-.47 6.31 6.31 0 0 0 .88-.8 3.54 3.54 0 0 0 .48-.61 7.37 7.37 0 0 0 .38-.69c0-.06.08-.09.11-.09zm.28 2.74c0 .08 0 .12-.12.12a.23.23 0 0 0 -.2.15c-.17.21-.42.48-.71.8a6.29 6.29 0 0 1 -1.07.95 7.76 7.76 0 0 1 -.94.56.2.2 0 0 1 -.2-.1 4 4 0 0 1 -.29-.32q-.09 0-.09-.09a.07.07 0 0 1 0-.06 5.38 5.38 0 0 0 1.16-.65 5.68 5.68 0 0 0 .93-.82 6.33 6.33 0 0 0 .68-.95.2.2 0 0 1 .15-.1c.47.27.7.44.7.53z" fill="#363736"/><path d="m.78 239.77h.84v11.26h-.84z" fill="#363736"/><path d="m.35 391.87h190.68v79.47h-190.68z" fill="#dcdddd"/><g fill="#383736"><path d="m3.74 381.91v-.41c0-.12 0-.35 0-.69 0 0 0-.07.13-.07l.63.08c.09 0 .13.06.13.09s0 .12-.08.14a.18.18 0 0 0 -.15.19v.67h5.12c.07 0 .11 0 .11.13v.26c0 .1 0 .14-.11.14h-5.15a21 21 0 0 1 -.18 2.47 7.26 7.26 0 0 1 -.68 2.21 6.08 6.08 0 0 1 -.84 1.23h-.12l-.56-.2a.11.11 0 0 1 0-.1 5.1 5.1 0 0 0 1-1.23 5.84 5.84 0 0 0 .59-1.69 16.25 16.25 0 0 0 .23-2.69h-1.66c-.06 0-.1 0-.1-.14v-.3c0-.08 0-.13.1-.13zm3.79 1.16s0 .08-.1.1a.28.28 0 0 0 -.17.26 10.06 10.06 0 0 1 -.12 1.48 3.57 3.57 0 0 0 .11.78 3 3 0 0 0 .32.73 2.61 2.61 0 0 0 .43.58 3 3 0 0 0 .69.53 3.57 3.57 0 0 0 1 .39s0 .08-.09.11l-.28.32c0 .05-.08.08-.1.08a6.2 6.2 0 0 1 -1-.49 2.44 2.44 0 0 1 -.64-.56 3.42 3.42 0 0 1 -.5-.65 2.86 2.86 0 0 1 -.24-.56c-.07.18-.15.34-.22.48a3 3 0 0 1 -.56.8 4.57 4.57 0 0 1 -.58.47 5.11 5.11 0 0 1 -1 .51.14.14 0 0 1 -.11-.08c-.09-.09-.18-.19-.3-.29v-.07a0 0 0 0 1 0 0 5.36 5.36 0 0 0 .8-.37 2.77 2.77 0 0 0 .64-.47 2.7 2.7 0 0 0 .55-.69 3.14 3.14 0 0 0 .35-.8 2.84 2.84 0 0 0 .16-.8 10 10 0 0 0 .09-1.49 1.66 1.66 0 0 0 0-.33.06.06 0 0 1 .07-.07 2.93 2.93 0 0 1 .8.1zm-1.49.7a.13.13 0 0 1 -.1.13.23.23 0 0 0 -.16.16 6.38 6.38 0 0 1 -.3 1.22c-.09.18-.17.36-.27.55s-.08.06-.1.06l-.49-.12s-.08 0-.08-.07a6 6 0 0 0 .44-.79 5 5 0 0 0 .29-1.25c0-.06.05-.09.14-.09.42.09.59.15.59.2zm3.32.08a.24.24 0 0 1 .06.11s0 .06 0 .06a.16.16 0 0 0 -.09.09c-.12.34-.24.63-.36.89a5.34 5.34 0 0 1 -.57.92c-.07 0-.12 0-.14-.06l-.29-.24s-.06 0-.06-.06a.2.2 0 0 1 0-.07 1.1 1.1 0 0 0 .27-.3 5.32 5.32 0 0 0 .4-.75c.09-.22.19-.51.31-.86 0-.05 0-.08 0-.08z"/><path d="m13.58 387.15a1.51 1.51 0 0 1 -1.17.53 1.64 1.64 0 0 1 -1.41-.68v.62h-.6v-5.62h.6v2.4a1.64 1.64 0 0 1 1.33-.65 1.58 1.58 0 0 1 1.25.56 2 2 0 0 1 .49 1.36 2.09 2.09 0 0 1 -.49 1.48zm-.4-2.43a1.08 1.08 0 0 0 -.87-.38 1.18 1.18 0 0 0 -.91.41 1.47 1.47 0 0 0 -.37 1 1.32 1.32 0 0 0 .39 1 1.29 1.29 0 0 0 .93.34 1.06 1.06 0 0 0 .82-.39 1.53 1.53 0 0 0 .33-1 1.5 1.5 0 0 0 -.32-.98z"/><path d="m17.39 387.63a1.61 1.61 0 0 1 -.11-.54v-.09a1.91 1.91 0 0 1 -1.46.69 1.31 1.31 0 0 1 -.85-.26.88.88 0 0 1 -.36-.72 1.11 1.11 0 0 1 .64-1.06 4.91 4.91 0 0 1 2-.37.9.9 0 0 0 -1-.94 1 1 0 0 0 -.91.5l-.58-.26a1.59 1.59 0 0 1 1.49-.79 1.49 1.49 0 0 1 1.16.44 1.68 1.68 0 0 1 .39 1.18v1.68a1.53 1.53 0 0 0 .09.54zm-2.19-.92a.33.33 0 0 0 .15.29.66.66 0 0 0 .47.17 1.34 1.34 0 0 0 1-.39 1.6 1.6 0 0 0 .5-1c-1.43.05-2.12.35-2.12.93z"/><path d="m19.65 384.68a1.15 1.15 0 0 0 -.42.95v2h-.59v-3.83h.59v.7a1.32 1.32 0 0 1 .64-.56 2.15 2.15 0 0 1 .81-.14v.54a1.55 1.55 0 0 0 -1.03.34z"/><path d="m25.92 380.71c0 .08 0 .12-.08.12s-.08.08-.08.18v.63h2.82c.06 0 .09.05.09.14v.22c0 .09 0 .13-.09.13h-6.11v2.06a10.71 10.71 0 0 1 -.15 2 4.83 4.83 0 0 1 -.39 1.26 3.19 3.19 0 0 1 -.42.73h-.09a2.26 2.26 0 0 0 -.31-.23.17.17 0 0 1 0-.12 3.6 3.6 0 0 0 .43-.86 7.14 7.14 0 0 0 .27-1.19 12.05 12.05 0 0 0 .09-1.6v-2.45a.12.12 0 0 1 .13-.14h3.16v-.93c0-.06 0-.1.13-.1.39.05.6.09.6.15zm1.79 2.34a5.3 5.3 0 0 1 -1.17.33.25.25 0 0 0 0 .12 9.57 9.57 0 0 0 .05 1.1h1.91c.07 0 .1 0 .1.13v.27c0 .09 0 .14-.1.14h-1.86a5.16 5.16 0 0 0 .35 1.13 3.26 3.26 0 0 0 .54.9 2.08 2.08 0 0 0 .5.49.85.85 0 0 0 .22.07s.06 0 .11-.1a6.1 6.1 0 0 0 .29-.75c0-.07 0-.11.06-.11s.05 0 .07.05a.8.8 0 0 0 .22.27.59.59 0 0 1 0 .17 9.49 9.49 0 0 1 -.44 1c-.12.14-.23.22-.33.22a1.33 1.33 0 0 1 -.67-.33 3.83 3.83 0 0 1 -.72-.83 4.5 4.5 0 0 1 -.57-1.22 6.11 6.11 0 0 1 -.22-.94h-2v1.74c.6-.14 1.17-.3 1.71-.47h.05a.07.07 0 0 1 .07.06 2.32 2.32 0 0 1 0 .47c-.93.27-1.87.51-2.83.73-.08.15-.14.23-.19.23s-.17-.23-.33-.7a7.16 7.16 0 0 0 1-.18v-4c0-.07 0-.11.1-.11l.4.16a14.47 14.47 0 0 0 1.86-.11 6.92 6.92 0 0 0 1.67-.43.56.56 0 0 1 .15 0h.09c.28.24.41.38.41.45s0 .14-.1.14l-.2-.1zm-1.09 4.74c.07 0 .1 0 .1.12v.27c0 .08 0 .13-.1.13h-2.93c-.06 0-.09-.05-.09-.13v-.27q0-.12.09-.12zm-.62-4.32a14.29 14.29 0 0 1 -1.86.13v1h1.86a10.08 10.08 0 0 1 0-1.13z"/><path d="m32.73 381c.07.05.1.09.1.12a.12.12 0 0 1 -.1.13c-.12 0-.2 0-.22.1l-.09.16h2.66a.24.24 0 0 1 .16 0c.12.11.17.18.17.23l-1.27 1.26h2.21c.08 0 .13 0 .13.1v3.05c0 .07 0 .1-.13.1h-.35c-.1 0-.14 0-.14-.1v-.27h-4.59v1.37c0 .27.16.39.5.39h4.44c.28 0 .44-.11.49-.33a4 4 0 0 0 .18-.76 1.37 1.37 0 0 0 .46.26.13.13 0 0 1 .11.14 3.11 3.11 0 0 1 -.29.89c-.1.24-.34.37-.75.37h-5c-.51 0-.77-.19-.77-.57v-4.19l-.43.28a.4.4 0 0 1 -.2 0l-.35-.14h-.05s0-.05.05-.07a5.86 5.86 0 0 0 1.25-1 4.72 4.72 0 0 0 .57-.7 5.74 5.74 0 0 0 .51-1 .14.14 0 0 1 .11-.07zm.63 2.08 1-1h-2.26a4.14 4.14 0 0 1 -.3.4 6.87 6.87 0 0 1 -.58.63zm-2.09 2.35h2.05v-1.82h-2.05zm2.65 0h2v-1.82h-2z"/><path d="m41.55 382.87v-1h1v1zm0 3.4v-1h1v1z"/><path d="m56.13 383.49a1.42 1.42 0 0 0 -1.43-1 1.56 1.56 0 0 0 -1.23.64 2.71 2.71 0 0 0 -.57 1.77 2.42 2.42 0 0 0 .53 1.66 1.55 1.55 0 0 0 2.08.25 2 2 0 0 0 .55-.81l.55.21a2.08 2.08 0 0 1 -2 1.44 2 2 0 0 1 -1.61-.65 2.92 2.92 0 0 1 -.67-2 3.22 3.22 0 0 1 .7-2.12 2.12 2.12 0 0 1 1.67-.88 2 2 0 0 1 2 1.31z"/><path d="m60.68 382.87v-1h1v1zm0 3.4v-1h1v1z"/><path d="m67.77 387.69c-1.21 0-1.81-1-1.81-2.88a4.1 4.1 0 0 1 .4-2.07 1.52 1.52 0 0 1 1.41-.76 1.54 1.54 0 0 1 1.42.76 4.21 4.21 0 0 1 .4 2.07c0 1.92-.59 2.88-1.82 2.88zm.91-4.67a1.09 1.09 0 0 0 -1.82 0 3.63 3.63 0 0 0 -.32 1.79 3.76 3.76 0 0 0 .32 1.82 1 1 0 0 0 .91.51 1 1 0 0 0 .91-.51 3.75 3.75 0 0 0 .33-1.82 3.61 3.61 0 0 0 -.33-1.81z"/><path d="m81.4 387.62v-4.68l-1.94 4.68h-.64l-1.94-4.68v4.68h-.6v-5.62h.82l2 4.92 2-4.92h.9v5.58z"/><path d="m86.24 382.87v-1h1v1zm0 3.4v-1h1v1z"/><path d="m93.33 387.69c-1.21 0-1.82-1-1.82-2.88a4.21 4.21 0 0 1 .4-2.07 1.71 1.71 0 0 1 2.84 0 4.21 4.21 0 0 1 .4 2.07c0 1.92-.61 2.88-1.82 2.88zm.91-4.67a1.09 1.09 0 0 0 -1.82 0 3.63 3.63 0 0 0 -.32 1.79 3.76 3.76 0 0 0 .32 1.82 1 1 0 0 0 .91.51 1 1 0 0 0 .91-.51 3.75 3.75 0 0 0 .33-1.82 3.61 3.61 0 0 0 -.33-1.81z"/><path d="m104.26 385v2.61h-.59v-2.61l-2.21-3h.71l1.8 2.47 1.8-2.47h.7z"/><path d="m110.34 382.87v-1h1v1zm0 3.4v-1h1v1z"/><path d="m117.44 387.69c-1.22 0-1.82-1-1.82-2.88a4.21 4.21 0 0 1 .4-2.07 1.71 1.71 0 0 1 2.84 0 4.33 4.33 0 0 1 .4 2.07c0 1.92-.61 2.88-1.82 2.88zm.91-4.67a1 1 0 0 0 -.91-.49 1 1 0 0 0 -.91.49 3.63 3.63 0 0 0 -.32 1.79 3.76 3.76 0 0 0 .32 1.82 1 1 0 0 0 .91.51 1 1 0 0 0 .91-.51 3.89 3.89 0 0 0 .32-1.82 3.75 3.75 0 0 0 -.32-1.81z"/><path d="m129.64 387.62-2.36-2.69-.74.73v2h-.54v-5.66h.59v2.86l2.9-2.86h.77l-2.52 2.49 2.7 3.09z"/><path d="m134.3 382.87v-1h1v1zm0 3.4v-1h1v1z"/><path d="m142.72 384.45a8.86 8.86 0 0 1 -.91 1 4.4 4.4 0 0 0 -1.28 1.65h2.57v.55h-3.39a4.07 4.07 0 0 1 .63-1.41 6.55 6.55 0 0 1 1.08-1.19 6.11 6.11 0 0 0 .84-.89 1.29 1.29 0 0 0 .26-.75.75.75 0 0 0 -.27-.59 1.31 1.31 0 0 0 -.87-.26c-.69 0-1.07.45-1.13 1.34l-.56-.22a2 2 0 0 1 .53-1.23 1.57 1.57 0 0 1 1.16-.45 2 2 0 0 1 1.26.37 1.27 1.27 0 0 1 .47 1 1.85 1.85 0 0 1 -.39 1.08z"/><path d="m146.07 387.69c-1.21 0-1.81-1-1.81-2.88a4.1 4.1 0 0 1 .4-2.07 1.52 1.52 0 0 1 1.41-.76 1.54 1.54 0 0 1 1.42.76 4.21 4.21 0 0 1 .4 2.07c0 1.92-.61 2.88-1.82 2.88zm.93-4.69a1 1 0 0 0 -.92-.49 1 1 0 0 0 -.9.49 3.5 3.5 0 0 0 -.33 1.79 3.63 3.63 0 0 0 .33 1.82 1 1 0 0 0 .9.51 1 1 0 0 0 .92-.51 3.89 3.89 0 0 0 .32-1.82 3.75 3.75 0 0 0 -.32-1.79z"/><path d="m5.67 74.05a.12.12 0 0 1 -.09.13c-.06 0-.08.07-.08.17v.83h1a2.28 2.28 0 0 0 .5-.48 6 6 0 0 0 .32-.6s0 0 .09 0l.53.28c.05 0 .07.06.07.09s0 .06-.1.06-.15 0-.17.07a5.51 5.51 0 0 1 -.45.63h1.27c.1 0 .16 0 .16.11v1.76c0 .06-.06.09-.16.09h-.33c-.1 0-.14 0-.14-.09v-1.41h-5.91v1.39c0 .07-.06.09-.17.09h-.33c-.08 0-.13 0-.13-.09v-1.79c0-.07.05-.11.13-.11h1.58a1.63 1.63 0 0 0 -.11-.18 4.19 4.19 0 0 0 -.57-.66 1.74 1.74 0 0 1 .46-.3 6.24 6.24 0 0 1 .58.68c.11.15.2.3.29.45h1v-1.12c-.01-.05.09-.05.09-.05.46 0 .67 0 .67.05zm2.16 4.39c.08 0 .13 0 .13.1v3c0 .07 0 .1-.13.1h-.33c-.1 0-.14 0-.14-.1v-.2h-4.36v.2c0 .07-.05.1-.14.1h-.38c-.09 0-.14 0-.14-.1v-3c0-.07.05-.1.14-.1zm-3 1.22v-.73h-1.83v.73zm0 1.2v-.69h-1.83v.69zm2.27-4.61c.08 0 .13 0 .13.1v1.49c0 .07-.05.1-.13.1h-3.82c-.09 0-.14 0-.14-.1v-1.49c0-.07 0-.1.14-.1zm-.47.5h-2.89v.7h2.89zm-1.16 2.91h1.89v-.73h-1.89zm1.89 1.2v-.69h-1.89v.69z"/><path d="m14.5 73.93c0 .07 0 .12-.08.12s-.08.07-.08.17v.63h2.82c.06 0 .09.05.09.14v.26c0 .09 0 .13-.09.13h-6.11v2.07a10.85 10.85 0 0 1 -.15 2 4.88 4.88 0 0 1 -.39 1.25 3.19 3.19 0 0 1 -.42.73h-.09a2.26 2.26 0 0 0 -.31-.23.16.16 0 0 1 0-.12 3.6 3.6 0 0 0 .43-.86 7.14 7.14 0 0 0 .24-1.22 12 12 0 0 0 .09-1.59v-2.41a.12.12 0 0 1 .13-.14h3.15v-.92c0-.07 0-.11.14-.11.42-.01.63.03.63.1zm1.79 2.33a5.91 5.91 0 0 1 -1.17.34.2.2 0 0 0 0 .11 9.36 9.36 0 0 0 .06 1.1h1.91c.07 0 .1 0 .1.13v.26c0 .09 0 .14-.1.14h-1.87a5.25 5.25 0 0 0 .35 1.14 3.35 3.35 0 0 0 .54.89 2.08 2.08 0 0 0 .5.49.85.85 0 0 0 .22.07s.06 0 .11-.09a7.6 7.6 0 0 0 .29-.76c0-.07 0-.11.06-.11s.05 0 .07 0a.71.71 0 0 0 .22.27.59.59 0 0 1 0 .17 8.58 8.58 0 0 1 -.44 1c-.12.14-.23.22-.33.22a1.33 1.33 0 0 1 -.67-.33 3.83 3.83 0 0 1 -.72-.83 4.5 4.5 0 0 1 -.57-1.22 6.11 6.11 0 0 1 -.22-.94h-2v1.74c.6-.14 1.17-.3 1.71-.47a.07.07 0 0 1 .07.06 2.23 2.23 0 0 1 0 .47c-.93.27-1.87.51-2.83.73-.08.15-.14.23-.19.23s-.17-.23-.33-.7a9 9 0 0 0 1-.17v-4c0-.07 0-.11.1-.11l.4.17a16.17 16.17 0 0 0 1.86-.12 6.49 6.49 0 0 0 1.67-.43.56.56 0 0 1 .15 0h.09c.27.24.41.38.41.45s0 .14-.1.14l-.2-.1zm-1.09 4.74c.06 0 .1 0 .1.12v.27c0 .08 0 .13-.1.13h-2.93c-.06 0-.09 0-.09-.13v-.27q0-.12.09-.12zm-.67-4.32a12.73 12.73 0 0 1 -1.86.13v1h1.93a10.08 10.08 0 0 1 -.07-1.13z"/><path d="m25.35 74.16c.09 0 .14 0 .14.1v7.37c0 .06 0 .1-.14.1h-.35c-.08 0-.13 0-.13-.1v-.24h-5.6v.24c0 .06-.06.1-.14.1h-.33c-.1 0-.14 0-.14-.1v-7.37c0-.07 0-.1.14-.1zm-.46 6.74v-6.24h-5.6v6.24zm-.89-5.75c.08 0 .13 0 .13.1v1.13c0 .07-.05.1-.13.1h-1.5v.4h2.06s.06 0 .06.1v.26c0 .07 0 .1-.06.1h-4.78c-.05 0-.07 0-.07-.1v-.24c0-.07 0-.1.07-.1h2.16v-.4h-1.53c-.09 0-.13 0-.13-.1v-1.15c0-.07 0-.1.13-.1zm.26 2.66c.09 0 .14 0 .14.09v2.53c0 .07-.05.1-.14.1h-4.26c-.1 0-.14 0-.14-.1v-2.53c0-.06 0-.09.14-.09zm-.42.43h-3.4v1.86h3.43zm-.28-2.66h-2.72v.47h2.75zm-.33 3c.09 0 .14 0 .14.06v1.06s0 .07-.14.07h-2.13c-.08 0-.12 0-.12-.07v-1.07s0-.06.12-.06zm-.36.4h-1.4v.4h1.43z"/><path d="m28.68 74.12a.12.12 0 0 1 -.09.13c-.05 0-.07.07-.07.17v.9h.69a.72.72 0 0 1 .21 0c.17.13.25.23.25.3a8.88 8.88 0 0 1 -.8 1.54l-.16.22a3.19 3.19 0 0 0 .41.49 3.33 3.33 0 0 0 .82.56s.06 0 .06.05a.15.15 0 0 1 -.06.07 1.39 1.39 0 0 1 -.24.25s-.07.08-.1.08a.21.21 0 0 1 -.11 0 2.86 2.86 0 0 1 -.7-.57l-.15-.17v3.39c0 .07 0 .11-.12.11h-.34c-.09 0-.13 0-.13-.11v-3.4c-.26.23-.55.47-.87.71a.06.06 0 0 1 -.07-.07l-.25-.37a.07.07 0 0 1 0-.06.22.22 0 0 1 0-.1 6.35 6.35 0 0 0 .77-.45 4.48 4.48 0 0 0 .8-.82 4 4 0 0 0 .49-.83c.05-.09.09-.19.14-.29h-2c-.06 0-.1 0-.1-.13v-.27c0-.09 0-.13.1-.13h.86v-1.2c0-.07.05-.1.14-.1.41-.02.62.03.62.1zm1.6 2.73a.2.2 0 0 1 .06.09s0 0-.06 0-.11 0-.12 0a4.81 4.81 0 0 1 -.49.61.22.22 0 0 1 -.12 0l-.34-.21a2.8 2.8 0 0 0 .33-.38 3.9 3.9 0 0 0 .2-.42.09.09 0 0 1 .07 0zm3.57-1.13c.09 0 .14 0 .14.09v2.3c0 .07-.05.09-.14.09h-2.08l-.31.5h2.16a.2.2 0 0 1 .14 0 .65.65 0 0 1 .16.22 5.68 5.68 0 0 1 -.5.88 4.24 4.24 0 0 1 -.59.65 1 1 0 0 1 -.19.14 1.18 1.18 0 0 0 .19.1 4.93 4.93 0 0 0 .94.3 3.55 3.55 0 0 0 .76.08.3.3 0 0 1 -.06.13c-.06.12-.11.23-.16.35s0 .09-.06.09a7.26 7.26 0 0 1 -.88-.17 4.59 4.59 0 0 1 -.77-.29 3.56 3.56 0 0 1 -.45-.27h-.08a7.69 7.69 0 0 1 -1.12.45 8.86 8.86 0 0 1 -1.07.24q-.12 0-.15-.06a2 2 0 0 1 -.18-.26.12.12 0 0 1 0-.08s0 0 .06 0c.27 0 .54-.09.8-.15a5.46 5.46 0 0 0 1.23-.43l.12-.06a3.11 3.11 0 0 1 -.37-.46 3.26 3.26 0 0 1 -.41-.8l-.27.28a6.29 6.29 0 0 1 -.7.54.18.18 0 0 1 -.14-.06l-.29-.29a.19.19 0 0 1 0-.09 4.48 4.48 0 0 0 .53-.34 3.82 3.82 0 0 0 .63-.6c.11-.13.25-.33.43-.59h-.4c-.08 0-.13 0-.13-.09v-2.3c0-.06.05-.09.13-.09zm-2.35-1.43s0 .07-.05.07-.13 0-.15.09-.08.17-.11.23h3.17s.06 0 .06.11v.26c0 .07 0 .1-.06.1h-3.46a.88.88 0 0 1 -.17.2c-.1.12-.28.3-.52.53a.19.19 0 0 1 -.16-.08 1.86 1.86 0 0 1 -.22-.19.12.12 0 0 1 -.06-.09l.4-.39a3.31 3.31 0 0 0 .45-.58 5.38 5.38 0 0 0 .25-.56s0-.06 0-.06a2.16 2.16 0 0 1 .63.36zm1.89 2.46v-.57h-2.22v.57zm0 .42h-2.22v.57h2.22zm-1.76 2.51a2.72 2.72 0 0 0 .47.58.31.31 0 0 0 .09.07 1.37 1.37 0 0 0 .24-.18 2.08 2.08 0 0 0 .53-.62 2.37 2.37 0 0 0 .21-.33h-1.77a1.79 1.79 0 0 0 .23.48z"/><path d="m36.86 75.74c.08 0 .12.06.12.11s0 .11-.13.13a.19.19 0 0 0 -.2.15l-.2.47a4.58 4.58 0 0 0 .66.48s0 0 0 .09a1.55 1.55 0 0 1 -.25.33 3.35 3.35 0 0 1 -.59-.44 6.72 6.72 0 0 1 -.44.72c-.07.08-.13.12-.17.12a.19.19 0 0 1 -.12-.05l-.31-.14s-.06 0-.06 0a.28.28 0 0 1 .05-.09 7.15 7.15 0 0 0 .66-.88 4.1 4.1 0 0 0 .47-1c0-.1.07-.15.11-.15zm.14 2.73v-.47s0-.07.09-.07c.4 0 .6 0 .6.11s0 .11-.06.11-.07.06-.07.15v.2h1.44s.06 0 .06.1v.27c0 .08 0 .13-.06.13h-1.35a4.53 4.53 0 0 0 .48.68 3 3 0 0 0 .65.63 2.4 2.4 0 0 0 .62.35s0 .06-.07.08a1.63 1.63 0 0 0 -.33.26s0 0-.07 0a3.69 3.69 0 0 1 -.78-.59 3.53 3.53 0 0 1 -.59-.71s0 0 0-.05v1.85c0 .07 0 .1-.14.1h-.33c-.07 0-.09 0-.09-.1v-1.81c-.07.1-.12.19-.17.25a7.81 7.81 0 0 1 -.56.68 6.75 6.75 0 0 1 -.7.57.18.18 0 0 1 -.15 0c-.1-.11-.2-.2-.29-.29a.16.16 0 0 1 0-.09 5.85 5.85 0 0 0 .53-.37 4.52 4.52 0 0 0 .64-.66c.11-.15.28-.41.51-.76h-1.36c-.05 0-.07 0-.07-.13v-.27c0-.06 0-.1.07-.1zm.75-4.42c0 .08 0 .12-.07.13s-.09.07-.09.17v.65h1.33s.07 0 .07.09v.27c0 .09 0 .13-.07.13h-3.47c-.05 0-.07 0-.07-.13v-.27c0-.06 0-.09.07-.09h1.55v-.91c0-.06 0-.1.12-.1.44.01.65.01.65.06zm.77 1.76c.07 0 .1.07.1.11a.13.13 0 0 1 -.09.12c-.09 0-.13 0-.15.13s-.1.31-.15.44a1.69 1.69 0 0 0 .25.37 2.82 2.82 0 0 0 .52.46s0 0 0 0 0 0-.06.06a1 1 0 0 1 -.23.24s-.06.06-.07.06a.12.12 0 0 1 -.09 0 2 2 0 0 1 -.44-.48.74.74 0 0 1 -.13-.21c-.11.22-.2.41-.29.56s-.09.13-.11.13a.27.27 0 0 1 -.13 0l-.28-.12s-.06 0-.06 0a.23.23 0 0 1 0-.09 5.83 5.83 0 0 0 .48-.81 5.16 5.16 0 0 0 .34-.92c0-.09 0-.14.07-.14zm2.1-1.64q.09.08.09.12a.1.1 0 0 1 -.07.1.1.1 0 0 0 -.12.09 8.8 8.8 0 0 1 -.33.93h.89a3.67 3.67 0 0 0 .17-.36 6.11 6.11 0 0 0 .3-1c0-.07 0-.1 0-.1a4.52 4.52 0 0 1 .71.33s0 .05-.1.07a.25.25 0 0 0 -.18.19c-.1.27-.2.55-.31.83h1.12c.06 0 .1 0 .1.14v.26c0 .1 0 .14-.1.14h-1.1v1.19h1c.07 0 .1 0 .1.14v.26c0 .09 0 .13-.1.13h-1v1.37h1.06c.07 0 .11 0 .11.14v.26c0 .09 0 .14-.11.14h-1.06v1.22h1.17c.06 0 .1 0 .1.14v.26c0 .08 0 .13-.1.13h-2.66v.27c0 .07-.05.1-.13.1h-.33c-.1 0-.14 0-.14-.1v-5.09a3.45 3.45 0 0 1 -.3.34.48.48 0 0 1 -.18 0l-.33-.12s0 0 0 0a.09.09 0 0 1 0-.06 4 4 0 0 0 .66-.92 4 4 0 0 0 .31-.66 7.84 7.84 0 0 0 .24-1.05s0-.07.06-.07zm.48 1.83h-.9v1.19h.9zm0 1.72h-.9v1.28h.9zm0 3.09v-1.27h-.9v1.22z"/><path d="m48 78.38a1.73 1.73 0 0 1 -.55.59l-.22-.24a1.32 1.32 0 0 0 .57-1h-.63v-1h1v.93a1.57 1.57 0 0 1 -.17.72z"/><path d="m57.9 76.18a.22.22 0 0 1 .15 0c.12.1.18.17.18.22l-1.63 1.76v.45h3.22c.07 0 .1.06.1.14v.33c0 .1 0 .14-.1.14h-3.25v1.82c0 .44-.32.67-.93.67h-.64s-.07-.06-.08-.17a.88.88 0 0 0 -.16-.44c0-.05 0-.06.07-.06a4.92 4.92 0 0 0 .8.1.27.27 0 0 0 .3-.3v-1.6h-3.41c-.07 0-.1 0-.1-.14v-.33c0-.08 0-.14.1-.14h3.42v-.89a.12.12 0 0 1 .13-.13l.2.09 1-1h-3.09c-.07 0-.1 0-.1-.13v-.27c0-.08 0-.13.1-.13zm-1.3-2.18c0 .08 0 .12-.08.13s-.08.07-.08.17v.47h3c.08 0 .13 0 .13.1v1.65c0 .07-.05.11-.13.11h-.34c-.09 0-.13 0-.13-.11v-1.2h-5.75v1.22c0 .07 0 .11-.14.11h-.33c-.09 0-.14 0-.14-.11v-1.62a.12.12 0 0 1 .14-.13h3v-.79c0-.06 0-.09.14-.09q.71.02.71.09z"/><path d="m63.58 74.16c.08 0 .13 0 .13.1v1.88h.29c.08 0 .13 0 .13.11v1.13c0 .07 0 .1-.13.1h-.27c-.09 0-.13 0-.13-.1v-.73h-2.35v.73c0 .07 0 .1-.14.1h-.26c-.08 0-.13 0-.13-.1v-1.13c0-.07.05-.11.13-.11h.3v-1.88c0-.07 0-.1.13-.1zm-.14 3c.09 0 .14 0 .14.1v3.45a.77.77 0 0 1 -.1.49c0 .11-.27.22-.77.34-.1 0-.15 0-.15-.1s-.06-.25-.11-.43c.39 0 .59-.13.59-.3v-.81h-1.2v1.59c0 .07 0 .1-.12.1h-.27c-.09 0-.13 0-.13-.1v-4.18c0-.07 0-.1.13-.1zm-1.23-1.07v-.92c0-.07 0-.1.1-.1h.87v-.46h-1.5v1.48zm.79 2.18v-.56h-1.2v.56zm0 1.13v-.63h-1.2v.63zm.14-3.26v-.56h-.47v.56zm2.49 4.46c.08.11.14.22.21.33h1a2.13 2.13 0 0 0 .3-.33 1.54 1.54 0 0 0 .28-.47s0-.07.07-.07l.43.17c.07 0 .1.06.1.1s0 0-.07.06-.11 0-.13.06a2.5 2.5 0 0 1 -.31.48h.81s.07 0 .07.1v.26c0 .09 0 .13-.07.13h-4s-.06 0-.06-.13v-.29c0-.07 0-.1.06-.1h1a.6.6 0 0 1 -.06-.11 3.27 3.27 0 0 0 -.46-.55s.12-.11.36-.24a5.19 5.19 0 0 1 .51.6zm-.07-6v-.6s0-.07.1-.07c.33 0 .5 0 .5.07s0 .11 0 .11-.06.06-.06.16v.27h.57v-.54s0-.07.11-.07c.32 0 .49 0 .49.07s0 .11-.05.11 0 .06 0 .16v.27h.93c.09 0 .13 0 .13.1v2.22c0 .06 0 .1-.13.1h-3.48c-.09 0-.13 0-.13-.1v-2.2c0-.07 0-.1.13-.1zm2.56 2.85s.06 0 .06.09v.28c0 .08 0 .12-.06.12h-3.48s-.07 0-.07-.12v-.32s0-.09.07-.09zm-.1.86c.08 0 .13 0 .13.1v1.4c0 .06 0 .1-.13.1h-3.25c-.09 0-.13 0-.13-.1v-1.4c0-.07 0-.1.13-.1zm-2.42-2.76v-.55h-.53v.54zm0 .43h-.53v.53h.53zm2 2.76h-2.4v.66h2.42zm-1.53-3.19h.57v-.55h-.57zm.57.43h-.57v.53h.57zm.5-.43h.53v-.55h-.53zm.53.43h-.53v.53h.53z"/><path d="m72.8 74.26c.09 0 .14 0 .14.09v2.19c0 .07 0 .11-.14.11h-.47l.47.25a.54.54 0 0 1 0 .08s0 .06-.11.06-.17 0-.19.07c-.19.31-.36.58-.53.83.08.12.16.24.25.35l.45-.81a3.18 3.18 0 0 1 .46.42s0 0 0 0-.13.1-.13.1c-.27.46-.53.88-.77 1.26l.65-.06c0-.12-.08-.23-.12-.35s.12-.11.37-.24c.09.26.17.49.23.71a5.26 5.26 0 0 1 .16.63 1.9 1.9 0 0 1 -.43.12 4.11 4.11 0 0 0 -.11-.52s0 0 0-.05l-1.24.34c-.12.11-.18.17-.2.17a2.51 2.51 0 0 1 -.14-.63.7.7 0 0 1 .25-.05l.46-.73c-.19-.22-.32-.39-.42-.49a4.54 4.54 0 0 0 -.48-.39s.08-.15.27-.36h.06s.14.17.23.26c.08-.12.15-.25.22-.37s.23-.43.3-.55h-2l.46.25a.54.54 0 0 1 0 .08s0 .06-.11.06-.16 0-.19.07c-.16.32-.31.6-.44.85l.29.33c.14-.23.27-.45.38-.65a3.32 3.32 0 0 1 .47.43s0 0-.06 0-.13 0-.15 0c-.29.46-.57.88-.85 1.25h.68l-.06-.37s.12-.11.37-.23c.06.26.13.48.18.69a5.12 5.12 0 0 1 .11.61 1.42 1.42 0 0 1 -.42.13c0-.13 0-.3-.08-.51a.07.07 0 0 1 0 0l-1.37.27a.72.72 0 0 1 -.21.16 3.53 3.53 0 0 1 -.12-.63 1.51 1.51 0 0 1 .4 0c.23-.33.42-.6.57-.84l-.43-.4c-.17-.12-.34-.22-.51-.32a1.34 1.34 0 0 1 .26-.36h.07l.2.17.22-.42c.12-.25.2-.45.26-.58h-.48c-.09 0-.13 0-.13-.11v-2.28c0-.06 0-.09.13-.09zm-2.6 6.06c.07 0 .11.07.11.11s0 .07 0 .08a.11.11 0 0 0 -.1.1 7.07 7.07 0 0 1 -.4 1.07s-.06.07-.08.07a.24.24 0 0 1 -.13 0l-.3-.14s-.06 0-.06 0a.08.08 0 0 1 0-.06 6.23 6.23 0 0 0 .29-.58 4.6 4.6 0 0 0 .2-.66s0-.09 0-.09zm2.18-5.07v-.5h-2.23v.5zm0 .44h-2.23v.45h2.23zm-1.33 4.7a11 11 0 0 1 .26 1.1c0 .07 0 .11-.13.11l-.44.09s0 0 0-.09c0-.3 0-.66-.1-1.1 0 0 0-.07.07-.09l.33-.08zm.92 0a7.36 7.36 0 0 1 .44 1s0 .09-.13.1l-.37.06s-.06 0-.06-.07a8.34 8.34 0 0 0 -.27-1s0-.05.07-.07l.26-.06s.03-.03.09 0zm.87-.15a6.2 6.2 0 0 1 .53.83c0 .06 0 .09-.05.1a.75.75 0 0 1 -.38.16c-.18-.36-.35-.66-.5-.9 0 0 .11-.12.34-.22a.09.09 0 0 1 .06-.01zm4-5.91s.07 0 .07.1v.27c0 .08 0 .13-.07.13h-1.34l-.38 1h1.4c.09 0 .14 0 .14.11v4c0 .07 0 .09-.14.09h-2.75c-.09 0-.14 0-.14-.09v-4c0-.07.05-.11.14-.11h.76l.37-1h-1.37s-.06-.05-.06-.13v-.27c0-.06 0-.1.06-.1zm-1.84 6.07c.08 0 .13.09.13.13s0 .06-.11.08-.14 0-.16.07a4.58 4.58 0 0 1 -.7.94.23.23 0 0 1 -.13.07.24.24 0 0 1 -.14-.06l-.33-.13h-.06a.07.07 0 0 1 0-.06 5.85 5.85 0 0 0 .51-.53 1.81 1.81 0 0 0 .35-.59s.06-.08.1-.08zm1.06-3.4v-.7h-1.83v.7zm0 1.29v-.8h-1.83v.8zm0 .5h-1.83v.77h1.83zm.35 2a3 3 0 0 0 .53.42.14.14 0 0 1 0 .09s-.11.17-.33.39h-.07a5 5 0 0 1 -1-1.1.12.12 0 0 1 0-.08s.12-.16.37-.36a4.39 4.39 0 0 0 .5.7z"/><path d="m80.81 74.17c.07 0 .1.09.1.12a.12.12 0 0 1 -.1.13c-.12 0-.2 0-.22.1l-.09.16h2.66.16s.17.17.17.23l-1.27 1.29h2.21c.08 0 .13 0 .13.1v3.1c0 .07 0 .1-.13.1h-.33c-.1 0-.14 0-.14-.1v-.26h-4.61v1.36c0 .27.16.4.5.4h4.44a.44.44 0 0 0 .49-.34 4 4 0 0 0 .22-.76 1.22 1.22 0 0 0 .46.26.13.13 0 0 1 .11.14 3.11 3.11 0 0 1 -.29.89c-.1.24-.34.37-.75.37h-5c-.51 0-.77-.19-.77-.56v-4.2l-.43.28a.4.4 0 0 1 -.2 0l-.35-.14s0 0 0 0 0 0 0-.07a5.86 5.86 0 0 0 1.25-1 4.1 4.1 0 0 0 .56-.7 5.09 5.09 0 0 0 .52-1 .14.14 0 0 1 .11-.07zm.63 2.08 1-1h-2.26a3.18 3.18 0 0 1 -.3.4 6.87 6.87 0 0 1 -.58.63zm-2.09 2.35h2.05v-1.82h-2.05zm2.65 0h2v-1.82h-2z"/><path d="m93.82 74.26c.07 0 .1 0 .1.09v.33c0 .1 0 .14-.1.14h-3.14c.24.17.35.26.35.3s0 .1-.13.1-.21.08-.29.24c-.24.31-.56.73-1 1.24a10.59 10.59 0 0 1 -1.49 1.44 9.93 9.93 0 0 1 -1.31.86.19.19 0 0 1 -.18-.08l-.26-.3c-.07 0-.1 0-.1-.08a.09.09 0 0 1 .07-.09 8 8 0 0 0 1.62-1 8.14 8.14 0 0 0 1.3-1.25 10.31 10.31 0 0 0 1-1.41h-3.81c-.07 0-.1 0-.1-.14v-.33c0-.06 0-.09.1-.09zm-3.22 2.49c0 .08 0 .12-.08.12s-.08.07-.08.18v4.51c0 .07-.06.1-.17.1h-.33c-.1 0-.14 0-.14-.1v-4.81c0-.07 0-.1.14-.1.44 0 .66.03.66.1zm2.2.3c.45.45.83.86 1.16 1.22v.08l-.28.39a16.45 16.45 0 0 0 -1.55-1.57 6.93 6.93 0 0 0 -1.13-.82 1.47 1.47 0 0 1 .29-.41s0-.06.07-.06a15.7 15.7 0 0 1 1.44 1.17z"/><path d="m97.88 74.56c.08 0 .12 0 .12.1v5c0 .07 0 .11-.12.11h-.33c-.1 0-.14 0-.14-.11v-.26h-1.62v1c0 .07-.06.1-.14.1h-.33c-.1 0-.14 0-.14-.1v-5.72c0-.08 0-.12.14-.12zm-.47 2.12v-1.6h-1.62v1.6zm0 2.19v-1.66h-1.62v1.66zm4.51-4.55c.11 0 .17.05.17.13v6.34a.69.69 0 0 1 -.41.61 3.63 3.63 0 0 1 -1 .23c-.07 0-.1 0-.11-.11a1.59 1.59 0 0 0 -.19-.52s0 0 .08 0a2.15 2.15 0 0 0 .86-.1.34.34 0 0 0 .15-.31v-1.59h-2.22a4.1 4.1 0 0 1 -.74 1.83 3 3 0 0 1 -.67.73h-.09a1.39 1.39 0 0 0 -.31-.23.21.21 0 0 1 0-.12 3.34 3.34 0 0 0 .74-.86 4.47 4.47 0 0 0 .47-1.21 7.44 7.44 0 0 0 .15-1.62v-3a.12.12 0 0 1 .13-.13zm-.43 4.15v-1.59h-2.13v.62a9.54 9.54 0 0 1 0 1zm0-2.12v-1.5h-2.13v1.5z"/><path d="m106.8 74.26c.09 0 .14 0 .14.09v2.19c0 .07 0 .11-.14.11h-.47l.47.25a.54.54 0 0 1 0 .08s0 .06-.11.06-.17 0-.19.07c-.19.31-.36.58-.53.83.08.12.16.24.25.35l.45-.81a3.18 3.18 0 0 1 .46.42s0 0 0 0-.12 0-.14 0c-.27.46-.53.88-.77 1.26l.65-.06c0-.12-.08-.23-.12-.35s.12-.11.37-.24c.09.26.17.49.23.71a5.26 5.26 0 0 1 .16.63 1.9 1.9 0 0 1 -.43.12 4.11 4.11 0 0 0 -.11-.52s0 0 0-.05l-1.24.34c-.12.11-.18.17-.2.17a2.51 2.51 0 0 1 -.14-.63.7.7 0 0 1 .25-.05l.46-.73c-.19-.22-.32-.39-.42-.49a4.54 4.54 0 0 0 -.48-.39s.08-.15.27-.36h.06s.14.17.23.26c.08-.12.15-.25.22-.37s.23-.43.3-.55h-2l.46.25a.54.54 0 0 1 0 .08s0 .06-.11.06-.16 0-.19.07c-.16.32-.31.6-.44.85l.29.33c.14-.23.27-.45.38-.65a3.32 3.32 0 0 1 .47.43s0 0-.06 0-.13 0-.15 0c-.29.46-.57.88-.85 1.25h.68l-.09-.34s.12-.11.37-.23c.06.26.13.48.18.69a5.12 5.12 0 0 1 .11.61 1.42 1.42 0 0 1 -.42.13c0-.13 0-.3-.08-.51a.07.07 0 0 1 0 0l-1.37.27a.72.72 0 0 1 -.21.16 3.53 3.53 0 0 1 -.12-.63 1.51 1.51 0 0 1 .4 0c.23-.33.42-.6.57-.84l-.43-.4c-.17-.12-.34-.22-.51-.32a1.34 1.34 0 0 1 .26-.36h.07l.2.17.22-.42c.12-.25.2-.45.26-.58h-.48c-.09 0-.13 0-.13-.11v-2.21c0-.06 0-.09.13-.09zm-2.6 6.06c.07 0 .11.07.11.11s0 .07 0 .08a.11.11 0 0 0 -.1.1 7.07 7.07 0 0 1 -.4 1.07s-.06.07-.08.07a.24.24 0 0 1 -.13 0l-.3-.14s-.06 0-.06 0a.08.08 0 0 1 0-.06 6.23 6.23 0 0 0 .29-.58 4.6 4.6 0 0 0 .2-.66s0-.09 0-.09zm2.18-5.07v-.5h-2.23v.5zm0 .44h-2.23v.45h2.23zm-1.33 4.7a11 11 0 0 1 .26 1.1c0 .07 0 .11-.13.11l-.44.09s0 0 0-.09c0-.3 0-.66-.1-1.1 0 0 0-.07.07-.09l.33-.08zm.92 0a7.36 7.36 0 0 1 .44 1s0 .09-.13.1l-.37.06s-.06 0-.06-.07a8.34 8.34 0 0 0 -.27-1s0-.05.07-.07l.26-.06s.03-.03.09 0zm.87-.15a6.2 6.2 0 0 1 .53.83c0 .06 0 .09-.05.1a.75.75 0 0 1 -.38.16c-.18-.36-.35-.66-.5-.9 0 0 .11-.12.34-.22a.09.09 0 0 1 .06-.01zm4-5.91s.07 0 .07.1v.27c0 .08 0 .13-.07.13h-1.34l-.38 1h1.4c.09 0 .14 0 .14.11v4c0 .07 0 .09-.14.09h-2.75c-.09 0-.14 0-.14-.09v-4c0-.07.05-.11.14-.11h.76l.37-1h-1.37s-.06-.05-.06-.13v-.27c0-.06 0-.1.06-.1zm-1.84 6.07c.08 0 .13.09.13.13s0 .06-.11.08-.14 0-.16.07a4.58 4.58 0 0 1 -.7.94.23.23 0 0 1 -.13.07.24.24 0 0 1 -.14-.06l-.33-.13h-.06a.07.07 0 0 1 0-.06 5.85 5.85 0 0 0 .51-.53 1.81 1.81 0 0 0 .35-.59s.06-.08.1-.08zm1.06-3.4v-.7h-1.83v.7zm0 1.29v-.8h-1.83v.8zm0 .5h-1.83v.77h1.83zm.35 2a3 3 0 0 0 .53.42.14.14 0 0 1 0 .09s-.11.17-.33.39h-.07a5 5 0 0 1 -1-1.1.12.12 0 0 1 0-.08s.12-.16.37-.36a4.39 4.39 0 0 0 .5.7z"/><path d="m114.18 74.66c.08 0 .13 0 .13.09v5.35c0 .07 0 .1-.13.1h-.33c-.1 0-.14 0-.14-.1v-.47h-1.29v.9c0 .07 0 .1-.14.1h-.28c-.09 0-.13 0-.13-.1v-5.74c0-.09 0-.13.13-.13zm-.47 2.18v-1.66h-1.29v1.66zm0 2.26v-1.72h-1.29v1.72zm3.05-4.1v-.87c0-.07 0-.1.14-.1.42 0 .63 0 .63.1a.12.12 0 0 1 -.09.13s-.07.06-.07.17v.57h1.69c.07 0 .1 0 .1.12v.27c0 .09 0 .13-.1.13h-1.69v1.17h2c.07 0 .1 0 .1.13v.27c0 .08 0 .12-.1.12h-.93v1h.79c.07 0 .11 0 .11.12v.27c0 .09 0 .13-.11.13h-.79v2.27c0 .42-.35.63-1 .63h-.86s-.06-.06-.06-.16a1.35 1.35 0 0 0 -.15-.44 9.33 9.33 0 0 0 1 .06c.31 0 .46-.1.46-.3v-2.09h-2.72c-.07 0-.1 0-.1-.13v-.27c0-.08 0-.12.1-.12h2.72v-1h-3c-.07 0-.1 0-.1-.12v-.27c0-.08 0-.13.1-.13h1.92v-1.18h-1.62c-.07 0-.1 0-.1-.13v-.27c0-.08 0-.12.1-.12zm-.18 4.7c.21.15.4.28.55.4a.2.2 0 0 1 0 .08c-.17.24-.25.36-.26.36a6.86 6.86 0 0 0 -.76-.53l-.53-.27a1.42 1.42 0 0 1 .26-.38s0-.06.07-.06c.25.11.48.24.67.36z"/><path d="m124.46 78.38a1.73 1.73 0 0 1 -.55.59l-.22-.24a1.32 1.32 0 0 0 .57-1h-.63v-1h1v.93a1.57 1.57 0 0 1 -.17.72z"/><path d="m136.19 74.42c.06 0 .1 0 .1.14v.26c0 .09 0 .14-.1.14h-.86v6c0 .41-.35.63-1 .63h-.66s-.06-.06-.06-.17a1.3 1.3 0 0 0 -.15-.43 8.11 8.11 0 0 0 .83.06c.31 0 .47-.1.47-.3v-5.75h-5.76c-.07 0-.1 0-.1-.14v-.26c0-.09 0-.14.1-.14zm-3.19 1.83c.09 0 .14 0 .14.1v3.35c0 .07 0 .1-.14.1h-.33c-.08 0-.13 0-.13-.1v-.44h-1.93v.68q0 .09-.12.09h-.34c-.09 0-.13 0-.13-.09v-3.56a.12.12 0 0 1 .13-.13zm-.46 2.49v-2h-1.93v2z"/><path d="m138.71 74.52v-.52s0-.07.1-.07c.39 0 .6 0 .6.1s0 .11-.06.11-.07.06-.07.16v.2h1.29s.07 0 .07.1v.27c0 .08 0 .12-.07.12h-1.29v.61h1.1c.08 0 .12 0 .12.1v3.21c0 .07 0 .1-.12.1h-1.1v.67h1.26c.07 0 .1 0 .1.13v.27c0 .09 0 .13-.1.13h-1.26v1.33c0 .07-.05.1-.14.1h-.33c-.07 0-.1 0-.1-.1v-1.31h-1.29c-.07 0-.1 0-.1-.13v-.27c0-.08 0-.13.1-.13h1.29v-.7h-1.1c-.08 0-.12 0-.12-.1v-3.18c0-.07 0-.1.12-.1h1.1v-.62h-1.33s-.06 0-.06-.12v-.27c0-.06 0-.1.06-.1zm0 2.53v-.91h-.66v.91zm0 .45h-.66v1h.66zm.57-.45h.66v-.91h-.66zm.66.45h-.66v1h.66zm2.72-3v-.5s0-.07.1-.07c.4 0 .6 0 .6.1s0 .11-.07.11-.06.06-.06.16v.13h1.66s.07 0 .07.11v.26c0 .09 0 .14-.07.14h-1.66v.62h1.4c.08 0 .12 0 .12.11v2.18c0 .07 0 .1-.12.1l.27.42a4.32 4.32 0 0 1 .3.61 1.54 1.54 0 0 1 -.47.14 1.82 1.82 0 0 0 -.11-.33h-.66l-2.61.21c-.05.14-.1.22-.14.23a.09.09 0 0 1 -.08 0l-.18-.66c.24 0 .82 0 1.72-.11v-.46h-1.37c-.09 0-.13 0-.13-.1v-2.21c0-.07 0-.11.13-.11h1.36v-.58h-1.55c-.05 0-.07 0-.07-.14v-.26c0-.07 0-.11.07-.11zm.77 5a2.11 2.11 0 0 0 0-.3.56.56 0 0 1 0-.17s.05 0 .14 0l.64.09c.06 0 .09.06.09.08s0 .07-.1.07-.15.13-.16.26h.92c.05 0 .07 0 .07.1v.27c0 .08 0 .13-.07.13h-.96v1.19c0 .38-.28.56-.83.56h-.23s-.05 0-.05-.13a2.33 2.33 0 0 0 -.15-.36c0-.05 0-.07.07-.07a.66.66 0 0 0 .3.07c.22 0 .33-.09.33-.26v-1.03h-2.36s-.06 0-.06-.13v-.27c0-.06 0-.1.06-.1zm-1.39 1 .33.36s0 0-.05.06c-.17.22-.25.34-.25.34a4.76 4.76 0 0 0 -.43-.46c-.12-.11-.23-.18-.3-.24a1.25 1.25 0 0 1 .23-.34.08.08 0 0 1 .06 0 3.08 3.08 0 0 1 .37.28zm.62-3.92v-.53h-.92v.53zm0 .43h-.92v.49h.92zm.57-.43h1v-.53h-1zm1 .43h-1v.49h1zm-.11 1h-.85v.48l.87-.06h.26a4.85 4.85 0 0 0 -.32-.43z"/><path d="m146.88 75.81v-1.25a1.69 1.69 0 0 0 0-.38.5.5 0 0 1 0-.16s.05-.07.17-.07l.67.1c.06 0 .1 0 .1.07s0 .08-.11.08-.16.18-.16.39v1.22h.83c.07 0 .1 0 .1.14v.26c0 .1 0 .14-.1.14h-.83v1.79c.3-.13.58-.29.85-.44s.06 0 .06.07a1.54 1.54 0 0 1 0 .46c-.32.19-.62.36-.93.51v2.35q0 .6-.9.6h-.3c-.05 0-.06 0-.06-.14a1.75 1.75 0 0 0 -.17-.4c0-.05 0-.06.06-.06a1.55 1.55 0 0 0 .4.06c.24 0 .37-.1.37-.29v-1.86l-.63.29c-.08.16-.14.24-.2.24s-.17-.23-.33-.7a7.81 7.81 0 0 0 1.16-.43v-2.05h-.93c-.07 0-.1 0-.1-.14v-.21c0-.09 0-.14.1-.14zm3.93-1.66c.06 0 .09.07.09.11s-.06.09-.17.09a.21.21 0 0 0 -.17.07l-.17.24h1.94a.24.24 0 0 1 .15 0c.12.1.18.18.18.23l-.78 1h1.12c.09 0 .14 0 .14.1v2.82h.36c.06 0 .1 0 .1.13v.27c0 .08 0 .13-.1.13h-2.27a3.05 3.05 0 0 0 .27.51 2.57 2.57 0 0 0 .58.61 3 3 0 0 0 .92.54 4.75 4.75 0 0 0 .46.14h.07a.17.17 0 0 1 -.05.12l-.25.3s-.06.08-.1.08a1.66 1.66 0 0 1 -.33-.1 4.93 4.93 0 0 1 -1.16-.68 3.2 3.2 0 0 1 -.58-.68 3 3 0 0 1 -.15-.26.43.43 0 0 1 0 0 3.1 3.1 0 0 1 -.79 1 4 4 0 0 1 -1.3.67.15.15 0 0 1 -.12 0 1.54 1.54 0 0 0 -.29-.21c-.06-.06-.09-.09-.09-.12s0-.05.13-.07a4.24 4.24 0 0 0 1.08-.57 2.28 2.28 0 0 0 .65-.7 2.41 2.41 0 0 0 .25-.58h-2.07c-.07 0-.1-.05-.1-.13v-.21c0-.09 0-.13.1-.13h.53v-2.82a.11.11 0 0 1 0-.08.2.2 0 0 1 -.09-.07 1.38 1.38 0 0 0 -.24-.3c-.06 0-.09-.06-.09-.08s0 0 0 0a3.11 3.11 0 0 0 .52-.29 3.17 3.17 0 0 0 .57-.49 3.4 3.4 0 0 0 .32-.38c.08-.12.17-.27.25-.42a.1.1 0 0 1 .07 0zm.36 1.77.6-.74h-1.77a1.9 1.9 0 0 1 -.22.2 4.88 4.88 0 0 1 -.45.37l-.26.17h2.15zm-.69 2.92a6 6 0 0 0 0-.61q0-.12.15-.12h.56c.11 0 .17 0 .17.12a.15.15 0 0 1 -.12.17c-.08 0-.12.06-.12.16s0 .17 0 .24h1.38v-2.4h-3.08v2.4zm.89-2s.06.08.06.11 0 0-.05 0a.26.26 0 0 0 -.13.08l-.1.19a4.24 4.24 0 0 1 .54.34l.57.48v.07l-.26.36a9 9 0 0 0 -.77-.61l-.32-.2a.22.22 0 0 1 -.06.07 4.88 4.88 0 0 1 -.71.74c-.07 0-.11 0-.13-.06l-.28-.24s-.05 0-.05-.06a.09.09 0 0 1 0-.06 1 1 0 0 0 .33-.24 2.61 2.61 0 0 0 .5-.59 5.43 5.43 0 0 0 .39-.68s0-.06 0-.06z"/><path d="m158.17 74.2c.06 0 .1.08.1.12a.12.12 0 0 1 -.1.13c-.16 0-.24.1-.28.28s-.16.59-.22.85h2.43c.11 0 .17 0 .17.11l-.27 1.42h1c.11 0 .17 0 .17.1l-.27 1.39h.87a.15.15 0 0 1 .17.17c-.13.8-.27 1.49-.4 2.06a1.54 1.54 0 0 1 -.3.72 1.29 1.29 0 0 1 -.8.18c-.36 0-.55-.06-.55-.17a2.25 2.25 0 0 0 -.15-.4s0-.07.07-.07a5.3 5.3 0 0 0 .7.07.45.45 0 0 0 .35-.15 12.65 12.65 0 0 0 .47-1.87h-5c-.12.23-.23.47-.35.7a12.1 12.1 0 0 1 -.98 1.58.56.56 0 0 1 -.2 0l-.37-.14s-.06 0-.06-.06a.19.19 0 0 1 .07-.17 10.57 10.57 0 0 0 1.6-2.49 12.88 12.88 0 0 0 .72-1.81c.07-.18.13-.39.2-.61h-2.32c-.07 0-.1 0-.1-.13v-.26c0-.09 0-.14.1-.14h2.46c.11-.44.22-.92.32-1.46 0-.11.08-.17.13-.17zm-2.46-.15a9.6 9.6 0 0 1 .66 1c0 .08 0 .13-.05.13a.91.91 0 0 1 -.47.2 12.44 12.44 0 0 0 -.6-1.09c0-.06.12-.15.37-.27a.16.16 0 0 1 .09.03zm1.15 5.81a.11.11 0 0 1 .14.14 8.49 8.49 0 0 1 -.37 1.49v.06a.51.51 0 0 1 -.21 0 2.52 2.52 0 0 0 -.33-.13.11.11 0 0 1 -.06-.1 4.91 4.91 0 0 0 .43-1.35c0-.07 0-.11.1-.11zm3.44-1.26.26-1h-3.56a.31.31 0 0 0 0 .08c-.12.3-.25.6-.37.88zm-.93-1.49.26-1h-2.12c-.12.39-.22.72-.31 1zm-1.5 2.79c.09.28.2.72.33 1.33 0 0-.17.11-.49.16-.05 0-.07 0-.07 0 0-.43-.13-.87-.23-1.34 0-.06.14-.11.43-.17.01-.05.02-.02.03.02zm1-.13c.15.31.3.64.43 1 0 .08 0 .13-.05.14a1 1 0 0 1 -.44.19c-.14-.43-.26-.8-.37-1.09 0-.06.12-.15.37-.27.05-.01.07.01.09.03zm1-.17a7.47 7.47 0 0 1 .63.76c0 .09 0 .14-.06.14a.86.86 0 0 1 -.44.19 10 10 0 0 0 -.56-.86c0-.06.12-.14.37-.26z"/><path d="m167.27 74.52s-.05.08-.14.1a.38.38 0 0 0 -.25.13 4.34 4.34 0 0 1 -.42.54h3.13c.11 0 .17 0 .17.09v6.14c0 .07-.06.11-.17.11h-.33c-.09 0-.14 0-.14-.11v-.52h-4.88v.52c0 .07-.06.11-.16.11h-.33c-.09 0-.13 0-.13-.11v-6.14c0-.06 0-.09.13-.09h1.9l.28-.3a3.19 3.19 0 0 0 .46-.76.08.08 0 0 1 .08-.07 5.61 5.61 0 0 1 .8.36zm1.85 3.29v-2h-4.88v2zm0 2.58v-2h-4.88v2z"/><path d="m174.31 74.17c.07 0 .1.09.1.12a.12.12 0 0 1 -.1.13c-.12 0-.2 0-.22.1l-.09.16h2.66.16s.17.17.17.23l-1.27 1.29h2.21c.08 0 .13 0 .13.1v3.1c0 .07-.05.1-.13.1h-.33c-.1 0-.14 0-.14-.1v-.26h-4.61v1.36c0 .27.16.4.5.4h4.44a.44.44 0 0 0 .49-.34 4 4 0 0 0 .18-.76 1.22 1.22 0 0 0 .46.26.13.13 0 0 1 .11.14 3.11 3.11 0 0 1 -.29.89c-.1.24-.34.37-.75.37h-5c-.51 0-.77-.19-.77-.56v-4.2l-.43.28a.4.4 0 0 1 -.2 0l-.35-.14s-.05 0-.05 0 0 0 .05-.07a5.86 5.86 0 0 0 1.25-1 4.1 4.1 0 0 0 .56-.7 5.09 5.09 0 0 0 .52-1 .14.14 0 0 1 .11-.07zm.63 2.08 1.05-1h-2.31a3.18 3.18 0 0 1 -.3.4 6.87 6.87 0 0 1 -.58.63zm-2.09 2.35h2.05v-1.82h-2.05zm2.65 0h2v-1.82h-2z"/><path d="m183.67 74.2c.06 0 .1.08.1.12a.12.12 0 0 1 -.1.13c-.16 0-.24.1-.28.28s-.16.59-.22.85h2.43c.11 0 .17 0 .17.11l-.28 1.42h1c.11 0 .17 0 .17.1l-.27 1.39h.87a.15.15 0 0 1 .17.17c-.13.8-.27 1.49-.4 2.06a1.54 1.54 0 0 1 -.3.72 1.29 1.29 0 0 1 -.8.18c-.36 0-.55-.06-.55-.17a2.25 2.25 0 0 0 -.15-.4s0-.07.07-.07a5.3 5.3 0 0 0 .7.07.45.45 0 0 0 .35-.15 12.65 12.65 0 0 0 .47-1.87h-5c-.12.23-.23.47-.35.7a12.1 12.1 0 0 1 -1.07 1.58.56.56 0 0 1 -.2 0l-.37-.14s-.06 0-.06-.06a.19.19 0 0 1 .07-.17 10.57 10.57 0 0 0 1.6-2.49 12.88 12.88 0 0 0 .72-1.81c.07-.18.13-.39.2-.61h-2.32c-.07 0-.1 0-.1-.13v-.26c0-.09 0-.14.1-.14h2.46c.11-.44.22-.92.32-1.46 0-.11.08-.17.13-.17zm-2.46-.15a9.6 9.6 0 0 1 .66 1c0 .08 0 .13-.05.13a.91.91 0 0 1 -.47.2 12.44 12.44 0 0 0 -.6-1.09c0-.06.12-.15.37-.27a.16.16 0 0 1 .09.03zm1.15 5.81a.11.11 0 0 1 .12.11 8.49 8.49 0 0 1 -.37 1.49v.06a.51.51 0 0 1 -.21 0 2.52 2.52 0 0 0 -.33-.13.11.11 0 0 1 -.06-.1 4.91 4.91 0 0 0 .43-1.35c0-.07 0-.11.1-.11zm3.44-1.26.26-1h-3.56a.31.31 0 0 0 0 .08c-.12.3-.25.6-.37.88zm-.93-1.49.26-1h-2.13c-.12.39-.22.72-.31 1zm-1.5 2.79c.09.28.2.72.33 1.33 0 0-.17.11-.49.16-.05 0-.07 0-.07 0 0-.43-.13-.87-.23-1.34 0-.06.14-.11.43-.17.01-.05.02-.02.03.02zm1-.13c.15.31.3.64.43 1 0 .08 0 .13-.05.14a1 1 0 0 1 -.44.19c-.14-.43-.26-.8-.37-1.09 0-.06.12-.15.37-.27.05-.01.07.01.09.03zm1-.17a7.47 7.47 0 0 1 .63.76c0 .09 0 .14-.06.14a.86.86 0 0 1 -.44.19 10 10 0 0 0 -.56-.86c0-.06.12-.14.37-.26z"/><path d="m192.08 74.38.69.47a.28.28 0 0 1 -.05.08l-.23.32h3a.09.09 0 0 1 .1.1v.34c0 .08 0 .12-.1.12h-3v2.19h2.62a.09.09 0 0 1 .1.1v.34c0 .09 0 .13-.1.13h-2.62v2.22h3.35c.07 0 .1 0 .1.1v.33c0 .09 0 .14-.1.14h-7.37c-.07 0-.1 0-.1-.14v-.33c0-.07 0-.1.1-.1h3.39v-2.25h-2.72c-.07 0-.11 0-.11-.13v-.34a.1.1 0 0 1 .11-.1h2.72v-2.16h-3c-.07 0-.1 0-.1-.12v-.34a.09.09 0 0 1 .1-.1h3.52a9.08 9.08 0 0 0 -.81-.57 5.71 5.71 0 0 0 -.65-.33 1.71 1.71 0 0 1 .26-.37.08.08 0 0 1 .07 0 8.5 8.5 0 0 1 .83.4z"/><path d="m201.45 78.64a1.11 1.11 0 0 1 -.82.34 1.16 1.16 0 0 1 -1.15-1.15 1.16 1.16 0 0 1 1.15-1.16 1.16 1.16 0 0 1 1.16 1.16 1.11 1.11 0 0 1 -.34.81zm-.22-1.41a.85.85 0 0 0 -.6-.24.79.79 0 0 0 -.59.24.82.82 0 0 0 -.25.6.85.85 0 0 0 .84.84.82.82 0 0 0 .6-.25.79.79 0 0 0 .24-.59.85.85 0 0 0 -.24-.6z"/></g><path d="m440.34 178.74h-440.23v-74.33h440.23z" fill="#dcdddd"/><path d="m158.89 142.61 1.74.52a4.86 4.86 0 0 1 -1.8 2.82 5.86 5.86 0 0 1 -7.41-.56 6.14 6.14 0 0 1 -1.56-4.47 7 7 0 0 1 .72-3.25 4.71 4.71 0 0 1 2-2.08 6.24 6.24 0 0 1 3-.7 5.13 5.13 0 0 1 3.13.9 4.44 4.44 0 0 1 1.69 2.44l-1.68.41a3.46 3.46 0 0 0 -1.25-1.61 3.41 3.41 0 0 0 -1.95-.55 3.45 3.45 0 0 0 -2.68 1.15 4.82 4.82 0 0 0 -1 3.33 4.75 4.75 0 0 0 1 3.28 3.32 3.32 0 0 0 2.58 1.12 3.63 3.63 0 0 0 2.24-.74 3.49 3.49 0 0 0 1.28-2zm-3.43-10.61a9 9 0 0 0 -4.38 1.16 8.14 8.14 0 0 0 -3.33 3.3 8.87 8.87 0 0 0 -1.21 4.45 9.05 9.05 0 0 0 1.18 4.44 8.5 8.5 0 0 0 3.32 3.3 9 9 0 0 0 8.85 0 8.58 8.58 0 0 0 3.3-3.3 9 9 0 0 0 0-8.89 8.1 8.1 0 0 0 -3.34-3.3 8.94 8.94 0 0 0 -4.37-1.16zm0-1.77a10.9 10.9 0 0 1 5.25 1.38 9.82 9.82 0 0 1 4 3.95 11 11 0 0 1 1.43 5.35 10.74 10.74 0 0 1 -1.42 5.32 9.76 9.76 0 0 1 -3.95 4 10.66 10.66 0 0 1 -10.63 0 9.94 9.94 0 0 1 -3.95-4 10.76 10.76 0 0 1 0-10.67 10 10 0 0 1 4-3.95 11 11 0 0 1 5.25-1.38z" fill="#0c978f"/><path d="m179.34 151.31v-20.76h15.01v2.46h-12.26v6.35h11.49v2.43h-11.49v7.07h12.74v2.45z" fill="#0c978f"/><path d="m200.47 151.31v-2.9h2.9v2.9z" fill="#0c978f"/><path d="m208.65 144.64 2.59-.23a5.66 5.66 0 0 0 .86 2.56 4.56 4.56 0 0 0 2.09 1.61 8.51 8.51 0 0 0 5.95.16 3.89 3.89 0 0 0 1.79-1.28 3 3 0 0 0 .59-1.79 2.76 2.76 0 0 0 -.52-1.67 4.12 4.12 0 0 0 -1.88-1.22 34.92 34.92 0 0 0 -3.68-1 19.32 19.32 0 0 1 -4-1.29 5.5 5.5 0 0 1 -2.21-1.94 4.63 4.63 0 0 1 -.74-2.58 5.31 5.31 0 0 1 .89-2.94 5.56 5.56 0 0 1 2.61-2.07 9.91 9.91 0 0 1 3.81-.71 10.52 10.52 0 0 1 4.07.74 5.93 5.93 0 0 1 2.71 2.19 6.14 6.14 0 0 1 1 3.27l-2.63.2a4.35 4.35 0 0 0 -1.44-3 7.32 7.32 0 0 0 -7.25-.08 2.72 2.72 0 0 0 -1.14 2.2 2.35 2.35 0 0 0 .8 1.83c.54.49 1.91 1 4.15 1.49a26.74 26.74 0 0 1 4.59 1.32 6.37 6.37 0 0 1 2.68 2.11 5.25 5.25 0 0 1 .86 3 5.67 5.67 0 0 1 -.94 3.12 6.29 6.29 0 0 1 -2.73 2.28 9.41 9.41 0 0 1 -4 .81 11.79 11.79 0 0 1 -4.73-.82 6.56 6.56 0 0 1 -3-2.46 7 7 0 0 1 -1.14-3.74z" fill="#0c978f"/><path d="m244 130.55h2.75v12a14.32 14.32 0 0 1 -.7 5 6.12 6.12 0 0 1 -2.57 3 9 9 0 0 1 -4.84 1.15 10.05 10.05 0 0 1 -4.77-1 5.73 5.73 0 0 1 -2.65-2.91 13.82 13.82 0 0 1 -.8-5.21v-12h2.76v12a11.85 11.85 0 0 0 .49 4 3.93 3.93 0 0 0 1.73 2 6 6 0 0 0 3 .69c2 0 3.45-.46 4.31-1.38s1.29-2.67 1.29-5.28v-12z" fill="#0c978f"/><path d="m252.74 151.31v-20.76h2.82l10.89 16.3v-16.3h2.64v20.76h-2.82l-10.89-16.31v16.31z" fill="#0c978f"/><path d="m287.29 148.86h5.18a12.52 12.52 0 0 0 1.86-.1 4.2 4.2 0 0 0 1.58-.57 3 3 0 0 0 1-1.14 3.58 3.58 0 0 0 .41-1.76 3.4 3.4 0 0 0 -.59-2 3.12 3.12 0 0 0 -1.66-1.21 10.25 10.25 0 0 0 -3-.34h-4.8v7.13zm0-9.58h4.49a10.51 10.51 0 0 0 2.62-.24 3 3 0 0 0 1.58-1 3 3 0 0 0 .53-1.81 3.42 3.42 0 0 0 -.49-1.82 2.51 2.51 0 0 0 -1.42-1.07 11.52 11.52 0 0 0 -3.16-.29h-4.15v6.27zm-2.75 12v-20.73h7.79a9.62 9.62 0 0 1 3.82.63 4.91 4.91 0 0 1 2.25 1.95 5.09 5.09 0 0 1 .82 2.73 4.64 4.64 0 0 1 -.73 2.51 5.05 5.05 0 0 1 -2.18 1.9 5.41 5.41 0 0 1 2.9 1.88 5.08 5.08 0 0 1 1 3.14 6.05 6.05 0 0 1 -.61 2.71 5.13 5.13 0 0 1 -1.53 1.93 6.18 6.18 0 0 1 -2.27 1 13.91 13.91 0 0 1 -3.34.35z" fill="#0c978f"/><path d="m309.16 142.78h7l-2.16-5.78c-.66-1.75-1.15-3.19-1.47-4.31a25.88 25.88 0 0 1 -1.13 4l-2.27 6.08zm-6 8.53 8-20.76h3l8.5 20.76h-3.13l-2.53-6.31h-8.67l-2.29 6.28z" fill="#0c978f"/><path d="m326.21 151.31v-20.76h2.82l10.91 16.3v-16.3h2.63v20.76h-2.83l-10.89-16.31v16.31z" fill="#0c978f"/><path d="m348.51 151.31v-20.76h2.76v10.3l10.3-10.3h3.73l-8.72 8.41 9.1 12.35h-3.62l-7.4-10.51-3.39 3.32v7.19z" fill="#0c978f"/><path d="m365.71 151.35v-20.75h2.81l10.91 16.3v-16.3h2.63v20.75h-2.82l-10.9-16.31v16.31z" fill="#fff"/><path d="m382.07 151.35v-20.76h2.82l10.91 16.31v-16.31h2.63v20.76h-2.82l-10.9-16.31v16.31z" fill="#fff"/><path d="m398.43 151.35v-20.76h2.81l10.91 16.3v-16.3h2.64v20.76h-2.83l-10.9-16.31v16.31z" fill="#fff"/><path d="m414.79 151.35v-20.76h2.82l10.91 16.3v-16.3h2.63v20.76h-2.83l-10.9-16.31v16.31z" fill="#fff"/><path d="m2.88 192.4a1.55 1.55 0 0 1 -1.23-.56 2 2 0 0 1 -.5-1.39 2 2 0 0 1 .5-1.43 1.61 1.61 0 0 1 1.24-.52 1.65 1.65 0 0 1 1.55.91l-.53.24a1.09 1.09 0 0 0 -1-.6 1 1 0 0 0 -.8.36 1.67 1.67 0 0 0 0 2.07 1 1 0 0 0 .79.36 1.12 1.12 0 0 0 1.06-.8l.55.23a1.71 1.71 0 0 1 -1.63 1.13z" fill="#383736"/><path d="m8.28 191.9a1.92 1.92 0 0 1 -1.35.49 1.89 1.89 0 0 1 -1.35-.49 1.76 1.76 0 0 1 -.58-1.41 2 2 0 0 1 .52-1.42 1.85 1.85 0 0 1 1.41-.57 1.83 1.83 0 0 1 1.4.57 2 2 0 0 1 .53 1.42 1.83 1.83 0 0 1 -.58 1.41zm-.38-2.44a1.23 1.23 0 0 0 -1-.41 1.23 1.23 0 0 0 -1 .41 1.46 1.46 0 0 0 -.37 1 1.29 1.29 0 0 0 1.35 1.35 1.29 1.29 0 0 0 1.34-1.35 1.51 1.51 0 0 0 -.32-1z" fill="#383736"/><path d="m12.58 191.92a1.63 1.63 0 0 1 -1.21.47 1.52 1.52 0 0 1 -1.32-.66v1.74h-.6v-4.91h.6v.6a1.5 1.5 0 0 1 1.29-.66 1.63 1.63 0 0 1 1.29.53 2.05 2.05 0 0 1 .48 1.4 2 2 0 0 1 -.53 1.49zm-.37-2.5a1.09 1.09 0 0 0 -.87-.37 1.14 1.14 0 0 0 -.92.41 1.52 1.52 0 0 0 -.37 1.08 1.18 1.18 0 0 0 .43 1 1.27 1.27 0 0 0 .89.34 1 1 0 0 0 .78-.31 1.49 1.49 0 0 0 .37-1.1 1.54 1.54 0 0 0 -.31-1.05z" fill="#383736"/><path d="m15.26 192.6a1.36 1.36 0 0 1 -.5.68 1.51 1.51 0 0 1 -.87.21v-.58a1.3 1.3 0 0 0 .55-.1 1 1 0 0 0 .26-.42l.13-.33-1.38-3.49h.63l1.07 2.69 1.07-2.69h.63z" fill="#383736"/><path d="m18.27 189.38a1.15 1.15 0 0 0 -.41 1v2h-.59v-3.88h.59v.7a1.35 1.35 0 0 1 .63-.56 2.43 2.43 0 0 1 .82-.14v.5a1.72 1.72 0 0 0 -1.04.38z" fill="#383736"/><path d="m20.54 187.43v-.68h.64v.68zm0 4.89v-3.74h.6v3.74z" fill="#383736"/><path d="m25.5 193a1.6 1.6 0 0 1 -1.21.48 1.65 1.65 0 0 1 -1.58-.83l.54-.26a1.09 1.09 0 0 0 1 .54 1 1 0 0 0 .78-.32 1.18 1.18 0 0 0 .3-.87v-.45a1.36 1.36 0 0 1 -1.15.63 1.67 1.67 0 0 1 -1.7-1.7 1.68 1.68 0 0 1 .52-1.22 1.64 1.64 0 0 1 1.22-.5 1.62 1.62 0 0 1 1.15.51v-.46h.63v3.18a1.77 1.77 0 0 1 -.5 1.27zm-.45-3.6a1.11 1.11 0 0 0 -.83-.35 1.09 1.09 0 0 0 -.8.34 1.19 1.19 0 0 0 -.31.83 1.11 1.11 0 0 0 .31.81 1 1 0 0 0 .8.34 1.11 1.11 0 0 0 .78-.37 1.17 1.17 0 0 0 .33-.84 1.14 1.14 0 0 0 -.28-.77z" fill="#383736"/><path d="m29.48 192.33v-2.26a1.21 1.21 0 0 0 -.22-.78 1 1 0 0 0 -.74-.24c-.53 0-1 .36-1.28 1.06v2.22h-.6v-5.58h.6v2.43a1.62 1.62 0 0 1 1.28-.68 1.38 1.38 0 0 1 1.55 1.57v2.26z" fill="#383736"/><path d="m31.85 189.12v2.26q0 .39.33.39h.65v.56h-.65a.92.92 0 0 1 -.72-.24 1.2 1.2 0 0 1 -.2-.77v-2.2h-.72v-.55h.72v-1h.59v1h1v.55z" fill="#383736"/><path d="m36.39 185.72c.08 0 .13 0 .13.09v2.63c0 .06-.05.1-.13.1h-.84v1.29h1c.06 0 .1 0 .1.14v.26c0 .09 0 .14-.1.14h-1v1.57c.39-.09.78-.17 1.14-.27h.06s.07 0 .07.07a2 2 0 0 1 0 .45c-1 .23-2 .45-3 .64-.09.16-.15.23-.2.23s-.16-.24-.33-.7h.36v-3c0-.06 0-.1.13-.1.43 0 .64 0 .64.1s0 .12-.09.12-.08.08-.08.18v2.6c.21 0 .43-.08.67-.13h.08v-3.53h-1.1c-.1 0-.14 0-.14-.1v-2.63c0-.06 0-.09.14-.09zm-.47.52h-1.56v1.76h1.56zm1.89 1.47h2.93c.08 0 .13 0 .13.1v2.45c0 .1 0 .14-.13.14h-2.93v1.6h3.26c.07 0 .1 0 .1.13v.27c0 .08 0 .14-.1.14h-3.26v.46c0 .07-.05.1-.13.1h-.33c-.09 0-.13 0-.13-.1v-7.21a.12.12 0 0 1 .13-.13h3.65c.07 0 .1 0 .1.13v.27c0 .09 0 .13-.1.13h-3.19zm2.46 2.15v-1.62h-2.46v1.62z" fill="#383736"/><path d="m44.56 185.62a.11.11 0 0 1 -.09.12c-.06 0-.08.07-.08.17v.24h1.7s0 0 0 .09v.27.13h-4.09c-.05 0-.07 0-.07-.13v-.27c0-.06 0-.09.07-.09h1.76v-.53c0-.07 0-.11.14-.11.44 0 .66.04.66.11zm-1.56 1.56c0 .07 0 .1-.06.11s-.07.06-.07.15v1.43h2.35v-1.79c0-.05 0-.07.11-.07.39 0 .59 0 .59.1s0 .11-.07.11-.06.06-.06.15v.73l.51-.62a5.24 5.24 0 0 0 .62-1 5.08 5.08 0 0 0 .36-1s0-.06 0-.06a2.56 2.56 0 0 1 .66.39v.08s-.16 0-.18.09c-.14.37-.27.67-.39.93h.83a2.63 2.63 0 0 0 .19-.37 7 7 0 0 0 .28-.9c0-.06 0-.09.05-.09a6.17 6.17 0 0 1 .66.29s0 .06-.09.07a.28.28 0 0 0 -.17.18c-.09.27-.19.54-.3.82h.83s.07 0 .07.1v.26c0 .1 0 .14-.07.14h-.86v1.32h.8s.06 0 .06.11v.26c0 .09 0 .14-.06.14h-.8v1.29h.8s.06 0 .06.1v.26c0 .1 0 .14-.06.14h-.8v1.26h.83s.07 0 .07.1v.26c0 .09 0 .14-.07.14h-2.38v.26c0 .07 0 .1-.13.1h-.33c-.09 0-.13 0-.13-.1v-5.11c-.14.17-.29.36-.47.56a.21.21 0 0 1 -.16-.07l-.24-.2v1c0 .08 0 .12-.13.12h-1.27c-.06.19-.11.37-.16.54h1.59a.13.13 0 0 1 .19.11v2.77c0 .11-.1.21-.3.28a4 4 0 0 1 -.73.1c-.06 0-.09 0-.09-.1a1.51 1.51 0 0 0 -.17-.47s0 0 .06 0a4.48 4.48 0 0 0 .59 0c.07 0 .11-.06.11-.11v-2.07h-1.39c-.14.46-.24.81-.32 1.06.29 0 .58-.08.89-.13-.07-.19-.15-.39-.23-.57 0 0 .12-.1.37-.23a7.6 7.6 0 0 1 .34.86 5.77 5.77 0 0 1 .22.77 1.77 1.77 0 0 1 -.46.13 4.39 4.39 0 0 0 -.1-.5c-.53.11-1 .2-1.49.27a.12.12 0 0 0 -.11.11c0 .13-.06.18-.13.18s-.2-.25-.37-.76h.36.09c0-.1.06-.21.1-.31q.12-.44.24-.84h-.85v2.69c0 .06-.05.1-.13.1h-.26c-.1 0-.14 0-.14-.1v-3.13c0-.07 0-.1.14-.1h1.39q.07-.28.15-.54h-1.42c-.06 0-.1 0-.1-.12v-2.1s0-.06.1-.06c.39 0 .64.03.64.1zm2.1.08s.06.06.06.08 0 .07-.1.07a.21.21 0 0 0 -.16.06 3.35 3.35 0 0 1 -.31.38v.05a5.13 5.13 0 0 1 .38.46s0 0 0 0-.13.12-.37.27a4.31 4.31 0 0 0 -.38-.44l-.08.07a3.26 3.26 0 0 1 -.41.3 3.1 3.1 0 0 1 -.34.2.1.1 0 0 1 -.1-.06 1.16 1.16 0 0 0 -.2-.24c-.05 0-.07-.05-.07-.07a3.39 3.39 0 0 0 .47-.24 2.7 2.7 0 0 0 .36-.26l-.22-.18c-.19-.12-.37-.24-.58-.36a1.85 1.85 0 0 1 .25-.3.21.21 0 0 1 .11 0l.53.34.28.22.1-.12a1.59 1.59 0 0 0 .23-.36s0 0 .06 0zm3.12.15h-.94v1.32h.94zm0 1.83h-.94v1.29h.94zm0 3v-1.24h-.94v1.26z" fill="#383736"/><path d="m52.19 186.61v-.4c0-.13 0-.36 0-.7 0 0 .05-.06.13-.06l.64.07c.08 0 .13.06.13.1a.13.13 0 0 1 -.08.13.19.19 0 0 0 -.15.2v.66h5.14c.07 0 .1 0 .1.14v.25c0 .09 0 .13-.1.13h-5.18c0 1.08-.1 1.89-.18 2.47a7.62 7.62 0 0 1 -.69 2.22 6.1 6.1 0 0 1 -.83 1.22h-.12l-.56-.19s0-.05 0-.11a4.83 4.83 0 0 0 1-1.23 5.49 5.49 0 0 0 .59-1.68 15.35 15.35 0 0 0 .23-2.7h-1.66c-.07 0-.1 0-.1-.13v-.26c0-.09 0-.14.1-.14zm3.81 1.16s0 .08-.1.11a.27.27 0 0 0 -.17.26 11.81 11.81 0 0 1 -.12 1.48 2.91 2.91 0 0 0 .11.77 3.73 3.73 0 0 0 .31.74 2.87 2.87 0 0 0 .44.55 3.66 3.66 0 0 0 .68.54 3.71 3.71 0 0 0 1 .39.14.14 0 0 1 -.08.11 2.7 2.7 0 0 0 -.28.31l-.1.08a4.9 4.9 0 0 1 -1-.48 2.72 2.72 0 0 1 -.65-.57 2.85 2.85 0 0 1 -.49-.65 2.78 2.78 0 0 1 -.25-.55 3 3 0 0 1 -.22.47 2.68 2.68 0 0 1 -.56.8 3.84 3.84 0 0 1 -.58.47 4 4 0 0 1 -1 .51s-.07 0-.11-.08l-.29-.29-.06-.06s0 0 0 0a5.54 5.54 0 0 0 .8-.36 2.77 2.77 0 0 0 .63-.48 2.73 2.73 0 0 0 .56-.69 3.81 3.81 0 0 0 .35-.8 3.65 3.65 0 0 0 .16-.8 10 10 0 0 0 .08-1.48 3.11 3.11 0 0 0 0-.33c0-.05 0-.07.07-.07a3.24 3.24 0 0 1 .87.1zm-1.5.7c0 .06 0 .1-.1.14s-.14.09-.15.15a6.9 6.9 0 0 1 -.31 1.22c-.08.18-.17.37-.27.56a.21.21 0 0 1 -.09.06 3.51 3.51 0 0 0 -.5-.12.08.08 0 0 1 -.07-.08 5.37 5.37 0 0 0 .43-.79 5.31 5.31 0 0 0 .3-1.25c0-.05 0-.08.13-.08.4.08.61.15.61.19zm3.33.09c0 .05.06.08.06.11a.06.06 0 0 1 0 .06.16.16 0 0 0 -.09.09c-.12.33-.24.63-.36.88a5.41 5.41 0 0 1 -.57.93c-.06 0-.12 0-.13-.07s-.21-.17-.3-.24-.06 0-.06-.06a.08.08 0 0 1 0-.06 1.3 1.3 0 0 0 .26-.31 4.82 4.82 0 0 0 .4-.75c.09-.22.2-.51.31-.86 0-.05 0-.07 0-.07z" fill="#383736"/><path d="m62 191.85a1.5 1.5 0 0 1 -1.16.54 1.65 1.65 0 0 1 -1.39-.68v.62h-.59v-5.59h.59v2.39a1.67 1.67 0 0 1 1.34-.64 1.57 1.57 0 0 1 1.25.56 2 2 0 0 1 .48 1.35 2.06 2.06 0 0 1 -.52 1.45zm-.4-2.43a1.1 1.1 0 0 0 -.86-.38 1.14 1.14 0 0 0 -.91.42 1.44 1.44 0 0 0 -.38 1 1.26 1.26 0 0 0 1.33 1.36 1.07 1.07 0 0 0 .82-.39 1.57 1.57 0 0 0 .33-1 1.49 1.49 0 0 0 -.31-1.01z" fill="#383736"/><path d="m65.83 192.34a2 2 0 0 1 -.11-.55v-.09a1.89 1.89 0 0 1 -1.45.7 1.31 1.31 0 0 1 -.85-.27.84.84 0 0 1 -.37-.72 1.1 1.1 0 0 1 .65-1 5 5 0 0 1 2-.38.88.88 0 0 0 -1-.93 1 1 0 0 0 -.92.49l-.58-.25a1.58 1.58 0 0 1 1.5-.79 1.44 1.44 0 0 1 1.15.43 1.7 1.7 0 0 1 .4 1.18v1.68a1.35 1.35 0 0 0 .09.55zm-2.18-.93a.37.37 0 0 0 .14.3.66.66 0 0 0 .48.16 1.39 1.39 0 0 0 1-.38 1.59 1.59 0 0 0 .49-1c-1.42.05-2.11.34-2.11.92z" fill="#383736"/><path d="m68.09 189.38a1.15 1.15 0 0 0 -.41 1v2h-.59v-3.88h.59v.7a1.35 1.35 0 0 1 .63-.56 2.43 2.43 0 0 1 .82-.14v.5a1.72 1.72 0 0 0 -1.04.38z" fill="#383736"/><path d="m71.14 189.36c.09 0 .14 0 .14.1v1.93a3.4 3.4 0 0 0 0 .42 1.79 1.79 0 0 0 .45.6 1.87 1.87 0 0 0 1 .24h2.33c.2 0 .55 0 1-.07s.8-.1 1-.15h.1c.05 0 .07 0 .07.07a4.57 4.57 0 0 0 -.25.49c0 .11-.06.17-.15.17h-4.03a2.2 2.2 0 0 1 -1.44-.45 2.35 2.35 0 0 1 -.45-.69l-.68.79a.36.36 0 0 0 -.19.3c0 .1 0 .15-.06.15s-.06 0-.1-.07l-.39-.6a3.67 3.67 0 0 0 1.06-.86.37.37 0 0 0 .13-.33v-1.5h-.83c-.07 0-.1 0-.1-.14v-.26c0-.09 0-.14.1-.14zm-.5-1.63.57.41a.78.78 0 0 1 0 .07l-.26.36a8.63 8.63 0 0 0 -.77-.52c-.23-.13-.42-.22-.55-.28a1.87 1.87 0 0 1 .25-.37s0-.06.08-.06c.25.15.5.27.68.39zm.32-1.94c.23.13.42.25.58.36v.07l-.25.36a7 7 0 0 0 -.79-.46 5.19 5.19 0 0 0 -.57-.24 1.76 1.76 0 0 1 .25-.38s0-.05.08-.05c.25.12.5.24.74.34zm3.84 3.94c0 .07 0 .11-.07.12s-.07.06-.07.15v.33h2.53s.07 0 .07.1v.2c0 .08 0 .13-.07.13h-3.47a.11.11 0 0 0 0 .07 1.91 1.91 0 0 0 0 .2h2.88c.1 0 .16 0 .16.09a7 7 0 0 1 -.36.9.59.59 0 0 1 -.27.33 2.38 2.38 0 0 1 -.73.07c-.34 0-.52 0-.53-.16a2.39 2.39 0 0 0 -.13-.37s0 0 .06 0a5.42 5.42 0 0 0 .63 0 .89.89 0 0 0 .32 0 1.63 1.63 0 0 0 .27-.38h-2.4a.51.51 0 0 1 0 .1 1.6 1.6 0 0 1 -.39.54 1.93 1.93 0 0 1 -.65.36.13.13 0 0 1 -.1 0l-.25-.18c-.05 0-.07-.06-.07-.08s0 0 .06 0a2.42 2.42 0 0 0 .55-.32.9.9 0 0 0 .33-.37 1.66 1.66 0 0 0 .2-.67h-1.59s-.06 0-.06-.13v-.2c0-.06 0-.1.06-.1h2.39v-.64s0-.06.1-.06c.39-.13.6-.09.6-.03zm-.25-4.27c.07 0 .11.06.11.12s0 .12-.12.12a.2.2 0 0 0 -.11.11h2.3c.08 0 .14 0 .14.11v2.45c0 .07-.06.1-.14.1h-2v.37h2.43c.08 0 .13 0 .13.1v.86c0 .07 0 .1-.13.1h-.33c-.07 0-.11 0-.11-.1v-.56h-1.19v.09c0 .21.17.31.53.31a2.58 2.58 0 0 0 .56-.07 0 0 0 0 1 0 0 1 1 0 0 0 -.16.32c0 .08 0 .11-.11.11h-.49c-.58 0-.87-.14-.87-.43v-.36h-1.41l.23.17a.16.16 0 0 1 0 .09s0 0 0 0h-.09a1.9 1.9 0 0 1 -.29.28 2.19 2.19 0 0 1 -.48.3c-.06 0-.09 0-.11 0l-.24-.19s-.05 0-.05-.06a1.12 1.12 0 0 0 .22-.1 1.46 1.46 0 0 0 .34-.26l.19-.21h-1.1v.56c0 .07 0 .1-.14.1h-.33c-.06 0-.09 0-.09-.1v-.79c0-.07 0-.1.09-.1h2.4v-.37h-1.63c-.08 0-.12 0-.12-.1v-2.43c0-.07 0-.11.12-.11h1.26a2.72 2.72 0 0 0 .21-.42.1.1 0 0 1 .1-.07zm1.74 1.15v-.37h-3.35v.37zm0 .76v-.37h-3.35v.36zm0 .4h-3.35v.34h3.35z" fill="#383736"/><path d="m80.34 185.68a.43.43 0 0 1 .27.06c.13.12.2.22.2.31l-1 2.16a.31.31 0 0 0 0 .09.1.1 0 0 0 0 .08 4 4 0 0 1 .67 1 2.66 2.66 0 0 1 .19.93 2 2 0 0 1 -.22 1 .81.81 0 0 1 -.78.42c-.25 0-.38 0-.39-.16a3.21 3.21 0 0 0 -.11-.41q0-.12 0-.12l.47.06a.29.29 0 0 0 .31-.23 3.57 3.57 0 0 0 .06-.67 2.1 2.1 0 0 0 -.22-.84 3.27 3.27 0 0 0 -.69-1 .1.1 0 0 1 0-.08.66.66 0 0 1 0-.13l1-2.06h-1.1v6.91c0 .07 0 .1-.13.1h-.34c-.09 0-.13 0-.13-.1v-7.23c0-.07 0-.11.13-.11zm1.93 0-.26.5h1a.42.42 0 0 1 .12 0 .72.72 0 0 1 .14.23 6.41 6.41 0 0 1 -.31.94 2.89 2.89 0 0 1 -.81 1.21 3.49 3.49 0 0 1 -.68.48 2.59 2.59 0 0 1 -.66.26c-.06 0-.11 0-.13-.06l-.16-.26a.12.12 0 0 1 0-.08s0 0 0-.05a2 2 0 0 0 .47-.16 2 2 0 0 0 .51-.26l-.23-.23-.29-.23a1.34 1.34 0 0 1 .23-.31.1.1 0 0 1 .07-.06c.15.12.27.23.38.33l.17.21a2 2 0 0 0 .31-.34l-.24-.26-.29-.23a1.52 1.52 0 0 1 .23-.32s0-.05.07-.05l.37.34.11.13c.06-.12.11-.25.16-.38s.09-.25.14-.42h-.92c-.12.17-.23.33-.35.47a4.6 4.6 0 0 1 -.54.49.17.17 0 0 1 -.13 0l-.28-.27a.15.15 0 0 1 0-.08 4.15 4.15 0 0 0 .42-.32 3.74 3.74 0 0 0 .49-.57 8.42 8.42 0 0 0 .52-.87zm.13 5.66c0 .05.07.08.07.12s0 0-.06 0-.11 0-.14.07a5.17 5.17 0 0 1 -.5.66 5.76 5.76 0 0 1 -.8.68c-.07 0-.12 0-.14-.06l-.29-.24c-.05 0-.06 0-.06-.05a.09.09 0 0 1 0-.06 1.23 1.23 0 0 0 .37-.23 3.42 3.42 0 0 0 .57-.57c.13-.17.28-.39.44-.65v-.06zm3-1.31c.07 0 .11 0 .11.13v.27c0 .09 0 .13-.11.13h-1.74v2c0 .41-.34.62-1 .62h-.46s-.06-.06-.06-.16a1.61 1.61 0 0 0 -.13-.44 4 4 0 0 0 .59.05c.31 0 .47-.1.47-.29v-1.76h-1.79c-.07 0-.11 0-.11-.13v-.27c0-.09 0-.13.11-.13zm-.93-1.33c.07 0 .1.05.1.13v.27c0 .09 0 .13-.1.13h-2.27c-.07 0-.1 0-.1-.13v-.27c0-.08 0-.13.1-.13zm-.3-1.7a1.79 1.79 0 0 0 .16.31 1.81 1.81 0 0 0 .24-.24 2.6 2.6 0 0 0 .37-.49l.17-.27h-.91c-.06 0-.09 0-.09-.1v-.27c0-.07 0-.1.09-.1h1.17a.42.42 0 0 1 .14 0l.19.17a.33.33 0 0 1 0 .14l-.3.61a4.58 4.58 0 0 1 -.43.65 3.15 3.15 0 0 1 -.35.37 3.64 3.64 0 0 0 .44.49 3.34 3.34 0 0 0 .52.37l.33.15s0 0 0 .05a.19.19 0 0 1 .09.16l-.23.27a.15.15 0 0 1 -.13.07 2.94 2.94 0 0 1 -.8-.56 4.2 4.2 0 0 1 -.51-.57 4.14 4.14 0 0 1 -.45-.8 9.81 9.81 0 0 1 -.46-1.32c0-.05.13-.14.42-.24a7.76 7.76 0 0 0 .35 1.15zm1.12 4.77c.24.26.44.48.61.68v.07c-.17.24-.25.37-.26.37a7.8 7.8 0 0 0 -.83-.88 5.75 5.75 0 0 0 -.6-.46 2.3 2.3 0 0 1 .26-.37.11.11 0 0 1 .07-.05 7.7 7.7 0 0 1 .77.61z" fill="#383736"/><path d="m91.37 185.51a.12.12 0 0 1 -.09.13s-.08.07-.08.17v.31h3s.07 0 .07.09v.27c0 .09 0 .13-.07.13h-1.64a3.17 3.17 0 0 1 .43.2s0 .07-.1.1a.24.24 0 0 0 -.15.09 2.46 2.46 0 0 1 -.17.27h1.32s.07 0 .07.1v.27c0 .07 0 .1-.07.1h-1.43v.56h1.33s.07 0 .07.1v.27c0 .06 0 .1-.07.1h-1.33v.57h1.33s.07 0 .07.09v.26c0 .07 0 .11-.07.11h-1.33v.6h1.66s.07 0 .07.09v.27c0 .07 0 .1-.07.1h-3.35v.07c0 .07 0 .1-.14.1h-.26c-.09 0-.14 0-.14-.1v-2.6a9.45 9.45 0 0 1 -.69.8.14.14 0 0 1 -.13-.06l-.17-.14v1.93c0 .07 0 .1-.14.1h-.26c-.08 0-.13 0-.13-.1v-2.18c-.13.14-.28.28-.43.42a.17.17 0 0 1 -.14-.07l-.21-.18a.09.09 0 0 1 -.05-.08c.19-.17.38-.36.57-.55a5 5 0 0 0 .65-.86 4.08 4.08 0 0 0 .34-.75h-1.56v2.12a13.12 13.12 0 0 1 -.14 2.13 5.75 5.75 0 0 1 -.34 1.31 3.16 3.16 0 0 1 -.39.75h-.08a1 1 0 0 0 -.31-.2.24.24 0 0 1 0-.12 4.14 4.14 0 0 0 .39-.9 7.21 7.21 0 0 0 .25-1.26 13.33 13.33 0 0 0 .09-1.69v-2.52c0-.06 0-.09.09-.09h3.16v-.61c0-.06 0-.09.14-.09.41-.02.63.01.63.07zm-2 6a.12.12 0 0 1 -.07.1.26.26 0 0 0 -.16.11 3.82 3.82 0 0 1 -.3.92 2.71 2.71 0 0 1 -.28.41.12.12 0 0 1 -.09.05 2.87 2.87 0 0 0 -.46-.12s-.07 0-.07-.07a4.89 4.89 0 0 0 .41-.6 3.09 3.09 0 0 0 .29-.93c0-.05 0-.07.13-.07.44.03.64.1.64.15zm.27-3.19a5.09 5.09 0 0 0 .59-.89 4.08 4.08 0 0 0 .3-.77h-.85c.25.14.39.21.39.24s0 .07-.06.07-.16 0-.18.09a6.07 6.07 0 0 1 -.63 1.09v.66c.19-.2.34-.37.48-.54zm.73 3.11c.06 0 .1 0 .1.05s0 .08-.05.09a.1.1 0 0 0 -.06.1v.6c0 .22.15.33.44.33h1.22c.31 0 .49 0 .55-.11a1.67 1.67 0 0 0 .28-.68 1 1 0 0 0 .33.29c.07 0 .11.06.11.11a1.82 1.82 0 0 1 -.37.74.68.68 0 0 1 -.53.15h-1.62c-.6 0-.9-.18-.9-.52v-1.14s0-.06.07-.06zm1.52-3.64h-1.12v.56h1.16zm0 1h-1.12v.57h1.16zm0 1.63v-.6h-1.12v.6zm0-3.13.1-.13a2.38 2.38 0 0 0 .26-.53h-1.43c.23.14.35.21.35.24a0 0 0 0 1 0 .05c-.08 0-.13 0-.15.07a3 3 0 0 0 -.13.3zm-.13 4.29.35.4-.23.31a4.65 4.65 0 0 0 -.49-.5 1.92 1.92 0 0 0 -.34-.26 1.52 1.52 0 0 1 .23-.32s0-.05.07-.05c.23.17.38.29.5.4zm2.23.3a4.42 4.42 0 0 1 .34.6 2.89 2.89 0 0 1 -.5.16 1.72 1.72 0 0 0 -.26-.5 3.73 3.73 0 0 0 -.57-.66s.14-.13.43-.27c.31.23.5.45.65.65z" fill="#383736"/><path d="m98.11 185.72c.08 0 .13 0 .13.09v2.63c0 .06 0 .1-.13.1h-.84v1.29h1c.06 0 .1 0 .1.14v.26c0 .09 0 .14-.1.14h-1v1.57c.39-.09.78-.17 1.14-.27h.06a.06.06 0 0 1 .07.07 2 2 0 0 1 0 .45c-1 .23-2 .45-3 .64-.08.16-.14.23-.19.23s-.16-.24-.33-.7h.36v-3c0-.06 0-.1.13-.1.42 0 .64 0 .64.1s0 .12-.09.12-.08.08-.08.18v2.6c.21 0 .43-.08.67-.13h.06v-3.53h-1.09c-.1 0-.14 0-.14-.1v-2.63c0-.06 0-.09.14-.09zm-.47.52h-1.56v1.76h1.56zm1.89 1.47h2.93c.08 0 .13 0 .13.1v2.45c0 .1 0 .14-.13.14h-2.93v1.6h3.26c.07 0 .1 0 .1.13v.27c0 .08 0 .14-.1.14h-3.26v.46c0 .07 0 .1-.13.1h-.33c-.09 0-.13 0-.13-.1v-7.21a.12.12 0 0 1 .13-.13h3.65c.07 0 .1 0 .1.13v.27c0 .09 0 .13-.1.13h-3.19zm2.46 2.15v-1.62h-2.46v1.62z" fill="#383736"/><path d="m106.27 185.62c0 .07 0 .11-.08.12s-.09.07-.09.17v.24h1.7s.06 0 .06.09v.27c0 .09 0 .13-.06.13h-4s-.07 0-.07-.13v-.27c0-.06 0-.09.07-.09h1.76v-.53c0-.07 0-.11.14-.11.36 0 .57.04.57.11zm-1.59 1.56c0 .07 0 .1-.06.11s-.07.06-.07.15v1.43h2.35v-1.79c0-.05 0-.07.11-.07.39 0 .59 0 .59.1s0 .11-.07.11-.06.06-.06.15v.73l.51-.62a5.78 5.78 0 0 0 .62-1 5.08 5.08 0 0 0 .36-1s0-.06 0-.06a2.53 2.53 0 0 1 .67.39v.08s-.16 0-.18.09c-.14.37-.27.67-.39.93h.83l.19-.37a7 7 0 0 0 .28-.9c0-.06 0-.09 0-.09a6.17 6.17 0 0 1 .66.29s0 .06-.09.07a.28.28 0 0 0 -.17.18c-.09.27-.19.54-.3.82h.83c.05 0 .07 0 .07.1v.26c0 .1 0 .14-.07.14h-.86v1.32h.8s.06 0 .06.11v.26c0 .09 0 .14-.06.14h-.8v1.29h.8s.06 0 .06.1v.26c0 .1 0 .14-.06.14h-.8v1.26h.83s.07 0 .07.1v.26c0 .09 0 .14-.07.14h-2.26v.26c0 .07 0 .1-.13.1h-.33c-.09 0-.13 0-.13-.1v-5.11c-.14.17-.29.36-.47.56a.21.21 0 0 1 -.16-.07l-.24-.2v1c0 .08 0 .12-.13.12h-1.31c-.06.19-.11.37-.16.54h1.59a.13.13 0 0 1 .14.14v2.77c0 .11-.1.21-.3.28a4 4 0 0 1 -.73.1c-.06 0-.09 0-.09-.1a1.51 1.51 0 0 0 -.17-.47s0 0 .06 0a4.48 4.48 0 0 0 .59 0c.07 0 .11-.06.11-.11v-2.1h-1.34c-.14.46-.24.81-.32 1.06.29 0 .58-.08.89-.13-.07-.19-.15-.39-.23-.57 0 0 .12-.1.36-.23a6.24 6.24 0 0 1 .35.86 5.77 5.77 0 0 1 .22.77 1.77 1.77 0 0 1 -.46.13 4.68 4.68 0 0 0 -.11-.5c-.52.11-1 .2-1.48.27-.06 0-.1 0-.11.11s-.06.18-.13.18-.2-.25-.37-.76h.36.09c0-.1.06-.21.1-.31l.24-.84h-.86v2.69c0 .06 0 .1-.12.1h-.22c-.09 0-.13 0-.13-.1v-3.13c0-.07 0-.1.13-.1h1.4l.15-.54h-1.42c-.07 0-.1 0-.1-.12v-2.1s0-.06.1-.06c.34 0 .55.03.55.1zm2.1.08s.06.06.06.08 0 .07-.1.07a.2.2 0 0 0 -.16.06 3.35 3.35 0 0 1 -.31.38s0 0 0 .05a5.13 5.13 0 0 1 .38.46s0 0 0 0-.13.12-.37.27a4.31 4.31 0 0 0 -.38-.44l-.08.07a3.26 3.26 0 0 1 -.41.3 3.1 3.1 0 0 1 -.34.2.13.13 0 0 1 -.11-.06 1.12 1.12 0 0 0 -.19-.24s-.07-.05-.07-.07a4.07 4.07 0 0 0 .47-.24 2.7 2.7 0 0 0 .36-.26l-.22-.18-.58-.36a2.44 2.44 0 0 1 .26-.3.21.21 0 0 1 .11 0l.53.34.28.22.1-.12a2 2 0 0 0 .23-.36s0 0 .06 0zm3.11.15h-.89v1.32h.93zm0 1.83h-.89v1.29h.93zm0 3v-1.24h-.89v1.26z" fill="#383736"/><path d="m115.17 191v1.38h-.6v-1.38h-2.31v-.57l2.36-3.64h.55v3.67h.76v.54zm-.6-3.14-1.7 2.6h1.7z" fill="#383736"/><path d="m116.77 192.34v-1h1v1z" fill="#383736"/><path d="m121.64 191.88a1.68 1.68 0 0 1 -1.25.52 1.6 1.6 0 0 1 -1.62-1.17l.54-.23a1.11 1.11 0 0 0 1.08.84 1.06 1.06 0 0 0 .83-.36 1.57 1.57 0 0 0 .37-1.1c0-.91-.34-1.37-1-1.37a1.08 1.08 0 0 0 -1 .69h-.59v-2.95h3v.57h-2.36v1.53a1.25 1.25 0 0 1 1-.39 1.47 1.47 0 0 1 1.17.52 2.4 2.4 0 0 1 -.1 2.9z" fill="#383736"/><path d="m127.09 192.32-3.18-4.75v4.75h-.59v-5.57h.68l3.18 4.75v-4.75h.59v5.57z" fill="#383736"/><path d="m382.08 130.59h16.32v20.76h-16.32z" fill="#383736" opacity=".36"/><path d="m365.78 130.59h16.32v20.76h-16.32z" fill="#383736" opacity=".36"/><path d="m398.42 130.6h16.32v20.76h-16.32z" fill="#383736" opacity=".36"/><path d="m414.76 130.59h16.32v20.76h-16.32z" fill="#383736" opacity=".36"/><path d="m439.31 154.64h-73.1a.5.5 0 0 1 -.5-.5.51.51 0 0 1 .5-.5h73.1a.5.5 0 0 1 .5.5.5.5 0 0 1 -.5.5z" fill="#ea5326"/><path d="m365.87 156.38a.5.5 0 0 1 -.5-.5v-3.79a.5.5 0 0 1 .5-.5.5.5 0 0 1 .5.5v3.79a.5.5 0 0 1 -.5.5z" fill="#ea5326"/><path d="m439.8 156.83a.5.5 0 0 1 -.5-.5v-3.79a.5.5 0 0 1 1 0v3.79a.5.5 0 0 1 -.5.5z" fill="#ea5326"/><path d="m369.92 159.5v-.4c0-.13 0-.36 0-.7 0 0 0-.07.13-.07l.63.08c.09 0 .13.06.13.09s0 .12-.08.14a.18.18 0 0 0 -.15.19v.67h5.14c.07 0 .11.05.11.13v.27c0 .09 0 .13-.11.13h-5.15a21 21 0 0 1 -.18 2.47 7.33 7.33 0 0 1 -.68 2.22 5.75 5.75 0 0 1 -.84 1.22h-.12l-.56-.19a.12.12 0 0 1 0-.11 5.1 5.1 0 0 0 1-1.23 5.49 5.49 0 0 0 .59-1.68 16.4 16.4 0 0 0 .23-2.7h-1.59c-.06 0-.1 0-.1-.13v-.27c0-.08 0-.13.1-.13zm3.79 1.16c0 .05 0 .08-.1.1a.3.3 0 0 0 -.17.27 10.18 10.18 0 0 1 -.12 1.48 3.48 3.48 0 0 0 .11.77 3.25 3.25 0 0 0 .32.74 2.82 2.82 0 0 0 .43.55 3.41 3.41 0 0 0 .69.54 3.57 3.57 0 0 0 1 .39s0 .07-.09.11a4.12 4.12 0 0 0 -.28.31c-.05 0-.08.08-.1.08a5.41 5.41 0 0 1 -1-.49 2.44 2.44 0 0 1 -.64-.56 2.89 2.89 0 0 1 -.5-.65 2.77 2.77 0 0 1 -.24-.55c-.07.17-.15.34-.22.47a2.87 2.87 0 0 1 -.56.8 4.57 4.57 0 0 1 -.58.47 4.17 4.17 0 0 1 -1 .51.14.14 0 0 1 -.11-.08l-.3-.29v-.06s0 0 0 0a4.66 4.66 0 0 0 .8-.36 2.82 2.82 0 0 0 .64-.48 2.7 2.7 0 0 0 .55-.69 3 3 0 0 0 .35-.8 2.84 2.84 0 0 0 .16-.8 9.69 9.69 0 0 0 .09-1.48 1.86 1.86 0 0 0 0-.34s0-.06.07-.06a3.24 3.24 0 0 1 .8.1zm-1.49.7c0 .06 0 .1-.1.14s-.15.09-.16.15a6.2 6.2 0 0 1 -.3 1.22c-.09.18-.17.37-.27.55s-.08.06-.1.06a4.56 4.56 0 0 0 -.49-.11c-.05 0-.08 0-.08-.08a5.4 5.4 0 0 0 .44-.79 4.92 4.92 0 0 0 .29-1.25c0-.05.05-.09.14-.09.41.09.63.16.63.2zm3.32.08c0 .06.06.09.06.11s0 .06 0 .06a.18.18 0 0 0 -.09.1c-.12.33-.24.63-.36.88a5.41 5.41 0 0 1 -.57.93c-.07 0-.12 0-.14-.07a2.64 2.64 0 0 1 -.29-.24c-.05 0-.06 0-.06-.06a.23.23 0 0 1 0-.07 1 1 0 0 0 .27-.3 4.82 4.82 0 0 0 .4-.75c.09-.22.19-.51.31-.86v-.07z" fill="#727272"/><path d="m379.76 164.74a1.52 1.52 0 0 1 -1.17.54 1.64 1.64 0 0 1 -1.38-.68v.62h-.6v-5.59h.6v2.37a1.66 1.66 0 0 1 1.33-.64 1.55 1.55 0 0 1 1.25.56 2 2 0 0 1 .49 1.35 2.08 2.08 0 0 1 -.52 1.47zm-.4-2.43a1.11 1.11 0 0 0 -.87-.38 1.16 1.16 0 0 0 -.91.42 1.47 1.47 0 0 0 -.37 1 1.27 1.27 0 0 0 1.32 1.36 1 1 0 0 0 .82-.4 1.73 1.73 0 0 0 0-2z" fill="#727272"/><path d="m383.57 165.23a1.66 1.66 0 0 1 -.11-.55v-.09a1.89 1.89 0 0 1 -1.46.7 1.31 1.31 0 0 1 -.85-.27.86.86 0 0 1 -.36-.72 1.1 1.1 0 0 1 .64-1.05 5.05 5.05 0 0 1 2-.38.88.88 0 0 0 -1-.93 1 1 0 0 0 -.91.49l-.58-.25a1.58 1.58 0 0 1 1.49-.8 1.47 1.47 0 0 1 1.16.44 1.7 1.7 0 0 1 .39 1.18v1.68a1.35 1.35 0 0 0 .1.55zm-2.19-.93a.38.38 0 0 0 .15.3.65.65 0 0 0 .47.16 1.37 1.37 0 0 0 1-.38 1.55 1.55 0 0 0 .5-1c-1.43.04-2.12.34-2.12.92z" fill="#727272"/><path d="m385.83 162.27a1.15 1.15 0 0 0 -.42.95v2h-.59v-3.83h.59v.7a1.32 1.32 0 0 1 .64-.56 2.15 2.15 0 0 1 .81-.14v.54a1.67 1.67 0 0 0 -1.03.34z" fill="#727272"/><path d="m390.34 158.61c.09 0 .14 0 .14.09v2.63c0 .06-.05.1-.14.1h-.83v1.29h1c.06 0 .09.05.09.14v.26c0 .09 0 .13-.09.13h-1v1.58c.39-.09.77-.17 1.14-.27h.06s.07 0 .07.06a1.29 1.29 0 0 1 0 .46c-1 .23-2 .45-3 .64-.09.15-.14.23-.2.23s-.16-.24-.33-.7l.37-.05v-3c0-.07 0-.1.13-.1.42 0 .63 0 .63.1s0 .12-.08.12-.09.08-.09.18v2.6c.22 0 .44-.08.67-.13h.06v-3.53h-1.06c-.09 0-.13 0-.13-.1v-2.64c0-.06 0-.09.13-.09zm-.47.52h-1.55v1.76h1.55zm1.9 1.46h2.92c.09 0 .13 0 .13.11v2.45c0 .1 0 .14-.13.14h-2.92v1.59h3.23c.07 0 .11.05.11.13v.27c0 .08 0 .13-.11.13h-3.25v.5c0 .06 0 .1-.14.1h-.33c-.08 0-.13 0-.13-.1v-7.21a.12.12 0 0 1 .13-.13h3.72c.06 0 .1 0 .1.13v.3c0 .09 0 .13-.1.13h-3.19zm2.46 2.16v-1.62h-2.46v1.62z" fill="#727272"/><path d="m398.51 158.5c0 .08 0 .12-.08.13s-.09.07-.09.17v.2h1.66s.06 0 .06.09v.27c0 .09 0 .13-.06.13h-4c-.05 0-.07 0-.07-.13v-.27c0-.06 0-.09.07-.09h1.75v-.54c0-.06.05-.1.14-.1.41.04.62.08.62.14zm-1.6 1.57c0 .07 0 .1-.06.11s-.07.06-.07.15v1.43h2.36v-1.76c0-.05 0-.07.1-.07.39 0 .6 0 .6.1s0 .11-.07.11-.06.06-.06.15v.71l.51-.62a5.78 5.78 0 0 0 .62-1 6.88 6.88 0 0 0 .36-1s0-.06 0-.06a2.56 2.56 0 0 1 .66.39c0 .05 0 .08-.05.08a.22.22 0 0 0 -.18.09c-.13.36-.27.67-.39.93h.84a4 4 0 0 0 .18-.37 5.69 5.69 0 0 0 .28-.9c0-.06 0-.09.05-.09a4.24 4.24 0 0 1 .67.29s0 .05-.1.07a.33.33 0 0 0 -.17.18c-.08.27-.18.54-.29.82h.83s.07 0 .07.1v.26c0 .09 0 .14-.07.14h-.87v1.32h.8s.07 0 .07.1v.27c0 .09 0 .13-.07.13h-.8v1.3h.8s.07 0 .07.1v.26c0 .1 0 .14-.07.14h-.8v1.26h.83c.05 0 .07 0 .07.1v.26c0 .09 0 .14-.07.14h-2.29v.26c0 .07-.05.1-.13.1h-.33c-.1 0-.14 0-.14-.1v-5.12c-.14.17-.29.37-.47.57a.21.21 0 0 1 -.16-.07l-.24-.2v1c0 .09 0 .13-.14.13h-1.24q-.09.28-.15.54h1.59a.12.12 0 0 1 .13.13v2.78c0 .11-.1.21-.29.27a3.32 3.32 0 0 1 -.73.11.09.09 0 0 1 -.1-.1 1.51 1.51 0 0 0 -.17-.47s0 0 .06 0a4.69 4.69 0 0 0 .6 0c.06 0 .11-.06.11-.11v-2.06h-1.4c-.13.46-.23.81-.31 1.06.29 0 .58-.08.88-.14a4.41 4.41 0 0 0 -.23-.56s.12-.11.37-.23c.14.31.26.6.35.86s.15.5.22.77a1.78 1.78 0 0 1 -.47.13 5 5 0 0 0 -.1-.51c-.53.12-1 .21-1.49.28-.05 0-.09 0-.11.11s-.06.18-.13.18-.19-.25-.36-.76a2.47 2.47 0 0 0 .36 0h.09l.09-.31c.09-.29.16-.57.25-.84h-.86v2.61c0 .07 0 .11-.13.11h-.26c-.09 0-.14 0-.14-.11v-3.08c0-.07.05-.1.14-.1h1.39c.05-.19.11-.37.16-.54h-1.42c-.07 0-.1 0-.1-.13v-2.15s0-.06.1-.06c.42.06.62.06.62.13zm2.1.07s.06.07.06.09 0 .07-.09.07a.18.18 0 0 0 -.16.06 3.34 3.34 0 0 1 -.32.38 4 4 0 0 1 .39.46.06.06 0 0 1 0 0s-.12.12-.36.26c0 0 0 0-.05 0a3.47 3.47 0 0 0 -.39-.44l-.07.07a4.77 4.77 0 0 1 -.42.3 2.88 2.88 0 0 1 -.34.2.12.12 0 0 1 -.1-.06.91.91 0 0 0 -.2-.24c-.05 0-.06-.05-.06-.07a3.56 3.56 0 0 0 .48-.24 1.73 1.73 0 0 0 .35-.27l-.22-.17-.57-.36a1.8 1.8 0 0 1 .26-.3.18.18 0 0 1 .11 0c.17.1.34.21.52.34l.28.22.11-.12a2 2 0 0 0 .23-.36.09.09 0 0 1 .05 0zm3.12.16h-.93v1.32h.93zm0 1.82h-.93v1.3h.93zm0 3.06v-1.26h-.93v1.26z" fill="#727272"/><path d="m407.9 163.08v-1c0-.07 0-.11.14-.11.41 0 .63 0 .63.11s0 .12-.08.12-.08.07-.08.17v.73h2.68c.07 0 .1.06.1.14v.26c0 .1 0 .14-.1.14h-2.68v1.52h3.41c.07 0 .1.05.1.14v.26c0 .09 0 .14-.1.14h-7.37c-.06 0-.1-.05-.1-.14v-.26c0-.09 0-.14.1-.14h3.35v-1.52h-2.68c-.07 0-.11 0-.11-.14v-.26c0-.08 0-.14.11-.14zm3.76-4.31c.07 0 .1 0 .1.13v.27c0 .09 0 .13-.1.13h-3.82c-.57.92-1 1.57-1.23 1.94 1.22-.09 2.51-.21 3.85-.36a6.74 6.74 0 0 0 -.81-.71 1.87 1.87 0 0 1 .25-.37s.05 0 .08 0a9.23 9.23 0 0 1 1.09 1c.34.38.62.72.86 1a.25.25 0 0 1 0 .08l-.29.39c-.22-.31-.44-.59-.66-.85q-2.94.36-5.52.54c-.05 0-.09.05-.12.14s-.06.23-.14.23-.23-.31-.43-.93l1-.06h.15c.06-.08.12-.18.18-.27.4-.63.77-1.2 1.08-1.72h-2.37c-.06 0-.09 0-.09-.13v-.27c0-.08 0-.13.09-.13z" fill="#727272"/><path d="m415.37 160a.19.19 0 0 1 .07.12.06.06 0 0 1 -.07.07.31.31 0 0 0 -.19.1 9.43 9.43 0 0 1 -.65 1 7.13 7.13 0 0 1 -1 1c-.08 0-.13 0-.15-.07s-.23-.18-.32-.27-.07 0-.07-.06a.09.09 0 0 1 0-.07 1.73 1.73 0 0 0 .51-.33 5.74 5.74 0 0 0 .74-.81c.16-.25.36-.56.57-.93 0-.06.05-.08.07-.08zm4.16 2.58s0 .08-.12.09-.18 0-.19.08a6.52 6.52 0 0 1 -.45.67 6.13 6.13 0 0 1 -.72.86 6 6 0 0 1 -1.22.84 8.68 8.68 0 0 1 -1.4.56 14.37 14.37 0 0 1 -1.78.39s-.09-.05-.12-.14a2.72 2.72 0 0 0 -.28-.5 8.36 8.36 0 0 0 1.37-.2 8.5 8.5 0 0 0 1.37-.39 5 5 0 0 0 1-.55 4.36 4.36 0 0 0 .91-.79 7.24 7.24 0 0 0 .56-.79 1.88 1.88 0 0 0 .25-.59s0-.07 0-.07a5.88 5.88 0 0 1 .82.57zm-2.2-4.23c.07 0 .11.06.11.08s0 .09-.12.09-.19.2-.19.44v3.82c0 .44-.31.66-.92.66h-.73c-.05 0-.07 0-.07-.16a2 2 0 0 0 -.16-.4c0-.07 0-.1.06-.1a3 3 0 0 0 .83.13q.36 0 .36-.3v-3.61c0-.19 0-.32 0-.42a.62.62 0 0 1 0-.18s0-.06.14-.06zm2.42 2.2c.34.36.63.68.88 1a.15.15 0 0 1 -.05.08l-.29.39a14 14 0 0 0 -1.18-1.24 5.51 5.51 0 0 0 -.85-.65 2.18 2.18 0 0 1 .29-.4s.05-.06.08-.06a11.3 11.3 0 0 1 1.12.92z" fill="#727272"/><path d="m424.41 163.85v1.38h-.6v-1.38h-2.32v-.57l2.37-3.65h.55v3.68h.76v.54zm-.6-3.14-1.7 2.6h1.7z" fill="#727272"/><path d="m426 165.23v-1h1v1z" fill="#727272"/><path d="m430.88 164.77a1.68 1.68 0 0 1 -1.25.52 1.6 1.6 0 0 1 -1.62-1.17l.54-.24a1.11 1.11 0 0 0 1.08.85 1.08 1.08 0 0 0 .82-.36 1.56 1.56 0 0 0 .38-1.11c0-.9-.34-1.36-1-1.36a1.08 1.08 0 0 0 -1 .69h-.54v-3h2.94v.56h-2.35v1.54a1.23 1.23 0 0 1 1-.39 1.47 1.47 0 0 1 1.17.52 2.44 2.44 0 0 1 -.1 2.9z" fill="#727272"/><path d="m436.33 165.21-3.18-4.75v4.75h-.6v-5.58h.72l3.17 4.75v-4.75h.6v5.58z" fill="#727272"/><path d="m348.51 130.56v-20.76h2.82l10.91 16.3v-16.3h2.63v20.76h-2.82l-10.9-16.31v16.31z" fill="#fff"/><path d="m348.51 172.07v-20.76h2.82l10.91 16.3v-16.3h2.63v20.76h-2.82l-10.9-16.31v16.31z" fill="#fff"/><path d="m348.51 109.82h16.32v20.76h-16.32z" fill="#383736" opacity=".36"/><path d="m348.51 151.31h16.32v20.76h-16.32z" fill="#383736" opacity=".36"/><path d="m345.75 130.38a.51.51 0 0 1 -.5-.5v-19.56a.5.5 0 0 1 .5-.5.5.5 0 0 1 .5.5v19.56a.5.5 0 0 1 -.5.5z" fill="#ea5326"/><path d="m346.32 172.21a.5.5 0 0 1 -.5-.5v-19.56a.5.5 0 0 1 .5-.5.5.5 0 0 1 .5.5v19.56a.51.51 0 0 1 -.5.5z" fill="#ea5326"/><path d="m347.65 110.46h-3.79a.5.5 0 0 1 -.5-.5.5.5 0 0 1 .5-.5h3.79a.5.5 0 0 1 .5.5.5.5 0 0 1 -.5.5z" fill="#ea5326"/><path d="m347.79 130.61h-3.79a.5.5 0 0 1 -.5-.5.5.5 0 0 1 .5-.5h3.79a.5.5 0 0 1 .5.5.5.5 0 0 1 -.5.5z" fill="#ea5326"/><path d="m348 152.17h-3.79a.5.5 0 0 1 -.5-.5.5.5 0 0 1 .5-.5h3.79a.51.51 0 0 1 .5.5.5.5 0 0 1 -.5.5z" fill="#ea5326"/><path d="m348.14 172.32h-3.79a.5.5 0 0 1 -.5-.5.5.5 0 0 1 .5-.5h3.79a.5.5 0 0 1 .5.5.51.51 0 0 1 -.5.5z" fill="#ea5326"/><path d="m431.09 130.59h.07v20.76h-.07z" fill="#383736" opacity=".36"/><path d="m440.34 130.59h-6.37l6.37 9.51z" fill="#383736" opacity=".36"/><path d="m433.79 135.03v16.31h6.55v-6.51z" fill="#383736" opacity=".36"/><path d="m440.34 144.83v-4.73l-6.37-9.51h-2.81v20.75h2.63v-16.31z" fill="#fff"/><path d="m440.34 144.83v-4.73l-6.37-9.51h-2.81v20.75h2.63v-16.31z" fill="#383736" opacity=".36"/></svg>