<svg viewBox="0 0 471.13 335.85" xmlns="http://www.w3.org/2000/svg" xmlns:xlink="http://www.w3.org/1999/xlink"><clipPath id="a"><path d="m365.72 172.32h43.15v10.38h-43.15z"/></clipPath><clipPath id="b"><path d="m257.34 172.32h32.36v10.38h-32.36z"/></clipPath><path d="m229.68 118.91h241.44v72.19h-241.44z" fill="#009e96"/><path d="m7.11 9.85a2.26 2.26 0 0 1 -1.74-.77 2.82 2.82 0 0 1 -.69-2 2.84 2.84 0 0 1 .69-2 2.26 2.26 0 0 1 1.75-.78 2.47 2.47 0 0 1 2.27 1.48l-1 .43a1.43 1.43 0 0 0 -1.29-.85 1.11 1.11 0 0 0 -.89.43 2 2 0 0 0 -.41 1.32 1.86 1.86 0 0 0 .43 1.27 1.13 1.13 0 0 0 .88.45c.56 0 1-.37 1.34-1.13l1 .43a2.48 2.48 0 0 1 -2.34 1.72z" fill="#595757"/><path d="m14.78 9.14a2.71 2.71 0 0 1 -1.91.71 2.66 2.66 0 0 1 -1.87-.71 2.54 2.54 0 0 1 -.81-2 2.83 2.83 0 0 1 .74-2 2.61 2.61 0 0 1 2-.81 2.62 2.62 0 0 1 2 .81 2.88 2.88 0 0 1 .74 2 2.58 2.58 0 0 1 -.89 2zm-.78-3.28a1.58 1.58 0 0 0 -2.29 0 1.9 1.9 0 0 0 -.43 1.29 1.61 1.61 0 0 0 .45 1.21 1.5 1.5 0 0 0 1.13.47 1.53 1.53 0 0 0 1.14-.46 1.69 1.69 0 0 0 .44-1.22 1.9 1.9 0 0 0 -.44-1.29z" fill="#595757"/><path d="m20.86 9.21a2.27 2.27 0 0 1 -1.7.67 2.19 2.19 0 0 1 -1.62-.61v2.1h-1.11v-6.94h1.11v.57a2.08 2.08 0 0 1 1.56-.65 2.33 2.33 0 0 1 1.83.78 2.92 2.92 0 0 1 .69 2 2.81 2.81 0 0 1 -.76 2.08zm-.74-3.37a1.24 1.24 0 0 0 -1-.47 1.43 1.43 0 0 0 -1.12.47 2 2 0 0 0 -.45 1.4 1.5 1.5 0 0 0 .53 1.22 1.64 1.64 0 0 0 1.09.39 1.17 1.17 0 0 0 .91-.38 2 2 0 0 0 .42-1.36 2 2 0 0 0 -.38-1.27z" fill="#595757"/><path d="m24.85 10.1a2.08 2.08 0 0 1 -.74 1 2.61 2.61 0 0 1 -1.36.3v-1.09a2.19 2.19 0 0 0 .67-.08.91.91 0 0 0 .42-.53l.16-.39-1.9-4.85h1.15l1.32 3.37 1.32-3.37h1.11z" fill="#595757"/><path d="m28.72 7.08v2.68h-1.08v-5.31h1.08v.65a1.83 1.83 0 0 1 .81-.52 4.14 4.14 0 0 1 1-.13v1c-1.2.1-1.81.62-1.81 1.63z" fill="#595757"/><path d="m32.2 3v-1.23h1.11v1.23zm0 6.79v-5.33h1.11v5.29z" fill="#595757"/><path d="m39.32 10.66a2.28 2.28 0 0 1 -1.73.71 2.43 2.43 0 0 1 -2.28-1.37l1-.47a1.43 1.43 0 0 0 1.32.79 1.26 1.26 0 0 0 .94-.38 1.67 1.67 0 0 0 .35-1.12v-.16a1.91 1.91 0 0 1 -1.37.61 2.26 2.26 0 0 1 -1.72-.72 2.36 2.36 0 0 1 -.68-1.73 2.43 2.43 0 0 1 .67-1.75 2.27 2.27 0 0 1 1.73-.72 2.12 2.12 0 0 1 1.37.5v-.41h1.08v4.41a2.58 2.58 0 0 1 -.68 1.81zm-.83-4.89a1.27 1.27 0 0 0 -1-.4 1.16 1.16 0 0 0 -.89.42 1.46 1.46 0 0 0 -.39 1 1.33 1.33 0 0 0 .39 1 1.1 1.1 0 0 0 .89.42 1.3 1.3 0 0 0 1-.39 1.42 1.42 0 0 0 .38-1 1.45 1.45 0 0 0 -.38-1.05z" fill="#595757"/><path d="m44.72 9.75v-3.18a1.45 1.45 0 0 0 -.24-.92 1.17 1.17 0 0 0 -.88-.28 1.75 1.75 0 0 0 -1.6 1.24v3.14h-1.06v-7.85h1.06v3.1a2.17 2.17 0 0 1 1.57-.67 2 2 0 0 1 2.2 2.24v3.18z" fill="#595757"/><path d="m48.46 5.37v3c0 .16 0 .26.06.31s.11.08.22.08h1v1h-1a1.25 1.25 0 0 1 -1-.36 1.77 1.77 0 0 1 -.3-1.14v-2.89h-.92v-1h.92v-1.37h1.08v1.34h1.28v1z" fill="#595757"/><path d="m56.08 7.21c.1 0 .15.06.15.14s-.08.18-.2.28a17.26 17.26 0 0 1 -.55 2.62l-1-.32a8.09 8.09 0 0 0 .36-1.17c.12-.54.22-1.16.3-1.83zm1.24-6.67c.1.06.16.11.16.16s-.06.16-.18.24l-1 1.49.75.57 1.14-1.69.77.5a.26.26 0 0 1 .12.21c0 .07-.08.1-.23.13l-2.23 3.08 1.38-.18c-.1-.26-.18-.53-.28-.79l.94-.19a12.43 12.43 0 0 1 .66 2.3l-.94.18c0-.23-.1-.46-.15-.67l-.7.12v4.91h-1v-4.76l-1.45.22c-.09.12-.16.18-.23.18s-.12 0-.12-.16l-.22-1c.33 0 .64 0 .95-.08l1.05-1.56c-.59-.46-1.24-.91-2-1.36l.61-.75.36.24 1-1.79zm2 9.05-.94.2a23.17 23.17 0 0 0 -.56-2.58l.94-.21a19.13 19.13 0 0 1 .56 2.59zm2.48-7.77v-1.69l1 .09q.27 0 .27.15a.52.52 0 0 1 -.18.28v1.17h2.48v.94h-2.49v1.69h2.29v.94h-5.71v-.94h2.34v-1.69h-2.53v-.94zm3.1 4.55v4.54h-1v-.85h-3v.85h-1v-4.54zm-1 2.76v-1.83h-3v1.83z" fill="#595757"/><path d="m68.08 2.34v-2.34l.92.06c.17 0 .27.05.27.12s-.08.17-.19.29v1.87h1.17v.93h-1.17a8.55 8.55 0 0 0 1.44 2.73l-.7.74a11.44 11.44 0 0 1 -.75-1.53v5.84h-1v-5.65c0 .16-.08.31-.11.44a20.19 20.19 0 0 1 -.62 2.16l-1-.66a11.34 11.34 0 0 0 .88-1.89c.17-.48.38-1.2.65-2.19h-1.3v-.92zm4-1.36v-.98l.92.06c.17 0 .27.05.27.12s-.08.17-.2.29v.53h1.55v-1l.91.06c.17 0 .27.05.27.12s-.08.17-.2.29v.53h1.5v.84h-1.5v.66h1.2v.79h-1.18v.66h1.88v.84h-3v.57h2.3v3h.84v.84h-.84v.8c0 .45-.28.75-.83.9a5.68 5.68 0 0 1 -1.28.16l-.37-1h1.05c.29 0 .45-.15.45-.36v-.48h-3.71v1.78h-1v-1.78h-1.11v-.84h1.17v-3h2.35v-.61h-3.28v-.84h1.87v-.66h-1.11v-.79h1.13v-.66h-1.57v-.82zm1.37 5.95v-.75h-1.34v.75zm0 1.45v-.66h-1.34v.66zm1.16-6.56h-1.52v.66h1.55zm0 1.45h-1.52v.66h1.55zm-.18 3.66h1.36v-.75h-1.33zm0 1.45h1.36v-.66h-1.33z" fill="#595757"/><path d="m.21.57h.84v11.26h-.84z" fill="#363736"/><path d="m9.36 56.27v-.76l.81.07c.15 0 .23.06.23.14s-.05.11-.15.19v.36h1.87v.73a7.15 7.15 0 0 0 1.13-.89l.68.25c.14.05.21.11.21.19s-.07.09-.21.11c-.47.39-.93.74-1.39 1h1.87v.8h-3.23c-.2.1-.41.21-.6.29s-.68.27-1 .4h3.59v3.77h-.92v-.42h-4v.44h-.97v-3.13c-.52.14-1.06.25-1.61.35l-.56-.84a19.84 19.84 0 0 0 3.79-.84h-3.47v-.8h3.93v-.68h-2.56v-.77zm-1.45-1.88v-.8l.85.06c.16 0 .24.07.24.14s-.06.13-.16.24v.36h2v-.8l.84.06c.17 0 .25.07.25.14s-.06.13-.16.24v.36h2.73v.72h-2.69v.68h-.93v-.68h-2v.68h-.97v-.68h-2.56v-.72zm4.3 6.13v-.63h-4v.63zm0 1.25v-.56h-4v.56zm-.21-4.77h-1.75v.64h.67a8.54 8.54 0 0 0 1.08-.64z" fill="#231815"/><path d="m19.12 54c.1 0 .15.09.15.14s-.09.18-.25.24c-.22.53-.41 1-.6 1.4v7.15h-.92v-5.4c-.28.45-.59.93-.92 1.42l-.68-.67a15.44 15.44 0 0 0 1.35-2.17 19.07 19.07 0 0 0 1.05-2.5zm2.29 0c.1.05.15.09.15.14s-.09.18-.25.24l-.39 1h4.37v.88h-3.29v1.54h2.76v.84h-2.76v1.52h2.76v.84h-2.76v2h-.93v-6.73h-.56a3.51 3.51 0 0 1 -.18.34 19.15 19.15 0 0 1 -1 1.72l-.69-.69a13.81 13.81 0 0 0 1.12-1.85 17.73 17.73 0 0 0 .85-2.13z" fill="#231815"/><path d="m28.05 55.64v-2.17l.78.05c.15 0 .22 0 .22.1a.41.41 0 0 1 -.16.25v1.77h.72v.8h-.72a6.7 6.7 0 0 0 1.11 2.08l-.6.65a9.59 9.59 0 0 1 -.48-1.07v4.9h-.84v-4.45a12.51 12.51 0 0 1 -.65 1.82l-.8-.52a11 11 0 0 0 .87-1.67 17 17 0 0 0 .58-1.73h-1.08v-.8zm4.61.12v1.8h-1.38l.38.12q.12 0 .12.12s-.07.12-.21.2l-.15.36h1.65l.43-.68.69.14c.13 0 .2.07.2.14s-.07.16-.21.24l-.12.16h2v.73h-2.24v.55h1.93v.69h-1.93v.52h1.93v.68h-1.93v.52h2.38v.72h-4.78v.28h-.84v-3.24c-.15.21-.3.4-.44.56l-.77-.52a6.15 6.15 0 0 0 1.53-2.29h-.68v-1.8zm-.43-2.07c.14 0 .23.07.23.14s-.05.11-.16.2v1.52h-.88v-.55h-1.49v-.8h1.49v-.61zm-.3 2.66h-1v.65h1zm1 2.74h-1.51v.55h1.58zm0 1.24h-1.51v.52h1.58zm0 1.2h-1.51v.52h1.58zm2.69-5.77v1.8h-2.4v-1.8zm-1.22-2.07c.14 0 .22.07.22.14s0 .11-.15.2v.2h1.53v.77h-1.53v.52h-.88v-1.9zm.54 2.66h-.94v.65h1z" fill="#231815"/><path d="m55 49.63a7.1 7.1 0 0 1 3.41.9 6.44 6.44 0 0 1 2.59 2.56 7 7 0 0 1 0 6.91 6.4 6.4 0 0 1 -2.56 2.57 7 7 0 0 1 -6.91 0 6.46 6.46 0 0 1 -2.6-2.57 6.88 6.88 0 0 1 -.93-3.44 7 7 0 0 1 .93-3.47 6.41 6.41 0 0 1 2.6-2.56 7.07 7.07 0 0 1 3.47-.9zm0 1.15a5.9 5.9 0 0 0 -2.85.75 5.36 5.36 0 0 0 -2.16 2.14 5.77 5.77 0 0 0 0 5.76 5.46 5.46 0 0 0 2.15 2.14 5.75 5.75 0 0 0 5.75 0 5.37 5.37 0 0 0 2.11-2.14 5.74 5.74 0 0 0 0-5.76 5.36 5.36 0 0 0 -2.16-2.14 5.94 5.94 0 0 0 -2.84-.75zm2.22 6.9 1.08.32a3.09 3.09 0 0 1 -1.17 1.83 3.79 3.79 0 0 1 -4.8-.36 4 4 0 0 1 -1-2.9 4.46 4.46 0 0 1 .46-2.1 3 3 0 0 1 1.3-1.35 4 4 0 0 1 2-.46 3.45 3.45 0 0 1 2 .58 2.87 2.87 0 0 1 1.1 1.59l-1.09.26a2.27 2.27 0 0 0 -.82-1 2.17 2.17 0 0 0 -1.28-.39 2.26 2.26 0 0 0 -1.74.75 3.8 3.8 0 0 0 0 4.28 2.16 2.16 0 0 0 1.68.72 2.29 2.29 0 0 0 1.4-.45 2.22 2.22 0 0 0 .83-1.32z" fill="#0f9790"/><path d="m69.52 99.31h-1v-1.14h1zm0-2.14h-1v-2h1zm0-3h-1v-2h1zm0-3h-1v-2h1zm0-3h-1v-2h1zm0-3h-1v-2h1zm0-3h-1v-2h1zm0-3h-1v-2h1zm0-3h-1v-2h1zm0-3h-1v-2h1zm0-3h-1v-2h1zm0-3h-1v-2h1zm0-3h-1v-2h1zm0-3h-1v-2h1zm0-3h-1v-2h1zm0-3h-1v-2h1zm0-3h-1v-2h1zm0-3h-1v-2h1zm0-3h-1v-2h1zm0-3h-1v-2h1zm0-3h-1v-2h1zm0-3h-1v-2h1zm0-3h-1v-2h1zm0-3h-1v-2h1zm0-3h-1v-2h1z" fill="#11918a"/><path d="m123.93 98.91h-1v-1.14h1zm0-2.14h-1v-2h1zm0-3h-1v-2h1zm0-3h-1v-2h1zm0-3h-1v-2h1zm0-3h-1v-2h1zm0-3h-1v-2h1zm0-3h-1v-2h1zm0-3h-1v-2h1zm0-3h-1v-2h1zm0-3h-1v-2h1zm0-3h-1v-2h1zm0-3h-1v-2h1zm0-3h-1v-2h1zm0-3h-1v-2h1zm0-3h-1v-2h1zm0-3h-1v-2h1zm0-3h-1v-2h1zm0-3h-1v-2h1zm0-3h-1v-2h1zm0-3h-1v-2h1zm0-3h-1v-2h1zm0-3h-1v-2h1zm0-3h-1v-2h1zm0-3h-1v-2h1z" fill="#11918a"/><path d="m165.91 98.92h-1v-1.14h1zm0-2.14h-1v-2h1zm0-3h-1v-2h1zm0-3h-1v-2h1zm0-3h-1v-2h1zm0-3h-1v-2h1zm0-3h-1v-2h1zm0-3h-1v-2h1zm0-3h-1v-2h1zm0-3h-1v-2h1zm0-3h-1v-2h1zm0-3h-1v-2h1zm0-3h-1v-2h1zm0-3h-1v-2h1zm0-3h-1v-2h1zm0-3h-1v-2h1zm0-3h-1v-2h1zm0-3h-1v-2h1zm0-3h-1v-2h1zm0-3h-1v-2h1zm0-3h-1v-2h1zm0-3h-1v-2h1zm0-3h-1v-2h1zm0-3h-1v-2h1zm0-3h-1v-2h1z" fill="#11918a"/><path d="m78.68 54.06.11-.16a.21.21 0 0 1 .13-.07c.06 0 .12.05.18.14l.36.43a.26.26 0 0 1 .06.15c0 .07-.09.14-.28.2a6.51 6.51 0 0 1 -2 1.81h1.36v2.21a2.14 2.14 0 0 0 .72-.6 1.53 1.53 0 0 0 .29-.85v-.8h2a5.91 5.91 0 0 1 -.64-.44 4.88 4.88 0 0 1 -1.43-1.93l.8-.2a3.26 3.26 0 0 0 .48.8 7.05 7.05 0 0 0 1-.92l.59.58a.27.27 0 0 1 0 .14c0 .06-.08.08-.24.08-.28.22-.58.44-.88.65l.17.13c.1.09.22.17.34.26a8.42 8.42 0 0 0 1.18-.88l.58.59a.24.24 0 0 1 0 .13c0 .06-.08.08-.23.08l-.84.48a10.61 10.61 0 0 0 1.55.56l-.6.81a11.48 11.48 0 0 1 -1.44-.73v1.29c0 .3 0 .44.07.44h.29a.31.31 0 0 0 .18 0 1.68 1.68 0 0 0 .18-.55l.81.28a1.88 1.88 0 0 1 -.4.9 1 1 0 0 1 -.65.18h-.48c-.59 0-.87-.33-.87-1v-.88h-.72a2.11 2.11 0 0 1 -.29 1 2.51 2.51 0 0 1 -.84.88l-.68-.34v.09h-1.9c-.07.27-.14.53-.22.76h2a6.32 6.32 0 0 1 -.24 2.28 1 1 0 0 1 -.65.63 5.87 5.87 0 0 1 -1.76.19l-.4-.85a7.84 7.84 0 0 0 1.71-.01.62.62 0 0 0 .39-.33 2.47 2.47 0 0 0 .21-1h-1.49a2.44 2.44 0 0 1 -.1.24h-.84a14 14 0 0 0 .76-2.61h1.73v-.88h-1.69v-.23a9.39 9.39 0 0 1 -1 .38l-.56-.67a9.4 9.4 0 0 0 1.7-.61 9.79 9.79 0 0 0 -.82-.55l.6-.57a7 7 0 0 1 1 .7l.2-.14a4.62 4.62 0 0 0 .85-.79h-2.69v-.82zm3.55 5.43c.08-.05.12-.09.14-.09a.33.33 0 0 1 .19.09l.44.4a.19.19 0 0 1 .1.15c0 .07-.11.15-.29.25a5.43 5.43 0 0 1 -.91 1.36 2.41 2.41 0 0 0 .43.17 8.71 8.71 0 0 0 1.53.32l-.72.8a7.63 7.63 0 0 1 -1.56-.54l-.4-.2a7.94 7.94 0 0 1 -2.1.74l-.56-.76c.55-.1 1-.19 1.33-.29a4 4 0 0 0 .59-.24 2.66 2.66 0 0 1 -.71-.93 2.44 2.44 0 0 1 -.18-.41h-.55v-.8zm-1.78 1.06a2.24 2.24 0 0 0 .64.67 2.84 2.84 0 0 0 .71-.93h-1.51a1.4 1.4 0 0 0 .16.26z" fill="#231815"/><path d="m89.63 54.51v-.89l.84.07c.16 0 .24.07.24.14s-.06.13-.16.23v.45h3.61v.81h-3.61v.76h3v.8h-3v.72h4.13v.84h-3.82a4.76 4.76 0 0 0 1 1.53 12.43 12.43 0 0 0 1.69-1.17l.63.66a.24.24 0 0 1 .06.15s-.09.07-.28.07c-.49.29-1 .58-1.53.84a10.17 10.17 0 0 0 2.45 1.41l-1 .72a16.78 16.78 0 0 1 -1.94-1.34 6.16 6.16 0 0 1 -1.26-1.41 5.5 5.5 0 0 1 -.68-1.46h-.57c-.25.27-.48.5-.68.7v2.25c.59-.15 1.19-.31 1.76-.5v.8c-.75.27-1.93.63-3.53 1.08-.07.14-.14.21-.2.21s-.12-.06-.13-.17l-.23-1c.48-.06 1-.16 1.45-.26v-1.74a13 13 0 0 1 -1.65.88l-.84-.76a13.34 13.34 0 0 0 2.11-.93 6.29 6.29 0 0 0 .85-.57h-2.89v-.83h4.18v-.72h-3v-.8h3v-.76h-3.63v-.81z" fill="#231815"/><path d="m99.61 54c.1 0 .16.09.16.14a.17.17 0 0 1 -.08.12c-.1 0-.28.24-.53.61h6v.88h-3.16v1.31h2.72v.85h-2.72v1.89h3.49v.93h-3.49v2.21h-1v-2.21h-4.72v-.93h1.72v-2.73h3.1v-1.31h-2.59a12.5 12.5 0 0 1 -1.39 1.44l-.92-.53a9.86 9.86 0 0 0 2.57-3zm1.45 3.91h-2.17v1.89h2.17z" fill="#231815"/><path d="m110.22 54.05c.09.05.14.09.14.14s-.08.18-.24.24c-.32.69-.62 1.29-.89 1.79v6.72h-.92v-5.24c-.27.37-.54.75-.84 1.14l-.68-.68a13.73 13.73 0 0 0 1.47-2.09 16.7 16.7 0 0 0 1.14-2.41zm1.89 1.07c.08 0 .13.09.13.16s-.11.07-.32.11a6.75 6.75 0 0 1 -1.72 2.81l-.8-.52a6 6 0 0 0 1.08-1.23 7.5 7.5 0 0 0 .76-1.62zm3.06 2.72a22.4 22.4 0 0 1 -.18 3.73 1.58 1.58 0 0 1 -.52 1 2.47 2.47 0 0 1 -1.38.3l-.4-.89a2.44 2.44 0 0 0 1.19-.16 1 1 0 0 0 .28-.62 13.6 13.6 0 0 0 .17-2.59h-1.5a9 9 0 0 1 -.32 1.92 4.68 4.68 0 0 1 -.69 1.4 4.1 4.1 0 0 1 -1.1 1l-.88-.69a3 3 0 0 0 1.11-.81 3.52 3.52 0 0 0 .66-1.16 7.15 7.15 0 0 0 .29-1.64h-1.14v-.8zm-.55-3.78a4.4 4.4 0 0 0 .64 2.19 7.27 7.27 0 0 0 1.32 1.43l-.8.56a7.14 7.14 0 0 1 -1.5-1.79 4.33 4.33 0 0 1 -.51-1.57h-1.61v-.82z" fill="#231815"/><path d="m137 54c.1 0 .15.09.15.14s-.09.18-.25.24c-.22.53-.41 1-.59 1.4v7.15h-.93v-5.4c-.28.45-.58.93-.92 1.42l-.68-.67a15.44 15.44 0 0 0 1.35-2.17 19.07 19.07 0 0 0 1-2.5zm2.29 0c.1.05.15.09.15.14s-.09.18-.25.24l-.39 1h4.37v.88h-3.29v1.54h2.76v.84h-2.76v1.52h2.76v.84h-2.76v2h-.93v-6.73h-.56c-.06.13-.12.24-.17.34-.28.52-.62 1.1-1 1.72l-.69-.69a13.81 13.81 0 0 0 1.12-1.85 17.73 17.73 0 0 0 .85-2.13z" fill="#231815"/><path d="m148.72 54.83v-1.24l.84.06c.15 0 .23.07.23.14s0 .13-.15.24v.8h2.08v.51c.35-.35.68-.72 1-1.11l.8.43a.2.2 0 0 1 .11.17c0 .06-.08.08-.23.08-.7.69-1.33 1.28-1.89 1.76h2.49v.8h-3.49a15 15 0 0 1 -1.75 1.05h4v4.42h-.88v-.36h-3.88v.36h-.88v-3.73c-.55.2-1.15.4-1.81.59l-.67-.76a15.79 15.79 0 0 0 3.62-1.19c.24-.12.46-.24.69-.38h-4v-.8h3.81v-1h-2.57v-.81zm3.17 5.33v-.88h-3.89v.88zm0 1.65v-.89h-3.89v.89zm-1.43-5.36c.33-.25.65-.53 1-.81h-1.78v1h.51z" fill="#231815"/><path d="m178.88 53.77c.14 0 .22 0 .22.1s-.08.19-.23.28v2.29h1.07v-2.57l.76.05c.14 0 .21 0 .21.11s-.06.12-.17.2v2.21h.69v.84h-2.56v.28.8h2v4.22h-.87v-3.41h-1.17c0 .37 0 .7-.08 1a8.68 8.68 0 0 1 -.34 1.7 8.3 8.3 0 0 1 -.41 1.13l-.72-.65a6.21 6.21 0 0 0 .35-.91 8.14 8.14 0 0 0 .29-1.35 22.43 22.43 0 0 0 .12-2.51v-3.19c0-.18 0-.42 0-.68zm7.65.22v.84h-3.77v1.57h2.76a.68.68 0 0 1 .33-.17 6.33 6.33 0 0 1 .68.6.19.19 0 0 1 .08.13.11.11 0 0 1 -.08.11 3.5 3.5 0 0 0 -.39 1.08 10.69 10.69 0 0 1 -1.14 2.68 7.82 7.82 0 0 0 1.67 1.35l-.73.76a8.75 8.75 0 0 1 -1.5-1.34 6.69 6.69 0 0 1 -1.44 1.34l-.63-.73a5.81 5.81 0 0 0 1.34-1 2.27 2.27 0 0 0 .27-.33l-.08-.12a6.59 6.59 0 0 1 -.9-2.76l.8-.08a5.39 5.39 0 0 0 .61 2.09l.14-.27a14.74 14.74 0 0 0 .85-2.58h-2.68a22 22 0 0 1 -.22 3 14.77 14.77 0 0 1 -.62 2.72l-.85-.44a11.35 11.35 0 0 0 .63-2.42 22.67 22.67 0 0 0 .22-3.08v-2.94z" fill="#231815"/><path d="m189.33 55.64v-2.17l.79.05c.14 0 .21 0 .21.1a.43.43 0 0 1 -.15.25v1.77h.72v.8h-.72a6.48 6.48 0 0 0 1.07 2.07l-.6.65a8 8 0 0 1 -.47-1.07v4.91h-.85v-4.45a13.82 13.82 0 0 1 -.64 1.82l-.8-.52a11.91 11.91 0 0 0 .86-1.67 17 17 0 0 0 .58-1.73h-1v-.8zm4.62.12v1.8h-1.39l.38.12q.12 0 .12.12s-.07.12-.2.2-.11.25-.16.36h1.66l.43-.68.69.14c.12 0 .19.07.19.14s-.07.16-.21.24l-.12.16h2v.73h-2.2v.55h1.86v.69h-1.93v.52h1.93v.68h-1.93v.52h2.37v.72h-4.74v.28h-.84v-3.24a5.47 5.47 0 0 1 -.44.56l-.77-.52a6 6 0 0 0 1.53-2.29h-.68v-1.8zm-.44-2.07c.15 0 .23.07.23.14s-.05.11-.15.2v1.52h-.89v-.55h-1.49v-.8h1.49v-.61zm-.29 2.66h-1v.65h1zm1 2.74h-1.52v.55h1.56zm0 1.24h-1.52v.52h1.56zm0 1.2h-1.52v.52h1.56zm2.78-5.77v1.8h-2.5v-1.8zm-1.27-2.07c.14 0 .23.07.23.14s0 .11-.16.2v.2h1.52v.77h-1.52v.52h-.88v-1.9zm.55 2.66h-1v.65h1z" fill="#231815"/><path d="m202.81 54.55a23.89 23.89 0 0 1 -2.37.52v1h3v3.16h-3q0 .33 0 .57a12.77 12.77 0 0 1 -.34 2 9.33 9.33 0 0 1 -.48 1.28l-.8-.52c.15-.33.26-.6.33-.8a8.28 8.28 0 0 0 .33-1.37 25.78 25.78 0 0 0 .14-3.08v-3.31l.71.26a8.59 8.59 0 0 0 1.1-.21 6.87 6.87 0 0 0 1.43-.49l.63.67a.3.3 0 0 1 .1.22c0 .05 0 .07-.08.07l-.26-.06a1.78 1.78 0 0 0 -.44.09zm-.24 3.93v-1.64h-2.13v.52 1.12zm4.74-4a25.19 25.19 0 0 1 -2.5.52v1.64h3.45v.84h-1.08v5.43h-.93v-5.4h-1.44c0 .84-.05 1.51-.1 2.05a6.85 6.85 0 0 1 -1.47 3.57l-.8-.52a8.38 8.38 0 0 0 .64-.86 5.7 5.7 0 0 0 .59-1.5 16.12 16.12 0 0 0 .26-3.33v-2.92l.62.23c.44-.06.86-.13 1.26-.22a7.83 7.83 0 0 0 1.53-.49l.62.67a.3.3 0 0 1 .1.21c0 .06 0 .08-.08.08l-.26-.07a1.64 1.64 0 0 0 -.41.1z" fill="#231815"/><path d="m213 55a14.63 14.63 0 0 0 .59-1.41l.72.29c.13 0 .2.11.2.2s-.07.1-.19.12c-.12.29-.24.55-.35.8h4.88v.8h-5.27c-.23.42-.44.78-.65 1.09h4.63v5a.81.81 0 0 1 -.67.84 3.49 3.49 0 0 1 -1 .17l-.36-.89h.84a.34.34 0 0 0 .36-.38v-.56h-3.89v1.83h-.88v-4.78a8.63 8.63 0 0 1 -1.73 1.24l-.6-.88a5.76 5.76 0 0 0 2.28-1.7 6 6 0 0 0 .71-1h-2.75v-.78zm3.68 3.66v-1h-3.89v1zm0 1.68v-.92h-3.89v.92z" fill="#231815"/><path d="m34.25 143a7.78 7.78 0 0 1 3.75 1 7 7 0 0 1 2.82 2.79 7.71 7.71 0 0 1 1 3.78 7.58 7.58 0 0 1 -1 3.75 6.94 6.94 0 0 1 -2.82 2.77 7.57 7.57 0 0 1 -7.52 0 7 7 0 0 1 -2.79-2.79 7.58 7.58 0 0 1 -1-3.75 7.71 7.71 0 0 1 1-3.78 7 7 0 0 1 2.85-2.77 7.77 7.77 0 0 1 3.71-1zm0 1.25a6.33 6.33 0 0 0 -3.09.82 5.82 5.82 0 0 0 -2.36 2.33 6.27 6.27 0 0 0 0 6.27 5.89 5.89 0 0 0 2.32 2.33 6.31 6.31 0 0 0 3.13.84 6.37 6.37 0 0 0 3.14-.84 5.87 5.87 0 0 0 2.33-2.33 6.27 6.27 0 0 0 0-6.27 5.79 5.79 0 0 0 -2.35-2.33 6.39 6.39 0 0 0 -3.12-.82zm2.42 7.52 1.24.36a3.42 3.42 0 0 1 -1.28 2 4.14 4.14 0 0 1 -5.23-.39 4.37 4.37 0 0 1 -1.1-3.16 5 5 0 0 1 .5-2.29 3.33 3.33 0 0 1 1.43-1.47 4.39 4.39 0 0 1 2.11-.5 3.62 3.62 0 0 1 2.21.64 3.15 3.15 0 0 1 1.21 1.72l-1.2.29a2.4 2.4 0 0 0 -.88-1.13 2.36 2.36 0 0 0 -1.38-.4 2.43 2.43 0 0 0 -1.89.82 4.08 4.08 0 0 0 0 4.66 2.32 2.32 0 0 0 1.82.79 2.56 2.56 0 0 0 1.58-.52 2.41 2.41 0 0 0 .86-1.42z" fill="#0f9790"/><path d="m77.72 158.34v-14.66h10.61v1.73h-8.67v4.49h8.12v1.72h-8.12v5h9v1.73z" fill="#0f9790"/><path d="m92.66 158.34v-2.05h2v2.05z" fill="#0f9790"/><path d="m98.44 153.63 1.83-.16a4.16 4.16 0 0 0 .6 1.8 3.32 3.32 0 0 0 1.48 1.14 5.61 5.61 0 0 0 2.25.44 5.37 5.37 0 0 0 2-.33 2.7 2.7 0 0 0 1.27-.91 2.06 2.06 0 0 0 .41-1.25 1.92 1.92 0 0 0 -.4-1.21 2.88 2.88 0 0 0 -1.32-.86q-.58-.22-2.61-.72a13 13 0 0 1 -2.83-.91 4 4 0 0 1 -1.57-1.37 3.35 3.35 0 0 1 -.51-1.82 3.7 3.7 0 0 1 .63-2.07 3.89 3.89 0 0 1 1.84-1.47 7 7 0 0 1 2.69-.5 7.36 7.36 0 0 1 2.8.57 4.17 4.17 0 0 1 2 1.5 4.56 4.56 0 0 1 .72 2.31l-1.87.14a3 3 0 0 0 -1-2.1 4 4 0 0 0 -2.56-.71 4.13 4.13 0 0 0 -2.57.65 1.93 1.93 0 0 0 -.8 1.55 1.66 1.66 0 0 0 .57 1.3 7.75 7.75 0 0 0 2.93 1.05 18.43 18.43 0 0 1 3.24.93 4.45 4.45 0 0 1 1.9 1.49 3.72 3.72 0 0 1 .61 2.09 4 4 0 0 1 -.67 2.2 4.4 4.4 0 0 1 -1.93 1.61 6.78 6.78 0 0 1 -2.83.58 8.58 8.58 0 0 1 -3.34-.58 4.72 4.72 0 0 1 -2.11-1.75 4.85 4.85 0 0 1 -.85-2.63z" fill="#0f9790"/><path d="m123.43 143.68h1.94v8.47a10.13 10.13 0 0 1 -.5 3.51 4.28 4.28 0 0 1 -1.81 2.11 6.41 6.41 0 0 1 -3.42.82 7.12 7.12 0 0 1 -3.38-.71 4.08 4.08 0 0 1 -1.87-2.06 9.82 9.82 0 0 1 -.56-3.67v-8.47h1.94v8.46a8.11 8.11 0 0 0 .36 2.81 2.65 2.65 0 0 0 1.22 1.4 4.3 4.3 0 0 0 2.11.49 4.1 4.1 0 0 0 3.06-1c.6-.65.91-1.89.91-3.73z" fill="#0f9790"/><path d="m129.57 158.34v-14.66h2l7.7 11.51v-11.51h1.87v14.66h-2l-7.7-11.52v11.52z" fill="#0f9790"/><path d="m152 158.34v-14.66h5.51a6.78 6.78 0 0 1 2.7.45 3.47 3.47 0 0 1 1.59 1.37 3.61 3.61 0 0 1 .57 1.93 3.31 3.31 0 0 1 -.51 1.77 3.64 3.64 0 0 1 -1.54 1.34 3.82 3.82 0 0 1 2 1.33 3.53 3.53 0 0 1 .71 2.22 4.28 4.28 0 0 1 -.43 1.91 3.7 3.7 0 0 1 -1.08 1.37 4.37 4.37 0 0 1 -1.6.72 10 10 0 0 1 -2.37.25zm2-8.5h3.17a7.21 7.21 0 0 0 1.85-.17 1.92 1.92 0 0 0 1.49-2 2.36 2.36 0 0 0 -.35-1.28 1.74 1.74 0 0 0 -1-.76 8.16 8.16 0 0 0 -2.23-.21h-2.93zm0 6.77h3.65a9.26 9.26 0 0 0 1.32-.07 3.27 3.27 0 0 0 1.12-.4 2.11 2.11 0 0 0 .74-.82 2.69 2.69 0 0 0 -.13-2.66 2.28 2.28 0 0 0 -1.16-.85 7.43 7.43 0 0 0 -2.15-.24h-3.39z" fill="#0f9790"/><path d="m165.21 158.34 5.63-14.66h2.1l6 14.66h-2.21l-1.73-4.44h-6.14l-1.61 4.44zm4.23-6h5l-1.53-4.06c-.47-1.23-.82-2.24-1-3a18.08 18.08 0 0 1 -.8 2.8z" fill="#0f9790"/><path d="m181.5 158.34v-14.66h2l7.71 11.51v-11.51h1.86v14.66h-2l-7.71-11.52v11.52z" fill="#0f9790"/><path d="m197.24 158.34v-14.66h1.94v7.32l7.29-7.27h2.63l-6.1 5.89 6.42 8.72h-2.56l-5.22-7.42-2.41 2.34v5.08z" fill="#0f9790"/><path d="m70.06 191.55h-1v-1.14h1zm0-2.14h-1v-2h1zm0-3h-1v-2h1zm0-3h-1v-2h1zm0-3h-1v-2h1zm0-3h-1v-2h1zm0-3h-1v-2h1zm0-3h-1v-2h1zm0-3h-1v-2h1zm0-3h-1v-2h1zm0-3h-1v-2h1zm0-3h-1v-2h1zm0-3h-1v-2h1zm0-3h-1v-2h1zm0-3h-1v-2h1zm0-3h-1v-2h1zm0-3h-1v-2h1zm0-3h-1v-2h1zm0-3h-1v-2h1zm0-3h-1v-2h1zm0-3h-1v-2h1zm0-3h-1v-2h1zm0-3h-1v-2h1zm0-3h-1v-2h1zm0-3h-1v-2h1z" fill="#11918a"/><path d="m215.15 191.55h-1v-1.14h1zm0-2.14h-1v-2h1zm0-3h-1v-2h1zm0-3h-1v-2h1zm0-3h-1v-2h1zm0-3h-1v-2h1zm0-3h-1v-2h1zm0-3h-1v-2h1zm0-3h-1v-2h1zm0-3h-1v-2h1zm0-3h-1v-2h1zm0-3h-1v-2h1zm0-3h-1v-2h1zm0-3h-1v-2h1zm0-3h-1v-2h1zm0-3h-1v-2h1zm0-3h-1v-2h1zm0-3h-1v-2h1zm0-3h-1v-2h1zm0-3h-1v-2h1zm0-3h-1v-2h1zm0-3h-1v-2h1zm0-3h-1v-2h1zm0-3h-1v-2h1zm0-3h-1v-2h1z" fill="#11918a"/><path d="m120.46 172.9c.14 0 .22 0 .22.1s-.08.2-.23.28v2.29h1.07v-2.57l.76.06c.14 0 .21.05.21.11s-.06.11-.16.19v2.21h.67v.84h-2.56v.28.8h2v4.22h-.85v-3.41h-1.19c0 .37-.05.7-.08 1a8.44 8.44 0 0 1 -.32 1.7 7.83 7.83 0 0 1 -.42 1.13l-.72-.64a5.9 5.9 0 0 0 .35-.92 8 8 0 0 0 .29-1.34 22.5 22.5 0 0 0 .12-2.52v-3.16c0-.19 0-.42 0-.69zm7.65.23v.87h-3.77v1.56h2.76a.73.73 0 0 1 .33-.16 5.49 5.49 0 0 1 .68.59.19.19 0 0 1 .08.14.11.11 0 0 1 -.08.11 3.28 3.28 0 0 0 -.39 1.08 10.86 10.86 0 0 1 -1.12 2.68 7.8 7.8 0 0 0 1.67 1.34l-.73.76a8.73 8.73 0 0 1 -1.5-1.33 6.9 6.9 0 0 1 -1.51 1.33l-.63-.73a5.51 5.51 0 0 0 1.34-1c.09-.11.19-.21.27-.33a.83.83 0 0 1 -.08-.12 6.6 6.6 0 0 1 -.81-2.72l.8-.08a5.49 5.49 0 0 0 .61 2.1l.13-.27a14 14 0 0 0 .86-2.59h-2.68a21.74 21.74 0 0 1 -.22 3 13.8 13.8 0 0 1 -.63 2.72l-.84-.44a11.11 11.11 0 0 0 .63-2.41 22.88 22.88 0 0 0 .21-3.08v-3z" fill="#231815"/><path d="m130.91 174.77v-2.17l.78.06c.15 0 .22 0 .22.1a.41.41 0 0 1 -.15.24v1.77h.72v.8h-.72a6.54 6.54 0 0 0 1.07 2.08l-.6.64a7.37 7.37 0 0 1 -.47-1.06v4.91h-.85v-4.46a14.36 14.36 0 0 1 -.64 1.82l-.8-.53a11.79 11.79 0 0 0 .86-1.66 17.32 17.32 0 0 0 .58-1.74h-1v-.8zm4.62.12v1.8h-1.39l.38.12c.08 0 .12.07.12.13s-.07.11-.2.19a3.17 3.17 0 0 1 -.16.36h1.66l.43-.68.69.15c.12 0 .19.07.19.13s-.07.17-.21.25l-.12.15h2v.73h-2.2v.56h1.93v.68h-1.93v.54h1.93v.68h-1.93v.52h2.37v.72h-4.78v.28h-.84v-3.2a6.84 6.84 0 0 1 -.44.56l-.77-.53a5.88 5.88 0 0 0 1.53-2.29h-.68v-1.8zm-.44-2.06c.15 0 .23.06.23.13a.4.4 0 0 1 -.15.21v1.52h-.89v-.52h-1.49v-.81h1.49v-.6zm-.29 2.66h-1v.61h1zm1 2.73h-1.56v.56h1.56zm0 1.24h-1.56v.54h1.56zm0 1.21h-1.56v.52h1.56zm2.69-5.78v1.8h-2.45v-1.8zm-1.27-2.06c.14 0 .23.06.23.13s-.05.12-.16.21v.19h1.52v.81h-1.52v.52h-.88v-1.93zm.54 2.66h-1v.61h1z" fill="#231815"/><path d="m144.39 173.68a23.71 23.71 0 0 1 -2.37.53v1h3v3.17h-3v.57a12.46 12.46 0 0 1 -.34 2 9.43 9.43 0 0 1 -.48 1.29l-.8-.53a7.7 7.7 0 0 0 .33-.8 8.16 8.16 0 0 0 .33-1.36 28.26 28.26 0 0 0 .14-3.08v-3.33l.71.26c.39-.06.76-.13 1.1-.21a7.51 7.51 0 0 0 1.43-.49l.63.67a.3.3 0 0 1 .1.21s0 .07-.08.07l-.26-.06a1.78 1.78 0 0 0 -.44.09zm-.24 3.94v-1.62h-2.15v.53 1.12zm4.74-4a25 25 0 0 1 -2.5.53v1.64h3.45v.84h-1.08v5.42h-.93v-5.42h-1.44c0 .83 0 1.51-.1 2a7.89 7.89 0 0 1 -.61 2.19 8.25 8.25 0 0 1 -.86 1.39l-.8-.53a7.41 7.41 0 0 0 .64-.86 5.45 5.45 0 0 0 .59-1.5 16.12 16.12 0 0 0 .26-3.33v-2.88l.62.23c.44-.07.86-.14 1.26-.22a8.84 8.84 0 0 0 1.53-.49l.62.66a.34.34 0 0 1 .1.22c0 .05 0 .07-.08.07l-.26-.06a2.1 2.1 0 0 0 -.41.12z" fill="#231815"/><path d="m154.58 174.17c.21-.44.4-.9.59-1.41l.72.29c.13 0 .2.11.2.19s-.07.1-.19.12c-.13.29-.24.56-.35.81h4.88v.8h-5.27a11.79 11.79 0 0 1 -.65 1.08h4.63v5.06a.81.81 0 0 1 -.68.84 3.7 3.7 0 0 1 -1 .16l-.36-.88h.84a.34.34 0 0 0 .36-.38v-.56h-3.89v1.71h-.89v-4.77a8.29 8.29 0 0 1 -1.72 1.24l-.6-.88a5.79 5.79 0 0 0 2.28-1.71 5.92 5.92 0 0 0 .71-.94h-2.79v-.8zm3.68 3.65v-1h-3.89v1zm0 1.69v-.93h-3.89v.93z" fill="#231815"/><path d="m22.13 175.41v-.76l.81.07c.14 0 .22.05.22.13a.36.36 0 0 1 -.15.2v.36h1.88v.7a8.27 8.27 0 0 0 1.13-.9l.68.26c.13 0 .2.1.2.18s-.07.1-.2.12a16.8 16.8 0 0 1 -1.4 1h1.88v.81h-3.24l-.6.28a10.68 10.68 0 0 1 -1 .4h3.6v3.77h-.94v-.44h-4v.44h-1v-3.03c-.51.13-1.06.25-1.61.35l-.56-.84a20.63 20.63 0 0 0 3.79-.84h-3.43v-.81h3.94v-.63h-2.57v-.77zm-1.45-1.88v-.8l.84.06c.17 0 .25.06.25.13s-.06.14-.17.25v.36h2v-.8l.84.06c.16 0 .25.06.25.13s-.07.14-.17.25v.36h2.69v.72h-2.64v.68h-.92v-.68h-2v.68h-.92v-.68h-2.62v-.72zm4.32 6.13v-.66h-4v.64zm0 1.24v-.55h-4v.55zm-.18-4.72h-1.82v.63h.68a8.48 8.48 0 0 0 1.11-.63z" fill="#231815"/><path d="m31.89 173.15c.09 0 .14.08.14.13s-.08.19-.25.25c-.21.52-.41 1-.59 1.4v7.14h-.93v-5.4c-.27.45-.58.94-.92 1.43l-.68-.68a14.66 14.66 0 0 0 1.34-2.17 18.87 18.87 0 0 0 1.05-2.49zm2.29 0c.09 0 .14.08.14.13s-.08.19-.25.25c-.14.35-.26.67-.39 1h4.37v.89h-3.29v1.53h2.76v.84h-2.76v1.52h2.76v.84h-2.76v2h-.92v-6.7h-.57c-.06.12-.12.23-.17.34-.28.52-.62 1.1-1 1.71l-.69-.69a11.92 11.92 0 0 0 1.12-1.84 18.29 18.29 0 0 0 .86-2.13z" fill="#231815"/><path d="m40.82 174.77v-2.17l.78.06c.14 0 .21 0 .21.1a.41.41 0 0 1 -.15.24v1.77h.72v.8h-.72a6.55 6.55 0 0 0 1.08 2.08l-.61.64a7.37 7.37 0 0 1 -.47-1.06v4.91h-.84v-4.46a16.1 16.1 0 0 1 -.65 1.82l-.8-.53a10.82 10.82 0 0 0 .86-1.66c.16-.39.36-1 .59-1.74h-1v-.8zm4.61.12v1.8h-1.43l.38.12c.08 0 .12.07.12.13s-.07.11-.2.19a2 2 0 0 1 -.16.36h1.66l.43-.68.77.19c.12 0 .19.07.19.13s-.07.17-.2.25l-.13.15h2v.73h-2.2v.56h1.93v.68h-2v.5h1.93v.68h-1.93v.52h2.41v.72h-4.82v.28h-.84v-3.2a6.84 6.84 0 0 1 -.44.56l-.77-.53a5.88 5.88 0 0 0 1.53-2.29h-.66v-1.8zm-.43-2.06c.15 0 .23.06.23.13a.4.4 0 0 1 -.15.21v1.52h-.89v-.52h-1.5v-.81h1.49v-.6zm-.29 2.66h-1v.61h1zm1 2.73h-1.53v.56h1.56zm0 1.24h-1.53v.54h1.56zm0 1.21h-1.53v.52h1.56zm2.69-5.78v1.8h-2.4v-1.8zm-1.27-2.06c.15 0 .23.06.23.13s0 .12-.16.21v.19h1.52v.81h-1.49v.52h-.88v-1.93zm.55 2.66h-1v.61h1z" fill="#231815"/><g fill="#383736"><path d="m5 245.56a.11.11 0 0 1 -.09.12c-.06 0-.08.07-.08.17v1.67h2c.06 0 .09 0 .09.13v.27c0 .08 0 .13-.09.13h-2v1.79h3.17c.07 0 .1 0 .1.14v.26c0 .08 0 .14-.1.14h-7.3c-.07 0-.1-.06-.1-.14v-.24c0-.09 0-.14.1-.14h1.19v-2.92c0-.06 0-.1.14-.1.41 0 .62 0 .62.1s0 .12-.07.12-.09.07-.09.17v2.63h1.66v-4.28c0-.07 0-.11.14-.11.44-.02.71.02.71.09zm0-2.27s.09.07.09.11-.06.13-.17.13a.48.48 0 0 0 -.18 0 7.54 7.54 0 0 0 .69 1 5.56 5.56 0 0 0 .94.85 5.25 5.25 0 0 0 1.56.83c.07 0 .11 0 .11.07a.14.14 0 0 1 0 .11c-.13.11-.25.21-.35.31s-.07.08-.09.08a4.64 4.64 0 0 1 -1.16-.61 4.69 4.69 0 0 1 -1.19-1 9.08 9.08 0 0 1 -.9-1.15 8.35 8.35 0 0 1 -.62.73 6.42 6.42 0 0 1 -.79.76 11.16 11.16 0 0 1 -.93.72 5.42 5.42 0 0 1 -.76.45.15.15 0 0 1 -.14-.09 2.53 2.53 0 0 0 -.28-.35c-.07 0-.1-.07-.1-.1s0 0 0 0a8.23 8.23 0 0 0 1.08-.55 7.54 7.54 0 0 0 1.2-.95 4.32 4.32 0 0 0 .66-.72 7.2 7.2 0 0 0 .52-.82c.05-.07.1-.11.14-.11z"/><path d="m12.45 243.13c0 .08 0 .12-.08.13s-.08.07-.08.17v1.1h1.12v-1.43c0-.07.05-.1.14-.1.42 0 .63 0 .63.1s0 .12-.09.13-.08.06-.08.17v1.13h.71c.12-.19.23-.37.32-.54a6.67 6.67 0 0 0 .25-.7.1.1 0 0 1 .08 0l.53.27a.13.13 0 0 1 .07.09.07.07 0 0 1 -.08.07c-.09 0-.13 0-.15.08a6.82 6.82 0 0 1 -.38.78h1.14s.07 0 .07.1v.26c0 .1 0 .14-.07.14h-1.84c-.1.31-.2.61-.31.89h1.49c.07 0 .1.05.1.14v.26c0 .09 0 .14-.1.14h-2.65v.66h2.25s.07 0 .07.09v.28c0 .08 0 .12-.07.12h-2.25v.67h3c.07 0 .1.05.1.13v.26c0 .1 0 .14-.1.14h-2.67a5.16 5.16 0 0 0 .75.44 8.17 8.17 0 0 0 1.22.48 7.52 7.52 0 0 0 1.18.28s0 .07-.09.09a3.53 3.53 0 0 0 -.33.37s-.06.07-.08.07a10.35 10.35 0 0 1 -1.45-.5 6.16 6.16 0 0 1 -1.1-.62 3.43 3.43 0 0 1 -.43-.32v1.54c0 .07-.06.1-.17.1h-.34c-.09 0-.13 0-.13-.1v-1.46l-.21.14a6.81 6.81 0 0 1 -.89.54c-.34.16-.72.31-1.14.46a5.83 5.83 0 0 1 -.88.25s-.08 0-.11-.11l-.32-.36c0-.06-.08-.09-.08-.11.56-.12 1-.23 1.45-.35a7 7 0 0 0 1.19-.49 4.52 4.52 0 0 0 .58-.39h-2.64c-.07 0-.1 0-.1-.14v-.26c0-.08 0-.13.1-.13h3.05v-.67h-2.36s-.06 0-.06-.12v-.28c0-.06 0-.09.06-.09h2.36v-.66h-2.69c-.07 0-.1-.05-.1-.14v-.26c0-.09 0-.14.1-.14h1.57c-.16-.34-.3-.64-.44-.89h-1.82c-.06 0-.07 0-.07-.14v-.26c0-.07 0-.1.07-.1h1.41a2.4 2.4 0 0 1 -.11-.23 4.88 4.88 0 0 0 -.51-.77s.14-.12.43-.26a7.18 7.18 0 0 1 .51.75c.09.17.18.34.25.51h.54v-1.4c0-.06 0-.1.13-.1.42-.03.63.04.63.1zm1.29 2.79c.08-.18.15-.33.2-.47a3.92 3.92 0 0 0 .15-.42h-2.5c.17.29.33.59.48.89z"/><path d="m21.29 243.39c.28.18.51.34.69.47a.15.15 0 0 1 -.05.08l-.23.32h3c.07 0 .1 0 .1.11v.33c0 .08 0 .13-.1.13h-3v2.17h2.6a.1.1 0 0 1 .11.11v.33c0 .09 0 .13-.11.13h-2.61v2.22h3.31a.1.1 0 0 1 .11.1v.34c0 .08 0 .13-.11.13h-7.33c-.07 0-.11-.05-.11-.13v-.34a.1.1 0 0 1 .11-.1h3.38v-2.22h-2.72c-.07 0-.1 0-.1-.13v-.33c0-.07 0-.11.1-.11h2.72v-2.15h-3.05c-.07 0-.1-.05-.1-.13v-.33c0-.07 0-.11.1-.11h3.53c-.27-.2-.54-.4-.82-.57a5.71 5.71 0 0 0 -.65-.33 1.71 1.71 0 0 1 .26-.37s0-.05.07-.05a6.81 6.81 0 0 1 .9.43z"/><path d="m29 243.18c.07.06.1.09.1.12a.12.12 0 0 1 -.1.13c-.12 0-.19 0-.22.1s-.07.12-.08.16h2.66a.22.22 0 0 1 .16.05c.11.1.17.18.17.23l-1.28 1.29h2.21c.09 0 .13 0 .13.1v3c0 .07 0 .1-.13.1h-.33c-.09 0-.14 0-.14-.1v-.26h-4.59v1.36c0 .27.16.4.5.4h4.45a.43.43 0 0 0 .48-.33 4.16 4.16 0 0 0 .18-.77 1.25 1.25 0 0 0 .47.26.13.13 0 0 1 .1.14 3.11 3.11 0 0 1 -.29.89c-.09.24-.34.37-.75.37h-5c-.51 0-.77-.19-.77-.56v-4.2l-.43.28a.5.5 0 0 1 -.19 0l-.35-.15s0 0 0-.05 0 0 0-.07a5.78 5.78 0 0 0 1.25-1 4.65 4.65 0 0 0 .56-.7 5.09 5.09 0 0 0 .52-1 .11.11 0 0 1 .11-.07zm.63 2.08 1.05-1h-2.29a3.18 3.18 0 0 1 -.3.4q-.27.33-.57.63zm-2.09 2.35h2.06v-1.82h-2.04zm2.65 0h2v-1.82h-2z"/><path d="m37.84 245.09v-1h1v1zm0 3.41v-1h1v1z"/><path d="m46.51 246.93a2.14 2.14 0 0 1 -1.38.41h-1.42v2.51h-.6v-5.58h2a2.26 2.26 0 0 1 1.4.41 1.37 1.37 0 0 1 .52 1.13 1.32 1.32 0 0 1 -.52 1.12zm-1.38-2.1h-1.42v1.94h1.42a1.61 1.61 0 0 0 1-.28.85.85 0 0 0 .31-.68c.02-.64-.44-.98-1.31-.98z"/><path d="m52.18 249.83-.65-1.59h-2.74l-.65 1.59h-.62l2.32-5.57h.64l2.32 5.57zm-2-4.88-1.18 2.74h2.3z"/><path d="m57.22 249.84-3.22-4.75v4.75h-.6v-5.58h.72l3.21 4.74v-4.75h.6v5.58z"/><path d="m61.1 244.83v5h-.58v-5h-1.91v-.56h4.39v.56z"/><path d="m67.71 249.07a2.3 2.3 0 0 1 -3.57 0 3.6 3.6 0 0 1 0-4 2.33 2.33 0 0 1 3.57 0 3.6 3.6 0 0 1 0 4zm-.47-3.69a1.69 1.69 0 0 0 -2.63 0 2.55 2.55 0 0 0 -.5 1.66 2.64 2.64 0 0 0 .5 1.69 1.69 1.69 0 0 0 2.63 0 2.64 2.64 0 0 0 .51-1.69 2.55 2.55 0 0 0 -.51-1.66z"/><path d="m73 249.84-3.18-4.75v4.75h-.6v-5.58h.72l3.14 4.74v-4.75h.59v5.58z"/><path d="m74.69 249.84v-5.58h3.51v.57h-2.91v1.89h2.58v.55h-2.58v2h2.91v.56z"/><path d="m84.93 249.47a1.83 1.83 0 0 1 -1.25.45 1.54 1.54 0 0 1 -1.69-1.3l.56-.19a1 1 0 0 0 1.13.93 1.19 1.19 0 0 0 .84-.29 1 1 0 0 0 .32-.72 1.09 1.09 0 0 0 -.31-.78 1.07 1.07 0 0 0 -.77-.31h-.65v-.56h.57a.93.93 0 0 0 .66-.34 1 1 0 0 0 .32-.7c0-.61-.31-.91-.94-.91a.93.93 0 0 0 -1 .89l-.55-.18a1.64 1.64 0 0 1 .47-.88 1.47 1.47 0 0 1 1.06-.38 1.54 1.54 0 0 1 1.12.4 1.42 1.42 0 0 1 .41 1.06 1.32 1.32 0 0 1 -.78 1.24 1.42 1.42 0 0 1 .71.55 1.61 1.61 0 0 1 .26.9 1.41 1.41 0 0 1 -.49 1.12z"/><path d="m89.7 246.68a7.28 7.28 0 0 1 -.91 1 4.29 4.29 0 0 0 -1.27 1.66h2.56v.55h-3.39a4.32 4.32 0 0 1 .63-1.42 7.39 7.39 0 0 1 1.08-1.19 5.23 5.23 0 0 0 .84-.89 1.3 1.3 0 0 0 .27-.74.78.78 0 0 0 -.28-.6 1.3 1.3 0 0 0 -.86-.26c-.7 0-1.07.45-1.13 1.34l-.56-.22a2 2 0 0 1 .52-1.22 1.54 1.54 0 0 1 1.17-.45 2 2 0 0 1 1.26.36 1.33 1.33 0 0 1 .46 1.05 1.83 1.83 0 0 1 -.39 1.03z"/><path d="m93.41 247.15a9.76 9.76 0 0 0 -.27 2.7h-.6a9.56 9.56 0 0 1 .28-2.63 6.2 6.2 0 0 1 1.42-2.39h-3.09v-.57h3.85v.56a5.77 5.77 0 0 0 -1.59 2.33z"/><path d="m99.05 246.68a7.28 7.28 0 0 1 -.91 1 4.29 4.29 0 0 0 -1.27 1.66h2.56v.55h-3.43a4.12 4.12 0 0 1 .63-1.42 7.39 7.39 0 0 1 1.08-1.19 5.23 5.23 0 0 0 .84-.89 1.3 1.3 0 0 0 .27-.74.78.78 0 0 0 -.28-.6 1.3 1.3 0 0 0 -.86-.26c-.7 0-1.07.45-1.13 1.34l-.56-.22a2 2 0 0 1 .52-1.22 1.54 1.54 0 0 1 1.17-.45 2 2 0 0 1 1.26.36 1.33 1.33 0 0 1 .46 1.05 1.83 1.83 0 0 1 -.35 1.03z"/><path d="m104.23 245.71a1.42 1.42 0 0 0 -1.43-1 1.56 1.56 0 0 0 -1.23.64 2.71 2.71 0 0 0 -.57 1.77 2.42 2.42 0 0 0 .53 1.66 1.42 1.42 0 0 0 1.14.54 1.45 1.45 0 0 0 .94-.29 2 2 0 0 0 .55-.81l.54.21a2.08 2.08 0 0 1 -2 1.45 2 2 0 0 1 -1.59-.74 2.93 2.93 0 0 1 -.67-2 3.2 3.2 0 0 1 .7-2.11 2.12 2.12 0 0 1 1.69-.85 2 2 0 0 1 2 1.3z"/><path d="m117.24 243.62a3.21 3.21 0 0 1 -1 .44 4.64 4.64 0 0 1 -1.28.17v1.77h2.33c.07 0 .1 0 .1.13v.27c0 .08 0 .13-.1.13h-2.29v2.47l.48-.11c.64-.15 1.25-.31 1.82-.5h.06a.06.06 0 0 1 .07.07 2.32 2.32 0 0 1 0 .47c-1 .29-2 .55-3.06.79-.09.16-.15.24-.2.24s-.16-.23-.33-.7l.6-.11v-5.5c0-.07 0-.1.1-.1l.3.12a6.35 6.35 0 0 0 1.17-.13 2.78 2.78 0 0 0 1.05-.47s.06-.06.1-.06a.25.25 0 0 1 .11.05c.28.24.42.38.42.45s0 .16-.1.16l-.2-.09zm1.5 6.95c0 .07 0 .1-.14.1h-.33c-.09 0-.14 0-.14-.1v-7a.13.13 0 0 1 .14-.14h2.86c.11 0 .17.06.17.14v5.27c0 .22-.17.4-.49.52a6.05 6.05 0 0 1 -1.18.19c-.06 0-.09 0-.1-.11a2.13 2.13 0 0 0 -.2-.52s0 0 .1 0a4.11 4.11 0 0 0 1.07-.07.28.28 0 0 0 .19-.26v-4.59h-2z"/><path d="m123.55 245.79a18.5 18.5 0 0 1 -.12 2.39 8.39 8.39 0 0 1 -.32 1.47 4.52 4.52 0 0 1 -.36.85h-.09a1.33 1.33 0 0 0 -.3-.23.17.17 0 0 1 0-.12 5.83 5.83 0 0 0 .33-1 12.21 12.21 0 0 0 .23-1.43c0-.52.06-1.15.06-1.9v-2.42c0-.09 0-.13.14-.13h4c.09 0 .14 0 .14.09v1.86a.12.12 0 0 1 -.14.14h-1.22v1.1h1.29c.11 0 .17 0 .17.12v3.14c0 .14-.09.23-.26.31a2.8 2.8 0 0 1 -.61.11.1.1 0 0 1 -.11-.1 1.62 1.62 0 0 0 -.19-.53s0 0 0 0a1.15 1.15 0 0 0 .43 0 .15.15 0 0 0 .09-.13v-2.38h-.86v3.62c0 .07 0 .11-.14.11h-.33c-.09 0-.14 0-.14-.11v-3.62h-.85v3c0 .06 0 .09-.14.09h-.25c-.1 0-.14 0-.14-.09v-3.43c0-.08 0-.12.14-.12h1.32v-1.1h-1.72zm0-1h3.08v-1h-3.08zm5.18-.67c0 .08 0 .12-.08.13s-.09.07-.09.17v4.42c0 .07-.05.1-.13.1h-.33c-.09 0-.13 0-.13-.1v-4.72c0-.07 0-.1.13-.1.42.04.63.07.63.14zm1.4-1c.06 0 .09.06.09.08s0 .08-.09.08-.17.17-.17.39v6.33c0 .39-.3.59-.9.59h-.53c-.05 0-.07 0-.07-.14a1.46 1.46 0 0 0 -.16-.39s0-.06.07-.06a5.11 5.11 0 0 0 .63.06c.23 0 .36-.1.36-.3v-6.14a1.77 1.77 0 0 0 0-.37.41.41 0 0 1 0-.16s.06-.07.17-.07z"/><path d="m132.74 247.28c.13.3.21.45.21.47a.21.21 0 0 1 0 .12c-.28.6-.55 1.11-.79 1.54-.14.23-.31.5-.5.79a.5.5 0 0 0 -.05.27c0 .07 0 .1-.07.1a2.48 2.48 0 0 1 -.51-.51.1.1 0 0 1 -.06-.08.12.12 0 0 1 0-.11 4.94 4.94 0 0 0 .49-.57 10.62 10.62 0 0 0 .67-1.08c.2-.34.37-.65.51-.94 0 0 0-.07.05-.07s.03.03.05.07zm-.71-1.53.59.4s0 0-.05.08l-.28.39a7.4 7.4 0 0 0 -.79-.55 3.17 3.17 0 0 0 -.55-.28 1.72 1.72 0 0 1 .27-.37l.06-.06a6.27 6.27 0 0 1 .72.39zm.3-2.23.55.38s0 0 0 .07l-.26.36a5.31 5.31 0 0 0 -.75-.48 3.46 3.46 0 0 0 -.55-.25 1.72 1.72 0 0 1 .27-.37.1.1 0 0 1 .07-.06 6.74 6.74 0 0 1 .67.35zm5.13 1.37s.07 0 .07.11v.26c0 .09 0 .13-.07.13h-1.23v.7h1.86c.09 0 .14 0 .14.09v3c0 .06 0 .1-.14.1h-1a4.41 4.41 0 0 0 .7.5 5.2 5.2 0 0 0 .81.35s.07.05.07.08a2.1 2.1 0 0 1 -.36.43h-.09a6.86 6.86 0 0 1 -1.49-.92s-.05 0-.05-.06.11-.17.33-.36h-2.01l.37.28c0 .05.07.08.07.12s0 0-.08 0a.58.58 0 0 0 -.17.05 5 5 0 0 1 -.6.46 6.8 6.8 0 0 1 -1 .5c-.07 0-.12 0-.13-.07l-.3-.24c-.05 0-.07 0-.07-.06s0 0 0 0a2.42 2.42 0 0 0 .46-.16 3.71 3.71 0 0 0 .69-.42 5.83 5.83 0 0 0 .52-.44h-1c-.08 0-.12 0-.12-.1v-3q0-.09.12-.09h1.87v-.7h-1.36c-.06 0-.07 0-.07-.13v-.3c0-.07 0-.11.07-.11zm-1.06-1.89c0 .09 0 .13-.08.13s-.09.08-.09.18v.46h2.16c.08 0 .14 0 .14.1v1.33c0 .06-.06.1-.14.1h-.33c-.09 0-.13 0-.13-.1v-.93h-4.12v1c0 .07 0 .1-.13.1h-.33c-.09 0-.14 0-.14-.1v-1.36c0-.07 0-.1.14-.1h2.29v-.81c0-.06 0-.09.13-.09q.63-.04.63.09zm-.76 4.46v-.84h-1.4v.84zm0 .5h-1.4v.86h1.4zm.59-.5h1.39v-.84h-1.39zm1.39.5h-1.39v.86h1.39z"/><path d="m142.44 243.18c.07.06.11.09.11.12a.13.13 0 0 1 -.11.13c-.11 0-.19 0-.22.1l-.08.16h2.66a.22.22 0 0 1 .16.05c.11.1.17.18.17.23l-1.27 1.29h2.2c.09 0 .13 0 .13.1v3c0 .07 0 .1-.13.1h-.33c-.09 0-.13 0-.13-.1v-.26h-4.6v1.36c0 .27.16.4.5.4h4.45a.43.43 0 0 0 .48-.33 4.16 4.16 0 0 0 .18-.77 1.25 1.25 0 0 0 .47.26.12.12 0 0 1 .1.14 2.82 2.82 0 0 1 -.29.89c-.09.24-.34.37-.75.37h-5c-.51 0-.76-.19-.76-.56v-4.2l-.38.34a.54.54 0 0 1 -.19 0l-.35-.15s0 0 0-.05 0 0 0-.07a5.55 5.55 0 0 0 1.25-1 4.65 4.65 0 0 0 .56-.7 5.09 5.09 0 0 0 .52-1 .12.12 0 0 1 .11-.07zm.63 2.08 1.06-1h-2.31l-.3.4c-.19.22-.38.43-.58.63zm-2.07 2.35h2v-1.82h-2zm2.65 0h2v-1.82h-2z"/><path d="m154.51 245.71a1.41 1.41 0 0 0 -1.42-1 1.56 1.56 0 0 0 -1.24.64 2.71 2.71 0 0 0 -.57 1.77 2.42 2.42 0 0 0 .53 1.66 1.44 1.44 0 0 0 1.15.54 1.42 1.42 0 0 0 .93-.29 2 2 0 0 0 .56-.81l.54.21a2.09 2.09 0 0 1 -2 1.45 2 2 0 0 1 -1.6-.74 3 3 0 0 1 -.66-2 3.25 3.25 0 0 1 .69-2.11 2.12 2.12 0 0 1 1.7-.85 2 2 0 0 1 2 1.3z"/><path d="m157.38 249.85v-4.46h-1.19v-.34h.06a1.61 1.61 0 0 0 .73-.18 1.07 1.07 0 0 0 .55-.6h.47v5.58z"/><path d="m162.33 249.92c-1.21 0-1.81-1-1.81-2.88a4.27 4.27 0 0 1 .39-2.08 1.71 1.71 0 0 1 2.84 0 4.26 4.26 0 0 1 .4 2.08c0 1.96-.61 2.88-1.82 2.88zm.91-4.68a1.1 1.1 0 0 0 -1.82 0 3.67 3.67 0 0 0 -.32 1.8 3.72 3.72 0 0 0 .32 1.81 1 1 0 0 0 .91.51 1 1 0 0 0 .91-.51 3.7 3.7 0 0 0 .33-1.81 3.66 3.66 0 0 0 -.33-1.8z"/><path d="m167 249.92c-1.22 0-1.82-1-1.82-2.88a4.26 4.26 0 0 1 .4-2.08 1.71 1.71 0 0 1 2.84 0 4.38 4.38 0 0 1 .4 2.08c.01 1.96-.6 2.88-1.82 2.88zm.91-4.68a1 1 0 0 0 -.91-.48 1 1 0 0 0 -.91.48 3.67 3.67 0 0 0 -.32 1.8 3.72 3.72 0 0 0 .32 1.81 1 1 0 0 0 .91.51 1 1 0 0 0 .91-.51 3.84 3.84 0 0 0 .32-1.81 3.79 3.79 0 0 0 -.31-1.8z"/><path d="m175.11 247.23v2.61h-.6v-2.61l-2.21-3h.7l1.8 2.48 1.8-2.48h.71z"/><path d="m181 249.4a1.68 1.68 0 0 1 -1.25.52 1.62 1.62 0 0 1 -1.63-1.17l.55-.24a1.11 1.11 0 0 0 1.08.85 1.08 1.08 0 0 0 .82-.36 1.56 1.56 0 0 0 .38-1.11c0-.9-.34-1.36-1-1.36a1.08 1.08 0 0 0 -1 .69h-.54v-2.95h2.94v.56h-2.35v1.54a1.23 1.23 0 0 1 1-.39 1.47 1.47 0 0 1 1.17.52 2.08 2.08 0 0 1 .43 1.39 2.14 2.14 0 0 1 -.6 1.51z"/><path d="m184.46 249.92c-1.22 0-1.82-1-1.82-2.88a4.26 4.26 0 0 1 .36-2.04 1.71 1.71 0 0 1 2.84 0 4.38 4.38 0 0 1 .4 2.08c.04 1.92-.57 2.84-1.78 2.84zm.91-4.68a1 1 0 0 0 -.91-.48 1 1 0 0 0 -.91.48 3.67 3.67 0 0 0 -.32 1.8 3.72 3.72 0 0 0 .32 1.81 1 1 0 0 0 .91.51 1 1 0 0 0 .91-.51 3.84 3.84 0 0 0 .32-1.81 3.79 3.79 0 0 0 -.32-1.8z"/></g><path d="m0 254.7h190.68v79.47h-190.68z" fill="#009e96"/><path d="m6 224.55v-2c0-.08 0-.12.16-.12.49 0 .74 0 .74.12s0 .14-.1.15-.1.08-.1.2v1.6h.9c.08 0 .12.06.12.16v.34c0 .11 0 .16-.12.16h-.73a9.76 9.76 0 0 0 .36 1.06 5 5 0 0 0 .71 1.25.16.16 0 0 1 0 .11s0 .05-.06.08a2.3 2.3 0 0 1 -.27.28.11.11 0 0 1 -.2 0 5.78 5.78 0 0 1 -.61-1.19 2.83 2.83 0 0 1 -.11-.31v5q0 .12-.15.12h-.34c-.11 0-.16 0-.16-.12v-4c-.1.3-.19.58-.29.83a7.7 7.7 0 0 1 -.57 1.23.18.18 0 0 1 -.16-.06 4.11 4.11 0 0 1 -.42-.21c-.06 0-.08 0-.08-.05a9.22 9.22 0 0 0 .7-1.41 8.2 8.2 0 0 0 .42-1.27c.08-.28.17-.71.28-1.3h-1c-.08 0-.12-.05-.12-.16v-.31c0-.1 0-.16.12-.16zm3.52 5.15a.24.24 0 0 1 .07.13s0 0-.06 0a.27.27 0 0 0 -.16.06 4.21 4.21 0 0 1 -.54.57 6.08 6.08 0 0 1 -.88.62.16.16 0 0 1 -.15-.08l-.32-.29s-.07 0-.07-.06a.09.09 0 0 1 0-.06 1.62 1.62 0 0 0 .42-.19 3.79 3.79 0 0 0 .61-.5c.14-.15.31-.34.49-.57 0 0 0-.05.05-.05zm4-1.43c.05 0 .08 0 .08.11v.31c0 .11 0 .16-.08.16h-2.4v1.92c0 .48-.41.73-1.21.73h-.43c-.05 0-.07-.07-.07-.19a1.82 1.82 0 0 0 -.17-.52 4.77 4.77 0 0 0 .63.06c.36 0 .55-.12.55-.34v-1.64h-2.5c-.06 0-.08 0-.08-.16v-.31c0-.07 0-.11.08-.11zm0-5.4c.05 0 .08 0 .08.12v.31c0 .11 0 .16-.08.16h-1.7v.78h1.41q.15 0 .15.12v1.91q0 .12-.15.12h-5c-.11 0-.16 0-.16-.12v-1.91c0-.08 0-.12.16-.12h1.37v-.78h-1.6s-.07-.05-.07-.16v-.3c0-.08 0-.12.07-.12zm-.66 4.18s.07 0 .07.12v.31c0 .11 0 .16-.07.16h-4.28c-.06 0-.08 0-.08-.16v-.31c0-.08 0-.12.08-.12zm-3.26-2.22h-.82v1h.82zm1.56-1.37h-.9v.78h.9zm0 1.37h-.9v1h.9zm1.52 0h-.86v1h.86zm.37 5.16c.25.26.47.49.65.7v.06c-.2.26-.3.41-.3.41a8.29 8.29 0 0 0 -.87-.9 4.8 4.8 0 0 0 -.62-.47 1.67 1.67 0 0 1 .27-.41s.06-.06.08-.06a8.78 8.78 0 0 1 .79.68z" fill="#363736"/><path d="m16 224.66.65.44s0 0-.05.07a4.27 4.27 0 0 1 -.31.4c-.28-.2-.56-.39-.86-.57a4.48 4.48 0 0 0 -.62-.29 2 2 0 0 1 .27-.4s.06-.07.08-.07q.53.24.84.42zm3.07 4.43v-.63q0-.12.15-.12.75 0 .75.12c0 .09 0 .14-.1.15s-.1.08-.1.2v.28h3.59q.12 0 .12.15v.31c0 .11 0 .16-.12.16h-3.57v1.79c0 .08-.06.11-.16.11h-.39c-.1 0-.15 0-.15-.11v-1.79h-4.09c-.08 0-.12-.05-.12-.16v-.31q0-.15.12-.15zm-1.94-3.21c.14.32.22.49.22.51a.1.1 0 0 1 -.05.08 12.78 12.78 0 0 1 -1 1.16c-.17.18-.38.37-.62.58a.37.37 0 0 0 -.06.21c0 .08 0 .12-.08.12a2.64 2.64 0 0 1 -.54-.54.11.11 0 0 1 -.06-.11.1.1 0 0 1 .05-.08 3.2 3.2 0 0 0 .6-.43 7.67 7.67 0 0 0 .82-.8c.23-.25.43-.49.61-.71h.07s.04-.04.06.01zm-.46-2.9.6.44s0 0-.05.07l-.3.4c-.26-.2-.52-.39-.8-.57a3.84 3.84 0 0 0 -.57-.29 1.85 1.85 0 0 1 .28-.4s.05-.07.07-.07c.33.16.59.3.79.44zm3-.34c0 .06 0 .09-.05.09s-.16.05-.18.11c-.13.27-.25.5-.36.7h1.58l.19-.3a4.88 4.88 0 0 0 .29-.76s0-.07.06-.07a6.36 6.36 0 0 1 .82.39s0 0-.12.07a.25.25 0 0 0 -.18.14c-.08.18-.17.35-.27.53h1.86s.07 0 .07.12v.34c0 .08 0 .12-.07.12h-2v.7h1.76c.05 0 .08 0 .08.12v.31c0 .1 0 .15-.08.15h-1.76v.6h1.76c.05 0 .08 0 .08.12v.31c0 .1 0 .15-.08.15h-1.76v.71h2.19c.05 0 .08 0 .08.11v.32c0 .1 0 .15-.08.15h-4.65v.39q0 .12-.15.12h-.32q-.15 0-.15-.12v-3.65c-.18.19-.4.41-.67.65a.22.22 0 0 1 -.17-.09l-.27-.23a.14.14 0 0 1 -.06-.11c.22-.2.44-.42.67-.65a5 5 0 0 0 .76-1 4.66 4.66 0 0 0 .44-.94s0-.08 0-.08a2.56 2.56 0 0 1 .74.48zm.94 1.45h-1.76v.7h1.76zm0 1.28h-1.76v.63h1.76zm0 2v-.71h-1.76v.71z" fill="#363736"/><path d="m28.23 222.7c.08.06.12.1.12.14a.14.14 0 0 1 -.12.15c-.14 0-.23 0-.26.12s-.08.14-.1.19h3.13a.27.27 0 0 1 .19 0c.13.12.2.21.2.27l-1.5 1.52h2.6q.15 0 .15.12v3.59q0 .12-.15.12h-.39c-.11 0-.16 0-.16-.12v-.31h-5.43v1.6c0 .32.19.47.59.47h5.23a.51.51 0 0 0 .57-.39 4.57 4.57 0 0 0 .21-.9 1.65 1.65 0 0 0 .55.31.15.15 0 0 1 .12.16 3.23 3.23 0 0 1 -.34 1c-.11.29-.4.43-.88.43h-5.85c-.6 0-.9-.22-.9-.65v-4.94l-.51.33a.53.53 0 0 1 -.23 0l-.41-.17s-.06 0-.06-.06 0-.06.06-.08a7 7 0 0 0 1.47-1.13 5.65 5.65 0 0 0 .66-.82 6.39 6.39 0 0 0 .61-1.18.14.14 0 0 1 .13-.08zm.74 2.44 1.24-1.21h-2.72a4.78 4.78 0 0 1 -.35.47 9.62 9.62 0 0 1 -.68.74zm-2.46 2.77h2.42v-2.14h-2.42zm3.12 0h2.31v-2.14h-2.31z" fill="#363736"/><path d="m36.94 227.09v-.78c0-.08.05-.12.16-.12.49 0 .74 0 .74.12s0 .14-.1.15-.1.08-.1.2v.43h1.92c.07 0 .11.06.11.16v.31c0 .11 0 .16-.11.16h-1.77a6.1 6.1 0 0 0 .53.73 3.54 3.54 0 0 0 .74.7 2.51 2.51 0 0 0 .73.4.11.11 0 0 1 -.09.11 3.53 3.53 0 0 0 -.33.37c0 .05-.07.07-.09.07a4.41 4.41 0 0 1 -.92-.69 4.17 4.17 0 0 1 -.69-.83s0 0 0 0v2.88q0 .12-.15.12h-.42c-.11 0-.16 0-.16-.12v-2.57l-.14.22a8.9 8.9 0 0 1 -.8.89 6.35 6.35 0 0 1 -.94.78.22.22 0 0 1 -.17 0l-.38-.34a.26.26 0 0 1 0-.1 4.78 4.78 0 0 0 .73-.53 4.88 4.88 0 0 0 .87-.92c.17-.23.41-.61.72-1.13h-2c-.08 0-.12-.05-.12-.16v-.31c0-.1 0-.16.12-.16zm2.25-4a7 7 0 0 1 -1.09.35 12.16 12.16 0 0 1 -1.38.26 11.92 11.92 0 0 1 -1.38.09c-.12 0-.19 0-.21-.13l-.3-.41a.11.11 0 0 1 .12-.12h.58a8.92 8.92 0 0 0 1.36-.09 4.26 4.26 0 0 0 1-.2 3.34 3.34 0 0 0 1-.42h.08a.26.26 0 0 1 .17 0c.38.33.57.53.57.61a.11.11 0 0 1 -.12.12l-.27-.12zm-3.25 2a6 6 0 0 1 .34.77 2.17 2.17 0 0 1 -.67.2 3.11 3.11 0 0 0 -.23-.63 5.24 5.24 0 0 0 -.51-.86s.18-.16.55-.35c.21.3.38.59.52.85zm1.66-.23q.13.39.24.81a2.9 2.9 0 0 1 -.67.19 5.12 5.12 0 0 0 -.16-.66 6.6 6.6 0 0 0 -.34-.9s.18-.16.54-.35a9.2 9.2 0 0 1 .39.89zm2.34-.72q.09.07.09.12c0 .06 0 .09-.11.09s-.16.06-.18.12a10.47 10.47 0 0 1 -.74 1.53c-.1 0-.15 0-.16 0l-.46-.27a5.34 5.34 0 0 0 .52-.88 8 8 0 0 0 .34-1 .12.12 0 0 1 .11-.08zm3.84 4.22a.11.11 0 0 1 -.12.12.35.35 0 0 0 -.27.19c-.22.26-.53.59-.92 1a7.79 7.79 0 0 1 -1.39 1.15 9.14 9.14 0 0 1 -1.21.7.24.24 0 0 1 -.2-.09l-.29-.33c-.07 0-.1-.05-.1-.08a.08.08 0 0 1 .06-.08 8 8 0 0 0 1.5-.79 7.45 7.45 0 0 0 1.19-1 7.67 7.67 0 0 0 .9-1.16.24.24 0 0 1 .18-.12 3 3 0 0 1 .67.47zm-.41-5.55q.09.08.09.12c0 .08-.07.12-.19.12a.34.34 0 0 0 -.27.11 7 7 0 0 1 -.67.93 5.5 5.5 0 0 1 -.58.64q-.36.33-.69.6a5.52 5.52 0 0 1 -.57.38.17.17 0 0 1 -.15-.1 1.64 1.64 0 0 0 -.29-.35c-.07 0-.1-.07-.1-.1a5.65 5.65 0 0 0 .8-.47 6.31 6.31 0 0 0 .88-.8 3.54 3.54 0 0 0 .48-.61 5.65 5.65 0 0 0 .39-.69c0-.06.07-.09.1-.09zm.29 2.74a.11.11 0 0 1 -.12.12.25.25 0 0 0 -.21.15c-.17.21-.41.48-.71.8a6.29 6.29 0 0 1 -1.07 1 7.76 7.76 0 0 1 -.94.56.2.2 0 0 1 -.2-.1 4 4 0 0 1 -.29-.32q-.09 0-.09-.09a.07.07 0 0 1 0-.06 5.38 5.38 0 0 0 1.16-.65 5.68 5.68 0 0 0 .93-.82 6.39 6.39 0 0 0 .69-.95.19.19 0 0 1 .19-.19c.43.31.66.48.66.53z" fill="#363736"/><path d="m.11 221.34h.84v11.26h-.84z" fill="#363736"/><path d="m274.45 143.3a7.76 7.76 0 0 1 3.71 1 6.89 6.89 0 0 1 2.82 2.79 7.6 7.6 0 0 1 1 3.78 7.68 7.68 0 0 1 -1 3.75 7 7 0 0 1 -2.8 2.79 7.55 7.55 0 0 1 -7.51 0 7 7 0 0 1 -2.8-2.79 7.52 7.52 0 0 1 0-7.53 7 7 0 0 1 2.82-2.79 7.77 7.77 0 0 1 3.76-1zm0 1.24a6.48 6.48 0 0 0 -3.1.82 5.82 5.82 0 0 0 -2.36 2.33 6.26 6.26 0 0 0 0 6.28 5.84 5.84 0 0 0 2.33 2.32 6.27 6.27 0 0 0 6.27 0 5.84 5.84 0 0 0 2.33-2.32 6.32 6.32 0 0 0 0-6.28 5.82 5.82 0 0 0 -2.36-2.33 6.5 6.5 0 0 0 -3.11-.82zm2.42 7.52 1.23.36a3.48 3.48 0 0 1 -1.28 2 4.16 4.16 0 0 1 -5.23-.4 4.37 4.37 0 0 1 -1.1-3.16 5 5 0 0 1 .5-2.29 3.39 3.39 0 0 1 1.43-1.47 4.43 4.43 0 0 1 2.12-.5 3.73 3.73 0 0 1 2.21.64 3.17 3.17 0 0 1 1.25 1.76l-1.19.29a2.42 2.42 0 0 0 -.89-1.13 2.35 2.35 0 0 0 -1.37-.4 2.48 2.48 0 0 0 -1.9.82 4.1 4.1 0 0 0 0 4.67 2.35 2.35 0 0 0 1.83.78 2.48 2.48 0 0 0 2.48-1.93z" fill="#fff"/><path d="m328.39 158v-14.7h10.61v1.7h-8.67v4.49h8.12v1.72h-8.12v5h9v1.79z" fill="#fff"/><path d="m343.33 158v-2h2.05v2z" fill="#fff"/><path d="m349.1 153.25 1.84-.16a3.91 3.91 0 0 0 .6 1.8 3.32 3.32 0 0 0 1.46 1.11 5.57 5.57 0 0 0 2.25.43 5.4 5.4 0 0 0 2-.33 2.75 2.75 0 0 0 1.27-.9 2.12 2.12 0 0 0 .41-1.25 1.9 1.9 0 0 0 -.4-1.21 3 3 0 0 0 -1.32-.86 22.46 22.46 0 0 0 -2.61-.72 13.53 13.53 0 0 1 -2.83-.91 4 4 0 0 1 -1.57-1.37 3.36 3.36 0 0 1 -.52-1.82 3.76 3.76 0 0 1 .63-2.08 4 4 0 0 1 1.85-1.46 7 7 0 0 1 2.69-.5 7.36 7.36 0 0 1 2.88.52 4.11 4.11 0 0 1 1.91 1.55 4.38 4.38 0 0 1 .72 2.31l-1.86.14a3 3 0 0 0 -1-2.1 4 4 0 0 0 -2.56-.71 4.11 4.11 0 0 0 -2.57.64 1.92 1.92 0 0 0 -.8 1.56 1.68 1.68 0 0 0 .57 1.3 7.62 7.62 0 0 0 2.92 1 19.32 19.32 0 0 1 3.25.94 4.36 4.36 0 0 1 1.89 1.49 3.61 3.61 0 0 1 .61 2.08 4 4 0 0 1 -.67 2.21 4.38 4.38 0 0 1 -1.92 1.61 6.78 6.78 0 0 1 -2.83.57 8.4 8.4 0 0 1 -3.34-.58 4.58 4.58 0 0 1 -2.11-1.74 5 5 0 0 1 -.84-2.56z" fill="#fff"/><path d="m374.1 143.3h1.9v8.47a10 10 0 0 1 -.5 3.5 4.31 4.31 0 0 1 -1.81 2.12 6.43 6.43 0 0 1 -3.43.81 7 7 0 0 1 -3.37-.71 4 4 0 0 1 -1.87-2.05 9.86 9.86 0 0 1 -.56-3.67v-8.47h1.94v8.46a8.11 8.11 0 0 0 .36 2.81 2.63 2.63 0 0 0 1.24 1.43 4.17 4.17 0 0 0 2.11.49 4.05 4.05 0 0 0 3.06-1c.6-.64.91-1.88.91-3.72z" fill="#fff"/><path d="m380.24 158v-14.7h2l7.7 11.5v-11.5h1.86v14.7h-2l-7.7-11.51v11.51z" fill="#fff"/><path d="m402.71 158v-14.7h5.51a7 7 0 0 1 2.7.44 3.59 3.59 0 0 1 1.59 1.37 3.67 3.67 0 0 1 .57 1.94 3.36 3.36 0 0 1 -.51 1.77 3.64 3.64 0 0 1 -1.54 1.34 3.82 3.82 0 0 1 2.05 1.33 3.57 3.57 0 0 1 .71 2.22 4.28 4.28 0 0 1 -.43 1.91 3.66 3.66 0 0 1 -1.08 1.36 4.64 4.64 0 0 1 -1.6.73 10.06 10.06 0 0 1 -2.37.24zm2-8.49h3.17a7.21 7.21 0 0 0 1.85-.17 2.14 2.14 0 0 0 1.12-.73 2.11 2.11 0 0 0 .37-1.28 2.4 2.4 0 0 0 -.35-1.29 1.79 1.79 0 0 0 -1-.76 8.7 8.7 0 0 0 -2.23-.2h-2.93zm0 6.76h3.65a8 8 0 0 0 1.32-.07 3.08 3.08 0 0 0 1.12-.4 2 2 0 0 0 .74-.81 2.6 2.6 0 0 0 .29-1.23 2.44 2.44 0 0 0 -.42-1.43 2.23 2.23 0 0 0 -1.16-.85 7.43 7.43 0 0 0 -2.15-.24h-3.39z" fill="#fff"/><path d="m415.88 158 5.63-14.65h2.09l6 14.65h-2.2l-1.71-4.43h-6.14l-1.61 4.43zm4.23-6h5l-1.54-4.06c-.46-1.23-.81-2.25-1-3a18 18 0 0 1 -.79 2.8z" fill="#fff"/><path d="m432.17 158v-14.7h2l7.71 11.5v-11.5h1.86v14.7h-2l-7.74-11.56v11.56z" fill="#fff"/><path d="m447.91 158v-14.7h1.94v7.27l7.29-7.27h2.63l-6.15 5.94 6.38 8.76h-2.56l-5.23-7.41-2.4 2.34v5.07z" fill="#fff"/><path d="m320.73 192.17h-1v-1.17h1zm0-2.14h-1v-2h1zm0-3h-1v-2h1zm0-3h-1v-2h1zm0-3h-1v-2h1zm0-3h-1v-2h1zm0-3h-1v-2h1zm0-3h-1v-2h1zm0-3h-1v-2h1zm0-3h-1v-2h1zm0-3h-1v-2h1zm0-3h-1v-2h1zm0-3h-1v-2h1zm0-3h-1v-2h1zm0-3h-1v-2h1zm0-3h-1v-2h1zm0-3h-1v-2h1zm0-3h-1v-2h1zm0-3h-1v-2h1zm0-3h-1v-2h1zm0-3h-1v-2h1zm0-3h-1v-2h1zm0-3h-1v-2h1zm0-3h-1v-2h1zm0-3h-1v-2h1z" fill="#fff"/><path d="m465.82 192.17h-1v-1.17h1zm0-2.14h-1v-2h1zm0-3h-1v-2h1zm0-3h-1v-2h1zm0-3h-1v-2h1zm0-3h-1v-2h1zm0-3h-1v-2h1zm0-3h-1v-2h1zm0-3h-1v-2h1zm0-3h-1v-2h1zm0-3h-1v-2h1zm0-3h-1v-2h1zm0-3h-1v-2h1zm0-3h-1v-2h1zm0-3h-1v-2h1zm0-3h-1v-2h1zm0-3h-1v-2h1zm0-3h-1v-2h1zm0-3h-1v-2h1zm0-3h-1v-2h1zm0-3h-1v-2h1zm0-3h-1v-2h1zm0-3h-1v-2h1zm0-3h-1v-2h1zm0-3h-1v-2h1z" fill="#fff"/><g clip-path="url(#a)" fill="#fff" opacity=".52"><path d="m367.74 172.9c.14 0 .22 0 .22.1s-.08.2-.23.28v2.29h1.07v-2.57l.76.06c.14 0 .21.05.21.11s-.06.11-.16.19v2.21h.68v.84h-2.56v.28.8h2v4.22h-.84v-3.41h-1.17c0 .37-.05.7-.08 1a8.44 8.44 0 0 1 -.34 1.69 7.83 7.83 0 0 1 -.42 1.13l-.72-.64a5.9 5.9 0 0 0 .35-.92 8 8 0 0 0 .29-1.34 22.5 22.5 0 0 0 .12-2.52v-3.16c0-.19 0-.42 0-.69zm7.65.23v.87h-3.77v1.56h2.76a.73.73 0 0 1 .33-.16 5.49 5.49 0 0 1 .68.59.19.19 0 0 1 .08.14.11.11 0 0 1 -.08.11 3.28 3.28 0 0 0 -.39 1.08 10.86 10.86 0 0 1 -1.12 2.68 7.8 7.8 0 0 0 1.67 1.34l-.73.76a8.73 8.73 0 0 1 -1.5-1.33 6.9 6.9 0 0 1 -1.51 1.33l-.63-.73a5.51 5.51 0 0 0 1.34-1c.09-.11.19-.21.27-.33l-.08-.12a6.6 6.6 0 0 1 -.81-2.72l.8-.08a5.49 5.49 0 0 0 .61 2.1c0-.09.1-.18.14-.27a14.92 14.92 0 0 0 .85-2.59h-2.68a21.74 21.74 0 0 1 -.22 3 14.58 14.58 0 0 1 -.62 2.72l-.85-.44a11.11 11.11 0 0 0 .63-2.41 22.9 22.9 0 0 0 .22-3.08v-3z"/><path d="m378.2 174.77v-2.17l.78.06c.14 0 .21 0 .21.1a.41.41 0 0 1 -.15.24v1.77h.72v.8h-.76a6.35 6.35 0 0 0 1.08 2.08l-.61.64a7.37 7.37 0 0 1 -.47-1.06v4.91h-.84v-4.46a16.1 16.1 0 0 1 -.65 1.82l-.8-.53a10.82 10.82 0 0 0 .86-1.66c.16-.39.36-1 .59-1.74h-1v-.8zm4.61.12v1.8h-1.39l.38.12c.08 0 .12.07.12.13s-.07.11-.2.19a3.17 3.17 0 0 1 -.16.36h1.66l.43-.68.69.15c.12 0 .19.07.19.13s-.07.17-.2.25l-.13.15h2v.73h-2.2v.56h1.93v.68h-1.93v.54h1.93v.68h-1.93v.52h2.37v.72h-4.78v.28h-.84v-3.2a6.84 6.84 0 0 1 -.44.56l-.77-.53a5.88 5.88 0 0 0 1.53-2.29h-.68v-1.8zm-.44-2.06c.15 0 .23.06.23.13a.4.4 0 0 1 -.15.21v1.52h-.89v-.52h-1.49v-.81h1.49v-.6zm-.29 2.66h-1v.61h1zm1 2.73h-1.56v.56h1.56zm0 1.24h-1.56v.54h1.56zm0 1.21h-1.56v.52h1.56zm2.69-5.78v1.8h-2.45v-1.8zm-1.27-2.06c.14 0 .23.06.23.13s0 .12-.16.21v.19h1.52v.81h-1.52v.52h-.88v-1.93zm.55 2.66h-1v.61h1z"/><path d="m391.67 173.68a23.71 23.71 0 0 1 -2.37.53v1h3v3.17h-3v.57a12.46 12.46 0 0 1 -.34 2 9.43 9.43 0 0 1 -.48 1.29l-.8-.53a7.7 7.7 0 0 0 .33-.8 8.16 8.16 0 0 0 .33-1.36 25.9 25.9 0 0 0 .14-3.08v-3.33l.71.26c.39-.06.76-.13 1.1-.21a7.51 7.51 0 0 0 1.43-.49l.63.67a.3.3 0 0 1 .1.21s0 .07-.08.07l-.26-.06a1.78 1.78 0 0 0 -.44.09zm-.24 3.94v-1.62h-2.13v.53 1.12zm4.74-4a25 25 0 0 1 -2.5.53v1.64h3.45v.84h-1.12v5.42h-.93v-5.42h-1.44c0 .83-.05 1.51-.1 2a7.89 7.89 0 0 1 -.61 2.19 8.25 8.25 0 0 1 -.86 1.39l-.8-.53a7.41 7.41 0 0 0 .64-.86 5.81 5.81 0 0 0 .6-1.5 17 17 0 0 0 .25-3.33v-2.88l.62.23c.44-.07.86-.14 1.26-.22a8.57 8.57 0 0 0 1.53-.49l.62.66a.34.34 0 0 1 .1.22c0 .05 0 .07-.08.07l-.26-.06a2.2 2.2 0 0 0 -.37.12z"/><path d="m401.86 174.17c.21-.44.4-.9.59-1.41l.72.29c.13 0 .2.11.2.19s-.07.1-.19.12c-.12.29-.24.56-.35.81h4.88v.8h-5.27a11.79 11.79 0 0 1 -.65 1.08h4.63v5.06a.81.81 0 0 1 -.67.84 3.82 3.82 0 0 1 -1.05.16l-.36-.88h.84a.34.34 0 0 0 .36-.38v-.56h-3.89v1.71h-.88v-4.77a8.63 8.63 0 0 1 -1.77 1.27l-.6-.88a5.79 5.79 0 0 0 2.28-1.71 5.92 5.92 0 0 0 .71-.94h-2.75v-.8zm3.68 3.65v-1h-3.89v1zm0 1.69v-.93h-3.89v.93z"/></g><g clip-path="url(#b)" fill="#fff" opacity=".51"><path d="m261.91 175.41v-.76l.81.07c.14 0 .22.05.22.13a.36.36 0 0 1 -.15.2v.36h1.88v.7a8.27 8.27 0 0 0 1.13-.9l.68.26c.13 0 .2.1.2.18s-.07.1-.2.12a16.8 16.8 0 0 1 -1.4 1h1.92v.81h-3.24l-.6.28a10.68 10.68 0 0 1 -1 .4h3.59v3.77h-.92v-.44h-4v.44h-.92v-3.03c-.51.13-1.06.25-1.61.35l-.56-.84a20.63 20.63 0 0 0 3.79-.84h-3.53v-.81h3.94v-.63h-2.57v-.77zm-1.45-1.88v-.8l.84.06c.16 0 .25.06.25.13s-.07.14-.17.25v.36h2.05v-.8l.84.06c.16 0 .24.06.24.13a.54.54 0 0 1 -.16.25v.36h2.65v.72h-2.69v.68h-.92v-.68h-2.05v.68h-.92v-.68h-2.57v-.72zm4.29 6.13v-.66h-4v.64zm0 1.24v-.55h-4v.55zm-.18-4.72h-1.78v.63h.68a8.48 8.48 0 0 0 1.1-.63z"/><path d="m271.67 173.15c.09 0 .14.08.14.13s-.08.19-.25.25c-.21.52-.41 1-.59 1.4v7.14h-.97v-5.4c-.27.45-.58.94-.92 1.43l-.68-.68a14.66 14.66 0 0 0 1.36-2.17 19 19 0 0 0 1-2.49zm2.29 0c.09 0 .14.08.14.13s-.08.19-.25.25c-.14.35-.26.67-.39 1h4.37v.89h-3.29v1.53h2.76v.84h-2.76v1.52h2.76v.84h-2.76v2h-.92v-6.7h-.57l-.17.34c-.28.52-.62 1.1-1 1.71l-.69-.69a13.72 13.72 0 0 0 1.12-1.84 16.79 16.79 0 0 0 .85-2.13z"/><path d="m280.59 174.77v-2.17l.78.06c.15 0 .22 0 .22.1a.41.41 0 0 1 -.15.24v1.77h.72v.8h-.72a6.54 6.54 0 0 0 1.07 2.08l-.6.64a7.37 7.37 0 0 1 -.47-1.06v4.91h-.85v-4.46a14.36 14.36 0 0 1 -.64 1.82l-.8-.53a11.79 11.79 0 0 0 .86-1.66 17.32 17.32 0 0 0 .58-1.74h-1v-.8zm4.61.12v1.8h-1.38l.38.12c.08 0 .12.07.12.13s-.07.11-.2.19a3.17 3.17 0 0 1 -.16.36h1.66l.43-.68.69.15c.12 0 .19.07.19.13s-.07.17-.21.25l-.12.15h2v.73h-2.2v.56h1.93v.68h-1.93v.54h1.93v.68h-1.93v.52h2.37v.72h-4.77v.28h-.84v-3.2a6.84 6.84 0 0 1 -.44.56l-.77-.53a5.88 5.88 0 0 0 1.53-2.29h-.68v-1.8zm-.43-2.06c.15 0 .23.06.23.13a.4.4 0 0 1 -.15.21v1.52h-.85v-.52h-1.49v-.81h1.49v-.6zm-.29 2.66h-1v.61h1zm1 2.73h-1.48v.56h1.56zm0 1.24h-1.48v.54h1.56zm0 1.21h-1.48v.52h1.56zm2.69-5.78v1.8h-2.45v-1.8zm-1.27-2.06c.14 0 .23.06.23.13s-.05.12-.16.21v.19h1.52v.81h-1.49v.52h-.88v-1.93zm.55 2.66h-1v.61h1z"/></g><path d="m236 194.34a.11.11 0 0 1 -.09.12c-.06 0-.08.07-.08.17v.84h1a2.6 2.6 0 0 0 .41-.49c.13-.21.23-.41.32-.59s0 0 .09 0l.53.27a.13.13 0 0 1 .07.09s0 .06-.1.06-.15 0-.17.07a5.53 5.53 0 0 1 -.45.64h1.32c.1 0 .16 0 .16.1v1.76c0 .07-.06.09-.16.09h-.33c-.1 0-.14 0-.14-.09v-1.38h-5.91v1.39c0 .07-.06.09-.17.09h-.3c-.08 0-.13 0-.13-.09v-1.79c0-.07.05-.1.13-.1h1.58a1.74 1.74 0 0 0 -.11-.18 4.19 4.19 0 0 0 -.57-.66 1.59 1.59 0 0 1 .46-.29 5.39 5.39 0 0 1 .58.67 4.43 4.43 0 0 1 .29.46h1v-1.13c0-.07.05-.11.14-.11.45-.03.63.01.63.08zm2.16 4.38c.08 0 .13 0 .13.1v3c0 .07 0 .1-.13.1h-.33c-.1 0-.14 0-.14-.1v-.2h-4.41v.2c0 .07-.05.1-.14.1h-.33c-.09 0-.14 0-.14-.1v-3c0-.07.05-.1.14-.1zm-3 1.22v-.73h-1.92v.73zm0 1.2v-.69h-1.92v.69zm2.23-4.61c.08 0 .13 0 .13.1v1.5c0 .06-.05.09-.13.09h-3.82c-.09 0-.14 0-.14-.09v-1.5c0-.07.05-.1.14-.1zm-.47.5h-2.82v.7h2.9zm-1.16 2.91h1.89v-.73h-1.89zm1.89 1.2v-.69h-1.89v.69z" fill="#383736"/><path d="m244.86 194.21c0 .07 0 .12-.08.12s-.08.07-.08.18v.62h2.82c.06 0 .09.06.09.14v.26c0 .09 0 .13-.09.13h-6.11v2.07a10.85 10.85 0 0 1 -.15 2 5.08 5.08 0 0 1 -.39 1.26 3.36 3.36 0 0 1 -.42.72h-.09a3.55 3.55 0 0 0 -.31-.23.16.16 0 0 1 0-.12 3.6 3.6 0 0 0 .43-.86 7.14 7.14 0 0 0 .27-1.19 11.89 11.89 0 0 0 .09-1.59v-2.46a.13.13 0 0 1 .13-.14h3.15v-.92c0-.07 0-.1.14-.1.39.01.6.04.6.11zm1.79 2.33a5.91 5.91 0 0 1 -1.17.34.21.21 0 0 0 0 .12 9.3 9.3 0 0 0 .06 1.09h1.91c.07 0 .1 0 .1.13v.26c0 .1 0 .14-.1.14h-1.84a5.25 5.25 0 0 0 .35 1.14 3.35 3.35 0 0 0 .54.89 2.08 2.08 0 0 0 .5.49.58.58 0 0 0 .22.07s.06 0 .11-.09a7.6 7.6 0 0 0 .29-.76c0-.07 0-.11.06-.11s0 0 .07.05a.71.71 0 0 0 .22.27.59.59 0 0 1 0 .17 7.83 7.83 0 0 1 -.44 1c-.12.15-.23.22-.33.22a1.33 1.33 0 0 1 -.67-.33 3.75 3.75 0 0 1 -.72-.82 4.73 4.73 0 0 1 -.57-1.23 5.84 5.84 0 0 1 -.22-.94h-2v1.74c.6-.13 1.17-.3 1.71-.47s.07 0 .07.05a2.23 2.23 0 0 1 0 .47c-.93.27-1.87.51-2.83.73-.08.16-.14.23-.19.23s-.17-.23-.33-.69q.42-.06 1-.18v-4c0-.07 0-.1.1-.1l.4.16a14.17 14.17 0 0 0 1.86-.12 6.49 6.49 0 0 0 1.67-.43.56.56 0 0 1 .15 0h.09c.27.24.41.39.41.45s0 .14-.1.14l-.2-.1zm-1.09 4.74c.06 0 .1 0 .1.13v.26c0 .08 0 .14-.1.14h-2.93c-.06 0-.09-.06-.09-.14v-.26c0-.09 0-.13.09-.13zm-.67-4.32a12.73 12.73 0 0 1 -1.86.13v1h1.97a10.08 10.08 0 0 1 -.11-1.09z" fill="#383736"/><path d="m255.71 194.44c.09 0 .14 0 .14.1v7.37c0 .07 0 .1-.14.1h-.33c-.08 0-.13 0-.13-.1v-.24h-5.6v.24c0 .07-.06.1-.14.1h-.33c-.1 0-.14 0-.14-.1v-7.37c0-.07 0-.1.14-.1zm-.46 6.74v-6.24h-5.6v6.24zm-.86-5.75c.08 0 .13 0 .13.1v1.13c0 .07-.05.1-.13.1h-1.53v.4h2.06s.06 0 .06.1v.26c0 .07 0 .1-.06.1h-4.78s-.07 0-.07-.1v-.26c0-.07 0-.1.07-.1h2.16v-.4h-1.53c-.09 0-.13 0-.13-.1v-1.13c0-.06 0-.1.13-.1zm.26 2.66c.09 0 .14 0 .14.1v2.52c0 .07 0 .1-.14.1h-4.27c-.1 0-.14 0-.14-.1v-2.52c0-.06 0-.1.14-.1zm-.42.43h-3.43v1.86h3.43zm-.28-2.65h-2.75v.46h2.8zm-.33 3c.09 0 .14 0 .14.07v1.06c0 .05 0 .07-.14.07h-2.16c-.08 0-.12 0-.12-.07v-1.06s0-.07.12-.07zm-.36.4h-1.43v.4h1.43z" fill="#383736"/><path d="m259 194.4a.12.12 0 0 1 -.09.13c-.05 0-.07.07-.07.17v.9h.69a.45.45 0 0 1 .21 0c.17.12.25.23.25.29a8.52 8.52 0 0 1 -.8 1.54l-.16.22a3.19 3.19 0 0 0 .41.49 3.33 3.33 0 0 0 .82.56s.06 0 .06 0 0 0-.06.07a1.39 1.39 0 0 1 -.24.25s-.07.08-.1.08a.21.21 0 0 1 -.11 0 2.86 2.86 0 0 1 -.7-.57l-.15-.16v3.39c0 .06 0 .1-.12.1h-.34c-.09 0-.13 0-.13-.1v-3.39c-.26.22-.55.46-.87.7a.06.06 0 0 1 -.07-.07l-.25-.37a.07.07 0 0 1 0-.06.14.14 0 0 1 0-.09 6.5 6.5 0 0 0 .77-.46 4.48 4.48 0 0 0 .8-.82 4.13 4.13 0 0 0 .49-.82l.14-.3h-2c-.06 0-.1 0-.1-.13v-.27c0-.09 0-.13.1-.13h.86v-1.2c0-.06.05-.1.14-.1.45.05.62.09.62.15zm1.6 2.73s.06.07.06.1 0 0-.06 0-.11 0-.12.05a4.81 4.81 0 0 1 -.49.61.22.22 0 0 1 -.12 0l-.34-.21a2.8 2.8 0 0 0 .33-.38 3.9 3.9 0 0 0 .2-.42.09.09 0 0 1 .07 0zm3.57-1.13c.09 0 .14 0 .14.09v2.3c0 .07-.05.09-.14.09h-2.08l-.31.5h2.22a.2.2 0 0 1 .14.05c.1.12.16.19.16.22a5.68 5.68 0 0 1 -.5.88 3.82 3.82 0 0 1 -.59.65 1 1 0 0 1 -.19.14 1.18 1.18 0 0 0 .19.1 4.31 4.31 0 0 0 .94.3 3.52 3.52 0 0 0 .76.09.33.33 0 0 1 -.06.12c-.06.12-.11.23-.16.35s0 .1-.06.1c-.34-.06-.63-.11-.88-.17a5.63 5.63 0 0 1 -.77-.3 3.56 3.56 0 0 1 -.45-.27.15.15 0 0 0 -.08 0 7.69 7.69 0 0 1 -1.12.45 10.28 10.28 0 0 1 -1.07.25.16.16 0 0 1 -.15-.07 2 2 0 0 1 -.18-.26.13.13 0 0 1 0-.07s0-.05.06-.05c.27 0 .54-.09.8-.15a5.49 5.49 0 0 0 1.21-.34l.12-.07a3.11 3.11 0 0 1 -.37-.46 3.26 3.26 0 0 1 -.41-.8l-.27.28a6.29 6.29 0 0 1 -.7.54.22.22 0 0 1 -.14 0l-.29-.3a.19.19 0 0 1 0-.09 4.48 4.48 0 0 0 .53-.34 4.28 4.28 0 0 0 .64-.6c.1-.13.24-.32.42-.59h-.4c-.08 0-.13 0-.13-.09v-2.3c0-.05.05-.09.13-.09zm-2.35-1.43c0 .05 0 .07-.05.07s-.13 0-.15.09-.08.17-.11.23h3.17s.06 0 .06.11v.26c0 .07 0 .1-.06.1h-3.46a1.29 1.29 0 0 1 -.17.21c-.1.11-.28.29-.52.52a.21.21 0 0 1 -.16-.07l-.22-.2a.11.11 0 0 1 -.06-.09l.4-.39a3.31 3.31 0 0 0 .45-.58 5.38 5.38 0 0 0 .25-.56s0-.06 0-.06a2.16 2.16 0 0 1 .67.36zm1.89 2.46v-.57h-2.22v.54zm0 .42h-2.22v.55h2.22zm-1.71 2.55a2.5 2.5 0 0 0 .47.58.31.31 0 0 0 .09.07 1.37 1.37 0 0 0 .24-.18 2.08 2.08 0 0 0 .53-.62 3 3 0 0 0 .21-.32h-1.77a1.87 1.87 0 0 0 .23.47z" fill="#383736"/><path d="m267.22 196c.08 0 .12.07.12.11s0 .11-.13.13a.2.2 0 0 0 -.2.15l-.2.47a4.58 4.58 0 0 0 .66.48s0 0-.05.09a1.48 1.48 0 0 1 -.25.34 4 4 0 0 1 -.59-.45 6.72 6.72 0 0 1 -.44.72c-.07.08-.13.13-.17.13a.22.22 0 0 1 -.12-.06l-.31-.14h-.06a.23.23 0 0 1 0-.1 7.15 7.15 0 0 0 .66-.88 3.94 3.94 0 0 0 .47-1c0-.1.07-.15.11-.15zm.16 2.73v-.5s0-.06.09-.06c.4 0 .6 0 .6.1s0 .11-.06.11-.07.06-.07.15v.2h1.43s.06 0 .06.1v.27c0 .09 0 .13-.06.13h-1.37a4.53 4.53 0 0 0 .48.68 3 3 0 0 0 .65.63 2.4 2.4 0 0 0 .62.35s0 .06-.07.08a2 2 0 0 0 -.29.3s0 .05-.07.05a3.38 3.38 0 0 1 -.78-.59 3.53 3.53 0 0 1 -.54-.73v1.84c0 .07-.05.1-.14.1h-.33c-.07 0-.09 0-.09-.1v-1.84l-.17.26c-.18.24-.37.46-.56.67a5.66 5.66 0 0 1 -.7.57.18.18 0 0 1 -.15-.05l-.29-.29a.16.16 0 0 1 0-.09 4.35 4.35 0 0 0 .53-.37 4.52 4.52 0 0 0 .64-.66c.11-.15.28-.41.51-.76h-1.35c-.05 0-.07 0-.07-.13v-.27c0-.06 0-.1.07-.1zm.75-4.41c0 .07 0 .11-.07.12s-.09.07-.09.17v.61h1.33s.07 0 .07.09v.27c0 .09 0 .13-.07.13h-3.49c-.05 0-.07 0-.07-.13v-.27c0-.06 0-.09.07-.09h1.57v-.9c0-.07 0-.11.12-.11.42.02.63.06.63.13zm.77 1.75c.07 0 .1.07.1.11a.12.12 0 0 1 -.09.12.14.14 0 0 0 -.15.13c-.05.16-.1.31-.15.44a1.69 1.69 0 0 0 .25.37 2.5 2.5 0 0 0 .52.46s.05 0 .05 0 0 0-.06.06a1 1 0 0 1 -.23.24c0 .05-.06.07-.07.07a.14.14 0 0 1 -.09 0 2 2 0 0 1 -.44-.47 1 1 0 0 1 -.13-.22c-.11.22-.2.41-.29.56s-.09.13-.11.13a.27.27 0 0 1 -.13-.05l-.28-.12s-.06 0-.06 0a.23.23 0 0 1 0-.09 5.3 5.3 0 0 0 .48-.81 4.89 4.89 0 0 0 .34-.92c0-.09 0-.14.07-.14zm2.1-1.64c.06.06.09.09.09.12a.1.1 0 0 1 -.07.1.1.1 0 0 0 -.12.09c-.13.42-.24.73-.33.94h.89c.07-.14.13-.27.17-.37a6.11 6.11 0 0 0 .3-1c0-.07 0-.1.05-.1a4.52 4.52 0 0 1 .71.33s0 .05-.1.07a.25.25 0 0 0 -.18.19l-.31.84h1.12c.06 0 .1.05.1.13v.26c0 .1 0 .14-.1.14h-1.17v1.19h1c.07 0 .1.05.1.14v.26c0 .09 0 .14-.1.14h-1v1.32h1.06c.07 0 .11.05.11.14v.26c0 .09 0 .14-.11.14h-1.06v1.24h1.17c.06 0 .1.05.1.14v.26c0 .09 0 .14-.1.14h-2.66v.26c0 .07-.05.1-.13.1h-.33c-.1 0-.14 0-.14-.1v-5.09a3.45 3.45 0 0 1 -.3.34.48.48 0 0 1 -.18 0l-.33-.12s0 0 0-.05a.09.09 0 0 1 0-.06 4.11 4.11 0 0 0 .66-.91 4.57 4.57 0 0 0 .31-.67 7.84 7.84 0 0 0 .27-.95s0-.07.06-.07zm.46 1.78h-.9v1.19h.9zm0 1.73h-.9v1.32h.9zm0 3.08v-1.22h-.9v1.2z" fill="#383736"/><path d="m278.32 198.66a1.86 1.86 0 0 1 -.55.6l-.22-.25a1.32 1.32 0 0 0 .57-1h-.63v-1h1v.99a1.57 1.57 0 0 1 -.17.66z" fill="#383736"/><path d="m288.26 196.46a.22.22 0 0 1 .15 0c.12.1.18.17.18.22l-1.59 1.76v.46h3.22c.07 0 .1.05.1.13v.33c0 .1 0 .14-.1.14h-3.22v1.82c0 .44-.32.67-.93.67h-.63s-.07-.06-.08-.17a.85.85 0 0 0 -.16-.43s0-.07.07-.07a4 4 0 0 0 .8.1.27.27 0 0 0 .3-.3v-1.62h-3.42c-.07 0-.1 0-.1-.14v-.33c0-.08 0-.13.1-.13h3.42v-.9a.12.12 0 0 1 .13-.13l.2.09 1-1h-3.06c-.07 0-.1-.05-.1-.14v-.26c0-.09 0-.14.1-.14zm-1.26-2.16c0 .08 0 .12-.08.13s-.08.07-.08.17v.47h3c.08 0 .13 0 .13.1v1.66c0 .06-.05.1-.13.1h-.34c-.09 0-.13 0-.13-.1v-1.23h-5.77v1.23c0 .06-.05.1-.14.1h-.33c-.09 0-.14 0-.14-.1v-1.63a.12.12 0 0 1 .14-.13h3.05v-.77c0-.06 0-.09.14-.09q.68 0 .68.09z" fill="#383736"/><path d="m293.94 194.44c.08 0 .13 0 .13.1v1.89h.33c.08 0 .13 0 .13.1v1.13c0 .07 0 .1-.13.1h-.27c-.09 0-.13 0-.13-.1v-.73h-2.39v.73c0 .07-.05.1-.14.1h-.26c-.08 0-.13 0-.13-.1v-1.13c0-.07.05-.1.13-.1h.3v-1.89c0-.07 0-.1.13-.1zm-.14 3.05c.09 0 .14 0 .14.1v3.41a.75.75 0 0 1 -.1.49c0 .11-.27.22-.77.34-.1 0-.15 0-.15-.1s-.06-.24-.11-.43c.39 0 .59-.13.59-.3v-.86h-1.2v1.59c0 .07 0 .1-.12.1h-.27c-.09 0-.13 0-.13-.1v-4.18c0-.07 0-.1.13-.1zm-1.23-1.06v-.93c0-.07 0-.1.1-.1h.87v-.46h-1.54v1.49zm.83 2.12v-.55h-1.2v.56zm0 1.13v-.63h-1.2v.63zm.14-3.25v-.56h-.47v.56zm2.49 4.45c.08.11.14.22.21.33h1a2.13 2.13 0 0 0 .3-.33 1.54 1.54 0 0 0 .28-.47s0-.07.07-.07l.43.17c.07 0 .1.06.1.1s0 0-.07.06-.11 0-.13.06a2.5 2.5 0 0 1 -.31.48h.81s.07 0 .07.1v.27c0 .08 0 .12-.07.12h-4.02c-.05 0-.06 0-.06-.12v-.27c0-.06 0-.1.06-.1h1a.6.6 0 0 1 -.06-.11 3.27 3.27 0 0 0 -.46-.55s.12-.11.36-.24a5.19 5.19 0 0 1 .46.57zm-.07-6v-.54s0-.07.1-.07c.33 0 .5 0 .5.07s0 .11-.05.11-.06.06-.06.16v.27h.55v-.54s0-.07.11-.07c.32 0 .49 0 .49.07s0 .11-.05.11-.05.06-.05.16v.27h.93c.09 0 .13 0 .13.1v2.22c0 .07 0 .1-.13.1h-3.43c-.09 0-.13 0-.13-.1v-2.22c0-.07 0-.1.13-.1zm2.56 2.85s.06 0 .06.1v.27c0 .08 0 .13-.06.13h-3.52c-.05 0-.07-.05-.07-.13v-.27c0-.06 0-.1.07-.1zm-.1.86c.08 0 .13 0 .13.1v1.4c0 .06-.05.1-.13.1h-3.29c-.09 0-.13 0-.13-.1v-1.4c0-.07 0-.1.13-.1zm-2.42-2.76v-.53h-.53v.53zm0 .43h-.53v.53h.53zm2 2.76h-2.42v.66h2.42zm-1.53-3.19h.53v-.53h-.57zm.57.43h-.57v.53h.53zm.5-.43h.53v-.53h-.53zm.53.43h-.53v.53h.53z" fill="#383736"/><path d="m303.16 194.54c.09 0 .14 0 .14.09v2.2c0 .06-.05.1-.14.1h-.47l.47.25v.08s0 .06-.11.06-.17 0-.19.08c-.19.3-.36.57-.53.82l.25.36.45-.82a2.88 2.88 0 0 1 .46.43s0 0 0 0-.12 0-.14 0c-.27.46-.53.88-.77 1.26l.65-.06c0-.12-.08-.23-.12-.35s.12-.11.37-.24c.09.26.17.5.23.71a5.8 5.8 0 0 1 .16.63 1.9 1.9 0 0 1 -.43.12 3.69 3.69 0 0 0 -.11-.51.15.15 0 0 1 0-.06l-1.24.34c-.12.12-.18.17-.2.17a2.51 2.51 0 0 1 -.14-.63.7.7 0 0 1 .25-.05l.46-.73c-.19-.22-.32-.39-.42-.49a4.54 4.54 0 0 0 -.48-.39 1.26 1.26 0 0 1 .27-.36s0 0 .06 0a2.68 2.68 0 0 0 .23.26c.08-.12.15-.25.22-.37s.23-.42.3-.55h-2l.46.25v.08s0 .06-.11.06-.16 0-.19.08c-.16.31-.3.59-.44.84l.29.34c.14-.24.27-.45.38-.66a3 3 0 0 1 .47.44s0 0-.06 0a.22.22 0 0 0 -.15 0c-.29.46-.57.88-.85 1.25h.68l-.09-.34s.12-.11.37-.23c.06.25.13.47.18.68a5.51 5.51 0 0 1 .11.61 1.13 1.13 0 0 1 -.42.13c0-.13 0-.3-.08-.51a.07.07 0 0 1 0-.05l-1.37.27a.72.72 0 0 1 -.21.16 3.53 3.53 0 0 1 -.12-.63 1.51 1.51 0 0 1 .4 0c.23-.33.42-.6.57-.84l-.43-.4-.51-.32a1.34 1.34 0 0 1 .26-.36h.07l.2.17c.08-.14.15-.28.22-.42s.2-.45.26-.58h-.48c-.09 0-.13 0-.13-.1v-2.2c0-.06 0-.09.13-.09zm-2.6 6.06c.07 0 .11.07.11.11s0 .08-.05.08-.08 0-.1.1a7.07 7.07 0 0 1 -.4 1.07s-.06.08-.08.08a.28.28 0 0 1 -.13-.06l-.3-.14h-.06s0-.05 0-.06a6.28 6.28 0 0 0 .29-.59 4.88 4.88 0 0 0 .2-.65c0-.06 0-.1.05-.1zm2.18-5.07v-.53h-2.23v.5zm0 .44h-2.23v.46h2.23zm-1.33 4.71a10.16 10.16 0 0 1 .26 1.09c0 .07-.05.11-.13.11l-.44.1s0 0 0-.1c0-.3-.05-.66-.1-1.1 0-.05 0-.07.07-.09l.33-.08zm.92-.05a7.36 7.36 0 0 1 .44 1c0 .06 0 .09-.13.1l-.37.07s-.06 0-.06-.08a8.34 8.34 0 0 0 -.27-1s0-.05.07-.07l.26-.06s.03.01.06.04zm.87-.15a6.91 6.91 0 0 1 .53.83c0 .06 0 .1-.05.11a.85.85 0 0 1 -.38.16 8.38 8.38 0 0 0 -.5-.9c0-.06.11-.13.34-.23a.09.09 0 0 1 .06.03zm4-5.91s.07 0 .07.1v.27c0 .08 0 .13-.07.13h-1.32l-.38 1h1.4c.09 0 .14 0 .14.11v4.05c0 .07 0 .09-.14.09h-2.75c-.09 0-.14 0-.14-.09v-4.03c0-.07.05-.11.14-.11h.76l.37-1h-1.37s-.06 0-.06-.13v-.27c0-.06 0-.1.06-.1zm-1.85 6.11c.08 0 .13.09.13.13s0 .06-.11.08-.14 0-.16.07a4.58 4.58 0 0 1 -.7.94c-.06 0-.1.08-.13.08a.33.33 0 0 1 -.14-.06c-.12 0-.23-.11-.33-.14h-.06a.07.07 0 0 1 0-.06 5.85 5.85 0 0 0 .51-.53 1.81 1.81 0 0 0 .35-.59c0-.05.06-.08.1-.08zm1.09-3.39v-.69h-1.83v.69zm0 1.29v-.79h-1.83v.79zm0 .51h-1.83v.76h1.83zm.35 2a3 3 0 0 0 .53.42.14.14 0 0 1 .05.09s-.11.17-.33.4h-.07a5 5 0 0 1 -1-1.1.13.13 0 0 1 0-.07s.12-.17.37-.37a4.39 4.39 0 0 0 .43.67z" fill="#383736"/><path d="m311.17 194.45c.07.06.1.09.1.12a.12.12 0 0 1 -.1.13c-.12 0-.2 0-.22.1l-.09.16h2.66.16s.17.18.17.23l-1.27 1.29h2.21c.08 0 .13 0 .13.1v3.05c0 .07-.05.1-.13.1h-.33c-.1 0-.14 0-.14-.1v-.26h-4.61v1.36c0 .27.16.4.5.4h4.44a.44.44 0 0 0 .49-.33 4.39 4.39 0 0 0 .18-.77 1.22 1.22 0 0 0 .46.26.13.13 0 0 1 .11.14 3.11 3.11 0 0 1 -.29.89c-.1.24-.34.37-.75.37h-5c-.51 0-.77-.19-.77-.56v-4.13l-.43.28a.56.56 0 0 1 -.2 0l-.35-.15s-.05 0-.05-.05 0-.05.05-.07a5.55 5.55 0 0 0 1.25-1 4.1 4.1 0 0 0 .56-.7 5.09 5.09 0 0 0 .52-1 .14.14 0 0 1 .11-.07zm.63 2.08 1.05-1h-2.31a3.18 3.18 0 0 1 -.3.4 6.87 6.87 0 0 1 -.58.63zm-2.09 2.35h2.05v-1.82h-2.05zm2.65 0h2v-1.82h-2z" fill="#383736"/><path d="m324.18 194.54c.07 0 .1 0 .1.09v.37c0 .1 0 .14-.1.14h-3.18c.24.17.35.26.35.3s-.05.1-.13.1-.21.08-.29.24c-.24.31-.56.73-1 1.24a10.06 10.06 0 0 1 -1.49 1.44 9 9 0 0 1 -1.31.86c-.09 0-.15 0-.18-.08l-.26-.3c-.07 0-.1 0-.1-.08a.09.09 0 0 1 .07-.09 8 8 0 0 0 1.62-1 8.14 8.14 0 0 0 1.3-1.25 10.31 10.31 0 0 0 1-1.41h-3.78c-.07 0-.1 0-.1-.14v-.33c0-.06 0-.09.1-.09zm-3.18 2.46c0 .08 0 .12-.08.12s-.08.08-.08.18v4.51c0 .07-.06.1-.17.1h-.33c-.1 0-.14 0-.14-.1v-4.81c0-.07 0-.1.14-.1.4.03.66.1.66.1zm2.2.31c.45.45.83.85 1.16 1.21 0 0 0 0-.05.08l-.31.4a16.45 16.45 0 0 0 -1.55-1.57 6.93 6.93 0 0 0 -1.11-.82 1.64 1.64 0 0 1 .29-.41s.05-.06.07-.06a14.16 14.16 0 0 1 1.46 1.2z" fill="#383736"/><path d="m328.24 194.84c.08 0 .12 0 .12.1v5c0 .07 0 .11-.12.11h-.33c-.1 0-.14 0-.14-.11v-.26h-1.62v1c0 .07-.06.1-.14.1h-.33c-.1 0-.14 0-.14-.1v-5.68c0-.08 0-.12.14-.12zm-.47 2.12v-1.6h-1.62v1.64zm0 2.19v-1.66h-1.62v1.66zm4.51-4.55c.11 0 .17.05.17.13v6.34a.68.68 0 0 1 -.41.61 3.29 3.29 0 0 1 -1 .23.1.1 0 0 1 -.11-.1 1.55 1.55 0 0 0 -.19-.53s0-.05.08-.05a2.15 2.15 0 0 0 .86-.1.34.34 0 0 0 .15-.31v-1.54h-2.24a4.1 4.1 0 0 1 -.74 1.83 3 3 0 0 1 -.67.73h-.09a1.39 1.39 0 0 0 -.31-.23.21.21 0 0 1 0-.12 3.34 3.34 0 0 0 .74-.86 4.35 4.35 0 0 0 .47-1.21 7.41 7.41 0 0 0 .15-1.61v-3.06a.12.12 0 0 1 .13-.13zm-.43 4.15v-1.59h-2.13v.63a9.34 9.34 0 0 1 0 1zm0-2.12v-1.5h-2.13v1.5z" fill="#383736"/><path d="m337.16 194.54c.09 0 .14 0 .14.09v2.2c0 .06-.05.1-.14.1h-.47l.47.25v.08s0 .06-.11.06-.17 0-.19.08c-.19.3-.36.57-.53.82l.25.36.45-.82a2.88 2.88 0 0 1 .46.43s0 0 0 0-.12 0-.14 0c-.27.46-.53.88-.77 1.26l.65-.06c0-.12-.08-.23-.12-.35s.12-.11.37-.24c.09.26.17.5.23.71a5.8 5.8 0 0 1 .16.63 1.9 1.9 0 0 1 -.43.12 3.69 3.69 0 0 0 -.11-.51.15.15 0 0 1 0-.06l-1.24.34c-.12.12-.18.17-.2.17a2.51 2.51 0 0 1 -.14-.63.7.7 0 0 1 .25-.05l.46-.73c-.19-.22-.32-.39-.42-.49a4.54 4.54 0 0 0 -.48-.39 1.26 1.26 0 0 1 .27-.36s0 0 .06 0a2.68 2.68 0 0 0 .23.26c.08-.12.15-.25.22-.37s.23-.42.3-.55h-2l.46.25v.08s0 .06-.11.06-.16 0-.19.08c-.16.31-.3.59-.44.84l.29.34c.14-.24.27-.45.38-.66a3 3 0 0 1 .47.44s0 0-.06 0a.22.22 0 0 0 -.15 0c-.29.46-.57.88-.85 1.25h.68l-.09-.34s.12-.11.37-.23c.06.25.13.47.18.68a5.51 5.51 0 0 1 .11.61 1.13 1.13 0 0 1 -.42.13c0-.13 0-.3-.08-.51a.07.07 0 0 1 0-.05l-1.37.27a.72.72 0 0 1 -.21.16 3.53 3.53 0 0 1 -.12-.63 1.51 1.51 0 0 1 .4 0c.23-.33.42-.6.57-.84l-.43-.4-.51-.32a1.34 1.34 0 0 1 .26-.36h.07l.2.17c.08-.14.15-.28.22-.42s.2-.45.26-.58h-.48c-.09 0-.13 0-.13-.1v-2.2c0-.06 0-.09.13-.09zm-2.6 6.06c.07 0 .11.07.11.11s0 .08-.05.08-.08 0-.1.1a7.07 7.07 0 0 1 -.4 1.07s-.06.08-.08.08a.28.28 0 0 1 -.13-.06l-.3-.14h-.06s0-.05 0-.06a6.28 6.28 0 0 0 .29-.59 4.88 4.88 0 0 0 .2-.65c0-.06 0-.1.05-.1zm2.18-5.07v-.53h-2.23v.5zm0 .44h-2.23v.46h2.23zm-1.33 4.71a10.16 10.16 0 0 1 .26 1.09c0 .07-.05.11-.13.11l-.44.1s0 0 0-.1c0-.3-.05-.66-.1-1.1 0-.05 0-.07.07-.09l.33-.08zm.92-.05a7.36 7.36 0 0 1 .44 1c0 .06 0 .09-.13.1l-.37.07s-.06 0-.06-.08a8.34 8.34 0 0 0 -.27-1s0-.05.07-.07l.26-.06s.03.01.06.04zm.87-.15a6.91 6.91 0 0 1 .53.83c0 .06 0 .1-.05.11a.85.85 0 0 1 -.38.16 8.38 8.38 0 0 0 -.5-.9c0-.06.11-.13.34-.23a.09.09 0 0 1 .06.03zm4-5.91s.07 0 .07.1v.27c0 .08 0 .13-.07.13h-1.32l-.38 1h1.4c.09 0 .14 0 .14.11v4.05c0 .07 0 .09-.14.09h-2.75c-.09 0-.14 0-.14-.09v-4.03c0-.07.05-.11.14-.11h.76l.37-1h-1.37s-.06 0-.06-.13v-.27c0-.06 0-.1.06-.1zm-1.85 6.11c.08 0 .13.09.13.13s0 .06-.11.08-.14 0-.16.07a4.58 4.58 0 0 1 -.7.94c-.06 0-.1.08-.13.08a.33.33 0 0 1 -.14-.06c-.12 0-.23-.11-.33-.14h-.06a.07.07 0 0 1 0-.06 5.85 5.85 0 0 0 .51-.53 1.81 1.81 0 0 0 .35-.59c0-.05.06-.08.1-.08zm1.09-3.39v-.69h-1.83v.69zm0 1.29v-.79h-1.83v.79zm0 .51h-1.83v.76h1.83zm.35 2a3 3 0 0 0 .53.42.14.14 0 0 1 .05.09s-.11.17-.33.4h-.07a5 5 0 0 1 -1-1.1.13.13 0 0 1 0-.07s.12-.17.37-.37a4.39 4.39 0 0 0 .43.67z" fill="#383736"/><path d="m344.54 194.94c.08 0 .13 0 .13.09v5.35c0 .07-.05.1-.13.1h-.33c-.1 0-.14 0-.14-.1v-.47h-1.29v.9c0 .07 0 .1-.14.1h-.33c-.09 0-.13 0-.13-.1v-5.74c0-.09 0-.13.13-.13zm-.47 2.18v-1.65h-1.29v1.65zm0 2.26v-1.72h-1.29v1.72zm3.05-4.14v-.87c0-.07.05-.1.14-.1.42 0 .63 0 .63.1a.12.12 0 0 1 -.09.13c-.05 0-.07.06-.07.17v.57h1.69c.07 0 .1 0 .1.12v.28c0 .08 0 .12-.1.12h-1.69v1.17h2c.07 0 .1 0 .1.13v.27c0 .08 0 .12-.1.12h-.93v1h.79c.07 0 .11 0 .11.12v.27c0 .09 0 .13-.11.13h-.79v2.33c0 .42-.35.63-1 .63h-.86s-.06-.06-.06-.16a1.35 1.35 0 0 0 -.15-.44 9.33 9.33 0 0 0 1 .06c.31 0 .46-.1.46-.29v-2.1h-2.69c-.07 0-.1 0-.1-.13v-.27c0-.08 0-.12.1-.12h2.72v-1h-3c-.07 0-.1 0-.1-.12v-.27c0-.08 0-.13.1-.13h1.92v-1.17h-1.64c-.07 0-.1 0-.1-.12v-.28c0-.08 0-.12.1-.12zm-.18 4.7.55.4a.2.2 0 0 1 0 .08 2.69 2.69 0 0 1 -.26.36 6.86 6.86 0 0 0 -.76-.53c-.22-.12-.39-.21-.53-.27a1.62 1.62 0 0 1 .26-.38s0 0 .07 0a7.09 7.09 0 0 1 .67.34z" fill="#383736"/><path d="m354.82 198.66a1.86 1.86 0 0 1 -.55.6l-.22-.25a1.32 1.32 0 0 0 .57-1h-.62v-1h1v.99a1.57 1.57 0 0 1 -.18.66z" fill="#383736"/><path d="m366.55 194.7c.06 0 .1.05.1.14v.26c0 .09 0 .14-.1.14h-.86v6c0 .42-.35.63-1 .63h-.69c-.05 0-.06-.06-.06-.16a1.28 1.28 0 0 0 -.15-.44 8.11 8.11 0 0 0 .83.06c.31 0 .47-.1.47-.3v-5.8h-5.78c-.07 0-.1-.05-.1-.14v-.26c0-.09 0-.14.1-.14zm-3.16 1.83c.09 0 .14 0 .14.1v3.37c0 .07 0 .1-.14.1h-.33c-.08 0-.13 0-.13-.1v-.43h-1.93v.67q0 .09-.12.09h-.34c-.09 0-.13 0-.13-.09v-3.56a.12.12 0 0 1 .13-.13zm-.46 2.49v-2h-1.93v2z" fill="#383736"/><path d="m369.07 194.8v-.5s0-.07.1-.07c.39 0 .6 0 .6.11s0 .11-.06.11-.07.06-.07.15v.2h1.29s.07 0 .07.1v.27c0 .08 0 .13-.07.13h-1.29v.6h1.1c.08 0 .12 0 .12.1v3.21c0 .07 0 .11-.12.11h-1.1v.68h1.26c.07 0 .1.05.1.13v.27c0 .09 0 .13-.1.13h-1.26v1.33c0 .07-.05.1-.14.1h-.33c-.07 0-.1 0-.1-.1v-1.33h-1.29c-.07 0-.1 0-.1-.13v-.27c0-.08 0-.13.1-.13h1.29v-.66h-1.07c-.08 0-.12 0-.12-.11v-3.23c0-.07 0-.1.12-.1h1.1v-.6h-1.33c-.05 0-.06-.05-.06-.13v-.27c0-.06 0-.1.06-.1zm0 2.53v-.9h-.66v.9zm0 .46h-.66v1h.66zm.57-.46h.66v-.9h-.66zm.66.46h-.66v1h.66zm2.72-3.06v-.43s0-.07.1-.07c.4 0 .6 0 .6.11s0 .11-.07.11-.06.06-.06.15v.13h1.66s.07 0 .07.11v.26c0 .09 0 .14-.07.14h-1.66v.63h1.41c.08 0 .12 0 .12.1v2.18c0 .07 0 .1-.12.1l.27.42a4.92 4.92 0 0 1 .3.61 1.54 1.54 0 0 1 -.47.14 1.82 1.82 0 0 0 -.11-.33h-.66l-2.61.21c-.05.14-.1.22-.14.23a.09.09 0 0 1 -.08 0l-.18-.66c.24 0 .82 0 1.72-.11v-.52h-1.36c-.09 0-.13 0-.13-.1v-2.14c0-.07 0-.1.13-.1h1.32v-.63h-1.55c-.05 0-.07-.05-.07-.14v-.26c0-.07 0-.11.07-.11zm.77 5.05a2.23 2.23 0 0 0 0-.3.53.53 0 0 1 0-.16s.05 0 .14 0l.64.09c.06 0 .09.06.09.08s0 .07-.1.07-.15.13-.16.26h.92c.05 0 .07 0 .07.11v.26c0 .08 0 .13-.07.13h-.93v1.19c0 .38-.28.57-.83.57h-.23s-.05-.06-.05-.14a2.33 2.33 0 0 0 -.15-.36s0-.07.07-.07a.66.66 0 0 0 .3.07c.22 0 .33-.09.33-.26v-1h-2.36c-.05 0-.06-.05-.06-.13v-.26c0-.07 0-.11.06-.11zm-1.39 1 .33.35s0 0-.05.06c-.17.22-.25.34-.25.34a4.76 4.76 0 0 0 -.43-.46 2.71 2.71 0 0 0 -.3-.23 1.09 1.09 0 0 1 .23-.35.08.08 0 0 1 .06-.05 2.47 2.47 0 0 1 .41.35zm.62-3.93v-.53h-.92v.53zm0 .43h-.92v.5h.9zm.57-.43h1v-.53h-1zm1 .43h-1v.5h1zm-.11 1h-.85v.48l.87-.06h.26a4.85 4.85 0 0 0 -.32-.45z" fill="#383736"/><path d="m377.24 196.09v-1.25a1.76 1.76 0 0 0 0-.38.5.5 0 0 1 0-.16s.05-.07.17-.07l.67.1c.06 0 .1.06.1.07s0 .08-.11.08-.16.18-.16.39v1.22h.83c.07 0 .1.06.1.14v.26c0 .1 0 .14-.1.14h-.83v1.79c.3-.13.58-.29.85-.44a.06.06 0 0 1 .05 0 .05.05 0 0 1 .06.06 1.49 1.49 0 0 1 0 .46c-.32.19-.62.36-.93.51v2.35q0 .6-.9.6h-.3c-.05 0-.06-.05-.06-.14a1.54 1.54 0 0 0 -.17-.39s0-.07.06-.07a1.61 1.61 0 0 0 .4.07c.24 0 .37-.11.37-.3v-1.82l-.63.29c-.08.16-.14.24-.2.24s-.17-.23-.33-.7a6.83 6.83 0 0 0 1.16-.43v-2.06h-.93c-.07 0-.1 0-.1-.14v-.26c0-.08 0-.14.1-.14zm3.93-1.66c.06 0 .09.08.09.11s-.06.09-.17.09a.21.21 0 0 0 -.17.07l-.17.24h1.94a.34.34 0 0 1 .15 0c.12.1.18.18.18.23l-.78 1h1.11c.09 0 .14 0 .14.1v2.82h.36c.06 0 .1 0 .1.13v.27c0 .08 0 .13-.1.13h-2.27a3.05 3.05 0 0 0 .27.51 2.57 2.57 0 0 0 .58.61 3 3 0 0 0 .89.49 4.75 4.75 0 0 0 .46.14h.07a.17.17 0 0 1 -.05.12c-.09.11-.18.21-.25.31s-.06.07-.1.07a1.66 1.66 0 0 1 -.33-.1 4.33 4.33 0 0 1 -1.16-.68 3.2 3.2 0 0 1 -.58-.68l-.15-.25s0 0 0 0a3.1 3.1 0 0 1 -.79 1 4 4 0 0 1 -1.3.67.15.15 0 0 1 -.12 0 1.54 1.54 0 0 0 -.29-.21c-.06-.05-.09-.09-.09-.11s.05-.06.13-.08a4.24 4.24 0 0 0 1.08-.57 2.17 2.17 0 0 0 .65-.7 2.41 2.41 0 0 0 .25-.58h-2.07c-.07 0-.1-.05-.1-.13v-.27c0-.09 0-.13.1-.13h.53v-2.79s0-.06 0-.07a.34.34 0 0 1 -.09-.08 1.38 1.38 0 0 0 -.24-.3c-.06 0-.09-.06-.09-.08s0 0 0 0a3.11 3.11 0 0 0 .52-.29 3.17 3.17 0 0 0 .57-.49 4.63 4.63 0 0 0 .32-.37c.08-.13.17-.28.25-.43a.1.1 0 0 1 .07-.05zm.36 1.77.6-.73h-1.82c-.08.07-.15.14-.22.19a4.88 4.88 0 0 1 -.45.37l-.26.17zm-.69 2.92a6 6 0 0 0 0-.61q0-.12.15-.12h.56c.11 0 .17 0 .17.12a.15.15 0 0 1 -.12.17c-.08 0-.12.06-.12.16s0 .17 0 .24h1.38v-2.4h-3.06v2.4zm.89-2a.41.41 0 0 1 .06.11s0 0-.05 0a.26.26 0 0 0 -.13.08l-.1.19a4.22 4.22 0 0 1 .54.35c.22.17.41.34.57.47a.27.27 0 0 1 0 .07c-.17.25-.26.36-.26.36a7.64 7.64 0 0 0 -.77-.61l-.32-.2-.06.08a5.36 5.36 0 0 1 -.71.73c-.07 0-.11 0-.13-.06l-.28-.24s-.05 0-.05-.06a.09.09 0 0 1 0-.06 1 1 0 0 0 .33-.24 2.79 2.79 0 0 0 .5-.58 7.42 7.42 0 0 0 .39-.68c0-.05 0-.07 0-.07z" fill="#383736"/><path d="m388.53 194.48c.06.05.1.08.1.12a.12.12 0 0 1 -.1.13c-.16 0-.24.1-.28.28s-.16.59-.22.86h2.43c.11 0 .17 0 .17.1l-.28 1.43h1c.11 0 .17 0 .17.09l-.27 1.39h.87a.15.15 0 0 1 .17.17c-.13.8-.27 1.49-.4 2.06a1.54 1.54 0 0 1 -.3.72 1.29 1.29 0 0 1 -.8.18c-.36 0-.55-.06-.55-.17a2.25 2.25 0 0 0 -.15-.4c0-.05 0-.07.07-.07a4 4 0 0 0 .7.07.45.45 0 0 0 .35-.15 12.65 12.65 0 0 0 .47-1.87h-5l-.35.7a12.1 12.1 0 0 1 -1.07 1.58.56.56 0 0 1 -.2 0l-.37-.14c-.05 0-.06 0-.06-.06a.19.19 0 0 1 .07-.17 10.57 10.57 0 0 0 1.6-2.49 12.88 12.88 0 0 0 .72-1.81c.07-.18.13-.39.2-.61h-2.22c-.07 0-.1 0-.1-.13v-.29c0-.08 0-.13.1-.13h2.46c.11-.45.22-.93.32-1.47 0-.11.08-.17.13-.17zm-2.46-.14a8.52 8.52 0 0 1 .66 1c0 .08 0 .14-.05.14a1 1 0 0 1 -.47.19 12.44 12.44 0 0 0 -.6-1.09c0-.06.12-.15.37-.27a.11.11 0 0 1 .09.03zm1.15 5.8a.11.11 0 0 1 .12.11 8.63 8.63 0 0 1 -.37 1.5.28.28 0 0 0 0 .06.48.48 0 0 1 -.21 0 2.52 2.52 0 0 0 -.33-.13.11.11 0 0 1 -.06-.1 4.91 4.91 0 0 0 .43-1.35c0-.07 0-.11.1-.11zm3.44-1.26.26-1h-3.56a.45.45 0 0 0 0 .08c-.12.3-.25.6-.37.88zm-.93-1.48.26-1h-2.12l-.31 1zm-1.5 2.78c.09.28.2.73.33 1.33 0 .05-.17.11-.49.16-.05 0-.07 0-.07 0-.05-.43-.13-.87-.23-1.34 0-.05.14-.11.43-.17.01-.05.02-.02.03.02zm1-.13c.15.31.3.64.43 1 0 .09 0 .13-.05.14a1 1 0 0 1 -.44.19c-.14-.43-.26-.8-.37-1.09 0-.05.12-.15.37-.27.05-.02.07-.02.09.03zm1-.16a6.42 6.42 0 0 1 .63.75c0 .09 0 .14-.06.14a.86.86 0 0 1 -.44.19 10 10 0 0 0 -.56-.86c0-.05.12-.14.37-.26.08 0 .1.02.12.04z" fill="#383736"/><path d="m397.63 194.8s-.05.08-.14.1a.38.38 0 0 0 -.25.13 4.34 4.34 0 0 1 -.42.54h3.18c.11 0 .17 0 .17.09v6.15c0 .06-.06.1-.17.1h-.33c-.09 0-.14 0-.14-.1v-.53h-4.93v.53c0 .06-.06.1-.16.1h-.33c-.09 0-.13 0-.13-.1v-6.15c0-.06 0-.09.13-.09h1.89l.28-.3a3.19 3.19 0 0 0 .46-.76.08.08 0 0 1 .08-.07 5.61 5.61 0 0 1 .81.36zm1.85 3.29v-2h-4.88v2zm0 2.59v-2h-4.88v2z" fill="#383736"/><path d="m404.67 194.45c.07.06.1.09.1.12a.12.12 0 0 1 -.1.13c-.12 0-.2 0-.22.1l-.09.16h2.64.16s.17.18.17.23l-1.27 1.29h2.21c.08 0 .13 0 .13.1v3.05c0 .07-.05.1-.13.1h-.27c-.1 0-.14 0-.14-.1v-.26h-4.61v1.36c0 .27.16.4.5.4h4.44a.44.44 0 0 0 .49-.33 4.39 4.39 0 0 0 .18-.77 1.22 1.22 0 0 0 .46.26.13.13 0 0 1 .11.14 3.11 3.11 0 0 1 -.29.89c-.1.24-.34.37-.75.37h-5c-.51 0-.77-.19-.77-.56v-4.13l-.43.28a.56.56 0 0 1 -.2 0l-.35-.15s-.05 0-.05-.05 0-.05.05-.07a5.55 5.55 0 0 0 1.25-1 4.1 4.1 0 0 0 .56-.7 5.09 5.09 0 0 0 .52-1 .14.14 0 0 1 .11-.07zm.63 2.08 1.05-1h-2.35a3.18 3.18 0 0 1 -.3.4 6.87 6.87 0 0 1 -.58.63zm-2.09 2.35h2.05v-1.82h-2.05zm2.65 0h2v-1.82h-2z" fill="#383736"/><path d="m414 194.48c.06.05.1.08.1.12a.12.12 0 0 1 -.1.13c-.16 0-.24.1-.28.28s-.16.59-.22.86h2.5c.11 0 .17 0 .17.1l-.28 1.43h1c.11 0 .17 0 .17.09l-.27 1.39h.87a.15.15 0 0 1 .17.17c-.13.8-.27 1.49-.4 2.06a1.54 1.54 0 0 1 -.3.72 1.29 1.29 0 0 1 -.8.18c-.36 0-.55-.06-.55-.17a2.25 2.25 0 0 0 -.15-.4c0-.05 0-.07.07-.07a4 4 0 0 0 .7.07.45.45 0 0 0 .35-.15 12.65 12.65 0 0 0 .47-1.87h-5l-.35.7a12.1 12.1 0 0 1 -1.07 1.58.56.56 0 0 1 -.2 0l-.37-.14c-.05 0-.06 0-.06-.06a.19.19 0 0 1 .07-.17 10.57 10.57 0 0 0 1.6-2.49 12.88 12.88 0 0 0 .72-1.81c.07-.18.13-.39.2-.61h-2.32c-.07 0-.1 0-.1-.13v-.29c0-.08 0-.13.1-.13h2.46c.11-.45.22-.93.32-1.47 0-.11.08-.17.13-.17zm-2.46-.14a8.52 8.52 0 0 1 .66 1c0 .08 0 .14-.05.14a1 1 0 0 1 -.47.19 12.44 12.44 0 0 0 -.6-1.09c0-.06.12-.15.37-.27a.11.11 0 0 1 .12.03zm1.15 5.8a.11.11 0 0 1 .12.11 8.63 8.63 0 0 1 -.37 1.5.28.28 0 0 0 0 .06.48.48 0 0 1 -.21 0 2.52 2.52 0 0 0 -.33-.13.11.11 0 0 1 -.06-.1 4.91 4.91 0 0 0 .43-1.35c0-.07 0-.11.1-.11zm3.44-1.26.26-1h-3.56a.45.45 0 0 0 0 .08c-.12.3-.25.6-.37.88zm-.93-1.48.26-1h-2.12l-.31 1zm-1.5 2.78c.09.28.2.73.33 1.33 0 .05-.17.11-.49.16-.05 0-.07 0-.07 0-.05-.43-.13-.87-.23-1.34 0-.05.14-.11.43-.17.04-.05.05-.02.06.02zm1-.13c.15.31.3.64.43 1 0 .09 0 .13-.05.14a1 1 0 0 1 -.44.19c-.14-.43-.26-.8-.37-1.09 0-.05.12-.15.37-.27.08-.02.1-.02.12.03zm1-.16a6.42 6.42 0 0 1 .63.75c0 .09 0 .14-.06.14a.86.86 0 0 1 -.44.19 10 10 0 0 0 -.56-.86c0-.05.12-.14.37-.26.11 0 .13.02.15.04z" fill="#383736"/><path d="m422.44 194.66.69.47-.05.08-.23.32h3c.07 0 .1 0 .1.11v.36c0 .08 0 .12-.1.12h-3v2.16h2.62c.07 0 .1 0 .1.11v.33c0 .09 0 .13-.1.13h-2.62v2.15h3.35a.09.09 0 0 1 .1.1v.33c0 .09 0 .14-.1.14h-7.37c-.07 0-.1-.05-.1-.14v-.33a.09.09 0 0 1 .1-.1h3.39v-2.22h-2.72c-.07 0-.11 0-.11-.13v-.33a.1.1 0 0 1 .11-.11h2.72v-2.16h-3c-.07 0-.1 0-.1-.12v-.33c0-.07 0-.11.1-.11h3.52a9.08 9.08 0 0 0 -.81-.57 5.71 5.71 0 0 0 -.65-.33 1.71 1.71 0 0 1 .26-.37.08.08 0 0 1 .07 0 8.5 8.5 0 0 1 .83.44z" fill="#383736"/><path d="m431.81 198.92a1.11 1.11 0 0 1 -.82.34 1.16 1.16 0 0 1 -1.15-1.15 1.16 1.16 0 0 1 1.16-1.11 1.16 1.16 0 0 1 1.16 1.16 1.11 1.11 0 0 1 -.35.76zm-.22-1.41a.85.85 0 0 0 -.6-.24.79.79 0 0 0 -.59.24.82.82 0 0 0 -.25.6.85.85 0 0 0 .84.84.82.82 0 0 0 .6-.25.79.79 0 0 0 .24-.59.85.85 0 0 0 -.24-.6z" fill="#383736"/><path d="m219.45 256.38h190.68v79.47h-190.68z" fill="#ddd"/><path d="m223.91 244.13v-.4c0-.13 0-.36 0-.7 0 0 0-.07.13-.07l.63.08c.09 0 .13.06.13.09a.14.14 0 0 1 -.08.14.18.18 0 0 0 -.15.19v.67h5.14c.07 0 .1.05.1.13v.27c0 .09 0 .13-.1.13h-5.15a21 21 0 0 1 -.18 2.47 7.33 7.33 0 0 1 -.68 2.22 5.75 5.75 0 0 1 -.84 1.22h-.12l-.56-.2s0-.05 0-.1a5.1 5.1 0 0 0 1-1.23 5.76 5.76 0 0 0 .59-1.68 16.4 16.4 0 0 0 .23-2.7h-1.59c-.06 0-.1 0-.1-.13v-.27c0-.08 0-.13.1-.13zm3.79 1.16s0 .08-.1.1a.3.3 0 0 0 -.17.27 10.18 10.18 0 0 1 -.12 1.48 3.49 3.49 0 0 0 .11.78 3.25 3.25 0 0 0 .32.74 2.82 2.82 0 0 0 .43.55 3.41 3.41 0 0 0 .69.54 3.77 3.77 0 0 0 1 .39s0 .07-.09.11a4.12 4.12 0 0 0 -.28.31c-.05.05-.08.08-.1.08a6.2 6.2 0 0 1 -1-.49 2.44 2.44 0 0 1 -.64-.56 2.89 2.89 0 0 1 -.5-.65 2.62 2.62 0 0 1 -.24-.56 4.45 4.45 0 0 1 -.22.48 3.1 3.1 0 0 1 -.56.8 4.57 4.57 0 0 1 -.58.47 5.11 5.11 0 0 1 -1 .51.14.14 0 0 1 -.11-.08c-.09-.09-.18-.19-.3-.29l-.05-.07a0 0 0 0 1 0 0 3.87 3.87 0 0 0 .8-.37 2.5 2.5 0 0 0 .64-.47 2.7 2.7 0 0 0 .55-.69 3.14 3.14 0 0 0 .35-.8 2.84 2.84 0 0 0 .16-.8 9.75 9.75 0 0 0 .09-1.49 1.86 1.86 0 0 0 0-.33s0-.06.07-.06a2.76 2.76 0 0 1 .85.1zm-1.49.7a.15.15 0 0 1 -.1.13c-.1 0-.15.1-.16.16a6.2 6.2 0 0 1 -.3 1.22c-.09.18-.17.37-.27.55s-.08.06-.1.06l-.49-.12a.07.07 0 0 1 -.08-.07 5.4 5.4 0 0 0 .44-.79 4.92 4.92 0 0 0 .29-1.25s.05-.09.14-.09c.42.09.63.21.63.21zm3.32.08a.24.24 0 0 1 .06.11s0 .06 0 .06a.19.19 0 0 0 -.1.1 7.68 7.68 0 0 1 -.35.88 5.41 5.41 0 0 1 -.57.93c-.07 0-.12 0-.14-.07l-.29-.24s-.06 0-.06-.06a.2.2 0 0 1 0-.07 1 1 0 0 0 .27-.3 4.82 4.82 0 0 0 .4-.75c.09-.22.19-.51.31-.86 0-.05 0-.08 0-.08z" fill="#383736"/><path d="m233.75 249.37a1.52 1.52 0 0 1 -1.17.54 1.64 1.64 0 0 1 -1.38-.68v.62h-.6v-5.6h.6v2.4a1.66 1.66 0 0 1 1.33-.64 1.55 1.55 0 0 1 1.25.56 2 2 0 0 1 .49 1.35 2.08 2.08 0 0 1 -.52 1.45zm-.4-2.43a1.11 1.11 0 0 0 -.87-.38 1.18 1.18 0 0 0 -.91.41 1.47 1.47 0 0 0 -.37 1 1.26 1.26 0 0 0 1.32 1.36 1 1 0 0 0 .82-.39 1.73 1.73 0 0 0 0-2z" fill="#383736"/><path d="m237.56 249.86a1.7 1.7 0 0 1 -.11-.55v-.09a1.91 1.91 0 0 1 -1.46.7 1.31 1.31 0 0 1 -.85-.27.87.87 0 0 1 -.36-.72 1.1 1.1 0 0 1 .64-1.05 4.89 4.89 0 0 1 2-.38.88.88 0 0 0 -1-.93 1 1 0 0 0 -.91.49l-.58-.26a1.59 1.59 0 0 1 1.49-.79 1.47 1.47 0 0 1 1.16.44 1.7 1.7 0 0 1 .39 1.18v1.68a1.59 1.59 0 0 0 .09.55zm-2.19-.93a.36.36 0 0 0 .15.3.65.65 0 0 0 .47.16 1.37 1.37 0 0 0 1-.38 1.55 1.55 0 0 0 .5-1c-1.43.04-2.12.34-2.12.92z" fill="#383736"/><path d="m239.82 246.9a1.15 1.15 0 0 0 -.42.95v2h-.59v-3.85h.59v.7a1.32 1.32 0 0 1 .64-.56 2.15 2.15 0 0 1 .81-.14v.54a1.67 1.67 0 0 0 -1.03.36z" fill="#383736"/><path d="m246.09 242.94c0 .07 0 .12-.08.12s-.08.07-.08.17v.63h2.82c.06 0 .09.06.09.14v.26c0 .09 0 .13-.09.13h-6.11v2.07a10.85 10.85 0 0 1 -.15 2 5.08 5.08 0 0 1 -.39 1.26 3.36 3.36 0 0 1 -.42.72h-.09a3.55 3.55 0 0 0 -.31-.23.16.16 0 0 1 0-.12 3.6 3.6 0 0 0 .43-.86 7.14 7.14 0 0 0 .27-1.19 12 12 0 0 0 .09-1.59v-2.45a.13.13 0 0 1 .13-.14h3.16v-.92c0-.07 0-.11.13-.11.39 0 .6.04.6.11zm1.79 2.33a5.91 5.91 0 0 1 -1.17.34.2.2 0 0 0 0 .11 9.46 9.46 0 0 0 .05 1.1h1.91c.07 0 .1 0 .1.13v.26c0 .1 0 .14-.1.14h-1.84a5.25 5.25 0 0 0 .35 1.14 3.35 3.35 0 0 0 .54.89 2.08 2.08 0 0 0 .5.49.58.58 0 0 0 .22.07s.06 0 .11-.09a7.6 7.6 0 0 0 .29-.76c0-.07 0-.11.06-.11s.05 0 .07.05a.71.71 0 0 0 .22.27.59.59 0 0 1 0 .17 7.83 7.83 0 0 1 -.44 1c-.12.14-.23.22-.33.22a1.33 1.33 0 0 1 -.67-.33 4 4 0 0 1 -.72-.82 4.73 4.73 0 0 1 -.57-1.23 5.84 5.84 0 0 1 -.22-.94h-2v1.74c.6-.13 1.17-.3 1.71-.47h.05a.07.07 0 0 1 .07.06 2.23 2.23 0 0 1 0 .47c-.93.27-1.87.51-2.83.73-.08.16-.14.23-.19.23s-.17-.23-.33-.69q.42-.06 1-.18v-4c0-.07 0-.1.1-.1l.4.16a14.17 14.17 0 0 0 1.86-.12 6.49 6.49 0 0 0 1.67-.43.56.56 0 0 1 .15 0h.09c.27.24.41.39.41.45s0 .14-.1.14l-.2-.1zm-1.09 4.73c.07 0 .1 0 .1.13v.26c0 .08 0 .14-.1.14h-2.93c-.06 0-.09-.06-.09-.14v-.26c0-.09 0-.13.09-.13zm-.67-4.32a12.73 12.73 0 0 1 -1.86.13v1h1.93a10.08 10.08 0 0 1 -.07-1.12z" fill="#383736"/><path d="m252.9 243.18c.07 0 .1.09.1.12a.12.12 0 0 1 -.1.13c-.12 0-.2 0-.22.1l-.09.16h2.66c.09 0 .14 0 .16.05s.17.18.17.23l-1.27 1.29h2.21c.08 0 .13 0 .13.1v3c0 .07 0 .1-.13.1h-.33c-.1 0-.14 0-.14-.1v-.26h-4.61v1.36c0 .27.16.4.5.4h4.44c.28 0 .44-.11.49-.33a4.39 4.39 0 0 0 .18-.77 1.3 1.3 0 0 0 .46.26.13.13 0 0 1 .11.14 3.11 3.11 0 0 1 -.29.89c-.1.24-.34.37-.75.37h-5c-.51 0-.77-.19-.77-.56v-4.2l-.43.28a.4.4 0 0 1 -.2 0l-.34-.14s-.06 0-.06-.05 0 0 .06-.07a6.05 6.05 0 0 0 1.24-1 4.1 4.1 0 0 0 .56-.7 5.09 5.09 0 0 0 .52-1 .14.14 0 0 1 .11-.07zm.63 2.08 1.05-1h-2.31a3.18 3.18 0 0 1 -.3.4 6.87 6.87 0 0 1 -.58.63zm-2.09 2.35h2.05v-1.82h-2.05zm2.65 0h2v-1.82h-2z" fill="#383736"/><path d="m261.72 245.09v-1h1v1zm0 3.41v-1h1v1z" fill="#383736"/><path d="m276.3 245.71a1.42 1.42 0 0 0 -1.43-1 1.55 1.55 0 0 0 -1.23.64 2.71 2.71 0 0 0 -.57 1.77 2.42 2.42 0 0 0 .53 1.66 1.55 1.55 0 0 0 2.08.25 2 2 0 0 0 .55-.81l.54.21a2.07 2.07 0 0 1 -2 1.45 2 2 0 0 1 -1.59-.74 3 3 0 0 1 -.67-2 3.22 3.22 0 0 1 .7-2.12 2.11 2.11 0 0 1 1.69-.84 2 2 0 0 1 2 1.3z" fill="#383736"/><path d="m280.85 245.09v-1h1v1zm0 3.41v-1h1v1z" fill="#383736"/><path d="m287.94 249.92c-1.21 0-1.82-1-1.82-2.89a4.24 4.24 0 0 1 .4-2.07 1.71 1.71 0 0 1 2.84 0 4.24 4.24 0 0 1 .4 2.07c0 1.97-.61 2.89-1.82 2.89zm.91-4.68a1.1 1.1 0 0 0 -1.82 0 3.66 3.66 0 0 0 -.32 1.79 3.74 3.74 0 0 0 .32 1.82 1 1 0 0 0 .91.51 1 1 0 0 0 .91-.51 3.72 3.72 0 0 0 .33-1.82 3.64 3.64 0 0 0 -.33-1.79z" fill="#383736"/><path d="m301.57 249.84v-4.68l-1.94 4.68h-.63l-1.94-4.68v4.68h-.6v-5.58h.82l2 4.92 2-4.92h.81v5.58z" fill="#383736"/><path d="m306.41 245.09v-1h1v1zm0 3.41v-1h1v1z" fill="#383736"/><path d="m313.5 249.92c-1.21 0-1.82-1-1.82-2.89a4.24 4.24 0 0 1 .4-2.07 1.71 1.71 0 0 1 2.84 0 4.24 4.24 0 0 1 .4 2.07c0 1.97-.61 2.89-1.82 2.89zm.91-4.68a1.1 1.1 0 0 0 -1.82 0 3.66 3.66 0 0 0 -.32 1.79 3.74 3.74 0 0 0 .32 1.82 1 1 0 0 0 .91.51 1 1 0 0 0 .91-.51 3.84 3.84 0 0 0 .33-1.82 3.76 3.76 0 0 0 -.33-1.79z" fill="#383736"/><path d="m324.43 247.23v2.61h-.59v-2.61l-2.21-3h.7l1.81 2.48 1.8-2.48h.7z" fill="#383736"/><path d="m330.51 245.09v-1h1v1zm0 3.41v-1h1v1z" fill="#383736"/><path d="m337.61 249.92c-1.22 0-1.82-1-1.82-2.89a4.24 4.24 0 0 1 .4-2.07 1.54 1.54 0 0 1 1.42-.76 1.56 1.56 0 0 1 1.39.8 4.36 4.36 0 0 1 .4 2.07c.03 1.93-.58 2.85-1.79 2.85zm.91-4.68a1 1 0 0 0 -.91-.48 1 1 0 0 0 -.91.48 3.66 3.66 0 0 0 -.32 1.79 3.74 3.74 0 0 0 .32 1.82 1 1 0 0 0 .91.51 1 1 0 0 0 .91-.51 3.86 3.86 0 0 0 .32-1.82 3.78 3.78 0 0 0 -.32-1.79z" fill="#383736"/><path d="m349.81 249.85-2.36-2.7-.74.73v2h-.59v-5.59h.59v2.86l2.9-2.86h.77l-2.52 2.49 2.7 3.1z" fill="#383736"/><path d="m354.47 245.09v-1h1v1zm0 3.41v-1h1v1z" fill="#383736"/><path d="m362.89 246.68a9 9 0 0 1 -.91 1 4.4 4.4 0 0 0 -1.28 1.65h2.57v.56h-3.39a4.12 4.12 0 0 1 .63-1.42 6.55 6.55 0 0 1 1.08-1.19 5.63 5.63 0 0 0 .84-.89 1.28 1.28 0 0 0 .26-.74.76.76 0 0 0 -.27-.6 1.31 1.31 0 0 0 -.87-.26c-.69 0-1.07.45-1.13 1.34l-.56-.22a1.94 1.94 0 0 1 .53-1.22 1.53 1.53 0 0 1 1.16-.45 2 2 0 0 1 1.26.36 1.29 1.29 0 0 1 .47 1.05 1.9 1.9 0 0 1 -.39 1.03z" fill="#383736"/><path d="m366.24 249.92c-1.21 0-1.81-1-1.81-2.89a4.13 4.13 0 0 1 .4-2.07 1.52 1.52 0 0 1 1.41-.76 1.54 1.54 0 0 1 1.42.76 4.24 4.24 0 0 1 .4 2.07c0 1.97-.61 2.89-1.82 2.89zm.92-4.68a1 1 0 0 0 -.92-.48 1 1 0 0 0 -.9.48 3.64 3.64 0 0 0 -.34 1.76 3.72 3.72 0 0 0 .33 1.82 1 1 0 0 0 .9.51 1 1 0 0 0 .92-.51 3.86 3.86 0 0 0 .32-1.82 3.78 3.78 0 0 0 -.31-1.76z" fill="#383736"/></svg>