<svg viewBox="0 0 410.48 329.89" xmlns="http://www.w3.org/2000/svg"><path d="m13 .27c.19 0 .3.07.3.15s-.11.16-.3.28v.8h4.21v1h-8.44v2.37a19.05 19.05 0 0 1 -.27 3.38 18.41 18.41 0 0 1 -.76 2.81l-1.08-.51a17.06 17.06 0 0 0 .76-2.55 18.53 18.53 0 0 0 .27-3.12v-3.38h4.22v-1.32zm2 3.49-.94.24a1.59 1.59 0 0 1 -.13.13c0 .57 0 1.09.05 1.53h2.66v1h-2.56a4.68 4.68 0 0 0 .16.75 4.05 4.05 0 0 0 1 1.72 1.28 1.28 0 0 0 .84.52c.05 0 .09 0 .17-.13a5.78 5.78 0 0 0 .38-1.08l.85.7a5.46 5.46 0 0 1 -.55 1.23 1 1 0 0 1 -.77.51 1.75 1.75 0 0 1 -1-.35 5.23 5.23 0 0 1 -1.16-1.18 5.83 5.83 0 0 1 -.85-2.19c0-.14 0-.3-.07-.46h-2.57v1.69a23.63 23.63 0 0 0 2.39-.76v.9c-.79.34-2 .77-3.71 1.31-.07.16-.19.16-.19.16s-.12-.06-.13-.18l-.24-1c.3-.05.6-.1.89-.17v-5.37l.68.33a16.09 16.09 0 0 0 2.25-.26 16.65 16.65 0 0 0 2.55-.64l.77.76a.29.29 0 0 1 .07.18c0 .07 0 .1-.15.1l-.3-.06a1.52 1.52 0 0 0 -.39.07zm-1 6.08v1h-4.39v-1zm-1.09-5.59c-.79.15-1.6.27-2.4.36v1h2.49c-.07-.38-.09-.84-.09-1.36z" fill="#585757"/><path d="m23.38.56c.14 0 .21.12.21.19s-.12.14-.34.19l-.25.32h3l.27-.13a.57.57 0 0 1 .3.1l.61.39a.21.21 0 0 1 .12.16q0 .18-.27.33l-1.63 1.41h2.77v3.69h-6.93v2.11c0 .31.12.47.37.47h5.87a.72.72 0 0 0 .58-.23 3.52 3.52 0 0 0 .35-1.37l1.08.34a3.31 3.31 0 0 1 -.62 1.8 1.51 1.51 0 0 1 -1.12.44h-6.37c-.81 0-1.22-.3-1.22-.88v-6.16l-.55.35-.95-.85a9.58 9.58 0 0 0 2.06-1.23 12.1 12.1 0 0 0 1.7-1.82zm.61 3 1.24-1.36h-3.15l-.42.41a10.07 10.07 0 0 1 -1.18.91zm-.5.93h-2.25v1.79h2.25zm3.61 0h-2.53v1.79h2.53z" fill="#585757"/><path d="m32.72 2.34v-1c0-.22 0-.48 0-.79l1 .06c.18 0 .28.05.28.12s-.1.23-.29.33v1.28h1.5v.94h-1.5v1.5h1.83v.93h-1.66a8 8 0 0 0 1.52 2.44l-.79.85a13 13 0 0 1 -1.11-2.17c0 .18-.08.35-.12.5a5.85 5.85 0 0 1 -.91 1.93 8.23 8.23 0 0 1 -1.15 1.29l-.84-.76a7.26 7.26 0 0 0 1-1 5.25 5.25 0 0 0 .83-1.53 7 7 0 0 0 .3-1.51h-1.81v-.97h1.91c0-.15 0-.28 0-.42v-1.08h-1.58v-.94zm8-1.69v6.85h-1.11v2c0 .28.12.42.38.42h.1a.35.35 0 0 0 .31-.15 2.33 2.33 0 0 0 .2-.84l1 .28a2.55 2.55 0 0 1 -.44 1.32 1.12 1.12 0 0 1 -.82.32h-.61c-.78 0-1.16-.29-1.16-.84v-2.51h-.73a4 4 0 0 1 -.58 2 4.66 4.66 0 0 1 -2.15 1.5l-.79-.85a4.56 4.56 0 0 0 2.09-1.15 2.77 2.77 0 0 0 .43-1.45h-1v-6.9zm-1 2v-1h-2.82v1zm0 2v-1.13h-2.82v1.08zm0 .88h-2.82v1.03h2.76z" fill="#585757"/><path d="m45.32.45q.21 0 .21.12c0 .08-.09.15-.24.22s-.12.26-.18.38h3.08v.83h-1.54a6 6 0 0 1 .42 1l-.71.14s.06.06.06.09-.08.17-.2.28v.23h2.11v.84h-2.11v.61h1.89v3.34h-1.89v.6h2.11v.87h-2.11v1h-1v-1h-2.22v-.87h2.24v-.6h-1.87v-3.29h1.87v-.61h-2.24v-.84h2.24v-.69l.91.06a8.5 8.5 0 0 0 -.49-1.16h-1.06a11.91 11.91 0 0 1 -1 1.35l-.9-.46a8.87 8.87 0 0 0 1.7-2.66zm-.08 6.11v-.56h-1v.61zm0 .65h-1v.61h1zm1-.65h1v-.56h-1zm1 .65h-1v.61h1zm2.9-6.76q.21 0 .21.12c0 .08-.09.15-.24.22l-.17.38h3.31v.83h-1.74a5.5 5.5 0 0 1 .43 1.11l-.88.2a11.19 11.19 0 0 0 -.54-1.31h-1a12.18 12.18 0 0 1 -.9 1.35l-.89-.46a8.82 8.82 0 0 0 1.49-2.66zm-.35 4.23v4.69c0 .38.12.56.37.56h1.27a1 1 0 0 0 .62-.16 2 2 0 0 0 .36-1l1.08.32a2.26 2.26 0 0 1 -.63 1.36 2 2 0 0 1 -1.16.33h-1.77c-.82 0-1.22-.3-1.22-.89v-6.1h4.22v3.37a1 1 0 0 1 -.69 1 2.83 2.83 0 0 1 -1.05.2l-.42-1.08h.75c.22 0 .33-.15.33-.44v-2.16z" fill="#585757"/><path d="m6.11 49.88h126.36v126.36h-126.36z" fill="#51b5e6"/><path d="m144.45 49.88h126.36v126.36h-126.36z" fill="#5cbda1"/><path d="m284.11 49.88h126.36v126.36h-126.36z" fill="#f5c438"/><g fill="#fff"><path d="m43.85 58.53a.38.38 0 0 0 .16.19.54.54 0 0 0 .25.06.53.53 0 0 0 .23 0 .58.58 0 0 0 .17-.14.56.56 0 0 0 .09-.19.67.67 0 0 0 0-.24.59.59 0 0 0 0-.23.61.61 0 0 0 -.09-.2.43.43 0 0 0 -.17-.13.41.41 0 0 0 -.23 0h-.12-.12a.34.34 0 0 0 -.09.08.41.41 0 0 0 -.07.11v-.66h-.14v1.6h.13zm0-.54a.46.46 0 0 1 .07-.16.43.43 0 0 1 .12-.11.41.41 0 0 1 .19 0 .34.34 0 0 1 .18 0 .63.63 0 0 1 .12.11.44.44 0 0 1 .06.16.82.82 0 0 1 0 .36.44.44 0 0 1 -.06.16.41.41 0 0 1 -.12.11.35.35 0 0 1 -.18.05.41.41 0 0 1 -.19-.05.32.32 0 0 1 -.12-.11.46.46 0 0 1 -.07-.16.82.82 0 0 1 0-.36"/><path d="m45.29 58.88v.07.06h-.29v.12h.22.08l.06-.08.06-.12.5-1.34h-.14l-.36 1-.38-1h-.15l.46 1.16z"/><path d="m47.82 58.62h-.97v-.63h.9v-.13h-.9v-.58h.96v-.13h-1.11v1.6h1.12z"/><path d="m48.09 58.51h.19v.24h-.19z"/><path d="m49.53 58.58a.59.59 0 0 1 -.14.06h-.13a.68.68 0 0 1 -.21 0 .33.33 0 0 1 -.17-.07.35.35 0 0 1 -.11-.13.44.44 0 0 1 0-.21h-.15a.53.53 0 0 0 0 .26.43.43 0 0 0 .13.17.68.68 0 0 0 .21.1 1.09 1.09 0 0 0 .26 0h.24a.54.54 0 0 0 .17-.07.53.53 0 0 0 .11-.09.3.3 0 0 0 .06-.11.32.32 0 0 0 0-.09v-.07a.4.4 0 0 0 0-.17.27.27 0 0 0 -.09-.12.57.57 0 0 0 -.13-.08l-.16-.06-.42-.09h-.1a.18.18 0 0 1 -.07-.05.2.2 0 0 1 -.06-.07.3.3 0 0 1 0-.1.33.33 0 0 1 0-.15.28.28 0 0 1 .09-.1l.12-.05h.16a.45.45 0 0 1 .16 0 .27.27 0 0 1 .14.07.24.24 0 0 1 .09.11.43.43 0 0 1 .05.16h.15a.54.54 0 0 0 -.05-.22.47.47 0 0 0 -.13-.15.57.57 0 0 0 -.19-.1.85.85 0 0 0 -.23 0 .68.68 0 0 0 -.27 0 .43.43 0 0 0 -.17.12.38.38 0 0 0 -.09.15.69.69 0 0 0 0 .13.35.35 0 0 0 0 .16.31.31 0 0 0 .08.11.36.36 0 0 0 .12.08l.2.09.36.09h.12l.1.06a.3.3 0 0 1 .08.08.21.21 0 0 1 0 .12.24.24 0 0 1 0 .15.52.52 0 0 1 -.11.1"/><path d="m51.16 58.14a.88.88 0 0 1 0 .24.44.44 0 0 1 -.1.16.42.42 0 0 1 -.14.09.66.66 0 0 1 -.21 0 .58.58 0 0 1 -.19 0 .38.38 0 0 1 -.15-.09.42.42 0 0 1 -.09-.16.88.88 0 0 1 0-.24v-1h-.16v1a.64.64 0 0 0 0 .24.45.45 0 0 0 .11.19.55.55 0 0 0 .19.14.79.79 0 0 0 .28 0 .81.81 0 0 0 .29 0 .54.54 0 0 0 .31-.33.93.93 0 0 0 0-.24v-1h-.15z"/><path d="m51.77 57.39.94 1.36h.17v-1.6h-.15v1.35h-.01l-.93-1.35h-.17v1.6h.15z"/><path d="m54.73 58.73.16-.06.1-.09a.27.27 0 0 0 .06-.1v-.1-.09a.39.39 0 0 0 -.05-.29.4.4 0 0 0 -.25-.13.31.31 0 0 0 .12 0l.08-.08a.24.24 0 0 0 .06-.11.25.25 0 0 0 0-.12.36.36 0 0 0 0-.19.43.43 0 0 0 -.11-.12.49.49 0 0 0 -.17-.06.62.62 0 0 0 -.19 0h-.68v1.6h.68.22m-.76-1.51h.53q.36 0 .36.3a.3.3 0 0 1 0 .1.22.22 0 0 1 -.07.09l-.11.06h-.16-.55zm0 .7h.53a.54.54 0 0 1 .31.08.27.27 0 0 1 .11.23.35.35 0 0 1 0 .16.32.32 0 0 1 -.1.1.31.31 0 0 1 -.13.06h-.72z"/><path d="m56 58h-.06-.08-.23-.2a.49.49 0 0 0 -.14.11.33.33 0 0 0 0 .19.37.37 0 0 0 0 .15.27.27 0 0 0 .08.1l.12.06a.41.41 0 0 0 .16 0h.14l.11-.05a.22.22 0 0 0 .09-.07l.08-.1s0 .06 0 .08a.14.14 0 0 0 0 .07h.05.18v-.12c-.06 0-.09 0-.09-.08v-.62a.5.5 0 0 0 0-.19.27.27 0 0 0 -.1-.11.35.35 0 0 0 -.14-.06h-.15-.19l-.14.07a.29.29 0 0 0 -.1.12.48.48 0 0 0 0 .18h.14a.23.23 0 0 1 .09-.21.38.38 0 0 1 .22-.06h.12.09a.27.27 0 0 1 .07.08.37.37 0 0 1 0 .12.15.15 0 0 1 -.12.34zm0 .08v.18a.41.41 0 0 1 0 .16.31.31 0 0 1 -.09.11.27.27 0 0 1 -.13.07h-.15-.1a.14.14 0 0 1 -.08 0 .13.13 0 0 1 -.06-.07.24.24 0 0 1 0-.09.17.17 0 0 1 0-.13.29.29 0 0 1 .13-.08h.17.19.07a.09.09 0 0 0 0 0z"/><path d="m56.61 58.08a.41.41 0 0 1 0-.16.33.33 0 0 1 .07-.13l.11-.08a.33.33 0 0 1 .15 0h.14a.39.39 0 0 1 .1.08.36.36 0 0 1 0 .11.59.59 0 0 1 0 .14v.72h.14v-.76a1 1 0 0 0 0-.19.46.46 0 0 0 -.07-.14.3.3 0 0 0 -.13-.09.66.66 0 0 0 -.21 0 .4.4 0 0 0 -.22.06.35.35 0 0 0 -.15.17v-.2h-.14v1.16h.14z"/><path d="m57.82 58.31.23-.19.46.63h.17l-.52-.73.49-.43h-.19l-.64.56v-1h-.14v1.6h.14z"/><path d="m30.57 61.05h-3.38a.37.37 0 0 0 -.37.37v1.13a.36.36 0 0 0 .37.37h3.38a.37.37 0 0 0 .37-.37v-1.13a.38.38 0 0 0 -.37-.37"/><path d="m42.28 63.66a3.28 3.28 0 0 0 -3.28-3.27 3.35 3.35 0 0 0 -1.41.32.38.38 0 0 0 -.37-.32h-1.12a.38.38 0 0 0 -.38.38v6.28a.38.38 0 0 0 .38.37h1.12a.37.37 0 0 0 .37-.37v-3.38a1.41 1.41 0 0 1 2.82 0v3.39a.37.37 0 0 0 .37.37h1.13a.38.38 0 0 0 .37-.37v-3.39z"/><path d="m55.17 60.39a3.52 3.52 0 1 0 3.51 3.52 3.53 3.53 0 0 0 -3.51-3.52m0 5.16a1.64 1.64 0 1 1 1.64-1.64 1.64 1.64 0 0 1 -1.64 1.64"/><path d="m33.94 60.39h-1.13a.38.38 0 0 0 -.37.38v6.28a.38.38 0 0 0 .37.37h1.13a.37.37 0 0 0 .37-.37v-6.28a.37.37 0 0 0 -.37-.38"/><path d="m50.34 60.39h-1.12a.38.38 0 0 0 -.38.38v.33a3.46 3.46 0 0 0 -2.11-.71 3.52 3.52 0 1 0 2.11 6.33v1.64a1.7 1.7 0 0 1 -3.38.3.38.38 0 0 0 -.37-.3h-1.09a.37.37 0 0 0 -.37.42 3.58 3.58 0 0 0 7.14-.42v-7.59a.38.38 0 0 0 -.38-.38m-3.61 5.16a1.64 1.64 0 1 1 1.64-1.64 1.65 1.65 0 0 1 -1.64 1.64"/><path d="m29.63 57.11h-5.24a.38.38 0 0 0 -.38.38v9.56a.37.37 0 0 0 .38.37h1.11a.37.37 0 0 0 .38-.37v-8.05h5.62a1.88 1.88 0 0 0 -1.87-1.88"/><path d="m22.12 65.51a.94.94 0 1 0 .94.94.94.94 0 0 0 -.94-.94"/><path d="m33.71 57.34a.38.38 0 0 0 -.65 0l-.6 1a.38.38 0 0 0 .33.56h1.21a.38.38 0 0 0 .33-.56z"/><path d="m16.05 59a4.22 4.22 0 1 0 3.53 6.49.38.38 0 0 0 -.31-.58h-1.48a.38.38 0 0 0 -.25.09 2.34 2.34 0 0 1 -1.52.57 2.37 2.37 0 0 1 -2.23-1.57h6.06a.38.38 0 0 0 .37-.34c0-.16 0-.31 0-.47a4.23 4.23 0 0 0 -4.17-4.19m-2.26 3.47a2.35 2.35 0 0 1 4.45 0z"/><path d="m182.6 58.53a.33.33 0 0 0 .16.19.49.49 0 0 0 .25.06.56.56 0 0 0 .23 0 .54.54 0 0 0 .16-.14.44.44 0 0 0 .1-.19 1 1 0 0 0 0-.24.85.85 0 0 0 0-.23.47.47 0 0 0 -.1-.2.4.4 0 0 0 -.16-.13.43.43 0 0 0 -.23 0h-.13-.11a.39.39 0 0 0 -.1.08.24.24 0 0 0 -.06.11v-.66h-.14v1.6h.13zm0-.54a.77.77 0 0 1 .07-.16.69.69 0 0 1 .13-.11.36.36 0 0 1 .19 0 .31.31 0 0 1 .17 0 .43.43 0 0 1 .12.11.77.77 0 0 1 .07.16.82.82 0 0 1 0 .36.77.77 0 0 1 -.07.16.32.32 0 0 1 -.12.11.31.31 0 0 1 -.17.05.36.36 0 0 1 -.19-.05.45.45 0 0 1 -.13-.11.77.77 0 0 1 -.07-.16.82.82 0 0 1 0-.36"/><path d="m184 58.88v.07a.21.21 0 0 1 0 .06h-.05-.17v.12h.22a.2.2 0 0 0 .08 0l.06-.08a.67.67 0 0 0 .06-.12l.5-1.34h-.14l-.36 1-.38-1h-.15l.46 1.16z"/><path d="m186.57 58.62h-.96v-.63h.89v-.13h-.89v-.58h.95v-.13h-1.1v1.6h1.11z"/><path d="m186.85 58.51h.19v.24h-.19z"/><path d="m188.29 58.58-.14.06h-.15a.75.75 0 0 1 -.21 0 .29.29 0 0 1 -.16-.07.37.37 0 0 1 -.12-.13.62.62 0 0 1 0-.21h-.16a.68.68 0 0 0 0 .26.55.55 0 0 0 .13.17.68.68 0 0 0 .21.1 1.09 1.09 0 0 0 .26 0h.25l.17-.07.11-.09.06-.11a.29.29 0 0 0 0-.09.23.23 0 0 0 0-.07.4.4 0 0 0 0-.17l-.09-.12-.14-.08-.16-.06-.39-.09h-.09l-.08-.05a.18.18 0 0 1 -.05-.07.16.16 0 0 1 0-.1.33.33 0 0 1 0-.15.28.28 0 0 1 .09-.1l.13-.05h.15a.41.41 0 0 1 .16 0 .23.23 0 0 1 .14.07.36.36 0 0 1 .1.11.42.42 0 0 1 0 .16h.15a.42.42 0 0 0 -.05-.22.37.37 0 0 0 -.13-.15.52.52 0 0 0 -.18-.1.91.91 0 0 0 -.23 0 .74.74 0 0 0 -.28 0 .43.43 0 0 0 -.17.12.28.28 0 0 0 -.08.15.32.32 0 0 0 0 .13.35.35 0 0 0 0 .16.23.23 0 0 0 .08.11l.11.08h.14l.36.09h.11l.11.06a.3.3 0 0 1 .08.08.21.21 0 0 1 0 .12.25.25 0 0 1 -.05.15.47.47 0 0 1 -.1.1"/><path d="m189.91 58.14a.88.88 0 0 1 0 .24.42.42 0 0 1 -.09.16.38.38 0 0 1 -.15.09.68.68 0 0 1 -.4 0 .38.38 0 0 1 -.15-.09.42.42 0 0 1 -.09-.16.88.88 0 0 1 0-.24v-1h-.15v1a.93.93 0 0 0 0 .24.45.45 0 0 0 .11.19.67.67 0 0 0 .19.14 1.07 1.07 0 0 0 .58 0 .67.67 0 0 0 .19-.14.45.45 0 0 0 .11-.19.93.93 0 0 0 0-.24v-1h-.15z"/><path d="m190.52 57.39h.01l.93 1.36h.17v-1.6h-.15v1.35l-.94-1.35h-.17v1.6h.15z"/><path d="m193.48 58.73.16-.06a.45.45 0 0 0 .1-.09.27.27 0 0 0 .06-.1.19.19 0 0 0 0-.1s0-.06 0-.09a.35.35 0 0 0 -.1-.26.41.41 0 0 0 -.24-.13.22.22 0 0 0 .11 0l.09-.08.06-.11a.5.5 0 0 0 0-.12.36.36 0 0 0 -.05-.19.32.32 0 0 0 -.11-.12.44.44 0 0 0 -.16-.06.68.68 0 0 0 -.2 0h-.68v1.6h.68.22m-.75-1.45h.53q.36 0 .36.3a.16.16 0 0 1 0 .1.16.16 0 0 1 -.07.09l-.11.06h-.16-.53zm0 .7h.53a.52.52 0 0 1 .31.08.25.25 0 0 1 .11.23.35.35 0 0 1 0 .16.22.22 0 0 1 -.09.1.35.35 0 0 1 -.14.06h-.69z"/><path d="m194.75 58a.08.08 0 0 1 -.06 0h-.08-.22-.2a.31.31 0 0 0 -.14.11.27.27 0 0 0 -.06.19.37.37 0 0 0 0 .15.22.22 0 0 0 .09.1.23.23 0 0 0 .12.06.39.39 0 0 0 .15 0h.15l.11-.05.09-.07a.86.86 0 0 0 .07-.1v.08.07h.18v-.12a.07.07 0 0 1 -.08-.08v-.62a.36.36 0 0 0 0-.19.22.22 0 0 0 -.1-.11.3.3 0 0 0 -.14-.06h-.15-.18a.52.52 0 0 0 -.15.07.4.4 0 0 0 -.1.12.8.8 0 0 0 0 .18h.14a.29.29 0 0 1 .09-.21.38.38 0 0 1 .22-.06h.12a.29.29 0 0 1 .1 0 .16.16 0 0 1 .06.08.21.21 0 0 1 0 .12.14.14 0 0 1 0 .07.09.09 0 0 1 0 0m.05.08v.18a.29.29 0 0 1 0 .16.44.44 0 0 1 -.08.11.33.33 0 0 1 -.13.07.41.41 0 0 1 -.16 0h-.09a.16.16 0 0 1 -.09 0l-.06-.07a.24.24 0 0 1 0-.09.17.17 0 0 1 .05-.13.35.35 0 0 1 .13-.08h.18.18.07a.06.06 0 0 0 0 0z"/><path d="m195.36 58.08a.41.41 0 0 1 0-.16.54.54 0 0 1 .07-.13l.11-.08a.41.41 0 0 1 .16 0h.14a.24.24 0 0 1 .09.08.37.37 0 0 1 0 .11.61.61 0 0 1 0 .14v.72h.14v-.76a.55.55 0 0 0 0-.19.23.23 0 0 0 -.07-.14.25.25 0 0 0 -.13-.09.56.56 0 0 0 -.2 0 .46.46 0 0 0 -.23.06.29.29 0 0 0 -.14.17v-.2h-.14v1.16h.14z"/><path d="m196.57 58.31.23-.19.46.63h.18l-.53-.73.5-.43h-.19l-.65.56v-1h-.14v1.6h.14z"/><path d="m169.32 61.05h-3.38a.38.38 0 0 0 -.37.37v1.13a.37.37 0 0 0 .37.37h3.38a.36.36 0 0 0 .37-.37v-1.13a.37.37 0 0 0 -.37-.37"/><path d="m181 63.66a3.29 3.29 0 0 0 -3.29-3.27 3.35 3.35 0 0 0 -1.41.32.37.37 0 0 0 -.37-.32h-1.12a.38.38 0 0 0 -.38.38v6.28a.38.38 0 0 0 .38.37h1.19a.38.38 0 0 0 .38-.37v-3.38a1.41 1.41 0 0 1 2.81 0v3.39a.38.38 0 0 0 .38.37h1.12a.38.38 0 0 0 .38-.37v-3.39z"/><path d="m193.92 60.39a3.52 3.52 0 1 0 3.52 3.52 3.52 3.52 0 0 0 -3.52-3.52m0 5.16a1.64 1.64 0 1 1 1.64-1.64 1.65 1.65 0 0 1 -1.64 1.64"/><path d="m172.69 60.39h-1.12a.38.38 0 0 0 -.38.38v6.28a.38.38 0 0 0 .38.37h1.12a.38.38 0 0 0 .38-.37v-6.28a.38.38 0 0 0 -.38-.38"/><path d="m189.1 60.39h-1.1a.37.37 0 0 0 -.37.38v.33a3.46 3.46 0 0 0 -2.11-.71 3.52 3.52 0 1 0 2.11 6.33v1.64a1.71 1.71 0 0 1 -3.39.3.38.38 0 0 0 -.37-.3h-1.13a.38.38 0 0 0 -.38.42 3.58 3.58 0 0 0 7.14-.42v-7.59a.38.38 0 0 0 -.37-.38m-3.61 5.16a1.64 1.64 0 1 1 1.64-1.64 1.64 1.64 0 0 1 -1.64 1.64"/><path d="m168.38 57.11h-5.24a.37.37 0 0 0 -.37.38v9.56a.37.37 0 0 0 .37.37h1.13a.36.36 0 0 0 .37-.37v-8.05h5.63a1.88 1.88 0 0 0 -1.88-1.88"/><path d="m160.88 65.51a.94.94 0 1 0 .93.94.94.94 0 0 0 -.93-.94"/><path d="m172.46 57.34a.38.38 0 0 0 -.65 0l-.6 1a.38.38 0 0 0 .33.56h1.2a.37.37 0 0 0 .32-.56z"/><path d="m154.8 59a4.22 4.22 0 1 0 3.54 6.49.38.38 0 0 0 -.32-.58h-1.47a.38.38 0 0 0 -.25.09 2.34 2.34 0 0 1 -3.75-1h6a.36.36 0 0 0 .37-.34 2.47 2.47 0 0 0 0-.47 4.22 4.22 0 0 0 -4.12-4.19m-2.25 3.47a2.35 2.35 0 0 1 4.45 0z"/><path d="m322.45 58.53a.33.33 0 0 0 .16.19.51.51 0 0 0 .25.06.53.53 0 0 0 .23 0 .58.58 0 0 0 .26-.33 1 1 0 0 0 0-.24.85.85 0 0 0 0-.23.47.47 0 0 0 -.1-.2.34.34 0 0 0 -.16-.13.41.41 0 0 0 -.23 0h-.12a.33.33 0 0 0 -.12 0 .32.32 0 0 0 -.16.19v-.66h-.14v1.6h.13zm0-.54a.44.44 0 0 1 .06-.16.69.69 0 0 1 .13-.11.38.38 0 0 1 .19 0 .29.29 0 0 1 .17 0 .43.43 0 0 1 .12.11.46.46 0 0 1 .07.16.82.82 0 0 1 0 .36.46.46 0 0 1 -.07.16.32.32 0 0 1 -.12.11.29.29 0 0 1 -.17.05.38.38 0 0 1 -.19-.05.45.45 0 0 1 -.13-.11.44.44 0 0 1 -.06-.16.56.56 0 0 1 0-.36"/><path d="m323.9 58.88a.25.25 0 0 0 0 .07v.06h-.06-.17v.12h.22.07a.16.16 0 0 0 .06-.08.67.67 0 0 0 .06-.12l.51-1.34h-.15l-.35 1-.39-1h-.15l.47 1.16z"/><path d="m326.43 58.62h-.97v-.63h.9v-.13h-.9v-.58h.96v-.13h-1.11v1.6h1.12z"/><path d="m326.7 58.51h.19v.24h-.19z"/><path d="m328.14 58.58a.59.59 0 0 1 -.14.06h-.14a.65.65 0 0 1 -.2 0 .29.29 0 0 1 -.17-.07.28.28 0 0 1 -.11-.13.44.44 0 0 1 0-.21h-.15a.53.53 0 0 0 0 .26.58.58 0 0 0 .14.17.54.54 0 0 0 .2.1 1.12 1.12 0 0 0 .27 0h.24l.17-.07.11-.09.06-.11v-.09-.07a.4.4 0 0 0 0-.17.27.27 0 0 0 -.09-.12.57.57 0 0 0 -.13-.08l-.2-.06-.39-.09h-.09l-.08-.05a.18.18 0 0 1 0-.07.3.3 0 0 1 0-.1.33.33 0 0 1 0-.15l.09-.1.13-.05h.15a.51.51 0 0 1 .17 0 .24.24 0 0 1 .13.07.36.36 0 0 1 .1.11.42.42 0 0 1 0 .16h.15a.54.54 0 0 0 0-.22.64.64 0 0 0 -.13-.15.69.69 0 0 0 -.19-.1.85.85 0 0 0 -.23 0 .78.78 0 0 0 -.28 0 .52.52 0 0 0 -.17.12.28.28 0 0 0 -.08.15.32.32 0 0 0 0 .13.35.35 0 0 0 0 .16.23.23 0 0 0 .08.11l.11.08h.14l.39.09h.11l.11.06a.3.3 0 0 1 .08.08.21.21 0 0 1 0 .12.25.25 0 0 1 -.05.15.32.32 0 0 1 -.1.1"/><path d="m329.76 58.14a.88.88 0 0 1 0 .24.42.42 0 0 1 -.09.16.38.38 0 0 1 -.15.09.6.6 0 0 1 -.2 0 .64.64 0 0 1 -.2 0 .46.46 0 0 1 -.15-.09.42.42 0 0 1 -.09-.16.88.88 0 0 1 0-.24v-1h-.15v1a.93.93 0 0 0 0 .24.54.54 0 0 0 .31.33.75.75 0 0 0 .28 0 .85.85 0 0 0 .29 0 .55.55 0 0 0 .19-.14.45.45 0 0 0 .11-.19.64.64 0 0 0 0-.24v-1h-.16z"/><path d="m330.38 57.39.93 1.36h.18v-1.6h-.16v1.35l-.94-1.35h-.17v1.6h.16z"/><path d="m333.34 58.73.15-.06a.53.53 0 0 0 .11-.09l.06-.1a.36.36 0 0 0 0-.1.28.28 0 0 0 0-.09.39.39 0 0 0 -.09-.26.43.43 0 0 0 -.25-.13.22.22 0 0 0 .11 0 .36.36 0 0 0 .15-.19.5.5 0 0 0 0-.12.49.49 0 0 0 0-.19.34.34 0 0 0 -.12-.12.38.38 0 0 0 -.16-.06.65.65 0 0 0 -.2 0h-.68v1.6h.68.23m-.75-1.45h.52c.25 0 .37.1.37.3a.17.17 0 0 1 0 .1.15.15 0 0 1 -.06.09l-.12.06h-.16-.52zm0 .7h.52a.58.58 0 0 1 .32.08.27.27 0 0 1 .11.23.34.34 0 0 1 0 .16.22.22 0 0 1 -.09.1.3.3 0 0 1 -.14.06h-.68z"/><path d="m334.6 58h-.05-.08-.23-.2a.31.31 0 0 0 -.14.11.27.27 0 0 0 -.06.19.37.37 0 0 0 0 .15.22.22 0 0 0 .09.1.23.23 0 0 0 .12.06.39.39 0 0 0 .15 0h.15l.11-.05.09-.07.08-.1a.19.19 0 0 0 0 .08.14.14 0 0 0 0 .07h.05.18v-.12h-.05a.07.07 0 0 1 -.08-.08v-.62a.36.36 0 0 0 0-.19.22.22 0 0 0 -.1-.11.31.31 0 0 0 -.13-.06h-.16-.18l-.15.07a.27.27 0 0 0 -.09.12.48.48 0 0 0 -.05.18h.13a.23.23 0 0 1 .09-.21.36.36 0 0 1 .22-.06h.11a.29.29 0 0 1 .1 0 .27.27 0 0 1 .07.08.37.37 0 0 1 0 .12.15.15 0 0 1 0 .07.1.1 0 0 1 0 0m0 .08v.18a.41.41 0 0 1 0 .16.48.48 0 0 1 -.09.11.33.33 0 0 1 -.13.07.41.41 0 0 1 -.16 0h-.09a.2.2 0 0 1 -.09 0 .18.18 0 0 1 -.05-.07.13.13 0 0 1 0-.09.14.14 0 0 1 .05-.13.24.24 0 0 1 .13-.08h.17.19.06s.05 0 .05 0z"/><path d="m335.21 58.08v-.16a.35.35 0 0 1 .08-.13.31.31 0 0 1 .11-.08.33.33 0 0 1 .15 0h.14a.24.24 0 0 1 .09.08.22.22 0 0 1 .05.11.61.61 0 0 1 0 .14v.72h.17v-.76a.54.54 0 0 0 0-.19.3.3 0 0 0 -.06-.14.34.34 0 0 0 -.14-.09.56.56 0 0 0 -.2 0 .46.46 0 0 0 -.23.06.33.33 0 0 0 -.14.17v-.2h-.14v1.16h.14z"/><path d="m336.42 58.31.23-.19.46.63h.18l-.53-.73.5-.43h-.19l-.65.56v-1h-.14v1.6h.14z"/><path d="m309.17 61.05h-3.37a.38.38 0 0 0 -.38.37v1.13a.37.37 0 0 0 .38.37h3.37a.37.37 0 0 0 .38-.37v-1.13a.38.38 0 0 0 -.38-.37"/><path d="m320.89 63.66a3.28 3.28 0 0 0 -4.69-2.95.38.38 0 0 0 -.37-.32h-1.13a.37.37 0 0 0 -.37.38v6.28a.37.37 0 0 0 .37.37h1.13a.38.38 0 0 0 .37-.37v-3.38a1.41 1.41 0 0 1 2.81 0v3.39a.38.38 0 0 0 .38.37h1.12a.38.38 0 0 0 .38-.37v-3.39z"/><path d="m333.78 60.39a3.52 3.52 0 1 0 3.51 3.52 3.53 3.53 0 0 0 -3.51-3.52m0 5.16a1.64 1.64 0 1 1 1.64-1.64 1.65 1.65 0 0 1 -1.64 1.64"/><path d="m312.55 60.39h-1.13a.37.37 0 0 0 -.37.38v6.28a.37.37 0 0 0 .37.37h1.13a.38.38 0 0 0 .37-.37v-6.28a.38.38 0 0 0 -.37-.38"/><path d="m329 60.39h-1.13a.38.38 0 0 0 -.37.38v.33a3.46 3.46 0 0 0 -2.11-.71 3.52 3.52 0 1 0 2.11 6.33v1.64a1.71 1.71 0 0 1 -3.39.3.38.38 0 0 0 -.37-.3h-1.13a.37.37 0 0 0 -.37.42 3.58 3.58 0 0 0 7.13-.42v-7.59a.37.37 0 0 0 -.37-.38m-3.61 5.16a1.64 1.64 0 1 1 1.61-1.64 1.65 1.65 0 0 1 -1.64 1.64"/><path d="m308.23 57.11h-5.23a.38.38 0 0 0 -.37.38v9.56a.37.37 0 0 0 .38.37h1.12a.37.37 0 0 0 .38-.37v-8.05h5.62a1.88 1.88 0 0 0 -1.88-1.88"/><path d="m300.73 65.51a.94.94 0 1 0 .94.94.94.94 0 0 0 -.94-.94"/><path d="m312.32 57.34a.38.38 0 0 0 -.65 0l-.6 1a.37.37 0 0 0 .32.56h1.2a.38.38 0 0 0 .33-.56z"/><path d="m294.65 59a4.22 4.22 0 1 0 3.54 6.49.38.38 0 0 0 -.32-.58h-1.47a.38.38 0 0 0 -.25.09 2.34 2.34 0 0 1 -3.75-1h6.05a.38.38 0 0 0 .38-.34c0-.16 0-.31 0-.47a4.24 4.24 0 0 0 -4.2-4.16m-2.25 3.47a2.35 2.35 0 0 1 4.45 0z"/></g><path d="m96.6 164.59h-1.29l-.23 2h1.15v.44h-1.23l-.22 1.85h-.44l.21-1.85h-1.5l-.21 1.85h-.44l.21-1.85h-1.28v-.44h1.29l.23-2h-1.1v-.44h1.25l.22-1.85h.44l-.21 1.85h1.53l.21-1.85h.44l-.21 1.85h1.28zm-3.26 0-.23 2h1.53l.23-2z" fill="#060001"/><path d="m100.68 167.23v1.64h-.49v-1.64h-2.86v-.55l2.87-4.37h.48v4.49h1v.43zm-.49-4-2.38 3.6h2.38z" fill="#060001"/><path d="m103 166.64a2.34 2.34 0 0 0 .46 1.39 1.23 1.23 0 0 0 1 .49 1.58 1.58 0 0 0 1.4-.86l.45.22a2.1 2.1 0 0 1 -1.81 1.12 1.75 1.75 0 0 1 -1.45-.66 2.59 2.59 0 0 1 -.51-1.68 2.27 2.27 0 0 1 .6-1.68 1.87 1.87 0 0 1 1.39-.56 1.82 1.82 0 0 1 1.34.55 2.05 2.05 0 0 1 .57 1.51v.21zm2.38-1.47a1.28 1.28 0 0 0 -.87-.38c-.76 0-1.26.49-1.5 1.42h2.99a2.07 2.07 0 0 0 -.6-1.04z" fill="#060001"/><path d="m110.83 168.33a1.78 1.78 0 0 1 -1.35.61 2.26 2.26 0 0 1 -1.87-1.06v1h-.47v-6.54h.47v3a2.29 2.29 0 0 1 1.81-1 1.86 1.86 0 0 1 1.47.7 2.43 2.43 0 0 1 .55 1.6 2.38 2.38 0 0 1 -.61 1.69zm-.3-3a1.51 1.51 0 0 0 -2.38 0 2 2 0 0 0 -.49 1.36 1.67 1.67 0 0 0 1.75 1.79 1.39 1.39 0 0 0 1.09-.52 2 2 0 0 0 .46-1.35 2.09 2.09 0 0 0 -.43-1.27z" fill="#060001"/><path d="m113.56 164.88v4h-.47v-4h-1v-.43h1v-1a1 1 0 0 1 1.14-1.14h.77v.44h-.59a1 1 0 0 0 -.66.17.78.78 0 0 0 -.19.59v.94h1.44v.43z" fill="#060001"/><path d="m117 164.88v4h-.47v-4h-1v-.43h1v-1a1 1 0 0 1 1.14-1.14h.77v.44h-.59a1 1 0 0 0 -.66.17.78.78 0 0 0 -.19.59v.94h1.44v.43z" fill="#060001"/><path d="m122.67 168.36a2 2 0 0 1 -1.47.59 1.87 1.87 0 0 1 -1.88-1.24l.47-.19a1.44 1.44 0 0 0 1.41 1 1.48 1.48 0 0 0 1.12-.48 2 2 0 0 0 .5-1.43 2.05 2.05 0 0 0 -.39-1.32 1.27 1.27 0 0 0 -1-.43 1.47 1.47 0 0 0 -1.35.84h-.46v-3.38h3.38v.43h-2.94v2.35a1.54 1.54 0 0 1 1.35-.68 1.77 1.77 0 0 1 1.38.58 2.75 2.75 0 0 1 -.13 3.36z" fill="#060001"/><path d="m237.6 164.59h-1.29l-.23 2h1.15v.44h-1.23l-.22 1.85h-.44l.21-1.85h-1.53l-.21 1.85h-.44l.21-1.85h-1.28v-.44h1.29l.23-2h-1.15l.05-.44h1.28l.22-1.85h.44l-.21 1.85h1.53l.21-1.85h.44l-.21 1.85h1.28zm-3.26 0-.23 2h1.53l.23-2z" fill="#060001"/><path d="m241.68 167.23v1.64h-.49v-1.64h-2.86v-.55l2.87-4.37h.48v4.49h1v.43zm-.49-4-2.38 3.6h2.38z" fill="#060001"/><path d="m244 166.64a2.34 2.34 0 0 0 .46 1.39 1.23 1.23 0 0 0 1 .49 1.58 1.58 0 0 0 1.4-.86l.45.22a2.1 2.1 0 0 1 -1.81 1.12 1.75 1.75 0 0 1 -1.45-.66 2.59 2.59 0 0 1 -.51-1.68 2.27 2.27 0 0 1 .6-1.68 1.87 1.87 0 0 1 1.39-.56 1.82 1.82 0 0 1 1.34.55 2.05 2.05 0 0 1 .57 1.51v.21zm2.38-1.47a1.28 1.28 0 0 0 -.87-.38c-.76 0-1.26.49-1.5 1.42h2.99a2.07 2.07 0 0 0 -.6-1.04z" fill="#060001"/><path d="m251.84 168.88v-1.06a2 2 0 0 1 -1.84 1.18 1.75 1.75 0 0 1 -1.35-.61 2.34 2.34 0 0 1 -.61-1.69 2.44 2.44 0 0 1 .55-1.61 1.85 1.85 0 0 1 1.47-.69 2.09 2.09 0 0 1 1 .28 2 2 0 0 1 .8.79v-3.08h.46v6.54zm-.53-3.52a1.49 1.49 0 0 0 -1.18-.58 1.45 1.45 0 0 0 -1.18.58 2 2 0 0 0 -.43 1.29 2 2 0 0 0 .48 1.35 1.4 1.4 0 0 0 1.09.51 1.64 1.64 0 0 0 1.2-.51 1.72 1.72 0 0 0 .52-1.28 2.15 2.15 0 0 0 -.5-1.36z" fill="#060001"/><path d="m256.88 168.44a2.16 2.16 0 0 1 -1.48.51 1.79 1.79 0 0 1 -2-1.39l.47-.16a1.37 1.37 0 0 0 1.5 1.11 1.64 1.64 0 0 0 1.14-.4 1.22 1.22 0 0 0 .44-.94 1.39 1.39 0 0 0 -.42-1 1.5 1.5 0 0 0 -1.06-.41h-.71v-.45h.61a1.24 1.24 0 0 0 .92-.46 1.31 1.31 0 0 0 .44-.92 1.22 1.22 0 0 0 -.34-.9 1.38 1.38 0 0 0 -1-.33 1.23 1.23 0 0 0 -1.3 1.06l-.47-.15a1.78 1.78 0 0 1 .57-.94 1.8 1.8 0 0 1 1.2-.41 1.85 1.85 0 0 1 1.32.45 1.6 1.6 0 0 1 .48 1.22 1.72 1.72 0 0 1 -1.17 1.53 1.73 1.73 0 0 1 1.4 1.73 1.62 1.62 0 0 1 -.54 1.25z" fill="#060001"/><path d="m261.94 168.86a1.88 1.88 0 0 1 -.08-.55v-.43a2.62 2.62 0 0 1 -2 1.07 1.57 1.57 0 0 1 -1-.31 1 1 0 0 1 -.4-.8 1.28 1.28 0 0 1 .78-1.21 6.88 6.88 0 0 1 2.57-.45c-.08-.93-.52-1.39-1.33-1.39a1.36 1.36 0 0 0 -1.19.59l-.5-.21a1.86 1.86 0 0 1 1.69-.81 1.63 1.63 0 0 1 1.81 1.87v2.08a1.88 1.88 0 0 0 .08.55zm-1.94-2.05c-.68.2-1 .54-1 1a.57.57 0 0 0 .26.46 1 1 0 0 0 .66.21 1.82 1.82 0 0 0 1.3-.52 2.23 2.23 0 0 0 .64-1.37 7.48 7.48 0 0 0 -1.86.22z" fill="#060001"/><path d="m263.59 166.64a2.34 2.34 0 0 0 .46 1.39 1.23 1.23 0 0 0 1 .49 1.58 1.58 0 0 0 1.4-.86l.45.22a2.1 2.1 0 0 1 -1.85 1.07 1.75 1.75 0 0 1 -1.45-.66 2.59 2.59 0 0 1 -.51-1.68 2.27 2.27 0 0 1 .6-1.68 1.87 1.87 0 0 1 1.39-.56 1.82 1.82 0 0 1 1.34.55 2.05 2.05 0 0 1 .57 1.51v.21zm2.38-1.47a1.28 1.28 0 0 0 -.87-.38c-.76 0-1.26.49-1.5 1.42h2.92a2.07 2.07 0 0 0 -.52-1.04z" fill="#060001"/><path d="m379.28 164.59h-1.28l-.23 2h1.15l-.05.44h-1.15l-.22 1.85h-.44l.21-1.85h-1.53l-.21 1.85h-.44l.21-1.85h-1.3l.05-.44h1.29l.23-2h-1.15l.05-.44h1.15l.22-1.85h.44l-.21 1.85h1.53l.21-1.85h.44l-.21 1.85h1.28zm-3.26 0-.23 2h1.53l.23-2z" fill="#060001"/><path d="m381.24 164.88v4h-.47v-4h-1v-.43h1v-1a1 1 0 0 1 1.14-1.14h.77v.44h-.59a1 1 0 0 0 -.66.17.78.78 0 0 0 -.19.59v.94h1.44v.43z" fill="#060001"/><path d="m384.65 164.88v4h-.47v-4h-1.05v-.43h1.05v-1a1 1 0 0 1 1.14-1.14h.77v.44h-.59a1 1 0 0 0 -.66.17.78.78 0 0 0 -.19.59v.94h1.44v.43z" fill="#060001"/><path d="m388.58 168.94a1.87 1.87 0 0 1 -1.45-.64 2.28 2.28 0 0 1 -.59-1.64 2.38 2.38 0 0 1 .59-1.68 1.91 1.91 0 0 1 1.46-.62 1.94 1.94 0 0 1 1.76 1l-.45.18a1.46 1.46 0 0 0 -1.31-.72 1.41 1.41 0 0 0 -1.09.49 2 2 0 0 0 -.48 1.38 1.85 1.85 0 0 0 .47 1.33 1.41 1.41 0 0 0 1.09.52 1.51 1.51 0 0 0 1.37-1l.46.19a2 2 0 0 1 -1.83 1.21z" fill="#060001"/><path d="m394.8 168.33a1.78 1.78 0 0 1 -1.35.61 2.26 2.26 0 0 1 -1.87-1.06v1h-.47v-6.54h.47v3a2.29 2.29 0 0 1 1.81-1 1.86 1.86 0 0 1 1.47.7 2.43 2.43 0 0 1 .55 1.6 2.38 2.38 0 0 1 -.61 1.69zm-.3-3a1.51 1.51 0 0 0 -2.38 0 2 2 0 0 0 -.49 1.36 1.67 1.67 0 0 0 1.75 1.79 1.39 1.39 0 0 0 1.09-.52 2 2 0 0 0 .46-1.35 2.09 2.09 0 0 0 -.43-1.27z" fill="#060001"/><path d="m400 165.08a8.75 8.75 0 0 1 -1.12 1.14 5.17 5.17 0 0 0 -1.65 2.23h3.22v.43h-4a4.66 4.66 0 0 1 .76-1.59 8.42 8.42 0 0 1 1.3-1.37 8.51 8.51 0 0 0 1.07-1.09 1.63 1.63 0 0 0 .36-1 1 1 0 0 0 -.39-.82 1.78 1.78 0 0 0 -1.17-.36c-.88 0-1.38.54-1.5 1.6l-.47-.18a2.19 2.19 0 0 1 .62-1.35 1.86 1.86 0 0 1 1.35-.5 2.42 2.42 0 0 1 1.49.43 1.42 1.42 0 0 1 .56 1.18 2.09 2.09 0 0 1 -.43 1.25z" fill="#060001"/><path d="m403 164.88v4h-.47v-4h-1.05v-.43h1.05v-1a1 1 0 0 1 1.14-1.14h.77v.44h-.59a1 1 0 0 0 -.66.17.78.78 0 0 0 -.19.59v.94h1.44v.43z" fill="#060001"/><path d="m144.45 203.53h126.36v126.36h-126.36z" fill="#e67a7a"/><path d="m182.18 212.18a.33.33 0 0 0 .16.19.51.51 0 0 0 .48 0 .46.46 0 0 0 .17-.14.56.56 0 0 0 .09-.19.88.88 0 0 0 0-.24.85.85 0 0 0 0-.23.61.61 0 0 0 -.09-.2.55.55 0 0 0 -.17-.13.52.52 0 0 0 -.23 0h-.12-.12l-.1.08a.6.6 0 0 0 -.06.11v-.66h-.15v1.6h.13zm0-.53a.29.29 0 0 1 .07-.16.34.34 0 0 1 .12-.12.38.38 0 0 1 .19 0 .34.34 0 0 1 .18 0 .43.43 0 0 1 .11.12.39.39 0 0 1 .07.16.47.47 0 0 1 0 .17.55.55 0 0 1 0 .18.39.39 0 0 1 -.07.16.43.43 0 0 1 -.11.12.48.48 0 0 1 -.18 0 .53.53 0 0 1 -.19 0 .34.34 0 0 1 -.12-.12.29.29 0 0 1 -.07-.16.55.55 0 0 1 0-.18.47.47 0 0 1 0-.17" fill="#fff"/><path d="m183.63 212.53a.43.43 0 0 1 0 .07.16.16 0 0 1 0 .06h-.06-.17v.12h.22.07a.16.16 0 0 0 .06-.08l.06-.12.51-1.34h-.15l-.35 1-.39-1h-.15l.47 1.16z" fill="#fff"/><path d="m186.16 212.27h-.97v-.63h.9v-.13h-.9v-.58h.96v-.13h-1.11v1.6h1.12z" fill="#fff"/><path d="m186.43 212.17h.19v.24h-.19z" fill="#fff"/><path d="m187.87 212.23a.35.35 0 0 1 -.14.06h-.14-.2l-.17-.07a.3.3 0 0 1 -.11-.14.4.4 0 0 1 0-.2h-.15a.51.51 0 0 0 0 .25.47.47 0 0 0 .14.17.42.42 0 0 0 .2.1 1.1 1.1 0 0 0 .27 0 .88.88 0 0 0 .24 0l.17-.07a.53.53 0 0 0 .11-.09l.06-.1v-.1-.04a.43.43 0 0 0 0-.17.27.27 0 0 0 -.09-.12.57.57 0 0 0 -.13-.08l-.17-.05-.39-.1h-.09l-.08-.05a.18.18 0 0 1 -.05-.07.25.25 0 0 1 0-.1.33.33 0 0 1 0-.15l.09-.09a.31.31 0 0 1 .13-.06h.15a.5.5 0 0 1 .17 0 .33.33 0 0 1 .13.07.35.35 0 0 1 .1.11.42.42 0 0 1 0 .16h.15a.46.46 0 0 0 0-.21.53.53 0 0 0 -.13-.16.66.66 0 0 0 -.19-.09.85.85 0 0 0 -.23 0 .78.78 0 0 0 -.28.05.74.74 0 0 0 -.17.12.45.45 0 0 0 -.1.29.41.41 0 0 0 0 .16.28.28 0 0 0 .08.11.41.41 0 0 0 .11.07h.14l.36.09h.11l.11.05.08.08a.27.27 0 0 1 0 .12.33.33 0 0 1 0 .15.35.35 0 0 1 -.11.1" fill="#fff"/><path d="m189.49 211.79a.83.83 0 0 1 0 .24.35.35 0 0 1 -.09.16.38.38 0 0 1 -.15.09.6.6 0 0 1 -.2 0 .64.64 0 0 1 -.2 0 .46.46 0 0 1 -.15-.09.35.35 0 0 1 -.09-.16.83.83 0 0 1 0-.24v-1h-.15v1a.85.85 0 0 0 0 .23.64.64 0 0 0 .11.2.77.77 0 0 0 .2.13.78.78 0 0 0 .28.05.84.84 0 0 0 .29-.05.7.7 0 0 0 .19-.13.49.49 0 0 0 .11-.2.59.59 0 0 0 0-.23v-1h-.16z" fill="#fff"/><path d="m190.11 211.05.94 1.35h.17v-1.6h-.16v1.36l-.94-1.36h-.17v1.6h.16z" fill="#fff"/><path d="m193.07 212.38.16-.06a.28.28 0 0 0 .1-.09l.06-.1a.3.3 0 0 0 0-.1.25.25 0 0 0 0-.08.4.4 0 0 0 -.09-.27.37.37 0 0 0 -.25-.12.22.22 0 0 0 .11-.05.36.36 0 0 0 .15-.19.43.43 0 0 0 0-.12.53.53 0 0 0 0-.19.34.34 0 0 0 -.12-.12.38.38 0 0 0 -.16-.06.65.65 0 0 0 -.2 0h-.68v1.6h.68a.79.79 0 0 0 .23 0m-.75-1.45h.52c.25 0 .37.1.37.3a.23.23 0 0 1 0 .11.16.16 0 0 1 -.06.08.23.23 0 0 1 -.12.06h-.16-.52zm0 .7h.52a.56.56 0 0 1 .32.08.27.27 0 0 1 .11.23.25.25 0 0 1 0 .16.24.24 0 0 1 -.09.11h-.13-.69z" fill="#fff"/><path d="m194.33 211.69h-.05-.08-.23l-.2.05a.38.38 0 0 0 -.14.11.27.27 0 0 0 -.06.19.33.33 0 0 0 0 .15.28.28 0 0 0 .08.11l.12.06h.15.15.11a.28.28 0 0 0 .09-.07l.08-.1a.19.19 0 0 0 0 .08.14.14 0 0 0 0 .07.1.1 0 0 0 .05 0h.18v-.12a.08.08 0 0 1 -.09-.09v-.62a.38.38 0 0 0 0-.19.21.21 0 0 0 -.1-.11.31.31 0 0 0 -.13-.06h-.16-.18l-.14.07a.23.23 0 0 0 -.1.12.48.48 0 0 0 0 .18h.15a.25.25 0 0 1 .09-.21.36.36 0 0 1 .22-.06h.11.1a.16.16 0 0 1 .07.07.37.37 0 0 1 0 .12.15.15 0 0 1 0 .07.1.1 0 0 1 0 .05m0 .08v.36a.4.4 0 0 1 0 .15.31.31 0 0 1 -.09.11.33.33 0 0 1 -.13.07.4.4 0 0 1 -.15 0h-.1a.2.2 0 0 1 -.08 0 .19.19 0 0 1 -.06-.07.16.16 0 0 1 0-.1.14.14 0 0 1 .05-.13.23.23 0 0 1 .13-.07h.17.19.06a.09.09 0 0 0 .06 0z" fill="#fff"/><path d="m194.94 211.73v-.16a.54.54 0 0 1 .07-.13.5.5 0 0 1 .12-.08.33.33 0 0 1 .15 0 .29.29 0 0 1 .14 0 .16.16 0 0 1 .09.07.22.22 0 0 1 .05.11.61.61 0 0 1 0 .14v.72h.15v-.74a1.11 1.11 0 0 0 0-.19.61.61 0 0 0 -.07-.14.34.34 0 0 0 -.14-.09.56.56 0 0 0 -.2 0 .46.46 0 0 0 -.23.06.38.38 0 0 0 -.14.17v-.2h-.14v1.16h.14z" fill="#fff"/><path d="m196.16 211.96.22-.19.46.63h.18l-.53-.73.5-.43h-.19l-.64.57v-1.01h-.15v1.6h.15z" fill="#fff"/><path d="m168.9 214.7h-3.37a.38.38 0 0 0 -.38.38v1.12a.38.38 0 0 0 .38.38h3.37a.38.38 0 0 0 .38-.38v-1.12a.38.38 0 0 0 -.38-.38" fill="#fff"/><path d="m180.62 217.32a3.29 3.29 0 0 0 -4.69-3 .38.38 0 0 0 -.37-.31h-1.13a.36.36 0 0 0 -.37.37v6.28a.37.37 0 0 0 .37.38h1.13a.38.38 0 0 0 .37-.38v-3.37a1.41 1.41 0 1 1 2.81 0v3.38a.37.37 0 0 0 .38.37h1.12a.37.37 0 0 0 .38-.37v-3.38z" fill="#fff"/><path d="m193.51 214.05a3.52 3.52 0 1 0 3.51 3.51 3.52 3.52 0 0 0 -3.51-3.51m0 5.15a1.64 1.64 0 1 1 1.64-1.64 1.63 1.63 0 0 1 -1.64 1.64" fill="#fff"/><path d="m172.28 214h-1.13a.37.37 0 0 0 -.37.38v6.28a.36.36 0 0 0 .37.37h1.13a.37.37 0 0 0 .37-.37v-6.28a.38.38 0 0 0 -.37-.38" fill="#fff"/><path d="m188.68 214.05h-1.13a.37.37 0 0 0 -.37.37v.33a3.52 3.52 0 1 0 0 5.62v1.63a1.71 1.71 0 0 1 -3.39.31.38.38 0 0 0 -.37-.31h-1.13a.38.38 0 0 0 -.38.42 3.58 3.58 0 0 0 7.14-.42v-7.59a.36.36 0 0 0 -.37-.37m-3.61 5.15a1.64 1.64 0 1 1 1.64-1.64 1.64 1.64 0 0 1 -1.64 1.64" fill="#fff"/><path d="m168 210.76h-5.24a.38.38 0 0 0 -.37.38v9.56a.38.38 0 0 0 .38.38h1.12a.38.38 0 0 0 .38-.38v-8.06h5.62a1.88 1.88 0 0 0 -1.88-1.88" fill="#fff"/><path d="m160.46 219.16a.94.94 0 1 0 .94.94.94.94 0 0 0 -.94-.94" fill="#fff"/><path d="m172.05 211a.38.38 0 0 0 -.65 0l-.6 1a.38.38 0 0 0 .32.57h1.2a.38.38 0 0 0 .33-.57z" fill="#fff"/><path d="m154.39 212.63a4.22 4.22 0 1 0 3.53 6.49.38.38 0 0 0 -.32-.58h-1.47a.38.38 0 0 0 -.25.09 2.29 2.29 0 0 1 -1.52.57 2.36 2.36 0 0 1 -2.23-1.6h6.05a.37.37 0 0 0 .38-.34c0-.15 0-.31 0-.47a4.24 4.24 0 0 0 -4.19-4.16m-2.26 3.47a2.35 2.35 0 0 1 4.45 0z" fill="#fff"/><path d="m234.93 318.24h-1.29l-.23 2h1.15l-.05.44h-1.14l-.23 1.85h-.43l.21-1.85h-1.53l-.21 1.85h-.44l.21-1.85h-1.28l.05-.44h1.28l.23-2h-1.15v-.44h1.15l.22-1.85h.55l-.21 1.85h1.52l.21-1.85h.44l-.2 1.85h1.24zm-3.25 0-.23 2h1.55l.24-2z" fill="#060001"/><path d="m236.9 318.53v4h-.47v-4h-1.05v-.43h1.05v-1a1 1 0 0 1 1.14-1.14h.76v.44h-.58a1 1 0 0 0 -.66.17.78.78 0 0 0 -.19.59v.94h1.43v.43z" fill="#060001"/><path d="m242.77 318.73a9.35 9.35 0 0 1 -1.12 1.15 5.13 5.13 0 0 0 -1.64 2.23h3.21v.43h-3.95a4.66 4.66 0 0 1 .73-1.54 9.24 9.24 0 0 1 1.29-1.38 7.9 7.9 0 0 0 1.07-1.09 1.63 1.63 0 0 0 .36-1 1 1 0 0 0 -.39-.82 1.77 1.77 0 0 0 -1.16-.36c-.88 0-1.38.54-1.5 1.6l-.47-.18a2.19 2.19 0 0 1 .62-1.35 1.84 1.84 0 0 1 1.35-.5 2.41 2.41 0 0 1 1.48.43 1.42 1.42 0 0 1 .56 1.18 2.09 2.09 0 0 1 -.44 1.2z" fill="#060001"/><path d="m247.05 319.32a11.52 11.52 0 0 0 -.33 3.21h-.51a10.69 10.69 0 0 1 .36-3.13 8.05 8.05 0 0 1 1.87-3h-3.95v-.4h4.51v.52a7.12 7.12 0 0 0 -1.95 2.8z" fill="#060001"/><path d="m250.27 320.3a2.34 2.34 0 0 0 .46 1.39 1.23 1.23 0 0 0 1 .49 1.57 1.57 0 0 0 1.39-.86l.45.22a2.1 2.1 0 0 1 -1.84 1.07 1.73 1.73 0 0 1 -1.45-.66 2.59 2.59 0 0 1 -.51-1.68 2.31 2.31 0 0 1 .6-1.69 1.85 1.85 0 0 1 1.39-.56 1.81 1.81 0 0 1 1.33.55 2.09 2.09 0 0 1 .57 1.52v.21zm2.37-1.48a1.26 1.26 0 0 0 -.86-.37c-.76 0-1.26.48-1.5 1.42h2.91a2.11 2.11 0 0 0 -.55-1.05z" fill="#060001"/><path d="m257.05 319.32a11.52 11.52 0 0 0 -.33 3.21h-.51a10.69 10.69 0 0 1 .36-3.13 8.05 8.05 0 0 1 1.87-3h-3.95v-.4h4.51v.52a7.12 7.12 0 0 0 -1.95 2.8z" fill="#060001"/><path d="m261.3 318.53v4h-.47v-4h-1v-.43h1v-1a1 1 0 0 1 1.17-1.1h.77v.44h-.59a1 1 0 0 0 -.66.17.82.82 0 0 0 -.19.59v.94h1.44v.43z" fill="#060001"/><path d="m147.45 188.58c-.3 1-.58 1.78-.86 2.47v6.58h-.47v-5.54a19.19 19.19 0 0 1 -1 1.8l-.35-.27a18.28 18.28 0 0 0 1.26-2.4 19.27 19.27 0 0 0 1-2.79zm6.56 1.33v.39h-6.75v-.39zm-.71 1.41v.39h-5.3v-.39zm0 1.56v.39h-5.3v-.39zm-.15 4.75h-.47v-.7h-4v.7h-.47v-3.19h4.89zm-.47-1.09v-1.71h-4v1.71zm-1.49-7-.39.27a5.55 5.55 0 0 0 -1-1.21l.35-.23a5.25 5.25 0 0 1 1.04 1.19z" fill="#060001"/><path d="m163 188.93v7.82c0 .45-.25.69-.74.69a6.65 6.65 0 0 1 -1.29-.16v-.49a5.88 5.88 0 0 0 1.33.18q.27 0 .27-.39v-2.37h-2.85v3h-.47v-3h-2.77q-.09.67-.24 1.32a9.71 9.71 0 0 1 -.85 2.18l-.39-.23a11 11 0 0 0 .86-2.3 12.21 12.21 0 0 0 .24-2.4v-3.85zm-3.79 4.81v-2.07h-2.68v1.09 1zm0-2.5v-1.88h-2.68v1.88zm.47 0h2.85v-1.88h-2.85zm0 2.5h2.85v-2.07h-2.85z" fill="#060001"/><path d="m169.16 188.46v1.54h3.84v.47h-3.83v1.6h4.83v.47h-4.81v.92a42.6 42.6 0 0 1 4.22 1.73l-.27.39a40.71 40.71 0 0 0 -4-1.59v3.61h-.51v-5.06h-3.78v-.47h3.78v-3.64z" fill="#060001"/><path d="m287.82 189v2.81h-1v1.88h1.18v.39h-1.16v2.15q.67-.24 1.32-.51v.35a20.94 20.94 0 0 1 -3.63 1.28l-.11-.43.62-.16v-3.76h.43v3.69l.9-.27v-4.56h-1.33v-2.86zm-.43 2.42v-2h-1.87v2zm2.56-1.52a9.5 9.5 0 0 0 .52-1.48l.39.11a12.19 12.19 0 0 1 -.46 1.37h3v.39h-2a7.46 7.46 0 0 0 2.27 2.34l-.31.36a7.74 7.74 0 0 1 -2.4-2.7h-.78a7.28 7.28 0 0 1 -.51.88 8.3 8.3 0 0 1 -1.78 1.89l-.35-.31a7.54 7.54 0 0 0 1.81-1.85 7 7 0 0 0 .37-.61h-1.71v-.39zm3.22 3.28v.39h-3l-.58 1.13h3.06a6.06 6.06 0 0 1 -.51 2.48.92.92 0 0 1 -.74.29 8.35 8.35 0 0 1 -1.6-.2v-.43a9.61 9.61 0 0 0 1.6.2.46.46 0 0 0 .41-.21 5.19 5.19 0 0 0 .29-1.73h-3.1l.73-1.53h-1.47v-.39zm-1.21-1.4v.39h-2.66v-.39z" fill="#060001"/><path d="m303.52 192.53h-7.52v2.07a5 5 0 0 1 -.29 1.69 5.41 5.41 0 0 1 -.76 1.34l-.39-.23a5.4 5.4 0 0 0 .76-1.42 5.29 5.29 0 0 0 .21-1.48v-2.36h8zm-4-3.24h3.59v.39h-8v-.39h3.89a2.54 2.54 0 0 0 -.56-.51l.35-.28a2.49 2.49 0 0 1 .71.79zm-1.59 3.71a5.34 5.34 0 0 1 -.23.74h1.95v-1h.47v1h2.77v.43h-2.77v1.09h2.42v.43h-2.42v1.24h3.52v.43h-7.53v-.43h3.54v-1.24h-2.11v-.43h2.11v-1.09h-2.14a7.4 7.4 0 0 1 -1 1.56l-.35-.23a7.79 7.79 0 0 0 1.35-2.7zm1.52-2.33a11.77 11.77 0 0 0 1.88-.92l.39.24a9.6 9.6 0 0 1 -1.7.89c.66.26 1.3.52 1.9.79l-.35.39c-.7-.34-1.41-.65-2.15-.94l-.15.06a17.73 17.73 0 0 1 -2.73.8l-.12-.43a20 20 0 0 0 2.41-.65c-.68-.24-1.38-.47-2.11-.68l.28-.35c.85.25 1.67.52 2.45.8z" fill="#060001"/><path d="m308.44 197.63h-.44v-.7h-2.4v.7h-.47v-4.44h3.31zm-.44-1.13v-2.88h-2.4v2.88zm3.56-7.53v3.24h-4.88v-3.21zm-.47 2.82v-2.39h-3.94v2.39zm1.91 5.84h-.47v-.7h-2.53v.7h-.47v-4.44h3.47zm-.47-1.13v-2.88h-2.53v2.88z" fill="#060001"/><path d="m321.68 192.56a6.63 6.63 0 0 1 -.74 2.5 8.23 8.23 0 0 0 1.22.77l-.23.39a6.62 6.62 0 0 1 -1.28-.74 3.17 3.17 0 0 1 -2.41 1.15 2.62 2.62 0 0 1 -1.69-.51 1.87 1.87 0 0 1 -.65-1.51 1.74 1.74 0 0 1 .46-1.17 5.51 5.51 0 0 1 1.17-1 3.51 3.51 0 0 1 -.78-1.77 1.41 1.41 0 0 1 .47-1.12 1.86 1.86 0 0 1 1.19-.37 1.43 1.43 0 0 1 1 2.47 6.33 6.33 0 0 1 -1.19.92 17.23 17.23 0 0 0 2.33 2.18 6.65 6.65 0 0 0 .64-2.21h-1v-.42h2.11v.42zm-3.87.28q-1.41.89-1.41 1.77a1.42 1.42 0 0 0 .46 1.14 1.85 1.85 0 0 0 1.38.46 2.78 2.78 0 0 0 2-1 16.06 16.06 0 0 1 -2.43-2.37zm.54-3.22a1 1 0 0 0 -1.1 1.07 3 3 0 0 0 .68 1.52 6.19 6.19 0 0 0 1-.73 1.17 1.17 0 0 0 .42-.83.9.9 0 0 0 -1-1.03z" fill="#060001"/><path d="m329 188.58a6.42 6.42 0 0 1 -.64.94h3.1v.48a6.65 6.65 0 0 1 -2.35 2.45 15.31 15.31 0 0 1 -4.09 1.77l-.19-.47a16.78 16.78 0 0 0 3.5-1.38 6.81 6.81 0 0 0 -1.2-1.2l.38-.27a6.39 6.39 0 0 1 1.27 1.21l.23-.15a5.54 5.54 0 0 0 1.86-2h-2.87a6.63 6.63 0 0 1 -.65.58 8.75 8.75 0 0 1 -2.28 1.22l-.23-.43a8.49 8.49 0 0 0 2.17-1.14 5.94 5.94 0 0 0 1.53-1.79zm2 3.21a8.68 8.68 0 0 1 -.7 1h3v.43a7.39 7.39 0 0 1 -2.87 2.6 20.65 20.65 0 0 1 -5 1.88l-.19-.47a23.2 23.2 0 0 0 4.43-1.51 7 7 0 0 0 -1-1.09l.39-.28a7.29 7.29 0 0 1 1 1.13 1.82 1.82 0 0 0 .27-.15 6.3 6.3 0 0 0 2.31-2.11h-2.82a6.1 6.1 0 0 1 -.93.79 11.19 11.19 0 0 1 -2.75 1.36l-.23-.43a10.82 10.82 0 0 0 2.64-1.28 7.29 7.29 0 0 0 1.88-2z" fill="#060001"/><path d="m337.46 189.05v2.7h-1.78l-.39 1.75h2.07a9.8 9.8 0 0 1 -.69 3.52.8.8 0 0 1 -.72.42 5.91 5.91 0 0 1 -1.21-.12v-.51a5.7 5.7 0 0 0 1.25.2c.2 0 .34-.15.46-.43a11 11 0 0 0 .44-2.69h-2.07l.55-2.53h1.63v-1.92h-2.1v-.39zm5.59.2h-4v1h3.59v.39h-3.64v1.06h3.63v.39h-3.63v1.09h4.57v.39h-3a6.08 6.08 0 0 0 .74 1.67 4.77 4.77 0 0 0 .73-.42 4.72 4.72 0 0 0 .82-.66l.36.27a6.24 6.24 0 0 1 -.88.75 4.62 4.62 0 0 1 -.75.45.35.35 0 0 0 .09.11 4.87 4.87 0 0 0 2 1.46l-.23.46a5.15 5.15 0 0 1 -2.05-1.54 7 7 0 0 1 -1.29-2.55h-1.23v3.13c.62-.2 1.21-.41 1.76-.63v.34a19.68 19.68 0 0 1 -3.25 1.18l-.1-.43 1.12-.32v-3.27h-1v-.39h1.1v-4.29h4.45z" fill="#060001"/><path d="m347.2 190.85a10.61 10.61 0 0 1 -1.58 2.42h1.61a9.15 9.15 0 0 1 -.88 2.47 6 6 0 0 0 1.83.84 13.14 13.14 0 0 0 3.13.27c1 0 1.79 0 2.4-.06l-.07.41c-.62.05-1.4.08-2.33.08a12.42 12.42 0 0 1 -3.31-.28 7.66 7.66 0 0 1 -1.89-.9 5.43 5.43 0 0 1 -1.41 1.55l-.23-.35a5.57 5.57 0 0 0 1.35-1.55 8 8 0 0 0 .83-2.07h-1.42l-.3.31-.31-.19a11.55 11.55 0 0 0 1.92-2.54h-2v-.39zm-.7-.67-.39.28a7.12 7.12 0 0 0 -1-1.64l.35-.24a8.22 8.22 0 0 1 1.04 1.6zm3.62-.78v-1h.43v1h2.73v.39h-2.73v.86h2.27v3.24h-2.27v.86h3v.39h-3v1.44h-.43v-1.44h-2.84v-.39h2.84v-.86h-2.12v-3.24h2.11v-.86h-2.68v-.39zm0 2.66v-1h-1.68v1zm0 1.44v-1.05h-1.68v1.05zm.43-1.44h1.84v-1h-1.84zm0 1.44h1.84v-1.05h-1.84z" fill="#060001"/><path d="m355.56 194.87a16.82 16.82 0 0 1 -.66 2.65l-.39-.2a15.91 15.91 0 0 0 .62-2.57zm1.13-6.17a10.53 10.53 0 0 1 -.59 1.45 9.71 9.71 0 0 1 -.6 1.09c.44 0 .88-.05 1.32-.1.18-.35.35-.69.49-1l.43.15a13.48 13.48 0 0 1 -1.05 2 10.42 10.42 0 0 1 -1.1 1.47 15.92 15.92 0 0 0 1.74-.21 6.32 6.32 0 0 0 -.45-.86l.32-.2a11 11 0 0 1 .93 2l-.39.16c-.08-.24-.16-.46-.25-.68a22.91 22.91 0 0 1 -2.67.33l-.12-.43h.34a13.27 13.27 0 0 0 1.24-1.66c.1-.18.22-.36.33-.54a18.3 18.3 0 0 1 -1.83.15l-.12-.39h.39a10.84 10.84 0 0 0 .7-1.25 11.7 11.7 0 0 0 .59-1.48zm-.11 8.43h-.39a21 21 0 0 0 -.12-2.38h.35a18.41 18.41 0 0 1 .16 2.38zm1.47-.59-.39.13a7.86 7.86 0 0 0 -.62-1.92l.35-.15a9.22 9.22 0 0 1 .66 1.94zm2.23.17a16.08 16.08 0 0 1 -2.62.89l-.2-.36a13.71 13.71 0 0 0 2.58-.86zm.11-7.62v-.66h.43v.66h2.82v.35h-2.82v.63h2.27v.35h-4.81v-.35h2.11v-.63h-2.65v-.35zm2.93 1.84v1.56h-5.32v-1.56zm-3.71 1.21v-.86h-1.21v.86zm3.21.86v3.28h-4.34v-3.28zm-.39 1v-.62h-3.56v.62zm0 .94v-.59h-3.56v.59zm0 1v-.66h-3.56v.66zm-2.43-3.8h1.21v-.86h-1.21zm3.75 5.1-.27.36a16.11 16.11 0 0 0 -2.5-.89l.23-.33a19.83 19.83 0 0 1 2.54.86zm-2.14-5.1h1.32v-.86h-1.32z" fill="#060001"/><path d="m373.13 197.63h-.43v-.58h-7.18v.58h-.43v-8.85h8zm-.43-1v-7.5h-7.18v7.5zm-1.6-6.92v1.64h-1.76v.55h3.12v.39h-6.7v-.39h3.15v-.55h-1.79v-1.64zm.54 3.13v3.2h-5.1v-3.2zm-.43 2.81v-2.42h-4.21v2.42zm-.54-4.69v-.86h-3.13v.9zm-.43 2.7v1.44h-2.31v-1.4zm-.39 1.09v-.74h-1.53v.74z" fill="#060001"/><path d="m383.48 190.34v.47h-1.85a7.94 7.94 0 0 1 -1.11 2.73 9.28 9.28 0 0 1 -1 1.23 6.86 6.86 0 0 0 .84.67 13.12 13.12 0 0 0 3.37 1.69l-.31.5a13.63 13.63 0 0 1 -3.47-1.81 6 6 0 0 1 -.81-.67 9.09 9.09 0 0 1 -1.05.85 12.11 12.11 0 0 1 -3.33 1.6l-.27-.43a11.52 11.52 0 0 0 3.2-1.49 9.4 9.4 0 0 0 1.09-.89 6.53 6.53 0 0 1 -.93-1.18 8.8 8.8 0 0 1 -1.19-2.8h-1.94v-.47zm-5.15 3a7.55 7.55 0 0 0 .84 1 8.77 8.77 0 0 0 .85-1.06 7.53 7.53 0 0 0 1.07-2.55h-3.9a8.24 8.24 0 0 0 1.14 2.66zm1.28-3.48-.43.31a6.29 6.29 0 0 0 -1.05-1.44l.39-.28a7 7 0 0 1 1.09 1.46z" fill="#060001"/><path d="m9.36 35a14.37 14.37 0 0 1 -.57 1.68h2.82a11.26 11.26 0 0 1 -1.61 4.71 6.91 6.91 0 0 1 -3.06 2.49l-.2-.43a6 6 0 0 0 2.85-2.36l.23-.36a10.36 10.36 0 0 0 -1.67-1.73l.27-.35a11.7 11.7 0 0 1 1.66 1.57 11.59 11.59 0 0 0 .92-3.1h-2.42q-.15.32-.3.6a9.38 9.38 0 0 1 -1.46 2.13l-.35-.35a12 12 0 0 0 1.53-2.21 12.44 12.44 0 0 0 .93-2.48zm3.64-.15v2.88a26.13 26.13 0 0 1 2.66 2.32l-.32.43a20.7 20.7 0 0 0 -2.34-2.13v5.65h-.47v-9.15z" fill="#060001"/><path d="m25.52 35.67h-7.88v7.33h8v.43h-8v.57h-.47v-8.76h8.35zm-6 3.09-.26.35a10 10 0 0 0 -1.35-1.11l.24-.31a7.35 7.35 0 0 1 1.39 1.07zm.08 1.33a11.45 11.45 0 0 1 -1.33 2.73l-.38-.27a9.82 9.82 0 0 0 1.37-2.7zm.4-3.09-.26.35a9.62 9.62 0 0 0 -1.37-1.09l.24-.31a7.93 7.93 0 0 1 1.39 1.05zm1.49-1c-.18.52-.35 1-.51 1.37h4.26v.39h-2v1h1.75v.39h-1.81v1h1.75v.39h-1.75v1.09h2.22v.37h-4.4v.74h-.43v-4.47c-.24.44-.48.85-.73 1.23l-.33-.23a11.76 11.76 0 0 0 1.49-3.4zm1.29 1.79h-1.78v1h1.8zm0 1.37h-1.78v1h1.8zm0 2.5v-1.1h-1.78v1.09zm.75-4.66-.39.28a5.74 5.74 0 0 0 -.78-1.18l.35-.23a5.72 5.72 0 0 1 .82 1.13z" fill="#060001"/><path d="m148.16 34.85a7.28 7.28 0 0 1 -1.16 1.46v1.83h-.43v-1.42a11.72 11.72 0 0 1 -1.48 1.18l-.27-.35a11.81 11.81 0 0 0 1.73-1.4 8.34 8.34 0 0 0 1.26-1.53zm.62 8a15.2 15.2 0 0 1 -3.31 1.15l-.16-.43a15.8 15.8 0 0 0 3.2-1zm3.59-4.53v4h-5.77v-4zm-.37 1.3v-.86h-5v.86zm0 1.17v-.79h-5v.82zm0 1.21v-.82h-5v.82zm1.83-5.78-3.14.37s0 .05 0 .05a4.48 4.48 0 0 0 1.5 1.15 2.57 2.57 0 0 0 1.09.31q.12 0 .18-.18a3.57 3.57 0 0 0 .17-1.07l.43.15a3 3 0 0 1 -.3 1.29.6.6 0 0 1 -.48.24 2.83 2.83 0 0 1 -1.24-.34 4.8 4.8 0 0 1 -1.68-1.31 1.3 1.3 0 0 1 -.18-.23l-2.37.28v-.4l2.15-.25a4.59 4.59 0 0 1 -.52-1.43h.43a3.34 3.34 0 0 0 .53 1.38l3.37-.4zm-.16 7.37-.19.47a23.44 23.44 0 0 0 -3.28-1l.19-.35a31.08 31.08 0 0 1 3.23.84zm-1.17-8-.27.35a7.6 7.6 0 0 0 -1.25-.74l.23-.32a7.25 7.25 0 0 1 1.24.64z" fill="#060001"/><path d="m156.45 41a10.47 10.47 0 0 1 -1.25 2.11l-.35-.28a7.52 7.52 0 0 0 1.25-2zm.74-5v-1.22h.43v1.22h2.18v.39h-2.18v1.09h1.79v.39h-4v-.39h1.8v-1.14h-2.21v-.34zm2.49 4v.39h-2.11v2.62c0 .53-.24.81-.69.81a2 2 0 0 1 -.82-.16v-.42a2.16 2.16 0 0 0 .86.2c.2 0 .31-.16.31-.47v-2.65h-2.23v-.39zm-.51-1.29v.29h-3.62v-.39zm.16 3.48-.39.27a7.78 7.78 0 0 0 -.73-1.36l.34-.24a7.26 7.26 0 0 1 .78 1.26zm2.34-4.3c0 .36 0 .71-.07 1a9.48 9.48 0 0 0 .84 2.78 6 6 0 0 0 1.61 2l-.31.39a6.07 6.07 0 0 1 -1.55-1.91 8.42 8.42 0 0 1 -.76-2.24 8.57 8.57 0 0 1 -.59 1.75 5.86 5.86 0 0 1 -2.25 2.34l-.2-.39a5.7 5.7 0 0 0 2.05-2.31 8.82 8.82 0 0 0 .76-3.5zm-.58-2.89a11.13 11.13 0 0 1 -.33 1.8h3.06a7.38 7.38 0 0 1 -.74 2.11l-.43-.24a5.13 5.13 0 0 0 .58-1.48h-2.59a8.18 8.18 0 0 1 -.8 1.68l-.32-.27a7.21 7.21 0 0 0 .78-1.67 9.54 9.54 0 0 0 .4-2z" fill="#060001"/><path d="m286.32 41a6 6 0 0 0 .22-.59l.44.12c-.06.17-.11.33-.17.47h3.36v.39h-1.17a3.49 3.49 0 0 1 -.73 1.26c.41.15.83.32 1.26.5l-.2.41c-.5-.22-1-.43-1.43-.58a5.9 5.9 0 0 1 -3.21 1l-.12-.41a5.46 5.46 0 0 0 2.83-.75c-.45-.15-.89-.28-1.32-.38-.12.18-.24.36-.37.52l-.35-.31a7.16 7.16 0 0 0 .8-1.25h-1.62v-.4zm.89-5.55v-.66h.42v.66h1.91v1.13h.79v.42h-.79v1.1h-1.91v.66h2v1.56h-4.44v-1.6h2v-.66h-1.83v-1.06h-.83v-.39h.83v-1.17zm0 4.45v-.78h-1.6v.78zm0-3.32v-.74h-1.41v.74zm0 1.1v-.68h-1.41v.71zm1.29 3.71h-1.86c-.12.24-.23.47-.35.67.5.12 1 .26 1.51.43a2.85 2.85 0 0 0 .7-1.11zm-.87-4.81h1.49v-.74h-1.49zm0 1.1h1.49v-.68h-1.49zm0 2.22h1.56v-.78h-1.56zm3.83-4.9a19.45 19.45 0 0 1 -.46 2h2.47v.39h-.47a11.31 11.31 0 0 1 -.94 3.87l-.13.24a7 7 0 0 0 1.68 2.05l-.32.39a7.7 7.7 0 0 1 -1.62-2 6.37 6.37 0 0 1 -2 2l-.27-.37a5.78 5.78 0 0 0 2-2.1 13.17 13.17 0 0 1 -.86-2.93c-.16.45-.32.86-.48 1.22l-.35-.32a15.15 15.15 0 0 0 .78-2.23 16.73 16.73 0 0 0 .51-2.38zm.22 6.06a11 11 0 0 0 .85-3.6h-1.62a.26.26 0 0 0 0 .11l-.09.3a12.78 12.78 0 0 0 .86 3.13z" fill="#060001"/><path d="m297.41 35a23.78 23.78 0 0 1 -1 2.34v6.66h-.41v-5.82a16.33 16.33 0 0 1 -1.13 1.71l-.35-.27a16.13 16.13 0 0 0 1.39-2.22 15.45 15.45 0 0 0 1.07-2.59zm6.31 8.09v.47h-6.78v-.47zm-.27-6v.43h-6.24v-.52zm-3.79 5.2-.47.19a26.17 26.17 0 0 0 -1-3.83l.36-.23a30.67 30.67 0 0 1 1.11 3.82zm1.34-5.76-.43.32a7.28 7.28 0 0 0 -1.17-1.72l.39-.28a8 8 0 0 1 1.21 1.68zm1.49 1.92a22.18 22.18 0 0 1 -1.1 3.94l-.43-.23a23.48 23.48 0 0 0 1.04-3.87z" fill="#060001"/><path d="m308 39.5h1v-4.29h4.1v.39h-3.67v1h3.24v.4h-3.24v1h3.28v.39h-3.28v1.11h4.22v.39h-2.84a6 6 0 0 0 .67 1.67 5.74 5.74 0 0 0 .69-.43 4.76 4.76 0 0 0 .77-.69l.36.27a5.71 5.71 0 0 1 -.83.77c-.28.2-.52.37-.73.49a.58.58 0 0 0 .11.15 4.4 4.4 0 0 0 1.88 1.47l-.24.43a4.87 4.87 0 0 1 -1.9-1.55 7.36 7.36 0 0 1 -1.21-2.58h-1.15v3.11a13.82 13.82 0 0 0 1.76-.65v.39c-1.2.47-2.27.84-3.2 1.1l-.19-.39c.41-.11.8-.21 1.16-.32v-3.24h-.76v1.11c0 .47-.21.7-.58.7a3.74 3.74 0 0 1 -.55 0v-.43a2 2 0 0 0 .55.08c.09 0 .15-.13.15-.39v-3.76h-.9v6.8h-.43v-6.8h-.82v4.65h-.42v-5h1.25v-1.85h.43v1.84h1.32z" fill="#060001"/><path d="m316.27 40.36a5.22 5.22 0 0 1 -.36 1.91 5.54 5.54 0 0 1 -1.08 1.73l-.35-.33a5 5 0 0 0 1-1.46 4.71 4.71 0 0 0 .36-1.81v-4.65a25 25 0 0 0 6.64-.94l.27.43a26.16 26.16 0 0 1 -6.44.93v1.22h6.32v2.82h-6.32zm0-.58h5.81v-2h-5.81z" fill="#060001"/><path d="m331.69 38.91a6.63 6.63 0 0 1 -.74 2.5 8.23 8.23 0 0 0 1.22.77l-.23.4a7.31 7.31 0 0 1 -1.28-.75 3.15 3.15 0 0 1 -2.41 1.17 2.52 2.52 0 0 1 -1.68-.52 1.84 1.84 0 0 1 -.66-1.51 1.79 1.79 0 0 1 .46-1.17 5.51 5.51 0 0 1 1.17-1 3.6 3.6 0 0 1 -.78-1.77 1.38 1.38 0 0 1 .48-1.12 1.81 1.81 0 0 1 1.18-.37 1.43 1.43 0 0 1 1 2.47 6.33 6.33 0 0 1 -1.19.92 17.23 17.23 0 0 0 2.33 2.18 6.65 6.65 0 0 0 .64-2.21h-1v-.42h2.11v.42zm-3.87.28q-1.41.89-1.41 1.77a1.46 1.46 0 0 0 .46 1.14 1.86 1.86 0 0 0 1.38.47 2.8 2.8 0 0 0 2-1 16.06 16.06 0 0 1 -2.43-2.38zm.55-3.22c-.75 0-1.11.36-1.11 1.07a3.07 3.07 0 0 0 .69 1.52 6.5 6.5 0 0 0 1-.73 1.17 1.17 0 0 0 .42-.83.9.9 0 0 0 -1-1z" fill="#060001"/><path d="m337.75 37.2a8.55 8.55 0 0 1 -1.13 1.57v5.23h-.46v-4.74a15.59 15.59 0 0 1 -1.41 1.22l-.27-.39a11.73 11.73 0 0 0 1.69-1.51 8.83 8.83 0 0 0 1.24-1.66zm-.28-2.15a6.79 6.79 0 0 1 -1.12 1.38 11.4 11.4 0 0 1 -1.56 1.24l-.27-.39a9.37 9.37 0 0 0 1.5-1.2 7 7 0 0 0 1.1-1.3zm6.18 2.81v.43h-2v4.57c0 .64-.3 1-.89 1a5.42 5.42 0 0 1 -1.37-.16v-.5a5.58 5.58 0 0 0 1.41.2c.28 0 .43-.2.43-.55v-4.56h-3.33v-.43zm-.55-2.54v.43h-4.61v-.43z" fill="#060001"/><path d="m349.51 35.28c-.63.16-1.3.29-2 .41v.84h2.49v.39h-2.49v.71h2v2.93h-2v.78h2.1v.39h-2.1v.94q1.22-.15 2.22-.36v.4c-1.55.29-3.26.54-5.15.74l-.08-.43c.91-.08 1.76-.19 2.54-.29v-1h-2.3v-.39h2.3v-.78h-1.95v-2.93h1.95v-.71h-2.46v-.39h2.46v-.77c-.68.12-1.39.22-2.11.3l-.19-.39a38.38 38.38 0 0 0 4.48-.74zm-2.42 3.6v-.88h-1.52v.86zm0 1.29v-.9h-1.52v.9zm.43-1.29h1.48v-.88h-1.52zm0 1.29h1.48v-.9h-1.52zm3.74-2.89v-2.47h.47v2.47h1.64a37.55 37.55 0 0 1 -.33 5.29 1.5 1.5 0 0 1 -.38.85 1.05 1.05 0 0 1 -.65.21 4.58 4.58 0 0 1 -1.18-.18v-.43a5.45 5.45 0 0 0 1.22.19.45.45 0 0 0 .37-.17 1.7 1.7 0 0 0 .25-.76c.16-1.43.25-3 .27-4.61h-1.18a11.57 11.57 0 0 1 -.66 4 5.77 5.77 0 0 1 -1.75 2.33l-.27-.35a5.44 5.44 0 0 0 1.57-2.23 11.42 11.42 0 0 0 .6-3.73h-1.43v-.39z" fill="#060001"/><path d="m357.17 35c-.08.2-.17.38-.25.54a10.51 10.51 0 0 1 1.54 1.46l-.28.35a10.3 10.3 0 0 0 -1.44-1.44 9.87 9.87 0 0 1 -1.14 1.72h2.46v.37h-1.16v1.33h1.51v.39h-1.51v2.87c.57-.12 1.11-.26 1.64-.41v.39a30.65 30.65 0 0 1 -3.78.94l-.16-.47c.64-.1 1.26-.22 1.84-.35v-3h-1.64v-.39h1.64v-1.3h-1v-.2a8.05 8.05 0 0 1 -.62.67l-.31-.28a10.15 10.15 0 0 0 2.26-3.32zm-1.17 7.12-.43.16a9.55 9.55 0 0 0 -.59-1.76l.32-.24a12.8 12.8 0 0 1 .7 1.84zm2.38-1.72a5.53 5.53 0 0 1 -.75 1.8l-.34-.24a5.86 5.86 0 0 0 .69-1.75zm4.33-.86h-1.8a7.79 7.79 0 0 0 .55 1.65 5.85 5.85 0 0 0 1.54-1.26l.24.31a7 7 0 0 1 -1.62 1.33 4.23 4.23 0 0 0 .25.42 4.38 4.38 0 0 0 1.76 1.6l-.24.43a4.81 4.81 0 0 1 -1.79-1.67 8.55 8.55 0 0 1 -1.13-2.81h-1v3.46a10.93 10.93 0 0 0 1.68-.84l.07.47a22.09 22.09 0 0 1 -2.84 1.33l-.24-.47.9-.33v-7.68h3.67zm-.43-2.26v-1.41h-2.81v1.41zm0 1.87v-1.48h-2.81v1.48z" fill="#060001"/><path d="m367.75 37.2a8.55 8.55 0 0 1 -1.13 1.57v5.23h-.46v-4.74a15.59 15.59 0 0 1 -1.41 1.22l-.27-.39a11.73 11.73 0 0 0 1.69-1.51 8.83 8.83 0 0 0 1.24-1.66zm-.28-2.15a6.79 6.79 0 0 1 -1.12 1.38 11.4 11.4 0 0 1 -1.56 1.24l-.27-.39a9.37 9.37 0 0 0 1.5-1.2 7 7 0 0 0 1.1-1.3zm6.18 2.81v.43h-2v4.57c0 .64-.3 1-.89 1a5.42 5.42 0 0 1 -1.37-.16v-.5a5.58 5.58 0 0 0 1.41.2c.28 0 .43-.2.43-.55v-4.56h-3.33v-.43zm-.55-2.54v.43h-4.61v-.43z" fill="#060001"/><path d="m6.11 203.53h126.36v126.36h-126.36z" fill="#f5a938"/><path d="m43.85 212.18a.38.38 0 0 0 .16.19.55.55 0 0 0 .25.07.52.52 0 0 0 .23-.05.46.46 0 0 0 .17-.14.56.56 0 0 0 .09-.19.61.61 0 0 0 0-.24.59.59 0 0 0 0-.23.61.61 0 0 0 -.09-.2.55.55 0 0 0 -.17-.13.52.52 0 0 0 -.23 0h-.12-.12a.73.73 0 0 0 -.09.08l-.07.11v-.66h-.14v1.6h.13zm0-.53a.39.39 0 0 1 .07-.16.34.34 0 0 1 .12-.12.41.41 0 0 1 .19 0 .34.34 0 0 1 .18 0 .46.46 0 0 1 .12.12.38.38 0 0 1 .06.16.47.47 0 0 1 0 .17.55.55 0 0 1 0 .18.38.38 0 0 1 -.06.16.46.46 0 0 1 -.12.12.48.48 0 0 1 -.18 0 .58.58 0 0 1 -.19 0 .34.34 0 0 1 -.12-.12.39.39 0 0 1 -.07-.16.55.55 0 0 1 0-.18.47.47 0 0 1 0-.17" fill="#fff"/><path d="m45.29 212.53v.07a.15.15 0 0 1 0 .06h-.29v.12h.22a.2.2 0 0 0 .08 0l.06-.08a.66.66 0 0 1 .06-.12l.5-1.34h-.14l-.36 1-.38-1h-.15l.46 1.16z" fill="#fff"/><path d="m47.82 212.27h-.97v-.63h.9v-.13h-.9v-.58h.96v-.13h-1.11v1.6h1.12z" fill="#fff"/><path d="m48.09 212.17h.19v.24h-.19z" fill="#fff"/><path d="m49.53 212.23a.35.35 0 0 1 -.14.06h-.13-.21l-.17-.07a.38.38 0 0 1 -.11-.14.4.4 0 0 1 0-.2h-.15a.51.51 0 0 0 0 .25.37.37 0 0 0 .13.17.51.51 0 0 0 .21.1 1.09 1.09 0 0 0 .26 0 .83.83 0 0 0 .24 0 .54.54 0 0 0 .17-.07.53.53 0 0 0 .11-.09.37.37 0 0 0 .06-.1.54.54 0 0 0 0-.1v-.04a.43.43 0 0 0 0-.17.27.27 0 0 0 -.09-.12.57.57 0 0 0 -.13-.08l-.16-.05-.39-.1h-.1a.18.18 0 0 1 -.07-.05.2.2 0 0 1 -.06-.07.25.25 0 0 1 0-.1.33.33 0 0 1 0-.15.2.2 0 0 1 .09-.09.27.27 0 0 1 .12-.06h.16a.44.44 0 0 1 .16 0 .37.37 0 0 1 .14.07.31.31 0 0 1 .09.11.43.43 0 0 1 .05.16h.15a.46.46 0 0 0 -.05-.21.42.42 0 0 0 -.13-.16.56.56 0 0 0 -.19-.09.85.85 0 0 0 -.23 0 .68.68 0 0 0 -.27.05.57.57 0 0 0 -.17.12.6.6 0 0 0 -.09.15.78.78 0 0 0 0 .14.41.41 0 0 0 0 .16.44.44 0 0 0 .08.11.35.35 0 0 0 .12.07h.13l.36.09h.12l.1.05.08.08a.27.27 0 0 1 0 .12.24.24 0 0 1 0 .15.35.35 0 0 1 -.11.1" fill="#fff"/><path d="m51.16 211.79a.83.83 0 0 1 0 .24.37.37 0 0 1 -.1.16.42.42 0 0 1 -.14.09.66.66 0 0 1 -.21 0 .58.58 0 0 1 -.19 0 .38.38 0 0 1 -.15-.09.35.35 0 0 1 -.09-.16.83.83 0 0 1 0-.24v-1h-.16v1a.59.59 0 0 0 0 .23.49.49 0 0 0 .11.2.7.7 0 0 0 .19.13.78.78 0 0 0 .28.05.79.79 0 0 0 .29-.05.77.77 0 0 0 .2-.13.64.64 0 0 0 .11-.2.85.85 0 0 0 0-.23v-1h-.15z" fill="#fff"/><path d="m51.77 211.05.94 1.35h.17v-1.6h-.15v1.36h-.01l-.93-1.36h-.17v1.6h.15z" fill="#fff"/><path d="m54.73 212.38.16-.06a.28.28 0 0 0 .1-.09.21.21 0 0 0 .06-.1v-.1-.03a.4.4 0 0 0 -.09-.27.35.35 0 0 0 -.25-.12.31.31 0 0 0 .12-.05l.08-.08a.24.24 0 0 0 .06-.11.23.23 0 0 0 0-.12.38.38 0 0 0 0-.19.43.43 0 0 0 -.11-.12.49.49 0 0 0 -.17-.06.62.62 0 0 0 -.19 0h-.68v1.6h.68a.75.75 0 0 0 .22 0m-.72-1.55h.53q.36 0 .36.3a.43.43 0 0 1 0 .11.27.27 0 0 1 -.07.08.24.24 0 0 1 -.11.06h-.16-.55zm0 .7h.53a.54.54 0 0 1 .31.08.27.27 0 0 1 .11.23.35.35 0 0 1 0 .16.36.36 0 0 1 -.1.11h-.13-.72z" fill="#fff"/><path d="m56 211.69h-.06-.08-.23l-.2.05a.49.49 0 0 0 -.14.11.39.39 0 0 0 0 .34.44.44 0 0 0 .08.11l.12.06h.16.14.11a.16.16 0 0 0 .09-.07l.08-.1s0 .06 0 .08a.14.14 0 0 0 0 .07h.05.18v-.12a.08.08 0 0 1 -.09-.09v-.62a.54.54 0 0 0 0-.19.36.36 0 0 0 -.1-.11.35.35 0 0 0 -.14-.06h-.15-.19l-.14.07a.29.29 0 0 0 -.1.12.48.48 0 0 0 0 .18h.14a.25.25 0 0 1 .09-.21.38.38 0 0 1 .22-.06h.12a.25.25 0 0 1 .09 0 .16.16 0 0 1 .07.07.37.37 0 0 1 0 .12.15.15 0 0 1 0 .07v.05m0 .08v.36a.4.4 0 0 1 0 .15.31.31 0 0 1 -.09.11.27.27 0 0 1 -.13.07.4.4 0 0 1 -.15 0h-.1a.2.2 0 0 1 -.08 0 .19.19 0 0 1 -.06-.07.3.3 0 0 1 0-.1.17.17 0 0 1 0-.13.27.27 0 0 1 .13-.07h.17.19a.1.1 0 0 0 0 0z" fill="#fff"/><path d="m56.61 211.73a.41.41 0 0 1 0-.16.33.33 0 0 1 .07-.13l.11-.08a.33.33 0 0 1 .15 0 .26.26 0 0 1 .14 0 .23.23 0 0 1 .1.07.36.36 0 0 1 0 .11.59.59 0 0 1 0 .14v.72h.14v-.74a1.11 1.11 0 0 0 0-.19.61.61 0 0 0 -.07-.14.3.3 0 0 0 -.13-.09.66.66 0 0 0 -.21 0 .4.4 0 0 0 -.37.23v-.2h-.14v1.16h.14z" fill="#fff"/><path d="m57.82 211.96.23-.19.46.63h.17l-.52-.73.49-.43h-.19l-.64.57v-1.01h-.14v1.6h.14z" fill="#fff"/><path d="m30.57 214.7h-3.38a.37.37 0 0 0 -.37.38v1.12a.37.37 0 0 0 .37.38h3.38a.38.38 0 0 0 .37-.38v-1.12a.38.38 0 0 0 -.37-.38" fill="#fff"/><path d="m42.28 217.32a3.27 3.27 0 0 0 -3.28-3.27 3.34 3.34 0 0 0 -1.41.31.37.37 0 0 0 -.37-.31h-1.12a.37.37 0 0 0 -.38.37v6.28a.38.38 0 0 0 .38.38h1.12a.37.37 0 0 0 .37-.38v-3.37a1.41 1.41 0 1 1 2.82 0v3.38a.36.36 0 0 0 .37.37h1.13a.37.37 0 0 0 .37-.37v-3.38z" fill="#fff"/><path d="m55.17 214.05a3.52 3.52 0 1 0 3.51 3.51 3.52 3.52 0 0 0 -3.51-3.51m0 5.15a1.64 1.64 0 1 1 1.64-1.64 1.63 1.63 0 0 1 -1.64 1.64" fill="#fff"/><path d="m33.94 214h-1.13a.38.38 0 0 0 -.37.38v6.28a.37.37 0 0 0 .37.37h1.13a.36.36 0 0 0 .37-.37v-6.28a.37.37 0 0 0 -.37-.38" fill="#fff"/><path d="m50.34 214.05h-1.12a.37.37 0 0 0 -.38.37v.33a3.52 3.52 0 1 0 0 5.62v1.63a1.7 1.7 0 0 1 -3.38.31.38.38 0 0 0 -.37-.31h-1.09a.38.38 0 0 0 -.37.42 3.58 3.58 0 0 0 7.14-.42v-7.59a.37.37 0 0 0 -.38-.37m-3.61 5.15a1.64 1.64 0 1 1 1.64-1.64 1.64 1.64 0 0 1 -1.64 1.64" fill="#fff"/><path d="m29.63 210.76h-5.24a.38.38 0 0 0 -.38.38v9.56a.38.38 0 0 0 .38.38h1.11a.38.38 0 0 0 .38-.38v-8.06h5.62a1.88 1.88 0 0 0 -1.87-1.88" fill="#fff"/><path d="m22.12 219.16a.94.94 0 1 0 .94.94.94.94 0 0 0 -.94-.94" fill="#fff"/><path d="m33.71 211a.38.38 0 0 0 -.65 0l-.6 1a.38.38 0 0 0 .33.57h1.21a.38.38 0 0 0 .33-.57z" fill="#fff"/><path d="m16.05 212.63a4.22 4.22 0 1 0 3.53 6.49.38.38 0 0 0 -.31-.58h-1.48a.38.38 0 0 0 -.25.09 2.29 2.29 0 0 1 -1.52.57 2.37 2.37 0 0 1 -2.23-1.6h6.06a.37.37 0 0 0 .37-.34c0-.15 0-.31 0-.47a4.24 4.24 0 0 0 -4.19-4.16m-2.26 3.47a2.35 2.35 0 0 1 4.45 0z" fill="#fff"/><path d="m96.6 318.24h-1.29l-.23 2h1.15v.44h-1.23l-.22 1.85h-.44l.21-1.85h-1.5l-.21 1.85h-.44l.21-1.85h-1.28v-.44h1.29l.23-2h-1.1v-.44h1.25l.22-1.85h.44l-.21 1.85h1.53l.21-1.85h.44l-.21 1.85h1.28zm-3.26 0-.23 2h1.53l.23-2z" fill="#060001"/><path d="m98.56 318.53v4h-.47v-4h-1.09v-.43h1v-1a1 1 0 0 1 1.23-1.1h.77v.44h-.59a1 1 0 0 0 -.66.17.78.78 0 0 0 -.19.59v.94h1.44v.43z" fill="#060001"/><path d="m102 318.53v4h-.47v-4h-1v-.43h1v-1a1 1 0 0 1 1.14-1.14h.77v.44h-.59a1 1 0 0 0 -.66.17.78.78 0 0 0 -.19.59v.94h1.44v.43z" fill="#060001"/><path d="m107.3 322.52a1.88 1.88 0 0 1 -.08-.55v-.43a2.62 2.62 0 0 1 -2 1.07 1.57 1.57 0 0 1 -1-.31 1 1 0 0 1 -.4-.8 1.28 1.28 0 0 1 .78-1.21 6.68 6.68 0 0 1 2.57-.45c-.08-.93-.52-1.4-1.33-1.4a1.35 1.35 0 0 0 -1.19.6l-.5-.22a1.86 1.86 0 0 1 1.69-.81 1.64 1.64 0 0 1 1.81 1.88v2.11a1.88 1.88 0 0 0 .08.55zm-1.94-2c-.68.2-1 .54-1 1a.57.57 0 0 0 .26.46 1 1 0 0 0 .66.21 1.82 1.82 0 0 0 1.3-.52 2.23 2.23 0 0 0 .64-1.37 7.48 7.48 0 0 0 -1.86.17z" fill="#060001"/><path d="m109 320.3a2.34 2.34 0 0 0 .46 1.39 1.23 1.23 0 0 0 1 .49 1.58 1.58 0 0 0 1.4-.86l.45.22a2.1 2.1 0 0 1 -1.85 1.07 1.75 1.75 0 0 1 -1.46-.61 2.59 2.59 0 0 1 -.51-1.68 2.31 2.31 0 0 1 .6-1.69 1.87 1.87 0 0 1 1.39-.56 1.82 1.82 0 0 1 1.34.55 2.09 2.09 0 0 1 .57 1.52v.21zm2.38-1.48a1.26 1.26 0 0 0 -.87-.37c-.76 0-1.26.48-1.5 1.42h2.92a2.11 2.11 0 0 0 -.6-1.05z" fill="#060001"/><path d="m116.85 322.1a2.16 2.16 0 0 1 -1.48.51 1.79 1.79 0 0 1 -2-1.39l.47-.16a1.37 1.37 0 0 0 1.5 1.11 1.64 1.64 0 0 0 1.14-.4 1.22 1.22 0 0 0 .44-.94 1.39 1.39 0 0 0 -.42-1 1.46 1.46 0 0 0 -1.06-.42h-.71v-.41h.61a1.28 1.28 0 0 0 .92-.46 1.35 1.35 0 0 0 .44-.93 1.22 1.22 0 0 0 -.34-.9 1.38 1.38 0 0 0 -1-.33 1.23 1.23 0 0 0 -1.3 1.06l-.47-.15a1.78 1.78 0 0 1 .57-.94 1.8 1.8 0 0 1 1.2-.41 1.85 1.85 0 0 1 1.32.45 1.6 1.6 0 0 1 .48 1.22 1.72 1.72 0 0 1 -1.17 1.53 1.74 1.74 0 0 1 1.4 1.74 1.62 1.62 0 0 1 -.54 1.22z" fill="#060001"/><path d="m122.35 322.1a2.16 2.16 0 0 1 -1.48.51 1.79 1.79 0 0 1 -2-1.39l.47-.16a1.37 1.37 0 0 0 1.5 1.11 1.64 1.64 0 0 0 1.14-.4 1.22 1.22 0 0 0 .44-.94 1.39 1.39 0 0 0 -.42-1 1.46 1.46 0 0 0 -1.06-.42h-.71v-.41h.61a1.28 1.28 0 0 0 .92-.46 1.35 1.35 0 0 0 .44-.93 1.22 1.22 0 0 0 -.34-.9 1.38 1.38 0 0 0 -1-.33 1.23 1.23 0 0 0 -1.3 1.06l-.47-.15a1.78 1.78 0 0 1 .57-.94 1.8 1.8 0 0 1 1.2-.41 1.85 1.85 0 0 1 1.32.45 1.6 1.6 0 0 1 .48 1.22 1.72 1.72 0 0 1 -1.17 1.53 1.74 1.74 0 0 1 1.4 1.74 1.62 1.62 0 0 1 -.54 1.22z" fill="#060001"/><path d="m9.78 189.44v.39h-1.33v2.17h1.13v.39h-1.13v2.64c.47-.16.9-.32 1.29-.49l.08.39a22.74 22.74 0 0 1 -3.13 1.17l-.19-.47c.54-.15 1-.3 1.52-.46v-2.78h-1.29v-.39h1.27v-2.19h-1.39v-.39zm5.1-.47v4.61h-2.17v1.33h2.17v.39h-2.17v1.51h2.92v.39h-6.63v-.39h3.28v-1.51h-2.19v-.39h2.19v-1.33h-2.07v-4.58zm-2.6 2.15v-1.76h-1.64v1.76zm0 2.07v-1.68h-1.64v1.68zm.43-2.07h1.75v-1.76h-1.75zm0 2.07h1.75v-1.68h-1.75z" fill="#060001"/><path d="m18.37 195.46a8.88 8.88 0 0 1 -1.44 2.06l-.36-.32a7.54 7.54 0 0 0 1.43-1.94zm1.88-6.46v5.9h-3.09v-5.9zm-.43 1.84v-1.45h-2.23v1.45zm0 1.8v-1.44h-2.23v1.41zm0 1.87v-1.51h-2.23v1.48zm.74 2.53-.39.27a7.68 7.68 0 0 0 -1.25-1.78l.35-.24a8.41 8.41 0 0 1 1.29 1.71zm3.16-6.12v-2.46h.43v2.46h1.52v.39h-1.52v5.47c0 .45-.26.69-.78.69a6.34 6.34 0 0 1 -1.41-.16v-.43a5.5 5.5 0 0 0 1.44.2c.23 0 .35-.13.35-.38v-5.39h-.17a12.55 12.55 0 0 1 -.91 2.22 11.17 11.17 0 0 1 -1.84 2.47l-.31-.31a10.68 10.68 0 0 0 1.66-2.27 11.42 11.42 0 0 0 .9-2.1h-2.33v-.39z" fill="#060001"/><path d="m284.12 203.52h126.36v126.36h-126.36z" fill="#f0ede1"/><path d="m377.27 317.56h-1.27l-.23 2h1.15v.44h-1.22l-.22 1.85h-.48l.21-1.85h-1.53l-.21 1.85h-.44l.21-1.85h-1.24l.05-.44h1.29l.23-2h-1.15l.05-.44h1.15l.22-1.85h.44l-.21 1.85h1.53l.21-1.85h.44l-.21 1.85h1.28zm-3.26 0-.23 2h1.53l.23-2z" fill="#060001"/><path d="m379.23 317.85v4h-.47v-4h-1.05v-.43h1.05v-1a1 1 0 0 1 1.14-1.14h.77v.44h-.59a1 1 0 0 0 -.66.17.78.78 0 0 0 -.19.59v.94h1.44v.43z" fill="#060001"/><path d="m385.23 321a1.8 1.8 0 0 1 -1.66.88 1.78 1.78 0 0 1 -1.66-.88 5 5 0 0 1 -.48-2.48 5.06 5.06 0 0 1 .48-2.48 1.8 1.8 0 0 1 1.66-.88 1.82 1.82 0 0 1 1.66.88 5.06 5.06 0 0 1 .48 2.48 5 5 0 0 1 -.48 2.48zm-.43-4.73a1.35 1.35 0 0 0 -1.23-.67 1.33 1.33 0 0 0 -1.23.67 4.44 4.44 0 0 0 -.43 2.25 4.39 4.39 0 0 0 .43 2.25 1.31 1.31 0 0 0 1.23.67 1.37 1.37 0 0 0 1.25-.69 6.18 6.18 0 0 0 0-4.48z" fill="#060001"/><path d="m387.1 319.62a2.34 2.34 0 0 0 .46 1.39 1.23 1.23 0 0 0 1 .49 1.58 1.58 0 0 0 1.4-.86l.45.22a2.1 2.1 0 0 1 -1.85 1.07 1.75 1.75 0 0 1 -1.45-.66 2.59 2.59 0 0 1 -.51-1.68 2.31 2.31 0 0 1 .6-1.69 1.87 1.87 0 0 1 1.39-.56 1.82 1.82 0 0 1 1.34.55 2.09 2.09 0 0 1 .57 1.52v.21zm2.38-1.48a1.26 1.26 0 0 0 -.87-.37c-.76 0-1.26.48-1.5 1.42h2.89a2.11 2.11 0 0 0 -.52-1.05z" fill="#060001"/><path d="m391.6 319.62a2.34 2.34 0 0 0 .46 1.39 1.23 1.23 0 0 0 1 .49 1.58 1.58 0 0 0 1.4-.86l.45.22a2.1 2.1 0 0 1 -1.85 1.07 1.75 1.75 0 0 1 -1.45-.66 2.59 2.59 0 0 1 -.51-1.68 2.31 2.31 0 0 1 .6-1.69 1.87 1.87 0 0 1 1.39-.56 1.82 1.82 0 0 1 1.34.55 2.09 2.09 0 0 1 .57 1.52v.21zm2.38-1.48a1.26 1.26 0 0 0 -.87-.37c-.76 0-1.26.48-1.5 1.42h2.92a2.11 2.11 0 0 0 -.53-1.05z" fill="#060001"/><path d="m396.1 319.62a2.34 2.34 0 0 0 .46 1.39 1.23 1.23 0 0 0 1 .49 1.58 1.58 0 0 0 1.4-.86l.45.22a2.1 2.1 0 0 1 -1.85 1.07 1.75 1.75 0 0 1 -1.45-.66 2.59 2.59 0 0 1 -.51-1.68 2.31 2.31 0 0 1 .6-1.69 1.87 1.87 0 0 1 1.39-.56 1.82 1.82 0 0 1 1.34.55 2.09 2.09 0 0 1 .57 1.52v.21zm2.38-1.48a1.26 1.26 0 0 0 -.87-.37c-.76 0-1.26.48-1.5 1.42h2.89a2.11 2.11 0 0 0 -.52-1.05z" fill="#060001"/><path d="m404.11 318.05a9.35 9.35 0 0 1 -1.11 1.15 5.17 5.17 0 0 0 -1.65 2.23h3.22v.43h-4a4.66 4.66 0 0 1 .76-1.59 8.86 8.86 0 0 1 1.3-1.38 7.9 7.9 0 0 0 1.07-1.09 1.63 1.63 0 0 0 .36-1 1 1 0 0 0 -.39-.82 1.78 1.78 0 0 0 -1.17-.36c-.88 0-1.38.54-1.5 1.6l-.47-.18a2.19 2.19 0 0 1 .62-1.35 1.86 1.86 0 0 1 1.35-.5 2.42 2.42 0 0 1 1.49.43 1.42 1.42 0 0 1 .56 1.18 2.09 2.09 0 0 1 -.44 1.25z" fill="#060001"/><path d="m322.47 210.83v.67a.3.3 0 0 1 .07-.11l.09-.08a.31.31 0 0 1 .12-.05h.13a.56.56 0 0 1 .23 0 .43.43 0 0 1 .16.14.57.57 0 0 1 .1.19.93.93 0 0 1 0 .24.85.85 0 0 1 0 .23.63.63 0 0 1 -.1.2.51.51 0 0 1 -.16.13.56.56 0 0 1 -.23.05.46.46 0 0 1 -.26-.07.4.4 0 0 1 -.16-.18v.22h-.13v-1.61zm.77.85a.77.77 0 0 0 -.07-.16.32.32 0 0 0 -.12-.11.34.34 0 0 0 -.17 0 .36.36 0 0 0 -.19 0 .28.28 0 0 0 -.13.11.77.77 0 0 0 -.07.16.82.82 0 0 0 0 .36.69.69 0 0 0 .07.15.3.3 0 0 0 .13.12.36.36 0 0 0 .19 0 .33.33 0 0 0 .17 0 .34.34 0 0 0 .12-.12.69.69 0 0 0 .07-.15.82.82 0 0 0 0-.36" fill="#54565a"/><path d="m323.64 211.28.38 1 .36-1h.14l-.5 1.33-.06.13-.06.07a.2.2 0 0 1 -.08 0h-.11-.11v-.12h.1.08.05a.21.21 0 0 0 0-.06v-.08l.05-.13-.46-1.15z" fill="#54565a"/><path d="m326.42 210.83v.13h-.95v.58h.89v.13h-.89v.64h.96v.13h-1.12v-1.61z" fill="#54565a"/><path d="m326.7 212.2h.19v.24h-.19z" fill="#54565a"/><path d="m327.38 212.12a.47.47 0 0 0 .11.13l.17.07h.21a.36.36 0 0 0 .14 0h.14a.36.36 0 0 0 .1-.11.24.24 0 0 0 0-.15.2.2 0 0 0 0-.11.31.31 0 0 0 -.07-.09l-.11-.05h-.12l-.35-.08h-.14l-.12-.07a.44.44 0 0 1 -.08-.11.38.38 0 0 1 0-.16.44.44 0 0 1 0-.14.37.37 0 0 1 .08-.15.56.56 0 0 1 .17-.11.59.59 0 0 1 .28 0 .78.78 0 0 1 .22 0 .47.47 0 0 1 .32.25.51.51 0 0 1 .05.22h-.15a.38.38 0 0 0 0-.16.4.4 0 0 0 -.1-.12l-.13-.18h-.16a.39.39 0 0 0 -.15 0 .29.29 0 0 0 -.13.05.22.22 0 0 0 -.09.1.33.33 0 0 0 0 .15.16.16 0 0 0 0 .1l.05.07a.2.2 0 0 0 .08 0h.09l.39.1h.16a.43.43 0 0 1 .13.09.31.31 0 0 1 .09.11.33.33 0 0 1 0 .17.2.2 0 0 1 0 .07.19.19 0 0 1 0 .1.27.27 0 0 1 -.06.1.32.32 0 0 1 -.1.1.85.85 0 0 1 -.17.06.9.9 0 0 1 -.25 0 1.09 1.09 0 0 1 -.26 0 1 1 0 0 1 -.21-.1.59.59 0 0 1 -.13-.18.62.62 0 0 1 0-.25h.16a.47.47 0 0 0 0 .21" fill="#54565a"/><path d="m328.83 210.83v1a.78.78 0 0 0 0 .24.35.35 0 0 0 .09.16.38.38 0 0 0 .15.09.6.6 0 0 0 .2 0 .64.64 0 0 0 .2 0 .38.38 0 0 0 .15-.09.35.35 0 0 0 .09-.16.78.78 0 0 0 0-.24v-1h.15v1a.85.85 0 0 1 0 .23.64.64 0 0 1 -.11.2.58.58 0 0 1 -.2.13.74.74 0 0 1 -.28.05.84.84 0 0 1 -.29-.05.53.53 0 0 1 -.19-.13.49.49 0 0 1 -.11-.2.85.85 0 0 1 0-.23v-1z" fill="#54565a"/><path d="m330.4 210.83.94 1.36v-1.36h.15v1.61h-.17l-.93-1.36h-.01v1.36h-.15v-1.61z" fill="#54565a"/><path d="m333.12 210.83h.19a.33.33 0 0 1 .17.07.32.32 0 0 1 .11.12.34.34 0 0 1 0 .18.27.27 0 0 1 0 .13.31.31 0 0 1 -.05.1l-.09.09a.25.25 0 0 1 -.11 0 .36.36 0 0 1 .24.13.39.39 0 0 1 .09.26v.09a.54.54 0 0 1 0 .1.37.37 0 0 1 -.06.1.27.27 0 0 1 -.1.08.34.34 0 0 1 -.16.06.69.69 0 0 1 -.22 0h-.68v-1.61zm0 .71a.41.41 0 0 0 .16 0 .24.24 0 0 0 .11-.06.27.27 0 0 0 .07-.08.36.36 0 0 0 0-.11q0-.3-.36-.3h-.53v.58zm0 .77h.16.14a.28.28 0 0 0 .09-.1.41.41 0 0 0 0-.16.26.26 0 0 0 -.11-.24.53.53 0 0 0 -.31-.07h-.53v.64z" fill="#54565a"/><path d="m333.94 211.46a.64.64 0 0 1 .1-.13.34.34 0 0 1 .15-.06.48.48 0 0 1 .18 0h.15a.34.34 0 0 1 .14.05.4.4 0 0 1 .1.12.45.45 0 0 1 0 .19v.61c0 .06 0 .09.08.09v.12h-.09-.08a.07.07 0 0 1 -.05 0s0 0 0-.06v-.08a.34.34 0 0 1 -.08.09.3.3 0 0 1 -.08.08h-.11-.15-.15a.31.31 0 0 1 -.13-.06.31.31 0 0 1 -.08-.11.33.33 0 0 1 0-.15.36.36 0 0 1 0-.19.4.4 0 0 1 .15-.1.59.59 0 0 1 .2-.05h.22.08.06a.19.19 0 0 0 0-.08.21.21 0 0 0 0-.12s0 0-.06-.07h-.1-.12a.32.32 0 0 0 -.22.07.23.23 0 0 0 -.09.2h-.14a.43.43 0 0 1 0-.17m.71.34a.07.07 0 0 1 0 0h-.07-.18-.18l-.1.01a.19.19 0 0 0 -.05.13.3.3 0 0 0 0 .1l.06.07.08.05h.1.16a.35.35 0 0 0 .13-.08.31.31 0 0 0 .08-.11.37.37 0 0 0 0-.15v-.19z" fill="#54565a"/><path d="m335.22 211.28v.2a.29.29 0 0 1 .14-.17.37.37 0 0 1 .23-.07.6.6 0 0 1 .2 0l.13.09a.37.37 0 0 1 .07.14 1.11 1.11 0 0 1 0 .19v.75h-.14v-.73a.53.53 0 0 0 0-.13.43.43 0 0 0 -.05-.12.22.22 0 0 0 -.09-.07.33.33 0 0 0 -.15 0h-.15a.31.31 0 0 0 -.11.09.35.35 0 0 0 -.07.12.41.41 0 0 0 0 .16v.68h-.14v-1.16z" fill="#54565a"/><path d="m336.43 210.83v1.01l.64-.56h.19l-.49.43.53.73h-.18l-.46-.63-.23.19v.44h-.14v-1.61z" fill="#54565a"/><path d="m309.18 214.73h-3.38a.38.38 0 0 0 -.37.38v1.12a.38.38 0 0 0 .37.38h3.38a.37.37 0 0 0 .37-.38v-1.12a.37.37 0 0 0 -.37-.38" fill="#2299d7"/><path d="m320.89 217.36a3.28 3.28 0 0 0 -3.28-3.27 3.2 3.2 0 0 0 -1.41.32.37.37 0 0 0 -.37-.32h-1.12a.38.38 0 0 0 -.38.37v6.28a.38.38 0 0 0 .38.38h1.12a.38.38 0 0 0 .38-.38v-3.37a1.41 1.41 0 1 1 2.81 0v3.38a.38.38 0 0 0 .37.38h1.13a.37.37 0 0 0 .37-.38v-3.38z" fill="#f5bf24"/><path d="m333.78 214.08a3.52 3.52 0 1 0 3.52 3.51 3.51 3.51 0 0 0 -3.52-3.51m0 5.15a1.64 1.64 0 1 1 1.64-1.64 1.64 1.64 0 0 1 -1.64 1.64" fill="#e04847"/><path d="m312.55 214.08h-1.12a.38.38 0 0 0 -.38.37v6.28a.38.38 0 0 0 .38.38h1.12a.38.38 0 0 0 .38-.38v-6.28a.38.38 0 0 0 -.38-.37" fill="#00c08b"/><path d="m329 214.08h-1.12a.38.38 0 0 0 -.38.37v.33a3.47 3.47 0 0 0 -2.1-.7 3.52 3.52 0 1 0 0 7 3.41 3.41 0 0 0 2.1-.71v1.65a1.7 1.7 0 0 1 -3.38.3.37.37 0 0 0 -.37-.3h-1.14a.37.37 0 0 0 -.37.41 3.58 3.58 0 0 0 7.14-.41v-7.6a.38.38 0 0 0 -.38-.37m-3.6 5.15a1.64 1.64 0 1 1 1.64-1.64 1.64 1.64 0 0 1 -1.64 1.64" fill="#f39518"/><path d="m308.24 210.8h-5.24a.37.37 0 0 0 -.38.37v9.56a.37.37 0 0 0 .37.38h1.13a.38.38 0 0 0 .37-.38v-8.06h5.62a1.87 1.87 0 0 0 -1.87-1.87" fill="#2299d7"/><path d="m300.74 219.2a.94.94 0 1 0 .93.93.94.94 0 0 0 -.93-.93" fill="#00c08b"/><path d="m312.32 211a.38.38 0 0 0 -.65 0l-.6 1a.38.38 0 0 0 .33.56h1.2a.37.37 0 0 0 .32-.56z" fill="#00c08b"/><path d="m294.66 212.66a4.23 4.23 0 1 0 3.53 6.49.37.37 0 0 0 -.31-.58h-1.48a.37.37 0 0 0 -.24.1 2.35 2.35 0 0 1 -3.75-1h6a.37.37 0 0 0 .37-.34 3.62 3.62 0 0 0 0-.47 4.24 4.24 0 0 0 -4.19-4.16m-2.25 3.47a2.34 2.34 0 0 1 4.44 0z" fill="#00c08b"/><path d="m0 8.08v-8.08h1v8.08z" fill="#585757"/></svg>