<svg viewBox="0 0 396.39 457.06" xmlns="http://www.w3.org/2000/svg"><path d="m6.37 22.63c0 .07 0 .11-.08.12s-.09.07-.09.17v1.67h2c.06 0 .09 0 .09.13v.28c0 .08 0 .13-.09.13h-2v1.79h3.22c.07 0 .1.05.1.13v.27c0 .08 0 .13-.1.13h-7.3c-.07 0-.1-.05-.1-.13v-.32c0-.08 0-.13.1-.13h1.19v-2.87c0-.05 0-.09.14-.09.41 0 .63 0 .63.09s0 .12-.08.13-.09.07-.09.17v2.63h1.66v-4.3c0-.07 0-.11.14-.11.44 0 .66.04.66.11zm0-2.27s.09.07.09.11-.06.13-.16.13a.49.49 0 0 0 -.19 0 8.31 8.31 0 0 0 .69 1 5.08 5.08 0 0 0 .94.84 5.27 5.27 0 0 0 1.56.84c.07 0 .12 0 .12.07a.15.15 0 0 1 -.06.11c-.13.11-.25.21-.35.31s-.07.08-.09.08a5 5 0 0 1 -1.16-.61 4.69 4.69 0 0 1 -1.19-1 9.12 9.12 0 0 1 -.89-1.15c-.23.28-.43.52-.63.73a6.42 6.42 0 0 1 -.79.76 9.72 9.72 0 0 1 -.93.72 5.42 5.42 0 0 1 -.76.45.15.15 0 0 1 -.14-.09 2 2 0 0 0 -.28-.35c-.07 0-.1-.07-.1-.1s0 0 .05 0a9.13 9.13 0 0 0 1.09-.55 8.11 8.11 0 0 0 1.19-.95 4.32 4.32 0 0 0 .7-.71 6.56 6.56 0 0 0 .52-.83c.05-.06.1-.1.14-.1z" fill="#383736"/><path d="m13.88 20.2a.12.12 0 0 1 -.09.13c-.06 0-.08.07-.08.17v1.1h1.13v-1.43c0-.07 0-.1.13-.1.42 0 .63 0 .63.1s0 .12-.08.13-.09.06-.09.17v1.13h.71c.12-.19.23-.37.32-.54a6.67 6.67 0 0 0 .25-.7s.05-.06.08-.06l.53.28c.05 0 .07.06.07.09a.07.07 0 0 1 -.08.07c-.09 0-.13 0-.14.08q-.15.34-.39.78h1.14s.07 0 .07.1v.3c0 .1 0 .14-.07.14h-1.84c-.1.31-.2.61-.31.89h1.49c.07 0 .1.05.1.14v.26c0 .09 0 .14-.1.14h-2.65v.66h2.25s.07 0 .07.09v.27c0 .09 0 .13-.07.13h-2.25v.66h3c.07 0 .1.06.1.14v.26c0 .1 0 .14-.1.14h-2.67a5.16 5.16 0 0 0 .75.44 8.17 8.17 0 0 0 1.22.48 7.52 7.52 0 0 0 1.18.28s0 .07-.09.09a3.53 3.53 0 0 0 -.33.37s-.06.07-.08.07a10.69 10.69 0 0 1 -1.45-.51 5.6 5.6 0 0 1 -1.1-.62 2.61 2.61 0 0 1 -.43-.31v1.54c0 .07-.06.1-.17.1h-.34c-.09 0-.13 0-.13-.1v-1.5l-.21.14a8.11 8.11 0 0 1 -.89.54c-.34.16-.72.31-1.14.46a7.65 7.65 0 0 1 -.88.25s-.08 0-.11-.11l-.28-.32c-.05-.05-.08-.08-.08-.1.56-.12 1-.24 1.45-.35a7 7 0 0 0 1.17-.49 4.52 4.52 0 0 0 .58-.39h-2.66c-.07 0-.1 0-.1-.14v-.26c0-.08 0-.14.1-.14h3.08v-.66h-2.39s-.06 0-.06-.13v-.27c0-.06 0-.09.06-.09h2.39v-.66h-2.72c-.07 0-.1-.05-.1-.14v-.26c0-.09 0-.14.1-.14h1.57c-.16-.34-.3-.64-.44-.89h-1.82c-.05 0-.07 0-.07-.14v-.26c0-.07 0-.1.07-.1h1.41l-.11-.23a5.59 5.59 0 0 0 -.5-.77s.13-.12.42-.26a7.18 7.18 0 0 1 .51.75c.09.17.18.34.25.51h.54v-1.4c0-.07 0-.1.13-.1.42 0 .64.03.64.1zm1.28 2.8c.08-.18.15-.33.2-.47a3.92 3.92 0 0 0 .15-.42h-2.51c.17.29.33.58.48.89z" fill="#383736"/><path d="m22.72 20.46.68.47a.15.15 0 0 1 0 .08l-.23.32h3a.1.1 0 0 1 .11.11v.33c0 .08 0 .12-.11.12h-3v2.16h2.61a.1.1 0 0 1 .11.1v.34c0 .09 0 .13-.11.13h-2.67v2.22h3.35a.09.09 0 0 1 .1.1v.33c0 .09 0 .14-.1.14h-7.37c-.07 0-.11-.05-.11-.14v-.33c0-.07 0-.1.11-.1h3.38v-2.22h-2.72c-.07 0-.1 0-.1-.13v-.34a.09.09 0 0 1 .1-.1h2.72v-2.16h-3c-.07 0-.1 0-.1-.12v-.33c0-.07 0-.11.1-.11h3.53a9.23 9.23 0 0 0 -.82-.57 5.71 5.71 0 0 0 -.65-.33 1.71 1.71 0 0 1 .26-.37s.05 0 .07 0a7.81 7.81 0 0 1 .86.4z" fill="#383736"/><path d="m30.44 20.25c.07.05.1.09.1.12a.12.12 0 0 1 -.1.13c-.12 0-.19 0-.22.1s-.07.12-.08.16h2.66a.22.22 0 0 1 .16 0c.11.1.17.17.17.23l-1.28 1.29h2.21c.09 0 .13 0 .13.1v3.05c0 .07 0 .1-.13.1h-.33c-.09 0-.13 0-.13-.1v-.26h-4.6v1.36c0 .27.16.4.5.4h4.45a.43.43 0 0 0 .48-.33 4.39 4.39 0 0 0 .18-.77 1.25 1.25 0 0 0 .47.26.13.13 0 0 1 .1.14 2.82 2.82 0 0 1 -.29.89c-.09.24-.34.37-.75.37h-5c-.51 0-.76-.19-.76-.56v-4.2l-.44.28a.38.38 0 0 1 -.19 0l-.35-.14s-.05 0-.05-.05 0 0 .05-.07a6.12 6.12 0 0 0 1.25-1 4.65 4.65 0 0 0 .56-.7 5.09 5.09 0 0 0 .52-1 .12.12 0 0 1 .11-.07zm.63 2.08 1-1h-2.26a4.79 4.79 0 0 1 -.29.4c-.19.22-.38.43-.58.63zm-2.07 2.35h2v-1.82h-2zm2.65 0h2v-1.82h-2z" fill="#383736"/><path d="m39.26 22.16v-1h1v1zm0 3.41v-1h1v1z" fill="#383736"/><path d="m47.93 24a2.2 2.2 0 0 1 -1.38.41h-1.42v2.51h-.59v-5.58h2a2.26 2.26 0 0 1 1.4.41 1.37 1.37 0 0 1 .52 1.13 1.32 1.32 0 0 1 -.53 1.12zm-1.38-2.1h-1.42v1.94h1.42a1.61 1.61 0 0 0 1-.28.85.85 0 0 0 .31-.68c.02-.65-.43-.98-1.31-.98z" fill="#383736"/><path d="m53.6 26.9-.6-1.59h-2.79l-.65 1.59h-.62l2.32-5.57h.64l2.32 5.57zm-2-4.88-1.14 2.74h2.28z" fill="#383736"/><path d="m58.64 26.91-3.18-4.75v4.75h-.6v-5.58h.72l3.17 4.75v-4.75h.6v5.58z" fill="#383736"/><path d="m62.52 21.9v5h-.58v-5h-1.94v-.56h4.4v.56z" fill="#383736"/><path d="m69.13 26.13a2.12 2.12 0 0 1 -1.78.85 2.15 2.15 0 0 1 -1.79-.85 3.16 3.16 0 0 1 -.62-2 3.19 3.19 0 0 1 .62-2 2.19 2.19 0 0 1 1.79-.83 2.16 2.16 0 0 1 1.78.83 3.19 3.19 0 0 1 .62 2 3.16 3.16 0 0 1 -.62 2zm-.46-3.68a1.62 1.62 0 0 0 -1.32-.63 1.58 1.58 0 0 0 -1.32.63 2.55 2.55 0 0 0 -.5 1.66 2.59 2.59 0 0 0 .5 1.68 1.56 1.56 0 0 0 1.32.64 1.6 1.6 0 0 0 1.32-.64 2.65 2.65 0 0 0 .5-1.68 2.61 2.61 0 0 0 -.5-1.66z" fill="#383736"/><path d="m74.38 26.91-3.18-4.75v4.75h-.6v-5.58h.72l3.18 4.75v-4.75h.59v5.58z" fill="#383736"/><path d="m76.11 26.91v-5.58h3.51v.56h-2.91v1.9h2.58v.55h-2.58v2h2.91v.56z" fill="#383736"/><path d="m86.35 26.54a1.82 1.82 0 0 1 -1.25.46 1.53 1.53 0 0 1 -1.69-1.29l.59-.21a1 1 0 0 0 1.13.93 1.16 1.16 0 0 0 .84-.3.93.93 0 0 0 .32-.71 1.06 1.06 0 0 0 -1.08-1.1h-.65v-.55h.57a.93.93 0 0 0 .66-.34 1 1 0 0 0 .32-.7c0-.61-.31-.91-.94-.91a.92.92 0 0 0 -1 .89l-.55-.18a1.61 1.61 0 0 1 .47-.88 1.47 1.47 0 0 1 1.06-.38 1.57 1.57 0 0 1 1.12.39 1.44 1.44 0 0 1 .41 1.07 1.33 1.33 0 0 1 -.78 1.27 1.44 1.44 0 0 1 .7.55 1.61 1.61 0 0 1 .26.9 1.41 1.41 0 0 1 -.51 1.09z" fill="#383736"/><path d="m91.12 23.75a7.28 7.28 0 0 1 -.91 1 4.35 4.35 0 0 0 -1.27 1.65h2.56v.56h-3.39a4.32 4.32 0 0 1 .63-1.42 7.39 7.39 0 0 1 1.08-1.19 6.11 6.11 0 0 0 .84-.89 1.3 1.3 0 0 0 .27-.74.79.79 0 0 0 -.27-.6 1.35 1.35 0 0 0 -.87-.26c-.7 0-1.07.45-1.13 1.34l-.56-.22a2 2 0 0 1 .52-1.22 1.55 1.55 0 0 1 1.17-.45 2 2 0 0 1 1.26.36 1.31 1.31 0 0 1 .46 1.05 1.83 1.83 0 0 1 -.39 1.03z" fill="#383736"/><path d="m94.83 24.22a9.85 9.85 0 0 0 -.26 2.7h-.57a9.91 9.91 0 0 1 .28-2.63 6.23 6.23 0 0 1 1.42-2.4h-3.13v-.56h3.82v.56a5.77 5.77 0 0 0 -1.56 2.33z" fill="#383736"/><path d="m100.47 23.75a7.28 7.28 0 0 1 -.91 1 4.35 4.35 0 0 0 -1.27 1.65h2.57v.56h-3.4a4.32 4.32 0 0 1 .63-1.42 7.39 7.39 0 0 1 1.08-1.19 6.11 6.11 0 0 0 .84-.89 1.3 1.3 0 0 0 .27-.74.76.76 0 0 0 -.28-.6 1.3 1.3 0 0 0 -.86-.26c-.7 0-1.07.45-1.13 1.34l-.56-.22a2 2 0 0 1 .55-1.26 1.55 1.55 0 0 1 1.17-.45 2 2 0 0 1 1.26.36 1.31 1.31 0 0 1 .46 1.05 1.83 1.83 0 0 1 -.42 1.07z" fill="#383736"/><path d="m105.65 22.78a1.42 1.42 0 0 0 -1.43-1 1.56 1.56 0 0 0 -1.23.64 2.71 2.71 0 0 0 -.57 1.77 2.42 2.42 0 0 0 .53 1.66 1.55 1.55 0 0 0 2.08.25 2 2 0 0 0 .55-.81l.54.21a2.06 2.06 0 0 1 -2 1.44 2 2 0 0 1 -1.59-.73 3 3 0 0 1 -.67-2 3.22 3.22 0 0 1 .7-2.12 2.11 2.11 0 0 1 1.69-.84 2 2 0 0 1 2 1.3z" fill="#383736"/><path d="m118.66 20.69a3.1 3.1 0 0 1 -1 .44 4.64 4.64 0 0 1 -1.28.17v1.76h2.33c.07 0 .1.05.1.13v.27c0 .08 0 .13-.1.13h-2.31v2.52l.48-.11c.64-.15 1.25-.32 1.83-.5h.05a.06.06 0 0 1 .07.07 1.69 1.69 0 0 1 0 .47c-1 .29-2 .55-3.06.79-.09.16-.15.23-.2.23s-.16-.23-.33-.69l.6-.11v-5.5c0-.07 0-.1.1-.1l.3.11a5.69 5.69 0 0 0 1.17-.12 2.78 2.78 0 0 0 1.05-.47s.06-.06.1-.06a.25.25 0 0 1 .11 0c.28.24.42.38.42.45s0 .16-.1.16l-.2-.09zm1.5 7c0 .07 0 .1-.14.1h-.33c-.09 0-.14 0-.14-.1v-7a.13.13 0 0 1 .14-.14h2.86c.11 0 .17 0 .17.14v5.27c0 .22-.17.4-.49.52a5.92 5.92 0 0 1 -1.18.19c-.06 0-.09 0-.1-.11a1.87 1.87 0 0 0 -.2-.52s0-.05.11-.05a4 4 0 0 0 1.06-.07.28.28 0 0 0 .19-.26v-4.59h-2z" fill="#383736"/><path d="m125 22.86a18.61 18.61 0 0 1 -.12 2.39 8.39 8.39 0 0 1 -.32 1.47 4.52 4.52 0 0 1 -.36.85h-.08a3.55 3.55 0 0 0 -.31-.23s0-.06 0-.11a6.68 6.68 0 0 0 .34-1 12.24 12.24 0 0 0 .22-1.43c0-.52.07-1.15.07-1.9v-2.43c0-.09 0-.13.13-.13h4c.09 0 .14 0 .14.09v1.86a.12.12 0 0 1 -.14.14h-1.27v1.1h1.29c.11 0 .17 0 .17.12v3.14c0 .14-.09.23-.26.31a2.8 2.8 0 0 1 -.61.11.11.11 0 0 1 -.11-.1 1.71 1.71 0 0 0 -.18-.53s0 0 0 0a1.15 1.15 0 0 0 .43 0 .15.15 0 0 0 .09-.13v-2.4h-.86v3.62c0 .07 0 .11-.14.11h-.33c-.09 0-.13 0-.13-.11v-3.62h-.86v3c0 .06 0 .09-.14.09h-.33c-.09 0-.14 0-.14-.09v-3.4c0-.08 0-.12.14-.12h1.33v-1.1h-1.66zm0-1h3.08v-1h-3.08zm5.18-.66c0 .08 0 .12-.08.13s-.09.07-.09.17v4.5c0 .07 0 .1-.13.1h-.33c-.09 0-.13 0-.13-.1v-4.77c0-.07 0-.1.13-.1.39 0 .6.03.6.1zm1.4-1c.06 0 .09.06.09.08s0 .08-.09.08-.17.17-.17.39v6.34c0 .39-.3.59-.89.59h-.52s-.07-.05-.07-.14a1.19 1.19 0 0 0 -.16-.39s0-.06.07-.06a5.11 5.11 0 0 0 .63.06q.36 0 .36-.3v-6.15a1.77 1.77 0 0 0 0-.37.41.41 0 0 1 0-.16s.06-.07.17-.07z" fill="#383736"/><path d="m134.16 24.35c.13.3.21.45.21.47a.21.21 0 0 1 -.05.12c-.28.6-.54 1.11-.79 1.54-.14.23-.31.5-.5.79a.5.5 0 0 0 -.05.27c0 .07 0 .1-.07.1a2.48 2.48 0 0 1 -.51-.51s-.05 0-.06-.09a.15.15 0 0 1 0-.11 4.23 4.23 0 0 0 .5-.57 11.11 11.11 0 0 0 .67-1.07c.19-.34.36-.65.5-.94v-.07s.13.03.15.07zm-.71-1.53.59.4s0 0 0 .08l-.28.39a8.43 8.43 0 0 0 -.78-.55 3.21 3.21 0 0 0 -.56-.28 1.72 1.72 0 0 1 .27-.37.1.1 0 0 1 .07-.06 6.89 6.89 0 0 1 .69.39zm.3-2.23.55.38s0 0 0 .07l-.26.36a5.31 5.31 0 0 0 -.75-.48 3.89 3.89 0 0 0 -.54-.25 1.47 1.47 0 0 1 .26-.37.1.1 0 0 1 .07-.06 5.89 5.89 0 0 1 .67.35zm5.13 1.41c.05 0 .07 0 .07.1v.27c0 .09 0 .13-.07.13h-1.23v.7h1.86c.09 0 .14 0 .14.09v3c0 .06-.05.1-.14.1h-.95a4.41 4.41 0 0 0 .7.5 5.2 5.2 0 0 0 .81.35c.05 0 .07.05.07.07s-.13.19-.36.44h-.09a6.86 6.86 0 0 1 -1.49-.92v-.06q0-.08.33-.36h-2.06l.37.28c0 .05.07.08.07.12s0 0-.08 0a.58.58 0 0 0 -.17.05 5 5 0 0 1 -.6.46 8 8 0 0 1 -1 .5c-.06 0-.12 0-.13-.07l-.3-.24s-.07 0-.07-.06 0 0 0 0a2.42 2.42 0 0 0 .46-.16 3.71 3.71 0 0 0 .69-.42 5.83 5.83 0 0 0 .52-.44h-1c-.09 0-.13 0-.13-.1v-3c0-.06 0-.09.13-.09h1.86v-.7h-1.39s-.07 0-.07-.13v-.27c0-.06 0-.1.07-.1zm-1.06-2c0 .09 0 .13-.08.13s-.09.08-.09.18v.46h2.16c.08 0 .14 0 .14.1v1.33c0 .06-.06.1-.14.1h-.33c-.09 0-.13 0-.13-.1v-.9h-4.12v1c0 .07 0 .1-.13.1h-.33c-.09 0-.14 0-.14-.1v-1.4c0-.07.05-.1.14-.1h2.29v-.8c0-.06 0-.09.13-.09q.63.03.63.09zm-.76 4.46v-.84h-1.4v.84zm0 .5h-1.4v.86h1.4zm.59-.5h1.35v-.84h-1.39zm1.35.54h-1.39v.86h1.39z" fill="#383736"/><path d="m143.87 20.25c.06.05.1.09.1.12a.13.13 0 0 1 -.1.13c-.12 0-.2 0-.23.1s-.06.12-.08.16h2.66a.2.2 0 0 1 .16 0c.11.1.17.17.17.23l-1.27 1.29h2.21c.08 0 .12 0 .12.1v3.05c0 .07 0 .1-.12.1h-.34c-.09 0-.13 0-.13-.1v-.26h-4.62v1.36c0 .27.16.4.5.4h4.45a.43.43 0 0 0 .48-.33 4.39 4.39 0 0 0 .18-.77 1.25 1.25 0 0 0 .47.26.12.12 0 0 1 .1.14 2.82 2.82 0 0 1 -.29.89c-.09.24-.34.37-.75.37h-5c-.51 0-.76-.19-.76-.56v-4.2l-.43.28a.4.4 0 0 1 -.2 0l-.35-.14s-.05 0-.05-.05 0 0 .05-.07a5.86 5.86 0 0 0 1.25-1 4.65 4.65 0 0 0 .56-.7 5.09 5.09 0 0 0 .52-1 .12.12 0 0 1 .11-.07zm.62 2.08 1.06-1h-2.31l-.3.4c-.19.22-.38.43-.58.63zm-2.09 2.35h2.06v-1.82h-2.06zm2.65 0h2v-1.82h-2z" fill="#383736"/><path d="m152.69 22.16v-1h1v1zm0 3.41v-1h1v1z" fill="#383736"/><path d="m161.6 22.78a1.41 1.41 0 0 0 -1.42-1 1.56 1.56 0 0 0 -1.24.64 2.7 2.7 0 0 0 -.56 1.77 2.41 2.41 0 0 0 .52 1.66 1.48 1.48 0 0 0 1.15.54 1.42 1.42 0 0 0 .93-.29 2 2 0 0 0 .56-.81l.54.21a2.08 2.08 0 0 1 -2 1.44 2 2 0 0 1 -1.6-.73 3 3 0 0 1 -.66-2 3.22 3.22 0 0 1 .7-2.12 2.08 2.08 0 0 1 1.69-.84 2 2 0 0 1 2 1.3z" fill="#383736"/><path d="m164.47 26.92v-4.47h-1.19v-.34h.06a1.59 1.59 0 0 0 .73-.17 1.07 1.07 0 0 0 .55-.6h.44v5.58z" fill="#383736"/><path d="m169.42 27c-1.21 0-1.81-1-1.81-2.88a4.25 4.25 0 0 1 .39-2.12 1.71 1.71 0 0 1 2.84 0 4.24 4.24 0 0 1 .4 2.07c0 1.93-.61 2.93-1.82 2.93zm.91-4.67a1.1 1.1 0 0 0 -1.82 0 3.66 3.66 0 0 0 -.32 1.79 3.76 3.76 0 0 0 .32 1.82 1 1 0 0 0 .91.51 1 1 0 0 0 .91-.51 3.75 3.75 0 0 0 .33-1.82 3.64 3.64 0 0 0 -.33-1.81z" fill="#383736"/><path d="m174.1 27c-1.22 0-1.82-1-1.82-2.88a4.24 4.24 0 0 1 .4-2.07 1.71 1.71 0 0 1 2.84 0 4.36 4.36 0 0 1 .4 2.07c0 1.88-.61 2.88-1.82 2.88zm.91-4.67a1 1 0 0 0 -.91-.48 1 1 0 0 0 -.91.48 3.66 3.66 0 0 0 -.32 1.79 3.76 3.76 0 0 0 .32 1.82 1 1 0 0 0 .91.51 1 1 0 0 0 .91-.51 3.89 3.89 0 0 0 .32-1.82 3.78 3.78 0 0 0 -.33-1.81z" fill="#383736"/><path d="m182.2 24.3v2.61h-.6v-2.61l-2.21-3h.71l1.8 2.48 1.8-2.48h.71z" fill="#383736"/><path d="m188.05 26.47a1.71 1.71 0 0 1 -1.25.51 1.61 1.61 0 0 1 -1.63-1.16l.55-.24a1.11 1.11 0 0 0 1.08.85 1.08 1.08 0 0 0 .82-.36 1.56 1.56 0 0 0 .38-1.07c0-.9-.34-1.36-1-1.36a1.08 1.08 0 0 0 -1 .69h-.54v-2.99h2.94v.56h-2.4v1.54a1.23 1.23 0 0 1 1-.39 1.47 1.47 0 0 1 1.17.52 2.08 2.08 0 0 1 .43 1.39 2.14 2.14 0 0 1 -.55 1.51z" fill="#383736"/><path d="m191.55 27c-1.22 0-1.82-1-1.82-2.88a4.24 4.24 0 0 1 .4-2.07 1.71 1.71 0 0 1 2.87-.05 4.36 4.36 0 0 1 .4 2.07c-.03 1.93-.64 2.93-1.85 2.93zm.91-4.67a1 1 0 0 0 -.91-.48 1 1 0 0 0 -.91.48 3.66 3.66 0 0 0 -.32 1.79 3.76 3.76 0 0 0 .32 1.82 1 1 0 0 0 .91.51 1 1 0 0 0 .91-.51 3.89 3.89 0 0 0 .32-1.82 3.78 3.78 0 0 0 -.32-1.81z" fill="#383736"/><path d="m205.79 20.25c.07.05.11.09.11.12a.13.13 0 0 1 -.11.13c-.11 0-.19 0-.22.1l-.08.16h2.66a.2.2 0 0 1 .16 0c.11.1.17.17.17.23l-1.27 1.29h2.21c.08 0 .12 0 .12.1v3.05c0 .07 0 .1-.12.1h-.34c-.09 0-.13 0-.13-.1v-.26h-4.62v1.36c0 .27.17.4.5.4h4.45a.43.43 0 0 0 .48-.33 3.07 3.07 0 0 0 .18-.77 1.25 1.25 0 0 0 .47.26.12.12 0 0 1 .1.14 2.58 2.58 0 0 1 -.29.89c-.09.24-.34.37-.74.37h-5c-.51 0-.76-.19-.76-.56v-4.2l-.44.28a.38.38 0 0 1 -.19 0l-.35-.14s0 0 0-.05 0 0 0-.07a5.86 5.86 0 0 0 1.25-1 4.65 4.65 0 0 0 .56-.7 5.09 5.09 0 0 0 .52-1 .14.14 0 0 1 .11-.07zm.63 2.08 1.06-1h-2.31a4.58 4.58 0 0 1 -.3.4c-.19.22-.37.43-.58.63zm-2.09 2.35h2.06v-1.82h-2.06zm2.66 0h2v-1.82h-2z" fill="#383736"/><path d="m214.29 20.43c.07 0 .11.05.11.14v.26c0 .09 0 .14-.11.14h-1.29c-.1.53-.2 1-.3 1.46 0 .14-.07.25-.1.36h1.4c.08 0 .12 0 .12.1v3.79c0 .07 0 .09-.12.09h-.33c-.1 0-.14 0-.14-.09v-.37h-.83v1.07c0 .06 0 .09-.13.09h-.33c-.1 0-.14 0-.14-.09v-3.21a6.13 6.13 0 0 1 -.33.68c-.07 0-.12 0-.14 0l-.39-.18c-.05 0-.06 0-.06 0a10 10 0 0 0 1-2.48c.07-.24.14-.62.24-1.14h-.95c-.06 0-.1 0-.1-.14v-.26c0-.09 0-.14.1-.14zm-.76 5.35v-2.46h-.83v2.46zm1.55 0c.06 0 .11.06.11.11a.11.11 0 0 1 -.05.1s-.06 0-.07.11a9.4 9.4 0 0 1 -.32 1.28c0 .07-.05.1-.06.1a.22.22 0 0 1 -.13-.06 2 2 0 0 0 -.31-.13h-.06a.13.13 0 0 1 0-.08c.09-.26.16-.48.21-.69a7.08 7.08 0 0 0 .17-.77c0-.08 0-.12 0-.12zm2.1-4.14h1.4c.06 0 .09 0 .09.13v.23c0 .09 0 .13-.09.13h-1.4v.87h1.4c.06 0 .09.05.09.14v.26c0 .09 0 .14-.09.14h-1.4v.82h1.7a.09.09 0 0 1 .1.1 13 13 0 0 1 -.14 1.88 2.68 2.68 0 0 1 -.34 1c-.13.24-.49.36-1.09.36-.29 0-.45-.07-.45-.19a1.64 1.64 0 0 0 -.17-.48v-.03a2.42 2.42 0 0 0 .62.1.7.7 0 0 0 .62-.24 1.84 1.84 0 0 0 .26-.74 9 9 0 0 0 .14-1.25h-3.61c-.08 0-.13 0-.13-.1v-4.4c0-.07.05-.1.13-.1h4s.07 0 .07.1v.27c0 .08 0 .12-.07.12h-1.63zm-1.89 0h1.29v-.84h-1.29zm1.29.53h-1.29v.83h1.29zm0 2.22v-.82h-1.29v.82zm-.7 1.23c.12.33.22.59.28.81a3.12 3.12 0 0 1 .09.59s0 0-.11.05a1.6 1.6 0 0 1 -.42.11 5.63 5.63 0 0 0 -.15-.87l-.18-.59a1.7 1.7 0 0 1 .4-.13.13.13 0 0 1 .09-.01zm1.17.37c.07.18.14.39.2.59a1.53 1.53 0 0 1 -.46.14 3.48 3.48 0 0 0 -.14-.49 5 5 0 0 0 -.3-.68s.12-.11.37-.22a6.76 6.76 0 0 1 .33.67zm.91-.28c.08.18.15.37.22.58a2.45 2.45 0 0 1 -.47.13 3.82 3.82 0 0 0 -.14-.48 4.88 4.88 0 0 0 -.32-.65s.12-.11.36-.24a7.29 7.29 0 0 1 .39.62z" fill="#383736"/><path d="m223.12 22.16v-1h1v1zm0 3.41v-1h1v1z" fill="#383736"/><path d="m232.33 23.36h-1l-.17 1.53h.84v.54h-.88l-.18 1.48h-.61l.18-1.48h-.88l-.18 1.48h-.6l.18-1.48h-1v-.54h1l.17-1.53h-.86l.05-.53h.88l.18-1.49h.61l-.18 1.49h.88l.18-1.49h.6l-.18 1.49h1zm-2.47 0-.18 1.53h.89l.18-1.53z" fill="#383736"/><path d="m234.89 27c-1.22 0-1.82-1-1.82-2.88a4.24 4.24 0 0 1 .4-2.07 1.71 1.71 0 0 1 2.84 0 4.36 4.36 0 0 1 .4 2.07c0 1.88-.61 2.88-1.82 2.88zm.91-4.67a1 1 0 0 0 -.91-.48 1 1 0 0 0 -.91.48 3.66 3.66 0 0 0 -.32 1.79 3.76 3.76 0 0 0 .32 1.82 1.07 1.07 0 0 0 1.82 0 3.89 3.89 0 0 0 .32-1.82 3.78 3.78 0 0 0 -.32-1.81z" fill="#383736"/><path d="m239.57 27c-1.22 0-1.82-1-1.82-2.88a4.13 4.13 0 0 1 .4-2.07 1.7 1.7 0 0 1 2.85-.05 4.24 4.24 0 0 1 .4 2.07c-.02 1.93-.63 2.93-1.83 2.93zm.9-4.67a1 1 0 0 0 -.9-.48 1 1 0 0 0 -.91.48 3.53 3.53 0 0 0 -.33 1.79 3.63 3.63 0 0 0 .33 1.82 1.06 1.06 0 0 0 1.81 0 3.75 3.75 0 0 0 .33-1.82 3.64 3.64 0 0 0 -.33-1.81z" fill="#383736"/><path d="m244.94 26.93a1.7 1.7 0 0 1 -.11-.55v-.09a1.88 1.88 0 0 1 -1.46.69 1.31 1.31 0 0 1 -.85-.26.87.87 0 0 1 -.36-.72 1.12 1.12 0 0 1 .64-1.06 5.08 5.08 0 0 1 2-.37.88.88 0 0 0 -1-.93 1 1 0 0 0 -.92.49l-.58-.26a1.6 1.6 0 0 1 1.5-.79 1.46 1.46 0 0 1 1.15.44 1.7 1.7 0 0 1 .39 1.18v1.68a1.38 1.38 0 0 0 .1.55zm-2.19-.93a.38.38 0 0 0 .15.3.65.65 0 0 0 .47.16 1.37 1.37 0 0 0 1-.38 1.55 1.55 0 0 0 .5-1c-1.43.04-2.12.34-2.12.92z" fill="#383736"/><path d="m247.91 26.92v-4.47h-1.19v-.34h.06a1.57 1.57 0 0 0 .73-.17 1.09 1.09 0 0 0 .56-.6h.43v5.58z" fill="#383736"/><path d="m252.72 27a1.35 1.35 0 0 1 -.9-.33 1.69 1.69 0 0 1 -.47-.66l.53-.24c.19.46.47.68.84.68.75 0 1.16-.67 1.24-2a1.59 1.59 0 0 1 -1.19.54 1.49 1.49 0 0 1 -1.15-.45 1.74 1.74 0 0 1 -.44-1.26 2.25 2.25 0 0 1 .41-1.37 1.44 1.44 0 0 1 1.24-.61 1.43 1.43 0 0 1 1.41.9 5 5 0 0 1 .31 2c0 1.85-.61 2.8-1.83 2.8zm.11-5.16a.92.92 0 0 0 -.77.39 1.73 1.73 0 0 0 -.29 1c0 .78.35 1.17 1.06 1.17a1.4 1.4 0 0 0 1.13-.7c-.04-1.25-.41-1.88-1.13-1.88z" fill="#383736"/><path d="m258.69 26.44a1.5 1.5 0 0 1 -1.16.54 1.65 1.65 0 0 1 -1.39-.68v.62h-.6v-5.6h.6v2.4a1.66 1.66 0 0 1 1.33-.64 1.55 1.55 0 0 1 1.25.56 2 2 0 0 1 .49 1.35 2.08 2.08 0 0 1 -.52 1.45zm-.4-2.43a1.11 1.11 0 0 0 -.87-.38 1.18 1.18 0 0 0 -.91.41 1.47 1.47 0 0 0 -.37 1 1.26 1.26 0 0 0 1.33 1.36 1 1 0 0 0 .81-.39 1.73 1.73 0 0 0 0-2z" fill="#383736"/><path d="m76.69 217.37-.32-.22a1.45 1.45 0 0 1 -.21-.22.66.66 0 0 1 -.12-.27 1.31 1.31 0 0 1 0-.37 1.13 1.13 0 0 1 .11-.48 1.45 1.45 0 0 1 .3-.39 1.41 1.41 0 0 1 .45-.25 1.63 1.63 0 0 1 .55-.09 2.59 2.59 0 0 1 .55.07 1.51 1.51 0 0 1 .48.22 1 1 0 0 1 .33.38 1 1 0 0 1 .13.54 1.4 1.4 0 0 1 -.16.66 1.17 1.17 0 0 1 -.51.44 1.39 1.39 0 0 1 .64.47 1.31 1.31 0 0 1 .23.76 1.59 1.59 0 0 1 -.12.64 1.19 1.19 0 0 1 -.35.47 1.6 1.6 0 0 1 -.55.29 2.66 2.66 0 0 1 -.72.1 1.79 1.79 0 0 1 -.54-.09 1.59 1.59 0 0 1 -.86-.73 1.44 1.44 0 0 1 -.14-.64 1.51 1.51 0 0 1 .22-.79 1.26 1.26 0 0 1 .61-.5zm.78.23a1.85 1.85 0 0 0 -.48.07 1 1 0 0 0 -.63.52 1.13 1.13 0 0 0 -.09.47 1 1 0 0 0 .34.77 1.28 1.28 0 0 0 .38.23 1.6 1.6 0 0 0 .51.08 1.33 1.33 0 0 0 .45-.08 1.1 1.1 0 0 0 .37-.23 1.12 1.12 0 0 0 .25-.35 1.25 1.25 0 0 0 .08-.45 1.06 1.06 0 0 0 -.09-.45.87.87 0 0 0 -.25-.32 1 1 0 0 0 -.38-.19 1.7 1.7 0 0 0 -.46-.07zm0-2.14a1.23 1.23 0 0 0 -.39.06.9.9 0 0 0 -.32.17.78.78 0 0 0 -.22.28.92.92 0 0 0 -.07.38.84.84 0 0 0 .09.4.67.67 0 0 0 .23.27 1 1 0 0 0 .34.15 1.23 1.23 0 0 0 .39.06 1.21 1.21 0 0 0 .38-.06.75.75 0 0 0 .3-.17.93.93 0 0 0 .2-.3 1.42 1.42 0 0 0 .07-.45.73.73 0 0 0 -.24-.58 1.17 1.17 0 0 0 -.78-.21z" fill="#040000"/><path d="m81.35 215.08a1.65 1.65 0 0 1 .63.11 1.47 1.47 0 0 1 .46.3 1.71 1.71 0 0 1 .3.44 4.27 4.27 0 0 1 .18.54 3.68 3.68 0 0 1 .08.58v.59a5.69 5.69 0 0 1 -.07.94 2.62 2.62 0 0 1 -.25.79 1.47 1.47 0 0 1 -.51.54 1.77 1.77 0 0 1 -1.67 0 1.29 1.29 0 0 1 -.51-.55 2.35 2.35 0 0 1 -.26-.8 7.5 7.5 0 0 1 -.07-1 7 7 0 0 1 .06-.92 2.78 2.78 0 0 1 .25-.8 1.52 1.52 0 0 1 .5-.57 1.59 1.59 0 0 1 .88-.19zm1.22 2.51a6.57 6.57 0 0 0 0-.78 2.34 2.34 0 0 0 -.18-.68 1.32 1.32 0 0 0 -.38-.49 1 1 0 0 0 -.63-.18.88.88 0 0 0 -.6.19 1.23 1.23 0 0 0 -.37.49 2.87 2.87 0 0 0 -.19.7 7 7 0 0 0 -.05.8 5.61 5.61 0 0 0 .06.86 2.11 2.11 0 0 0 .2.67 1.08 1.08 0 0 0 .37.42 1.1 1.1 0 0 0 .59.15 1 1 0 0 0 .65-.2 1.22 1.22 0 0 0 .36-.5 2.49 2.49 0 0 0 .17-.69 6.56 6.56 0 0 0 0-.76z" fill="#040000"/><path d="m86.09 216.29a1.13 1.13 0 0 1 -.09.45 1.41 1.41 0 0 1 -.25.37 1.15 1.15 0 0 1 -.37.25 1.22 1.22 0 0 1 -.46.09 1.12 1.12 0 0 1 -.44-.09 1.17 1.17 0 0 1 -.62-.62 1.13 1.13 0 0 1 -.09-.45 1.12 1.12 0 0 1 .09-.44 1.17 1.17 0 0 1 .62-.62 1 1 0 0 1 .44-.1 1.22 1.22 0 0 1 .46.09 1.34 1.34 0 0 1 .37.25 1.6 1.6 0 0 1 .25.37 1.2 1.2 0 0 1 .09.45zm-1.17.75a.68.68 0 0 0 .29-.06.6.6 0 0 0 .25-.16.78.78 0 0 0 .16-.24.57.57 0 0 0 .07-.29.67.67 0 0 0 -.06-.28.87.87 0 0 0 -.41-.41.77.77 0 0 0 -.3-.06.75.75 0 0 0 -.29.06.74.74 0 0 0 -.4.4.75.75 0 0 0 -.06.29.68.68 0 0 0 .06.29.78.78 0 0 0 .16.24.63.63 0 0 0 .24.16.75.75 0 0 0 .29.02zm.28 3.08h-.37l2.78-5h.39zm2.71-2.43a1.09 1.09 0 0 1 .44.1 1.05 1.05 0 0 1 .37.25 1.15 1.15 0 0 1 .33.81 1.22 1.22 0 0 1 -.09.46 1.31 1.31 0 0 1 -.24.37 1.21 1.21 0 0 1 -.37.25 1.08 1.08 0 0 1 -.44.09 1.13 1.13 0 0 1 -.45-.09 1.25 1.25 0 0 1 -.38-.25 1.31 1.31 0 0 1 -.24-.37 1.06 1.06 0 0 1 -.1-.46 1.14 1.14 0 0 1 .1-.45 1.2 1.2 0 0 1 .62-.61 1.14 1.14 0 0 1 .45-.1zm0 .41a.73.73 0 0 0 -.3.06 1 1 0 0 0 -.24.17 1 1 0 0 0 -.16.24.8.8 0 0 0 -.06.3.68.68 0 0 0 .07.28.66.66 0 0 0 .17.24.77.77 0 0 0 .52.22.72.72 0 0 0 .29-.06.81.81 0 0 0 .24-.17.78.78 0 0 0 .16-.24.68.68 0 0 0 .06-.29.72.72 0 0 0 -.06-.29.74.74 0 0 0 -.4-.4.72.72 0 0 0 -.3-.06z" fill="#040000"/><path d="m180.18 217a1.14 1.14 0 0 0 -.3-.6.85.85 0 0 0 -.63-.23 1.1 1.1 0 0 0 -.72.21 1.5 1.5 0 0 0 -.41.55 2.89 2.89 0 0 0 -.18.73c0 .26-.06.51-.08.74.07-.09.14-.19.22-.28a1.54 1.54 0 0 1 .26-.25 1.2 1.2 0 0 1 .34-.17 1.37 1.37 0 0 1 .47-.07 1.54 1.54 0 0 1 1.16.42 1.61 1.61 0 0 1 .41 1.17 1.66 1.66 0 0 1 -.41 1.18 1.58 1.58 0 0 1 -1.17.42 1.92 1.92 0 0 1 -.69-.12 1.32 1.32 0 0 1 -.54-.4 2 2 0 0 1 -.37-.73 4.33 4.33 0 0 1 -.13-1.11 5.9 5.9 0 0 1 .08-.91 3 3 0 0 1 .27-.86 1.84 1.84 0 0 1 .55-.65 1.46 1.46 0 0 1 .89-.25 1.51 1.51 0 0 1 1 .31 1.28 1.28 0 0 1 .47.9zm-1 1a1 1 0 0 0 -.47.1 1.1 1.1 0 0 0 -.35.26 1.47 1.47 0 0 0 -.22.39 1.49 1.49 0 0 0 -.07.47 1.65 1.65 0 0 0 .06.43 1.18 1.18 0 0 0 .19.39 1.08 1.08 0 0 0 .35.28 1 1 0 0 0 .52.11 1.22 1.22 0 0 0 .53-.1 1.07 1.07 0 0 0 .34-.29 1.14 1.14 0 0 0 .19-.4 1.67 1.67 0 0 0 .06-.44 1.32 1.32 0 0 0 -.27-.89 1.09 1.09 0 0 0 -.9-.31z" fill="#040000"/><path d="m183 215.81a1.65 1.65 0 0 1 .63.11 1.19 1.19 0 0 1 .45.3 1.23 1.23 0 0 1 .3.44 2.21 2.21 0 0 1 .18.53 3.82 3.82 0 0 1 .09.59v.58a7 7 0 0 1 -.07.94 2.3 2.3 0 0 1 -.26.79 1.42 1.42 0 0 1 -.51.55 1.82 1.82 0 0 1 -1.66 0 1.52 1.52 0 0 1 -.52-.55 2.68 2.68 0 0 1 -.25-.8 6.07 6.07 0 0 1 -.07-1 6.88 6.88 0 0 1 .06-.92 2.42 2.42 0 0 1 .24-.8 1.41 1.41 0 0 1 .51-.57 1.5 1.5 0 0 1 .88-.19zm1.22 2.51a5 5 0 0 0 -.05-.78 2.68 2.68 0 0 0 -.17-.69 1.21 1.21 0 0 0 -.38-.48 1 1 0 0 0 -.63-.18 1 1 0 0 0 -.61.18 1.36 1.36 0 0 0 -.37.5 2.75 2.75 0 0 0 -.18.7 5.16 5.16 0 0 0 0 .79 5.75 5.75 0 0 0 .06.87 2 2 0 0 0 .2.66 1 1 0 0 0 .37.42 1.08 1.08 0 0 0 .59.15 1 1 0 0 0 .64-.19 1.2 1.2 0 0 0 .37-.51 2.68 2.68 0 0 0 .17-.69 6.51 6.51 0 0 0 -.05-.75z" fill="#040000"/><path d="m187.69 217a1.13 1.13 0 0 1 -.09.45 1.15 1.15 0 0 1 -.25.37 1.08 1.08 0 0 1 -.37.24 1.06 1.06 0 0 1 -.9 0 1.13 1.13 0 0 1 -.36-.24 1.15 1.15 0 0 1 -.25-.37 1.17 1.17 0 0 1 0-.9 1 1 0 0 1 .25-.36 1.19 1.19 0 0 1 .36-.26 1.17 1.17 0 0 1 .9 0 1 1 0 0 1 .37.25 1.05 1.05 0 0 1 .25.37 1.13 1.13 0 0 1 .09.45zm-1.16.75a.72.72 0 0 0 .29-.06.78.78 0 0 0 .24-.16.81.81 0 0 0 .17-.24.72.72 0 0 0 .06-.29.71.71 0 0 0 0-.29.81.81 0 0 0 -.17-.24.78.78 0 0 0 -.24-.16.82.82 0 0 0 -.3-.07.72.72 0 0 0 -.29.06.81.81 0 0 0 -.24.17.78.78 0 0 0 -.16.24.73.73 0 0 0 0 .58.74.74 0 0 0 .4.4.72.72 0 0 0 .24.08zm.27 3.07h-.36l2.78-5h.36zm2.71-2.42a1.13 1.13 0 0 1 .45.09 1.34 1.34 0 0 1 .37.25 1.31 1.31 0 0 1 .24.37 1.17 1.17 0 0 1 0 .9 1.18 1.18 0 0 1 -.24.37 1.15 1.15 0 0 1 -.37.25 1.13 1.13 0 0 1 -.45.09 1.2 1.2 0 0 1 -.45-.09 1.15 1.15 0 0 1 -.37-.25 1.21 1.21 0 0 1 -.25-.37 1.13 1.13 0 0 1 -.09-.45 1 1 0 0 1 .1-.45 1.15 1.15 0 0 1 .25-.37 1.21 1.21 0 0 1 .37-.25 1.12 1.12 0 0 1 .44-.07zm0 .41a.73.73 0 0 0 -.3.06.81.81 0 0 0 -.24.17.78.78 0 0 0 -.16.24.72.72 0 0 0 -.06.29.75.75 0 0 0 .06.29 1 1 0 0 0 .17.24.78.78 0 0 0 .24.16.73.73 0 0 0 .58 0 1 1 0 0 0 .24-.17 1 1 0 0 0 .16-.24.73.73 0 0 0 0-.58 1 1 0 0 0 -.16-.24.78.78 0 0 0 -.24-.16.72.72 0 0 0 -.29-.04z" fill="#040000"/><path d="m282 219.53h-2.26v-.39l2.3-3.28h.4v3.29h.69v.38h-.69v1.21h-.44zm-1.82-.38h1.82v-2.62z" fill="#040000"/><path d="m285.28 215.81a1.73 1.73 0 0 1 .63.11 1.19 1.19 0 0 1 .45.3 1.55 1.55 0 0 1 .3.44 2.21 2.21 0 0 1 .18.53 3.81 3.81 0 0 1 .08.59 7 7 0 0 1 -.05 1.52 2.29 2.29 0 0 1 -.25.79 1.42 1.42 0 0 1 -.51.55 1.57 1.57 0 0 1 -.83.2 1.63 1.63 0 0 1 -.84-.2 1.42 1.42 0 0 1 -.51-.55 2.42 2.42 0 0 1 -.25-.8 6.07 6.07 0 0 1 -.07-1 6.88 6.88 0 0 1 .06-.92 2.42 2.42 0 0 1 .24-.8 1.41 1.41 0 0 1 .51-.57 1.48 1.48 0 0 1 .86-.19zm1.22 2.51a6.53 6.53 0 0 0 -.05-.78 2.32 2.32 0 0 0 -.18-.69 1.19 1.19 0 0 0 -.37-.48 1 1 0 0 0 -.64-.18 1 1 0 0 0 -.6.18 1.26 1.26 0 0 0 -.37.5 2.39 2.39 0 0 0 -.18.7 5.16 5.16 0 0 0 -.06.79 5.75 5.75 0 0 0 .06.87 2.23 2.23 0 0 0 .2.66 1.11 1.11 0 0 0 .38.42 1.05 1.05 0 0 0 .59.15 1 1 0 0 0 .64-.19 1.3 1.3 0 0 0 .37-.51 2.33 2.33 0 0 0 .16-.69 6.59 6.59 0 0 0 .05-.75z" fill="#040000"/><path d="m290 217a1.13 1.13 0 0 1 -.09.45 1.15 1.15 0 0 1 -.25.37 1.18 1.18 0 0 1 -.37.24 1.06 1.06 0 0 1 -.9 0 1.31 1.31 0 0 1 -.37-.24 1.34 1.34 0 0 1 -.25-.37 1.17 1.17 0 0 1 0-.9 1.16 1.16 0 0 1 .25-.36 1.37 1.37 0 0 1 .37-.26 1.17 1.17 0 0 1 .9 0 1.17 1.17 0 0 1 .62.62 1.13 1.13 0 0 1 .09.45zm-1.16.75a.72.72 0 0 0 .29-.06.78.78 0 0 0 .24-.16.81.81 0 0 0 .17-.24.73.73 0 0 0 0-.58.78.78 0 0 0 -.16-.24.72.72 0 0 0 -.25-.16.73.73 0 0 0 -.29-.07.72.72 0 0 0 -.29.06.87.87 0 0 0 -.41.41.73.73 0 0 0 0 .58.81.81 0 0 0 .17.24.78.78 0 0 0 .24.16.72.72 0 0 0 .3.08zm.27 3.07h-.36l2.78-5h.36zm2.71-2.42a1.13 1.13 0 0 1 .45.09 1.16 1.16 0 0 1 .36.25 1 1 0 0 1 .24.37 1.17 1.17 0 0 1 0 .9.91.91 0 0 1 -.24.37 1 1 0 0 1 -.36.25 1.17 1.17 0 0 1 -.9 0 1.17 1.17 0 0 1 -.62-.62 1.17 1.17 0 0 1 0-.9 1.6 1.6 0 0 1 .25-.37 1.34 1.34 0 0 1 .37-.25 1.13 1.13 0 0 1 .46-.07zm0 .41a.72.72 0 0 0 -.29.06.7.7 0 0 0 -.24.17.78.78 0 0 0 -.16.24.72.72 0 0 0 -.06.29.75.75 0 0 0 .06.29.81.81 0 0 0 .17.24.78.78 0 0 0 .24.16.71.71 0 0 0 .28.06.68.68 0 0 0 .29-.06.86.86 0 0 0 .24-.17.78.78 0 0 0 .16-.24.73.73 0 0 0 0-.58.78.78 0 0 0 -.16-.24.67.67 0 0 0 -.24-.16.68.68 0 0 0 -.29-.04z" fill="#040000"/><path d="m382.37 217.43a1.69 1.69 0 0 1 .11-.66 1.46 1.46 0 0 1 .32-.52 1.34 1.34 0 0 1 .51-.32 1.76 1.76 0 0 1 .66-.12 1.8 1.8 0 0 1 .65.11 1.43 1.43 0 0 1 .48.29 1.06 1.06 0 0 1 .29.43 1.39 1.39 0 0 1 .1.53 1.55 1.55 0 0 1 -.11.59 1.6 1.6 0 0 1 -.29.44 2.23 2.23 0 0 1 -.4.35 4.57 4.57 0 0 1 -.47.29l-.47.27a3.21 3.21 0 0 0 -.41.26l-.23.19a1.43 1.43 0 0 0 -.2.23.84.84 0 0 0 -.15.26.79.79 0 0 0 -.06.32h2.75v.37h-3.23a2.55 2.55 0 0 1 .08-.64 1.34 1.34 0 0 1 .3-.56 4.1 4.1 0 0 1 .54-.5c.18-.14.37-.27.54-.38l.51-.3a2.25 2.25 0 0 0 .42-.3 1.21 1.21 0 0 0 .28-.36 1.17 1.17 0 0 0 0-.92 1 1 0 0 0 -.24-.33 1.13 1.13 0 0 0 -.34-.2 1.44 1.44 0 0 0 -.43-.06.92.92 0 0 0 -.44.1 1.13 1.13 0 0 0 -.34.27 1.07 1.07 0 0 0 -.22.39 1.1 1.1 0 0 0 -.07.48z" fill="#040000"/><path d="m387.72 215.81a1.73 1.73 0 0 1 .63.11 1.19 1.19 0 0 1 .45.3 1.23 1.23 0 0 1 .3.44 2.21 2.21 0 0 1 .18.53 3.82 3.82 0 0 1 .09.59v.58a7 7 0 0 1 -.07.94 2.3 2.3 0 0 1 -.26.79 1.42 1.42 0 0 1 -.51.55 1.82 1.82 0 0 1 -1.66 0 1.52 1.52 0 0 1 -.52-.55 2.68 2.68 0 0 1 -.25-.8 6.07 6.07 0 0 1 -.07-1 6.88 6.88 0 0 1 .06-.92 2.42 2.42 0 0 1 .24-.8 1.41 1.41 0 0 1 .51-.57 1.5 1.5 0 0 1 .88-.19zm1.22 2.51a6.53 6.53 0 0 0 -.05-.78 2.68 2.68 0 0 0 -.17-.69 1.21 1.21 0 0 0 -.38-.48 1 1 0 0 0 -.63-.18 1 1 0 0 0 -.61.18 1.36 1.36 0 0 0 -.37.5 2.75 2.75 0 0 0 -.18.7 5.16 5.16 0 0 0 -.05.79 5.75 5.75 0 0 0 .06.87 2 2 0 0 0 .2.66 1 1 0 0 0 .37.42 1.08 1.08 0 0 0 .59.15 1 1 0 0 0 .64-.19 1.2 1.2 0 0 0 .37-.51 2.68 2.68 0 0 0 .17-.69 6.51 6.51 0 0 0 .04-.75z" fill="#040000"/><path d="m392.45 217a1.13 1.13 0 0 1 -.09.45 1.15 1.15 0 0 1 -.25.37 1.08 1.08 0 0 1 -.37.24 1.06 1.06 0 0 1 -.9 0 1.13 1.13 0 0 1 -.36-.24 1.15 1.15 0 0 1 -.25-.37 1.17 1.17 0 0 1 0-.9 1 1 0 0 1 .25-.36 1.19 1.19 0 0 1 .36-.26 1.17 1.17 0 0 1 .9 0 1 1 0 0 1 .37.25 1.05 1.05 0 0 1 .25.37 1.13 1.13 0 0 1 .09.45zm-1.16.75a.72.72 0 0 0 .29-.06.78.78 0 0 0 .24-.16.81.81 0 0 0 .17-.24.72.72 0 0 0 .06-.29.71.71 0 0 0 -.05-.29.81.81 0 0 0 -.17-.24.78.78 0 0 0 -.24-.16.82.82 0 0 0 -.3-.07.72.72 0 0 0 -.29.06.81.81 0 0 0 -.24.17.63.63 0 0 0 -.16.24.73.73 0 0 0 0 .58.63.63 0 0 0 .16.24.78.78 0 0 0 .24.16.72.72 0 0 0 .29.08zm.27 3.07h-.36l2.78-5h.36zm2.71-2.42a1.13 1.13 0 0 1 .45.09 1.34 1.34 0 0 1 .37.25 1.31 1.31 0 0 1 .24.37 1.17 1.17 0 0 1 0 .9 1.18 1.18 0 0 1 -.24.37 1.15 1.15 0 0 1 -.37.25 1.13 1.13 0 0 1 -.45.09 1.17 1.17 0 0 1 -.45-.09 1.15 1.15 0 0 1 -.37-.25 1.21 1.21 0 0 1 -.25-.37 1.13 1.13 0 0 1 -.09-.45 1 1 0 0 1 .1-.45 1.15 1.15 0 0 1 .25-.37 1.21 1.21 0 0 1 .37-.25 1.12 1.12 0 0 1 .44-.07zm0 .41a.73.73 0 0 0 -.3.06.81.81 0 0 0 -.24.17.78.78 0 0 0 -.16.24.72.72 0 0 0 -.06.29.75.75 0 0 0 .06.29 1 1 0 0 0 .17.24.78.78 0 0 0 .24.16.73.73 0 0 0 .58 0 .92.92 0 0 0 .4-.41.73.73 0 0 0 0-.58.81.81 0 0 0 -.17-.24.63.63 0 0 0 -.23-.16.72.72 0 0 0 -.29-.04z" fill="#040000"/><path d="m4.35 215.07c0 .08 0 .12-.08.13s-.09.07-.09.17v1.63h2c.06 0 .09 0 .09.13v.27q0 .12-.09.12h-2v1.8h3.22c.07 0 .1 0 .1.13v.27c0 .08 0 .13-.1.13h-7.3c-.07 0-.1 0-.1-.13v-.27c0-.08 0-.13.1-.13h1.19v-2.93c0-.06 0-.09.14-.09.41 0 .63 0 .63.09s0 .12-.08.13-.08.07-.08.17v2.63h1.65v-4.29c0-.06 0-.1.14-.1.44.07.66.07.66.14zm0-2.27c.06 0 .09.08.09.12s-.06.13-.16.13a.49.49 0 0 0 -.19 0 7.41 7.41 0 0 0 .69 1 4.82 4.82 0 0 0 .94.85 5.43 5.43 0 0 0 1.57.84c.06 0 .11 0 .11.07a.18.18 0 0 1 -.05.11 4.05 4.05 0 0 0 -.36.31c0 .05-.07.08-.09.08a5 5 0 0 1 -1.16-.61 5.07 5.07 0 0 1 -1.19-1 9.12 9.12 0 0 1 -.89-1.15 8.09 8.09 0 0 1 -.63.72 6.33 6.33 0 0 1 -.78.77 11.25 11.25 0 0 1 -.94.72 4.41 4.41 0 0 1 -.76.44.15.15 0 0 1 -.14-.08 1.66 1.66 0 0 0 -.28-.35c-.07 0-.1-.07-.1-.1s0 0 0 0a7.79 7.79 0 0 0 1.09-.56 7.91 7.91 0 0 0 1.2-.94 5.22 5.22 0 0 0 .65-.72 5.59 5.59 0 0 0 .52-.83c0-.06.1-.1.14-.1z" fill="#383736"/><path d="m11.86 212.65a.12.12 0 0 1 -.09.13c-.06 0-.08.07-.08.17v1.1h1.13v-1.43c0-.07 0-.1.13-.1.42 0 .63 0 .63.1s0 .12-.08.13-.09.06-.09.17v1.13h.71a4 4 0 0 0 .32-.54c.1-.25.19-.48.26-.7a.09.09 0 0 1 .07-.06l.53.28s.08.06.08.09a.08.08 0 0 1 -.09.07c-.08 0-.13 0-.14.08q-.15.34-.39.78h1.14s.07 0 .07.1v.26c0 .09 0 .14-.07.14h-1.84c-.1.31-.2.61-.31.89h1.49c.07 0 .1.05.1.14v.26c0 .09 0 .14-.1.14h-2.65v.66h2.25s.07 0 .07.09v.27c0 .09 0 .13-.07.13h-2.25v.66h3c.07 0 .1.05.1.14v.26c0 .1 0 .14-.1.14h-2.67a5.21 5.21 0 0 0 .76.44 8.47 8.47 0 0 0 1.21.48 9.21 9.21 0 0 0 1.18.28s0 .07-.09.09a2.55 2.55 0 0 0 -.32.37s-.07.06-.09.06a10.83 10.83 0 0 1 -1.45-.5 5.6 5.6 0 0 1 -1.1-.62 2.61 2.61 0 0 1 -.43-.31v1.54c0 .06-.06.1-.17.1h-.33c-.1 0-.14 0-.14-.1v-1.47a1.19 1.19 0 0 1 -.21.15 6.73 6.73 0 0 1 -.89.53 10.34 10.34 0 0 1 -1.14.47 7.08 7.08 0 0 1 -.88.25s-.08 0-.11-.11l-.28-.32s-.08-.08-.08-.1c.56-.12 1.05-.24 1.45-.36a6.89 6.89 0 0 0 1.19-.48 3.91 3.91 0 0 0 .58-.39h-2.68c-.07 0-.1 0-.1-.14v-.26c0-.09 0-.14.1-.14h3v-.66h-2.3c-.06 0-.07 0-.07-.13v-.27c0-.06 0-.09.07-.09h2.4v-.64h-2.74c-.06 0-.1 0-.1-.14v-.26c0-.09 0-.14.1-.14h1.57c-.15-.34-.3-.64-.43-.89h-1.83c-.05 0-.07-.05-.07-.14v-.26c0-.07 0-.1.07-.1h1.43l-.11-.23a5.59 5.59 0 0 0 -.5-.77s.13-.12.42-.26a6.26 6.26 0 0 1 .51.75 4 4 0 0 1 .25.51h.54v-1.4c0-.07 0-.1.13-.1.4-.02.62.01.62.08zm1.28 2.79a4.09 4.09 0 0 0 .2-.47 2.52 2.52 0 0 0 .15-.42h-2.49c.17.29.33.58.48.89z" fill="#383736"/><path d="m20.7 212.91.69.47a.21.21 0 0 1 -.06.08 3.65 3.65 0 0 1 -.23.32h3a.09.09 0 0 1 .1.1v.34c0 .08 0 .12-.1.12h-3v2.16h2.62a.09.09 0 0 1 .1.1v.34c0 .09 0 .13-.1.13h-2.63v2.22h3.35a.09.09 0 0 1 .1.1v.33c0 .09 0 .14-.1.14h-7.37c-.07 0-.1-.05-.1-.14v-.33c0-.07 0-.1.1-.1h3.38v-2.22h-2.72c-.07 0-.1 0-.1-.13v-.34a.09.09 0 0 1 .1-.1h2.72v-2.16h-3c-.06 0-.1 0-.1-.12v-.34a.09.09 0 0 1 .1-.1h3.55a9.23 9.23 0 0 0 -.82-.57 5.71 5.71 0 0 0 -.65-.33 2.3 2.3 0 0 1 .26-.37s.05 0 .07 0a7.81 7.81 0 0 1 .84.4z" fill="#383736"/><path d="m28.42 212.7c.07.05.11.09.11.12a.13.13 0 0 1 -.11.13c-.12 0-.19 0-.22.1s-.07.12-.08.16h2.66a.22.22 0 0 1 .16 0c.11.1.17.17.17.22l-1.28 1.3h2.17c.09 0 .13 0 .13.1v3.05c0 .07 0 .1-.13.1h-.33c-.09 0-.13 0-.13-.1v-.26h-4.54v1.38c0 .27.16.4.5.4h4.45a.43.43 0 0 0 .48-.34 4 4 0 0 0 .18-.76 1.25 1.25 0 0 0 .47.26.12.12 0 0 1 .1.14 2.82 2.82 0 0 1 -.29.89c-.09.24-.34.37-.75.37h-5c-.51 0-.76-.19-.76-.56v-4.2l-.44.28a.38.38 0 0 1 -.19 0l-.35-.14-.05-.05s0-.05.05-.07a6.12 6.12 0 0 0 1.25-1 4.65 4.65 0 0 0 .56-.7 5.09 5.09 0 0 0 .52-1 .12.12 0 0 1 .11-.07zm.63 2.08 1.06-1h-2.32a4.79 4.79 0 0 1 -.29.4c-.19.22-.38.43-.58.63zm-2.05 2.35h2v-1.82h-2zm2.65 0h2v-1.82h-2z" fill="#383736"/><path d="m38.62 212.55a.12.12 0 0 1 -.09.13c-.05 0-.08.07-.08.17v.3h2.95c.05 0 .07 0 .07.1v.27c0 .08 0 .13-.07.13h-1.59a2.14 2.14 0 0 1 .43.2s0 .07-.1.09a.31.31 0 0 0 -.15.1c-.05.09-.11.18-.17.27h1.32s.07 0 .07.1v.26c0 .07 0 .11-.07.11h-1.43v.56h1.29s.07 0 .07.1v.26c0 .07 0 .11-.07.11h-1.29v.56h1.29s.07 0 .07.1v.26c0 .07 0 .1-.07.1h-1.29v.61h1.66s.07 0 .07.09v.26c0 .07 0 .11-.07.11h-3.37v.1c0 .07-.05.11-.14.11h-.26c-.09 0-.14 0-.14-.11v-2.6a9.45 9.45 0 0 1 -.69.8.16.16 0 0 1 -.13-.06l-.17-.14v1.93c0 .06-.05.1-.14.1h-.26c-.08 0-.13 0-.13-.1v-2.18c-.13.14-.28.27-.43.42a.17.17 0 0 1 -.14-.07c-.06 0-.14-.11-.21-.18a.1.1 0 0 1 0-.08c.19-.18.38-.36.57-.56a4.32 4.32 0 0 0 .65-.86 4 4 0 0 0 .34-.74h-1.59v2.12a13.21 13.21 0 0 1 -.13 2.1 5.54 5.54 0 0 1 -.34 1.3 3 3 0 0 1 -.39.75h-.08a1.21 1.21 0 0 0 -.31-.21.2.2 0 0 1 0-.11 4.37 4.37 0 0 0 .39-.9 7.14 7.14 0 0 0 .25-1.27 13.27 13.27 0 0 0 .09-1.68v-2.52c0-.06 0-.1.09-.1h3.19v-.6c0-.06 0-.09.14-.09.37-.01.59.02.59.08zm-2 5.95a.1.1 0 0 1 -.07.09.31.31 0 0 0 -.16.12 3.82 3.82 0 0 1 -.3.92c-.08.14-.18.27-.28.41a.16.16 0 0 1 -.09.05 2.87 2.87 0 0 0 -.46-.12s-.07 0-.07-.08a4.13 4.13 0 0 0 .41-.59 3.17 3.17 0 0 0 .29-.94s0-.06.13-.06c.44.08.64.15.64.2zm.27-3.2a5 5 0 0 0 .59-.88 4.36 4.36 0 0 0 .3-.77h-.78a1.7 1.7 0 0 1 .39.23c0 .06 0 .07-.06.07s-.16 0-.18.1a6.31 6.31 0 0 1 -.63 1.08v.67c.12-.16.27-.33.41-.5zm.73 3.11c.06 0 .1 0 .1.06s0 .08 0 .09a.1.1 0 0 0 -.06.1v.6c0 .22.15.33.44.33h1.22a.9.9 0 0 0 .55-.11 1.67 1.67 0 0 0 .28-.68 1 1 0 0 0 .33.29c.07 0 .11.06.11.11a1.91 1.91 0 0 1 -.37.74.68.68 0 0 1 -.53.15h-1.69c-.6 0-.9-.18-.9-.53v-1.13a.06.06 0 0 1 .07-.07zm1.52-3.63h-1.14v.56h1.16zm0 1h-1.14v.56h1.16zm0 1.63v-.61h-1.14v.61zm0-3.13.1-.14a2.1 2.1 0 0 0 .26-.52h-1.43a1.36 1.36 0 0 1 .35.23s0 .06-.05.06a.21.21 0 0 0 -.15.07 1.82 1.82 0 0 0 -.13.3zm-.13 4.29.35.39v.06l-.23.31a4.65 4.65 0 0 0 -.49-.5 2.07 2.07 0 0 0 -.34-.27 2.1 2.1 0 0 1 .23-.31s.05-.05.07-.05a5 5 0 0 1 .5.4zm2.23.3a5 5 0 0 1 .34.59 2.36 2.36 0 0 1 -.5.17 1.72 1.72 0 0 0 -.26-.5 3.73 3.73 0 0 0 -.57-.66s.14-.13.43-.27a7.35 7.35 0 0 1 .65.7z" fill="#383736"/><path d="m49.21 212.79c.11 0 .17 0 .17.13v6.35a.7.7 0 0 1 -.42.62 3.51 3.51 0 0 1 -1 .23c-.07 0-.1 0-.11-.1a1.55 1.55 0 0 0 -.19-.53s0-.05.09-.05a2 2 0 0 0 .87-.09.36.36 0 0 0 .16-.32v-1.36h-2.17v2.22c0 .06 0 .1-.12.1h-.34c-.09 0-.13 0-.13-.1v-2.22h-2.25a1.55 1.55 0 0 0 0 .21 5.46 5.46 0 0 1 -.41 1.44 4 4 0 0 1 -.45.84.17.17 0 0 1 -.09 0 1.39 1.39 0 0 0 -.31-.23.17.17 0 0 1 0-.12 4 4 0 0 0 .47-1 8.67 8.67 0 0 0 .31-1.4c0-.51.09-1.13.09-1.86v-2.62c0-.09 0-.13.13-.13zm-3.21 4.34v-1.66h-2.11v.07c0 .61 0 1.15-.06 1.59zm0-2.13v-1.64h-2.11v1.64zm.59 0h2.16v-1.64h-2.14zm2.16 2.18v-1.66h-2.14v1.66z" fill="#383736"/><path d="m51.89 214.89q.33.23.57.42v.07l-.26.36a7.14 7.14 0 0 0 -.77-.55 4.79 4.79 0 0 0 -.55-.28 1.59 1.59 0 0 1 .25-.37s0-.06.08-.06a8 8 0 0 1 .68.41zm.43 1.65.21.46a.35.35 0 0 1 0 .12c-.21.66-.4 1.21-.57 1.66-.11.26-.22.54-.36.84a.89.89 0 0 0 0 .3c0 .07 0 .1-.07.1s-.22-.17-.51-.5a.11.11 0 0 1 -.06-.09.21.21 0 0 1 0-.12 4.55 4.55 0 0 0 .38-.62c.17-.34.35-.71.52-1.13s.28-.72.38-1c0 0 0-.07.06-.07s0 0 .02.05zm0-3.4.56.47s0 0 0 .08l-.25.36a7.36 7.36 0 0 0 -.76-.62 3.32 3.32 0 0 0 -.54-.31 1.47 1.47 0 0 1 .26-.37s0-.06.07-.06c.26.17.5.31.68.45zm1.32 3.9v.49h4.86s.07 0 .07.1v.27c0 .09 0 .13-.07.13h-2.07a3.84 3.84 0 0 0 .45.62 2.12 2.12 0 0 0 .26.26c.21-.2.39-.39.54-.56a.12.12 0 0 1 .09 0 .14.14 0 0 1 .11 0c.28.2.42.33.42.38s0 .1-.09.1h-.17a.16.16 0 0 0 -.12 0l-.41.35a3.73 3.73 0 0 0 .54.31c.19.09.4.17.62.25a.13.13 0 0 1 -.06.09 1.23 1.23 0 0 0 -.22.29.13.13 0 0 1 -.11.05 5.17 5.17 0 0 1 -.83-.38 5.93 5.93 0 0 1 -.62-.47 3.45 3.45 0 0 1 -.54-.59 6.72 6.72 0 0 1 -.44-.72h-.85v1.3c.38-.11.72-.23 1.06-.35s.07 0 .07.1a1.28 1.28 0 0 1 0 .43c-.63.22-1.28.41-1.93.6-.08.15-.14.23-.19.23s-.16-.22-.3-.66l.73-.18v-1.48h-.78a5.5 5.5 0 0 1 -.1.59 3.4 3.4 0 0 1 -.39 1 2.37 2.37 0 0 1 -.43.57h-.07a1.57 1.57 0 0 0 -.26-.19.11.11 0 0 1 0-.09 2.39 2.39 0 0 0 .45-.66 4.19 4.19 0 0 0 .29-.93 8.39 8.39 0 0 0 .09-1.23v-1.23c0-.07 0-.11.1-.11h5.16s.07 0 .07.11v.26c0 .09 0 .13-.07.13h-4.84zm1.16-4.12v-.46c0-.05 0-.07.1-.07.39 0 .59 0 .59.09s0 .11-.06.12-.06.06-.06.15v.17h.79v-.46c0-.05 0-.07.1-.07q.6 0 .6.09c0 .07 0 .11-.07.12s-.06.06-.06.15v.17h1.27c.09 0 .14 0 .14.1v2.22c0 .07 0 .1-.14.1h-4.44c-.1 0-.14 0-.14-.1v-2.24c0-.07 0-.1.14-.1zm0 1v-.53h-.8v.53zm0 .43h-.8v.54h.83zm3.12 2.3s.06 0 .06.09v.26c0 .07 0 .1-.06.1h-3.7s-.07 0-.07-.1v-.27c0-.06 0-.09.07-.09zm-2.55-2.73h.79v-.53h-.79zm.79.43h-.79v.54h.79zm.57-.43h.83v-.53h-.83zm.83.43h-.83v.54h.83z" fill="#383736"/><path d="m64.32 212.58c0 .08 0 .12-.09.13s-.08.07-.08.17v.37h2.79c.06 0 .1.05.1.13v.27c0 .09 0 .13-.1.13h-6.24v2.13a12.52 12.52 0 0 1 -.16 2.19 5.55 5.55 0 0 1 -.4 1.34 3 3 0 0 1 -.44.78h-.09a1.23 1.23 0 0 0 -.31-.24.2.2 0 0 1 0-.11 3.93 3.93 0 0 0 .45-.94 8.14 8.14 0 0 0 .29-1.29 16.43 16.43 0 0 0 .08-1.72v-2.53a.12.12 0 0 1 .14-.13h3.32v-.67c0-.06.05-.1.13-.1.4-.01.61.03.61.09zm1.59 4.59a.24.24 0 0 1 .15 0c.12.12.18.19.18.23a5.15 5.15 0 0 1 -.61.89 4 4 0 0 1 -.71.67l-.22.15a4.38 4.38 0 0 0 .66.19 12.68 12.68 0 0 0 1.53.28h.11a.13.13 0 0 1 0 .1 2.79 2.79 0 0 0 -.35.34c0 .06-.08.09-.11.09l-.19-.05c-.3 0-.62-.12-1-.2s-.82-.24-1.17-.38l-.18.02a8.52 8.52 0 0 1 -1.35.46c-.33.08-.76.17-1.29.25a.22.22 0 0 1 -.18-.08l-.2-.3a.12.12 0 0 1 0-.08s0 0 .07 0c.33 0 .65-.09 1-.15a8 8 0 0 0 1.41-.39l-.18-.12a2 2 0 0 1 -.67-.61 2.66 2.66 0 0 1 -.52-.77h-.55c-.06 0-.1 0-.1-.14v-.26a.09.09 0 0 1 .1-.1zm-3.59-2.39v-.53c0-.07 0-.1.14-.1.41 0 .63 0 .63.1s0 .12-.09.12-.08.08-.08.18v.23h2v-.53c0-.07 0-.1.14-.1.41 0 .62 0 .62.1s0 .12-.08.12-.09.08-.09.18v.23h1.39s.07 0 .07.1v.26c0 .1 0 .14-.07.14h-1.43v1.12c0 .09 0 .14-.12.14h-2.89a.12.12 0 0 1 -.14-.14v-1.12h-1.26c-.05 0-.06 0-.06-.14v-.26c0-.07 0-.1.06-.1zm.55 3.22a2.36 2.36 0 0 0 .63.58 2.9 2.9 0 0 0 .52.29 4 4 0 0 0 .46-.26 2.74 2.74 0 0 0 .65-.62 2 2 0 0 0 .23-.32h-2.71a1.9 1.9 0 0 0 .22.33zm2-2.72h-2v.72h2z" fill="#383736"/><path d="m.42 31.36h395.79v171.52h-395.79z" fill="#00a19b"/><path d="m.42 223.5h89.29v51.99h-89.29z" fill="#00b5ae"/><path d="m102.59 223.5h89.29v51.99h-89.29z" fill="#26c9c1"/><path d="m204.75 223.5h89.29v51.99h-89.29z" fill="#86dbd5"/><path d="m306.92 223.5h89.29v51.99h-89.29z" fill="#c5ede9"/><path d="m2.89 322.6a.19.19 0 0 1 .07.12s0 0-.06 0a.27.27 0 0 0 -.14.05 4.83 4.83 0 0 1 -.53.57 7.35 7.35 0 0 1 -.83.57c-.07 0-.12 0-.14-.06l-.3-.24s-.06 0-.06-.06a0 0 0 0 1 0 0 1.59 1.59 0 0 0 .39-.21 3.48 3.48 0 0 0 .59-.47c.13-.16.29-.34.46-.56 0 0 0-.06.05-.06zm4.82-6.15c.09 0 .13 0 .13.09v2.76c0 .07 0 .1-.13.1h-2.52v.8h2.39c.06 0 .1.05.1.13v.27c0 .09 0 .13-.1.13h-2.39v.83h3.38c.07 0 .1.05.1.13v.31c0 .09 0 .13-.1.13h-7.37c-.07 0-.1 0-.1-.13v-.27c0-.08 0-.13.1-.13h3.38v-.83h-2.35c-.07 0-.1 0-.1-.13v-.27c0-.08 0-.13.1-.13h2.35v-.8h-2.58c-.09 0-.13 0-.13-.1v-2.76c0-.06 0-.09.13-.09zm-3.13.55h-2.09v1.89h2.09zm-.74.94a5.66 5.66 0 0 1 .28.72 1.68 1.68 0 0 1 -.53.16 2.61 2.61 0 0 0 -.2-.6 4.62 4.62 0 0 0 -.43-.82s.15-.12.43-.27q.27.43.45.79zm.28 4.5a11.92 11.92 0 0 1 .67 1.17c0 .08 0 .12-.06.13a1 1 0 0 1 -.48.2c-.21-.51-.41-.93-.59-1.27 0-.06.12-.14.36-.26a.17.17 0 0 1 .1.01zm3.12-5.44h-2v1.89h2zm-1.36 5.48a9.18 9.18 0 0 1 .74 1.13c0 .08 0 .12-.06.13a1 1 0 0 1 -.48.2 12.92 12.92 0 0 0 -.66-1.23q0-.09.36-.27a.12.12 0 0 1 .1.02zm1-5.14q.12.06.12.12c0 .05 0 .07-.08.09a.11.11 0 0 0 -.12.09 5.52 5.52 0 0 1 -.56 1.1c0 .06-.08.08-.1.08a.22.22 0 0 1 -.14-.05l-.33-.14s-.06 0-.06 0v-.06a3.46 3.46 0 0 0 .38-.62 2.64 2.64 0 0 0 .28-.68c0-.06 0-.1.07-.1zm1.24 5.54c.24.24.44.44.61.63v.06c-.17.24-.25.37-.26.37a7.11 7.11 0 0 0 -.83-.82 5.44 5.44 0 0 0 -.6-.41 1.42 1.42 0 0 1 .26-.38s0-.06.07-.06a6.89 6.89 0 0 1 .79.59z" fill="#383736"/><path d="m12.56 316.4c.06.05.1.08.1.12a.12.12 0 0 1 -.1.12c-.12 0-.2 0-.22.11a1.46 1.46 0 0 0 -.09.16h2.66.16s.17.18.17.23l-1.24 1.33h2.21c.08 0 .13 0 .13.1v3.06c0 .06 0 .1-.13.1h-.33c-.1 0-.14 0-.14-.1v-.27h-4.64v1.36c0 .27.16.4.5.4h4.4a.44.44 0 0 0 .49-.33 4.16 4.16 0 0 0 .18-.77 1.43 1.43 0 0 0 .46.27.12.12 0 0 1 .1.13 3 3 0 0 1 -.28.9c-.1.23-.34.36-.75.36h-5c-.51 0-.77-.19-.77-.56v-4.2l-.43.28a.56.56 0 0 1 -.2 0l-.28-.2s0 0 0 0a.06.06 0 0 1 0-.06 5.9 5.9 0 0 0 1.25-1 4.46 4.46 0 0 0 .56-.69 5.74 5.74 0 0 0 .52-1 .12.12 0 0 1 .11-.07zm.63 2.07 1.05-1h-2.31a3.18 3.18 0 0 1 -.3.4 7 7 0 0 1 -.58.63zm-2.09 2.36h2.05v-1.83h-2.05zm2.65 0h2v-1.83h-2z" fill="#383736"/><path d="m24.68 323.06-2.36-2.69-.74.73v2h-.58v-5.58h.6v2.85l2.89-2.85h.78l-2.55 2.48 2.71 3.09z" fill="#383736"/><path d="m27.65 323.06v-4.46h-1.19v-.34h.06a1.55 1.55 0 0 0 .73-.18 1.11 1.11 0 0 0 .56-.59h.43v5.57z" fill="#383736"/><path d="m32.61 323.13c-1.22 0-1.82-1-1.82-2.88a4.26 4.26 0 0 1 .4-2.08 1.53 1.53 0 0 1 1.42-.75 1.55 1.55 0 0 1 1.42.75 4.38 4.38 0 0 1 .4 2.08c0 1.92-.61 2.88-1.82 2.88zm.91-4.67a1 1 0 0 0 -.91-.49 1 1 0 0 0 -.91.49 3.63 3.63 0 0 0 -.32 1.79 3.79 3.79 0 0 0 .32 1.82 1 1 0 0 0 .91.51 1 1 0 0 0 .91-.51 3.92 3.92 0 0 0 .32-1.82 3.75 3.75 0 0 0 -.32-1.79z" fill="#383736"/><path d="m37.28 323.13c-1.21 0-1.82-1-1.82-2.88a4.26 4.26 0 0 1 .4-2.08 1.72 1.72 0 0 1 2.84 0 4.26 4.26 0 0 1 .4 2.08c0 1.92-.61 2.88-1.82 2.88zm.91-4.67a1.09 1.09 0 0 0 -1.82 0 3.63 3.63 0 0 0 -.32 1.79 3.79 3.79 0 0 0 .32 1.82 1 1 0 0 0 .91.51 1 1 0 0 0 .91-.51 3.77 3.77 0 0 0 .33-1.82 3.61 3.61 0 0 0 -.33-1.79z" fill="#383736"/><path d="m203.27 316.75s-.05.07-.14.1a.36.36 0 0 0 -.25.13c-.13.18-.27.36-.42.53h3.13c.11 0 .17 0 .17.1v6.14c0 .07-.06.1-.17.1h-.33c-.1 0-.14 0-.14-.1v-.53h-4.88v.53c0 .07-.06.1-.16.1h-.33c-.09 0-.14 0-.14-.1v-6.14c0-.06 0-.1.14-.1h1.9c.11-.12.21-.21.28-.3a3 3 0 0 0 .45-.75s.05-.08.09-.08a4 4 0 0 1 .8.37zm1.85 3.29v-2h-4.88v2zm0 2.58v-2h-4.88v2z" fill="#383736"/><path d="m210.31 316.4c.07.05.1.08.1.12a.11.11 0 0 1 -.1.12c-.12 0-.2 0-.22.11a1.46 1.46 0 0 0 -.09.16h2.66.16s.17.18.17.23l-1.27 1.29h2.21c.08 0 .13 0 .13.1v3.06c0 .06-.05.1-.13.1h-.33c-.1 0-.14 0-.14-.1v-.27h-4.61v1.36c0 .27.16.4.5.4h4.44a.44.44 0 0 0 .49-.33 4.16 4.16 0 0 0 .18-.77 1.43 1.43 0 0 0 .46.27.12.12 0 0 1 .1.13 3 3 0 0 1 -.28.9c-.1.23-.34.36-.75.36h-5c-.51 0-.77-.19-.77-.56v-4.2l-.43.28a.56.56 0 0 1 -.2 0l-.35-.15s-.05 0-.05 0a.06.06 0 0 1 .05-.06 5.9 5.9 0 0 0 1.25-1 4.46 4.46 0 0 0 .56-.69 5.74 5.74 0 0 0 .52-1 .12.12 0 0 1 .11-.07zm.63 2.07 1.05-1h-2.31a3.18 3.18 0 0 1 -.3.4 7 7 0 0 1 -.58.63zm-2.09 2.36h2.05v-1.83h-2.05zm2.65 0h2v-1.83h-2z" fill="#383736"/><path d="m.64 327.45h197.75v30.09h-197.75z" fill="#231815"/><path d="m198.64 357.79h-198.25v-30.59h198.25zm-197.75-.5h197.25v-29.59h-197.25z" fill="#231815"/><path d="m198.39 327.45h197.75v30.09h-197.75z" fill="#fff"/><path d="m396.39 357.79h-198.25v-30.59h198.25zm-197.75-.5h197.25v-29.59h-197.25z" fill="#231815"/><path d="m.64 375.71h197.75v30.09h-197.75z" fill="#898c8e" opacity=".7"/><path d="m198.39 375.71h197.75v30.09h-197.75z" fill="#c30d23"/><path d="m.64 426.96h197.75v30.09h-197.75z" fill="#fff100"/><path d="m8.71 418.65s.06 0 .06.11v.24c0 .09 0 .14-.06.14h-7.61c-.05 0-.07-.05-.07-.14v-.26c0-.07 0-.11.07-.11zm-1.24.9c.09 0 .14 0 .14.1v2.69c0 .07-.05.1-.14.1h-1.18a5.24 5.24 0 0 0 1 .51 10.91 10.91 0 0 0 1.16.37c.07 0 .1.06.1.09s-.12.18-.36.42h-.13a11.06 11.06 0 0 1 -2.13-1s-.06-.06-.06-.07.09-.15.29-.33h-2.52c.26.21.38.33.38.36s0 .06-.1.06-.19 0-.19 0a10.43 10.43 0 0 1 -2.06 1 .16.16 0 0 1 -.15-.08.84.84 0 0 0 -.19-.24.17.17 0 0 1 -.06-.11s0-.07.08-.08a5.57 5.57 0 0 0 1-.4 5.56 5.56 0 0 0 .94-.58h-.92c-.1 0-.14 0-.14-.1v-2.69c0-.07 0-.1.14-.1zm-4.41-2.82v-.63c0-.07 0-.11.13-.11.43 0 .64 0 .64.11a.11.11 0 0 1 -.09.12c-.06 0-.08.07-.08.17v.34h2.39v-.67c0-.06 0-.09.13-.09q.63 0 .63.09c0 .08 0 .12-.08.13s-.08.07-.08.17v.37h1.52s.07 0 .07.1v.26c0 .09 0 .14-.07.14h-1.52v.86c0 .09-.05.13-.14.13h-3.32a.12.12 0 0 1 -.13-.13v-.86h-1.49c-.05 0-.07-.05-.07-.14v-.26c0-.07 0-.1.07-.1zm1.49 4v-.7h-1.72v.7zm0 .5h-1.72v.69h1.72zm1.5-3.52v-.5h-2.39v.5zm-.9 3h1.85v-.7h-1.85zm1.86.5h-1.86v.69h1.85z" fill="#383736"/><path d="m12.56 416.21c.06.06.1.09.1.12a.13.13 0 0 1 -.1.13c-.12 0-.2 0-.22.1a1.47 1.47 0 0 0 -.09.17h2.66.16s.17.18.17.23l-1.24 1.33h2.21c.08 0 .13 0 .13.1v3.05c0 .07 0 .1-.13.1h-.33c-.1 0-.14 0-.14-.1v-.26h-4.64v1.36c0 .27.16.4.5.4h4.4a.44.44 0 0 0 .49-.33 4.16 4.16 0 0 0 .18-.77 1.43 1.43 0 0 0 .46.27c.07 0 .1.05.1.13a2.88 2.88 0 0 1 -.28.89c-.1.24-.34.37-.75.37h-5c-.51 0-.77-.19-.77-.56v-4.2l-.43.28a.56.56 0 0 1 -.2 0l-.35-.15s0 0 0 0 0-.05 0-.07a5.55 5.55 0 0 0 1.25-1 4.1 4.1 0 0 0 .56-.7 5.09 5.09 0 0 0 .52-1 .14.14 0 0 1 .22-.1zm.63 2.08 1.05-1h-2.31a3.18 3.18 0 0 1 -.3.4c-.19.22-.37.43-.58.63zm-2.09 2.35h2.05v-1.82h-2.05zm2.65 0h2v-1.82h-2z" fill="#383736"/><path d="m23.4 420.26v2.61h-.59v-2.61l-2.21-3h.7l1.81 2.48 1.8-2.48h.7z" fill="#383736"/><path d="m27.8 422.88v-4.46h-1.19v-.34h.06a1.61 1.61 0 0 0 .73-.18 1.07 1.07 0 0 0 .55-.6h.43v5.58z" fill="#383736"/><path d="m32.75 423c-1.21 0-1.82-1-1.82-2.89a4.24 4.24 0 0 1 .4-2.07 1.71 1.71 0 0 1 2.84 0 4.24 4.24 0 0 1 .4 2.07c0 1.89-.57 2.89-1.82 2.89zm.91-4.68a1.1 1.1 0 0 0 -1.82 0 3.66 3.66 0 0 0 -.32 1.79 3.74 3.74 0 0 0 .32 1.82 1.07 1.07 0 0 0 1.82 0 3.72 3.72 0 0 0 .33-1.82 3.64 3.64 0 0 0 -.33-1.84z" fill="#383736"/><path d="m37.43 423c-1.22 0-1.82-1-1.82-2.89a4.24 4.24 0 0 1 .39-2.11 1.54 1.54 0 0 1 1.42-.76 1.56 1.56 0 0 1 1.42.76 4.36 4.36 0 0 1 .4 2.07c.01 1.93-.61 2.93-1.81 2.93zm.91-4.68a1 1 0 0 0 -.91-.48 1 1 0 0 0 -.91.48 3.66 3.66 0 0 0 -.32 1.79 3.74 3.74 0 0 0 .32 1.82 1 1 0 0 0 .91.51 1 1 0 0 0 .91-.51 3.86 3.86 0 0 0 .32-1.82 3.78 3.78 0 0 0 -.32-1.84z" fill="#383736"/><path d="m198.39 426.96h197.75v30.09h-197.75z" fill="#857550"/><g fill="#383736"><path d="m203.38 416.25c.05.05.08.08.08.11s-.05.1-.16.1a.72.72 0 0 0 -.22 0 8.27 8.27 0 0 0 1 1.14 6.83 6.83 0 0 0 1.15.9 3.73 3.73 0 0 0 1.26.55.1.1 0 0 1 -.07.1 2.39 2.39 0 0 0 -.39.37s-.07.05-.14.05a5.2 5.2 0 0 1 -1.29-.73v.16c0 .09 0 .14-.1.14h-1.59v1.29h2.25c.07 0 .1.05.1.13v.27c0 .08 0 .12-.1.12h-2.25v1.93h3.09c.07 0 .1.05.1.14v.26c0 .09 0 .13-.1.13h-6.74c-.07 0-.1 0-.1-.13v-.28c0-.09 0-.14.1-.14h3.05v-1.86h-2.28c-.07 0-.1 0-.1-.12v-.27c0-.08 0-.13.1-.13h2.28v-1.29h-1.58c-.07 0-.11-.05-.11-.14v-.26l-.57.39a6.79 6.79 0 0 1 -.82.43.15.15 0 0 1 -.14-.08 1.7 1.7 0 0 0 -.27-.33c-.07 0-.09-.06-.09-.08s0 0 .07 0a7.77 7.77 0 0 0 1.18-.55 9.11 9.11 0 0 0 1.31-.93 6.8 6.8 0 0 0 .71-.72 5.51 5.51 0 0 0 .56-.81c.06-.06.11-.1.15-.1zm-2.53 5.16a10.26 10.26 0 0 1 .63 1.13c0 .08 0 .13-.06.13a.93.93 0 0 1 -.48.2c-.2-.49-.39-.9-.56-1.22 0-.06.12-.16.37-.28a.13.13 0 0 1 .1.04zm3.45-2.79a2.94 2.94 0 0 1 -.37-.32 8.7 8.7 0 0 1 -1.25-1.4 9.5 9.5 0 0 1 -.75.78 6.55 6.55 0 0 1 -.85.75 1.5 1.5 0 0 1 -.25.19zm.7 2.93q.12.06.12.12s0 .06-.07.08a.12.12 0 0 0 -.12.08 4 4 0 0 1 -.51.9s-.07.07-.09.07a.3.3 0 0 1 -.14-.05l-.33-.14c-.05 0-.06 0-.06 0a.06.06 0 0 1 0-.05 4.12 4.12 0 0 0 .36-.52 2.48 2.48 0 0 0 .25-.58c0-.05 0-.08.06-.08z"/><path d="m210.31 416.21c.07.06.1.09.1.12a.12.12 0 0 1 -.1.13c-.12 0-.2 0-.22.1a1.47 1.47 0 0 0 -.09.17h2.66.16s.17.18.17.23l-1.27 1.29h2.21c.08 0 .13 0 .13.1v3.05c0 .07-.05.1-.13.1h-.33c-.1 0-.14 0-.14-.1v-.26h-4.61v1.36c0 .27.16.4.5.4h4.44a.44.44 0 0 0 .49-.33 4.16 4.16 0 0 0 .18-.77 1.43 1.43 0 0 0 .46.27c.07 0 .1.05.1.13a2.88 2.88 0 0 1 -.28.89c-.1.24-.34.37-.75.37h-5c-.51 0-.77-.19-.77-.56v-4.2l-.43.28a.56.56 0 0 1 -.2 0l-.35-.15s-.05 0-.05 0 0-.05.05-.07a5.55 5.55 0 0 0 1.25-1 4.1 4.1 0 0 0 .56-.7 5.09 5.09 0 0 0 .52-1 .14.14 0 0 1 .11-.07zm.63 2.08 1.05-1h-2.31a3.18 3.18 0 0 1 -.3.4c-.19.22-.37.43-.58.63zm-2.09 2.35h2.05v-1.82h-2.05zm2.65 0h2v-1.82h-2z"/><path d="m222.13 420a2.24 2.24 0 0 1 -1.38.41h-1.42v2.51h-.6v-5.62h2a2.28 2.28 0 0 1 1.4.41 1.37 1.37 0 0 1 .52 1.13 1.32 1.32 0 0 1 -.52 1.16zm-1.38-2.1h-1.42v1.94h1.42a1.61 1.61 0 0 0 1-.28.85.85 0 0 0 .31-.68c.02-.68-.43-1.02-1.31-1.02z"/><path d="m227.8 422.86-.65-1.59h-2.74l-.66 1.59h-.62l2.32-5.57h.65l2.32 5.57zm-2-4.88-1.14 2.74h2.28z"/><path d="m232.83 422.87-3.18-4.75v4.75h-.59v-5.58h.71l3.18 4.76v-4.76h.6v5.58z"/><path d="m236.72 417.86v5h-.58v-5h-1.91v-.56h4.4v.56z"/><path d="m243.33 422.1a2.3 2.3 0 0 1 -3.57 0 3.6 3.6 0 0 1 0-4 2.33 2.33 0 0 1 3.57 0 3.6 3.6 0 0 1 0 4zm-.47-3.69a1.59 1.59 0 0 0 -1.32-.63 1.56 1.56 0 0 0 -1.31.63 2.57 2.57 0 0 0 -.5 1.66 2.64 2.64 0 0 0 .5 1.69 1.56 1.56 0 0 0 1.31.63 1.59 1.59 0 0 0 1.32-.63 2.7 2.7 0 0 0 .5-1.69 2.63 2.63 0 0 0 -.5-1.66z"/><path d="m248.57 422.87-3.17-4.75v4.75h-.6v-5.58h.71l3.18 4.76v-4.76h.6v5.58z"/><path d="m250.31 422.87v-5.58h3.51v.57h-2.92v1.89h2.59v.55h-2.59v2h2.92v.56z"/><path d="m260.66 422.52a2.26 2.26 0 0 1 -2.65 0 1.5 1.5 0 0 1 -.48-1.17 1.67 1.67 0 0 1 1-1.54 1.36 1.36 0 0 1 -.35-2.22 2.07 2.07 0 0 1 2.33 0 1.36 1.36 0 0 1 -.35 2.22 1.67 1.67 0 0 1 1 1.54 1.49 1.49 0 0 1 -.5 1.17zm-.47-2.11a1.27 1.27 0 0 0 -.87-.31 1.21 1.21 0 0 0 -.87.31 1.2 1.2 0 0 0 -.32.9 1 1 0 0 0 .28.76 1.21 1.21 0 0 0 .93.32c.78 0 1.18-.35 1.18-1.08a1.2 1.2 0 0 0 -.33-.9zm-.86-2.63c-.67 0-1 .3-1 .88a.77.77 0 0 0 .3.63 1 1 0 0 0 .71.26 1.06 1.06 0 0 0 .72-.26.78.78 0 0 0 .28-.63c-.01-.58-.34-.88-1.01-.88z"/><path d="m264.35 420.18a9.85 9.85 0 0 0 -.26 2.7h-.61a10 10 0 0 1 .28-2.63 6.2 6.2 0 0 1 1.42-2.39h-3.09v-.57h3.82v.56a5.88 5.88 0 0 0 -1.56 2.33z"/><path d="m268.4 422.88v-4.46h-1.19v-.34h.06a1.61 1.61 0 0 0 .73-.18 1.07 1.07 0 0 0 .55-.6h.45v5.58z"/><path d="m275.17 418.74a1.41 1.41 0 0 0 -1.43-1 1.56 1.56 0 0 0 -1.23.64 2.71 2.71 0 0 0 -.57 1.77 2.42 2.42 0 0 0 .53 1.66 1.42 1.42 0 0 0 1.14.54 1.5 1.5 0 0 0 .94-.28 2 2 0 0 0 .55-.82l.55.21a2.09 2.09 0 0 1 -2 1.45 2 2 0 0 1 -1.59-.74 2.93 2.93 0 0 1 -.67-2 3.2 3.2 0 0 1 .7-2.11 2.12 2.12 0 0 1 1.69-.85 2 2 0 0 1 2 1.31z"/><path d="m3.64 366.19s.09.08.09.11-.06.09-.17.09a.22.22 0 0 0 -.19.09 4 4 0 0 0 .55.64 4 4 0 0 0 .83.61.15.15 0 0 1 -.06.13l-.37.29h-.06a2.17 2.17 0 0 1 -.53-.4 6.12 6.12 0 0 1 -.65-.76c-.09.15-.18.27-.26.38a6.82 6.82 0 0 1 -.46.58 4 4 0 0 1 -.35.36h2.11c.06 0 .1 0 .1.13v.27c0 .09 0 .13-.1.13h-.79v1h1.09c.07 0 .1 0 .1.13v.26c0 .1 0 .14-.1.14h-1.09v2.22c.39-.1.77-.2 1.13-.31h.06s.06 0 .06.1a2 2 0 0 1 0 .5c-.92.24-1.84.46-2.79.66-.09.16-.17.24-.23.24s-.16-.25-.33-.73c.43-.07.94-.17 1.53-.31v-2.35h-1.3c-.06 0-.1 0-.1-.14v-.25c0-.08 0-.13.1-.13h1.27v-1h-.73c-.07 0-.11 0-.11-.13v-.27l-.05.06a2.76 2.76 0 0 1 -.45.34.12.12 0 0 1 -.12-.08 1.81 1.81 0 0 0 -.25-.3c-.06 0-.09-.06-.09-.08s0 0 0-.05a4.3 4.3 0 0 0 .63-.41 5.44 5.44 0 0 0 .69-.73 6.48 6.48 0 0 0 .39-.56 6.21 6.21 0 0 0 .29-.63c0-.05.06-.08.09-.08zm-1.84 4.81a5.46 5.46 0 0 1 .43.79 1.74 1.74 0 0 1 .17.57s0 .06-.13.07a1.28 1.28 0 0 1 -.44.13 4 4 0 0 0 -.25-.89c-.11-.22-.21-.43-.31-.6a1.43 1.43 0 0 1 .43-.07.1.1 0 0 1 .1 0zm2.64-.11c.07 0 .11.07.11.11a.09.09 0 0 1 0 .08s-.07 0-.08.08a6.41 6.41 0 0 1 -.31 1c0 .05 0 .08-.06.08a.27.27 0 0 1 -.14 0l-.3-.15h-.06a.13.13 0 0 1 0-.06 4 4 0 0 0 .22-.53 5.72 5.72 0 0 0 .18-.7c0-.05 0-.09 0-.09zm1.11 1.86c.39-.13.77-.26 1.12-.4s.07 0 .07.1a1.71 1.71 0 0 1 0 .5c-.61.24-1.23.46-1.85.66-.1.15-.18.23-.24.23s-.16-.25-.33-.73l.68-.11v-6.59c0-.06 0-.09.14-.09h3c.08 0 .13 0 .13.09v3.29a.12.12 0 0 1 -.13.13h-1.14a4.93 4.93 0 0 0 .11.7 4.52 4.52 0 0 0 .2.77 2.08 2.08 0 0 0 .38-.25 3.63 3.63 0 0 0 .65-.61.14.14 0 0 1 .09 0 2.39 2.39 0 0 1 .45.46c0 .05 0 .06-.08.06s-.17 0-.18.05a6.38 6.38 0 0 1 -1.1.85 1.8 1.8 0 0 0 .17.31 2.06 2.06 0 0 0 .45.58 2.43 2.43 0 0 0 .63.45s0 0 0 .06a.11.11 0 0 1 0 .09 2.83 2.83 0 0 0 -.3.3c0 .05-.07.07-.09.07s0 0-.09-.06l-.42-.32a3 3 0 0 1 -.5-.56 3.8 3.8 0 0 1 -.42-.75 4.19 4.19 0 0 1 -.29-.91 8.6 8.6 0 0 1 -.23-1.25h-.88zm0-5h2.13v-1h-2.13zm0 1.52h2.13v-1h-2.13z"/><path d="m12.56 366.21c.06.06.1.09.1.12a.13.13 0 0 1 -.1.13c-.12 0-.2 0-.22.1a1.47 1.47 0 0 0 -.09.17h2.66.16s.17.18.17.23l-1.24 1.33h2.21c.08 0 .13 0 .13.1v3.05c0 .07 0 .1-.13.1h-.33c-.1 0-.14 0-.14-.1v-.26h-4.64v1.36c0 .27.16.4.5.4h4.4a.44.44 0 0 0 .49-.33 4.16 4.16 0 0 0 .18-.77 1.43 1.43 0 0 0 .46.27c.07 0 .1.05.1.13a2.88 2.88 0 0 1 -.28.89c-.1.24-.34.37-.75.37h-5c-.51 0-.77-.19-.77-.56v-4.2l-.43.28a.56.56 0 0 1 -.2 0l-.35-.15s0 0 0 0 0-.05 0-.07a5.55 5.55 0 0 0 1.25-1 4.1 4.1 0 0 0 .56-.7 5.09 5.09 0 0 0 .52-1 .14.14 0 0 1 .22-.1zm.63 2.08 1.05-1h-2.31a3.18 3.18 0 0 1 -.3.4c-.19.22-.37.43-.58.63zm-2.09 2.35h2.05v-1.82h-2.05zm2.65 0h2v-1.82h-2z"/><path d="m24.38 370a2.24 2.24 0 0 1 -1.38.41h-1.42v2.51h-.58v-5.62h2a2.28 2.28 0 0 1 1.4.41 1.37 1.37 0 0 1 .52 1.13 1.32 1.32 0 0 1 -.54 1.16zm-1.38-2.14h-1.42v1.94h1.42a1.61 1.61 0 0 0 1-.28.85.85 0 0 0 .31-.68c.02-.64-.43-.98-1.31-.98z"/><path d="m30.05 372.86-.65-1.59h-2.74l-.66 1.59h-.62l2.32-5.57h.65l2.32 5.57zm-2.05-4.86-1.14 2.74h2.28z"/><path d="m35.08 372.87-3.18-4.75v4.75h-.59v-5.58h.69l3.18 4.76v-4.76h.6v5.58z"/><path d="m39 367.86v5h-.58v-5h-1.94v-.56h4.4v.56z"/><path d="m45.58 372.1a2.3 2.3 0 0 1 -3.57 0 3.6 3.6 0 0 1 0-4 2.33 2.33 0 0 1 3.57 0 3.6 3.6 0 0 1 0 4zm-.47-3.69a1.59 1.59 0 0 0 -1.32-.63 1.56 1.56 0 0 0 -1.31.63 2.57 2.57 0 0 0 -.5 1.66 2.64 2.64 0 0 0 .5 1.69 1.56 1.56 0 0 0 1.31.63 1.59 1.59 0 0 0 1.32-.63 2.7 2.7 0 0 0 .5-1.69 2.63 2.63 0 0 0 -.5-1.66z"/><path d="m50.82 372.87-3.17-4.75v4.75h-.6v-5.58h.71l3.18 4.76v-4.76h.6v5.58z"/><path d="m52.56 372.87v-5.58h3.51v.57h-2.92v1.89h2.59v.55h-2.59v2h2.92v.56z"/><path d="m62.91 372.52a2.26 2.26 0 0 1 -2.65 0 1.5 1.5 0 0 1 -.48-1.17 1.67 1.67 0 0 1 1-1.54 1.36 1.36 0 0 1 -.35-2.22 2.07 2.07 0 0 1 2.33 0 1.36 1.36 0 0 1 -.35 2.22 1.67 1.67 0 0 1 1 1.54 1.49 1.49 0 0 1 -.5 1.17zm-.47-2.11a1.27 1.27 0 0 0 -.87-.31 1.21 1.21 0 0 0 -.87.31 1.2 1.2 0 0 0 -.32.9 1 1 0 0 0 .28.76 1.21 1.21 0 0 0 .93.32c.79 0 1.18-.35 1.18-1.08a1.2 1.2 0 0 0 -.33-.9zm-.86-2.63c-.67 0-1 .3-1 .88a.77.77 0 0 0 .3.63 1 1 0 0 0 .71.26 1.06 1.06 0 0 0 .72-.26.78.78 0 0 0 .28-.63c-.01-.58-.35-.88-1.01-.88z"/><path d="m66.6 370.18a9.85 9.85 0 0 0 -.26 2.7h-.61a10 10 0 0 1 .28-2.63 6.2 6.2 0 0 1 1.42-2.39h-3.09v-.57h3.82v.56a5.88 5.88 0 0 0 -1.56 2.33z"/><path d="m71.27 370.18a10.26 10.26 0 0 0 -.26 2.7h-.6a9.56 9.56 0 0 1 .28-2.63 6.08 6.08 0 0 1 1.42-2.39h-3.11v-.57h3.83v.56a5.81 5.81 0 0 0 -1.56 2.33z"/><path d="m77.42 368.74a1.41 1.41 0 0 0 -1.43-1 1.56 1.56 0 0 0 -1.23.64 2.71 2.71 0 0 0 -.57 1.77 2.42 2.42 0 0 0 .53 1.66 1.42 1.42 0 0 0 1.14.54 1.5 1.5 0 0 0 .94-.28 2 2 0 0 0 .55-.82l.55.21a2.09 2.09 0 0 1 -2 1.45 2 2 0 0 1 -1.59-.74 2.93 2.93 0 0 1 -.67-2 3.2 3.2 0 0 1 .7-2.11 2.12 2.12 0 0 1 1.69-.85 2 2 0 0 1 2 1.31z"/><path d="m201.17 366.3v.09c0 .05-.05.08-.14.08s-.22 0-.26.09c-.31.45-.61.85-.88 1.21.22.19.43.39.65.61 0 0 0-.07.09-.12.37-.46.68-.89.93-1.26a3.34 3.34 0 0 1 .54.49c0 .05 0 .07-.12.07s-.25 0-.28.07c-.54.74-1.09 1.42-1.62 2l1.58-.25c-.08-.18-.16-.36-.26-.54 0 0 .15-.12.44-.26.16.37.31.7.42 1a7.32 7.32 0 0 1 .27.9 2.89 2.89 0 0 1 -.5.16 4.64 4.64 0 0 0 -.19-.76l-.06-.14-1 .28v3.54c0 .07 0 .1-.14.1h-.33c-.07 0-.1 0-.1-.1v-3.37l-1.1.32c-.14.14-.21.2-.23.2a3.32 3.32 0 0 1 -.17-.74c0-.05.2-.11.6-.2.36-.42.68-.78.93-1.1-.33-.26-.58-.46-.75-.57a5.25 5.25 0 0 0 -.78-.41q0-.08.36-.45s0 0 .07 0a2.11 2.11 0 0 1 .29.2c.18-.22.34-.44.48-.65l.54-.85zm-1.09 4.84a.15.15 0 0 1 -.1.14.22.22 0 0 0 -.12.15 6.86 6.86 0 0 1 -.24 1.23c-.06.18-.12.35-.2.55 0 0 0 .06-.07.06a3.42 3.42 0 0 0 -.49-.12c-.05 0-.08 0-.08-.08a4.08 4.08 0 0 0 .33-.79 5.28 5.28 0 0 0 .23-1.25s0-.08.11-.08c.42.05.63.15.63.19zm1.66-.22a13.4 13.4 0 0 1 .5 1.52c0 .06-.17.12-.5.17-.07 0-.1 0-.1-.07a11.25 11.25 0 0 0 -.37-1.53c0-.05.15-.1.44-.16.01 0 .02.02.03.07zm4.48-4.29c.07 0 .1 0 .1.13v.24c0 .09 0 .13-.1.13h-1.59v5.51h1.83c.06 0 .09.05.09.13v.27c0 .09 0 .13-.09.13h-4.09c-.07 0-.1 0-.1-.13v-.27c0-.08 0-.13.1-.13h1.63v-5.51h-1.49c-.07 0-.1 0-.1-.13v-.27c0-.09 0-.13.1-.13z"/><path d="m210.31 366.21c.07.06.1.09.1.12a.12.12 0 0 1 -.1.13c-.12 0-.2 0-.22.1a1.47 1.47 0 0 0 -.09.17h2.66.16s.17.18.17.23l-1.27 1.29h2.21c.08 0 .13 0 .13.1v3.05c0 .07-.05.1-.13.1h-.33c-.1 0-.14 0-.14-.1v-.26h-4.61v1.36c0 .27.16.4.5.4h4.44a.44.44 0 0 0 .49-.33 4.16 4.16 0 0 0 .18-.77 1.43 1.43 0 0 0 .46.27c.07 0 .1.05.1.13a2.88 2.88 0 0 1 -.28.89c-.1.24-.34.37-.75.37h-5c-.51 0-.77-.19-.77-.56v-4.2l-.43.28a.56.56 0 0 1 -.2 0l-.35-.15s-.05 0-.05 0 0-.05.05-.07a5.55 5.55 0 0 0 1.25-1 4.1 4.1 0 0 0 .56-.7 5.09 5.09 0 0 0 .52-1 .14.14 0 0 1 .11-.07zm.63 2.08 1.05-1h-2.31a3.18 3.18 0 0 1 -.3.4c-.19.22-.37.43-.58.63zm-2.09 2.35h2.05v-1.82h-2.05zm2.65 0h2v-1.82h-2z"/><path d="m222.38 368.74a1.42 1.42 0 0 0 -1.43-1 1.55 1.55 0 0 0 -1.23.64 2.65 2.65 0 0 0 -.57 1.77 2.46 2.46 0 0 0 .52 1.66 1.45 1.45 0 0 0 1.15.54 1.5 1.5 0 0 0 .94-.28 2 2 0 0 0 .55-.82l.54.21a2.08 2.08 0 0 1 -2 1.45 2 2 0 0 1 -1.6-.74 3 3 0 0 1 -.66-2 3.2 3.2 0 0 1 .7-2.11 2.12 2.12 0 0 1 1.69-.85 2 2 0 0 1 2 1.31z"/><path d="m225.24 372.88v-4.46h-1.19v-.34h.06a1.58 1.58 0 0 0 .73-.18 1.07 1.07 0 0 0 .55-.6h.44v5.58z"/><path d="m231.37 372.43a1.68 1.68 0 0 1 -1.25.52 1.6 1.6 0 0 1 -1.62-1.17l.54-.24a1.12 1.12 0 0 0 1.96.46 1.58 1.58 0 0 0 .37-1.11c0-.9-.34-1.36-1-1.36a1.08 1.08 0 0 0 -1 .69h-.53v-2.92h2.94v.56h-2.36v1.54a1.25 1.25 0 0 1 1-.39 1.47 1.47 0 0 1 1.17.52 2.4 2.4 0 0 1 -.1 2.9z"/><path d="m241 372.87v-4.67l-1.94 4.67h-.64l-1.94-4.67v4.67h-.59v-5.58h.81l2 4.93 2-4.93h.81v5.58z"/><path d="m244.15 372.88v-4.46h-1.15v-.34a1.62 1.62 0 0 0 .74-.18 1.07 1.07 0 0 0 .55-.6h.43v5.58z"/><path d="m249.1 373c-1.21 0-1.82-1-1.82-2.89a4.24 4.24 0 0 1 .4-2.07 1.71 1.71 0 0 1 2.84 0 4.36 4.36 0 0 1 .4 2.07c0 1.89-.61 2.89-1.82 2.89zm.91-4.68a1 1 0 0 0 -.91-.48 1 1 0 0 0 -.91.48 3.66 3.66 0 0 0 -.32 1.79 3.74 3.74 0 0 0 .32 1.82 1.07 1.07 0 0 0 1.82 0 3.86 3.86 0 0 0 .32-1.82 3.78 3.78 0 0 0 -.33-1.84z"/><path d="m253.78 373c-1.22 0-1.82-1-1.82-2.89a4.13 4.13 0 0 1 .4-2.07 1.53 1.53 0 0 1 1.42-.76 1.56 1.56 0 0 1 1.42.76 4.37 4.37 0 0 1 .39 2.07c0 1.89-.59 2.89-1.81 2.89zm.91-4.68a1 1 0 0 0 -.91-.48 1 1 0 0 0 -.91.48 3.64 3.64 0 0 0 -.33 1.79 3.72 3.72 0 0 0 .33 1.82 1 1 0 0 0 .91.51 1 1 0 0 0 .91-.51 3.86 3.86 0 0 0 .32-1.82 3.78 3.78 0 0 0 -.32-1.84z"/><path d="m261.88 370.26v2.61h-.6v-2.61l-2.21-3h.71l1.8 2.48 1.8-2.48h.71z"/><path d="m266.41 373a1.28 1.28 0 0 1 -.9-.34 1.51 1.51 0 0 1 -.51-.66l.53-.24a.89.89 0 0 0 .84.68q1.11 0 1.23-2a1.54 1.54 0 0 1 -1.18.54 1.49 1.49 0 0 1 -1.16-.45 1.72 1.72 0 0 1 -.43-1.26 2.19 2.19 0 0 1 .41-1.37 1.41 1.41 0 0 1 1.23-.61 1.44 1.44 0 0 1 1.42.9 5.17 5.17 0 0 1 .3 2c.04 1.81-.57 2.81-1.78 2.81zm.1-5.17a.92.92 0 0 0 -.77.39 1.73 1.73 0 0 0 -.29 1c0 .78.35 1.17 1.07 1.17a1.39 1.39 0 0 0 1.12-.7c-.04-1.27-.41-1.91-1.13-1.91z"/><path d="m271.23 373c-1.22 0-1.82-1-1.82-2.89a4.13 4.13 0 0 1 .4-2.07 1.53 1.53 0 0 1 1.42-.76 1.56 1.56 0 0 1 1.42.76 4.37 4.37 0 0 1 .39 2.07c-.04 1.89-.61 2.89-1.81 2.89zm.91-4.68a1 1 0 0 0 -.91-.48 1 1 0 0 0 -.91.48 3.64 3.64 0 0 0 -.33 1.79 3.72 3.72 0 0 0 .33 1.82 1 1 0 0 0 .91.51 1 1 0 0 0 .91-.51 3.86 3.86 0 0 0 .32-1.82 3.78 3.78 0 0 0 -.32-1.84z"/><path d="m280.6 372.88-2.36-2.7-.74.74v2h-.6v-5.59h.6v2.86l2.9-2.86h.77l-2.52 2.49 2.7 3.1z"/><path d="m283.58 372.88v-4.46h-1.19v-.34h.06a1.61 1.61 0 0 0 .73-.18 1.07 1.07 0 0 0 .55-.6h.43v5.58z"/><path d="m288.53 373c-1.21 0-1.82-1-1.82-2.89a4.24 4.24 0 0 1 .4-2.07 1.71 1.71 0 0 1 2.84 0 4.36 4.36 0 0 1 .4 2.07c0 1.89-.61 2.89-1.82 2.89zm.91-4.68a1.1 1.1 0 0 0 -1.82 0 3.66 3.66 0 0 0 -.32 1.79 3.74 3.74 0 0 0 .32 1.82 1.07 1.07 0 0 0 1.82 0 3.86 3.86 0 0 0 .32-1.82 3.78 3.78 0 0 0 -.32-1.84z"/></g><path d="m7.77 298.73v-1.29c0-.05 0-.08.12-.08.46 0 .7 0 .7.12s0 .13-.07.13-.08.07-.08.18v.94h1.4c.05 0 .08 0 .08.12v.31c0 .11 0 .16-.08.16h-1.4v.74h1.21q.15 0 .15.12v3.16q0 .12-.15.12h-1.21v.86h1.56s.08 0 .08.11v.32c0 .1 0 .15-.08.15h-1.56v1.37c0 .08-.06.12-.16.12h-.39a.11.11 0 0 1 -.12-.12v-1.37h-1.64c-.06 0-.08 0-.08-.15v-.32c0-.07 0-.11.08-.11h1.64v-.86h-1.25q-.15 0-.15-.12v-3.16q0-.12.15-.12h1.25v-.74h-1.44c-.06 0-.08-.05-.08-.16v-.31c0-.08 0-.12.08-.12zm0 2.74v-.82h-.77v.82zm0 .58h-.77v.82h.74zm.67-.58h.7v-.82h-.7zm.7.58h-.7v.82h.7zm3.2-3.36v-1.25c0-.05 0-.08.12-.08.46 0 .7 0 .7.12s0 .13-.07.13-.08.07-.08.18v.9h2.11c.05 0 .08 0 .08.12v.31c0 .11 0 .16-.08.16h-2.12v.78h1.72c.12 0 .19.06.19.16v5.41a.58.58 0 0 1 -.33.52 2.67 2.67 0 0 1 -.8.2.12.12 0 0 1 -.13-.11 1.61 1.61 0 0 0 -.22-.59s0 0 .06 0a1.47 1.47 0 0 0 .64-.08.29.29 0 0 0 .12-.26v-1.11h-1.25v2c0 .08-.06.12-.16.12h-.39a.11.11 0 0 1 -.12-.12v-2h-1.2v2q0 .12-.15.12h-.39a.11.11 0 0 1 -.12-.12v-6.05a.11.11 0 0 1 .12-.12h1.75v-.78h-2c-.06 0-.08 0-.08-.16v-.31c0-.08 0-.12.08-.12zm0 3.13v-1.17h-1.21v1.17zm0 1.79v-1.21h-1.21v1.21zm.67-1.79h1.25v-1.17h-1.26zm0 1.79h1.25v-1.21h-1.26zm1-6.21a7.05 7.05 0 0 1 .82.82c0 .09 0 .14-.05.14a1 1 0 0 1 -.49.21 9.15 9.15 0 0 0 -.74-.93c0-.06.13-.16.39-.28a.1.1 0 0 1 .06.04z" fill="#363736"/><path d="m19.92 297.91c.1 0 .16 0 .16.12v6l.51-.15h.07a.07.07 0 0 1 .08.08 1.94 1.94 0 0 1 0 .54c-1.4.39-2.82.74-4.25 1.06q-.15.27-.24.27c-.06 0-.19-.28-.39-.82.28 0 .6-.09.94-.16v-6.79c0-.1 0-.16.12-.16zm-.51 2.15v-1.52h-2v1.52zm0 2.23v-1.61h-2v1.61zm-1.32 2.28q.68-.15 1.32-.33v-1.33h-2v1.81zm4-5.1c0-.42 0-.88 0-1.36 0-.14 0-.41 0-.79 0 0 0-.07.12-.07l.71.06q.15 0 .15.09a.16.16 0 0 1 -.1.16.22.22 0 0 0 -.18.23v1.68h2.13c.08 0 .12.06.12.16 0 1.8-.07 3.1-.15 3.88a9.37 9.37 0 0 1 -.38 2.1 1.13 1.13 0 0 1 -1.23.74c-.44 0-.66-.08-.67-.22a1.88 1.88 0 0 0 -.27-.56v-.08a4.17 4.17 0 0 0 .94.12.66.66 0 0 0 .68-.53 7.62 7.62 0 0 0 .28-1.66c.08-.66.13-1.76.16-3.32h-1.63c0 .88-.09 1.58-.17 2.1a8.93 8.93 0 0 1 -.78 2.67 7.29 7.29 0 0 1 -.94 1.48h-.14l-.61-.21a.1.1 0 0 1 -.05-.1 6 6 0 0 0 1.11-1.49 6.66 6.66 0 0 0 .68-2.05 14.93 14.93 0 0 0 .24-2.4h-1.37c-.08 0-.11-.05-.11-.16v-.31c0-.1 0-.16.11-.16z" fill="#363736"/><path d="m29.65 297.58c.08.06.12.1.12.14a.14.14 0 0 1 -.12.15c-.14 0-.23 0-.26.12s-.08.14-.1.19h3.13a.27.27 0 0 1 .19.05c.13.12.2.21.2.27l-1.5 1.5h2.6q.15 0 .15.12v3.59q0 .12-.15.12h-.39c-.11 0-.16 0-.16-.12v-.31h-5.43v1.6c0 .32.19.47.59.47h5.23a.51.51 0 0 0 .57-.39 4.57 4.57 0 0 0 .21-.9 1.65 1.65 0 0 0 .55.31.15.15 0 0 1 .12.16 3.41 3.41 0 0 1 -.34 1.05c-.11.28-.4.43-.88.43h-5.85q-.9 0-.9-.66v-4.94l-.51.33a.53.53 0 0 1 -.23 0l-.41-.17s-.06 0-.06-.06 0-.06.06-.08a7 7 0 0 0 1.47-1.13 5.65 5.65 0 0 0 .66-.82 6.39 6.39 0 0 0 .61-1.18.14.14 0 0 1 .13-.08zm.74 2.44 1.24-1.21h-2.72a4.78 4.78 0 0 1 -.35.47 9.62 9.62 0 0 1 -.68.74zm-2.46 2.77h2.42v-2.14h-2.42zm3.12 0h2.31v-2.14h-2.31z" fill="#363736"/><path d="m38.36 302v-.78c0-.08 0-.12.16-.12.49 0 .74 0 .74.12s0 .14-.1.15-.1.08-.1.2v.43h1.94c.07 0 .11.06.11.16v.31c0 .11 0 .16-.11.16h-1.79a6.1 6.1 0 0 0 .53.73 3.54 3.54 0 0 0 .74.7 2.51 2.51 0 0 0 .73.4.11.11 0 0 1 -.09.11 3.53 3.53 0 0 0 -.33.37s-.07.07-.09.07a4.41 4.41 0 0 1 -.92-.69 4.17 4.17 0 0 1 -.69-.83v2.89q0 .12-.15.12h-.39c-.11 0-.16 0-.16-.12v-2.58l-.14.22a8.9 8.9 0 0 1 -.76.94 6.46 6.46 0 0 1 -.94.79.22.22 0 0 1 -.17-.06l-.38-.34a.26.26 0 0 1 0-.1 4.78 4.78 0 0 0 .73-.53 4.88 4.88 0 0 0 .87-.92c.17-.23.41-.61.72-1.13h-2c-.08 0-.12-.05-.12-.16v-.31c0-.1 0-.16.12-.16zm2.25-4a7 7 0 0 1 -1.09.35 12.16 12.16 0 0 1 -1.38.26 11.92 11.92 0 0 1 -1.38.09c-.12 0-.19 0-.21-.13l-.3-.41a.11.11 0 0 1 .12-.12h.63a8.92 8.92 0 0 0 1.36-.09 4.26 4.26 0 0 0 1-.2 3.34 3.34 0 0 0 1-.42h.08a.26.26 0 0 1 .17.05c.38.33.57.53.57.61a.11.11 0 0 1 -.12.12l-.27-.12zm-3.25 2a6 6 0 0 1 .34.77 2.17 2.17 0 0 1 -.67.2 3.11 3.11 0 0 0 -.23-.63 5.24 5.24 0 0 0 -.51-.86s.18-.16.55-.35c.21.27.38.56.52.87zm1.66-.23q.13.39.24.81a2.9 2.9 0 0 1 -.67.19 5.12 5.12 0 0 0 -.16-.66 6.6 6.6 0 0 0 -.34-.9s.18-.16.54-.35a9.2 9.2 0 0 1 .37.86zm2.34-.72q.09.08.09.12c0 .06 0 .09-.11.09s-.16.06-.18.12a10.47 10.47 0 0 1 -.77 1.55c-.1 0-.15 0-.16 0l-.46-.27a5.34 5.34 0 0 0 .52-.88 8 8 0 0 0 .34-1 .12.12 0 0 1 .11-.08zm3.84 4.22a.11.11 0 0 1 -.12.12.35.35 0 0 0 -.27.19c-.22.26-.53.59-.92 1a8.31 8.31 0 0 1 -1.39 1.16 10.41 10.41 0 0 1 -1.21.7.22.22 0 0 1 -.2-.1c-.11-.12-.21-.22-.29-.32s-.1-.06-.1-.09 0-.06.06-.08a8 8 0 0 0 1.5-.79 7.45 7.45 0 0 0 1.19-1 7.67 7.67 0 0 0 .9-1.16.24.24 0 0 1 .18-.12 3 3 0 0 1 .67.44zm-.41-5.55q.09.07.09.12c0 .08-.07.12-.19.12a.34.34 0 0 0 -.27.11 7 7 0 0 1 -.67.93 5.5 5.5 0 0 1 -.58.64q-.36.33-.69.6a5.52 5.52 0 0 1 -.57.38.17.17 0 0 1 -.15-.1 1.64 1.64 0 0 0 -.29-.35c-.07 0-.1-.07-.1-.1a5.65 5.65 0 0 0 .8-.47 6.31 6.31 0 0 0 .88-.8 3.54 3.54 0 0 0 .48-.61 5.65 5.65 0 0 0 .39-.69c0-.06.07-.09.1-.09zm.29 2.74a.11.11 0 0 1 -.12.12.25.25 0 0 0 -.21.15c-.17.21-.41.48-.71.8a6.29 6.29 0 0 1 -1.07.95 7.76 7.76 0 0 1 -.97.52.2.2 0 0 1 -.2-.1 4 4 0 0 1 -.29-.32q-.09 0-.09-.09a.07.07 0 0 1 0-.06 5.38 5.38 0 0 0 1.16-.65 5.68 5.68 0 0 0 .93-.82 6.39 6.39 0 0 0 .69-.95.19.19 0 0 1 .14-.1c.51.28.74.45.74.5z" fill="#363736"/><path d="m7.46 3.22v-1.95c0-.08 0-.12.16-.12.49 0 .74 0 .74.12s0 .14-.1.15-.1.08-.1.2v1.6h.9c.08 0 .12.06.12.16v.31q0 .15-.12.15h-.77a9.76 9.76 0 0 0 .36 1.06 5 5 0 0 0 .71 1.25.16.16 0 0 1 .05.11s0 0-.06.08a2.3 2.3 0 0 1 -.27.28.11.11 0 0 1 -.2 0 5.78 5.78 0 0 1 -.61-1.19 2.83 2.83 0 0 1 -.11-.31v5q0 .12-.15.12h-.39c-.11 0-.16 0-.16-.12v-4c-.1.3-.19.58-.29.83a7.7 7.7 0 0 1 -.57 1.19.18.18 0 0 1 -.16-.06l-.44-.21c-.06 0-.08 0-.08 0a9.22 9.22 0 0 0 .7-1.41 8.2 8.2 0 0 0 .42-1.27c.08-.28.17-.71.28-1.3h-1q-.12 0-.12-.15v-.36c0-.1 0-.16.12-.16zm3.54 5.14a.24.24 0 0 1 .07.13s0 0-.06 0a.27.27 0 0 0 -.16.06 4.3 4.3 0 0 1 -.54.58 7 7 0 0 1 -.88.61.14.14 0 0 1 -.15-.08l-.32-.28s-.07-.05-.07-.07a.05.05 0 0 1 0 0 1.63 1.63 0 0 0 .42-.2 3.79 3.79 0 0 0 .61-.5c.14-.15.31-.34.49-.57h.05zm4-1.43s0 .07 0 .07v.31c0 .11 0 .16-.08.16h-2.38v1.96c0 .49-.41.74-1.21.74h-.43c-.05 0-.07-.07-.07-.19a1.64 1.64 0 0 0 -.17-.52 3.57 3.57 0 0 0 .63.07c.36 0 .55-.12.55-.35v-1.67h-2.5c-.06 0-.08 0-.08-.16v-.35c0-.07 0-.11.08-.11zm0-5.39c.05 0 .08 0 .08.12v.34c0 .11 0 .16-.08.16h-1.76v.78h1.41q.15 0 .15.12v1.9q0 .12-.15.12h-5c-.11 0-.16 0-.16-.12v-1.96c0-.08 0-.12.16-.12h1.35v-.75h-1.59c-.05 0-.07 0-.07-.16v-.31c0-.08 0-.12.07-.12zm-.66 4.17s.07 0 .07.12v.31c0 .11 0 .16-.07.16h-4.34c-.06 0-.08 0-.08-.16v-.31c0-.08 0-.12.08-.12zm-3.34-2.21h-.8v1h.8zm1.56-1.37h-.9v.78h.9zm0 1.37h-.9v1h.9zm1.52 0h-.86v1h.86zm.37 5.15c.25.26.47.49.65.7v.07l-.3.4a8.29 8.29 0 0 0 -.87-.9 4.8 4.8 0 0 0 -.62-.47 1.67 1.67 0 0 1 .24-.45s.06-.06.08-.06a8.78 8.78 0 0 1 .84.71z" fill="#363736"/><path d="m17.44 3.33.65.44s0 0-.05.06a3.85 3.85 0 0 1 -.31.41 9.85 9.85 0 0 0 -.86-.57 4.48 4.48 0 0 0 -.62-.29 2 2 0 0 1 .27-.4s.06-.07.08-.07q.51.24.84.42zm3.07 4.42v-.63q0-.12.15-.12.75 0 .75.12c0 .09 0 .14-.1.15s-.1.08-.1.2v.28h3.59q.12 0 .12.15v.31c0 .11 0 .16-.12.16h-3.59v1.8c0 .07-.06.11-.16.11h-.39c-.1 0-.15 0-.15-.11v-1.8h-4.14c-.08 0-.12 0-.12-.16v-.31q0-.15.12-.15zm-1.94-3.21c.14.32.22.49.22.51a.1.1 0 0 1 -.05.08 12.78 12.78 0 0 1 -1 1.16c-.17.18-.38.37-.62.58a.37.37 0 0 0 -.06.21c0 .08 0 .12-.08.12a2.64 2.64 0 0 1 -.56-.56.11.11 0 0 1 -.06-.11.1.1 0 0 1 .05-.08 3.2 3.2 0 0 0 .59-.45 7.67 7.67 0 0 0 .82-.8c.23-.25.43-.49.61-.71h.07s.05.01.07.05zm-.46-2.89.6.44s0 0-.05.07l-.3.4c-.26-.2-.52-.39-.8-.57a3.84 3.84 0 0 0 -.56-.29 1.85 1.85 0 0 1 .28-.4s.05-.07.07-.07c.3.16.56.3.76.42zm3-.34c0 .06 0 .09-.05.09s-.16.05-.18.11c-.13.27-.25.5-.36.7h1.58l.19-.3a4.88 4.88 0 0 0 .29-.76s0-.07.06-.07a6.36 6.36 0 0 1 .82.39s0 .05-.12.07a.25.25 0 0 0 -.18.14c-.08.18-.17.35-.27.53h1.86s.07 0 .07.12v.31c0 .08 0 .12-.07.12h-2v.7h1.76c.05 0 .08 0 .08.12v.3c0 .11 0 .16-.08.16h-1.78v.67h1.76c.05 0 .08 0 .08.11v.31c0 .1 0 .15-.08.15h-1.76v.72h2.19s.08 0 .08.1v.32c0 .1 0 .15-.08.15h-4.65v.43q0 .12-.15.12h-.32q-.15 0-.15-.12v-3.68a8.57 8.57 0 0 1 -.65.68.21.21 0 0 1 -.17-.08l-.27-.23a.14.14 0 0 1 -.06-.11c.22-.2.44-.42.67-.65a5 5 0 0 0 .76-1 4.66 4.66 0 0 0 .42-.93s0-.08 0-.08a2.56 2.56 0 0 1 .74.39zm.89 1.45h-1.73v.7h1.73zm0 1.24h-1.73v.67h1.73zm0 2v-.72h-1.73v.72z" fill="#363736"/><path d="m29.65 1.37c.08.06.12.1.12.14a.14.14 0 0 1 -.12.15c-.14 0-.23 0-.26.12s-.08.14-.1.19h3.13a.27.27 0 0 1 .19.05c.13.12.2.21.2.27l-1.5 1.52h2.6c.1 0 .15 0 .15.11v3.59q0 .12-.15.12h-.39c-.11 0-.16 0-.16-.12v-.31h-5.43v1.6c0 .32.19.47.59.47h5.23a.51.51 0 0 0 .57-.39 4.57 4.57 0 0 0 .21-.9 1.65 1.65 0 0 0 .55.31.15.15 0 0 1 .12.16 3.41 3.41 0 0 1 -.34 1.05c-.11.28-.4.43-.88.43h-5.85q-.9 0-.9-.66v-4.94c-.18.13-.35.23-.51.34a.73.73 0 0 1 -.23 0 3.56 3.56 0 0 0 -.41-.17s-.06 0-.06-.07a.07.07 0 0 1 .06-.07 7.37 7.37 0 0 0 1.47-1.13 5.65 5.65 0 0 0 .66-.82 6.39 6.39 0 0 0 .61-1.18.14.14 0 0 1 .18-.12zm.74 2.44 1.24-1.21h-2.72a4.78 4.78 0 0 1 -.35.47 9.62 9.62 0 0 1 -.68.74zm-2.46 2.76h2.42v-2.14h-2.42zm3.12 0h2.31v-2.14h-2.31z" fill="#363736"/><path d="m38.36 5.75v-.75c0-.08 0-.12.16-.12.49 0 .74 0 .74.12s0 .14-.1.15-.1.08-.1.2v.43h1.94c.07 0 .11.06.11.16v.31c0 .11 0 .16-.11.16h-1.79a6.1 6.1 0 0 0 .53.73 3.54 3.54 0 0 0 .74.7 2.51 2.51 0 0 0 .73.4.11.11 0 0 1 -.09.11 3.53 3.53 0 0 0 -.33.37c0 .05-.07.07-.09.07a4.41 4.41 0 0 1 -.92-.69 4.17 4.17 0 0 1 -.69-.83v2.89q0 .12-.15.12h-.39c-.11 0-.16 0-.16-.12v-2.65l-.14.22a8.9 8.9 0 0 1 -.76.94 6.46 6.46 0 0 1 -.94.79.22.22 0 0 1 -.17-.06l-.38-.34a.26.26 0 0 1 0-.1 4.78 4.78 0 0 0 .73-.53 4.88 4.88 0 0 0 .87-.92c.17-.23.41-.61.72-1.13h-2c-.08 0-.12 0-.12-.16v-.31c0-.1 0-.16.12-.16zm2.25-4a7 7 0 0 1 -1.09.35 12.16 12.16 0 0 1 -1.38.26 11.92 11.92 0 0 1 -1.38.09c-.12 0-.19 0-.21-.13l-.3-.41a.11.11 0 0 1 .12-.12h.63a8.92 8.92 0 0 0 1.36-.09 4.26 4.26 0 0 0 1-.2 3.34 3.34 0 0 0 1-.42h.08a.26.26 0 0 1 .17.05c.38.33.57.53.57.61a.11.11 0 0 1 -.12.12l-.27-.12zm-3.25 2a6.51 6.51 0 0 1 .34.76s-.23.1-.67.21a3.11 3.11 0 0 0 -.23-.63 4.85 4.85 0 0 0 -.51-.86s.18-.16.55-.35c.21.31.38.6.52.86zm1.64-.24q.13.39.24.81a3.35 3.35 0 0 1 -.67.18 6.06 6.06 0 0 0 -.16-.66 6.49 6.49 0 0 0 -.32-.84s.18-.16.54-.35a9.2 9.2 0 0 1 .37.86zm2.34-.72q.09.07.09.12c0 .06 0 .09-.11.09s-.16.06-.18.12a11 11 0 0 1 -.77 1.55c-.1 0-.15 0-.16 0l-.46-.28a4.88 4.88 0 0 0 .52-.87 8 8 0 0 0 .34-1 .12.12 0 0 1 .11-.08zm3.86 4.21a.11.11 0 0 1 -.12.12.35.35 0 0 0 -.27.19c-.22.26-.53.59-.92 1a8.31 8.31 0 0 1 -1.39 1.16 10.41 10.41 0 0 1 -1.21.7.22.22 0 0 1 -.2-.1c-.11-.12-.21-.22-.29-.32s-.1-.06-.1-.09 0-.06.06-.08a8 8 0 0 0 1.5-.79 7.45 7.45 0 0 0 1.19-1 7.67 7.67 0 0 0 .9-1.16.24.24 0 0 1 .18-.12 3 3 0 0 1 .67.49zm-.41-5.54q.09.08.09.12c0 .08-.07.12-.19.12a.34.34 0 0 0 -.27.11 7 7 0 0 1 -.67.93 5.5 5.5 0 0 1 -.58.64c-.24.22-.47.41-.69.6a4 4 0 0 1 -.57.37.15.15 0 0 1 -.15-.1 1.58 1.58 0 0 0 -.29-.34c-.07 0-.1-.08-.1-.1s0 0 0 0a5.65 5.65 0 0 0 .8-.47 6.31 6.31 0 0 0 .88-.8 3.54 3.54 0 0 0 .48-.61 5.65 5.65 0 0 0 .47-.73c0-.06.07-.09.1-.09zm.29 2.74a.11.11 0 0 1 -.12.12.26.26 0 0 0 -.21.14c-.17.21-.41.48-.71.8a6.29 6.29 0 0 1 -1.07 1 7.76 7.76 0 0 1 -.94.56.2.2 0 0 1 -.2-.1 4 4 0 0 1 -.29-.32q-.09 0-.09-.09a.07.07 0 0 1 0-.06 5.38 5.38 0 0 0 1.16-.65 5.68 5.68 0 0 0 .93-.82 6.31 6.31 0 0 0 .69-.94.19.19 0 0 1 .14-.1c.48.26.71.41.71.46z" fill="#363736"/><path d="m1.52 0h.84v11.26h-.84z" fill="#363736"/><path d="m1.52 296.49h.84v11.26h-.84z" fill="#363736"/></svg>