<svg viewBox="0 0 497.54 423.29" xmlns="http://www.w3.org/2000/svg"><path d="m20.08 2.22v-1.95c0-.08.05-.12.16-.12.49 0 .74 0 .74.12s0 .14-.1.15-.1.08-.1.2v1.6h.9c.08 0 .12.06.12.16v.31c0 .11 0 .16-.12.16h-.77a9.76 9.76 0 0 0 .36 1.06 5 5 0 0 0 .73 1.25.16.16 0 0 1 .05.11s0 .05-.06.08a2.3 2.3 0 0 1 -.27.28.11.11 0 0 1 -.2 0 5.78 5.78 0 0 1 -.61-1.19 2.83 2.83 0 0 1 -.11-.31v5q0 .12-.15.12h-.39c-.11 0-.16 0-.16-.12v-4c-.1.3-.19.58-.29.83a7.7 7.7 0 0 1 -.57 1.23.18.18 0 0 1 -.16-.06l-.42-.21c-.06 0-.08 0-.08 0a9.22 9.22 0 0 0 .7-1.41 8.2 8.2 0 0 0 .42-1.27c.08-.28.17-.71.28-1.3h-1.07c-.08 0-.12-.05-.12-.16v-.4c0-.1 0-.16.12-.16zm3.52 5.15a.24.24 0 0 1 .07.13s0 0-.06 0a.27.27 0 0 0 -.16.06 4.3 4.3 0 0 1 -.54.58 7 7 0 0 1 -.88.61.14.14 0 0 1 -.15-.08l-.32-.28s-.07 0-.07-.07a.05.05 0 0 1 0 0 1.63 1.63 0 0 0 .42-.2 3.79 3.79 0 0 0 .61-.5c.14-.15.31-.34.49-.57h.05zm4-1.43c.05 0 .08 0 .08.11v.31c0 .11 0 .16-.08.16h-2.44v1.92c0 .49-.41.74-1.21.74h-.43c-.05 0-.07-.08-.07-.19a1.64 1.64 0 0 0 -.17-.52 3.57 3.57 0 0 0 .63.07c.36 0 .55-.12.55-.35v-1.67h-2.46c-.06 0-.08 0-.08-.16v-.31c0-.07 0-.11.08-.11zm0-5.4c.05 0 .08 0 .08.12v.34c0 .11 0 .16-.08.16h-1.74v.78h1.41q.15 0 .15.12v1.88q0 .12-.15.12h-5c-.11 0-.16 0-.16-.12v-1.94c0-.08.05-.12.16-.12h1.37v-.75h-1.64s0-.05 0-.13v-.34c0-.08 0-.12.07-.12zm-.6 4.18s.07 0 .07.12v.31c0 .11 0 .16-.07.16h-4.38c-.06 0-.08 0-.08-.16v-.31c0-.08 0-.12.08-.12zm-3.36-2.22h-.82v1h.82zm1.56-1.37h-.9v.78h.9zm0 1.37h-.9v1h.9zm1.52 0h-.86v1h.86zm.37 5.16c.25.26.47.49.65.7v.07l-.3.4a8.29 8.29 0 0 0 -.87-.9 4.8 4.8 0 0 0 -.62-.47 1.67 1.67 0 0 1 .27-.41s.06-.06.08-.06a8.78 8.78 0 0 1 .79.67z" fill="#231815"/><path d="m32.19 1.79c.08 0 .12.06.12.16v.31c0 .11 0 .16-.12.16h-3.32c-.08 0-.12 0-.12-.16v-.26c0-.1 0-.16.12-.16zm-.43 4.21c.1 0 .16 0 .16.12v2.88c0 .08-.06.12-.16.12h-.39c-.11 0-.16 0-.16-.12v-.37h-1.44v.43c0 .08-.06.12-.16.12h-.39q-.15 0-.15-.12v-2.89a.14.14 0 0 1 .15-.17zm0-2.81c.08 0 .12.06.12.16v.31c0 .11 0 .16-.12.16h-2.3c-.08 0-.12-.05-.12-.16v-.3c0-.1 0-.16.12-.16zm0 1.37q.12 0 .12.15v.29q0 .15-.12.15h-2.3q-.12 0-.12-.15v-.28q0-.15.12-.15zm0-4.14q.12 0 .12.15v.33q0 .15-.12.15h-2.3q-.12 0-.12-.15v-.32q0-.15.12-.15zm-.55 7.58v-1.36h-1.44v1.36zm2.15-2a.12.12 0 0 1 -.08.12.22.22 0 0 0 -.11.17 10.34 10.34 0 0 1 -.23 1.38q-.09.3-.21.6c0 .05 0 .08-.07.08a3.09 3.09 0 0 0 -.54-.14.09.09 0 0 1 -.09-.1 7.25 7.25 0 0 0 .32-.87 9.83 9.83 0 0 0 .21-1.37.09.09 0 0 1 .1-.1c.46.11.7.23.7.23zm1.41-4.4v-1.41c0-.07 0-.11.15-.11.5 0 .75 0 .75.11s0 .14-.1.15-.1.08-.1.2v1.06h2.11c.08 0 .12.06.12.16v.31q0 .15-.12.15h-2.11v1.61h1.92c.07 0 .11 0 .11.15v.31c0 .11 0 .16-.11.16h-4.5c-.08 0-.11 0-.11-.16v-.29c0-.1 0-.15.11-.15h1.88v-1.63h-2.11q-.12 0-.12-.15v-.31c0-.1 0-.16.12-.16zm-.31 3.91c.07 0 .11 0 .11.07s0 .11-.07.12a.11.11 0 0 0 -.08.12v2.11c0 .29.18.43.54.43h.67c.36 0 .57 0 .65-.14a2.34 2.34 0 0 0 .32-.84 1.24 1.24 0 0 0 .41.37c.09 0 .14.08.14.14a2.62 2.62 0 0 1 -.41.94.76.76 0 0 1 -.6.19h-1.25c-.79 0-1.18-.24-1.18-.7v-2.78c0-.07 0-.11.08-.11zm1.3.21a6.41 6.41 0 0 1 .34.8 1.88 1.88 0 0 1 -.63.2 3.62 3.62 0 0 0 -.23-.72 5.36 5.36 0 0 0 -.51-.93s.17-.14.51-.31c.21.38.38.68.52.96zm1.92.93c.12.27.23.55.33.85a2.48 2.48 0 0 1 -.62.19 4 4 0 0 0 -.24-.69 6.06 6.06 0 0 0 -.51-1s.17-.14.51-.31c.22.36.39.68.53.96z" fill="#231815"/><path d="m41.47.9a7.47 7.47 0 0 1 -1.31.35v1.09h1.56c.08 0 .12.06.12.16v.31c0 .11 0 .16-.12.16h-1.56v1.29h1.6q.12 0 .12.15v.31c0 .11 0 .16-.12.16h-1.6v1.33h2.19v-2.15s0-.08.15-.08c.42 0 .63 0 .63.08s0 .13-.08.13-.08.07-.08.18v1.84h.78v-2.7h-1.21a.13.13 0 0 1 -.15-.15v-3.17s0-.08.15-.08c.42 0 .63 0 .63.08s0 .13-.08.13-.09.07-.09.19v.78h1.33s.08 0 .08.11v.32c0 .1 0 .15-.08.15h-1.33v1h1.25c.1 0 .16 0 .16.12v3.2h1.91v-1.31h-1.47c-.08 0-.12 0-.12-.16v-.31q0-.15.12-.15h1.48v-1.26h-1.48c-.08 0-.12-.05-.12-.16v-.34c0-.1 0-.16.12-.16h1.48v-1.25h-1.52q-.12 0-.12-.15v-.4c0-.07 0-.11.12-.11h2.07c.1 0 .15 0 .15.11v5.67h.63q.12 0 .12.15v.32q0 .15-.12.15h-8.87q-.12 0-.12-.15v-.32q0-.15.12-.15h.67v-5.63a.1.1 0 0 1 .11-.11l.43.18a4.33 4.33 0 0 0 .61-.14 5.06 5.06 0 0 0 .81-.34.31.31 0 0 1 .12-.06 2.79 2.79 0 0 1 .46.75c0 .06 0 .08-.08.08l-.32-.08zm.82 6.4c.06 0 .1.09.1.12s-.07.12-.2.12a.33.33 0 0 0 -.19.06 5.45 5.45 0 0 1 -.61.59 4.27 4.27 0 0 1 -.53.41c-.21.14-.42.26-.62.38l-.51.24a.19.19 0 0 1 -.15-.1 1.42 1.42 0 0 0 -.29-.35c-.08 0-.11-.08-.11-.1s0 0 0 0c.28-.1.52-.2.72-.29a5.11 5.11 0 0 0 .79-.52 2.89 2.89 0 0 0 .44-.39 3 3 0 0 0 .34-.47.19.19 0 0 1 .1 0zm3.71.61a4.65 4.65 0 0 0 1.39.76 3.17 3.17 0 0 1 -.46.55 4.63 4.63 0 0 1 -1.27-.71 6.49 6.49 0 0 1 -1.16-1.09s.18-.21.55-.47a4.31 4.31 0 0 0 .95.96z" fill="#231815"/><path d="m53 2v-1.73c0-.08.05-.12.16-.12q.78 0 .78.12c0 .09 0 .14-.1.15s-.1.08-.1.2v1.38h3.36c.13 0 .2 0 .2.12v4.48c0 .08-.07.12-.2.12h-.39q-.15 0-.15-.12v-.74h-2.85v3.24c0 .08-.07.12-.19.12h-.39c-.11 0-.16 0-.16-.12v-3.24h-2.97v.7c0 .08-.07.12-.19.12h-.39c-.11 0-.16 0-.16-.12v-4.45a.14.14 0 0 1 .12-.11zm0 3.2v-2.55h-3v2.5zm.74 0h2.82v-2.55h-2.85z" fill="#231815"/><path d="m63.92 5.91c-.21-.28-.5-.64-.88-1.06a11.37 11.37 0 0 0 -1-1l.46-.53a15 15 0 0 1 2 2.09z" fill="#231815"/><path d="m71.33.94v-.67c0-.08 0-.12.16-.12.49 0 .74 0 .74.12s0 .14-.1.15-.1.08-.1.2v.32h2.5v-.63c0-.08 0-.12.16-.12.49 0 .74 0 .74.12s0 .14-.1.15-.09.08-.09.2v.28h2.38q.12 0 .12.15v.31c0 .11 0 .16-.12.16h-2.38v.7c0 .08-.06.12-.16.12h-.39c-.11 0-.16 0-.16-.12v-.7h-2.53v.7q0 .12-.15.12h-.39c-.11 0-.16 0-.16-.12v-.7h-2.51c-.08 0-.12-.05-.12-.16v-.31q0-.15.12-.15zm1.52 2.14v-.86c0-.07 0-.11 0-.11l.71.06q.15 0 .15.09a.12.12 0 0 1 -.09.13c-.07 0-.1.09-.1.19v.5h2.58q.15 0 .15.12v2.31h1.41q.12 0 .12.15v.34c0 .11 0 .16-.12.16h-3.89a4.88 4.88 0 0 0 .55.74 3.42 3.42 0 0 0 .83.7 5.81 5.81 0 0 0 .93.52c.29.12.62.24 1 .36.18 0 .39.07.63.13.07 0 .11 0 .11.05a.22.22 0 0 1 -.1.16l-.31.37a.23.23 0 0 1 -.18.09 8.5 8.5 0 0 1 -1.53-.54 7.67 7.67 0 0 1 -1-.56 4.29 4.29 0 0 1 -.86-.77 7.06 7.06 0 0 1 -.62-.84 2.37 2.37 0 0 1 -.38.66 4.29 4.29 0 0 1 -1 .94 7 7 0 0 1 -1.81.93 3.84 3.84 0 0 1 -.89.22.12.12 0 0 1 -.11-.09c-.1-.18-.19-.34-.28-.48l-.08-.05s0-.06.07-.06a7.16 7.16 0 0 0 1.42-.35 4.58 4.58 0 0 0 1.19-.62 2.75 2.75 0 0 0 .88-.81 1.54 1.54 0 0 0 .37-.7h-3.73c-.08 0-.12 0-.12-.16v-.34q0-.15.12-.15h1.33v-2.27a.14.14 0 0 1 .15-.16zm-.06 2.43a5.08 5.08 0 0 0 .06-.82v-1h-1.95v1.8zm.77-.82v.82h2v-1.8h-2z" fill="#231815"/><path d="m84 .19c0 .09 0 .14-.1.15s-.1.08-.1.2v1.14h3.79c.08 0 .12 0 .12.11v.4q0 .15-.12.15h-1.67c-.12.43-.25.85-.38 1.25a6.83 6.83 0 0 1 -.8 1.6 9.83 9.83 0 0 1 -1 1.28h.06a6.2 6.2 0 0 0 1.6 1 10.74 10.74 0 0 0 2.29.8c.1 0 .15.07.15.11a.21.21 0 0 1 0 .12 3.06 3.06 0 0 0 -.41.4c0 .06-.09.1-.12.1a1.1 1.1 0 0 1 -.31 0q-.66-.22-1.44-.54a11.1 11.1 0 0 1 -1.74-1c-.21-.16-.4-.31-.56-.46a7.13 7.13 0 0 1 -1 .76 9.71 9.71 0 0 1 -1.53.83c-.46.18-1 .35-1.49.5a.21.21 0 0 1 -.17-.09 5.7 5.7 0 0 0 -.37-.44.24.24 0 0 1 -.06-.11s0-.08.1-.11a8.31 8.31 0 0 0 1.59-.45 10.23 10.23 0 0 0 1.28-.66 6.27 6.27 0 0 0 1-.79 3.65 3.65 0 0 1 -.27-.3 5 5 0 0 1 -1-1.58 9.83 9.83 0 0 1 -.82-2.21h-1.52q-.12 0-.12-.15v-.4c0-.07 0-.11.12-.11h4v-1.5c0-.07 0-.11.16-.11.53 0 .84.04.84.11zm-2.27 3.51a6.89 6.89 0 0 0 .93 1.66 4.1 4.1 0 0 0 .5.58 6 6 0 0 0 1-1.26 5.67 5.67 0 0 0 .68-1.23c.14-.34.26-.71.38-1.11h-3.93a7.25 7.25 0 0 0 .44 1.36z" fill="#231815"/><path d="m90.75.32q.15.06.15.15c0 .06-.05.09-.15.11a.23.23 0 0 0 -.24.13v.07h2.62s.08 0 .08.12v.31c0 .08 0 .12-.08.12h-1.42c.18.2.36.41.52.62 0 .1 0 .15-.06.16a1.05 1.05 0 0 1 -.53.23 9.43 9.43 0 0 0 -.71-1h-.81a5 5 0 0 1 -.67.82.24.24 0 0 1 -.36.05l-.38-.21s-.07 0-.07 0 0 0 0-.08a6.27 6.27 0 0 0 .78-.8 3.41 3.41 0 0 0 .58-.91c0-.08.08-.13.13-.13zm1.71 2.14c.1 0 .16 0 .16.12v2.61c0 .08-.06.12-.16.12h-2.77v3.83c0 .08-.06.11-.16.11h-.39c-.1 0-.15 0-.15-.11v-6.56q0-.12.15-.12zm-.54 1.17v-.63h-2.23v.62zm0 1.13v-.58h-2.23v.58zm2.85 1.06q.15 0 .15.12v3.06q0 .12-.15.12h-.39a.11.11 0 0 1 -.12-.12v-.21h-2.26v.21c0 .08-.06.12-.16.12h-.39a.11.11 0 0 1 -.12-.12v-3.06a.11.11 0 0 1 .12-.12zm-.51 1.18v-.64h-2.26v.64zm0 1.21v-.63h-2.26v.66zm.87-7.89q.15.06.15.15c0 .06 0 .09-.15.11a.22.22 0 0 0 -.23.13v.07h2.8s.08 0 .08.12v.31c0 .08 0 .12-.08.12h-1.52a6.14 6.14 0 0 1 .54.62c0 .1 0 .15-.06.16a1 1 0 0 1 -.52.23 9.15 9.15 0 0 0 -.75-1h-.85a5 5 0 0 1 -.65.82.3.3 0 0 1 -.18.11.32.32 0 0 1 -.16-.06l-.38-.21c-.06 0-.08 0-.08 0s0 0 0-.08a4.94 4.94 0 0 0 .73-.8 3.58 3.58 0 0 0 .54-.9c0-.08.08-.13.12-.13zm2.06 2.14c.13 0 .2 0 .2.12v5.89c0 .24-.16.44-.47.58a4.6 4.6 0 0 1 -1.14.2.11.11 0 0 1 -.12-.11 2.24 2.24 0 0 0 -.23-.63s0 0 .1 0a2.86 2.86 0 0 0 1-.09.3.3 0 0 0 .17-.28v-2.83h-2.87c-.11 0-.16 0-.16-.12v-2.61c0-.08 0-.12.16-.12zm-.51 1.17v-.63h-2.3v.62zm0 1.13v-.58h-2.3v.58z" fill="#231815"/><path d="m100.86 1.17v1.64h1.14s.08 0 .08.12v.31c0 .11 0 .16-.08.16h-1a8.8 8.8 0 0 0 .36 1 5.5 5.5 0 0 0 .73 1.2.12.12 0 0 1 .06.1s0 0-.07.08a1.63 1.63 0 0 1 -.26.28.16.16 0 0 1 -.1.07s-.06 0-.1-.07a5.62 5.62 0 0 1 -.62-1.14 1.17 1.17 0 0 1 -.09-.24v4.38q0 .12-.15.12h-.39a.11.11 0 0 1 -.12-.12v-3.93c-.14.32-.27.62-.41.88a7.51 7.51 0 0 1 -.65 1.06.17.17 0 0 1 -.19-.07l-.39-.18c-.06 0-.08 0-.08 0a6.44 6.44 0 0 0 .81-1.22 6.11 6.11 0 0 0 .49-1.09 11 11 0 0 0 .31-1.08h-1.3c-.06 0-.08 0-.08-.16v-.34c0-.08 0-.12.08-.12h1.37v-1.48a5.79 5.79 0 0 1 -1.21.11c-.09 0-.14 0-.16-.11s-.14-.26-.2-.36 0-.11.08-.11a6.88 6.88 0 0 0 1.54-.12 2.79 2.79 0 0 0 1.3-.54.17.17 0 0 1 .12-.05.26.26 0 0 1 .12.07 3.45 3.45 0 0 1 .35.44c0 .08 0 .12-.08.12h-.23a3.54 3.54 0 0 1 -.98.39zm3.83 2.23v-.59c0-.05 0-.08.12-.08.46 0 .7 0 .7.12s0 .13-.08.13-.08.07-.08.18v.24h1.76c.13 0 .2.05.2.15v3.05h.58s.08 0 .08.12v.28c0 .11 0 .16-.08.16h-.58v1.39a.56.56 0 0 1 -.38.49 4.42 4.42 0 0 1 -.91.18.12.12 0 0 1 -.13-.12 1.68 1.68 0 0 0 -.22-.59s0 0 .07 0a2.56 2.56 0 0 0 .76-.06.27.27 0 0 0 .14-.23v-1h-3.24v1.84q0 .12-.15.12h-.4c-.08 0-.11 0-.11-.12v-1.87h-.63c-.06 0-.08-.05-.08-.16v-.31c0-.08 0-.12.08-.12h.63v-3.09a.1.1 0 0 1 .11-.11zm2.31-2.67a11.21 11.21 0 0 1 -1.18.21c-.55.08-1 .14-1.5.17s-1 .06-1.51.06c-.11 0-.17 0-.19-.12l-.23-.35c0-.08 0-.12.11-.12h.5c.58 0 1.09 0 1.52-.06a7.74 7.74 0 0 0 1.18-.12 4.84 4.84 0 0 0 1.12-.27h.1a.33.33 0 0 1 .15 0c.34.3.51.48.51.55s0 .08-.12.08l-.23-.06zm-4 .63a9.89 9.89 0 0 1 .74 1.22c0 .08 0 .13-.06.13a.89.89 0 0 1 -.48.22c-.24-.53-.47-1-.67-1.33q0-.09.39-.27a.1.1 0 0 1 .08.03zm1.69 3.64v-1h-1.29v1zm0 1.64v-1.1h-1.29v1.06zm.23-5.35a8.89 8.89 0 0 1 .59 1c0 .09 0 .14-.06.14a1 1 0 0 1 -.49.21c-.18-.46-.34-.85-.5-1.17q0-.09.39-.27a.07.07 0 0 1 .07.05zm.43 3.71h1.29v-1h-1.29zm1.29 1.64v-1.1h-1.29v1.06zm.86-5.24q.12.06.12.12a.09.09 0 0 1 -.08.09.13.13 0 0 0 -.13.1 5.67 5.67 0 0 1 -.55 1.13c0 .06-.08.09-.1.09a.29.29 0 0 1 -.15-.06 2.52 2.52 0 0 1 -.33-.14s-.07 0-.07 0v-.06a4.18 4.18 0 0 0 .4-.62 3.83 3.83 0 0 0 .29-.7c0-.06 0-.1.07-.1z" fill="#231815"/><path d="m111.48.43v.11c0 .06-.06.09-.17.09s-.26 0-.3.11q-.5.89-.93 1.59l.67.64a.83.83 0 0 0 .08-.12c.38-.53.7-1 1-1.45a4.29 4.29 0 0 1 .7.63c0 .05 0 .07-.12.07s-.25 0-.29.08c-.58.86-1.16 1.64-1.72 2.36l1.64-.11a7.6 7.6 0 0 0 -.37-.76s.17-.14.51-.31a10 10 0 0 1 .48 1 6.6 6.6 0 0 1 .3.92 2.52 2.52 0 0 1 -.58.2q-.06-.27-.18-.66l-1.15.2v3.98c0 .08-.06.12-.16.12h-.39c-.11 0-.16 0-.16-.12v-3.83l-1.34.22a1.27 1.27 0 0 1 -.28.27 4.14 4.14 0 0 1 -.19-.94 6.68 6.68 0 0 1 1-.12c.36-.46.66-.87.92-1.21-.36-.3-.64-.52-.83-.66a7.46 7.46 0 0 0 -.92-.51 2 2 0 0 1 .42-.52.1.1 0 0 1 .09-.06l.38.28c.19-.29.36-.57.51-.85.26-.48.44-.83.56-1.07zm-1.56 5.66a.18.18 0 0 1 -.11.16.22.22 0 0 0 -.11.17 12.65 12.65 0 0 1 -.22 1.4c-.06.2-.12.41-.19.62 0 0-.05.07-.07.07a3.33 3.33 0 0 0 -.57-.14q-.09 0-.09-.09a6.31 6.31 0 0 0 .31-.9 7.9 7.9 0 0 0 .21-1.38.09.09 0 0 1 .1-.1c.49.1.74.1.74.19zm2.15-.19a12.11 12.11 0 0 1 .63 1.71c0 .06-.19.12-.55.16-.09 0-.13 0-.13-.07a13.45 13.45 0 0 0 -.45-1.7s.15-.09.46-.15c.02-.03.03 0 .04.05zm4.93-5.39c.1 0 .15 0 .15.11v7.62h.74c.08 0 .12 0 .12.16v.31q0 .15-.12.15h-5.35q-.12 0-.12-.15v-.31c0-.11 0-.16.12-.16h.86v-7.58c0-.1 0-.15.16-.15zm-.55 2.49v-1.87h-2.35v1.87zm0 2.57v-1.98h-2.35v2zm0 2.7v-2.1h-2.35v2.07z" fill="#231815"/><path d="m123.88.45c.07 0 .11.09.11.13s-.07.16-.2.16a.75.75 0 0 0 -.24 0 10.16 10.16 0 0 0 .89 1 5.9 5.9 0 0 0 1.22.93 7.18 7.18 0 0 0 2 .9c.1 0 .15 0 .15.08a.14.14 0 0 1 -.06.12 3.42 3.42 0 0 0 -.39.35c0 .06-.07.08-.1.08a6.66 6.66 0 0 1 -1.5-.65 7.21 7.21 0 0 1 -1.53-1.09 10.65 10.65 0 0 1 -1.16-1.26 8.79 8.79 0 0 1 -.81.87 8.48 8.48 0 0 1 -1 .86 13.05 13.05 0 0 1 -1.13.8 7 7 0 0 1 -.92.5.19.19 0 0 1 -.17-.1 1.67 1.67 0 0 0 -.34-.4c-.08 0-.11-.08-.11-.12s0 0 .06-.06a10 10 0 0 0 1.35-.55 10 10 0 0 0 1.46-1.07 6.09 6.09 0 0 0 .8-.82 7 7 0 0 0 .62-.92.3.3 0 0 1 .18-.11zm2.22 4.78q.15 0 .15.12v3.75q0 .12-.15.12h-.39c-.11 0-.16 0-.16-.12v-.47h-4.69v.47q0 .12-.15.12h-.39c-.11 0-.16 0-.16-.12v-3.71a.14.14 0 0 1 .16-.16zm-.55 2.77v-2.14h-4.69v2.14zm-.39-4.57q.12 0 .12.15v.32c0 .11 0 .16-.12.16h-4c-.08 0-.11 0-.11-.16v-.31c0-.1 0-.15.11-.15z" fill="#231815"/><path d="m130.68 9.19a6.15 6.15 0 0 1 -1.22-1.54 5.47 5.47 0 0 1 0-5.46 6.33 6.33 0 0 1 1.22-1.54l.42.46a5.72 5.72 0 0 0 -1.1 1.39 4.83 4.83 0 0 0 0 4.84 5.53 5.53 0 0 0 1.1 1.39z" fill="#231815"/><path d="m141 7.77c.08 0 .12.06.12.16v.39c0 .12 0 .19-.12.19h-8.79c-.08 0-.12-.07-.12-.19v-.39c0-.1 0-.16.12-.16zm-.87-6.95q.12 0 .12.15v.39c0 .14 0 .2-.12.2h-7.19c-.08 0-.11-.06-.11-.2v-.36c0-.1 0-.15.11-.15zm-.43 3.28c.08 0 .12.06.12.16v.39c0 .13 0 .19-.12.19h-6.25c-.08 0-.12-.06-.12-.19v-.39c0-.1 0-.16.12-.16z" fill="#231815"/><path d="m143.7 7.65a6.38 6.38 0 0 1 -1.22 1.54l-.42-.46a5.77 5.77 0 0 0 1.1-1.39 4.91 4.91 0 0 0 .65-2.42 4.94 4.94 0 0 0 -.65-2.42 6 6 0 0 0 -1.1-1.39l.42-.46a6.58 6.58 0 0 1 1.22 1.54 5.59 5.59 0 0 1 .73 2.73 5.53 5.53 0 0 1 -.73 2.73z" fill="#231815"/><path d="m20.08 199.11v-2c0-.08.05-.12.16-.12.49 0 .74 0 .74.12s0 .14-.1.15-.1.08-.1.2v1.6h.9c.08 0 .12.06.12.16v.31c0 .11 0 .16-.12.16h-.77a9.76 9.76 0 0 0 .36 1.06 4.93 4.93 0 0 0 .73 1.25.16.16 0 0 1 .05.11s0 0-.06.08a2.3 2.3 0 0 1 -.27.28.11.11 0 0 1 -.2 0 6 6 0 0 1 -.61-1.18c0-.1-.08-.21-.11-.31v5q0 .12-.15.12h-.39c-.11 0-.16 0-.16-.12v-4c-.1.3-.19.58-.29.83a7.7 7.7 0 0 1 -.57 1.23.18.18 0 0 1 -.16-.06 4.11 4.11 0 0 1 -.42-.21c-.06 0-.08 0-.08 0a9.22 9.22 0 0 0 .7-1.41 8.09 8.09 0 0 0 .42-1.26c.08-.28.17-.71.28-1.3h-1.07c-.08 0-.12-.05-.12-.16v-.31c0-.1 0-.16.12-.16zm3.52 5.14a.24.24 0 0 1 .07.13s0 0-.06 0a.27.27 0 0 0 -.16.06 4.3 4.3 0 0 1 -.54.58 7 7 0 0 1 -.88.61.14.14 0 0 1 -.15-.08l-.32-.28s-.07-.05-.07-.07a.05.05 0 0 1 0-.05 1.63 1.63 0 0 0 .42-.2 3.79 3.79 0 0 0 .61-.5c.14-.15.31-.34.49-.57h.05zm4-1.43c.05 0 .08 0 .08.11v.31c0 .11 0 .16-.08.16h-2.44v1.92c0 .49-.41.74-1.21.74h-.43c-.05 0-.07-.07-.07-.19a1.64 1.64 0 0 0 -.17-.52 3.57 3.57 0 0 0 .63.07c.36 0 .55-.12.55-.35v-1.67h-2.46c-.06 0-.08-.05-.08-.16v-.31c0-.07 0-.11.08-.11zm0-5.39c.05 0 .08 0 .08.12v.31c0 .11 0 .16-.08.16h-1.74v.78h1.41q.15 0 .15.12v1.91q0 .12-.15.12h-5c-.11 0-.16 0-.16-.12v-1.91c0-.08.05-.12.16-.12h1.37v-.8h-1.64c-.05 0-.07-.05-.07-.16v-.31c0-.08 0-.12.07-.12zm-.6 4.17s.07.05.07.12v.28c0 .11 0 .16-.07.16h-4.38c-.06 0-.08-.05-.08-.16v-.31c0-.07 0-.12.08-.12zm-3.32-2.21h-.82v1h.82zm1.52-1.39h-.9v.78h.9zm0 1.37h-.9v1h.9zm1.52 0h-.86v1h.86zm.37 5.15c.25.26.47.49.65.7v.07l-.3.4a8.29 8.29 0 0 0 -.87-.9 4.8 4.8 0 0 0 -.62-.47 1.67 1.67 0 0 1 .27-.41s.06-.06.08-.06a8.78 8.78 0 0 1 .79.69z" fill="#231815"/><path d="m32.19 198.68c.08 0 .12.06.12.16v.31c0 .11 0 .16-.12.16h-3.32c-.08 0-.12-.05-.12-.16v-.31c0-.1 0-.16.12-.16zm-.43 4.21c.1 0 .16 0 .16.12v2.89c0 .08-.06.12-.16.12h-.39c-.11 0-.16 0-.16-.12v-.39h-1.44v.43c0 .08-.06.12-.16.12h-.39q-.15 0-.15-.12v-2.89a.14.14 0 0 1 .15-.16zm0-2.8c.08 0 .12.06.12.16v.31c0 .11 0 .16-.12.16h-2.3c-.08 0-.12-.05-.12-.16v-.31c0-.1 0-.16.12-.16zm0 1.37c.08 0 .12 0 .12.14v.32q0 .15-.12.15h-2.3q-.12 0-.12-.15v-.32c0-.1 0-.14.12-.14zm0-4.14q.12 0 .12.15v.32q0 .15-.12.15h-2.3q-.12 0-.12-.15v-.32q0-.15.12-.15zm-.55 7.57v-1.37h-1.44v1.37zm2.15-2a.12.12 0 0 1 -.08.12.22.22 0 0 0 -.11.17 10.34 10.34 0 0 1 -.23 1.38q-.09.3-.21.6c0 .05 0 .08-.07.08a3.09 3.09 0 0 0 -.54-.14.09.09 0 0 1 -.12-.1 7.25 7.25 0 0 0 .32-.87 9.83 9.83 0 0 0 .21-1.37.09.09 0 0 1 .1-.1c.49.1.73.18.73.23zm1.41-4.4v-1.41c0-.07 0-.11.15-.11.5 0 .75 0 .75.11s0 .14-.1.15-.1.08-.1.2v1.06h2.11c.08 0 .12.06.12.16v.35q0 .15-.12.15h-2.11v1.61h1.92c.07 0 .11.05.11.15v.3c0 .12 0 .16-.11.16h-4.5c-.08 0-.11 0-.11-.16v-.3c0-.1 0-.15.11-.15h1.88v-1.61h-2.11q-.12 0-.12-.15v-.31c0-.1 0-.16.12-.16zm-.31 3.9c.07 0 .11 0 .11.07s0 .11-.07.12a.11.11 0 0 0 -.08.12v2.11c0 .29.18.43.54.43h.67c.36 0 .57-.05.65-.14a2.34 2.34 0 0 0 .32-.84 1.24 1.24 0 0 0 .41.37c.09 0 .14.08.14.14a2.62 2.62 0 0 1 -.41.94.76.76 0 0 1 -.6.19h-1.25c-.79 0-1.18-.24-1.18-.7v-2.78c0-.07 0-.11.08-.11zm1.3.21a6.41 6.41 0 0 1 .34.8 1.88 1.88 0 0 1 -.63.2 3.62 3.62 0 0 0 -.23-.68 5.36 5.36 0 0 0 -.51-.93s.17-.14.51-.31c.21.32.38.64.52.92zm1.92.93c.12.27.23.55.33.85a2.48 2.48 0 0 1 -.62.19 4 4 0 0 0 -.24-.71 6.06 6.06 0 0 0 -.51-1s.17-.14.51-.31c.22.38.39.7.53.98z" fill="#231815"/><path d="m41.47 197.79a7.47 7.47 0 0 1 -1.31.35v1.09h1.56c.08 0 .12.06.12.16v.31c0 .11 0 .16-.12.16h-1.56v1.29h1.6c.08 0 .12 0 .12.14v.31c0 .11 0 .16-.12.16h-1.6v1.33h2.19v-2.09s0-.08.15-.08c.42 0 .63 0 .63.08s0 .13-.08.13-.08.07-.08.17v1.84h.78v-2.74h-1.21a.13.13 0 0 1 -.15-.15v-3.17c0-.05 0-.08.15-.08.42 0 .63 0 .63.08s0 .13-.08.13-.08.07-.08.19v.78h1.33s.08 0 .08.11v.32c0 .1 0 .15-.08.15h-1.34v1h1.25c.1 0 .16 0 .16.12v3.19h1.91v-1.33h-1.47c-.08 0-.12 0-.12-.16v-.31c0-.1 0-.14.12-.14h1.48v-1.29h-1.48c-.08 0-.12-.05-.12-.16v-.31c0-.1 0-.16.12-.16h1.48v-1.21h-1.52q-.12 0-.12-.15v-.4c0-.07 0-.11.12-.11h2.07c.1 0 .15 0 .15.11v5.66h.63q.12 0 .12.15v.32q0 .15-.12.15h-8.87q-.12 0-.12-.15v-.32q0-.15.12-.15h.67v-5.62a.1.1 0 0 1 .11-.11l.46.18a4.33 4.33 0 0 0 .61-.14 5.06 5.06 0 0 0 .81-.34l.12-.06a2.79 2.79 0 0 1 .39.75c0 .06 0 .08-.08.08l-.28-.08zm.82 6.39c.06 0 .1.09.1.12s-.07.12-.2.12a.33.33 0 0 0 -.23.06 5.45 5.45 0 0 1 -.61.59 4.27 4.27 0 0 1 -.53.41c-.21.14-.42.26-.62.38l-.51.24a.19.19 0 0 1 -.15-.1 1.42 1.42 0 0 0 -.29-.35c-.08 0-.11-.08-.11-.1s0 0 0 0c.28-.1.52-.2.72-.29a5.11 5.11 0 0 0 .79-.52 2.89 2.89 0 0 0 .44-.39 3 3 0 0 0 .34-.44.19.19 0 0 1 .1 0zm3.74.61a4.65 4.65 0 0 0 1.39.76 3.17 3.17 0 0 1 -.46.55 4.63 4.63 0 0 1 -1.27-.71 6.49 6.49 0 0 1 -1.16-1.09c0-.05.18-.21.55-.47a4.31 4.31 0 0 0 .92.96z" fill="#231815"/><path d="m53 198.84v-1.68c0-.08.05-.12.16-.12q.78 0 .78.12c0 .09 0 .14-.1.15s-.1.08-.1.2v1.33h3.36c.13 0 .2 0 .2.12v4.52c0 .08-.07.12-.2.12h-.39q-.15 0-.15-.12v-.74h-2.85v3.26c0 .08-.07.12-.19.12h-.39c-.11 0-.16 0-.16-.12v-3.24h-2.97v.7c0 .08-.07.12-.19.12h-.39c-.11 0-.16 0-.16-.12v-4.46a.14.14 0 0 1 .16-.16zm0 3.16v-2.49h-3v2.49zm.74 0h2.82v-2.49h-2.85z" fill="#231815"/><path d="m63.92 202.79c-.21-.28-.5-.64-.88-1.06a12.48 12.48 0 0 0 -1-1l.46-.53a14.92 14.92 0 0 1 2 2.08z" fill="#231815"/><path d="m71.33 197.83v-.67c0-.08 0-.12.16-.12.49 0 .74 0 .74.12s0 .14-.1.15-.1.08-.1.2v.32h2.5v-.63c0-.08 0-.12.16-.12.49 0 .74 0 .74.12s0 .14-.1.15-.09.08-.09.2v.28h2.38q.12 0 .12.15v.31c0 .11 0 .16-.12.16h-2.38v.7c0 .08-.06.12-.16.12h-.39c-.11 0-.16 0-.16-.12v-.7h-2.53v.7q0 .12-.15.12h-.39c-.11 0-.16 0-.16-.12v-.7h-2.51c-.08 0-.12 0-.12-.16v-.29q0-.15.12-.15zm1.52 2.17v-.86c0-.07 0-.11 0-.11l.71.06q.15 0 .15.09a.12.12 0 0 1 -.09.13c-.07 0-.1.09-.1.19v.5h2.58q.15 0 .15.12v2.3h1.41q.12 0 .12.15v.31c0 .11 0 .16-.12.16h-3.89a4.88 4.88 0 0 0 .55.74 3.42 3.42 0 0 0 .83.7 5.81 5.81 0 0 0 .93.52c.29.12.62.24 1 .36.18 0 .39.07.63.13h.11a.22.22 0 0 1 -.1.16l-.31.37a.24.24 0 0 1 -.18.1 9.32 9.32 0 0 1 -1.53-.55 7.67 7.67 0 0 1 -1-.56 4.29 4.29 0 0 1 -.86-.77 7.06 7.06 0 0 1 -.62-.84 2.37 2.37 0 0 1 -.38.66 4.29 4.29 0 0 1 -1 .94 7 7 0 0 1 -1.81.93 3.84 3.84 0 0 1 -.89.22c-.06 0-.09 0-.11-.09s-.19-.34-.28-.48h-.08s0-.06.07-.06a7.16 7.16 0 0 0 1.42-.35 4.58 4.58 0 0 0 1.19-.62 2.75 2.75 0 0 0 .88-.81 1.54 1.54 0 0 0 .37-.7h-3.73c-.08 0-.12 0-.12-.16v-.31q0-.15.12-.15h1.33v-2.26a.14.14 0 0 1 .15-.16zm-.06 2.42a5.08 5.08 0 0 0 .06-.82v-1h-1.95v1.79zm.77-.82v.82h2v-1.82h-2z" fill="#231815"/><path d="m84 197.08c0 .09 0 .14-.1.15s-.1.08-.1.2v1.14h3.79c.08 0 .12 0 .12.11v.4q0 .15-.12.15h-1.67c-.12.43-.25.85-.38 1.25a7 7 0 0 1 -.8 1.59 9.83 9.83 0 0 1 -1 1.28l.06.05a6.2 6.2 0 0 0 1.6 1 10.74 10.74 0 0 0 2.29.8c.1 0 .15.07.15.11a.21.21 0 0 1 0 .12 3.06 3.06 0 0 0 -.41.4c0 .06-.09.1-.12.1a1.1 1.1 0 0 1 -.29-.11q-.66-.22-1.44-.54a11.1 11.1 0 0 1 -1.74-1c-.21-.16-.4-.31-.56-.46a7.13 7.13 0 0 1 -1 .76 9.71 9.71 0 0 1 -1.53.83c-.46.18-1 .35-1.49.5a.21.21 0 0 1 -.15-.07 5.7 5.7 0 0 0 -.37-.44.24.24 0 0 1 -.06-.11s0-.08.1-.11a8.31 8.31 0 0 0 1.59-.45 10.23 10.23 0 0 0 1.28-.66 6.27 6.27 0 0 0 1-.79 3.65 3.65 0 0 1 -.27-.3 5.05 5.05 0 0 1 -1-1.57 9.83 9.83 0 0 1 -.82-2.21h-1.56q-.12 0-.12-.15v-.4c0-.07 0-.11.12-.11h4v-1.49c0-.07 0-.11.16-.11.53.06.84.06.84.14zm-2.22 3.51a7 7 0 0 0 .93 1.65 4.1 4.1 0 0 0 .5.58 6 6 0 0 0 1-1.26 5.38 5.38 0 0 0 .68-1.22c.14-.34.26-.71.38-1.11h-3.98a7.25 7.25 0 0 0 .44 1.36z" fill="#231815"/><path d="m91.14 197.94q-.12 0-.12-.15v-.39a.11.11 0 0 1 .12-.12h2.26a.33.33 0 0 1 .23.1 5.39 5.39 0 0 0 1.37 1.87 5.07 5.07 0 0 0 2.7 1.18c.14 0 .21.07.21.13a.15.15 0 0 1 -.06.11c-.14.12-.25.23-.35.33a.19.19 0 0 1 -.17.1 7 7 0 0 1 -1-.32v.28c0 .11 0 .15-.12.15h-2.61v1.57h2.54a.1.1 0 0 1 .11.11v.39c0 .11 0 .16-.11.16h-2.54v1.72h3.67a.11.11 0 0 1 .12.12v.39q0 .15-.12.15h-8.17c-.08 0-.11 0-.11-.15v-.39c0-.08 0-.12.11-.12h3.75v-1.72h-2.61c-.08 0-.12-.05-.12-.16v-.39c0-.07 0-.11.12-.11h2.61v-1.57h-2.73c-.08 0-.12 0-.12-.15v-.21a4 4 0 0 1 -.9.4s-.09 0-.13-.13l-.33-.36c-.06 0-.08-.09-.08-.12a11 11 0 0 0 1.66-.71 7.93 7.93 0 0 0 1.37-1 9.58 9.58 0 0 0 .83-1zm4.66 2.62a5.14 5.14 0 0 1 -1.36-.83 6.6 6.6 0 0 1 -1.27-1.73 5.33 5.33 0 0 1 -.71.9 7.46 7.46 0 0 1 -1 1 7.71 7.71 0 0 1 -.93.65z" fill="#231815"/><path d="m101.33 200.17a.18.18 0 0 1 -.16.19.27.27 0 0 0 -.15.11 6.25 6.25 0 0 1 -.55.76v4.71q0 .12-.15.12h-.4q-.15 0-.15-.12v-3.94c-.22.21-.46.43-.74.67a5.33 5.33 0 0 0 -.44-.43.19.19 0 0 1 -.07-.12.15.15 0 0 1 0-.06 5.84 5.84 0 0 0 1.24-1.14 7.36 7.36 0 0 0 .81-1.2s0-.05.07-.05a3.82 3.82 0 0 1 .69.5zm-.17-2.77a.23.23 0 0 1 .13.19c0 .06-.05.08-.15.08a.25.25 0 0 0 -.24.13 8.93 8.93 0 0 1 -1.68 1.9.18.18 0 0 1 -.15-.07 2 2 0 0 0 -.29-.29.16.16 0 0 1 -.07-.11.08.08 0 0 1 0-.07 2.15 2.15 0 0 0 .54-.45 5.47 5.47 0 0 0 .75-.71 6 6 0 0 0 .5-.89c0-.06.06-.1.08-.1zm2.7-.12q.09.08.09.12c0 .08-.06.11-.16.11a.23.23 0 0 0 -.2.1v.08a4 4 0 0 0 .63.76 3.91 3.91 0 0 0 .91.7.16.16 0 0 1 -.07.15l-.44.36a.09.09 0 0 1 -.06 0 2.43 2.43 0 0 1 -.59-.46 8.15 8.15 0 0 1 -.74-.91 1.4 1.4 0 0 1 -.13.18 4.35 4.35 0 0 1 -.45.58c-.19.2-.37.38-.55.54a2.93 2.93 0 0 1 -.45.34.16.16 0 0 1 -.14-.09 2.16 2.16 0 0 0 -.27-.33q-.09 0-.09-.09a4.3 4.3 0 0 0 .63-.42 4.34 4.34 0 0 0 .68-.72 3.1 3.1 0 0 0 .39-.55 5.16 5.16 0 0 0 .29-.62s.06-.07.09-.07zm.67 2.62q.12 0 .12.15v.31c0 .11 0 .16-.12.16h-1v1.16h1.33c.07 0 .11.06.11.16v.31c0 .11 0 .16-.11.16h-1.33v2.42c.48-.1.94-.22 1.38-.34h.09s.08 0 .08.11a2.29 2.29 0 0 1 0 .59q-1.55.36-3.12.66c-.12.18-.21.28-.28.28s-.19-.29-.39-.86c.45-.06 1-.15 1.6-.28v-2.57h-1.36c-.08 0-.12-.05-.12-.16v-.31c0-.1 0-.16.12-.16h1.36v-1.16h-.89c-.08 0-.12-.05-.12-.16v-.31q0-.15.12-.15zm-2.29 3.82a5.8 5.8 0 0 1 .26.77 1.72 1.72 0 0 1 -.58.2 6.58 6.58 0 0 0 -.19-.64 6.17 6.17 0 0 0 -.4-.88s.17-.15.51-.32c.16.32.3.61.4.87zm2.76-.72c.08 0 .13.08.13.13a.09.09 0 0 1 0 .08.07.07 0 0 0 -.08.08 6.33 6.33 0 0 1 -.35 1c0 .06-.06.08-.07.08a.29.29 0 0 1 -.15-.06l-.36-.17h-.07a.13.13 0 0 1 0-.06 5.71 5.71 0 0 0 .24-.54 3.25 3.25 0 0 0 .17-.61s0-.08 0-.08zm2.79-3.18c.07 0 .11.05.11.15v.32c0 .1 0 .15-.11.15h-.75v4.95c0 .5-.41.75-1.21.75h-.35c-.05 0-.07-.07-.07-.19a1.88 1.88 0 0 0 -.16-.52 2 2 0 0 0 .54.08c.36 0 .55-.12.55-.35v-4.76h-1.13q-.12 0-.12-.15v-.32q0-.15.12-.15zm-.32-2.15c.08 0 .12.06.12.16v.31q0 .15-.12.15h-2.07c-.08 0-.11-.05-.11-.15v-.31c0-.1 0-.16.11-.16z" fill="#231815"/><path d="m111.48 197.32v.11c0 .06-.06.09-.17.09s-.26 0-.3.11q-.5.88-.93 1.59l.67.64.08-.12c.38-.53.7-1 1-1.45a4.29 4.29 0 0 1 .7.63c0 .05 0 .07-.12.07s-.25 0-.29.08c-.58.86-1.16 1.64-1.72 2.35.46 0 1-.07 1.64-.11-.11-.25-.23-.5-.37-.75 0 0 .17-.14.51-.31a11 11 0 0 1 .48 1 6.6 6.6 0 0 1 .3.92 2.52 2.52 0 0 1 -.58.2q-.06-.27-.18-.66l-1.15.2v4c0 .08-.06.12-.16.12h-.39c-.11 0-.16 0-.16-.12v-3.85l-1.32.22a1.27 1.27 0 0 1 -.28.27 4.14 4.14 0 0 1 -.19-.94 6.68 6.68 0 0 1 1-.12l.92-1.2c-.36-.3-.64-.52-.83-.66a7.46 7.46 0 0 0 -.92-.51 2 2 0 0 1 .42-.52.1.1 0 0 1 .09-.06l.38.28c.19-.29.36-.57.51-.85.26-.48.44-.83.56-1.07zm-1.56 5.68a.18.18 0 0 1 -.11.16.22.22 0 0 0 -.11.17 12.65 12.65 0 0 1 -.22 1.4c-.06.2-.12.41-.19.62 0 0-.05.07-.07.07a3.33 3.33 0 0 0 -.57-.14q-.09 0-.09-.09a6.31 6.31 0 0 0 .31-.9 7.9 7.9 0 0 0 .21-1.42.09.09 0 0 1 .1-.1c.49.07.74.15.74.23zm2.15-.19a12.11 12.11 0 0 1 .63 1.71c0 .06-.19.12-.55.16-.09 0-.13 0-.13-.07a13.45 13.45 0 0 0 -.45-1.73s.15-.09.46-.15c.02-.03.03 0 .04.05zm4.93-5.41c.1 0 .15 0 .15.11v7.61h.74c.08 0 .12 0 .12.16v.31q0 .15-.12.15h-5.35q-.12 0-.12-.15v-.31c0-.11 0-.16.12-.16h.86v-7.57c0-.1 0-.15.16-.15zm-.55 2.46v-1.86h-2.35v1.84zm0 2.56v-1.94h-2.35v1.94zm0 2.7v-2.07h-2.35v2.07z" fill="#231815"/><path d="m123.88 197.34c.07 0 .11.09.11.13s-.07.16-.2.16a.75.75 0 0 0 -.24 0 10.16 10.16 0 0 0 .89 1 5.9 5.9 0 0 0 1.22.93 7.18 7.18 0 0 0 2 .9c.1 0 .15 0 .15.08a.14.14 0 0 1 -.06.12 4.75 4.75 0 0 0 -.39.34c0 .06-.07.09-.1.09a6.66 6.66 0 0 1 -1.5-.65 7.21 7.21 0 0 1 -1.53-1.09 10.65 10.65 0 0 1 -1.16-1.26 8.79 8.79 0 0 1 -.81.87 8.48 8.48 0 0 1 -1 .86 13.05 13.05 0 0 1 -1.13.8 5.74 5.74 0 0 1 -.92.49.18.18 0 0 1 -.17-.09 1.67 1.67 0 0 0 -.34-.4c-.08 0-.11-.08-.11-.12s0 0 .06-.06a8.1 8.1 0 0 0 2.79-1.68 6.09 6.09 0 0 0 .8-.82 7 7 0 0 0 .62-.92.3.3 0 0 1 .18-.11zm2.22 4.77q.15 0 .15.12v3.77q0 .12-.15.12h-.39c-.11 0-.16 0-.16-.12v-.47h-4.69v.47q0 .12-.15.12h-.39c-.11 0-.16 0-.16-.12v-3.71a.14.14 0 0 1 .16-.16zm-.55 2.78v-2.15h-4.69v2.15zm-.39-4.56q.12 0 .12.15v.31c0 .11 0 .16-.12.16h-4c-.08 0-.11 0-.11-.16v-.31c0-.1 0-.15.11-.15z" fill="#231815"/><path d="m0 138.32a3.87 3.87 0 0 1 .16-1.25 1.65 1.65 0 0 1 .48-.74 1.21 1.21 0 0 1 .79-.25 1.27 1.27 0 0 1 .63.14 1.22 1.22 0 0 1 .44.41 2.59 2.59 0 0 1 .27.65 4.19 4.19 0 0 1 .1 1 3.87 3.87 0 0 1 -.16 1.25 1.57 1.57 0 0 1 -.48.74 1.22 1.22 0 0 1 -.8.26 1.18 1.18 0 0 1 -1-.46 2.88 2.88 0 0 1 -.43-1.75zm.56 0a2.73 2.73 0 0 0 .25 1.44.75.75 0 0 0 .62.36.75.75 0 0 0 .63-.36 2.76 2.76 0 0 0 .25-1.44 2.76 2.76 0 0 0 -.25-1.44.75.75 0 0 0 -.63-.36.71.71 0 0 0 -.6.32 2.86 2.86 0 0 0 -.27 1.48z" fill="#208ec5"/><path d="m3.72 140.49v-.61h.62v.61z" fill="#208ec5"/><path d="m6.86 140.49v-1.05h-1.86v-.5l2-2.85h.4v2.85h.6v.5h-.6v1.05zm0-1.55v-2l-1.38 2z" fill="#208ec5"/><path d="m8.32 140.49 1.68-2.29-1.5-2.11h.69l.8 1.13c.16.24.28.42.35.54.1-.16.22-.33.35-.5l.88-1.17h.64l-1.55 2.08 1.67 2.32h-.72l-1.11-1.57c-.06-.09-.13-.18-.19-.29l-.21.33-1.1 1.53z" fill="#208ec5"/><path d="m8.3 77.93 1.7-2.29-1.5-2.11h.7l.8 1.13a6.38 6.38 0 0 1 .35.54 4.59 4.59 0 0 1 .35-.5l.88-1.17h.64l-1.55 2.07 1.67 2.33h-.72l-1.11-1.57-.19-.29-.21.33-1.11 1.53z" fill="#208ec5"/><path d="m167.56 138.32a3.87 3.87 0 0 1 .16-1.25 1.55 1.55 0 0 1 .47-.74 1.42 1.42 0 0 1 1.42-.11 1.08 1.08 0 0 1 .44.41 2.28 2.28 0 0 1 .28.65 4.83 4.83 0 0 1 .09 1 4.22 4.22 0 0 1 -.15 1.25 1.65 1.65 0 0 1 -.48.74 1.24 1.24 0 0 1 -.8.26 1.2 1.2 0 0 1 -1-.46 2.89 2.89 0 0 1 -.43-1.75zm.55 0a2.84 2.84 0 0 0 .25 1.44.73.73 0 0 0 1.26 0 4.27 4.27 0 0 0 0-2.88.76.76 0 0 0 -.64-.36.7.7 0 0 0 -.59.32 2.74 2.74 0 0 0 -.28 1.48z" fill="#208ec5"/><path d="m171.28 140.49v-.61h.61v.61z" fill="#208ec5"/><path d="m174.41 140.49v-1.05h-1.91v-.5l2-2.85h.5v2.85h.6v.5h-.6v1.05zm0-1.55v-2l-1.37 2z" fill="#208ec5"/><path d="m175.87 140.49 1.7-2.29-1.5-2.11h.69l.8 1.13q.25.36.36.54a4.59 4.59 0 0 1 .35-.5l.88-1.17h.63l-1.54 2.08 1.66 2.32h-.72l-1.1-1.57c-.07-.09-.13-.18-.2-.29a2.46 2.46 0 0 1 -.21.33l-1.1 1.53z" fill="#208ec5"/><path d="m175.86 77.93 1.7-2.29-1.5-2.11h.69l.8 1.13a4.94 4.94 0 0 1 .36.54 4.44 4.44 0 0 1 .34-.5l.89-1.17h.63l-1.54 2.07 1.66 2.33h-.72l-1.1-1.57c-.07-.09-.13-.19-.2-.29a2.46 2.46 0 0 1 -.21.33l-1.1 1.53z" fill="#208ec5"/><path d="m6.13 268.3 1.7-2.3-1.5-2.11h.67l.8 1.13a4.56 4.56 0 0 1 .35.54c.1-.16.22-.33.35-.5l.89-1.17h.61l-1.5 2.11 1.66 2.32h-.72l-1.11-1.57-.19-.29-.21.33-1.1 1.53z" fill="#208ec5"/><path d="m19.87 124.89h-1.71v-12.18h1.71v.1h-1.61v11.98h1.61z" fill="#00b2e1"/><path d="m19.87 112.81h-1.71v-73.02h1.71v.1h-1.61v72.82h1.61z" fill="#00b2e1"/><path d="m19.87 152.91h-1.71v-28.12h1.71v.1h-1.61v27.92h1.61z" fill="#00b2e1"/><path d="m187.63 124.89h-1.72v-12.18h1.72v.1h-1.62v11.98h1.62z" fill="#00b2e1"/><path d="m187.63 112.81h-1.72v-73.02h1.72v.1h-1.62v72.82h1.62z" fill="#00b2e1"/><path d="m187.63 152.4h-1.72v-27.61h1.72v.1h-1.62v27.41h1.62z" fill="#00b2e1"/><path d="m101.31 314a4 4 0 0 1 .17-1.26 1.47 1.47 0 0 1 .52-.74 1.19 1.19 0 0 1 .8-.26 1.35 1.35 0 0 1 .62.14 1.15 1.15 0 0 1 .44.41 2 2 0 0 1 .27.66 4.09 4.09 0 0 1 .1 1 4 4 0 0 1 -.16 1.25 1.52 1.52 0 0 1 -.47.73 1.24 1.24 0 0 1 -.8.26 1.2 1.2 0 0 1 -1-.46 2.87 2.87 0 0 1 -.49-1.73zm.56 0a2.76 2.76 0 0 0 .25 1.44.73.73 0 0 0 1.26 0 4.3 4.3 0 0 0 0-2.89.75.75 0 0 0 -.64-.35.69.69 0 0 0 -.59.31 2.76 2.76 0 0 0 -.28 1.49z" fill="#208ec5"/><path d="m105 316.17v-.62h.61v.62z" fill="#208ec5"/><path d="m106.44 315 .54-.07a1.14 1.14 0 0 0 .32.66.76.76 0 0 0 .54.21.88.88 0 0 0 .65-.27.89.89 0 0 0 .26-.65.84.84 0 0 0 -.24-.62.86.86 0 0 0 -.62-.24 1.54 1.54 0 0 0 -.38.06l.06-.47h.09a1.15 1.15 0 0 0 .62-.18.61.61 0 0 0 .27-.55.63.63 0 0 0 -.2-.49.72.72 0 0 0 -.52-.2.73.73 0 0 0 -.52.2 1 1 0 0 0 -.27.59l-.54-.09a1.33 1.33 0 0 1 .45-.84 1.28 1.28 0 0 1 .87-.3 1.45 1.45 0 0 1 .66.15 1.28 1.28 0 0 1 .47.42 1.17 1.17 0 0 1 .16.57.89.89 0 0 1 -.16.52 1 1 0 0 1 -.45.37 1.05 1.05 0 0 1 .61.38 1.13 1.13 0 0 1 .21.71 1.28 1.28 0 0 1 -.42 1 1.46 1.46 0 0 1 -1.06.4 1.38 1.38 0 0 1 -1-.34 1.34 1.34 0 0 1 -.4-.93z" fill="#208ec5"/><path d="m109.63 316.17 1.7-2.3-1.5-2.1h.69l.8 1.12q.25.36.36.54a5.57 5.57 0 0 1 .34-.5l.89-1.16h.63l-1.54 2.07 1.66 2.33h-.72l-1.11-1.57-.19-.3-.21.33-1.1 1.54z" fill="#208ec5"/><path d="m235.7 266.1a.65.65 0 0 1 -.5-.26" fill="#00a19b"/><path d="m321.87 312.84-.54.05a.94.94 0 0 0 -.2-.47.74.74 0 0 0 -.54-.23.77.77 0 0 0 -.46.15 1.2 1.2 0 0 0 -.4.54 2.74 2.74 0 0 0 -.15 1 1.29 1.29 0 0 1 .48-.45 1.35 1.35 0 0 1 .59-.14 1.22 1.22 0 0 1 .92.4 1.44 1.44 0 0 1 .38 1 1.71 1.71 0 0 1 -.18.77 1.35 1.35 0 0 1 -.49.54 1.33 1.33 0 0 1 -.71.19 1.38 1.38 0 0 1 -1.1-.5 2.51 2.51 0 0 1 -.43-1.63 3 3 0 0 1 .47-1.86 1.39 1.39 0 0 1 1.11-.5 1.18 1.18 0 0 1 1.25 1.09zm-2.21 1.9a1.21 1.21 0 0 0 .12.53.87.87 0 0 0 .34.39.82.82 0 0 0 .44.14.77.77 0 0 0 .59-.28 1.09 1.09 0 0 0 .25-.75 1 1 0 0 0 -.25-.72.8.8 0 0 0 -.61-.26.85.85 0 0 0 -.62.26 1 1 0 0 0 -.26.69z" fill="#208ec5"/><path d="m322.26 316.16 1.7-2.29-1.5-2.1h.69l.8 1.12c.17.24.28.42.35.54.1-.16.22-.32.35-.5l.89-1.16h.63l-1.55 2.07 1.67 2.32h-.72l-1.11-1.56-.19-.3-.21.33-1.1 1.53z" fill="#208ec5"/><path d="m117.67 305.31h-20.34v-2.67h.1v2.57h20.14v-2.57h.1z" fill="#00b2e1"/><path d="m101.31 421a4 4 0 0 1 .17-1.26 1.47 1.47 0 0 1 .47-.73 1.24 1.24 0 0 1 .8-.26 1.35 1.35 0 0 1 .62.14 1.24 1.24 0 0 1 .44.41 2 2 0 0 1 .27.66 4.09 4.09 0 0 1 .1 1 4 4 0 0 1 -.16 1.25 1.52 1.52 0 0 1 -.47.73 1.19 1.19 0 0 1 -.8.26 1.22 1.22 0 0 1 -1-.45 2.92 2.92 0 0 1 -.44-1.75zm.56 0a2.76 2.76 0 0 0 .25 1.44.73.73 0 0 0 1.26 0 4.3 4.3 0 0 0 0-2.89.77.77 0 0 0 -.64-.35.69.69 0 0 0 -.59.31 2.78 2.78 0 0 0 -.28 1.49z" fill="#208ec5"/><path d="m105 423.21v-.62h.61v.62z" fill="#208ec5"/><path d="m106.44 422.05.56-.05a1.2 1.2 0 0 0 .32.67.8.8 0 0 0 .54.2.88.88 0 0 0 .65-.27.89.89 0 0 0 .26-.65.82.82 0 0 0 -.24-.61.87.87 0 0 0 -.62-.25 1.54 1.54 0 0 0 -.38.06l.06-.47h.09a1.15 1.15 0 0 0 .62-.18.71.71 0 0 0 .07-1.05.72.72 0 0 0 -.52-.2.73.73 0 0 0 -.52.2 1 1 0 0 0 -.27.6l-.54-.1a1.33 1.33 0 0 1 .45-.84 1.28 1.28 0 0 1 .87-.3 1.45 1.45 0 0 1 .66.15 1.22 1.22 0 0 1 .47.43 1.1 1.1 0 0 1 .16.56.87.87 0 0 1 -.16.52 1 1 0 0 1 -.45.37 1.05 1.05 0 0 1 .61.38 1.15 1.15 0 0 1 .21.71 1.28 1.28 0 0 1 -.42 1 1.46 1.46 0 0 1 -1.06.41 1.38 1.38 0 0 1 -1-.35 1.34 1.34 0 0 1 -.42-.94z" fill="#208ec5"/><path d="m109.63 423.21 1.7-2.29-1.5-2.11h.69l.8 1.13a4.94 4.94 0 0 1 .36.54 4.44 4.44 0 0 1 .34-.5l.89-1.17h.63l-1.54 2.07 1.66 2.33h-.72l-1.11-1.57-.19-.3-.21.33-1.1 1.54z" fill="#208ec5"/><path d="m117.67 412.35h-20.34v-2.67h.1v2.57h20.14v-2.57h.1z" fill="#00b2e1"/><path d="m20.87 295.01h-2.67v-63.32h2.67v.1h-2.57v63.13h2.57z" fill="#00b2e1"/><path d="m6.13 374 1.7-2.29-1.5-2.11h.67l.8 1.13a4.56 4.56 0 0 1 .35.54c.1-.16.22-.33.35-.5l.89-1.17h.61l-1.5 2.07 1.66 2.33h-.72l-1.11-1.57-.19-.29-.21.33-1.1 1.53z" fill="#208ec5"/><path d="m20.87 400.71h-2.67v-63.32h2.67v.1h-2.57v63.13h2.57z" fill="#00b2e1"/><path d="m497.54 305.31h-379.97v-2.67h.1v2.57h379.77v-2.57h.1z" fill="#00b2e1"/><path d="m366 276.08a5.8 5.8 0 0 1 8.34.51 4.47 4.47 0 0 1 .85 2.31h-2.59a3.54 3.54 0 0 0 -.63-1.35 2.54 2.54 0 0 0 -2.05-.81 2.5 2.5 0 0 0 -2.17 1.14 5.54 5.54 0 0 0 -.8 3.24 4.91 4.91 0 0 0 .84 3.13 2.61 2.61 0 0 0 2.21 1.05 2.43 2.43 0 0 0 2-.89 4.05 4.05 0 0 0 .64-1.44h2.58a5.55 5.55 0 0 1 -1.7 3.3 4.93 4.93 0 0 1 -3.5 1.27 5.22 5.22 0 0 1 -4.16-1.72 6.93 6.93 0 0 1 -1.52-4.73 6.85 6.85 0 0 1 1.66-5.01z" fill="#00a19b"/><path d="m383 285.41a3 3 0 0 1 -2.44-1.13 6.13 6.13 0 0 1 0-6.43 3 3 0 0 1 2.44-1.13 2.94 2.94 0 0 1 2.44 1.14 5 5 0 0 1 .9 3.2 5.08 5.08 0 0 1 -.9 3.22 3 3 0 0 1 -2.44 1.13zm5.91-4.35a6.51 6.51 0 0 0 -1.91-5.06 6.44 6.44 0 0 0 -8.09 0 6.51 6.51 0 0 0 -1.87 5.08 6.65 6.65 0 0 0 1.87 5.09 6.44 6.44 0 0 0 8.09 0 6.65 6.65 0 0 0 1.9-5.11z" fill="#00a19b"/><path d="m354.55 278.73a2.42 2.42 0 0 0 -1.43-1.77 3.37 3.37 0 0 0 -1.4-.28 3.07 3.07 0 0 0 -2.44 1.13 5.2 5.2 0 0 0 -.95 3.4 4.31 4.31 0 0 0 1 3.24 3.41 3.41 0 0 0 2.35.95 3 3 0 0 0 2.12-.75 3.28 3.28 0 0 0 1-2h-2.8v-2.05h5.16v6.77h-1.74l-.27-1.64a6.19 6.19 0 0 1 -1.34 1.23 4.79 4.79 0 0 1 -2.51.62 5.23 5.23 0 0 1 -4-1.7 6.57 6.57 0 0 1 -1.63-4.69 6.9 6.9 0 0 1 1.65-4.83 5.64 5.64 0 0 1 4.38-1.81 5.77 5.77 0 0 1 3.79 1.19 4.49 4.49 0 0 1 1.64 3z" fill="#00a19b"/><path d="m234 276.08a5.8 5.8 0 0 1 8.37.52 4.47 4.47 0 0 1 .85 2.32h-2.6a3.45 3.45 0 0 0 -.63-1.36 2.53 2.53 0 0 0 -2.06-.82 2.51 2.51 0 0 0 -2.18 1.15 5.67 5.67 0 0 0 -.8 3.25 5 5 0 0 0 .84 3.15 2.64 2.64 0 0 0 2.14 1 2.45 2.45 0 0 0 2-.89 4.05 4.05 0 0 0 .64-1.44h2.59a5.61 5.61 0 0 1 -1.7 3.31 5 5 0 0 1 -3.52 1.27 5.29 5.29 0 0 1 -4.18-1.72 7 7 0 0 1 -1.52-4.75 6.9 6.9 0 0 1 1.76-4.99z" fill="#00a19b"/><path d="m148.63 274.68h2.66v7.72a4.28 4.28 0 0 0 .31 1.89 2.54 2.54 0 0 0 4.13 0 4.43 4.43 0 0 0 .31-1.89v-7.72h2.66v7.72a6.37 6.37 0 0 1 -.62 3.11q-1.16 2.06-4.41 2.05c-2.17 0-3.65-.68-4.42-2.05a6.37 6.37 0 0 1 -.62-3.11z" fill="#00a19b"/><path d="m138.73 283.46a2.45 2.45 0 0 0 .47 1.26 2.72 2.72 0 0 0 2.18.76 4.82 4.82 0 0 0 1.5-.2 1.44 1.44 0 0 0 1.09-1.43 1.05 1.05 0 0 0 -.54-1 5.77 5.77 0 0 0 -1.7-.58l-1.32-.29a8.2 8.2 0 0 1 -2.69-.95 3 3 0 0 1 -1.24-2.68 3.58 3.58 0 0 1 1.21-2.76 5.13 5.13 0 0 1 3.56-1.09 5.42 5.42 0 0 1 3.34 1 3.68 3.68 0 0 1 1.45 3h-2.46a1.73 1.73 0 0 0 -1-1.55 3.32 3.32 0 0 0 -1.52-.31 2.88 2.88 0 0 0 -1.62.4 1.26 1.26 0 0 0 -.6 1.11 1.05 1.05 0 0 0 .6 1 7.72 7.72 0 0 0 1.62.51l2.15.51a5.28 5.28 0 0 1 2.11.9 3 3 0 0 1 1.1 2.52 3.59 3.59 0 0 1 -1.3 2.81 5.5 5.5 0 0 1 -3.68 1.11 6 6 0 0 1 -3.81-1.09 3.66 3.66 0 0 1 -1.38-3z" fill="#00a19b"/><path d="m296.9 285.41a3 3 0 0 1 -2.44-1.13 6.08 6.08 0 0 1 0-6.43 3 3 0 0 1 2.44-1.13 2.93 2.93 0 0 1 2.43 1.14 5 5 0 0 1 .9 3.2 5.08 5.08 0 0 1 -.9 3.22 3 3 0 0 1 -2.43 1.13zm5.9-4.35a6.54 6.54 0 0 0 -1.86-5.08 6.44 6.44 0 0 0 -8.09 0 6.52 6.52 0 0 0 -1.88 5.08 6.66 6.66 0 0 0 1.88 5.09 6.44 6.44 0 0 0 8.09 0 6.68 6.68 0 0 0 1.86-5.09z" fill="#00a19b"/><path d="m117.62 274.71h9.38v2.14h-6.85v2.81h6.38v2.15h-6.38v3.43h7.09v2.14h-9.64z" fill="#00a19b"/><path d="m132.58 285.79a1.64 1.64 0 1 0 -1.64 1.64 1.64 1.64 0 0 0 1.64-1.64z" fill="#00a19b"/><path d="m161.34 274.68h2.76l5 8.82v-8.82h2.45v12.68h-2.63l-5.15-9v9h-2.45z" fill="#00a19b"/><path d="m179 274.68h9v2.24h-6.35v2.9h5.57v2.18h-5.57v5.36h-2.65z" fill="#00a19b"/><path d="m192.21 287.37h-2.64v-12.69h2.64z" fill="#00a19b"/><path d="m194.68 274.68h2.76l5 8.83v-8.83h2.45v12.69h-2.64l-5.15-9v9h-2.45z" fill="#00a19b"/><path d="m212.53 277.58 1.6 5h-3.25zm-6 9.79h2.78l.87-2.62h4.67l.83 2.62h2.88l-4.49-12.69h-3z" fill="#00a19b"/><path d="m220.13 274.68h2.76l5 8.83v-8.83h2.46v12.69h-2.64l-5.15-9v9h-2.45z" fill="#00a19b"/><path d="m248 287.37h-2.64v-12.69h2.64z" fill="#00a19b"/><path d="m255.6 277.58 1.6 5h-3.2zm-6 9.79h2.78l.87-2.62h4.67l.83 2.62h2.88l-4.49-12.69h-3z" fill="#00a19b"/><path d="m263.22 274.68h2.64v10.4h6.31v2.29h-8.95z" fill="#00a19b"/><path d="m278.54 287.37v-12.69h2.65v4.85h4.9v-4.85h2.64v12.69h-2.64v-5.66h-4.9v5.66z" fill="#00a19b"/><path d="m305 274.68h2.64v10.4h6.36v2.29h-9z" fill="#00a19b"/><path d="m320.75 276.86a2.56 2.56 0 0 1 2.41 1 6 6 0 0 1 .61 3 6.67 6.67 0 0 1 -.4 2.44 2.65 2.65 0 0 1 -2.62 1.86h-2.45v-8.33zm.45-2.18h-5.46v12.69h5.46a4.58 4.58 0 0 0 4.25-2.37 8.41 8.41 0 0 0 1-4.29 10 10 0 0 0 -.25-2.1 5.69 5.69 0 0 0 -.9-2.05 4.22 4.22 0 0 0 -2.16-1.61 6.66 6.66 0 0 0 -1.94-.27z" fill="#00a19b"/><path d="m330.89 287.37h-2.64v-12.69h2.64z" fill="#00a19b"/><path d="m333.36 274.68h2.76l5 8.83v-8.83h2.45v12.69h-2.57l-5.16-9v9h-2.45z" fill="#00a19b"/><path d="m399.39 274.68h3.8v12.69h-2.45v-9.62c0-.45 0-.79 0-1l-2.41 10.65h-2.59l-2.39-10.65v1s0 .79 0 1v8.59h-2.45v-12.66h3.84l2.32 10z" fill="#00a19b"/><path d="m412.72 278.7a1.9 1.9 0 0 1 -.5 1.45 2 2 0 0 1 -1.4.46h-2.36v-3.75h2.36a2.11 2.11 0 0 1 1.4.42 1.8 1.8 0 0 1 .5 1.42zm2.64 0a3.8 3.8 0 0 0 -1.12-3 4.33 4.33 0 0 0 -3-1h-5.43v12.69h2.64v-4.58h2.63a4.78 4.78 0 0 0 3.16-.93 3.94 3.94 0 0 0 1.12-3.19z" fill="#00a19b"/><path d="m421.37 277.58 1.6 5h-3.25zm-6 9.79h2.78l.86-2.62h4.67l.84 2.62h2.87l-4.48-12.69h-3z" fill="#00a19b"/><path d="m429 274.68h2.76l5 8.83v-8.83h2.45v12.69h-2.63l-5.16-9v9h-2.42z" fill="#00a19b"/><path d="m448.94 274.68h3l-4.24 7.93v4.76h-2.64v-4.74l-4.39-7.95h3.12l2.63 5.52z" fill="#00a19b"/><path d="m451.2 289.42a1.92 1.92 0 0 0 1.08-.69 2.49 2.49 0 0 0 .4-1.36h-1.48v-2.56h2.64v2.19a5.35 5.35 0 0 1 -.15 1.22 2.59 2.59 0 0 1 -.58 1.1 2.88 2.88 0 0 1 -1.07.76 2.58 2.58 0 0 1 -.84.25z" fill="#00a19b"/><path d="m461.31 274.68h2.69v10.4h6.3v2.29h-8.95z" fill="#00a19b"/><path d="m480 274.68v2.23h-3.8v10.46h-2.64v-10.46h-3.8v-2.23z" fill="#00a19b"/><path d="m486.52 276.86a2.58 2.58 0 0 1 2.42 1 6.07 6.07 0 0 1 .61 3 6.67 6.67 0 0 1 -.41 2.44 2.64 2.64 0 0 1 -2.62 1.86h-2.44v-8.33zm.46-2.18h-5.46v12.69h5.48a4.59 4.59 0 0 0 4.25-2.37 8.51 8.51 0 0 0 1-4.29 10 10 0 0 0 -.24-2.1 5.69 5.69 0 0 0 -.9-2.05 4.22 4.22 0 0 0 -2.16-1.61 6.71 6.71 0 0 0 -1.95-.27z" fill="#00a19b"/><path d="m496.28 287.42h-2.6v-2.36h2.6z" fill="#00a19b"/><path d="m321.87 419.89h-.54a1 1 0 0 0 -.2-.47.74.74 0 0 0 -.54-.23.77.77 0 0 0 -.46.15 1.2 1.2 0 0 0 -.4.54 2.74 2.74 0 0 0 -.15 1 1.18 1.18 0 0 1 .48-.44 1.23 1.23 0 0 1 .59-.15 1.26 1.26 0 0 1 .92.4 1.45 1.45 0 0 1 .38 1 1.71 1.71 0 0 1 -.18.77 1.23 1.23 0 0 1 -.49.54 1.33 1.33 0 0 1 -.71.19 1.37 1.37 0 0 1 -1.1-.49 2.56 2.56 0 0 1 -.43-1.64 3 3 0 0 1 .47-1.86 1.39 1.39 0 0 1 1.11-.5 1.25 1.25 0 0 1 .85.29 1.23 1.23 0 0 1 .4.9zm-2.21 1.89a1.25 1.25 0 0 0 .12.54.79.79 0 0 0 .34.38.82.82 0 0 0 .44.14.74.74 0 0 0 .59-.28 1.09 1.09 0 0 0 .25-.75 1 1 0 0 0 -.25-.72.8.8 0 0 0 -.61-.26.85.85 0 0 0 -.62.26 1 1 0 0 0 -.26.69z" fill="#208ec5"/><path d="m322.26 423.21 1.7-2.29-1.5-2.11h.69l.8 1.13a4.56 4.56 0 0 1 .35.54c.1-.16.22-.33.35-.5l.89-1.17h.63l-1.55 2.07 1.67 2.33h-.72l-1.11-1.57-.19-.3-.21.33-1.1 1.54z" fill="#208ec5"/><path d="m497.54 412.35h-379.97v-2.67h.1v2.57h379.77v-2.57h.1z" fill="#00b2e1"/><path d="m117.89 381.83h9.65v2.17h-7v2.89h6.54v2.2h-6.54v3.52h7.27v2.2h-9.89z" fill="#00a19b"/><path d="m135.21 393.18a1.68 1.68 0 1 0 -1.68 1.67 1.68 1.68 0 0 0 1.68-1.67z" fill="#00a19b"/><path d="m143.81 390.78a2.58 2.58 0 0 0 .47 1.28 2.75 2.75 0 0 0 2.22.77 4.91 4.91 0 0 0 1.52-.2 1.47 1.47 0 0 0 1.12-1.45 1.08 1.08 0 0 0 -.55-1 6.09 6.09 0 0 0 -1.73-.59l-1.35-.3a8.07 8.07 0 0 1 -2.72-1 3.06 3.06 0 0 1 -1.27-2.72 3.62 3.62 0 0 1 1.23-2.8 5.25 5.25 0 0 1 3.62-1.12 5.5 5.5 0 0 1 3.39 1 3.76 3.76 0 0 1 1.48 3.05h-2.5a1.77 1.77 0 0 0 -1-1.58 3.56 3.56 0 0 0 -1.55-.31 2.89 2.89 0 0 0 -1.63.41 1.27 1.27 0 0 0 -.62 1.12 1.08 1.08 0 0 0 .61 1 7.58 7.58 0 0 0 1.65.51l2.18.53a5.48 5.48 0 0 1 2.15.91 3.08 3.08 0 0 1 1.11 2.56 3.61 3.61 0 0 1 -1.32 2.85 5.6 5.6 0 0 1 -3.73 1.13 6.1 6.1 0 0 1 -3.87-1.11 3.71 3.71 0 0 1 -1.41-3.07z" fill="#00a19b"/><path d="m158.08 381.84h2.72v7.86a4.42 4.42 0 0 0 .31 1.93 2.59 2.59 0 0 0 4.21 0 4.42 4.42 0 0 0 .31-1.93v-7.86h2.72v7.86a6.64 6.64 0 0 1 -.63 3.18q-1.18 2.08-4.5 2.08c-2.21 0-3.72-.69-4.51-2.08a6.64 6.64 0 0 1 -.63-3.18z" fill="#00a19b"/><path d="m174.94 381.84h2.81l5.13 9v-9h2.5v12.93h-2.68l-5.26-9.17v9.17h-2.5z" fill="#00a19b"/><path d="m201.54 383.29a5.93 5.93 0 0 1 8.54.54 4.54 4.54 0 0 1 .87 2.36h-2.64a3.5 3.5 0 0 0 -.65-1.37 2.9 2.9 0 0 0 -4.34.34 5.58 5.58 0 0 0 -.82 3.28 4.9 4.9 0 0 0 .86 3.17 2.68 2.68 0 0 0 2.19 1.06 2.48 2.48 0 0 0 2.08-.91 4.13 4.13 0 0 0 .66-1.47h2.64a5.66 5.66 0 0 1 -1.75 3.37 5 5 0 0 1 -3.59 1.3 5.38 5.38 0 0 1 -4.26-1.75 8.27 8.27 0 0 1 .21-9.92z" fill="#00a19b"/><path d="m220.9 392.77a3 3 0 0 1 -2.49-1.16 6.27 6.27 0 0 1 0-6.57 3 3 0 0 1 2.49-1.16 3 3 0 0 1 2.48 1.16 6.32 6.32 0 0 1 0 6.57 3 3 0 0 1 -2.48 1.16zm6-4.45a6.64 6.64 0 0 0 -1.91-5.17 6.54 6.54 0 0 0 -8.24 0 6.6 6.6 0 0 0 -1.91 5.17 6.74 6.74 0 0 0 1.91 5.18 6.54 6.54 0 0 0 8.24 0 6.78 6.78 0 0 0 1.93-5.18z" fill="#00a19b"/><path d="m240.65 381.83h3.88v12.94h-2.53v-8.77c0-.25 0-.61 0-1.06s0-.8 0-1l-2.45 10.86h-2.55l-2.43-10.86v1 9.81h-2.57v-12.92h4l2.32 10.17z" fill="#00a19b"/><path d="m258.24 381.83h3.87v12.94h-2.5v-8.77c0-.25 0-.61 0-1.06s0-.8 0-1l-2.45 10.86h-2.63l-2.43-10.86v1 1.06 8.75h-2.5v-12.92h3.92l2.38 10.17z" fill="#00a19b"/><path d="m277.11 384.09h-6.69v2.78h6.12v2.25h-6.12v3.34h7v2.31h-9.64v-12.93h9.32z" fill="#00a19b"/><path d="m288.69 384.09a2.73 2.73 0 0 1 1.25.23 1.65 1.65 0 0 1 .74 1.58 1.45 1.45 0 0 1 -.77 1.46 3.1 3.1 0 0 1 -1.3.21h-2.91v-3.48zm.55-2.25h-6.17v12.93h2.63v-5h2.64a2.17 2.17 0 0 1 1.53.41 2.43 2.43 0 0 1 .43 1.64v1.2a5.8 5.8 0 0 0 .11 1.11c0 .18.1.41.19.69h3v-.32a1.08 1.08 0 0 1 -.5-.73 6.33 6.33 0 0 1 -.07-1.2v-.87a4.4 4.4 0 0 0 -.37-2 2.43 2.43 0 0 0 -1.26-1 2.64 2.64 0 0 0 1.52-1.26 3.9 3.9 0 0 0 .46-1.82 3.62 3.62 0 0 0 -.24-1.36 3.89 3.89 0 0 0 -.65-1.09 3.2 3.2 0 0 0 -1.21-.91 5.73 5.73 0 0 0 -2.04-.42z" fill="#00a19b"/><path d="m300.27 383.25a6 6 0 0 1 8.57.54 4.47 4.47 0 0 1 .88 2.37h-2.65a3.55 3.55 0 0 0 -.66-1.38 2.66 2.66 0 0 0 -2.11-.82 2.62 2.62 0 0 0 -2.25 1.16 5.71 5.71 0 0 0 -.82 3.29 5 5 0 0 0 .87 3.19 2.7 2.7 0 0 0 2.2 1.06 2.48 2.48 0 0 0 2.08-.91 3.88 3.88 0 0 0 .66-1.47h2.65a5.74 5.74 0 0 1 -1.75 3.38 5.1 5.1 0 0 1 -3.61 1.3 5.41 5.41 0 0 1 -4.27-1.75 8.29 8.29 0 0 1 .21-10z" fill="#00a19b"/><path d="m317.91 394.77h-2.7v-12.93h2.7z" fill="#00a19b"/><path d="m329.8 384.81 1.63 5.1h-3.32zm-6.15 10h2.85l.89-2.65h4.75l.86 2.65h2.94l-4.58-12.93h-3.07z" fill="#00a19b"/><path d="m341.19 381.84h2.72v10.67h6.52v2.33h-9.24z" fill="#00a19b"/><path d="m371.25 384.11a4.77 4.77 0 0 1 1.54.21 1.15 1.15 0 0 1 .7 1.2 1.25 1.25 0 0 1 -.53 1.15 2.66 2.66 0 0 1 -1.38.32h-3.16v-2.88zm.39 5.05a3.28 3.28 0 0 1 1.32.22 1.39 1.39 0 0 1 .83 1.39 1.63 1.63 0 0 1 -.86 1.61 3.18 3.18 0 0 1 -1.33.23h-3.18v-3.45zm.48-7.32h-6.31v13h5.88a9 9 0 0 0 1.84-.13 3.78 3.78 0 0 0 1.47-.65 3.5 3.5 0 0 0 .92-1 3.77 3.77 0 0 0 .59-2.08 3.41 3.41 0 0 0 -.51-1.9 2.83 2.83 0 0 0 -1.48-1.15 3.19 3.19 0 0 0 1-.75 2.92 2.92 0 0 0 .59-1.92 3.34 3.34 0 0 0 -.6-2 4 4 0 0 0 -3.39-1.42z" fill="#00a19b"/><path d="m387.06 384.77 1.63 5.1h-3.31zm-6.15 10h2.85l.89-2.69h4.75l.87 2.69h2.93l-4.58-12.93h-3.07z" fill="#00a19b"/><path d="m398.69 381.84h2.82l5.09 9v-9h2.51v12.93h-2.69l-5.22-9.16v9.16h-2.51z" fill="#00a19b"/><path d="m415.69 381.84h2.7v5.27l5-5.27h3.5l-5.28 5.31 5.55 7.62h-3.49l-4-5.63-1.27 1.3v4.33h-2.7z" fill="#00a19b"/><path d="m431.71 396.9a2 2 0 0 0 1.1-.71 2.7 2.7 0 0 0 .4-1.4h-1.5v-2.66h2.71v2.3a5.18 5.18 0 0 1 -.16 1.26 2.57 2.57 0 0 1 -.6 1.13 3.12 3.12 0 0 1 -1.09.78 3 3 0 0 1 -.86.26z" fill="#00a19b"/><path d="m450.8 381.84h2.7v10.62h6.5v2.31h-9.2z" fill="#00a19b"/><path d="m474.29 381.84v2.29h-3.9v10.64h-2.7v-10.64h-3.9v-2.29z" fill="#00a19b"/><path d="m484.14 384.1a2.63 2.63 0 0 1 2.47 1.06 6.13 6.13 0 0 1 .62 3 6.8 6.8 0 0 1 -.41 2.47 2.71 2.71 0 0 1 -2.68 1.89h-2.5v-8.42zm.46-2.26h-5.6v12.93h5.58a4.64 4.64 0 0 0 4.42-2.37 8.67 8.67 0 0 0 1-4.39 9.8 9.8 0 0 0 -.25-2.15 5.67 5.67 0 0 0 -.92-2.09 4.31 4.31 0 0 0 -2.21-1.65 6.66 6.66 0 0 0 -2.02-.28z" fill="#00a19b"/><path d="m496.37 394.77h-2.64v-2.38h2.64z" fill="#00a19b"/><path d="m107.39 62.92c5.44 14 1.59 30.46-9.44 40.32a36.75 36.75 0 0 1 -36.23 7.63 36.57 36.57 0 0 1 -5.72-66.73c11.32-6.57 28.3-5.5 38.64 2.44a37.07 37.07 0 0 1 12.75 16.34z" fill="#00a19b"/><path d="m72.27 57.24c1.23-.37 2.82-1.34 4.06-.37.87 1.34 3.26 1.79 2.61 3.65a24.21 24.21 0 0 0 4.2 4.55c.36.07.5-.15.65-.37l-.44-.23c.51-.44 1.74.3 2.54-.15a2 2 0 0 1 1.6.67 11.14 11.14 0 0 0 .94 1.94l.29-.15a14.21 14.21 0 0 0 .94 1.87c2.61.89 3.84 4.1 6.16 5.44a35.47 35.47 0 0 0 9.13 5c-.15.45.36.45.58.6v.07a2.14 2.14 0 0 0 -1.45-.3c.44.68 1.52.38 1.74 1.12h-1.16c0 .23.29.23.43.3-.57-.22-1.16.22-1.52-.52a46.55 46.55 0 0 1 -6.67-3.31l-.06.07c1.66 1.64 4 2.27 5.86 3.39.65.37 1.59.59 2 1.26-.22.08-.58.08-.65.38l-.51-.3c-.15.07 0 .22-.08.3l.37.3c-2.47-1-5.22-2-7.46-3.91-1.09-.75-2.18-1.34-3.27-2.16-.14 0-.36-.08-.43.15 1.23 1 2.54 1.56 3.77 2.46a20.41 20.41 0 0 1 -6.74-5c-.8-.82-2-2.53-3.33-2.23-.51.29-1.31.22-1.89.52-.43 0-.8-.52-1.23-.15-.36.82-1.52.15-1.74 1-.72.3-2 .08-2.25 1l.08.37c-1.45.67-3.41.45-4.42 1.87-.29.3-.87-.08-1.16.3a.23.23 0 0 0 -.22-.3c-.36-.15-.58.22-.87.3-.22-.38.29-.45.22-.67-.65-.3-.95.59-1.45.89.07-.6.72-.67.94-1.19-.36-.22-.65.15-.94.22.14-.07.43-.6 0-.6.36-.59 1.16-.37 1.38-1h-.62c.58-.45 1.23-1 1.73-1.41-.21 0-.65-.6-1-.08 0-.07.15-.15.07-.22-.29-.3-.65.22-1 .22 0 .08.07-.22-.15-.3h-.21c.21-.15.5-.52.79-.74l-.14-.15a37.23 37.23 0 0 1 3.26-1.94l.21-.22a.72.72 0 0 0 -1.15 0c.94-.08.07-1.12 1-1.27a3 3 0 0 1 1.45-1.79c-.94-.89-1.31-2.54-2.39-3-.07-.68-.73 0-.8-.68-1.3-.07-2.82.6-3.69-.59a5.35 5.35 0 0 0 -2.18-.15 7.48 7.48 0 0 0 -1.16 1.86 7.23 7.23 0 0 0 -1.3 1.87 5.85 5.85 0 0 1 -2.61 2.38v-.11c-.8 1.11-2.54.67-3.55 1.86l-.07-.3a.62.62 0 0 0 -.73.45v.15c-.51-.15-.87.44-1.08.74-1.24 1.34-3.26 1.34-4.57 2.46-.14.08.07 0 0-.07-2.39.52-3.55 2.38-5.14 4.17a10.17 10.17 0 0 1 -1.79 1.77c.14.6-.73.82-1 1.12.29-.52.94-1 1-1.57-.58.3-.73 1-1.38 1.27-.36-.3.36-.52.15-.82l-.87.67.79-1.12c-.43.08-.87.82-1.37.9-.15.22-.37.22-.66.22v-.07c.29-.23.8-.75 1.24-1.2-.51-.29-1.09.38-1.46.3-.14-.07-.06-.45-.43-.3a2.11 2.11 0 0 0 .87-1c-.29-.08-.65.14-.94.29.07-.37.8-.59.58-1.19-.94-.15-.8.82-1.59 1 .79-1.11 2-1.78 2.75-3l-.07-.07a20.67 20.67 0 0 1 5.28-3.88c1.53-.89 3.55-1.34 4.64-2.83a12 12 0 0 0 1.16-1.71c.22.07.29-.15.36-.3a6.72 6.72 0 0 1 3.56-1.12c.58-.6 1.66-.22 2.1-1.05 1.52-1.86 2.1-4.17 3.4-6 .44-.6.94-1.57 1.82-1.79a34.38 34.38 0 0 1 6.34 1.26z" fill="#fff"/><path d="m73.39 70.28c-.37.31-1.11.54-1.18 1-.66-.07-1.1.61-1.61.61.07-.61 1-.23 1-.83l.58-.46.07.23c.23-.23 1-.08.74-.69z" fill="#fff"/><path d="m71 70.74a1.15 1.15 0 0 1 -.8.61c.18-.35.47-.35.8-.61z" fill="#fff"/><path d="m72.14 72.57c0 .15-.15.15-.22.3h-.22c-.07-.23.15-.3.29-.38s.08.08.15.08z" fill="#fff"/><path d="m274.41 62.92c5.43 14 1.58 30.46-9.44 40.32a36.45 36.45 0 0 1 -61-25.13 36.27 36.27 0 0 1 19-34c11.32-6.57 28.31-5.5 38.65 2.44a37.07 37.07 0 0 1 12.79 16.37z" fill="#00a19b"/><path d="m239.28 57.24c1.23-.37 2.83-1.34 4.06-.37.87 1.34 3.26 1.79 2.61 3.65a24.89 24.89 0 0 0 4.2 4.55c.37.07.51-.15.65-.37l-.43-.23c.51-.44 1.74.3 2.53-.15a2 2 0 0 1 1.6.67 11.9 11.9 0 0 0 .94 1.94l.29-.15a15.55 15.55 0 0 0 .94 1.87c2.61.89 3.85 4.1 6.16 5.44a35.64 35.64 0 0 0 9.13 5c-.14.45.37.45.58.6v.07a2.13 2.13 0 0 0 -1.45-.3c.44.68 1.53.38 1.74 1.12h-1.16c0 .23.29.23.44.3-.58-.22-1.16.22-1.52-.52a46.55 46.55 0 0 1 -6.67-3.31l-.07.07c1.66 1.64 4 2.27 5.87 3.39.65.37 1.59.59 1.95 1.26-.21.08-.58.08-.65.38l-.51-.3c-.14.07 0 .22-.07.3l.36.3c-2.46-1-5.21-2-7.46-3.91-1.09-.75-2.17-1.34-3.26-2.16-.15 0-.36-.08-.44.15 1.24 1 2.54 1.56 3.77 2.46a20.51 20.51 0 0 1 -6.74-5c-.79-.82-2-2.53-3.33-2.23-.51.29-1.3.22-1.88.52-.44 0-.8-.52-1.23-.15-.37.82-1.53.15-1.75 1-.72.3-2 .08-2.24 1l.07.37c-1.45.67-3.4.45-4.42 1.87-.29.3-.87-.08-1.16.3a.22.22 0 0 0 -.22-.3c-.36-.15-.57.22-.87.3-.21-.38.3-.45.22-.67-.65-.3-.94.59-1.45.89.08-.6.73-.67 1-1.19-.37-.22-.66.15-1 .22.15-.07.44-.6 0-.6.37-.59 1.16-.37 1.38-1h-.58c.58-.45 1.23-1 1.74-1.41-.22 0-.65-.6-1-.08 0-.07.14-.15.07-.22-.29-.3-.65.22-1 .22 0 .08.08-.22-.14-.3h-.22c.22-.15.51-.52.8-.74l-.15-.15a37.37 37.37 0 0 1 3.27-1.94l.21-.22a.73.73 0 0 0 -1.16 0c1-.08.07-1.12 1-1.27a3 3 0 0 1 1.44-1.79c-.94-.89-1.3-2.54-2.39-3-.07-.68-.72 0-.79-.68-1.31-.07-2.83.6-3.7-.59a5.3 5.3 0 0 0 -2.19-.15 7.2 7.2 0 0 0 -1.16 1.86 7 7 0 0 0 -1.3 1.87 6 6 0 0 1 -2.61 2.38v-.11c-.8 1.11-2.54.67-3.55 1.86l-.08-.3a.6.6 0 0 0 -.72.45v.15c-.51-.15-.87.44-1.09.74-1.23 1.34-3.26 1.34-4.56 2.46-.15.08.07 0 0-.07-2.4.52-3.56 2.38-5.15 4.17a9.83 9.83 0 0 1 -1.74 1.79c.15.6-.72.82-1 1.12.29-.52.94-1 1-1.57-.58.3-.72 1-1.37 1.27-.37-.3.36-.52.14-.82l-.87.67.8-1.12c-.44.08-.87.82-1.38.9-.14.22-.36.22-.65.22v-.07a16.29 16.29 0 0 0 1.23-1.2c-.51-.29-1.09.38-1.45.3-.14-.07-.07-.45-.43-.3a2.23 2.23 0 0 0 .87-1c-.29-.08-.65.14-.95.29.08-.37.8-.59.58-1.19-.94-.15-.79.82-1.59 1 .8-1.11 2-1.78 2.75-3l-.07-.07a20.72 20.72 0 0 1 5.35-3.8c1.52-.89 3.55-1.34 4.64-2.83a12.92 12.92 0 0 0 1.16-1.71c.21.07.29-.15.36-.3a6.71 6.71 0 0 1 3.55-1.12c.58-.6 1.67-.22 2.1-1.05 1.52-1.86 2.1-4.17 3.41-6 .43-.6.94-1.57 1.81-1.79a34.38 34.38 0 0 1 6.25 1.16z" fill="#fff"/><path d="m240.4 70.28c-.37.31-1.1.54-1.17 1-.66-.07-1.1.61-1.61.61.07-.61.95-.23 1-.83l.59-.46.07.23c.22-.23.95-.08.73-.69z" fill="#fff"/><path d="m238.06 70.74a1.14 1.14 0 0 1 -.81.61c.15-.35.44-.35.81-.61z" fill="#fff"/><path d="m239.15 72.57c0 .15-.14.15-.22.3h-.22c-.07-.23.15-.3.3-.38s.07.08.14.08z" fill="#fff"/><path d="m95.13 251.87a31.55 31.55 0 0 1 -39.42 41.4 31.57 31.57 0 0 1 -5-57.61c9.78-5.67 24.43-4.74 33.36 2.11a32 32 0 0 1 11.06 14.1z" fill="#00a19b"/><path d="m64.82 247c1.06-.32 2.43-1.16 3.5-.32.75 1.15 2.81 1.54 2.25 3.15a21.12 21.12 0 0 0 3.63 3.92c.31.07.44-.13.56-.32l-.37-.19c.44-.39 1.5.26 2.18-.13a1.69 1.69 0 0 1 1.38.58 10.65 10.65 0 0 0 .81 1.67l.25-.13a12.78 12.78 0 0 0 .82 1.61c2.25.77 3.31 3.54 5.31 4.7a30.72 30.72 0 0 0 7.86 4.31c-.12.39.32.39.5.52v.06a1.83 1.83 0 0 0 -1.25-.26c.38.58 1.32.33 1.51 1h-1c0 .19.25.19.38.26-.5-.2-1 .19-1.31-.45a39.62 39.62 0 0 1 -5.76-2.86l-.06.06c1.44 1.42 3.44 2 5.07 2.92.56.33 1.37.52 1.68 1.1-.18.06-.5.06-.56.32l-.44-.26c-.12.07 0 .2-.06.26l.31.26a25.15 25.15 0 0 1 -6.44-3.37c-.94-.65-1.87-1.16-2.81-1.87-.13 0-.32-.06-.38.13 1.07.84 2.19 1.35 3.25 2.12a17.63 17.63 0 0 1 -5.81-4.31c-.69-.71-1.69-2.18-2.88-1.93-.44.26-1.12.2-1.63.45-.37 0-.68-.45-1.06-.13-.31.71-1.31.13-1.5.9-.63.26-1.75.07-1.94.84l.06.32c-1.25.58-2.94.39-3.81 1.61-.25.26-.75-.06-1 .26a.2.2 0 0 0 -.19-.26c-.31-.13-.5.19-.75.26-.19-.32.25-.39.19-.58-.57-.26-.82.51-1.25.77.06-.51.62-.58.81-1-.31-.19-.56.13-.81.19.12-.06.37-.51 0-.51.31-.51 1-.32 1.18-.9h-.5c.5-.39 1.07-.84 1.5-1.22-.18 0-.56-.52-.87-.07 0-.06.12-.13.06-.19-.25-.26-.56.19-.87.19 0 .07.06-.19-.13-.25h-.19c.19-.13.44-.45.69-.65l-.12-.13a31.88 31.88 0 0 1 2.81-1.67l.19-.19a.64.64 0 0 0 -1 0c.81-.06.06-1 .87-1.09a2.58 2.58 0 0 1 1.25-1.55c-.81-.77-1.12-2.19-2.06-2.64-.06-.58-.63 0-.69-.58-1.12-.06-2.44.52-3.19-.51a4.72 4.72 0 0 0 -1.87-.07 6.28 6.28 0 0 0 -1 1.61 6.23 6.23 0 0 0 -1.12 1.55 5 5 0 0 1 -2.25 2.06v-.13c-.69 1-2.19.58-3.07 1.61l-.06-.26a.53.53 0 0 0 -.62.41v.13c-.43-.13-.75.38-.93.64-1.07 1.16-2.82 1.16-3.94 2.12-.13.07.06 0 0-.06-2.07.45-3.07 2.06-4.45 3.6a8.8 8.8 0 0 1 -1.5 1.55c.13.51-.62.7-.87 1 .25-.45.81-.83.87-1.35-.5.26-.62.84-1.18 1.09-.32-.25.31-.45.12-.7l-.75.58.69-1c-.38.06-.75.71-1.19.77-.12.2-.31.2-.56.2v-.07a13.6 13.6 0 0 0 1.06-1c-.44-.26-.94.32-1.25.26-.13-.07-.06-.39-.38-.26.32-.26.63-.45.75-.83-.25-.07-.56.12-.81.25.06-.32.69-.51.5-1-.81-.13-.69.71-1.37.9.68-1 1.68-1.54 2.37-2.57l-.06-.06a18.06 18.06 0 0 1 4.56-3.35c1.32-.77 3.07-1.16 4-2.44a11.34 11.34 0 0 0 1-1.48c.19.06.25-.13.31-.26a5.78 5.78 0 0 1 3.07-1c.5-.51 1.44-.19 1.81-.9 1.31-1.61 1.81-3.6 2.94-5.21.38-.51.81-1.35 1.57-1.54a29.71 29.71 0 0 1 5.44.99z" fill="#fff"/><path d="m65.78 258.23c-.32.27-1 .47-1 .86-.57-.07-.95.52-1.39.52.06-.52.82-.19.88-.72l.51-.39.06.2c.19-.2.82-.07.63-.6z" fill="#fff"/><path d="m63.76 258.63a1 1 0 0 1 -.7.53c.13-.33.38-.33.7-.53z" fill="#fff"/><path d="m64.7 260.2c0 .14-.12.14-.19.27h-.18c-.07-.2.12-.27.25-.33s.06.06.12.06z" fill="#fff"/><path d="m95.13 358.84a31.55 31.55 0 0 1 -39.42 41.4 31.57 31.57 0 0 1 -5-57.61c9.78-5.67 24.43-4.74 33.36 2.11a32 32 0 0 1 11.06 14.1z" fill="#00a19b"/><path d="m64.82 354c1.06-.32 2.43-1.16 3.5-.32.75 1.16 2.81 1.54 2.25 3.15a21.12 21.12 0 0 0 3.63 3.92c.31.07.44-.13.56-.32l-.37-.19c.44-.39 1.5.26 2.18-.13a1.69 1.69 0 0 1 1.38.58 10.65 10.65 0 0 0 .81 1.67l.25-.13a12.78 12.78 0 0 0 .82 1.61c2.25.77 3.31 3.54 5.31 4.7a30.72 30.72 0 0 0 7.86 4.28c-.12.39.32.39.5.52v.06a1.77 1.77 0 0 0 -1.25-.25c.38.58 1.32.32 1.51 1h-1c0 .2.25.2.38.26-.5-.2-1 .19-1.31-.45a39.62 39.62 0 0 1 -5.76-2.86l-.06.06c1.44 1.42 3.44 2 5.07 2.93.56.32 1.37.51 1.68 1.09-.18.07-.5.07-.56.32l-.44-.25c-.12.06 0 .19-.06.25l.31.26a24.84 24.84 0 0 1 -6.44-3.37c-.94-.65-1.87-1.16-2.81-1.87-.13 0-.32-.06-.38.13 1.07.84 2.19 1.35 3.25 2.12a17.63 17.63 0 0 1 -5.81-4.31c-.69-.7-1.69-2.18-2.88-1.93-.44.26-1.12.2-1.63.45-.37 0-.68-.45-1.06-.12-.31.7-1.31.12-1.5.9-.63.25-1.75.06-1.94.83l.06.32c-1.25.58-2.94.39-3.81 1.61-.25.26-.75-.06-1 .26a.2.2 0 0 0 -.19-.26c-.31-.13-.5.19-.75.26-.19-.32.25-.39.19-.58-.57-.26-.82.51-1.25.77.06-.51.62-.58.81-1-.31-.19-.56.13-.81.2.12-.07.37-.52 0-.52.31-.51 1-.32 1.18-.9h-.5c.5-.39 1.07-.83 1.5-1.22-.18 0-.56-.52-.87-.07 0-.06.12-.12.06-.19-.25-.26-.56.19-.87.19 0 .07.06-.19-.13-.25h-.19c.19-.13.44-.45.69-.65l-.12-.12a32 32 0 0 1 2.81-1.68l.19-.19a.64.64 0 0 0 -1 0c.81-.06.06-1 .87-1.09a2.58 2.58 0 0 1 1.25-1.55c-.81-.77-1.12-2.19-2.06-2.64-.06-.57-.63 0-.69-.57-1.12-.07-2.44.51-3.19-.52a4.54 4.54 0 0 0 -1.87-.06 6.06 6.06 0 0 0 -1 1.6 6.23 6.23 0 0 0 -1.12 1.54 5 5 0 0 1 -2.25 2.06v-.13c-.69 1-2.19.58-3.07 1.61l-.06-.26a.53.53 0 0 0 -.62.44v.13c-.43-.13-.75.38-.93.64-1.07 1.16-2.82 1.16-3.94 2.13-.13.06.06 0 0-.07-2.07.45-3.07 2.06-4.45 3.6a8.47 8.47 0 0 1 -1.5 1.55c.13.51-.62.7-.87 1 .25-.45.81-.83.87-1.35-.5.26-.62.84-1.18 1.09-.32-.25.31-.45.12-.7l-.75.58.69-1c-.38.06-.75.71-1.19.77-.12.2-.31.2-.56.2v-.07a13.6 13.6 0 0 0 1.06-1c-.44-.25-.94.32-1.25.26-.13-.07-.06-.39-.38-.26a1.81 1.81 0 0 0 .75-.83c-.25-.07-.56.12-.81.25.06-.32.69-.51.5-1-.81-.13-.69.71-1.37.9.68-1 1.68-1.54 2.37-2.57l-.06-.06a18.06 18.06 0 0 1 4.56-3.35c1.32-.77 3.07-1.16 4-2.44a11.34 11.34 0 0 0 1-1.48c.19.06.25-.13.31-.26a5.78 5.78 0 0 1 3.07-1c.5-.51 1.44-.19 1.81-.9 1.31-1.6 1.81-3.6 2.94-5.21.38-.51.81-1.35 1.57-1.54a29.71 29.71 0 0 1 5.44.99z" fill="#fff"/><path d="m65.78 365.21c-.32.26-1 .46-1 .85-.57-.07-.95.53-1.39.53.06-.53.82-.2.88-.73l.51-.39.06.2c.19-.2.82-.07.63-.6z" fill="#fff"/><path d="m63.76 365.6a1 1 0 0 1 -.7.53c.13-.33.38-.33.7-.53z" fill="#fff"/><path d="m64.7 367.18c0 .13-.12.13-.19.26h-.18c-.07-.2.12-.26.25-.33s.06.07.12.07z" fill="#fff"/><g fill="#00a19b"><path d="m214.51 149.64a1.55 1.55 0 0 0 1.65 1.45c1.07 0 1.5-.56 1.5-1.05s-.53-.77-1.93-1.11c-.75-.19-2.42-.6-2.42-2.27 0-.83.53-2.12 2.76-2.12 1.48 0 2.83.58 2.9 2.29l-1.54.07c-.06-.39-.17-1.1-1.38-1.1-.46 0-1.28.13-1.28.75s.47.7 1.69 1 2.72.65 2.72 2.51a2.2 2.2 0 0 1 -1.24 2 4.29 4.29 0 0 1 -1.79.34 2.76 2.76 0 0 1 -3.12-2.59z"/><path d="m223.45 144.61v4.13a3.32 3.32 0 0 0 .2 1.64 1.45 1.45 0 0 0 1.35.67c1.47 0 1.47-.92 1.47-2.23v-4.21h1.53v4a5 5 0 0 1 -.42 2.7 2.88 2.88 0 0 1 -2.54 1.05c-3.12 0-3.12-1.92-3.12-3.68v-4.08z"/><path d="m200.56 144.61h5.65v1.29h-4.12v1.7h3.84v1.29h-3.84v2.11h4.27v1.28h-5.8z"/><path d="m231.15 144.61h1.49l3.1 5.1v-5.1h1.43v7.63h-1.55l-3-5v5h-1.42z"/><path d="m43.31 151.78a.92.92 0 1 0 -.92.91.92.92 0 0 0 .92-.91z"/><path d="m210.09 151.46a.92.92 0 1 0 -.92.91.92.92 0 0 0 .92-.91z"/><path d="m248.05 145.94a2.88 2.88 0 0 1 .9.12.69.69 0 0 1 .41.71.75.75 0 0 1 -.31.68 1.52 1.52 0 0 1 -.81.19h-1.85v-1.7zm.23 3a2 2 0 0 1 .77.13.83.83 0 0 1 .49.82 1 1 0 0 1 -.51 1 1.8 1.8 0 0 1 -.78.13h-1.86v-2zm.27-4.29h-3.69v7.65h3.44a6 6 0 0 0 1.08-.1 2.16 2.16 0 0 0 .87-.39 2.23 2.23 0 0 0 .54-.6 2.28 2.28 0 0 0 .34-1.22 2 2 0 0 0 -.3-1.12 1.66 1.66 0 0 0 -.87-.67 1.84 1.84 0 0 0 .58-.44 1.72 1.72 0 0 0 .34-1.12 1.89 1.89 0 0 0 -.35-1.17 2.32 2.32 0 0 0 -1.98-.85z"/><path d="m256.65 146.37 1 3h-2zm-3.63 5.9h1.68l.52-1.58h2.78l.51 1.58h1.73l-2.7-7.65h-1.81z"/><path d="m262.54 144.62h1.66l3 5.32v-5.32h1.48v7.65h-1.59l-3.09-5.43v5.43h-1.47z"/><path d="m272.09 144.62h1.59v3.15l2.95-3.15h2.07l-3.13 3.15 3.29 4.5h-2.06l-2.35-3.34-.77.78v2.56h-1.59z"/><path d="m33 145.12h5.75v1.31h-4.17v1.73h3.9v1.31h-3.9v2.1h4.33v1.31h-5.91z"/><path d="m49 150.21a1.57 1.57 0 0 0 1.68 1.47c1.09 0 1.52-.57 1.52-1.06 0-.65-.54-.79-2-1.13-.77-.2-2.47-.62-2.47-2.32 0-.84.55-2.15 2.81-2.15 1.51 0 2.89.59 3 2.34l-1.56.06c-.06-.4-.18-1.12-1.41-1.12-.46 0-1.3.14-1.3.76s.48.72 1.72 1 2.77.66 2.77 2.55a2.27 2.27 0 0 1 -1.26 2 4.47 4.47 0 0 1 -1.82.34 2.81 2.81 0 0 1 -3.18-2.64z"/><path d="m59.13 145.12v4.19a3.41 3.41 0 0 0 .2 1.67 1.47 1.47 0 0 0 1.37.68c1.5 0 1.5-.94 1.5-2.26v-4.28h1.56v4.08a5.15 5.15 0 0 1 -.43 2.74 2.91 2.91 0 0 1 -2.58 1.06c-3.18 0-3.18-2-3.18-3.75v-4.14z"/><path d="m67.54 145.12h1.52l3.15 5.18v-5.18h1.45v7.76h-1.55l-3.11-5.06v5.06h-1.46z"/><path d="m86.71 145.12h5.29v1.31h-3.73v1.85h3.25v1.3h-3.25v3.3h-1.56z"/><path d="m96.22 145.12h1.56v3.06h3.06v-3.06h1.56v7.76h-1.56v-3.39h-3.06v3.39h-1.56z"/><path d="m112.74 150.47a3 3 0 0 1 -3.2 2.49c-2.09 0-3.51-1.52-3.51-3.92 0-2.14 1.08-4 3.6-4a3.31 3.31 0 0 1 2.36.88 3.1 3.1 0 0 1 .73 1.39l-1.54.36a1.6 1.6 0 0 0 -1.63-1.3c-1.92 0-1.92 2.12-1.92 2.61a3.69 3.69 0 0 0 .41 1.94 1.74 1.74 0 0 0 1.49.76c1 0 1.51-.79 1.7-1.63z"/><path d="m63.87 136.66h3.35v-9.74h2.4v13.18h-2.4v-1.08l-9.21-.03v1.11h-2.5v-13.3h2.47v9.86l3.4-.02v-11.96h2.49z"/><path d="m41.41 137.44-.01-4.29h5.13v-2.35l-5.13-.03v-3.39h5.5v-2.43h-13.46v2.43h5.43v3.39h-5.09v2.38h5.09v4.29h-6.19v2.39h14.89v-2.39z"/><path d="m43.69 133.89a1.46 1.46 0 0 0 -.69 2.33 1.48 1.48 0 0 0 2.56-.55 1.58 1.58 0 0 0 -.18-1.18 1.47 1.47 0 0 0 -1.69-.6z"/><path d="m89.11 135.05-1.8-.66h2.29v-2h-4.48v-1h2.17v-1.26a16.86 16.86 0 0 0 3.52 2.14l1.49-2.27a12 12 0 0 1 -6.82-5.1 2.28 2.28 0 0 1 .1-.21l-2.93-.28a11.29 11.29 0 0 1 -6.24 6.07l1.07 2.35a25.22 25.22 0 0 0 3.16-2.22v.82h2.17v1h-4.48v2h2.52l-1.81.68.85 2.71h-2.8v2.06h13.74v-2.06h-3zm-7.11-5.64a22 22 0 0 0 2.13-2.41 15.82 15.82 0 0 0 2.27 2.41zm-1.79 8.37 2.07-.78-1.28-2.61h1.79v3.39zm4.93-3.39h1.77l-1.24 2.61 2 .8h-2.55z"/><path d="m105.51 128.63h5.19v1.44h2v-1.44-.49-1.33h-3.6v-2.09h-1.99v2.09h-3.6v1.33.49 1.44h2z"/><path d="m109.1 135.37h2.4v-1.37l.48.36 1.49-1.32a8.11 8.11 0 0 1 -3.25-3.58l-1.74.78a13 13 0 0 0 2.47 3.27h-5.68a13.06 13.06 0 0 0 2.46-3.27l-1.74-.78a8.09 8.09 0 0 1 -2.72 3.25v-1.51l-1.41.31v-1.6h1.32v-2h-1.32v-3.16h-2v3.16h-1.99v2h1.95v2.09l-2.23.49.38 2.23 1.85-.51v3.4a.4.4 0 0 1 -.4.4h-1l.84 2.12h.63a2 2 0 0 0 2-2v-4.47l1.21-.33 1.16 1c.17-.11.33-.24.48-.36v1.42h2.41v2.61h-3.87v1.9h9.72v-1.9h-3.9z"/><path d="m230.69 136.67h3.35v-9.75h2.41v12.99h-2.41v-.88l-9.23-.02-.02.83h-2.47v-13.04h2.47v9.87l3.4-.02v-11.98h2.5z"/><path d="m208.9 137.45v-4.3h5.13v-2.36l-5.13-.02v-3.4h5.5l.01-2.43h-13.49v2.43h5.44v3.4h-5.09v2.38h5.09v4.3h-6.2v2.39h14.91v-2.39z"/><path d="m211.19 133.89a1.51 1.51 0 0 0 -1 1.25 1.45 1.45 0 0 0 .33 1.08 1.53 1.53 0 0 0 1.6.47 1.57 1.57 0 0 0 1-1 1.6 1.6 0 0 0 -.19-1.18 1.47 1.47 0 0 0 -1.74-.62z"/><path d="m247.48 134.39h2.42v1.55h-2.42z" transform="matrix(.21303039 -.97704557 .97704557 .21303039 63.66 349.36)"/><path d="m256.16 136.16 2.12-1.54s-1.38-1.41-1.43-1.43-1.21.79-1.7 1.12a7.64 7.64 0 0 1 -.29-1.6h2.58v-7.71h-7.32v12.44l-.7.13v-1l-2 .35v-3.58h2.19v-1.94h-2.19v-.76h1.58v-.95l.15.11 1-2.28a5.52 5.52 0 0 1 -2.58-2.76h-2a6.34 6.34 0 0 1 -2.75 3.2l1 2.28.42-.38v.78h1.29v.76h-2.38v1.94h2.38v3.92l-2.43.42.05 2.15 6.13-1.17v1.13l4.93-.86-.21-1.93a7.38 7.38 0 0 0 3.13 2.86l1-2.05a9.88 9.88 0 0 1 -1.97-1.65zm-10.82-7.47a10 10 0 0 0 1.18-1.5 7.13 7.13 0 0 0 1.27 1.5zm6.93-1.59h3v1h-3zm0 9.93v-4.32h.63a8.24 8.24 0 0 0 1 4zm0-6.1v-1h3v1z"/><path d="m244.98 136.57-.36-2.59-1.61.29.37 2.61z"/><path d="m269.68 124.84h8.51v2.28h-8.51z"/><path d="m268.92 129.75-1.67-1.19a16.93 16.93 0 0 1 -3.68 4.32l1 2.5s.49-.41 1.15-1.08v5.41h2.32v-8.12a10 10 0 0 0 .8-1.27v1.68h5.29v5.11a.32.32 0 0 1 -.32.33h-2.69l.9 2.27h2.78a1.71 1.71 0 0 0 1.71-1.71v-6h2.26v-2.25z"/><path d="m268.91 126c-.67-.44-1.31-.92-2-1.36a14.43 14.43 0 0 1 -3.26 3.09l1.08 2.25a17.77 17.77 0 0 0 4.18-3.98z"/><path d="m189.45 345.01h15.23v2.86h-15.23z"/><path d="m210.54 352v-3h-26.54v3l6.25.09.62 2.08h-5.57v18.72h3.7v-12.4l1.39 2.61h.61l.47-.31v8h3.65v-.77h4.21v.77h3.38l.24-.77 1.35 2.85c5.09 0 4.94-3.59 4.94-3.59v-15.15h-6.13l1-2.16zm-9.94 5.11h2s.15.09.12.18-.36 1.28-.83 1.28h-.89a.62.62 0 0 1 -.42-.54zm-.27-5-.71 2.07h-4.92l-.7-2.08zm-11.33 7.58v-2.61h3.11c-1.18 3.09-3.11 2.61-3.11 2.61zm10.2 7.42h-4.18v-1.39h4.18zm6.3-10v1.22l-2-1.22zm0 3.3v6.73c0 2.4-2.7 1.4-2.7 1.4v-6h-10.72a8 8 0 0 0 4.19-5.43h.8v2.61c0 2.61 2 2.32 2 2.32h3.93a2.71 2.71 0 0 0 2.53-1.66z"/><path d="m243 369.4c-6.49-.62-8.31-2.85-8.31-2.85h7.46v-3.11h-11.4v-.82h8.25v-3.29h-8.23v-.82h9.6v-3.09h-5.67l.55-1.65 7.25.07v-3.42h-5l2.22-3.84-4.1-1.4-2.05 4.21 2.55.85v.18h-2.88v-5.45h-3.72v5.45h-2v-5.45h-3.68l-.08 5.45h-2.76v-.18l2.43-1.32-2.43-3.92-3.7 1.46h-.1l2.11 3.57v.2h-4.57v3.43h7.44l.48 1.65-5.85-.07v3.17h9.84v.82l-8.23-.05v3.34h8.22v.82h-11.36v3.24h7.19a21.9 21.9 0 0 1 -8 3.27l2.36 3.08a34.36 34.36 0 0 0 9.79-4.49v4.56h4.15l-.06-4.41a23.32 23.32 0 0 0 10.48 4.41zm-12.7-14.07h-3.3l-.58-1.59h4.45z"/><path d="m337.49 365.31a43.61 43.61 0 0 0 4.09-6.92v-.09l-1.48-1.64h-11a7.65 7.65 0 0 0 1.88-2.47 8.43 8.43 0 0 0 1.25-5.29v-.12h1.81v4.66c0 .76.9 2.12 1.54 2.13h4.58c.43 0 1.09-.31 1.75-1.81.65-1.71.95-2.87.95-2.87l-3.71-1.68v.23s0 .42 0 1v.16c0 .72-.09 1.43-.65 1.43s-.81-.88-.81-1.51v-5.2h-9.24v3.68a8.11 8.11 0 0 1 -2.4 5.35v-9h-9.57v.15s0 6.62 0 10.84-.32 10.77-1.84 13.88l-.07.14 4 1.88.05-.18a43.62 43.62 0 0 0 1.52-10.11h2.2v5.4c0 .28-.16.42-.31.42h-2.41l1.61 4.9h.16c1.19 0 4.37-2 4.62-3.28v-.39a24.94 24.94 0 0 1 2.06 3.54l.07.14.14-.07c.21-.11 5.08-3.38 6.26-4.39.61.4 3.93 3.66 5.53 4.42h.11l2.67-4.85-.24-.06a25.19 25.19 0 0 1 -5.12-2.42zm-15.13-6.78h-2.2v-3.2h2.2zm0-6.74h-2.2v-3h2.2zm3.64 16.58v-13.48a10 10 0 0 1 2.2 1.77h-1.36v3.34h1.43l.12.2a48.62 48.62 0 0 0 3.49 5.45 31.51 31.51 0 0 1 -5.88 2.72zm8.53-5.4-2-2.94h3.75a25.31 25.31 0 0 1 -1.72 2.97z"/><path d="m371.74 351.29a19.83 19.83 0 0 1 -3.35-6l-.05-.13-3.22 1.31-.14.05v.14c0 .05 1.82 5.75 5.73 9.35h-12.9l.17-.17c2.78-2.82 5.7-9.18 5.73-9.24l.08-.17h-.18c-1.27-.28-3.31-.86-3.33-.87h-.12v.1c0 .06-3 6-5.56 8v-1.32l2.09-6.15.06-.16-4.49-.85v.14s-1 3.66-1.32 4.42a26.31 26.31 0 0 1 -4.1 7.5l-.06.08 2.34 3.93.12-.22c.29-.48 1-1.64 1.42-2.21v14h4v-18.4l1.87 2.68.88-.63v3.28h3v.43a11.8 11.8 0 0 1 -4.9 8.46l-.13.11 3.32 3.1.11-.11a19.94 19.94 0 0 0 3.6-4.74 21.89 21.89 0 0 0 2.07-7.25h2.78v5.3c0 1.92-.3 3.06-.77 3.5a.42.42 0 0 1 -.32.12h-2.84l1.53 4.15h.73a9.49 9.49 0 0 0 2-.12 4.41 4.41 0 0 0 3.13-3.1 21.24 21.24 0 0 0 .28-4.6v-8.7l1.46 1.4.08-.2a19.63 19.63 0 0 1 2-3.59l.09-.12-.12-.09a26.59 26.59 0 0 1 -2.77-2.41z"/><path d="m392.53 345.82.05-.17-4.27-.43v.15a17.47 17.47 0 0 1 -.48 2.75h-9.23v3.64h8a20.34 20.34 0 0 1 -7.93 8.87l-.15.08.11.14c.08.1 2.09 2.61 2.37 2.86l.08.09.1-.07a45.6 45.6 0 0 0 4.13-3.15v12.19h3.85v-6.54h8.67v2.27c-.11.21-.23.31-.36.31h-3.28l1.54 3.87v.09h1c2.89-.18 4.82-.6 4.82-2.38v-17.49h-11.26l.57-1.14h14.06v-3.65h-12.92c.25-1.31.53-2.28.53-2.29zm-3.39 12.63v-2.07h8.67v2.07zm0 4.93v-2.08h8.67v2.07z"/><path d="m436.71 368.22a15.06 15.06 0 0 1 -5.3-3.26 44.74 44.74 0 0 1 5.16-3.8l.26-.12-.25-.15a37.12 37.12 0 0 0 -3.55-2h-.1l-3 2.88a4.79 4.79 0 0 1 -.54-1.93v-1.49h5.19v-13.16h-13.47v1.55h-.1s-2.22-.89-2.81-1.2h-8v27.33h3.8v-8.87l1.51 3.59h.13c3-.76 4.71-2.3 5.07-4.56a8.59 8.59 0 0 0 0-3 11.75 11.75 0 0 0 -2.46-4.75c.26-.72 2.1-6 2.88-8.33v20.59l-3.16.53.85 4.8 9.52-2.76h.12v-2.45l.92 1c2.06 2.1 3.22 3.37 5 4.15l.13.05 2.39-4.54zm-20.48-6.07a3.7 3.7 0 0 1 -2.23.85v-13.6h.27 2a34.33 34.33 0 0 1 -1.65 5.74v.07.07c.72 1.11 2.57 4.19 2.57 5.09a2.3 2.3 0 0 1 -.96 1.78zm8.62-13.45h5.74v1.48h-5.74zm2.85 17.7-2.85.48v-8.63h1.15a16.28 16.28 0 0 0 .53 3.87 40.11 40.11 0 0 0 1.42 4.24m-3.07-11.55v-1.39h.12 5.65v1.37h-.09v.06z"/><path d="m460.19 361.41-.07-.09-3.71 1.35 1.51 2.81-6.29 1.35 4.73-10.53-4.77-1.39-4.59 12.46-3.8.55 1.33 4.4 15.1-3.18 1.71 3.68 4.92-1.84-.05-.13c-1.43-4.12-5.99-9.4-6.02-9.44z"/><path d="m464.58 353.92a12.94 12.94 0 0 1 -5.48-8.54v-.18l-4.23 1.44-.14.05v.13s1 3 1.41 4c1.75 4.27 8.52 8.56 8.81 8.74l.11.08 3.34-3.8-.2-.08a14.13 14.13 0 0 1 -3.62-1.84z"/><path d="m444.05 359.53.1-.06c3.75-2.52 8.07-11.88 8.25-12.28l.07-.15-4.79-1.52-.05.13a31.6 31.6 0 0 1 -2.61 5.19 19 19 0 0 1 -4.7 5l-.18.1 3.82 3.53z"/><path d="m474.28 356.38v11.26h4.13v-.9h6.95v.9h4.18v-11.26zm11.13 6.44h-7v-2.53h7z"/><path d="m471.65 345.33v3.89h21.17v17.34c0 .76-.09 2.09-.74 2.09a25.55 25.55 0 0 1 -5.21-.43l.94 4.08h.22a34.75 34.75 0 0 0 4.62.36c2.82 0 4.31-1.61 4.31-4.67v-22.65z"/><path d="m473.85 350.83h15.95v3.92h-15.95z"/><path d="m166.97 366.75 6.12.01v-17.82h4.39v24.11h-4.39v-1.98l-16.85-.05-.01 2.03h-4.55v-24.33h4.52l-.01 18.03 6.21-.04.01-21.87h4.56z"/><path d="m133.67 368.18v-7.86h9.37v-4.29l-9.37-.05v-6.2h10.04l.01-4.44h-24.62v4.44h9.93l-.01 6.2h-9.29v4.34h9.29v7.86h-11.32v4.36h27.23v-4.36z"/><path d="m137.85 361.68a2.69 2.69 0 0 0 -1.27 4.26 2.71 2.71 0 0 0 4.69-1 2.88 2.88 0 0 0 -.34-2.15 2.69 2.69 0 0 0 -3.08-1.11z"/><path d="m303.78 258.66a47.31 47.31 0 0 0 4.17-7v-.09l-1.42-1.57h-10.84a7.51 7.51 0 0 0 1.85-2.43 8.31 8.31 0 0 0 1.23-5.21v-.12h1.78v4.59c0 .75.89 2.09 1.52 2.09h4.5c.43 0 1.07-.31 1.73-1.78.63-1.68.93-2.82.93-2.82l-3.65-1.65v.22s0 .42 0 1v.16c0 .71-.08 1.4-.64 1.4s-.78-.87-.78-1.49v-5.11h-9.16v3.58a8 8 0 0 1 -2.36 5.25v-8.83h-9.42v10.82c0 4-.31 10.59-1.81 13.66l-.07.14 4 1.84v-.17a42.72 42.72 0 0 0 1.5-9.95h2.16v5.31c0 .28-.15.42-.3.42h-2.37l1.58 4.82h.16c1.18 0 4.31-1.95 4.55-3.22v-.4a23.61 23.61 0 0 1 2 3.48l.07.14.14-.07c.21-.11 5-3.33 6.15-4.32.61.39 3.87 3.6 5.45 4.34l.11.05 2.48-4.63-.23-.05a25 25 0 0 1 -5.01-2.4zm-14.78-6.81h-2.16v-3.14h2.16zm0-6.63h-2.16v-3h2.16zm3.6 16.31v-13.26a10.22 10.22 0 0 1 2.17 1.74h-1.35v3.31h1.41l.12.2a47.08 47.08 0 0 0 3.44 5.37 31.17 31.17 0 0 1 -5.74 2.64zm8.39-5.31-2-2.9h3.68a22.54 22.54 0 0 1 -1.67 2.9z"/><path d="m336.38 258.72a49.86 49.86 0 0 0 4.22-7v-.09l-1.42-1.63h-10.84a7.65 7.65 0 0 0 1.85-2.43 8.31 8.31 0 0 0 1.23-5.21v-.12h1.78v4.59c0 .75.89 2.09 1.52 2.09h4.5c.43 0 1.07-.31 1.73-1.78.63-1.68.93-2.82.93-2.82l-3.65-1.65v.22s0 .42 0 1v.16c0 .71-.08 1.4-.64 1.4s-.79-.87-.79-1.49v-5.11h-9.08v3.58a8 8 0 0 1 -2.36 5.25v-8.83h-9.42v10.82c0 4-.31 10.59-1.81 13.66l-.07.14 4 1.84v-.17a42.72 42.72 0 0 0 1.5-9.95h2.16v5.31c0 .28-.15.42-.3.42h-2.42l1.58 4.82h.16c1.18 0 4.3-1.95 4.55-3.22v-.4a24.52 24.52 0 0 1 2 3.48l.07.14.14-.07c.2-.11 5-3.33 6.15-4.32.61.39 3.87 3.6 5.45 4.34l.11.05 2.43-4.58-.24-.05a25.21 25.21 0 0 1 -5.02-2.39zm-14.7-6.87h-2.16v-3.14h2.16zm0-6.63h-2.16v-3h2.16zm3.6 16.31v-13.26a10.14 10.14 0 0 1 2.16 1.74h-1.34v3.31h1.41l.12.2a47.08 47.08 0 0 0 3.44 5.37 31.17 31.17 0 0 1 -5.77 2.64zm8.39-5.31-2-2.9h3.69a22.54 22.54 0 0 1 -1.67 2.9z"/><path d="m371.58 244.56a19.52 19.52 0 0 1 -3.3-5.88v-.14l-3.17 1.3h-.13v.14c0 .06 1.8 5.66 5.64 9.21h-12.7l.17-.17c2.73-2.78 5.6-9 5.63-9.1l.08-.16h-.18c-1.25-.27-3.25-.85-3.27-.86h-.12l-.05.11c0 .05-2.95 5.91-5.47 7.91v-1.3l2.06-6.05.05-.16-4.41-.84v.14s-1 3.6-1.3 4.35a26 26 0 0 1 -4 7.38l-.07.08 2.31 3.87.12-.22c.28-.47 1-1.61 1.4-2.17v13.77h3.9v-18.12l1.84 2.63.87-.62v3.23h3v.42a11.6 11.6 0 0 1 -4.82 8.33l-.13.1 3.27 3.06.1-.11a19.06 19.06 0 0 0 3.55-4.67 21.65 21.65 0 0 0 2-7.13h2.73v5.21c0 1.89-.29 3-.76 3.44a.37.37 0 0 1 -.31.12h-2.79l1.5 4.08h.72a9.19 9.19 0 0 0 1.94-.12 4.35 4.35 0 0 0 3.08-3.05 21 21 0 0 0 .42-4.49v-8.59l1.44 1.38.08-.2a18.05 18.05 0 0 1 1.94-3.53l.08-.12-.11-.08a24.76 24.76 0 0 1 -2.83-2.38z"/><path d="m392.29 239.13v-.17l-4.21-.41v.14a16.13 16.13 0 0 1 -.47 2.71h-9.09v3.6h7.88a20 20 0 0 1 -7.8 8.72l-.15.08.11.14c.08.1 2.06 2.56 2.33 2.82l.08.08.1-.07a42.59 42.59 0 0 0 4.07-3.1v11.33h3.86v-5.79h8.54v2.24c-.12.2-.23.3-.35.3h-3.23l1.51 3.89v.09h1c2.85-.19 4.74-.67 4.74-2.43v-17.2h-11.12l.55-1.11h13.84v-3.59h-12.75c.27-1.3.55-2.26.56-2.27zm-3.29 12.44v-2h8.54v2zm0 4.85v-2h8.54v2z"/></g><path d="m424.35 242h5.64v1.46h-5.64z" fill="none"/><path d="m430 247.96h.09v-1.34h-5.56v.03h-.18v1.37h5.65z" fill="none"/><path d="m424.35 242h5.64v1.46h-5.64z" fill="none"/><path d="m426 255.21a16 16 0 0 1 -.51-3.82h-1.11v8.5l2.81-.48h.22l-.09-.2a39.68 39.68 0 0 1 -1.32-4z" fill="none"/><path d="m430 247.96h.09v-1.34h-5.56v.03h-.18v1.37h5.65z" fill="none"/><path d="m436.71 261.2a14.68 14.68 0 0 1 -5.22-3.2 43.36 43.36 0 0 1 5.08-3.74l.25-.12-.24-.15c-.11-.06-2.64-1.6-3.5-1.93h-.09l-3 2.83a4.52 4.52 0 0 1 -.53-1.89v-1.5h5.11v-13h-13.23v1.53h-.09s-2.19-.88-2.77-1.19h-7.89v26.89h3.73v-8.73l1.48 3.54h.13c2.95-.75 4.64-2.26 5-4.49a8.55 8.55 0 0 0 0-2.92 11.61 11.61 0 0 0 -2.42-4.67c.25-.72 2.06-5.86 2.83-8.21v20.27l-3.11.52.84 4.73 9.37-2.72h.12v-2.41l.9 1c2 2.07 3.17 3.31 5 4.09l.12.05 2.35-4.47zm-20.16-6a3.62 3.62 0 0 1 -2.23.85v-13.41h2.24a32.9 32.9 0 0 1 -1.62 5.65v.07.07c.71 1.09 2.53 4.12 2.53 5a2.25 2.25 0 0 1 -.92 1.81zm8.45-13.2h5.65v1.45h-5.65zm2.81 17.41-2.81.48v-8.5h1.11a16 16 0 0 0 .51 3.82 39.68 39.68 0 0 0 1.32 4l.09.2zm-2.81-11.41v-1.37h.18 5.56v1.37h-.09z" fill="#00a19b"/><path d="m460.48 254.5-.06-.08-3.65 1.33 1.48 2.76-6.19 1.33 4.65-10.36-4.71-1.37-4.54 12.27-4 .53 1.3 4.37 15.12-3.16 1.69 3.62 4.84-1.81-.05-.13c-1.36-4.06-5.85-9.25-5.88-9.3z" fill="#00a19b"/><path d="m464.8 247.13a12.69 12.69 0 0 1 -5.39-8.4v-.17l-4.2 1.44-.14.05.05.13s1 3 1.38 3.93c1.73 4.2 8.4 8.42 8.68 8.6l.11.07 3.28-3.74-.2-.08a13.37 13.37 0 0 1 -3.57-1.83z" fill="#00a19b"/><path d="m444.6 252.66.09-.06c3.7-2.48 7.95-11.69 8.13-12.08l.07-.15-4.72-1.5-.05.13a31.11 31.11 0 0 1 -2.57 5.1 18.65 18.65 0 0 1 -4.62 4.91l-.18.1 3.77 3.47z" fill="#00a19b"/><path d="m474.22 249.68v11.08h4.07v-.89h6.83v.89h4.11v-11.08zm10.95 6.32h-6.88v-2.5h6.88z" fill="#00a19b"/><path d="m471.62 238.81v3.83h20.84v17.06c0 .75-.1 2.06-.74 2.06a24.67 24.67 0 0 1 -5.12-.42l.92 4h.22a33.66 33.66 0 0 0 4.54.36c2.78 0 4.25-1.59 4.25-4.6v-22.29z" fill="#00a19b"/><path d="m473.98 244.35h15.7v3.86h-15.7z" fill="#00a19b"/><path d="m216.77 238.87h14.55v3.15h-14.55z" fill="#00a19b"/><path d="m229.66 248.78v-5.85h-11.12v5.85zm-7.93-3.24h4.74v.66h-4.74z" fill="#00a19b"/><path d="m241.65 256.33-2.82.42.41 2.74-.74.11v-4.6h.61v.52h3.3v-12.35h-3.91v-4.65h-3.27v4.64h-3.85v12.41h3.1v-.66h.8v5l-4.59.56v-11.04h-13.53v16.21h3.15v-10.1l1.44 1.13c2.22-1.06 2.23-4.25 2.23-4.25h.29v2.85a1.07 1.07 0 0 0 1.18 1.06h2.27v5c0 .68-1.89.43-1.89.43l-.37-.11v-2h1.9v-2.71h-6.78v2.67a.15.15 0 0 0 .15.15h1.52a.14.14 0 0 1 .14.14v4.6h3.19v-2.31c.75.63 1 2.8 1 2.8a.69.69 0 0 0 .74.64c3.44-.05 3.46-1.56 3.56-1.89v-2.86l1.17 3.27 7.56-1.48.57 3 3.18-.36zm-3.15-9.83h.67v5.26h-.67zm-3.27 5.26h-.64v-5.26h.64zm-14.92 2.49v-1.83h1s.04 1.52-1 1.83zm7.41-.58h-.84v-1.25h.84z" fill="#00a19b"/><path d="m230.87 263.75a1.48 1.48 0 0 1 -.34.84l-.34-.21.41-.74z" fill="#00a19b"/><path d="m227.22 265.64a.65.65 0 0 1 -.49-.25" fill="#00a19b"/><path d="m166.93 259.92h6.02v-17.54h4.33v23.73h-4.33v-1.95l-16.58-.04v1.99h-4.49v-23.93h4.45v17.74l6.11-.04v-21.53h4.49z" fill="#00a19b"/><path d="m133.33 261.33v-7.74h9.22v-4.23l-9.22-.04v-6.1h9.88l.01-4.37h-24.23v4.37h9.77v6.1h-9.15v4.27h9.15v7.74h-11.14v4.29h26.8v-4.29z" fill="#00a19b"/><path d="m137.45 254.93a2.63 2.63 0 0 0 -1.25 4.19 2.75 2.75 0 0 0 2.87.83 2.69 2.69 0 0 0 1.74-1.82 2.84 2.84 0 0 0 -.33-2.12 2.66 2.66 0 0 0 -3.03-1.08z" fill="#00a19b"/><path d="m206.38 257.05-3.24-1.17h4.12v-3.61h-8.06v-1.74h3.91v-2.27a30.65 30.65 0 0 0 6.34 3.85l2.67-4.15a21.54 21.54 0 0 1 -12.27-9.18c.12-.25.17-.38.17-.38l-5.27-.51a20.26 20.26 0 0 1 -11.22 10.93l1.92 4.24a46.33 46.33 0 0 0 5.68-4v1.47h3.87v1.74h-8v3.61h4.54l-3.26 1.23 1.52 4.87h-5v3.7h24.74v-3.68h-5.43zm-12.84-10.13a38.89 38.89 0 0 0 3.88-4.34 29.65 29.65 0 0 0 4.08 4.34h-8zm-3.21 15.08 3.72-1.4-2.23-4.7h3.18v6.1zm8.87-6.1h3.18l-2.19 4.66 3.59 1.44h-4.58z" fill="#00a19b"/><path d="m262.83 245.46h9.35v2.6h3.59v-2.6-.88-2.39h-6.48v-3.76h-3.57v3.76h-6.48v2.39.88 2.6h3.59z" fill="#00a19b"/><path d="m269.29 257.59h4.33v-2.59c.27.22.56.44.86.65l2.67-2.37a14.52 14.52 0 0 1 -5.83-6.45l-3.14 1.39a23 23 0 0 0 4.44 5.9h-10.22a23.09 23.09 0 0 0 4.43-5.9l-3.14-1.39a14.55 14.55 0 0 1 -4.89 5.85v-2.64l-2.53.56v-2.87h2.37v-3.65h-2.37v-5.69h-3.68v5.69h-3.51v3.65h3.51v3.68l-4 .9.69 4 3.33-.92v6.12a.71.71 0 0 1 -.71.72h-1.9l1.52 3.82h1.12a3.62 3.62 0 0 0 3.63-3.62v-8.05l2.16-.59 2.1 1.86c.3-.21.59-.43.87-.65v2.55h4.32v4.66h-7v3.43h17.47v-3.43h-6.95z" fill="#00a19b"/><path d="m257.21 362.89h4.54v2.89h-4.54z" fill="#00a19b" transform="matrix(.21 -.98 .98 .21 -151.8 540.18)"/><path d="m273.47 366.2 4-2.87s-2.59-2.65-2.67-2.68-2.27 1.47-3.18 2.1a13.19 13.19 0 0 1 -.54-3h4.81v-14.47h-13.72v23.26l-1.31.25-.09-1.83-3.73.65v-6.7h4.09v-3.63h-4.13v-1.42h3v-1.78l.27.2 1.88-4.26a10.24 10.24 0 0 1 -4.82-5.16h-3.83a11.9 11.9 0 0 1 -5.14 6l1.88 4.26s.32-.27.8-.72v1.47h2.4v1.41h-4.44v3.64h4.44v7.33l-4.54.79.09 4 11.46-2.19v2.13l9.22-1.61-.19-3.66a13.88 13.88 0 0 0 5.84 5.36l1.95-3.83a18.48 18.48 0 0 1 -3.8-3.04zm-20.26-14a17 17 0 0 0 2.21-2.81 13.61 13.61 0 0 0 2.38 2.81zm13-3h5.66v1.91h-5.66zm0 18.59v-8.09h1.18a15.46 15.46 0 0 0 1.86 7.58zm0-11.42v-1.87h5.66v1.92z" fill="#00a19b"/><path d="m252.54 366.97-.68-4.84-3 .55.68 4.87z" fill="#00a19b"/><path d="m293.47 345.14h16.09v4.31h-16.09z" fill="#00a19b"/><path d="m310.74 354.42h-18.74l-3.15-2.25s-3.44 5.75-7 8.17l2 4.73s.91-.79 2.17-2.05v10.22h4.39v-15.34a23.55 23.55 0 0 0 1.52-2.4v3.17h10v9.67a.61.61 0 0 1 -.61.62h-5.09l1.7 4.29h5.26a3.23 3.23 0 0 0 3.23-3.22v-11.36h4.29z" fill="#00a19b"/><path d="m292 347.27c-1.27-.83-2.5-1.74-3.72-2.57a26.89 26.89 0 0 1 -6.17 5.85l2.06 4.24a33.66 33.66 0 0 0 7.83-7.52z" fill="#00a19b"/></svg>