<svg viewBox="0 0 517.12 387.65" xmlns="http://www.w3.org/2000/svg"><path d="m65 52.64a17.84 17.84 0 0 1 -22.29 23.36 17.84 17.84 0 0 1 -2.8-32.56 17.85 17.85 0 0 1 25.09 9.2z" fill="#00a19b"/><path d="m47.86 49.87c.6-.18 1.37-.65 2-.18.42.66 1.59.87 1.27 1.78a11.7 11.7 0 0 0 2 2.22c.18 0 .25-.07.32-.18l-.21-.11c.24-.22.84.15 1.23-.07a1 1 0 0 1 .78.32 5.52 5.52 0 0 0 .46 1l.14-.07a7.74 7.74 0 0 0 .46.91c1.27.43 1.88 2 3 2.65a16.93 16.93 0 0 0 4.45 2.45c-.07.22.18.22.28.29a1 1 0 0 0 -.7-.15c.21.33.74.19.85.55h-.57c0 .11.14.11.21.15-.28-.11-.57.1-.74-.26a22.86 22.86 0 0 1 -3.25-1.61 13.26 13.26 0 0 0 2.86 1.65c.32.19.78.29 1 .62-.11 0-.28 0-.32.18l-.25-.14c-.07 0 0 .11 0 .14l.17.15a14.13 14.13 0 0 1 -3.64-1.91c-.53-.36-1.06-.65-1.59-1.05-.07 0-.17 0-.21.07.6.47 1.24.76 1.84 1.2a9.83 9.83 0 0 1 -3.29-2.43c-.39-.41-1-1.24-1.62-1.1-.25.15-.64.11-.92.26s-.39-.26-.6-.07c-.18.4-.75.07-.85.5-.36.15-1 0-1.1.48v.18c-.71.33-1.67.22-2.16.91-.14.14-.42 0-.57.14 0-.07 0-.14-.1-.14s-.28.11-.43.14c-.1-.18.15-.21.11-.32-.32-.15-.46.29-.71.43 0-.29.36-.32.46-.58-.17-.11-.32.07-.46.11.07 0 .21-.29 0-.29.18-.29.57-.18.67-.51h-.28c.28-.22.6-.47.85-.69-.11 0-.32-.29-.49 0 0 0 .07-.07 0-.11s-.32.11-.49.11c0 0 0-.11-.08-.14h-.1c.1-.07.25-.26.39-.37l-.07-.07a16.52 16.52 0 0 1 1.59-.91l.1-.11a.36.36 0 0 0 -.56 0c.46 0 0-.55.49-.62a1.45 1.45 0 0 1 .71-.87c-.46-.44-.64-1.24-1.17-1.49 0-.33-.35 0-.38-.33-.64 0-1.38.29-1.81-.29a2.53 2.53 0 0 0 -1.06 0 3.34 3.34 0 0 0 -.56.91 3.23 3.23 0 0 0 -.64.91 2.85 2.85 0 0 1 -1.27 1.16v-.07c-.39.55-1.24.33-1.74.91v-.15a.3.3 0 0 0 -.35.22v.07c-.25-.07-.43.22-.53.37-.61.65-1.6.65-2.23 1.2-.07 0 0 0 0 0-1.17.26-1.73 1.16-2.51 2a5 5 0 0 1 -.85.87c.07.29-.35.4-.49.55.14-.26.45-.48.49-.77-.28.15-.35.48-.67.62-.18-.14.18-.25.07-.4l-.43.33.39-.55c-.21 0-.42.4-.67.44-.07.11-.18.11-.32.11a7.53 7.53 0 0 0 .6-.58c-.24-.15-.53.18-.7.15s0-.22-.21-.15c.17-.15.35-.26.42-.47-.14 0-.32.07-.46.14 0-.18.39-.29.28-.58-.46-.07-.39.4-.77.51.38-.55.95-.87 1.34-1.45a10.19 10.19 0 0 1 2.58-1.89c.75-.44 1.74-.66 2.27-1.38a5.84 5.84 0 0 0 .56-.84c.11 0 .14-.07.18-.14a3.25 3.25 0 0 1 1.73-.55c.28-.29.81-.11 1-.51.74-.91 1-2 1.66-3 .21-.29.46-.76.88-.87a17.28 17.28 0 0 1 3.04.46z" fill="#fff"/><path d="m48.4 56.24c-.18.14-.53.26-.57.48-.32 0-.54.3-.79.3 0-.3.47-.12.5-.41l.29-.23v.12c.1-.12.46 0 .35-.34z" fill="#fff"/><path d="m47.26 56.46a.57.57 0 0 1 -.39.3c.07-.19.21-.19.39-.3z" fill="#fff"/><path d="m47.79 57.35c0 .08-.07.08-.1.15h-.11c0-.11.07-.15.14-.19s.04.04.07.04z" fill="#fff"/><path d="m65 135.7a17.83 17.83 0 0 1 -22.28 23.39 17.84 17.84 0 0 1 -2.8-32.56c5.53-3.2 13.81-2.68 18.86 1.19a18.11 18.11 0 0 1 6.22 7.98z" fill="#00a19b"/><path d="m47.86 132.93c.6-.18 1.37-.66 2-.18.42.65 1.59.87 1.27 1.78a12.34 12.34 0 0 0 2 2.22c.18 0 .25-.08.32-.19l-.21-.1c.24-.22.84.14 1.23-.08a1 1 0 0 1 .78.33 5.82 5.82 0 0 0 .46.94l.14-.07a7.74 7.74 0 0 0 .46.91c1.27.44 1.88 2 3 2.66a17.23 17.23 0 0 0 4.45 2.45c-.07.21.18.21.28.29a1 1 0 0 0 -.7-.14c.21.33.74.18.85.54h-.57c0 .11.14.11.21.15-.28-.11-.57.11-.74-.26a21.85 21.85 0 0 1 -3.25-1.61 13.68 13.68 0 0 0 2.86 1.65c.32.18.78.29 1 .62-.11 0-.28 0-.32.18l-.25-.15c-.07 0 0 .11 0 .15l.17.14a14.09 14.09 0 0 1 -3.64-1.9c-.53-.37-1.06-.66-1.59-1.06-.07 0-.17 0-.21.08.6.47 1.24.76 1.84 1.2a10 10 0 0 1 -3.29-2.44c-.39-.4-1-1.24-1.62-1.09-.25.14-.64.11-.92.25s-.39-.25-.6-.07c-.18.4-.75.07-.85.51-.36.15-1 0-1.1.47v.18c-.71.33-1.67.22-2.16.91-.14.15-.42 0-.57.15a.11.11 0 0 0 -.1-.15c-.18-.07-.28.11-.43.15-.1-.18.15-.22.11-.33-.32-.14-.46.29-.71.44 0-.29.36-.33.46-.58-.17-.11-.32.07-.46.1.07 0 .21-.29 0-.29.18-.29.57-.18.67-.51h-.28c.28-.21.6-.47.85-.69-.11 0-.32-.29-.49 0 0 0 .07-.08 0-.11s-.32.11-.49.11a.13.13 0 0 0 -.08-.15h-.1c.1-.07.25-.25.39-.36l-.07-.07a16.66 16.66 0 0 1 1.59-.95l.1-.11a.36.36 0 0 0 -.56 0c.46 0 0-.54.49-.62a1.45 1.45 0 0 1 .71-.87c-.46-.44-.64-1.24-1.17-1.49 0-.33-.35 0-.38-.33-.64 0-1.38.29-1.81-.29a2.71 2.71 0 0 0 -1.06 0 3.5 3.5 0 0 0 -.56.91 3.38 3.38 0 0 0 -.64.91 2.93 2.93 0 0 1 -1.27 1.17v-.08c-.39.55-1.24.33-1.74.91v-.14a.28.28 0 0 0 -.35.22v.07c-.25-.07-.43.22-.53.36-.61.66-1.6.66-2.23 1.2-.07 0 0 0 0 0-1.17.25-1.73 1.16-2.51 2a4.67 4.67 0 0 1 -.85.87c.07.3-.35.4-.49.55.14-.25.45-.47.49-.76-.28.14-.35.47-.67.61-.18-.14.18-.25.07-.4l-.49.35.39-.54c-.21 0-.42.4-.67.43-.07.11-.18.11-.32.11a7.94 7.94 0 0 0 .6-.59c-.24-.14-.53.19-.7.15s0-.22-.21-.15a1.06 1.06 0 0 0 .42-.47.76.76 0 0 0 -.46.15c0-.18.39-.29.28-.59-.46-.07-.39.41-.77.51.38-.54.95-.87 1.34-1.45a10.7 10.7 0 0 1 2.58-1.89c.75-.43 1.74-.65 2.27-1.38a5.84 5.84 0 0 0 .56-.84c.11 0 .14-.07.18-.14a3.25 3.25 0 0 1 1.73-.55c.28-.29.81-.11 1-.51.74-.91 1-2 1.66-2.94.21-.29.46-.77.88-.87a16.43 16.43 0 0 1 3.1.49z" fill="#fff"/><path d="m48.4 139.29c-.18.15-.53.26-.57.48-.32 0-.54.3-.79.3 0-.3.47-.11.5-.41l.29-.22v.11c.1-.11.46 0 .35-.33z" fill="#fff"/><path d="m47.26 139.51a.57.57 0 0 1 -.39.3c.07-.18.21-.18.39-.3z" fill="#fff"/><path d="m47.79 140.4c0 .08-.07.08-.1.15h-.11c0-.11.07-.15.14-.18s.04.03.07.03z" fill="#fff"/><path d="m16.25 2.22v-1.95c0-.08.05-.12.17-.12.48 0 .73 0 .73.12s0 .14-.1.15-.1.08-.1.2v1.6h.9c.08 0 .12.06.12.16v.31c0 .11 0 .16-.12.16h-.77a9.76 9.76 0 0 0 .36 1.06 5 5 0 0 0 .71 1.25.16.16 0 0 1 .05.11s0 .05-.06.08a2.3 2.3 0 0 1 -.27.28.11.11 0 0 1 -.2 0 5.78 5.78 0 0 1 -.61-1.19 2.83 2.83 0 0 1 -.06-.31v5q0 .12-.15.12h-.38c-.12 0-.17 0-.17-.12v-4c-.09.3-.19.58-.29.83a7.67 7.67 0 0 1 -.56 1.23.18.18 0 0 1 -.16-.06 4.11 4.11 0 0 1 -.42-.21c-.06 0-.08 0-.08 0a10.25 10.25 0 0 0 .7-1.41 9.43 9.43 0 0 0 .42-1.27c.07-.28.17-.71.27-1.3h-1c-.18-.09-.18-.14-.18-.25v-.31c0-.1 0-.16.11-.16zm3.52 5.15a.24.24 0 0 1 .07.13s0 0-.06 0a.27.27 0 0 0 -.16.06 4.3 4.3 0 0 1 -.54.58 7 7 0 0 1 -.88.61.14.14 0 0 1 -.15-.08c-.13-.11-.24-.2-.32-.28s-.07 0-.07-.07a.05.05 0 0 1 0 0 1.63 1.63 0 0 0 .42-.2 3.79 3.79 0 0 0 .61-.5c.14-.15.31-.34.49-.57h.05zm4-1.43c.05 0 .08 0 .08.11v.31c0 .11 0 .16-.08.16h-2.44v1.92c0 .49-.41.74-1.21.74h-.43c-.05 0-.07-.08-.07-.19a1.64 1.64 0 0 0 -.17-.52 3.57 3.57 0 0 0 .63.07c.36 0 .55-.12.55-.35v-1.67h-2.5c-.06 0-.08 0-.08-.16v-.31c0-.07 0-.11.08-.11zm0-5.4c.05 0 .08 0 .08.12v.34c0 .11 0 .16-.08.16h-1.77v.78h1.41q.15 0 .15.12v1.88q0 .12-.15.12h-5c-.11 0-.16 0-.16-.12v-1.94c0-.08 0-.12.16-.12h1.37v-.75h-1.58c-.05 0-.07 0-.07-.16v-.31c0-.08 0-.12.07-.12zm-.66 4.18s.07 0 .07.12v.31c0 .11 0 .16-.07.16h-4.32c-.06 0-.08 0-.08-.16v-.31c0-.08 0-.12.08-.12zm-3.3-2.22h-.81v1h.82zm1.56-1.37h-.9v.78h.9zm0 1.37h-.9v1h.9zm1.52 0h-.89v1h.86zm.37 5.16c.25.26.47.49.65.7l-.05.07-.3.4a8.29 8.29 0 0 0 -.87-.9 4.8 4.8 0 0 0 -.62-.47 1.67 1.67 0 0 1 .27-.41s.06-.05.08-.05a8.78 8.78 0 0 1 .84.66z" fill="#231815"/><path d="m28.36 1.79c.08 0 .12.06.12.16v.31c0 .11 0 .16-.12.16h-3.31c-.08 0-.12 0-.12-.16v-.26c0-.1 0-.16.12-.16zm-.43 4.21c.1 0 .16 0 .16.12v2.88c0 .08-.06.12-.16.12h-.39c-.11 0-.16 0-.16-.12v-.37h-1.38v.43c0 .08-.07.12-.16.12h-.44c-.11 0-.15 0-.15-.12v-2.89c0-.1 0-.16.15-.16zm0-2.81c.08 0 .12.06.12.16v.31c0 .11 0 .16-.12.16h-2.3c-.07 0-.11-.05-.11-.16v-.3c0-.1 0-.16.11-.16zm0 1.37q.12 0 .12.15v.29q0 .15-.12.15h-2.3c-.07 0-.11-.05-.11-.15v-.28c0-.1 0-.15.11-.15zm0-4.14q.12 0 .12.15v.33q0 .15-.12.15h-2.3c-.08 0-.11-.05-.11-.15v-.32c0-.1 0-.15.11-.15zm-.55 7.58v-1.36h-1.38v1.36zm2.15-2a.12.12 0 0 1 -.08.12.22.22 0 0 0 -.11.17 10.34 10.34 0 0 1 -.23 1.38q-.09.3-.21.6c0 .05 0 .08-.07.08a3.09 3.09 0 0 0 -.54-.14.09.09 0 0 1 -.09-.1 7.25 7.25 0 0 0 .32-.87 9.83 9.83 0 0 0 .21-1.37.09.09 0 0 1 .1-.1c.46.11.7.23.7.23zm1.41-4.4v-1.41c0-.07 0-.11.15-.11.5 0 .75 0 .75.11s0 .14-.1.15-.1.08-.1.2v1.06h2.11c.08 0 .12.06.12.16v.31q0 .15-.12.15h-2.11v1.61h1.92c.07 0 .11 0 .11.15v.31c0 .11 0 .16-.11.16h-4.5c-.08 0-.11 0-.11-.16v-.29c0-.1 0-.15.11-.15h1.88v-1.63h-2.11q-.12 0-.12-.15v-.31c0-.1 0-.16.12-.16zm-.31 3.91c.07 0 .11 0 .11.07s0 .11-.07.12a.11.11 0 0 0 -.08.12v2.11c0 .29.18.43.54.43h.67c.36 0 .57 0 .65-.14a2.34 2.34 0 0 0 .32-.84 1.24 1.24 0 0 0 .41.37c.09 0 .14.08.14.14a2.62 2.62 0 0 1 -.41.94.76.76 0 0 1 -.6.19h-1.25c-.79 0-1.18-.24-1.18-.7v-2.78c0-.07 0-.11.08-.11zm1.3.21a6.41 6.41 0 0 1 .34.8 1.88 1.88 0 0 1 -.63.2 3.62 3.62 0 0 0 -.23-.72 5.36 5.36 0 0 0 -.51-.93s.17-.14.51-.31c.21.38.38.68.52.96zm1.92.93c.12.27.23.55.33.85a2.48 2.48 0 0 1 -.62.19 4 4 0 0 0 -.24-.69 6.06 6.06 0 0 0 -.51-1s.17-.14.51-.31c.22.36.39.68.53.96z" fill="#231815"/><path d="m37.64.9a7.47 7.47 0 0 1 -1.31.35v1.09h1.56c.08 0 .12.06.12.16v.31c0 .11 0 .16-.12.16h-1.56v1.29h1.6q.12 0 .12.15v.31c0 .11 0 .16-.12.16h-1.6v1.33h2.19v-2.15s0-.08.15-.08c.42 0 .63 0 .63.08s0 .13-.08.13-.08.07-.08.18v1.84h.78v-2.7h-1.21a.13.13 0 0 1 -.15-.15v-3.17s0-.08.15-.08c.42 0 .63 0 .63.08s0 .13-.08.13-.08.07-.08.19v.78h1.33c.05 0 .08 0 .08.11v.32c0 .1 0 .15-.08.15h-1.33v1h1.25c.1 0 .16 0 .16.12v3.2h1.91v-1.31h-1.5c-.08 0-.12 0-.12-.16v-.31q0-.15.12-.15h1.5v-1.26h-1.5c-.08 0-.12-.05-.12-.16v-.34c0-.1 0-.16.12-.16h1.5v-1.25h-1.5q-.12 0-.12-.15v-.4c0-.07 0-.11.12-.11h2.07c.1 0 .15 0 .15.11v5.67h.63q.12 0 .12.15v.32q0 .15-.12.15h-8.85q-.12 0-.12-.15v-.32q0-.15.12-.15h.66v-5.63c0-.07 0-.11.12-.11l.46.18a4.15 4.15 0 0 0 .6-.14 5.06 5.06 0 0 0 .81-.34.31.31 0 0 1 .12-.06 2.79 2.79 0 0 1 .39.75c0 .06 0 .08-.08.08l-.31-.08zm.82 6.4c.06 0 .1.09.1.12s-.07.12-.2.12a.33.33 0 0 0 -.23.06 5.45 5.45 0 0 1 -.61.59 4.27 4.27 0 0 1 -.52.41l-.62.4-.51.24a.19.19 0 0 1 -.16-.1 1.23 1.23 0 0 0 -.29-.35c-.07 0-.1-.08-.1-.1s0 0 0 0l.72-.29a5.56 5.56 0 0 0 .78-.52 2.89 2.89 0 0 0 .44-.39 3 3 0 0 0 .38-.49.19.19 0 0 1 .1 0zm3.74.61a4.65 4.65 0 0 0 1.39.76 3.17 3.17 0 0 1 -.46.55 4.63 4.63 0 0 1 -1.27-.71 6.49 6.49 0 0 1 -1.16-1.09s.18-.21.55-.47a4.31 4.31 0 0 0 .95.96z" fill="#231815"/><path d="m47.5.94v-.67c0-.08 0-.12.16-.12.49 0 .74 0 .74.12s0 .14-.1.15-.1.08-.1.2v.32h2.5v-.63c0-.08 0-.12.16-.12.49 0 .74 0 .74.12s0 .14-.1.15-.09.08-.09.2v.28h2.38q.12 0 .12.15v.31c0 .11 0 .16-.12.16h-2.38v.7c0 .08-.06.12-.16.12h-.39c-.11 0-.16 0-.16-.12v-.7h-2.5v.7q0 .12-.15.12h-.39c-.11 0-.16 0-.16-.12v-.7h-2.5c-.08 0-.12-.05-.12-.16v-.31q0-.15.12-.15zm1.5 2.14v-.86c0-.07 0-.11 0-.11l.71.06q.15 0 .15.09a.12.12 0 0 1 -.09.13c-.07 0-.1.09-.1.19v.5h2.54q.15 0 .15.12v2.31h1.41q.12 0 .12.15v.34c0 .11 0 .16-.12.16h-3.83a4.88 4.88 0 0 0 .55.74 3.42 3.42 0 0 0 .83.7 5.81 5.81 0 0 0 .93.52c.29.12.62.24 1 .36.18 0 .39.07.63.13.07 0 .11 0 .11.05a.22.22 0 0 1 -.1.16l-.31.37a.23.23 0 0 1 -.18.09 8.5 8.5 0 0 1 -1.53-.54 7.67 7.67 0 0 1 -1-.56 4.29 4.29 0 0 1 -.87-.8 7.06 7.06 0 0 1 -.62-.84 2.37 2.37 0 0 1 -.38.66 4.29 4.29 0 0 1 -1 .94 7.11 7.11 0 0 1 -1.8.93 4 4 0 0 1 -.89.22c-.07 0-.09 0-.11-.09s-.19-.34-.28-.48l-.08-.05s0-.06.07-.06a7.35 7.35 0 0 0 1.42-.35 4.67 4.67 0 0 0 1.18-.62 2.75 2.75 0 0 0 .88-.81 1.54 1.54 0 0 0 .37-.7h-3.71c-.08 0-.12 0-.12-.16v-.31q0-.15.12-.15h1.33v-2.27c0-.1 0-.16.14-.16zm0 2.43a5.08 5.08 0 0 0 0-.82v-1h-2v1.8zm.77-.82v.82h2v-1.8h-2z" fill="#231815"/><path d="m60.12.19c0 .09 0 .14-.1.15s-.1.08-.1.2v1.14h3.79c.08 0 .12 0 .12.11v.4q0 .15-.12.15h-1.62c-.12.43-.25.85-.38 1.25a6.83 6.83 0 0 1 -.8 1.6 9.83 9.83 0 0 1 -1 1.28h.06a6.2 6.2 0 0 0 1.6 1 10.74 10.74 0 0 0 2.29.8c.1 0 .15.07.15.11a.21.21 0 0 1 0 .12 3.06 3.06 0 0 0 -.41.4c-.05.06-.09.1-.12.1a1.1 1.1 0 0 1 -.33 0q-.66-.22-1.44-.54a11.1 11.1 0 0 1 -1.74-1c-.21-.16-.4-.31-.56-.46a7.13 7.13 0 0 1 -1 .76 9.71 9.71 0 0 1 -1.53.83c-.46.18-1 .35-1.48.5a.2.2 0 0 1 -.15-.09c-.13-.16-.25-.31-.37-.44a.24.24 0 0 1 -.06-.11s0-.08.1-.11a8.2 8.2 0 0 0 1.58-.45 10.23 10.23 0 0 0 1.28-.66 6.27 6.27 0 0 0 1-.79 3.65 3.65 0 0 1 -.27-.3 5 5 0 0 1 -1-1.58 9.83 9.83 0 0 1 -.82-2.21h-1.57c-.07 0-.11 0-.11-.15v-.4a.1.1 0 0 1 .11-.11h4.06v-1.5c0-.07 0-.11.16-.11.52 0 .78.04.78.11zm-2.22 3.51a6.89 6.89 0 0 0 .93 1.66 4.1 4.1 0 0 0 .5.58 6 6 0 0 0 1-1.26 5.67 5.67 0 0 0 .67-1.23c.14-.34.26-.71.38-1.11h-3.92a7.25 7.25 0 0 0 .44 1.36z" fill="#231815"/><path d="m66.92.32q.15.06.15.15c0 .06 0 .09-.15.11a.23.23 0 0 0 -.24.13v.07h2.62s.08 0 .08.12v.31c0 .08 0 .12-.08.12h-1.42c.18.2.36.41.52.62 0 .1 0 .15-.06.16a1.05 1.05 0 0 1 -.53.23 9.43 9.43 0 0 0 -.71-1h-.81a5 5 0 0 1 -.67.82.3.3 0 0 1 -.18.11.29.29 0 0 1 -.17-.06l-.38-.21s-.07 0-.07 0 0 0 .05-.08a7 7 0 0 0 .78-.8 4 4 0 0 0 .56-.9c0-.08.08-.13.12-.13zm1.71 2.14c.1 0 .16 0 .16.12v2.61c0 .08-.06.12-.16.12h-2.76v3.83c0 .08-.07.11-.16.11h-.39c-.1 0-.15 0-.15-.11v-6.56q0-.12.15-.12zm-.54 1.17v-.63h-2.22v.62zm0 1.13v-.58h-2.22v.58zm2.85 1.06q.15 0 .15.12v3.06q0 .12-.15.12h-.39a.11.11 0 0 1 -.12-.12v-.21h-2.26v.21c0 .08-.06.12-.16.12h-.39a.11.11 0 0 1 -.12-.12v-3.06a.11.11 0 0 1 .12-.12zm-.51 1.18v-.64h-2.26v.64zm0 1.21v-.63h-2.26v.66zm.87-7.89q.15.06.15.15c0 .06 0 .09-.15.11a.22.22 0 0 0 -.23.13v.07h2.8s.08 0 .08.12v.31c0 .08 0 .12-.08.12h-1.52a6.14 6.14 0 0 1 .54.62c0 .1 0 .15-.06.16a1 1 0 0 1 -.52.23 9.15 9.15 0 0 0 -.75-1h-.85a5 5 0 0 1 -.65.82.3.3 0 0 1 -.18.11.32.32 0 0 1 -.16-.06l-.38-.21c-.06 0-.08 0-.08 0s0 0 0-.08a4.94 4.94 0 0 0 .73-.8 3.58 3.58 0 0 0 .54-.9c0-.08.08-.13.12-.13zm2.06 2.14c.13 0 .2 0 .2.12v5.89c0 .24-.16.44-.47.58a4.6 4.6 0 0 1 -1.14.2.11.11 0 0 1 -.12-.11 2.24 2.24 0 0 0 -.23-.63s0 0 .1 0a2.86 2.86 0 0 0 1-.09.3.3 0 0 0 .17-.28v-2.83h-2.87c-.11 0-.16 0-.16-.12v-2.61c0-.08 0-.12.16-.12zm-.51 1.17v-.63h-2.3v.62zm0 1.13v-.58h-2.3v.58z" fill="#231815"/><path d="m77 1.17v1.64h1.2s.08 0 .08.12v.31c0 .11 0 .16-.08.16h-1.07a8.8 8.8 0 0 0 .36 1 5.5 5.5 0 0 0 .73 1.2.12.12 0 0 1 .06.1s0 0-.07.08a1.63 1.63 0 0 1 -.26.28.16.16 0 0 1 -.1.07s-.06 0-.1-.07a5.62 5.62 0 0 1 -.63-1.14 1.17 1.17 0 0 1 -.12-.24v4.38q0 .12-.15.12h-.35a.11.11 0 0 1 -.12-.12v-3.93c-.15.32-.28.62-.42.88a7.46 7.46 0 0 1 -.64 1.06.17.17 0 0 1 -.15-.07l-.39-.18c-.06 0-.08 0-.08 0a5.92 5.92 0 0 0 .8-1.22 6.18 6.18 0 0 0 .5-1.12q.12-.36.3-1.08h-1.3c-.06 0-.08 0-.08-.16v-.31c0-.08 0-.12.08-.12h1.37v-1.48a5.86 5.86 0 0 1 -1.17.11c-.09 0-.14 0-.16-.11s-.14-.26-.2-.36 0-.11.08-.11a6.71 6.71 0 0 0 1.54-.12 2.79 2.79 0 0 0 1.27-.54.17.17 0 0 1 .12-.05.26.26 0 0 1 .15.07 3.45 3.45 0 0 1 .35.44c0 .08 0 .12-.08.12l-.27-.04a3.54 3.54 0 0 1 -1 .43zm3.86 2.23v-.59c0-.05 0-.08.12-.08.46 0 .7 0 .7.12s0 .13-.08.13-.08.07-.08.18v.24h1.76c.13 0 .2.05.2.15v3.05h.58s.08 0 .08.12v.28c0 .11 0 .16-.08.16h-.58v1.39a.56.56 0 0 1 -.38.45 4.42 4.42 0 0 1 -.91.18.12.12 0 0 1 -.13-.12 1.68 1.68 0 0 0 -.22-.59s0 0 .07 0a2.56 2.56 0 0 0 .76-.06.27.27 0 0 0 .14-.23v-1h-3.24v1.88q0 .12-.15.12h-.42c-.08 0-.11 0-.11-.12v-1.87h-.63c-.06 0-.08-.05-.08-.16v-.31c0-.08 0-.12.08-.12h.63v-3.09a.1.1 0 0 1 .11-.11zm2.35-2.67a11.21 11.21 0 0 1 -1.21.21c-.55.08-1 .14-1.5.17s-1 .06-1.51.06c-.11 0-.17 0-.19-.12l-.24-.35c0-.08 0-.12.11-.12h.51c.58 0 1.09 0 1.52-.06a7.74 7.74 0 0 0 1.17-.12 4.84 4.84 0 0 0 1.13-.27h.1a.33.33 0 0 1 .15 0c.34.3.51.48.51.55s0 .08-.12.08l-.24-.06zm-4 .63a9.89 9.89 0 0 1 .74 1.22c0 .08 0 .13-.06.13a.89.89 0 0 1 -.48.22c-.24-.53-.47-1-.67-1.33q0-.09.39-.27a.1.1 0 0 1 .05.03zm1.65 3.64v-1h-1.29v1zm0 1.64v-1.1h-1.29v1.06zm.23-5.35a8.89 8.89 0 0 1 .59 1c0 .09 0 .14-.06.14a1 1 0 0 1 -.49.21c-.18-.46-.34-.85-.5-1.17q0-.09.39-.27a.07.07 0 0 1 .07.05zm.43 3.71h1.29v-1h-1.29zm1.29 1.6v-1.06h-1.29v1.06zm.86-5.24q.12.06.12.12a.09.09 0 0 1 -.08.09.13.13 0 0 0 -.13.1 5.67 5.67 0 0 1 -.58 1.13c0 .06-.08.09-.1.09a.29.29 0 0 1 -.15-.06 2.52 2.52 0 0 1 -.33-.14s-.07 0-.07 0v-.06a4.18 4.18 0 0 0 .4-.62 3.83 3.83 0 0 0 .29-.7c0-.06 0-.1.07-.1z" fill="#231815"/><path d="m87.65.43v.11c0 .06-.06.09-.17.09s-.26 0-.3.11q-.49.89-.93 1.59l.75.67a.83.83 0 0 0 .08-.12c.38-.53.7-1 1-1.45a4.29 4.29 0 0 1 .7.63c0 .05 0 .07-.12.07s-.25 0-.29.08c-.58.86-1.16 1.64-1.72 2.36l1.64-.11a7.6 7.6 0 0 0 -.37-.76s.17-.14.51-.31a10 10 0 0 1 .48 1 6.6 6.6 0 0 1 .3.92 2.52 2.52 0 0 1 -.58.2q-.06-.27-.18-.66l-1.15.2v3.95c0 .08-.06.12-.16.12h-.39c-.11 0-.16 0-.16-.12v-3.83l-1.31.22a1.27 1.27 0 0 1 -.28.27 4.14 4.14 0 0 1 -.19-.94 6.64 6.64 0 0 1 1-.12c.37-.46.67-.87.92-1.21-.36-.3-.63-.52-.83-.66a7.33 7.33 0 0 0 -.91-.51 2 2 0 0 1 .42-.52.1.1 0 0 1 .09-.06l.38.28c.18-.29.35-.57.51-.85l.49-1.07zm-1.56 5.66a.19.19 0 0 1 -.1.16.22.22 0 0 0 -.11.17 12.65 12.65 0 0 1 -.22 1.4c-.07.2-.12.41-.2.62 0 0 0 .07-.06.07a3.33 3.33 0 0 0 -.57-.14q-.09 0-.09-.09a6.31 6.31 0 0 0 .31-.9 7.23 7.23 0 0 0 .2-1.38.1.1 0 0 1 .11-.1c.48.1.73.1.73.19zm2.15-.19a12.11 12.11 0 0 1 .63 1.71c0 .06-.19.12-.55.16-.09 0-.13 0-.13-.07a13.45 13.45 0 0 0 -.45-1.7s.15-.09.46-.15c.02-.03.03 0 .04.05zm4.93-5.39c.1 0 .15 0 .15.11v7.62h.74c.08 0 .12 0 .12.16v.31q0 .15-.12.15h-5.35q-.12 0-.12-.15v-.31c0-.11 0-.16.12-.16h.86v-7.58c0-.1.05-.15.16-.15zm-.55 2.49v-1.87h-2.35v1.87zm0 2.57v-1.98h-2.35v2zm0 2.7v-2.1h-2.35v2.07z" fill="#231815"/><path d="m100.05.45c.07 0 .11.09.11.13s-.07.16-.2.16a.75.75 0 0 0 -.24 0 10.16 10.16 0 0 0 .89 1 5.9 5.9 0 0 0 1.22.93 7.18 7.18 0 0 0 2 .9c.1 0 .15 0 .15.08a.14.14 0 0 1 -.06.12 3.42 3.42 0 0 0 -.39.35c0 .06-.07.08-.1.08a6.66 6.66 0 0 1 -1.5-.65 7.21 7.21 0 0 1 -1.53-1.09 10.65 10.65 0 0 1 -1.16-1.26 8.79 8.79 0 0 1 -.81.87 8.48 8.48 0 0 1 -1 .86 13.05 13.05 0 0 1 -1.13.8 7 7 0 0 1 -.91.5.19.19 0 0 1 -.17-.1 1.67 1.67 0 0 0 -.34-.4c-.08 0-.11-.08-.11-.12s0 0 .06-.06a10.65 10.65 0 0 0 1.38-.55 10.52 10.52 0 0 0 1.45-1.07 6.09 6.09 0 0 0 .8-.82 7 7 0 0 0 .62-.92.3.3 0 0 1 .18-.11zm2.22 4.78q.15 0 .15.12v3.75q0 .12-.15.12h-.39c-.11 0-.16 0-.16-.12v-.47h-4.72v.47q0 .12-.15.12h-.35c-.12 0-.17 0-.17-.12v-3.71c0-.1 0-.16.17-.16zm-.55 2.77v-2.14h-4.72v2.14zm-.39-4.57q.12 0 .12.15v.32c0 .11 0 .16-.12.16h-4c-.08 0-.11 0-.11-.16v-.31c0-.1 0-.15.11-.15z" fill="#231815"/><path d="m16.25 226.28v-1.95c0-.08.05-.12.17-.12.48 0 .73 0 .73.12s0 .14-.1.15-.1.08-.1.2v1.6h.9c.08 0 .12.06.12.16v.31c0 .11 0 .16-.12.16h-.77a9.76 9.76 0 0 0 .36 1.06 5.11 5.11 0 0 0 .71 1.24.16.16 0 0 1 .05.11s0 .05-.06.08a2.3 2.3 0 0 1 -.27.28.11.11 0 0 1 -.2 0 6 6 0 0 1 -.61-1.18c0-.1-.08-.21-.11-.31v5q0 .12-.15.12h-.38c-.12 0-.17 0-.17-.12v-4c-.09.3-.19.58-.29.83a7.67 7.67 0 0 1 -.56 1.23.18.18 0 0 1 -.16-.06 4.11 4.11 0 0 1 -.42-.21c-.06 0-.08 0-.08-.05a10.25 10.25 0 0 0 .7-1.41 9.79 9.79 0 0 0 .42-1.26c.07-.28.17-.71.27-1.3h-1c-.07 0-.11 0-.11-.16v-.31c0-.1 0-.16.11-.16zm3.52 5.14a.24.24 0 0 1 .07.13s0 0-.06 0a.27.27 0 0 0 -.16.06 4.3 4.3 0 0 1 -.54.58 7 7 0 0 1 -.88.61.14.14 0 0 1 -.15-.08c-.13-.11-.24-.2-.32-.28s-.07 0-.07-.07a.05.05 0 0 1 0 0 1.63 1.63 0 0 0 .42-.2 3.79 3.79 0 0 0 .61-.5c.14-.15.31-.34.49-.57 0 0 0-.05.05-.05zm4-1.43c.05 0 .08 0 .08.11v.31c0 .11 0 .16-.08.16h-2.44v1.92c0 .49-.41.74-1.21.74h-.43c-.05 0-.07-.07-.07-.19a1.64 1.64 0 0 0 -.17-.52 3.57 3.57 0 0 0 .63.07c.36 0 .55-.12.55-.35v-1.64h-2.5c-.06 0-.08 0-.08-.16v-.31c0-.07 0-.11.08-.11zm0-5.39c.05 0 .08 0 .08.12v.28c0 .11 0 .16-.08.16h-1.77v.84h1.41q.15 0 .15.12v1.88q0 .12-.15.12h-5c-.11 0-.16 0-.16-.12v-1.91c0-.08 0-.12.16-.12h1.37v-.78h-1.58c-.05 0-.07-.05-.07-.16v-.31c0-.08 0-.12.07-.12zm-.66 4.17s.07 0 .07.12v.31c0 .11 0 .16-.07.16h-4.32c-.06 0-.08-.05-.08-.16v-.31c0-.08 0-.12.08-.12zm-3.32-2.21h-.79v1h.82zm1.56-1.37h-.9v.81h.9zm0 1.37h-.9v1h.9zm1.52 0h-.87v1h.86zm.37 5.15c.25.26.47.49.65.7l-.05.07-.3.4a8.29 8.29 0 0 0 -.87-.9 4.8 4.8 0 0 0 -.62-.47 1.67 1.67 0 0 1 .27-.41s.06-.06.08-.06a8.78 8.78 0 0 1 .86.67z" fill="#231815"/><path d="m28.36 225.85c.08 0 .12.06.12.16v.31c0 .11 0 .16-.12.16h-3.31c-.08 0-.12 0-.12-.16v-.32c0-.1 0-.16.12-.16zm-.43 4.21c.1 0 .16 0 .16.12v2.89c0 .08-.06.12-.16.12h-.39c-.11 0-.16 0-.16-.12v-.39h-1.38v.43c0 .08-.07.12-.16.12h-.44c-.11 0-.15 0-.15-.12v-2.89c0-.1 0-.16.15-.16zm0-2.8c.08 0 .12.06.12.16v.31c0 .11 0 .16-.12.16h-2.3c-.07 0-.11 0-.11-.16v-.31c0-.1 0-.16.11-.16zm0 1.36q.12 0 .12.15v.32q0 .15-.12.15h-2.3c-.07 0-.11-.05-.11-.15v-.32c0-.1 0-.15.11-.15zm0-4.13q.12 0 .12.15v.36q0 .15-.12.15h-2.3c-.08 0-.11-.05-.11-.15v-.32c0-.1 0-.15.11-.15zm-.55 7.57v-1.37h-1.38v1.37zm2.15-2a.12.12 0 0 1 -.08.12.22.22 0 0 0 -.11.17 10.34 10.34 0 0 1 -.23 1.38q-.09.3-.21.6s0 .08-.07.08a3.09 3.09 0 0 0 -.54-.14.09.09 0 0 1 -.09-.1 7.25 7.25 0 0 0 .32-.87 9.83 9.83 0 0 0 .21-1.37.09.09 0 0 1 .1-.1c.46.1.7.17.7.23zm1.41-4.4v-1.41c0-.07 0-.11.15-.11.5 0 .75 0 .75.11s0 .14-.1.15-.1.08-.1.2v1.06h2.11c.08 0 .12.06.12.16v.31q0 .15-.12.15h-2.11v1.61h1.92c.07 0 .11.05.11.15v.31c0 .11 0 .15-.11.15h-4.5c-.08 0-.11 0-.11-.15v-.35c0-.1 0-.15.11-.15h1.88v-1.61h-2.11q-.12 0-.12-.15v-.31c0-.1 0-.16.12-.16zm-.31 3.9c.07 0 .11 0 .11.07s0 .11-.07.12a.11.11 0 0 0 -.08.12v2.13c0 .29.18.43.54.43h.67c.36 0 .57 0 .65-.14a2.34 2.34 0 0 0 .32-.84 1.24 1.24 0 0 0 .41.37c.09 0 .14.08.14.14a2.62 2.62 0 0 1 -.41.94.76.76 0 0 1 -.6.19h-1.25c-.79 0-1.18-.24-1.18-.7v-2.78c0-.07 0-.11.08-.11zm1.3.21a6.41 6.41 0 0 1 .34.8 1.88 1.88 0 0 1 -.63.2 3.62 3.62 0 0 0 -.23-.68 5.36 5.36 0 0 0 -.51-.93s.17-.14.51-.31c.21.34.38.64.52.92zm1.92.93c.12.27.23.55.33.85a2.48 2.48 0 0 1 -.62.19 4 4 0 0 0 -.24-.71 6.06 6.06 0 0 0 -.51-1s.17-.14.51-.31c.22.38.39.7.53.98z" fill="#231815"/><path d="m37.64 225a7.47 7.47 0 0 1 -1.31.35v1.09h1.56c.08 0 .12.06.12.16v.31c0 .11 0 .16-.12.16h-1.56v1.28h1.6q.12 0 .12.15v.31c0 .11 0 .16-.12.16h-1.6v1.33h2.19v-2.14c0-.06 0-.08.15-.08.42 0 .63 0 .63.08s0 .13-.08.13-.08.06-.08.17v1.84h.78v-2.69h-1.21a.13.13 0 0 1 -.15-.15v-3.17c0-.05 0-.08.15-.08.42 0 .63 0 .63.08s0 .13-.08.13-.08.07-.08.19v.78h1.33c.05 0 .08 0 .08.11v.32c0 .1 0 .15-.08.15h-1.33v1h1.25c.1 0 .16 0 .16.12v3.19h1.91v-1.33h-1.5c-.08 0-.12-.05-.12-.16v-.31q0-.15.12-.15h1.5v-1.33h-1.5c-.08 0-.12-.05-.12-.16v-.31c0-.1 0-.16.12-.16h1.5v-1.25h-1.5q-.12 0-.12-.15v-.4c0-.07 0-.11.12-.11h2.07c.1 0 .15 0 .15.11v5.66h.63q.12 0 .12.15v.32q0 .15-.12.15h-8.85q-.12 0-.12-.15v-.32q0-.15.12-.15h.66v-5.62c0-.07 0-.11.12-.11l.46.18a4.15 4.15 0 0 0 .6-.14 5.06 5.06 0 0 0 .81-.34l.12-.06a2.79 2.79 0 0 1 .39.75c0 .06 0 .08-.08.08l-.28-.08zm.82 6.39c.06.05.1.09.1.12s-.07.12-.2.12a.33.33 0 0 0 -.23.06 5.45 5.45 0 0 1 -.61.59 4.27 4.27 0 0 1 -.53.41l-.61.38-.51.24a.19.19 0 0 1 -.16-.1 1.23 1.23 0 0 0 -.29-.35c-.07 0-.1-.08-.1-.1s0 0 0 0l.72-.29a5.56 5.56 0 0 0 .78-.52 2.89 2.89 0 0 0 .44-.39 3 3 0 0 0 .34-.44.19.19 0 0 1 .1-.05zm3.74.61a4.65 4.65 0 0 0 1.39.76 3.17 3.17 0 0 1 -.46.55 4.63 4.63 0 0 1 -1.27-.71 6.49 6.49 0 0 1 -1.16-1.09c0-.05.18-.21.55-.47a4.31 4.31 0 0 0 .95.96z" fill="#231815"/><path d="m47.5 225v-.67c0-.08 0-.12.16-.12.49 0 .74 0 .74.12s0 .14-.1.15-.1.08-.1.2v.32h2.5v-.63c0-.08 0-.12.16-.12.49 0 .74 0 .74.12s0 .14-.1.15-.09.08-.09.2v.28h2.38q.12 0 .12.15v.31c0 .11 0 .16-.12.16h-2.38v.7c0 .08-.06.12-.16.12h-.39c-.11 0-.16 0-.16-.12v-.7h-2.5v.7q0 .12-.15.12h-.39c-.11 0-.16 0-.16-.12v-.7h-2.5c-.08 0-.12-.05-.12-.16v-.31q0-.15.12-.15zm1.5 2.14v-.86c0-.07 0-.11 0-.11l.71.06q.15 0 .15.09a.12.12 0 0 1 -.09.13c-.07 0-.1.09-.1.19v.5h2.54q.15 0 .15.12v2.3h1.41q.12 0 .12.15v.29c0 .11 0 .16-.12.16h-3.83a4.88 4.88 0 0 0 .55.74 3.42 3.42 0 0 0 .83.7 5.81 5.81 0 0 0 .93.52c.29.12.62.24 1 .36.18 0 .39.07.63.13.07 0 .11 0 .11.05a.22.22 0 0 1 -.1.16l-.31.37a.24.24 0 0 1 -.18.1 9.32 9.32 0 0 1 -1.53-.55 7.67 7.67 0 0 1 -1-.56 4.29 4.29 0 0 1 -.86-.77 7.06 7.06 0 0 1 -.62-.84 2.37 2.37 0 0 1 -.38.66 4.29 4.29 0 0 1 -1 .94 7.11 7.11 0 0 1 -1.8.93 4 4 0 0 1 -.89.22c-.07 0-.09 0-.11-.09s-.19-.34-.28-.48l-.08-.05s0-.06.07-.06a7.35 7.35 0 0 0 1.42-.35 4.67 4.67 0 0 0 1.18-.62 2.75 2.75 0 0 0 .88-.81 1.54 1.54 0 0 0 .37-.7h-3.72c-.08 0-.12-.05-.12-.16v-.31q0-.15.12-.15h1.33v-2.24c0-.1 0-.16.14-.16zm0 2.42a5.08 5.08 0 0 0 .06-.82v-1h-2v1.79zm.77-.82v.82h2v-1.79h-2z" fill="#231815"/><path d="m60.12 224.25c0 .09 0 .14-.1.15s-.1.08-.1.2v1.14h3.79c.08 0 .12 0 .12.11v.4q0 .15-.12.15h-1.62c-.12.43-.25.85-.38 1.25a7 7 0 0 1 -.8 1.59 9.83 9.83 0 0 1 -1 1.28h.06a6.2 6.2 0 0 0 1.6 1 10.74 10.74 0 0 0 2.29.8c.1 0 .15.07.15.11a.21.21 0 0 1 0 .12 3.06 3.06 0 0 0 -.41.4c-.05.06-.09.1-.12.1a1.1 1.1 0 0 1 -.29-.11q-.66-.23-1.44-.54a11.1 11.1 0 0 1 -1.74-1c-.21-.16-.4-.31-.56-.46a7.13 7.13 0 0 1 -1 .76 9.71 9.71 0 0 1 -1.53.83c-.46.18-1 .35-1.48.5a.2.2 0 0 1 -.15-.07c-.13-.16-.25-.31-.37-.44a.24.24 0 0 1 -.06-.11s0-.08.1-.11a8.2 8.2 0 0 0 1.58-.45 10.23 10.23 0 0 0 1.28-.66 6.27 6.27 0 0 0 1-.79 3.65 3.65 0 0 1 -.27-.3 5 5 0 0 1 -1-1.58 9.73 9.73 0 0 1 -.82-2.2h-1.61c-.07 0-.11-.05-.11-.15v-.4a.1.1 0 0 1 .11-.11h4.06v-1.49c0-.07 0-.11.16-.11.52.08.78.12.78.19zm-2.22 3.51a7 7 0 0 0 .93 1.65 4.1 4.1 0 0 0 .5.58 6 6 0 0 0 1-1.26 5.6 5.6 0 0 0 .68-1.22c.14-.34.26-.71.38-1.11h-3.93a7.25 7.25 0 0 0 .44 1.36z" fill="#231815"/><path d="m67.31 225.11q-.12 0-.12-.15v-.39a.11.11 0 0 1 .12-.12h2.26a.33.33 0 0 1 .23.1 5.39 5.39 0 0 0 1.35 1.87 5.07 5.07 0 0 0 2.7 1.18c.14 0 .21.07.21.13a.15.15 0 0 1 -.06.11 3.82 3.82 0 0 0 -.35.33.19.19 0 0 1 -.17.1 8.69 8.69 0 0 1 -1-.32v.28q0 .15-.12.15h-2.59v1.62h2.54a.1.1 0 0 1 .11.11v.39c0 .11 0 .16-.11.16h-2.54v1.72h3.67a.11.11 0 0 1 .12.12v.39q0 .15-.12.15h-8.16c-.08 0-.11-.05-.11-.15v-.39c0-.08 0-.12.11-.12h3.72v-1.72h-2.6c-.09 0-.13-.05-.13-.16v-.39c0-.07 0-.11.13-.11h2.6v-1.57h-2.71q-.12 0-.12-.15v-.28a3.87 3.87 0 0 1 -.89.4s-.09 0-.13-.13l-.33-.36c-.06-.05-.08-.09-.08-.12a10.87 10.87 0 0 0 1.65-.71 7.93 7.93 0 0 0 1.37-1 9.58 9.58 0 0 0 .83-1zm4.69 2.62a5.14 5.14 0 0 1 -1.36-.83 6.6 6.6 0 0 1 -1.27-1.73 5.33 5.33 0 0 1 -.71.9 7.46 7.46 0 0 1 -1 1 7.71 7.71 0 0 1 -.93.65z" fill="#231815"/><path d="m77.5 227.34a.18.18 0 0 1 -.16.19.27.27 0 0 0 -.15.11 6.25 6.25 0 0 1 -.55.76v4.71c0 .08 0 .12-.14.12h-.41c-.09 0-.14 0-.14-.12v-4c-.23.21-.46.43-.74.67a5.33 5.33 0 0 0 -.44-.43.19.19 0 0 1 -.07-.12.15.15 0 0 1 0-.06 5.56 5.56 0 0 0 1.3-1.09 6.77 6.77 0 0 0 .81-1.2s0 0 .07 0a3.82 3.82 0 0 1 .62.46zm-.17-2.77a.23.23 0 0 1 .13.19c0 .06 0 .08-.15.08a.25.25 0 0 0 -.24.13 8.92 8.92 0 0 1 -1.67 1.9.17.17 0 0 1 -.15-.07 2 2 0 0 0 -.29-.29.16.16 0 0 1 -.07-.11.08.08 0 0 1 0-.07 2 2 0 0 0 .53-.45 4.9 4.9 0 0 0 .68-.75 6 6 0 0 0 .5-.89c0-.06.06-.1.08-.1zm2.7-.12q.09.08.09.12c0 .08-.06.11-.16.11a.23.23 0 0 0 -.2.1l-.05.08a4 4 0 0 0 .63.76 3.91 3.91 0 0 0 .91.7.16.16 0 0 1 -.07.15l-.44.36h-.06a2.43 2.43 0 0 1 -.59-.46 8.15 8.15 0 0 1 -.74-.91 1.4 1.4 0 0 1 -.13.18 4.35 4.35 0 0 1 -.45.58c-.19.2-.37.38-.55.54a2.93 2.93 0 0 1 -.45.34.16.16 0 0 1 -.14-.09 2.16 2.16 0 0 0 -.27-.33q-.09 0-.09-.09a4.3 4.3 0 0 0 .63-.42 4.34 4.34 0 0 0 .68-.72 3.1 3.1 0 0 0 .39-.55 5.16 5.16 0 0 0 .29-.62s.06-.07.09-.07zm.67 2.62q.12 0 .12.15v.31c0 .11 0 .16-.12.16h-1v1.16h1.33c.07 0 .11.06.11.16v.31c0 .11 0 .16-.11.16h-1.3v2.42c.48-.1.94-.22 1.38-.34h.06s.08 0 .08.11a2.29 2.29 0 0 1 0 .59q-1.54.36-3.12.66c-.12.18-.21.28-.28.28s-.19-.29-.39-.86c.45-.06 1-.15 1.6-.28v-2.57h-1.4c-.08 0-.12 0-.12-.16v-.33c0-.1 0-.16.12-.16h1.34v-1.16h-.89c-.08 0-.12-.05-.12-.16v-.31q0-.15.12-.15zm-2.29 3.82a5.8 5.8 0 0 1 .26.77 1.72 1.72 0 0 1 -.58.2 6.58 6.58 0 0 0 -.19-.64 6.17 6.17 0 0 0 -.4-.88s.17-.15.51-.32c.16.32.3.61.4.87zm2.79-.76c.08 0 .13.08.13.13a.09.09 0 0 1 0 .08.07.07 0 0 0 -.08.08 6.33 6.33 0 0 1 -.35 1c0 .06-.06.08-.07.08a.29.29 0 0 1 -.15-.06l-.36-.17s-.07 0-.07 0a.13.13 0 0 1 0-.06 5.71 5.71 0 0 0 .24-.54 3.25 3.25 0 0 0 .17-.61c0-.05 0-.08 0-.08zm2.8-3.13c.07 0 .11.05.11.15v.32c0 .1 0 .15-.11.15h-.75v5c0 .5-.41.75-1.21.75h-.35c-.05 0-.07-.07-.07-.19a1.88 1.88 0 0 0 -.16-.52 2 2 0 0 0 .54.08c.36 0 .55-.12.55-.35v-4.68h-1.14q-.12 0-.12-.15v-.32q0-.15.12-.15zm-.32-2.15c.08 0 .12.06.12.16v.31q0 .15-.12.15h-2.08c-.08 0-.11 0-.11-.15v-.32c0-.1 0-.16.11-.16z" fill="#231815"/><path d="m87.65 224.49v.11c0 .06-.06.09-.17.09s-.26 0-.3.11q-.49.88-.93 1.59l.75.61.08-.12c.38-.53.7-1 1-1.45a4.29 4.29 0 0 1 .7.63s0 .07-.12.07-.25 0-.29.08c-.58.86-1.16 1.64-1.72 2.35l1.64-.11c-.11-.25-.23-.5-.37-.75 0 0 .17-.14.51-.31a11 11 0 0 1 .48 1 6.6 6.6 0 0 1 .3.92 2.52 2.52 0 0 1 -.58.2q-.06-.27-.18-.66l-1.15.2v4c0 .08-.06.12-.16.12h-.39c-.11 0-.16 0-.16-.12v-3.85l-1.31.22a1.27 1.27 0 0 1 -.28.27 4.14 4.14 0 0 1 -.19-.94 6.64 6.64 0 0 1 1-.12c.37-.46.67-.86.92-1.2-.36-.3-.63-.52-.83-.66a7.33 7.33 0 0 0 -.91-.51 2 2 0 0 1 .42-.52.1.1 0 0 1 .09-.06l.38.28c.18-.29.35-.57.51-.85l.55-1.07zm-1.56 5.65a.19.19 0 0 1 -.1.16.22.22 0 0 0 -.11.17 12.65 12.65 0 0 1 -.22 1.4c-.07.2-.12.41-.2.62 0 0 0 .07-.06.07a3.33 3.33 0 0 0 -.57-.14q-.09 0-.09-.09a6.31 6.31 0 0 0 .31-.9 7.23 7.23 0 0 0 .2-1.42.1.1 0 0 1 .11-.1c.48.09.73.18.73.23zm2.15-.19a12.11 12.11 0 0 1 .63 1.71c0 .06-.19.12-.55.16-.09 0-.13 0-.13-.07a13.45 13.45 0 0 0 -.45-1.73s.15-.09.46-.15c.02 0 .03.03.04.13zm4.93-5.38c.1 0 .15 0 .15.11v7.61h.74c.08 0 .12.05.12.16v.31q0 .15-.12.15h-5.35q-.12 0-.12-.15v-.31c0-.11 0-.16.12-.16h.86v-7.57c0-.1.05-.15.16-.15zm-.55 2.43v-1.84h-2.35v1.84zm0 2.56v-1.94h-2.35v1.94zm0 2.7v-2.07h-2.35v2.07z" fill="#231815"/><path d="m100.05 224.51c.07.05.11.09.11.13s-.07.16-.2.16a.75.75 0 0 0 -.24 0 10.16 10.16 0 0 0 .89 1 5.9 5.9 0 0 0 1.22.93 7.18 7.18 0 0 0 2 .9c.1 0 .15 0 .15.08a.14.14 0 0 1 -.06.12 4.75 4.75 0 0 0 -.39.34c0 .06-.07.08-.1.08a6.68 6.68 0 0 1 -1.5-.64 7.21 7.21 0 0 1 -1.53-1.09 10.65 10.65 0 0 1 -1.16-1.26 8.79 8.79 0 0 1 -.81.87 8.48 8.48 0 0 1 -1 .86 13.05 13.05 0 0 1 -1.13.8 8.46 8.46 0 0 1 -.91.5.21.21 0 0 1 -.17-.1 1.5 1.5 0 0 0 -.34-.4c-.08 0-.11-.08-.11-.12s0 0 .06-.06a10.65 10.65 0 0 0 1.33-.61 10.52 10.52 0 0 0 1.5-1 6.09 6.09 0 0 0 .8-.82 7 7 0 0 0 .62-.92.3.3 0 0 1 .18-.11zm2.22 4.77q.15 0 .15.12v3.75q0 .12-.15.12h-.39c-.11 0-.16 0-.16-.12v-.47h-4.72v.47q0 .12-.15.12h-.35c-.12 0-.17 0-.17-.12v-3.71c0-.1 0-.16.17-.16zm-.55 2.78v-2.15h-4.72v2.15zm-.39-4.56q.12 0 .12.15v.35c0 .1 0 .16-.12.16h-4c-.08 0-.11-.06-.11-.16v-.31c0-.1 0-.15.11-.15z" fill="#231815"/><g fill="#00a19b"><path d="m440 293.17a2.2 2.2 0 0 0 1.23-.78 3 3 0 0 0 .45-1.54h-1.68v-2.85h3v2.5a6.21 6.21 0 0 1 -.17 1.39 2.9 2.9 0 0 1 -.65 1.24 3.53 3.53 0 0 1 -1.21.86 3.15 3.15 0 0 1 -1 .29z"/><path d="m343.66 278.09a6.53 6.53 0 0 1 9.43.58 5.17 5.17 0 0 1 1 2.61h-2.93a4 4 0 0 0 -.72-1.53 2.87 2.87 0 0 0 -2.31-.92 2.83 2.83 0 0 0 -2.46 1.3 6.34 6.34 0 0 0 -.9 3.66 5.56 5.56 0 0 0 .94 3.54 3 3 0 0 0 2.41 1.18 2.74 2.74 0 0 0 2.29-1 4.37 4.37 0 0 0 .72-1.63h2.87a6.25 6.25 0 0 1 -1.93 3.73 5.58 5.58 0 0 1 -4 1.44 6 6 0 0 1 -4.71-1.94 7.86 7.86 0 0 1 -1.71-5.36 7.73 7.73 0 0 1 2.01-5.66z"/><path d="m362.83 288.64a3.37 3.37 0 0 1 -2.76-1.28 6.87 6.87 0 0 1 0-7.27 3.36 3.36 0 0 1 2.76-1.27 3.31 3.31 0 0 1 2.75 1.28 7 7 0 0 1 0 7.26 3.33 3.33 0 0 1 -2.75 1.28zm6.68-4.91q0-3.83-2.11-5.75a7.24 7.24 0 0 0 -9.15 0c-1.42 1.28-2.12 3.2-2.12 5.75a7.5 7.5 0 0 0 2.12 5.75 7.27 7.27 0 0 0 9.15 0 7.53 7.53 0 0 0 2.11-5.75z"/><path d="m330.65 281.09a2.73 2.73 0 0 0 -1.61-2 3.86 3.86 0 0 0 -1.59-.31 3.45 3.45 0 0 0 -2.75 1.22 5.87 5.87 0 0 0 -1.08 3.85 4.78 4.78 0 0 0 1.17 3.66 3.8 3.8 0 0 0 2.66 1.08 3.44 3.44 0 0 0 2.39-.85 3.74 3.74 0 0 0 1.15-2.22h-3.2v-2.32h5.84v7.66h-2l-.32-1.86a6.55 6.55 0 0 1 -1.51 1.39 5.37 5.37 0 0 1 -2.84.71 5.87 5.87 0 0 1 -4.54-1.93 7.38 7.38 0 0 1 -1.85-5.31 7.82 7.82 0 0 1 1.87-5.45 6.38 6.38 0 0 1 4.95-2.06 6.49 6.49 0 0 1 4.29 1.36 5.07 5.07 0 0 1 1.85 3.38z"/><path d="m194.34 278.09a6.56 6.56 0 0 1 9.46.58 5.16 5.16 0 0 1 1 2.63h-2.94a4.17 4.17 0 0 0 -.72-1.54 2.89 2.89 0 0 0 -2.32-.92 2.84 2.84 0 0 0 -2.47 1.3 6.3 6.3 0 0 0 -.91 3.67 5.62 5.62 0 0 0 1 3.56 3 3 0 0 0 2.42 1.18 2.71 2.71 0 0 0 2.29-1 4.36 4.36 0 0 0 .73-1.63h2.94a6.37 6.37 0 0 1 -1.94 3.75 5.61 5.61 0 0 1 -4 1.44 6 6 0 0 1 -4.72-2 7.91 7.91 0 0 1 -1.72-5.37 7.77 7.77 0 0 1 1.9-5.65z"/><path d="m97.72 276.51h3v8.73a4.88 4.88 0 0 0 .35 2.13 2.88 2.88 0 0 0 4.68 0 4.91 4.91 0 0 0 .34-2.13v-8.73h3v8.73a7.29 7.29 0 0 1 -.71 3.52q-1.3 2.31-5 2.31t-5-2.31a7.3 7.3 0 0 1 -.7-3.52z"/><path d="m86.52 286.43a2.88 2.88 0 0 0 .53 1.43 3.08 3.08 0 0 0 2.47.86 5.32 5.32 0 0 0 1.7-.23 1.63 1.63 0 0 0 1.24-1.62 1.21 1.21 0 0 0 -.62-1.07 6.78 6.78 0 0 0 -1.92-.65l-1.5-.33a9.31 9.31 0 0 1 -3-1.08 3.4 3.4 0 0 1 -1.41-3 4 4 0 0 1 1.37-3.12 5.82 5.82 0 0 1 4-1.25 6.17 6.17 0 0 1 3.79 1.17 4.18 4.18 0 0 1 1.64 3.4h-2.81a2 2 0 0 0 -1.11-1.76 3.88 3.88 0 0 0 -1.72-.35 3.31 3.31 0 0 0 -1.83.45 1.44 1.44 0 0 0 -.68 1.26 1.21 1.21 0 0 0 .67 1.11 8.62 8.62 0 0 0 1.84.57l2.43.58a6.16 6.16 0 0 1 2.39 1 3.42 3.42 0 0 1 1.24 2.85 4 4 0 0 1 -1.47 3.18 6.18 6.18 0 0 1 -4.15 1.26 6.74 6.74 0 0 1 -4.31-1.24 4.12 4.12 0 0 1 -1.57-3.42z"/><path d="m265.44 288.64a3.38 3.38 0 0 1 -2.76-1.28 6.93 6.93 0 0 1 0-7.27 3.37 3.37 0 0 1 2.76-1.27 3.32 3.32 0 0 1 2.76 1.28 7 7 0 0 1 0 7.26 3.35 3.35 0 0 1 -2.76 1.28zm6.68-4.91q0-3.83-2.11-5.75a7.24 7.24 0 0 0 -9.15 0 7.39 7.39 0 0 0 -2.12 5.75 7.53 7.53 0 0 0 2.12 5.75 7.27 7.27 0 0 0 9.15 0 7.53 7.53 0 0 0 2.11-5.75z"/><path d="m62.65 276.53h10.63v2.47h-7.75v3.18h7.21v2.43h-7.21v3.88h8v2.42h-10.88z"/><path d="m79.8 289.07a1.85 1.85 0 1 0 -1.8 1.85 1.85 1.85 0 0 0 1.8-1.85z"/><path d="m112.1 276.51h3.12l5.68 10v-10h2.77v14.34h-3l-5.83-10.17v10.17h-2.74z"/><path d="m132.11 276.51h10.17v2.49h-7.18v3.29h6.3v2.47h-6.3v6.06h-3z"/><path d="m147 290.86h-3v-14.36h3z"/><path d="m149.81 276.5h3.12l5.69 10v-10h2.77v14.36h-3l-5.84-10.19v10.19h-2.77z"/><path d="m170 279.78 1.81 5.65h-3.68zm-6.8 11.08h3.14l1-3h5.28l1 3h3.25l-5.07-14.36h-3.4z"/><path d="m178.6 276.5h3.12l5.69 10v-10h2.77v14.36h-3l-5.83-10.19v10.19h-2.75z"/><path d="m210.13 290.86h-3v-14.36h3z"/><path d="m218.72 279.78 1.81 5.65h-3.67zm-6.8 11.08h3.14l1-3h5.28l1 3h3.25l-5.07-14.36h-3.4z"/><path d="m227.35 276.5h3v11.77h7.13v2.59h-10.13z"/><path d="m244.68 290.86v-14.36h3v5.5h5.55v-5.5h3v14.36h-3v-6.4h-5.55v6.4z"/><path d="m274.61 276.5h3v11.77h7.13v2.59h-10.13z"/><path d="m292.42 279a2.89 2.89 0 0 1 2.73 1.18 6.77 6.77 0 0 1 .69 3.38 7.33 7.33 0 0 1 -.46 2.75 3 3 0 0 1 -3 2.11h-2.77v-9.42zm.51-2.47h-6.18v14.36h6.18a5.18 5.18 0 0 0 4.81-2.68 9.59 9.59 0 0 0 1.15-4.85 11.32 11.32 0 0 0 -.28-2.38 6.41 6.41 0 0 0 -1-2.32 4.71 4.71 0 0 0 -2.44-1.82 7.6 7.6 0 0 0 -2.24-.34z"/><path d="m303.89 290.86h-3v-14.36h3z"/><path d="m306.69 276.5h3.12l5.69 10v-10h2.77v14.36h-3l-5.83-10.19v10.19h-2.77z"/><path d="m381.37 276.5h4.3v14.36h-2.77v-9.71c0-.28 0-.67 0-1.18s0-.89 0-1.16l-2.73 12.05h-2.93l-2.7-12.05v1.16s0 .9 0 1.18v9.71h-2.74v-14.36h4.35l2.62 11.29z"/><path d="m396.45 281.05a2.1 2.1 0 0 1 -.56 1.64 2.23 2.23 0 0 1 -1.58.52h-2.67v-4.21h2.67a2.37 2.37 0 0 1 1.58.48 2 2 0 0 1 .56 1.57zm3 0a4.33 4.33 0 0 0 -1.26-3.43 4.94 4.94 0 0 0 -3.39-1.11h-6.14v14.36h3v-5.18h3a5.44 5.44 0 0 0 3.58-1.05 4.48 4.48 0 0 0 1.2-3.64z"/><path d="m406.24 279.78 1.81 5.65h-3.67zm-6.8 11.08h3.14l1-3h5.28l1 3h3.14l-5-14.36h-3.4z"/><path d="m414.84 276.5h3.16l5.69 10v-10h2.77v14.36h-3l-5.84-10.19v10.19h-2.77z"/><path d="m437.43 276.5h3.39l-4.79 9v5.38h-3v-5.37l-5-9h3.53l3 6.25z"/><path d="m451.42 276.5h3v11.77h7.13v2.59h-10.13z"/><path d="m472.52 276.5v2.5h-4.29v11.83h-3v-11.83h-4.3v-2.5z"/><path d="m479.94 279a2.89 2.89 0 0 1 2.73 1.18 6.77 6.77 0 0 1 .69 3.38 7.33 7.33 0 0 1 -.46 2.75 3 3 0 0 1 -3 2.11h-2.77v-9.42zm.51-2.47h-6.17v14.36h6.17a5.18 5.18 0 0 0 4.81-2.68 9.49 9.49 0 0 0 1.15-4.85 11.28 11.28 0 0 0 -.27-2.38 6.61 6.61 0 0 0 -1-2.32 4.71 4.71 0 0 0 -2.44-1.82 7.6 7.6 0 0 0 -2.25-.34z"/><path d="m491 290.92h-3v-2.67h3z"/><path d="m62.65 351.32h10.78v2.45h-7.86v3.23h7.31v2.46h-7.31v3.94h8.12v2.46h-11z"/><path d="m80.05 358.59a1.88 1.88 0 1 0 -1.88 1.87 1.88 1.88 0 0 0 1.88-1.87z"/><path d="m86.93 361.31a2.88 2.88 0 0 0 .53 1.43 3.09 3.09 0 0 0 2.47.86 5.39 5.39 0 0 0 1.71-.23 1.62 1.62 0 0 0 1.24-1.62 1.18 1.18 0 0 0 -.61-1.07 6.52 6.52 0 0 0 -1.93-.66l-1.51-.33a9.22 9.22 0 0 1 -3-1.08 3.43 3.43 0 0 1 -1.41-3 4 4 0 0 1 1.37-3.13 5.82 5.82 0 0 1 4-1.24 6.15 6.15 0 0 1 3.79 1.17 4.18 4.18 0 0 1 1.65 3.41h-2.8a2 2 0 0 0 -1.11-1.82 3.89 3.89 0 0 0 -1.73-.35 3.22 3.22 0 0 0 -1.83.46 1.44 1.44 0 0 0 -.68 1.26 1.2 1.2 0 0 0 .68 1.11 8.42 8.42 0 0 0 1.84.57l2.43.59a6.15 6.15 0 0 1 2.4 1 3.45 3.45 0 0 1 1.25 2.86 4.05 4.05 0 0 1 -1.48 3.19 6.16 6.16 0 0 1 -4.2 1.31 6.8 6.8 0 0 1 -4.33-1.25 4.12 4.12 0 0 1 -1.57-3.42z"/><path d="m98.16 351.25h3v8.75a5 5 0 0 0 .34 2.16 2.91 2.91 0 0 0 4.71 0 5 5 0 0 0 .35-2.16v-8.79h3v8.79a7.39 7.39 0 0 1 -.71 3.55c-.88 1.55-2.55 2.33-5 2.33s-4.15-.78-5-2.33a7.27 7.27 0 0 1 -.71-3.55z"/><path d="m112.78 351.36h3.15l5.72 10.06v-10.06h2.8v14.46h-3l-5.87-10.26v10.26h-2.8z"/><path d="m134.48 352.94a6.65 6.65 0 0 1 9.55.6 5.13 5.13 0 0 1 1 2.63h-2.95a3.91 3.91 0 0 0 -.73-1.52 3.24 3.24 0 0 0 -4.85.37 6.24 6.24 0 0 0 -.92 3.67 5.55 5.55 0 0 0 1 3.55 3 3 0 0 0 2.45 1.17 2.75 2.75 0 0 0 2.32-1 4.41 4.41 0 0 0 .74-1.64h2.91a6.44 6.44 0 0 1 -1.95 3.77 5.71 5.71 0 0 1 -4 1.45 6 6 0 0 1 -4.77-2 7.87 7.87 0 0 1 -1.73-5.38 7.78 7.78 0 0 1 1.93-5.67z"/><path d="m154 363.55a3.38 3.38 0 0 1 -2.78-1.29 7 7 0 0 1 0-7.34 3.62 3.62 0 0 1 5.56 0 7.11 7.11 0 0 1 0 7.34 3.37 3.37 0 0 1 -2.78 1.29zm6.73-5q0-3.85-2.13-5.78a7.29 7.29 0 0 0 -9.21 0c-1.42 1.28-2.14 3.21-2.14 5.78a7.58 7.58 0 0 0 2.14 5.78 7.32 7.32 0 0 0 9.21 0 7.57 7.57 0 0 0 2.15-5.74z"/><path d="m172.84 351.35h4.33v14.47h-2.8v-9.82c0-.29 0-.68 0-1.19s0-.9 0-1.17l-2.75 12.14h-2.93l-2.69-12.1v1.17s0 .9 0 1.19v9.78h-2.8v-14.47h4.38l2.63 11.38z"/><path d="m189.51 351.35h4.32v14.47h-2.83v-9.82c0-.29 0-.68 0-1.19s0-.9 0-1.17l-2.74 12.14h-2.94l-2.72-12.14v1.17s0 .9 0 1.19v9.78h-2.8v-14.43h4.38l2.63 11.38z"/><path d="m207.15 353.88h-7.47v3.12h6.83v2.52h-6.83v3.73h7.83v2.58h-10.78v-14.47h10.42z"/><path d="m216.38 353.88a3 3 0 0 1 1.39.26 1.81 1.81 0 0 1 .83 1.76 1.61 1.61 0 0 1 -.86 1.63 3.36 3.36 0 0 1 -1.45.24h-3.29v-3.89zm.61-2.52h-6.89v14.45h2.9v-5.64h3a2.43 2.43 0 0 1 1.72.46 2.75 2.75 0 0 1 .48 1.83v1.34a6.28 6.28 0 0 0 .13 1.24c0 .2.11.46.2.77h3.32v-.36a1.2 1.2 0 0 1 -.56-.82 7.52 7.52 0 0 1 -.08-1.34v-1a4.86 4.86 0 0 0 -.41-2.26 2.74 2.74 0 0 0 -1.41-1.14 2.91 2.91 0 0 0 1.7-1.41 4.32 4.32 0 0 0 .52-2 4.09 4.09 0 0 0 -.27-1.53 4.62 4.62 0 0 0 -.72-1.21 3.56 3.56 0 0 0 -1.35-1 6.27 6.27 0 0 0 -2.27-.38z"/><path d="m225.92 352.92a6.66 6.66 0 0 1 9.58.6 5.12 5.12 0 0 1 1 2.65h-3a4.17 4.17 0 0 0 -.72-1.54 3 3 0 0 0 -2.37-.92 2.93 2.93 0 0 0 -2.51 1.3 6.33 6.33 0 0 0 -.92 3.68 5.52 5.52 0 0 0 1 3.56 3 3 0 0 0 2.46 1.18 2.79 2.79 0 0 0 2.33-1 4.58 4.58 0 0 0 .74-1.64h3a6.42 6.42 0 0 1 -2 3.78 5.7 5.7 0 0 1 -4 1.45 6 6 0 0 1 -4.78-2 9.25 9.25 0 0 1 .24-11.12z"/><path d="m241.73 365.81h-3v-14.45h3z"/><path d="m250.31 354.68 1.82 5.7h-3.7zm-6.87 11.13h3.18l1-3h5.31l1 3h3.28l-5.12-14.45h-3.43z"/><path d="m258.9 351.33h3v11.93h7.29v2.59h-10.29z"/><path d="m283.25 353.87a5.22 5.22 0 0 1 1.72.23 1.3 1.3 0 0 1 .79 1.34 1.37 1.37 0 0 1 -.6 1.28 2.9 2.9 0 0 1 -1.54.36h-3.53v-3.21zm.44 5.63a3.78 3.78 0 0 1 1.47.25 1.55 1.55 0 0 1 .93 1.55 1.83 1.83 0 0 1 -1 1.81 3.49 3.49 0 0 1 -1.48.25h-3.56v-3.86zm.53-8.17h-7v14.52h6.56a10.37 10.37 0 0 0 2.06-.14 4 4 0 0 0 1.64-.73 4 4 0 0 0 1-1.15 4.26 4.26 0 0 0 .64-2.32 3.85 3.85 0 0 0 -.56-2.13 3.09 3.09 0 0 0 -1.66-1.28 3.45 3.45 0 0 0 1.1-.84 3.31 3.31 0 0 0 .67-2.15 3.77 3.77 0 0 0 -.67-2.23 4.46 4.46 0 0 0 -3.78-1.55z"/><path d="m297.46 354.63 1.83 5.71h-3.71zm-6.87 11.18h3.18l1-3h5.31l1 3h3.28l-5.11-14.45h-3.44z"/><path d="m306.11 351.36h3.16l5.68 10v-10h2.81v14.45h-3l-5.83-10.24v10.24h-2.81z"/><path d="m320.66 351.36h3v5.89l5.56-5.89h3.91l-5.91 5.94 6.2 8.51h-3.89l-4.45-6.29-1.4 1.48v4.84h-3z"/><path d="m337 368.17a2.16 2.16 0 0 0 1.23-.79 3 3 0 0 0 .46-1.57h-1.69v-3h3v2.57a5.93 5.93 0 0 1 -.18 1.41 2.92 2.92 0 0 1 -.66 1.27 3.44 3.44 0 0 1 -1.22.86 3 3 0 0 1 -1 .29z"/><path d="m348.79 351.36h3v11.87h7.25v2.58h-10.25z"/><path d="m370.1 351.36v2.56h-4.36v11.89h-3v-11.89h-4.36v-2.56z"/><path d="m377.51 353.89a3 3 0 0 1 2.77 1.18 6.83 6.83 0 0 1 .69 3.4 7.59 7.59 0 0 1 -.46 2.76 3 3 0 0 1 -3 2.11h-2.79v-9.45zm.52-2.53h-6.24v14.45h6.21a5.18 5.18 0 0 0 4.86-2.65 9.68 9.68 0 0 0 1.16-4.9 10.87 10.87 0 0 0 -.28-2.4 6.4 6.4 0 0 0 -1-2.35 4.82 4.82 0 0 0 -2.47-1.84 7.69 7.69 0 0 0 -2.27-.31z"/><path d="m388.46 365.81h-2.94v-2.66h2.94z"/></g><path d="m0 285.89 1.52-2.05-1.34-1.84h.62l.71 1a5.55 5.55 0 0 1 .32.48 5.14 5.14 0 0 1 .31-.44l.79-1.04h.57l-1.38 1.86 1.49 2.08h-.61l-1-1.41-.17-.26-.19.3-1 1.37z" fill="#208ec5"/><path d="m0 359.87 1.52-2.05-1.34-1.88h.62l.71 1a5.37 5.37 0 0 1 .32.49 5.23 5.23 0 0 1 .31-.45l.79-1h.57l-1.38 1.85 1.49 2.08h-.61l-1-1.4-.17-.27a3.53 3.53 0 0 1 -.19.3l-1 1.37z" fill="#208ec5"/><path d="m49.66 310.63a3.4 3.4 0 0 1 .15-1.12 1.3 1.3 0 0 1 .42-.66 1.13 1.13 0 0 1 .72-.23 1.09 1.09 0 0 1 .55.13 1.06 1.06 0 0 1 .4.36 2.14 2.14 0 0 1 .24.59 4.68 4.68 0 0 1 0 2.05 1.49 1.49 0 0 1 -.43.66 1.12 1.12 0 0 1 -.71.23 1.1 1.1 0 0 1 -.9-.41 2.59 2.59 0 0 1 -.44-1.6zm.5 0a2.36 2.36 0 0 0 .23 1.29.64.64 0 0 0 1.11 0 2.4 2.4 0 0 0 .23-1.29 2.36 2.36 0 0 0 -.23-1.29.64.64 0 0 0 -.56-.32.61.61 0 0 0 -.53.28 2.46 2.46 0 0 0 -.25 1.33z" fill="#208ec5"/><path d="m53 312.57v-.57h.55v.55z" fill="#208ec5"/><path d="m54.25 311.54h.5a.9.9 0 0 0 .27.55.67.67 0 0 0 .49.19.79.79 0 0 0 .59-.26 1 1 0 0 0 .24-.7.86.86 0 0 0 -.23-.65.81.81 0 0 0 -.61-.24.79.79 0 0 0 -.71.38l-.46-.06.38-2h2v.46h-1.61l-.21 1.06a1.22 1.22 0 0 1 .74-.25 1.15 1.15 0 0 1 .87.36 1.24 1.24 0 0 1 .36.92 1.43 1.43 0 0 1 -.32.92 1.23 1.23 0 0 1 -1 .48 1.29 1.29 0 0 1 -.88-.3 1.19 1.19 0 0 1 -.41-.86z" fill="#208ec5"/><path d="m57.1 312.57 1.52-2.05-1.34-1.89h.62l.71 1a4.26 4.26 0 0 1 .32.49 4 4 0 0 1 .31-.45l.8-1.05h.56l-1.38 1.86 1.49 2.08h-.65l-1-1.4-.17-.27-.19.3-1 1.37z" fill="#208ec5"/><path d="m49.66 385.64a3.4 3.4 0 0 1 .15-1.12 1.3 1.3 0 0 1 .42-.66 1.07 1.07 0 0 1 .72-.23 1.09 1.09 0 0 1 .55.13 1.06 1.06 0 0 1 .4.36 2.14 2.14 0 0 1 .24.59 4.68 4.68 0 0 1 0 2.05 1.4 1.4 0 0 1 -.43.65 1.07 1.07 0 0 1 -.71.24 1.1 1.1 0 0 1 -.9-.41 2.59 2.59 0 0 1 -.44-1.6zm.5 0a2.4 2.4 0 0 0 .23 1.29.64.64 0 0 0 1.11 0 2.4 2.4 0 0 0 .23-1.29 2.36 2.36 0 0 0 -.23-1.29.64.64 0 0 0 -.56-.32.61.61 0 0 0 -.53.28 2.46 2.46 0 0 0 -.25 1.33z" fill="#208ec5"/><path d="m53 387.58v-.58h.55v.55z" fill="#208ec5"/><path d="m54.25 386.55h.5a.9.9 0 0 0 .27.55.67.67 0 0 0 .49.19.79.79 0 0 0 .59-.26 1 1 0 0 0 .24-.7.86.86 0 0 0 -.23-.65.81.81 0 0 0 -.61-.24.79.79 0 0 0 -.71.38l-.46-.06.38-2h2v.46h-1.61l-.21 1.06a1.22 1.22 0 0 1 .74-.25 1.15 1.15 0 0 1 .87.36 1.22 1.22 0 0 1 .36.92 1.43 1.43 0 0 1 -.32.92 1.23 1.23 0 0 1 -1 .48 1.29 1.29 0 0 1 -.88-.3 1.19 1.19 0 0 1 -.41-.86z" fill="#208ec5"/><path d="m57.1 387.58 1.52-2.05-1.34-1.89h.62l.71 1a4.26 4.26 0 0 1 .32.49 4 4 0 0 1 .31-.45l.8-1.05h.56l-1.38 1.86 1.49 2.08h-.65l-1-1.4c0-.09-.11-.17-.17-.27l-.19.3-1 1.37z" fill="#208ec5"/><path d="m274.17 312.57h-.48v-3.08a2.61 2.61 0 0 1 -.46.33 2.37 2.37 0 0 1 -.51.25v-.46a2.74 2.74 0 0 0 .71-.47 1.94 1.94 0 0 0 .43-.52h.31z" fill="#208ec5"/><path d="m277 312.57v-.94h-1.71v-.44l1.79-2.56h.4v2.56h.52v.44h-.53v.94zm0-1.38v-1.78l-1.24 1.78z" fill="#208ec5"/><path d="m278.74 312.57v-.57h.55v.55z" fill="#208ec5"/><path d="m280 311.54h.51a.89.89 0 0 0 .26.55.69.69 0 0 0 .5.19.79.79 0 0 0 .59-.26 1 1 0 0 0 .24-.7.9.9 0 0 0 -.23-.65.91.91 0 0 0 -1-.14.81.81 0 0 0 -.3.28l-.45-.06.38-2h2v.46h-1.57l-.22 1.06a1.27 1.27 0 0 1 .75-.25 1.19 1.19 0 0 1 .87.36 1.27 1.27 0 0 1 .35.92 1.42 1.42 0 0 1 -.31.92 1.24 1.24 0 0 1 -1 .48 1.29 1.29 0 0 1 -.88-.3 1.16 1.16 0 0 1 -.49-.86z" fill="#208ec5"/><path d="m282.85 312.57 1.52-2.05-1.37-1.89h.62l.71 1c.15.21.25.37.32.49a3 3 0 0 1 .31-.45l.79-1.05h.57l-1.32 1.87 1.49 2.08h-.64l-1-1.4a3.18 3.18 0 0 1 -.17-.27l-.19.3-1 1.37z" fill="#208ec5"/><path d="m491.03 303.01h-428.43v-1.53h.1v1.43h428.23v-1.43h.1z" fill="#00b2e1"/><path d="m240.57 387.58h-.49v-3.08a2.28 2.28 0 0 1 -.46.33 2.58 2.58 0 0 1 -.5.25v-.46a3.24 3.24 0 0 0 .71-.47 1.71 1.71 0 0 0 .42-.52h.32z" fill="#208ec5"/><path d="m243.22 387.58h-.49v-3.08a2.28 2.28 0 0 1 -.46.33 2.58 2.58 0 0 1 -.5.25v-.46a3 3 0 0 0 .7-.47 1.62 1.62 0 0 0 .43-.52h.32z" fill="#208ec5"/><path d="m244.28 387.58 1.49-2.12-1.38-1.95h.87l.62.95c.12.18.21.34.29.46.11-.17.21-.32.31-.45l.68-1h.84l-1.41 1.91 1.52 2.16h-.85l-.84-1.27-.22-.34-1.07 1.61z" fill="#208ec5"/><path d="m62.65 378.02h-.05v-1.53h.1v1.43h324.94v-1.43h.1v1.53z" fill="#00b2e1"/><path d="m62.7 303.01h-14.88v-1.53h.1v1.43h14.68v-1.43h.1z" fill="#00b2e1"/><path d="m82.83 162.33h-16.62v-2.65h.1v2.55h16.42v-2.55h.1z" fill="#00b2e1"/><path d="m82.83 83.32h-16.62v-2.66h.1v2.56h16.42v-2.56h.1z" fill="#00b2e1"/><path d="m62.7 378.02h-14.88v-1.53h.1v1.43h14.68v-1.43h.1z" fill="#00b2e1"/><path d="m12.9 298.58h-1.53v-29.71h1.53v.1h-1.43v29.51h1.43z" fill="#00b2e1"/><path d="m506.08 282a3.43 3.43 0 0 1 .14-1.12 1.32 1.32 0 0 1 .43-.66 1.22 1.22 0 0 1 1.26-.1 1 1 0 0 1 .4.36 2.14 2.14 0 0 1 .24.59 4.68 4.68 0 0 1 -.05 2.05 1.49 1.49 0 0 1 -.43.66 1.2 1.2 0 0 1 -1.61-.18 2.67 2.67 0 0 1 -.38-1.6zm.49 0a2.45 2.45 0 0 0 .23 1.29.65.65 0 0 0 1.12 0 2.53 2.53 0 0 0 .22-1.29 2.48 2.48 0 0 0 -.22-1.29.66.66 0 0 0 -.57-.32.61.61 0 0 0 -.53.28 2.46 2.46 0 0 0 -.25 1.33z" fill="#208ec5"/><path d="m509.4 284v-.55h.6v.55z" fill="#208ec5"/><path d="m510.66 282.92h.51a.89.89 0 0 0 .26.55.69.69 0 0 0 .5.19.8.8 0 0 0 .59-.26 1 1 0 0 0 .24-.7.9.9 0 0 0 -.23-.65.91.91 0 0 0 -1-.14.81.81 0 0 0 -.3.28l-.45-.06.38-2h2v.46h-1.57l-.21 1.06a1.27 1.27 0 0 1 .75-.25 1.19 1.19 0 0 1 .87.36 1.27 1.27 0 0 1 .35.92 1.42 1.42 0 0 1 -.31.92 1.24 1.24 0 0 1 -1 .48 1.29 1.29 0 0 1 -.88-.3 1.16 1.16 0 0 1 -.5-.86z" fill="#208ec5"/><path d="m513.51 284 1.49-2.1-1.31-1.9h.62l.72 1c.15.21.25.37.32.49a3 3 0 0 1 .31-.45l.79-1.05h.55l-1.39 1.86 1.49 2.08h-.64l-1-1.4a3.18 3.18 0 0 1 -.17-.27l-.19.3-1 1.37z" fill="#208ec5"/><path d="m497.75 289.4h-1.54v-.1h1.44v-14.32h-1.44v-.1h1.54z" fill="#00b2e1"/><path d="m12.9 373.44h-1.53v-29.71h1.53v.1h-1.43v29.52h1.43z" fill="#00b2e1"/><path d="m402.91 356.8a3.4 3.4 0 0 1 .15-1.12 1.3 1.3 0 0 1 .42-.66 1.13 1.13 0 0 1 .72-.23 1.09 1.09 0 0 1 .55.13 1.06 1.06 0 0 1 .4.36 2.14 2.14 0 0 1 .24.59 4.68 4.68 0 0 1 -.05 2.05 1.49 1.49 0 0 1 -.43.66 1.12 1.12 0 0 1 -.71.23 1.1 1.1 0 0 1 -.9-.41 2.59 2.59 0 0 1 -.39-1.6zm.5 0a2.36 2.36 0 0 0 .23 1.29.64.64 0 0 0 1.11 0 2.4 2.4 0 0 0 .23-1.29 2.36 2.36 0 0 0 -.23-1.29.67.67 0 0 0 -.56-.32.61.61 0 0 0 -.53.28 2.46 2.46 0 0 0 -.25 1.33z" fill="#208ec5"/><path d="m406.24 358.74v-.55h.55v.55z" fill="#208ec5"/><path d="m407.5 357.71h.5a.9.9 0 0 0 .27.55.67.67 0 0 0 .49.19.77.77 0 0 0 .59-.26 1 1 0 0 0 .24-.7.86.86 0 0 0 -.23-.65.81.81 0 0 0 -.61-.24.79.79 0 0 0 -.71.38l-.46-.06.38-2h2v.46h-1.57l-.21 1.06a1.24 1.24 0 0 1 .74-.25 1.15 1.15 0 0 1 .87.36 1.24 1.24 0 0 1 .36.92 1.48 1.48 0 0 1 -.31.92 1.26 1.26 0 0 1 -1 .48 1.24 1.24 0 0 1 -.87-.3 1.16 1.16 0 0 1 -.47-.86z" fill="#208ec5"/><path d="m410.35 358.74 1.52-2.05-1.34-1.88h.62l.72 1c.14.21.25.38.31.49a4 4 0 0 1 .31-.45l.8-1h.56l-1.38 1.85 1.49 2.08h-.64l-1-1.4-.17-.27a2.81 2.81 0 0 1 -.19.3l-1 1.37z" fill="#208ec5"/><path d="m394.14 364.23h-1.54v-.1h1.44v-14.36h-1.44v-.1h1.54z" fill="#00b2e1"/><path d="m17.56 77.04v-.05l-.05-35.7h2.67v.1h-2.57l.05 35.55h2.57v.09z" fill="#00b2e1"/><path d="m224.35 67.12v-.1h2.57l-.02-15.7h-2.57v-.1h2.67v.05l.02 15.85z" fill="#00b2e1"/><path d="m82.73 83.32-.01-2.67h.1l.01 2.57 133.56-.18v-2.57h.1v2.67h-.05z" fill="#00b2e1"/><path d="m235.25 162.33h-152.52v-2.67h.1v2.57h152.32v-2.57h.1z" fill="#00b2e1"/><path d="m4.35 60.94 1.7-2.3-1.5-2.1h.69l.76 1.12c.17.24.28.42.35.54.1-.16.22-.32.35-.5l.88-1.17h.64l-1.51 2.08 1.67 2.32h-.72l-1.11-1.57-.19-.29-.21.33-1.1 1.54z" fill="#208ec5"/><path d="m17.56 160.2v-.05l-.05-35.7h2.67v.1h-2.57l.05 35.55h2.57v.1z" fill="#00b2e1"/><path d="m4.35 143.66 1.7-2.29-1.5-2.11h.69l.8 1.13a4.56 4.56 0 0 1 .35.54c.1-.16.22-.33.35-.5l.88-1.17h.64l-1.55 2.07 1.67 2.33h-.72l-1.11-1.57-.19-.29-.21.33-1.1 1.53z" fill="#208ec5"/><path d="m67.77 96a4 4 0 0 1 .16-1.26 1.61 1.61 0 0 1 .48-.73 1.21 1.21 0 0 1 .79-.26 1.32 1.32 0 0 1 .62.14 1.36 1.36 0 0 1 .45.41 2.52 2.52 0 0 1 .27.66 4.14 4.14 0 0 1 .1 1 4.27 4.27 0 0 1 -.16 1.25 1.61 1.61 0 0 1 -.48.79 1.17 1.17 0 0 1 -.8.26 1.2 1.2 0 0 1 -1-.45 2.86 2.86 0 0 1 -.43-1.81zm.55 0a2.73 2.73 0 0 0 .26 1.44.72.72 0 0 0 1.25 0 4.3 4.3 0 0 0 0-2.89.77.77 0 0 0 -.63-.35.7.7 0 0 0 -.6.31 2.88 2.88 0 0 0 -.28 1.49z" fill="#208ec5"/><path d="m71.49 98.14v-.62h.62v.62z" fill="#208ec5"/><path d="m72.89 97h.57a1 1 0 0 0 .29.62.81.81 0 0 0 .56.21.85.85 0 0 0 .66-.3 1.09 1.09 0 0 0 .27-.78 1 1 0 0 0 -.24-.75.94.94 0 0 0 -.68-.26.91.91 0 0 0 -.47.12 1 1 0 0 0 -.33.3l-.52-.1.43-2.26h2.17v.51h-1.75l-.24 1.19a1.41 1.41 0 0 1 .83-.28 1.28 1.28 0 0 1 1 .4 1.39 1.39 0 0 1 .4 1 1.57 1.57 0 0 1 -.35 1 1.41 1.41 0 0 1 -1.15.53 1.43 1.43 0 0 1 -1-.33 1.34 1.34 0 0 1 -.45-.82z" fill="#208ec5"/><path d="m76.08 98.14 1.71-2.29-1.5-2.11h.71l.8 1.13a6.38 6.38 0 0 1 .35.54 4.59 4.59 0 0 1 .35-.5l.88-1.17h.62l-1.55 2.07 1.67 2.33h-.72l-1.11-1.57c-.06-.09-.13-.19-.19-.3l-.21.33-1.11 1.54z" fill="#208ec5"/><path d="m233.6 59a4 4 0 0 1 .15-1.25 1.56 1.56 0 0 1 .48-.73 1.19 1.19 0 0 1 .8-.26 1.26 1.26 0 0 1 .62.14 1.15 1.15 0 0 1 .44.41 2 2 0 0 1 .27.65 5.36 5.36 0 0 1 -.05 2.29 1.65 1.65 0 0 1 -.48.74 1.34 1.34 0 0 1 -1.8-.2 2.89 2.89 0 0 1 -.43-1.79zm.55 0a2.75 2.75 0 0 0 .26 1.45.73.73 0 0 0 .62.35.75.75 0 0 0 .63-.36 4.19 4.19 0 0 0 0-2.88.75.75 0 0 0 -.63-.36.69.69 0 0 0 -.59.32 2.74 2.74 0 0 0 -.29 1.48z" fill="#208ec5"/><path d="m237.32 61.19v-.62h.61v.62z" fill="#208ec5"/><path d="m238.72 60h.57a1 1 0 0 0 .29.62.81.81 0 0 0 .56.21.85.85 0 0 0 .66-.3 1.09 1.09 0 0 0 .27-.78 1 1 0 0 0 -.27-.73.93.93 0 0 0 -.68-.26.94.94 0 0 0 -.47.12.87.87 0 0 0 -.33.3l-.5-.06.42-2.26h2.19v.51h-1.76l-.23 1.19a1.38 1.38 0 0 1 .83-.28 1.3 1.3 0 0 1 1 .4 1.36 1.36 0 0 1 .4 1 1.63 1.63 0 0 1 -.35 1 1.41 1.41 0 0 1 -1.15.53 1.43 1.43 0 0 1 -1-.33 1.32 1.32 0 0 1 -.45-.88z" fill="#208ec5"/><path d="m241.91 61.18 1.7-2.29-1.5-2.1h.69l.8 1.13q.26.36.36.54a4.44 4.44 0 0 1 .34-.5l.89-1.17h.63l-1.54 2.08 1.72 2.31h-.72l-1.11-1.57c-.07-.09-.13-.18-.2-.29a2.46 2.46 0 0 1 -.21.33l-1.1 1.53z" fill="#208ec5"/><path d="m241.38 150.6v-.1h2.57l-.02-15.84-2.57.01v-.1l2.67-.01v.05l.02 15.99z" fill="#00b2e1"/><path d="m250.63 142.43a3.65 3.65 0 0 1 .16-1.25 1.55 1.55 0 0 1 .47-.74 1.3 1.3 0 0 1 .8-.26 1.26 1.26 0 0 1 .62.15 1.15 1.15 0 0 1 .44.41 1.93 1.93 0 0 1 .27.65 4.65 4.65 0 0 1 .11 1 4.22 4.22 0 0 1 -.16 1.25 1.65 1.65 0 0 1 -.48.74 1.34 1.34 0 0 1 -1.8-.2 2.89 2.89 0 0 1 -.43-1.75zm.55 0a2.75 2.75 0 0 0 .26 1.45.73.73 0 0 0 1.25 0 4.19 4.19 0 0 0 0-2.88.75.75 0 0 0 -.63-.36.69.69 0 0 0 -.59.32 2.74 2.74 0 0 0 -.29 1.47z" fill="#208ec5"/><path d="m254.35 144.6v-.6h.65v.62z" fill="#208ec5"/><path d="m255.75 143.45h.57a1 1 0 0 0 .29.62.81.81 0 0 0 .56.21.85.85 0 0 0 .66-.3 1.1 1.1 0 0 0 .27-.78 1 1 0 0 0 -.27-.73.89.89 0 0 0 -.68-.26 1 1 0 0 0 -.47.11 1 1 0 0 0 -.33.31l-.5-.06.42-2.26h2.19v.52h-1.76l-.23 1.19a1.38 1.38 0 0 1 .83-.28 1.3 1.3 0 0 1 1 .4 1.35 1.35 0 0 1 .4 1 1.6 1.6 0 0 1 -.35 1 1.37 1.37 0 0 1 -1.15.54 1.43 1.43 0 0 1 -1-.33 1.34 1.34 0 0 1 -.45-.9z" fill="#208ec5"/><path d="m258.94 144.59 1.7-2.29-1.5-2.11h.69l.8 1.13a4.94 4.94 0 0 1 .36.54 4.44 4.44 0 0 1 .34-.5l.89-1.17h.63l-1.54 2.07 1.67 2.33h-.72l-1.11-1.59c-.07-.09-.13-.19-.2-.29-.09.16-.16.27-.2.33l-1.11 1.53z" fill="#208ec5"/><path d="m141.59 97 .54-.08a1.2 1.2 0 0 0 .32.67.8.8 0 0 0 .54.2.88.88 0 0 0 .65-.27.89.89 0 0 0 .26-.65.82.82 0 0 0 -.24-.61.87.87 0 0 0 -.66-.26 1.63 1.63 0 0 0 -.38.07l.06-.48h.08a1.16 1.16 0 0 0 .63-.18.63.63 0 0 0 .27-.56.66.66 0 0 0 -.2-.49.72.72 0 0 0 -.52-.2.73.73 0 0 0 -.52.2 1 1 0 0 0 -.27.6l-.54-.1a1.33 1.33 0 0 1 .45-.84 1.28 1.28 0 0 1 .87-.3 1.45 1.45 0 0 1 .66.15 1.22 1.22 0 0 1 .47.43 1.1 1.1 0 0 1 .16.56.87.87 0 0 1 -.16.52 1 1 0 0 1 -.45.37 1.05 1.05 0 0 1 .61.38 1.15 1.15 0 0 1 .21.71 1.28 1.28 0 0 1 -.42 1 1.46 1.46 0 0 1 -1.06.41 1.37 1.37 0 0 1 -1-.35 1.34 1.34 0 0 1 -.36-.9z" fill="#208ec5"/><path d="m145.31 98.14v-.62h.61v.62z" fill="#208ec5"/><path d="m147.54 95.75a1 1 0 0 1 -.49-.35.9.9 0 0 1 -.17-.55 1.06 1.06 0 0 1 .35-.8 1.44 1.44 0 0 1 1.85 0 1.08 1.08 0 0 1 .35.81 1 1 0 0 1 -.16.53 1 1 0 0 1 -.49.35 1.22 1.22 0 0 1 .62.43 1.16 1.16 0 0 1 .21.7 1.29 1.29 0 0 1 -.4 1 1.49 1.49 0 0 1 -1.05.38 1.45 1.45 0 0 1 -1-.38 1.28 1.28 0 0 1 -.4-1 1.11 1.11 0 0 1 .22-.71 1 1 0 0 1 .56-.41zm-.28 1.12a1 1 0 0 0 .11.44.77.77 0 0 0 .33.34.93.93 0 0 0 .46.12.89.89 0 1 0 -.65-1.53.89.89 0 0 0 -.25.63zm.18-2a.69.69 0 0 0 .2.51.71.71 0 0 0 .52.19.69.69 0 0 0 .51-.19.66.66 0 0 0 .2-.48.69.69 0 0 0 -.2-.5.7.7 0 0 0 -.52-.21.73.73 0 0 0 -.51.2.62.62 0 0 0 -.2.45z" fill="#208ec5"/><path d="m149.9 98.14 1.71-2.29-1.5-2.11h.69l.8 1.13a6.38 6.38 0 0 1 .35.54 4.59 4.59 0 0 1 .35-.5l.88-1.17h.64l-1.55 2.07 1.67 2.33h-.72l-1.11-1.57c-.06-.09-.13-.19-.19-.3l-.21.33-1.11 1.54z" fill="#208ec5"/><path d="m67.74 173.45a4.17 4.17 0 0 1 .16-1.25 1.65 1.65 0 0 1 .48-.74 1.23 1.23 0 0 1 .8-.25 1.26 1.26 0 0 1 .62.14 1.15 1.15 0 0 1 .44.41 2 2 0 0 1 .27.65 4.19 4.19 0 0 1 .1 1 3.87 3.87 0 0 1 -.16 1.25 1.55 1.55 0 0 1 -.47.74 1.24 1.24 0 0 1 -.8.26 1.21 1.21 0 0 1 -1-.46 2.88 2.88 0 0 1 -.44-1.75zm.56 0a2.73 2.73 0 0 0 .25 1.44.75.75 0 0 0 .63.36.74.74 0 0 0 .62-.36 4.12 4.12 0 0 0 0-2.88.75.75 0 0 0 -.63-.36.69.69 0 0 0 -.59.32 2.74 2.74 0 0 0 -.28 1.48z" fill="#208ec5"/><path d="m71.46 175.62v-.62h.62v.61z" fill="#208ec5"/><path d="m72.87 174.47.57-.05a1 1 0 0 0 .29.62.79.79 0 0 0 .55.21.84.84 0 0 0 .66-.29 1.12 1.12 0 0 0 .27-.78 1 1 0 0 0 -.26-.73.9.9 0 0 0 -.68-.27.94.94 0 0 0 -.47.12.9.9 0 0 0 -.33.31l-.51-.07.43-2.26h2.19v.52h-1.76l-.23 1.2a1.44 1.44 0 0 1 .83-.27 1.34 1.34 0 0 1 1 .39 1.43 1.43 0 0 1 .4 1 1.6 1.6 0 0 1 -.35 1 1.39 1.39 0 0 1 -1.16.54 1.44 1.44 0 0 1 -1-.34 1.29 1.29 0 0 1 -.44-.85z" fill="#208ec5"/><path d="m76.06 175.62 1.7-2.29-1.5-2.11h.74l.8 1.13c.17.24.28.42.35.54.1-.16.22-.33.35-.5l.89-1.17h.61l-1.54 2.08 1.66 2.32h-.72l-1.11-1.57-.19-.29-.21.33-1.1 1.53z" fill="#208ec5"/><path d="m155.83 175.62v-1.05h-1.91v-.5l2-2.85h.44v2.85h.6v.5h-.6v1.05zm0-1.55v-2l-1.38 2z" fill="#208ec5"/><path d="m157.82 175.62v-.62h.62v.61z" fill="#208ec5"/><path d="m162.06 175.1v.52h-2.9a.78.78 0 0 1 .06-.37 1.91 1.91 0 0 1 .35-.59 6 6 0 0 1 .71-.66 6.28 6.28 0 0 0 1-.94 1.09 1.09 0 0 0 .25-.65.7.7 0 0 0 -.23-.54.85.85 0 0 0 -.6-.22.83.83 0 0 0 -.62.24.84.84 0 0 0 -.24.64l-.55-.05a1.37 1.37 0 0 1 .43-.95 1.43 1.43 0 0 1 1-.32 1.37 1.37 0 0 1 1 .35 1.16 1.16 0 0 1 .37.87 1.39 1.39 0 0 1 -.11.52 1.91 1.91 0 0 1 -.36.53 8.65 8.65 0 0 1 -.83.78c-.33.27-.53.45-.63.55a1.85 1.85 0 0 0 -.22.29z" fill="#208ec5"/><path d="m162.42 175.62 1.7-2.29-1.5-2.11h.69l.8 1.13c.16.24.28.42.35.54a4.59 4.59 0 0 1 .35-.5l.88-1.17h.64l-1.55 2.08 1.67 2.32h-.72l-1.11-1.57c-.06-.09-.13-.18-.19-.29l-.21.33-1.11 1.53z" fill="#208ec5"/><path d="m46.88 278.28a14.87 14.87 0 0 1 -18.58 19.51 14.87 14.87 0 0 1 -2.3-27.15 14.88 14.88 0 0 1 20.92 7.64z" fill="#00a19b"/><path d="m32.59 276c.5-.15 1.15-.54 1.65-.15.35.55 1.33.73 1.06 1.49a10.35 10.35 0 0 0 1.7 1.82c.15 0 .21-.06.27-.15l-.18-.09c.21-.19.71.12 1-.07a.81.81 0 0 1 .65.28 6.29 6.29 0 0 0 .38.79l.12-.06a7.51 7.51 0 0 0 .38.75c1.07.37 1.57 1.67 2.51 2.22a14.29 14.29 0 0 0 3.71 2c-.05.18.15.18.24.24a.85.85 0 0 0 -.59-.12c.18.28.62.15.71.46h-.47c0 .09.11.09.17.12-.23-.09-.47.09-.62-.21a19.56 19.56 0 0 1 -2.67-1.32 11.23 11.23 0 0 0 2.39 1.45c.27.15.65.24.8.51-.09 0-.24 0-.27.15l-.2-.12c-.06 0 0 .09 0 .12l.15.13a12.06 12.06 0 0 1 -3-1.59c-.45-.31-.89-.55-1.33-.88-.06 0-.15 0-.18.06.5.39 1 .63 1.54 1a8.39 8.39 0 0 1 -2.75-2c-.32-.34-.79-1-1.35-.91-.21.12-.53.09-.77.21s-.32-.21-.5-.06c-.15.33-.62.06-.71.42-.29.13-.82 0-.91.4v.15c-.59.27-1.39.18-1.8.76-.12.12-.35 0-.47.12 0-.06 0-.12-.09-.12s-.24.09-.35.12c-.09-.15.11-.18.08-.27-.26-.13-.38.24-.59.36 0-.24.3-.27.39-.49-.15-.09-.27.07-.39.1.06 0 .18-.25 0-.25.15-.24.48-.15.56-.42h-.23l.71-.58c-.09 0-.27-.24-.42 0 0 0 .06-.06 0-.09s-.26.09-.41.09 0-.09-.06-.12h-.09c.09-.06.21-.21.33-.3l-.06-.06a12.23 12.23 0 0 1 1.33-.79l.04-.1a.3.3 0 0 0 -.47 0c.39 0 0-.46.41-.52a1.27 1.27 0 0 1 .59-.73c-.38-.36-.53-1-1-1.24 0-.27-.29 0-.32-.27-.53 0-1.15.24-1.51-.25a2.17 2.17 0 0 0 -.88 0 2.8 2.8 0 0 0 -.47.76 2.65 2.65 0 0 0 -.53.76 2.37 2.37 0 0 1 -1.06 1v-.06c-.33.46-1 .27-1.45.76v-.12a.24.24 0 0 0 -.29.18v.06c-.21-.06-.36.18-.45.3-.5.55-1.32.55-1.85 1-.06 0 0 0 0 0-1 .22-1.45 1-2.1 1.7a4 4 0 0 1 -.7.73c.06.24-.3.33-.42.46.12-.22.39-.4.42-.64-.24.12-.3.39-.56.51-.15-.12.14-.21.05-.33l-.35.27.33-.45c-.18 0-.36.33-.56.36s-.15.09-.27.09a6.77 6.77 0 0 0 .5-.48c-.21-.12-.44.15-.59.12s0-.18-.18-.12a.92.92 0 0 0 .36-.4c-.12 0-.27.06-.39.12 0-.15.33-.24.24-.48-.38-.06-.32.33-.65.42.33-.45.8-.72 1.12-1.21a8.64 8.64 0 0 1 2.15-1.58c.62-.36 1.45-.54 1.89-1.15a3.73 3.73 0 0 0 .47-.7c.09 0 .12-.06.15-.12a2.75 2.75 0 0 1 1.45-.45c.23-.25.67-.09.85-.43.62-.76.86-1.7 1.39-2.45.17-.25.38-.64.73-.73a14.41 14.41 0 0 1 2.54.31z" fill="#fff"/><path d="m33 281.28c-.15.12-.44.22-.47.4-.27 0-.45.25-.66.25 0-.25.39-.09.42-.34l.24-.19v.1c.09-.1.38 0 .29-.28z" fill="#fff"/><path d="m32.09 281.47a.46.46 0 0 1 -.33.24c.06-.15.18-.15.33-.24z" fill="#fff"/><path d="m32.54 282.21c0 .06-.06.06-.09.12h-.09c0-.09.06-.12.12-.15s.03.03.06.03z" fill="#fff"/><path d="m46.88 353.14a14.88 14.88 0 0 1 -18.58 19.52 14.88 14.88 0 0 1 -2.3-27.16 14.9 14.9 0 0 1 20.92 7.64z" fill="#00a19b"/><path d="m32.59 350.83c.5-.15 1.15-.54 1.65-.15.35.55 1.33.73 1.06 1.49a10 10 0 0 0 1.7 1.83c.15 0 .21-.06.27-.15l-.18-.09c.21-.19.71.12 1-.06a.8.8 0 0 1 .65.27 6.29 6.29 0 0 0 .38.79l.12-.06c.15.27.21.51.38.76 1.07.36 1.57 1.66 2.51 2.21a14.29 14.29 0 0 0 3.71 2c-.05.18.15.18.24.25a.81.81 0 0 0 -.59-.13c.18.28.62.16.71.46h-.47c0 .09.11.09.17.12-.23-.09-.47.09-.62-.21a19.56 19.56 0 0 1 -2.71-1.35 11.23 11.23 0 0 0 2.43 1.5c.27.15.65.24.8.51-.09 0-.24 0-.27.16l-.2-.13c-.06 0 0 .1 0 .13l.15.12a11.74 11.74 0 0 1 -3-1.59c-.45-.31-.89-.55-1.33-.88-.06 0-.15 0-.18.06.5.39 1 .64 1.54 1a8.25 8.25 0 0 1 -2.75-2c-.32-.34-.79-1-1.35-.91-.21.12-.53.09-.77.21s-.32-.21-.5-.06c-.15.33-.62.06-.71.42-.29.13-.82 0-.91.4v.15c-.59.27-1.39.18-1.8.76-.12.12-.35 0-.47.12 0-.06 0-.12-.09-.12s-.24.09-.35.12c-.09-.15.11-.18.08-.27-.26-.12-.38.24-.59.36 0-.24.3-.27.39-.48-.15-.09-.27.06-.39.09.06 0 .18-.25 0-.25.15-.24.48-.15.56-.42h-.23c.23-.18.5-.39.71-.58-.09 0-.27-.24-.42 0 0 0 .06-.06 0-.09s-.26.09-.41.09 0-.09-.06-.12h-.09c.09-.06.21-.21.33-.3l-.06-.06a12.23 12.23 0 0 1 1.33-.79l.08-.09a.3.3 0 0 0 -.47 0c.39 0 0-.46.41-.52a1.22 1.22 0 0 1 .59-.72c-.38-.37-.53-1-1-1.25 0-.27-.29 0-.32-.27-.53 0-1.15.24-1.51-.24a2 2 0 0 0 -.88 0 2.61 2.61 0 0 0 -.47.75 2.79 2.79 0 0 0 -.53.76 2.37 2.37 0 0 1 -1.06 1v-.06c-.33.46-1 .28-1.45.76v-.12a.24.24 0 0 0 -.35.04v.06c-.21-.06-.36.18-.45.3-.5.55-1.32.55-1.85 1-.06 0 0 0 0 0-1 .21-1.45 1-2.1 1.69a3.73 3.73 0 0 1 -.7.73c.06.24-.3.33-.42.46.12-.22.39-.4.42-.64-.24.12-.3.39-.56.51-.15-.12.14-.21.05-.33l-.35.27.33-.45c-.18 0-.36.33-.56.36s-.15.09-.27.09a6.77 6.77 0 0 0 .5-.48c-.21-.12-.44.15-.59.12s0-.18-.18-.12c.15-.12.3-.21.36-.4a.61.61 0 0 0 -.39.13c0-.16.33-.25.24-.49-.38-.06-.32.33-.65.42.33-.45.8-.72 1.12-1.21a8.64 8.64 0 0 1 2.15-1.58c.62-.36 1.45-.54 1.89-1.15a3.73 3.73 0 0 0 .47-.7c.09 0 .12-.06.15-.12a2.75 2.75 0 0 1 1.45-.45c.23-.24.67-.09.85-.43.62-.75.86-1.69 1.39-2.45.17-.25.38-.64.73-.73a14.41 14.41 0 0 1 2.56.42z" fill="#fff"/><path d="m33 356.14c-.15.13-.44.22-.47.4-.27 0-.45.25-.66.25 0-.25.39-.09.42-.34l.24-.18v.09c.09-.09.38 0 .29-.28z" fill="#fff"/><path d="m32.09 356.33a.51.51 0 0 1 -.33.25c.06-.16.18-.16.33-.25z" fill="#fff"/><path d="m32.54 357.07c0 .06-.06.06-.09.12h-.09c0-.09.06-.12.12-.15s.03.03.06.03z" fill="#fff"/><path d="m82.86 51.26h11.71v2.67h-8.57v3.51h8v2.67h-8v4.29h8.83v2.66h-12z" fill="#00a19b"/><path d="m108.7 61.64a3.22 3.22 0 0 0 3.44 3c2.23 0 3.11-1.16 3.11-2.18 0-1.32-1.1-1.6-4-2.31-1.56-.4-5-1.26-5-4.74 0-1.73 1.13-4.41 5.76-4.41 3.09 0 5.91 1.2 6 4.78l-3.19.13c-.14-.82-.37-2.3-2.89-2.3-1 0-2.67.29-2.67 1.57 0 1 1 1.46 3.53 2.05s5.67 1.35 5.67 5.23a4.66 4.66 0 0 1 -2.58 4.16 9.08 9.08 0 0 1 -3.73.7c-1.7 0-5.89-.15-6.51-5.41z" fill="#00a19b"/><path d="m127.28 51.26v8.55c0 1.87 0 2.64.4 3.4a3 3 0 0 0 2.8 1.38c3 0 3-1.92 3-4.61v-8.72h3.18v8.3c0 2.83-.11 4.39-.88 5.59-1.22 1.87-3.49 2.18-5.25 2.18-6.47 0-6.47-4-6.47-7.63v-8.44z" fill="#00a19b"/><path d="m143.21 51.26h3.09l6.42 10.56v-10.56h3v15.8h-3.19l-6.32-10.3h-.05v10.3h-2.95z" fill="#00a19b"/><path d="m168.42 51.26h10.83v2.67h-7.65v3.76h6.62v2.66h-6.62v6.71h-3.18z" fill="#00a19b"/><path d="m184.61 51.26h3.18v6.23h6.21v-6.23h3.18v15.8h-3.18v-6.9h-6.25v6.9h-3.18z" fill="#00a19b"/><path d="m216.44 62.23a6.24 6.24 0 0 1 -6.55 5.1c-4.29 0-7.21-3.12-7.21-8 0-4.38 2.23-8.28 7.38-8.28a6.74 6.74 0 0 1 4.83 1.8 6 6 0 0 1 1.5 2.83l-3.15.74a3.26 3.26 0 0 0 -3.34-2.65c-3.93 0-3.93 4.33-3.93 5.34a7.56 7.56 0 0 0 .84 4 3.56 3.56 0 0 0 3.05 1.54c2.11 0 3.09-1.61 3.49-3.33z" fill="#00a19b"/><path d="m101.74 65a2 2 0 1 0 -2 2 2 2 0 0 0 2-2z" fill="#00a19b"/><path d="m82.86 134.15h11.72v2.67h-8.58v3.51h8v2.67h-8v4.29h8.83v2.71h-12z" fill="#00a19b"/><path d="m108.71 144.53a3.24 3.24 0 0 0 3.45 3c2.23 0 3.12-1.17 3.12-2.18 0-1.33-1.11-1.61-4-2.32-1.56-.4-5-1.26-5-4.74 0-1.73 1.12-4.42 5.76-4.42 3.09 0 5.92 1.21 6.05 4.79l-3.2.13c-.13-.82-.37-2.3-2.89-2.3-1 0-2.67.29-2.67 1.57 0 1 1 1.46 3.53 2.06s5.68 1.34 5.68 5.23a4.65 4.65 0 0 1 -2.59 4.15 9.12 9.12 0 0 1 -3.73.71c-1.7 0-5.9-.15-6.52-5.42z" fill="#00a19b"/><path d="m127.31 134.15v8.55c0 1.87 0 2.65.4 3.4a3 3 0 0 0 2.81 1.39c3 0 3-1.92 3-4.62v-8.72h3.18v8.31c0 2.82-.11 4.39-.88 5.58-1.22 1.88-3.49 2.19-5.26 2.19-6.47 0-6.47-4-6.47-7.64v-8.44z" fill="#00a19b"/><path d="m143.25 134.15h3.09l6.43 10.56v-10.56h3v15.85h-3.2l-6.32-10.31v10.31h-3z" fill="#00a19b"/><path d="m101.75 147.94a2 2 0 1 0 -2 2 2 2 0 0 0 2-2z" fill="#00a19b"/><path d="m174.5 137.36a5.86 5.86 0 0 1 1.88.25 1.44 1.44 0 0 1 .86 1.49 1.53 1.53 0 0 1 -.65 1.41 3.12 3.12 0 0 1 -1.68.4h-3.91v-3.55zm.49 6.19a4.2 4.2 0 0 1 1.6.27 1.72 1.72 0 0 1 1 1.72 2 2 0 0 1 -1.05 2 3.79 3.79 0 0 1 -1.63.28h-3.91v-4.26zm.57-8.94h-7.7v15.94h7.14a11.32 11.32 0 0 0 2.25-.21 4.47 4.47 0 0 0 1.8-.8 4.68 4.68 0 0 0 1.83-3.79 4.24 4.24 0 0 0 -.61-2.33 3.48 3.48 0 0 0 -1.82-1.41 3.57 3.57 0 0 0 1.2-.91 3.61 3.61 0 0 0 .73-2.35 4 4 0 0 0 -.74-2.43c-.76-1.11-2.14-1.67-4.08-1.71z" fill="#00a19b"/><path d="m191.42 138.26 2 6.27h-4.08zm-7.55 12.29h3.49l1.08-3.28h5.87l1.05 3.28h3.64l-5.63-15.94h-3.78z" fill="#00a19b"/><path d="m202.17 134.61h3.47l6.32 11.1v-11.1h3.04v15.94h-3.3l-6.48-11.3v11.3h-3.08z" fill="#00a19b"/><path d="m221.11 134.61h3.31v6.57l6.14-6.57h4.31l-6.52 6.58 6.85 9.36h-4.28l-4.92-6.94-1.59 1.61v5.33h-3.31z" fill="#00a19b"/></svg>