<svg viewBox="0 0 368.33 443.48" xmlns="http://www.w3.org/2000/svg" xmlns:xlink="http://www.w3.org/1999/xlink"><linearGradient id="a" gradientUnits="userSpaceOnUse" x1="299.1" x2="315.07" y1="149.75" y2="132.55"><stop offset="0" stop-color="#fff"/><stop offset="1" stop-color="#231815"/></linearGradient><linearGradient id="b" x1="299.1" x2="315.07" xlink:href="#a" y1="114.7" y2="97.5"/><mask id="c" height="27.43" maskUnits="userSpaceOnUse" width="33.04" x="284.45" y="134.01"><path d="m284.45 134.01h33.04v27.43h-33.04z" fill="url(#a)"/></mask><mask id="d" height="27.43" maskUnits="userSpaceOnUse" width="33.04" x="284.45" y="98.97"><path d="m284.45 98.97h33.04v27.43h-33.04z" fill="url(#b)"/></mask><path d="m18.1 101.34h350.21v31.89h-350.21z" fill="#00a19b"/><path d="m368.33 168.01h-1.02v-.05h.97v-.98h.05z" fill="#231815"/><path d="m365.32 168h-2zm-4 0h-2zm-4 0h-2zm-4 0h-2zm-4 0h-2zm-4 0h-2zm-4 0h-2zm-4 0h-2zm-4 0h-2zm-4 0h-2zm-4 0h-2zm-4 0h-2zm-4 0h-2zm-4 0h-2zm-4 0h-2zm-4 0h-2zm-4 0h-2zm-4 0h-2zm-4 0h-2zm-4 0h-2zm-4 0h-2zm-4 0h-2zm-4 0h-2zm-4 0h-2zm-4 0h-2zm-4 0h-2zm-4 0h-2zm-4 0h-2zm-4 0h-2zm-4 0h-2zm-4 0h-2zm-4 0h-2zm-4 0h-2zm-4 0h-2zm-4 0h-2zm-4 0h-2zm-4 0h-2zm-4 0h-2zm-4 0h-2zm-4 0h-2zm-4 0h-2zm-4 0h-2zm-4 0h-2zm-4 0h-2zm-4 0h-2zm-4 0h-2zm-4 0h-2zm-4 0h-2zm-4 0h-2zm-4 0h-2zm-4 0h-2zm-4 0h-2zm-4 0h-2zm-4 0h-2zm-4 0h-2zm-4 0h-2zm-4 0h-2zm-4 0h-2zm-4 0h-2zm-4 0h-2zm-4 0h-2zm-4 0h-2zm-4 0h-2zm-4 0h-2zm-4 0h-2zm-4 0h-2zm-4 0h-2zm-4 0h-2zm-4 0h-2zm-4 0h-2zm-4 0h-2zm-4 0h-2zm-4 0h-2zm-4 0h-2zm-4 0h-2zm-4 0h-2zm-4 0h-2zm-4 0h-2zm-4 0h-2zm-4 0h-.32 2zm-4 0h-.32 2zm-4 0h-.32 2zm-4 0h-.32 2zm-4 0h-.32 2zm-4 0h-2zm-4 0h-2zm-4 0h-2z" fill="#231815"/><path d="m19.1 168.01h-1.03v-1.03h.06v.98h.97z" fill="#231815"/><path d="m18.12 165h-.05v-2h.05zm0-4h-.05v-2h.05zm0-4h-.05v-2h.05zm0-4h-.05v-2h.05zm0-4h-.05v-2h.05zm0-4h-.05v-2h.05zm0-4h-.05v-2h.05z" fill="#231815"/><path d="m18.13 137.09h-.06v-1.02h1.03v.05h-.97z" fill="#231815"/><path d="m365.32 136.12h-2v-.05h2zm-4 0h-2v-.05h2zm-4 0h-2v-.05h2zm-4 0h-2v-.05h2zm-4 0h-2v-.05h2zm-4 0h-2v-.05h2zm-4 0h-2v-.05h2zm-4 0h-2v-.05h2zm-4 0h-2v-.05h2zm-4 0h-2v-.05h2zm-4 0h-2v-.05h2zm-4 0h-2v-.05h2zm-4 0h-2v-.05h2zm-4 0h-2v-.05h2zm-4 0h-2v-.05h2zm-4 0h-2v-.05h2zm-4 0h-2v-.05h2zm-4 0h-2v-.05h2zm-4 0h-2v-.05h2zm-4 0h-2v-.05h2zm-4 0h-2v-.05h2zm-4 0h-2v-.05h2zm-4 0h-2v-.05h2zm-4 0h-2v-.05h2zm-4 0h-2v-.05h2zm-4 0h-2v-.05h2zm-4 0h-2v-.05h2zm-4 0h-2v-.05h2zm-4 0h-2v-.05h2zm-4 0h-2v-.05h2zm-4 0h-2v-.05h2zm-4 0h-2v-.05h2zm-4 0h-2v-.05h2zm-4 0h-2v-.05h2zm-4 0h-2v-.05h2zm-4 0h-2v-.05h2zm-4 0h-2v-.05h2zm-4 0h-2v-.05h2zm-4 0h-2v-.05h2zm-4 0h-2v-.05h2zm-4 0h-2v-.05h2zm-4 0h-2v-.05h2zm-4 0h-2v-.05h2zm-4 0h-2v-.05h2zm-4 0h-2v-.05h2zm-4 0h-2v-.05h2zm-4 0h-2v-.05h2zm-4 0h-2v-.05h2zm-4 0h-2v-.05h2zm-4 0h-2v-.05h2zm-4 0h-2v-.05h2zm-4 0h-2v-.05h2zm-4 0h-2v-.05h2zm-4 0h-2v-.05h2zm-4 0h-2v-.05h2zm-4 0h-2v-.05h2zm-4 0h-2v-.05h2zm-4 0h-2v-.05h2zm-4 0h-2v-.05h2zm-4 0h-2v-.05h2zm-4 0h-2v-.05h2zm-4 0h-2v-.05h2zm-4 0h-2v-.05h2zm-4 0h-2v-.05h2zm-4 0h-2v-.05h2zm-4 0h-2v-.05h2zm-4 0h-2v-.05h2zm-4 0h-2v-.05h2zm-4 0h-2v-.05h2zm-4 0h-2v-.05h2zm-4 0h-2v-.05h2zm-4 0h-2v-.05h2zm-4 0h-2v-.05h2zm-4 0h-2v-.05h2zm-4 0h-2v-.05h2zm-4 0h-2v-.05h2zm-4 0h-2v-.05h2zm-4 0h-2v-.05h2zm-4 0h-2v-.05h2zm-4 0h-.32v-.05h2zm-4 0h-.32v-.05h2zm-4 0h-.32v-.05h2zm-4 0h-.32v-.05h2zm-4 0h-.32v-.05h2zm-4 0h-2v-.05h2zm-4 0h-2v-.05h2zm-4 0h-2v-.05h2z" fill="#231815"/><path d="m368.33 137.09h-.05v-.97h-.97v-.05h1.02z" fill="#231815"/><path d="m368.33 165h-.05v-2h.05zm0-4h-.05v-2h.05zm0-4h-.05v-2h.05zm0-4h-.05v-2h.05zm0-4h-.05v-2h.05zm0-4h-.05v-2h.05zm0-4h-.05v-2h.05z" fill="#231815"/><path d="m89.16 181.42a3.78 3.78 0 0 1 .16-1.23 1.55 1.55 0 0 1 .46-.72 1.26 1.26 0 0 1 .78-.25 1.34 1.34 0 0 1 .61.14 1.27 1.27 0 0 1 .43.4 2.52 2.52 0 0 1 .27.64 4.56 4.56 0 0 1 .09 1 4.09 4.09 0 0 1 -.15 1.22 1.56 1.56 0 0 1 -.47.72 1.21 1.21 0 0 1 -.78.25 1.16 1.16 0 0 1 -1-.45 2.76 2.76 0 0 1 -.4-1.72zm.54 0a2.71 2.71 0 0 0 .25 1.4.73.73 0 0 0 .61.36.72.72 0 0 0 .61-.36 4.07 4.07 0 0 0 0-2.81.73.73 0 0 0 -.61-.35.65.65 0 0 0 -.56.34 2.62 2.62 0 0 0 -.3 1.42z" fill="#208ec5"/><path d="m92.79 183.54v-.61h.6v.61z" fill="#208ec5"/><path d="m94.17 182.41h.55a1 1 0 0 0 .28.59.76.76 0 0 0 .54.21.86.86 0 0 0 .65-.29 1.06 1.06 0 0 0 .26-.76 1 1 0 0 0 -.25-.72.9.9 0 0 0 -.66-.26.88.88 0 0 0 -.46.12 1 1 0 0 0 -.33.3l-.49-.06.41-2.21h2.14v.5h-1.71l-.23 1.17a1.36 1.36 0 0 1 .81-.27 1.3 1.3 0 0 1 .95.39 1.38 1.38 0 0 1 .38 1 1.56 1.56 0 0 1 -.34 1 1.37 1.37 0 0 1 -1.13.52 1.36 1.36 0 0 1 -1-.33 1.25 1.25 0 0 1 -.37-.9z" fill="#208ec5"/><path d="m97.28 183.54 1.66-2.24-1.46-2.06h.67l.78 1.1c.16.23.28.41.35.53a4.36 4.36 0 0 1 .34-.49l.86-1.14h.62l-1.51 2 1.63 2.28h-.71l-1.08-1.52c-.06-.08-.12-.18-.18-.28l-.25.28-1 1.54z" fill="#208ec5"/><path d="m58.33 183.54h-.53v-3.36a2.7 2.7 0 0 1 -.5.36 3.44 3.44 0 0 1 -.55.27v-.51a3.52 3.52 0 0 0 .77-.5 2 2 0 0 0 .47-.58h.34z" fill="#208ec5"/><path d="m60 183.54v-.61h.6v.61z" fill="#208ec5"/><path d="m61.35 182.41h.55a1 1 0 0 0 .29.61.76.76 0 0 0 .54.21.84.84 0 0 0 .64-.29 1.06 1.06 0 0 0 .26-.76 1 1 0 0 0 -.25-.72.9.9 0 0 0 -.66-.26.88.88 0 0 0 -.46.12.85.85 0 0 0 -.32.3l-.5-.06.42-2.21h2.14v.5h-1.72l-.23 1.15a1.38 1.38 0 0 1 .81-.27 1.3 1.3 0 0 1 1 .39 1.34 1.34 0 0 1 .38 1 1.56 1.56 0 0 1 -.34 1 1.37 1.37 0 0 1 -1.12.52 1.4 1.4 0 0 1 -1-.33 1.25 1.25 0 0 1 -.43-.9z" fill="#208ec5"/><path d="m64.46 183.54 1.66-2.24-1.46-2.06h.67l.78 1.1a5.72 5.72 0 0 1 .35.53 4.36 4.36 0 0 1 .34-.49l.86-1.14h.62l-1.51 2 1.63 2.28h-.7l-1.09-1.52c-.06-.08-.12-.18-.18-.28l-.21.32-1.08 1.5z" fill="#208ec5"/><path d="m2.47 139.66a3.78 3.78 0 0 1 .16-1.23 1.47 1.47 0 0 1 .46-.71 1.2 1.2 0 0 1 .78-.26 1.34 1.34 0 0 1 .61.14 1.29 1.29 0 0 1 .43.41 2.3 2.3 0 0 1 .27.63 4.56 4.56 0 0 1 .09 1 4.09 4.09 0 0 1 -.15 1.22 1.56 1.56 0 0 1 -.47.72 1.16 1.16 0 0 1 -.78.25 1.16 1.16 0 0 1 -1-.45 2.74 2.74 0 0 1 -.4-1.72zm.54 0a2.78 2.78 0 0 0 .25 1.41.75.75 0 0 0 .61.35.72.72 0 0 0 .61-.36 4.07 4.07 0 0 0 0-2.81.73.73 0 0 0 -.61-.35.65.65 0 0 0 -.58.31 2.62 2.62 0 0 0 -.29 1.45z" fill="#208ec5"/><path d="m6.1 141.78v-.6h.61v.6z" fill="#208ec5"/><path d="m7.47 140.65.53-.05a1 1 0 0 0 .28.61.77.77 0 0 0 .55.21.85.85 0 0 0 .64-.29 1.06 1.06 0 0 0 .26-.76 1 1 0 0 0 -.25-.71.87.87 0 0 0 -.66-.27.88.88 0 0 0 -.46.12 1 1 0 0 0 -.33.3l-.49-.06.46-2.21h2.14v.5h-1.73l-.23 1.16a1.36 1.36 0 0 1 .81-.27 1.3 1.3 0 0 1 .95.39 1.38 1.38 0 0 1 .38 1 1.54 1.54 0 0 1 -.34 1 1.34 1.34 0 0 1 -1.12.52 1.37 1.37 0 0 1 -1-.33 1.3 1.3 0 0 1 -.39-.86z" fill="#208ec5"/><path d="m10.61 141.78 1.13-1.62-1.05-1.49h.66l.48.72.21.35.24-.34.53-.73h.63l-1.08 1.46 1.16 1.65h-.65l-.64-1-.17-.26-.81 1.23z" fill="#208ec5"/><path d="m2.47 165a3.72 3.72 0 0 1 .16-1.22 1.55 1.55 0 0 1 .46-.72 1.2 1.2 0 0 1 .78-.25 1.22 1.22 0 0 1 .61.14 1.17 1.17 0 0 1 .43.4 2.37 2.37 0 0 1 .27.64 4.53 4.53 0 0 1 .09 1 4 4 0 0 1 -.15 1.22 1.56 1.56 0 0 1 -.47.72 1.16 1.16 0 0 1 -.78.25 1.18 1.18 0 0 1 -1-.44 2.79 2.79 0 0 1 -.4-1.74zm.53 0a2.73 2.73 0 0 0 .25 1.41.75.75 0 0 0 .61.35.73.73 0 0 0 .61-.35 4.1 4.1 0 0 0 0-2.82.73.73 0 0 0 -.61-.35.67.67 0 0 0 -.58.31 2.64 2.64 0 0 0 -.28 1.45z" fill="#208ec5"/><path d="m6.1 167.13v-.6h.61v.6z" fill="#208ec5"/><path d="m7.47 166h.53a1.05 1.05 0 0 0 .28.61.81.81 0 0 0 .55.2.85.85 0 0 0 .64-.29 1 1 0 0 0 .26-.76 1 1 0 0 0 -.25-.71.9.9 0 0 0 -.66-.26 1 1 0 0 0 -.46.11 1 1 0 0 0 -.33.3l-.49-.06.46-2.25h2.14v.51h-1.73l-.23 1.15a1.36 1.36 0 0 1 .81-.27 1.3 1.3 0 0 1 .95.39 1.4 1.4 0 0 1 .38 1 1.54 1.54 0 0 1 -.34 1 1.34 1.34 0 0 1 -1.12.52 1.41 1.41 0 0 1 -1-.32 1.3 1.3 0 0 1 -.39-.87z" fill="#208ec5"/><path d="m10.61 167.13 1.13-1.62-1.05-1.51h.66l.48.73a4 4 0 0 1 .21.35l.24-.35.53-.73h.63l-1.08 1.46 1.16 1.65h-.65l-.64-1-.17-.26-.81 1.23z" fill="#208ec5"/><path d="m280.3 82.51h-.52v-3.36a3.09 3.09 0 0 1 -.5.36 4 4 0 0 1 -.56.27v-.51a3 3 0 0 0 .77-.5 2 2 0 0 0 .47-.58h.34z" fill="#208ec5"/><path d="m282 82.51v-.6h.6v.6z" fill="#208ec5"/><path d="m283.32 81.38h.56a1 1 0 0 0 .28.6.76.76 0 0 0 .54.21.86.86 0 0 0 .65-.29 1.11 1.11 0 0 0 .26-.76 1 1 0 0 0 -.25-.71.88.88 0 0 0 -.67-.26.9.9 0 0 0 -.46.11 1 1 0 0 0 -.32.3l-.5-.06.42-2.21h2.17v.5h-1.72l-.28 1.12a1.4 1.4 0 0 1 .81-.27 1.28 1.28 0 0 1 .95.39 1.35 1.35 0 0 1 .39 1 1.6 1.6 0 0 1 -.34 1 1.36 1.36 0 0 1 -1.13.52 1.4 1.4 0 0 1 -1-.33 1.34 1.34 0 0 1 -.36-.86z" fill="#208ec5"/><path d="m286.44 82.51 1.66-2.24-1.47-2.06h.68l.78 1.1a5.18 5.18 0 0 1 .34.53c.1-.16.21-.32.34-.49l.87-1.14h.62l-1.51 2 1.62 2.27h-.7l-1.08-1.48c-.06-.08-.13-.18-.19-.28l-.2.32-1.08 1.5z" fill="#208ec5"/><path d="m96.41 82.51h-.53v-3.36a2.4 2.4 0 0 1 -.5.36 3.44 3.44 0 0 1 -.55.27v-.51a3.19 3.19 0 0 0 .77-.5 2 2 0 0 0 .47-.58h.34z" fill="#208ec5"/><path d="m98.06 82.51v-.6h.6v.6z" fill="#208ec5"/><path d="m99.43 81.38h.55a1 1 0 0 0 .29.6.76.76 0 0 0 .54.21.84.84 0 0 0 .64-.29 1.07 1.07 0 0 0 .27-.76 1 1 0 0 0 -.26-.71.86.86 0 0 0 -.66-.26.9.9 0 0 0 -.46.11.85.85 0 0 0 -.32.3l-.5-.06.42-2.21h2.13v.5h-1.71l-.23 1.16a1.4 1.4 0 0 1 .81-.27 1.3 1.3 0 0 1 1 .39 1.35 1.35 0 0 1 .39 1 1.6 1.6 0 0 1 -.34 1 1.37 1.37 0 0 1 -1.13.52 1.4 1.4 0 0 1 -1-.33 1.25 1.25 0 0 1 -.43-.9z" fill="#208ec5"/><path d="m102.54 82.51 1.66-2.24-1.46-2.06h.68l.77 1.1a5.72 5.72 0 0 1 .35.53c.1-.16.21-.32.34-.49l.86-1.14h.62l-1.51 2 1.63 2.27h-.7l-1.08-1.48a2 2 0 0 1 -.19-.28l-.21.32-1.08 1.5z" fill="#208ec5"/><path d="m80.26 183.54 1.66-2.24-1.46-2.06h.67l.78 1.1a5.72 5.72 0 0 1 .35.53c.1-.16.21-.32.34-.49l.86-1.14h.62l-1.51 2 1.63 2.28h-.7l-1.08-1.52c-.06-.08-.13-.18-.19-.28l-.23.28-1 1.54z" fill="#208ec5"/><path d="m126.48 80.15a4.12 4.12 0 0 1 .15-1.23 1.53 1.53 0 0 1 .47-.71 1.16 1.16 0 0 1 .78-.25 1.26 1.26 0 0 1 .6.13 1.13 1.13 0 0 1 .43.41 1.79 1.79 0 0 1 .27.64 4.38 4.38 0 0 1 .1 1 4.05 4.05 0 0 1 -.16 1.22 1.55 1.55 0 0 1 -.46.72 1.32 1.32 0 0 1 -1.76-.19 2.87 2.87 0 0 1 -.42-1.74zm.54 0a2.68 2.68 0 0 0 .25 1.41.72.72 0 0 0 .61.35.75.75 0 0 0 .61-.35 2.81 2.81 0 0 0 .24-1.41 2.75 2.75 0 0 0 -.24-1.41.75.75 0 0 0 -.62-.35.66.66 0 0 0 -.58.31 2.73 2.73 0 0 0 -.29 1.45z" fill="#208ec5"/><path d="m130.11 82.27v-.6h.6v.6z" fill="#208ec5"/><path d="m131.48 81.14h.55a1 1 0 0 0 .29.6.76.76 0 0 0 .54.21.84.84 0 0 0 .64-.29 1.05 1.05 0 0 0 .27-.76 1 1 0 0 0 -.26-.71.86.86 0 0 0 -.66-.26 1 1 0 0 0 -.46.11.93.93 0 0 0 -.32.3l-.5-.06.43-2.28h2.13v.51h-1.71l-.23 1.15a1.4 1.4 0 0 1 .81-.27 1.28 1.28 0 0 1 .95.39 1.35 1.35 0 0 1 .39 1 1.6 1.6 0 0 1 -.34 1 1.36 1.36 0 0 1 -1.13.52 1.4 1.4 0 0 1 -1-.33 1.29 1.29 0 0 1 -.39-.83z" fill="#208ec5"/><path d="m134.59 82.27 1.66-2.27-1.46-2h.68l.78 1.1c.16.23.27.41.34.53.1-.15.21-.32.34-.49l.87-1.14h.61l-1.5 2 1.62 2.27h-.7l-1.08-1.53-.19-.29c-.1.15-.16.26-.21.32l-1.07 1.5z" fill="#208ec5"/><path d="m117 82.27 1.63-2.27-1.47-2h.68l.78 1.1a5.18 5.18 0 0 1 .34.53c.1-.15.21-.32.34-.49l.87-1.14h.62l-1.51 2 1.62 2.27h-.7l-1.08-1.53-.19-.29-.2.32-1.08 1.5z" fill="#208ec5"/><path d="m201.74 82.27 1.66-2.27-1.46-2h.67l.78 1.1c.16.23.28.41.35.53a5.52 5.52 0 0 1 .34-.49l.86-1.14h.62l-1.51 2 1.63 2.27h-.68l-1.08-1.53-.18-.29-.21.32-1.08 1.5z" fill="#208ec5"/><path d="m164.59 183.54 1.66-2.24-1.46-2.06h.67l.78 1.1c.16.23.28.41.35.53a3.35 3.35 0 0 1 .34-.49l.86-1.14h.62l-1.51 2 1.63 2.28h-.71l-1.08-1.52-.19-.28-.2.32-1.08 1.5z" fill="#208ec5"/><path d="m240.05 183.54 1.66-2.24-1.47-2.06h.68l.78 1.1a5.18 5.18 0 0 1 .34.53c.1-.16.21-.32.34-.49l.87-1.14h.62l-1.51 2 1.62 2.28h-.7l-1.08-1.52-.19-.28-.2.32-1.08 1.5z" fill="#208ec5"/><path d="m90.21 171.19h.1v5.01h-.1z" fill="#00b2e1"/><path d="m296.33.31h.1v1h-.1z" fill="#00b2e1"/><path d="m296.43 72.2h-.1v-2h.1zm0-3.94h-.1v-2h.1zm0-3.93h-.1v-2h.1zm0-3.94h-.1v-2h.1zm0-3.94h-.1v-2h.1zm0-3.94h-.1v-2h.1zm0-3.94h-.1v-2h.1zm0-3.94h-.1v-2h.1zm0-3.93h-.1v-2h.1zm0-3.94h-.1v-2h.1zm0-3.94h-.1v-2h.1zm0-3.94h-.1v-2h.1zm0-3.94h-.1v-1.94h.1zm0-3.94h-.1v-2h.1zm0-3.93h-.1v-2h.1zm0-3.94h-.1v-2h.1zm0-3.94h-.1v-2h.1zm0-3.94h-.1v-2h.1z" fill="#00b2e1"/><path d="m296.33 74.17h.1v1h-.1z" fill="#00b2e1"/><path d="m98.79 171.19h.1v5.01h-.1z" fill="#00b2e1"/><path d="m74.3 171.19h.1v5.01h-.1z" fill="#00b2e1"/><path d="m48.53 101.34h.1v1h-.1z" fill="#00b2e1"/><path d="m48.63 173.23h-.1v-2h.1zm0-3.94h-.1v-2h.1zm0-3.94h-.1v-2h.1zm0-3.93h-.1v-2h.1zm0-3.94h-.1v-2h.1zm0-3.94h-.1v-2h.1zm0-3.94h-.1v-2h.1zm0-3.94h-.1v-2h.1zm0-3.94h-.1v-2h.1zm0-3.93h-.1v-2h.1zm0-3.94h-.1v-2h.1zm0-3.94h-.1v-2h.1zm0-3.94h-.1v-2h.1zm0-3.94h-.1v-2h.1zm0-3.94h-.1v-2h.1zm0-3.93h-.1v-2h.1zm0-3.94h-.1v-2h.1zm0-3.94h-.1v-2h.1z" fill="#00b2e1"/><path d="m48.53 175.2h.1v1h-.1z" fill="#00b2e1"/><path d="m81.3 144.04h1v.1h-1z" fill="#00b2e1"/><path d="m79.29 144.14h-2v-.14h2zm-4 0h-2v-.14h2zm-4 0h-2v-.14h2zm-4 0h-2v-.14h2zm-4 0h-2v-.14h2zm-4 0h-2v-.14h2zm-4 0h-2v-.14h2zm-4 0h-2v-.14h2zm-4 0h-2v-.14h2zm-4 0h-2v-.14h2zm-4 0h-2v-.14h2zm-4 0h-2v-.14h2zm-4 0h-2v-.14h2zm-4 0h-2v-.14h2zm-4 0h-2v-.14h2zm-4 0h-2v-.14h2zm-4 0h-2v-.14h2zm-4 0h-2v-.14h2zm-4 0h-2v-.14h2z" fill="#00b2e1"/><path d="m2.22 144.04h1v.1h-1z" fill="#00b2e1"/><path d="m81.3 159.94h1v.1h-1z" fill="#00b2e1"/><path d="m41.26 160v-.1h2v.1zm-2 0h-2v-.1h2zm-4 0h-2v-.1h2zm-4 0h-2v-.1h2zm-4 0h-2v-.1h2zm-4 0h-2v-.1h2zm-4 0h-2v-.1h2zm-4 0h-2v-.1h2zm-4 0h-2v-.1h2zm-4 0h-2v-.1h2zm72.06 0h-2v-.1h2zm-4 0h-2v-.1h2zm-4 0h-2v-.1h2zm-4 0h-2v-.1h2zm-4 0h-2v-.1h2zm-4 0h-2v-.1h2zm-4 0h-2v-.1h2zm-4 0h-2v-.1h2zm-4 0h-2v-.1h2z" fill="#00b2e1"/><path d="m2.22 159.94h1v.1h-1z" fill="#00b2e1"/><path d="m74.3 171.19h.1v5.01h-.1z" fill="#00b2e1"/><path d="m272.36 70.16h.1v5.01h-.1z" fill="#00b2e1"/><path d="m159.89 171.19h.1v5.01h-.1z" fill="#00b2e1"/><path d="m172.76 171.19h.1v5.01h-.1z" fill="#00b2e1"/><path d="m235.05 171.19h.1v5.01h-.1z" fill="#00b2e1"/><path d="m235.05 171.19h.1v5.01h-.1z" fill="#00b2e1"/><path d="m247.93 171.19h.1v5.01h-.1z" fill="#00b2e1"/><path d="m.25 38.63a3.78 3.78 0 0 1 .16-1.23 1.52 1.52 0 0 1 .46-.71 1.2 1.2 0 0 1 .78-.25 1.33 1.33 0 0 1 .61.13 1.29 1.29 0 0 1 .43.41 2 2 0 0 1 .26.64 3.88 3.88 0 0 1 .1 1 4.09 4.09 0 0 1 -.15 1.22 1.56 1.56 0 0 1 -.47.72 1.2 1.2 0 0 1 -.78.25 1.21 1.21 0 0 1 -1-.44 2.87 2.87 0 0 1 -.4-1.74zm.54 0a2.65 2.65 0 0 0 .21 1.37.73.73 0 0 0 .61.35.73.73 0 0 0 .65-.35 2.68 2.68 0 0 0 .25-1.41 2.63 2.63 0 0 0 -.25-1.41.74.74 0 0 0 -.62-.35.68.68 0 0 0 -.58.31 2.75 2.75 0 0 0 -.27 1.49z" fill="#208ec5"/><path d="m3.88 40.75v-.6h.6v.6z" fill="#208ec5"/><path d="m5.25 39.62h.56a.94.94 0 0 0 .28.6.76.76 0 0 0 .54.21.86.86 0 0 0 .65-.29 1.09 1.09 0 0 0 .26-.76 1 1 0 0 0 -.25-.71.87.87 0 0 0 -.67-.26.92.92 0 0 0 -.78.41l-.49-.06.41-2.21h2.14v.45h-1.71l-.19 1.17a1.41 1.41 0 0 1 .82-.27 1.26 1.26 0 0 1 .94.39 1.35 1.35 0 0 1 .39 1 1.54 1.54 0 0 1 -.34 1 1.35 1.35 0 0 1 -1.13.52 1.36 1.36 0 0 1 -1-.33 1.3 1.3 0 0 1 -.43-.86z" fill="#208ec5"/><path d="m8.37 40.75 1.63-2.24-1.44-2.06h.68l.78 1.1c.16.23.28.41.35.53a5.52 5.52 0 0 1 .34-.49l.86-1.14h.62l-1.51 2 1.63 2.27h-.71l-1.08-1.53-.19-.29c-.09.16-.16.26-.2.32l-1.08 1.5z" fill="#208ec5"/><path d="m.25 64a3.76 3.76 0 0 1 .16-1.22 1.55 1.55 0 0 1 .46-.78 1.2 1.2 0 0 1 .78-.25 1.34 1.34 0 0 1 .61.14 1.26 1.26 0 0 1 .43.4 2.2 2.2 0 0 1 .31.71 3.93 3.93 0 0 1 .1 1 4 4 0 0 1 -.2 1.2 1.56 1.56 0 0 1 -.47.72 1.2 1.2 0 0 1 -.78.26 1.19 1.19 0 0 1 -1-.45 2.87 2.87 0 0 1 -.4-1.73zm.54 0a2.63 2.63 0 0 0 .21 1.39.71.71 0 0 0 .61.35.73.73 0 0 0 .61-.35 2.63 2.63 0 0 0 .29-1.39 2.68 2.68 0 0 0 -.25-1.41.73.73 0 0 0 -.62-.34.69.69 0 0 0 -.58.3 2.78 2.78 0 0 0 -.27 1.45z" fill="#208ec5"/><path d="m3.88 66.1v-.6h.6v.6z" fill="#208ec5"/><path d="m5.25 65h.56a1 1 0 0 0 .28.61.8.8 0 0 0 .54.2.82.82 0 0 0 .65-.29 1.09 1.09 0 0 0 .26-.76 1 1 0 0 0 -.25-.76.9.9 0 0 0 -.67-.26.87.87 0 0 0 -.45.12.8.8 0 0 0 -.33.3l-.49-.07.41-2.2h2.14v.5h-1.71l-.19 1.13a1.41 1.41 0 0 1 .82-.27 1.26 1.26 0 0 1 .94.39 1.37 1.37 0 0 1 .39 1 1.53 1.53 0 0 1 -.34 1 1.35 1.35 0 0 1 -1.13.53 1.36 1.36 0 0 1 -1-.33 1.3 1.3 0 0 1 -.43-.84z" fill="#208ec5"/><path d="m8.37 66.1 1.63-2.24-1.47-2h.68l.78 1.1c.16.23.28.4.35.53a4.36 4.36 0 0 1 .34-.49l.86-1.14h.62l-1.51 2 1.63 2.27h-.68l-1.08-1.53-.19-.29c-.09.16-.16.27-.2.33l-1.08 1.46z" fill="#208ec5"/><path d="m126.95 70.16h.1v5.01h-.1z" fill="#00b2e1"/><path d="m135.54 70.16h.1v5.01h-.1z" fill="#00b2e1"/><path d="m87.23 1.2h.1v1h-.1z" fill="#00b2e1"/><path d="m87.33 73.09h-.1v-2h.1zm0-3.94h-.1v-2h.1zm0-3.94h-.1v-2h.1zm0-3.94h-.1v-2h.1zm0-3.93h-.1v-2h.1zm0-3.94h-.1v-2h.1zm0-3.94h-.1v-2h.1zm0-3.94h-.1v-2h.1zm0-3.94h-.1v-2h.1zm0-3.94h-.1v-2h.1zm0-3.93h-.1v-2h.1zm0-3.94h-.1v-2h.1zm0-3.94h-.1v-2h.1zm0-3.94h-.1v-2h.1zm0-3.94h-.1v-1.95h.1zm0-3.94h-.1v-2.01h.1zm0-3.93h-.1v-2h.1zm0-3.94h-.1v-2h.1z" fill="#00b2e1"/><path d="m87.23 75.06h.1v1h-.1z" fill="#00b2e1"/><path d="m118.35 43.01h1v.1h-1z" fill="#00b2e1"/><path d="m58.68 43.11v-.11h2v.1zm-2 0h-2v-.11h2zm-4 0h-2v-.11h2zm-4 0h-2v-.11h2zm-4 0h-2v-.11h2zm-4 0h-2v-.11h2zm-4 0h-2v-.11h2zm-4 0h-2v-.11h2zm-4 0h-2v-.11h2zm-4 0h-2v-.11h2zm-4 0h-2v-.11h2zm-4 0h-2v-.11h2zm-4 0h-2v-.11h2zm-4 0h-1.68v-.11h2zm-4 0h-1.68v-.11h2zm111.38 0h-2v-.11h2zm-4 0h-2v-.11h2zm-4 0h-2v-.11h2zm-4 0h-2v-.11h2zm-4 0h-2v-.11h2zm-4 0h-2v-.11h2zm-4 0h-2v-.11h2zm-4 0h-2v-.11h2zm-4 0h-2v-.11h2zm-4 0h-2v-.11h2zm-4 0h-2v-.11h2zm-4 0h-2v-.11h2zm-4 0h-2v-.11h2zm-4 0h-2v-.11h2z" fill="#00b2e1"/><path d="m0 43.01h1v.1h-1z" fill="#00b2e1"/><path d="m118.35 58.91h1v.1h-1z" fill="#00b2e1"/><path d="m58.68 59v-.1h2v.1zm-2 0h-2v-.1h2zm-4 0h-2v-.1h2zm-4 0h-2v-.1h2zm-4 0h-2v-.1h2zm-4 0h-2v-.1h2zm-4 0h-2v-.1h2zm-4 0h-2v-.1h2zm-4 0h-2v-.1h2zm-4 0h-2v-.1h2zm-4 0h-2v-.1h2zm-4 0h-2v-.1h2zm-4 0h-2v-.1h2zm-3.68 0h-2v-.1h2zm-4 0h-2v-.1h2zm111.38 0h-2v-.1h2zm-4 0h-2v-.1h2zm-4 0h-2v-.1h2zm-4 0h-2v-.1h2zm-4 0h-2v-.1h2zm-4 0h-2v-.1h2zm-4 0h-2v-.1h2zm-4 0h-2v-.1h2zm-4 0h-2v-.1h2zm-4 0h-2v-.1h2zm-4 0h-2v-.1h2zm-4 0h-2v-.1h2zm-4 0h-2v-.1h2zm-4 0h-2v-.1h2z" fill="#00b2e1"/><path d="m0 58.91h1v.1h-1z" fill="#00b2e1"/><path d="m110.99 70.16h.1v5.01h-.1z" fill="#00b2e1"/><path d="m196.98 70.16h.1v5.01h-.1z" fill="#00b2e1"/><path d="m209.86 70.16h.1v5.01h-.1z" fill="#00b2e1"/><path d="m15.88 0h350.21v31.89h-350.21z" fill="#00a19b"/><path d="m366.11 66.97h-1.03v-.05h.98v-.98h.05z" fill="#231815"/><path d="m363.09 67h-2zm-4 0h-2zm-4 0h-2zm-4 0h-2zm-4 0h-2zm-4 0h-2zm-4 0h-2zm-4 0h-2zm-4 0h-2zm-4 0h-2zm-4 0h-2zm-4 0h-2zm-4 0h-2zm-4 0h-2zm-4 0h-2zm-4 0h-2zm-4 0h-2zm-4 0h-2zm-4 0h-2zm-4 0h-2zm-4 0h-2zm-4 0h-2zm-4 0h-2zm-4 0h-2zm-4 0h-2zm-4 0h-2zm-4 0h-2zm-4 0h-2zm-4 0h-2zm-4 0h-2zm-4 0h-2zm-4 0h-2zm-4 0h-2zm-4 0h-2zm-4 0h-2zm-4 0h-2zm-4 0h-2zm-4 0h-2zm-4 0h-2zm-4 0h-2zm-4 0h-2zm-4 0h-2zm-4 0h-2zm-4 0h-2zm-4 0h-2zm-4 0h-2zm-4 0h-2zm-4 0h-2zm-4 0h-2zm-4 0h-2zm-4 0h-2zm-4 0h-2zm-4 0h-2zm-4 0h-2zm-4 0h-2zm-4 0h-2zm-4 0h-2zm-4 0h-2zm-4 0h-2zm-4 0h-2zm-4 0h-2zm-4 0h-2zm-4 0h-2zm-4 0h-2zm-4 0h-2zm-4 0h-2zm-4 0h-2zm-4 0h-2zm-4 0h-2zm-4 0h-2zm-4 0h-2zm-4 0h-2zm-4 0h-2zm-4 0h-2zm-4 0h-2zm-4 0h-2zm-4 0h-2zm-4 0h-2zm-4 0h-2zm-4 0h-2zm-4 0h-2zm-4 0h-2zm-4 0h-2zm-4 0h-2zm-4 0h-2zm-4 0h-2zm-4 0h-2z" fill="#231815"/><path d="m16.88 66.97h-1.03v-1.03h.05v.98h.98z" fill="#231815"/><path d="m15.9 64h-.05v-2h.05zm0-4h-.05v-2h.05zm0-4h-.05v-2h.05zm0-4h-.05v-2h.05zm0-4h-.05v-2h.05zm0-4h-.05v-2h.05zm0-4h-.05v-2h.05z" fill="#231815"/><path d="m15.9 36.05h-.05v-1.02h1.03v.05h-.98z" fill="#231815"/><path d="m363.09 35.08h-2zm-4 0h-2zm-4 0h-2zm-4 0h-2zm-4 0h-2zm-4 0h-2zm-4 0h-2zm-4 0h-2zm-4 0h-2zm-4 0h-2zm-4 0h-2zm-4 0h-2zm-4 0h-2zm-4 0h-2zm-4 0h-2zm-4 0h-2zm-4 0h-2zm-4 0h-2zm-4 0h-2zm-4 0h-2zm-4 0h-2zm-4 0h-2zm-4 0h-2zm-4 0h-2zm-4 0h-2zm-4 0h-2zm-4 0h-2zm-4 0h-2zm-4 0h-2zm-4 0h-2zm-4 0h-2zm-4 0h-2zm-4 0h-2zm-4 0h-2zm-4 0h-2zm-4 0h-2zm-4 0h-2zm-4 0h-2zm-4 0h-2zm-4 0h-2zm-4 0h-2zm-4 0h-2zm-4 0h-2zm-4 0h-2zm-4 0h-2zm-4 0h-2zm-4 0h-2zm-4 0h-2zm-4 0h-2zm-4 0h-2zm-4 0h-2zm-4 0h-2zm-4 0h-2zm-4 0h-2zm-4 0h-2zm-4 0h-2zm-4 0h-2zm-4 0h-2zm-4 0h-2zm-4 0h-2zm-4 0h-2zm-4 0h-2zm-4 0h-2zm-4 0h-2zm-4 0h-2zm-4 0h-2zm-4 0h-2zm-4 0h-2zm-4 0h-2zm-4 0h-2zm-4 0h-2zm-4 0h-2zm-4 0h-2zm-4 0h-2zm-4 0h-2zm-4 0h-2zm-4 0h-2zm-4 0h-2zm-4 0h-2zm-4 0h-2zm-4 0h-2zm-4 0h-2zm-4 0h-2zm-4 0h-2zm-4 0h-2zm-4 0h-2zm-4 0h-2z" fill="#231815"/><path d="m366.11 36.05h-.05v-.97h-.98v-.05h1.03z" fill="#231815"/><path d="m366.11 64h-.05v-2h.05zm0-4h-.05v-2h.05zm0-4h-.05v-2h.05zm0-4h-.05v-2h.05zm0-4h-.05v-2h.05zm0-4h-.05v-2h.05zm0-4h-.05v-2h.05z" fill="#231815"/><path d="m18.1 202.03h350.21v31.89h-350.21z" fill="#00a19b"/><path d="m368.33 269.01h-1.02v-.05h.97v-.97h.05z" fill="#231815"/><path d="m365.32 269h-2zm-4 0h-2zm-4 0h-2zm-4 0h-2zm-4 0h-2zm-4 0h-2zm-4 0h-2zm-4 0h-2zm-4 0h-2zm-4 0h-2zm-4 0h-2zm-4 0h-2zm-4 0h-2zm-4 0h-2zm-4 0h-2zm-4 0h-2zm-4 0h-2zm-4 0h-2zm-4 0h-2zm-4 0h-2zm-4 0h-2zm-4 0h-2zm-4 0h-2zm-4 0h-2zm-4 0h-2zm-4 0h-2zm-4 0h-2zm-4 0h-2zm-4 0h-2zm-4 0h-2zm-4 0h-2zm-4 0h-2zm-4 0h-2zm-4 0h-2zm-4 0h-2zm-4 0h-2zm-4 0h-2zm-4 0h-2zm-4 0h-2zm-4 0h-2zm-4 0h-2zm-4 0h-2zm-4 0h-2zm-4 0h-2zm-4 0h-2zm-4 0h-2zm-4 0h-2zm-4 0h-2zm-4 0h-2zm-4 0h-2zm-4 0h-2zm-4 0h-2zm-4 0h-2zm-4 0h-2zm-4 0h-2zm-4 0h-2zm-4 0h-2zm-4 0h-2zm-4 0h-2zm-4 0h-2zm-4 0h-2zm-4 0h-2zm-4 0h-2zm-4 0h-2zm-4 0h-2zm-4 0h-2zm-4 0h-2zm-4 0h-2zm-4 0h-2zm-4 0h-2zm-4 0h-2zm-4 0h-2zm-4 0h-2zm-4 0h-2zm-4 0h-2zm-4 0h-2zm-4 0h-2zm-4 0h-2zm-4 0h-2zm-4 0h-.32 2zm-4 0h-.32 2zm-4 0h-.32 2zm-4 0h-.32 2zm-4 0h-.32 2zm-4 0h-2zm-4 0h-2zm-4 0h-2z" fill="#231815"/><path d="m19.1 269.01h-1.03v-1.02h.06v.97h.97z" fill="#231815"/><path d="m18.12 266h-.05v-2h.05zm0-4h-.05v-2h.05zm0-4h-.05v-2h.05zm0-4h-.05v-2h.05zm0-4h-.05v-2h.05zm0-4h-.05v-2h.05zm0-4h-.05v-2h.05z" fill="#231815"/><path d="m18.13 238.1h-.06v-1.03h1.03v.05h-.97z" fill="#231815"/><path d="m365.32 237.12h-2v-.05h2zm-4 0h-2v-.05h2zm-4 0h-2v-.05h2zm-4 0h-2v-.05h2zm-4 0h-2v-.05h2zm-4 0h-2v-.05h2zm-4 0h-2v-.05h2zm-4 0h-2v-.05h2zm-4 0h-2v-.05h2zm-4 0h-2v-.05h2zm-4 0h-2v-.05h2zm-4 0h-2v-.05h2zm-4 0h-2v-.05h2zm-4 0h-2v-.05h2zm-4 0h-2v-.05h2zm-4 0h-2v-.05h2zm-4 0h-2v-.05h2zm-4 0h-2v-.05h2zm-4 0h-2v-.05h2zm-4 0h-2v-.05h2zm-4 0h-2v-.05h2zm-4 0h-2v-.05h2zm-4 0h-2v-.05h2zm-4 0h-2v-.05h2zm-4 0h-2v-.05h2zm-4 0h-2v-.05h2zm-4 0h-2v-.05h2zm-4 0h-2v-.05h2zm-4 0h-2v-.05h2zm-4 0h-2v-.05h2zm-4 0h-2v-.05h2zm-4 0h-2v-.05h2zm-4 0h-2v-.05h2zm-4 0h-2v-.05h2zm-4 0h-2v-.05h2zm-4 0h-2v-.05h2zm-4 0h-2v-.05h2zm-4 0h-2v-.05h2zm-4 0h-2v-.05h2zm-4 0h-2v-.05h2zm-4 0h-2v-.05h2zm-4 0h-2v-.05h2zm-4 0h-2v-.05h2zm-4 0h-2v-.05h2zm-4 0h-2v-.05h2zm-4 0h-2v-.05h2zm-4 0h-2v-.05h2zm-4 0h-2v-.05h2zm-4 0h-2v-.05h2zm-4 0h-2v-.05h2zm-4 0h-2v-.05h2zm-4 0h-2v-.05h2zm-4 0h-2v-.05h2zm-4 0h-2v-.05h2zm-4 0h-2v-.05h2zm-4 0h-2v-.05h2zm-4 0h-2v-.05h2zm-4 0h-2v-.05h2zm-4 0h-2v-.05h2zm-4 0h-2v-.05h2zm-4 0h-2v-.05h2zm-4 0h-2v-.05h2zm-4 0h-2v-.05h2zm-4 0h-2v-.05h2zm-4 0h-2v-.05h2zm-4 0h-2v-.05h2zm-4 0h-2v-.05h2zm-4 0h-2v-.05h2zm-4 0h-2v-.05h2zm-4 0h-2v-.05h2zm-4 0h-2v-.05h2zm-4 0h-2v-.05h2zm-4 0h-2v-.05h2zm-4 0h-2v-.05h2zm-4 0h-2v-.05h2zm-4 0h-2v-.05h2zm-4 0h-2v-.05h2zm-4 0h-2v-.05h2zm-4 0h-2v-.05h2zm-4 0h-.32v-.05h2zm-4 0h-.32v-.05h2zm-4 0h-.32v-.05h2zm-4 0h-.32v-.05h2zm-4 0h-.32v-.05h2zm-4 0h-2v-.05h2zm-4 0h-2v-.05h2zm-4 0h-2v-.05h2z" fill="#231815"/><path d="m368.33 238.1h-.05v-.98h-.97v-.05h1.02z" fill="#231815"/><path d="m368.33 266h-.05v-2h.05zm0-4h-.05v-2h.05zm0-4h-.05v-2h.05zm0-4h-.05v-2h.05zm0-4h-.05v-2h.05zm0-4h-.05v-2h.05zm0-4h-.05v-2h.05z" fill="#231815"/><path d="m367.85 356.04h-1.03v-.05h.97v-.98h.06z" fill="#231815"/><path d="m364.83 356h-2zm-4 0h-2zm-4 0h-2zm-4 0h-2zm-4 0h-2zm-4 0h-2zm-4 0h-2zm-4 0h-2zm-4 0h-2zm-4 0h-2zm-4 0h-2zm-4 0h-2zm-4 0h-2zm-4 0h-2zm-4 0h-2zm-4 0h-2zm-4 0h-2zm-4 0h-2zm-4 0h-2zm-4 0h-2zm-4 0h-2zm-4 0h-2zm-4 0h-2zm-4 0h-2zm-4 0h-2zm-4 0h-2zm-4 0h-2zm-4 0h-2zm-4 0h-2zm-4 0h-2zm-4 0h-2zm-4 0h-2zm-4 0h-2zm-4 0h-2zm-4 0h-2zm-4 0h-2zm-4 0h-2zm-4 0h-2zm-4 0h-2zm-4 0h-2zm-4 0h-2zm-4 0h-2zm-4 0h-2zm-4 0h-2zm-4 0h-2zm-4 0h-2zm-4 0h-2zm-4 0h-2zm-4 0h-2zm-4 0h-2zm-4 0h-2zm-4 0h-2zm-4 0h-2zm-4 0h-2zm-4 0h-2zm-4 0h-2zm-4 0h-2zm-4 0h-2zm-4 0h-2zm-4 0h-2zm-4 0h-2zm-4 0h-2zm-4 0h-2zm-4 0h-2zm-4 0h-2zm-4 0h-2zm-4 0h-2zm-4 0h-2zm-4 0h-2zm-4 0h-2zm-4 0h-2zm-4 0h-2zm-4 0h-2zm-4 0h-2zm-4 0h-2zm-4 0h-2zm-4 0h-2zm-4 0h-2zm-4 0h-2zm-4 0h-2zm-4 0h-2zm-4 0h-2zm-4 0h-2zm-4 0h-2zm-4 0h-2zm-4 0h-2zm-4 0h-2z" fill="#231815"/><path d="m18.61 356.04h-1.02v-1.03h.05v.98h.97z" fill="#231815"/><path d="m17.64 353h-.05v-2h.05zm0-4h-.05v-2h.05zm0-4h-.05v-2h.05zm0-4h-.05v-2h.05zm0-4h-.05v-2h.05zm0-4h-.05v-2h.05zm0-4h-.05v-2h.05z" fill="#231815"/><path d="m17.64 325.13h-.05v-1.03h1.02v.05h-.97z" fill="#231815"/><path d="m364.83 324.15h-2zm-4 0h-2zm-4 0h-2zm-4 0h-2zm-4 0h-2zm-4 0h-2zm-4 0h-2zm-4 0h-2zm-4 0h-2zm-4 0h-2zm-4 0h-2zm-4 0h-2zm-4 0h-2zm-4 0h-2zm-4 0h-2zm-4 0h-2zm-4 0h-2zm-4 0h-2zm-4 0h-2zm-4 0h-2zm-4 0h-2zm-4 0h-2zm-4 0h-2zm-4 0h-2zm-4 0h-2zm-4 0h-2zm-4 0h-2zm-4 0h-2zm-4 0h-2zm-4 0h-2zm-4 0h-2zm-4 0h-2zm-4 0h-2zm-4 0h-2zm-4 0h-2zm-4 0h-2zm-4 0h-2zm-4 0h-2zm-4 0h-2zm-4 0h-2zm-4 0h-2zm-4 0h-2zm-4 0h-2zm-4 0h-2zm-4 0h-2zm-4 0h-2zm-4 0h-2zm-4 0h-2zm-4 0h-2zm-4 0h-2zm-4 0h-2zm-4 0h-2zm-4 0h-2zm-4 0h-2zm-4 0h-2zm-4 0h-2zm-4 0h-2zm-4 0h-2zm-4 0h-2zm-4 0h-2zm-4 0h-2zm-4 0h-2zm-4 0h-2zm-4 0h-2zm-4 0h-2zm-4 0h-2zm-4 0h-2zm-4 0h-2zm-4 0h-2zm-4 0h-2zm-4 0h-2zm-4 0h-2zm-4 0h-2zm-4 0h-2zm-4 0h-2zm-4 0h-2zm-4 0h-2zm-4 0h-2zm-4 0h-2zm-4 0h-2zm-4 0h-2zm-4 0h-2zm-4 0h-2zm-4 0h-2zm-4 0h-2zm-4 0h-2zm-4 0h-2z" fill="#231815"/><path d="m367.85 325.13h-.06v-.98h-.97v-.05h1.03z" fill="#231815"/><path d="m367.84 353v-2zm0-4v-2zm0-4v-2zm0-4v-2zm0-4v-2zm0-4v-2zm0-4v-2z" fill="#231815"/><path d="m17.61 289.67h350.21v31.89h-350.21z" fill="#00a19b"/><path d="m65.35 321.11-.07-.22.07.18z" fill="#fff"/><path d="m59.23 321.58v-.01h.05z" fill="#fff"/><path d="m58.89 321.68-.1.07z" fill="#fff"/><path d="m58.13 322.26-.05.03z" fill="#fff"/><path d="m126.41 13a8.07 8.07 0 0 1 -2.06 8.8 8 8 0 0 1 -13.3-5.48 7.9 7.9 0 0 1 4.15-7.41 8 8 0 0 1 11.21 4.09z" fill="#fff"/><path d="m118.6 11.69c.28-.08.65-.3.93-.08s.74.4.59.82a5.69 5.69 0 0 0 .95 1c.09 0 .12 0 .15-.08h-.1c.12-.1.4.07.58 0a.46.46 0 0 1 .36.14 2.93 2.93 0 0 0 .21.44h.07c.08.14.12.28.21.41.6.2.88.92 1.4 1.22a9 9 0 0 0 2.05 1.15c0 .1.08.1.13.13a.5.5 0 0 0 -.33-.07c.1.15.34.08.39.25h-.19c0 .05.07.05.1.07-.13-.05-.26.05-.35-.12a11.19 11.19 0 0 1 -1.51-.87 6.73 6.73 0 0 0 1.34.88c.14.09.36.14.44.29s-.13 0-.15.08l-.11-.07s0 .05 0 .07l.08.07a7.51 7.51 0 0 1 -1.69-1c-.25-.17-.5-.3-.74-.49 0 0-.08 0-.1 0 .28.21.57.35.85.55a4.75 4.75 0 0 1 -1.53-1.12c-.18-.18-.44-.57-.75-.5-.12.07-.3.05-.43.12s-.18-.12-.28 0-.35 0-.4.24-.46 0-.51.21v.09c-.33.15-.77.1-1 .41-.07.07-.2 0-.27.07s0-.07-.05-.07-.13 0-.19.07.06-.1 0-.15-.22.13-.33.2c0-.13.16-.15.21-.27s-.15 0-.21 0 .1-.13 0-.13c.08-.13.26-.08.31-.23h-.13l.39-.32s-.15-.13-.23 0 0 0 0-.05-.15.05-.23.05 0-.05 0-.06h-.05c.05 0 .11-.12.18-.17.25-.15.5-.32.75-.44v-.05a.17.17 0 0 0 -.26 0c.22 0 0-.25.23-.28a.69.69 0 0 1 .33-.4c-.21-.2-.3-.57-.54-.68 0-.15-.17 0-.18-.15-.3 0-.65.13-.84-.13a1.21 1.21 0 0 0 -.5 0 1.66 1.66 0 0 0 -.26.41 1.87 1.87 0 0 0 -.3.42 1.27 1.27 0 0 1 -.59.53c-.18.25-.57.15-.8.42v-.07a.14.14 0 0 0 -.17.1c-.11 0-.19.1-.24.17-.28.3-.74.3-1 .55-.54.12-.81.54-1.17.94a2.94 2.94 0 0 1 -.39.4c0 .13-.17.18-.23.25.06-.12.21-.22.23-.35-.14.06-.17.21-.32.28s.09-.12 0-.18l-.2.15.18-.25c-.1 0-.2.18-.31.2s-.08.05-.15.05a3.29 3.29 0 0 0 .28-.27c-.12-.06-.25.09-.33.07s0-.1-.1-.07c.08-.06.17-.11.2-.21s-.15 0-.22.06.19-.13.14-.26c-.22 0-.18.18-.36.23.18-.25.44-.4.62-.67a4.77 4.77 0 0 1 1.2-.87c.35-.2.81-.3 1.06-.63a2.2 2.2 0 0 0 .26-.39s.07 0 .08-.06a1.54 1.54 0 0 1 .81-.25c.13-.13.38-.05.48-.24.34-.41.47-.93.77-1.34.1-.14.21-.35.41-.4a8.22 8.22 0 0 1 1.37.23z" fill="#00a19b"/><path d="m118.93 14.54c-.08.07-.24.12-.26.22s-.25.13-.36.13.21-.05.23-.18l.13-.1v.05c0-.05.21 0 .16-.15z" fill="#00a19b"/><path d="m118.41 14.64a.24.24 0 0 1 -.18.13c.03-.08.09-.08.18-.13z" fill="#00a19b"/><path d="m125.73 17.24.02-.04.05.04z" fill="#009e96"/><path d="m125.66 17.32h-.06z" fill="#009e96"/><path d="m126.41 48.08a8 8 0 1 1 -15.36 3.31 7.92 7.92 0 0 1 4.15-7.39 8 8 0 0 1 11.21 4.1z" fill="#00a19b"/><path d="m118.61 46.75c.28-.09.64-.3.92-.09s.74.4.59.82a5.46 5.46 0 0 0 1 1c.08 0 .11 0 .14-.09h-.09c.11-.1.39.07.57 0a.43.43 0 0 1 .36.15c.09.13.1.3.22.43h.06c.09.15.12.28.22.42.59.2.87.91 1.4 1.21a8.4 8.4 0 0 0 2 1.16c0 .1.08.1.13.13a.5.5 0 0 0 -.33-.07c.1.15.35.09.4.25h-.2s.07 0 .1.07c-.13 0-.26.05-.34-.12a10.67 10.67 0 0 1 -1.52-.86 6.44 6.44 0 0 0 1.33.89c.15.08.36.13.44.28s-.13 0-.14.08l-.12-.06s0 0 0 .06l.09.07a6.89 6.89 0 0 1 -1.7-1c-.25-.17-.49-.3-.74-.48 0 0-.08 0-.1 0 .28.22.58.35.86.55a4.64 4.64 0 0 1 -1.53-1.12c-.18-.18-.45-.56-.76-.5-.12.07-.3.06-.43.12s-.18-.12-.28 0-.34 0-.39.23-.46 0-.51.22v.08c-.33.15-.77.1-1 .42-.07.06-.2 0-.26.06a.05.05 0 0 0 0-.06c-.09 0-.13 0-.2.06s.07-.1 0-.15-.22.14-.33.2c0-.13.16-.15.21-.26s-.14 0-.21 0 .1-.14 0-.14c.08-.13.26-.08.31-.23h-.13l.4-.32s-.15-.13-.23 0 0 0 0 0-.15 0-.23 0a.05.05 0 0 0 0-.07h-.05c.05 0 .11-.11.18-.17a6.17 6.17 0 0 1 .74-.43l.05-.05a.18.18 0 0 0 -.27 0c.22 0 0-.25.23-.28a.67.67 0 0 1 .33-.4c-.21-.2-.29-.57-.54-.69 0-.15-.16 0-.18-.15-.3 0-.64.14-.84-.13a1.36 1.36 0 0 0 -.49 0 1.76 1.76 0 0 0 -.27.42 1.64 1.64 0 0 0 -.29.42 1.29 1.29 0 0 1 -.6.53c-.18.25-.57.15-.8.41v-.06a.13.13 0 0 0 -.16.1c-.12 0-.2.1-.25.16-.28.3-.74.3-1 .55-.54.11-.8.53-1.17.93a1.85 1.85 0 0 1 -.39.4c0 .13-.17.18-.23.25.06-.12.21-.22.23-.35-.13.07-.17.22-.31.28s.08-.11 0-.18l-.2.15.18-.25c-.1 0-.19.18-.31.2s-.08.05-.15.05a3 3 0 0 0 .28-.26c-.11-.07-.24.08-.33.06s0-.1-.1-.06c.09-.07.17-.12.2-.22s-.15 0-.21.07.18-.14.13-.27c-.21 0-.18.18-.36.23.18-.25.44-.4.62-.66a4.91 4.91 0 0 1 1.2-.87c.34-.19.8-.29 1-.63a2.14 2.14 0 0 0 .26-.38s.07 0 .09-.07a1.51 1.51 0 0 1 .8-.25c.13-.13.38-.05.48-.23a15.45 15.45 0 0 0 .77-1.35c.1-.13.22-.35.42-.4a7.53 7.53 0 0 1 1.33.24z" fill="#fff"/><path d="m118.94 49.6c-.09.06-.25.11-.27.21s-.24.13-.36.13.21 0 .23-.18l.13-.1v.05c0-.05.21 0 .16-.15z" fill="#fff"/><path d="m118.41 49.69a.26.26 0 0 1 -.18.14c.03-.08.1-.08.18-.14z" fill="#fff"/><path d="m125.73 52.29.02-.03.05.03z" fill="#fff"/><path d="m125.67 52.38h-.07z" fill="#fff"/><g mask="url(#c)"><path d="m293.48 160.94a1.67 1.67 0 0 1 -1.28-.67l-5.78-6.7a2.29 2.29 0 0 1 .12-2.9 1.62 1.62 0 0 1 2.51.14l4.51 5.09 15.55-15.72c.78-.82 1.4-1.32 1.71-1 .33.37.11 1.08-.55 2l-15.47 19.12a1.68 1.68 0 0 1 -1.27.62z" fill="#e60012"/></g><path d="m89.72 149.14a8 8 0 0 1 -10 10.46 8 8 0 0 1 -1.25-14.55 8 8 0 0 1 11.21 4.09z" fill="#00a19b"/><path d="m81.92 147.81c.28-.08.64-.3.92-.08s.74.4.59.81a5.8 5.8 0 0 0 1 1c.08 0 .11 0 .15-.08h-.1c.11-.1.39.06.57 0a.46.46 0 0 1 .36.15c.09.14.1.3.22.44h.06a4.13 4.13 0 0 0 .22.42c.59.2.87.92 1.4 1.22a8.36 8.36 0 0 0 2.07 1.24c0 .1.08.1.13.14a.44.44 0 0 0 -.33-.06c.1.15.35.08.4.25h-.26c0 .05.06.05.09.06-.13-.05-.26.05-.34-.11a12.5 12.5 0 0 1 -1.52-.87 7.13 7.13 0 0 0 1.33.88c.15.08.36.13.45.28s-.14 0-.15.09l-.12-.07s0 .05 0 .07l.09.06a6.89 6.89 0 0 1 -1.7-1c-.24-.16-.49-.29-.74-.48 0 0-.08 0-.1 0 .28.21.58.34.86.54a4.61 4.61 0 0 1 -1.53-1.11c-.18-.18-.45-.57-.76-.5-.11.07-.29.05-.43.12s-.18-.12-.28 0-.34 0-.39.24-.46 0-.51.21v.09c-.33.15-.78.1-1 .41-.06.07-.2 0-.26.07a.06.06 0 0 0 0-.07c-.08 0-.13 0-.2.07s.07-.1 0-.15-.21.13-.33.2c0-.13.17-.15.22-.27s-.15 0-.22.05.1-.13 0-.13c.08-.13.26-.08.31-.23h-.19l.4-.32s-.15-.13-.23 0 0 0 0 0-.14 0-.23 0 0 0 0-.06l.18-.17c.25-.15.49-.32.74-.44v-.05a.17.17 0 0 0 -.26 0c.21 0 0-.25.23-.28a.65.65 0 0 1 .32-.4c-.21-.2-.29-.57-.54-.68 0-.15-.16 0-.18-.15-.3 0-.64.13-.84-.14a1.16 1.16 0 0 0 -.49 0 1.82 1.82 0 0 0 -.27.41 1.64 1.64 0 0 0 -.29.42 1.32 1.32 0 0 1 -.59.53c-.19.25-.58.15-.81.42v-.07a.13.13 0 0 0 -.16.1c-.12 0-.2.1-.25.17-.28.3-.74.3-1 .55-.54.12-.8.54-1.16.94a2.46 2.46 0 0 1 -.4.39c0 .14-.16.19-.23.25.07-.11.21-.21.23-.35-.13.07-.16.22-.31.29s.08-.12 0-.19l-.2.15.18-.25c-.09 0-.19.19-.31.2s-.08.05-.15.05a3.29 3.29 0 0 0 .28-.27c-.11-.07-.24.08-.33.07s0-.1-.09-.07c.08-.07.16-.12.19-.21s-.14 0-.21.06.18-.13.13-.27c-.21 0-.18.19-.36.24.18-.25.44-.4.62-.67a4.44 4.44 0 0 1 1.2-.87c.35-.2.81-.3 1-.63a3 3 0 0 0 .27-.39s.06 0 .08-.06a1.54 1.54 0 0 1 .8-.25c.14-.14.38-.05.48-.24.35-.41.48-.93.78-1.35.09-.13.21-.34.41-.39a8.39 8.39 0 0 1 1.39.08z" fill="#fff"/><path d="m82.25 150.66c-.08.07-.25.12-.27.22s-.24.13-.36.13.22 0 .23-.18l.13-.1v.05c0-.05.21 0 .17-.15z" fill="#fff"/><path d="m81.72 150.76a.23.23 0 0 1 -.18.13c.03-.08.1-.08.18-.13z" fill="#fff"/><path d="m89.05 153.36.01-.04.05.04z" fill="#fff"/><path d="m89 153.44h-.07s.07-.02.07 0z" fill="#fff"/><g mask="url(#d)"><path d="m293.48 125.89a1.67 1.67 0 0 1 -1.28-.67l-5.78-6.7a2.29 2.29 0 0 1 .12-2.9 1.62 1.62 0 0 1 2.51.14l4.51 5.09 15.55-15.72c.78-.82 1.4-1.32 1.71-1 .33.37.11 1.08-.55 2l-15.47 19.12a1.68 1.68 0 0 1 -1.27.62z" fill="#e60012"/></g><path d="m89.72 114.36a8 8 0 0 1 -10 10.46 8 8 0 0 1 -1.25-14.55 8 8 0 0 1 11.21 4.09z" fill="#fff"/><path d="m81.92 113c.28-.08.64-.3.92-.08s.74.4.59.82a5.42 5.42 0 0 0 1 1c.08 0 .11 0 .15-.08h-.1c.11-.1.39.07.57 0a.45.45 0 0 1 .36.14c.09.14.1.3.22.44h.06c.09.14.12.28.22.41.59.2.87.92 1.4 1.22a8.72 8.72 0 0 0 2.07 1.25c0 .1.08.1.13.13a.5.5 0 0 0 -.33-.07c.1.15.35.08.4.25h-.26c0 .05.06.05.09.07-.13 0-.26 0-.34-.12a11.31 11.31 0 0 1 -1.52-.87 6.66 6.66 0 0 0 1.33.88c.15.09.36.14.45.29s-.14 0-.15.08l-.12-.07s0 0 0 .07l.09.07a7.57 7.57 0 0 1 -1.7-1c-.24-.17-.49-.3-.74-.49 0 0-.08 0-.1 0 .28.21.58.35.86.55a4.64 4.64 0 0 1 -1.53-1.12c-.18-.18-.45-.57-.76-.5-.11.07-.29 0-.43.12s-.18-.12-.28 0-.34 0-.39.24-.46 0-.51.21v.09c-.33.15-.78.1-1 .41-.06.07-.2 0-.26.07a.06.06 0 0 0 0-.07c-.08 0-.13 0-.2.07s.07-.1 0-.15-.21.13-.33.2c0-.13.17-.15.22-.27s-.15 0-.22 0 .1-.13 0-.13c.08-.13.26-.08.31-.23h-.19l.4-.32s-.15-.13-.23 0 0 0 0-.05-.14.05-.23.05 0-.05 0-.06l.18-.17c.25-.15.49-.32.74-.44a.17.17 0 0 0 -.26 0c.21 0 0-.25.23-.28a.68.68 0 0 1 .32-.4c-.21-.2-.29-.56-.54-.68 0-.15-.16 0-.18-.15-.3 0-.64.13-.84-.13a1.16 1.16 0 0 0 -.49 0 1.88 1.88 0 0 0 -.27.42 1.58 1.58 0 0 0 -.29.41 1.32 1.32 0 0 1 -.59.53c-.19.25-.58.15-.81.42v-.07a.13.13 0 0 0 -.16.1c-.12 0-.2.1-.25.17-.28.3-.74.3-1 .55-.54.12-.8.54-1.16.94a3 3 0 0 1 -.4.4c0 .13-.16.18-.23.25.07-.12.21-.22.23-.35-.13.06-.16.21-.31.28s.08-.12 0-.18l-.2.15.18-.25c-.09 0-.19.18-.31.2s-.08 0-.15 0a3.29 3.29 0 0 0 .28-.27c-.11-.06-.24.09-.33.07s0-.1-.09-.07a.43.43 0 0 0 .19-.21c-.06 0-.14 0-.21.06s.18-.13.13-.26c-.21 0-.18.18-.36.23.18-.25.44-.4.62-.67a4.44 4.44 0 0 1 1.2-.87c.35-.2.81-.3 1-.63a3 3 0 0 0 .27-.39s.02-.16.02-.16a1.54 1.54 0 0 1 .8-.25c.14-.13.38 0 .48-.23.35-.42.48-.94.78-1.35.09-.14.21-.35.41-.4a8.39 8.39 0 0 1 1.45.23z" fill="#00a19b"/><path d="m82.25 115.88c-.08.07-.25.12-.27.22s-.24.13-.36.13.22 0 .23-.18l.15-.05s.21 0 .17-.15z" fill="#00a19b"/><path d="m81.72 116a.23.23 0 0 1 -.18.13c.03-.13.1-.13.18-.13z" fill="#00a19b"/><path d="m89.05 118.58.01-.03.05.03z" fill="#009e96"/><path d="m89.22 118.61h-.23l.06-.12z" fill="#009e96"/><path d="m89 118.66h-.07s.07-.01.07 0z" fill="#009e96"/><path d="m89.07 118.7h-.19v-.16l.06.06s0 0 0 0z" fill="#009e96"/><path d="m89.72 215.05a8 8 0 1 1 -11.21-4.05 8 8 0 0 1 11.21 4.1z" fill="#fff"/><path d="m81.92 213.72c.28-.08.64-.3.92-.08s.74.4.59.81a5.8 5.8 0 0 0 1 1c.08 0 .11 0 .15-.09h-.1c.11-.1.39.07.57 0a.43.43 0 0 1 .36.15c.09.13.1.3.22.43h.06c.09.15.12.28.22.42.59.2.87.91 1.4 1.21a8.11 8.11 0 0 0 2.07 1.25c0 .1.08.1.13.14a.5.5 0 0 0 -.33-.07c.1.16.35.09.4.25h-.26c0 .05.06.05.09.07-.13 0-.26.05-.34-.12a11.25 11.25 0 0 1 -1.52-.86 7.13 7.13 0 0 0 1.33.88c.15.08.36.13.45.28s-.14 0-.15.08l-.12-.06s0 .05 0 .06l.09.07a6.89 6.89 0 0 1 -1.7-1c-.24-.16-.49-.3-.74-.48 0 0-.08 0-.1 0 .28.22.58.35.86.55a4.61 4.61 0 0 1 -1.53-1.11c-.18-.19-.45-.57-.76-.5-.11.06-.29.05-.43.11s-.18-.11-.28 0-.34 0-.39.23-.46 0-.51.22v.08c-.33.15-.78.1-1 .42-.06.07-.2 0-.26.07a.05.05 0 0 0 0-.07c-.08 0-.13.05-.2.07s.07-.1 0-.15-.21.13-.33.2c0-.14.17-.15.22-.27s-.15 0-.22.05.1-.13 0-.13c.08-.14.26-.09.31-.24h-.19l.4-.31s-.15-.14-.23 0 0 0 0 0-.14 0-.23 0 0 0 0-.07a2.32 2.32 0 0 0 .16-.21c.25-.15.49-.31.74-.43v-.05a.17.17 0 0 0 -.26 0c.21 0 0-.25.23-.28a.62.62 0 0 1 .32-.4c-.21-.2-.29-.57-.54-.69 0-.15-.16 0-.18-.15-.3 0-.64.14-.84-.13a1.35 1.35 0 0 0 -.49 0 2.13 2.13 0 0 0 -.27.42 1.64 1.64 0 0 0 -.29.42 1.32 1.32 0 0 1 -.59.53c-.19.25-.58.15-.81.41v-.06a.13.13 0 0 0 -.16.1c-.12 0-.2.1-.25.17-.28.3-.74.3-1 .55-.54.12-.8.53-1.16.93a2.16 2.16 0 0 1 -.4.4c0 .14-.16.18-.23.25.07-.11.21-.21.23-.35-.13.07-.16.22-.31.28s.08-.11 0-.18l-.2.15.18-.25c-.09 0-.19.19-.31.2s-.08.05-.15.05a3.29 3.29 0 0 0 .28-.27c-.11-.07-.24.08-.33.07s0-.1-.09-.07c.08-.07.16-.12.19-.22s-.14 0-.21.07.18-.13.13-.27c-.21 0-.18.19-.36.24.18-.25.44-.4.62-.67a4.63 4.63 0 0 1 1.2-.86c.35-.2.81-.3 1-.64a3 3 0 0 0 .27-.38s.06 0 .08-.07a1.54 1.54 0 0 1 .8-.25c.14-.13.38-.05.48-.23.35-.42.48-.93.78-1.35.09-.13.21-.35.41-.4a8.4 8.4 0 0 1 1.41.13z" fill="#00a19b"/><path d="m82.25 216.57c-.08.06-.25.11-.27.21s-.24.14-.36.14.22 0 .23-.19l.13-.1v.05c0-.05.21 0 .17-.15z" fill="#00a19b"/><path d="m81.72 216.67a.28.28 0 0 1 -.18.13c.03-.08.1-.08.18-.13z" fill="#00a19b"/><path d="m89.05 219.26.01-.03.05.03z" fill="#009e96"/><path d="m89.22 219.3h-.23l.06-.12z" fill="#009e96"/><path d="m89 219.35h-.07z" fill="#009e96"/><path d="m89.07 219.38h-.19v-.15l.06.06z" fill="#009e96"/><path d="m89.72 250.14a8 8 0 0 1 -10 10.46 8 8 0 0 1 -1.25-14.55 8 8 0 0 1 11.21 4.09z" fill="#00a19b"/><path d="m81.92 248.81c.28-.08.64-.3.92-.08s.74.4.59.81a5.8 5.8 0 0 0 1 1c.08 0 .11 0 .15-.08h-.1c.11-.1.39.06.57 0a.46.46 0 0 1 .36.15c.09.14.1.3.22.44h.06a4.13 4.13 0 0 0 .22.42c.59.2.87.91 1.4 1.21a8.11 8.11 0 0 0 2.07 1.25c0 .1.08.1.13.14a.44.44 0 0 0 -.33-.06c.1.15.35.08.4.25h-.26c0 .05.06.05.09.06-.13-.05-.26.05-.34-.11a12.5 12.5 0 0 1 -1.52-.87 7.13 7.13 0 0 0 1.33.88c.15.08.36.13.45.28s-.14 0-.15.09l-.12-.07s0 .05 0 .07l.09.06a6.89 6.89 0 0 1 -1.7-1c-.24-.16-.49-.3-.74-.48 0 0-.08 0-.1 0 .28.22.58.35.86.55a4.61 4.61 0 0 1 -1.53-1.11c-.18-.19-.45-.57-.76-.5-.11.06-.29.05-.43.11s-.18-.11-.28 0-.34 0-.39.23-.46 0-.51.22v.08c-.33.15-.78.1-1 .42-.06.07-.2 0-.26.07a.05.05 0 0 0 0-.07c-.08 0-.13 0-.2.07s.07-.1 0-.15-.21.13-.33.2c0-.14.17-.15.22-.27s-.15 0-.22.05.1-.13 0-.13c.08-.14.26-.09.31-.24h-.19l.4-.31s-.15-.14-.23 0 0 0 0 0-.14 0-.23 0 0 0 0-.07a2.32 2.32 0 0 0 .18-.16c.25-.15.49-.31.74-.43v-.05a.17.17 0 0 0 -.26 0c.21 0 0-.25.23-.28a.65.65 0 0 1 .32-.4c-.21-.2-.29-.57-.54-.68 0-.15-.16 0-.18-.15-.3 0-.64.13-.84-.14a1.16 1.16 0 0 0 -.49 0 1.82 1.82 0 0 0 -.27.41 1.64 1.64 0 0 0 -.29.42 1.32 1.32 0 0 1 -.59.53c-.19.25-.58.15-.81.42v-.07a.13.13 0 0 0 -.16.1c-.12 0-.2.1-.25.17-.28.3-.74.3-1 .55-.54.12-.8.53-1.16.93a2.16 2.16 0 0 1 -.4.4c0 .14-.16.19-.23.25.07-.11.21-.21.23-.35-.13.07-.16.22-.31.29s.08-.12 0-.19l-.2.15.18-.25c-.09 0-.19.19-.31.2s-.08.05-.15.05a3.29 3.29 0 0 0 .28-.27c-.11-.07-.24.08-.33.07s0-.1-.09-.07c.08-.07.16-.12.19-.22s-.14 0-.21.07.18-.13.13-.27c-.21 0-.18.19-.36.24.18-.25.44-.4.62-.67a4.63 4.63 0 0 1 1.2-.86c.35-.2.81-.3 1-.63a3 3 0 0 0 .27-.39s.06 0 .08-.06a1.54 1.54 0 0 1 .8-.25c.14-.14.38-.05.48-.24.35-.41.48-.93.78-1.35.09-.13.21-.35.41-.4a8.4 8.4 0 0 1 1.39.07z" fill="#fff"/><path d="m82.25 251.66c-.08.06-.25.12-.27.21s-.24.14-.36.14.22 0 .23-.19l.13-.1v.06c0-.06.21 0 .17-.15z" fill="#fff"/><path d="m81.72 251.76a.28.28 0 0 1 -.18.13c.03-.08.1-.08.18-.13z" fill="#fff"/><path d="m89.05 254.36.01-.04.05.04z" fill="#fff"/><path d="m89 254.44h-.07s.07-.02.07 0z" fill="#fff"/><path d="m66.27 302.7a8 8 0 0 1 -10 10.46 8 8 0 0 1 -1.25-14.56 8 8 0 0 1 11.21 4.1z" fill="#fff"/><path d="m58.46 301.37c.28-.09.64-.3.93-.09s.74.4.59.82a5.37 5.37 0 0 0 1 1c.08 0 .12 0 .15-.08h-.1c.12-.1.4.07.58 0a.44.44 0 0 1 .36.15 2.84 2.84 0 0 0 .21.43h.07a2.63 2.63 0 0 0 .21.41c.6.2.88.92 1.4 1.22a8.46 8.46 0 0 0 2.08 1.25c0 .1.08.1.13.13a.5.5 0 0 0 -.33-.07c.1.15.34.09.39.25h-.26c0 .05.07.05.1.07-.13 0-.26.05-.35-.12a11.14 11.14 0 0 1 -1.51-.86 6.32 6.32 0 0 0 1.34.88c.14.09.36.14.44.29s-.13 0-.15.08l-.11-.06s0 0 0 .06l.08.07a7.16 7.16 0 0 1 -1.69-1c-.25-.17-.5-.3-.74-.48 0 0-.09 0-.1 0 .28.22.57.35.85.55a4.64 4.64 0 0 1 -1.53-1.12c-.18-.18-.44-.56-.75-.5-.12.07-.3.05-.43.12s-.18-.12-.28 0-.35 0-.4.23-.46 0-.51.22v.08c-.33.15-.77.1-1 .42-.07.06-.2 0-.27.06s0-.06 0-.06-.13.05-.19.06.06-.1.05-.15-.22.14-.33.2c0-.13.16-.15.21-.26s-.15 0-.21.05.09-.14 0-.14c.08-.13.26-.08.31-.23h-.13l.39-.32c-.05 0-.15-.13-.23 0s0 0 0-.05-.15.05-.23.05a.07.07 0 0 0 0-.07s.11-.12.18-.17a8.26 8.26 0 0 1 .74-.43.16.16 0 0 0 -.26 0c.21 0 0-.25.23-.29a.69.69 0 0 1 .33-.4c-.21-.2-.3-.56-.54-.68 0-.15-.17 0-.18-.15-.3 0-.65.13-.84-.13a1.4 1.4 0 0 0 -.5 0 1.54 1.54 0 0 0 -.26.42 1.61 1.61 0 0 0 -.3.41 1.35 1.35 0 0 1 -.59.54c-.18.25-.58.15-.81.42v-.07a.16.16 0 0 0 -.17.1c-.11 0-.19.1-.24.16-.28.3-.74.3-1 .55-.54.11-.81.53-1.17.93a2.11 2.11 0 0 1 -.39.4c0 .13-.17.18-.23.25.06-.12.21-.22.23-.35-.14.07-.17.22-.32.28s.09-.11 0-.18l-.2.15.18-.25c-.1 0-.2.18-.31.2a.17.17 0 0 1 -.15.05l.28-.26c-.12-.07-.25.08-.33.06s0-.1-.1-.06c.08-.07.17-.12.2-.22s-.15 0-.22.07.19-.14.14-.27c-.22 0-.18.18-.37.23.19-.25.45-.4.63-.66a5 5 0 0 1 1.2-.87c.35-.2.81-.3 1.06-.63a2.86 2.86 0 0 0 .26-.38c.05 0 .07 0 .08-.07a1.54 1.54 0 0 1 .81-.25c.13-.13.38-.05.48-.23.34-.42.47-.93.77-1.35.1-.13.21-.35.41-.4a7.38 7.38 0 0 1 1.23.04z" fill="#00a19b"/><path d="m58.79 304.21c-.08.07-.24.12-.26.22s-.25.13-.36.13.21-.05.23-.18l.13-.1v.05c.05-.05.21 0 .16-.15z" fill="#00a19b"/><path d="m58.27 304.31a.28.28 0 0 1 -.18.14c.03-.09.09-.09.18-.14z" fill="#00a19b"/><path d="m65.59 306.91.02-.03.05.03z" fill="#009e96"/><path d="m65.77 306.95h-.24l.06-.12z" fill="#009e96"/><path d="m65.52 307h-.06s.05 0 .06 0z" fill="#009e96"/><path d="m65.61 307h-.19v-.15l.06.06z" fill="#009e96"/><path d="m17.61 377.12h350.21v31.89h-350.21z" fill="#00a19b"/><path d="m112.22 390.14a8 8 0 0 1 -10 10.46 8 8 0 0 1 -1.22-14.55 8 8 0 0 1 11.21 4.09z" fill="#fff"/><path d="m104.41 388.81c.28-.08.65-.3.93-.08s.74.4.59.81a5.75 5.75 0 0 0 .95 1 .14.14 0 0 0 .15-.09l-.1-.05c.12-.1.4.07.58 0a.44.44 0 0 1 .36.15 2.84 2.84 0 0 0 .21.43h.07c.08.15.12.28.21.42.6.2.88.91 1.4 1.21a8.34 8.34 0 0 0 2.08 1.25c0 .1.08.1.13.14a.44.44 0 0 0 -.33-.06c.1.15.34.08.39.25h-.26s.07 0 .1.06c-.13-.05-.26 0-.35-.11a12.37 12.37 0 0 1 -1.51-.87 7.2 7.2 0 0 0 1.34.88c.14.08.36.13.44.28s-.13 0-.15.09l-.11-.07s0 .05 0 .07l.08.06a6.83 6.83 0 0 1 -1.69-1c-.25-.16-.5-.3-.74-.48 0 0-.08 0-.1 0 .28.22.57.35.85.55a4.71 4.71 0 0 1 -1.53-1.11c-.18-.19-.44-.57-.75-.5-.12.06-.3.05-.43.11s-.18-.11-.28 0-.35 0-.4.23-.46 0-.51.22v.08c-.33.15-.77.1-1 .42-.07.07-.2 0-.27.07s0-.07 0-.07-.13.05-.19.07.06-.1 0-.15-.22.13-.33.2c0-.14.16-.15.21-.27s-.15 0-.21.05.1-.13 0-.13c.08-.14.26-.09.31-.24h-.13c.13-.1.28-.21.39-.31-.05 0-.15-.14-.23 0s0 0 0-.05-.15.05-.23.05 0-.05 0-.07.11-.11.18-.16c.25-.15.5-.31.75-.43a.17.17 0 0 0 -.26 0c.22 0 0-.25.23-.28a.64.64 0 0 1 .33-.4c-.21-.2-.3-.57-.54-.68 0-.15-.17 0-.18-.15-.3 0-.65.13-.84-.14a1.2 1.2 0 0 0 -.5 0 1.49 1.49 0 0 0 -.26.41 1.67 1.67 0 0 0 -.3.42 1.27 1.27 0 0 1 -.59.53c-.18.25-.57.15-.8.41v-.06a.14.14 0 0 0 -.17.1c-.11 0-.19.1-.24.17-.28.3-.74.3-1 .55-.54.12-.81.53-1.17.93a2.11 2.11 0 0 1 -.39.4c0 .14-.17.19-.23.25.06-.11.21-.21.23-.35-.14.07-.17.22-.32.29s.09-.12 0-.19l-.2.15.18-.25c-.1 0-.2.19-.31.2s-.08.05-.15.05a3.29 3.29 0 0 0 .28-.27c-.12-.07-.25.08-.33.07s0-.1-.1-.07c.08-.07.17-.12.2-.22a.47.47 0 0 0 -.22.07c0-.08.19-.13.14-.27-.22 0-.18.19-.36.24.18-.25.44-.4.62-.67a5 5 0 0 1 1.2-.86c.35-.2.81-.3 1.06-.64a2.14 2.14 0 0 0 .26-.38s.07 0 .08-.07a1.54 1.54 0 0 1 .81-.25c.13-.13.38 0 .48-.23.34-.41.47-.93.77-1.35.1-.13.21-.35.41-.4a8.22 8.22 0 0 1 1.31.09z" fill="#00a19b"/><path d="m104.74 391.66c-.08.06-.24.11-.26.21s-.25.14-.36.14.21-.05.23-.19l.13-.1s.21 0 .16-.15z" fill="#00a19b"/><path d="m104.22 391.76a.3.3 0 0 1 -.18.13c.03-.08.09-.08.18-.13z" fill="#00a19b"/><path d="m111.54 394.36.02-.04.05.04z" fill="#009e96"/><path d="m111.72 394.39h-.24l.06-.12z" fill="#009e96"/><path d="m111.47 394.44h-.06s.05-.02.06 0z" fill="#009e96"/><path d="m111.56 394.47h-.19v-.15l.06.06z" fill="#009e96"/><path d="m66.27 337.17a8 8 0 0 1 -10 10.46 8 8 0 0 1 -1.25-14.56 8 8 0 0 1 11.21 4.1z" fill="#00a19b"/><path d="m58.46 335.84c.28-.08.64-.3.93-.08s.74.4.59.81a5.75 5.75 0 0 0 1 1 .15.15 0 0 0 .15-.09l-.1-.05c.12-.1.4.07.58 0a.44.44 0 0 1 .36.15 2.84 2.84 0 0 0 .21.43h.07a3.29 3.29 0 0 0 .21.42c.6.2.88.91 1.4 1.21a8.16 8.16 0 0 0 2.08 1.25c0 .1.08.1.13.14a.44.44 0 0 0 -.33-.06c.1.15.34.08.39.24h-.26c0 .06.07.06.1.07-.13-.05-.26.05-.35-.11a12.37 12.37 0 0 1 -1.51-.87 7.2 7.2 0 0 0 1.34.88c.14.08.36.13.44.28s-.13 0-.15.08l-.11-.06s0 0 0 .06l.08.07a6.83 6.83 0 0 1 -1.69-1c-.25-.16-.5-.3-.74-.48 0 0-.09 0-.1 0 .28.22.57.35.85.55a4.61 4.61 0 0 1 -1.53-1.11c-.18-.19-.44-.57-.75-.5-.12.06-.3.05-.43.11s-.18-.11-.28 0-.35 0-.4.23-.46 0-.51.22v.08c-.33.15-.77.1-1 .42-.07.07-.2 0-.27.07s0-.07 0-.07-.13.05-.19.07.06-.1.05-.15-.22.13-.33.2c0-.14.16-.15.21-.27s-.15 0-.21 0 .09-.13 0-.13c.08-.14.26-.09.31-.24h-.13c.13-.1.28-.21.39-.31-.05 0-.15-.14-.23 0s0 0 0-.05-.15.05-.23.05a.07.07 0 0 0 0-.07s.11-.11.18-.16c.25-.15.5-.31.74-.43v-.05a.17.17 0 0 0 -.26 0c.21 0 0-.25.23-.28a.64.64 0 0 1 .33-.4c-.21-.2-.3-.57-.54-.68 0-.15-.17 0-.18-.15-.3 0-.65.13-.84-.14a1.2 1.2 0 0 0 -.5 0 1.49 1.49 0 0 0 -.26.41 1.67 1.67 0 0 0 -.3.42 1.27 1.27 0 0 1 -.59.53c-.18.25-.58.15-.81.41v-.06a.14.14 0 0 0 -.17.1c-.11 0-.19.1-.24.17-.28.3-.74.3-1 .55-.54.12-.81.53-1.17.93a2.11 2.11 0 0 1 -.39.4c0 .14-.17.19-.23.25.06-.11.21-.21.23-.35-.14.07-.17.22-.32.29s.09-.12 0-.19l-.2.15.18-.25c-.1 0-.2.19-.31.2a.17.17 0 0 1 -.15 0l.28-.27c-.12-.07-.25.08-.33.07s0-.1-.1-.07c.08-.07.17-.12.2-.22a.47.47 0 0 0 -.22.07c0-.08.19-.13.14-.27-.22 0-.18.19-.37.24.19-.25.45-.4.63-.67a5 5 0 0 1 1.2-.86c.35-.2.81-.3 1.06-.64a2.86 2.86 0 0 0 .26-.38c.05 0 .07 0 .08-.07a1.54 1.54 0 0 1 .81-.25c.13-.13.38-.05.48-.23.34-.41.47-.93.77-1.35.1-.13.21-.35.41-.4a8.22 8.22 0 0 1 1.23.24z" fill="#fff"/><path d="m58.79 338.69c-.08.06-.24.11-.26.21s-.25.14-.36.14.21-.05.23-.19l.13-.1v.05c.05-.05.21 0 .16-.15z" fill="#fff"/><path d="m58.27 338.79a.3.3 0 0 1 -.18.13c.03-.08.09-.08.18-.13z" fill="#fff"/><path d="m65.59 341.38.02-.03.05.03z" fill="#fff"/><path d="m65.77 341.42h-.24l.06-.12z" fill="#009e96"/><path d="m65.52 341.47h-.06s.05-.02.06 0z" fill="#fff"/><path d="m65.61 341.5h-.19v-.15l.06.06z" fill="#009e96"/><path d="m367.85 443.48h-1.03v-.05h.97v-.97h.06z" fill="#231815"/><path d="m364.83 443.48h-2v-.05h2zm-4 0h-2v-.05h2zm-4 0h-2v-.05h2zm-4 0h-2v-.05h2zm-4 0h-2v-.05h2zm-4 0h-2v-.05h2zm-4 0h-2v-.05h2zm-4 0h-2v-.05h2zm-4 0h-2v-.05h2zm-4 0h-2v-.05h2zm-4 0h-2v-.05h2zm-4 0h-2v-.05h2zm-4 0h-2v-.05h2zm-4 0h-2v-.05h2zm-4 0h-2v-.05h2zm-4 0h-2v-.05h2zm-4 0h-2v-.05h2zm-4 0h-2v-.05h2zm-4 0h-2v-.05h2zm-4 0h-2v-.05h2zm-4 0h-2v-.05h2zm-4 0h-2v-.05h2zm-4 0h-2v-.05h2zm-4 0h-2v-.05h2zm-4 0h-2v-.05h2zm-4 0h-2v-.05h2zm-4 0h-2v-.05h2zm-4 0h-2v-.05h2zm-4 0h-2v-.05h2zm-4 0h-2v-.05h2zm-4 0h-2v-.05h2zm-4 0h-2v-.05h2zm-4 0h-2v-.05h2zm-4 0h-2v-.05h2zm-4 0h-2v-.05h2zm-4 0h-2v-.05h2zm-4 0h-2v-.05h2zm-4 0h-2v-.05h2zm-4 0h-2v-.05h2zm-4 0h-2v-.05h2zm-4 0h-2v-.05h2zm-4 0h-2v-.05h2zm-4 0h-2v-.05h2zm-4 0h-2v-.05h2zm-4 0h-2v-.05h2zm-4 0h-2v-.05h2zm-4 0h-2v-.05h2zm-4 0h-2v-.05h2zm-4 0h-2v-.05h2zm-4 0h-2v-.05h2zm-4 0h-2v-.05h2zm-4 0h-2v-.05h2zm-4 0h-2v-.05h2zm-4 0h-2v-.05h2zm-4 0h-2v-.05h2zm-4 0h-2v-.05h2zm-4 0h-2v-.05h2zm-4 0h-2v-.05h2zm-4 0h-2v-.05h2zm-4 0h-2v-.05h2zm-4 0h-2v-.05h2zm-4 0h-2v-.05h2zm-4 0h-2v-.05h2zm-4 0h-2v-.05h2zm-4 0h-2v-.05h2zm-4 0h-2v-.05h2zm-4 0h-2v-.05h2zm-4 0h-2v-.05h2zm-4 0h-2v-.05h2zm-4 0h-2v-.05h2zm-4 0h-2v-.05h2zm-4 0h-2v-.05h2zm-4 0h-2v-.05h2zm-4 0h-2v-.05h2zm-4 0h-2v-.05h2zm-4 0h-2v-.05h2zm-4 0h-2v-.05h2zm-4 0h-2v-.05h2zm-4 0h-2v-.05h2zm-4 0h-2v-.05h2zm-4 0h-2v-.05h2zm-4 0h-2v-.05h2zm-4 0h-2v-.05h2zm-4 0h-2v-.05h2zm-4 0h-2v-.05h2zm-4 0h-2v-.05h2zm-4 0h-2v-.05h2z" fill="#231815"/><path d="m18.61 443.48h-1.02v-1.02h.05v.97h.97z" fill="#231815"/><path d="m17.64 440.47h-.05v-2h.05zm0-4h-.05v-2h.05zm0-4h-.05v-2h.05zm0-4h-.05v-2h.05zm0-4h-.05v-2h.05zm0-4h-.05v-2h.05zm0-4h-.05v-2h.05z" fill="#231815"/><path d="m17.64 412.57h-.05v-1.02h1.02v.05h-.97z" fill="#231815"/><path d="m364.83 411.6h-2v-.05h2zm-4 0h-2v-.05h2zm-4 0h-2v-.05h2zm-4 0h-2v-.05h2zm-4 0h-2v-.05h2zm-4 0h-2v-.05h2zm-4 0h-2v-.05h2zm-4 0h-2v-.05h2zm-4 0h-2v-.05h2zm-4 0h-2v-.05h2zm-4 0h-2v-.05h2zm-4 0h-2v-.05h2zm-4 0h-2v-.05h2zm-4 0h-2v-.05h2zm-4 0h-2v-.05h2zm-4 0h-2v-.05h2zm-4 0h-2v-.05h2zm-4 0h-2v-.05h2zm-4 0h-2v-.05h2zm-4 0h-2v-.05h2zm-4 0h-2v-.05h2zm-4 0h-2v-.05h2zm-4 0h-2v-.05h2zm-4 0h-2v-.05h2zm-4 0h-2v-.05h2zm-4 0h-2v-.05h2zm-4 0h-2v-.05h2zm-4 0h-2v-.05h2zm-4 0h-2v-.05h2zm-4 0h-2v-.05h2zm-4 0h-2v-.05h2zm-4 0h-2v-.05h2zm-4 0h-2v-.05h2zm-4 0h-2v-.05h2zm-4 0h-2v-.05h2zm-4 0h-2v-.05h2zm-4 0h-2v-.05h2zm-4 0h-2v-.05h2zm-4 0h-2v-.05h2zm-4 0h-2v-.05h2zm-4 0h-2v-.05h2zm-4 0h-2v-.05h2zm-4 0h-2v-.05h2zm-4 0h-2v-.05h2zm-4 0h-2v-.05h2zm-4 0h-2v-.05h2zm-4 0h-2v-.05h2zm-4 0h-2v-.05h2zm-4 0h-2v-.05h2zm-4 0h-2v-.05h2zm-4 0h-2v-.05h2zm-4 0h-2v-.05h2zm-4 0h-2v-.05h2zm-4 0h-2v-.05h2zm-4 0h-2v-.05h2zm-4 0h-2v-.05h2zm-4 0h-2v-.05h2zm-4 0h-2v-.05h2zm-4 0h-2v-.05h2zm-4 0h-2v-.05h2zm-4 0h-2v-.05h2zm-4 0h-2v-.05h2zm-4 0h-2v-.05h2zm-4 0h-2v-.05h2zm-4 0h-2v-.05h2zm-4 0h-2v-.05h2zm-4 0h-2v-.05h2zm-4 0h-2v-.05h2zm-4 0h-2v-.05h2zm-4 0h-2v-.05h2zm-4 0h-2v-.05h2zm-4 0h-2v-.05h2zm-4 0h-2v-.05h2zm-4 0h-2v-.05h2zm-4 0h-2v-.05h2zm-4 0h-2v-.05h2zm-4 0h-2v-.05h2zm-4 0h-2v-.05h2zm-4 0h-2v-.05h2zm-4 0h-2v-.05h2zm-4 0h-2v-.05h2zm-4 0h-2v-.05h2zm-4 0h-2v-.05h2zm-4 0h-2v-.05h2zm-4 0h-2v-.05h2zm-4 0h-2v-.05h2zm-4 0h-2v-.05h2z" fill="#231815"/><path d="m367.85 412.57h-.06v-.97h-.97v-.05h1.03z" fill="#231815"/><path d="m367.84 440.47v-2zm0-4v-2zm0-4v-2zm0-4v-2zm0-4v-2zm0-4v-2zm0-4v-2z" fill="#231815"/><path d="m65.35 408.55-.07-.22.07.19z" fill="#fff"/><path d="m59.23 409.03v-.02h.05z" fill="#fff"/><path d="m58.89 409.12-.1.07z" fill="#fff"/><path d="m58.13 409.71-.05.03z" fill="#fff"/><path d="m120.75 388.83h6.17v1.4h-4.5v1.85h4.19v1.41h-4.19v2.26h4.65v1.4h-6.32z" fill="#fff100"/><path d="m134.36 394.29a1.71 1.71 0 0 0 1.82 1.59c1.17 0 1.64-.61 1.64-1.15 0-.69-.58-.84-2.12-1.22-.82-.21-2.66-.66-2.66-2.5 0-.9.59-2.32 3-2.32 1.63 0 3.12.64 3.19 2.52l-1.68.07c-.08-.43-.2-1.21-1.53-1.21-.5 0-1.4.15-1.4.83s.52.76 1.85 1.08 3 .71 3 2.75a2.45 2.45 0 0 1 -1.36 2.19 4.72 4.72 0 0 1 -2 .37 3 3 0 0 1 -3.43-2.85z" fill="#fff100"/><path d="m144.16 388.83v4.5a3.75 3.75 0 0 0 .21 1.79 1.57 1.57 0 0 0 1.47.73c1.61 0 1.61-1 1.61-2.43v-4.59h1.67v4.37a5.38 5.38 0 0 1 -.46 2.94 3.11 3.11 0 0 1 -2.77 1.15c-3.41 0-3.41-2.1-3.41-4v-4.44z" fill="#fff100"/><path d="m152.55 388.83h1.63l3.38 5.56v-5.56h1.55v8.32h-1.68l-3.33-5.43v5.43h-1.56z" fill="#fff100"/><path d="m165.83 388.83h5.71v1.4h-4v2h3.46v1.41h-3.49v3.53h-1.68z" fill="#fff100"/><path d="m174.37 388.83h1.63v3.28h3.3v-3.28h1.7v8.32h-1.67v-3.64h-3.33v3.64h-1.67z" fill="#fff100"/><path d="m191.14 394.6a3.29 3.29 0 0 1 -3.45 2.69c-2.26 0-3.8-1.64-3.8-4.23 0-2.31 1.18-4.37 3.89-4.37a3.56 3.56 0 0 1 2.55.95 3.24 3.24 0 0 1 .78 1.49l-1.66.39a1.71 1.71 0 0 0 -1.75-1.39c-2.08 0-2.08 2.28-2.08 2.81a4 4 0 0 0 .45 2.1 1.86 1.86 0 0 0 1.6.81c1.12 0 1.63-.85 1.84-1.76z" fill="#fff100"/><path d="m130.7 396.09a1.08 1.08 0 1 0 -1.08 1.07 1.08 1.08 0 0 0 1.08-1.07z" fill="#fff100"/><path d="m206.9 388.81h6.18v1.4h-4.5v1.85h4.18v1.41h-4.18v2.26h4.65v1.41h-6.33z" fill="#fff"/><path d="m220.53 394.28a1.7 1.7 0 0 0 1.81 1.59c1.18 0 1.64-.62 1.64-1.15 0-.7-.58-.85-2.12-1.22-.82-.21-2.66-.67-2.66-2.51 0-.9.59-2.32 3-2.32 1.63 0 3.11.64 3.18 2.52l-1.68.07c-.07-.43-.2-1.21-1.53-1.21-.5 0-1.4.15-1.4.83s.52.76 1.86 1.08 3 .71 3 2.76a2.46 2.46 0 0 1 -1.36 2.19 5 5 0 0 1 -2 .37 3 3 0 0 1 -3.43-2.86z" fill="#fff"/><path d="m230.33 388.81v4.5a3.73 3.73 0 0 0 .21 1.79 1.57 1.57 0 0 0 1.48.73c1.6 0 1.6-1 1.6-2.43v-4.59h1.67v4.37a5.42 5.42 0 0 1 -.46 2.95 3.14 3.14 0 0 1 -2.77 1.15c-3.41 0-3.41-2.11-3.41-4v-4.44z" fill="#fff"/><path d="m238.73 388.81h1.62l3.39 5.56v-5.56h1.56v8.33h-1.68l-3.33-5.44v5.44h-1.55z" fill="#fff"/><path d="m216.86 396.07a1.08 1.08 0 1 0 -1.08 1.08 1.08 1.08 0 0 0 1.08-1.08z" fill="#fff"/><path d="m255.19 390.5a3 3 0 0 1 1 .13.75.75 0 0 1 .46.78.81.81 0 0 1 -.35.75 1.64 1.64 0 0 1 -.88.21h-2v-1.87zm.26 3.26a2.09 2.09 0 0 1 .84.14.92.92 0 0 1 .54.91 1.07 1.07 0 0 1 -.55 1.05 2 2 0 0 1 -.86.14h-2v-2.24zm.3-4.71h-4.06v8.4h3.79a5.48 5.48 0 0 0 1.18-.12 2.16 2.16 0 0 0 .95-.42 2.12 2.12 0 0 0 .6-.66 2.48 2.48 0 0 0 .37-1.33 2.22 2.22 0 0 0 -.33-1.23 1.78 1.78 0 0 0 -.95-.74 2 2 0 0 0 .63-.48 1.93 1.93 0 0 0 .38-1.24 2.09 2.09 0 0 0 -.39-1.28 2.55 2.55 0 0 0 -2.17-.9z" fill="#fff"/><path d="m264.11 391 1.06 3.31h-2.17zm-4 6.48h1.89l.57-1.73h3.09l.55 1.73h1.91l-3-8.4h-2z" fill="#fff"/><path d="m269.78 389.05h1.82l3.33 5.85v-5.85h1.62v8.4h-1.74l-3.41-6v6h-1.62z" fill="#fff"/><path d="m279.75 389.05h1.75v3.46l3.24-3.46h2.26l-3.43 3.46 3.61 4.94h-2.26l-2.58-3.66-.84.85v2.81h-1.75z" fill="#fff"/><path d="m112.22 424.63a8 8 0 0 1 -10 10.46 8 8 0 0 1 -1.22-14.55 8 8 0 0 1 11.21 4.09z" fill="#00a19b"/><path d="m104.41 423.3c.28-.08.65-.3.93-.08s.74.4.59.81a5.75 5.75 0 0 0 .95 1c.09 0 .12 0 .15-.08l-.1-.05c.12-.1.4.06.58 0a.47.47 0 0 1 .36.15 2.44 2.44 0 0 0 .21.43h.07c.08.15.12.28.21.42.6.2.88.91 1.4 1.21a8.34 8.34 0 0 0 2.08 1.25c0 .1.08.1.13.14a.44.44 0 0 0 -.33-.06c.1.15.34.08.39.25h-.26c0 .05.07.05.1.06-.13 0-.26.05-.35-.11a12.37 12.37 0 0 1 -1.51-.87 7.2 7.2 0 0 0 1.34.88c.14.08.36.13.44.28s-.13 0-.15.09l-.11-.07s0 .05 0 .07l.08.06a6.83 6.83 0 0 1 -1.69-1c-.25-.16-.5-.3-.74-.48 0 0-.08 0-.1 0 .28.22.57.35.85.55a4.71 4.71 0 0 1 -1.53-1.11c-.18-.19-.44-.57-.75-.5-.12.06-.3.05-.43.11s-.18-.11-.28 0-.35 0-.4.23-.46 0-.51.22v.08c-.33.15-.77.1-1 .42-.07.07-.2 0-.27.07s0-.07 0-.07-.13.05-.19.07.06-.1 0-.15-.22.13-.33.2c0-.14.16-.15.21-.27s-.15 0-.21.05.1-.13 0-.13c.08-.14.26-.09.31-.24h-.13c.13-.1.28-.21.39-.31-.05 0-.15-.14-.23 0s0 0 0 0-.15 0-.23 0 0 0 0-.07.11-.11.18-.16c.25-.15.5-.31.75-.43v-.05a.17.17 0 0 0 -.26 0c.22 0 0-.25.23-.28a.66.66 0 0 1 .33-.4c-.21-.2-.3-.57-.54-.68 0-.15-.17 0-.18-.15-.3 0-.65.13-.84-.14a1.2 1.2 0 0 0 -.5 0 1.49 1.49 0 0 0 -.26.41 1.67 1.67 0 0 0 -.3.42 1.27 1.27 0 0 1 -.59.53c-.18.25-.57.15-.8.41v-.06a.14.14 0 0 0 -.17.1c-.11 0-.19.1-.24.17-.28.3-.74.3-1 .55-.54.12-.81.53-1.17.93a2.11 2.11 0 0 1 -.39.4c0 .14-.17.19-.23.25.06-.11.21-.21.23-.35-.14.07-.17.22-.32.29s.09-.12 0-.19l-.2.15.18-.25c-.1 0-.2.19-.31.2s-.08.05-.15.05a3.29 3.29 0 0 0 .28-.27c-.12-.07-.25.08-.33.07s0-.1-.1-.07c.08-.07.17-.12.2-.22a.47.47 0 0 0 -.22.07c0-.08.19-.13.14-.27-.22 0-.18.19-.36.24.18-.25.44-.4.62-.67a5 5 0 0 1 1.2-.86c.35-.2.81-.3 1.06-.64a2.14 2.14 0 0 0 .26-.38s.07 0 .08-.06a1.54 1.54 0 0 1 .81-.25c.13-.14.38 0 .48-.24.34-.41.47-.93.77-1.35.1-.13.21-.35.41-.4a8.22 8.22 0 0 1 1.31.13z" fill="#fff"/><path d="m104.74 426.15c-.08.06-.24.11-.26.21s-.25.14-.36.14.21-.05.23-.19l.13-.1v.05c0-.05.21 0 .16-.15z" fill="#fff"/><path d="m104.22 426.25a.3.3 0 0 1 -.18.13c.03-.08.09-.08.18-.13z" fill="#fff"/><path d="m111.54 428.85.02-.04.05.04z" fill="#009e96"/><path d="m111.72 428.88h-.24l.06-.12z" fill="#009e96"/><path d="m111.47 428.93h-.06s.05-.02.06 0z" fill="#009e96"/><path d="m111.56 429h-.19v-.15l.06.06z" fill="#009e96"/><path d="m120.75 423.32h6.17v1.4h-4.5v1.85h4.19v1.43h-4.19v2.26h4.65v1.4h-6.32z" fill="#00a19b"/><path d="m134.36 428.78a1.71 1.71 0 0 0 1.82 1.59c1.17 0 1.64-.61 1.64-1.15 0-.69-.58-.84-2.12-1.22-.82-.21-2.66-.66-2.66-2.5 0-.9.59-2.32 3-2.32 1.63 0 3.12.64 3.19 2.52l-1.68.07c-.08-.43-.2-1.21-1.53-1.21-.5 0-1.4.15-1.4.83s.52.76 1.85 1.08 3 .71 3 2.75a2.43 2.43 0 0 1 -1.36 2.19 4.72 4.72 0 0 1 -2 .37 3 3 0 0 1 -3.43-2.85z" fill="#00a19b"/><path d="m144.16 423.32v4.5a3.75 3.75 0 0 0 .21 1.79 1.57 1.57 0 0 0 1.47.73c1.61 0 1.61-1 1.61-2.43v-4.59h1.67v4.37a5.38 5.38 0 0 1 -.46 2.94 3.11 3.11 0 0 1 -2.77 1.15c-3.41 0-3.41-2.1-3.41-4v-4.44z" fill="#00a19b"/><path d="m152.55 423.32h1.63l3.38 5.56v-5.56h1.55v8.32h-1.68l-3.33-5.43v5.43h-1.56z" fill="#00a19b"/><path d="m165.83 423.32h5.71v1.4h-4v2h3.46v1.41h-3.49v3.53h-1.68z" fill="#00a19b"/><path d="m174.37 423.32h1.63v3.28h3.3v-3.28h1.7v8.32h-1.67v-3.64h-3.33v3.64h-1.67z" fill="#00a19b"/><path d="m191.14 429.1a3.29 3.29 0 0 1 -3.45 2.68c-2.26 0-3.8-1.64-3.8-4.23 0-2.31 1.18-4.37 3.89-4.37a3.6 3.6 0 0 1 2.55.95 3.24 3.24 0 0 1 .78 1.49l-1.66.39a1.71 1.71 0 0 0 -1.75-1.39c-2.08 0-2.08 2.28-2.08 2.81a4 4 0 0 0 .45 2.1 1.86 1.86 0 0 0 1.6.81c1.12 0 1.63-.85 1.84-1.76z" fill="#00a19b"/><path d="m130.7 430.58a1.08 1.08 0 1 0 -1.08 1.07 1.08 1.08 0 0 0 1.08-1.07z" fill="#00a19b"/><path d="m206.9 423.3h6.18v1.4h-4.5v1.85h4.18v1.45h-4.18v2.26h4.65v1.41h-6.33z" fill="#00a19b"/><path d="m220.53 428.77a1.7 1.7 0 0 0 1.81 1.59c1.18 0 1.64-.62 1.64-1.15 0-.7-.58-.85-2.12-1.22-.82-.21-2.66-.67-2.66-2.5 0-.91.59-2.33 3-2.33 1.63 0 3.11.64 3.18 2.52l-1.68.07c-.07-.43-.2-1.21-1.53-1.21-.5 0-1.4.15-1.4.83 0 .53.52.77 1.86 1.08s3 .71 3 2.76a2.46 2.46 0 0 1 -1.36 2.19 5 5 0 0 1 -2 .37 3 3 0 0 1 -3.43-2.85z" fill="#00a19b"/><path d="m230.33 423.3v4.5a3.73 3.73 0 0 0 .21 1.79 1.57 1.57 0 0 0 1.48.73c1.6 0 1.6-1 1.6-2.43v-4.59h1.67v4.37a5.42 5.42 0 0 1 -.46 2.95 3.14 3.14 0 0 1 -2.77 1.15c-3.41 0-3.41-2.11-3.41-4v-4.47z" fill="#00a19b"/><path d="m238.73 423.3h1.62l3.39 5.56v-5.56h1.56v8.33h-1.68l-3.33-5.44v5.44h-1.55z" fill="#00a19b"/><path d="m216.86 430.56a1.08 1.08 0 1 0 -1.08 1.08 1.08 1.08 0 0 0 1.08-1.08z" fill="#00a19b"/><path d="m255.19 425a3 3 0 0 1 1 .13.76.76 0 0 1 .46.78.81.81 0 0 1 -.35.75 1.64 1.64 0 0 1 -.88.21h-2v-1.87zm.26 3.26a2.09 2.09 0 0 1 .84.14.92.92 0 0 1 .54.91 1.07 1.07 0 0 1 -.55 1.05 2 2 0 0 1 -.86.15h-2v-2.25zm.3-4.71h-4.06v8.4h3.79a6.23 6.23 0 0 0 1.18-.11 2.3 2.3 0 0 0 .95-.43 2.2 2.2 0 0 0 .6-.65 2.54 2.54 0 0 0 .37-1.34 2.22 2.22 0 0 0 -.33-1.23 1.83 1.83 0 0 0 -.95-.74 2 2 0 0 0 .63-.48 1.91 1.91 0 0 0 .38-1.24 2.09 2.09 0 0 0 -.39-1.28 2.55 2.55 0 0 0 -2.17-.91z" fill="#00a19b"/><path d="m264.11 425.46 1.06 3.31h-2.17zm-4 6.48h1.89l.57-1.73h3.09l.55 1.73h1.91l-3-8.4h-2z" fill="#00a19b"/><path d="m269.78 423.54h1.82l3.33 5.85v-5.85h1.62v8.4h-1.74l-3.41-6v6h-1.62z" fill="#00a19b"/><path d="m279.75 423.54h1.75v3.46l3.24-3.46h2.26l-3.43 3.46 3.61 4.94h-2.26l-2.58-3.66-.84.85v2.81h-1.75z" fill="#00a19b"/><path d="m158.63 19.14h2.54v-7.4h1.82v10.02h-1.82v-.83l-7-.02v.85h-1.9v-10.11h1.88v7.49l2.58-.02v-9.08h1.9z" fill="#fff100"/><path d="m141.69 19.74v-3.27h3.9v-1.78l-3.9-.02v-2.58h4.17l.01-1.84h-10.23v1.84h4.12v2.58h-3.86v1.8h3.86v3.27h-4.7v1.81h11.31v-1.81z" fill="#fff100"/><path d="m143.43 17a1.11 1.11 0 0 0 -.77.94 1.14 1.14 0 0 0 .24.83 1.19 1.19 0 0 0 1.22.35 1.17 1.17 0 0 0 .73-.77 1.21 1.21 0 0 0 -.14-.9 1.11 1.11 0 0 0 -1.28-.45z" fill="#fff100"/><path d="m177.79 17.91-1.37-.49h1.74v-1.53h-3.4v-.73h1.65v-1a13.14 13.14 0 0 0 2.68 1.63l1.13-1.76a9.12 9.12 0 0 1 -5.22-3.83l.08-.16-2.23-.22a8.57 8.57 0 0 1 -4.74 4.62l.81 1.79a19.6 19.6 0 0 0 2.4-1.69v.62h1.68v.73h-3.4v1.53h1.92l-1.38.52.65 2h-2.13v1.56h10.44v-1.5h-2.29c.19-.28.93-2 .98-2.09zm-5.42-4.28a15.88 15.88 0 0 0 1.63-1.83 12.26 12.26 0 0 0 1.72 1.83h-3.36zm-1.37 6.37 1.57-.59-.94-2h1.37v2.59zm3.74-2.57h1.34l-.92 2 1.52.6h-1.94z" fill="#fff100"/><path d="m191.28 13.04h3.95v1.1h1.52v-1.1-.37-1.01h-2.74v-1.59h-1.51v1.59h-2.74v1.01.37 1.1h1.52z" fill="#fff100"/><path d="m194 18.16h1.83v-1.08c.11.1.24.19.36.28l1.13-1a6.14 6.14 0 0 1 -2.46-2.72l-1.33.59a9.72 9.72 0 0 0 1.87 2.49h-4.3a9.72 9.72 0 0 0 1.9-2.5l-1.32-.59a6.1 6.1 0 0 1 -2.07 2.47v-1.1l-1.07.24v-1.24h1v-1.53h-1v-2.4h-1.54v2.4h-1.48v1.53h1.48v1.56l-1.7.37.29 1.7 1.41-.39v2.58a.29.29 0 0 1 -.3.3h-.79l.64 1.62h.45a1.52 1.52 0 0 0 1.53-1.53v-3.4l.92-.25.88.79.37-.28v1.08h1.82v2h-2.93v1.45h7.37v-1.47h-2.96z" fill="#fff100"/><path d="m233.25 19.53h2.62v-7.64h1.89v10.17h-1.89v-.69l-7.22-.01-.02.65h-1.93v-10.21h1.93v7.73l2.66-.02v-9.38h1.96z" fill="#fff"/><path d="m216.03 19.99v-3.33h3.97v-1.81l-3.97-.02v-2.62h4.25v-1.88h-10.41v1.88h4.2v2.62h-3.94v1.83h3.94v3.33h-4.79v1.85h11.52v-1.85z" fill="#fff"/><path d="m217.8 17.24a1.14 1.14 0 1 0 .7 2.16 1.19 1.19 0 0 0 .75-.78 1.26 1.26 0 0 0 -.14-.92 1.17 1.17 0 0 0 -1.31-.46z" fill="#fff"/><path d="m246.89 17.66h1.92v1.22h-1.92z" fill="#fff" transform="matrix(.21303039 -.97704557 .97704557 .21303039 177.21 256.55)"/><path d="m253.77 19.06 1.67-1.21s-1.09-1.12-1.13-1.13-1 .62-1.34.88a6 6 0 0 1 -.23-1.26h2v-6.12h-5.74v9.84l-.56.1v-.77l-1.58.27v-2.83h1.73v-1.54h-1.73v-.6h1.26v-.75l.11.09.8-1.81a4.36 4.36 0 0 1 -2.03-2.22h-1.63a5 5 0 0 1 -2.17 2.53l.8 1.81.33-.31v.62h1v.6h-1.88v1.54h1.88v3.1l-1.92.33v1.7l4.84-.92v.89l3.9-.68-.08-1.54a5.77 5.77 0 0 0 2.47 2.33l.82-1.62a7.57 7.57 0 0 1 -1.59-1.32zm-8.57-5.9a7.18 7.18 0 0 0 .93-1.19 6.25 6.25 0 0 0 1 1.19zm5.49-1.26h2.39v.81h-2.39zm0 7.86v-3.42h.49a6.58 6.58 0 0 0 .79 3.2zm0-4.83v-.81h2.39v.81z" fill="#fff"/><path d="m244.92 19.39-.29-2.05-1.27.23.29 2.07z" fill="#fff"/><path d="m265.18 10.22h6.75v1.81h-6.75z" fill="#fff"/><path d="m272.43 14.12h-7.85l-1.33-.94a13.41 13.41 0 0 1 -2.92 3.43l.83 2s.38-.33.91-.86v4.25h1.85v-6.42a10.62 10.62 0 0 0 .63-1v1.32h4.2v4.1a.26.26 0 0 1 -.26.26h-2.14l.72 1.8h2.21a1.34 1.34 0 0 0 1.35-1.35v-4.81h1.8z" fill="#fff"/><path d="m264.57 11.12c-.53-.35-1-.73-1.55-1.08a11.58 11.58 0 0 1 -2.59 2.46l.86 1.78a13.86 13.86 0 0 0 3.28-3.16z" fill="#fff"/><path d="m304.68 115.05.16.69h-.79l.25-.69zm-1.36-3.63a18 18 0 0 1 -.37 2.07h-1.48l.88-1.36-1.52-.47-.22.34a9.09 9.09 0 0 1 -2.14 2.1l1.38 1.06s.82-.66 1-.86v.75h1.73l-.36.69h-3.55v1.57h2.44a10.09 10.09 0 0 1 -2.6 1.65l1 1.56a10.71 10.71 0 0 0 1.85-1.14v.51h1.11c-.54 1.38-2.24 1.75-3.16 1.8 0 0 .74 1.75.79 1.72s.7-.16 1.83-.52a4.08 4.08 0 0 0 2.45-3h1.62c0 1.19-.25 1.55-.82 1.6l-1 .05c.23.62.73 1.87.73 1.87.79-.12 2.17-.27 2.52-1.3a6 6 0 0 0 .32-2.45 11 11 0 0 0 1.81.71l.7-1.78a5.14 5.14 0 0 1 -2.7-1.29h2.52v-1.57h-3.48l-.28-.69h1.31v-.72s.94.75 1.09.81l1.31-1.22a5.82 5.82 0 0 1 -1.16-.73 16.09 16.09 0 0 1 -1.49-1.48l-1.33.57a10.79 10.79 0 0 0 .78 1.21h-2.07l.49-1.89zm2.14 5.89.67 1h-3.52l.69-1z" fill="#fff"/><path d="m304.86 123.45s-.49-1.25-.73-1.87l1-.05c.55 0 .75-.43.79-1.54h-1.49a4.1 4.1 0 0 1 -2.47 3c-1.06.34-1.75.51-1.82.52a10.07 10.07 0 0 1 -.81-1.73c.41 0 2.48-.21 3.11-1.74h-1.1v-.47a11 11 0 0 1 -1.8 1.1l-1.06-1.62h.05a9.56 9.56 0 0 0 2.51-1.59h-2.38v-1.76h3.57l.32-.62h-1.7v-.69c-.25.23-.91.78-.94.8l-1.42-1.09a8.85 8.85 0 0 0 2.13-2.09l.24-.36 1.56.48-.85 1.31h1.39a18.61 18.61 0 0 0 .36-2l2 .17-.47 1.86h1.95a10.61 10.61 0 0 1 -.74-1.17l1.35-.57a14.79 14.79 0 0 0 1.49 1.48 5.52 5.52 0 0 0 1.15.72h.05l-1.38 1.27a10.12 10.12 0 0 1 -1-.77v.68h-1.3l.25.62h3.48v1.64h-2.48a5.33 5.33 0 0 0 2.62 1.22h.05l-.71 1.8a11.93 11.93 0 0 1 -1.76-.69 6.4 6.4 0 0 1 -.33 2.4c-.33 1-1.6 1.19-2.44 1.31zm-5.47-1.73c.26.61.67 1.54.75 1.65s.78-.19 1.81-.51a4.07 4.07 0 0 0 2.43-3h1.62c0 1.18-.25 1.58-.86 1.64h-.93c.22.58.63 1.62.7 1.8h.09c.82-.12 2.06-.3 2.39-1.26a5.83 5.83 0 0 0 .31-2.44v-.06h.05a11.61 11.61 0 0 0 1.77.71l.68-1.71a5.31 5.31 0 0 1 -2.68-1.29l-.06-.06h2.54v-1.5h-3.46l-.3-.76h1.32v-.75h.06c.31.25.91.71 1.06.8l1.26-1.17a5.81 5.81 0 0 1 -1.12-.71 15.67 15.67 0 0 1 -1.48-1.47l-1.27.54a8.57 8.57 0 0 0 .76 1.18v.06h-2.18l.47-1.85-1.85-.17a18.25 18.25 0 0 1 -.37 2h-1.5v-.06l.85-1.32-1.44-.45-.21.32a9 9 0 0 1 -2.11 2.08l1.32 1c.13-.11.82-.67 1-.84l.06-.06v.94h1.75l-.4.76h-3.54v1.5h2.5l-.07.06a10.41 10.41 0 0 1 -2.57 1.65l1 1.49a11 11 0 0 0 1.82-1.12h.05v.54h1.13v.05c-.61 1.53-2.63 1.76-3.15 1.79zm6.81-3.38h-3.65l.73-1.07h2.2zm-3.52-.07h3.39l-.63-.93h-2.12zm2.2-2.5h-.88l.27-.72h.42zm-.78-.07h.69l-.14-.62h-.32z" fill="#009e96"/><path d="m290.55 115.28h-2.19l1.08-1.67zm-1.55-3.54h-2.86v1.36h1.86l-.42.75-.71-.51-.81.72v-.45h-4.47v1.39h4.41v-.52l.49.58-.87.71v-.34h-3.7v1.34h3.7v-.3l.68 1v3.09h.7l.29 1.16h-1.29v1.44h7.31v-1.44h-1.69l.34-1.16h.73v-3l1-1.55-1-.84 1-1.07-1-1-1 1.06-.29-.35.95-1-1-1a8.56 8.56 0 0 1 -.68.73l-.51-1.07zm3.29 5.42h-5.61l.95-1v.54h3.37v-.83zm-1.19 2.17h-3.1v-.91h3.13zm-1.1 2.41h-1l-.34-1.16h1.62zm-8.1-8.56h3.59v-1.44h-3.59zm0 5.38h3.7v-1.35h-3.7zm0 .42v4.45h1.35v-.59h1.06v.59h1.37v-4.43zm2.41 2.52h-1.06v-1.18h1.06z" fill="#fff"/><path d="m285.75 123.46h-1.44v-.59h-1v.59h-1.43v-4.52h3.86zm-1.37-.07h1.3v-4.39h-3.68v4.38h1.29v-.59h1.13zm9-.18h-7.38v-1.5h1.25l-.27-1.1h-.68v-3.11l-.62-.89v.21h-3.77v-1.4h3.77v.3l.79-.65-.4-.47v.46h-4.57v-1.48h4.55v.4l.76-.68.68.48.37-.65h-1.81v-1.43h2.95l1.19-.32.49 1c.11-.09.44-.47.65-.71l1.05 1.07-1 1 .24.3 1-1.06 1 1-1 1.05 1 .83-1 1.57v3.06h-.62l-.33 1.1h1.69zm-7.31-.07h7.24v-1.36h-1.71l.36-1.19h.72v-3l1-1.53-1-.83 1-1-.92-.94-1 1.06-.33-.4.92-1-1-1a5.93 5.93 0 0 1 -.67.71l-.51-1.08-1.14.31h-2.83v1.3h1.8l-.47.83-.69-.48-.84.75v-.49h-4.41v1.2h4.41v-.58l.57.67-.87.72h-.06v-.37h-3.64v1.26h3.63v-.37l.76 1.1v3.06h.61l.3 1.21h-1.27zm4-1.36h-1.07l-.36-1.21h1.71zm-1-.07h1l.24-1.1h-1.61zm-4.65-.18h-1.13v-1.24h1.13zm-1.06-.07h1v-1.1h-1zm7.8-2.1h-3.21v-1h3.21zm-3.14-.07h3.07v-.84h-3.09zm-2.32-.7h-3.77v-1.41h3.77zm-3.7-.07h3.63v-1.27h-3.63zm10.39-1.32h-5.78l1.08-1.09v.59h3.31v-.89l.06.07zm-5.61-.07h5.44l-1.16-1.13v.78h-3.48v-.49zm3.88-1.82h-2.36l1.1-1.71zm-2.19-.07h2.06l-1.05-1.57zm-2.87-2h-3.67v-1.54h3.67zm-3.6-.07h3.53v-1.38h-3.53z" fill="#009e96"/><path d="m271.37 120.56h2.54v-7.4h1.83v10.02h-1.83v-.82l-7-.02v.84h-1.89v-10.11h1.87v7.49l2.58-.01v-9.09h1.9z" fill="#fff"/><path d="m254.13 121.16v-3.27h3.9v-1.78l-3.9-.02v-2.57h4.18v-1.85h-10.23v1.85h4.12v2.57h-3.86v1.8h3.86v3.27h-4.7v1.81h11.32v-1.81z" fill="#fff"/><path d="m255.87 118.46a1.14 1.14 0 0 0 -.77.94 1.1 1.1 0 0 0 .25.83 1.16 1.16 0 0 0 1.21.35 1.15 1.15 0 0 0 .73-.77 1.17 1.17 0 0 0 -.14-.9 1.13 1.13 0 0 0 -1.28-.45z" fill="#fff"/><path d="m121.82 120.46h2.54v-7.41h1.83v10.02h-1.83v-.82l-7-.02v.84h-1.89v-10.1h1.87v7.49l2.58-.02v-9.09h1.9z" fill="#fff100"/><path d="m104.89 121.05-.01-3.26h3.9v-1.79l-3.9-.02v-2.57h4.18v-1.85h-10.23v1.85h4.12v2.57h-3.86v1.81h3.86v3.26h-4.7v1.81h11.32v-1.81z" fill="#fff100"/><path d="m106.62 118.35a1.14 1.14 0 0 0 -.77.94 1.08 1.08 0 0 0 .25.83 1.11 1.11 0 0 0 1.8-1.31 1.12 1.12 0 0 0 -1.28-.46z" fill="#fff100"/><path d="m141 119.23-1.36-.5h1.74v-1.52h-3.38v-.74h1.65v-1a12.71 12.71 0 0 0 2.68 1.63l1.13-1.75a9.1 9.1 0 0 1 -5.18-3.88 1.37 1.37 0 0 0 .07-.16l-2.23-.21a8.53 8.53 0 0 1 -4.73 4.61l.81 1.79a19.29 19.29 0 0 0 2.4-1.69v.62h1.65v.74h-3.41v1.52h1.92l-1.38.52.65 2.06h-2.13v1.56h10.4v-1.56h-2.3zm-5.44-4.23a16.9 16.9 0 0 0 1.64-1.83 13 13 0 0 0 1.72 1.83zm-1.35 6.36 1.57-.59-.94-2h1.36v2.58zm3.74-2.58h1.35l-.93 2 1.52.61h-1.89z" fill="#fff100"/><path d="m154.47 114.35h3.95v1.1h1.52v-1.1-.37-1.01h-2.74v-1.59h-1.51v1.59h-2.73v1.01.37 1.1h1.51z" fill="#fff100"/><path d="m157.2 119.48h1.8v-1.08l.36.27 1.13-1a6.14 6.14 0 0 1 -2.46-2.72l-1.32.59a9.62 9.62 0 0 0 1.87 2.49h-4.32a9.91 9.91 0 0 0 1.87-2.49l-1.32-.59a6.25 6.25 0 0 1 -2.06 2.47v-1.12l-1.08.24v-1.21h1v-1.55h-1v-2.4h-1.55v2.4h-1.48v1.55h1.48v1.55l-1.69.38.28 1.69 1.41-.39v2.59a.3.3 0 0 1 -.3.3h-.79l.64 1.61h.47a1.52 1.52 0 0 0 1.53-1.53v-3.39l.92-.25.89.78.36-.27v1.08h1.83v2h-2.94v1.45h7.38v-1.45h-2.91z" fill="#fff100"/><path d="m196.44 120.84h2.62v-7.64h1.89v10.18h-1.89v-.69l-7.22-.02-.01.65h-1.94v-10.21h1.94v7.73l2.66-.02v-9.37h1.95z" fill="#fff"/><path d="m179.22 121.31v-3.33h3.97v-1.82l-3.97-.02v-2.62h4.25l.01-1.88h-10.42v1.88h4.2v2.62h-3.93v1.84h3.93v3.33h-4.79v1.84h11.52v-1.84z" fill="#fff"/><path d="m181 118.55a1.15 1.15 0 0 0 -.78 1 1.13 1.13 0 0 0 .25.84 1.17 1.17 0 0 0 1.23.35 1.15 1.15 0 0 0 .75-.78 1.19 1.19 0 0 0 -.14-.91 1.15 1.15 0 0 0 -1.31-.5z" fill="#fff"/><path d="m210.09 118.98h1.92v1.22h-1.92z" fill="#fff" transform="matrix(.21303039 -.97704557 .97704557 .21303039 49.25 300.33)"/><path d="m217 120.38 1.68-1.22s-1.1-1.12-1.14-1.13-.95.62-1.34.89a6.27 6.27 0 0 1 -.23-1.27h2v-6.12h-5.79v9.84l-.55.1v-.77l-1.63.3v-2.84h1.73v-1.53h-1.73v-.63h1.26v-.76l.12.09.79-1.8a4.36 4.36 0 0 1 -2-2.18h-1.62a5 5 0 0 1 -2.18 2.53l.8 1.8.33-.3v.62h1v.6h-1.88v1.53h1.88v3.1l-1.92.34v1.69l4.85-.92v.9l3.89-.68-.08-1.55a5.86 5.86 0 0 0 2.47 2.27l.82-1.62a8.26 8.26 0 0 1 -1.53-1.28zm-8.57-5.91a7.35 7.35 0 0 0 .94-1.18 5.56 5.56 0 0 0 1 1.18zm5.49-1.26h2.39v.79h-2.39zm0 7.86v-3.42h.5a6.59 6.59 0 0 0 .78 3.21zm0-4.83v-.81h2.39v.81z" fill="#fff"/><path d="m208.11 120.71-.29-2.05-1.26.23.28 2.06z" fill="#fff"/><path d="m228.37 111.54h6.75v1.81h-6.75z" fill="#fff"/><path d="m235.62 115.43h-7.85l-1.32-.94a13.46 13.46 0 0 1 -2.92 3.43l.82 2s.39-.32.91-.85v4.29h1.85v-6.46a9.91 9.91 0 0 0 .63-1v1.33h4.2v4.06a.26.26 0 0 1 -.26.26h-2.13l.71 1.8h2.21a1.35 1.35 0 0 0 1.35-1.36v-4.76h1.8z" fill="#fff"/><path d="m227.77 112.43c-.53-.34-1.05-.73-1.56-1.07a11.76 11.76 0 0 1 -2.59 2.45l.86 1.78a14.09 14.09 0 0 0 3.29-3.16z" fill="#fff"/><path d="m293.73 222.61a17.15 17.15 0 0 0 -1.65-3.29v-.07l-1.63.83v.08a16 16 0 0 1 1.47 3.3v.1l1.8-.87z" fill="#fff"/><path d="m289.45 220.79v.06c-.07.89-.18 1.07-.21 1.11a.62.62 0 0 1 -.46.39 20.31 20.31 0 0 1 -2.46.08 1.87 1.87 0 0 1 -.39 0c-.1 0-.24-.06-.24-.46v-2.47h-1.77v3c0 1 .46 1.52 1.36 1.55a7 7 0 0 0 1.05.07 24.32 24.32 0 0 0 2.78-.1 3.62 3.62 0 0 0 1.2-.27c.45-.28.73-.93.87-2v-.06l-1.71-1z" fill="#fff"/><path d="m286.37 216.64h-4.43v1.66h10.79v-1.66h-4.54v-1.61h5.01v-1.66h-5.01v-1.43h-1.82v1.43h-4.96v1.66h4.96z" fill="#fff"/><path d="m287.37 218.41-1.52.94.07.08a8.88 8.88 0 0 1 1.35 2.1v.09l1.6-1v-.07a10.15 10.15 0 0 0 -1.45-2.13z" fill="#fff"/><path d="m282.1 219.82a16.8 16.8 0 0 1 -1 2.74v.08l1.59.81v-.08a18.63 18.63 0 0 0 1.06-3v-.08l-1.64-.54z" fill="#fff"/><path d="m305.35 221.83v-6.83h4.4v-2.05h-10.94v2.05h4.35v6.83h-4.89v2.06h12.03v-2.06z" fill="#fff"/><path d="m271.26 221.26h2.55v-7.41h1.82v10.02h-1.82v-.82l-7.01-.02v.84h-1.89v-10.11h1.88v7.5l2.57-.02v-9.09h1.9z" fill="#fff"/><path d="m254.13 221.85v-3.26h3.9v-1.79l-3.9-.02v-2.57h4.18v-1.85h-10.23v1.85h4.12v2.57h-3.86v1.81h3.86v3.26h-4.7v1.81h11.32v-1.81z" fill="#fff"/><path d="m255.87 219.15a1.14 1.14 0 0 0 -.77.94 1.1 1.1 0 0 0 .25.83 1.16 1.16 0 0 0 1.21.35 1.15 1.15 0 0 0 .73-.77 1.17 1.17 0 0 0 -.14-.9 1.13 1.13 0 0 0 -1.28-.45z" fill="#fff"/><path d="m121.82 221.15h2.54v-7.41h1.83v10.02h-1.83v-.82l-7-.02v.84h-1.89v-10.1h1.87v7.49l2.58-.02v-9.09h1.9z" fill="#fff100"/><path d="m104.89 221.74-.01-3.26h3.9v-1.79l-3.9-.02v-2.57h4.18v-1.85h-10.23v1.85h4.12v2.57h-3.86v1.81h3.86v3.26h-4.7v1.82h11.32v-1.82z" fill="#fff100"/><path d="m106.62 219a1.14 1.14 0 0 0 -.77 1 1.07 1.07 0 0 0 .25.82 1.11 1.11 0 0 0 1.8-1.31 1.12 1.12 0 0 0 -1.28-.51z" fill="#fff100"/><path d="m141 219.92-1.36-.5h1.74v-1.52h-3.38v-.74h1.65v-1a12.71 12.71 0 0 0 2.68 1.63l1.13-1.75a9.1 9.1 0 0 1 -5.18-3.88 1.37 1.37 0 0 0 .07-.16l-2.23-.21a8.53 8.53 0 0 1 -4.73 4.61l.81 1.79a19.29 19.29 0 0 0 2.4-1.69v.62h1.65v.74h-3.41v1.52h1.92l-1.38.52.62 2.1h-2.13v1.56h10.43v-1.56h-2.3zm-5.42-4.28a16.9 16.9 0 0 0 1.64-1.83 13 13 0 0 0 1.72 1.83zm-1.37 6.36 1.57-.59-.94-2h1.36v2.59zm3.74-2.58h1.35l-.93 2 1.52.61h-1.89z" fill="#fff100"/><path d="m154.47 215.04h3.95v1.1h1.52v-1.1-.37-1.01h-2.74v-1.59h-1.51v1.59h-2.73v1.01.37 1.1h1.51z" fill="#fff100"/><path d="m157.2 220.17h1.8v-1.08l.36.27 1.13-1a6.14 6.14 0 0 1 -2.46-2.72l-1.32.59a9.62 9.62 0 0 0 1.87 2.49h-4.32a9.91 9.91 0 0 0 1.87-2.49l-1.32-.59a6.25 6.25 0 0 1 -2.06 2.47v-1.11l-1.08.24v-1.24h1v-1.55h-1v-2.4h-1.55v2.4h-1.48v1.55h1.48v1.55l-1.69.38.28 1.69 1.41-.39v2.59a.3.3 0 0 1 -.3.3h-.79l.64 1.62h.47a1.53 1.53 0 0 0 1.53-1.53v-3.4l.92-.25.89.78.36-.27v1.08h1.83v2h-2.94v1.45h7.38v-1.45h-2.91z" fill="#fff100"/><path d="m196.44 221.53h2.62v-7.64h1.89v10.18h-1.89v-.69l-7.22-.02-.01.65h-1.94v-10.21h1.94v7.73l2.66-.02v-9.37h1.95z" fill="#fff"/><path d="m179.22 222v-3.33h3.97v-1.82l-3.97-.02v-2.62h4.25l.01-1.88h-10.42v1.88h4.2v2.62h-3.93v1.84h3.93v3.33h-4.79v1.84h11.52v-1.84z" fill="#fff"/><path d="m181 219.25a1.14 1.14 0 0 0 -.53 1.8 1.14 1.14 0 0 0 1.84-1.34 1.13 1.13 0 0 0 -1.31-.46z" fill="#fff"/><path d="m210.09 219.67h1.92v1.22h-1.92z" fill="#fff" transform="matrix(.21303039 -.97704557 .97704557 .21303039 -49.13 379.57)"/><path d="m217 221.07 1.68-1.22s-1.1-1.12-1.14-1.13-.95.62-1.34.89a6.27 6.27 0 0 1 -.23-1.27h2v-6.12h-5.79v9.84l-.55.1v-.77l-1.58.28v-2.84h1.73v-1.53h-1.78v-.6h1.26v-.7l.12.08.79-1.8a4.36 4.36 0 0 1 -2-2.18h-1.62a5 5 0 0 1 -2.18 2.53l.8 1.8.33-.3v.62h1v.6h-1.88v1.53h1.88v3.1l-1.92.34v1.69l4.85-.92v.9l3.89-.68-.08-1.55a5.86 5.86 0 0 0 2.47 2.27l.82-1.62a8.26 8.26 0 0 1 -1.53-1.34zm-8.57-5.91a7.35 7.35 0 0 0 .94-1.18 5.56 5.56 0 0 0 1 1.18zm5.49-1.26h2.39v.81h-2.39zm0 7.86v-3.42h.5a6.59 6.59 0 0 0 .78 3.21zm0-4.83v-.81h2.39v.81z" fill="#fff"/><path d="m208.11 221.4-.29-2.05-1.26.23.28 2.06z" fill="#fff"/><path d="m228.37 212.23h6.75v1.81h-6.75z" fill="#fff"/><path d="m227.77 216.12-1.32-.94a13.46 13.46 0 0 1 -2.92 3.43l.82 2s.39-.32.91-.85v4.24h1.85v-6.44a9.91 9.91 0 0 0 .63-1v1.33h7.88v-1.79z" fill="#fff"/><path d="m227.77 213.12c-.53-.34-1.05-.73-1.56-1.07a11.53 11.53 0 0 1 -2.59 2.45l.86 1.78a14.09 14.09 0 0 0 3.29-3.16z" fill="#fff"/><path d="m229.55 222.23h2.13a.26.26 0 0 0 .26-.26v-4.12h1.88v4.82a1.35 1.35 0 0 1 -1.35 1.36h-2.21z" fill="#fff"/><path d="m293.73 257.7a17.15 17.15 0 0 0 -1.65-3.29v-.07l-1.63.83v.08a15.88 15.88 0 0 1 1.47 3.31v.1l1.8-.88z" fill="#00a19b"/><path d="m289.45 255.88v.06c-.07.89-.18 1.08-.21 1.11a.6.6 0 0 1 -.46.39 20.31 20.31 0 0 1 -2.46.08 1.87 1.87 0 0 1 -.39 0c-.1 0-.24-.06-.24-.45v-2.47h-1.77v3c0 1 .46 1.52 1.36 1.55a7 7 0 0 0 1.05.07 25.28 25.28 0 0 0 2.78-.09 4.2 4.2 0 0 0 1.2-.27 2.69 2.69 0 0 0 .87-2v-.06l-1.71-1z" fill="#00a19b"/><path d="m286.37 251.73h-4.43v1.66h10.79v-1.66h-4.54v-1.61h5.01v-1.66h-5.01v-1.43h-1.82v1.43h-4.96v1.66h4.96z" fill="#00a19b"/><path d="m287.37 253.51-1.52.93.07.08a8.88 8.88 0 0 1 1.35 2.1v.09l1.6-.94v-.08a10.41 10.41 0 0 0 -1.45-2.13z" fill="#00a19b"/><path d="m282.1 254.91a16.8 16.8 0 0 1 -1 2.74v.08l1.59.81v-.08a18.63 18.63 0 0 0 1.06-3v-.08l-1.64-.54z" fill="#00a19b"/><path d="m305.35 256.92v-6.83h4.4v-2.05h-10.94v2.05h4.35v6.83h-4.89v2.07h12.03v-2.07z" fill="#00a19b"/><path d="m271.26 256.35h2.55v-7.41h1.82v10.02h-1.82v-.82l-7.01-.02v.84h-1.89v-10.1h1.88v7.49l2.57-.02v-9.09h1.9z" fill="#00a19b"/><path d="m254.13 256.94v-3.26h3.9v-1.79l-3.9-.02v-2.57h4.18v-1.85h-10.23v1.85h4.12v2.57h-3.86v1.81h3.86v3.26h-4.7v1.81h11.32v-1.81z" fill="#00a19b"/><path d="m255.87 254.24a1.14 1.14 0 0 0 -.77.95 1.07 1.07 0 0 0 .25.82 1.11 1.11 0 0 0 1.8-1.31 1.12 1.12 0 0 0 -1.28-.46z" fill="#00a19b"/><path d="m121.82 256.24h2.54v-7.4h1.83v10.02h-1.83v-.83l-7-.02v.85h-1.89v-10.11h1.87v7.49l2.58-.02v-9.09h1.9z" fill="#00a19b"/><path d="m104.89 256.83-.01-3.26h3.9v-1.79l-3.9-.02v-2.57h4.18v-1.85h-10.23v1.85h4.12v2.57h-3.86v1.81h3.86v3.26h-4.7v1.82h11.32v-1.82z" fill="#00a19b"/><path d="m106.62 254.13a1.14 1.14 0 0 0 -.77 1 1.07 1.07 0 0 0 .25.82 1.13 1.13 0 0 0 1.21.35 1.11 1.11 0 0 0 .73-.77 1.14 1.14 0 0 0 -.14-.89 1.12 1.12 0 0 0 -1.28-.51z" fill="#00a19b"/><path d="m141 255-1.36-.5h1.74v-1.5h-3.38v-.74h1.65v-.95a13.13 13.13 0 0 0 2.68 1.62l1.13-1.75a9.1 9.1 0 0 1 -5.18-3.88l.07-.15-2.23-.22a8.53 8.53 0 0 1 -4.73 4.61l.81 1.79a20.4 20.4 0 0 0 2.4-1.68v.61h1.65v.74h-3.41v1.52h1.92l-1.38.52.65 2.06h-2.13v1.56h10.4v-1.56h-2.3zm-5.42-4.28a16.9 16.9 0 0 0 1.64-1.83 13 13 0 0 0 1.72 1.83zm-1.35 6.36 1.57-.59-.94-2h1.36v2.58zm3.74-2.58h1.35l-.93 2 1.52.61h-1.91z" fill="#00a19b"/><path d="m154.47 250.13h3.95v1.1h1.52v-1.1-.37-1.01h-2.74v-1.58h-1.51v1.58h-2.73v1.01.37 1.1h1.51z" fill="#00a19b"/><path d="m157.2 255.26h1.8v-1.08l.36.27 1.13-1a6.14 6.14 0 0 1 -2.46-2.72l-1.32.59a9.62 9.62 0 0 0 1.87 2.49h-4.32a9.91 9.91 0 0 0 1.87-2.49l-1.32-.59a6.25 6.25 0 0 1 -2.06 2.47v-1.12l-1.08.24v-1.21h1v-1.54h-1v-2.4h-1.55v2.4h-1.48v1.54h1.48v1.56l-1.69.37.28 1.69 1.41-.38v2.58a.3.3 0 0 1 -.3.3h-.79l.64 1.62h.47a1.53 1.53 0 0 0 1.53-1.53v-3.4l.92-.25.89.78c.12-.08.24-.18.36-.27v1.08h1.83v2h-2.94v1.45h7.38v-1.45h-2.91z" fill="#00a19b"/><path d="m196.44 256.63h2.62v-7.64h1.89v10.17h-1.89v-.69l-7.22-.02-.01.65h-1.94v-10.2h1.94v7.73l2.66-.02v-9.38h1.95z" fill="#00a19b"/><path d="m179.22 257.09v-3.33h3.97v-1.82l-3.97-.01v-2.63h4.25l.01-1.88h-10.42v1.88h4.2v2.63h-3.93v1.83h3.93v3.33h-4.79v1.84h11.52v-1.84z" fill="#00a19b"/><path d="m181 254.34a1.14 1.14 0 0 0 -.53 1.8 1.14 1.14 0 0 0 1.84-1.34 1.13 1.13 0 0 0 -1.31-.46z" fill="#00a19b"/><path d="m210.09 254.76h1.92v1.22h-1.92z" fill="#00a19b" transform="matrix(.21303039 -.97704557 .97704557 .21303039 -83.42 407.19)"/><path d="m217 256.16 1.68-1.21s-1.1-1.12-1.14-1.14-.95.63-1.34.89a6.15 6.15 0 0 1 -.23-1.27h2v-6.12h-5.79v9.84l-.55.1v-.77l-1.58.28v-2.84h1.73v-1.53h-1.78v-.6h1.26v-.79l.12.08.79-1.8a4.36 4.36 0 0 1 -2-2.18h-1.62a5 5 0 0 1 -2.18 2.53l.8 1.8.33-.3v.62h1v.6h-1.88v1.53h1.88v3.12l-1.92.34v1.7l4.85-.93v.9l3.89-.68-.08-1.55a5.8 5.8 0 0 0 2.47 2.27l.82-1.62a8.26 8.26 0 0 1 -1.53-1.27zm-8.57-5.91a7.35 7.35 0 0 0 .94-1.18 5.56 5.56 0 0 0 1 1.18zm5.49-1.25h2.39v.8h-2.39zm0 7.85v-3.42h.5a6.59 6.59 0 0 0 .78 3.21zm0-4.82v-.82h2.39v.79z" fill="#00a19b"/><path d="m208.11 256.49-.29-2.05-1.26.23.28 2.06z" fill="#00a19b"/><path d="m228.37 247.32h6.75v1.81h-6.75z" fill="#00a19b"/><path d="m235.62 251.21h-7.85l-1.32-.94a13.46 13.46 0 0 1 -2.92 3.43l.82 2s.39-.33.91-.86v4.29h1.85v-6.44a9.91 9.91 0 0 0 .63-1v1.31h4.2v4.06a.26.26 0 0 1 -.26.26h-2.13l.71 1.8h2.21a1.35 1.35 0 0 0 1.35-1.35v-4.77h1.8z" fill="#00a19b"/><path d="m227.77 248.22c-.53-.35-1.05-.74-1.56-1.08a11.53 11.53 0 0 1 -2.59 2.45l.86 1.78a14.26 14.26 0 0 0 3.29-3.15z" fill="#00a19b"/><path d="m301.12 307.41a4.8 4.8 0 0 1 -.52-.3h2.24v-1.38h-2.17v-3.88h1.8v-1.38h-1.8v-.67h-1.43v.67h-4.65v-.67h-1.44v.67h-1.75v1.38h1.75v3.88h-2v1.38h2.29a4.61 4.61 0 0 1 -.56.33 10.61 10.61 0 0 1 -2 .92l.79 1.26a14 14 0 0 0 1.57-.83v.78h2.94v.62h-4.18v1.43h9.93v-1.43h-4.22v-.62h2.89v-.78a8.5 8.5 0 0 0 1.62.83l.78-1.54a8.67 8.67 0 0 1 -1.88-.67zm-6.53-5.56h4.65v.43h-4.65zm0 1.76h4.65v.39h-4.65zm0 1.74h4.65v.38h-4.65zm3.09 2.8v-.62h-1.53v.62h-1.94a7.56 7.56 0 0 0 1.12-1h3.26a6.51 6.51 0 0 0 1.06 1z" fill="#fff"/><path d="m323.87 311.86h1.48v-.26h5.87v.26h1.46v-4.42h-8.81zm1.48-3.17v-.1h5.87v.41h-5.87zm0 1.65v-.27h5.87v.36h-5.87z" fill="#fff"/><path d="m334.24 302.18a25 25 0 0 1 -2.93-.8c-.85-.29-1.59-.58-2.27-.89l-.85-.7a23.78 23.78 0 0 1 -6 2.54l.77 1.35.34-.11v3.57h9.82v-3.68a3.44 3.44 0 0 0 .38.11l.78-1.42zm-6.13-.75c.29.16.59.32.88.45h-1.71c.27-.14.55-.28.83-.45zm-3 3.64a7.19 7.19 0 0 1 .5.79h-.88v-1.24h1l-.68.43zm2.29.79h-1l.59-.34a6.59 6.59 0 0 0 -.51-.89h.93zm2.33 0h-.93v-1.24h1a7 7 0 0 1 -.49 1zm1.89 0h-.88a6.06 6.06 0 0 0 .46-.95l-.77-.27h1.18zm-7.52-2.55c.42-.16.87-.34 1.41-.57v.3h5.19v-.39c.58.25 1.17.46 1.78.66z" fill="#fff"/><path d="m264.79 308a9.34 9.34 0 0 0 2.38-4.68h2v-1.71h-4.9v-1.78h-1.82v1.78h-4.85v1.71h1.68a15 15 0 0 0 2.68 4.61 17.81 17.81 0 0 1 -4.58 2.28l-.16.06 1.22 1.63h.09a21.1 21.1 0 0 0 4.85-2.62 12.14 12.14 0 0 0 5.35 2.36h.1l.64-1.74h-.14a12.8 12.8 0 0 1 -4.54-1.9zm-1.43-1.24a13.1 13.1 0 0 1 -2.16-3.44h4a7.61 7.61 0 0 1 -1.84 3.4z" fill="#fff"/><path d="m284.26 308.14c.24-.52.44-1 .6-1.45a17 17 0 0 0 .75-3.15h.65v-1.54h-2.95c.18-.58.33-1.11.47-1.64l-1.51-.44a19.94 19.94 0 0 1 -.92 2.73c-.09.25-.2.5-.3.73v-.65h-.72c.34-.43.67-.88 1-1.33l-1.31-.71-.55.74v-.71h-1.28v-.88h-1.53v.88h-1.71v1.41h1.71v.6h-2.27v1.42h2.56a16.21 16.21 0 0 1 -2.69 2l.86 1.36c.67-.46 1.34-.95 2-1.5h1.37a6.59 6.59 0 0 1 -.85.6l-.69-.06v1.45c-.76.1-1.57.18-2.55.26l.28 1.57c.8-.08 1.6-.19 2.28-.29v.46a1.85 1.85 0 0 1 0 .41.24.24 0 0 1 -.13.07 3.56 3.56 0 0 1 -1.17-.21h-.07l.28 1.6c.28 0 .59.05.93.05a2.06 2.06 0 0 0 1.33-.35 1.6 1.6 0 0 0 .36-1.25v-.93c.74-.1 1.52-.24 2.4-.42l-.22-1.43c-.73.13-1.45.24-2.17.34v-.19a9.1 9.1 0 0 0 2-1.78v-.29l.91.69.07-.11a.75.75 0 0 1 .07-.12 11.55 11.55 0 0 0 .86 2.25l-.31.45a6.09 6.09 0 0 1 -1.88 1.71l.85 1.35a6.41 6.41 0 0 0 2.13-1.93.64.64 0 0 0 .1-.13 11.22 11.22 0 0 0 2.11 2.16l1-1.52a8.11 8.11 0 0 1 -2.15-2.28zm-5.91-5.45h-.18v-.6h.71zm2.11 1.82a.71.71 0 0 0 -.08.15h-1.8a7.23 7.23 0 0 0 .52-.55h1.58zm3 1.51a2 2 0 0 1 -.1.26.42.42 0 0 1 0 .1 13.64 13.64 0 0 1 -.79-2.34 3.09 3.09 0 0 0 .14-.32 1.34 1.34 0 0 0 .07-.18h1.22a14 14 0 0 1 -.55 2.46z" fill="#fff"/><path d="m315.41 305.08v-.79l2.42 1.37.19.1 1.07-1.7-.28-.11a9.38 9.38 0 0 1 -4.89-3.64v-.13l.06-.11v-.07l-2.25-.22a8.12 8.12 0 0 1 -4.81 4.56l.75 1.68.07.14 2.54-1.59v.5h1.57v.77h-3.26v1.54h1.52v.08l-1.17.45c.22.55.65 2.19.65 2.19h-2.1v1.57h10.6v-1.55h-2.33v-.12l.95-2.14-1.11-.42v-.09h1.68v-1.52h-3.65v-.77zm-3.56 5h-1.74v-.08l1.31-.61c-.44-.89-.92-1.94-.92-1.94v-.08h1.35zm3.13-2.72a18.79 18.79 0 0 1 -.92 2l1.25.62v.1h-1.68v-2.72zm-3.58-3.84 1.42-1.76h.08l1.49 1.76z" fill="#fff"/><path d="m247.61 308.79h2.55v-7.4h1.82v10.02h-1.82v-.83l-7-.01-.01.84h-1.89v-10.11h1.88v7.49l2.58-.02v-9.08h1.89z" fill="#fff"/><path d="m230.68 309.39v-3.27h3.89v-1.78l-3.89-.02v-2.58h4.17v-1.84h-10.23v1.84h4.13v2.58h-3.86v1.8h3.86v3.27h-4.7v1.81h11.31v-1.81z" fill="#fff"/><path d="m232.42 306.69a1.12 1.12 0 0 0 -.78.94 1.19 1.19 0 0 0 .25.83 1.17 1.17 0 0 0 1.21.35 1.18 1.18 0 0 0 .74-.77 1.21 1.21 0 0 0 -.14-.9 1.12 1.12 0 0 0 -1.28-.45z" fill="#fff"/><path d="m98.36 308.68h2.55v-7.4h1.82v10.02h-1.82v-.82l-7-.02-.01.84h-1.89v-10.11h1.88v7.49l2.58-.01v-9.09h1.89z" fill="#fff100"/><path d="m81.43 309.28v-3.27h3.89v-1.78l-3.89-.02v-2.58h4.17l.01-1.84h-10.23v1.84h4.12v2.58h-3.86v1.8h3.86v3.27h-4.7v1.81h11.31v-1.81z" fill="#fff100"/><path d="m83.17 306.58a1.15 1.15 0 0 0 -.78.94 1.19 1.19 0 0 0 .25.83 1.13 1.13 0 0 0 2-.42 1.21 1.21 0 0 0 -.14-.9 1.13 1.13 0 0 0 -1.33-.45z" fill="#fff100"/><path d="m117.53 307.46-1.37-.5h1.74v-1.52h-3.4v-.74h1.65v-1a13.14 13.14 0 0 0 2.68 1.63l1.12-1.75a9.15 9.15 0 0 1 -5.18-3.88l.08-.16-2.23-.21a8.53 8.53 0 0 1 -4.74 4.61l.81 1.79a18.57 18.57 0 0 0 2.4-1.69v.62h1.65v.74h-3.4v1.6h1.92l-1.38.52.64 2.06h-2.12v1.56h10.44v-1.56h-2.29zm-5.42-4.28a13.93 13.93 0 0 0 1.63-1.84 12.45 12.45 0 0 0 1.73 1.84zm-1.36 6.36 1.57-.6-.94-2h1.36v2.58zm3.75-2.54h1.34l-.92 2 1.51.61h-1.93z" fill="#fff100"/><path d="m131.02 302.58h3.95v1.1h1.52v-1.1-.37-1.01h-2.74v-1.59h-1.51v1.59h-2.74v1.01.37 1.1h1.52z" fill="#fff100"/><path d="m133.75 307.7h1.82v-1.08l.37.28 1.13-1a6.12 6.12 0 0 1 -2.47-2.73l-1.32.59a9.72 9.72 0 0 0 1.87 2.49h-4.31a9.72 9.72 0 0 0 1.87-2.49l-1.33-.59a6 6 0 0 1 -2.06 2.47v-1.11l-1.07.24v-1.22h1v-1.55h-1v-2.4h-1.55v2.4h-1.49v1.54h1.49v1.56l-1.7.38.29 1.69 1.41-.39v2.58a.31.31 0 0 1 -.3.31h-.8l.64 1.61h.48a1.53 1.53 0 0 0 1.53-1.53v-3.4l.91-.25.89.79a3.44 3.44 0 0 0 .36-.28v1.08h1.83v2h-2.93v1.45h7.37v-1.45h-2.93z" fill="#fff100"/><path d="m172.99 309.07h2.62v-7.64h1.88v10.18h-1.88v-.69l-7.22-.02-.02.65h-1.94v-10.21h1.94v7.73l2.66-.02v-9.37h1.96z" fill="#fff"/><path d="m155.77 309.53v-3.32h3.96v-1.82l-3.96-.02v-2.62h4.25v-1.88h-10.42v1.88h4.2v2.62h-3.93v1.84h3.93v3.32h-4.79v1.85h11.53v-1.85z" fill="#fff"/><path d="m157.54 306.78a1.16 1.16 0 0 0 -.79 1 1.23 1.23 0 0 0 .25.85 1.19 1.19 0 0 0 1.24.35 1.14 1.14 0 0 0 .74-.78 1.19 1.19 0 0 0 -.14-.91 1.14 1.14 0 0 0 -1.3-.51z" fill="#fff"/><path d="m186.63 307.21h1.92v1.22h-1.92z" fill="#fff" transform="matrix(.21303039 -.97704557 .97704557 .21303039 -153.12 425.55)"/><path d="m193.51 308.61 1.67-1.22s-1.1-1.12-1.13-1.13-1 .62-1.34.88a5 5 0 0 1 -.23-1.26h2v-6.12h-5.78v9.84l-.56.1v-.77l-1.57.27v-2.83h1.73v-1.54h-1.73v-.59h1.26v-.76l.11.09.8-1.8a4.34 4.34 0 0 1 -2-2.19h-1.63a5.08 5.08 0 0 1 -2.17 2.54l.79 1.8.34-.31v.63h1v.59h-1.88v1.54h1.81v3.1l-1.92.34v1.69l4.84-.92v.9l3.9-.68-.09-1.55a6 6 0 0 0 2.47 2.27l.83-1.63a7.56 7.56 0 0 1 -1.52-1.28zm-8.57-5.91a7.76 7.76 0 0 0 .93-1.19 5.91 5.91 0 0 0 1 1.19zm5.48-1.26h2.4v.81h-2.4zm0 7.86v-3.42h.5a6.44 6.44 0 0 0 .79 3.2zm0-4.83v-.81h2.4v.81z" fill="#fff"/><path d="m184.66 308.93-.29-2.04-1.27.23.29 2.06z" fill="#fff"/><path d="m204.92 299.76h6.75v1.81h-6.75z" fill="#fff"/><path d="m212.17 303.66h-7.85l-1.33-.94a13.41 13.41 0 0 1 -2.92 3.43l.83 2s.38-.33.91-.86v4.29h1.84v-6.44a8.89 8.89 0 0 0 .64-1v1.32h4.2v4.07a.26.26 0 0 1 -.26.26h-2.14l.72 1.8h2.19a1.36 1.36 0 0 0 1.36-1.36v-4.77h1.8z" fill="#fff"/><path d="m204.31 300.66c-.53-.35-1-.73-1.56-1.08a11.33 11.33 0 0 1 -2.58 2.46l.86 1.78a14.05 14.05 0 0 0 3.28-3.16z" fill="#fff"/><g fill="#00a19b"><path d="m301.12 341.89a4.76 4.76 0 0 1 -.52-.31h2.24v-1.37h-2.17v-3.88h1.8v-1.39h-1.8v-.67h-1.43v.67h-4.65v-.67h-1.44v.67h-1.75v1.39h1.75v3.88h-2v1.37h2.29a4.61 4.61 0 0 1 -.56.33 10.61 10.61 0 0 1 -2 .92l.79 1.26a14 14 0 0 0 1.57-.83v.78h2.94v.62h-4.18v1.44h9.93v-1.44h-4.22v-.62h2.89v-.78a8.5 8.5 0 0 0 1.62.83l.78-1.54a8.7 8.7 0 0 1 -1.88-.66zm-6.53-5.56h4.65v.42h-4.65zm0 1.75h4.65v.43h-4.65zm0 1.74h4.65v.39h-4.65zm3.09 2.8v-.62h-1.53v.62h-1.94a7.56 7.56 0 0 0 1.12-1h3.26a5.79 5.79 0 0 0 1.06 1z"/><path d="m323.87 346.33h1.48v-.26h5.87v.26h1.46v-4.42h-8.81zm1.48-3.17v-.09h5.87v.37h-5.87zm0 1.65v-.26h5.87v.36h-5.87z"/><path d="m334.24 336.66a25.18 25.18 0 0 1 -2.93-.81c-.85-.29-1.59-.58-2.27-.89l-.85-.69a23.43 23.43 0 0 1 -6 2.54l.77 1.35.34-.11v3.57h9.82v-3.62l.38.11.78-1.42zm-6.13-.76c.29.17.59.32.88.46h-1.71c.27-.14.55-.29.83-.46zm-3 3.64a7.36 7.36 0 0 1 .5.8h-.88v-1.25h1l-.68.44zm2.29.8h-1l.6-.34a6.59 6.59 0 0 0 -.51-.89h.93zm2.33 0h-.93v-1.25h1a6.52 6.52 0 0 1 -.49 1zm1.89 0h-.88a6.71 6.71 0 0 0 .46-1l-.77-.27h1.18zm-7.52-2.56c.42-.15.87-.33 1.41-.57v.31h5.19v-.4a18 18 0 0 0 1.78.66z"/><path d="m264.79 342.44a9.41 9.41 0 0 0 2.38-4.69h2v-1.75h-4.9v-1.77h-1.82v1.77h-4.85v1.71h1.68a15 15 0 0 0 2.68 4.61 17.49 17.49 0 0 1 -4.58 2.28l-.16.06 1.22 1.63h.09a21.49 21.49 0 0 0 4.85-2.61 12.26 12.26 0 0 0 5.35 2.36h.1l.64-1.75h-.14a12.79 12.79 0 0 1 -4.54-1.85zm-1.43-1.25a13.1 13.1 0 0 1 -2.16-3.44h4a7.56 7.56 0 0 1 -1.84 3.44z"/><path d="m284.26 342.61c.24-.52.44-1 .6-1.45a16.89 16.89 0 0 0 .75-3.14h.65v-1.58h-2.95c.18-.58.33-1.12.47-1.65l-1.51-.45a19.94 19.94 0 0 1 -.92 2.73c-.09.26-.2.51-.3.73v-.65h-.72c.34-.43.67-.87 1-1.32l-1.31-.71-.55.74v-.7h-1.28v-.89h-1.53v.89h-1.71v1.41h1.71v.59h-2.27v1.42h2.56a15.67 15.67 0 0 1 -2.69 2l.86 1.36c.67-.46 1.34-.95 2-1.5h1.37a5.74 5.74 0 0 1 -.85.6l-.64-.04v1.5c-.76.1-1.57.18-2.55.26l.28 1.56c.8-.08 1.6-.19 2.28-.28v.4a2.08 2.08 0 0 1 0 .42.22.22 0 0 1 -.13.06 3.32 3.32 0 0 1 -1.17-.21h-.07l.28 1.6a8.7 8.7 0 0 0 .93.05 2.06 2.06 0 0 0 1.33-.35 1.59 1.59 0 0 0 .36-1.24v-.94c.74-.1 1.52-.24 2.4-.41l-.22-1.42c-.73.14-1.45.25-2.17.34v-.18a9.64 9.64 0 0 0 2-1.78v-.38l.91.7a.75.75 0 0 1 .07-.12.75.75 0 0 1 .07-.12 11.31 11.31 0 0 0 .86 2.25l-.31.45a6.09 6.09 0 0 1 -1.88 1.71l.85 1.36a6.48 6.48 0 0 0 2.13-1.92l.1-.13a11.19 11.19 0 0 0 2.11 2.15l1-1.52a8.11 8.11 0 0 1 -2.2-2.2zm-5.91-5.45h-.18v-.59h.71zm2.11 1.82a1.09 1.09 0 0 0 -.08.15h-1.8a7.23 7.23 0 0 0 .52-.55h1.58c-.07.14-.14.26-.22.42zm3 1.51a2 2 0 0 1 -.1.26.3.3 0 0 1 0 .1 13.64 13.64 0 0 1 -.79-2.34 3.09 3.09 0 0 0 .14-.32c0-.06 0-.12.07-.17h1.22a13.92 13.92 0 0 1 -.55 2.47z"/><path d="m315.41 339.55v-.79l2.42 1.37.19.1 1.07-1.7-.28-.1a9.37 9.37 0 0 1 -4.89-3.65v-.13l.06-.1v-.07l-2.25-.21a8.09 8.09 0 0 1 -4.81 4.55l.75 1.68.07.14 2.54-1.58v.49h1.57v.77h-3.26v1.55h1.52v.08l-1.17.44c.22.56.65 2.2.65 2.2h-2.1v1.56h10.6v-1.54h-2.33v-.08l.95-2.14-1.11-.42v-.08h1.68v-1.53h-3.65v-.77zm-3.56 5h-1.74v-.1l1.31-.61c-.44-.88-.92-1.93-.92-1.93v-.08h1.35zm3.13-2.72a18.79 18.79 0 0 1 -.92 2l1.25.61v.11h-1.68v-2.72zm-3.58-3.83 1.42-1.75h.08l1.49 1.75z"/><path d="m247.61 343.27h2.55v-7.41h1.82v10.02h-1.82v-.82l-7-.02-.01.84h-1.89v-10.11h1.88v7.5l2.58-.02v-9.09h1.89z"/><path d="m230.68 343.86v-3.26h3.89v-1.79l-3.89-.02v-2.57h4.17v-1.85h-10.23v1.85h4.13v2.57h-3.86v1.81h3.86v3.26h-4.7v1.81h11.31v-1.81z"/><path d="m232.42 341.16a1.13 1.13 0 0 0 -.78.94 1.18 1.18 0 0 0 .25.83 1.15 1.15 0 0 0 1.21.35 1.18 1.18 0 0 0 .74-.77 1.21 1.21 0 0 0 -.14-.9 1.13 1.13 0 0 0 -1.28-.45z"/><path d="m98.36 343.16h2.55v-7.41h1.82v10.02h-1.82v-.82l-7-.02-.01.84h-1.89v-10.1h1.88v7.49l2.58-.02v-9.09h1.89z"/><path d="m81.43 343.75v-3.26h3.89v-1.79l-3.89-.02v-2.57h4.17l.01-1.85h-10.23v1.85h4.12v2.57h-3.86v1.81h3.86v3.26h-4.7v1.81h11.31v-1.81z"/><path d="m83.17 341.05a1.11 1.11 0 1 0 .68 2.12 1.11 1.11 0 0 0 .6-1.66 1.13 1.13 0 0 0 -1.28-.46z"/><path d="m117.53 341.93-1.37-.5h1.74v-1.52h-3.4v-.74h1.65v-.95a13.13 13.13 0 0 0 2.68 1.62l1.12-1.75a9.1 9.1 0 0 1 -5.18-3.88l.08-.16-2.23-.21a8.53 8.53 0 0 1 -4.74 4.61l.81 1.79a19.6 19.6 0 0 0 2.4-1.68v.61h1.65v.74h-3.4v1.52h1.92l-1.38.52.64 2.06h-2.12v1.56h10.44v-1.57h-2.29zm-5.42-4.28a15 15 0 0 0 1.63-1.83 12.73 12.73 0 0 0 1.73 1.83zm-1.36 6.35 1.57-.59-.94-2h1.36v2.59zm3.75-2.58h1.34l-.92 2 1.51.61h-1.93z"/><path d="m131.02 337.05h3.95v1.1h1.52v-1.1-.37-1.01h-2.74v-1.59h-1.51v1.59h-2.74v1.01.37 1.1h1.52z"/><path d="m133.75 342.18h1.82v-1.08l.37.27 1.13-1a6.13 6.13 0 0 1 -2.47-2.72l-1.32.59a9.91 9.91 0 0 0 1.87 2.49h-4.31a9.91 9.91 0 0 0 1.87-2.49l-1.33-.59a6.17 6.17 0 0 1 -2.06 2.47v-1.12l-1.07.24v-1.24h1v-1.55h-1v-2.4h-1.55v2.4h-1.49v1.55h1.49v1.55l-1.7.45.29 1.69 1.41-.39v2.59a.31.31 0 0 1 -.3.3h-.8l.64 1.62h.48a1.54 1.54 0 0 0 1.53-1.53v-3.4l.91-.25.89.78.36-.27v1.08h1.83v2h-2.93v1.45h7.37v-1.45h-2.93z"/><path d="m172.99 343.54h2.62v-7.64h1.88v10.18h-1.88v-.69l-7.22-.02-.02.65h-1.94v-10.21h1.94v7.73l2.66-.02v-9.37h1.96z"/><path d="m155.77 344.01v-3.33h3.96v-1.82l-3.96-.02v-2.62h4.25v-1.88h-10.42v1.88h4.2v2.62h-3.93v1.84h3.93v3.33h-4.79v1.84h11.53v-1.84z"/><path d="m157.54 341.26a1.15 1.15 0 0 0 -.79 1 1.22 1.22 0 0 0 .25.84 1.2 1.2 0 0 0 1.24.36 1.15 1.15 0 0 0 .74-.79 1.19 1.19 0 0 0 -.14-.91 1.12 1.12 0 0 0 -1.3-.5z"/><path d="m186.63 341.68h1.92v1.22h-1.92z" transform="matrix(.21303039 -.97704557 .97704557 .21303039 -186.8 452.68)"/><path d="m193.51 343.08 1.67-1.21s-1.1-1.13-1.13-1.14-1 .62-1.34.89a5.14 5.14 0 0 1 -.23-1.27h2v-6.12h-5.78v9.84l-.56.1v-.77l-1.57.28v-2.84h1.73v-1.53h-1.73v-.6h1.26v-.71l.11.08.8-1.8a4.3 4.3 0 0 1 -2-2.18h-1.63a5 5 0 0 1 -2.17 2.53l.79 1.8s.14-.11.34-.3v.62h1v.6h-1.88v1.53h1.81v3.1l-1.92.34v1.7l4.84-.93v.9l3.9-.68-.09-1.55a6 6 0 0 0 2.47 2.27l.83-1.62a8 8 0 0 1 -1.52-1.33zm-8.57-5.91a7.25 7.25 0 0 0 .93-1.18 5.86 5.86 0 0 0 1 1.18zm5.48-1.26h2.4v.81h-2.4zm0 7.86v-3.42h.5a6.48 6.48 0 0 0 .79 3.21zm0-4.83v-.81h2.4v.81z"/><path d="m184.66 343.41-.29-2.05-1.27.23.29 2.06z"/><path d="m204.92 334.24h6.75v1.81h-6.75z"/><path d="m212.17 338.13h-7.85l-1.33-.94a13.24 13.24 0 0 1 -2.92 3.43l.83 2s.38-.32.91-.85v4.23h1.84v-6.4a10 10 0 0 0 .64-1v1.33h4.2v4.07a.26.26 0 0 1 -.26.26h-2.14l.72 1.8h2.19a1.36 1.36 0 0 0 1.36-1.35v-4.77h1.8z"/><path d="m204.31 335.13c-.53-.34-1-.73-1.56-1.07a11.28 11.28 0 0 1 -2.58 2.45l.86 1.78a14.05 14.05 0 0 0 3.28-3.16z"/><path d="m304.68 149.8.16.69h-.79l.25-.69zm-1.36-3.62a18 18 0 0 1 -.37 2.07h-1.48l.88-1.37-1.52-.46-.22.34a9.09 9.09 0 0 1 -2.14 2.1l1.38 1.06s.82-.67 1-.86v.74h1.73l-.36.69h-3.55v1.57h2.44a10.31 10.31 0 0 1 -2.6 1.66l1 1.55a10.12 10.12 0 0 0 1.85-1.14v.51h1.11c-.54 1.39-2.24 1.76-3.16 1.81 0 0 .74 1.75.79 1.71s.7-.15 1.83-.52a4.06 4.06 0 0 0 2.45-3h1.62c0 1.19-.25 1.56-.82 1.61l-1 .05c.23.62.73 1.86.73 1.86.79-.11 2.17-.26 2.52-1.29a6.07 6.07 0 0 0 .32-2.46 12.23 12.23 0 0 0 1.81.72l.7-1.78a5.3 5.3 0 0 1 -2.7-1.29h2.52v-1.57h-3.48l-.28-.69h1.31v-.72s.94.75 1.09.82l1.31-1.22a6.89 6.89 0 0 1 -1.16-.73 16.09 16.09 0 0 1 -1.49-1.48l-1.33.56a10.37 10.37 0 0 0 .78 1.22h-2.07l.49-1.9zm2.14 5.88.67 1h-3.52l.69-1z"/><path d="m290.55 150h-2.19l1.08-1.66zm-1.55-3.51h-2.86v1.37h1.86l-.42.74-.71-.5-.81.71v-.44h-4.47v1.41h4.41v-.52l.49.57s-.66.55-.87.71v-.33h-3.7v1.33h3.7v-.29l.68 1v3.09h.7l.29 1.17h-1.29v1.43h7.31v-1.44h-1.69l.34-1.17h.73v-3l1-1.55-1-.83 1-1.08-1-1-1 1.07-.29-.36.95-1-1-1.05s-.59.69-.68.74l-.51-1.07zm3.29 5.43h-5.61l.95-1v.54h3.37v-.84zm-1.19 2.16h-3.1v-.91h3.13zm-1.1 2.42h-1l-.34-1.17h1.62zm-8.1-8.57h3.59v-1.44h-3.59zm0 5.38h3.7v-1.31h-3.7zm0 .42v4.45h1.35v-.59h1.06v.59h1.37v-4.45zm2.41 2.52h-1.06v-1.17h1.06z"/><path d="m271.37 155.37h2.54v-7.41h1.83v10.02h-1.83v-.82l-7-.02v.84h-1.89v-10.1h1.87v7.49l2.58-.02v-9.09h1.9z"/><path d="m254.13 155.96v-3.26h3.9v-1.79l-3.9-.02v-2.57h4.18v-1.85h-10.23v1.85h4.12v2.57h-3.86v1.81h3.86v3.26h-4.7v1.82h11.32v-1.82z"/><path d="m255.87 153.26a1.14 1.14 0 0 0 -.77 1 1.07 1.07 0 0 0 .25.82 1.11 1.11 0 0 0 1.8-1.31 1.12 1.12 0 0 0 -1.28-.51z"/><path d="m121.82 155.26h2.54v-7.41h1.83v10.03h-1.83v-.83l-7-.02v.85h-1.89v-10.11h1.87v7.49l2.58-.02v-9.09h1.9z"/><path d="m104.89 155.85-.01-3.26h3.9v-1.79l-3.9-.02v-2.57h4.18v-1.85h-10.23v1.85h4.12v2.57h-3.86v1.81h3.86v3.26h-4.7v1.82h11.32v-1.82z"/><path d="m106.62 153.15a1.14 1.14 0 0 0 -.77.95 1.07 1.07 0 0 0 .25.82 1.13 1.13 0 0 0 1.21.35 1.11 1.11 0 0 0 .73-.77 1.14 1.14 0 0 0 -.14-.89 1.12 1.12 0 0 0 -1.28-.46z"/><path d="m141 154-1.36-.5h1.74v-1.5h-3.38v-.74h1.65v-1a13.13 13.13 0 0 0 2.68 1.62l1.13-1.75a9.1 9.1 0 0 1 -5.18-3.88l.07-.15-2.23-.22a8.53 8.53 0 0 1 -4.73 4.61l.81 1.79a20.4 20.4 0 0 0 2.4-1.68v.61h1.65v.79h-3.41v1.52h1.92l-1.38.52.65 2.06h-2.13v1.56h10.4v-1.56h-2.3zm-5.42-4.28a16.9 16.9 0 0 0 1.64-1.83 13 13 0 0 0 1.72 1.83zm-1.35 6.36 1.57-.59-.94-2h1.36v2.58zm3.74-2.58h1.35l-.93 2 1.52.61h-1.91z"/><path d="m154.47 149.15h3.95v1.1h1.52v-1.1-.37-1.01h-2.74v-1.58h-1.51v1.58h-2.73v1.01.37 1.1h1.51z"/><path d="m157.2 154.28h1.8v-1.08l.36.27 1.13-1a6.14 6.14 0 0 1 -2.46-2.72l-1.32.59a9.62 9.62 0 0 0 1.87 2.49h-4.32a9.91 9.91 0 0 0 1.87-2.49l-1.32-.59a6.25 6.25 0 0 1 -2.06 2.47v-1.11l-1.08.23v-1.21h1v-1.54h-1v-2.4h-1.55v2.4h-1.48v1.54h1.48v1.56l-1.69.37.28 1.69 1.41-.38v2.63a.29.29 0 0 1 -.3.3h-.79l.64 1.62h.47a1.53 1.53 0 0 0 1.53-1.53v-3.4l.92-.25.89.78.36-.27v1.08h1.83v2h-2.94v1.45h7.38v-1.45h-2.91z"/><path d="m196.44 155.65h2.62v-7.64h1.89v10.17h-1.89v-.69l-7.22-.02-.01.65h-1.94v-10.2h1.94v7.73l2.66-.02v-9.38h1.95z"/><path d="m179.22 156.11v-3.33h3.97v-1.82l-3.97-.01v-2.63h4.25l.01-1.88h-10.42v1.88h4.2v2.63h-3.93v1.83h3.93v3.33h-4.79v1.84h11.52v-1.84z"/><path d="m181 153.36a1.14 1.14 0 0 0 -.53 1.8 1.14 1.14 0 0 0 1.84-1.34 1.15 1.15 0 0 0 -1.31-.46z"/><path d="m210.09 153.78h1.92v1.22h-1.92z" transform="matrix(.21303039 -.97704557 .97704557 .21303039 15.25 327.72)"/><path d="m217 155.18 1.68-1.21s-1.1-1.12-1.14-1.14-.95.63-1.34.89a6.15 6.15 0 0 1 -.23-1.27h2v-6.12h-5.79v9.84l-.55.1v-.77l-1.58.28v-2.84h1.73v-1.53h-1.78v-.6h1.26v-.75l.12.08.79-1.8a4.36 4.36 0 0 1 -2-2.18h-1.62a5 5 0 0 1 -2.18 2.53l.8 1.8.33-.3v.62h1v.6h-1.88v1.53h1.88v3.06l-1.92.34v1.7l4.85-.93v.9l3.89-.68-.08-1.55a5.8 5.8 0 0 0 2.47 2.27l.82-1.62a8.26 8.26 0 0 1 -1.53-1.25zm-8.57-5.91a7.35 7.35 0 0 0 .94-1.18 5.56 5.56 0 0 0 1 1.18zm5.49-1.25h2.39v.8h-2.39zm0 7.85v-3.42h.5a6.59 6.59 0 0 0 .78 3.21zm0-4.82v-.82h2.39v.82z"/><path d="m208.11 155.51-.29-2.05-1.26.23.28 2.06z"/><path d="m228.37 146.34h6.75v1.81h-6.75z"/><path d="m235.62 150.24h-7.85l-1.32-1a13.46 13.46 0 0 1 -2.92 3.43l.82 2s.39-.33.91-.86v4.29h1.85v-6.4a9.91 9.91 0 0 0 .63-1v1.3h4.2v4.06a.26.26 0 0 1 -.26.26h-2.13l.71 1.8h2.21a1.35 1.35 0 0 0 1.35-1.35v-4.77h1.8z"/><path d="m227.77 147.24c-.53-.35-1.05-.74-1.56-1.08a11.53 11.53 0 0 1 -2.59 2.45l.86 1.78a14.26 14.26 0 0 0 3.29-3.15z"/><path d="m158.63 54.2h2.54v-7.41h1.82v10.02h-1.82v-.82l-7-.02v.84h-1.9v-10.11h1.88v7.5l2.58-.02v-9.09h1.9z"/><path d="m141.69 54.79v-3.27h3.9v-1.78l-3.9-.02v-2.57h4.17l.01-1.85h-10.23v1.85h4.12v2.57h-3.86v1.8h3.86v3.27h-4.7v1.81h11.31v-1.81z"/><path d="m143.43 52.09a1.12 1.12 0 0 0 -.53 1.77 1.12 1.12 0 0 0 1.95-.42 1.21 1.21 0 0 0 -.14-.9 1.13 1.13 0 0 0 -1.28-.45z"/><path d="m177.79 53-1.37-.5h1.74v-1.5h-3.4v-.74h1.65v-1a12.71 12.71 0 0 0 2.68 1.63l1.13-1.75a9.1 9.1 0 0 1 -5.22-3.89l.08-.16-2.23-.21a8.53 8.53 0 0 1 -4.74 4.61l.81 1.79a18.57 18.57 0 0 0 2.4-1.69v.62h1.68v.79h-3.4v1.52h1.92l-1.38.52.65 2.06h-2.13v1.56h10.44v-1.61h-2.29c.19-.28.93-1.97.98-2.05zm-5.42-4.28a16.9 16.9 0 0 0 1.63-1.86 12.26 12.26 0 0 0 1.72 1.83h-3.36zm-1.37 6.33 1.57-.59-.94-2h1.37v2.58zm3.74-2.58h1.34l-.92 2 1.52.61h-1.94z"/><path d="m191.28 48.09h3.95v1.1h1.52v-1.1-.37-1.01h-2.74v-1.59h-1.51v1.59h-2.74v1.01.37 1.1h1.52z"/><path d="m194 53.22h1.83v-1.08l.36.27 1.13-1a6.13 6.13 0 0 1 -2.46-2.73l-1.33.6a9.77 9.77 0 0 0 1.87 2.48h-4.3a9.77 9.77 0 0 0 1.9-2.48l-1.32-.6a6.15 6.15 0 0 1 -2.07 2.48v-1.16l-1.07.24v-1.17h1v-1.55h-1v-2.4h-1.54v2.4h-1.48v1.55h1.48v1.55l-1.7.38.29 1.69 1.41-.39v2.59a.3.3 0 0 1 -.3.3h-.79l.64 1.61h.45a1.52 1.52 0 0 0 1.53-1.53v-3.39l.92-.25.88.78.37-.27v1.08h1.82v2h-2.93v1.45h7.37v-1.49h-2.96z"/><path d="m233.25 54.58h2.62v-7.64h1.89v10.18h-1.89v-.69l-7.22-.02-.02.65h-1.93v-10.21h1.93v7.73l2.66-.02v-9.37h1.96z"/><path d="m216.03 55.05v-3.33h3.97v-1.82l-3.97-.02v-2.62h4.25v-1.88h-10.41v1.88h4.2v2.62h-3.94v1.84h3.94v3.33h-4.79v1.84h11.52v-1.84z"/><path d="m217.8 52.29a1.14 1.14 0 1 0 .7 2.16 1.15 1.15 0 0 0 .75-.78 1.23 1.23 0 0 0 -.14-.91 1.16 1.16 0 0 0 -1.31-.47z"/><path d="m246.89 52.72h1.92v1.22h-1.92z" transform="matrix(.21303039 -.97704557 .97704557 .21303039 142.96 284.14)"/><path d="m253.77 54.12c1.41-1 1.67-1.22 1.67-1.22s-1.09-1.12-1.13-1.13-1 .62-1.34.89a6.27 6.27 0 0 1 -.23-1.27h2v-6.12h-5.74v9.84l-.56.1v-.77l-1.58.28v-2.84h1.73v-1.53h-1.73v-.6h1.26v-.75l.11.09.8-1.8a4.36 4.36 0 0 1 -2-2.19h-1.63a5 5 0 0 1 -2.17 2.54l.8 1.8.33-.3v.62h1v.6h-1.88v1.53h1.88v3.11l-1.92.34v1.69l4.84-.92v.89l3.9-.68-.08-1.55a5.86 5.86 0 0 0 2.44 2.23l.82-1.62a8.26 8.26 0 0 1 -1.59-1.26zm-8.57-5.91a6.79 6.79 0 0 0 .93-1.19 6 6 0 0 0 1 1.19zm5.49-1.21h2.39v.81h-2.39zm0 7.86v-3.47h.49a6.52 6.52 0 0 0 .79 3.2zm0-4.83v-.81h2.39v.78z"/><path d="m244.92 54.45-.29-2.05-1.27.23.29 2.06z"/><path d="m265.18 45.28h6.75v1.81h-6.75z"/><path d="m272.43 49.17h-7.85l-1.33-.94a13.24 13.24 0 0 1 -2.92 3.43l.83 2s.38-.33.91-.85v4.29h1.85v-6.46c.23-.33.44-.67.63-1v1.36h4.2v4a.26.26 0 0 1 -.26.26h-2.14l.72 1.8h2.21a1.35 1.35 0 0 0 1.35-1.36v-4.7h1.8z"/><path d="m264.57 46.17c-.53-.34-1-.73-1.55-1.08a11.58 11.58 0 0 1 -2.59 2.46l.86 1.78a13.86 13.86 0 0 0 3.28-3.16z"/></g><path d="m56.45 35.05h4.99v8.01h-4.99z" fill="#00b2e1"/></svg>