<svg viewBox="0 0 480.74 369.71" xmlns="http://www.w3.org/2000/svg"><path d="m12 4c0 .09 0 .14-.1.15s-.1.08-.1.2v2h2.35c.07 0 .11 0 .11.15v.3c0 .1 0 .15-.11.15h-2.39v2.11h3.79c.08 0 .12.06.12.16v.31c0 .1 0 .16-.12.16h-8.55c-.07 0-.11-.06-.11-.16v-.31c0-.1 0-.16.11-.16h1.4v-3.44c0-.07.05-.11.16-.11.49 0 .74 0 .74.11s0 .14-.09.15-.1.08-.1.2v3.09h1.89v-5.06c0-.08.05-.12.16-.12q.84.02.84.12zm0-2.67c.06 0 .1.09.1.13s-.07.16-.19.16a.67.67 0 0 0 -.22 0 8.78 8.78 0 0 0 .81 1.14 5.9 5.9 0 0 0 1.11 1 6.18 6.18 0 0 0 1.84 1c.08 0 .13 0 .13.08a.18.18 0 0 1 -.06.13 5.5 5.5 0 0 0 -.42.37c0 .06-.08.09-.1.09a5.81 5.81 0 0 1 -1.37-.71 6 6 0 0 1 -1.4-1.18 11 11 0 0 1 -1.05-1.35 9.6 9.6 0 0 1 -.74.85 7.9 7.9 0 0 1 -.92.9 13.07 13.07 0 0 1 -1.1.85 6.3 6.3 0 0 1 -.89.52.2.2 0 0 1 -.17-.1 1.65 1.65 0 0 0 -.36-.37q-.12-.06-.12-.12h.07a8.72 8.72 0 0 0 1.31-.72 9.47 9.47 0 0 0 1.41-1.09 5.86 5.86 0 0 0 .77-.85 6.16 6.16 0 0 0 .61-1 .23.23 0 0 1 .17-.06z" fill="#231815"/><path d="m20.79 1.17c0 .09 0 .15-.1.15s-.1.08-.1.2v1.29h1.33v-1.68c0-.08 0-.12.16-.12.49 0 .74 0 .74.12s0 .14-.1.15-.1.08-.1.2v1.33h.83a5.55 5.55 0 0 0 .38-.63c.12-.3.22-.57.3-.82a.11.11 0 0 1 .09-.07l.62.32c.06 0 .09.08.09.11s0 .08-.1.08-.15 0-.17.1a8.41 8.41 0 0 1 -.45.91h1.34c.05 0 .08 0 .08.12v.31c0 .11 0 .16-.08.16h-2.17q-.16.6-.38 1.05h1.75c.08 0 .12.06.12.16v.31c0 .11 0 .16-.12.16h-3.1v.78h2.65c.05 0 .08 0 .08.11v.32c0 .1 0 .15-.08.15h-2.65v.78h3.51c.08 0 .12.06.12.16v.31c0 .11 0 .16-.12.16h-3.16a6.73 6.73 0 0 0 .89.52 9.09 9.09 0 0 0 1.43.56 9.08 9.08 0 0 0 1.39.33s0 .08-.11.11a3.55 3.55 0 0 0 -.38.43s-.08.08-.1.08a12.74 12.74 0 0 1 -1.71-.59 7 7 0 0 1 -1.29-.73 3.68 3.68 0 0 1 -.51-.37v1.81c0 .08-.07.12-.2.12h-.39c-.11 0-.16 0-.16-.12v-1.72a1.59 1.59 0 0 1 -.25.17 8 8 0 0 1 -1 .63c-.4.19-.85.37-1.34.55a7.74 7.74 0 0 1 -1 .29s-.09-.05-.13-.13l-.33-.37q-.09-.09-.09-.12c.65-.14 1.23-.28 1.69-.42a8.58 8.58 0 0 0 1.4-.57 5.84 5.84 0 0 0 .69-.46h-3.18c-.08 0-.12 0-.12-.16v-.31c0-.1 0-.16.12-.16h3.58v-.78h-2.77c-.06 0-.08-.05-.08-.15v-.29c0-.07 0-.11.08-.11h2.77v-.81h-3.15c-.08 0-.13 0-.13-.16v-.31c0-.1.05-.16.13-.16h1.83q-.27-.6-.51-1.05h-2.15c-.05 0-.07 0-.07-.16v-.31c0-.08 0-.12.07-.12h1.66l-.13-.27a5.78 5.78 0 0 0 -.59-.9s.16-.14.5-.31a7.71 7.71 0 0 1 .6.88 5.48 5.48 0 0 1 .29.6h.64v-1.64q0-.12.15-.12.75 0 .75.12zm1.51 3.28c.1-.21.18-.39.24-.55a4.79 4.79 0 0 0 .17-.5h-2.94q.3.51.57 1.05z" fill="#231815"/><path d="m28.09 3.08v-1.95c0-.08.05-.12.16-.12.49 0 .74 0 .74.12s0 .14-.1.15-.1.08-.1.2v1.6h.9c.08 0 .12.06.12.16v.31c0 .11 0 .16-.12.16h-.77a9.76 9.76 0 0 0 .36 1.06 5 5 0 0 0 .72 1.23.16.16 0 0 1 .05.11s0 0-.06.08a2.3 2.3 0 0 1 -.27.28.11.11 0 0 1 -.2 0 5.78 5.78 0 0 1 -.62-1.17 2.83 2.83 0 0 1 -.11-.3v5q0 .12-.15.12h-.39c-.11 0-.16 0-.16-.12v-4c-.09.3-.19.58-.29.83a7.67 7.67 0 0 1 -.56 1.17.18.18 0 0 1 -.16 0 3.29 3.29 0 0 1 -.42-.21c-.06 0-.08 0-.08 0a10.25 10.25 0 0 0 .7-1.41 9.43 9.43 0 0 0 .42-1.38c.07-.28.16-.71.27-1.3h-1c-.07 0-.11 0-.11-.16v-.3c0-.1 0-.16.11-.16zm3.52 5.15a.24.24 0 0 1 .07.13s0 0-.06 0a.27.27 0 0 0 -.16.06 4.3 4.3 0 0 1 -.54.58 7 7 0 0 1 -.88.61.14.14 0 0 1 -.15-.08c-.13-.11-.24-.2-.32-.28s-.07 0-.07-.07a.05.05 0 0 1 0-.05 1.63 1.63 0 0 0 .5-.13 3.79 3.79 0 0 0 .61-.5c.14-.15.31-.34.49-.57 0 0 0-.05.05-.05zm4-1.43s.08 0 .08.11v.31c0 .11 0 .16-.08.16h-2.44v1.92c0 .49-.41.74-1.21.74h-.43c-.05 0-.07-.07-.07-.19a1.64 1.64 0 0 0 -.17-.52 3.57 3.57 0 0 0 .63.07c.36 0 .55-.12.55-.35v-1.67h-2.47c-.06 0-.08 0-.08-.16v-.31c0-.07 0-.11.08-.11zm0-5.4s.08 0 .08.12v.31c0 .11 0 .16-.08.16h-1.74v.78h1.41q.15 0 .15.12v1.91q0 .12-.15.12h-5c-.11 0-.16 0-.16-.12v-1.91c0-.08.05-.12.16-.12h1.37v-.77h-1.65s0-.06 0-.17v-.31c0-.08 0-.12.07-.12zm-.61 4.18s.07 0 .07.12v.3c0 .11 0 .16-.07.16h-4.37c-.06 0-.08 0-.08-.16v-.3c0-.08 0-.12.08-.12zm-3.35-2.22h-.82v1h.82zm1.56-1.36h-.9v.78h.9zm0 1.37h-.9v1h.9zm1.52 0h-.86v1h.86zm.37 5.16c.25.26.47.49.65.7v.07l-.3.4a8.29 8.29 0 0 0 -.87-.9 4.8 4.8 0 0 0 -.62-.47 1.67 1.67 0 0 1 .27-.41s.06-.06.08-.06a8.78 8.78 0 0 1 .79.66z" fill="#231815"/><path d="m40.2 2.65c.08 0 .12.06.12.16v.31c0 .11 0 .16-.12.16h-3.31c-.08 0-.12 0-.12-.16v-.31c0-.1 0-.16.12-.16zm-.43 4.22c.1 0 .16 0 .16.12v2.89c0 .08-.06.12-.16.12h-.39c-.11 0-.16 0-.16-.12v-.39h-1.43v.43c0 .08-.07.12-.17.12h-.38c-.11 0-.16 0-.16-.12v-2.92a.14.14 0 0 1 .16-.16zm0-2.81c.08 0 .12.06.12.16v.31c0 .11 0 .16-.12.16h-2.3c-.07 0-.11-.05-.11-.16v-.31c0-.1 0-.16.11-.16zm0 1.37q.12 0 .12.15v.32q0 .15-.12.15h-2.3c-.07 0-.11 0-.11-.15v-.32c0-.1 0-.15.11-.15zm0-4.14q.12 0 .12.15v.32q0 .15-.12.15h-2.3c-.08 0-.11 0-.11-.15v-.32c0-.1 0-.15.11-.15zm-.55 7.58v-1.37h-1.43v1.37zm2.15-2a.12.12 0 0 1 -.08.12.22.22 0 0 0 -.11.17 10.34 10.34 0 0 1 -.18 1.38q-.09.3-.21.6s-.05.08-.07.08a3.09 3.09 0 0 0 -.54-.14.09.09 0 0 1 -.18-.08 7.25 7.25 0 0 0 .32-.87 9.83 9.83 0 0 0 .21-1.37.09.09 0 0 1 .1-.1c.5.08.74.16.74.21zm1.41-4.41v-1.41c0-.07 0-.11.15-.11.5 0 .75 0 .75.11s0 .14-.1.15-.1.08-.1.2v1.06h2.11c.08 0 .12.06.12.16v.31q0 .15-.12.15h-2.11v1.61h1.92c.07 0 .11 0 .11.15v.31c0 .11 0 .16-.11.16h-4.5c-.08 0-.11 0-.11-.16v-.31c0-.1 0-.15.11-.15h1.88v-1.61h-2.11q-.12 0-.12-.15v-.31c0-.1 0-.16.12-.16zm-.31 3.91c.07 0 .11 0 .11.07s0 .11-.07.12a.11.11 0 0 0 -.08.12v2.11c0 .29.18.43.54.43h.67c.36 0 .57-.05.65-.14a2.34 2.34 0 0 0 .32-.84 1.24 1.24 0 0 0 .41.37c.09 0 .14.08.14.14a2.62 2.62 0 0 1 -.41.94.76.76 0 0 1 -.6.19h-1.25c-.79 0-1.18-.24-1.18-.7v-2.78c0-.07 0-.11.08-.11zm1.3.21a6.41 6.41 0 0 1 .34.8 1.88 1.88 0 0 1 -.63.2 3.62 3.62 0 0 0 -.23-.68 5.36 5.36 0 0 0 -.51-.9s.17-.14.51-.31c.21.31.38.61.52.89zm1.92.93c.12.27.23.55.33.85a2.48 2.48 0 0 1 -.62.19 4 4 0 0 0 -.24-.71 6.06 6.06 0 0 0 -.51-1s.17-.14.51-.31c.22.38.39.7.53.98z" fill="#231815"/><path d="m178 4c0 .09 0 .14-.1.15s-.1.08-.1.2v2h2.34c.07 0 .11 0 .11.15v.3c0 .1 0 .15-.11.15h-2.34v2.11h3.78c.08 0 .12.06.12.16v.31c0 .1 0 .16-.12.16h-8.58c-.08 0-.12-.06-.12-.16v-.31c0-.1 0-.16.12-.16h1.4v-3.44c0-.07.05-.11.16-.11.49 0 .74 0 .74.11s0 .14-.09.15-.1.08-.1.2v3.09h2v-5.06c0-.08 0-.12.16-.12.48.02.73.06.73.12zm0-2.67c.05 0 .1.09.1.13s-.08.16-.19.16a.79.79 0 0 0 -.23 0 11.24 11.24 0 0 0 .81 1.14 5.9 5.9 0 0 0 1.11 1 6.18 6.18 0 0 0 1.84 1c.08 0 .13 0 .13.08a.18.18 0 0 1 -.06.13 5.5 5.5 0 0 0 -.42.37c0 .06-.08.09-.1.09a5.81 5.81 0 0 1 -1.37-.71 6 6 0 0 1 -1.4-1.18 11.08 11.08 0 0 1 -1-1.35 9.6 9.6 0 0 1 -.74.85 7.9 7.9 0 0 1 -.92.9 13.07 13.07 0 0 1 -1.1.85 6.3 6.3 0 0 1 -.89.52.19.19 0 0 1 -.17-.1 2.28 2.28 0 0 0 -.33-.41q-.12-.06-.12-.12s0 0 .06 0a8.88 8.88 0 0 0 1.31-.68 9.47 9.47 0 0 0 1.41-1.11 5.86 5.86 0 0 0 .77-.85 6.16 6.16 0 0 0 .61-1 .23.23 0 0 1 .17-.11z" fill="#231815"/><path d="m186.85 1.17c0 .09 0 .15-.1.15s-.1.08-.1.2v1.29h1.35v-1.68q0-.12.15-.12c.49 0 .74 0 .74.12s0 .14-.1.15-.1.08-.1.2v1.33h.83a5.55 5.55 0 0 0 .38-.63c.12-.3.22-.57.3-.82a.11.11 0 0 1 .09-.07l.62.32c.06 0 .09.08.09.11s0 .08-.1.08-.15 0-.17.1a8.41 8.41 0 0 1 -.45.91h1.34c.05 0 .08 0 .08.12v.31c0 .11 0 .16-.08.16h-2.17q-.17.56-.36 1.05h1.75c.08 0 .12.06.12.16v.31c0 .11 0 .16-.12.16h-3.11v.78h2.64c.05 0 .08 0 .08.11v.32c0 .1 0 .15-.08.15h-2.64v.78h3.5c.08 0 .12.06.12.16v.31c0 .11 0 .16-.12.16h-3.12a7.44 7.44 0 0 0 .89.52 9.09 9.09 0 0 0 1.43.56 9.08 9.08 0 0 0 1.39.33s0 .08-.11.11a3.55 3.55 0 0 0 -.38.43s-.08.08-.1.08a12.74 12.74 0 0 1 -1.71-.59 7.32 7.32 0 0 1 -1.29-.73 4.29 4.29 0 0 1 -.5-.37v1.81c0 .08-.07.12-.2.12h-.39c-.11 0-.16 0-.16-.12v-1.72a1.59 1.59 0 0 1 -.25.17 8 8 0 0 1 -1 .63c-.4.19-.85.37-1.34.55a8.11 8.11 0 0 1 -1 .29s-.09-.05-.13-.13l-.33-.37q-.09-.09-.09-.12c.66-.14 1.23-.28 1.7-.42a8.58 8.58 0 0 0 1.4-.57 5.84 5.84 0 0 0 .69-.46h-3.16c-.08 0-.12 0-.12-.16v-.31c0-.1 0-.16.12-.16h3.53v-.78h-2.77c-.06 0-.08-.05-.08-.15v-.29c0-.07 0-.11.08-.11h2.77v-.81h-3.2c-.08 0-.12 0-.12-.16v-.31c0-.1 0-.16.12-.16h1.84q-.27-.6-.51-1.05h-2.13c-.06 0-.08 0-.08-.16v-.31c0-.08 0-.12.08-.12h1.66l-.13-.27a5.78 5.78 0 0 0 -.59-.9s.16-.14.5-.31a7.71 7.71 0 0 1 .6.88 5.48 5.48 0 0 1 .29.6h.67v-1.64q0-.12.15-.12.7 0 .7.12zm1.51 3.28a4.39 4.39 0 0 0 .23-.55 2.43 2.43 0 0 0 .17-.5h-2.93q.3.51.57 1.05z" fill="#231815"/><path d="m194.15 3.08v-1.95c0-.08 0-.12.16-.12.49 0 .74 0 .74.12s0 .14-.1.15-.1.08-.1.2v1.6h.9c.08 0 .12.06.12.16v.31c0 .11 0 .16-.12.16h-.75a9.76 9.76 0 0 0 .36 1.06 5 5 0 0 0 .69 1.23.16.16 0 0 1 0 .11s0 0-.06.08a2.3 2.3 0 0 1 -.27.28.11.11 0 0 1 -.2 0 5.78 5.78 0 0 1 -.52-1.17 2.83 2.83 0 0 1 -.11-.31v5q0 .12-.15.12h-.39c-.11 0-.16 0-.16-.12v-3.99c-.1.3-.19.58-.29.83a7.7 7.7 0 0 1 -.61 1.17.18.18 0 0 1 -.16-.06 4.11 4.11 0 0 1 -.42-.21c-.06 0-.08 0-.08 0a9.22 9.22 0 0 0 .7-1.41 8.2 8.2 0 0 0 .42-1.32c.08-.28.17-.71.28-1.3h-1.03c-.08 0-.12 0-.12-.16v-.3c0-.1 0-.16.12-.16zm3.52 5.15a.24.24 0 0 1 .07.13s0 0-.06 0a.27.27 0 0 0 -.16.06 4.3 4.3 0 0 1 -.52.58 7 7 0 0 1 -.88.61.14.14 0 0 1 -.15-.08l-.32-.28s-.07 0-.07-.07a.05.05 0 0 1 0-.05 1.63 1.63 0 0 0 .42-.13 3.79 3.79 0 0 0 .61-.5c.14-.15.31-.34.49-.57v-.05zm4-1.43c.05 0 .08 0 .08.11v.31c0 .11 0 .16-.08.16h-2.42v1.92c0 .49-.41.74-1.2.74h-.43c-.05 0-.07-.07-.07-.19a1.64 1.64 0 0 0 -.17-.52 3.57 3.57 0 0 0 .63.07c.35 0 .55-.12.55-.35v-1.67h-2.56c-.06 0-.08 0-.08-.16v-.31c0-.07 0-.11.08-.11zm0-5.4s.08 0 .08.12v.31c0 .11 0 .16-.08.16h-1.76v.78h1.41q.15 0 .15.12v1.91q0 .12-.15.12h-5c-.11 0-.16 0-.16-.12v-1.91c0-.08 0-.12.16-.12h1.37v-.77h-1.59s-.07-.05-.07-.16v-.32c0-.08 0-.12.07-.12zm-.67 4.18s.07 0 .07.12v.3c0 .11 0 .16-.07.16h-4.33c-.06 0-.08 0-.08-.16v-.3c0-.08 0-.12.08-.12zm-3.31-2.22h-.82v1h.82zm1.57-1.36h-.89v.78h.89zm0 1.37h-.89v1h.89zm1.52 0h-.86v1h.86zm.37 5.16c.25.26.47.49.65.7l-.05.07-.3.4a8.29 8.29 0 0 0 -.87-.9 4.8 4.8 0 0 0 -.62-.47 1.67 1.67 0 0 1 .27-.41s.06-.06.08-.06a8.78 8.78 0 0 1 .84.66z" fill="#231815"/><path d="m204.13 3.19.65.44s0 0-.05.07a4.27 4.27 0 0 1 -.31.4c-.28-.2-.56-.39-.86-.57a4.48 4.48 0 0 0 -.62-.29 2 2 0 0 1 .27-.4s.06-.07.08-.07q.51.23.84.42zm3.07 4.43v-.62q0-.12.15-.12c.5 0 .74 0 .74.12s0 .14-.09.15-.1.08-.1.2v.28h3.58q.12 0 .12.15v.31c0 .11 0 .16-.12.16h-3.58v1.75c0 .07-.07.11-.16.11h-.39c-.1 0-.15 0-.15-.11v-1.76h-4.14c-.08 0-.12-.05-.12-.16v-.31q0-.15.12-.15zm-1.94-3.21c.14.32.22.49.22.51a.1.1 0 0 1 0 .08 12.78 12.78 0 0 1 -1 1.16c-.17.18-.38.37-.62.58a.37.37 0 0 0 -.06.21c0 .08 0 .12-.08.12a2.64 2.64 0 0 1 -.56-.56.11.11 0 0 1 -.06-.11.1.1 0 0 1 .05-.08 3.2 3.2 0 0 0 .6-.43 7.67 7.67 0 0 0 .82-.8c.23-.25.43-.49.61-.71h.07s-.01-.02.01.03zm-.46-2.9.6.44s0 0-.05.07l-.3.4c-.26-.2-.52-.39-.8-.57a3.84 3.84 0 0 0 -.57-.29 1.85 1.85 0 0 1 .28-.4s0-.07.07-.07c.31.16.57.3.77.42zm3-.34c0 .06 0 .09-.05.09a.19.19 0 0 0 -.18.11c-.13.27-.25.5-.36.7h1.57l.2-.3a5.7 5.7 0 0 0 .28-.76s0-.07.06-.07a8.69 8.69 0 0 1 .82.39s0 0-.12.07a.25.25 0 0 0 -.18.14c-.08.18-.17.35-.27.53h1.86s.07 0 .07.12v.31c0 .08 0 .12-.07.12h-2v.7h1.76c.05 0 .08 0 .08.12v.31c0 .1 0 .15-.08.15h-1.76v.67h1.76c.05 0 .08 0 .08.12v.31c0 .1 0 .15-.08.15h-1.76v.71h2.19c.05 0 .08 0 .08.11v.32c0 .1 0 .15-.08.15h-4.62v.39q0 .12-.15.12h-.32q-.15 0-.15-.12v-3.65c-.18.19-.4.41-.67.65a.22.22 0 0 1 -.17-.09l-.27-.23a.14.14 0 0 1 -.06-.11c.22-.2.44-.42.67-.65a5 5 0 0 0 .76-1 4.85 4.85 0 0 0 .36-.92c0-.06 0-.08 0-.08a2.42 2.42 0 0 1 .78.42zm.93 1.45h-1.73v.7h1.75zm0 1.28h-1.73v.67h1.75zm0 2v-.75h-1.73v.71z" fill="#231815"/><path d="m219.38 3.59a.26.26 0 0 1 .18.05c.14.12.21.2.21.26l-1.91 2v.54h3.78c.08 0 .12.06.12.16v.4c0 .11 0 .16-.12.16h-3.78v2.17c0 .52-.37.79-1.09.79h-.77c-.05 0-.08-.07-.09-.2a1.18 1.18 0 0 0 -.19-.51c0-.06 0-.08.08-.08a4.89 4.89 0 0 0 .94.12.31.31 0 0 0 .35-.35v-1.91h-4c-.08 0-.12-.05-.12-.16v-.39c0-.1 0-.16.12-.16h4v-1.05a.14.14 0 0 1 .16-.16l.23.11 1.13-1.16h-3.61c-.08 0-.12 0-.12-.16v-.31c0-.1 0-.16.12-.16zm-1.52-2.54c0 .1 0 .14-.11.15s-.08.08-.08.2v.6h3.54c.1 0 .16 0 .16.12v1.88c0 .08-.06.12-.16.12h-.39c-.11 0-.16 0-.16-.12v-1.42h-6.78v1.42c0 .08-.06.12-.16.12h-.39c-.11 0-.16 0-.16-.12v-1.89a.14.14 0 0 1 .16-.16h3.59v-.9c0-.07.05-.11.16-.11.52 0 .78.06.78.11z" fill="#231815"/><path d="m178 208.87c0 .09 0 .14-.1.15s-.1.08-.1.2v2h2.34c.07 0 .11 0 .11.15v.32c0 .1 0 .15-.11.15h-2.34v2.11h3.78c.08 0 .12.06.12.16v.31c0 .1 0 .16-.12.16h-8.58c-.08 0-.12-.06-.12-.16v-.31c0-.1 0-.16.12-.16h1.4v-3.44c0-.07.05-.11.16-.11.49 0 .74 0 .74.11s0 .14-.09.15-.1.08-.1.2v3.09h2v-5c0-.08 0-.12.16-.12.48-.08.73-.04.73.04zm0-2.67c.05.05.1.09.1.13s-.08.16-.19.16a.79.79 0 0 0 -.23 0 11.24 11.24 0 0 0 .81 1.14 5.9 5.9 0 0 0 1.11 1 6.18 6.18 0 0 0 1.84 1c.08 0 .13 0 .13.08a.18.18 0 0 1 -.06.13 5.5 5.5 0 0 0 -.42.37c0 .06-.08.09-.1.09a5.81 5.81 0 0 1 -1.37-.71 6 6 0 0 1 -1.4-1.18 11.08 11.08 0 0 1 -1-1.35 9.6 9.6 0 0 1 -.74.85 7.9 7.9 0 0 1 -.92.9 13.07 13.07 0 0 1 -1.1.85 6.3 6.3 0 0 1 -.89.52.19.19 0 0 1 -.17-.1 2.28 2.28 0 0 0 -.33-.41q-.12-.06-.12-.12s0 0 .06 0a8.88 8.88 0 0 0 1.28-.65 9.47 9.47 0 0 0 1.41-1.11 5.86 5.86 0 0 0 .77-.85 6.16 6.16 0 0 0 .61-1c.06-.08.12-.12.17-.12z" fill="#231815"/><path d="m186.85 206c0 .09 0 .14-.1.15s-.1.08-.1.2v1.29h1.35v-1.64q0-.12.15-.12c.49 0 .74 0 .74.12s0 .14-.1.15-.1.08-.1.2v1.33h.83a5.55 5.55 0 0 0 .38-.63c.12-.3.22-.57.3-.82a.11.11 0 0 1 .09-.07l.62.32c.06 0 .09.08.09.11s0 .08-.1.08-.15 0-.17.1a8.41 8.41 0 0 1 -.45.91h1.34c.05 0 .08 0 .08.12v.31c0 .11 0 .16-.08.16h-2.17q-.17.56-.36 1.05h1.75c.08 0 .12.06.12.16v.31c0 .11 0 .16-.12.16h-3.11v.78h2.64c.05 0 .08 0 .08.11v.32c0 .1 0 .15-.08.15h-2.64v.78h3.5c.08 0 .12.06.12.16v.31c0 .11 0 .16-.12.16h-3.12a7.44 7.44 0 0 0 .89.52 10.58 10.58 0 0 0 2.82.89s0 .08-.11.11a3.55 3.55 0 0 0 -.38.43s-.08.08-.1.08a12.74 12.74 0 0 1 -1.71-.59 7.32 7.32 0 0 1 -1.29-.73 4.29 4.29 0 0 1 -.5-.37v1.81c0 .08-.07.12-.2.12h-.39c-.11 0-.16 0-.16-.12v-1.72a1.59 1.59 0 0 1 -.25.17 8 8 0 0 1 -1 .63c-.4.19-.85.37-1.34.55a8.11 8.11 0 0 1 -1 .29s-.09-.05-.13-.13l-.33-.37q-.09-.09-.09-.12c.66-.14 1.23-.28 1.7-.42a8.58 8.58 0 0 0 1.4-.57 5.84 5.84 0 0 0 .69-.46h-3.16c-.08 0-.12 0-.12-.16v-.31c0-.1 0-.16.12-.16h3.53v-.78h-2.77c-.06 0-.08 0-.08-.15v-.32c0-.07 0-.11.08-.11h2.77v-.78h-3.2c-.08 0-.12-.05-.12-.16v-.31c0-.1 0-.16.12-.16h1.84q-.27-.6-.51-1.05h-2.13c-.06 0-.08-.05-.08-.16v-.31c0-.08 0-.12.08-.12h1.66l-.13-.27a5.78 5.78 0 0 0 -.59-.9s.16-.14.5-.31a7.71 7.71 0 0 1 .6.88 5.48 5.48 0 0 1 .29.6h.67v-1.68q0-.12.15-.12.7.02.7.12zm1.51 3.28a4.39 4.39 0 0 0 .23-.55 2.43 2.43 0 0 0 .17-.5h-2.93q.3.51.57 1.05z" fill="#231815"/><path d="m194.15 207.93v-2c0-.08 0-.12.16-.12.49 0 .74 0 .74.12s0 .14-.1.15-.1.08-.1.2v1.6h.9c.08 0 .12.06.12.16v.31c0 .11 0 .16-.12.16h-.75a9.76 9.76 0 0 0 .36 1.06 5 5 0 0 0 .71 1.25.16.16 0 0 1 0 .11s0 .05-.06.08a2.3 2.3 0 0 1 -.27.28.11.11 0 0 1 -.2 0 5.78 5.78 0 0 1 -.61-1.19 2.83 2.83 0 0 1 -.11-.31v5q0 .12-.15.12h-.39c-.11 0-.16 0-.16-.12v-4c-.1.3-.19.58-.29.83a7.7 7.7 0 0 1 -.57 1.23.18.18 0 0 1 -.16-.06l-.42-.21c-.06 0-.08 0-.08-.05a9.22 9.22 0 0 0 .7-1.41 8.2 8.2 0 0 0 .42-1.27c.08-.28.17-.71.28-1.3h-1c-.08 0-.12-.05-.12-.16v-.31c0-.1 0-.16.12-.16zm3.52 5.15a.24.24 0 0 1 .07.13s0 0-.06 0a.27.27 0 0 0 -.16.06 4.3 4.3 0 0 1 -.54.58 7 7 0 0 1 -.88.61.14.14 0 0 1 -.15-.08l-.32-.28s-.07 0-.07-.07a.05.05 0 0 1 0 0 1.63 1.63 0 0 0 .42-.2 3.79 3.79 0 0 0 .61-.5c.14-.15.31-.34.49-.57v-.05zm4-1.43c.05 0 .08 0 .08.11v.31c0 .11 0 .16-.08.16h-2.42v1.92c0 .49-.41.74-1.2.74h-.43c-.05 0-.07-.07-.07-.19a1.64 1.64 0 0 0 -.17-.52 3.57 3.57 0 0 0 .63.07c.35 0 .55-.12.55-.35v-1.64h-2.56c-.06 0-.08 0-.08-.16v-.31c0-.07 0-.11.08-.11zm0-5.4s.08 0 .08.12v.31c0 .11 0 .16-.08.16h-1.76v.78h1.41q.15 0 .15.12v1.91q0 .12-.15.12h-5c-.11 0-.16 0-.16-.12v-1.91c0-.08 0-.12.16-.12h1.37v-.78h-1.59s-.07-.05-.07-.16v-.31c0-.08 0-.12.07-.12zm-.66 4.18s.07 0 .07.12v.31c0 .11 0 .16-.07.16h-4.33c-.06 0-.08-.05-.08-.16v-.31c0-.08 0-.12.08-.12zm-3.31-2.22h-.82v1h.82zm1.55-1.37h-.89v.78h.89zm0 1.37h-.89v1h.89zm1.52 0h-.86v1h.86zm.37 5.16c.25.26.47.49.65.7l-.05.07-.3.4a8.29 8.29 0 0 0 -.87-.9 4.8 4.8 0 0 0 -.62-.47 1.67 1.67 0 0 1 .27-.41s.06-.06.08-.06a8.78 8.78 0 0 1 .85.67z" fill="#231815"/><path d="m204.13 208 .65.44s0 0-.05.07a4.27 4.27 0 0 1 -.31.4c-.28-.2-.56-.39-.86-.57a4.48 4.48 0 0 0 -.62-.29 2 2 0 0 1 .27-.4s.06-.07.08-.07q.51.28.84.42zm3.07 4.43v-.63q0-.12.15-.12c.5 0 .74 0 .74.12s0 .14-.09.15-.1.08-.1.2v.28h3.58q.12 0 .12.15v.31c0 .11 0 .16-.12.16h-3.58v1.8c0 .07-.07.11-.16.11h-.39c-.1 0-.15 0-.15-.11v-1.8h-4.14c-.08 0-.12-.05-.12-.16v-.31q0-.15.12-.15zm-1.94-3.21c.14.32.22.49.22.51a.1.1 0 0 1 0 .08 12.78 12.78 0 0 1 -1 1.16c-.17.18-.38.37-.62.58a.37.37 0 0 0 -.06.21c0 .08 0 .12-.08.12a2.64 2.64 0 0 1 -.56-.56.11.11 0 0 1 -.06-.11.1.1 0 0 1 .05-.08 3.2 3.2 0 0 0 .6-.43 7.67 7.67 0 0 0 .82-.8c.23-.25.43-.49.61-.71h.07s-.01.02.01.07zm-.46-2.9.6.44s0 0-.05.07l-.3.4c-.26-.2-.52-.39-.8-.57a3.84 3.84 0 0 0 -.57-.29 1.85 1.85 0 0 1 .28-.4s0-.07.07-.07c.31.2.57.34.77.46zm3-.34c0 .06 0 .09-.05.09s-.16 0-.18.11c-.13.27-.25.5-.36.7h1.57c.08-.12.14-.22.2-.3a6.28 6.28 0 0 0 .28-.76s0-.07.06-.07a6.36 6.36 0 0 1 .82.39s0 0-.12.07a.25.25 0 0 0 -.18.14c-.08.18-.17.35-.27.53h1.86s.07 0 .07.12v.31c0 .08 0 .12-.07.12h-2v.7h1.76c.05 0 .08 0 .08.12v.31c0 .1 0 .15-.08.15h-1.76v.67h1.76c.05 0 .08 0 .08.12v.31c0 .1 0 .15-.08.15h-1.76v.71h2.19c.05 0 .08 0 .08.11v.32c0 .1 0 .15-.08.15h-4.62v.39q0 .12-.15.12h-.32q-.15 0-.15-.12v-3.64c-.18.19-.4.41-.67.65a.22.22 0 0 1 -.17-.09l-.27-.23a.14.14 0 0 1 -.06-.11c.22-.2.44-.42.67-.65a5 5 0 0 0 .76-1 4.66 4.66 0 0 0 .44-.94s0-.08 0-.08a2.56 2.56 0 0 1 .7.45zm.93 1.45h-1.73v.7h1.75zm0 1.28h-1.73v.67h1.75zm0 2v-.71h-1.73v.71z" fill="#231815"/><path d="m219.38 208.44a.26.26 0 0 1 .18.05c.14.12.21.2.21.26l-1.91 2v.54h3.78c.08 0 .12.06.12.16v.39c0 .11 0 .16-.12.16h-3.78v2.14c0 .52-.37.79-1.09.79h-.77c-.05 0-.08-.07-.09-.2a1.18 1.18 0 0 0 -.19-.51c0-.06 0-.08.08-.08a4.89 4.89 0 0 0 .94.12.31.31 0 0 0 .35-.35v-1.91h-4c-.08 0-.12 0-.12-.16v-.39c0-.1 0-.16.12-.16h4v-1.05a.14.14 0 0 1 .16-.16l.23.11 1.13-1.16h-3.61c-.08 0-.12 0-.12-.16v-.31c0-.1 0-.16.12-.16zm-1.52-2.54c0 .09 0 .14-.11.15s-.08.08-.08.2v.55h3.54c.1 0 .16 0 .16.12v2c0 .08-.06.12-.16.12h-.39c-.11 0-.16 0-.16-.12v-1.44h-6.78v1.44c0 .08-.06.12-.16.12h-.39c-.11 0-.16 0-.16-.12v-1.92a.14.14 0 0 1 .16-.16h3.59v-.9c0-.07.05-.11.16-.11.52-.04.78 0 .78.07z" fill="#231815"/><path d="m224.75 214.9a6.15 6.15 0 0 1 -1.22-1.54 5.47 5.47 0 0 1 0-5.46 6.33 6.33 0 0 1 1.22-1.54l.42.46a5.72 5.72 0 0 0 -1.1 1.39 4.83 4.83 0 0 0 0 4.84 5.53 5.53 0 0 0 1.1 1.39z" fill="#231815"/><path d="m228.54 206.76q-.12 0-.12-.15v-.39a.11.11 0 0 1 .12-.12h2.26a.33.33 0 0 1 .23.1 5.39 5.39 0 0 0 1.34 1.87 5.07 5.07 0 0 0 2.7 1.18c.14 0 .21.07.21.13a.15.15 0 0 1 -.06.11c-.14.12-.25.23-.35.33a.2.2 0 0 1 -.17.11 8.62 8.62 0 0 1 -1-.33v.29q0 .15-.12.15h-2.58v1.57h2.53a.1.1 0 0 1 .11.11v.39c0 .11 0 .16-.11.16h-2.53v1.73h3.66a.11.11 0 0 1 .12.12v.39q0 .15-.12.15h-8.16c-.08 0-.11-.05-.11-.15v-.39c0-.08 0-.12.11-.12h3.75v-1.72h-2.61c-.08 0-.12-.05-.12-.16v-.39c0-.07 0-.11.12-.11h2.61v-1.62h-2.73q-.12 0-.12-.15v-.22a3.83 3.83 0 0 1 -.9.41s-.09 0-.13-.13l-.33-.37c-.06-.05-.08-.09-.08-.12a11 11 0 0 0 1.66-.71 7.93 7.93 0 0 0 1.37-1 9.58 9.58 0 0 0 .83-1zm4.65 2.62a5.31 5.31 0 0 1 -1.36-.83 6.39 6.39 0 0 1 -1.26-1.73 5.33 5.33 0 0 1 -.71.9 7.46 7.46 0 0 1 -1 1 7.71 7.71 0 0 1 -.93.65z" fill="#231815"/><path d="m238.73 209a.18.18 0 0 1 -.16.19.27.27 0 0 0 -.15.11 7.33 7.33 0 0 1 -.55.77v4.71q0 .12-.15.12h-.4q-.15 0-.15-.12v-4c-.22.21-.46.43-.74.67a5.33 5.33 0 0 0 -.44-.43.19.19 0 0 1 -.07-.12v-.06a5.64 5.64 0 0 0 1.24-1.15 7.36 7.36 0 0 0 .81-1.2s0-.05.07-.05a3.82 3.82 0 0 1 .69.56zm-.17-2.77a.23.23 0 0 1 .13.19c0 .06-.05.08-.15.08a.25.25 0 0 0 -.24.13 8.93 8.93 0 0 1 -1.68 1.9.18.18 0 0 1 -.15-.07 2 2 0 0 0 -.29-.29.16.16 0 0 1 -.07-.11.08.08 0 0 1 0-.07 2.15 2.15 0 0 0 .54-.45 5.47 5.47 0 0 0 .68-.75 6 6 0 0 0 .5-.89c0-.06.06-.1.08-.1zm2.69-.12c.07.05.09.09.09.12s-.05.11-.15.11a.23.23 0 0 0 -.2.1l-.05.08a4 4 0 0 0 .63.76 3.65 3.65 0 0 0 .9.7.16.16 0 0 1 -.07.15l-.44.36a.05.05 0 0 1 -.05 0 2.25 2.25 0 0 1 -.59-.46 8.15 8.15 0 0 1 -.74-.91 1.4 1.4 0 0 1 -.13.18 4.35 4.35 0 0 1 -.45.58c-.19.2-.37.38-.55.54a2.93 2.93 0 0 1 -.45.34.16.16 0 0 1 -.14-.09 2.16 2.16 0 0 0 -.27-.33q-.09 0-.09-.09s0 0 0 0a4.3 4.3 0 0 0 .63-.42 4.34 4.34 0 0 0 .68-.72 3.1 3.1 0 0 0 .39-.55 5.16 5.16 0 0 0 .29-.62s.06-.07.09-.07zm.67 2.62q.12 0 .12.15v.31c0 .11 0 .16-.12.16h-1v1.17h1.32c.07 0 .11.06.11.16v.32c0 .11 0 .16-.11.16h-1.24v2.42c.48-.1.93-.22 1.37-.34h.06c.05 0 .08 0 .08.11a2.29 2.29 0 0 1 0 .59c-1 .24-2.06.46-3.11.66-.12.18-.21.28-.28.28s-.19-.29-.39-.86c.45-.06 1-.15 1.6-.28v-2.57h-1.36c-.08 0-.12 0-.12-.16v-.31c0-.1 0-.16.12-.16h1.36v-1.17h-.89c-.08 0-.12-.05-.12-.16v-.31q0-.15.12-.15zm-2.28 3.83a5.8 5.8 0 0 1 .26.77 1.72 1.72 0 0 1 -.58.2 6.58 6.58 0 0 0 -.19-.64 6.17 6.17 0 0 0 -.4-.88s.17-.15.51-.32c.16.31.3.6.4.86zm2.78-.76c.08 0 .13.08.13.13a.09.09 0 0 1 -.05.08.07.07 0 0 0 -.08.08 7.87 7.87 0 0 1 -.34 1c0 .06-.07.08-.08.08a.33.33 0 0 1 -.15-.06l-.35-.17h-.08a.07.07 0 0 1 0-.06 3.77 3.77 0 0 0 .23-.54 3.25 3.25 0 0 0 .17-.61c0-.05 0-.08 0-.08zm2.79-3.19c.07 0 .11.05.11.15v.32c0 .1 0 .15-.11.15h-.75v5c0 .5-.41.75-1.21.75h-.35c-.05 0-.07-.07-.07-.19a1.88 1.88 0 0 0 -.16-.52 2 2 0 0 0 .54.08c.36 0 .55-.12.55-.35v-4.69h-1.13q-.12 0-.12-.15v-.32q0-.15.12-.15zm-.32-2.15c.08 0 .12.06.12.16v.31q0 .15-.12.15h-2.07c-.08 0-.11 0-.11-.15v-.31c0-.1 0-.16.11-.16z" fill="#231815"/><path d="m247.77 213.36a6.38 6.38 0 0 1 -1.22 1.54l-.42-.46a5.77 5.77 0 0 0 1.1-1.39 4.83 4.83 0 0 0 0-4.84 6 6 0 0 0 -1.1-1.39l.42-.46a6.58 6.58 0 0 1 1.22 1.54 5.59 5.59 0 0 1 .73 2.73 5.53 5.53 0 0 1 -.73 2.73z" fill="#231815"/><path d="m12 208.87c0 .09 0 .14-.1.15s-.1.08-.1.2v2h2.35c.07 0 .11 0 .11.15v.32c0 .1 0 .15-.11.15h-2.37v2.11h3.79c.08 0 .12.06.12.16v.31c0 .1 0 .16-.12.16h-8.57c-.08 0-.12-.06-.12-.16v-.31c0-.1 0-.16.12-.16h1.4v-3.44c0-.07 0-.11.16-.11.49 0 .74 0 .74.11s0 .14-.09.15-.1.08-.1.2v3.09h1.89v-5c0-.08.05-.12.16-.12q.84-.08.84.04zm0-2.67c.06.05.1.09.1.13s-.07.16-.19.16a.67.67 0 0 0 -.22 0 8.78 8.78 0 0 0 .81 1.14 5.9 5.9 0 0 0 1.11 1 6.18 6.18 0 0 0 1.84 1c.08 0 .13 0 .13.08a.18.18 0 0 1 -.06.13 5.5 5.5 0 0 0 -.42.37c0 .06-.08.09-.1.09a5.81 5.81 0 0 1 -1.37-.71 6 6 0 0 1 -1.4-1.18 11 11 0 0 1 -1-1.35 9.6 9.6 0 0 1 -.74.85 7.9 7.9 0 0 1 -.92.9 13.07 13.07 0 0 1 -1.1.85 6.3 6.3 0 0 1 -.89.52.19.19 0 0 1 -.17-.1 2.28 2.28 0 0 0 -.33-.41q-.12-.06-.12-.12s0 0 .06 0a8.88 8.88 0 0 0 1.28-.65 9.47 9.47 0 0 0 1.41-1.11 5.86 5.86 0 0 0 .77-.85 6.16 6.16 0 0 0 .61-1c.06-.08.12-.12.17-.12z" fill="#231815"/><path d="m20.81 206c0 .09 0 .14-.1.15s-.1.08-.1.2v1.29h1.33v-1.64c0-.08 0-.12.16-.12.49 0 .74 0 .74.12s0 .14-.1.15-.1.08-.1.2v1.33h.83a5.55 5.55 0 0 0 .38-.63c.12-.3.22-.57.3-.82a.11.11 0 0 1 .09-.07l.62.32c.06 0 .09.08.09.11s0 .08-.1.08-.15 0-.17.1a8.41 8.41 0 0 1 -.45.91h1.34c.05 0 .08 0 .08.12v.31c0 .11 0 .16-.08.16h-2.17q-.16.56-.36 1.05h1.75c.08 0 .12.06.12.16v.31c0 .11 0 .16-.12.16h-3.12v.78h2.65c.05 0 .08 0 .08.11v.32c0 .1 0 .15-.08.15h-2.65v.78h3.51c.08 0 .12.06.12.16v.31c0 .11 0 .16-.12.16h-3.12a6.73 6.73 0 0 0 .89.52 10.58 10.58 0 0 0 2.82.89s0 .08-.11.11a3.55 3.55 0 0 0 -.38.43s-.08.08-.1.08a12.74 12.74 0 0 1 -1.71-.59 7 7 0 0 1 -1.29-.73 3.68 3.68 0 0 1 -.51-.37v1.81c0 .08-.07.12-.2.12h-.39c-.11 0-.16 0-.16-.12v-1.72a1.59 1.59 0 0 1 -.25.17 8 8 0 0 1 -1 .63c-.4.19-.85.37-1.34.55a8.11 8.11 0 0 1 -1 .29c-.05 0-.09-.05-.13-.13l-.33-.37q-.09-.09-.09-.12c.66-.14 1.23-.28 1.7-.42a8.58 8.58 0 0 0 1.4-.57 5.84 5.84 0 0 0 .69-.46h-3.24c-.08 0-.12 0-.12-.16v-.31c0-.1 0-.16.12-.16h3.59v-.78h-2.77c-.06 0-.08 0-.08-.15v-.32c0-.07 0-.11.08-.11h2.77v-.78h-3.16c-.08 0-.12-.05-.12-.16v-.31c0-.1 0-.16.12-.16h1.84q-.27-.6-.51-1.05h-2.15c-.06 0-.08-.05-.08-.16v-.31c0-.08 0-.12.08-.12h1.66l-.13-.27a5.78 5.78 0 0 0 -.59-.9s.16-.14.5-.31a7.71 7.71 0 0 1 .6.88 5.48 5.48 0 0 1 .29.6h.64v-1.68q0-.12.15-.12.75.02.75.12zm1.51 3.28c.1-.21.18-.39.24-.55a4.79 4.79 0 0 0 .17-.5h-2.94q.3.51.57 1.05z" fill="#231815"/><path d="m30.3 206.08c.08.06.12.1.12.14a.14.14 0 0 1 -.12.15c-.14 0-.23 0-.26.12s-.08.14-.1.19h3.13a.27.27 0 0 1 .19 0c.13.12.2.21.2.27l-1.46 1.57h2.6q.15 0 .15.12v3.59q0 .12-.15.12h-.39c-.11 0-.16 0-.16-.12v-.31h-5.47v1.6c0 .32.19.47.59.47h5.23a.51.51 0 0 0 .57-.39 4.57 4.57 0 0 0 .21-.9 1.65 1.65 0 0 0 .55.31.15.15 0 0 1 .12.16 3.41 3.41 0 0 1 -.34 1.05c-.11.28-.4.43-.88.43h-5.85q-.9 0-.9-.66v-4.94l-.51.33a.53.53 0 0 1 -.23 0l-.41-.17s-.06 0-.06-.06 0-.06.06-.08a7 7 0 0 0 1.47-1.13 5.65 5.65 0 0 0 .66-.82 6.39 6.39 0 0 0 .61-1.18.14.14 0 0 1 .13-.08zm.74 2.44 1.24-1.21h-2.72a4.78 4.78 0 0 1 -.35.47 9.62 9.62 0 0 1 -.68.74zm-2.46 2.77h2.42v-2.14h-2.42zm3.12 0h2.3v-2.14h-2.3z" fill="#231815"/><path d="m39 210.47v-.78c0-.08.05-.12.16-.12.49 0 .74 0 .74.12s0 .14-.1.15-.1.08-.1.2v.43h1.92c.07 0 .11.06.11.16v.31c0 .11 0 .16-.11.16h-1.76a6.1 6.1 0 0 0 .53.73 3.54 3.54 0 0 0 .74.7 2.51 2.51 0 0 0 .73.4.11.11 0 0 1 -.09.11 3.53 3.53 0 0 0 -.33.37c0 .05-.07.07-.09.07a4.41 4.41 0 0 1 -.92-.69 4.17 4.17 0 0 1 -.69-.83s0 0 0 0v2.89q0 .12-.15.12h-.39c-.11 0-.16 0-.16-.12v-2.58l-.14.22a8.9 8.9 0 0 1 -.76.94 6.46 6.46 0 0 1 -.94.79.22.22 0 0 1 -.17-.06l-.38-.34a.26.26 0 0 1 0-.1 4.78 4.78 0 0 0 .73-.53 4.88 4.88 0 0 0 .87-.92c.17-.23.41-.61.72-1.13h-2c-.08 0-.12 0-.12-.16v-.31c0-.1 0-.16.12-.16zm2.25-4a7 7 0 0 1 -1.09.35 12.16 12.16 0 0 1 -1.38.26 11.92 11.92 0 0 1 -1.38.09c-.12 0-.19 0-.21-.13l-.3-.41a.11.11 0 0 1 .12-.12h.58a8.92 8.92 0 0 0 1.41-.11 4.26 4.26 0 0 0 1-.2 3.34 3.34 0 0 0 1-.42h.08a.26.26 0 0 1 .17.05c.38.33.57.53.57.61a.11.11 0 0 1 -.12.12l-.27-.12zm-3.25 2a6 6 0 0 1 .34.77 2.17 2.17 0 0 1 -.67.2 3.11 3.11 0 0 0 -.23-.63 5.24 5.24 0 0 0 -.51-.86s.18-.16.55-.35c.22.3.39.59.52.85zm1.66-.23q.13.39.24.81a2.9 2.9 0 0 1 -.67.19 5.12 5.12 0 0 0 -.16-.66 6.6 6.6 0 0 0 -.34-.9s.18-.16.54-.35a9.2 9.2 0 0 1 .4.89zm2.34-.74q.09.08.09.12c0 .06 0 .09-.11.09s-.16.06-.18.12a10.47 10.47 0 0 1 -.77 1.55c-.1 0-.15 0-.16 0l-.46-.27a5.34 5.34 0 0 0 .52-.88 8 8 0 0 0 .34-1 .12.12 0 0 1 .11-.08zm3.84 4.22a.11.11 0 0 1 -.12.12.35.35 0 0 0 -.27.19c-.22.26-.53.59-.92 1a8.31 8.31 0 0 1 -1.39 1.16 10.41 10.41 0 0 1 -1.21.7.22.22 0 0 1 -.2-.1c-.11-.12-.21-.22-.29-.32s-.1-.06-.1-.09 0-.06.06-.08a8 8 0 0 0 1.5-.79 7.45 7.45 0 0 0 1.19-1 7.67 7.67 0 0 0 .9-1.16.24.24 0 0 1 .18-.12 3 3 0 0 1 .68.49zm-.41-5.55q.09.08.09.12c0 .08-.07.12-.19.12a.34.34 0 0 0 -.27.11 7 7 0 0 1 -.67.93 5.5 5.5 0 0 1 -.58.64q-.36.33-.69.6a5.52 5.52 0 0 1 -.57.38.17.17 0 0 1 -.15-.1 1.64 1.64 0 0 0 -.29-.35c-.07 0-.1-.07-.1-.1s0 0 0 0a5.65 5.65 0 0 0 .8-.47 6.31 6.31 0 0 0 .88-.8 3.54 3.54 0 0 0 .48-.61 5.65 5.65 0 0 0 .39-.69c0-.06.07-.09.1-.09zm.29 2.74a.11.11 0 0 1 -.12.12.25.25 0 0 0 -.21.15c-.17.21-.41.48-.71.8a6.29 6.29 0 0 1 -1.07 1 7.76 7.76 0 0 1 -.94.56.2.2 0 0 1 -.2-.1 4 4 0 0 1 -.29-.32q-.09 0-.09-.09a.07.07 0 0 1 0-.06 5.38 5.38 0 0 0 1.16-.65 5.68 5.68 0 0 0 .93-.82 6.39 6.39 0 0 0 .69-.95.19.19 0 0 1 .14-.1c.49.24.72.41.72.46z" fill="#231815"/><path d="m166.85 102.22h8.85v2h-6.45v2.65h6v2h-6v3.24h6.67v2h-9.07z" fill="#00a19b"/><path d="m186.37 110.05a2.45 2.45 0 0 0 2.6 2.28c1.69 0 2.36-.88 2.36-1.64 0-1-.84-1.22-3-1.75-1.18-.31-3.82-1-3.82-3.59 0-1.3.85-3.33 4.35-3.33 2.34 0 4.47.91 4.57 3.61l-2.41.11c-.11-.62-.28-1.74-2.19-1.74-.72 0-2 .22-2 1.18 0 .77.74 1.1 2.66 1.56s4.29 1 4.29 4a3.51 3.51 0 0 1 -1.95 3.13 6.85 6.85 0 0 1 -2.82.53c-1.29 0-4.45-.11-4.92-4.08z" fill="#00a19b"/><path d="m200.41 102.22v6.45a5.4 5.4 0 0 0 .3 2.57 2.27 2.27 0 0 0 2.12 1.05c2.3 0 2.3-1.45 2.3-3.49v-6.58h2.4v6.27c0 2.13-.08 3.31-.66 4.22-.92 1.41-2.64 1.64-4 1.64-4.89 0-4.89-3-4.89-5.76v-6.37z" fill="#00a19b"/><path d="m212.45 102.22h2.33l4.85 8v-8h2.23v11.93h-2.42l-4.77-7.78v7.78h-2.23z" fill="#00a19b"/><path d="m231.49 102.22h8.18v2h-5.78v2.84h5v2h-5v5.07h-2.4z" fill="#00a19b"/><path d="m243.73 102.22h2.4v4.7h4.71v-4.7h2.41v11.93h-2.41v-5.21h-4.71v5.21h-2.4z" fill="#00a19b"/><path d="m267.77 110.5a4.72 4.72 0 0 1 -4.95 3.85c-3.24 0-5.44-2.35-5.44-6.07 0-3.31 1.68-6.26 5.57-6.26a5.15 5.15 0 0 1 3.65 1.36 4.66 4.66 0 0 1 1.13 2.14l-2.38.56a2.46 2.46 0 0 0 -2.52-2c-3 0-3 3.27-3 4a5.76 5.76 0 0 0 .63 3 2.71 2.71 0 0 0 2.31 1.17c1.59 0 2.33-1.22 2.63-2.52z" fill="#00a19b"/><path d="m180.87 112.63a1.54 1.54 0 1 0 -1.54 1.54 1.54 1.54 0 0 0 1.54-1.54z" fill="#00a19b"/><path d="m166.85 127.35h8.83v2h-6.44v2.65h6v2h-6v3.22h6.66v2h-9.05z" fill="#00a19b"/><path d="m186.32 135.16a2.43 2.43 0 0 0 2.59 2.28c1.68 0 2.35-.88 2.35-1.64 0-1-.83-1.21-3-1.75-1.18-.3-3.8-1-3.8-3.57 0-1.3.84-3.32 4.33-3.32 2.33 0 4.46.91 4.56 3.6l-2.41.1c-.1-.62-.28-1.73-2.18-1.73-.72 0-2 .21-2 1.18 0 .76.75 1.1 2.66 1.55s4.27 1 4.27 3.94a3.48 3.48 0 0 1 -1.94 3.12 6.85 6.85 0 0 1 -2.81.54c-1.28 0-4.44-.12-4.91-4.08z" fill="#00a19b"/><path d="m200.32 127.35v6.44a5.38 5.38 0 0 0 .3 2.56 2.26 2.26 0 0 0 2.11 1c2.29 0 2.29-1.44 2.29-3.47v-6.57h2.4v6.25c0 2.13-.08 3.31-.66 4.21-.92 1.41-2.63 1.65-4 1.65-4.87 0-4.87-3-4.87-5.76v-6.35z" fill="#00a19b"/><path d="m212.32 127.35h2.33l4.84 8v-8h2.23v11.9h-2.41l-4.76-7.76v7.76h-2.23z" fill="#00a19b"/><path d="m180.83 137.73a1.54 1.54 0 1 0 -1.53 1.54 1.53 1.53 0 0 0 1.53-1.54z" fill="#00a19b"/><path d="m236 129.4a4.62 4.62 0 0 1 1.41.19 1.08 1.08 0 0 1 .63 1.11 1.15 1.15 0 0 1 -.48 1.06 2.34 2.34 0 0 1 -1.25.3h-2.91v-2.66zm.36 4.63a2.92 2.92 0 0 1 1.2.2 1.28 1.28 0 0 1 .76 1.28 1.51 1.51 0 0 1 -.78 1.49 2.88 2.88 0 0 1 -1.22.21h-2.9v-3.21zm.43-6.67h-5.79v11.9h5.35a8 8 0 0 0 1.68-.17 3.24 3.24 0 0 0 1.35-.59 3.32 3.32 0 0 0 .84-.94 3.47 3.47 0 0 0 .53-1.89 3.22 3.22 0 0 0 -.46-1.74 2.64 2.64 0 0 0 -1.36-1.05 2.61 2.61 0 0 0 .89-.68 2.64 2.64 0 0 0 .55-1.75 3 3 0 0 0 -.55-1.82 3.61 3.61 0 0 0 -3.05-1.27z" fill="#00a19b"/><path d="m248.61 130.08 1.5 4.68h-3zm-5.61 9.18h2.6l.81-2.45h4.38l.78 2.45h2.7l-4.27-11.9h-2.81z" fill="#00a19b"/><path d="m256.64 127.36h2.59l4.71 8.28v-8.28h2.3v11.9h-2.47l-4.83-8.44v8.44h-2.3z" fill="#00a19b"/><path d="m270.77 127.36h2.48v4.9l4.59-4.9h3.21l-4.87 4.9 5.12 7h-3.2l-3.66-5.19-1.19 1.21v4h-2.48z" fill="#00a19b"/><path d="m167.06 312.81h7.79v1.77h-5.67v2.33h5.28v1.78h-5.28v2.84h5.87v1.78h-8z" fill="#00a19b"/><path d="m179.4 322a1.36 1.36 0 1 0 -1.36 1.36 1.35 1.35 0 0 0 1.36-1.36z" fill="#00a19b"/><path d="m184.57 320.05a2 2 0 0 0 .39 1.05 2.26 2.26 0 0 0 1.82.63 3.66 3.66 0 0 0 1.25-.17 1.2 1.2 0 0 0 .92-1.19.89.89 0 0 0 -.46-.79 4.9 4.9 0 0 0 -1.42-.48l-1.1-.25a6.74 6.74 0 0 1 -2.25-.79 2.52 2.52 0 0 1 -1-2.23 3 3 0 0 1 1-2.31 4.28 4.28 0 0 1 3-.92 4.5 4.5 0 0 1 2.79.87 3 3 0 0 1 1.21 2.5h-2a1.46 1.46 0 0 0 -.83-1.3 2.8 2.8 0 0 0 -1.26-.25 2.41 2.41 0 0 0 -1.35.33 1 1 0 0 0 -.5.93.88.88 0 0 0 .49.82 6.35 6.35 0 0 0 1.36.42l1.79.43a4.6 4.6 0 0 1 1.77.75 2.54 2.54 0 0 1 .91 2.11 3 3 0 0 1 -1.08 2.34 4.6 4.6 0 0 1 -3.07.93 5 5 0 0 1 -3.18-.91 3 3 0 0 1 -1.16-2.52z" fill="#00a19b"/><path d="m192.75 312.81h2.25v6.39a3.59 3.59 0 0 0 .25 1.56 2.1 2.1 0 0 0 3.42 0 3.57 3.57 0 0 0 .26-1.56v-6.39h2.21v6.39a5.4 5.4 0 0 1 -.52 2.58c-.64 1.13-1.86 1.69-3.65 1.69s-3-.56-3.67-1.69a5.41 5.41 0 0 1 -.51-2.58z" fill="#00a19b"/><path d="m203.28 312.81h2.28l4.16 7.3v-7.3h2v10.5h-2.18l-4.26-7.45v7.45h-2z" fill="#00a19b"/><path d="m217.94 312.81h7.44v1.85h-5.26v2.4h4.62v1.81h-4.62v4.44h-2.18z" fill="#00a19b"/><path d="m228.85 323.31h-2.19v-10.51h2.19z" fill="#00a19b"/><path d="m230.9 312.8h2.28l4.17 7.32v-7.32h2v10.51h-2.15l-4.27-7.45v7.45h-2z" fill="#00a19b"/><path d="m245.68 315.2 1.33 4.14h-2.69zm-5 8.11h2.32l.72-2.16h3.87l.69 2.16h2.38l-3.66-10.51h-2.49z" fill="#00a19b"/><path d="m252 312.8h2.28l4.17 7.32v-7.32h2v10.51h-2.18l-4.27-7.45v7.45h-2z" fill="#00a19b"/><path d="m263.53 313.9a4.29 4.29 0 0 1 3.22-1.3 4.34 4.34 0 0 1 3.82 1.73 3.72 3.72 0 0 1 .72 1.95h-2.19a3 3 0 0 0 -.53-1.14 2.15 2.15 0 0 0 -1.73-.69 2.12 2.12 0 0 0 -1.84 1 4.71 4.71 0 0 0 -.67 2.73 4.11 4.11 0 0 0 .71 2.65 2.2 2.2 0 0 0 1.8.88 2 2 0 0 0 1.7-.75 3.18 3.18 0 0 0 .54-1.21h2.19a4.77 4.77 0 0 1 -1.44 2.79 4.2 4.2 0 0 1 -3 1.07 4.46 4.46 0 0 1 -3.52-1.45 5.88 5.88 0 0 1 -1.28-4 5.79 5.79 0 0 1 1.5-4.26z" fill="#00a19b"/><path d="m275.07 323.31h-2.19v-10.51h2.19z" fill="#00a19b"/><path d="m281.36 315.2 1.33 4.14h-2.69zm-5 8.11h2.3l.72-2.16h3.86l.7 2.16h2.38l-3.71-10.51h-2.5z" fill="#00a19b"/><path d="m287.68 312.8h2.19v8.62h5.22v1.89h-7.41z" fill="#00a19b"/><path d="m300.37 323.31v-10.51h2.19v4h4.06v-4h2.19v10.51h-2.19v-4.68h-4.06v4.68z" fill="#00a19b"/><path d="m315.58 321.73a2.53 2.53 0 0 1 -2.08-1 5.19 5.19 0 0 1 0-5.47 2.53 2.53 0 0 1 2.08-1 2.49 2.49 0 0 1 2.07 1 5.28 5.28 0 0 1 0 5.46 2.51 2.51 0 0 1 -2.07 1.01zm5-3.7a5.54 5.54 0 0 0 -1.59-4.32 5.46 5.46 0 0 0 -6.88 0 5.54 5.54 0 0 0 -1.6 4.32 5.67 5.67 0 0 0 1.6 4.33 5.46 5.46 0 0 0 6.88 0 5.66 5.66 0 0 0 1.61-4.36z" fill="#00a19b"/><path d="m322.29 312.8h2.19v8.62h5.22v1.89h-7.41z" fill="#00a19b"/><path d="m335.33 314.61a2.12 2.12 0 0 1 2 .86 4.94 4.94 0 0 1 .5 2.48 5.5 5.5 0 0 1 -.33 2 2.19 2.19 0 0 1 -2.17 1.55h-2v-6.9zm.38-1.81h-4.53v10.51h4.53a3.79 3.79 0 0 0 3.52-2 7 7 0 0 0 .84-3.55 8.38 8.38 0 0 0 -.2-1.74 5 5 0 0 0 -.75-1.7 3.43 3.43 0 0 0 -1.79-1.33 5.57 5.57 0 0 0 -1.62-.19z" fill="#00a19b"/><path d="m343.73 323.31h-2.19v-10.51h2.19z" fill="#00a19b"/><path d="m345.78 312.8h2.29l4.16 7.32v-7.32h2v10.51h-2.18l-4.27-7.45v7.45h-2z" fill="#00a19b"/><path d="m363.31 316.1a2 2 0 0 0 -1.19-1.48 2.78 2.78 0 0 0 -1.17-.23 2.54 2.54 0 0 0 -2 .94 4.33 4.33 0 0 0 -.8 2.84 3.57 3.57 0 0 0 .86 2.7 2.83 2.83 0 0 0 2 .79 2.51 2.51 0 0 0 1.76-.62 2.72 2.72 0 0 0 .85-1.64h-2.42v-1.74h4.31v5.65h-1.45l-.23-1.37a5 5 0 0 1 -1.12 1 3.93 3.93 0 0 1 -2.09.52 4.35 4.35 0 0 1 -3.36-1.42 5.45 5.45 0 0 1 -1.36-3.92 5.75 5.75 0 0 1 1.38-4 4.71 4.71 0 0 1 3.65-1.52 4.81 4.81 0 0 1 3.17 1 3.77 3.77 0 0 1 1.37 2.5z" fill="#00a19b"/><path d="m372.76 313.88a4.85 4.85 0 0 1 7 .44 3.7 3.7 0 0 1 .71 1.93h-2.17a2.77 2.77 0 0 0 -.53-1.13 2.08 2.08 0 0 0 -1.71-.68 2.12 2.12 0 0 0 -1.83 1 4.72 4.72 0 0 0 -.66 2.71 4.15 4.15 0 0 0 .7 2.63 2.19 2.19 0 0 0 1.78.87 2 2 0 0 0 1.7-.75 3.22 3.22 0 0 0 .53-1.2h2.17a4.78 4.78 0 0 1 -1.42 2.77 4.16 4.16 0 0 1 -2.94 1.06 4.4 4.4 0 0 1 -3.49-1.44 6.84 6.84 0 0 1 .17-8.17z" fill="#00a19b"/><path d="m386.93 321.67a2.49 2.49 0 0 1 -2-.94 5.12 5.12 0 0 1 0-5.37 2.52 2.52 0 0 1 2-.94 2.48 2.48 0 0 1 2 .95 5.16 5.16 0 0 1 0 5.36 2.47 2.47 0 0 1 -2 .94zm4.93-3.62a5.46 5.46 0 0 0 -1.56-4.25 5.35 5.35 0 0 0 -6.75 0 5.47 5.47 0 0 0 -1.57 4.25 5.56 5.56 0 0 0 1.57 4.24 5.35 5.35 0 0 0 6.75 0 5.56 5.56 0 0 0 1.56-4.24z" fill="#00a19b"/><path d="m400.63 312.8h3.15v10.51h-2v-7.11c0-.2 0-.49 0-.86v-.85l-2 8.82h-2.14l-2-8.82v.85 8h-2v-10.54h3.19l1.92 8.27z" fill="#00a19b"/><path d="m411.56 316.13a1.53 1.53 0 0 1 -.41 1.2 1.62 1.62 0 0 1 -1.16.38h-1.99v-3.1h2a1.71 1.71 0 0 1 1.16.35 1.43 1.43 0 0 1 .4 1.17zm2.19 0a3.19 3.19 0 0 0 -.92-2.51 3.65 3.65 0 0 0 -2.48-.81h-4.5v10.51h2.15v-3.79h2.17a4 4 0 0 0 2.62-.77 3.27 3.27 0 0 0 .96-2.64z" fill="#00a19b"/><path d="m418.69 315.2 1.32 4.14h-2.69zm-5 8.11h2.31l.71-2.16h3.87l.69 2.16h2.39l-3.66-10.51h-2.49z" fill="#00a19b"/><path d="m425 312.8h2.29l4.16 7.32v-7.32h2v10.51h-2.18l-4.27-7.45v7.45h-2z" fill="#00a19b"/><path d="m441.52 312.8h2.48l-3.51 6.58v3.93h-2.19v-3.92l-3.64-6.59h2.59l2.18 4.58z" fill="#00a19b"/><path d="m443.4 325a1.54 1.54 0 0 0 .89-.57 2.08 2.08 0 0 0 .33-1.13h-1.22v-2.12h2.18v1.82a4.06 4.06 0 0 1 -.13 1 2 2 0 0 1 -.47.92 2.51 2.51 0 0 1 -.89.62 2.25 2.25 0 0 1 -.69.21z" fill="#00a19b"/><path d="m451.77 312.8h2.23v8.62h5.22v1.89h-7.41z" fill="#00a19b"/><path d="m467.23 312.8v1.85h-3.15v8.66h-2.19v-8.66h-3.15v-1.85z" fill="#00a19b"/><path d="m472.65 314.61a2.15 2.15 0 0 1 2 .86 5.05 5.05 0 0 1 .5 2.48 5.28 5.28 0 0 1 -.34 2 2.18 2.18 0 0 1 -2.17 1.55h-2v-6.9zm.38-1.81h-4.52v10.51h4.49a3.78 3.78 0 0 0 3.52-2 7 7 0 0 0 .84-3.55 7.75 7.75 0 0 0 -.2-1.74 4.62 4.62 0 0 0 -.75-1.7 3.41 3.41 0 0 0 -1.78-1.33 5.7 5.7 0 0 0 -1.63-.19z" fill="#00a19b"/><path d="m480.74 323.36h-2.16v-2h2.16z" fill="#00a19b"/><path d="m167 336.52h7.8v1.78h-5.7v2.33h5.29v1.78h-5.29v2.85h5.9v1.74h-8z" fill="#00a19b"/><path d="m178.74 345.69a1.36 1.36 0 1 0 -1.36 1.36 1.36 1.36 0 0 0 1.36-1.36z" fill="#00a19b"/><path d="m183.92 343.77a2.14 2.14 0 0 0 .39 1.05 2.23 2.23 0 0 0 1.82.64 4 4 0 0 0 1.26-.17 1.2 1.2 0 0 0 .91-1.2.89.89 0 0 0 -.45-.79 5 5 0 0 0 -1.42-.48l-1.11-.24a6.94 6.94 0 0 1 -2.25-.8 2.51 2.51 0 0 1 -1-2.23 3 3 0 0 1 1-2.31 4.28 4.28 0 0 1 3-.92 4.51 4.51 0 0 1 2.8.87 3.07 3.07 0 0 1 1.21 2.5h-2.08a1.46 1.46 0 0 0 -.82-1.3 2.82 2.82 0 0 0 -1.27-.25 2.45 2.45 0 0 0 -1.35.33 1.06 1.06 0 0 0 -.5.93.87.87 0 0 0 .5.82 6 6 0 0 0 1.35.42l1.8.43a4.74 4.74 0 0 1 1.77.75 2.54 2.54 0 0 1 .91 2.11 3 3 0 0 1 -1.09 2.35 4.55 4.55 0 0 1 -3.06.93 5 5 0 0 1 -3.19-.92 3 3 0 0 1 -1.16-2.52z" fill="#00a19b"/><path d="m192.05 336.52h2.22v6.4a3.62 3.62 0 0 0 .25 1.57 2.11 2.11 0 0 0 3.43 0 3.62 3.62 0 0 0 .25-1.57v-6.4h2.21v6.4a5.43 5.43 0 0 1 -.51 2.59c-.64 1.13-1.86 1.69-3.66 1.69s-3-.56-3.67-1.69a5.42 5.42 0 0 1 -.52-2.59z" fill="#00a19b"/><path d="m202.64 336.52h2.29l4.16 7.32v-7.32h2v10.48h-2.18l-4.27-7.45v7.45h-2z" fill="#00a19b"/><path d="m218.11 337.6a4.89 4.89 0 0 1 7 .44 3.78 3.78 0 0 1 .72 1.94h-2.18a3.08 3.08 0 0 0 -.53-1.12 2.18 2.18 0 0 0 -1.74-.68 2.13 2.13 0 0 0 -1.84 1 4.53 4.53 0 0 0 -.68 2.7 4.12 4.12 0 0 0 .71 2.62 2.23 2.23 0 0 0 1.81.87 2 2 0 0 0 1.71-.75 3.18 3.18 0 0 0 .54-1.21h2.18a4.74 4.74 0 0 1 -1.44 2.78 4.2 4.2 0 0 1 -3 1.07 4.42 4.42 0 0 1 -3.51-1.45 6.8 6.8 0 0 1 .17-8.17z" fill="#00a19b"/><path d="m232.1 345.32a2.5 2.5 0 0 1 -2-.95 5.16 5.16 0 0 1 0-5.39 2.5 2.5 0 0 1 2-1 2.46 2.46 0 0 1 2 1 5.16 5.16 0 0 1 0 5.39 2.46 2.46 0 0 1 -2 .95zm4.93-3.65a5.44 5.44 0 0 0 -1.56-4.24 5.36 5.36 0 0 0 -6.76 0 5.41 5.41 0 0 0 -1.57 4.24 5.53 5.53 0 0 0 1.57 4.25 5.36 5.36 0 0 0 6.76 0 5.56 5.56 0 0 0 1.53-4.25z" fill="#00a19b"/><path d="m245.72 336.42h3.14v10.51h-2v-7.11c0-.2 0-.49 0-.86s0-.65 0-.85l-2 8.82h-2.14l-2-8.82v.89.86 7.11h-2v-10.55h3.18l1.91 8.26z" fill="#00a19b"/><path d="m257.77 336.42h3.15v10.51h-2v-8c0-.37 0-.65 0-.85l-2 8.82h-2.13l-2-8.82v.85s0 .66 0 .86v7.11h-2v-10.48h3.21l1.92 8.26z" fill="#00a19b"/><path d="m270.55 338.26h-5.43v2.25h5v1.84h-5v2.71h5.69v1.88h-7.81v-10.51h7.58z" fill="#00a19b"/><path d="m277.21 338.26a2.06 2.06 0 0 1 1 .19 1.32 1.32 0 0 1 .61 1.28 1.17 1.17 0 0 1 -.63 1.18 2.36 2.36 0 0 1 -1.05.18h-2.36v-2.83zm.45-1.83h-5v10.5h2.14v-4.1h2.13a1.78 1.78 0 0 1 1.25.33 2 2 0 0 1 .35 1.34v1a5.28 5.28 0 0 0 .1.9c0 .14.07.33.14.56h2.42v-.26a.87.87 0 0 1 -.41-.6 5 5 0 0 1 -.06-1v-.7a3.47 3.47 0 0 0 -.3-1.64 1.92 1.92 0 0 0 -1-.83 2.1 2.1 0 0 0 1.24-1 3.27 3.27 0 0 0 .37-1.47 3.19 3.19 0 0 0 -.19-1.11 3.28 3.28 0 0 0 -.53-.88 2.63 2.63 0 0 0 -1-.74 4.41 4.41 0 0 0 -1.65-.3z" fill="#00a19b"/><path d="m284.07 337.5a4.9 4.9 0 0 1 7 .44 3.81 3.81 0 0 1 .72 1.95h-2.18a3.05 3.05 0 0 0 -.53-1.13 2.18 2.18 0 0 0 -1.74-.67 2.12 2.12 0 0 0 -1.84 1 4.64 4.64 0 0 0 -.68 2.7 4.12 4.12 0 0 0 .71 2.62 2.25 2.25 0 0 0 1.81.87 2 2 0 0 0 1.71-.75 3.18 3.18 0 0 0 .54-1.21h2.18a4.74 4.74 0 0 1 -1.44 2.78 4.2 4.2 0 0 1 -3 1.06 4.41 4.41 0 0 1 -3.51-1.44 6.78 6.78 0 0 1 .18-8.17z" fill="#00a19b"/><path d="m295.56 346.94h-2.2v-10.51h2.2z" fill="#00a19b"/><path d="m301.76 338.84 1.32 4.15h-2.69zm-5 8.1h2.31l.73-2.16h3.86l.7 2.16h2.38l-3.74-10.51h-2.49z" fill="#00a19b"/><path d="m308 336.43h2.2v8.63h5.27v1.88h-7.47z" fill="#00a19b"/><path d="m325 338.27a3.93 3.93 0 0 1 1.24.16 1 1 0 0 1 .57 1 1 1 0 0 1 -.43.92 2.05 2.05 0 0 1 -1.11.27h-2.56v-2.33zm.32 4.08a2.72 2.72 0 0 1 1.06.17 1.13 1.13 0 0 1 .67 1.13 1.3 1.3 0 0 1 -.69 1.3 2.46 2.46 0 0 1 -1.08.19h-2.57v-2.79zm.38-5.92h-5.1v10.51h4.75a7.82 7.82 0 0 0 1.49-.1 3.08 3.08 0 0 0 1.19-.53 3 3 0 0 0 .75-.83 3.13 3.13 0 0 0 .47-1.68 2.78 2.78 0 0 0 -.41-1.54 2.27 2.27 0 0 0 -1.2-.93 2.46 2.46 0 0 0 .79-.61 2.37 2.37 0 0 0 .48-1.55 2.67 2.67 0 0 0 -.48-1.61 3.22 3.22 0 0 0 -2.72-1.13z" fill="#00a19b"/><path d="m335.29 338.81 1.32 4.15h-2.69zm-5 8.13h2.31l.72-2.19h3.86l.7 2.19h2.39l-3.72-10.51h-2.5z" fill="#00a19b"/><path d="m341.53 336.43h2.29l4.13 7.28v-7.28h2v10.51h-2.18l-4.24-7.45v7.45h-2z" fill="#00a19b"/><path d="m352.05 336.43h2.2v4.28l4-4.28h2.84l-4.3 4.32 4.51 6.19h-2.83l-3.23-4.58-1 1.06v3.52h-2.2z" fill="#00a19b"/><path d="m363.86 348.64a1.6 1.6 0 0 0 .89-.58 2.16 2.16 0 0 0 .33-1.13h-1.22v-2.15h2.19v1.86a4.08 4.08 0 0 1 -.13 1 1.94 1.94 0 0 1 -.48.92 2.35 2.35 0 0 1 -.88.62 2.4 2.4 0 0 1 -.7.22z" fill="#00a19b"/><path d="m372.06 336.43h2.19v8.63h5.28v1.88h-7.47z" fill="#00a19b"/><path d="m387.52 336.43v1.86h-3.17v8.65h-2.19v-8.65h-3.16v-1.86z" fill="#00a19b"/><path d="m392.86 338.27a2.15 2.15 0 0 1 2 .86 5 5 0 0 1 .5 2.47 5.48 5.48 0 0 1 -.33 2 2.2 2.2 0 0 1 -2.18 1.54h-2v-6.87zm.38-1.84h-4.54v10.51h4.54a3.78 3.78 0 0 0 3.53-1.93 7 7 0 0 0 .84-3.56 7.77 7.77 0 0 0 -.2-1.75 4.54 4.54 0 0 0 -.75-1.7 3.45 3.45 0 0 0 -1.79-1.34 5.37 5.37 0 0 0 -1.63-.23z" fill="#00a19b"/><path d="m401.13 346.94h-2.13v-1.94h2.14z" fill="#00a19b"/><path d="m3.45 246.05h80.13v80.14h-80.13z" fill="#00a19b"/><path d="m8.3 340.62c0 .08 0 .12-.08.13s-.09.07-.09.17v1.67h2q.09 0 .09.12v.29q0 .12-.09.12h-2v1.8h3.22c.07 0 .1 0 .1.13v.27c0 .08 0 .13-.1.13h-7.3c-.07 0-.1-.05-.1-.13v-.32c0-.08 0-.13.1-.13h1.19v-2.87c0-.06 0-.09.14-.09.41 0 .63 0 .63.09s0 .12-.08.13-.09.07-.09.17v2.63h1.66v-4.29c0-.07 0-.1.14-.1.44-.02.66.01.66.08zm0-2.27c.05 0 .09.08.09.11s-.06.14-.16.14a.84.84 0 0 0 -.19 0 6.9 6.9 0 0 0 .69 1 4.82 4.82 0 0 0 .94.85 5.43 5.43 0 0 0 1.57.84c.06 0 .11 0 .11.06a.13.13 0 0 1 -.06.11l-.35.32c0 .05-.07.08-.09.08a5 5 0 0 1 -1.16-.61 4.87 4.87 0 0 1 -1.19-1 9.12 9.12 0 0 1 -.89-1.15c-.23.28-.43.52-.63.72a7.12 7.12 0 0 1 -.78.77 11.25 11.25 0 0 1 -.94.72 5.19 5.19 0 0 1 -.76.44.14.14 0 0 1 -.14-.08 2 2 0 0 0 -.28-.35c-.07 0-.1-.07-.1-.1s0 0 .05-.05a6.88 6.88 0 0 0 1.09-.55 7.4 7.4 0 0 0 1.19-.94 5.27 5.27 0 0 0 .69-.68 5.59 5.59 0 0 0 .52-.83c0-.07.1-.1.14-.1z" fill="#383736"/><path d="m15.81 338.2a.12.12 0 0 1 -.09.13c-.06 0-.08.07-.08.17v1.09h1.13v-1.42c0-.07 0-.11.13-.11.42 0 .63 0 .63.11s0 .12-.08.12-.09.07-.09.17v1.13h.71c.12-.18.23-.36.32-.53s.19-.49.25-.7c0 0 .05-.06.08-.06l.53.27c.05 0 .08.07.08.1a.08.08 0 0 1 -.09.07c-.08 0-.13 0-.14.08a8 8 0 0 1 -.39.77h1.14s.07 0 .07.11v.3c0 .09 0 .14-.07.14h-1.85c-.1.31-.2.61-.31.89h1.49c.07 0 .1.05.1.13v.27c0 .09 0 .13-.1.13h-2.64v.67h2.25s.07 0 .07.09v.27c0 .09 0 .13-.07.13h-2.25v.66h3c.07 0 .1.05.1.14v.26c0 .1 0 .14-.1.14h-2.67a7.16 7.16 0 0 0 .75.44 8.17 8.17 0 0 0 1.22.48 8.83 8.83 0 0 0 1.18.28s0 .06-.09.09a3.2 3.2 0 0 0 -.32.36c0 .05-.07.07-.09.07a10.83 10.83 0 0 1 -1.45-.5 5.6 5.6 0 0 1 -1.1-.62 2.61 2.61 0 0 1 -.43-.31v1.54c0 .06-.06.1-.17.1h-.37c-.1 0-.14 0-.14-.1v-1.47l-.21.15a6.73 6.73 0 0 1 -.89.53c-.34.16-.72.32-1.14.47a7.08 7.08 0 0 1 -.88.25s-.08-.05-.11-.11l-.28-.32c-.05 0-.08-.08-.08-.1.56-.12 1-.24 1.45-.36a7.8 7.8 0 0 0 1.19-.48 5.89 5.89 0 0 0 .58-.39h-2.64c-.07 0-.1 0-.1-.14v-.26c0-.09 0-.14.1-.14h3.05v-.66h-2.36s-.06 0-.06-.13v-.27c0-.06 0-.09.06-.09h2.36v-.67h-2.69c-.06 0-.1 0-.1-.13v-.27c0-.08 0-.13.1-.13h1.57c-.16-.34-.3-.64-.44-.89h-1.82s-.07-.05-.07-.14v-.26c0-.07 0-.11.07-.11h1.41a1.63 1.63 0 0 1 -.11-.23 5.51 5.51 0 0 0 -.5-.76s.13-.12.42-.26a7.15 7.15 0 0 1 .51.74c.09.17.18.34.25.51h.5v-1.43c0-.07 0-.1.13-.1.46 0 .68.03.68.1zm1.28 2.8c.08-.18.15-.33.2-.47a3.92 3.92 0 0 0 .15-.42h-2.5c.17.28.33.58.48.89z" fill="#383736"/><path d="m24.65 338.46c.27.17.5.33.68.47v.08a3.65 3.65 0 0 1 -.23.32h3c.07 0 .11 0 .11.1v.33c0 .09 0 .13-.11.13h-3.1v2.16h2.62a.09.09 0 0 1 .1.1v.33c0 .1 0 .14-.1.14h-2.62v2.22h3.35a.09.09 0 0 1 .1.1v.33c0 .09 0 .14-.1.14h-7.35c-.07 0-.1-.05-.1-.14v-.33c0-.07 0-.1.1-.1h3.4v-2.22h-2.72c-.07 0-.1 0-.1-.14v-.33c0-.07 0-.1.1-.1h2.72v-2.16h-3c-.07 0-.1 0-.1-.13v-.33c0-.07 0-.1.1-.1h3.53a9.23 9.23 0 0 0 -.82-.57 5.71 5.71 0 0 0 -.65-.33 1.47 1.47 0 0 1 .26-.37s.05-.06.07-.06a9.68 9.68 0 0 1 .86.46z" fill="#383736"/><path d="m32.37 338.25c.07.05.1.09.1.12a.12.12 0 0 1 -.1.13c-.12 0-.19 0-.22.1s-.07.12-.08.16h2.66a.28.28 0 0 1 .16 0c.11.11.17.18.17.23l-1.28 1.29h2.22c.09 0 .13 0 .13.11v3.05c0 .07 0 .1-.13.1h-.33c-.09 0-.13 0-.13-.1v-.27h-4.63v1.36c0 .28.16.4.5.4h4.45a.43.43 0 0 0 .48-.33 4 4 0 0 0 .18-.76 1.41 1.41 0 0 0 .47.26.12.12 0 0 1 .1.14 2.82 2.82 0 0 1 -.29.89q-.13.36-.75.36h-5c-.51 0-.76-.18-.76-.56v-4.19l-.44.28a.38.38 0 0 1 -.19 0l-.35-.14s-.05 0-.05-.05 0-.05.05-.07a6.49 6.49 0 0 0 1.25-1 4.65 4.65 0 0 0 .56-.7 5.09 5.09 0 0 0 .52-1 .12.12 0 0 1 .11-.07zm.63 2.07 1.06-1h-2.32c-.11.17-.21.29-.29.4s-.38.43-.58.62zm-2.09 2.36h2.09v-1.82h-2.09zm2.65 0h2v-1.82h-2z" fill="#383736"/><path d="m41.2 340.15v-1h1v1zm0 3.41v-1h1v1z" fill="#383736"/><path d="m49.87 342a2.25 2.25 0 0 1 -1.39.41h-1.42v2.5h-.59v-5.57h2a2.24 2.24 0 0 1 1.4.41 1.47 1.47 0 0 1 0 2.25zm-1.39-2.1h-1.42v1.94h1.42a1.67 1.67 0 0 0 1-.28.85.85 0 0 0 .31-.68c.02-.65-.43-.98-1.31-.98z" fill="#383736"/><path d="m55.54 344.9-.66-1.59h-2.74l-.65 1.59h-.62l2.32-5.57h.64l2.33 5.57zm-2-4.88-1.14 2.74h2.28z" fill="#383736"/><path d="m60.57 344.91-3.18-4.76v4.76h-.6v-5.58h.72l3.18 4.75v-4.75h.59v5.58z" fill="#383736"/><path d="m64.45 339.9v5h-.58v-5h-1.87v-.56h4.4v.56z" fill="#383736"/><path d="m71.06 344.13a2.29 2.29 0 0 1 -3.56 0 3.54 3.54 0 0 1 0-4 2.31 2.31 0 0 1 3.56 0 3.58 3.58 0 0 1 0 4zm-.46-3.69a1.72 1.72 0 0 0 -2.64 0 3.06 3.06 0 0 0 0 3.35 1.68 1.68 0 0 0 2.64 0 3.06 3.06 0 0 0 0-3.35z" fill="#383736"/><path d="m76.31 344.91-3.18-4.76v4.76h-.59v-5.58h.71l3.18 4.75v-4.75h.57v5.58z" fill="#383736"/><path d="m78 344.91v-5.58h3.51v.56h-2.87v1.9h2.58v.55h-2.58v2h2.91v.56z" fill="#383736"/><path d="m88.28 344.54a1.82 1.82 0 0 1 -1.28.46 1.53 1.53 0 0 1 -1.69-1.29l.57-.19a1 1 0 0 0 1.12.93 1.16 1.16 0 0 0 .84-.3.93.93 0 0 0 .32-.71 1.1 1.1 0 0 0 -.3-.78 1.08 1.08 0 0 0 -.78-.32h-.65v-.55h.57a.93.93 0 0 0 .66-.34 1 1 0 0 0 .32-.71c0-.6-.31-.9-.94-.9a.93.93 0 0 0 -1 .89l-.55-.18a1.58 1.58 0 0 1 .47-.88 1.47 1.47 0 0 1 1.06-.39 1.58 1.58 0 0 1 1.12.4 1.43 1.43 0 0 1 .41 1.06.91.91 0 0 0 -.07 1.8 1.61 1.61 0 0 1 .26.9 1.43 1.43 0 0 1 -.46 1.1z" fill="#383736"/><path d="m93.05 341.74a6.7 6.7 0 0 1 -.91 1 4.44 4.44 0 0 0 -1.27 1.66h2.57v.55h-3.44a4.27 4.27 0 0 1 .63-1.41 7.39 7.39 0 0 1 1.08-1.19 6.11 6.11 0 0 0 .84-.89 1.32 1.32 0 0 0 .27-.75.78.78 0 0 0 -.27-.59 1.35 1.35 0 0 0 -.87-.26c-.7 0-1.07.45-1.13 1.34l-.56-.22a2 2 0 0 1 .52-1.23 1.59 1.59 0 0 1 1.17-.45 2 2 0 0 1 1.26.37 1.29 1.29 0 0 1 .46 1 1.79 1.79 0 0 1 -.35 1.07z" fill="#383736"/><path d="m96.76 342.22a9.81 9.81 0 0 0 -.26 2.69h-.61a9.88 9.88 0 0 1 .28-2.62 6.16 6.16 0 0 1 1.42-2.4h-3.09v-.56h3.82v.55a5.91 5.91 0 0 0 -1.56 2.34z" fill="#383736"/><path d="m102.4 341.74a6.7 6.7 0 0 1 -.91 1 4.55 4.55 0 0 0 -1.27 1.66h2.57v.55h-3.4a4.27 4.27 0 0 1 .63-1.41 7.39 7.39 0 0 1 1.08-1.19 6.11 6.11 0 0 0 .84-.89 1.32 1.32 0 0 0 .27-.75.78.78 0 0 0 -.27-.59 1.35 1.35 0 0 0 -.87-.26c-.7 0-1.07.45-1.13 1.34l-.56-.22a2 2 0 0 1 .52-1.23 1.59 1.59 0 0 1 1.17-.45 2 2 0 0 1 1.26.37 1.29 1.29 0 0 1 .46 1 1.79 1.79 0 0 1 -.39 1.07z" fill="#383736"/><path d="m107.58 340.78a1.41 1.41 0 0 0 -1.43-1 1.56 1.56 0 0 0 -1.23.64 2.69 2.69 0 0 0 -.57 1.77 2.42 2.42 0 0 0 .53 1.66 1.55 1.55 0 0 0 2.08.25 2 2 0 0 0 .55-.81l.55.21a2.08 2.08 0 0 1 -2 1.44 2 2 0 0 1 -1.59-.74 2.92 2.92 0 0 1 -.67-2 3.22 3.22 0 0 1 .7-2.12 2.12 2.12 0 0 1 1.69-.85 2 2 0 0 1 2 1.31z" fill="#383736"/><path d="m7.17 350.68a3.18 3.18 0 0 1 -1 .45 4.52 4.52 0 0 1 -1.27.17v1.76h2.34c.07 0 .1.05.1.13v.27c0 .08 0 .12-.1.12h-2.33v2.53l.48-.11c.64-.16 1.24-.32 1.82-.5h.06a.06.06 0 0 1 .07.07 2.09 2.09 0 0 1 0 .46c-1 .29-2 .56-3.06.79-.09.17-.15.24-.2.24s-.16-.23-.33-.69a4.75 4.75 0 0 0 .59-.12v-5.49a.1.1 0 0 1 .11-.11l.3.12a6.49 6.49 0 0 0 1.17-.12 2.78 2.78 0 0 0 1.05-.47.12.12 0 0 1 .03-.08.18.18 0 0 1 .11 0c.28.24.43.38.43.45s0 .16-.1.16l-.2-.09zm1.5 7c0 .07-.05.1-.14.1h-.33c-.09 0-.14 0-.14-.1v-7a.13.13 0 0 1 .14-.14h2.85c.12 0 .17.05.17.14v5.27c0 .22-.16.4-.48.52a5.55 5.55 0 0 1 -1.18.18.09.09 0 0 1 -.1-.1 2 2 0 0 0 -.2-.53s0 0 .1 0a3.5 3.5 0 0 0 1.07-.08.26.26 0 0 0 .19-.25v-4.57h-1.95z" fill="#383736"/><path d="m13.48 352.86a20.77 20.77 0 0 1 -.12 2.39 8.59 8.59 0 0 1 -.32 1.47 4.52 4.52 0 0 1 -.36.85h-.09a2.37 2.37 0 0 0 -.3-.23.16.16 0 0 1 0-.12 4.63 4.63 0 0 0 .34-1 10.29 10.29 0 0 0 .22-1.42c0-.52.07-1.15.07-1.9v-2.4c0-.08 0-.12.14-.12h4c.09 0 .14 0 .14.09v1.86a.13.13 0 0 1 -.14.14h-1.25v1.09h1.29c.11 0 .17.05.17.13v3.14c0 .13-.09.23-.26.3a2.3 2.3 0 0 1 -.61.11.1.1 0 0 1 -.11-.09 1.66 1.66 0 0 0 -.19-.54 1.15 1.15 0 0 0 .43 0 .15.15 0 0 0 .09-.13v-2.34h-.86v3.62c0 .07-.06.1-.14.1h-.33c-.09 0-.14 0-.14-.1v-3.62h-.86v3c0 .06-.05.09-.13.09h-.33c-.1 0-.14 0-.14-.09v-3.43c0-.08 0-.13.14-.13h1.37v-1.09h-1.72zm0-1h3.08v-1h-3.08zm5.18-.66c0 .08 0 .12-.08.13s-.09.06-.09.17v4.5c0 .06 0 .1-.13.1h-.36c-.08 0-.12 0-.12-.1v-4.72c0-.07 0-.1.12-.1.45-.05.66-.02.66.05zm1.4-1c.06 0 .09.06.09.08s0 .07-.09.07-.17.17-.17.4v6.34c0 .39-.3.59-.9.59h-.53c-.05 0-.07-.05-.07-.14a1.89 1.89 0 0 0 -.16-.39c0-.05 0-.06.07-.06a5.11 5.11 0 0 0 .63.06c.23 0 .36-.11.36-.3v-6.15a2.73 2.73 0 0 0 0-.37.41.41 0 0 1 0-.16c0-.05.05-.07.17-.07z" fill="#383736"/><path d="m22.67 354.35c.13.3.21.45.21.47a.16.16 0 0 1 -.05.11c-.28.61-.55 1.12-.79 1.54-.14.24-.31.5-.5.79a.54.54 0 0 0 -.06.27c0 .07 0 .11-.06.11s-.22-.17-.51-.51a.11.11 0 0 1 -.06-.09.15.15 0 0 1 0-.11 4.22 4.22 0 0 0 .49-.57 9.44 9.44 0 0 0 .67-1.07c.2-.34.37-.65.51-.94 0 0 0-.07.05-.07s.08.03.1.07zm-.67-1.53.59.4a.18.18 0 0 1 -.05.07l-.28.39a9.13 9.13 0 0 0 -.79-.54 2.59 2.59 0 0 0 -.55-.28 1.89 1.89 0 0 1 .26-.37.15.15 0 0 1 .07-.06 7.16 7.16 0 0 1 .75.39zm.3-2.23.55.37a.27.27 0 0 1 0 .07l-.26.37a7.43 7.43 0 0 0 -.75-.49 3.28 3.28 0 0 0 -.55-.24 1.44 1.44 0 0 1 .27-.38s.05-.06.06-.06a8 8 0 0 1 .64.36zm5.09 1.41s.07 0 .07.1v.26c0 .1 0 .14-.07.14h-1.23v.7h1.84c.09 0 .14 0 .14.09v3c0 .07-.05.11-.14.11h-.95a3.66 3.66 0 0 0 .7.5 4.18 4.18 0 0 0 .81.34s.07.06.07.08a1.9 1.9 0 0 1 -.37.44h-.08a6.86 6.86 0 0 1 -1.49-.92s-.05 0-.05-.06.11-.17.33-.36h-2.04l.37.28c0 .05.07.08.07.11s0 0-.08 0a.58.58 0 0 0 -.17.05 6.38 6.38 0 0 1 -.6.46 8.9 8.9 0 0 1 -1 .49c-.07 0-.12 0-.13-.06l-.3-.24c-.05 0-.07-.05-.07-.06a.05.05 0 0 1 0-.05 2.42 2.42 0 0 0 .46-.16 3.81 3.81 0 0 0 .69-.41c.16-.12.33-.27.52-.44h-.99c-.08 0-.12 0-.12-.11v-3q0-.09.12-.09h1.86v-.7h-1.36c-.05 0-.06 0-.06-.14v-.26c0-.07 0-.1.06-.1zm-1.06-2c0 .09 0 .13-.09.13s-.08.07-.08.18v.45h2.16c.08 0 .13 0 .13.11v1.32c0 .07-.05.1-.13.1h-.32c-.09 0-.13 0-.13-.1v-.92h-4.13v1c0 .06 0 .1-.13.1h-.33c-.1 0-.14 0-.14-.1v-1.37c0-.07 0-.11.14-.11h2.28v-.79c0-.06.05-.09.14-.09q.63.03.63.09zm-.77 4.45v-.83h-1.39v.83zm0 .51h-1.39v.85h1.39zm.6-.51h1.39v-.83h-1.39zm1.39.51h-1.39v.85h1.39z" fill="#383736"/><path d="m32.37 350.25c.07.05.1.09.1.12a.12.12 0 0 1 -.1.13c-.12 0-.19 0-.22.1s-.07.12-.08.16h2.66a.28.28 0 0 1 .16 0c.11.11.17.18.17.23l-1.28 1.29h2.22c.09 0 .13 0 .13.11v3.05c0 .07 0 .1-.13.1h-.33c-.09 0-.13 0-.13-.1v-.27h-4.63v1.36c0 .28.16.4.5.4h4.45a.43.43 0 0 0 .48-.33 4 4 0 0 0 .18-.76 1.41 1.41 0 0 0 .47.26.12.12 0 0 1 .1.14 2.82 2.82 0 0 1 -.29.89q-.13.36-.75.36h-5c-.51 0-.76-.18-.76-.56v-4.19l-.44.28a.38.38 0 0 1 -.19 0l-.35-.14s-.05 0-.05-.05 0-.05.05-.07a6.49 6.49 0 0 0 1.25-1 4.65 4.65 0 0 0 .56-.7 5.09 5.09 0 0 0 .52-1 .12.12 0 0 1 .11-.07zm.63 2.07 1.06-1h-2.32c-.11.17-.21.29-.29.4s-.38.43-.58.62zm-2.09 2.36h2.09v-1.82h-2.09zm2.65 0h2v-1.82h-2z" fill="#383736"/><path d="m44.44 352.78a1.41 1.41 0 0 0 -1.43-1 1.56 1.56 0 0 0 -1.23.64 2.69 2.69 0 0 0 -.57 1.77 2.42 2.42 0 0 0 .53 1.66 1.47 1.47 0 0 0 1.15.54 1.42 1.42 0 0 0 .93-.29 2 2 0 0 0 .55-.81l.55.21a2.08 2.08 0 0 1 -2 1.44 2 2 0 0 1 -1.6-.74 3 3 0 0 1 -.66-2 3.27 3.27 0 0 1 .69-2.12 2.12 2.12 0 0 1 1.69-.85 2 2 0 0 1 2 1.31z" fill="#383736"/><path d="m47.31 356.91v-4.46h-1.19v-.34h.06a1.61 1.61 0 0 0 .73-.18 1.05 1.05 0 0 0 .55-.59h.43v5.57z" fill="#383736"/><path d="m52.26 357c-1.21 0-1.82-1-1.82-2.88a4.19 4.19 0 0 1 .4-2.07 1.71 1.71 0 0 1 2.84 0 4.19 4.19 0 0 1 .4 2.07c0 1.88-.61 2.88-1.82 2.88zm.91-4.67a1.09 1.09 0 0 0 -1.82 0 3.63 3.63 0 0 0 -.35 1.77 3.76 3.76 0 0 0 .32 1.82 1.07 1.07 0 0 0 1.82 0 3.87 3.87 0 0 0 .33-1.82 3.73 3.73 0 0 0 -.3-1.79z" fill="#383736"/><path d="m56.94 357c-1.22 0-1.82-1-1.82-2.88a4.19 4.19 0 0 1 .4-2.07 1.54 1.54 0 0 1 1.42-.76 1.56 1.56 0 0 1 1.42.76 4.3 4.3 0 0 1 .4 2.07c0 1.88-.62 2.88-1.82 2.88zm.91-4.67a1 1 0 0 0 -.91-.49 1 1 0 0 0 -.91.49 3.63 3.63 0 0 0 -.32 1.79 3.76 3.76 0 0 0 .32 1.82 1 1 0 0 0 .91.51 1 1 0 0 0 .91-.51 3.89 3.89 0 0 0 .32-1.82 3.75 3.75 0 0 0 -.32-1.81z" fill="#383736"/><path d="m65 354.3v2.61h-.6v-2.61l-2.21-3h.71l1.8 2.47 1.8-2.47h.71z" fill="#383736"/><path d="m70.89 356.46a1.68 1.68 0 0 1 -1.25.52 1.61 1.61 0 0 1 -1.64-1.16l.55-.24a1.11 1.11 0 0 0 1.08.85 1.05 1.05 0 0 0 .82-.37 1.51 1.51 0 0 0 .37-1.1c0-.9-.33-1.36-1-1.36a1.08 1.08 0 0 0 -1 .69h-.54v-3h2.94v.56h-2.38v1.54a1.19 1.19 0 0 1 1-.39 1.47 1.47 0 0 1 1.18.52 2.06 2.06 0 0 1 .43 1.39 2.1 2.1 0 0 1 -.56 1.55z" fill="#383736"/><path d="m74.39 357c-1.22 0-1.82-1-1.82-2.88a4.19 4.19 0 0 1 .43-2.12 1.54 1.54 0 0 1 1.42-.76 1.56 1.56 0 0 1 1.42.76 4.3 4.3 0 0 1 .4 2.07c-.03 1.93-.65 2.93-1.85 2.93zm.91-4.67a1 1 0 0 0 -.91-.49 1 1 0 0 0 -.91.49 3.63 3.63 0 0 0 -.32 1.79 3.76 3.76 0 0 0 .32 1.82 1 1 0 0 0 .91.51 1 1 0 0 0 .91-.51 3.89 3.89 0 0 0 .32-1.82 3.75 3.75 0 0 0 -.32-1.81z" fill="#383736"/><path d="m6.87 362.25c.07.05.1.09.1.12a.12.12 0 0 1 -.1.13c-.12 0-.19 0-.22.1s-.07.12-.08.16h2.66a.28.28 0 0 1 .16 0c.11.11.17.18.17.23l-1.28 1.29h2.21c.09 0 .13 0 .13.11v3.05c0 .07 0 .1-.13.1h-.33c-.09 0-.13 0-.13-.1v-.27h-4.62v1.36c0 .28.16.4.5.4h4.45a.43.43 0 0 0 .48-.33 4 4 0 0 0 .18-.76 1.41 1.41 0 0 0 .47.26.12.12 0 0 1 .1.14 2.82 2.82 0 0 1 -.29.89q-.13.36-.75.36h-5c-.51 0-.76-.18-.76-.56v-4.19l-.44.28a.38.38 0 0 1 -.19 0l-.35-.14s0 0 0-.05 0-.05 0-.07a6.49 6.49 0 0 0 1.25-1 4.65 4.65 0 0 0 .56-.7 5.09 5.09 0 0 0 .52-1 .12.12 0 0 1 .11-.07zm.63 2.07 1.06-1h-2.32c-.11.17-.21.29-.29.4s-.38.43-.58.62zm-2.09 2.36h2.06v-1.82h-2.06zm2.65 0h2v-1.82h-2z" fill="#383736"/><path d="m15.37 362.43c.07 0 .1.05.1.14v.26c0 .09 0 .13-.1.13h-1.31c-.11.54-.2 1-.3 1.47 0 .13-.07.25-.1.36h1.42c.08 0 .12 0 .12.1v3.79q0 .09-.12.09h-.34c-.09 0-.13 0-.13-.09v-.37h-.84v1.06c0 .06 0 .1-.12.1h-.33c-.1 0-.14 0-.14-.1v-3.2a6.13 6.13 0 0 1 -.33.68.21.21 0 0 1 -.15 0l-.38-.18c-.05 0-.07 0-.07 0a9 9 0 0 0 .63-1.3 10.05 10.05 0 0 0 .38-1.18c.06-.24.14-.63.23-1.15h-.94c-.07 0-.1 0-.1-.13v-.26c0-.09 0-.14.1-.14zm-.76 5.35v-2.46h-.84v2.46zm1.54 0c.07 0 .11.07.11.11a.12.12 0 0 1 0 .11s-.07 0-.07.11a11.76 11.76 0 0 1 -.32 1.28c0 .07-.05.1-.06.1a.22.22 0 0 1 -.13-.06 2.58 2.58 0 0 0 -.31-.13s-.06 0-.06-.05a.12.12 0 0 1 0-.07q.14-.39.21-.69a7.64 7.64 0 0 0 .17-.77c0-.08 0-.12 0-.12zm2.11-4.14h1.4c.06 0 .09.06.09.14v.22c0 .1 0 .14-.09.14h-1.4v.86h1.4c.06 0 .09.05.09.13v.27c0 .09 0 .13-.09.13h-1.4v.83h1.74c.07 0 .11 0 .11.1a13.11 13.11 0 0 1 -.14 1.88 3.08 3.08 0 0 1 -.34 1c-.14.24-.49.36-1.09.36-.3 0-.45-.07-.45-.19a1.44 1.44 0 0 0 -.18-.48v-.03a2.14 2.14 0 0 0 .63.11.66.66 0 0 0 .61-.24 1.73 1.73 0 0 0 .27-.74 8.08 8.08 0 0 0 .13-1.25h-3.65c-.09 0-.13 0-.13-.1v-4.38c0-.07 0-.1.13-.1h4s.06 0 .06.1v.26c0 .09 0 .13-.06.13h-1.64zm-1.89 0h1.29v-.83h-1.29zm1.29.54h-1.29v.82h1.29zm0 2.22v-.83h-1.29v.83zm-.7 1.23q.18.48.27.81a3.46 3.46 0 0 1 .1.58s0 0-.11 0a1.9 1.9 0 0 1 -.42.12 5.63 5.63 0 0 0 -.15-.87l-.18-.59a1.27 1.27 0 0 1 .4-.13q.08 0 .13.03zm1.17.37c.07.18.14.39.2.59a1.54 1.54 0 0 1 -.47.14 3.74 3.74 0 0 0 -.13-.5 4.93 4.93 0 0 0 -.3-.67s.12-.11.36-.23a6.06 6.06 0 0 1 .34.67zm.91-.28c.08.18.15.37.22.57a1.54 1.54 0 0 1 -.47.14 4.87 4.87 0 0 0 -.15-.49 4.15 4.15 0 0 0 -.31-.64s.12-.11.36-.24a7.29 7.29 0 0 1 .31.61z" fill="#383736"/><path d="m24.2 364.15v-1h1v1zm0 3.41v-1h1v1z" fill="#383736"/><path d="m33.41 365.36h-1l-.18 1.53h.87v.54h-.88l-.22 1.48h-.6l.18-1.48h-.88l-.18 1.48h-.6l.17-1.48h-1l.05-.54h1l.18-1.53h-.86l.05-.53h.88l.18-1.49h.61l-.18 1.49h.89l.18-1.49h.6l-.18 1.49h1zm-2.47 0-.18 1.53h.89l.18-1.53z" fill="#383736"/><path d="m36 369c-1.22 0-1.82-1-1.82-2.88a4.19 4.19 0 0 1 .4-2.07 1.54 1.54 0 0 1 1.42-.76 1.56 1.56 0 0 1 1.42.76 4.3 4.3 0 0 1 .4 2.07c-.03 1.88-.65 2.88-1.82 2.88zm.91-4.67a1 1 0 0 0 -.91-.49 1 1 0 0 0 -.91.49 3.63 3.63 0 0 0 -.32 1.79 3.76 3.76 0 0 0 .32 1.82 1 1 0 0 0 .91.51 1 1 0 0 0 .91-.51 3.89 3.89 0 0 0 .32-1.82 3.75 3.75 0 0 0 -.35-1.81z" fill="#383736"/><path d="m40.64 369c-1.21 0-1.82-1-1.82-2.88a4.19 4.19 0 0 1 .4-2.07 1.71 1.71 0 0 1 2.84 0 4.19 4.19 0 0 1 .4 2.07c0 1.88-.61 2.88-1.82 2.88zm.91-4.67a1.09 1.09 0 0 0 -1.82 0 3.63 3.63 0 0 0 -.32 1.79 3.76 3.76 0 0 0 .32 1.82 1 1 0 0 0 .91.51 1 1 0 0 0 .91-.51 3.87 3.87 0 0 0 .33-1.82 3.73 3.73 0 0 0 -.33-1.81z" fill="#383736"/><path d="m46 368.92a1.9 1.9 0 0 1 -.11-.54v-.09a1.89 1.89 0 0 1 -1.45.69 1.31 1.31 0 0 1 -.85-.26.85.85 0 0 1 -.36-.72 1.11 1.11 0 0 1 .64-1.06 4.89 4.89 0 0 1 2-.37.88.88 0 0 0 -.95-.94 1 1 0 0 0 -.92.5l-.57-.26a1.57 1.57 0 0 1 1.49-.79 1.52 1.52 0 0 1 1.16.43 1.76 1.76 0 0 1 .39 1.19v1.68a1.33 1.33 0 0 0 .09.54zm-2.17-.92a.33.33 0 0 0 .15.29.64.64 0 0 0 .47.17 1.34 1.34 0 0 0 1-.39 1.54 1.54 0 0 0 .49-1q-2.11.06-2.11.93z" fill="#383736"/><path d="m49 368.91v-4.46h-1.2v-.34h.06a1.61 1.61 0 0 0 .73-.18 1.05 1.05 0 0 0 .55-.59h.44v5.57z" fill="#383736"/><path d="m53.8 369a1.33 1.33 0 0 1 -.9-.33 1.59 1.59 0 0 1 -.47-.66l.53-.24c.19.46.47.68.84.68q1.13 0 1.23-2a1.57 1.57 0 0 1 -1.18.54 1.49 1.49 0 0 1 -1.15-.45 1.75 1.75 0 0 1 -.44-1.27 2.29 2.29 0 0 1 .41-1.37 1.56 1.56 0 0 1 2.65.29 5 5 0 0 1 .31 2c0 1.86-.63 2.81-1.83 2.81zm.1-5.16a.9.9 0 0 0 -.76.39 1.65 1.65 0 0 0 -.29 1c0 .78.35 1.18 1.06 1.18a1.38 1.38 0 0 0 1.12-.7c-.03-1.26-.41-1.89-1.13-1.89z" fill="#383736"/><path d="m59.77 368.44a1.53 1.53 0 0 1 -1.17.53 1.64 1.64 0 0 1 -1.38-.68v.62h-.6v-5.59h.6v2.4a1.64 1.64 0 0 1 1.33-.65 1.58 1.58 0 0 1 1.25.56 2 2 0 0 1 .49 1.36 2.09 2.09 0 0 1 -.52 1.45zm-.4-2.43a1.08 1.08 0 0 0 -.87-.38 1.18 1.18 0 0 0 -.91.41 1.47 1.47 0 0 0 -.37 1 1.32 1.32 0 0 0 .39 1 1.29 1.29 0 0 0 .93.34 1.06 1.06 0 0 0 .82-.39 1.53 1.53 0 0 0 .33-1 1.5 1.5 0 0 0 -.32-.99z" fill="#383736"/><g fill="#00a19b"><path d="m214.12 276.78h10.69v2.01h-10.69z"/><path d="m228.93 281.66v-2.05h-18.63v2.05l4.38.07.44 1.45h-3.91v13.15h2.62v-8.71l1 1.83h.39l.34-.21v5.63h2.56v-.54h3v.54h2.37l.17-.54.94 2c3.58 0 3.47-2.52 3.47-2.52v-10.63h-4.3l.71-1.52zm-7 3.6h1.4s.1.05.08.12-.25.9-.58.9h-.6a.44.44 0 0 1 -.3-.38zm-.18-3.5-.5 1.45h-3.46l-.52-1.45zm-7.94 5.33v-1.83h2.19c-.84 2.17-2.17 1.83-2.17 1.83zm7.19 5.21h-2.94v-1h2.94zm4.41-7v.85l-1.37-.85zm0 2.31v4.73c0 1.68-1.89 1-1.89 1v-4.2h-7.52a5.63 5.63 0 0 0 2.93-3.81h.56v1.83c0 1.83 1.4 1.62 1.4 1.62h2.75a1.89 1.89 0 0 0 1.77-1.21z"/><path d="m252.44 294c-4.56-.43-5.84-2-5.84-2h5.24v-2.18h-8v-.58h5.78v-2.31h-5.78v-.58h6.74v-2.17h-4l.42-1.18 5.09.05v-2.4h-3.51l1.55-2.7-2.88-1-1.43 2.95 1.79.6v.13h-2v-3.83h-2.61v3.83h-1.41v-3.82h-2.59l-.06 3.82h-1.94v-.13l1.71-.92-1.7-2.7-2.6 1h-.07l1.48 2.5v.15h-3.21v2.47h5.22l.34 1.16h-4.1v2.22h6.93v.58h-5.78v2.34h5.78v.58h-8v2.12h5.05a15.3 15.3 0 0 1 -5.6 2.3l1.66 2.16a24.21 24.21 0 0 0 6.87-3.15v3.14h2.92v-3.1a16.4 16.4 0 0 0 7.32 3.11zm-8.92-9.87h-2.35l-.41-1.12h3.13z"/><path d="m294.51 260a33.61 33.61 0 0 0 3-5v-.06l-1-1.15h-7.73a5.62 5.62 0 0 0 1.32-1.74 5.88 5.88 0 0 0 .88-3.71v-.09h1.27v3.27s.63 1.5 1.08 1.5h3.21c.31 0 .77-.22 1.23-1.27s.67-2 .67-2l-2.61-1.17v.15s0 .31 0 .71v.12c0 .5-.07 1-.46 1s-.56-.61-.56-1.05v-3.65h-6.49v2.55a5.68 5.68 0 0 1 -1.68 3.75v-6.3h-6.72v7.71c0 2.88-.22 7.56-1.29 9.75l-.05.1 2.84 1.31v-.12a31 31 0 0 0 1.07-7.1h1.51v3.79c0 .2-.11.3-.21.3h-1.7l1.13 3.44h.12c.84 0 3.07-1.39 3.24-2.3v-.28a16.57 16.57 0 0 1 1.45 2.48l.05.1.1-.05c.15-.08 3.56-2.38 4.39-3.09.43.29 2.76 2.58 3.89 3.1h.07l1.77-3.31h-.17a17.82 17.82 0 0 1 -3.62-1.69zm-10.51-4.87h-1.54v-2.24h1.54zm0-4.73h-1.54v-2.12h1.54zm2.57 11.6v-9.46a6.89 6.89 0 0 1 1.55 1.24h-1v2.36h1l.09.15a32.48 32.48 0 0 0 2.45 3.82 22.14 22.14 0 0 1 -4.09 1.89zm6-3.79-1.41-2.07h2.63a16.37 16.37 0 0 1 -1.23 2.11z"/><path d="m316.91 260a35.48 35.48 0 0 0 3-5v-.06l-1-1.15h-7.74a5.32 5.32 0 0 0 1.32-1.74 5.88 5.88 0 0 0 .88-3.71v-.09h1.27v3.27c0 .54.64 1.5 1.09 1.5h3.21c.3 0 .76-.22 1.23-1.27s.67-2 .67-2l-2.61-1.17v.15s0 .31 0 .71v.12c0 .5-.06 1-.46 1s-.56-.61-.56-1.05v-3.65h-6.48v2.55a5.69 5.69 0 0 1 -1.69 3.75v-6.3h-6.71v7.71c0 2.88-.23 7.56-1.3 9.75v.1l2.83 1.31v-.12a31 31 0 0 0 1.07-7.1h1.54v3.79c0 .2-.11.3-.22.3h-1.69l1.13 3.44h.11c.84 0 3.07-1.39 3.24-2.3v-.28a17.54 17.54 0 0 1 1.46 2.48l.05.1.09-.05c.15-.08 3.57-2.38 4.39-3.09.44.29 2.77 2.58 3.89 3.1h.08l1.73-3.27h-.17a17.56 17.56 0 0 1 -3.65-1.73zm-10.48-4.9h-1.54v-2.24h1.54zm0-4.73h-1.53v-2.12h1.54zm2.57 11.63v-9.46a6.67 6.67 0 0 1 1.55 1.24h-1v2.36h1l.08.15a33.56 33.56 0 0 0 2.46 3.82 22.27 22.27 0 0 1 -4.09 1.89zm6-3.79-1.41-2.07h2.63a16.37 16.37 0 0 1 -1.22 2.11z"/><path d="m353.43 248.04h3.97v1.02h-3.97z"/><path d="m341 249.93a13.8 13.8 0 0 1 -2.35-4.19v-.1l-2.26.92h-.09v.09a17.17 17.17 0 0 0 4 6.57h-9l.12-.12c1.94-2 4-6.44 4-6.49l.05-.12h-.13c-.89-.2-2.32-.61-2.33-.61h-.08v.08s-2.1 4.22-3.9 5.64v-.93l1.47-4.31v-.11l-3.14-.6v.09s-.69 2.58-.92 3.11a18.22 18.22 0 0 1 -2.88 5.26v.06l1.64 2.76.09-.15c.2-.34.69-1.15 1-1.55v9.77h2.79v-12.87l1.31 1.88.62-.44v2.3h1.99v.31a8.27 8.27 0 0 1 -3.43 5.93l-.1.08 2.33 2.18.08-.08a13.46 13.46 0 0 0 2.52-3.33 15.2 15.2 0 0 0 1.46-5.09h1.95v3.72a3.69 3.69 0 0 1 -.54 2.46.29.29 0 0 1 -.22.08h-2l1.08 2.91h.51a7.66 7.66 0 0 0 1.36-.04 3.12 3.12 0 0 0 2.2-2.18 14.62 14.62 0 0 0 .3-3.21v-6.12l1 1 .05-.14a14.25 14.25 0 0 1 1.38-2.52l.06-.08-.08-.06a19.47 19.47 0 0 1 -1.91-1.76z"/><path d="m354.66 246.06v-.12l-3-.3v.11a12.44 12.44 0 0 1 -.34 1.93h-6.48v2.55h5.62a14.28 14.28 0 0 1 -5.57 6.23l-.11.06.08.09c.06.08 1.47 1.83 1.67 2l.06.06.07-.05a33.31 33.31 0 0 0 2.89-2.21v8.1h2.7v-4.13h6.09v1.62c-.08.15-.16.22-.25.22h-2.3l1.11 2.78v.07h.71c2-.13 3.38-.48 3.38-1.73v-12.34h-7.92l.4-.8h9.87v-2.55h-9.09c.21-.9.41-1.58.41-1.59zm-2.38 8.87v-1.46h6.09v1.46zm0 3.46v-1.46h6.09v1.46z"/><path d="m385.42 261.8a10.58 10.58 0 0 1 -3.72-2.28 31 31 0 0 1 3.62-2.67l.18-.09-.17-.1a28.11 28.11 0 0 0 -2.5-1.38h-.06l-2.11 2a3.27 3.27 0 0 1 -.38-1.35v-1.05h3.65v-9.24h-9.47v1.09h-.07s-1.56-.62-2-.84h-5.63v19.11h2.66v-6.23l1.05 2.52h.1c2.11-.54 3.31-1.61 3.56-3.2a6 6 0 0 0 0-2.09 8.35 8.35 0 0 0 -1.72-3.33c.18-.51 1.47-4.18 2-5.85v14.48l-2.22.37.6 3.37 6.68-1.94h.09v-1.72l.64.73c1.45 1.47 2.26 2.36 3.53 2.91h.09l1.67-3.19zm-14.42-4.25a2.64 2.64 0 0 1 -1.59.61v-9.56h.19 1.41a23.59 23.59 0 0 1 -1.16 4v.05c.51.78 1.81 2.94 1.81 3.57a1.65 1.65 0 0 1 -.66 1.33zm6-9.45h4v1h-4zm2 12.43-2 .33v-6h.13v-.07h.66a11.31 11.31 0 0 0 .37 2.72 25.88 25.88 0 0 0 .94 2.84h-.15s.12.14.14.18zm-2-8.13v-1h.13 4v1h-.06z"/><path d="m378.25 257.53a11.31 11.31 0 0 1 -.37-2.72h-.66v.07h.54a12.05 12.05 0 0 0 .37 2.76c.35 1.21.65 2.11.91 2.75h.15a25.88 25.88 0 0 1 -.94-2.86z"/><path d="m381.12 252.36h.06v-.96h-3.96v.02h3.9z"/><path d="m369.87 252.64a23.59 23.59 0 0 0 1.16-4h-1.41 1.24a24.75 24.75 0 0 1 -1.17 4.07v.06c.5.79 1.82 3 1.82 3.62a1.67 1.67 0 0 1 -.5 1.16 1.65 1.65 0 0 0 .67-1.29c0-.63-1.3-2.79-1.81-3.57z"/><path d="m369.64 248.6h-.19v9.56a2.64 2.64 0 0 0 1.59-.61 2.79 2.79 0 0 1 -1.4.46z"/><path d="m381.12 252.36h-3.9v-.94h-.13v.98h4.03z"/><path d="m377.22 254.88h-.13v6l2-.33s0-.1 0-.14l-1.82.31z"/><path d="m401 257v-.06l-2.6 1 1.05 2-4.41.94 3.31-7.39-3.34-1-3.24 8.75-2.84.38.92 3.11 10.79-2.26 1.2 2.59 3.45-1.29v-.1c-1.1-2.91-4.29-6.61-4.29-6.67z"/><path d="m404.05 251.77a9.05 9.05 0 0 1 -3.85-6v-.12l-3 1h-.1v.1s.7 2.11 1 2.8c1.23 3 6 6 6.18 6.13l.08.05 2.35-2.67h-.15a9.49 9.49 0 0 1 -2.51-1.29z"/><path d="m389.64 255.71.06-.05c2.64-1.76 5.67-8.33 5.8-8.61l.05-.11-3.37-1.07v.09a21.45 21.45 0 0 1 -1.84 3.65 13.43 13.43 0 0 1 -3.29 3.5l-.13.06 2.69 2.48z"/><path d="m410.23 253.58v7.91h2.9v-.64h4.87v.64h2.93v-7.91zm7.77 4.52h-4.91v-1.78h4.91z"/><path d="m408.38 245.83v2.73h14.86v12.17c0 .54-.07 1.47-.52 1.47a18 18 0 0 1 -3.66-.3l.66 2.86h.15a24.37 24.37 0 0 0 3.25.26c2 0 3-1.14 3-3.28v-15.91z"/><path d="m410.06 249.78h11.2v2.75h-11.2z"/><path d="m317.05 291.23a31.56 31.56 0 0 0 2.87-4.85v-.07l-1-1.15h-7.74a5.2 5.2 0 0 0 1.32-1.74 5.88 5.88 0 0 0 .88-3.71v-.08h1.27v3.27c0 .54.64 1.49 1.09 1.49h3.21c.3 0 .76-.22 1.23-1.27s.67-2 .67-2l-2.61-1.18v.16s0 .3 0 .7v.12c0 .5-.06 1-.46 1s-.56-.62-.56-1.06v-3.66h-6.48v2.55a5.69 5.69 0 0 1 -1.74 3.75v-6.3h-6.71v7.72c0 2.88-.23 7.56-1.3 9.74v.1l2.83 1.31v-.12a30.84 30.84 0 0 0 1.07-7.09h1.54v3.79c0 .19-.11.29-.22.29h-1.69l1.13 3.44h.11c.84 0 3.07-1.39 3.24-2.3v-.28a17.54 17.54 0 0 1 1.46 2.48l.05.1.09-.05c.15-.08 3.57-2.37 4.39-3.08.44.28 2.77 2.57 3.89 3.1h.08l1.87-3.4h-.17a17.82 17.82 0 0 1 -3.61-1.72zm-10.62-4.76h-1.54v-2.24h1.54zm0-4.73h-1.53v-2.11h1.54zm2.57 11.64v-9.46a6.94 6.94 0 0 1 1.55 1.24h-1v2.37h1l.08.14a33.56 33.56 0 0 0 2.46 3.82 22.27 22.27 0 0 1 -4.09 1.89zm6-3.79-1.41-2.06h2.63a17 17 0 0 1 -1.22 2.06z"/><path d="m341 281.27a13.8 13.8 0 0 1 -2.35-4.19v-.1l-2.26.93h-.09v.1a17.16 17.16 0 0 0 4 6.56h-9l.12-.11c1.94-2 4-6.45 4-6.49l.05-.12h-.13c-.89-.2-2.32-.61-2.33-.61h-.08v.07s-2.1 4.22-3.9 5.65v-.96l1.47-4.32v-.11l-3.14-.6v.1s-.69 2.57-.92 3.1a18.22 18.22 0 0 1 -2.88 5.26v.06l1.64 2.76.09-.15c.2-.34.69-1.15 1-1.55v9.82h2.79v-12.9l1.31 1.88.62-.44v2.31h1.99v.3a8.29 8.29 0 0 1 -3.43 5.94l-.1.07 2.33 2.18.08-.08a13.46 13.46 0 0 0 2.52-3.33 15.15 15.15 0 0 0 1.46-5.08h1.95v3.71a3.69 3.69 0 0 1 -.54 2.46.29.29 0 0 1 -.22.08h-2l1.08 2.91h.51a7.66 7.66 0 0 0 1.38-.08 3.12 3.12 0 0 0 2.2-2.18 14.62 14.62 0 0 0 .3-3.21v-6.12l1 1 .05-.14a14.25 14.25 0 0 1 1.38-2.52l.05-.13-.08-.06a18.25 18.25 0 0 1 -1.92-1.67z"/><path d="m354.66 277.4v-.12l-3-.29v.1a12.44 12.44 0 0 1 -.34 1.93h-6.48v2.56h5.62a14.31 14.31 0 0 1 -5.57 6.22l-.11.06.08.09c.06.08 1.47 1.84 1.67 2h.06.07a33.31 33.31 0 0 0 2.89-2.21v8.55h2.7v-4.59h6.09v1.6c-.08.14-.16.22-.25.22h-2.3l1.08 2.71v.06h.71c2-.13 3.38-.42 3.38-1.67v-12.24h-7.92l.4-.8h9.87v-2.58h-9.09c.24-.9.44-1.59.44-1.6zm-2.38 8.87v-1.45h6.09v1.45zm0 3.46v-1.46h6.09v1.46z"/><path d="m385.42 293.15a10.59 10.59 0 0 1 -3.72-2.29 31 31 0 0 1 3.62-2.67l.18-.08-.17-.11c-.08 0-1.88-1.14-2.5-1.37h-.06l-2.11 2a3.27 3.27 0 0 1 -.38-1.35v-1h3.65v-9.28h-9.47v1.09h-.07s-1.56-.63-2-.85h-5.63v19.18h2.66v-6.23l1.05 2.53h.1c2.11-.53 3.31-1.61 3.56-3.2a6 6 0 0 0 0-2.09 8.35 8.35 0 0 0 -1.72-3.33c.18-.51 1.47-4.17 2-5.85v14.46l-2.22.37.6 3.37 6.68-1.94h.09v-1.81l.64.73c1.45 1.47 2.26 2.36 3.53 2.91h.09l1.67-3.19zm-14.42-4.26a2.58 2.58 0 0 1 -1.59.61v-9.56h.19 1.41a23.33 23.33 0 0 1 -1.16 4v.05c.51.78 1.81 2.94 1.81 3.58a1.63 1.63 0 0 1 -.66 1.32zm6-9.44h4v1h-4zm2 12.42-2 .34v-6h.13v-.07h.66a11.24 11.24 0 0 0 .37 2.72 25.88 25.88 0 0 0 .94 2.84h-.15s.12.13.14.17zm-2-8.13v-1h.13 4v1h-.06z"/><path d="m378.25 288.87a11.24 11.24 0 0 1 -.37-2.72h-.66v.07h.54a12.15 12.15 0 0 0 .37 2.77 28.86 28.86 0 0 0 .91 2.74h.15a25.88 25.88 0 0 1 -.94-2.86z"/><path d="m369.87 284v-.05a23.33 23.33 0 0 0 1.16-4h-1.41 1.24a25.18 25.18 0 0 1 -1.17 4.08v.05c.5.79 1.82 3 1.82 3.62a1.67 1.67 0 0 1 -.5 1.16 1.63 1.63 0 0 0 .67-1.28c0-.64-1.3-2.8-1.81-3.58z"/><path d="m369.64 279.94h-.19v9.56a2.58 2.58 0 0 0 1.59-.61 2.7 2.7 0 0 1 -1.4.46z"/><path d="m377.22 286.22h-.13v6l2-.34s0-.09 0-.14l-1.82.31z"/><path d="m401 288.37v-.07l-2.6 1 1.05 2-4.41.94 3.31-7.39-3.34-1-3.24 8.75-2.66.38.89 3.02 10.6-2.23 1.2 2.58 3.45-1.29v-.09c-1.06-2.87-4.25-6.57-4.25-6.6z"/><path d="m404.05 283.11a9.05 9.05 0 0 1 -3.85-6v-.12l-3 1h-.1v.1s.7 2.11 1 2.8c1.23 3 6 6 6.18 6.13l.08.05 2.35-2.66-.15-.06a9.49 9.49 0 0 1 -2.51-1.24z"/><path d="m389.64 287.05h.06c2.64-1.77 5.67-8.34 5.8-8.62l.05-.11-3.37-1.06v.09a21.89 21.89 0 0 1 -1.84 3.64 13.27 13.27 0 0 1 -3.29 3.5l-.13.07 2.69 2.48z"/><path d="m410.23 284.93v7.9h2.9v-.63h4.87v.63h2.93v-7.9zm7.81 4.51h-4.91v-1.78h4.87z"/><path d="m408.38 277.17v2.73h14.86v12.17c0 .54-.07 1.47-.52 1.47a18 18 0 0 1 -3.66-.3l.66 2.86h.15a24.2 24.2 0 0 0 3.25.25c2 0 3-1.13 3-3.28v-15.9z"/><path d="m409.93 281.03h11.2v2.75h-11.2z"/><path d="m233.66 245.87h10.38v2.25h-10.38z"/><path d="m242.85 252.94v-4.17h-7.93v4.17zm-5.66-2.31h3.39v.47h-3.39z"/><path d="m251.41 258.33-2 .3.3 1.95-.53.08v-3.26h.43v.37h2.39v-8.83h-2.79v-3.31h-2.33v3.3h-2.75v8.86h2.21v-.47h.57v3.58l-3.27.4v-7.89h-9.65v11.59h2.24v-7.2l1 .8c1.58-.76 1.59-3 1.59-3h.18v2a.76.76 0 0 0 .84.76h1.62v3.59c0 .48-1.35.3-1.35.3l-.27-.07v-1.46h1.36v-1.93h-4.83v1.91a.1.1 0 0 0 .1.1h1.09a.1.1 0 0 1 .1.1v3.28h2.27v-1.65a4.36 4.36 0 0 1 .75 2 .49.49 0 0 0 .52.46c2.46 0 2.47-1.11 2.55-1.35v-2l.83 2.34 5.39-1.07.41 2.12 2.27-.26zm-2.25-7h.47v3.75h-.47zm-2.33 3.75h-.46v-3.75h.46zm-10.64 1.78v-1.3h.72s.02 1.06-.72 1.28zm5.28-.41h-.6v-.89h.6z"/><path d="m243.72 263.62a1 1 0 0 1 -.25.6l-.24-.15.29-.53z"/><path d="m241.11 265a.46.46 0 0 1 -.35-.18"/><path d="m205.76 50.11h4.3v-12.49h3.08v16.91h-3.08v-1.39l-11.82-.03v1.42h-3.2v-17.06h3.17v12.64l4.35-.03v-15.34h3.2z"/><path d="m177.01 51.12-.01-5.52h6.58v-3.01l-6.58-.03v-4.35h7.05v-3.12h-17.27v3.12h6.97v4.35h-6.52v3.04h6.52v5.52h-7.94v3.06h19.1v-3.06z"/><path d="m179.94 46.56a1.92 1.92 0 0 0 -1.31 1.59 1.89 1.89 0 0 0 3.71.69 2 2 0 0 0 -.24-1.51 1.89 1.89 0 0 0 -2.16-.77z"/><path d="m237.82 48-2.31-.84h2.94v-2.53h-5.75v-1.24h2.79v-1.62a21.42 21.42 0 0 0 4.51 2.74l1.91-2.95a15.37 15.37 0 0 1 -8.74-6.56c.09-.17.13-.26.13-.26l-3.76-.37a14.44 14.44 0 0 1 -8 7.79l1.37 3a32.07 32.07 0 0 0 4-2.85v1h2.79v1.24h-5.7v2.65h3.24l-2.33.88 1.09 3.47h-3.58v2.64h17.58v-2.64h-3.87c.26-.47 1.6-3.33 1.69-3.55zm-9.15-7.23a25.6 25.6 0 0 0 2.76-3.09 20.94 20.94 0 0 0 2.91 3.09zm-2.29 10.74 2.65-1-1.59-3.35h2.3v4.35zm6.32-4.35h2.3l-1.56 3.33 2.56 1h-3.3z"/><path d="m259.04 39.81h6.66v1.85h2.57v-1.85-.63-1.7h-4.63v-2.68h-2.54v2.68h-4.62v1.7.63 1.85h2.56z"/><path d="m263.64 48.46h3.09v-1.83c.2.16.4.32.61.47l1.91-1.69a10.41 10.41 0 0 1 -4.16-4.6l-2.23 1a16.66 16.66 0 0 0 3.14 4.19h-7.28a16.56 16.56 0 0 0 3.16-4.2l-2.24-1a10.34 10.34 0 0 1 -3.47 4.2v-1.9l-1.81.4v-2h1.69v-2.6h-1.69v-4.1h-2.62v4.05h-2.5v2.6h2.5v2.63l-2.86.64.48 2.85 2.38-.65v4.36a.51.51 0 0 1 -.51.51h-1.34l1.11 2.73h.81a2.59 2.59 0 0 0 2.58-2.59v-5.73l1.55-.43 1.49 1.33.62-.47v1.83h3.08v3.31h-5v2.45h12.47v-2.45h-5z"/><path d="m205.77 81.4h4.31v-12.54h3.09v16.7h-3.09v-1.13l-11.86-.03-.03 1.07h-3.18v-16.75h3.18v12.68l4.37-.03v-15.39h3.21z"/><path d="m177.04 82.42v-5.54h6.6v-3.02l-6.6-.03v-4.36h7.07v-3.13h-17.32v3.13h6.98v4.36h-6.54v3.05h6.54v5.54h-7.96v3.06h19.16v-3.06z"/><path d="m180 77.84a1.92 1.92 0 0 0 -1.31 1.6 1.9 1.9 0 0 0 3.72.69 2.07 2.07 0 0 0 -.23-1.52 1.92 1.92 0 0 0 -2.18-.77z"/><path d="m227.86 78.34h3.08v1.97h-3.08z" transform="matrix(.21303039 -.97704557 .97704557 .21303039 103.04 286.57)"/><path d="m238.91 80.59 2.69-2s-1.76-1.8-1.82-1.82-1.54 1-2.16 1.42a8.79 8.79 0 0 1 -.36-2h3.27v-9.82h-9.3v15.81l-.89.17-.06-1.24-2.54.44v-4.55h2.78v-2.47h-2.78v-1h2v-1.17l.19.13 1.28-2.89a7 7 0 0 1 -3.21-3.51h-2.61a8.08 8.08 0 0 1 -3.49 4.07l1.27 2.9.54-.49v1h1.64v1h-3v2.43h3v5l-3.09.54.07 2.73 7.78-1.49v1.44l6.26-1.09-.13-2.49a9.46 9.46 0 0 0 4 3.65l1.33-2.61a12.5 12.5 0 0 1 -2.66-2.09zm-13.77-9.49a11.67 11.67 0 0 0 1.5-1.91 9.08 9.08 0 0 0 1.62 1.91zm8.81-2h3.85v1.3h-3.8zm0 12.63v-5.5h.81a10.54 10.54 0 0 0 1.24 5.13zm.05-7.73v-1.36h3.85v1.36z"/><path d="m224.68 81.12-.46-3.29-2.03.37.46 3.31z"/><path d="m250.61 79.7s4.08-3.49 5.78-7.06l-2.39-1.7s-2.34 3.91-4.73 5.55z"/><path d="m252.08 74.77h2.98v10.49h-2.98z"/><path d="m261.12 62.15h2.93v10.93h-2.93z" transform="matrix(0 -1 1 0 194.96 330.2)"/><path d="m261.03 67.53h2.89v12.76h-2.89z" transform="matrix(0 -1 1 0 188.57 336.39)"/><path d="m256.14 67.61a23 23 0 0 1 -5.32 5.11l-1.4-2.88a18.14 18.14 0 0 0 4.19-4c.83.59 1.66 1.21 2.53 1.77z"/><path d="m259 82.35h3.45a.42.42 0 0 0 .42-.42v-6.67h3.05v7.81a2.19 2.19 0 0 1 -2.19 2.19h-3.57z"/><path d="m199.76 260.89h4.29v-12.51h3.09v16.93h-3.09v-1.4l-11.82-.03-.01 1.43h-3.19v-17.08h3.17v12.66l4.35-.03v-15.36h3.21z"/><path d="m177.13 261.89v-5.52h6.58v-3.01l-6.58-.03v-4.35h7.05v-3.12h-17.28v3.12h6.97v4.35h-6.52v3.04h6.52v5.52h-7.95v3.06h19.12v-3.06z"/><path d="m180.07 257.33a1.88 1.88 0 0 0 -.89 3 1.89 1.89 0 0 0 3-2.22 1.89 1.89 0 0 0 -2.11-.78z"/><path d="m199.76 292.01h4.29v-12.51h3.09v16.93h-3.09v-1.39l-11.82-.03-.01 1.42h-3.19v-17.07h3.17v12.65l4.35-.03v-15.35h3.21z"/><path d="m177.13 293.02v-5.52h6.58v-3.02l-6.58-.03v-4.35h7.05v-3.12h-17.28v3.12h6.97v4.35h-6.52v3.05h6.52v5.52h-7.95v3.06h19.12v-3.06z"/><path d="m180.07 288.45a1.91 1.91 0 0 0 -1.31 1.6 1.87 1.87 0 0 0 .42 1.39 1.89 1.89 0 0 0 3.28-.7 2 2 0 0 0 -.23-1.52 1.89 1.89 0 0 0 -2.16-.77z"/><path d="m227 258.84-2.3-.84h2.94v-2.57h-5.76v-1.24h2.79v-1.62a22 22 0 0 0 4.53 2.75l1.9-3a15.39 15.39 0 0 1 -8.75-6.56l.12-.27-3.76-.36a14.44 14.44 0 0 1 -8 7.79l1.36 3a32.22 32.22 0 0 0 4.06-2.85v1.05h2.79v1.24h-5.75v2.64h3.24l-2.33.88 1.09 3.48h-3.59v2.64h17.64v-2.63h-3.86c.19-.48 1.53-3.37 1.64-3.53zm-9.15-7.23a26.51 26.51 0 0 0 2.76-3.09 21.65 21.65 0 0 0 2.91 3.09zm-2.29 10.75 2.65-1-1.62-3.36h2.3v4.36zm6.32-4.36h2.27l-1.56 3.33 2.57 1h-3.28z"/><path d="m265.72 250.57h6.67v1.86h2.56v-1.86-.62-1.71h-4.62v-2.68h-2.55v2.68h-4.62v1.71.62 1.86h2.56z"/><path d="m270.33 259.23h3.08v-1.83l.62.47 1.91-1.69a10.41 10.41 0 0 1 -4.16-4.6l-2.24 1a16.51 16.51 0 0 0 3.16 4.21h-7.29a16.51 16.51 0 0 0 3.16-4.21l-2.23-1a10.42 10.42 0 0 1 -3.49 4.17v-1.88l-1.81.4v-2.05h1.69v-2.61h-1.73v-4.05h-2.62v4.05h-2.51v2.61h2.51v2.63l-2.87.63.49 2.86 2.38-.65v4.36a.51.51 0 0 1 -.51.51h-1.34l1.08 2.73h.81a2.59 2.59 0 0 0 2.58-2.58v-5.71l1.55-.43 1.49 1.33.62-.47v1.83h3.08v3.32h-4.95v2.42h12.45v-2.45h-4.95z"/><path d="m261.76 289.32h3.18v2.03h-3.18z" transform="matrix(.21303039 -.97704557 .97704557 .21303039 -76.41 485.81)"/><path d="m273.17 291.64 2.78-2s-1.82-1.86-1.88-1.88-1.59 1-2.23 1.47a9.38 9.38 0 0 1 -.38-2.1h3.38v-10.13h-9.61v16.33l-.92.17-.06-1.28-2.62.46v-4.71h2.87v-2.55h-2.87v-1h2.09v-1.25l.19.14 1.32-3a7.22 7.22 0 0 1 -3.38-3.63h-2.7a8.36 8.36 0 0 1 -3.61 4.21l1.32 3 .56-.5v1h1.69v1h-3.11v2.55h3.12v5.15l-3.19.55.07 2.82 8-1.53v1.49l6.47-1.13-.14-2.57a9.67 9.67 0 0 0 4.1 3.76l1.37-2.69a12.66 12.66 0 0 1 -2.63-2.15zm-14.17-9.8a12.81 12.81 0 0 0 1.54-2 10 10 0 0 0 1.68 2zm9.1-2.09h4v1.34h-4zm0 13.05v-5.68h.83a10.84 10.84 0 0 0 1.3 5.32zm0-8v-1.35h4v1.35z"/><path d="m258.47 292.19-.47-3.4-2.11.38.48 3.43z"/><path d="m279.72 290.77s4.22-3.61 6-7.3l-2.47-1.75s-2.41 4-4.88 5.73z"/><path d="m281.25 285.67h3.08v10.84h-3.08z"/><path d="m290.58 272.64h3.02v11.3h-3.02z" transform="matrix(0 -1 1 0 13.8 570.38)"/><path d="m290.49 278.2h2.98v13.18h-2.98z" transform="matrix(0 -1 1 0 7.19 576.76)"/><path d="m285.43 278.28a23.71 23.71 0 0 1 -5.49 5.28l-1.45-3a18.71 18.71 0 0 0 4.33-4.11c.86.6 1.72 1.24 2.61 1.83z"/><path d="m288.41 293.5h3.59a.43.43 0 0 0 .43-.43v-6.89h3.15v8.07a2.26 2.26 0 0 1 -2.26 2.26h-3.7z"/><path d="m94.22 65.65c7.27 18.69 2.12 40.74-12.61 53.91a49.16 49.16 0 0 1 -48.44 10.21 48.9 48.9 0 0 1 -7.67-89.23c15.14-8.78 37.84-7.35 51.67 3.27 7.57 5.19 13.62 13.37 17.05 21.84z"/></g><path d="m47.27 58.07c1.64-.5 3.77-1.8 5.42-.5 1.16 1.79 4.36 2.39 3.49 4.88a33.13 33.13 0 0 0 5.62 6.08c.48.1.67-.2.87-.5l-.58-.3c.68-.59 2.32.4 3.39-.2a2.6 2.6 0 0 1 2.13.9 15.4 15.4 0 0 0 1.26 2.57l.39-.2a20 20 0 0 0 1.25 2.49c3.49 1.2 5.14 5.48 8.24 7.28a47.17 47.17 0 0 0 12.25 6.73c-.2.6.48.6.77.8v.1a2.75 2.75 0 0 0 -1.94-.4c.59.9 2 .5 2.33 1.5h-1.59c0 .3.39.3.58.4-.77-.31-1.55.29-2-.7a63.3 63.3 0 0 1 -8.92-4.42l-.09.09c2.23 2.2 5.32 3 7.85 4.52.87.51 2.12.8 2.61 1.7-.29.1-.78.1-.87.5l-.73-.39c-.19.1 0 .3-.1.4l.49.4c-3.3-1.4-7-2.73-10-5.22-1.46-1-2.91-1.8-4.36-2.89-.19 0-.48-.1-.58.2 1.65 1.29 3.39 2.09 5 3.29a27.49 27.49 0 0 1 -9-6.68c-1.06-1.1-2.61-3.39-4.45-3-.68.4-1.74.3-2.52.7-.58 0-1.07-.7-1.64-.2-.49 1.09-2 .2-2.33 1.39-1 .4-2.71.1-3 1.3l.09.49c-1.93.9-4.55.6-5.9 2.5-.39.39-1.17-.1-1.55.39.09-.19-.1-.39-.3-.39-.48-.2-.77.29-1.16.39-.29-.49.39-.59.29-.89-.87-.4-1.26.79-1.94 1.19.1-.79 1-.89 1.26-1.59-.48-.3-.87.2-1.26.3.2-.1.58-.8 0-.8.49-.8 1.55-.5 1.84-1.39h-.77c.77-.6 1.65-1.3 2.32-1.9-.28 0-.87-.79-1.35-.1 0-.1.19-.2.09-.3-.38-.39-.87.3-1.35.3 0 .1.1-.3-.2-.39h-.29c.29-.2.68-.7 1.07-1l-.19-.2a46.2 46.2 0 0 1 4.36-2.59l.28-.3a1 1 0 0 0 -1.54 0c1.26-.1.09-1.5 1.35-1.69a4 4 0 0 1 1.94-2.4c-1.26-1.19-1.75-3.39-3.2-4.08-.09-.9-1 0-1.06-.9-1.75-.1-3.78.8-4.94-.8a7.32 7.32 0 0 0 -2.91-.1 9.81 9.81 0 0 0 -1.49 2.49 9.27 9.27 0 0 0 -1.74 2.5c-.87 1.19-1.94 2.69-3.49 3.18v-.19c-1.06 1.49-3.39.89-4.75 2.49l-.09-.4a.81.81 0 0 0 -1 .6v.2c-.68-.2-1.17.59-1.45 1-1.65 1.79-4.36 1.79-6.11 3.29-.19.1.1 0 0-.1-3.2.7-4.75 3.19-6.88 5.58a13.47 13.47 0 0 1 -2.32 2.39c.19.8-1 1.1-1.36 1.5.39-.7 1.26-1.3 1.36-2.09-.78.39-1 1.29-1.84 1.69-.49-.4.48-.7.19-1.1l-1.16.9 1.07-1.49c-.56.12-1.14 1.12-1.82 1.18-.19.3-.48.3-.87.3v-.1a20.94 20.94 0 0 0 1.65-1.6c-.68-.39-1.46.51-1.94.41-.19-.11-.09-.6-.58-.41a2.83 2.83 0 0 0 1.13-1.29c-.39-.1-.87.2-1.26.4.1-.5 1.07-.8.78-1.6-1.26-.2-1.07 1.1-2.13 1.4 1.06-1.5 2.61-2.39 3.68-4l-.1-.1c2-2.29 4.56-3.68 7.07-5.18 2-1.19 4.75-1.79 6.2-3.78a16.29 16.29 0 0 0 1.55-2.3c.29.1.39-.2.49-.39a8.9 8.9 0 0 1 4.75-1.5c.77-.8 2.22-.3 2.8-1.4 2-2.49 2.81-5.57 4.56-8.07.58-.79 1.25-2.09 2.42-2.39a46.69 46.69 0 0 1 8.46 1.61z" fill="#fff"/><path d="m48.76 75.5c-.49.41-1.47.72-1.57 1.33-.88-.11-1.47.81-2.15.81.1-.81 1.27-.31 1.37-1.12l.78-.61.1.31c.29-.31 1.27-.11 1-.92z" fill="#fff"/><path d="m45.63 76.11a1.53 1.53 0 0 1 -1.08.82c.19-.51.59-.51 1.08-.82z" fill="#fff"/><path d="m47.09 78.56c0 .2-.19.2-.29.41h-.29c-.1-.31.19-.41.39-.51s.1.1.19.1z" fill="#fff"/><path d="m2.59 0h.84v11.26h-.84z" fill="#363736"/><path d="m168.13 0h.84v11.26h-.84z" fill="#363736"/><path d="m2.59 205.21h.84v11.26h-.84z" fill="#363736"/><path d="m168.13 205.21h.84v11.26h-.84z" fill="#363736"/></svg>