<svg viewBox="0 0 183.46 337.03" xmlns="http://www.w3.org/2000/svg"><path d="m26.77 28.88h1.42v-4.14h1.02v5.6h-1.02v-.46l-3.91-.01v.47h-1.06v-5.65h1.05v4.19l1.44-.01v-5.08h1.06z" fill="#00a19b"/><path d="m9.8 25.13a5 5 0 1 1 -9.56 2.06 4.92 4.92 0 0 1 2.58-4.61 5 5 0 0 1 5.25.33 5 5 0 0 1 1.73 2.22z" fill="#00a19b"/><path d="m9.43 27.53h.16c0-.1-.18-.06-.24-.15a.29.29 0 0 1 .2 0s-.1 0-.08-.08a4.83 4.83 0 0 1 -1.24-.68c-.31-.19-.48-.62-.84-.74 0-.08-.07-.16-.12-.25a2.19 2.19 0 0 1 -.13-.27.27.27 0 0 0 -.22-.09c-.11.06-.27 0-.34 0h.06s0 .06-.09.05a3.07 3.07 0 0 1 -.57-.62c.09-.25-.24-.31-.36-.49s-.38 0-.55.05a4.73 4.73 0 0 0 -.85-.16c-.12 0-.19.16-.25.24-.18.25-.25.57-.46.82s-.21.06-.29.14a.93.93 0 0 0 -.48.15s0 .05-.05 0a1.94 1.94 0 0 1 -.15.24c-.15.2-.43.26-.63.38a2.49 2.49 0 0 0 -.72.53c-.11.16-.27.25-.38.4.08.12.06 0 .19 0s-.07.11-.08.16.09-.05.13 0-.07.09-.12.13 0 0 .06 0 .13-.08.2 0l-.19.14s.07 0 .09 0 .13-.12.19-.13l-.11.16.12-.1c0 .05-.07.08 0 .12s.1-.14.18-.18-.1.15-.14.22.16-.07.14-.16a1.36 1.36 0 0 0 .24-.24c.21-.24.37-.49.7-.56.17-.16.45-.16.62-.34s.08-.12.14-.1a.08.08 0 0 1 .1-.06c.14-.16.38-.1.48-.25a.82.82 0 0 0 .36-.33.94.94 0 0 1 .18-.25.92.92 0 0 1 .16-.23.76.76 0 0 1 .3 0c.12.16.32.07.5.08 0 .09.1 0 .11.09s.19.29.32.41a.44.44 0 0 0 -.19.25c-.13 0 0 .16-.14.17a.1.1 0 0 1 .16 0c-.15.07-.3.17-.45.26l-.1.1h.04s0 0 0 0 .1-.07.14 0 0 0 0 0 .11 0 .14 0a2.31 2.31 0 0 1 -.24.2h.06c0 .09-.13.06-.18.14s0 .07 0 .08.07-.06.12 0-.11.08-.12.16.1-.16.19-.12-.06 0 0 .09.07-.06.12 0 0 0 0 0 .12 0 .16 0c.14-.19.4-.16.6-.25v-.05c0-.12.2-.09.3-.13s.19 0 .24-.15.11 0 .17 0 .18 0 .25-.07.35.2.45.31a2.79 2.79 0 0 0 .92.67c-.17-.12-.34-.2-.51-.33h.06s.29.19.44.29a3.63 3.63 0 0 0 1 .53h-.05s0 0 0 0h.07s.06 0 .09 0-.18-.12-.26-.17a3.77 3.77 0 0 1 -.8-.46 6.3 6.3 0 0 0 .9.45c.05.1.13 0 .21.07s-.04-.06-.04-.09z" fill="#fff"/><path d="m5.19 26.13h-.05c0 .08-.07.06-.1.09l-.04.01c0 .09-.13 0-.14.12s.13-.1.22-.09.06-.09.11-.13z" fill="#fff"/><path d="m4.87 26.19s-.09 0-.11.09a.2.2 0 0 0 .11-.09z" fill="#fff"/><path d="m37.5 28.17-.77-.28h1v-.89h-1.94v-.42h.93v-.54a7 7 0 0 0 1.51.92l.63-1a5.13 5.13 0 0 1 -2.92-2.19v-.09l-1.25-.12a4.84 4.84 0 0 1 -2.68 2.61l.46 1a12.31 12.31 0 0 0 1.36-.95v.34h.93v.44h-1.88v.86h1.12l-.78.3.36 1.16h-1.23v.88h5.89v-.88h-1.24zm-3.06-2.42a9.65 9.65 0 0 0 .92-1 7.18 7.18 0 0 0 1 1zm-.77 3.6.89-.34-.56-1.12h.77v1.46zm2.12-1.46h.75l-.54 1.11.86.34h-1.07z" fill="#00a19b"/><path d="m45.04 25.46h2.21v.61h.85v-.61-.21-.56h-1.53v-.89h-.85v.89h-1.53v.56.21.61h.85z" fill="#00a19b"/><path d="m46.57 28.32h1v-.6l.2.16.63-.57a3.46 3.46 0 0 1 -1.4-1.52l-.74.33a5.48 5.48 0 0 0 1.05 1.39h-2.37a5.29 5.29 0 0 0 1-1.39l-.74-.33a3.42 3.42 0 0 1 -1.15 1.38v-.62l-.6.13v-.68h.56v-.86h-.56v-1.34h-.87v1.34h-.83v.86h.83v.87l-.95.21.16 1 .79-.22v1.45a.17.17 0 0 1 -.17.17h-.41l.36.9h.26a.85.85 0 0 0 .86-.85v-1.9l.51-.14.5.44.2-.16v.6h1v1.1h-1.61v.81h4.13v-.81h-1.64z" fill="#00a19b"/><path d="m17.3 29.21v-1.82h2.17v-1l-2.17-.01v-1.44h2.33v-1.03h-5.72v1.03h2.31v1.44h-2.16v1.01h2.16v1.82h-2.63v1.02h6.32v-1.02z" fill="#00a19b"/><path d="m18.27 27.7a.64.64 0 0 0 -.43.53.65.65 0 0 0 .13.46.65.65 0 0 0 .68.2.63.63 0 0 0 .41-.43.71.71 0 0 0 -.06-.46.65.65 0 0 0 -.73-.3z" fill="#00a19b"/><g fill="#231815"><path d="m1.33 83.74v-1.57q0-.09.12-.09c.43 0 .64 0 .64.09s0 .12-.08.13-.09.07-.09.17v1.27h.94s.06 0 .06.1v.26c0 .09 0 .13-.06.13h-.86a7.92 7.92 0 0 0 .33.83 4.16 4.16 0 0 0 .67.94s.06 0 .06.09 0 0-.06.06a1.2 1.2 0 0 1 -.22.24s-.07.06-.09.06a.18.18 0 0 1 -.1-.06 4.56 4.56 0 0 1 -.59-.9 1 1 0 0 0 0-.1v4.29c0 .07 0 .1-.13.1h-.42c-.08 0-.12 0-.12-.1v-3.85c-.1.24-.19.47-.29.68a6.67 6.67 0 0 1 -.51.91c-.06 0-.11 0-.13 0l-.34-.15s-.06 0-.06 0a7.78 7.78 0 0 0 .65-1.06 6.38 6.38 0 0 0 .38-1c.07-.2.15-.51.25-.94h-1.08c-.06 0-.07 0-.07-.13v-.26c0-.07 0-.1.07-.1zm6 1.92c.09 0 .14 0 .14.1v2.69c0 .07-.05.1-.14.1h-2.77l.42.31a.33.33 0 0 1 .02.14s0 0 0 0a.46.46 0 0 0 -.16 0c-.19.14-.37.27-.57.39a6.05 6.05 0 0 1 -.93.41.14.14 0 0 1 -.13-.07l-.3-.24a.07.07 0 0 1 -.06-.06s0 0 0 0a2 2 0 0 0 .43-.15 3.47 3.47 0 0 0 .65-.28 4.28 4.28 0 0 0 .52-.4h-1c-.09 0-.14 0-.14-.1v-2.74c0-.07 0-.1.14-.1zm.43-1s.07 0 .07.11v.23c0 .09 0 .14-.07.14h-4.76c-.05 0-.07 0-.07-.14v-.26c0-.07 0-.11.07-.11zm-3.65-1.85v-.6c0-.07 0-.1.14-.1.42 0 .63 0 .63.1a.12.12 0 0 1 -.09.13c-.06 0-.08.06-.08.17v.3h1.29v-.6c0-.07 0-.1.13-.1.43 0 .64 0 .64.1s0 .12-.08.13-.09.06-.09.17v.3h1a.08.08 0 0 1 .07.09v.27c0 .09 0 .13-.07.13h-1v.91c0 .06-.05.09-.14.09h-2.21c-.09 0-.14 0-.14-.09v-.91h-1s-.07 0-.07-.13v-.27c0-.05 0-.09.07-.09zm1 4v-.7h-1.23v.7zm0 .5h-1.23v.7h1.23zm.89-3.44v-.57h-1.29v.57zm-.29 3h1.16v-.7h-1.19zm1.19.5h-1.22v.7h1.19zm.32 1.63a8.17 8.17 0 0 1 .71.44.22.22 0 0 0 0 .07l-.26.36a7.72 7.72 0 0 0 -1-.57 4.16 4.16 0 0 0 -.67-.3 1.79 1.79 0 0 1 .26-.38s0-.06.08-.06c.33.18.66.32.88.44z"/><path d="m12.52 83.77c0-.46 0-.94 0-1.46 0-.11 0-.17.1-.17h.56c.09 0 .14 0 .14.11s0 .12-.1.12a.22.22 0 0 0 -.1.21v1.16h3c.07 0 .1 0 .1.13v.27c0 .09 0 .13-.1.13h-3c0 .21 0 .41.06.61a7.9 7.9 0 0 0 .45 1.9 5.66 5.66 0 0 0 .66 1.35 3.11 3.11 0 0 0 .61.75.87.87 0 0 0 .28.11s.09 0 .15-.13a6.75 6.75 0 0 0 .42-1c0-.1.05-.15.09-.15s.05 0 .07 0a.89.89 0 0 0 .23.28.32.32 0 0 1 .06.17 11.62 11.62 0 0 1 -.58 1.28c-.15.19-.29.28-.41.28a1.43 1.43 0 0 1 -.8-.47 4.93 4.93 0 0 1 -.87-1.17 7.5 7.5 0 0 1 -.66-1.75 10.1 10.1 0 0 1 -.35-2h-3.83c-.07 0-.11 0-.11-.13v-.3c0-.09 0-.13.11-.13zm-.44 1.83c.07 0 .1 0 .1.13v.27c0 .08 0 .13-.1.13h-1.23v2.27c.5-.12 1-.23 1.41-.36a.08.08 0 0 1 .06 0s.06 0 .06.07a1.65 1.65 0 0 1 0 .46c-1 .27-2.06.51-3.09.73-.09.15-.15.24-.2.24s-.16-.24-.33-.7c.42-.06.93-.15 1.53-.29v-2.4h-1.29c-.07 0-.09 0-.09-.13v-.27c0-.09 0-.13.09-.13zm3.08-2.87c.25.17.46.34.64.47v.08l-.29.39a9 9 0 0 0 -.85-.64 5.37 5.37 0 0 0 -.61-.32 1.47 1.47 0 0 1 .26-.37s.05-.06.07-.06c.29.17.56.32.78.45z"/><path d="m17.79 89v-5.58h.6v5.58z"/><path d="m23 88.56a1.89 1.89 0 0 1 -1.35.49 1.92 1.92 0 0 1 -1.35-.49 1.8 1.8 0 0 1 -.58-1.41 2 2 0 0 1 .53-1.42 1.85 1.85 0 0 1 1.4-.57 1.82 1.82 0 0 1 1.4.57 2 2 0 0 1 .53 1.42 1.8 1.8 0 0 1 -.58 1.41zm-.37-2.44a1.28 1.28 0 0 0 -1-.41 1.25 1.25 0 0 0 -1 .41 1.46 1.46 0 0 0 -.37 1 1.31 1.31 0 0 0 .39 1 1.43 1.43 0 0 0 1.91 0 1.27 1.27 0 0 0 .39-1 1.51 1.51 0 0 0 -.29-1z"/><path d="m27.1 89.65a1.6 1.6 0 0 1 -1.21.48 1.64 1.64 0 0 1 -1.58-.83l.54-.26a1.09 1.09 0 0 0 1 .54 1 1 0 0 0 .78-.32 1.18 1.18 0 0 0 .3-.87v-.45a1.35 1.35 0 0 1 -1.15.63 1.67 1.67 0 0 1 -1.7-1.7 1.68 1.68 0 0 1 .48-1.21 1.63 1.63 0 0 1 2.37 0v-.47h.59v3.18a1.77 1.77 0 0 1 -.42 1.28zm-.45-3.6a1.11 1.11 0 0 0 -.83-.35 1.09 1.09 0 0 0 -.82.3 1.19 1.19 0 0 0 -.31.83 1.11 1.11 0 0 0 .31.81 1 1 0 0 0 .8.34 1.11 1.11 0 0 0 .82-.34 1.17 1.17 0 0 0 .33-.84 1.14 1.14 0 0 0 -.3-.75z"/><path d="m31.43 88.56a2.1 2.1 0 0 1 -2.7 0 1.8 1.8 0 0 1 -.58-1.41 2 2 0 0 1 .53-1.42 2 2 0 0 1 2.8 0 2 2 0 0 1 .52 1.42 1.8 1.8 0 0 1 -.57 1.41zm-.37-2.44a1.3 1.3 0 0 0 -1-.41 1.27 1.27 0 0 0 -1 .41 1.5 1.5 0 0 0 -.36 1 1.31 1.31 0 0 0 .39 1 1.43 1.43 0 0 0 1.91 0 1.27 1.27 0 0 0 .38-1 1.5 1.5 0 0 0 -.32-1z"/><path d="m32.27 90.25v-.53h4.25v.53z"/><path d="m40.53 83.67v-1.43c0-.07 0-.1.13-.1.45 0 .67 0 .67.1a.12.12 0 0 1 -.09.13c-.06 0-.08.07-.08.17v1.13h2.84c.11 0 .17 0 .17.1v3.85c0 .07-.06.1-.17.1h-.33c-.08 0-.13 0-.13-.1v-.62h-2.38v2.76c0 .06-.06.1-.16.1h-.34c-.09 0-.13 0-.13-.1v-2.76h-2.53v.6c0 .07-.06.1-.16.1h-.33c-.1 0-.14 0-.14-.1v-3.79a.12.12 0 0 1 .14-.14zm0 2.72v-2.13h-2.53v2.13zm.63 0h2.39v-2.13h-2.39z"/><path d="m47.43 87.38v1.54h-.53v-1.54h-1.54v-.53h1.54v-1.55h.53v1.55h1.57v.53z"/><path d="m51.93 82.81v-.57c0-.07 0-.1.14-.1.42 0 .63 0 .63.1s0 .12-.09.13-.08.07-.08.17v.27h2.12v-.53c0-.07.05-.11.14-.11.42 0 .63 0 .63.11a.1.1 0 0 1 -.09.12s-.07.07-.07.17v.24h2c.07 0 .1 0 .1.13v.26c0 .1 0 .14-.1.14h-2v.59c0 .07 0 .11-.14.11h-.33c-.09 0-.14 0-.14-.11v-.59h-2.12v.59c0 .07 0 .11-.13.11h-.33c-.09 0-.14 0-.14-.11v-.59h-2.15c-.07 0-.11 0-.11-.14v-.26c0-.09 0-.13.11-.13zm1.3 1.82v-.73q0-.09 0-.09h.6c.09 0 .13 0 .13.07s0 .1-.07.11a.17.17 0 0 0 -.09.17v.42h2.2c.08 0 .13 0 .13.1v2h1.19c.07 0 .11 0 .11.12v.27c0 .09 0 .13-.11.13h-3.32a3.79 3.79 0 0 0 .47.63 2.79 2.79 0 0 0 .7.6 5.46 5.46 0 0 0 .79.44c.25.1.53.2.85.3l.54.11h.09a.17.17 0 0 1 -.08.13l-.27.32a.19.19 0 0 1 -.15.08 8.14 8.14 0 0 1 -1.3-.46 7.76 7.76 0 0 1 -.83-.48 4.23 4.23 0 0 1 -.73-.66 5.71 5.71 0 0 1 -.52-.71 2.07 2.07 0 0 1 -.33.56 3.42 3.42 0 0 1 -.84.8 5.88 5.88 0 0 1 -1.54.79 3.26 3.26 0 0 1 -.75.19.11.11 0 0 1 -.1-.08l-.23-.41c-.06 0-.07 0-.07 0s0 0 .06 0a6.14 6.14 0 0 0 1.24-.35 4.06 4.06 0 0 0 1-.52 2.34 2.34 0 0 0 .74-.69 1.26 1.26 0 0 0 .32-.6h-3.22c-.06 0-.1 0-.1-.13v-.27c0-.08 0-.12.1-.12h1.16v-1.9a.12.12 0 0 1 .13-.14zm-.06 2.07a3.8 3.8 0 0 0 .06-.7v-.83h-1.66v1.53zm.66-.7v.7h1.72v-1.53h-1.72z"/><path d="m4.46 250.7v-.7c0-.06 0-.09.14-.09.41 0 .63 0 .63.09s0 .13-.08.13-.08.07-.08.18v.36h3.18c.06 0 .1.05.1.13v.26c0 .1 0 .14-.1.14h-3.18v.8h2.19c.08 0 .13 0 .13.11v4.74h1.13c.06 0 .1.05.1.14v.26c0 .08 0 .13-.1.13h-7.44c-.07 0-.1-.05-.1-.13v-.25c0-.09 0-.14.1-.14h1.13v-4.72a.12.12 0 0 1 .13-.13h2.12v-.76h-3.12c-.07 0-.09 0-.09-.14v-.26c0-.08 0-.13.09-.13zm2.33 2.48v-.66h-4v.66zm0 1.2v-.66h-4v.66zm0 1.24v-.7h-4v.7zm0 1.22v-.7h-4v.7z"/><path d="m13.4 251.66c0-.46 0-.94 0-1.46 0-.11 0-.17.1-.17h.56c.09 0 .14.05.14.1s0 .12-.09.12a.22.22 0 0 0 -.11.21v1.16h3c.07 0 .1.05.1.13v.27c0 .09 0 .13-.1.13h-3c0 .21 0 .42.06.61a8.5 8.5 0 0 0 .45 1.91 5.4 5.4 0 0 0 .67 1.34 2.77 2.77 0 0 0 .61.76.92.92 0 0 0 .27.1s.09-.05.15-.13a5.85 5.85 0 0 0 .42-1c0-.09.06-.14.09-.14s.05 0 .07 0a1 1 0 0 0 .24.27.44.44 0 0 1 .06.17 13.4 13.4 0 0 1 -.59 1.28c-.15.19-.29.28-.41.28a1.46 1.46 0 0 1 -.8-.47 5.21 5.21 0 0 1 -.86-1.17 7 7 0 0 1 -.67-1.75 10.86 10.86 0 0 1 -.34-2v-.05h-3.84c-.07 0-.1 0-.1-.13v-.27c0-.08 0-.13.1-.13zm-.4 1.83c.07 0 .1 0 .1.13v.27c0 .09 0 .13-.1.13h-1.26v2.27c.49-.11 1-.23 1.4-.36a.11.11 0 0 1 .06 0 .07.07 0 0 1 .07.07 1.44 1.44 0 0 1 0 .46c-1 .27-2.05.51-3.09.73-.09.15-.14.24-.2.24s-.16-.24-.33-.7c.43-.06.94-.15 1.53-.29v-2.44h-1.34c-.07 0-.09 0-.09-.13v-.27c0-.09 0-.13.09-.13zm3.09-2.86.63.46a.12.12 0 0 1 0 .08l-.29.39a9 9 0 0 0 -.85-.64 4.64 4.64 0 0 0 -.61-.32 1.89 1.89 0 0 1 .26-.37.15.15 0 0 1 .07-.06c.25.17.53.32.75.46z"/><path d="m18.67 256.88v-5.57h.6v5.57z"/><path d="m23.92 256.45a1.92 1.92 0 0 1 -1.35.49 1.89 1.89 0 0 1 -1.35-.49 1.76 1.76 0 0 1 -.58-1.4 2 2 0 0 1 .52-1.43 2 2 0 0 1 2.81 0 2 2 0 0 1 .53 1.43 1.82 1.82 0 0 1 -.58 1.4zm-.38-2.45a1.36 1.36 0 0 0 -1.95 0 1.47 1.47 0 0 0 -.37 1 1.29 1.29 0 0 0 .39 1 1.45 1.45 0 0 0 1.92 0 1.28 1.28 0 0 0 .38-1 1.52 1.52 0 0 0 -.37-1z"/><path d="m28 257.54a1.59 1.59 0 0 1 -1.21.48 1.65 1.65 0 0 1 -1.58-.83l.54-.26a1.09 1.09 0 0 0 1 .54 1.05 1.05 0 0 0 .79-.32 1.22 1.22 0 0 0 .29-.87v-.44a1.35 1.35 0 0 1 -1.14.63 1.62 1.62 0 0 1 -1.22-.5 1.64 1.64 0 0 1 -.48-1.2 1.68 1.68 0 0 1 .47-1.22 1.66 1.66 0 0 1 1.23-.5 1.62 1.62 0 0 1 1.14.52v-.47h.59v3.18a1.72 1.72 0 0 1 -.42 1.26zm-.45-3.6a1.09 1.09 0 0 0 -.82-.35 1.06 1.06 0 0 0 -.8.34 1.16 1.16 0 0 0 -.32.84 1.07 1.07 0 0 0 .32.8 1 1 0 0 0 .8.34 1.1 1.1 0 0 0 .81-.34 1.17 1.17 0 0 0 .33-.84 1.14 1.14 0 0 0 -.34-.79z"/><path d="m32.32 256.45a2.12 2.12 0 0 1 -2.71 0 1.78 1.78 0 0 1 -.57-1.4 2 2 0 0 1 .52-1.43 2 2 0 0 1 2.81 0 2 2 0 0 1 .52 1.43 1.82 1.82 0 0 1 -.57 1.4zm-.38-2.45a1.28 1.28 0 0 0 -1-.41 1.25 1.25 0 0 0 -1 .41 1.47 1.47 0 0 0 -.37 1 1.37 1.37 0 0 0 2.3 1 1.25 1.25 0 0 0 .39-1 1.52 1.52 0 0 0 -.32-1z"/><path d="m33.15 258.14v-.53h4.25v.53z"/><path d="m41.41 251.56v-1.43c0-.06 0-.1.14-.1.44 0 .66 0 .66.1s0 .12-.09.13-.08.07-.08.17v1.13h2.86c.11 0 .17 0 .17.1v3.85c0 .07-.06.11-.17.11h-.34c-.08 0-.12 0-.12-.11v-.63h-2.44v2.76c0 .07-.06.1-.16.1h-.33c-.1 0-.14 0-.14-.1v-2.76h-2.52v.6c0 .07-.06.1-.16.1h-.33c-.09 0-.14 0-.14-.1v-3.78a.13.13 0 0 1 .14-.14zm0 2.72v-2.12h-2.56v2.12zm.63 0h2.4v-2.12h-2.44z"/><path d="m48.31 255.27v1.54h-.52v-1.54h-1.55v-.53h1.55v-1.55h.52v1.55h1.55v.53z"/><path d="m52.82 250.7v-.57c0-.06 0-.1.13-.1.42 0 .63 0 .63.1s0 .12-.08.13-.09.07-.09.17v.27h2.13v-.53c0-.07 0-.1.13-.1.42 0 .63 0 .63.1s0 .12-.08.12-.08.07-.08.17v.24h2c.07 0 .11.05.11.13v.26c0 .1 0 .14-.11.14h-2v.59c0 .07 0 .11-.14.11h-.33c-.09 0-.13 0-.13-.11v-.59h-2.13v.59c0 .07 0 .11-.12.11h-.29c-.09 0-.13 0-.13-.11v-.59h-2.21c-.07 0-.1 0-.1-.14v-.26c0-.08 0-.13.1-.13zm1.29 1.82v-.73q0-.09 0-.09l.61.05c.08 0 .12 0 .12.07a.11.11 0 0 1 -.07.12c-.06 0-.09.07-.09.16v.42h2.16c.09 0 .13 0 .13.1v2h1.2c.07 0 .1 0 .1.12v.26c0 .09 0 .13-.1.13h-3.28a3.41 3.41 0 0 0 .47.63 3.2 3.2 0 0 0 .7.6 5.08 5.08 0 0 0 .79.44l.86.31a5.06 5.06 0 0 1 .53.11h.09a.17.17 0 0 1 -.08.13l-.26.32a.23.23 0 0 1 -.16.08 7.56 7.56 0 0 1 -1.3-.46 5.58 5.58 0 0 1 -.82-.48 3.56 3.56 0 0 1 -.73-.65 6.75 6.75 0 0 1 -.53-.72 2.34 2.34 0 0 1 -.32.56 3.6 3.6 0 0 1 -.84.8 5.74 5.74 0 0 1 -1.54.79 3.31 3.31 0 0 1 -.76.19.09.09 0 0 1 -.09-.08c-.09-.15-.16-.29-.24-.41h-.07s0 0 .06 0a5.76 5.76 0 0 0 1.21-.3 3.82 3.82 0 0 0 1-.52 2.5 2.5 0 0 0 .75-.69 1.33 1.33 0 0 0 .31-.6h-3.2c-.07 0-.11 0-.11-.13v-.27c0-.08 0-.12.11-.12h1.13v-1.93c0-.09 0-.14.13-.14zm0 2.07a4.9 4.9 0 0 0 0-.7v-.83h-1.66v1.53zm.65-.7v.7h1.73v-1.53h-1.7z"/><path d="m2.09 162.35v-1.56c0-.06.05-.1.13-.1.43 0 .64 0 .64.1a.11.11 0 0 1 -.09.12c-.06 0-.08.07-.08.17v1.27h.93s.06 0 .06.1v.26c0 .09 0 .13-.06.13h-.91a7.92 7.92 0 0 0 .33.83 4.6 4.6 0 0 0 .68 1s.06 0 .06.09a.15.15 0 0 1 -.06.07 1.15 1.15 0 0 1 -.22.23c0 .05-.06.06-.08.06s-.06 0-.1-.06a4.56 4.56 0 0 1 -.59-.94.42.42 0 0 1 0-.1v4.29c0 .07 0 .1-.13.1h-.38c-.08 0-.13 0-.13-.1v-3.85a4.79 4.79 0 0 1 -.29.68 5.06 5.06 0 0 1 -.51.91.17.17 0 0 1 -.12 0l-.34-.16s-.06 0-.06 0a7.59 7.59 0 0 0 .64-1.05 7.45 7.45 0 0 0 .39-1c.06-.21.15-.52.25-.95h-1.05s-.07 0-.07-.13v-.26c0-.07 0-.1.07-.1zm6 1.92c.08 0 .13 0 .13.1v2.7c0 .06 0 .09-.13.09h-2.77l.43.31a.33.33 0 0 1 .06.12s0 0-.07 0a.4.4 0 0 0 -.16 0q-.29.21-.57.39a6.53 6.53 0 0 1 -.93.41c-.07 0-.12 0-.13-.07l-.3-.24a.07.07 0 0 1 -.06-.06s0 0 0 0a2.87 2.87 0 0 0 .44-.14 5.41 5.41 0 0 0 .64-.35 4.88 4.88 0 0 0 .52-.4h-1c-.1 0-.14 0-.14-.09v-2.7c0-.07 0-.1.14-.1zm.43-1s.07 0 .07.1v.26c0 .09 0 .14-.07.14h-4.8c-.05 0-.07-.05-.07-.14v-.26c0-.07 0-.1.07-.1zm-3.62-1.86v-.6c0-.07 0-.1.14-.1.41 0 .63 0 .63.1a.12.12 0 0 1 -.09.13c-.06 0-.08.06-.08.17v.3h1.24v-.6c0-.07 0-.1.13-.1.42 0 .64 0 .64.1a.12.12 0 0 1 -.09.13c-.06 0-.08.06-.08.17v.3h1s.07 0 .07.1v.26c0 .09 0 .14-.07.14h-1v.9c0 .06 0 .09-.14.09h-2.2c-.1 0-.14 0-.14-.09v-.9h-1s-.07 0-.07-.14v-.26c0-.06 0-.1.07-.1zm1 4.05v-.7h-1.25v.7zm0 .5h-1.25v.7h1.23zm.86-3.49v-.56h-1.28v.56zm-.3 3h1.17v-.7h-1.19zm1.19.5h-1.21v.7h1.19zm.35 1.65c.27.15.51.3.72.44v.07l-.25.36a8.5 8.5 0 0 0 -1-.57 4.16 4.16 0 0 0 -.69-.29 1.79 1.79 0 0 1 .26-.38s0-.06.07-.06c.33.16.64.3.89.43z"/><path d="m13.29 162.38c0-.46 0-.94 0-1.46 0-.11 0-.17.1-.17h.56c.08 0 .13.05.13.1s0 .12-.09.12a.22.22 0 0 0 -.1.21v1.16h3c.06 0 .1.05.1.13v.27c0 .09 0 .13-.1.13h-3a5.73 5.73 0 0 0 .06.61 7.64 7.64 0 0 0 .45 1.91 5.07 5.07 0 0 0 .66 1.34 2.89 2.89 0 0 0 .61.75.85.85 0 0 0 .27.11s.1 0 .16-.13a6.25 6.25 0 0 0 .41-1c0-.09.06-.15.1-.15s.05 0 .06.06a1 1 0 0 0 .24.27.32.32 0 0 1 .06.17 13.91 13.91 0 0 1 -.58 1.28c-.16.19-.29.28-.41.28a1.43 1.43 0 0 1 -.8-.47 4.93 4.93 0 0 1 -.87-1.17 6.7 6.7 0 0 1 -.66-1.75 10.1 10.1 0 0 1 -.35-2v-.05h-3.84c-.07 0-.1 0-.1-.13v-.27c0-.08 0-.13.1-.13zm-.45 1.83c.07 0 .11 0 .11.13v.27c0 .08 0 .13-.11.13h-1.22v2.26c.49-.11 1-.23 1.4-.36h.06a.06.06 0 0 1 .07.07 2.26 2.26 0 0 1 0 .46c-1 .27-2.06.51-3.1.73-.08.15-.14.24-.19.24s-.16-.24-.33-.7c.42-.06.93-.15 1.53-.29v-2.4h-1.33c-.07 0-.1-.05-.1-.13v-.27c0-.09 0-.13.1-.13zm3.09-2.86.64.46a.2.2 0 0 1 0 .08l-.29.39c-.28-.23-.56-.44-.85-.64a4.66 4.66 0 0 0 -.62-.32 1.72 1.72 0 0 1 .19-.32.1.1 0 0 1 .07-.06c.37.12.64.27.86.41z"/><path d="m18.56 167.6v-5.6h.59v5.57z"/><path d="m23.8 167.17a2.1 2.1 0 0 1 -2.7 0 1.79 1.79 0 0 1 -.58-1.4 2 2 0 0 1 .53-1.43 2 2 0 0 1 2.8 0 2 2 0 0 1 .53 1.43 1.82 1.82 0 0 1 -.58 1.4zm-.37-2.44a1.3 1.3 0 0 0 -1-.41 1.27 1.27 0 0 0 -1 .41 1.51 1.51 0 0 0 -.36 1 1.3 1.3 0 0 0 .39 1 1.43 1.43 0 0 0 1.91 0 1.26 1.26 0 0 0 .38-1 1.51 1.51 0 0 0 -.32-1z"/><path d="m27.86 168.26a1.57 1.57 0 0 1 -1.2.48 1.63 1.63 0 0 1 -1.58-.83l.53-.26a1.12 1.12 0 0 0 1.05.54 1 1 0 0 0 .78-.32 1.18 1.18 0 0 0 .3-.87v-.44a1.38 1.38 0 0 1 -1.15.63 1.71 1.71 0 1 1 0-3.42 1.63 1.63 0 0 1 1.15.52v-.47h.58v3.18a1.73 1.73 0 0 1 -.46 1.26zm-.44-3.6a1.13 1.13 0 0 0 -.83-.35 1.07 1.07 0 0 0 -.8.34 1.2 1.2 0 0 0 -.31.84 1.1 1.1 0 0 0 .31.8 1 1 0 0 0 .8.34 1.13 1.13 0 0 0 .82-.34 1.17 1.17 0 0 0 .33-.84 1.14 1.14 0 0 0 -.32-.79z"/><path d="m32.2 167.17a1.92 1.92 0 0 1 -1.35.49 1.89 1.89 0 0 1 -1.35-.49 1.79 1.79 0 0 1 -.58-1.4 2 2 0 0 1 .53-1.43 2 2 0 0 1 2.8 0 2 2 0 0 1 .53 1.43 1.82 1.82 0 0 1 -.58 1.4zm-.37-2.44a1.3 1.3 0 0 0 -1-.41 1.27 1.27 0 0 0 -1 .41 1.47 1.47 0 0 0 -.37 1 1.3 1.3 0 0 0 1.35 1.34 1.31 1.31 0 0 0 1-.37 1.3 1.3 0 0 0 .38-1 1.56 1.56 0 0 0 -.36-.97z"/><path d="m36.69 164.43a8.09 8.09 0 0 1 -.91 1 4.41 4.41 0 0 0 -1.28 1.66h2.57v.55h-3.39a4.21 4.21 0 0 1 .63-1.42 7.28 7.28 0 0 1 1.08-1.22 5.67 5.67 0 0 0 .84-.88 1.31 1.31 0 0 0 .26-.75.74.74 0 0 0 -.27-.59 1.31 1.31 0 0 0 -.87-.27c-.69 0-1.07.45-1.13 1.34l-.56-.22a2 2 0 0 1 .53-1.22 1.53 1.53 0 0 1 1.16-.45 2.07 2.07 0 0 1 1.26.36 1.3 1.3 0 0 1 .47 1.05 1.88 1.88 0 0 1 -.39 1.06z"/><path d="m37.71 168.86v-.53h4.29v.53z"/><path d="m46 162.28v-1.43c0-.06 0-.1.14-.1.44 0 .66 0 .66.1a.12.12 0 0 1 -.09.13c-.06 0-.08.07-.08.17v1.13h2.85c.12 0 .17 0 .17.1v3.85c0 .07 0 .1-.17.1h-.33c-.08 0-.12 0-.12-.1v-.63h-2.43v2.76c0 .07-.06.1-.16.1h-.33c-.1 0-.14 0-.14-.1v-2.76h-2.56v.6c0 .07-.06.1-.16.1h-.33c-.09 0-.14 0-.14-.1v-3.78a.13.13 0 0 1 .14-.14zm0 2.72v-2.12h-2.59v2.12zm.63 0h2.37v-2.12h-2.4z"/><path d="m52.87 166v1.54h-.53v-1.54h-1.54v-.53h1.54v-1.55h.53v1.55h1.55v.53z"/><path d="m57.38 161.42v-.57c0-.06 0-.1.13-.1.42 0 .63 0 .63.1s0 .12-.08.13-.09.07-.09.17v.27h2.13v-.53c0-.07 0-.1.13-.1.42 0 .63 0 .63.1s0 .12-.08.12-.08.07-.08.17v.24h2c.07 0 .11 0 .11.13v.26c0 .1 0 .14-.11.14h-2v.59c0 .07-.05.11-.14.11h-.33c-.09 0-.13 0-.13-.11v-.54h-2.1v.59c0 .07 0 .11-.13.11h-.33c-.09 0-.13 0-.13-.11v-.59h-2.19c-.07 0-.1 0-.1-.14v-.26c0-.09 0-.13.1-.13zm1.29 1.82v-.73q0-.09 0-.09l.61.05c.08 0 .12 0 .12.07s0 .1-.07.11a.17.17 0 0 0 -.09.17v.42h2.16c.09 0 .13 0 .13.1v2h1.2c.07 0 .1 0 .1.12v.27c0 .09 0 .13-.1.13h-3.28a3.41 3.41 0 0 0 .47.63 2.79 2.79 0 0 0 .7.6 5.08 5.08 0 0 0 .79.44l.85.31a3.45 3.45 0 0 1 .54.11h.09a.17.17 0 0 1 -.08.13l-.27.32a.19.19 0 0 1 -.15.08 7.27 7.27 0 0 1 -1.3-.46 6.64 6.64 0 0 1 -.82-.48 3.88 3.88 0 0 1 -.73-.65 6.75 6.75 0 0 1 -.53-.72 2.34 2.34 0 0 1 -.32.56 3.47 3.47 0 0 1 -.85.8 6 6 0 0 1 -1.53.79 3.43 3.43 0 0 1 -.76.19.09.09 0 0 1 -.09-.08l-.24-.41h-.07s0-.05.06-.05a6.46 6.46 0 0 0 1.21-.3 3.82 3.82 0 0 0 1-.52 2.34 2.34 0 0 0 .74-.69 1.26 1.26 0 0 0 .32-.6h-3.2c-.07 0-.11 0-.11-.13v-.27c0-.08 0-.12.11-.12h1.13v-1.93c0-.09 0-.14.12-.14zm-.05 2.07a5 5 0 0 0 .05-.7v-.83h-1.67v1.53zm.65-.7v.7h1.73v-1.53h-1.73z"/><path d="m2.21 1.66v-1.57c0-.06 0-.09.13-.09q.66 0 .66.09c0 .08 0 .12-.08.13s-.12.07-.12.17v1.27h.94s.06 0 .06.1v.24c0 .09 0 .13-.06.13h-.91a7.92 7.92 0 0 0 .33.87 4.87 4.87 0 0 0 .68 1s.06 0 .06.09a.11.11 0 0 1 -.06.06 1.2 1.2 0 0 1 -.22.24.16.16 0 0 1 -.08.06s-.06 0-.11-.06a4.54 4.54 0 0 1 -.58-.94l-.05-.1v4.25c0 .07 0 .1-.12.1h-.34c-.09 0-.13 0-.13-.1v-3.85c-.09.24-.19.47-.29.68a5.06 5.06 0 0 1 -.51.91.17.17 0 0 1 -.13 0l-.34-.19s-.06 0-.06 0a6.89 6.89 0 0 0 .65-1.06 5.47 5.47 0 0 0 .38-1c.07-.2.15-.51.26-.94h-1.09c-.08 0-.08-.04-.08-.15v-.24c0-.07 0-.1.07-.1zm6 1.92c.09 0 .14 0 .14.1v2.69c0 .07-.05.1-.14.1h-2.77l.42.31a.22.22 0 0 1 .06.12s0 0-.07 0l-.16.1a5.72 5.72 0 0 1 -.57.39 6.35 6.35 0 0 1 -.92.41.15.15 0 0 1 -.14-.07l-.3-.24a.06.06 0 0 1 0-.06s0 0 0 0a2 2 0 0 0 .43-.15 3.94 3.94 0 0 0 .65-.34c.16-.11.33-.24.52-.4h-1c-.09 0-.13 0-.13-.1v-2.76c0-.07 0-.1.13-.1zm.44-1s.07 0 .07.11v.31c0 .09 0 .14-.07.14h-4.82c-.05 0-.07 0-.07-.14v-.31c0-.07 0-.11.07-.11zm-3.65-1.85v-.6c0-.07 0-.13.13-.13.42 0 .63 0 .63.1s0 .12-.08.13-.09.06-.09.17v.3h1.27v-.57c0-.07 0-.1.13-.1.42 0 .63 0 .63.1s0 .12-.08.13-.09.06-.09.17v.3h1c.05 0 .07 0 .07.09v.27c0 .09 0 .13-.07.13h-1v.9c0 .07 0 .1-.13.1h-2.19c-.09 0-.13 0-.13-.1v-.9h-1s0-.04 0-.13v-.27s0-.09 0-.09zm1 4.05v-.7h-1.23v.7zm0 .5h-1.23v.72h1.23zm.87-3.49v-.57h-1.28v.57zm-.3 3h1.18v-.7h-1.19zm1.19.5h-1.2v.71h1.19zm.34 1.64a8.17 8.17 0 0 1 .71.44v.07c-.17.23-.25.36-.25.36a8.5 8.5 0 0 0 -1-.57 4.16 4.16 0 0 0 -.69-.29 1.53 1.53 0 0 1 .25-.38s0-.06.08-.06c.35.16.66.3.9.43z"/><path d="m13.4 1.69c0-.46 0-.94 0-1.46 0-.11 0-.17.1-.17h.56c.09 0 .14.05.14.11s0 .12-.09.12a.22.22 0 0 0 -.11.24v1.16h3c.07 0 .1 0 .1.13v.27c0 .09 0 .13-.1.13h-3l.06.61a8.41 8.41 0 0 0 .45 1.9 5.31 5.31 0 0 0 .67 1.35 2.7 2.7 0 0 0 .61.75.77.77 0 0 0 .27.11s.09-.05.15-.13a6.75 6.75 0 0 0 .42-1q0-.15.09-.15s.05 0 .07.05a.92.92 0 0 0 .24.28.44.44 0 0 1 .06.17 13.4 13.4 0 0 1 -.59 1.28c-.15.19-.29.28-.41.28a1.46 1.46 0 0 1 -.8-.47 5.21 5.21 0 0 1 -.86-1.17 7 7 0 0 1 -.67-1.75 10.86 10.86 0 0 1 -.34-2h-3.84c-.07 0-.1 0-.1-.13v-.38c0-.09 0-.13.1-.13zm-.4 1.83c.07 0 .1 0 .1.13v.27c0 .08 0 .13-.1.13h-1.26v2.26c.49-.11 1-.22 1.4-.35h.06a.07.07 0 0 1 .07.07 1.44 1.44 0 0 1 0 .46c-1 .27-2.05.51-3.09.73-.09.15-.14.24-.2.24s-.16-.24-.33-.7c.43-.06.94-.15 1.53-.29v-2.42h-1.34c-.07 0-.09 0-.09-.13v-.27c0-.09 0-.13.09-.13zm3.05-2.87.63.47s0 0 0 .08l-.29.39a9 9 0 0 0 -.89-.59 4.64 4.64 0 0 0 -.61-.32 1.89 1.89 0 0 1 .26-.37.15.15 0 0 1 .07-.11c.33.17.61.32.83.45z"/><path d="m18.67 6.91v-5.57h.6v5.57z"/><path d="m23.92 6.48a2.12 2.12 0 0 1 -2.71 0 1.79 1.79 0 0 1 -.57-1.41 2 2 0 0 1 .52-1.42 2 2 0 0 1 2.81 0 2 2 0 0 1 .53 1.42 1.83 1.83 0 0 1 -.58 1.41zm-.38-2.48a1.36 1.36 0 0 0 -1.95 0 1.46 1.46 0 0 0 -.37 1 1.35 1.35 0 1 0 2.69 0 1.51 1.51 0 0 0 -.37-1z"/><path d="m28 7.57a1.59 1.59 0 0 1 -1.21.48 1.65 1.65 0 0 1 -1.58-.83l.52-.22a1.09 1.09 0 0 0 1 .54 1.05 1.05 0 0 0 .79-.32 1.22 1.22 0 0 0 .29-.87v-.49a1.33 1.33 0 0 1 -1.14.63 1.61 1.61 0 0 1 -1.18-.49 1.65 1.65 0 0 1 -.49-1.21 1.67 1.67 0 0 1 .47-1.21 1.64 1.64 0 0 1 1.23-.5 1.62 1.62 0 0 1 1.14.52v-.47h.59v3.18a1.73 1.73 0 0 1 -.43 1.26zm-.47-3.57a1.09 1.09 0 0 0 -.82-.35 1.06 1.06 0 0 0 -.8.34 1.15 1.15 0 0 0 -.32.83 1.08 1.08 0 0 0 .32.81 1 1 0 0 0 .8.34 1.1 1.1 0 0 0 .81-.34 1.17 1.17 0 0 0 .33-.84 1.14 1.14 0 0 0 -.32-.79z"/><path d="m32.32 6.48a2.12 2.12 0 0 1 -2.71 0 1.79 1.79 0 0 1 -.61-1.41 2 2 0 0 1 .52-1.42 2 2 0 0 1 2.81 0 2.05 2.05 0 0 1 .52 1.42 1.82 1.82 0 0 1 -.53 1.41zm-.38-2.48a1.28 1.28 0 0 0 -1-.41 1.25 1.25 0 0 0 -.94.41 1.46 1.46 0 0 0 -.37 1 1.31 1.31 0 0 0 .39 1 1.43 1.43 0 0 0 1.91 0 1.27 1.27 0 0 0 .39-1 1.51 1.51 0 0 0 -.38-1z"/><path d="m33.15 8.17v-.53h4.25v.53z"/><path d="m41.41 1.59v-1.43c0-.07 0-.1.14-.1.44 0 .66 0 .66.1s0 .12-.09.13-.12.07-.12.17v1.13h2.9c.11 0 .17 0 .17.1v3.85c0 .07-.06.1-.17.1h-.34c-.08 0-.12 0-.12-.1v-.63h-2.44v2.76c0 .06-.06.1-.16.1h-.33c-.1 0-.14 0-.14-.1v-2.76h-2.52v.6c0 .07-.06.1-.16.1h-.33c-.09 0-.14 0-.14-.1v-3.78a.13.13 0 0 1 .14-.14zm0 2.72v-2.13h-2.56v2.13zm.63 0h2.4v-2.13h-2.44z"/></g><path d="m17.8 54.14h-.71v-4.48a3.43 3.43 0 0 1 -.66.49 4.92 4.92 0 0 1 -.74.36v-.68a4.16 4.16 0 0 0 1-.67 2.59 2.59 0 0 0 .62-.77h.46z" fill="#208ec5"/><path d="m19.65 49.17v-.68h3.7v.51a7.87 7.87 0 0 0 -1.08 1.54 9.23 9.23 0 0 0 -.83 2 7.45 7.45 0 0 0 -.27 1.57h-.72a6.55 6.55 0 0 1 .26-1.63 8.58 8.58 0 0 1 .73-1.85 7.73 7.73 0 0 1 1-1.49z" fill="#208ec5"/><path d="m24.11 54.14v-3.14h.47v.44a1.15 1.15 0 0 1 .42-.34 1.13 1.13 0 0 1 .56-.14 1 1 0 0 1 .56.14.82.82 0 0 1 .32.41 1.09 1.09 0 0 1 1-.55 1 1 0 0 1 .71.26 1.12 1.12 0 0 1 .25.79v2.13h-.6v-2a1.25 1.25 0 0 0 -.05-.45.41.41 0 0 0 -.18-.23.66.66 0 0 0 -.32-.08.74.74 0 0 0 -.55.22 1 1 0 0 0 -.21.69v1.81h-.49v-2a.88.88 0 0 0 -.13-.53.5.5 0 0 0 -.42-.17.73.73 0 0 0 -.41.12.64.64 0 0 0 -.28.34 2.15 2.15 0 0 0 -.08.65v1.61z" fill="#208ec5"/><path d="m29.11 54.14v-3.14h.47v.44a1.15 1.15 0 0 1 .42-.34 1.12 1.12 0 0 1 .55-.14 1.09 1.09 0 0 1 .57.14.76.76 0 0 1 .31.41 1.12 1.12 0 0 1 1-.55 1 1 0 0 1 .72.26 1.12 1.12 0 0 1 .25.79v2.13h-.6v-2a1.54 1.54 0 0 0 0-.45.48.48 0 0 0 -.19-.23.62.62 0 0 0 -.31-.08.74.74 0 0 0 -.55.22 1 1 0 0 0 -.21.69v1.81h-.54v-2a.88.88 0 0 0 -.13-.53.51.51 0 0 0 -.42-.17.73.73 0 0 0 -.41.12.64.64 0 0 0 -.28.34 2.15 2.15 0 0 0 -.08.65v1.61z" fill="#208ec5"/><path d="m48.4 43.18h-48.27v-5.58h.21v5.38h47.85v-5.38h.21z" fill="#00b2e1"/><path d="m82.52 54.14h-.71v-4.48a3.77 3.77 0 0 1 -.66.49 5.43 5.43 0 0 1 -.74.36v-.68a4.35 4.35 0 0 0 1-.67 2.59 2.59 0 0 0 .62-.77h.46z" fill="#208ec5"/><path d="m84.36 49.17v-.68h3.71v.51a7.47 7.47 0 0 0 -1.07 1.58 9.23 9.23 0 0 0 -.83 2 7.45 7.45 0 0 0 -.27 1.57h-.73a7.13 7.13 0 0 1 .27-1.63 8.58 8.58 0 0 1 .73-1.85 7.3 7.3 0 0 1 1-1.49z" fill="#208ec5"/><path d="m88.83 54.14v-3.14h.47v.44a1.15 1.15 0 0 1 .39-.37 1.12 1.12 0 0 1 .55-.14 1.09 1.09 0 0 1 .57.14.76.76 0 0 1 .31.41 1.12 1.12 0 0 1 1-.55 1 1 0 0 1 .72.26 1.11 1.11 0 0 1 .16.81v2.13h-.52v-2a1.54 1.54 0 0 0 0-.45.48.48 0 0 0 -.19-.23.62.62 0 0 0 -.31-.08.74.74 0 0 0 -.55.22 1 1 0 0 0 -.21.69v1.81h-.53v-2a1 1 0 0 0 -.13-.53.51.51 0 0 0 -.42-.17.79.79 0 0 0 -.42.12.67.67 0 0 0 -.27.34 1.87 1.87 0 0 0 -.08.65v1.61z" fill="#208ec5"/><path d="m93.83 54.14v-3.14h.47v.44a1.15 1.15 0 0 1 .39-.37 1.12 1.12 0 0 1 .55-.14 1.09 1.09 0 0 1 .57.14.76.76 0 0 1 .31.41 1.12 1.12 0 0 1 1-.55.94.94 0 0 1 .71.26 1.07 1.07 0 0 1 .17.81v2.13h-.52v-2a1.54 1.54 0 0 0 0-.45.48.48 0 0 0 -.19-.23.63.63 0 0 0 -.32-.08.72.72 0 0 0 -.54.22 1 1 0 0 0 -.22.69v1.81h-.52v-2a1 1 0 0 0 -.13-.53.52.52 0 0 0 -.43-.17.78.78 0 0 0 -.41.12.67.67 0 0 0 -.27.34 1.84 1.84 0 0 0 -.09.65v1.61z" fill="#208ec5"/><path d="m113.12 43.18h-48.27v-5.58h.21v5.38h47.85v-5.38h.21z" fill="#00b2e1"/><path d="m34.39 128.08v.67h-3.78a1.18 1.18 0 0 1 .08-.49 2.81 2.81 0 0 1 .46-.76 7.3 7.3 0 0 1 .92-.87 7.84 7.84 0 0 0 1.26-1.21 1.45 1.45 0 0 0 .33-.84.94.94 0 0 0 -.3-.71 1.09 1.09 0 0 0 -.78-.29 1.1 1.1 0 0 0 -.81.31 1.14 1.14 0 0 0 -.31.84l-.72-.07a1.74 1.74 0 0 1 .56-1.23 1.86 1.86 0 0 1 1.3-.43 1.78 1.78 0 0 1 1.3.46 1.49 1.49 0 0 1 .48 1.13 1.63 1.63 0 0 1 -.14.68 2.79 2.79 0 0 1 -.46.7 11.18 11.18 0 0 1 -1.09 1c-.42.36-.69.6-.81.73a2.08 2.08 0 0 0 -.3.38z" fill="#208ec5"/><path d="m36.23 125.65a1.34 1.34 0 0 1 -.65-.46 1.21 1.21 0 0 1 -.21-.71 1.38 1.38 0 0 1 .45-1 1.64 1.64 0 0 1 1.18-.48 1.68 1.68 0 0 1 1.21.44 1.42 1.42 0 0 1 .46 1.06 1.15 1.15 0 0 1 -.21.69 1.31 1.31 0 0 1 -.64.46 1.59 1.59 0 0 1 .81.55 1.56 1.56 0 0 1 .27.92 1.63 1.63 0 0 1 -.52 1.23 1.91 1.91 0 0 1 -1.37.5 1.88 1.88 0 0 1 -1.36-.5 1.66 1.66 0 0 1 -.52-1.25 1.5 1.5 0 0 1 .28-.94 1.42 1.42 0 0 1 .82-.51zm-.37 1.45a1.34 1.34 0 0 0 .14.58 1.07 1.07 0 0 0 .43.44 1.24 1.24 0 0 0 .6.15 1.13 1.13 0 0 0 .83-.32 1.21 1.21 0 0 0 0-1.67 1.14 1.14 0 0 0 -.86-.28 1.09 1.09 0 0 0 -.82.33 1.11 1.11 0 0 0 -.32.77zm.23-2.64a.86.86 0 0 0 .26.66.93.93 0 0 0 .68.26.9.9 0 0 0 .66-.26.82.82 0 0 0 .26-.63.88.88 0 0 0 -.26-.65 1 1 0 0 0 -1.34 0 .85.85 0 0 0 -.26.62z" fill="#208ec5"/><path d="m39.66 128.75v-3.11h.47v.44a1.06 1.06 0 0 1 .39-.37 1.12 1.12 0 0 1 .55-.14 1.09 1.09 0 0 1 .57.14.76.76 0 0 1 .31.41 1.12 1.12 0 0 1 1-.55.94.94 0 0 1 .71.26 1.07 1.07 0 0 1 .25.79v2.13h-.52v-2a1.54 1.54 0 0 0 -.05-.45.48.48 0 0 0 -.19-.23.62.62 0 0 0 -.31-.08.74.74 0 0 0 -.55.22 1 1 0 0 0 -.22.69v1.81h-.52v-2a1 1 0 0 0 -.13-.53.51.51 0 0 0 -.42-.18.88.88 0 0 0 -.42.11.74.74 0 0 0 -.27.35 1.84 1.84 0 0 0 -.08.65v1.61z" fill="#208ec5"/><path d="m44.66 128.75v-3.11h.47v.44a1.06 1.06 0 0 1 .39-.37 1.19 1.19 0 0 1 1.12 0 .76.76 0 0 1 .31.41 1.12 1.12 0 0 1 1-.55.94.94 0 0 1 .71.26 1.07 1.07 0 0 1 .25.79v2.13h-.52v-2a1.54 1.54 0 0 0 -.05-.45.48.48 0 0 0 -.19-.23.63.63 0 0 0 -.32-.08.72.72 0 0 0 -.54.22.91.91 0 0 0 -.22.69v1.81h-.57v-2a1 1 0 0 0 -.12-.53.52.52 0 0 0 -.38-.18.87.87 0 0 0 -.41.11.74.74 0 0 0 -.27.35 1.8 1.8 0 0 0 -.09.65v1.61z" fill="#208ec5"/><path d="m79.51 117.81h-79.4v-5.6h.24v5.36h78.92v-5.36h.24z" fill="#00b2e1"/><path d="m17.84 218h-.71v-4.48a4.35 4.35 0 0 1 -.66.49 4.92 4.92 0 0 1 -.74.36v-.68a4.69 4.69 0 0 0 1-.67 2.72 2.72 0 0 0 .62-.77h.46z" fill="#208ec5"/><path d="m19.68 213.07v-.68h3.71v.55a7.87 7.87 0 0 0 -1.08 1.54 9.23 9.23 0 0 0 -.83 2 7.45 7.45 0 0 0 -.27 1.57h-.73a7.13 7.13 0 0 1 .27-1.63 8.58 8.58 0 0 1 .73-1.85 7.3 7.3 0 0 1 1-1.49z" fill="#208ec5"/><path d="m24.15 218v-3.11h.47v.44a1.06 1.06 0 0 1 .38-.33 1.12 1.12 0 0 1 .55-.14 1.09 1.09 0 0 1 .57.14.76.76 0 0 1 .31.41 1.12 1.12 0 0 1 1-.55 1 1 0 0 1 .72.26 1.12 1.12 0 0 1 .25.79v2.09h-.53v-2a1.54 1.54 0 0 0 -.05-.45.48.48 0 0 0 -.19-.23.62.62 0 0 0 -.31-.08.74.74 0 0 0 -.55.22 1 1 0 0 0 -.21.69v1.85h-.56v-2a.88.88 0 0 0 -.13-.53.51.51 0 0 0 -.42-.17.81.81 0 0 0 -.41.11.7.7 0 0 0 -.28.35 2.11 2.11 0 0 0 -.08.65v1.59z" fill="#208ec5"/><path d="m29.15 218v-3.11h.47v.44a1.06 1.06 0 0 1 .38-.33 1.12 1.12 0 0 1 .55-.14 1.09 1.09 0 0 1 .57.14.76.76 0 0 1 .31.41 1.12 1.12 0 0 1 1-.55.94.94 0 0 1 .71.26 1.07 1.07 0 0 1 .25.79v2.09h-.52v-2a1.54 1.54 0 0 0 -.05-.45.48.48 0 0 0 -.19-.23.62.62 0 0 0 -.31-.08.72.72 0 0 0 -.55.22 1 1 0 0 0 -.22.69v1.85h-.55v-2a1 1 0 0 0 -.13-.53.51.51 0 0 0 -.42-.17.88.88 0 0 0 -.42.11.74.74 0 0 0 -.27.35 1.8 1.8 0 0 0 -.09.65v1.59z" fill="#208ec5"/><path d="m48.48 207.08h-48.35v-5.58h.21v5.38h47.93v-5.38h.21z" fill="#00b2e1"/><path d="m82.55 218h-.7v-4.48a4 4 0 0 1 -.67.49 4.49 4.49 0 0 1 -.74.36v-.68a4.26 4.26 0 0 0 1-.67 2.6 2.6 0 0 0 .63-.77h.45z" fill="#208ec5"/><path d="m84.4 213.07v-.68h3.71v.55a7.47 7.47 0 0 0 -1.11 1.54 10.36 10.36 0 0 0 -.83 2 7.45 7.45 0 0 0 -.27 1.57h-.7a7.13 7.13 0 0 1 .27-1.63 8.58 8.58 0 0 1 .73-1.85 7.3 7.3 0 0 1 1-1.49z" fill="#208ec5"/><path d="m88.87 218v-3.11h.47v.44a1.06 1.06 0 0 1 .39-.37 1.19 1.19 0 0 1 1.12 0 .76.76 0 0 1 .31.41 1.12 1.12 0 0 1 1-.55.94.94 0 0 1 .71.26 1.07 1.07 0 0 1 .25.79v2.13h-.52v-2a1.54 1.54 0 0 0 0-.45.48.48 0 0 0 -.19-.23.66.66 0 0 0 -.32-.08.72.72 0 0 0 -.54.22.91.91 0 0 0 -.22.69v1.85h-.53v-2a1 1 0 0 0 -.12-.53.52.52 0 0 0 -.43-.17.87.87 0 0 0 -.41.11.74.74 0 0 0 -.27.35 1.8 1.8 0 0 0 -.09.65v1.59z" fill="#208ec5"/><path d="m93.86 218v-3.11h.48v.44a.93.93 0 0 1 .39-.37 1.19 1.19 0 0 1 1.12 0 .81.81 0 0 1 .31.41 1.09 1.09 0 0 1 1-.55.94.94 0 0 1 .71.26 1.07 1.07 0 0 1 .25.79v2.13h-.52v-2a1.21 1.21 0 0 0 -.06-.45.41.41 0 0 0 -.18-.23.66.66 0 0 0 -.32-.08.7.7 0 0 0 -.54.22.91.91 0 0 0 -.22.69v1.85h-.53v-2a.88.88 0 0 0 -.13-.53.49.49 0 0 0 -.42-.17.84.84 0 0 0 -.41.11.63.63 0 0 0 -.27.35 1.8 1.8 0 0 0 -.09.65v1.59z" fill="#208ec5"/><path d="m113.19 207.08h-48.34v-5.58h.21v5.38h47.93v-5.38h.2z" fill="#00b2e1"/><path d="m131.75 127.24.7-.09a1.55 1.55 0 0 0 .42.86 1 1 0 0 0 .7.26 1.12 1.12 0 0 0 .84-.34 1.15 1.15 0 0 0 .34-.85 1.07 1.07 0 0 0 -.31-.8 1.1 1.1 0 0 0 -.81-.32 2.06 2.06 0 0 0 -.49.08l.07-.62h.12a1.5 1.5 0 0 0 .81-.23.81.81 0 0 0 .36-.73.85.85 0 0 0 -.27-.64 1 1 0 0 0 -1.35 0 1.3 1.3 0 0 0 -.36.77l-.7-.12a1.79 1.79 0 0 1 .59-1.1 1.67 1.67 0 0 1 1.13-.39 2 2 0 0 1 .87.2 1.52 1.52 0 0 1 .6.55 1.41 1.41 0 0 1 .21.74 1.26 1.26 0 0 1 -.2.68 1.36 1.36 0 0 1 -.59.48 1.33 1.33 0 0 1 .79.49 1.44 1.44 0 0 1 .28.92 1.67 1.67 0 0 1 -.55 1.27 1.89 1.89 0 0 1 -1.38.52 1.79 1.79 0 0 1 -1.25-.45 1.75 1.75 0 0 1 -.57-1.14z" fill="#208ec5"/><path d="m136.2 125.93a5.31 5.31 0 0 1 .2-1.64 2 2 0 0 1 .63-1 1.54 1.54 0 0 1 1-.34 1.6 1.6 0 0 1 1.39.72 3.15 3.15 0 0 1 .35.85 5.52 5.52 0 0 1 .13 1.36 5.13 5.13 0 0 1 -.21 1.62 2 2 0 0 1 -.62 1 1.55 1.55 0 0 1 -1 .34 1.59 1.59 0 0 1 -1.3-.59 3.79 3.79 0 0 1 -.57-2.32zm.72 0a3.56 3.56 0 0 0 .33 1.87.94.94 0 0 0 1.63 0 3.56 3.56 0 0 0 .33-1.87 3.6 3.6 0 0 0 -.33-1.88 1 1 0 0 0 -.83-.47.9.9 0 0 0 -.77.41 3.69 3.69 0 0 0 -.36 1.94z" fill="#208ec5"/><path d="m140.71 128.75v-3.11h.47v.44a1.06 1.06 0 0 1 .39-.37 1.12 1.12 0 0 1 .55-.14 1.09 1.09 0 0 1 .57.14.76.76 0 0 1 .31.41 1.12 1.12 0 0 1 1-.55.94.94 0 0 1 .71.26 1.07 1.07 0 0 1 .25.79v2.13h-.52v-2a1.54 1.54 0 0 0 -.05-.45.48.48 0 0 0 -.19-.23.62.62 0 0 0 -.31-.08.74.74 0 0 0 -.55.22 1 1 0 0 0 -.22.69v1.81h-.52v-2a1 1 0 0 0 -.13-.53.51.51 0 0 0 -.47-.18.88.88 0 0 0 -.42.11.74.74 0 0 0 -.27.35 1.84 1.84 0 0 0 -.08.65v1.61z" fill="#208ec5"/><path d="m145.71 128.75v-3.11h.47v.44a1.06 1.06 0 0 1 .39-.37 1.19 1.19 0 0 1 1.12 0 .81.81 0 0 1 .31.41 1.12 1.12 0 0 1 1-.55.94.94 0 0 1 .71.26 1.07 1.07 0 0 1 .25.79v2.13h-.52v-2a1.54 1.54 0 0 0 -.05-.45.48.48 0 0 0 -.19-.23.66.66 0 0 0 -.32-.08.7.7 0 0 0 -.54.22.91.91 0 0 0 -.22.69v1.81h-.53v-2a1 1 0 0 0 -.12-.53.52.52 0 0 0 -.47-.18.87.87 0 0 0 -.41.11.74.74 0 0 0 -.27.35 1.8 1.8 0 0 0 -.09.65v1.61z" fill="#208ec5"/><path d="m183.43 117.81h-85.14v-5.6h.25v5.35h84.64v-5.35h.25z" fill="#00b2e1"/><path d="m74.55 25.12a5 5 0 0 1 -6.22 6.54 5 5 0 0 1 -.78-9.09 5 5 0 0 1 7 2.55z" fill="#00a19b"/><path d="m69.77 24.35c.16-.05.38-.18.55-.05s.44.24.36.5a3.33 3.33 0 0 0 .57.62s.07 0 .09-.05h-.06c.07-.07.23 0 .34 0a.27.27 0 0 1 .22.09 1.58 1.58 0 0 0 .13.26 2 2 0 0 0 .13.25c.35.13.52.56.84.75a4.67 4.67 0 0 0 1.24.68c0 .06 0 .06.08.08a.29.29 0 0 0 -.2 0c.06.09.21.05.24.15h-.16s0 0 .06 0-.16 0-.21-.07a7 7 0 0 1 -.91-.45 3.59 3.59 0 0 0 .8.46c.09.05.22.08.27.18s-.08 0-.09.05h-.07s0 0 0 0a4.18 4.18 0 0 1 -1-.54c-.14-.1-.29-.18-.44-.29s0 0-.06 0c.17.13.35.21.51.34a2.93 2.93 0 0 1 -.91-.68c-.11-.12-.27-.35-.46-.31s-.18 0-.25.07-.11-.07-.17 0-.21 0-.24.14-.28 0-.31.14v.05c-.19.09-.46.06-.6.25 0 0-.12 0-.16 0s0 0 0 0-.07 0-.11 0 0-.06 0-.09-.13.08-.2.12.1-.09.13-.16-.09 0-.13 0 .06-.08 0-.08.16-.05.19-.14h-.08l.23-.2s-.08-.08-.13 0 0 0 0 0-.09 0-.14 0 0 0 0 0l.11-.1a5.06 5.06 0 0 1 .44-.26.1.1 0 0 0 -.16 0c.13 0 0-.16.14-.18a.4.4 0 0 1 .2-.24c-.13-.12-.18-.35-.33-.42s-.1 0-.11-.09c-.17 0-.38.08-.5-.08a.76.76 0 0 0 -.3 0 1.28 1.28 0 0 0 -.15.25 1.2 1.2 0 0 0 -.18.26.8.8 0 0 1 -.36.32c-.1.16-.34.09-.48.26a.08.08 0 0 0 -.1.06c-.07 0-.12.06-.15.1s-.44.18-.62.33c-.32.08-.48.33-.7.57a1.88 1.88 0 0 1 -.24.25c0 .08-.09.11-.13.15s.12-.13.13-.21-.09.13-.18.17 0-.07 0-.11l-.12.09.11-.15c-.06 0-.12.11-.19.12s0 0-.09 0a1.34 1.34 0 0 0 .17-.17c-.07 0-.15.06-.2 0s0-.07-.06 0 .1-.07.12-.13-.09 0-.13 0 .11-.08.08-.16-.11.11-.22.14c.11-.15.27-.24.38-.4a2.63 2.63 0 0 1 .72-.53c.21-.12.48-.18.63-.39a1.6 1.6 0 0 0 .16-.23s0 0 .05 0a.91.91 0 0 1 .48-.15c.08-.08.23 0 .29-.15s.28-.56.46-.82c.06-.08.13-.21.25-.24a5 5 0 0 1 .89.07z" fill="#fff"/><path d="m69.92 26.13s-.15.07-.16.13-.15.09-.22.09.13 0 .14-.12l.08-.06s.13 0 .1-.09z" fill="#fff"/><path d="m69.6 26.19a.15.15 0 0 1 -.11.08c.02-.05.06-.05.11-.08z" fill="#fff"/><path d="m69.75 26.44s0 0 0 0 0 0 0-.05z" fill="#fff"/><path d="m91.54 28.8h1.42v-4.13h1.02v5.51h-1.02v-.38l-3.91-.01-.01.36h-1.05v-5.53h1.05v4.18l1.44-.01v-5.08h1.06z" fill="#00a19b"/><path d="m82.06 29.09v-1.82h2.17v-1l-2.17-.01v-1.44h2.33v-1.03h-5.72v1.03h2.31v1.44h-2.16v1.01h2.16v1.82h-2.63v1.01h6.32v-1.01z" fill="#00a19b"/><path d="m83 27.58a.63.63 0 0 0 -.43.53.66.66 0 0 0 .13.46.63.63 0 0 0 1.09-.23.7.7 0 0 0 -.07-.5.63.63 0 0 0 -.72-.26z" fill="#00a19b"/><path d="m99.24 27.86h1.03v.66h-1.03z" fill="#00a19b" transform="matrix(.21 -.98 .98 .21 50.97 119.65)"/><path d="m102.93 28.61.9-.65-.61-.61s-.51.34-.72.48a3.19 3.19 0 0 1 -.12-.68h1.09v-3.29h-3.11v5.28l-.3.06v-.41l-.84.14v-1.52h.93v-.83h-.95v-.32h.67v-.4h.07l.42-1a2.34 2.34 0 0 1 -1.09-1.18h-.88a2.67 2.67 0 0 1 -1.16 1.36l.42 1 .18-.16v.33h.55v.32h-1v.83h1v1.67l-1 .18v.91l2.6-.5v.48l2.09-.36v-.83a3.23 3.23 0 0 0 1.32 1.22l.45-.88a4.19 4.19 0 0 1 -.91-.64zm-4.6-3.17a4.49 4.49 0 0 0 .5-.64 3.22 3.22 0 0 0 .54.64zm2.94-.68h1.29v.44h-1.29zm0 4.23v-1.84h.27a3.44 3.44 0 0 0 .43 1.72zm0-2.6v-.39h1.29v.44z" fill="#00a19b"/><path d="m98.17 28.79-.15-1.1-.68.12.15 1.11z" fill="#00a19b"/><path d="m109.23 23.74h3.64v.97h-3.64z" fill="#00a19b"/><path d="m113.14 25.84h-4.24l-.71-.51a7.26 7.26 0 0 1 -1.58 1.85l.45 1.07s.21-.18.49-.46v2.31h1v-3.47c.12-.18.24-.36.34-.54v.71h2.26v2.2a.14.14 0 0 1 -.14.14h-1.15l.39 1h1.19a.73.73 0 0 0 .73-.73v-2.61h1z" fill="#00a19b"/><path d="m108.9 24.22c-.29-.19-.56-.39-.84-.58a6 6 0 0 1 -1.4 1.32l.47 1a7.32 7.32 0 0 0 1.77-1.74z" fill="#00a19b"/><path d="m9.92 103.29a5 5 0 0 1 -6.28 6.59 5 5 0 0 1 -.79-9.17 5.1 5.1 0 0 1 5.31.34 5 5 0 0 1 1.76 2.24z" fill="#009e96"/><path d="m9.54 105.72h.16c0-.1-.18-.06-.24-.15a.29.29 0 0 1 .2 0s-.1 0-.08-.08a4.92 4.92 0 0 1 -1.25-.69c-.32-.19-.49-.63-.85-.75a1.58 1.58 0 0 1 -.13-.26 1.58 1.58 0 0 1 -.13-.26.27.27 0 0 0 -.22-.09c-.11.06-.27 0-.34 0s0 .06-.08 0a3.47 3.47 0 0 1 -.58-.44c.09-.25-.24-.31-.36-.5s-.39 0-.56.05a5 5 0 0 0 -.86-.16c-.12 0-.19.16-.25.25-.18.25-.26.57-.47.82-.06.12-.21.07-.29.15a.94.94 0 0 0 -.49.15s0 0 0 0a1.67 1.67 0 0 1 -.16.24c-.15.2-.43.26-.63.39a2.67 2.67 0 0 0 -.73.53c-.11.16-.27.26-.38.41.11 0 .09-.16.22-.14s-.07.11-.08.16.09 0 .13 0-.07.09-.12.13 0 0 .06 0 .13-.08.2 0-.13.14-.17.17h-.06s.07 0 .09 0 .13-.12.19-.13l-.11.16.12-.1s-.07.08 0 .12.11-.14.19-.18-.1.15-.14.22.16-.07.14-.16a1.36 1.36 0 0 0 .24-.24c.22-.25.37-.5.7-.57.18-.16.46-.16.63-.34s.08-.13.15-.1a.08.08 0 0 1 .1-.06c.14-.16.38-.1.49-.25a.82.82 0 0 0 .36-.33 1.67 1.67 0 0 1 .17-.26 1 1 0 0 1 .16-.25.76.76 0 0 1 .3 0c.12.16.33.07.51.08 0 .09.1 0 .11.09s.2.3.33.42a.42.42 0 0 0 -.2.25c-.13 0 0 .16-.14.17a.1.1 0 0 1 .16 0c-.15.08-.3.18-.45.27l-.11.1h.01s0 0 0 0 .1-.07.14 0 0 0 0 0 .11 0 .14 0a2.31 2.31 0 0 1 -.24.2h.08c0 .09-.14.06-.19.14s0 .07 0 .08.08-.06.13 0-.12.09-.13.17.11-.17.2-.13-.06 0 0 .1.07-.06.12 0 0 0 0 0 .12 0 .16 0c.14-.2.41-.17.61-.26 0-.12.21-.09.31-.13s.19 0 .24-.15.1 0 .16 0 .19 0 .26-.07.35.2.46.31a2.72 2.72 0 0 0 .93.68c-.17-.12-.35-.2-.52-.33h.06s.3.19.45.29a3.72 3.72 0 0 0 1 .54h-.05s0 0 0 0h.07s.06 0 .09 0-.18-.13-.27-.18a3.77 3.77 0 0 1 -.8-.46 6.42 6.42 0 0 0 .91.45c0 .11.13 0 .21.07s.01-.13.01-.16z" fill="#fff"/><path d="m5.25 104.31h-.06c0 .09-.07.07-.1.1l-.08.06c0 .08-.13 0-.14.12s.13-.1.22-.09.1-.15.16-.19z" fill="#fff"/><path d="m4.92 104.37s-.09 0-.11.08a.15.15 0 0 0 .11-.08z" fill="#fff"/><path d="m52.07 105.18h2.41v.55h-1.76v.72h1.64v.55h-1.64v.88h1.82v.55h-2.47z" fill="#009e96"/><path d="m57.4 107.31a.66.66 0 0 0 .7.63c.46 0 .65-.24.65-.45s-.23-.33-.83-.48c-.32-.08-1-.26-1-1 0-.35.23-.91 1.18-.91.64 0 1.22.25 1.25 1h-.66c0-.17-.08-.48-.59-.48-.2 0-.56.06-.56.33s.21.3.73.42 1.17.28 1.17 1.08a1 1 0 0 1 -.53.85 1.83 1.83 0 0 1 -.77.15 1.19 1.19 0 0 1 -1.34-1.12z" fill="#009e96"/><path d="m61.23 105.18v1.76a1.53 1.53 0 0 0 .08.7.62.62 0 0 0 .58.28c.62 0 .62-.39.62-1v-1.79h.66v1.71a2.12 2.12 0 0 1 -.17 1.16 1.24 1.24 0 0 1 -1.09.45c-1.33 0-1.33-.82-1.33-1.58v-1.73z" fill="#009e96"/><path d="m64.51 105.18h.64l1.32 2.17v-2.17h.61v3.25h-.66l-1.3-2.12v2.12h-.61z" fill="#009e96"/><path d="m69.7 105.18h2.24v.55h-1.58v.77h1.37v.55h-1.37v1.38h-.66z" fill="#009e96"/><path d="m73 105.18h.66v1.28h1.34v-1.28h.65v3.25h-.65v-1.43h-1.3v1.42h-.7z" fill="#009e96"/><path d="m79.6 107.44a1.27 1.27 0 0 1 -1.35 1 1.48 1.48 0 0 1 -1.48-1.66 1.52 1.52 0 0 1 1.52-1.71 1.39 1.39 0 0 1 1 .37 1.21 1.21 0 0 1 .31.59l-.65.15a.67.67 0 0 0 -.68-.55c-.81 0-.81.9-.81 1.11a1.47 1.47 0 0 0 .17.81.72.72 0 0 0 .63.32c.43 0 .63-.33.72-.68z" fill="#009e96"/><path d="m55.93 108a.42.42 0 0 0 -.42-.42.41.41 0 0 0 -.42.42.42.42 0 0 0 .42.42.42.42 0 0 0 .42-.42z" fill="#009e96"/><path d="m27.05 107.03h1.43v-4.18h1.04v5.66h-1.04v-.46l-3.95-.01-.01.47h-1.07v-5.71h1.07v4.23l1.45-.01v-5.13h1.08z" fill="#00a19b"/><path d="m17.51 107.37v-1.85h2.2v-1l-2.2-.02v-1.45h2.36v-1.05h-5.79v1.05h2.34v1.45h-2.19v1.02h2.19v1.85h-2.66v1.03h6.39v-1.03z" fill="#00a19b"/><path d="m18.49 105.84a.65.65 0 0 0 -.44.54.61.61 0 0 0 .14.46.66.66 0 0 0 .69.2.65.65 0 0 0 .41-.43.68.68 0 0 0 -.08-.51.62.62 0 0 0 -.72-.26z" fill="#00a19b"/><path d="m38 106.34-.77-.28h1v-.86h-1.94v-.42h.93v-.54a7.3 7.3 0 0 0 1.51.92l.64-1a5.16 5.16 0 0 1 -2.93-2.16v-.09l-1.26-.12a4.8 4.8 0 0 1 -2.67 2.6l.45 1a11.1 11.1 0 0 0 1.36-1v.35h.93v.42h-1.88v.86h1.08l-.77.29.36 1.17h-1.2v.88h5.9v-.88h-1.29zm-3.06-2.42a9.65 9.65 0 0 0 .92-1 7 7 0 0 0 1 1h-1.9zm-.77 3.6.89-.34-.53-1.12h.76v1.46zm2.12-1.46h.76l-.53 1.11.86.35h-1.09z" fill="#00a19b"/><path d="m45.5 103.58h2.23v.62h.86v-.62-.21-.57h-1.55v-.89h-.85v.89h-1.55v.57.21.62h.86z" fill="#00a19b"/><path d="m47 106.48h1v-.61l.21.16.64-.57a3.44 3.44 0 0 1 -1.39-1.54l-.75.33a5.47 5.47 0 0 0 1.06 1.41h-2.37a5.57 5.57 0 0 0 1.05-1.41l-.74-.33a3.61 3.61 0 0 1 -1.17 1.4v-.63l-.61.13v-.69h.57v-.87h-.57v-1.35h-.87v1.35h-.84v.87h.84v.87l-1 .22.16 1 .8-.22v1.46a.18.18 0 0 1 -.17.18h-.45l.36.91h.27a.86.86 0 0 0 .86-.87v-1.92l.52-.14.5.45.21-.16v.61h1v1.11h-1.59v.82h4.17v-.82h-1.7z" fill="#00a19b"/><path d="m108.11 103.29a5 5 0 1 1 -9.69 2.09 5 5 0 0 1 2.62-4.67 5.1 5.1 0 0 1 5.32.34 5 5 0 0 1 1.75 2.24z" fill="#009e96"/><path d="m107.74 105.73h.16c0-.11-.18-.06-.24-.16a.29.29 0 0 1 .2 0s-.1 0-.08-.08a4.69 4.69 0 0 1 -1.26-.69c-.32-.18-.49-.62-.85-.75a2 2 0 0 1 -.13-.25 2.19 2.19 0 0 1 -.13-.27.25.25 0 0 0 -.21-.09c-.11.06-.28 0-.35 0h.06s0 .06-.09 0a3.17 3.17 0 0 1 -.58-.63c.09-.25-.24-.31-.36-.5s-.39 0-.56.05a5 5 0 0 0 -.87-.16c-.12 0-.19.16-.25.25-.17.25-.25.57-.46.83-.06.11-.21.06-.29.14a.94.94 0 0 0 -.49.15s0 0 0 0a1.25 1.25 0 0 1 -.16.24c-.15.21-.43.27-.64.39a2.9 2.9 0 0 0 -.73.53c-.11.17-.27.26-.38.41.11 0 .09-.16.22-.14s-.07.11-.08.16.09 0 .13 0a.32.32 0 0 1 -.12.14s0 0 .06 0 .13-.08.2 0l-.17.16s.07 0 .09 0 .13-.11.19-.12l-.11.15.12-.09s-.07.07 0 .11.11-.13.19-.17-.1.14-.14.21.16-.07.14-.15a1.42 1.42 0 0 0 .24-.25c.22-.24.38-.5.71-.57.18-.16.46-.16.63-.34s.08-.12.15-.1a.08.08 0 0 1 .1-.06c.14-.17.38-.11.49-.26a.79.79 0 0 0 .35-.33.94.94 0 0 1 .18-.25.87.87 0 0 1 .16-.26.76.76 0 0 1 .3 0c.12.16.33.07.51.08 0 .09.1 0 .11.09s.2.3.33.42a.45.45 0 0 0 -.2.25c-.13 0 0 .16-.14.17a.1.1 0 0 1 .16 0c-.15.07-.3.17-.45.26l-.11.11s0 0 0 0c.05 0 .1-.08.14 0s0 0 0 0 .11 0 .14 0l-.24.19h.08c0 .09-.14.06-.19.14s0 .08 0 .09.08-.06.13 0-.12.08-.13.16.11-.16.2-.12-.06 0 0 .09.07-.06.12 0 0 0 0 0 .12 0 .16 0c.14-.2.41-.17.61-.26 0-.12.21-.09.31-.13s.19 0 .24-.15.11 0 .17 0 .19 0 .26-.07.34.2.45.31a2.89 2.89 0 0 0 .93.69c-.17-.13-.35-.21-.52-.34h.06l.45.3a4 4 0 0 0 1 .53h-.05s0 0 0 0h.07s.06 0 .09 0-.18-.12-.27-.17a3.88 3.88 0 0 1 -.81-.47 6.58 6.58 0 0 0 .92.46c0 .1.13 0 .21.07s-.08.08-.08.05z" fill="#fff"/><path d="m103.44 104.31h-.06c0 .08-.07.06-.1.09l-.08.06c0 .09-.13 0-.14.12s.13-.1.22-.09.1-.14.16-.18z" fill="#fff"/><path d="m103.11 104.37s-.09 0-.11.08a.15.15 0 0 0 .11-.08z" fill="#fff"/><path d="m150.67 105h2.52v.57h-1.84v.76h1.71v.57h-1.71v.93h1.91v.57h-2.59z" fill="#009e96"/><path d="m156.23 107.19a.71.71 0 0 0 .75.65c.48 0 .67-.25.67-.47s-.24-.34-.87-.5c-.34-.08-1.09-.27-1.09-1 0-.37.25-.95 1.24-.95.67 0 1.28.26 1.31 1h-.69c0-.17-.08-.49-.63-.49-.2 0-.57.06-.57.33s.21.32.76.45 1.22.29 1.22 1.12a1 1 0 0 1 -.56.9 2 2 0 0 1 -.8.15 1.24 1.24 0 0 1 -1.4-1.17z" fill="#009e96"/><path d="m160.24 105v1.84a1.63 1.63 0 0 0 .08.73.66.66 0 0 0 .61.3c.65 0 .65-.42.65-1v-1.87h.69v1.79a2.29 2.29 0 0 1 -.19 1.2 1.3 1.3 0 0 1 -1.13.47c-1.4 0-1.4-.86-1.4-1.65v-1.81z" fill="#009e96"/><path d="m163.67 105h.66l1.39 2.27v-2.27h.64v3.4h-.69l-1.36-2.22v2.22h-.63z" fill="#009e96"/><path d="m154.71 107.93a.43.43 0 0 0 -.44-.44.44.44 0 0 0 -.44.44.44.44 0 0 0 .44.44.44.44 0 0 0 .44-.44z" fill="#009e96"/><path d="m170.39 105.65a1.53 1.53 0 0 1 .41 0 .31.31 0 0 1 .18.32.32.32 0 0 1 -.14.31.74.74 0 0 1 -.36.08h-.83v-.76zm.11 1.33a.77.77 0 0 1 .34.06.37.37 0 0 1 .22.37.44.44 0 0 1 -.22.43.85.85 0 0 1 -.35.06h-.84v-.9zm.12-1.92h-1.62v3.43h1.55a2.44 2.44 0 0 0 .48 0 1 1 0 0 0 .39-.17.78.78 0 0 0 .24-.27 1 1 0 0 0 .16-.54.93.93 0 0 0 -.14-.51.67.67 0 0 0 -.39-.3.69.69 0 0 0 .26-.2.77.77 0 0 0 .16-.5.92.92 0 0 0 -.16-.53 1.09 1.09 0 0 0 -.93-.41z" fill="#009e96"/><path d="m174 105.84.44 1.35h-.88zm-1.62 2.65h.75l.23-.71h1.27l.22.71h.78l-1.21-3.43h-.82z" fill="#009e96"/><path d="m176.35 105.06h.75l1.35 2.39v-2.39h.67v3.43h-.71l-1.4-2.43v2.43h-.66z" fill="#009e96"/><path d="m180.42 105.06h.72v1.41l1.32-1.41h.93l-1.39 1.41 1.48 2h-.92l-1.06-1.5-.34.35v1.15h-.72z" fill="#009e96"/><path d="m125.33 107.05h1.44v-4.2h1.04v5.59h-1.04v-.38h-3.97l-.01.35h-1.06v-5.61h1.06v4.25l1.46-.01v-5.15h1.08z" fill="#00a19b"/><path d="m115.71 107.31v-1.85h2.21v-1.01l-2.21-.01v-1.47h2.36l.01-1.04h-5.8v1.04h2.33v1.47h-2.19v1.02h2.19v1.85h-2.66v1.03h6.41v-1.03z" fill="#00a19b"/><path d="m116.69 105.78a.67.67 0 0 0 -.44.53.68.68 0 0 0 .15.47.64.64 0 0 0 .68.2.66.66 0 0 0 .42-.44.67.67 0 0 0 -.08-.5.64.64 0 0 0 -.73-.26z" fill="#00a19b"/><path d="m132.99 106.03h1.04v.67h-1.04z" fill="#00a19b" transform="matrix(.21303039 -.97704557 .97704557 .21303039 1.15 214.16)"/><path d="m136.73 106.79.91-.66s-.59-.61-.61-.61-.53.34-.73.48a2.73 2.73 0 0 1 -.13-.69h1.11v-3.31h-3.15v5.35l-.3.06v-.42l-.86.15v-1.54h.94v-.84h-.91v-.32h.69v-.44h.06l.43-1a2.38 2.38 0 0 1 -1.11-1.18h-.88a2.71 2.71 0 0 1 -1.18 1.37l.43 1 .18-.16v.34h.56v.32h-1v.84h1v1.68l-1 .19v.92l2.64-.5v.48l2.12-.37v-.84a3.1 3.1 0 0 0 1.34 1.23l.45-.88a4 4 0 0 1 -1-.65zm-4.66-3.21a4 4 0 0 0 .51-.64 3.28 3.28 0 0 0 .55.64zm3-.68h1.3v.44h-1.3zm0 4.27v-1.86h.27a3.61 3.61 0 0 0 .42 1.74zm0-2.62v-.45h1.3v.45z" fill="#00a19b"/><path d="m131.92 106.97-.16-1.11-.69.12.16 1.13z" fill="#00a19b"/><path d="m143.06 101.92h3.66v.98h-3.66z" fill="#00a19b"/><path d="m147 104h-4.26l-.72-.51a7.23 7.23 0 0 1 -1.58 1.86l.45 1.08s.21-.18.49-.47v2.33h1v-3.49a6.37 6.37 0 0 0 .35-.55v.75h2.27v2.2a.14.14 0 0 1 -.14.14h-1.16l.39 1h1.2a.74.74 0 0 0 .73-.74v-2.6h1z" fill="#00a19b"/><path d="m142.73 102.41c-.29-.19-.57-.4-.85-.59a5.87 5.87 0 0 1 -1.4 1.33l.47 1a8 8 0 0 0 1.78-1.74z" fill="#00a19b"/><path d="m21.63 195.83a.34.34 0 0 0 -.35-.35.35.35 0 0 0 -.35.35.35.35 0 0 0 .35.35.35.35 0 0 0 .35-.35z" fill="#00a19b"/><path d="m17.71 193.29h2.19v.5h-1.6v.66h1.49v.5h-1.49v.8h1.7v.5h-2.29z" fill="#00a19b"/><path d="m23.81 195.23a.6.6 0 0 0 .64.56c.41 0 .58-.21.58-.4s-.21-.3-.75-.44c-.29-.07-.94-.23-.94-.88 0-.32.21-.82 1.07-.82.58 0 1.1.22 1.13.89h-.6c0-.15-.07-.42-.54-.42-.17 0-.49 0-.49.29s.18.27.65.38 1.06.25 1.06 1a.88.88 0 0 1 -.48.77 1.74 1.74 0 0 1 -.7.13 1.08 1.08 0 0 1 -1.21-1z" fill="#00a19b"/><path d="m27.68 193.29v1.6a1.38 1.38 0 0 0 .07.63.54.54 0 0 0 .53.26c.57 0 .57-.35.57-.86v-1.63h.59v1.55a2 2 0 0 1 -.16 1 1.13 1.13 0 0 1 -1 .41c-1.21 0-1.21-.75-1.21-1.43v-1.58z" fill="#00a19b"/><path d="m30.89 193.29h.58l1.2 2v-2h.55v3h-.6l-1.18-1.93v1.93h-.55z" fill="#00a19b"/><path d="m38.2 193.29h2v.5h-1.4v.7h1.2v.5h-1.2v1.26h-.6z" fill="#00a19b"/><path d="m41.84 193.29h.59v1.16h1.17v-1.16h.6v3h-.6v-1.29h-1.17v1.3h-.59z" fill="#00a19b"/><path d="m48.14 195.33a1.16 1.16 0 0 1 -1.22.95 1.34 1.34 0 0 1 -1.34-1.5 1.37 1.37 0 0 1 1.42-1.54 1.26 1.26 0 0 1 .9.33 1.23 1.23 0 0 1 .28.53l-.59.14a.61.61 0 0 0 -.62-.49c-.74 0-.74.8-.74 1a1.42 1.42 0 0 0 .16.74.65.65 0 0 0 .57.29c.39 0 .57-.3.65-.62z" fill="#00a19b"/><path d="m13 188.48a6.63 6.63 0 0 1 -8.29 8.7 6.64 6.64 0 0 1 -1-12.12 6.64 6.64 0 0 1 9.29 3.42z" fill="#00a19b"/><path d="m7.15 189.62h-.08a.08.08 0 0 0 .08 0z" fill="#fff"/><path d="m12.54 191.69h.21c0-.14-.24-.08-.32-.21a.42.42 0 0 1 .26.06s-.13 0-.1-.1a6.13 6.13 0 0 1 -1.66-.92c-.42-.24-.64-.82-1.12-1a3.59 3.59 0 0 1 -.17-.34h-.05a1.62 1.62 0 0 1 -.17-.35.38.38 0 0 0 -.29-.12c-.15.08-.37 0-.46 0h.08s-.06.08-.12.07a5.05 5.05 0 0 1 -.77-.83c.12-.34-.31-.42-.47-.66s-.51 0-.74.07a6.05 6.05 0 0 0 -1.14-.22c-.16 0-.25.22-.33.32-.24.34-.34.76-.62 1.1-.08.15-.27.08-.38.19a1.18 1.18 0 0 0 -.64.2s0 .07-.07.06a2.43 2.43 0 0 1 -.21.31c-.2.27-.57.35-.84.51a3.52 3.52 0 0 0 -1 .71c-.15.22-.36.34-.5.54.14 0 .12-.22.29-.19s-.09.15-.11.22.12-.07.17-.06-.09.13-.15.18.05 0 .08 0 .17-.1.26 0l-.22.22h.11s.17-.15.25-.16l-.14.2.16-.12c0 .05-.1.09 0 .15s.15-.18.25-.23c0 .11-.13.19-.18.28s.21-.09.18-.2a1.67 1.67 0 0 0 .32-.33c.29-.32.5-.66.93-.75.24-.2.61-.2.83-.45 0 0 .1-.16.2-.13a.1.1 0 0 1 .13-.08c.19-.21.5-.13.65-.34a1.09 1.09 0 0 0 .47-.43 1.22 1.22 0 0 1 .24-.34 1.12 1.12 0 0 1 .21-.34 1 1 0 0 1 .39 0c.16.22.44.1.67.11 0 .13.13 0 .15.13.2.09.26.39.43.55a.58.58 0 0 0 -.26.33c-.12 0-.08.12-.11.18a.15.15 0 0 1 .14 0v.05a6.21 6.21 0 0 0 -.6.35l-.14.14s0 0 0 .05c.07 0 .13-.09.19 0s0 0 0 0 .15 0 .19 0l-.32.25h.11c0 .13-.19.09-.25.19s0 .1 0 .11.1-.08.17 0-.16.11-.17.22c.09-.06.14-.22.26-.16s-.08 0 0 .12.09-.08.16-.06a0 0 0 0 1 0 .06c0-.07.15 0 .21-.06.18-.25.54-.21.8-.33v-.07c0-.16.27-.12.4-.18s.26 0 .32-.19.15 0 .22 0 .25 0 .35-.1.46.26.6.41a3.78 3.78 0 0 0 1.23.91c-.23-.16-.46-.27-.69-.45h.08c.2.15.4.26.59.4a5.53 5.53 0 0 0 1.36.71l-.07-.06s0 0 0-.05l.09.05c0-.05.08-.05.12-.07s-.24-.16-.36-.23a4.7 4.7 0 0 1 -1.06-.61 8.52 8.52 0 0 0 1.21.6c.06.13.17 0 .27.09s.01.16.01.12z" fill="#fff"/><path d="m6.86 189.81h-.07c0 .11-.09.08-.13.12l-.1.08c0 .11-.18 0-.19.15s.17-.12.29-.11.13-.18.2-.24z" fill="#fff"/><path d="m6.43 189.9c-.07 0-.12 0-.14.11a.26.26 0 0 0 .14-.11z" fill="#fff"/><path d="m29.49 190.06h1.28v-3.72h.91v5.03h-.91v-.41l-3.52-.01v.42h-.95v-5.08h.94v3.77l1.29-.01v-4.57h.96z" fill="#00a19b"/><path d="m20.91 190.36v-1.65h1.95v-.89l-1.95-.01v-1.3h2.09v-.92h-5.14v.92h2.08v1.3h-1.94v.9h1.94v1.65h-2.37v.91h5.69v-.91z" fill="#00a19b"/><path d="m21.78 189a.56.56 0 0 0 -.39.47.57.57 0 0 0 .13.42.56.56 0 0 0 1-.21.58.58 0 0 0 -.07-.45.56.56 0 0 0 -.67-.23z" fill="#00a19b"/><path d="m39.12 189.44-.69-.25h.88v-.77h-1.71v-.37h.83v-.48a6.36 6.36 0 0 0 1.34.82l.57-.88a4.54 4.54 0 0 1 -2.6-1.95v-.08l-1.12-.11a4.3 4.3 0 0 1 -2.38 2.32l.41.9a10.2 10.2 0 0 0 1.21-.85v.31h.83v.37h-1.69v.77h1l-.69.26.32 1h-1.1v.79h5.25v-.79h-1.15zm-2.72-2.15a9.51 9.51 0 0 0 .82-.92 6.08 6.08 0 0 0 .87.92zm-.68 3.19.79-.29-.48-1h.69v1.29zm1.88-1.29h.67l-.46 1 .76.3h-1z" fill="#00a19b"/><path d="m45.38 186.99h1.99v.55h.76v-.55-.19-.51h-1.38v-.79h-.75v.79h-1.38v.51.19.55h.76z" fill="#00a19b"/><path d="m46.75 189.56h.92v-.56l.18.14.57-.5a3.15 3.15 0 0 1 -1.24-1.37l-.66.29a4.79 4.79 0 0 0 .94 1.25h-2.17a4.79 4.79 0 0 0 .94-1.25l-.66-.29a3.15 3.15 0 0 1 -1 1.24v-.51l-.54.12v-.61h.5v-.78h-.53v-1.2h-.78v1.2h-.74v.78h.74v.78l-.85.19.14.85.71-.2v1.3a.15.15 0 0 1 -.15.15h-.4l.32.82h.24a.77.77 0 0 0 .77-.77v-1.71l.46-.13.45.4.18-.14v.54h.91v1h-1.48v.73h3.71v-.73h-1.48z" fill="#00a19b"/><path d="m88 195.24a.6.6 0 0 0 .64.57c.42 0 .59-.22.59-.41s-.21-.3-.76-.44c-.29-.07-1-.23-1-.89 0-.32.22-.82 1.08-.82.58 0 1.11.22 1.14.89h-.6c0-.16-.07-.43-.54-.43-.18 0-.5 0-.5.29s.18.27.66.39 1.06.25 1.06 1a.89.89 0 0 1 -.48.78 1.79 1.79 0 0 1 -.7.13 1.08 1.08 0 0 1 -1.22-1z" fill="#00a19b"/><path d="m91.47 193.27v1.62a1.27 1.27 0 0 0 .08.64.56.56 0 0 0 .53.26c.57 0 .57-.36.57-.87v-1.65h.6v1.57a2.05 2.05 0 0 1 -.16 1.06 1.13 1.13 0 0 1 -1 .41c-1.22 0-1.22-.76-1.22-1.44v-1.6z" fill="#00a19b"/><path d="m82.52 193.27h2.21v.51h-1.61v.66h1.5v.56h-1.5v.8h1.67v.51h-2.27z" fill="#00a19b"/><path d="m94.48 193.27h.58l1.22 2v-2h.55v3h-.6l-1.19-1.95v1.95h-.56z" fill="#00a19b"/><path d="m86.19 195.88a.39.39 0 0 0 -.39-.39.39.39 0 0 0 0 .77.39.39 0 0 0 .39-.38z" fill="#00a19b"/><path d="m101.09 193.79a1.13 1.13 0 0 1 .35.05.27.27 0 0 1 .16.28.29.29 0 0 1 -.12.26.57.57 0 0 1 -.31.08h-.73v-.67zm.09 1.16a.78.78 0 0 1 .3.05.33.33 0 0 1 .19.33.37.37 0 0 1 -.19.37.69.69 0 0 1 -.31.05h-.73v-.75zm.11-1.67h-1.45v3h1.35a2.72 2.72 0 0 0 .42 0 .88.88 0 0 0 .34-.15.69.69 0 0 0 .21-.24.86.86 0 0 0 .14-.47.76.76 0 0 0 -.12-.44.71.71 0 0 0 -.34-.27.56.56 0 0 0 .22-.17.61.61 0 0 0 .14-.44.69.69 0 0 0 -.14-.45.89.89 0 0 0 -.77-.37z" fill="#00a19b"/><path d="m104.45 194 .38 1.18h-.76zm-1.45 2.27h.65l.21-.62h1.14l.19.62h.68l-1.06-3h-.7z" fill="#00a19b"/><path d="m106.76 193.28h.65l1.18 2.08v-2.08h.58v3h-.62l-1.21-2.12v2.12h-.58z" fill="#00a19b"/><path d="m110.49 193.28h.63v1.23l1.15-1.23h.81l-1.23 1.23 1.29 1.76h-.8l-.92-1.31-.3.31v1h-.63z" fill="#00a19b"/><path d="m77.77 188.48a6.65 6.65 0 0 1 -8.31 8.73 6.65 6.65 0 0 1 -1-12.14 6.65 6.65 0 0 1 9.35 3.41z" fill="#00a19b"/><path d="m71.88 189.63s0 0-.08 0a.08.08 0 0 0 .08 0z" fill="#fff"/><path d="m77.28 191.7h.21c0-.14-.24-.08-.32-.2a.35.35 0 0 1 .26.05s-.13 0-.1-.11a6.13 6.13 0 0 1 -1.66-.92c-.42-.24-.65-.82-1.12-1a2.16 2.16 0 0 1 -.17-.34h-.06a2.81 2.81 0 0 1 -.17-.35.36.36 0 0 0 -.29-.12c-.14.08-.37-.06-.46 0h.08s0 .08-.12.06a4.23 4.23 0 0 1 -.76-.82c.11-.34-.32-.42-.48-.67s-.51 0-.74.07a6.21 6.21 0 0 0 -1.14-.22c-.16 0-.25.22-.33.33-.24.34-.35.76-.62 1.1-.08.15-.28.08-.39.19a1.24 1.24 0 0 0 -.64.2s0 .07-.07 0a2 2 0 0 1 -.21.32c-.2.27-.56.35-.84.51a3.68 3.68 0 0 0 -1 .71c-.15.22-.36.34-.5.54.14 0 .12-.21.29-.19s-.09.15-.11.22.12-.07.17-.05-.09.12-.15.17 0 0 .07.06.18-.11.27-.06a2.22 2.22 0 0 1 -.23.22h.12s.17-.15.25-.16l-.14.2.16-.12c0 .05-.1.1 0 .15s.15-.18.25-.23c0 .11-.13.19-.18.28s.21-.09.18-.2a1.94 1.94 0 0 0 .32-.32c.29-.33.5-.67.93-.76.24-.2.61-.2.83-.45 0-.05.11-.16.2-.13a.1.1 0 0 1 .13-.08v.05c.18-.21.5-.13.64-.34a1.11 1.11 0 0 0 .48-.43 1.26 1.26 0 0 1 .23-.34 1.24 1.24 0 0 1 .22-.34.86.86 0 0 1 .39 0c.16.22.44.1.67.11 0 .12.13 0 .15.12.2.1.26.4.43.56a.56.56 0 0 0 -.26.32c-.12 0-.08.13-.11.19a.15.15 0 0 1 .14 0c-.2.1-.4.24-.6.36l-.15.14s0 0 0 0c.07 0 .13-.09.18 0s0 0 0 0 .15 0 .19 0l-.32.26h.11c0 .12-.19.08-.26.19.08 0 0 .09 0 .1s.11-.08.18 0-.16.11-.18.22c.1-.05.15-.22.27-.16s-.08 0 0 .12.09-.08.16-.05a0 0 0 0 1 0 .05c0-.07.15 0 .21-.05.18-.26.54-.22.8-.34v-.07c0-.16.28-.12.41-.18s.25 0 .31-.19.15 0 .23 0 .25 0 .34-.1c.25-.05.46.26.61.41a3.61 3.61 0 0 0 1.22.91c-.22-.16-.46-.27-.68-.45h.08c.19.14.39.25.59.39a5.21 5.21 0 0 0 1.36.71l-.07-.06s0 0 0 0h.1s.08 0 .12-.06-.24-.17-.36-.23a5.22 5.22 0 0 1 -1.07-.62 9.22 9.22 0 0 0 1.22.6c.06.13.17.05.27.09s.03.27.03.23z" fill="#fff"/><path d="m71.59 189.82h-.07c0 .11-.09.08-.13.12l-.1.08c0 .11-.18 0-.19.15s.17-.12.29-.11.13-.18.2-.24z" fill="#fff"/><path d="m71.16 189.91c-.07 0-.12 0-.15.11a.25.25 0 0 0 .15-.11z" fill="#fff"/><path d="m94.15 190.17h1.31v-3.82h.94v5.09h-.94v-.35l-3.61-.01-.01.33h-.97v-5.1h.97v3.86l1.33-.01v-4.69h.98z" fill="#00a19b"/><path d="m85.78 190.47v-1.68h2.01v-.92l-2.01-.01v-1.33h2.15l.01-.95h-5.28v.95h2.13v1.33h-1.99v.93h1.99v1.68h-2.43v.94h5.84v-.94z" fill="#00a19b"/><path d="m86.68 189.08a.58.58 0 0 0 -.4.49.56.56 0 0 0 .13.42.58.58 0 0 0 .62.18.57.57 0 0 0 .38-.39.63.63 0 0 0 -.07-.47.59.59 0 0 0 -.66-.23z" fill="#00a19b"/><path d="m100.71 189.27h.95v.6h-.95z" fill="#00a19b" transform="matrix(.21303039 -.97704557 .97704557 .21303039 -105.59 248.06)"/><path d="m104.11 190c.69-.51.83-.6.83-.6l-.56-.56a7.79 7.79 0 0 0 -.67.43 3.3 3.3 0 0 1 -.11-.62h1v-3h-2.86v4.87h-.28v-.38l-.78.13v-1.4h.86v-.76h-.86v-.29h.63v-.38l.4-.9a2.09 2.09 0 0 1 -1-1.07h-.81a2.5 2.5 0 0 1 -1.07 1.25l.39.89.17-.15v.31h.5v.29h-.89v.76h.93v1.53l-1 .17v.84l2.4-.46v.44l1.93-.33v-.77a2.86 2.86 0 0 0 1.22 1.12l.41-.8a3.57 3.57 0 0 1 -.78-.56zm-4.24-2.92a3.28 3.28 0 0 0 .46-.59 3.41 3.41 0 0 0 .5.59zm2.71-.63h1.19v.4h-1.19zm0 3.89v-1.69h.25a3.16 3.16 0 0 0 .39 1.58zm0-2.39v-.4h1.19v.4z" fill="#00a19b"/><path d="m99.73 190.13-.14-1.01-.62.11.14 1.02z" fill="#00a19b"/><path d="m109.45 185.54h3.33v.89h-3.33z" fill="#00a19b"/><path d="m113 187.46h-3.87l-.66-.46a6.56 6.56 0 0 1 -1.44 1.69l.41 1s.19-.16.45-.42v2.12h.91v-3.18c.11-.16.22-.33.31-.49v.65h2.07v2a.13.13 0 0 1 -.13.13h-1l.35.89h1.09a.67.67 0 0 0 .67-.67v-2.35h.84z" fill="#00a19b"/><path d="m109.15 186c-.26-.17-.51-.36-.76-.53a5.85 5.85 0 0 1 -1.28 1.21l.42.88a6.86 6.86 0 0 0 1.62-1.56z" fill="#00a19b"/><path d="m31.71 278.69a15.39 15.39 0 0 1 -19.23 20.19 15.4 15.4 0 0 1 -2.41-28.1 15.4 15.4 0 0 1 21.64 7.91z" fill="#00a19b"/><path d="m30.56 286.13h.49c-.09-.31-.55-.18-.73-.47a.92.92 0 0 1 .61.13c-.1-.06-.31-.06-.25-.25a15.16 15.16 0 0 1 -3.84-2.12c-1-.56-1.5-1.91-2.6-2.29a6.3 6.3 0 0 1 -.39-.78l-.12.06a4.42 4.42 0 0 1 -.4-.82.82.82 0 0 0 -.67-.28c-.34.19-.85-.12-1.07.06l.18.1c-.06.09-.12.19-.27.15a10.37 10.37 0 0 1 -1.77-1.91c.27-.78-.73-1-1.1-1.54-.52-.41-1.19 0-1.71.16a14.43 14.43 0 0 0 -2.65-.5c-.37.09-.58.5-.76.75-.55.79-.8 1.76-1.44 2.54-.18.35-.64.19-.88.44a2.86 2.86 0 0 0 -1.5.47c0 .07-.06.16-.15.13a5.1 5.1 0 0 1 -.49.72c-.46.63-1.31.82-2 1.19a8.81 8.81 0 0 0 -2.23 1.63c-.33.5-.82.78-1.16 1.25.34-.09.28-.5.67-.44.1.25-.21.35-.24.5a.67.67 0 0 1 .4-.12c-.06.19-.22.28-.37.41.15-.07.12.09.18.12s.4-.25.61-.12c-.18.18-.39.4-.51.5.12 0 .21 0 .27-.09.21 0 .4-.35.58-.38l-.34.47.37-.28c.09.12-.21.22-.06.34.27-.12.33-.41.58-.53 0 .25-.31.44-.43.66.12-.13.49-.22.43-.47a4.05 4.05 0 0 0 .73-.76c.67-.75 1.16-1.53 2.17-1.75a0 0 0 0 1 0 0c.55-.47 1.4-.47 1.92-1 .09-.12.24-.37.46-.31v-.06a.25.25 0 0 1 .3-.19v.12c.43-.5 1.16-.31 1.5-.78v.06a2.54 2.54 0 0 0 1.1-1 2.9 2.9 0 0 1 .54-.79 3.39 3.39 0 0 1 .49-.78 2.2 2.2 0 0 1 .92 0c.36.5 1 .22 1.55.25 0 .28.31 0 .34.28.46.22.61.91 1 1.29a1.24 1.24 0 0 0 -.61.75c-.29 0-.18.29-.25.43a.32.32 0 0 1 .31.11l-.09.09a14.28 14.28 0 0 0 -1.38.82l.06.06c-.12.09-.24.25-.33.31h.09c-.05 0-.1.06-.08.13h.1c.15 0 .31-.22.43-.1s0 .07 0 .1c.15-.22.33 0 .42 0-.21.19-.48.41-.73.6h.25c-.1.28-.43.18-.58.43.18 0 .06.23 0 .26.12 0 .24-.19.39-.1-.09.22-.36.25-.39.5.21-.12.33-.5.61-.37 0 .09-.19.12-.09.28.12 0 .21-.19.36-.12s.12.06.09.12c.13-.16.37 0 .49-.12.43-.6 1.25-.51 1.86-.79v-.16c.09-.37.64-.28.95-.41.09-.37.58-.09.73-.43.18-.16.34.06.52.06s.58-.1.79-.22c.58-.13 1.07.59 1.4.94a8.76 8.76 0 0 0 2.84 2.1c-.52-.37-1.06-.62-1.58-1 0-.1.12-.06.18-.06.46.34.91.59 1.37.9a12.15 12.15 0 0 0 3.14 1.65l-.15-.13s0-.09 0-.12l.22.12c0-.12.18-.12.27-.15-.15-.29-.55-.38-.82-.54a11.29 11.29 0 0 1 -2.47-1.42 20.28 20.28 0 0 0 2.96 1.38c.15.31.4.13.64.22-.06.01-.18.01-.18-.09z" fill="#fff"/><path d="m18.08 281.34a.29.29 0 0 0 -.18.11c.1-.01.16-.05.18-.11z" fill="#fff"/><path d="m17.39 281.79-.15-.06c.09.25-.22.19-.31.29v-.1l-.25.19c0 .26-.4.1-.43.35.22 0 .4-.29.68-.25 0-.21.31-.29.46-.42z" fill="#fff"/><path d="m16.41 282c-.16.1-.28.1-.34.26a.5.5 0 0 0 .34-.26z" fill="#fff"/><path d="m4.73 316.1a.39.39 0 1 0 -.39.39.38.38 0 0 0 .39-.39z" fill="#00a19b"/><path d="m.4 313.3h2.42v.55h-1.77v.73h1.65v.55h-1.65v.87h1.83v.55h-2.48z" fill="#00a19b"/><path d="m7.13 315.44a.65.65 0 0 0 .7.62c.46 0 .64-.24.64-.45s-.22-.33-.82-.47c-.32-.08-1-.26-1-1 0-.35.23-.9 1.18-.9.64 0 1.22.25 1.24 1h-.65c0-.17-.08-.48-.6-.48-.19 0-.54.06-.54.33s.2.3.72.42 1.17.28 1.17 1.07a1 1 0 0 1 -.53.86 2 2 0 0 1 -.77.14 1.18 1.18 0 0 1 -1.34-1.11z" fill="#00a19b"/><path d="m11.39 313.3v1.76a1.39 1.39 0 0 0 .09.71.6.6 0 0 0 .57.28c.63 0 .63-.39.63-.95v-1.8h.66v1.7a2.14 2.14 0 0 1 -.18 1.16 1.22 1.22 0 0 1 -1.09.45c-1.33 0-1.33-.83-1.33-1.58v-1.73z" fill="#00a19b"/><path d="m14.93 313.3h.64l1.33 2.18v-2.18h.61v3.26h-.66l-1.31-2.12v2.12h-.61z" fill="#00a19b"/><path d="m23 313.3h2.24v.55h-1.58v.78h1.34v.55h-1.34v1.38h-.66z" fill="#00a19b"/><path d="m27 313.3h.65v1.29h1.35v-1.29h.66v3.26h-.66v-1.42h-1.34v1.42h-.66z" fill="#00a19b"/><path d="m34 315.55a1.28 1.28 0 0 1 -1.34 1.05 1.48 1.48 0 0 1 -1.52-1.6 1.5 1.5 0 0 1 1.51-1.7 1.37 1.37 0 0 1 1 .37 1.2 1.2 0 0 1 .3.58l-.65.15a.66.66 0 0 0 -.68-.54c-.81 0-.81.89-.81 1.09a1.61 1.61 0 0 0 .17.82.74.74 0 0 0 .63.32c.44 0 .64-.33.72-.69z" fill="#00a19b"/><path d="m13.39 309.74h1.41v-4.11h1.01v5.56h-1.01v-.46l-3.88-.01v.47h-1.05v-5.6h1.04v4.15l1.43-.01v-5.04h1.05z" fill="#00a19b"/><path d="m3.93 310.07v-1.81h2.16v-.99l-2.16-.01v-1.43h2.31v-1.02h-5.67v1.02h2.29v1.43h-2.14v1h2.14v1.81h-2.61v1h6.27v-1z" fill="#00a19b"/><path d="m4.89 308.57a.63.63 0 0 0 -.43.52.61.61 0 0 0 .14.46.63.63 0 0 0 .67.2.65.65 0 0 0 .41-.43.66.66 0 0 0 -.08-.5.62.62 0 0 0 -.71-.25z" fill="#00a19b"/><path d="m24 309.06-.76-.28h1v-.84h-1.91v-.41h.92v-.53a7.17 7.17 0 0 0 1.48.9l.63-1a5.06 5.06 0 0 1 -2.88-2.15l.05-.09-1.24-.12a4.74 4.74 0 0 1 -2.62 2.56l.45 1a10.61 10.61 0 0 0 1.33-.93v.34h.91v.41h-1.89v.84h1.07l-.77.29.36 1.14h-1.13v.86h5.79v-.86h-1.32c.07-.14.53-1.07.53-1.13zm-3-2.37a10.81 10.81 0 0 0 .91-1 6.62 6.62 0 0 0 .95 1zm-.75 3.52.87-.33-.52-1.1h.75v1.43zm2.07-1.43h.75l-.51 1.09.84.34h-1.07z" fill="#00a19b"/><path d="m30.92 306.36h2.19v.6h.84v-.6-.21-.56h-1.52v-.88h-.84v.88h-1.51v.56.21.6h.84z" fill="#00a19b"/><path d="m32.43 309.19h1v-.59l.2.15.63-.56a3.35 3.35 0 0 1 -1.37-1.51l-.73.33a5.44 5.44 0 0 0 1 1.38h-2.34a5.25 5.25 0 0 0 1-1.38l-.73-.33a3.45 3.45 0 0 1 -1.09 1.37v-.61l-.6.13v-.68h.56v-.89h-.56v-1.33h-.86v1.33h-.84v.85h.82v.87l-.94.21.16.93.78-.21v1.43a.17.17 0 0 1 -.16.17h-.44l.35.89h.27a.85.85 0 0 0 .84-.85v-1.88l.51-.14.49.44.2-.15v.59h1v1.09h-1.58v.81h4.08v-.81h-1.65z" fill="#00a19b"/><path d="m97 279a15.8 15.8 0 0 1 -19.7 20.67 15.8 15.8 0 0 1 -2.48-28.84 15.8 15.8 0 0 1 22.18 8.17z" fill="#00a19b"/><path d="m83.05 281.67a.31.31 0 0 0 -.19.11c.14-.01.14-.05.19-.11z" fill="#fff"/><path d="m95.86 286.59h.5c-.09-.32-.56-.19-.75-.48a.86.86 0 0 1 .63.13c-.1-.06-.32-.06-.25-.25a15.51 15.51 0 0 1 -3.99-2.21c-1-.58-1.53-2-2.66-2.36a6 6 0 0 1 -.41-.8l-.12.06a5.41 5.41 0 0 1 -.41-.84.87.87 0 0 0 -.69-.29c-.34.2-.88-.12-1.1.07l.19.1c-.06.09-.12.19-.28.16a11 11 0 0 1 -1.82-2c.29-.8-.75-1-1.12-1.58-.54-.42-1.23 0-1.76.16a16 16 0 0 0 -2.72-.51c-.38.1-.6.51-.79.77-.56.81-.81 1.81-1.47 2.61-.19.36-.66.19-.91.45a2.89 2.89 0 0 0 -1.53.49c0 .06-.06.16-.16.12a4.66 4.66 0 0 1 -.5.75c-.47.64-1.34.83-2 1.22a8.67 8.67 0 0 0 -2.29 1.68c-.34.51-.84.8-1.19 1.29.35-.1.28-.52.69-.46.09.26-.22.36-.25.52.13-.06.28-.16.41-.13a1 1 0 0 1 -.38.42c.16-.06.13.1.19.13s.41-.26.63-.13c-.19.19-.41.42-.54.52.13 0 .22 0 .29-.1s.4-.35.59-.38l-.34.48.45-.2c.1.13-.22.22-.06.35.28-.13.34-.42.59-.54 0 .25-.31.45-.43.67.12-.13.5-.22.43-.48a4.61 4.61 0 0 0 .76-.77c.68-.78 1.19-1.58 2.22-1.81.56-.48 1.44-.48 2-1.06.1-.13.25-.39.47-.32v-.04a.26.26 0 0 1 .32-.19v.13c.44-.52 1.19-.32 1.53-.81v.07a2.57 2.57 0 0 0 1.13-1 20.82 20.82 0 0 0 1.04-1.64 2.13 2.13 0 0 1 .94 0c.38.51 1 .22 1.6.26 0 .29.31 0 .35.29.46.22.62.93 1 1.32a1.28 1.28 0 0 0 -.63.77c-.29 0-.18.29-.25.44a.3.3 0 0 1 .31.11l-.09.09c-.47.23-.94.55-1.41.84l.07.07c-.13.09-.26.25-.35.32h.11s-.1.07-.07.14h.09c.15 0 .31-.23.43-.1s0 .07 0 .1c.16-.23.35 0 .44 0-.22.19-.5.42-.75.61h.25c-.09.29-.44.2-.59.45.18 0 .06.23 0 .26.12 0 .25-.19.4-.1-.09.23-.37.26-.4.52.22-.13.34-.52.62-.39 0 .1-.18.13-.09.29.12 0 .22-.19.37-.13s.13.07.1.13c.12-.16.37 0 .5-.13.44-.61 1.28-.51 1.91-.8v-.16c.09-.39.66-.29 1-.42.09-.39.6-.1.75-.45.19-.16.35.06.53.06s.6-.1.82-.22c.59-.13 1.09.61 1.44 1a8.73 8.73 0 0 0 2.91 2.16c-.53-.39-1.09-.64-1.63-1.06 0-.1.13-.07.19-.07.47.36.94.62 1.41.94a12.49 12.49 0 0 0 3.23 1.69l-.16-.13s0-.1 0-.13l.22.13c0-.13.19-.13.28-.16-.16-.29-.56-.39-.84-.55a11.53 11.53 0 0 1 -2.54-1.46 20.33 20.33 0 0 0 2.88 1.43c.16.33.41.13.66.23-.01-.06-.15-.06-.15-.16z" fill="#fff"/><path d="m82.35 282.13-.16-.06c.09.26-.23.19-.32.29v-.1l-.26.2c0 .26-.41.1-.44.36.22 0 .41-.29.7-.26 0-.2.32-.3.48-.43z" fill="#fff"/><path d="m81.33 282.33c-.16.1-.28.1-.35.26a.48.48 0 0 0 .35-.26z" fill="#fff"/><path d="m71.15 316.43a.68.68 0 0 0 .72.63c.46 0 .64-.24.64-.45s-.22-.34-.83-.48c-.32-.09-1.05-.27-1.05-1 0-.36.24-.91 1.2-.91.64 0 1.22.25 1.25 1h-.66c0-.17-.08-.48-.6-.48-.2 0-.55.06-.55.33s.2.3.73.42 1.17.28 1.17 1.09a1 1 0 0 1 -.53.86 2 2 0 0 1 -.78.14 1.19 1.19 0 0 1 -1.35-1.12z" fill="#00a19b"/><path d="m75 314.26v1.74a1.55 1.55 0 0 0 .08.71.63.63 0 0 0 .59.29c.63 0 .63-.4.63-1v-1.82h.7v1.82a2.16 2.16 0 0 1 -.19 1.17 1.23 1.23 0 0 1 -1.09.45c-1.35 0-1.35-.83-1.35-1.59v-1.76z" fill="#00a19b"/><path d="m65.12 314.26h2.45v.56h-1.78v.73h1.65v.56h-1.65v.89h1.84v.56h-2.51z" fill="#00a19b"/><path d="m78.35 314.26h.65l1.34 2.2v-2.2h.66v3.3h-.67l-1.33-2.15v2.15h-.61z" fill="#00a19b"/><path d="m69.24 317.22a.39.39 0 0 0 -.39-.4.4.4 0 0 0 -.4.4.39.39 0 0 0 .4.39.38.38 0 0 0 .39-.39z" fill="#00a19b"/><path d="m85.65 314.83a1.37 1.37 0 0 1 .39.05.36.36 0 0 1 0 .6.61.61 0 0 1 -.35.09h-.8v-.74zm.1 1.28a1.22 1.22 0 0 1 .33.06.36.36 0 0 1 .21.36.42.42 0 0 1 -.21.41.8.8 0 0 1 -.34.06h-.81v-.89zm.12-1.85h-1.6v3.31h1.49a2.34 2.34 0 0 0 .47-.05.89.89 0 0 0 .37-.16 1.2 1.2 0 0 0 .24-.26 1 1 0 0 0 .14-.53.82.82 0 0 0 -.13-.48.68.68 0 0 0 -.37-.29.86.86 0 0 0 .25-.19.75.75 0 0 0 .15-.49.82.82 0 0 0 -.16-.51 1 1 0 0 0 -.85-.35z" fill="#00a19b"/><path d="m89.37 315 .41 1.3h-.84zm-1.57 2.55h.73l.22-.68h1.25l.21.68h.75l-1.16-3.31h-.8z" fill="#00a19b"/><path d="m91.91 314.26h.72l1.31 2.3v-2.3h.64v3.31h-.68l-1.35-2.35v2.35h-.64z" fill="#00a19b"/><path d="m96 314.26h.69v1.36l1.31-1.36h.89l-1.35 1.37 1.46 1.94h-.89l-1-1.44-.33.33v1.11h-.78z" fill="#00a19b"/><path d="m78.15 310.83h1.45v-4.22h1.04v5.62h-1.04v-.38l-3.99-.01-.01.36h-1.07v-5.64h1.07v4.27l1.47-.01v-5.18h1.08z" fill="#00a19b"/><path d="m68.73 311.16v-1.86h2.22v-1.01l-2.22-.02v-1.46h2.38v-1.06h-5.83v1.06h2.35v1.46h-2.2v1.03h2.2v1.86h-2.68v1.04h6.45v-1.04z" fill="#00a19b"/><path d="m69.72 309.62a.64.64 0 0 0 -.3 1 .64.64 0 0 0 1.11-.24.68.68 0 0 0 -.08-.51.64.64 0 0 0 -.73-.25z" fill="#00a19b"/><path d="m85.4 309.84h1.05v.67h-1.05z" fill="#00a19b" transform="matrix(.21303039 -.97704557 .97704557 .21303039 -235.43 328.07)"/><path d="m89.16 310.6.91-.66-.61-.62s-.53.34-.74.48a3.18 3.18 0 0 1 -.12-.69h1.11v-3.34h-3.16v5.37l-.31.06v-.42l-.86.15v-1.55h1v-.84h-1v-.32h.69v-.42l.06.05.44-1a2.41 2.41 0 0 1 -1.12-1.2h-.89a2.69 2.69 0 0 1 -1.18 1.39l.43 1 .19-.16v.34h.55v.32h-1v.84h1v1.69l-1 .19v.93l2.65-.51v.49l2.12-.37v-.85a3.09 3.09 0 0 0 1.35 1.24l.45-.88a4.38 4.38 0 0 1 -.96-.71zm-4.68-3.22a4 4 0 0 0 .51-.65 3 3 0 0 0 .55.65zm3-.69h1.31v.44h-1.32zm0 4.29v-1.87h.28a3.51 3.51 0 0 0 .43 1.75zm0-2.64v-.44h1.31v.44z" fill="#00a19b"/><path d="m84.32 310.78-.15-1.12-.7.13.16 1.13z" fill="#00a19b"/><path d="m95 305.71h3.68v.98h-3.68z" fill="#00a19b"/><path d="m99 307.83h-4.33l-.72-.51a7.34 7.34 0 0 1 -1.59 1.87l.45 1.08s.21-.18.5-.47v2.34h1v-3.51a6.37 6.37 0 0 0 .35-.55v.73h2.28v2.19a.14.14 0 0 1 -.14.14h-1.16l.39 1h1.2a.74.74 0 0 0 .74-.74v-2.59h1z" fill="#00a19b"/><path d="m94.67 306.2c-.29-.19-.57-.4-.85-.59a6.16 6.16 0 0 1 -1.41 1.39l.47 1a7.69 7.69 0 0 0 1.79-1.8z" fill="#00a19b"/><path d="m10.57 337h-.7v-4.49a3.14 3.14 0 0 1 -.67.49 4.49 4.49 0 0 1 -.74.36v-.68a4.22 4.22 0 0 0 1-.67 2.69 2.69 0 0 0 .62-.76h.45z" fill="#208ec5"/><path d="m16.07 336.35v.65h-3.79a1.33 1.33 0 0 1 .09-.49 2.45 2.45 0 0 1 .46-.76 7.3 7.3 0 0 1 .92-.87 8.31 8.31 0 0 0 1.25-1.18 1.45 1.45 0 0 0 .33-.85 1 1 0 0 0 -.3-.71 1.08 1.08 0 0 0 -.78-.28 1.09 1.09 0 0 0 -.81.3 1.18 1.18 0 0 0 -.31.85l-.72-.08a1.74 1.74 0 0 1 .59-1.23 1.9 1.9 0 0 1 1.3-.42 1.82 1.82 0 0 1 1.3.45 1.53 1.53 0 0 1 .48 1.14 1.79 1.79 0 0 1 -.14.67 2.45 2.45 0 0 1 -.47.7 9.64 9.64 0 0 1 -1.08 1 10.49 10.49 0 0 0 -.81.72 2.08 2.08 0 0 0 -.3.38z" fill="#208ec5"/><path d="m16.89 337v-3.12h.47v.44a1.26 1.26 0 0 1 .39-.37 1.1 1.1 0 0 1 .55-.14 1 1 0 0 1 .57.15.73.73 0 0 1 .31.4 1.14 1.14 0 0 1 1-.55.94.94 0 0 1 .71.26 1.07 1.07 0 0 1 .25.79v2.14h-.52v-2a1.57 1.57 0 0 0 0-.46.45.45 0 0 0 -.19-.22.55.55 0 0 0 -.32-.09.72.72 0 0 0 -.54.22 1 1 0 0 0 -.22.7v1.85h-.52v-2a.9.9 0 0 0 -.13-.52.5.5 0 0 0 -.43-.18.78.78 0 0 0 -.41.12.71.71 0 0 0 -.27.34 1.84 1.84 0 0 0 -.09.65v1.59z" fill="#208ec5"/><path d="m21.88 337v-3.12h.48v.44a1.07 1.07 0 0 1 .39-.37 1.1 1.1 0 0 1 .55-.14 1 1 0 0 1 .57.15.78.78 0 0 1 .31.4 1.13 1.13 0 0 1 1-.55.94.94 0 0 1 .71.26 1.07 1.07 0 0 1 .25.79v2.14h-.52v-2a1.23 1.23 0 0 0 -.06-.46.39.39 0 0 0 -.18-.22.57.57 0 0 0 -.32-.09.7.7 0 0 0 -.54.22 1 1 0 0 0 -.22.7v1.85h-.53v-2a.83.83 0 0 0 -.13-.52.47.47 0 0 0 -.42-.18.75.75 0 0 0 -.41.12.66.66 0 0 0 -.27.34 1.84 1.84 0 0 0 -.09.65v1.59z" fill="#208ec5"/><path d="m33.93 326.05h-33.78v-5.56h.17v5.39h33.44v-5.39h.17z" fill="#00b2e1"/><path d="m75.29 337h-.7v-4.49a3.14 3.14 0 0 1 -.67.49 4.49 4.49 0 0 1 -.74.36v-.68a4.16 4.16 0 0 0 1-.67 2.75 2.75 0 0 0 .63-.76h.45z" fill="#208ec5"/><path d="m80.79 336.35v.65h-3.79a1.33 1.33 0 0 1 .08-.49 2.5 2.5 0 0 1 .47-.76 6.66 6.66 0 0 1 .92-.87 8.31 8.31 0 0 0 1.26-1.21 1.45 1.45 0 0 0 .33-.85 1 1 0 0 0 -.3-.71 1.08 1.08 0 0 0 -.78-.28 1.09 1.09 0 0 0 -.81.3 1.14 1.14 0 0 0 -.31.85l-.73-.08a1.78 1.78 0 0 1 .56-1.23 1.93 1.93 0 0 1 1.3-.42 1.84 1.84 0 0 1 1.31.45 1.53 1.53 0 0 1 .48 1.14 1.79 1.79 0 0 1 -.14.67 2.68 2.68 0 0 1 -.47.7 11.87 11.87 0 0 1 -1.08 1c-.42.35-.7.59-.82.72a2 2 0 0 0 -.29.38z" fill="#208ec5"/><path d="m81.6 337v-3.12h.48v.44a1.12 1.12 0 0 1 .38-.37 1.16 1.16 0 0 1 .56-.14 1 1 0 0 1 .56.15.75.75 0 0 1 .32.4 1.11 1.11 0 0 1 1-.55 1 1 0 0 1 .71.26 1.07 1.07 0 0 1 .25.79v2.14h-.53v-2a1.28 1.28 0 0 0 -.05-.46.39.39 0 0 0 -.18-.22.57.57 0 0 0 -.32-.09.7.7 0 0 0 -.54.22 1 1 0 0 0 -.22.7v1.85h-.53v-2a.83.83 0 0 0 -.13-.52.47.47 0 0 0 -.42-.18.75.75 0 0 0 -.41.12.61.61 0 0 0 -.27.34 1.84 1.84 0 0 0 -.09.65v1.59z" fill="#208ec5"/><path d="m86.6 337v-3.12h.47v.44a1.26 1.26 0 0 1 .39-.37 1.13 1.13 0 0 1 .56-.14 1 1 0 0 1 .56.15.8.8 0 0 1 .32.4 1.11 1.11 0 0 1 1-.55 1 1 0 0 1 .71.26 1.12 1.12 0 0 1 .25.79v2.14h-.53v-2a1.28 1.28 0 0 0 -.05-.46.39.39 0 0 0 -.18-.22.57.57 0 0 0 -.32-.09.74.74 0 0 0 -.55.22 1 1 0 0 0 -.21.7v1.85h-.53v-2a.83.83 0 0 0 -.13-.52.48.48 0 0 0 -.42-.18.73.73 0 0 0 -.41.12.67.67 0 0 0 -.28.34 2.15 2.15 0 0 0 -.08.65v1.59z" fill="#208ec5"/><path d="m98.65 326.05h-33.79v-5.56h.18v5.39h33.44v-5.39h.17z" fill="#00b2e1"/></svg>