<svg viewBox="0 0 356.2 326.25" xmlns="http://www.w3.org/2000/svg"><path d="m4.21 1.59v-1.43c0-.07 0-.1.14-.1.44 0 .66 0 .66.1s0 .12-.09.13-.08.07-.08.17v1.13h2.86c.11 0 .17 0 .17.1v3.85c0 .07-.06.1-.17.1h-.34c-.08 0-.12 0-.12-.1v-.63h-2.4v2.76c0 .06-.06.1-.16.1h-.33c-.1 0-.14 0-.14-.1v-2.76h-2.56v.6c0 .07-.06.1-.16.1h-.33c-.09 0-.14 0-.14-.1v-3.78a.13.13 0 0 1 .14-.14zm0 2.72v-2.13h-2.56v2.13zm.63 0h2.4v-2.13h-2.4z" fill="#231815"/><path d="m13.54.09c0 .08 0 .12-.08.13s-.09.07-.09.17v1h3.22c.07 0 .11 0 .11.09v.34c0 .09 0 .13-.11.13h-1.37c-.1.37-.21.72-.32 1.06a5.59 5.59 0 0 1 -.69 1.36 6.65 6.65 0 0 1 -.84 1.09h.05a5 5 0 0 0 1.36.86 8.76 8.76 0 0 0 2 .68c.09 0 .13.06.13.1a.26.26 0 0 1 0 .1 2.21 2.21 0 0 0 -.35.34s-.08.08-.1.08a.83.83 0 0 1 -.25-.09c-.37-.13-.78-.28-1.22-.46a9.86 9.86 0 0 1 -1.48-.83l-.48-.39a6.52 6.52 0 0 1 -.85.64 8 8 0 0 1 -1.3.71c-.39.15-.82.29-1.27.42a.14.14 0 0 1 -.12-.06l-.41-.36a.28.28 0 0 1 -.08-.09s0-.07.09-.1a7 7 0 0 0 1.35-.38 9.1 9.1 0 0 0 1.08-.56 5.54 5.54 0 0 0 .9-.67 2.68 2.68 0 0 1 -.23-.26 4.19 4.19 0 0 1 -.85-1.34 8.48 8.48 0 0 1 -.7-1.88h-1.35c-.06 0-.1 0-.1-.13v-.34c0-.06 0-.09.1-.09h3.46v-1.27c0-.06 0-.09.13-.09q.66 0 .66.09zm-1.88 3a5.56 5.56 0 0 0 .79 1.41 3.37 3.37 0 0 0 .42.49 4.72 4.72 0 0 0 .85-1.07 4.47 4.47 0 0 0 .58-1.05 8.58 8.58 0 0 0 .32-.94h-3.34a5.85 5.85 0 0 0 .38 1.15z" fill="#231815"/><path d="m19.32.2c.09 0 .13.08.13.13s0 .08-.13.1a.19.19 0 0 0 -.2.11.09.09 0 0 0 0 .06h2.22c.05 0 .07 0 .07.1v.3c0 .07 0 .1-.07.1h-1.2c.15.17.31.35.44.53s0 .13 0 .14a1 1 0 0 1 -.45.19 8.75 8.75 0 0 0 -.6-.86h-.69a4.39 4.39 0 0 1 -.57.7.26.26 0 0 1 -.16.09.24.24 0 0 1 -.15-.05l-.32-.14h-.06s0 0 0-.06a6.91 6.91 0 0 0 .67-.68 2.9 2.9 0 0 0 .47-.77c0-.07.07-.11.11-.11zm1.46 1.8c.08 0 .13 0 .13.1v2.24c0 .07-.05.11-.13.11h-2.36v3.25c0 .07-.05.1-.13.1h-.29c-.09 0-.13 0-.13-.1v-5.58c0-.06 0-.1.13-.1zm-.46 1v-.51h-1.9v.51zm0 1v-.5h-1.9v.5zm2.42.9c.09 0 .13 0 .13.1v2.6c0 .07 0 .1-.13.1h-.33c-.07 0-.1 0-.1-.1v-.2h-1.92v.2c0 .07-.06.1-.14.1h-.33c-.07 0-.1 0-.1-.1v-2.6c0-.07 0-.1.1-.1zm-.43 1v-.56h-1.92v.57zm0 1v-.53h-1.92v.57zm.74-6.7c.08 0 .12.08.12.13s0 .08-.12.1a.19.19 0 0 0 -.2.11s0 0 0 .06h2.35s.06 0 .06.1v.3c0 .07 0 .1-.06.1h-1.26a5.62 5.62 0 0 1 .46.53v.14a.89.89 0 0 1 -.44.19 8.36 8.36 0 0 0 -.64-.86h-.73a3.88 3.88 0 0 1 -.55.7.24.24 0 0 1 -.15.09.24.24 0 0 1 -.14-.05l-.32-.14h-.07s0 0 .05-.06a5 5 0 0 0 .59-.76 3.08 3.08 0 0 0 .45-.77c0-.07.07-.11.11-.11zm1.75 1.8c.11 0 .17 0 .17.1v5c0 .2-.14.37-.4.49a3.91 3.91 0 0 1 -1 .18c-.06 0-.09 0-.1-.1a1.9 1.9 0 0 0 -.2-.53s0 0 .09 0a2.2 2.2 0 0 0 .83-.08.24.24 0 0 0 .14-.23v-2.38h-2.39c-.09 0-.13 0-.13-.11v-2.22c0-.06 0-.1.13-.1zm-.44 1v-.51h-1.95v.51zm0 1v-.5h-1.95v.5z" fill="#231815"/><path d="m27.92.93v1.39h1s.07 0 .07.1v.27c0 .09 0 .13-.07.13h-.92a5.92 5.92 0 0 0 .31.85 4.55 4.55 0 0 0 .62 1s.05 0 .05.09l-.06.06a1.2 1.2 0 0 1 -.22.24.14.14 0 0 1 -.09.06s-.05 0-.08-.06a5.22 5.22 0 0 1 -.54-1 .68.68 0 0 1 -.07-.2v3.77c0 .07 0 .1-.13.1h-.33c-.07 0-.1 0-.1-.1v-3.34c-.12.27-.23.53-.35.75a6.75 6.75 0 0 1 -.55.9c-.06 0-.11 0-.13 0l-.33-.19c-.05 0-.07 0-.07 0a5.45 5.45 0 0 0 .69-1 5 5 0 0 0 .38-1.01 7.48 7.48 0 0 0 .27-.92h-1.08c-.05 0-.07 0-.07-.13v-.27c0-.07 0-.1.07-.1h1.17v-1.26a4.85 4.85 0 0 1 -1 .1.11.11 0 0 1 -.13-.1c-.06-.12-.12-.22-.17-.3s0-.1.06-.1a5.7 5.7 0 0 0 1.31-.1 2.34 2.34 0 0 0 1.08-.46.18.18 0 0 1 .1 0s.06 0 .11.06a4.19 4.19 0 0 1 .28.33v.11h-.2a3.35 3.35 0 0 1 -.88.33zm3.25 1.89v-.5s0-.07.1-.07c.4 0 .6 0 .6.1s0 .11-.07.11-.07.06-.07.16v.2h1.5c.11 0 .17 0 .17.13v2.59h.49s.07 0 .07.1v.27c0 .09 0 .13-.07.13h-.49v1.16a.49.49 0 0 1 -.32.42 5.16 5.16 0 0 1 -.78.15.11.11 0 0 1 -.11-.1 1.61 1.61 0 0 0 -.18-.5s0 0 .06 0a2.34 2.34 0 0 0 .64 0 .22.22 0 0 0 .12-.2v-.97h-2.75v1.63c0 .07 0 .1-.13.1h-.34c-.07 0-.09 0-.09-.1v-1.63h-.52c-.05 0-.07 0-.07-.13v-.23c0-.06 0-.1.07-.1h.54v-2.62c0-.06 0-.1.09-.1zm2-2.27a8.74 8.74 0 0 1 -1 .18c-.47.07-.9.12-1.28.15s-.89.05-1.28.05c-.09 0-.15 0-.16-.11l-.23-.29c0-.07 0-.1.09-.1h.44a12.16 12.16 0 0 0 1.25-.06 5.54 5.54 0 0 0 1-.1 4 4 0 0 0 1-.27h.09a.28.28 0 0 1 .13 0c.28.25.43.41.43.47s0 .07-.1.07l-.2-.07zm-3.42.54a8.79 8.79 0 0 1 .62 1c0 .07 0 .12-.05.12a.78.78 0 0 1 -.4.18c-.21-.45-.4-.82-.57-1.13 0-.05.11-.13.33-.23a.09.09 0 0 1 .07.06zm1.42 3.06v-.84h-1.09v.84zm0 1.39v-.9h-1.09v.9zm.2-4.54a7.75 7.75 0 0 1 .5.9c0 .07 0 .12-.05.12a.93.93 0 0 1 -.42.17q-.22-.59-.42-1c0-.05.11-.13.33-.23a.09.09 0 0 1 .06.04zm.36 3.16h1.1v-.85h-1.1zm1.1 1.39v-.9h-1.1v.9zm.73-4.45c.07 0 .1.07.1.1a.08.08 0 0 1 -.07.08.12.12 0 0 0 -.11.08 4.81 4.81 0 0 1 -.46 1c-.05 0-.07.08-.09.08a.36.36 0 0 1 -.13-.05l-.28-.12h-.06v-.05a4.09 4.09 0 0 0 .34-.52 3.46 3.46 0 0 0 .25-.6c0-.05 0-.08.06-.08z" fill="#231815"/><path d="m3.74 130.86v-1.42c0-.07 0-.11.13-.11.44 0 .67 0 .67.11s0 .12-.09.12-.08.07-.08.17v1.13h2.85c.11 0 .17 0 .17.11v3.85c0 .06-.06.1-.17.1h-.33c-.09 0-.13 0-.13-.1v-.63h-2.39v2.75c0 .07-.06.1-.17.1h-.33c-.09 0-.13 0-.13-.1v-2.75h-2.56v.59c0 .07-.06.1-.16.1h-.34c-.09 0-.13 0-.13-.1v-3.78a.12.12 0 0 1 .13-.14zm0 2.72v-2.12h-2.56v2.12zm.63 0h2.39v-2.12h-2.39z" fill="#231815"/><path d="m13.07 129.37c0 .07 0 .12-.09.13s-.08.06-.08.17v1h3.22a.09.09 0 0 1 .1.1v.34c0 .08 0 .13-.1.13h-1.38c-.1.36-.21.72-.32 1.06a6 6 0 0 1 -.68 1.36 9.42 9.42 0 0 1 -.84 1.09 5.59 5.59 0 0 0 1.36.86 9.67 9.67 0 0 0 2 .68c.08 0 .12.06.12.09a.14.14 0 0 1 0 .1 3.69 3.69 0 0 0 -.35.34c0 .05-.07.09-.1.09a1.17 1.17 0 0 1 -.25-.1c-.37-.12-.78-.28-1.22-.46a8.74 8.74 0 0 1 -1.48-.83 3.89 3.89 0 0 1 -.47-.39 7.11 7.11 0 0 1 -.85.65 9.33 9.33 0 0 1 -1.3.7c-.4.15-.82.3-1.27.43a.22.22 0 0 1 -.13-.06 4.23 4.23 0 0 0 -.31-.38.14.14 0 0 1 0-.09.1.1 0 0 1 .08-.09 6.93 6.93 0 0 0 1.27-.39 8 8 0 0 0 1.09-.56 4.83 4.83 0 0 0 .89-.67l-.23-.25a4.34 4.34 0 0 1 -.85-1.35 8.22 8.22 0 0 1 -.69-1.87h-1.39c-.07 0-.1 0-.1-.13v-.34a.09.09 0 0 1 .1-.1h3.45v-1.26c0-.06 0-.1.14-.1.44 0 .66.04.66.1zm-1.89 3a6 6 0 0 0 .79 1.41 4.31 4.31 0 0 0 .43.5 5.41 5.41 0 0 0 .85-1.08 5 5 0 0 0 .58-1c.11-.29.22-.6.32-.94h-3.34a6.23 6.23 0 0 0 .37 1.09z" fill="#231815"/><path d="m19.18 130.1c-.07 0-.1 0-.1-.13v-.33c0-.07 0-.1.1-.1h1.92a.28.28 0 0 1 .2.08 4.46 4.46 0 0 0 1.14 1.59 4.36 4.36 0 0 0 2.3 1c.12 0 .18.05.18.11a.14.14 0 0 1 -.05.09 2.8 2.8 0 0 0 -.3.28.16.16 0 0 1 -.15.09 7.32 7.32 0 0 1 -.83-.28v.25c0 .08 0 .13-.1.13h-2.22v1.33h2.16a.08.08 0 0 1 .09.09v.34c0 .09 0 .13-.09.13h-2.16v1.46h3.12c.07 0 .1 0 .1.11v.33c0 .08 0 .12-.1.12h-6.94c-.07 0-.1 0-.1-.12v-.33c0-.07 0-.11.1-.11h3.18v-1.46h-2.21c-.07 0-.11 0-.11-.13v-.34c0-.05 0-.09.11-.09h2.21v-1.33h-2.32c-.06 0-.1 0-.1-.13v-.19a3.34 3.34 0 0 1 -.76.35s-.08 0-.11-.11l-.28-.31c-.06-.05-.07-.08-.07-.11a9 9 0 0 0 1.41-.6 6.58 6.58 0 0 0 1.16-.85 8.35 8.35 0 0 0 .71-.84zm4 2.23a4.47 4.47 0 0 1 -1.15-.71 5.58 5.58 0 0 1 -1.08-1.47 4.6 4.6 0 0 1 -.61.77 6.69 6.69 0 0 1 -1.65 1.41z" fill="#231815"/><path d="m27.84 132a.16.16 0 0 1 -.13.17.23.23 0 0 0 -.13.09 5.22 5.22 0 0 1 -.47.65v4c0 .07 0 .1-.13.1h-.34c-.08 0-.12 0-.12-.1v-3.36c-.19.18-.39.37-.63.57a4 4 0 0 0 -.38-.37s-.06-.07-.06-.1 0 0 0-.05a4.44 4.44 0 0 0 1.05-1 6 6 0 0 0 .69-1s0 0 .06 0a3.44 3.44 0 0 1 .59.4zm-.14-2.35a.18.18 0 0 1 .11.16s0 .07-.13.07a.2.2 0 0 0 -.2.11 7.42 7.42 0 0 1 -1.43 1.61.17.17 0 0 1 -.13-.05 1.18 1.18 0 0 0 -.25-.25.14.14 0 0 1 -.05-.09s0 0 0-.06a2 2 0 0 0 .46-.39 5 5 0 0 0 .58-.63 5.63 5.63 0 0 0 .42-.76c0-.05.05-.09.07-.09zm2.29-.1c.05 0 .08.07.08.1s-.05.09-.14.09a.22.22 0 0 0 -.17.09.43.43 0 0 1 0 .07 3.26 3.26 0 0 0 .54.64 3.21 3.21 0 0 0 .77.6c0 .07 0 .11-.06.12s-.22.19-.37.31h-.06a2.82 2.82 0 0 1 -.5-.4 6.42 6.42 0 0 1 -.62-.77l-.12.15a2.76 2.76 0 0 1 -.38.5c-.16.17-.31.32-.47.46a2.1 2.1 0 0 1 -.38.28.14.14 0 0 1 -.12-.07 1.56 1.56 0 0 0 -.23-.28s-.07 0-.07-.08 0 0 0 0a4.21 4.21 0 0 0 .54-.36 4.33 4.33 0 0 0 .58-.61 3.36 3.36 0 0 0 .33-.47 3.79 3.79 0 0 0 .24-.53s.06-.06.08-.06zm.57 2.22c.07 0 .1.05.1.13v.27c0 .09 0 .13-.1.13h-.82v1h1.13c.06 0 .09.05.09.13v.27c0 .09 0 .13-.09.13h-1.13v2.06c.41-.09.8-.19 1.17-.29h.09a.08.08 0 0 1 .07.09 2.75 2.75 0 0 1 0 .51c-.88.2-1.76.39-2.66.56-.1.15-.17.24-.23.24s-.17-.25-.34-.74c.39-.05.84-.12 1.36-.23v-2.19h-1.2c-.07 0-.1 0-.1-.13v-.27c0-.08 0-.13.1-.13h1.15v-1h-.75c-.07 0-.1 0-.1-.13v-.27c0-.08 0-.13.1-.13zm-1.94 3.23a5.5 5.5 0 0 1 .22.65s-.17.09-.5.17a4.14 4.14 0 0 0 -.16-.54 4.48 4.48 0 0 0 -.34-.75s.15-.12.44-.27c.13.29.25.54.34.74zm2.37-.65c.06 0 .11.07.11.11a.07.07 0 0 1 -.05.07s-.06 0-.06.07a6.29 6.29 0 0 1 -.3.82c0 .06-.05.07-.06.07a.21.21 0 0 1 -.13 0l-.3-.14c-.05 0-.06 0-.06 0a.11.11 0 0 1 0-.05c.08-.17.15-.32.2-.46a2.42 2.42 0 0 0 .14-.51s0-.07.05-.07zm2.37-2.71c.06 0 .09.05.09.13v.27c0 .09 0 .13-.09.13h-.64v4.22c0 .42-.35.63-1 .63h-.3s-.05-.06-.05-.16a1.57 1.57 0 0 0 -.14-.44 1.82 1.82 0 0 0 .46.06c.3 0 .47-.1.47-.29v-4h-1c-.07 0-.11 0-.11-.13v-.27c0-.08 0-.13.11-.13zm-.27-1.82c.06 0 .1 0 .1.13v.26c0 .09 0 .13-.1.13h-1.76c-.07 0-.1 0-.1-.13v-.21c0-.08 0-.13.1-.13z" fill="#231815"/><path d="m202.77.73v-.57c0-.07 0-.1.14-.1.42 0 .63 0 .63.1a.12.12 0 0 1 -.09.13c-.06 0-.08.07-.08.17v.27h2.12v-.53c0-.07 0-.11.14-.11.42 0 .63 0 .63.11a.11.11 0 0 1 -.09.12s-.07.07-.07.17v.24h2c.07 0 .1 0 .1.13v.26c0 .1 0 .14-.1.14h-2v.59c0 .07 0 .11-.14.11h-.33c-.09 0-.14 0-.14-.11v-.59h-2.12v.59c0 .07 0 .11-.13.11h-.33c-.09 0-.14 0-.14-.11v-.59h-2.15c-.07 0-.11 0-.11-.14v-.26c0-.09 0-.13.11-.13zm1.3 1.82v-.73c0-.06 0-.09 0-.09l.6.05c.09 0 .13 0 .13.07s0 .1-.08.11a.15.15 0 0 0 -.08.16v.43h2.16c.08 0 .13 0 .13.1v2h1.19c.07 0 .11 0 .11.12v.23c0 .09 0 .13-.11.13h-3.3a3.79 3.79 0 0 0 .47.63 2.79 2.79 0 0 0 .7.6 5.46 5.46 0 0 0 .79.44c.25.1.53.2.85.3l.54.11h.09a.17.17 0 0 1 -.08.13l-.27.32a.19.19 0 0 1 -.15.08 7.25 7.25 0 0 1 -1.3-.47 6.45 6.45 0 0 1 -.83-.47 4.23 4.23 0 0 1 -.73-.66 4.85 4.85 0 0 1 -.52-.71 2.07 2.07 0 0 1 -.33.56 3.42 3.42 0 0 1 -.84.8 5.88 5.88 0 0 1 -1.54.79 3.26 3.26 0 0 1 -.75.19.11.11 0 0 1 -.1-.08l-.23-.41c-.06 0-.07 0-.07 0s0 0 .06 0a6.14 6.14 0 0 0 1.2-.3 4.06 4.06 0 0 0 1-.52 2.34 2.34 0 0 0 .74-.69 1.35 1.35 0 0 0 .32-.6h-3.21c-.06 0-.1 0-.1-.13v-.3c0-.08 0-.12.1-.12h1.13v-1.93a.12.12 0 0 1 .13-.14zm-.07 2.07a3.8 3.8 0 0 0 .06-.7v-.83h-1.66v1.53zm.66-.7v.7h1.72v-1.53h-1.69z" fill="#231815"/><path d="m213.5.09c0 .08 0 .12-.08.13s-.09.07-.09.17v1h3.22c.07 0 .1 0 .1.09v.34c0 .09 0 .13-.1.13h-1.38c-.1.37-.21.72-.32 1.06a5.58 5.58 0 0 1 -.68 1.36 8 8 0 0 1 -.84 1.09 5 5 0 0 0 1.36.86 8.58 8.58 0 0 0 1.95.68c.08 0 .13.06.13.1a.19.19 0 0 1 0 .1 2.21 2.21 0 0 0 -.35.34s-.07.08-.1.08a.81.81 0 0 1 -.24-.09c-.38-.13-.79-.28-1.23-.46a11 11 0 0 1 -1.48-.83c-.18-.14-.34-.27-.47-.39a8.22 8.22 0 0 1 -.85.64 8.49 8.49 0 0 1 -1.3.71c-.39.15-.82.29-1.27.42a.18.18 0 0 1 -.13-.06c-.1-.13-.21-.26-.31-.37a.16.16 0 0 1 0-.09s0-.07.08-.1a7 7 0 0 0 1.35-.38 8.53 8.53 0 0 0 1.09-.56 5.92 5.92 0 0 0 .89-.67c-.08-.09-.16-.17-.23-.26a4.15 4.15 0 0 1 -.84-1.34 8 8 0 0 1 -.7-1.88h-1.38c-.07 0-.1 0-.1-.13v-.33c0-.06 0-.09.1-.09h3.45v-1.27c0-.06 0-.09.14-.09q.61 0 .61.09zm-1.89 3a6.25 6.25 0 0 0 .79 1.41 4.18 4.18 0 0 0 .43.49 5.34 5.34 0 0 0 .85-1.07 4.86 4.86 0 0 0 .58-1.05 8.58 8.58 0 0 0 .32-.94h-3.34a6.61 6.61 0 0 0 .37 1.15z" fill="#231815"/><path d="m219.28.2c.09 0 .13.08.13.13s0 .08-.13.1-.18 0-.2.11a.21.21 0 0 0 0 .06h2.23s.07 0 .07.1v.3c0 .07 0 .1-.07.1h-1.21c.15.17.3.35.44.53s0 .13 0 .14a1 1 0 0 1 -.45.19 7.26 7.26 0 0 0 -.61-.86h-.68a5 5 0 0 1 -.57.7.25.25 0 0 1 -.17.09.22.22 0 0 1 -.14-.05l-.32-.14c-.05 0-.06 0-.06 0s0 0 0-.06a5.72 5.72 0 0 0 .66-.68 2.71 2.71 0 0 0 .48-.77c0-.07.07-.11.11-.11zm1.45 1.8c.09 0 .14 0 .14.1v2.24c0 .07-.05.11-.14.11h-2.35v3.25c0 .07 0 .1-.14.1h-.33c-.08 0-.12 0-.12-.1v-5.58c0-.06 0-.1.12-.1zm-.45 1v-.51h-1.9v.51zm0 1v-.5h-1.9v.5zm2.42.9c.08 0 .13 0 .13.1v2.6c0 .07-.05.1-.13.1h-.33c-.07 0-.11 0-.11-.1v-.2h-1.92v.2c0 .07-.05.1-.13.1h-.33c-.07 0-.11 0-.11-.1v-2.6c0-.07 0-.1.11-.1zm-.44 1v-.56h-1.92v.57zm0 1v-.53h-1.92v.57zm.74-6.7c.09 0 .13.08.13.13s0 .08-.13.1-.17 0-.19.11a.21.21 0 0 0 0 .06h2.38s.07 0 .07.1v.3c0 .07 0 .1-.07.1h-1.29a5.62 5.62 0 0 1 .46.53c0 .08 0 .13-.06.14a.86.86 0 0 1 -.44.19 7.11 7.11 0 0 0 -.64-.86h-.72a3.88 3.88 0 0 1 -.55.7.24.24 0 0 1 -.15.09.22.22 0 0 1 -.14-.05l-.32-.14h-.07s0 0 0-.06a4.38 4.38 0 0 0 .62-.68 2.85 2.85 0 0 0 .46-.77c0-.07.07-.11.1-.11zm1.75 1.8c.12 0 .17 0 .17.1v5a.56.56 0 0 1 -.39.49 3.91 3.91 0 0 1 -1 .18.1.1 0 0 1 -.11-.1 1.55 1.55 0 0 0 -.19-.53s0 0 .08 0a2.23 2.23 0 0 0 .84-.08.24.24 0 0 0 .14-.23v-2.38h-2.39c-.09 0-.14 0-.14-.11v-2.22c0-.06.05-.1.14-.1zm-.43 1v-.51h-1.95v.51zm0 1v-.5h-1.95v.5z" fill="#231815"/><path d="m227.88.93v1.39h1s.07 0 .07.1v.27c0 .09 0 .13-.07.13h-.88a5.92 5.92 0 0 0 .31.85 4.21 4.21 0 0 0 .62 1s.05 0 .05.09l-.06.06a1.2 1.2 0 0 1 -.22.24s-.07.06-.09.06 0 0-.08-.06a4.28 4.28 0 0 1 -.54-1 .68.68 0 0 1 -.07-.2v3.77c0 .07 0 .1-.13.1h-.33c-.07 0-.11 0-.11-.1v-3.34c-.12.27-.23.53-.35.75a5.85 5.85 0 0 1 -.55.9c-.06 0-.1 0-.12 0l-.33-.19s-.06 0-.06 0a5.89 5.89 0 0 0 .68-1 5.05 5.05 0 0 0 .42-.93 7.84 7.84 0 0 0 .26-.92h-1.1c-.05 0-.07 0-.07-.13v-.35c0-.07 0-.1.07-.1h1.16v-1.26a4.75 4.75 0 0 1 -1 .1.12.12 0 0 1 -.14-.1c-.06-.12-.12-.22-.17-.3s0-.1.07-.1a5.76 5.76 0 0 0 1.31-.1 2.38 2.38 0 0 0 1.04-.46.18.18 0 0 1 .1 0s.06 0 .1.06a3.52 3.52 0 0 1 .3.37c0 .07 0 .11-.07.11h-.19a3.35 3.35 0 0 1 -.83.29zm3.25 1.89v-.5s0-.07.1-.07c.39 0 .6 0 .6.1s0 .11-.07.11-.07.06-.07.16v.2h1.5c.11 0 .17 0 .17.13v2.59h.49s.07 0 .07.1v.27c0 .09 0 .13-.07.13h-.49v1.16q0 .25-.33.42a5 5 0 0 1 -.77.15.1.1 0 0 1 -.11-.1 1.45 1.45 0 0 0 -.19-.5s0 0 .06 0a2.38 2.38 0 0 0 .65 0 .24.24 0 0 0 .12-.2v-.97h-2.79v1.63c0 .07 0 .1-.12.1h-.34c-.07 0-.1 0-.1-.1v-1.63h-.53c-.05 0-.07 0-.07-.13v-.23c0-.06 0-.1.07-.1h.53v-2.62a.09.09 0 0 1 .1-.1zm2-2.27a9 9 0 0 1 -1 .18c-.46.07-.89.12-1.27.15s-.89.05-1.28.05a.15.15 0 0 1 -.17-.11l-.23-.29c0-.07 0-.1.1-.1h.43a12 12 0 0 0 1.29-.06 5.56 5.56 0 0 0 1-.1 4.27 4.27 0 0 0 .95-.23h.05a.21.21 0 0 1 .12 0c.29.25.44.41.44.47s0 .07-.11.07l-.19-.07zm-3.43.54a8.85 8.85 0 0 1 .63 1c0 .07 0 .12-.05.12a.81.81 0 0 1 -.41.18c-.2-.45-.4-.82-.57-1.13 0-.05.11-.13.33-.23a.08.08 0 0 1 .07.06zm1.43 3.06v-.84h-1.13v.84zm0 1.39v-.9h-1.13v.9zm.2-4.55a9.58 9.58 0 0 1 .5.9c0 .07 0 .12-.05.12a.93.93 0 0 1 -.42.17 10 10 0 0 0 -.43-1c0-.05.11-.13.34-.23a.09.09 0 0 1 .06.05zm.36 3.16h1.1v-.84h-1.1zm1.1 1.39v-.9h-1.1v.9zm.73-4.45c.07 0 .1.07.1.1a.08.08 0 0 1 -.07.08.11.11 0 0 0 -.11.08 4.29 4.29 0 0 1 -.47 1s-.06.08-.08.08a.31.31 0 0 1 -.13-.05l-.28-.12h-.06v-.05a4.09 4.09 0 0 0 .34-.52 3.41 3.41 0 0 0 .24-.69c0-.05 0-.08.06-.08z" fill="#231815"/><path d="m2.26 253.6v-.6c0-.07 0-.11.14-.11.41 0 .63 0 .63.11a.11.11 0 0 1 -.09.12c-.06 0-.08.07-.08.17v.27h2.14v-.53c0-.07 0-.1.14-.1.41 0 .63 0 .63.1a.12.12 0 0 1 -.09.13s-.08.07-.08.17v.23h2c.06 0 .1.05.1.13v.31c0 .09 0 .13-.1.13h-2v.6c0 .06 0 .1-.13.1h-.35c-.1 0-.14 0-.14-.1v-.6h-2.12v.6c0 .06 0 .1-.13.1h-.33c-.1 0-.14 0-.14-.1v-.6h-2.16c-.07 0-.1 0-.1-.13v-.27c0-.08 0-.13.1-.13zm1.29 1.82v-.73c0-.06 0-.09 0-.09l.6.05c.08 0 .13 0 .13.08a.11.11 0 0 1 -.08.11c-.06 0-.08.07-.08.16v.42h2.19c.09 0 .13 0 .13.11v2h1.2c.07 0 .1 0 .1.13v.26c0 .09 0 .14-.1.14h-3.31a5.13 5.13 0 0 0 .47.63 3 3 0 0 0 .71.59 4.64 4.64 0 0 0 .79.44 8.81 8.81 0 0 0 .85.31 5.06 5.06 0 0 1 .53.11h.1s0 .09-.09.14l-.26.31a.22.22 0 0 1 -.16.09 8.48 8.48 0 0 1 -1.3-.47 5.58 5.58 0 0 1 -.82-.48 3.29 3.29 0 0 1 -.73-.65 5.86 5.86 0 0 1 -.53-.72 1.87 1.87 0 0 1 -.32.57 3.79 3.79 0 0 1 -.84.79 5.9 5.9 0 0 1 -1.54.8 3.56 3.56 0 0 1 -.76.18s-.07 0-.09-.07-.16-.29-.24-.41l-.1-.05s0-.05.06-.05a5.51 5.51 0 0 0 1.21-.29 4.15 4.15 0 0 0 1-.53 2.38 2.38 0 0 0 .75-.69 1.3 1.3 0 0 0 .31-.59h-3.16c-.07 0-.1 0-.1-.14v-.26c0-.09 0-.13.1-.13h1.13v-1.93a.12.12 0 0 1 .13-.14zm0 2.07a3.71 3.71 0 0 0 0-.7v-.79h-1.66v1.53zm.66-.7a6.81 6.81 0 0 1 0 .7h1.64v-1.49h-1.69z" fill="#231815"/><path d="m13 253a.12.12 0 0 1 -.09.13c-.06 0-.08.06-.08.17v1h3.17a.09.09 0 0 1 .1.1v.34c0 .08 0 .12-.1.12h-1.34c-.1.37-.21.73-.32 1.07a6 6 0 0 1 -.68 1.36 9.42 9.42 0 0 1 -.84 1.09 5.59 5.59 0 0 0 1.36.86 9.78 9.78 0 0 0 1.94.68c.09 0 .13.06.13.09a.14.14 0 0 1 0 .1 2.77 2.77 0 0 0 -.35.34c0 .05-.08.09-.1.09a1 1 0 0 1 -.25-.1c-.37-.12-.78-.28-1.22-.46a8.37 8.37 0 0 1 -1.48-.83 5.05 5.05 0 0 1 -.48-.39 5.8 5.8 0 0 1 -.85.65 8.8 8.8 0 0 1 -1.3.7c-.39.15-.81.3-1.26.43a.2.2 0 0 1 -.13-.06 4.23 4.23 0 0 0 -.31-.38s-.06-.07-.06-.09 0-.07.09-.09a6.93 6.93 0 0 0 1.35-.39 8 8 0 0 0 1.09-.56 4.83 4.83 0 0 0 .89-.67l-.23-.25a4.34 4.34 0 0 1 -.85-1.35 8.59 8.59 0 0 1 -.7-1.88h-1.36c-.07 0-.1 0-.1-.12v-.34a.09.09 0 0 1 .1-.1h3.45v-1.26c0-.06 0-.1.13-.1.45-.03.68.01.68.1zm-1.89 3a5.7 5.7 0 0 0 .79 1.41 3 3 0 0 0 .43.49 5.07 5.07 0 0 0 .85-1.07 5 5 0 0 0 .57-1c.12-.29.22-.6.33-1h-3.35a6.11 6.11 0 0 0 .37 1.17z" fill="#231815"/><path d="m19.1 253.7c-.07 0-.1 0-.1-.13v-.33c0-.07 0-.1.1-.1h1.9a.26.26 0 0 1 .19.08 4.59 4.59 0 0 0 1.15 1.59 4.25 4.25 0 0 0 2.3 1q.18 0 .18.12s0 0-.05.09a2.8 2.8 0 0 0 -.3.28.18.18 0 0 1 -.15.09 7.32 7.32 0 0 1 -.83-.28v.25c0 .08 0 .13-.1.13h-2.2v1.33h2.16a.08.08 0 0 1 .09.09v.34c0 .09 0 .13-.09.13h-2.16v1.46h3.12c.07 0 .1 0 .1.11v.33c0 .08 0 .12-.1.12h-6.94c-.07 0-.1 0-.1-.12v-.28c0-.07 0-.11.1-.11h3.18v-1.46h-2.22c-.06 0-.1 0-.1-.13v-.34c0-.06 0-.09.1-.09h2.22v-1.33h-2.32c-.07 0-.1-.05-.1-.13v-.19a3.34 3.34 0 0 1 -.76.35s-.08 0-.12-.11-.17-.2-.28-.31-.06-.08-.06-.11a9 9 0 0 0 1.41-.6 6.58 6.58 0 0 0 1.16-.85 8.35 8.35 0 0 0 .71-.84zm4 2.23a4.55 4.55 0 0 1 -1.16-.71 5.81 5.81 0 0 1 -1.08-1.47 4.11 4.11 0 0 1 -.6.76 5.41 5.41 0 0 1 -.87.86 5.62 5.62 0 0 1 -.79.56z" fill="#231815"/><path d="m27.76 255.59a.16.16 0 0 1 -.14.17c-.06 0-.11.05-.12.09a6.5 6.5 0 0 1 -.47.65v4c0 .06 0 .1-.13.1h-.34c-.08 0-.13 0-.13-.1v-3.36c-.18.18-.39.36-.62.57-.17-.17-.29-.3-.38-.37s-.06-.07-.06-.1v-.05a4.44 4.44 0 0 0 1.05-1 6 6 0 0 0 .69-1s0 0 .06 0a4 4 0 0 1 .59.4zm-.14-2.35a.2.2 0 0 1 .11.16s-.05.07-.13.07a.22.22 0 0 0 -.21.11 7.41 7.41 0 0 1 -1.39 1.61.15.15 0 0 1 -.13-.05 1.47 1.47 0 0 0 -.25-.25s-.06-.07-.06-.1a.05.05 0 0 1 0 0 2.22 2.22 0 0 0 .46-.39 4.32 4.32 0 0 0 .57-.63 4.77 4.77 0 0 0 .41-.77c0-.05 0-.09.07-.09zm2.29-.1c.05 0 .08.07.08.1s0 .09-.14.09a.19.19 0 0 0 -.17.09v.07a3.69 3.69 0 0 0 .53.64 3.49 3.49 0 0 0 .78.6.13.13 0 0 1 -.06.12c-.1.09-.22.19-.38.31h-.05a2.25 2.25 0 0 1 -.5-.4 6.38 6.38 0 0 1 -.63-.77.58.58 0 0 1 -.11.15 3.31 3.31 0 0 1 -.38.5c-.16.17-.31.32-.47.46a2.1 2.1 0 0 1 -.38.28.14.14 0 0 1 -.12-.07 1.56 1.56 0 0 0 -.23-.28c-.05 0-.08 0-.08-.08s0 0 0 0a4.21 4.21 0 0 0 .54-.36 3.8 3.8 0 0 0 .57-.61 2.77 2.77 0 0 0 .34-.47 3.79 3.79 0 0 0 .24-.53s0-.06.08-.06zm.57 2.22c.07 0 .1 0 .1.13v.27c0 .09 0 .13-.1.13h-.82v1h1.13c.06 0 .09.05.09.13v.27c0 .09 0 .13-.09.13h-1.13v2.06l1.17-.29h.05s.07 0 .07.09a1.75 1.75 0 0 1 0 .51c-.87.2-1.76.39-2.65.56-.1.15-.18.23-.24.23s-.16-.24-.33-.73c.39 0 .84-.12 1.36-.23v-2.19h-1.19c-.07 0-.11 0-.11-.13v-.3c0-.08 0-.13.11-.13h1.15v-1h-.75c-.07 0-.11 0-.11-.13v-.27c0-.08 0-.13.11-.13zm-1.95 3.26a3.31 3.31 0 0 1 .22.65s-.17.09-.49.17a4.14 4.14 0 0 0 -.16-.54 4.48 4.48 0 0 0 -.34-.75s.15-.13.43-.27a6.55 6.55 0 0 1 .34.74zm2.38-.65c.06 0 .11.07.11.11a.07.07 0 0 1 -.05.07s-.06 0-.06.07a6.29 6.29 0 0 1 -.3.82c0 .06-.05.07-.06.07a.2.2 0 0 1 -.13-.05l-.31-.14h-.06a.11.11 0 0 1 0-.05 3.55 3.55 0 0 0 .21-.46 2.35 2.35 0 0 0 .14-.52s0-.06 0-.06zm2.37-2.71c.06 0 .09.05.09.13v.27c0 .09 0 .13-.09.13h-.64v4.21c0 .43-.35.64-1 .64h-.3s-.06-.06-.06-.16a1.51 1.51 0 0 0 -.13-.44 1.43 1.43 0 0 0 .46.07c.3 0 .46-.1.46-.29v-4h-1c-.06 0-.1 0-.1-.13v-.27c0-.08 0-.13.1-.13zm-.28-1.82c.07 0 .11.05.11.13v.26c0 .09 0 .13-.11.13h-1.75c-.07 0-.1 0-.1-.13v-.26c0-.08 0-.13.1-.13z" fill="#231815"/><g fill="#00a19b"><path d="m200.15 30.3h8.85v2h-6.46v2.7h6v2h-6v3.24h6.68v2h-9.08z"/><path d="m219.68 38.13a2.43 2.43 0 0 0 2.6 2.28c1.68 0 2.35-.88 2.35-1.64 0-1-.84-1.22-3-1.75-1.18-.3-3.81-1-3.81-3.59 0-1.3.85-3.33 4.35-3.33 2.33 0 4.46.91 4.56 3.62l-2.41.1c-.1-.62-.28-1.74-2.18-1.74-.72 0-2 .22-2 1.19 0 .76.75 1.1 2.66 1.55s4.29 1 4.29 4a3.5 3.5 0 0 1 -1.95 3.13 6.89 6.89 0 0 1 -2.82.54c-1.28 0-4.45-.12-4.92-4.09z"/><path d="m233.71 30.3v6.45a5.24 5.24 0 0 0 .31 2.57 2.26 2.26 0 0 0 2.12 1c2.29 0 2.29-1.45 2.29-3.49v-6.53h2.4v6.27c0 2.13-.08 3.31-.66 4.22-.92 1.41-2.64 1.65-4 1.65-4.88 0-4.88-3-4.88-5.77v-6.37z"/><path d="m245.75 30.3h2.33l4.86 8v-8h2.23v11.94h-2.41l-4.76-7.79v7.79h-2.23z"/><path d="m264.79 30.3h8.21v2h-5.8v2.84h5v2h-5v5.07h-2.41z"/><path d="m277 30.3h2.4v4.7h4.72v-4.7h2.4v11.94h-2.4v-5.24h-4.72v5.22h-2.4z"/><path d="m301.07 38.58a4.71 4.71 0 0 1 -4.95 3.86c-3.24 0-5.44-2.36-5.44-6.07 0-3.32 1.68-6.27 5.57-6.27a5.12 5.12 0 0 1 3.65 1.36 4.57 4.57 0 0 1 1.1 2.14l-2.38.57a2.46 2.46 0 0 0 -2.52-2c-3 0-3 3.27-3 4a5.65 5.65 0 0 0 .64 3 2.65 2.65 0 0 0 2.3 1.17c1.6 0 2.33-1.22 2.63-2.52z"/><path d="m214.17 40.71a1.54 1.54 0 1 0 -1.53 1.54 1.54 1.54 0 0 0 1.53-1.54z"/><path d="m200.15 57.94h8.85v2h-6.43v2.64h6v2h-6v3.23h6.65v2h-9z"/><path d="m219.62 65.75a2.45 2.45 0 0 0 2.6 2.28c1.68 0 2.34-.88 2.34-1.65 0-1-.83-1.21-3-1.74-1.17-.3-3.8-1-3.8-3.57 0-1.3.85-3.33 4.34-3.33 2.32 0 4.45.91 4.55 3.61l-2.41.1c-.1-.62-.28-1.73-2.17-1.73-.72 0-2 .21-2 1.18 0 .76.74 1.1 2.65 1.55s4.28 1 4.28 3.93a3.5 3.5 0 0 1 -2 3.13 6.78 6.78 0 0 1 -2.81.53c-1.28 0-4.44-.11-4.9-4.07z"/><path d="m233.62 57.94v6.43a5.24 5.24 0 0 0 .31 2.57 2.25 2.25 0 0 0 2.07 1.06c2.29 0 2.29-1.44 2.29-3.47v-6.59h2.39v6.25c0 2.13-.08 3.31-.66 4.21-.92 1.41-2.63 1.64-4 1.64-4.87 0-4.87-3-4.87-5.75v-6.35z"/><path d="m245.63 57.94h2.37l4.84 8v-8h2.23v11.9h-2.41l-4.76-7.76v7.76h-2.22z"/><path d="m214.13 68.32a1.54 1.54 0 1 0 -1.53 1.54 1.53 1.53 0 0 0 1.53-1.54z"/><path d="m269.29 60a4.55 4.55 0 0 1 1.4.19 1.09 1.09 0 0 1 .64 1.11 1.15 1.15 0 0 1 -.49 1.06 2.34 2.34 0 0 1 -1.25.29h-2.89v-2.65zm.36 4.63a2.9 2.9 0 0 1 1.19.2 1.28 1.28 0 0 1 .76 1.28 1.51 1.51 0 0 1 -.78 1.49 2.83 2.83 0 0 1 -1.21.21h-2.91v-3.19zm.42-6.67h-5.74v11.88h5.36a8.12 8.12 0 0 0 1.68-.16 3.2 3.2 0 0 0 1.34-.59 3.44 3.44 0 0 0 .84-.94 3.5 3.5 0 0 0 .53-1.89 3.14 3.14 0 0 0 -.46-1.74 2.56 2.56 0 0 0 -1.36-1 2.79 2.79 0 0 0 .9-.68 2.69 2.69 0 0 0 .54-1.84 3 3 0 0 0 -.54-1.82 3.65 3.65 0 0 0 -3.09-1.18z"/><path d="m281.91 60.67 1.51 4.68h-3.05zm-5.63 9.17h2.6l.81-2.45h4.38l.79 2.45h2.69l-4.2-11.84h-2.82z"/><path d="m289.94 58h2.59l4.71 8.28v-8.28h2.3v11.84h-2.46l-4.84-8.43v8.43h-2.3z"/><path d="m304.08 58h2.47v4.9l4.59-4.9h3.21l-4.86 4.9 5.11 7h-3.2l-3.66-5.18-1.19 1.21v4h-2.47z"/><path d="m1.07 284h8.82v2h-6.43v2.64h6v2h-6v3.22h6.65v2h-9z"/><path d="m15 294.39a1.54 1.54 0 1 0 -1.54 1.53 1.54 1.54 0 0 0 1.54-1.53z"/><path d="m20.89 292.22a2.3 2.3 0 0 0 .44 1.19 2.56 2.56 0 0 0 2.06.72 4.6 4.6 0 0 0 1.42-.19 1.37 1.37 0 0 0 1-1.35 1 1 0 0 0 -.52-.9 5.66 5.66 0 0 0 -1.61-.55l-1.25-.27a8 8 0 0 1 -2.54-.9 2.86 2.86 0 0 1 -1.17-2.53 3.37 3.37 0 0 1 1.14-2.61 4.89 4.89 0 0 1 3.37-1 5.15 5.15 0 0 1 3.16 1 3.48 3.48 0 0 1 1.37 2.84h-2.29a1.63 1.63 0 0 0 -.93-1.47 3.06 3.06 0 0 0 -1.43-.29 2.75 2.75 0 0 0 -1.53.37 1.21 1.21 0 0 0 -.57 1 1 1 0 0 0 .56.93 7.24 7.24 0 0 0 1.54.48l2 .49a5.15 5.15 0 0 1 2 .84 2.88 2.88 0 0 1 1 2.39 3.37 3.37 0 0 1 -1.11 2.64 5.15 5.15 0 0 1 -3.48 1.06 5.69 5.69 0 0 1 -3.6-1 3.44 3.44 0 0 1 -1.31-2.85z"/><path d="m30.15 284h2.5v7.24a4.11 4.11 0 0 0 .29 1.77 1.89 1.89 0 0 0 1.94 1 1.88 1.88 0 0 0 1.93-1 4.11 4.11 0 0 0 .29-1.77v-7.24h2.5v7.24a6 6 0 0 1 -.58 2.92c-.72 1.28-2.1 1.91-4.14 1.91s-3.42-.63-4.15-1.91a6 6 0 0 1 -.58-2.92z"/><path d="m42.07 284h2.59l4.71 8.27v-8.27h2.3v11.89h-2.47l-4.83-8.43v8.43h-2.3z"/><path d="m58.67 284h8.43v2.09h-6v2.73h5.23v2.05h-5.19v5h-2.47z"/><path d="m71 295.92h-2.45v-11.92h2.45z"/><path d="m73.34 284h2.59l4.71 8.29v-8.29h2.3v11.91h-2.47l-4.83-8.45v8.45h-2.3z"/><path d="m90.08 286.73 1.5 4.69h-3zm-5.64 9.19h2.61l.81-2.45h4.38l.78 2.45h2.7l-4.21-11.92h-2.82z"/><path d="m97.21 284h2.59l4.71 8.29v-8.29h2.3v11.91h-2.47l-4.83-8.45v8.45h-2.3z"/><path d="m110.28 285.25a5.54 5.54 0 0 1 8 .5 4.14 4.14 0 0 1 .81 2.21h-2.49a3.35 3.35 0 0 0 -.61-1.3 2.66 2.66 0 0 0 -4 .32 5.35 5.35 0 0 0 -.76 3.09 4.79 4.79 0 0 0 .8 3 2.51 2.51 0 0 0 2 1 2.29 2.29 0 0 0 1.93-.85 3.58 3.58 0 0 0 .61-1.37h2.48a5.35 5.35 0 0 1 -1.63 3.15 4.69 4.69 0 0 1 -3.35 1.22 5.07 5.07 0 0 1 -4-1.64 7.84 7.84 0 0 1 .2-9.33z"/><path d="m123.35 295.92h-2.48v-11.92h2.48z"/><path d="m130.47 286.73 1.5 4.69h-3zm-5.64 9.19h2.61l.81-2.45h4.38l.79 2.45h2.69l-4.2-11.92h-2.82z"/><path d="m137.63 284h2.47v9.76h5.9v2.15h-8.39z"/><path d="m152 295.92v-11.92h2.47v4.55h4.6v-4.55h2.48v11.91h-2.48v-5.31h-4.6v5.31z"/><path d="m169.21 294.12a2.85 2.85 0 0 1 -2.35-1.09 5.87 5.87 0 0 1 0-6.18 2.85 2.85 0 0 1 2.35-1.09 2.8 2.8 0 0 1 2.34 1.09 5.92 5.92 0 0 1 0 6.18 2.8 2.8 0 0 1 -2.34 1.09zm5.69-4.18a6.3 6.3 0 0 0 -1.8-4.9 6.19 6.19 0 0 0 -7.79 0 6.27 6.27 0 0 0 -1.81 4.9 6.4 6.4 0 0 0 1.81 4.9 6.19 6.19 0 0 0 7.79 0 6.43 6.43 0 0 0 1.8-4.9z"/><path d="m176.81 284h2.48v9.76h5.91v2.15h-8.39z"/><path d="m191.57 286.06a2.4 2.4 0 0 1 2.27 1 5.63 5.63 0 0 1 .57 2.8 6.27 6.27 0 0 1 -.38 2.29 2.48 2.48 0 0 1 -2.46 1.74h-2.29v-7.81zm.43-2.06h-5.12v11.91h5.12a4.3 4.3 0 0 0 4-2.22 8 8 0 0 0 .95-4 9.16 9.16 0 0 0 -.23-2 5.28 5.28 0 0 0 -.84-1.93 4 4 0 0 0 -2-1.51 6.26 6.26 0 0 0 -1.88-.25z"/><path d="m201.09 295.92h-2.48v-11.92h2.48z"/><path d="m203.4 284h2.6l4.72 8.29v-8.29h2.28v11.91h-2.47l-4.84-8.45v8.45h-2.3z"/><path d="m223.26 287.75a2.32 2.32 0 0 0 -1.35-1.68 3.36 3.36 0 0 0 -1.33-.26 2.86 2.86 0 0 0 -2.3 1.07 4.88 4.88 0 0 0 -.9 3.21 4 4 0 0 0 1 3.06 3.22 3.22 0 0 0 2.23.9 2.88 2.88 0 0 0 2-.71 3.05 3.05 0 0 0 1-1.85h-2.67v-2h4.88v6.4h-1.72l-.26-1.56a5.86 5.86 0 0 1 -1.26 1.17 4.54 4.54 0 0 1 -2.38.59 4.92 4.92 0 0 1 -3.79-1.61 6.19 6.19 0 0 1 -1.55-4.44 6.46 6.46 0 0 1 1.57-4.56 5.3 5.3 0 0 1 4.13-1.72 5.41 5.41 0 0 1 3.58 1.13 4.24 4.24 0 0 1 1.56 2.83z"/><path d="m234 285.24a4.81 4.81 0 0 1 3.61-1.45 4.87 4.87 0 0 1 4.3 1.94 4.18 4.18 0 0 1 .8 2.19h-2.45a3.32 3.32 0 0 0 -.61-1.28 2.65 2.65 0 0 0 -4 .31 5.3 5.3 0 0 0 -.76 3.07 4.69 4.69 0 0 0 .8 3 2.48 2.48 0 0 0 2 1 2.27 2.27 0 0 0 1.92-.85 3.69 3.69 0 0 0 .6-1.36h2.46a5.28 5.28 0 0 1 -1.62 3.13 4.65 4.65 0 0 1 -3.32 1.21 5 5 0 0 1 -4-1.63 7.72 7.72 0 0 1 .2-9.25z"/><path d="m250 294.06a2.81 2.81 0 0 1 -2.31-1.07 5.79 5.79 0 0 1 0-6.07 3 3 0 0 1 4.61 0 5.84 5.84 0 0 1 0 6.07 2.8 2.8 0 0 1 -2.3 1.07zm5.58-4.11a6.16 6.16 0 0 0 -1.77-4.8 6 6 0 0 0 -7.64 0 6.16 6.16 0 0 0 -1.77 4.8 6.3 6.3 0 0 0 1.77 4.81 6 6 0 0 0 7.64 0 6.3 6.3 0 0 0 1.77-4.76z"/><path d="m265.51 284h3.56v11.91h-2.3v-8.05c0-.24 0-.56 0-1s0-.74 0-1l-2.27 10h-2.4l-2.24-10v1 1 8.05h-2.3v-11.91h3.61l2.17 9.36z"/><path d="m277.88 287.79a1.74 1.74 0 0 1 -.47 1.36 1.86 1.86 0 0 1 -1.3.42h-2.22v-3.51h2.22a1.91 1.91 0 0 1 1.3.4 1.62 1.62 0 0 1 .47 1.33zm2.48 0a3.6 3.6 0 0 0 -1.05-2.85 4.1 4.1 0 0 0 -2.81-.92h-5.09v11.91h2.48v-4.3h2.46a4.5 4.5 0 0 0 3-.87 3.7 3.7 0 0 0 1.01-2.98z"/><path d="m286 286.73 1.5 4.69h-3.1zm-5.64 9.19h2.6l.81-2.45h4.38l.79 2.45h2.69l-4.25-11.92h-2.82z"/><path d="m293.07 284h2.59l4.72 8.29v-8.29h2.3v11.91h-2.47l-4.84-8.45v8.45h-2.3z"/><path d="m311.8 284h2.81l-4 7.45v4.46h-2.48v-4.45l-4.08-7.46h2.95l2.46 5.19z"/><path d="m313.92 297.84a1.83 1.83 0 0 0 1-.65 2.45 2.45 0 0 0 .37-1.27h-1.39v-2.4h2.48v2.08a4.7 4.7 0 0 1 -.15 1.14 2.21 2.21 0 0 1 -.54 1 2.71 2.71 0 0 1 -1 .7 2.5 2.5 0 0 1 -.79.24z"/><path d="m323.41 284h2.47v9.76h5.92v2.15h-8.39z"/><path d="m340.9 284v2.1h-3.56v9.81h-2.48v-9.81h-3.56v-2.1z"/><path d="m347.05 286.06a2.4 2.4 0 0 1 2.26 1 5.63 5.63 0 0 1 .57 2.8 6.07 6.07 0 0 1 -.38 2.29 2.47 2.47 0 0 1 -2.45 1.74h-2.3v-7.81zm.42-2.05h-5.12v11.91h5.12a4.3 4.3 0 0 0 4-2.22 8 8 0 0 0 1-4 9.13 9.13 0 0 0 -.22-2 5.48 5.48 0 0 0 -.85-1.93 4 4 0 0 0 -2-1.51 6.26 6.26 0 0 0 -1.93-.26z"/><path d="m356.2 296h-2.44v-2.22h2.44z"/><path d="m1.07 311.55h8.83v2h-6.43v2.64h6v2h-6v3.22h6.65v2h-9z"/><path d="m15.06 321.93a1.54 1.54 0 1 0 -1.54 1.54 1.54 1.54 0 0 0 1.54-1.54z"/><path d="m20.92 319.76a2.43 2.43 0 0 0 .44 1.19 2.57 2.57 0 0 0 2.07.72 4.64 4.64 0 0 0 1.42-.19 1.36 1.36 0 0 0 1-1.36 1 1 0 0 0 -.51-.89 5.46 5.46 0 0 0 -1.61-.55l-1.25-.28a7.92 7.92 0 0 1 -2.55-.89 2.88 2.88 0 0 1 -1.14-2.51 3.39 3.39 0 0 1 1.14-2.61 4.89 4.89 0 0 1 3.37-1 5.18 5.18 0 0 1 3.17 1 3.48 3.48 0 0 1 1.37 2.84h-2.33a1.63 1.63 0 0 0 -.93-1.47 3.27 3.27 0 0 0 -1.44-.29 2.69 2.69 0 0 0 -1.52.38 1.17 1.17 0 0 0 -.57 1.05 1 1 0 0 0 .56.92 6.92 6.92 0 0 0 1.53.49l2 .48a5.21 5.21 0 0 1 2 .85 2.86 2.86 0 0 1 1 2.39 3.35 3.35 0 0 1 -1.14 2.56 5.13 5.13 0 0 1 -3.47 1.06 5.7 5.7 0 0 1 -3.61-1 3.44 3.44 0 0 1 -1.31-2.85z"/><path d="m31.58 311.55h2.51v7.25a4.11 4.11 0 0 0 .28 1.77 1.91 1.91 0 0 0 2 1 1.91 1.91 0 0 0 1.94-1 4.11 4.11 0 0 0 .28-1.77v-7.25h2.51v7.25a6 6 0 0 1 -.59 2.92q-1.08 1.92-4.14 1.92t-4.15-1.92a6 6 0 0 1 -.59-2.92z"/><path d="m43.57 311.55h2.59l4.71 8.28v-8.28h2.3v11.9h-2.47l-4.83-8.45v8.44h-2.3z"/><path d="m61.08 312.77a5.53 5.53 0 0 1 8 .5 4.21 4.21 0 0 1 .82 2.2h-2.5a3.39 3.39 0 0 0 -.61-1.28 2.71 2.71 0 0 0 -4.05.32 5.24 5.24 0 0 0 -.76 3.06 4.59 4.59 0 0 0 .8 3 2.53 2.53 0 0 0 2 1 2.32 2.32 0 0 0 1.93-.85 3.74 3.74 0 0 0 .62-1.37h2.46a5.29 5.29 0 0 1 -1.63 3.15 4.77 4.77 0 0 1 -3.35 1.21 5 5 0 0 1 -4-1.64 7.7 7.7 0 0 1 .19-9.25z"/><path d="m77.16 321.62a2.82 2.82 0 0 1 -2.32-1.08 5.84 5.84 0 0 1 0-6.1 2.82 2.82 0 0 1 2.32-1.08 2.79 2.79 0 0 1 2.31 1.08 5.9 5.9 0 0 1 0 6.1 2.79 2.79 0 0 1 -2.31 1.08zm5.59-4.13a6.18 6.18 0 0 0 -1.75-4.81 6.07 6.07 0 0 0 -7.66 0 6.18 6.18 0 0 0 -1.77 4.81 6.3 6.3 0 0 0 1.77 4.81 6.07 6.07 0 0 0 7.66 0 6.3 6.3 0 0 0 1.75-4.81z"/><path d="m92.58 311.54h3.56v11.9h-2.3v-8.05c0-.23 0-.55 0-1s0-.74 0-1l-2.25 10h-2.4l-2.24-10v1s0 .74 0 1v8.05h-2.3v-11.9h3.6l2.17 9.36z"/><path d="m106.23 311.54h3.56v11.9h-2.3v-8.05c0-.23 0-.55 0-1s0-.74 0-1l-2.26 10h-2.41l-2.24-10v1s0 .74 0 1v8.05h-2.3v-11.9h3.6l2.16 9.36z"/><path d="m120.69 313.63h-6.15v2.55h5.63v2.07h-5.63v3.07h6.46v2.13h-8.87v-11.9h8.57z"/><path d="m128.23 313.63a2.42 2.42 0 0 1 1.15.21 1.49 1.49 0 0 1 .69 1.45 1.34 1.34 0 0 1 -.71 1.34 2.8 2.8 0 0 1 -1.19.19h-2.68v-3.19zm.51-2.08h-5.67v11.89h2.42v-4.64h2.42a2 2 0 0 1 1.41.37 2.27 2.27 0 0 1 .4 1.52v1.1a5.69 5.69 0 0 0 .11 1 6.29 6.29 0 0 0 .17.63h2.73v-.29a1 1 0 0 1 -.46-.68 6.17 6.17 0 0 1 -.07-1.1v-.8a3.85 3.85 0 0 0 -.34-1.85 2.15 2.15 0 0 0 -1.16-.94 2.38 2.38 0 0 0 1.4-1.16 3.55 3.55 0 0 0 .43-1.67 3.44 3.44 0 0 0 -.22-1.25 3.8 3.8 0 0 0 -.6-1 3 3 0 0 0 -1.11-.83 5.16 5.16 0 0 0 -1.86-.3z"/><path d="m136 312.77a5.52 5.52 0 0 1 8 .5 4.11 4.11 0 0 1 .81 2.2h-2.46a3.47 3.47 0 0 0 -.6-1.28 2.46 2.46 0 0 0 -2-.76 2.43 2.43 0 0 0 -2.09 1.08 5.32 5.32 0 0 0 -.76 3.06 4.67 4.67 0 0 0 .8 3 2.55 2.55 0 0 0 2.05 1 2.31 2.31 0 0 0 1.94-.85 3.94 3.94 0 0 0 .61-1.36h2.46a5.26 5.26 0 0 1 -1.63 3.14 4.71 4.71 0 0 1 -3.35 1.21 5 5 0 0 1 -4-1.63 6.57 6.57 0 0 1 -1.45-4.49 6.48 6.48 0 0 1 1.67-4.82z"/><path d="m149 323.46h-2.49v-11.91h2.49z"/><path d="m156 314.28 1.5 4.7h-3.05zm-5.66 9.17h2.66l.82-2.44h4.37l.79 2.44h2.7l-4.21-11.9h-2.82z"/><path d="m163.07 311.55h2.48v9.77h6v2.13h-8.45z"/><path d="m182.35 313.63a4.62 4.62 0 0 1 1.41.19 1.07 1.07 0 0 1 .64 1.1 1.12 1.12 0 0 1 -.48 1.05 2.4 2.4 0 0 1 -1.26.3h-2.9v-2.64zm.36 4.62a3.1 3.1 0 0 1 1.2.2 1.28 1.28 0 0 1 .77 1.27 1.49 1.49 0 0 1 -.79 1.48 2.88 2.88 0 0 1 -1.22.21h-2.91v-3.16zm.43-6.7h-5.76v11.9h5.37a8.25 8.25 0 0 0 1.69-.12 3.2 3.2 0 0 0 1.34-.59 3.47 3.47 0 0 0 .85-.94 3.53 3.53 0 0 0 .53-1.9 3.15 3.15 0 0 0 -.46-1.75 2.6 2.6 0 0 0 -1.36-1 2.94 2.94 0 0 0 .9-.68 2.75 2.75 0 0 0 .54-1.77 3.06 3.06 0 0 0 -.54-1.82 3.66 3.66 0 0 0 -3.1-1.33z"/><path d="m194 314.25 1.5 4.69h-3.05zm-5.65 9.2h2.65l.82-2.48h4.37l.8 2.48h2.7l-4.22-11.9h-2.87z"/><path d="m201.05 311.55h2.6l4.68 8.25v-8.25h2.31v11.9h-2.48l-4.8-8.43v8.43h-2.31z"/><path d="m213 311.55h2.49v4.85l4.57-4.85h3.22l-4.87 4.89 5.11 7h-3.2l-3.67-5.18-1.16 1.19v4h-2.49z"/><path d="m226.34 325.38a1.78 1.78 0 0 0 1-.65 2.53 2.53 0 0 0 .38-1.29h-1.38v-2.44h2.48v2.11a4.72 4.72 0 0 1 -.15 1.15 2.47 2.47 0 0 1 -.54 1 2.91 2.91 0 0 1 -1 .71 2.86 2.86 0 0 1 -.79.23z"/><path d="m235.62 311.55h2.48v9.77h6v2.14h-8.46z"/><path d="m253.12 311.55v2.11h-3.58v9.79h-2.49v-9.79h-3.58v-2.11z"/><path d="m259.17 313.63a2.43 2.43 0 0 1 2.28 1 5.7 5.7 0 0 1 .57 2.79 6 6 0 0 1 -.39 2.27 2.48 2.48 0 0 1 -2.46 1.74h-2.3v-7.78zm.43-2.08h-5.14v11.9h5.14a4.27 4.27 0 0 0 4-2.18 7.92 7.92 0 0 0 1-4 9.32 9.32 0 0 0 -.23-2 5.14 5.14 0 0 0 -.85-1.93 3.89 3.89 0 0 0 -2-1.52 6.26 6.26 0 0 0 -1.92-.27z"/><path d="m268.54 323.45h-2.43v-2.2h2.43z"/><path d="m48.29 190.63h10.69v2.01h-10.69z"/><path d="m63.1 195.51v-2h-18.63v2l4.39.06.43 1.46h-3.91v13.17h2.62v-8.7l1 1.83h.4l.33-.22v5.63h2.56v-.54h3v.54h2.31l.17-.54.95 2c3.57 0 3.47-2.52 3.47-2.52v-10.68h-4.31l.72-1.52zm-7 3.59h1.4s.1.06.08.12-.25.9-.58.9h-.6s-.3-.1-.3-.37zm-.18-3.5-.5 1.46h-3.42l-.52-1.46zm-7.92 5.33v-1.83h2.19c-.85 2.17-2.19 1.83-2.19 1.83zm7.17 5.21h-2.94v-1h2.94zm4.41-7v.86l-1.37-.85zm0 2.31v4.73c0 1.68-1.89 1-1.89 1v-4.21h-7.54a5.63 5.63 0 0 0 2.93-3.81h.57v1.83c0 1.83 1.39 1.63 1.39 1.63h2.75a1.89 1.89 0 0 0 1.79-1.21z"/><path d="m86.61 207.8c-4.55-.44-5.84-2-5.84-2h5.23v-2.19h-8v-.61h5.78v-2.32h-5.78v-.57h6.74v-2.11h-4l.39-1.15h5.09v-2.39h-3.48l1.55-2.7-2.87-1-1.42 2.97 1.79.6v.13h-2v-3.83h-2.65v3.83h-1.41v-3.83h-2.58l-.06 3.83h-1.92v-.13l1.71-.93-1.7-2.7-2.6 1h-.07l1.49 2.56v.14h-3.22v2.41h5.22l.35 1.15h-4.11v2.23h6.91v.57h-5.78v2.24h5.78v.58h-8v2.28h5a15.38 15.38 0 0 1 -5.6 2.29l1.66 2.17a24.37 24.37 0 0 0 6.87-3.16v3.14h2.92v-3.09a16.54 16.54 0 0 0 7.32 3.11zm-8.92-9.88h-2.35l-.41-1.11h3.13z"/><path d="m128.68 173.83a33.18 33.18 0 0 0 3-5v-.07l-1.05-1.15h-7.73a5.26 5.26 0 0 0 1.32-1.73 5.92 5.92 0 0 0 .88-3.72v-.08h1.27v3.27c0 .54.63 1.49 1.08 1.5h3.21c.31 0 .77-.23 1.23-1.28a20.87 20.87 0 0 0 .67-2l-2.56-1.14v.16s0 .3 0 .7v.12c0 .51-.07 1-.46 1s-.56-.62-.56-1.06v-3.65h-6.49v2.55a5.66 5.66 0 0 1 -1.68 3.75v-6.3h-6.81v.11s0 4.65 0 7.61-.22 7.56-1.29 9.75v.09l2.84 1.32v-.12a31 31 0 0 0 1.07-7.1h1.54v3.79c0 .19-.1.29-.21.29h-1.69l1.13 3.44h.11c.84 0 3.07-1.4 3.24-2.31v-.28a16.57 16.57 0 0 1 1.45 2.48v.1h.1c.15-.08 3.56-2.37 4.39-3.08.43.28 2.76 2.57 3.89 3.1h.07l1.77-3.3h-.16a17.94 17.94 0 0 1 -3.57-1.76zm-10.52-4.83h-1.54v-2.24h1.54zm0-4.72h-1.54v-2.12h1.54zm2.57 11.63v-9.46a7.49 7.49 0 0 1 1.55 1.24h-1v2.31h1l.09.14a32.48 32.48 0 0 0 2.45 3.82 22.14 22.14 0 0 1 -4.08 1.92zm6-3.79-1.41-2.12h2.68a17 17 0 0 1 -1.27 2.09z"/><path d="m151.08 173.87a35.48 35.48 0 0 0 3-5v-.07l-1-1.15h-7.73a5.4 5.4 0 0 0 1.32-1.73 5.85 5.85 0 0 0 .87-3.72v-.08h1.27v3.27c0 .54.64 1.49 1.09 1.5h3.21c.3 0 .76-.23 1.23-1.28.45-1.2.67-2 .67-2l-2.61-1.18v.16s0 .3 0 .7v.12c0 .51-.06 1-.45 1s-.57-.62-.57-1.06v-3.65h-6.48v2.55a5.71 5.71 0 0 1 -1.68 3.75v-6.3h-6.72v7.72c0 2.88-.22 7.56-1.29 9.75v.09l2.84 1.32v-.12a31 31 0 0 0 1.07-7.1h1.54v3.79c0 .19-.11.29-.22.29h-1.69l1.13 3.44h.12c.84 0 3.07-1.4 3.24-2.31v-.28a18.49 18.49 0 0 1 1.45 2.48l.05.1h.1c.14-.08 3.56-2.37 4.38-3.08.44.28 2.77 2.57 3.89 3.1h.08l1.73-3.26h-.17a17.56 17.56 0 0 1 -3.67-1.76zm-10.48-4.87h-1.54v-2.24h1.54zm0-4.72h-1.54v-2.12h1.54zm2.57 11.63v-9.46a7.4 7.4 0 0 1 1.54 1.24h-.95v2.31h1l.09.14a32.48 32.48 0 0 0 2.45 3.82 22.14 22.14 0 0 1 -4.12 1.92zm6-3.79-1.4-2.06h2.62a14.76 14.76 0 0 1 -1.23 2.03z"/><path d="m187.6 161.88h3.97v1.02h-3.97z"/><path d="m175.13 163.77a13.9 13.9 0 0 1 -2.35-4.19v-.1l-2.27.93h-.09v.1a17.17 17.17 0 0 0 4 6.57h-9.05l.12-.12c2-2 4-6.45 4-6.49l.06-.12h-.13c-.9-.19-2.33-.61-2.34-.61h-.08v.07s-2.1 4.22-3.9 5.65v-.93l1.47-4.32v-.11l-3.15-.6v.1s-.69 2.57-.92 3.1a18.41 18.41 0 0 1 -2.88 5.27v.05l1.64 2.76.09-.15c.2-.34.69-1.15 1-1.55v9.82h2.78v-12.9l1.31 1.87.62-.44v2.31h2.12v.3a8.29 8.29 0 0 1 -3.43 5.94l-.1.07 2.34 2.18.07-.08a13.46 13.46 0 0 0 2.52-3.33 15.15 15.15 0 0 0 1.46-5.08h2v3.72a3.65 3.65 0 0 1 -.54 2.45.28.28 0 0 1 -.22.08h-2l1.07 2.91h.51a7.52 7.52 0 0 0 1.38-.08 3.1 3.1 0 0 0 2.2-2.18 14.54 14.54 0 0 0 .3-3.2v-6.14l1 1 .05-.15a13.94 13.94 0 0 1 1.39-2.52v-.08l-.08-.06a17.18 17.18 0 0 1 -1.97-1.72z"/><path d="m188.84 159.9v-.12l-3-.29v.1a12.19 12.19 0 0 1 -.34 1.93h-6.5v2.56h5.62a14.31 14.31 0 0 1 -5.57 6.22l-.1.06.07.1c.06.07 1.47 1.83 1.67 2l.06.06.07-.05a34.6 34.6 0 0 0 2.9-2.21v8.1h2.7v-4.13h6.09v1.59c-.08.14-.16.22-.25.22h-2.26l1.08 2.77v.06h.71c2-.13 3.38-.48 3.38-1.73v-12.26h-7.91l.39-.8h9.87v-2.56h-9.09c.21-.92.4-1.61.41-1.62zm-2.39 8.87v-1.45h6.09v1.45zm0 3.46v-1.45h6.09v1.45z"/><path d="m219.59 175.65a10.59 10.59 0 0 1 -3.72-2.29 31 31 0 0 1 3.62-2.67l.18-.08-.17-.11c-.08 0-1.88-1.14-2.5-1.37h-.06l-2.11 2a3.21 3.21 0 0 1 -.38-1.35v-1h3.64v-9.25h-9.47v1.1h-.07s-1.55-.63-2-.84h-5.55v19.18h2.66v-6.23l1.06 2.53h.09c2.11-.54 3.31-1.62 3.56-3.21a5.74 5.74 0 0 0 0-2.08 8.08 8.08 0 0 0 -1.72-3.34c.18-.5 1.47-4.17 2-5.85v14.46l-2.22.37.6 3.37 6.68-1.94h.09v-1.85l.64.73c1.45 1.48 2.26 2.36 3.53 2.91h.09l1.67-3.19zm-14.38-4.26a2.52 2.52 0 0 1 -1.59.61v-9.56h.19 1.41a23.25 23.25 0 0 1 -1.15 4v.06c.51.78 1.81 2.95 1.81 3.58a1.63 1.63 0 0 1 -.67 1.31zm6-9.44h4v1h-4zm2 12.42-2 .34v-6h.13v-.08h.66a11.24 11.24 0 0 0 .37 2.72 25.88 25.88 0 0 0 .94 2.84h-.15a1.21 1.21 0 0 1 .1.18zm-2-8.13v-1h.13 4v1h-.07z"/><path d="m212.42 171.37a11.24 11.24 0 0 1 -.37-2.72h-.66v.08h.54a11.55 11.55 0 0 0 .38 2.76 26.65 26.65 0 0 0 .9 2.74h.15a25.88 25.88 0 0 1 -.94-2.86z"/><path d="m215.29 166.2h.06v-.96h-3.96v.02h3.9z"/><path d="m204 166.49v-.06a23.25 23.25 0 0 0 1.15-4h-1.41 1.24a23.93 23.93 0 0 1 -1.17 4.08v.05c.51.79 1.82 3 1.82 3.61a1.65 1.65 0 0 1 -.5 1.16 1.63 1.63 0 0 0 .67-1.28c0-.63-1.3-2.8-1.81-3.58z"/><path d="m203.81 162.44h-.19v9.56a2.52 2.52 0 0 0 1.59-.61 2.7 2.7 0 0 1 -1.4.46z"/><path d="m215.29 166.2h-3.9v-.94h-.13v.98h4.03z"/><path d="m211.39 168.73h-.13v6l2-.34a1.21 1.21 0 0 0 0-.14l-1.82.31z"/><path d="m235.13 170.87v-.06l-2.6.95 1.06 2-4.42.94 3.32-7.39-3.35-1-3.24 8.75-2.84.38.93 3.12 10.78-2.26 1.21 2.58 3.45-1.29v-.09c-1.07-2.89-4.27-6.6-4.3-6.63z"/><path d="m238.22 165.61a9 9 0 0 1 -3.85-6v-.12l-3 1h-.1v.09s.7 2.11 1 2.8c1.23 3 6 6 6.19 6.14l.08.05 2.34-2.67h-.14a9.86 9.86 0 0 1 -2.52-1.29z"/><path d="m223.81 169.55h.07c2.63-1.77 5.66-8.34 5.79-8.62l.05-.11-3.37-1.06v.09a21.5 21.5 0 0 1 -1.84 3.64 13.27 13.27 0 0 1 -3.29 3.5l-.13.07 2.69 2.48z"/><path d="m244.4 167.43v7.9h2.91v-.63h4.87v.63h2.93v-7.9zm7.81 4.51h-4.9v-1.78h4.9z"/><path d="m242.55 159.67v2.73h14.86v12.18c0 .53-.07 1.46-.52 1.46a17.12 17.12 0 0 1 -3.65-.3l.65 2.87h.16a23.94 23.94 0 0 0 3.24.25c2 0 3-1.13 3-3.28v-15.91z"/><path d="m244.23 163.62h11.2v2.75h-11.2z"/><path d="m151.22 205.07a30.15 30.15 0 0 0 2.88-4.85v-.06l-1-1.16h-7.73a5.4 5.4 0 0 0 1.32-1.73 5.82 5.82 0 0 0 .87-3.72v-.08h1.27v3.27c0 .54.64 1.49 1.09 1.5h3.21c.3 0 .76-.22 1.23-1.27.45-1.21.67-2 .67-2l-2.61-1.18v.16s0 .3 0 .71v.11c0 .51-.06 1-.45 1s-.57-.62-.57-1.06v-3.71h-6.48v2.55a5.76 5.76 0 0 1 -1.68 3.76v-6.31h-6.72v7.72c0 2.88-.22 7.56-1.29 9.75v.1l2.84 1.31v-.12a31 31 0 0 0 1.07-7.1h1.54v3.79c0 .19-.11.3-.22.3h-1.69l1.13 3.44h.12c.84 0 3.07-1.4 3.24-2.3v-.29a18.49 18.49 0 0 1 1.45 2.48l.05.11.1-.06c.14-.07 3.56-2.37 4.38-3.08.44.28 2.77 2.57 3.89 3.1h.08l1.87-3.41h-.17a17.82 17.82 0 0 1 -3.69-1.67zm-10.62-4.75h-1.54v-2.24h1.54zm0-4.73h-1.54v-2.12h1.54zm2.57 11.63v-9.45a7.08 7.08 0 0 1 1.54 1.23h-.95v2.37h1l.09.14a33.76 33.76 0 0 0 2.45 3.83 22.84 22.84 0 0 1 -4.12 1.88zm6-3.78-1.4-2.07h2.62a15.44 15.44 0 0 1 -1.23 2.07z"/><path d="m175.13 195.12a14.07 14.07 0 0 1 -2.35-4.2v-.09l-2.27.92h-.09v.1a17.17 17.17 0 0 0 4 6.57h-9.05l.12-.12c2-2 4-6.45 4-6.49l.06-.12h-.13c-.9-.19-2.33-.6-2.34-.61h-.08v.07s-2.1 4.22-3.9 5.65v-.93l1.47-4.31v-.12l-3.15-.59v.09s-.69 2.57-.92 3.1a18.41 18.41 0 0 1 -2.88 5.27v.06l1.64 2.76.09-.16c.2-.34.69-1.15 1-1.55v9.83h2.78v-12.93l1.31 1.88.62-.45v2.31h2.12v.3a8.29 8.29 0 0 1 -3.43 5.94l-.1.07 2.34 2.18.07-.07a13.46 13.46 0 0 0 2.52-3.34 15.15 15.15 0 0 0 1.46-5.08h2v3.72a3.65 3.65 0 0 1 -.54 2.45.29.29 0 0 1 -.22.09h-2l1.07 2.91h.51a5.83 5.83 0 0 0 1.38-.09 3.08 3.08 0 0 0 2.2-2.18 14.5 14.5 0 0 0 .3-3.2v-6.12l1 1 .05-.14a14.23 14.23 0 0 1 1.39-2.53v-.08l-.08-.06a18.4 18.4 0 0 1 -1.97-1.71z"/><path d="m188.84 191.25v-.12l-3-.3v.1a12.19 12.19 0 0 1 -.34 1.93h-6.5v2.56h5.62a14.25 14.25 0 0 1 -5.57 6.22l-.1.06.07.1c.06.07 1.47 1.83 1.67 2l.06.06.07-.05a34.6 34.6 0 0 0 2.9-2.21v8.56h2.7v-4.59h6.09v1.59c-.08.15-.16.22-.25.22h-2.26l1.08 2.71v.07h.71c2-.13 3.38-.42 3.38-1.68v-12.26h-7.91l.39-.8h9.87v-2.56h-9.09c.21-.92.4-1.61.41-1.61zm-2.39 8.87v-1.46h6.09v1.46zm0 3.45v-1.45h6.09v1.45z"/><path d="m219.59 207a10.73 10.73 0 0 1 -3.72-2.28 28.89 28.89 0 0 1 3.62-2.67l.18-.09-.17-.1a25.75 25.75 0 0 0 -2.5-1.38h-.06l-2.11 2a3.21 3.21 0 0 1 -.38-1.35v-1h3.64v-9.24h-9.47v1.09h-.07s-1.55-.63-2-.84h-5.55v19.19h2.66v-6.33l1.06 2.52h.09c2.11-.54 3.31-1.62 3.56-3.2a5.79 5.79 0 0 0 0-2.09 8.11 8.11 0 0 0 -1.72-3.33c.18-.51 1.47-4.18 2-5.86v14.47l-2.22.37.6 3.38 6.68-1.95h.09v-1.71l.64.72c1.45 1.48 2.26 2.37 3.53 2.92h.09l1.67-3.19zm-14.38-4.25a2.56 2.56 0 0 1 -1.59.6v-9.56h.19 1.41a23.64 23.64 0 0 1 -1.15 4v.05c.51.79 1.81 2.95 1.81 3.58a1.65 1.65 0 0 1 -.67 1.32zm6-9.45h4v1h-4zm2 12.42-2 .34v-6h.13v-.06h.66a11.24 11.24 0 0 0 .37 2.72 25.88 25.88 0 0 0 .94 2.84h-.15a.69.69 0 0 1 .1.15zm-2-8.13v-1h.13 4v1h-.07z"/><path d="m212.42 202.71a11.24 11.24 0 0 1 -.37-2.72h-.66v.08h.54a11.55 11.55 0 0 0 .38 2.76 27.86 27.86 0 0 0 .9 2.75h.15a25.88 25.88 0 0 1 -.94-2.87z"/><path d="m204 197.83v-.05a23.64 23.64 0 0 0 1.15-4h-1.41 1.24a23.93 23.93 0 0 1 -1.17 4.08v.05c.51.79 1.82 3 1.82 3.62a1.69 1.69 0 0 1 -.5 1.16 1.65 1.65 0 0 0 .67-1.29c0-.63-1.3-2.79-1.81-3.58z"/><path d="m203.81 193.78h-.19v9.56a2.56 2.56 0 0 0 1.59-.6 2.67 2.67 0 0 1 -1.4.45z"/><path d="m211.39 200.07h-.13v6l2-.34a.69.69 0 0 0 0-.13l-1.82.3z"/><path d="m235.13 202.21v-.06l-2.6.95 1.06 2-4.42 1 3.32-7.39-3.35-1-3.24 8.75-2.66.38.93 3.1 10.6-2.24 1.21 2.59 3.45-1.3v-.09c-1.07-2.9-4.27-6.66-4.3-6.69z"/><path d="m238.22 197a9 9 0 0 1 -3.85-6v-.12l-3 1h-.1v.09s.7 2.11 1 2.81c1.23 3 6 6 6.19 6.13l.08.05 2.34-2.67h-.14a9.86 9.86 0 0 1 -2.52-1.29z"/><path d="m223.81 200.9.07-.05c2.63-1.76 5.66-8.34 5.79-8.62l.05-.1-3.37-1.07v.09a21.5 21.5 0 0 1 -1.84 3.64 13.27 13.27 0 0 1 -3.29 3.5l-.13.07 2.69 2.48z"/><path d="m244.4 198.77v7.9h2.91v-.67h4.87v.63h2.93v-7.9zm7.81 4.52h-4.9v-1.79h4.9z"/><path d="m242.55 191v2.74h14.86v12.17c0 .53-.07 1.47-.52 1.47a17.8 17.8 0 0 1 -3.65-.3l.65 2.86h.16a24.11 24.11 0 0 0 3.24.26c2 0 3-1.14 3-3.29v-15.91z"/><path d="m244.1 194.87h11.2v2.75h-11.2z"/><path d="m67.83 159.72h10.38v2.25h-10.38z"/><path d="m77 166.79v-4.17h-7.91v4.17zm-5.65-2.32h3.38v.53h-3.36z"/><path d="m85.58 172.17-2 .3.29 2-.53.07v-3.26h.43v.38h2.36v-8.84h-2.8v-3.31h-2.33v3.31h-2.75v8.85h2.21v-.47h.54v3.58l-3.27.4v-7.89h-9.62v11.56h2.24v-7.2l1 .8c1.58-.75 1.6-3 1.6-3h.2v2a.76.76 0 0 0 .84.76h1.62v3.59c0 .49-1.35.31-1.35.31l-.26-.11v-1.45h1.37v-1.95h-4.82v1.91a.09.09 0 0 0 .1.1h1.09a.11.11 0 0 1 .1.1v3.29h2.26v-1.65a4.33 4.33 0 0 1 .75 2 .49.49 0 0 0 .52.46c2.46 0 2.47-1.11 2.55-1.35v-2l.83 2.34 5.39-1.06.41 2.11 2.27-.25zm-2.25-7h.47v3.75h-.47zm-2.33 3.74h-.46v-3.75h.46zm-10.64 1.78v-1.31h.72s.02 1.09-.72 1.31zm5.28-.42h-.64v-.89h.6z"/><path d="m77.89 177.46a1 1 0 0 1 -.25.6l-.24-.15.29-.52z"/><path d="m75.29 178.81a.48.48 0 0 1 -.36-.18"/><path d="m40.05 45.4h4.3v-12.5h3.08v16.92h-3.08v-1.4l-11.82-.03-.01 1.43h-3.19v-17.07h3.17v12.65l4.35-.03v-15.34h3.2z"/><path d="m11.29 46.4v-5.51h6.58v-3.01l-6.58-.04v-4.34h7.05v-3.12h-17.27v3.12h6.97v4.34h-6.52v3.05h6.52v5.51h-7.94v3.06h19.1v-3.06z"/><path d="m14.23 41.84a1.91 1.91 0 0 0 -1.31 1.6 1.87 1.87 0 0 0 .42 1.39 1.89 1.89 0 0 0 3.28-.7 2 2 0 0 0 -.23-1.52 1.9 1.9 0 0 0 -2.16-.77z"/><path d="m72.11 43.33-2.31-.84h2.94v-2.58h-5.74v-1.24h2.79v-1.61a21.85 21.85 0 0 0 4.51 2.74l1.9-3a15.35 15.35 0 0 1 -8.75-6.54l.13-.27-3.76-.36a14.44 14.44 0 0 1 -8 7.79l1.37 3a33.92 33.92 0 0 0 4.05-2.85v1h2.76v1.24h-5.72v2.58h3.24l-2.33.87 1.09 3.48h-3.59v2.63h17.63v-2.53h-3.86c.22-.47 1.54-3.33 1.65-3.51zm-9.11-7.23a28.73 28.73 0 0 0 2.72-3.1 20.94 20.94 0 0 0 2.91 3.09h-5.63zm-2.33 10.74 2.65-1-1.59-3.35h2.27v4.35zm6.33-4.35h2.27l-1.57 3.32 2.56 1h-3.26z"/><path d="m93.33 35.09h6.66v1.86h2.56v-1.86-.62-1.71h-4.62v-2.68h-2.54v2.68h-4.63v1.71.62 1.86h2.57z"/><path d="m97.93 43.74h3.07v-1.82l.62.47 1.91-1.7a10.34 10.34 0 0 1 -4.16-4.6l-2.24 1a16.37 16.37 0 0 0 3.16 4.2h-7.29a16.66 16.66 0 0 0 3.16-4.2l-2.24-1a10.46 10.46 0 0 1 -3.48 4.18v-1.88l-1.81.4v-2h1.69v-2.66h-1.67v-4.05h-2.65v4.05h-2.48v2.61h2.48v2.63l-2.84.63.49 2.86 2.35-.66v4.36a.51.51 0 0 1 -.51.51h-1.31l1.08 2.73h.81a2.58 2.58 0 0 0 2.58-2.58v-5.74l1.54-.42 1.5 1.33c.21-.15.42-.31.61-.47v1.82h3.09v3.32h-5v2.45h12.44v-2.45h-4.9z"/><path d="m40.06 76.69h4.3v-12.54h3.09v16.7h-3.09v-1.13l-11.85-.03-.03 1.07h-3.18v-16.76h3.18v12.69l4.37-.03v-15.39h3.21z"/><path d="m11.33 77.7v-5.53h6.59v-3.03l-6.59-.03v-4.36h7.06l.01-3.12h-17.33v3.12h6.99v4.36h-6.54v3.06h6.54v5.53h-7.96v3.07h19.16v-3.07z"/><path d="m14.27 73.12a1.89 1.89 0 1 0 1.16 3.6 2 2 0 0 0 1.25-1.31 2 2 0 0 0 -.24-1.52 1.92 1.92 0 0 0 -2.17-.77z"/><path d="m62.15 73.63h3.08v1.97h-3.08z" transform="matrix(.21 -.98 .98 .21 -22.77 120.95)"/><path d="m73.2 75.88 2.69-1.95s-1.76-1.8-1.82-1.83-1.54 1-2.16 1.43a9.44 9.44 0 0 1 -.37-2h3.27v-9.87h-9.29v15.81l-.9.17-.06-1.25-2.56.45v-4.56h2.78v-2.47h-2.78v-1h2v-1.17l.19.14 1.28-2.9a7 7 0 0 1 -3.28-3.5h-2.56a8.13 8.13 0 0 1 -3.5 4.07l1.28 2.89s.22-.18.54-.49v1h1.64v1h-3v2.47h3v5l-3.09.53.07 2.73 7.78-1.48v1.44l6.26-1.09-.13-2.49a9.43 9.43 0 0 0 4 3.64l1.28-2.6a12.57 12.57 0 0 1 -2.56-2.12zm-13.77-9.5a12.06 12.06 0 0 0 1.5-1.9 9.29 9.29 0 0 0 1.62 1.9zm8.81-2h3.85v1.3h-3.85zm0 12.63v-5.51h.76a10.36 10.36 0 0 0 1.27 5.14zm0-7.76v-1.3h3.85v1.3z"/><path d="m58.97 76.41-.46-3.3-2.04.37.47 3.32z"/><path d="m84.9 75s4.1-3.5 5.78-7.07l-2.39-1.7s-2.29 3.91-4.73 5.55z"/><path d="m86.37 70.05h2.98v10.49h-2.98z"/><path d="m95.41 57.44h2.93v10.93h-2.93z" transform="matrix(0 -1 1 0 33.96 159.78)"/><path d="m95.32 62.82h2.89v12.76h-2.89z" transform="matrix(0 -1 1 0 27.57 165.96)"/><path d="m90.42 62.9a22.79 22.79 0 0 1 -5.31 5.1l-1.4-2.88a18.78 18.78 0 0 0 4.19-4c.83.59 1.66 1.21 2.52 1.78z"/><path d="m93.3 77.63h3.46a.42.42 0 0 0 .42-.42v-6.66h3v7.81a2.19 2.19 0 0 1 -2.18 2.19h-3.54z"/><path d="m33.93 174.73h4.3v-12.51h3.08v16.93h-3.08v-1.39l-11.83-.04-.01 1.43h-3.19v-17.08h3.17v12.66l4.35-.03v-15.35h3.21z"/><path d="m11.3 175.74v-5.52h6.58v-3.02l-6.58-.03v-4.35h7.05v-3.12h-17.28v3.12h6.97v4.35h-6.52v3.05h6.52v5.52h-7.94v3.06h19.11v-3.06z"/><path d="m14.24 171.17a1.91 1.91 0 0 0 -1.31 1.6 1.87 1.87 0 0 0 .42 1.39 1.9 1.9 0 0 0 3.29-.7 2 2 0 0 0 -.24-1.52 1.89 1.89 0 0 0 -2.16-.77z"/><path d="m33.93 205.85h4.3v-12.5h3.08v16.93h-3.08v-1.4l-11.83-.03-.01 1.43h-3.19v-17.08h3.17v12.65l4.35-.03v-15.35h3.21z"/><path d="m11.3 206.86v-5.52h6.58v-3.01l-6.58-.03v-4.36h7.05v-3.11h-17.28v3.11h6.97v4.36h-6.52v3.04h6.52v5.52h-7.94v3.06h19.11v-3.06z"/><path d="m14.24 202.3a1.88 1.88 0 0 0 -.89 3 1.9 1.9 0 0 0 3.29-.71 2 2 0 0 0 -.24-1.51 1.89 1.89 0 0 0 -2.16-.78z"/><path d="m61.15 172.69-2.31-.84h2.94v-2.58h-5.78v-1.27h2.78v-1.62a21.52 21.52 0 0 0 4.53 2.75l1.9-3a15.4 15.4 0 0 1 -8.75-6.55l.12-.27-3.73-.31a14.44 14.44 0 0 1 -8 7.79l1.37 3a33.92 33.92 0 0 0 4.05-2.79v1h2.79v1.24h-5.75v2.58h3.24l-2.33.88 1.09 3.47h-3.59v2.64h17.64v-2.61h-3.86c.22-.47 1.56-3.33 1.65-3.51zm-9.15-7.23a26.11 26.11 0 0 0 2.76-3.1 21.14 21.14 0 0 0 2.92 3.1zm-2.3 10.74 2.65-1-1.59-3.35h2.3v4.35zm6.3-4.35h2.26l-1.56 3.33 2.57 1h-3.27z"/><path d="m99.89 164.42h6.67v1.86h2.57v-1.86-.63-1.7h-4.63v-2.69h-2.55v2.69h-4.62v1.7.63 1.86h2.56z"/><path d="m104.5 173.07h3.09v-1.82c.19.16.4.32.61.47l1.91-1.7a10.34 10.34 0 0 1 -4.16-4.6l-2.24 1a16.37 16.37 0 0 0 3.16 4.2h-7.29a16.37 16.37 0 0 0 3.16-4.2l-2.23-1a10.42 10.42 0 0 1 -3.51 4.17v-1.88l-1.81.4v-2.05h1.71v-2.6h-1.69v-4.06h-2.62v4.06h-2.51v2.6h2.51v2.63l-2.87.64.49 2.86 2.38-.66v4.36a.51.51 0 0 1 -.51.52h-1.34l1.08 2.73h.81a2.59 2.59 0 0 0 2.58-2.59v-5.74l1.55-.42 1.49 1.33c.22-.15.42-.31.62-.47v1.82h3.13v3.32h-5v2.45h12.46v-2.45h-5z"/><path d="m95.93 203.16h3.18v2.03h-3.18z" transform="matrix(.21303039 -.97704557 .97704557 .21303039 -122.75 255.98)"/><path d="m107.34 205.49 2.78-2s-1.82-1.86-1.88-1.88-1.59 1-2.23 1.47a9.38 9.38 0 0 1 -.38-2.1h3.37v-10.18h-9.6v16.33l-.92.17-.06-1.3-2.62.46v-4.71h2.88v-2.55h-2.88v-1h2.09v-1.2l.19.14 1.32-3a7.23 7.23 0 0 1 -3.4-3.63h-2.7a8.32 8.32 0 0 1 -3.61 4.2l1.32 3 .56-.51v1h1.69v1h-3.1v2.55h3.12v5.15l-3.19.56.07 2.82 8-1.54v1.49l6.47-1.13-.14-2.57a9.81 9.81 0 0 0 4.1 3.77l1.37-2.69a13.34 13.34 0 0 1 -2.62-2.12zm-14.22-9.81a12.44 12.44 0 0 0 1.55-2 9.35 9.35 0 0 0 1.67 2zm9.1-2.09h4v1.35h-4zm0 13v-5.59h.83a10.81 10.81 0 0 0 1.31 5.32zm0-8v-1.34h4v1.34z"/><path d="m92.64 206.03-.47-3.4-2.11.39.48 3.42z"/><path d="m113.89 204.62s4.22-3.61 6-7.3l-2.47-1.76s-2.41 4-4.88 5.74z"/><path d="m115.42 199.51h3.08v10.84h-3.08z"/><path d="m124.75 186.49h3.02v11.3h-3.02z" transform="matrix(0 -1 1 0 -65.87 318.39)"/><path d="m124.66 192.04h2.98v13.18h-2.98z" transform="matrix(0 -1 1 0 -72.48 324.78)"/><path d="m119.6 192.12a23.32 23.32 0 0 1 -5.49 5.28l-1.44-3a19 19 0 0 0 4.32-4.1c.86.6 1.72 1.24 2.61 1.82z"/><path d="m122.58 207.35h3.57a.44.44 0 0 0 .43-.44v-6.91h3.15v8.06a2.27 2.27 0 0 1 -2.26 2.27h-3.69z"/></g></svg>