<svg viewBox="0 0 411.48 324.39" xmlns="http://www.w3.org/2000/svg"><text fill="#231815" font-family="DFHeiStd-W5-B5pc-H, DFHei Std" font-size="10" transform="translate(10.99 8.6)">標誌與中、英文簡稱組合(一)</text><text fill="#208ec5" font-family="ArialMT, Arial" font-size="6.15" transform="translate(64.43 98.12)">0.3X</text><text fill="#208ec5" font-family="ArialMT, Arial" font-size="6.15" transform="translate(64.43 180.67)">0.3X</text><text fill="#208ec5" font-family="ArialMT, Arial" font-size="6.15" transform="translate(215.63 98.61)">6.5X</text><text fill="#208ec5" font-family="ArialMT, Arial" font-size="6.15" transform="translate(226.77 180.67)">7X</text><path d="m63.1 87.15v2.2h13.96v-2.2" fill="none" stroke="#00b2e1" stroke-miterlimit="10" stroke-width=".1"/><path d="m63.1 168.96v2.2h13.96v-2.2" fill="none" stroke="#00b2e1" stroke-miterlimit="10" stroke-width=".1"/><path d="m386.43 130.64h2.62v27.56h-2.62" fill="none" stroke="#00b2e1" stroke-miterlimit="10" stroke-width=".1"/><path d="m13.44 123.16h-2.62v41.96h2.62" fill="none" stroke="#00b2e1" stroke-miterlimit="10" stroke-width=".1"/><text fill="#208ec5" font-family="ArialMT, Arial" font-size="6.15" transform="translate(0 59.63)">X</text><text fill="#208ec5" font-family="ArialMT, Arial" font-size="6.15" transform="translate(0 145.06)">x</text><path d="m13.44 38.68h-2.62v41.57h2.62" fill="none" stroke="#00b2e1" stroke-miterlimit="10" stroke-width=".1"/><path d="m77.06 89.35h271.48v-2.62" fill="none" stroke="#00b2e1" stroke-miterlimit="10" stroke-width=".1"/><path d="m77.06 171.16h296.86v-2.62" fill="none" stroke="#00b2e1" stroke-miterlimit="10" stroke-width=".1"/><text fill="#208ec5" font-family="ArialMT, Arial" font-size="6.15" transform="translate(373.18 61.06)">0.6X</text><text fill="#208ec5" font-family="ArialMT, Arial" font-size="6.15" transform="translate(398.84 146.97)">0.6X</text><path d="m363.35 46.01h2.62v27.05h-2.62" fill="none" stroke="#00b2e1" stroke-miterlimit="10" stroke-width=".1"/><path d="m59.07 51.86a20.87 20.87 0 0 1 -26.07 27.37 20.87 20.87 0 0 1 -3.27-38.09c6.46-3.75 16.15-3.14 22.06 1.39a21.18 21.18 0 0 1 7.28 9.33z" fill="#009e96"/><path d="m39 48.62c.7-.21 1.61-.77 2.32-.21.49.76 1.86 1 1.49 2.08a14 14 0 0 0 2.39 2.59c.21.05.29-.08.38-.21l-.25-.13c.29-.25 1 .17 1.45-.08a1.11 1.11 0 0 1 .91.38 7 7 0 0 0 .53 1.11l.17-.09a8.23 8.23 0 0 0 .61 1.07c1.49.51 2.19 2.34 3.51 3.1a20.08 20.08 0 0 0 5.21 2.87c-.08.26.21.26.33.34a1.22 1.22 0 0 0 -.82-.17c.25.39.87.21 1 .64h-.66c0 .13.16.13.25.17-.33-.13-.67.13-.87-.3a25.5 25.5 0 0 1 -3.81-1.89c1 .93 2.28 1.29 3.35 1.93.37.21.91.34 1.12.72-.13 0-.33 0-.37.21l-.29-.17c-.09 0 0 .13-.05.17l.1.25a16.72 16.72 0 0 1 -4.26-2.23c-.62-.43-1.24-.77-1.86-1.24-.08 0-.21 0-.25.09.71.55 1.45.89 2.15 1.4a11.61 11.61 0 0 1 -3.78-2.83c-.46-.47-1.12-1.45-1.91-1.28-.28.17-.74.13-1.07.3-.25 0-.46-.3-.7-.08-.21.46-.87.08-1 .59-.41.17-1.15 0-1.28.56v.21c-.82.38-1.94.25-2.52 1.06-.17.17-.5 0-.66.17 0-.08 0-.17-.13-.17s-.33.13-.49.17c-.13-.21.16-.25.12-.38-.37-.17-.54.34-.83.51 0-.34.42-.38.54-.68-.2-.13-.37.08-.54.13.09 0 .25-.34 0-.34.21-.34.67-.22.79-.6h-.32c.33-.26.7-.55 1-.81-.12 0-.37-.34-.58 0 0 0 .09-.09 0-.13s-.37.13-.57.13c0 0 0-.13-.09-.17h-.12c.12-.09.29-.3.45-.43l-.09-.12c.62-.38 1.24-.81 1.86-1.11l.13-.13a.44.44 0 0 0 -.67 0c.54 0 0-.63.58-.72a1.71 1.71 0 0 1 .83-1c-.54-.51-.74-1.45-1.36-1.74 0-.39-.42 0-.46-.39-.74 0-1.61.34-2.11-.34a3.05 3.05 0 0 0 -1.24 0 4.25 4.25 0 0 0 -.66 1.06 3.84 3.84 0 0 0 -.74 1.07 3.38 3.38 0 0 1 -1.49 1.36v-.09c-.46.64-1.45.39-2 1.07v-.17a.34.34 0 0 0 -.42.25v.05c-.29-.09-.49.25-.62.42-.7.77-1.86.77-2.6 1.41-.08 0 0 0 0-.05-1.37.3-2 1.37-2.94 2.39a6 6 0 0 1 -1 1c.08.34-.42.47-.58.64.16-.3.54-.56.58-.9-.33.17-.42.56-.79.73-.2-.17.21-.3.09-.47l-.5.38.45-.64c-.24 0-.49.47-.78.51-.08.13-.21.13-.37.13.16-.13.45-.43.7-.68-.29-.17-.62.21-.83.17s0-.26-.25-.17c.21-.17.42-.3.5-.55-.17-.05-.37.08-.54.17 0-.22.46-.35.33-.69-.53-.08-.45.47-.91.6.46-.64 1.12-1 1.58-1.7h-.05a12 12 0 0 1 3-2.22c.87-.51 2-.76 2.65-1.61a6.24 6.24 0 0 0 .66-1c.13 0 .17-.09.21-.17a3.84 3.84 0 0 1 2-.64c.33-.34 1-.13 1.19-.6.87-1.06 1.2-2.38 2-3.44.25-.34.54-.9 1-1a19.41 19.41 0 0 1 3.57.6z" fill="#fff"/><path d="m39.66 56.06c-.21.18-.63.31-.67.57-.38-.05-.63.34-.92.34 0-.34.54-.13.58-.47l.34-.26v.13c.13-.13.54 0 .42-.4z" fill="#fff"/><path d="m38.32 56.32a.62.62 0 0 1 -.46.35c.08-.22.25-.22.46-.35z" fill="#fff"/><path d="m39 57.36c0 .09-.09.09-.13.18h-.17c-.05-.13.08-.18.16-.22s.05.04.14.04z" fill="#fff"/><path d="m234.16 59.68h10v2.32h-7.31v3h6.8v2.28h-6.8v3.67h7.56v2.25h-10.25z" fill="#009e96"/><path d="m256.29 68.56a2.76 2.76 0 0 0 2.95 2.58c1.9 0 2.66-1 2.66-1.87 0-1.13-.95-1.37-3.45-2-1.33-.34-4.32-1.08-4.32-4.06 0-1.48 1-3.77 4.94-3.77 2.64 0 5.06 1 5.17 4.09l-2.73.12c-.12-.71-.33-2-2.48-2-.82 0-2.29.25-2.29 1.35 0 .87.85 1.25 3 1.76s4.85 1.15 4.85 4.47a4 4 0 0 1 -2.21 3.56 7.68 7.68 0 0 1 -3.19.6c-1.46 0-5.05-.13-5.58-4.63z" fill="#009e96"/><path d="m272.2 59.68v7.32c0 1.61 0 2.27.34 2.91a2.57 2.57 0 0 0 2.4 1.19c2.6 0 2.6-1.64 2.6-4v-7.42h2.73v7.1c0 2.42-.1 3.76-.75 4.79-1 1.6-3 1.86-4.5 1.86-5.54 0-5.54-3.41-5.54-6.53v-7.22z" fill="#009e96"/><path d="m285.84 59.68h2.64l5.5 9v-9h2.53v13.52h-2.73l-5.42-8.82v8.82h-2.53z" fill="#009e96"/><path d="m307.42 59.68h9.28v2.32h-6.55v3.22h5.66v2.28h-5.66v5.7h-2.73z" fill="#009e96"/><path d="m321.29 59.68h2.71v5.32h5.35v-5.32h2.72v13.52h-2.72v-5.91h-5.35v5.91h-2.72z" fill="#009e96"/><path d="m348.54 69.06a5.35 5.35 0 0 1 -5.61 4.37c-3.67 0-6.17-2.67-6.17-6.88 0-3.76 1.91-7.09 6.32-7.09a5.81 5.81 0 0 1 4.14 1.54 5.2 5.2 0 0 1 1.28 2.42l-2.7.64a2.79 2.79 0 0 0 -2.86-2.27c-3.36 0-3.36 3.71-3.36 4.58a6.35 6.35 0 0 0 .72 3.39 3 3 0 0 0 2.61 1.33c1.81 0 2.64-1.38 3-2.85z" fill="#009e96"/><path d="m250.19 71.47a1.75 1.75 0 1 0 -1.75 1.75 1.75 1.75 0 0 0 1.75-1.75z" fill="#009e96"/><path d="m59.19 136.42a21 21 0 0 1 -26.19 27.58 21 21 0 0 1 -3.3-38.35c6.51-3.78 16.27-3.16 22.21 1.4a21.31 21.31 0 0 1 7.28 9.37z" fill="#009e96"/><path d="m39 133.16c.71-.21 1.62-.77 2.33-.21.5.77 1.87 1 1.5 2.1a14.59 14.59 0 0 0 2.41 2.61c.21 0 .3-.09.38-.22l-.25-.12c.29-.26 1 .17 1.46-.09a1.14 1.14 0 0 1 .91.38 6.76 6.76 0 0 0 .54 1.12l.17-.09a9.07 9.07 0 0 0 .54 1.08c1.5.51 2.21 2.35 3.54 3.12a20.52 20.52 0 0 0 5.25 2.89c-.09.26.21.26.33.34a1.26 1.26 0 0 0 -.83-.17c.25.39.87.22 1 .64h-.67c0 .13.17.13.25.18-.33-.13-.67.13-.87-.3a26.27 26.27 0 0 1 -3.83-1.9c.95.94 2.28 1.3 3.37 1.94.37.22.91.35 1.12.73-.12 0-.33 0-.37.21l-.29-.17c-.09.05 0 .13-.05.17l.21.18a16.66 16.66 0 0 1 -4.29-2.25c-.62-.43-1.25-.77-1.87-1.24-.08 0-.21 0-.25.09.71.55 1.46.89 2.16 1.41a11.79 11.79 0 0 1 -3.9-2.79c-.46-.47-1.12-1.46-1.91-1.29-.29.17-.75.13-1.09.3-.25 0-.45-.3-.7-.08-.21.47-.88.08-1 .6-.42.17-1.17 0-1.29.55v.22c-.84.38-2 .26-2.54 1.07-.17.17-.5 0-.67.17a.13.13 0 0 0 -.12-.17c-.21-.09-.34.13-.5.17-.13-.21.16-.26.12-.38-.37-.18-.54.34-.83.51 0-.34.41-.39.54-.69-.21-.12-.38.09-.54.13.08 0 .25-.34 0-.34.21-.34.66-.21.79-.6h-.26c.33-.26.7-.56 1-.81-.12 0-.37-.35-.58 0 0 0 .09-.08 0-.13s-.37.13-.58.13c0 0 0-.13-.08-.17h-.13c.13-.08.29-.3.46-.43l-.08-.08a20.52 20.52 0 0 1 1.87-1.12l.13-.12a.42.42 0 0 0 -.67 0c.54-.05 0-.65.58-.73a1.71 1.71 0 0 1 .84-1c-.55-.51-.75-1.46-1.38-1.76 0-.38-.42 0-.46-.38-.75 0-1.62.34-2.12-.34a3.1 3.1 0 0 0 -1.25 0 4.34 4.34 0 0 0 -.67 1.07 4.23 4.23 0 0 0 -.74 1.07 3.37 3.37 0 0 1 -1.5 1.37v-.08c-.46.64-1.46.39-2 1.07l-.05-.17a.34.34 0 0 0 -.41.26v.08c-.29-.08-.5.26-.63.43-.71.77-1.87.77-2.62 1.41-.08.05 0 0 0 0-1.38.3-2 1.37-3 2.4a5.73 5.73 0 0 1 -1 1c.09.34-.41.47-.58.64.17-.3.54-.56.58-.9-.33.17-.41.56-.79.73-.21-.17.21-.3.09-.47l-.5.38.45-.64c-.25 0-.5.47-.79.51-.08.13-.21.13-.37.13.16-.13.46-.43.71-.69-.3-.17-.63.22-.84.18s0-.26-.25-.18c.21-.17.42-.3.5-.55a.9.9 0 0 0 -.54.17c0-.21.46-.34.33-.69-.54-.08-.45.48-.91.6.46-.64 1.12-1 1.58-1.71a11.73 11.73 0 0 1 3-2.23c.87-.51 2-.77 2.66-1.63a7.12 7.12 0 0 0 .67-1c.12 0 .17-.09.21-.17a3.79 3.79 0 0 1 2-.65c.33-.34 1-.13 1.21-.6.87-1.07 1.2-2.4 2-3.47.25-.34.54-.9 1-1a19.78 19.78 0 0 1 3.65.46z" fill="#fff"/><path d="m39.65 140.66c-.21.17-.63.3-.67.56-.38 0-.64.35-.93.35 0-.35.55-.13.59-.48l.34-.26v.13c.12-.13.54 0 .42-.39z" fill="#fff"/><path d="m38.3 140.92a.67.67 0 0 1 -.46.35c.08-.22.25-.22.46-.35z" fill="#fff"/><path d="m38.93 142c0 .09-.08.09-.12.17h-.13c0-.13.09-.17.17-.21s.04.04.08.04z" fill="#fff"/><path d="m237 143.38h10.5v2.39h-7.69v3.17h7.19v2.39h-7.15v3.86h7.95v2.4h-10.8z" fill="#009e96"/><path d="m260.2 152.71a2.91 2.91 0 0 0 3.1 2.71c2 0 2.81-1 2.81-2 0-1.19-1-1.45-3.62-2.08-1.41-.36-4.55-1.14-4.55-4.27 0-1.55 1-4 5.19-4 2.78 0 5.31 1.09 5.43 4.3l-2.87.13c-.13-.74-.34-2.08-2.6-2.08-.86 0-2.4.26-2.4 1.41 0 .92.89 1.32 3.17 1.86s5.1 1.21 5.1 4.7a4.16 4.16 0 0 1 -2.32 3.73 8.13 8.13 0 0 1 -3.36.64c-1.52 0-5.3-.14-5.85-4.87z" fill="#009e96"/><path d="m276.93 143.38v7.68c0 1.69 0 2.38.36 3.06a2.68 2.68 0 0 0 2.52 1.25c2.73 0 2.73-1.73 2.73-4.16v-7.83h2.86v7.46c0 2.54-.1 3.95-.79 5-1.1 1.68-3.14 2-4.73 2-5.82 0-5.82-3.59-5.82-6.87v-7.58z" fill="#009e96"/><path d="m291.26 143.38h2.74l5.78 9.49v-9.49h2.66v14.21h-2.88l-5.56-9.27v9.27h-2.65z" fill="#009e96"/><path d="m253.85 155.77a1.84 1.84 0 1 0 -1.84 1.84 1.84 1.84 0 0 0 1.84-1.84z" fill="#009e96"/><path d="m319.35 146.26a5.41 5.41 0 0 1 1.69.22 1.31 1.31 0 0 1 .77 1.34 1.38 1.38 0 0 1 -.58 1.27 2.85 2.85 0 0 1 -1.52.36h-3.47v-3.19zm.44 5.56a3.81 3.81 0 0 1 1.43.24 1.55 1.55 0 0 1 .92 1.55 1.8 1.8 0 0 1 -.94 1.79 3.43 3.43 0 0 1 -1.47.26h-3.49v-3.84zm.51-8h-6.92v14.33h6.45a9.83 9.83 0 0 0 2-.19 3.93 3.93 0 0 0 1.62-.72 4.09 4.09 0 0 0 1-1.13 4.2 4.2 0 0 0 .63-2.28 3.82 3.82 0 0 0 -.55-2.1 3.17 3.17 0 0 0 -1.63-1.26 3.12 3.12 0 0 0 1.07-.82 3.17 3.17 0 0 0 .66-2.11 3.64 3.64 0 0 0 -.66-2.19 4.41 4.41 0 0 0 -3.67-1.56z" fill="#009e96"/><path d="m334.56 147.07 1.81 5.64h-3.67zm-6.79 11.05h3.14l1-3h5.28l.94 3h3.24l-5.06-14.33h-3.39z" fill="#009e96"/><path d="m344.23 143.79h3.12l5.67 10v-10h2.77v14.33h-3l-5.79-10.12v10.16h-2.77z" fill="#009e96"/><path d="m361.25 143.79h3v5.9l5.52-5.9h3.87l-5.86 5.91 6.16 8.42h-3.85l-4.41-6.24-1.43 1.45v4.79h-3z" fill="#009e96"/><text fill="#231815" font-family="DFHeiStd-W5-B5pc-H, DFHei Std" font-size="10" transform="translate(10.63 232.4)">標誌與中、英文簡稱組合(二)</text><text fill="#208ec5" font-family="ArialMT, Arial" font-size="6.15" transform="translate(0 285.34)">X</text><text fill="#208ec5" font-family="ArialMT, Arial" font-size="6.15" transform="translate(232.47 285.34)">X</text><path d="m12.47 263.42h-1.66v41.91h1.66" fill="none" stroke="#00b2e1" stroke-miterlimit="10" stroke-width=".1"/><text fill="#208ec5" font-family="ArialMT, Arial" font-size="6.15" transform="translate(118.69 322.39)">2.3X</text><path d="m324.74 298a1.91 1.91 0 0 0 2 1.78c1.32 0 1.85-.69 1.85-1.29 0-.78-.66-.95-2.39-1.37-.92-.24-3-.75-3-2.81 0-1 .67-2.61 3.41-2.61 1.83 0 3.51.71 3.58 2.83l-1.89.08c-.08-.48-.22-1.36-1.71-1.36-.57 0-1.58.17-1.58.93 0 .6.58.86 2.09 1.22s3.36.79 3.36 3.09a2.74 2.74 0 0 1 -1.46 2.51 5.42 5.42 0 0 1 -2.21.42c-1 0-3.49-.09-3.86-3.21z" fill="#00a19b"/><path d="m335.79 291.82v5.09a4.39 4.39 0 0 0 .23 2 1.8 1.8 0 0 0 1.68.83c1.81 0 1.81-1.15 1.81-2.75v-5.2h1.89v4.95c0 1.68-.06 2.62-.52 3.33a3.52 3.52 0 0 1 -3.13 1.3c-3.86 0-3.86-2.38-3.86-4.55v-5z" fill="#00a19b"/><path d="m307.51 291.82h7v1.59h-5.1v2.1h4.74v1.59h-4.75v2.55h5.27v1.59h-7.16z" fill="#00a19b"/><path d="m345.29 291.82h1.84l3.83 6.29v-6.29h1.77v9.42h-1.91l-3.77-6.14v6.14h-1.76z" fill="#00a19b"/><path d="m319.09 300a1.22 1.22 0 1 0 -1.22 1.21 1.22 1.22 0 0 0 1.22-1.21z" fill="#00a19b"/><path d="m85.7 300a1.11 1.11 0 1 0 -1.1 1.1 1.11 1.11 0 0 0 1.1-1.1z" fill="#00a19b"/><path d="m366.15 293.45a3.48 3.48 0 0 1 1.12.15.85.85 0 0 1 .5.88.9.9 0 0 1 -.38.84 1.85 1.85 0 0 1 -1 .24h-2.29v-2.11zm.29 3.67a2.59 2.59 0 0 1 .95.16 1 1 0 0 1 .6 1 1.18 1.18 0 0 1 -.62 1.18 2.26 2.26 0 0 1 -1 .17h-2.27v-2.53zm.34-5.29h-4.56v9.44h4.25a6.35 6.35 0 0 0 1.34-.13 2.55 2.55 0 0 0 1.06-.47 2.64 2.64 0 0 0 .67-.74 2.73 2.73 0 0 0 .42-1.5 2.54 2.54 0 0 0 -.36-1.39 2.12 2.12 0 0 0 -1.08-.83 2.17 2.17 0 0 0 .71-.54 2.1 2.1 0 0 0 .43-1.39 2.44 2.44 0 0 0 -.43-1.45 2.89 2.89 0 0 0 -2.45-1z" fill="#00a19b"/><path d="m376.77 294 1.2 3.71h-2.42zm-4.47 7.28h2.07l.64-1.94h3.48l.62 1.94h2.14l-3.34-9.44h-2.23z" fill="#00a19b"/><path d="m384.05 291.83h2.05l3.75 6.57v-6.57h1.82v9.44h-2l-3.84-6.7v6.7h-1.82z" fill="#00a19b"/><path d="m395.85 291.83h2v3.89l3.64-3.89h2.51l-3.86 3.89 4.06 5.55h-2.53l-2.91-4.11-.95.95v3.16h-2z" fill="#00a19b"/><path d="m73.28 291.91h7v1.58h-5.12v2.08h4.71v1.58h-4.71v2.54h5.24v1.59h-7.12z" fill="#00a19b"/><path d="m92.58 298.05a1.9 1.9 0 0 0 2 1.78c1.31 0 1.84-.68 1.84-1.28 0-.78-.66-.95-2.38-1.37-.92-.23-3-.74-3-2.79 0-1 .66-2.6 3.39-2.6 1.82 0 3.49.71 3.57 2.82l-1.89.08c-.08-.49-.22-1.36-1.7-1.36-.56 0-1.58.17-1.58.93 0 .59.59.85 2.08 1.21s3.35.79 3.35 3.08a2.76 2.76 0 0 1 -1.46 2.45 5.34 5.34 0 0 1 -2.2.41c-1 0-3.48-.09-3.84-3.19z" fill="#00a19b"/><path d="m104.82 291.91v5.09a4.2 4.2 0 0 0 .24 2 1.78 1.78 0 0 0 1.66.82c1.8 0 1.8-1.14 1.8-2.73v-5.17h1.88v4.92c0 1.67-.06 2.6-.52 3.31a3.5 3.5 0 0 1 -3.11 1.29c-3.83 0-3.83-2.36-3.83-4.52v-5z" fill="#00a19b"/><path d="m115 291.91h1.83l3.8 6.25v-6.25h1.75v9.37h-1.88l-3.75-6.11v6.11h-1.75z" fill="#00a19b"/><path d="m138.12 291.91h6.42v1.58h-4.54v2.23h3.92v1.58h-3.92v4h-1.89z" fill="#00a19b"/><path d="m149.61 291.91h1.89v3.69h3.7v-3.69h1.88v9.37h-1.88v-4.1h-3.7v4.1h-1.89z" fill="#00a19b"/><path d="m169.57 298.37a3.69 3.69 0 0 1 -3.87 3c-2.52 0-4.24-1.84-4.24-4.74 0-2.59 1.31-4.89 4.34-4.89a4 4 0 0 1 2.85 1.06 3.69 3.69 0 0 1 .89 1.68l-1.86.43a1.92 1.92 0 0 0 -2-1.56c-2.31 0-2.31 2.55-2.31 3.15a4.41 4.41 0 0 0 .49 2.34 2.08 2.08 0 0 0 1.8.91c1.24 0 1.82-.95 2.05-2z" fill="#00a19b"/><path d="m246.64 263.42h-1.66v41.91h1.66" fill="none" stroke="#00b2e1" stroke-miterlimit="10" stroke-width=".1"/><text fill="#208ec5" font-family="ArialMT, Arial" font-size="6.15" transform="translate(60.88 322.39)">0.3X</text><path d="m73.07 310.91v1.66h-13.17v-1.66" fill="none" stroke="#00b2e1" stroke-miterlimit="10" stroke-width=".1"/><path d="m307.1 310.91v1.66h-13.18v-1.66" fill="none" stroke="#00b2e1" stroke-miterlimit="10" stroke-width=".1"/><path d="m169.57 310.92v1.66h-96.5v-1.66" fill="none" stroke="#00b2e1" stroke-miterlimit="10" stroke-width=".1"/><text fill="#208ec5" font-family="ArialMT, Arial" font-size="6.15" transform="translate(354.56 322.39)">2.3X</text><text fill="#208ec5" font-family="ArialMT, Arial" font-size="6.15" transform="translate(294.9 322.39)">0.3X</text><path d="m404.2 310.92v1.66h-97.1v-1.66" fill="none" stroke="#00b2e1" stroke-miterlimit="10" stroke-width=".1"/><path d="m58.5 276.69a21 21 0 0 1 -26.24 27.55 21 21 0 0 1 -3.26-38.34c6.5-3.77 16.26-3.16 22.2 1.4a21.38 21.38 0 0 1 7.3 9.39z" fill="#00a19b"/><path d="m38.32 273.43c.71-.21 1.62-.77 2.33-.21.5.77 1.88 1 1.5 2.09a14.65 14.65 0 0 0 2.41 2.62c.21 0 .3-.09.38-.22l-.25-.13c.29-.25 1 .17 1.46-.08a1.11 1.11 0 0 1 .91.38 7.16 7.16 0 0 0 .54 1.12l.17-.09a8.23 8.23 0 0 0 .54 1.07c1.5.51 2.21 2.36 3.54 3.13a20.43 20.43 0 0 0 5.24 2.89c-.08.26.21.26.34.35a1.16 1.16 0 0 0 -.84-.17c.26.38.88.21 1 .64h-.66c0 .13.16.13.25.17-.33-.13-.67.13-.88-.3a27.31 27.31 0 0 1 -3.83-1.9 15.82 15.82 0 0 0 3.37 1.94c.38.22.92.35 1.13.73-.13.05-.34.05-.38.22l-.29-.17c-.08 0 0 .13 0 .17l.21.17a16.46 16.46 0 0 1 -4.29-2.24c-.62-.43-1.25-.77-1.87-1.25-.09 0-.21 0-.25.09.71.56 1.45.9 2.16 1.41a11.65 11.65 0 0 1 -3.87-2.87c-.46-.47-1.12-1.45-1.91-1.28-.29.17-.75.13-1.09.3-.24 0-.45-.3-.7-.09-.21.47-.88.09-1 .6-.42.17-1.17.05-1.29.56v.21c-.83.39-2 .26-2.54 1.07-.17.17-.5 0-.66.17a.14.14 0 0 0 -.13-.17c-.21-.08-.33.13-.5.17-.12-.21.17-.25.13-.38-.38-.17-.55.34-.84.51 0-.34.42-.38.54-.68-.21-.13-.37.08-.54.13.09-.05.25-.35 0-.35.21-.34.67-.21.79-.59h-.33c.33-.26.71-.56 1-.82-.12 0-.38-.34-.58 0 0 0 .08-.09 0-.13s-.38.13-.59.13c0 0 .05-.13-.08-.17h-.07c.12-.09.29-.3.46-.43l-.09-.09c.63-.38 1.25-.81 1.88-1.11l.12-.13a.44.44 0 0 0 -.67 0c.55 0 0-.64.59-.72a1.67 1.67 0 0 1 .83-1c-.54-.52-.75-1.46-1.38-1.76 0-.38-.41 0-.45-.38-.75-.05-1.63.34-2.13-.35a3.05 3.05 0 0 0 -1.24 0 4.07 4.07 0 0 0 -.67 1.07 4.26 4.26 0 0 0 -.75 1.07 3.27 3.27 0 0 1 -1.5 1.37v-.08c-.46.64-1.45.38-2 1.07v-.18a.36.36 0 0 0 -.42.26v.09c-.29-.09-.49.25-.62.42-.71.78-1.87.78-2.62 1.42-.09 0 0 0 0 0-1.38.3-2 1.37-3 2.39a5.42 5.42 0 0 1 -1 1c.09.34-.41.47-.58.64.17-.3.54-.55.58-.9-.33.18-.41.56-.79.73-.21-.17.21-.3.09-.47l-.5.39.45-.65c-.25.05-.5.47-.79.52-.08.13-.21.13-.37.13v-.05c.16-.13.46-.42.71-.68-.29-.17-.63.21-.84.17s0-.26-.25-.17c.21-.17.42-.3.5-.56-.16 0-.37.09-.54.17 0-.21.46-.34.34-.68-.54-.09-.46.47-.92.6.46-.65 1.12-1 1.58-1.71v-.05a12.21 12.21 0 0 1 3-2.23c.87-.51 2-.77 2.66-1.62a6.64 6.64 0 0 0 .67-1c.12.05.17-.08.21-.17a3.87 3.87 0 0 1 2-.64c.33-.34.95-.13 1.2-.6.88-1.07 1.21-2.4 2-3.47.25-.34.54-.9 1-1a20.33 20.33 0 0 1 3.57.62z" fill="#fff"/><path d="m39 280.92c-.21.18-.63.31-.67.57-.38 0-.63.35-.93.35 0-.35.55-.13.59-.48l.34-.26v.13c.13-.13.55-.05.42-.4z" fill="#fff"/><path d="m37.62 281.18a.66.66 0 0 1 -.47.35c.09-.21.26-.21.47-.35z" fill="#fff"/><path d="m38.25 282.23c0 .09-.09.09-.13.18h-.12c0-.13.09-.18.17-.22s.04.04.08.04z" fill="#fff"/><path d="m292.52 276.69a21 21 0 0 1 -26.23 27.55 21 21 0 0 1 -3.29-38.34c6.51-3.77 16.26-3.16 22.2 1.4a21.31 21.31 0 0 1 7.32 9.39z" fill="#00a19b"/><path d="m272.34 273.43c.71-.21 1.63-.77 2.34-.21.5.77 1.87 1 1.5 2.09a14 14 0 0 0 2.41 2.62c.21 0 .29-.09.37-.22l-.25-.13c.3-.25 1 .17 1.46-.08a1.13 1.13 0 0 1 .92.38 6.37 6.37 0 0 0 .54 1.12l.16-.09a9.72 9.72 0 0 0 .54 1.07c1.5.51 2.21 2.36 3.54 3.13a20.48 20.48 0 0 0 5.25 2.88c-.09.26.21.26.33.35a1.15 1.15 0 0 0 -.83-.17c.25.38.87.21 1 .64h-.62c0 .13.17.13.25.17-.33-.13-.67.13-.87-.3a26.27 26.27 0 0 1 -3.83-1.9c1 .94 2.29 1.3 3.37 1.94.37.22.91.35 1.12.73-.12.05-.33.05-.37.22l-.29-.17c-.09 0 0 .13-.05.17l.21.17a16.78 16.78 0 0 1 -4.29-2.24c-.62-.43-1.24-.77-1.87-1.25-.08 0-.21 0-.25.09.71.56 1.46.9 2.17 1.41a11.78 11.78 0 0 1 -3.88-2.87c-.45-.47-1.12-1.45-1.91-1.28-.29.17-.75.13-1.08.3-.25 0-.46-.3-.71-.09-.21.47-.87.09-1 .6-.41.17-1.16.05-1.29.56v.21c-.83.39-1.95.26-2.54 1.07-.16.17-.5 0-.66.17 0-.08 0-.17-.13-.17s-.33.13-.5.17c-.12-.21.17-.25.13-.38-.38-.17-.54.34-.83.51 0-.34.41-.38.54-.68-.21-.13-.38.08-.54.13.08-.05.24-.35 0-.35.2-.34.66-.21.79-.59h-.34c.34-.26.71-.56 1-.82-.12 0-.37-.34-.58 0 0 0 .08-.09 0-.13s-.37.13-.58.13c0 0 0-.13-.09-.17h-.1c.12-.09.29-.3.46-.43l-.09-.09c.63-.38 1.25-.81 1.88-1.11l.12-.13a.42.42 0 0 0 -.66 0c.54 0 0-.64.58-.72a1.67 1.67 0 0 1 .83-1c-.54-.52-.75-1.46-1.37-1.76 0-.38-.42 0-.46-.38-.75-.05-1.62.34-2.12-.35a3.1 3.1 0 0 0 -1.25 0 4.34 4.34 0 0 0 -.67 1.07 4 4 0 0 0 -.74 1.07 3.37 3.37 0 0 1 -1.5 1.37v-.08c-.46.64-1.46.38-2 1.07l-.05-.18a.35.35 0 0 0 -.41.26v.09c-.29-.09-.5.25-.63.42-.7.78-1.87.78-2.62 1.42-.08 0 0 0 0 0-1.37.3-2 1.37-3 2.39a5.74 5.74 0 0 1 -1 1c.08.34-.42.47-.58.64.16-.3.53-.55.58-.9-.34.18-.42.56-.79.73-.21-.17.21-.3.08-.47l-.5.39.46-.65c-.25.05-.5.47-.79.52-.09.13-.21.13-.38.13v-.05a8.26 8.26 0 0 0 .71-.68c-.29-.17-.62.21-.83.17s0-.26-.25-.17a1.28 1.28 0 0 0 .5-.56c-.17 0-.38.09-.54.17 0-.21.45-.34.33-.68-.54-.09-.46.47-.92.6.46-.65 1.13-1 1.59-1.71v-.05a12.4 12.4 0 0 1 3-2.23c.88-.51 2-.77 2.67-1.62a6.55 6.55 0 0 0 .66-1c.13.05.17-.08.21-.17a3.87 3.87 0 0 1 2-.64c.33-.34 1-.13 1.21-.6.87-1.07 1.2-2.4 1.95-3.47.25-.34.54-.9 1-1a20.33 20.33 0 0 1 3.67.63z" fill="#fff"/><path d="m273 280.92c-.21.18-.64.31-.68.57-.38 0-.63.35-.92.35 0-.35.54-.13.59-.48l.33-.26v.13c.13-.13.55-.05.43-.4z" fill="#fff"/><path d="m271.64 281.18a.62.62 0 0 1 -.46.35c.08-.21.25-.21.46-.35z" fill="#fff"/><path d="m272.27 282.23c0 .09-.08.09-.13.18h-.14c0-.13.08-.18.17-.22s.06.04.1.04z" fill="#fff"/><g fill="#00a19b"><path d="m130.22 67.4h5.97v-17.39h4.29v23.53h-4.29v-1.94l-16.44-.04-.01 1.98h-4.44v-23.74h4.41v17.6l6.05-.05v-21.33h4.46z"/><path d="m90.59 68.8v-7.68h9.15v-4.19l-9.15-.04v-6.05h9.8l.01-4.33h-24.02v4.33h9.68v6.05h-9.07v4.23h9.07v7.68h-11.04v4.25h26.57v-4.25z"/><path d="m94.68 62.45a2.66 2.66 0 0 0 -1.82 2.22 2.62 2.62 0 0 0 .58 1.94 2.64 2.64 0 0 0 4.57-1 2.86 2.86 0 0 0 -.32-2.11 2.64 2.64 0 0 0 -3.01-1.05z"/><path d="m175.72 64.51-3.21-1.17h4.09v-3.57h-8v-1.77h3.88v-2.21a30.43 30.43 0 0 0 6.29 3.82l2.65-4.11a21.43 21.43 0 0 1 -12.17-9.11c.12-.24.17-.37.17-.37l-5.23-.51a20.09 20.09 0 0 1 -11.13 10.84l1.91 4.2a45.51 45.51 0 0 0 5.63-4v1.45h3.88v1.73h-8v3.57h4.52l-3.24 1.23 1.52 4.83h-5v3.66h24.52v-3.62h-5.37zm-12.72-10.05a37.41 37.41 0 0 0 3.83-4.3 29.63 29.63 0 0 0 4 4.3zm-3.19 14.94 3.69-1.4-2.21-4.66h3.19v6.06zm8.79-6.06h3.16l-2.17 4.66 3.56 1.43h-4.55z"/><path d="m206.87 53.06h9.28v2.58h3.56v-2.58-.87-2.37h-6.43v-3.73h-3.54v3.73h-6.43v2.37.87 2.58h3.56z"/><path d="m213.28 65.09h4.29v-2.53c.27.22.56.44.85.65l2.66-2.36a14.41 14.41 0 0 1 -5.79-6.4l-3.11 1.39a23 23 0 0 0 4.4 5.85h-10.14a23 23 0 0 0 4.4-5.85l-3.11-1.39a14.5 14.5 0 0 1 -4.85 5.81v-2.62l-2.51.56v-2.85h2.35v-3.62h-2.35v-5.64h-3.65v5.64h-3.48v3.62h3.48v3.65l-4 .88.68 4 3.3-.91v6.03a.71.71 0 0 1 -.71.72h-1.86l1.5 3.79h1.12a3.6 3.6 0 0 0 3.6-3.59v-7.92l2.14-.59 2.08 1.85c.3-.21.59-.43.86-.65v2.53h4.29v4.62h-6.89v3.4h17.32v-3.4h-6.89z"/><path d="m110.55 281.69h4.04v-11.77h2.9v15.93h-2.9v-1.31l-11.13-.03v1.34h-3.01v-16.07h2.98v11.91l4.1-.03v-14.44h3.02z"/><path d="m83.41 282.64v-5.2h6.19v-2.83l-6.19-.03v-4.1h6.63v-2.93h-16.26v2.93h6.56v4.1h-6.14v2.86h6.14v5.2h-7.48v2.88h17.99v-2.88z"/><path d="m86.17 278.34a1.78 1.78 0 0 0 -.84 2.82 1.86 1.86 0 0 0 1.93.55 1.83 1.83 0 0 0 1.17-1.22 2 2 0 0 0 -.22-1.43 1.81 1.81 0 0 0 -2.04-.72z"/><path d="m141 279.74-2.17-.79h2.76v-2.42h-5.39v-1.17h2.63v-1.53a20.49 20.49 0 0 0 4.25 2.59l1.8-2.78a14.52 14.52 0 0 1 -8.24-6.17l.12-.25-3.54-.34a13.6 13.6 0 0 1 -7.53 7.33l1.28 2.85a30.92 30.92 0 0 0 3.82-2.69v1h2.62v1.17h-5.41v2.46h3.05l-2.19.82 1 3.27h-3.38v2.48h16.6v-2.57h-3.64zm-8.61-6.81a25.83 25.83 0 0 0 2.61-2.93 19.54 19.54 0 0 0 2.74 2.91h-5.34zm-2.14 10.07 2.5-.94-1.5-3.15h2.16v4.09zm5.95-4h2.14l-1.47 3.13 2.41 1h-3.08z"/><path d="m160.83 271.99h6.28v1.75h2.41v-1.75-.59-1.61h-4.35v-2.52h-2.4v2.52h-4.35v1.61.59 1.75h2.41z"/><path d="m165.17 280.13h2.9v-1.72c.19.16.38.3.58.44l1.79-1.59a9.78 9.78 0 0 1 -3.91-4.33l-2.11.94a15.73 15.73 0 0 0 3 4h-6.86a15.54 15.54 0 0 0 3-4l-2.1-.94a9.86 9.86 0 0 1 -3.28 3.93v-1.77l-1.7.37v-1.92h1.52v-2.46h-1.59v-3.81h-2.41v3.81h-2.4v2.46h2.4v2.46l-2.7.6.46 2.69 2.24-.62v4.1a.48.48 0 0 1 -.48.49h-1.26l1 2.56h.74a2.43 2.43 0 0 0 2.43-2.43v-5.39l1.45-.4 1.41 1.25c.2-.14.39-.28.58-.44v1.72h2.9v3.12h-4.66v2.31h11.72v-2.31h-4.66z"/><path d="m131.11 152.11h6.02v-17.53h4.33v23.35h-4.33v-1.58l-16.58-.04-.03 1.5h-4.45v-23.44h4.45v17.74l6.1-.04v-21.52h4.49z"/><path d="m90.92 153.2v-7.74h9.22v-4.23l-9.22-.04v-6.1h9.88l.01-4.37h-24.23v4.37h9.77v6.1h-9.15v4.27h9.15v7.74h-11.14v4.29h26.8v-4.29z"/><path d="m95 146.8a2.63 2.63 0 0 0 -1.21 4.2 2.66 2.66 0 0 0 4.61-1 2.84 2.84 0 0 0 -.33-2.12 2.66 2.66 0 0 0 -3.07-1.08z"/><path d="m163.12 147.86h4.36v2.78h-4.36z" transform="matrix(.21303039 -.97704557 .97704557 .21303039 -15.73 278.97)"/><path d="m178.73 151 3.81-2.76s-2.49-2.54-2.57-2.57-2.18 1.41-3.05 2a12.69 12.69 0 0 1 -.52-2.87h4.6v-13.8h-13.12v22.34l-1.26.23-.08-1.75-3.59.63v-6.45h3.93v-3.49h-3.88v-1.36h2.86v-1.75l.26.2 1.81-4.1a9.81 9.81 0 0 1 -4.63-4.95h-3.69a11.45 11.45 0 0 1 -4.94 5.75l1.81 4.09s.3-.26.76-.69v1.41h2.31v1.36h-4.27v3.53h4.27v7l-4.36.76.09 3.86 11-2.1v2l8.84-1.55-.18-3.51a13.32 13.32 0 0 0 5.61 5.15l1.87-3.68a18 18 0 0 1 -3.69-2.93zm-19.45-13.41a17.31 17.31 0 0 0 2.12-2.7 13.14 13.14 0 0 0 2.29 2.7zm12.45-2.86h5.44v1.84h-5.44zm0 17.85v-7.77h1.14a14.74 14.74 0 0 0 1.78 7.27zm0-11v-1.84h5.44v1.84z"/><path d="m158.63 151.78-.64-4.65-2.89.53.66 4.68z"/><path d="m205.16 130.69h15.29v4.09h-15.29z"/><path d="m221.58 139.51h-17.79l-3-2.13s-3.27 5.47-6.61 7.77l1.87 4.49s.87-.75 2.06-1.95v9.72h4.17v-14.59a22.13 22.13 0 0 0 1.44-2.27v3h9.51v9.2a.59.59 0 0 1 -.59.58h-4.83l1.62 4.08h5a3.06 3.06 0 0 0 3.07-3.07v-10.79h4.08z"/><path d="m203.79 132.72c-1.21-.79-2.37-1.65-3.53-2.44a25.89 25.89 0 0 1 -5.86 5.56l1.95 4a32 32 0 0 0 7.44-7.12z"/><path d="m344.23 282.01h4.14v-12.05h2.97v16.05h-2.97v-1.08l-11.39-.03-.03 1.03h-3.06v-16.11h3.06v12.19l4.19-.02v-14.8h3.09z"/><path d="m317.81 282.98v-5.32h6.34v-2.91l-6.34-.03v-4.19h6.8v-3.01h-16.65v3.01h6.71v4.19h-6.28v2.94h6.28v5.32h-7.65v2.95h18.42v-2.95z"/><path d="m320.64 278.58a1.8 1.8 0 0 0 -.85 2.88 1.9 1.9 0 0 0 2 .57 1.88 1.88 0 0 0 1.2-1.25 1.92 1.92 0 0 0 -.23-1.46 1.84 1.84 0 0 0 -2.12-.74z"/><path d="m364.95 279.19h2.99v1.91h-2.99z" transform="matrix(.21303039 -.97704557 .97704557 .21303039 14.69 578.52)"/><path d="m375.68 281.37 2.62-1.89s-1.72-1.75-1.77-1.77-1.5 1-2.1 1.38a8.92 8.92 0 0 1 -.35-2h3.17v-9.56h-9v15.36l-.86.16-.06-1.2-2.46.43v-4.43h2.7v-2.39h-2.7v-.94h2v-1.17l.18.13 1.24-2.81a6.8 6.8 0 0 1 -3.18-3.41h-2.61a7.85 7.85 0 0 1 -3.39 3.95l1.24 2.82s.21-.18.53-.48v1h1.58v.94h-2.93v2.39h2.93v4.84l-3 .53.06 2.64 7.56-1.44v1.4l6.08-1.06-.12-2.41a9.16 9.16 0 0 0 3.85 3.54l1.29-2.53a12.55 12.55 0 0 1 -2.5-2.02zm-13.37-9.22a11.55 11.55 0 0 0 1.46-1.85 8.53 8.53 0 0 0 1.57 1.85zm8.56-2h3.73v1.26h-3.73zm0 12.27v-5.34h.78a10.1 10.1 0 0 0 1.23 5zm0-7.54v-1.27h3.73v1.27z"/><path d="m361.87 281.89-.45-3.2-1.98.36.45 3.22z"/><path d="m392.55 267.4h10.51v2.81h-10.51z"/><path d="m403.84 273.46h-12.22l-2.06-1.46s-2.25 3.76-4.54 5.34l1.28 3.09s.6-.51 1.42-1.34v6.68h2.87v-10a15.28 15.28 0 0 0 1-1.57v2.07h6.53v6.32a.4.4 0 0 1 -.4.4h-3.33l1.12 2.8h3.43a2.1 2.1 0 0 0 2.11-2.1v-7.42h2.8z"/><path d="m391.61 268.79c-.82-.54-1.62-1.13-2.42-1.67a18 18 0 0 1 -4 3.82l1.34 2.77a21.89 21.89 0 0 0 5.08-4.92z"/></g></svg>