<svg viewBox="0 0 433.55 347.33" xmlns="http://www.w3.org/2000/svg"><g fill="#208ec5"><path d="m2.55 148.13a2.94 2.94 0 0 1 .27 1.38 3.24 3.24 0 0 1 -.25 1.38 1.21 1.21 0 0 1 -1.17.78 1.18 1.18 0 0 1 -1.1-.67 2.9 2.9 0 0 1 -.3-1.4 3.61 3.61 0 0 1 .18-1.2 1.23 1.23 0 0 1 1.22-.93 1.21 1.21 0 0 1 1.15.66zm-.55 2.72a2.53 2.53 0 0 0 .24-1.32 3.34 3.34 0 0 0 -.17-1.14.66.66 0 0 0 -.67-.45.72.72 0 0 0 -.67.42 3.77 3.77 0 0 0 -.07 2.26c.14.39.37.59.7.59a.73.73 0 0 0 .64-.36z"/><path d="m3.57 150.94h.6v.62h-.6z"/><path d="m5.42 150.52a.72.72 0 0 0 .4.61 1.18 1.18 0 0 0 .43.08.76.76 0 0 0 .67-.29 1 1 0 0 0 .22-.64.8.8 0 0 0 -.26-.66.88.88 0 0 0 -.63-.24 1.06 1.06 0 0 0 -.45.1.89.89 0 0 0 -.32.29h-.45l.31-2.2h2.12v.5h-1.73l-.18 1.13a2.09 2.09 0 0 1 .27-.16 1.47 1.47 0 0 1 .53-.09 1.38 1.38 0 0 1 1 .36 1.2 1.2 0 0 1 .39.92 1.55 1.55 0 0 1 -.36 1 1.38 1.38 0 0 1 -1.15.44 1.44 1.44 0 0 1 -.88-.28 1.11 1.11 0 0 1 -.43-.86z"/><path d="m8.06 147.3h.94l1 1.5 1-1.5h.88l-1.44 2.06 1.5 2.18h-.94l-1.08-1.54-1 1.6h-.92l1.5-2.18z"/><path d="m117.28 148.13a2.81 2.81 0 0 1 .28 1.38 3.4 3.4 0 0 1 -.25 1.38 1.22 1.22 0 0 1 -1.18.78 1.16 1.16 0 0 1 -1.13-.67 2.9 2.9 0 0 1 -.3-1.43 3.61 3.61 0 0 1 .18-1.2 1.23 1.23 0 0 1 1.22-.93 1.19 1.19 0 0 1 1.18.69zm-.51 2.72a2.66 2.66 0 0 0 .23-1.32 3.11 3.11 0 0 0 -.17-1.14.64.64 0 0 0 -.66-.45.7.7 0 0 0 -.67.42 3.77 3.77 0 0 0 -.07 2.26.73.73 0 0 0 1.34.23z"/><path d="m118.31 150.94h.59v.62h-.59z"/><path d="m120.15 150.52a.73.73 0 0 0 .41.61 1.08 1.08 0 0 0 .42.08.78.78 0 0 0 .68-.29 1 1 0 0 0 .22-.64.84.84 0 0 0 -.26-.66.92.92 0 0 0 -.63-.24 1 1 0 0 0 -.45.1 1 1 0 0 0 -.33.29h-.44l.31-2.2h2.12v.5h-1.74l-.17 1.13a1.28 1.28 0 0 1 .27-.16 1.44 1.44 0 0 1 .53-.09 1.36 1.36 0 0 1 1 .36 1.2 1.2 0 0 1 .39.92 1.55 1.55 0 0 1 -.36 1 1.36 1.36 0 0 1 -1.14.44 1.42 1.42 0 0 1 -.88-.28 1.08 1.08 0 0 1 -.43-.86z"/><path d="m122.8 147.3h.93l1 1.5 1-1.5h.87l-1.44 2.06 1.51 2.18h-.92l-1.06-1.6-1 1.6h-.9l1.5-2.18z"/><path d="m180.68 148.13a2.93 2.93 0 0 1 .28 1.38 3.4 3.4 0 0 1 -.25 1.38 1.22 1.22 0 0 1 -1.18.78 1.16 1.16 0 0 1 -1.09-.64 2.9 2.9 0 0 1 -.3-1.43 3.61 3.61 0 0 1 .18-1.2 1.22 1.22 0 0 1 1.21-.93 1.2 1.2 0 0 1 1.15.66zm-.51 2.72a2.66 2.66 0 0 0 .23-1.32 3.34 3.34 0 0 0 -.17-1.14.65.65 0 0 0 -.67-.45.69.69 0 0 0 -.66.42 3 3 0 0 0 -.21 1.26 3 3 0 0 0 .13 1 .73.73 0 0 0 1.35.23z"/><path d="m181.7 150.94h.6v.62h-.6z"/><path d="m183.55 150.52a.71.71 0 0 0 .41.61 1.08 1.08 0 0 0 .42.08.78.78 0 0 0 .68-.29 1.08 1.08 0 0 0 .22-.64.84.84 0 0 0 -.26-.66.92.92 0 0 0 -.63-.24 1.08 1.08 0 0 0 -.46.1 1.1 1.1 0 0 0 -.32.29h-.44l.31-2.2h2.12v.5h-1.74l-.17 1.13a1.28 1.28 0 0 1 .31-.2 1.44 1.44 0 0 1 .53-.09 1.36 1.36 0 0 1 .95.36 1.2 1.2 0 0 1 .39.92 1.55 1.55 0 0 1 -.36 1 1.37 1.37 0 0 1 -1.14.44 1.42 1.42 0 0 1 -.88-.28 1.08 1.08 0 0 1 -.43-.86z"/><path d="m186.2 147.3h.93l1 1.5 1-1.5h.87l-1.44 2.06 1.51 2.18h-.92l-1.06-1.6-1 1.6h-.91l1.5-2.18z"/><path d="m306.31 148.13a2.94 2.94 0 0 1 .27 1.38 3.24 3.24 0 0 1 -.25 1.38 1.21 1.21 0 0 1 -1.17.78 1.18 1.18 0 0 1 -1.1-.64 2.9 2.9 0 0 1 -.3-1.43 3.61 3.61 0 0 1 .18-1.2 1.23 1.23 0 0 1 1.22-.93 1.21 1.21 0 0 1 1.15.66zm-.52 2.72a2.53 2.53 0 0 0 .24-1.32 3.1 3.1 0 0 0 -.18-1.14.64.64 0 0 0 -.66-.45.71.71 0 0 0 -.67.42 3.77 3.77 0 0 0 -.07 2.26.73.73 0 0 0 1.34.23z"/><path d="m307.33 150.94h.59v.62h-.59z"/><path d="m309.17 150.52a.73.73 0 0 0 .41.61 1.08 1.08 0 0 0 .42.08.77.77 0 0 0 .68-.29 1 1 0 0 0 .22-.64.84.84 0 0 0 -.26-.66.88.88 0 0 0 -.63-.24 1 1 0 0 0 -.45.1 1 1 0 0 0 -.33.29h-.44l.31-2.2h2.12v.5h-1.73l-.18 1.13a2.09 2.09 0 0 1 .27-.16 1.44 1.44 0 0 1 .53-.09 1.34 1.34 0 0 1 .95.36 1.21 1.21 0 0 1 .4.92 1.55 1.55 0 0 1 -.36 1 1.38 1.38 0 0 1 -1.15.44 1.44 1.44 0 0 1 -.88-.28 1.08 1.08 0 0 1 -.43-.86z"/><path d="m311.82 147.3h.93l1 1.5 1-1.5h.88l-1.44 2.06 1.5 2.18h-.92l-1.06-1.6-1 1.6h-.91l1.5-2.18z"/><path d="m131.2 125.75a3 3 0 0 1 .27 1.39 3.31 3.31 0 0 1 -.25 1.38 1.21 1.21 0 0 1 -1.17.78 1.18 1.18 0 0 1 -1.1-.64 2.92 2.92 0 0 1 -.3-1.43 3.53 3.53 0 0 1 .18-1.2 1.23 1.23 0 0 1 1.22-.93 1.22 1.22 0 0 1 1.15.65zm-.52 2.73a2.56 2.56 0 0 0 .24-1.32 3.36 3.36 0 0 0 -.17-1.15.66.66 0 0 0 -.67-.45.7.7 0 0 0 -.66.43 2.92 2.92 0 0 0 -.21 1.26 3.07 3.07 0 0 0 .13 1 .73.73 0 0 0 .7.58.74.74 0 0 0 .64-.35z"/><path d="m132.22 128.57h.6v.62h-.6z"/><path d="m134.07 128.15a.7.7 0 0 0 .4.6 1 1 0 0 0 .43.09.79.79 0 0 0 .67-.29 1 1 0 0 0 .22-.65.83.83 0 0 0 -.26-.66.87.87 0 0 0 -.62-.23.9.9 0 0 0 -.78.38h-.45l.31-2.2h2.13v.5h-1.74l-.18 1.13a1.35 1.35 0 0 1 .27-.16 1.47 1.47 0 0 1 .53-.1 1.37 1.37 0 0 1 1 .37 1.2 1.2 0 0 1 .39.92 1.59 1.59 0 0 1 -.36 1 1.4 1.4 0 0 1 -1.14.44 1.45 1.45 0 0 1 -.89-.29 1.14 1.14 0 0 1 -.43-.86z"/><path d="m136.72 124.92h.92l1 1.5 1-1.5h.87l-1.46 2.08 1.5 2.19h-.91l-1.06-1.6-1 1.6h-.91l1.5-2.19z"/><path d="m131.2 94.58a2.94 2.94 0 0 1 .27 1.38 3.24 3.24 0 0 1 -.25 1.38 1.21 1.21 0 0 1 -1.17.78 1.18 1.18 0 0 1 -1.1-.64 2.9 2.9 0 0 1 -.3-1.43 3.61 3.61 0 0 1 .18-1.2 1.23 1.23 0 0 1 1.22-.93 1.21 1.21 0 0 1 1.15.66zm-.52 2.72a2.56 2.56 0 0 0 .24-1.32 3.34 3.34 0 0 0 -.17-1.14.66.66 0 0 0 -.67-.45.69.69 0 0 0 -.66.42 3 3 0 0 0 -.21 1.26 3 3 0 0 0 .13 1 .73.73 0 0 0 1.34.23z"/><path d="m132.22 97.39h.6v.61h-.6z"/><path d="m134.07 97a.72.72 0 0 0 .4.61 1.18 1.18 0 0 0 .43.08.76.76 0 0 0 .67-.29 1 1 0 0 0 .22-.64.84.84 0 0 0 -.26-.67.91.91 0 0 0 -.62-.23 1 1 0 0 0 -.46.1 1 1 0 0 0 -.32.29h-.45l.32-2.25h2.13v.5h-1.74l-.18 1.13a2.09 2.09 0 0 1 .27-.16 1.47 1.47 0 0 1 .53-.09 1.36 1.36 0 0 1 1 .36 1.2 1.2 0 0 1 .39.92 1.55 1.55 0 0 1 -.36 1 1.37 1.37 0 0 1 -1.14.44 1.45 1.45 0 0 1 -.89-.28 1.11 1.11 0 0 1 -.43-.86z"/><path d="m136.72 93.75h.92l1 1.5 1-1.5h.87l-1.44 2 1.5 2.19h-.91l-1.06-1.6-1 1.6h-.91l1.5-2.19z"/><path d="m132.65 109.19h.93l1 1.5 1-1.5h.87l-1.45 2.08 1.5 2.19h-.92l-1.06-1.61-1 1.61h-.91l1.5-2.19z"/></g><path d="m11.37 132.28h-10.78v-41.28h10.78zm-10.69-.1h10.59v-41.11h-10.59z" fill="#00b2e1"/><path d="m125.7 101.76h-125.11v-10.76h125.11zm-125-.1h124.9v-10.59h-124.92z" fill="#00b2e1"/><path d="m125.7 132.28h-125.11v-10.78h125.11zm-125-.1h124.9v-10.58h-124.92z" fill="#00b2e1"/><path d="m125.7 132.28h-10.78v-41.28h10.78zm-10.68-.1h10.58v-41.11h-10.6z" fill="#00b2e1"/><path d="m11.37 331.44h-10.78v-41.31h10.78zm-10.69-.1h10.59v-41.11h-10.59z" fill="#00b2e1"/><path d="m179.24 300.91h-178.65v-10.78h178.65zm-178.56-.1h178.46v-10.58h-178.46z" fill="#00b2e1"/><path d="m327.12 201.56h-40.92v-10.56h40.92zm-40.83-.09h40.71v-10.42h-40.71z" fill="#00b2e1"/><path d="m296.81 244.12h-10.61v-53.12h10.61zm-10.51-.12h10.41v-53h-10.41z" fill="#00b2e1"/><path d="m327.13 244.12h-10.62v-53.12h10.62zm-10.52-.1h10.39v-53h-10.39z" fill="#00b2e1"/><path d="m327.12 244.12h-40.92v-10.61h40.92zm-40.83-.12h40.71v-10.4h-40.71z" fill="#00b2e1"/><path d="m179.24 331.43h-178.65v-10.77h178.65zm-178.56-.09h178.46v-10.59h-178.46z" fill="#00b2e1"/><path d="m179.24 331.44h-10.78v-41.31h10.78zm-10.68-.1h10.58v-41.11h-10.58z" fill="#00b2e1"/><path d="m189.5 132.28h-10.78v-41.28h10.78zm-10.68-.1h10.58v-41.11h-10.58z" fill="#00b2e1"/><path d="m314.31 101.76h-135.59v-10.76h135.59zm-135.49-.1h135.39v-10.59h-135.39z" fill="#00b2e1"/><path d="m314.31 132.28h-135.59v-10.78h135.59zm-135.49-.1h135.39v-10.58h-135.39z" fill="#00b2e1"/><path d="m314.31 132.28h-10.78v-41.28h10.78zm-10.68-.1h10.58v-41.11h-10.58z" fill="#00b2e1"/><path d="m2.55 245.72a3 3 0 0 1 .27 1.38 3.24 3.24 0 0 1 -.25 1.38 1.21 1.21 0 0 1 -1.17.79 1.2 1.2 0 0 1 -1.1-.64 3 3 0 0 1 -.3-1.44 3.51 3.51 0 0 1 .18-1.19 1.23 1.23 0 0 1 1.22-.93 1.2 1.2 0 0 1 1.15.65zm-.55 2.72a2.49 2.49 0 0 0 .24-1.31 3.36 3.36 0 0 0 -.14-1.13.66.66 0 0 0 -.67-.45.71.71 0 0 0 -.67.43 2.9 2.9 0 0 0 -.21 1.25 3.06 3.06 0 0 0 .14 1 .74.74 0 0 0 .7.58.73.73 0 0 0 .61-.37z" fill="#208ec5"/><path d="m3.57 248.53h.6v.62h-.6z" fill="#208ec5"/><path d="m5.42 248.11a.7.7 0 0 0 .4.61 1 1 0 0 0 .43.09.79.79 0 0 0 .67-.29 1 1 0 0 0 .22-.65.8.8 0 0 0 -.26-.66.88.88 0 0 0 -.63-.24.94.94 0 0 0 -.45.11.87.87 0 0 0 -.32.28h-.45l.31-2.2h2.12v.49h-1.73l-.18 1.14a1.35 1.35 0 0 1 .27-.16 1.29 1.29 0 0 1 .53-.1 1.38 1.38 0 0 1 1 .36 1.22 1.22 0 0 1 .39.92 1.55 1.55 0 0 1 -.36 1 1.38 1.38 0 0 1 -1.15.45 1.51 1.51 0 0 1 -.88-.28 1.15 1.15 0 0 1 -.43-.87z" fill="#208ec5"/><path d="m8.06 244.89h.94l1 1.5 1-1.5h.88l-1.48 2.11 1.5 2.18h-.9l-1.06-1.6-1 1.6h-.94l1.49-2.18z" fill="#208ec5"/><path d="m85.72 245.72a2.84 2.84 0 0 1 .28 1.38 3.24 3.24 0 0 1 -.25 1.38 1.21 1.21 0 0 1 -1.18.79 1.18 1.18 0 0 1 -1.09-.64 3 3 0 0 1 -.3-1.44 3.51 3.51 0 0 1 .18-1.19 1.23 1.23 0 0 1 1.22-.93 1.18 1.18 0 0 1 1.14.65zm-.51 2.72a2.49 2.49 0 0 0 .24-1.31 3.12 3.12 0 0 0 -.18-1.15.64.64 0 0 0 -.66-.45.69.69 0 0 0 -.67.43 2.9 2.9 0 0 0 -.21 1.25 3.06 3.06 0 0 0 .14 1 .73.73 0 0 0 1.34.22z" fill="#208ec5"/><path d="m86.75 248.53h.59v.62h-.59z" fill="#208ec5"/><path d="m88.59 248.11a.71.71 0 0 0 .41.61.93.93 0 0 0 .42.09.8.8 0 0 0 .68-.29 1 1 0 0 0 .22-.65.84.84 0 0 0 -.26-.66 1 1 0 0 0 -1.08-.13 1 1 0 0 0 -.33.28h-.44l.31-2.2h2.12v.49h-1.74l-.17 1.14a1.35 1.35 0 0 1 .27-.16 1.25 1.25 0 0 1 .53-.1 1.36 1.36 0 0 1 1 .36 1.23 1.23 0 0 1 .4.92 1.55 1.55 0 0 1 -.36 1 1.38 1.38 0 0 1 -1.15.45 1.51 1.51 0 0 1 -.88-.28 1.12 1.12 0 0 1 -.43-.87z" fill="#208ec5"/><path d="m91.24 244.89h.93l1 1.5 1-1.5h.88l-1.47 2.11 1.5 2.18h-.92l-1.06-1.6-1 1.6h-.91l1.5-2.18z" fill="#208ec5"/><path d="m11.37 232.26h-10.78v-41.26h10.78zm-10.68-.1h10.58v-41.11h-10.58z" fill="#00b2e1"/><path d="m94.17 201.74h-93.58v-10.74h93.58zm-93.48-.1h93.38v-10.59h-93.38z" fill="#00b2e1"/><path d="m94.17 232.26h-93.58v-10.78h93.58zm-93.48-.1h93.38v-10.58h-93.38z" fill="#00b2e1"/><path d="m94.17 232.26h-10.78v-41.26h10.78zm-10.69-.1h10.59v-41.11h-10.59z" fill="#00b2e1"/><path d="m149.55 232.26h-10.78v-41.26h10.78zm-10.69-.1h10.59v-41.11h-10.59z" fill="#00b2e1"/><path d="m232.31 201.74h-93.54v-10.74h93.54zm-93.45-.1h93.35v-10.59h-93.35z" fill="#00b2e1"/><path d="m232.31 232.26h-93.54v-10.78h93.54zm-93.45-.1h93.35v-10.58h-93.35z" fill="#00b2e1"/><path d="m232.31 232.26h-10.78v-41.26h10.78zm-10.69-.1h10.59v-41.11h-10.59z" fill="#00b2e1"/><path d="m180.68 55.92a3 3 0 0 1 .32 1.38 3.4 3.4 0 0 1 -.25 1.38 1.22 1.22 0 0 1 -1.18.78 1.17 1.17 0 0 1 -1.09-.63 3 3 0 0 1 -.3-1.44 3.51 3.51 0 0 1 .18-1.19 1.22 1.22 0 0 1 1.21-.93 1.2 1.2 0 0 1 1.11.65zm-.51 2.72a2.64 2.64 0 0 0 .23-1.32 3.34 3.34 0 0 0 -.17-1.14.65.65 0 0 0 -.67-.45.69.69 0 0 0 -.66.43 2.9 2.9 0 0 0 -.21 1.25 3.14 3.14 0 0 0 .13 1 .73.73 0 0 0 1.35.22z" fill="#208ec5"/><path d="m181.7 58.73h.6v.62h-.6z" fill="#208ec5"/><path d="m183.55 58.31a.71.71 0 0 0 .41.61.93.93 0 0 0 .42.08.78.78 0 0 0 .68-.29 1.08 1.08 0 0 0 .22-.64.84.84 0 0 0 -.26-.66.92.92 0 0 0 -.63-.24.94.94 0 0 0 -.78.39h-.44l.31-2.21h2.12v.5h-1.74l-.17 1.15a1 1 0 0 1 .27-.17 1.44 1.44 0 0 1 .53-.09 1.36 1.36 0 0 1 .95.36 1.2 1.2 0 0 1 .39.92 1.55 1.55 0 0 1 -.36 1 1.37 1.37 0 0 1 -1.14.45 1.43 1.43 0 0 1 -.88-.29 1.08 1.08 0 0 1 -.43-.86z" fill="#208ec5"/><path d="m186.2 55.09h.93l1 1.5 1-1.5h.87l-1.44 2.06 1.44 2.2h-.92l-1.06-1.6-1 1.6h-.91l1.5-2.18z" fill="#208ec5"/><path d="m302.92 10.6h9.84v.25h-9.84z" fill="#00b2e1"/><path d="m302.92.04h9.84v.25h-9.84z" fill="#00b2e1"/><path d="m302.92 30.51h9.84v.25h-9.84z" fill="#00b2e1"/><path d="m302.92 41.2h9.84v.25h-9.84z" fill="#00b2e1"/><path d="m287.71 55.92a3 3 0 0 1 .29 1.38 3.4 3.4 0 0 1 -.25 1.38 1.22 1.22 0 0 1 -1.18.78 1.2 1.2 0 0 1 -1.1-.63 3 3 0 0 1 -.29-1.44 3.52 3.52 0 0 1 .17-1.19 1.24 1.24 0 0 1 1.22-.93 1.2 1.2 0 0 1 1.14.65zm-.52 2.72a2.51 2.51 0 0 0 .24-1.32 3.34 3.34 0 0 0 -.17-1.14.65.65 0 0 0 -.67-.45.69.69 0 0 0 -.66.43 2.9 2.9 0 0 0 -.21 1.25 3.14 3.14 0 0 0 .13 1 .74.74 0 0 0 .71.58.72.72 0 0 0 .63-.35z" fill="#208ec5"/><path d="m288.73 58.73h.6v.62h-.6z" fill="#208ec5"/><path d="m290.58 58.31a.71.71 0 0 0 .41.61.93.93 0 0 0 .42.08.79.79 0 0 0 .68-.29 1.08 1.08 0 0 0 .22-.64.81.81 0 0 0 -.27-.66.88.88 0 0 0 -.62-.24.94.94 0 0 0 -.78.39h-.45l.32-2.21h2.12v.5h-1.74l-.17 1.15a1 1 0 0 1 .27-.17 1.44 1.44 0 0 1 .53-.09 1.36 1.36 0 0 1 1 .36 1.2 1.2 0 0 1 .39.92 1.55 1.55 0 0 1 -.36 1 1.37 1.37 0 0 1 -1.14.45 1.43 1.43 0 0 1 -.88-.29 1.08 1.08 0 0 1 -.43-.86z" fill="#208ec5"/><path d="m293.23 55.09h.93l1 1.5 1-1.5h.87l-1.44 2.06 1.5 2.18h-.91l-1.06-1.6-1 1.6h-.91l1.5-2.18z" fill="#208ec5"/><path d="m304.46 34.39a3 3 0 0 1 .28 1.39 3.39 3.39 0 0 1 -.25 1.37 1.21 1.21 0 0 1 -1.18.79 1.18 1.18 0 0 1 -1.09-.64 3 3 0 0 1 -.3-1.44 3.51 3.51 0 0 1 .18-1.19 1.29 1.29 0 0 1 2.36-.28zm-.46 2.72a2.62 2.62 0 0 0 .23-1.31 3.36 3.36 0 0 0 -.17-1.15.65.65 0 0 0 -.67-.45.69.69 0 0 0 -.66.43 2.9 2.9 0 0 0 -.21 1.25 3.09 3.09 0 0 0 .13 1 .73.73 0 0 0 1.35.22z" fill="#208ec5"/><path d="m305.48 37.2h.6v.63h-.6z" fill="#208ec5"/><path d="m307.33 36.78a.71.71 0 0 0 .41.61.93.93 0 0 0 .42.09.81.81 0 0 0 .68-.29 1.11 1.11 0 0 0 .22-.65.84.84 0 0 0 -.26-.66.92.92 0 0 0 -.63-.24 1 1 0 0 0 -.46.11 1.06 1.06 0 0 0 -.32.28l-.39-.03.31-2.2h2.12v.49h-1.74l-.17 1.14a1 1 0 0 1 .27-.16 1.25 1.25 0 0 1 .53-.1 1.36 1.36 0 0 1 1 .36 1.22 1.22 0 0 1 .39.92 1.6 1.6 0 0 1 -.36 1 1.4 1.4 0 0 1 -1.14.44 1.49 1.49 0 0 1 -.88-.28 1.12 1.12 0 0 1 -.43-.87z" fill="#208ec5"/><path d="m310 33.56h.93l1 1.5 1-1.5h.87l-1.44 2.06 1.51 2.19h-.92l-1.06-1.61-1 1.61h-.91l1.51-2.19z" fill="#208ec5"/><path d="m304.46 3.72a3 3 0 0 1 .28 1.39 3.39 3.39 0 0 1 -.25 1.37 1.21 1.21 0 0 1 -1.18.79 1.18 1.18 0 0 1 -1.09-.64 3 3 0 0 1 -.3-1.44 3.51 3.51 0 0 1 .18-1.19 1.29 1.29 0 0 1 2.36-.28zm-.46 2.72a2.62 2.62 0 0 0 .23-1.31 3.36 3.36 0 0 0 -.23-1.13.65.65 0 0 0 -.67-.45.69.69 0 0 0 -.66.43 2.9 2.9 0 0 0 -.21 1.25 3.09 3.09 0 0 0 .13 1 .73.73 0 0 0 1.35.22z" fill="#208ec5"/><path d="m305.48 6.53h.6v.63h-.6z" fill="#208ec5"/><path d="m307.33 6.11a.71.71 0 0 0 .41.61.93.93 0 0 0 .42.09.81.81 0 0 0 .68-.29 1.11 1.11 0 0 0 .22-.65.84.84 0 0 0 -.26-.66.92.92 0 0 0 -.63-.24 1 1 0 0 0 -.46.11 1.06 1.06 0 0 0 -.32.28h-.44l.31-2.2h2.12v.49h-1.74l-.17 1.14a1 1 0 0 1 .27-.16 1.25 1.25 0 0 1 .53-.1 1.32 1.32 0 0 1 1 .37 1.18 1.18 0 0 1 .39.91 1.6 1.6 0 0 1 -.36 1 1.4 1.4 0 0 1 -1.14.44 1.49 1.49 0 0 1 -.88-.28 1.12 1.12 0 0 1 -.43-.87z" fill="#208ec5"/><path d="m310 2.89h.93l1 1.5 1-1.5h.87l-1.49 2.11 1.51 2.19h-.92l-1.06-1.61-1 1.61h-.91l1.48-2.19z" fill="#208ec5"/><path d="m305.92 18.84h.92l1 1.5 1-1.5h.87l-1.44 2.06 1.5 2.19h-.91l-1.06-1.61-1 1.61h-.91l1.5-2.19z" fill="#208ec5"/><path d="m189.5 41.36h-10.78v-41.3h10.78zm-10.68-.1h10.58v-41.1h-10.58z" fill="#00b2e1"/><path d="m296.38 10.84h-117.66v-10.78h117.66zm-117.56-.1h117.46v-10.58h-117.46z" fill="#00b2e1"/><path d="m296.38 41.36h-117.66v-10.78h117.66zm-117.56-.09h117.46v-10.59h-117.46z" fill="#00b2e1"/><path d="m296.38 41.36h-10.78v-41.3h10.78zm-10.68-.1h10.58v-41.1h-10.58z" fill="#00b2e1"/><path d="m11.21 44.56h.21v7.23h-.21z" fill="#00b2e1"/><path d="m.53 44.56h.21v7.23h-.21z" fill="#00b2e1"/><path d="m2.55 55.92a3 3 0 0 1 .27 1.38 3.24 3.24 0 0 1 -.25 1.38 1.21 1.21 0 0 1 -1.17.78 1.19 1.19 0 0 1 -1.1-.63 3 3 0 0 1 -.3-1.44 3.51 3.51 0 0 1 .18-1.19 1.23 1.23 0 0 1 1.22-.93 1.2 1.2 0 0 1 1.15.65zm-.55 2.72a2.51 2.51 0 0 0 .24-1.32 3.1 3.1 0 0 0 -.18-1.14.64.64 0 0 0 -.66-.45.7.7 0 0 0 -.67.43 2.9 2.9 0 0 0 -.21 1.25 3.1 3.1 0 0 0 .14 1 .74.74 0 0 0 .7.58.73.73 0 0 0 .64-.35z" fill="#208ec5"/><path d="m3.57 58.73h.59v.62h-.59z" fill="#208ec5"/><path d="m5.42 58.31a.7.7 0 0 0 .4.61.94.94 0 0 0 .43.08.76.76 0 0 0 .67-.29 1 1 0 0 0 .22-.64.84.84 0 0 0 -.26-.66.88.88 0 0 0 -.63-.24.91.91 0 0 0 -.45.11.88.88 0 0 0 -.33.28h-.44l.31-2.21h2.12v.5h-1.73l-.18 1.15a1.46 1.46 0 0 1 .27-.17 1.44 1.44 0 0 1 .53-.09 1.34 1.34 0 0 1 1 .36 1.21 1.21 0 0 1 .4.92 1.55 1.55 0 0 1 -.36 1 1.38 1.38 0 0 1 -1.15.45 1.45 1.45 0 0 1 -.88-.29 1.08 1.08 0 0 1 -.43-.86z" fill="#208ec5"/><path d="m8.06 55.09h.94l1 1.5 1-1.5h.88l-1.48 2.08 1.5 2.18h-.9l-1.06-1.6-1 1.6h-.94l1.5-2.18z" fill="#208ec5"/><path d="m118.65 44.56h.21v7.23h-.21z" fill="#00b2e1"/><path d="m124.98 30.52h7.23v.21h-7.23z" fill="#00b2e1"/><path d="m124.98 10.68h7.23v.21h-7.23z" fill="#00b2e1"/><path d="m124.98 0h7.23v.21h-7.23z" fill="#00b2e1"/><path d="m124.98 41.21h7.23v.21h-7.23z" fill="#00b2e1"/><path d="m107.96 44.56h.21v7.23h-.21z" fill="#00b2e1"/><path d="m11.21 136.11h.21v7.23h-.21z" fill="#00b2e1"/><path d="m.53 136.11h.21v7.23h-.21z" fill="#00b2e1"/><path d="m125.54 136.11h.21v7.23h-.21z" fill="#00b2e1"/><path d="m114.86 136.11h.21v7.23h-.21z" fill="#00b2e1"/><path d="m11.21 235.08h.21v7.23h-.21z" fill="#00b2e1"/><path d="m.53 235.08h.21v7.23h-.21z" fill="#00b2e1"/><path d="m94.01 235.08h.21v7.23h-.21z" fill="#00b2e1"/><path d="m83.33 235.08h.21v7.23h-.21z" fill="#00b2e1"/><path d="m2.55 343.79a2.91 2.91 0 0 1 .27 1.38 3.24 3.24 0 0 1 -.25 1.38 1.21 1.21 0 0 1 -1.17.78 1.18 1.18 0 0 1 -1.1-.64 2.9 2.9 0 0 1 -.3-1.43 3.57 3.57 0 0 1 .18-1.2 1.23 1.23 0 0 1 1.22-.93 1.21 1.21 0 0 1 1.15.66zm-.55 2.72a2.56 2.56 0 0 0 .24-1.32 3.4 3.4 0 0 0 -.14-1.19.65.65 0 0 0 -.67-.44.72.72 0 0 0 -.67.42 3.77 3.77 0 0 0 -.07 2.26.73.73 0 0 0 1.34.23z" fill="#208ec5"/><path d="m3.57 346.6h.6v.62h-.6z" fill="#208ec5"/><path d="m5.42 346.18a.73.73 0 0 0 .4.61 1.18 1.18 0 0 0 .43.08.79.79 0 0 0 .67-.29 1 1 0 0 0 .22-.64.84.84 0 0 0 -.26-.67.92.92 0 0 0 -.63-.23.93.93 0 0 0 -.45.1.89.89 0 0 0 -.32.29h-.45l.31-2.2h2.12v.5h-1.73l-.18 1.13a2.09 2.09 0 0 1 .27-.16 1.47 1.47 0 0 1 .53-.09 1.38 1.38 0 0 1 1 .36 1.2 1.2 0 0 1 .39.92 1.57 1.57 0 0 1 -.36 1 1.38 1.38 0 0 1 -1.15.44 1.44 1.44 0 0 1 -.88-.28 1.13 1.13 0 0 1 -.43-.86z" fill="#208ec5"/><path d="m8.06 343h.94l1 1.51 1-1.51h.88l-1.48 2 1.5 2.19h-.9l-1.06-1.6-1 1.6h-.94l1.49-2.19z" fill="#208ec5"/><path d="m171 343.79a2.91 2.91 0 0 1 .27 1.38 3.24 3.24 0 0 1 -.25 1.38 1.21 1.21 0 0 1 -1.17.78 1.18 1.18 0 0 1 -1.1-.64 2.9 2.9 0 0 1 -.3-1.43 3.57 3.57 0 0 1 .18-1.2 1.23 1.23 0 0 1 1.22-.93 1.21 1.21 0 0 1 1.15.66zm-.52 2.72a2.56 2.56 0 0 0 .24-1.32 3.4 3.4 0 0 0 -.17-1.15.67.67 0 0 0 -.67-.44.69.69 0 0 0 -.66.42 3 3 0 0 0 -.21 1.26 3 3 0 0 0 .13 1 .73.73 0 0 0 .71.58.72.72 0 0 0 .65-.35z" fill="#208ec5"/><path d="m172 346.6h.6v.62h-.6z" fill="#208ec5"/><path d="m173.89 346.18a.73.73 0 0 0 .4.61 1.18 1.18 0 0 0 .43.08.76.76 0 0 0 .67-.29 1 1 0 0 0 .23-.64.85.85 0 0 0 -.27-.67.91.91 0 0 0 -.62-.23 1 1 0 0 0 -.46.1 1 1 0 0 0 -.32.29h-.45l.31-2.2h2.13v.5h-1.74l-.17 1.13a1.53 1.53 0 0 1 .26-.16 1.47 1.47 0 0 1 .53-.09 1.36 1.36 0 0 1 1 .36 1.2 1.2 0 0 1 .39.92 1.55 1.55 0 0 1 -.36 1 1.37 1.37 0 0 1 -1.14.44 1.45 1.45 0 0 1 -.89-.28 1.13 1.13 0 0 1 -.43-.86z" fill="#208ec5"/><path d="m176.54 343h.92l1 1.5 1-1.5h.87l-1.46 2 1.5 2.19h-.91l-1.06-1.6-1 1.6h-.91l1.51-2.19z" fill="#208ec5"/><path d="m11.21 333.15h.21v7.23h-.21z" fill="#00b2e1"/><path d="m.53 333.15h.21v7.23h-.21z" fill="#00b2e1"/><path d="m179.3 333.15h.21v7.23h-.21z" fill="#00b2e1"/><path d="m168.62 333.15h.21v7.23h-.21z" fill="#00b2e1"/><path d="m140.76 245.72a2.84 2.84 0 0 1 .28 1.38 3.24 3.24 0 0 1 -.25 1.38 1.21 1.21 0 0 1 -1.18.79 1.18 1.18 0 0 1 -1.09-.64 3 3 0 0 1 -.3-1.44 3.51 3.51 0 0 1 .18-1.19 1.23 1.23 0 0 1 1.22-.93 1.18 1.18 0 0 1 1.14.65zm-.51 2.72a2.49 2.49 0 0 0 .24-1.31 3.12 3.12 0 0 0 -.18-1.15.64.64 0 0 0 -.66-.45.69.69 0 0 0 -.67.43 2.9 2.9 0 0 0 -.21 1.25 3.06 3.06 0 0 0 .14 1 .73.73 0 0 0 1.34.22z" fill="#208ec5"/><path d="m141.79 248.53h.59v.62h-.59z" fill="#208ec5"/><path d="m143.63 248.11a.71.71 0 0 0 .41.61.93.93 0 0 0 .42.09.81.81 0 0 0 .68-.29 1 1 0 0 0 .22-.65.84.84 0 0 0 -.26-.66 1 1 0 0 0 -1.08-.13 1 1 0 0 0 -.33.28h-.44l.31-2.2h2.12v.49h-1.74l-.17 1.14a1.35 1.35 0 0 1 .27-.16 1.25 1.25 0 0 1 .53-.1 1.36 1.36 0 0 1 1 .36 1.22 1.22 0 0 1 .39.92 1.6 1.6 0 0 1 -.35 1 1.38 1.38 0 0 1 -1.15.45 1.51 1.51 0 0 1 -.88-.28 1.12 1.12 0 0 1 -.43-.87z" fill="#208ec5"/><path d="m146.28 244.89h.93l1 1.5 1-1.5h.87l-1.46 2.11 1.5 2.18h-.92l-1.06-1.6-1 1.6h-.91l1.5-2.18z" fill="#208ec5"/><path d="m223.85 245.72a3 3 0 0 1 .27 1.38 3.42 3.42 0 0 1 -.24 1.38 1.22 1.22 0 0 1 -1.18.79 1.2 1.2 0 0 1 -1.1-.64 3 3 0 0 1 -.3-1.44 3.51 3.51 0 0 1 .18-1.19 1.24 1.24 0 0 1 1.22-.93 1.2 1.2 0 0 1 1.15.65zm-.52 2.72a2.49 2.49 0 0 0 .24-1.31 3.36 3.36 0 0 0 -.17-1.15.65.65 0 0 0 -.67-.45.69.69 0 0 0 -.66.43 2.9 2.9 0 0 0 -.21 1.25 3.09 3.09 0 0 0 .13 1 .74.74 0 0 0 .71.58.72.72 0 0 0 .63-.35z" fill="#208ec5"/><path d="m224.87 248.53h.6v.62h-.6z" fill="#208ec5"/><path d="m226.72 248.11a.69.69 0 0 0 .41.61.93.93 0 0 0 .42.09.82.82 0 0 0 .68-.29 1.11 1.11 0 0 0 .22-.65.81.81 0 0 0 -.27-.66.88.88 0 0 0 -.62-.24 1 1 0 0 0 -.46.11 1.06 1.06 0 0 0 -.32.28h-.45l.31-2.2h2.13v.49h-1.77l-.17 1.14a1 1 0 0 1 .27-.16 1.24 1.24 0 0 1 .52-.1 1.36 1.36 0 0 1 1 .36 1.22 1.22 0 0 1 .39.92 1.55 1.55 0 0 1 -.36 1 1.37 1.37 0 0 1 -1.14.45 1.47 1.47 0 0 1 -.88-.28 1.09 1.09 0 0 1 -.43-.87z" fill="#208ec5"/><path d="m229.37 244.89h.93l1 1.5 1-1.5h.87l-1.47 2.11 1.5 2.18h-.91l-1.06-1.6-1 1.6h-.91l1.5-2.18z" fill="#208ec5"/><path d="m288.2 256.11a3 3 0 0 1 .28 1.38 3.4 3.4 0 0 1 -.25 1.38 1.22 1.22 0 0 1 -1.18.78 1.16 1.16 0 0 1 -1.05-.65 2.9 2.9 0 0 1 -.3-1.43 3.51 3.51 0 0 1 .18-1.19 1.23 1.23 0 0 1 1.21-.94 1.2 1.2 0 0 1 1.11.67zm-.51 2.72a2.64 2.64 0 0 0 .23-1.32 3.11 3.11 0 0 0 -.17-1.14.65.65 0 0 0 -.67-.45.69.69 0 0 0 -.66.42 3 3 0 0 0 -.21 1.26 3.14 3.14 0 0 0 .13 1 .73.73 0 0 0 1.35.22z" fill="#208ec5"/><path d="m289.22 258.92h.6v.62h-.6z" fill="#208ec5"/><path d="m291.07 258.5a.73.73 0 0 0 .41.61.93.93 0 0 0 .42.08.78.78 0 0 0 .68-.29 1.08 1.08 0 0 0 .22-.64.84.84 0 0 0 -.26-.66.92.92 0 0 0 -.63-.24 1 1 0 0 0 -.45.1 1 1 0 0 0 -.33.29h-.44l.31-2.2h2.12v.5h-1.74l-.17 1.14a1 1 0 0 1 .27-.17 1.44 1.44 0 0 1 .53-.09 1.36 1.36 0 0 1 .95.36 1.2 1.2 0 0 1 .39.92 1.55 1.55 0 0 1 -.36 1 1.37 1.37 0 0 1 -1.14.45 1.43 1.43 0 0 1 -.88-.29 1.08 1.08 0 0 1 -.43-.86z" fill="#208ec5"/><path d="m293.72 255.28h.93l1 1.5 1-1.5h.87l-1.44 2.06 1.51 2.18h-.92l-1.06-1.6-1 1.6h-.91l1.51-2.18z" fill="#208ec5"/><path d="m149.39 235.08h.21v7.23h-.21z" fill="#00b2e1"/><path d="m138.71 235.08h.21v7.23h-.21z" fill="#00b2e1"/><path d="m232.15 235.08h.21v7.23h-.21z" fill="#00b2e1"/><path d="m221.47 235.08h.21v7.23h-.21z" fill="#00b2e1"/><path d="m296.65 246.3h.21v7.23h-.21z" fill="#00b2e1"/><path d="m286.14 246.3h.21v7.23h-.21z" fill="#00b2e1"/><path d="m318.82 256.11a3 3 0 0 1 .28 1.38 3.4 3.4 0 0 1 -.25 1.38 1.22 1.22 0 0 1 -1.18.78 1.16 1.16 0 0 1 -1.09-.64 2.9 2.9 0 0 1 -.3-1.43 3.51 3.51 0 0 1 .18-1.19 1.23 1.23 0 0 1 1.21-.94 1.2 1.2 0 0 1 1.15.66zm-.51 2.72a2.64 2.64 0 0 0 .23-1.32 3.11 3.11 0 0 0 -.17-1.14.64.64 0 0 0 -.66-.45.7.7 0 0 0 -.67.42 3 3 0 0 0 -.21 1.26 3.44 3.44 0 0 0 .13 1 .73.73 0 0 0 1.35.22z" fill="#208ec5"/><path d="m319.84 258.92h.6v.62h-.6z" fill="#208ec5"/><path d="m321.69 258.5a.73.73 0 0 0 .41.61.93.93 0 0 0 .42.08.78.78 0 0 0 .68-.29 1.08 1.08 0 0 0 .22-.64.84.84 0 0 0 -.26-.66.92.92 0 0 0 -.63-.24 1 1 0 0 0 -.45.1 1 1 0 0 0 -.33.29h-.44l.31-2.2h2.12v.5h-1.74l-.17 1.14a1 1 0 0 1 .27-.17 1.44 1.44 0 0 1 .53-.09 1.36 1.36 0 0 1 .95.36 1.2 1.2 0 0 1 .39.92 1.55 1.55 0 0 1 -.36 1 1.36 1.36 0 0 1 -1.14.45 1.43 1.43 0 0 1 -.88-.29 1.08 1.08 0 0 1 -.43-.86z" fill="#208ec5"/><path d="m324.34 255.28h.93l1 1.5 1-1.5h.87l-1.44 2.06 1.51 2.18h-.92l-1.06-1.6-1 1.6h-.91l1.51-2.18z" fill="#208ec5"/><path d="m326.97 246.3h.21v7.23h-.21z" fill="#00b2e1"/><path d="m316.46 246.3h.21v7.23h-.21z" fill="#00b2e1"/><path d="m189.35 136.11h.21v7.23h-.21z" fill="#00b2e1"/><path d="m178.66 136.11h.21v7.23h-.21z" fill="#00b2e1"/><path d="m314.15 136.11h.21v7.23h-.21z" fill="#00b2e1"/><path d="m303.47 136.11h.21v7.23h-.21z" fill="#00b2e1"/><path d="m130.96 132.12h7.23v.21h-7.23z" fill="#00b2e1"/><path d="m130.96 90.92h7.23v.21h-7.23z" fill="#00b2e1"/><path d="m130.96 121.44h7.23v.21h-7.23z" fill="#00b2e1"/><path d="m130.96 101.6h7.23v.21h-7.23z" fill="#00b2e1"/><path d="m98.6 225.73a2.86 2.86 0 0 1 .28 1.39 3.47 3.47 0 0 1 -.25 1.38 1.22 1.22 0 0 1 -1.18.78 1.18 1.18 0 0 1 -1.09-.64 2.92 2.92 0 0 1 -.3-1.43 3.53 3.53 0 0 1 .18-1.2 1.23 1.23 0 0 1 1.22-.93 1.21 1.21 0 0 1 1.14.65zm-.51 2.73a2.69 2.69 0 0 0 .23-1.32 3.14 3.14 0 0 0 -.17-1.15.64.64 0 0 0 -.66-.45.69.69 0 0 0 -.67.43 2.92 2.92 0 0 0 -.21 1.26 3 3 0 0 0 .14 1 .72.72 0 0 0 .7.58.76.76 0 0 0 .64-.35z" fill="#208ec5"/><path d="m99.62 228.54h.6v.63h-.6z" fill="#208ec5"/><path d="m101.47 228.12a.71.71 0 0 0 .41.61.93.93 0 0 0 .42.09.81.81 0 0 0 .68-.29 1.11 1.11 0 0 0 .22-.65.87.87 0 0 0 -.26-.66.91.91 0 0 0 -.63-.23.88.88 0 0 0 -.45.1 1 1 0 0 0 -.33.28h-.44l.31-2.2h2.12v.49h-1.74l-.17 1.14a1 1 0 0 1 .27-.16 1.25 1.25 0 0 1 .53-.1 1.32 1.32 0 0 1 1 .37 1.19 1.19 0 0 1 .39.92 1.59 1.59 0 0 1 -.36 1 1.39 1.39 0 0 1 -1.14.44 1.42 1.42 0 0 1 -.88-.28 1.12 1.12 0 0 1 -.43-.87z" fill="#208ec5"/><path d="m104.12 224.9h.93l1 1.5 1-1.5h.87l-1.47 2.1 1.51 2.19h-.96l-1-1.63-1 1.61h-1l1.51-2.19z" fill="#208ec5"/><path d="m98.6 194.56a2.79 2.79 0 0 1 .28 1.38 3.4 3.4 0 0 1 -.25 1.38 1.22 1.22 0 0 1 -1.18.78 1.16 1.16 0 0 1 -1.09-.64 2.9 2.9 0 0 1 -.3-1.43 3.57 3.57 0 0 1 .18-1.2 1.23 1.23 0 0 1 1.22-.93 1.2 1.2 0 0 1 1.14.66zm-.51 2.72a2.69 2.69 0 0 0 .23-1.32 3.17 3.17 0 0 0 -.17-1.15.63.63 0 0 0 -.66-.44.7.7 0 0 0 -.67.42 3.77 3.77 0 0 0 -.07 2.26.72.72 0 0 0 .7.58.73.73 0 0 0 .64-.35z" fill="#208ec5"/><path d="m99.62 197.37h.6v.63h-.6z" fill="#208ec5"/><path d="m101.47 197a.74.74 0 0 0 .41.61 1.08 1.08 0 0 0 .42.08.81.81 0 0 0 .68-.29 1.08 1.08 0 0 0 .22-.64.87.87 0 0 0 -.26-.67 1 1 0 0 0 -.63-.23.88.88 0 0 0 -.45.1 1 1 0 0 0 -.33.29h-.44l.31-2.2h2.12v.5h-1.74l-.17 1.13a1.28 1.28 0 0 1 .27-.16 1.44 1.44 0 0 1 .53-.09 1.36 1.36 0 0 1 1 .36 1.2 1.2 0 0 1 .39.92 1.57 1.57 0 0 1 -.36 1 1.36 1.36 0 0 1 -1.14.44 1.42 1.42 0 0 1 -.88-.28 1.1 1.1 0 0 1 -.43-.86z" fill="#208ec5"/><path d="m104.12 193.72h.93l1 1.51 1-1.51h.87l-1.44 2.06 1.52 2.22h-1l-1.06-1.6-1 1.6h-.94l1.51-2.19z" fill="#208ec5"/><path d="m100.06 209.17h.94l1 1.5 1-1.5h.87l-1.44 2.06 1.5 2.19h-.93l-1.06-1.61-1 1.61h-.94l1.5-2.19z" fill="#208ec5"/><path d="m98.36 232.1h7.23v.21h-7.23z" fill="#00b2e1"/><path d="m98.36 190.9h7.23v.21h-7.23z" fill="#00b2e1"/><path d="m98.36 221.42h7.23v.21h-7.23z" fill="#00b2e1"/><path d="m98.36 201.38h7.23v.21h-7.23z" fill="#00b2e1"/><path d="m238.15 225.73a3 3 0 0 1 .27 1.39 3.31 3.31 0 0 1 -.25 1.38 1.21 1.21 0 0 1 -1.17.78 1.2 1.2 0 0 1 -1.1-.64 2.92 2.92 0 0 1 -.3-1.43 3.53 3.53 0 0 1 .18-1.2 1.23 1.23 0 0 1 1.22-.93 1.22 1.22 0 0 1 1.15.65zm-.52 2.73a2.56 2.56 0 0 0 .24-1.32 3.36 3.36 0 0 0 -.17-1.15.66.66 0 0 0 -.67-.45.69.69 0 0 0 -.66.43 2.92 2.92 0 0 0 -.21 1.26 3.07 3.07 0 0 0 .13 1 .73.73 0 0 0 .7.58.74.74 0 0 0 .64-.35z" fill="#208ec5"/><path d="m239.17 228.54h.6v.63h-.6z" fill="#208ec5"/><path d="m241 228.12a.7.7 0 0 0 .4.61 1 1 0 0 0 .43.09.79.79 0 0 0 .67-.29 1 1 0 0 0 .22-.65.83.83 0 0 0 -.26-.66.87.87 0 0 0 -.62-.23.9.9 0 0 0 -.78.38h-.45l.31-2.2h2.13v.49h-1.74l-.18 1.14a1.35 1.35 0 0 1 .27-.16 1.29 1.29 0 0 1 .53-.1 1.33 1.33 0 0 1 1 .37 1.19 1.19 0 0 1 .39.92 1.59 1.59 0 0 1 -.36 1 1.4 1.4 0 0 1 -1.14.44 1.45 1.45 0 0 1 -.89-.28 1.15 1.15 0 0 1 -.43-.87z" fill="#208ec5"/><path d="m243.67 224.9h.92l1 1.5 1-1.5h.87l-1.46 2.1 1.5 2.19h-.91l-1.06-1.61-1 1.61h-.91l1.5-2.19z" fill="#208ec5"/><path d="m238.15 194.56a2.91 2.91 0 0 1 .27 1.38 3.24 3.24 0 0 1 -.25 1.38 1.21 1.21 0 0 1 -1.17.78 1.18 1.18 0 0 1 -1.1-.64 2.9 2.9 0 0 1 -.3-1.43 3.57 3.57 0 0 1 .18-1.2 1.23 1.23 0 0 1 1.22-.93 1.21 1.21 0 0 1 1.15.66zm-.52 2.72a2.56 2.56 0 0 0 .24-1.32 3.4 3.4 0 0 0 -.17-1.15.65.65 0 0 0 -.67-.44.69.69 0 0 0 -.66.42 3 3 0 0 0 -.21 1.26 3 3 0 0 0 .13 1 .73.73 0 0 0 1.34.23z" fill="#208ec5"/><path d="m239.17 197.37h.6v.63h-.6z" fill="#208ec5"/><path d="m241 197a.73.73 0 0 0 .4.61 1.18 1.18 0 0 0 .43.08.79.79 0 0 0 .67-.29 1 1 0 0 0 .22-.64.84.84 0 0 0 -.26-.67.91.91 0 0 0 -.62-.23 1 1 0 0 0 -.46.1 1 1 0 0 0 -.32.29h-.45l.31-2.2h2.13v.5h-1.74l-.18 1.13a2.09 2.09 0 0 1 .27-.16 1.47 1.47 0 0 1 .53-.09 1.36 1.36 0 0 1 1 .36 1.2 1.2 0 0 1 .39.92 1.57 1.57 0 0 1 -.36 1 1.37 1.37 0 0 1 -1.14.44 1.45 1.45 0 0 1 -.89-.28 1.13 1.13 0 0 1 -.43-.86z" fill="#208ec5"/><path d="m243.67 193.72h.92l1 1.51 1-1.51h.87l-1.46 2.08 1.5 2.19h-.91l-1.06-1.6-1 1.6h-.91l1.5-2.19z" fill="#208ec5"/><path d="m239.6 209.17h.93l1 1.5 1-1.5h.88l-1.44 2.06 1.5 2.19h-.92l-1.06-1.61-1 1.61h-.91l1.5-2.19z" fill="#208ec5"/><path d="m304.68 247.47h.93l1 1.5 1-1.5h.88l-1.49 2.08 1.5 2.18h-.92l-1.06-1.6-1 1.6h-.91l1.5-2.18z" fill="#208ec5"/><path d="m237.91 232.1h7.23v.21h-7.23z" fill="#00b2e1"/><path d="m237.91 190.9h7.23v.21h-7.23z" fill="#00b2e1"/><path d="m237.91 221.42h7.23v.21h-7.23z" fill="#00b2e1"/><path d="m237.91 201.38h7.23v.21h-7.23z" fill="#00b2e1"/><path d="m184.54 325.09a3 3 0 0 1 .27 1.39 3.31 3.31 0 0 1 -.25 1.38 1.21 1.21 0 0 1 -1.17.78 1.18 1.18 0 0 1 -1.1-.64 2.92 2.92 0 0 1 -.3-1.43 3.53 3.53 0 0 1 .18-1.2 1.23 1.23 0 0 1 1.22-.93 1.22 1.22 0 0 1 1.15.65zm-.52 2.73a2.56 2.56 0 0 0 .24-1.32 3.36 3.36 0 0 0 -.17-1.15.66.66 0 0 0 -.67-.45.7.7 0 0 0 -.66.43 2.92 2.92 0 0 0 -.21 1.26 3.07 3.07 0 0 0 .13 1 .73.73 0 0 0 .7.58.74.74 0 0 0 .62-.35z" fill="#208ec5"/><path d="m185.56 327.91h.6v.62h-.6z" fill="#208ec5"/><path d="m187.41 327.49a.7.7 0 0 0 .4.6 1 1 0 0 0 .43.09.79.79 0 0 0 .67-.29 1 1 0 0 0 .22-.65.83.83 0 0 0 -.26-.66.91.91 0 0 0 -.62-.23 1 1 0 0 0 -.46.1.88.88 0 0 0 -.32.29h-.45l.31-2.2h2.13v.5h-1.74l-.18 1.13a2.09 2.09 0 0 1 .27-.16 1.47 1.47 0 0 1 .53-.1 1.37 1.37 0 0 1 1 .37 1.2 1.2 0 0 1 .39.92 1.59 1.59 0 0 1 -.36 1 1.4 1.4 0 0 1 -1.14.44 1.45 1.45 0 0 1 -.89-.28 1.13 1.13 0 0 1 -.43-.86z" fill="#208ec5"/><path d="m190.06 324.26h.94l1 1.5 1-1.5h.87l-1.44 2.06 1.5 2.19h-.93l-1.06-1.6-1 1.6h-.94l1.5-2.19z" fill="#208ec5"/><path d="m184.54 293.92a3 3 0 0 1 .27 1.38 3.42 3.42 0 0 1 -.24 1.38 1.23 1.23 0 0 1 -1.18.78 1.18 1.18 0 0 1 -1.1-.64 2.9 2.9 0 0 1 -.3-1.43 3.61 3.61 0 0 1 .18-1.2 1.23 1.23 0 0 1 1.22-.93 1.21 1.21 0 0 1 1.15.66zm-.52 2.72a2.51 2.51 0 0 0 .24-1.32 3.34 3.34 0 0 0 -.17-1.14.66.66 0 0 0 -.67-.45.69.69 0 0 0 -.66.42 3 3 0 0 0 -.21 1.26 3.14 3.14 0 0 0 .13 1 .74.74 0 0 0 .7.58.73.73 0 0 0 .62-.35z" fill="#208ec5"/><path d="m185.56 296.73h.6v.62h-.6z" fill="#208ec5"/><path d="m187.41 296.31a.71.71 0 0 0 .41.61.93.93 0 0 0 .42.08.79.79 0 0 0 .68-.29 1.07 1.07 0 0 0 .21-.64.8.8 0 0 0 -.26-.66.88.88 0 0 0 -.62-.24 1.08 1.08 0 0 0 -.46.1 1.1 1.1 0 0 0 -.32.29h-.45l.31-2.2h2.13v.5h-1.74l-.18 1.14a1.23 1.23 0 0 1 .28-.17 1.38 1.38 0 0 1 .52-.09 1.36 1.36 0 0 1 1 .36 1.2 1.2 0 0 1 .39.92 1.55 1.55 0 0 1 -.36 1 1.37 1.37 0 0 1 -1.14.44 1.45 1.45 0 0 1 -.89-.28 1.11 1.11 0 0 1 -.43-.86z" fill="#208ec5"/><path d="m190.06 293.09h.94l1 1.5 1-1.5h.87l-1.44 2.06 1.5 2.18h-.93l-1.06-1.6-1 1.6h-.94l1.5-2.18z" fill="#208ec5"/><path d="m186 308.53h.93l1 1.5 1-1.5h.88l-1.44 2.06 1.5 2.19h-.92l-1.06-1.6-1 1.6h-.91l1.5-2.19z" fill="#208ec5"/><path d="m184.3 331.47h7.23v.21h-7.23z" fill="#00b2e1"/><path d="m184.3 290.26h7.23v.21h-7.23z" fill="#00b2e1"/><path d="m184.3 320.78h7.23v.21h-7.23z" fill="#00b2e1"/><path d="m184.3 300.74h7.23v.21h-7.23z" fill="#00b2e1"/><path d="m332.69 237.56a3 3 0 0 1 .31 1.44 3.23 3.23 0 0 1 -.25 1.37 1.26 1.26 0 0 1 -2.27.15 3 3 0 0 1 -.3-1.44 3.51 3.51 0 0 1 .18-1.19 1.23 1.23 0 0 1 1.22-.93 1.22 1.22 0 0 1 1.11.6zm-.52 2.72a2.49 2.49 0 0 0 .24-1.31 3.36 3.36 0 0 0 -.17-1.15.66.66 0 0 0 -.67-.45.69.69 0 0 0 -.66.43 2.9 2.9 0 0 0 -.21 1.25 3.09 3.09 0 0 0 .13 1 .73.73 0 0 0 1.34.22z" fill="#208ec5"/><path d="m333.71 240.37h.6v.63h-.6z" fill="#208ec5"/><path d="m335.56 240a.7.7 0 0 0 .4.61 1 1 0 0 0 .43.09.79.79 0 0 0 .67-.29 1 1 0 0 0 .22-.65.82.82 0 0 0 -.26-.66.88.88 0 0 0 -.62-.24.94.94 0 0 0 -.78.39h-.45l.31-2.2h2.13v.49h-1.74l-.18 1.14a1.35 1.35 0 0 1 .27-.16 1.29 1.29 0 0 1 .53-.1 1.33 1.33 0 0 1 1 .37 1.18 1.18 0 0 1 .39.91 1.6 1.6 0 0 1 -.36 1 1.4 1.4 0 0 1 -1.14.44 1.52 1.52 0 0 1 -.89-.28 1.15 1.15 0 0 1 -.49-.86z" fill="#208ec5"/><path d="m338.21 236.73h.92l1 1.5 1-1.5h.87l-1.44 2.06 1.44 2.21h-.91l-1.06-1.61-1.03 1.61h-.91l1.5-2.19z" fill="#208ec5"/><path d="m332.69 194.56a2.91 2.91 0 0 1 .27 1.38 3.24 3.24 0 0 1 -.25 1.38 1.21 1.21 0 0 1 -1.17.78 1.18 1.18 0 0 1 -1.1-.64 2.9 2.9 0 0 1 -.3-1.43 3.57 3.57 0 0 1 .18-1.2 1.23 1.23 0 0 1 1.22-.93 1.21 1.21 0 0 1 1.15.66zm-.52 2.72a2.56 2.56 0 0 0 .24-1.32 3.4 3.4 0 0 0 -.17-1.15.65.65 0 0 0 -.67-.44.69.69 0 0 0 -.66.42 3 3 0 0 0 -.21 1.26 3 3 0 0 0 .13 1 .73.73 0 0 0 1.34.23z" fill="#208ec5"/><path d="m333.71 197.37h.6v.63h-.6z" fill="#208ec5"/><path d="m335.56 197a.73.73 0 0 0 .4.61 1.18 1.18 0 0 0 .43.08.79.79 0 0 0 .67-.29 1 1 0 0 0 .22-.64.84.84 0 0 0 -.28-.76.91.91 0 0 0 -.62-.23 1 1 0 0 0 -.46.1 1 1 0 0 0 -.32.29h-.45l.31-2.2h2.13v.5h-1.74l-.18 1.13a2.09 2.09 0 0 1 .27-.16 1.47 1.47 0 0 1 .53-.09 1.36 1.36 0 0 1 1 .36 1.2 1.2 0 0 1 .39.92 1.57 1.57 0 0 1 -.36 1 1.37 1.37 0 0 1 -1.14.44 1.45 1.45 0 0 1 -.89-.28 1.13 1.13 0 0 1 -.47-.78z" fill="#208ec5"/><path d="m338.21 193.72h.92l1 1.51 1-1.51h.87l-1.44 2.06 1.44 2.22h-.91l-1.06-1.6-1 1.6h-.91l1.5-2.19z" fill="#208ec5"/><path d="m332.45 243.97h7.23v.21h-7.23z" fill="#00b2e1"/><path d="m332.45 190.9h7.23v.21h-7.23z" fill="#00b2e1"/><path d="m332.45 233.45h7.23v.21h-7.23z" fill="#00b2e1"/><path d="m332.45 201.38h7.23v.21h-7.23z" fill="#00b2e1"/><path d="m321.75 125.75a2.86 2.86 0 0 1 .28 1.39 3.47 3.47 0 0 1 -.25 1.38 1.22 1.22 0 0 1 -1.18.78 1.16 1.16 0 0 1 -1.09-.64 2.92 2.92 0 0 1 -.3-1.43 3.53 3.53 0 0 1 .18-1.2 1.23 1.23 0 0 1 1.22-.93 1.21 1.21 0 0 1 1.14.65zm-.51 2.73a2.69 2.69 0 0 0 .23-1.32 3.14 3.14 0 0 0 -.17-1.15.64.64 0 0 0 -.66-.45.71.71 0 0 0 -.67.43 2.92 2.92 0 0 0 -.21 1.26 3 3 0 0 0 .14 1 .72.72 0 0 0 .7.58.74.74 0 0 0 .64-.35z" fill="#208ec5"/><path d="m322.78 128.57h.59v.62h-.59z" fill="#208ec5"/><path d="m324.62 128.15a.71.71 0 0 0 .41.6.93.93 0 0 0 .42.09.81.81 0 0 0 .68-.29 1 1 0 0 0 .22-.65.87.87 0 0 0 -.26-.66.91.91 0 0 0 -.63-.23.88.88 0 0 0 -.45.1 1 1 0 0 0 -.33.28h-.44l.31-2.2h2.12v.5h-1.74l-.17 1.13a1 1 0 0 1 .27-.16 1.43 1.43 0 0 1 .53-.1 1.36 1.36 0 0 1 .95.37 1.2 1.2 0 0 1 .39.92 1.59 1.59 0 0 1 -.36 1 1.39 1.39 0 0 1 -1.14.44 1.42 1.42 0 0 1 -.88-.28 1.11 1.11 0 0 1 -.43-.86z" fill="#208ec5"/><path d="m327.27 124.92h.93l1 1.5 1-1.5h.87l-1.47 2.08 1.51 2.19h-.92l-1.06-1.6-1 1.6h-.9l1.5-2.19z" fill="#208ec5"/><path d="m321.75 94.58a2.81 2.81 0 0 1 .25 1.42 3.4 3.4 0 0 1 -.25 1.38 1.22 1.22 0 0 1 -1.18.78 1.16 1.16 0 0 1 -1.09-.64 2.9 2.9 0 0 1 -.3-1.43 3.61 3.61 0 0 1 .18-1.2 1.23 1.23 0 0 1 1.22-.93 1.2 1.2 0 0 1 1.17.62zm-.51 2.72a2.69 2.69 0 0 0 .23-1.32 3.11 3.11 0 0 0 -.17-1.14.64.64 0 0 0 -.66-.45.7.7 0 0 0 -.67.42 3.77 3.77 0 0 0 -.07 2.26.73.73 0 0 0 1.34.23z" fill="#208ec5"/><path d="m322.78 97.39h.59v.61h-.59z" fill="#208ec5"/><path d="m324.62 97a.73.73 0 0 0 .41.61 1.08 1.08 0 0 0 .42.08.78.78 0 0 0 .68-.29 1 1 0 0 0 .22-.64.87.87 0 0 0 -.26-.67 1 1 0 0 0 -.63-.23.88.88 0 0 0 -.45.1 1 1 0 0 0 -.33.29h-.44l.31-2.2h2.12v.5h-1.74l-.17 1.13a1.28 1.28 0 0 1 .27-.16 1.44 1.44 0 0 1 .53-.09 1.36 1.36 0 0 1 .95.36 1.2 1.2 0 0 1 .39.92 1.55 1.55 0 0 1 -.36 1 1.36 1.36 0 0 1 -1.14.44 1.42 1.42 0 0 1 -.88-.28 1.08 1.08 0 0 1 -.43-.86z" fill="#208ec5"/><path d="m327.27 93.75h.93l1 1.5 1-1.5h.87l-1.44 2 1.48 2.25h-.92l-1.06-1.6-1 1.6h-.9l1.5-2.19z" fill="#208ec5"/><path d="m323.21 109.19h.93l1 1.5 1-1.5h.87l-1.44 2.06 1.5 2.19h-.91l-1.06-1.61-1 1.61h-.91l1.5-2.19z" fill="#208ec5"/><path d="m321.51 132.12h7.23v.21h-7.23z" fill="#00b2e1"/><path d="m321.51 90.92h7.23v.21h-7.23z" fill="#00b2e1"/><path d="m321.51 121.44h7.23v.21h-7.23z" fill="#00b2e1"/><path d="m321.51 101.6h7.23v.21h-7.23z" fill="#00b2e1"/><path d="m189.35 44.56h.21v7.23h-.21z" fill="#00b2e1"/><path d="m178.66 44.56h.21v7.23h-.21z" fill="#00b2e1"/><path d="m296.22 44.56h.21v7.23h-.21z" fill="#00b2e1"/><path d="m285.54 44.56h.21v7.23h-.21z" fill="#00b2e1"/><path d="m110.46 55.92a3 3 0 0 1 .27 1.38 3.42 3.42 0 0 1 -.24 1.38 1.23 1.23 0 0 1 -1.18.78 1.19 1.19 0 0 1 -1.1-.63 3 3 0 0 1 -.3-1.44 3.51 3.51 0 0 1 .18-1.19 1.23 1.23 0 0 1 1.22-.93 1.2 1.2 0 0 1 1.15.65zm-.52 2.72a2.51 2.51 0 0 0 .24-1.32 3.34 3.34 0 0 0 -.17-1.14.66.66 0 0 0 -.67-.45.69.69 0 0 0 -.66.43 2.9 2.9 0 0 0 -.21 1.25 3.14 3.14 0 0 0 .13 1 .74.74 0 0 0 .71.58.72.72 0 0 0 .63-.35z" fill="#208ec5"/><path d="m111.48 58.73h.6v.62h-.6z" fill="#208ec5"/><path d="m113.33 58.31a.71.71 0 0 0 .41.61.93.93 0 0 0 .42.08.79.79 0 0 0 .68-.29 1.08 1.08 0 0 0 .22-.64.81.81 0 0 0 -.27-.66.88.88 0 0 0 -.62-.24.94.94 0 0 0 -.78.39h-.45l.31-2.21h2.13v.5h-1.74l-.17 1.15a1 1 0 0 1 .27-.17 1.42 1.42 0 0 1 .52-.09 1.36 1.36 0 0 1 1 .36 1.2 1.2 0 0 1 .39.92 1.55 1.55 0 0 1 -.36 1 1.37 1.37 0 0 1 -1.14.45 1.46 1.46 0 0 1 -.89-.29 1.14 1.14 0 0 1 -.43-.86z" fill="#208ec5"/><path d="m116 55.09h.93l1 1.5 1-1.5h.87l-1.44 2.06 1.5 2.18h-.91l-1.06-1.6-1 1.6h-.91l1.5-2.18z" fill="#208ec5"/><path d="m125.22 35a2.84 2.84 0 0 1 .28 1.38 3.24 3.24 0 0 1 -.25 1.38 1.22 1.22 0 0 1 -1.18.78 1.17 1.17 0 0 1 -1.09-.63 3 3 0 0 1 -.3-1.44 3.51 3.51 0 0 1 .18-1.19 1.23 1.23 0 0 1 1.22-.93 1.18 1.18 0 0 1 1.14.65zm-.51 2.72a2.51 2.51 0 0 0 .24-1.32 3.1 3.1 0 0 0 -.18-1.14.64.64 0 0 0 -.66-.45.69.69 0 0 0 -.67.43 2.9 2.9 0 0 0 -.21 1.25 3.1 3.1 0 0 0 .14 1 .73.73 0 0 0 1.34.22z" fill="#208ec5"/><path d="m126.25 37.84h.59v.62h-.59z" fill="#208ec5"/><path d="m128.09 37.42a.73.73 0 0 0 .41.61.93.93 0 0 0 .42.08.78.78 0 0 0 .68-.29 1 1 0 0 0 .22-.64.84.84 0 0 0 -.26-.66 1 1 0 0 0 -1.08-.13.88.88 0 0 0 -.33.28h-.44l.31-2.21h2.12v.5h-1.74l-.17 1.14a1.46 1.46 0 0 1 .27-.17 1.44 1.44 0 0 1 .53-.09 1.36 1.36 0 0 1 .95.36 1.2 1.2 0 0 1 .39.92 1.6 1.6 0 0 1 -.35 1 1.38 1.38 0 0 1 -1.15.45 1.45 1.45 0 0 1 -.88-.29 1.08 1.08 0 0 1 -.43-.86z" fill="#208ec5"/><path d="m130.74 34.2h.93l1 1.5 1-1.5h.87l-1.43 2.06 1.5 2.18h-.92l-1.06-1.6-1 1.6h-.91l1.5-2.18z" fill="#208ec5"/><path d="m125.22 3.88a2.84 2.84 0 0 1 .28 1.38 3.24 3.24 0 0 1 -.25 1.38 1.22 1.22 0 0 1 -1.18.78 1.17 1.17 0 0 1 -1.07-.63 3 3 0 0 1 -.3-1.44 3.51 3.51 0 0 1 .18-1.19 1.23 1.23 0 0 1 1.22-.93 1.18 1.18 0 0 1 1.12.65zm-.51 2.72a2.51 2.51 0 0 0 .29-1.32 3.1 3.1 0 0 0 -.18-1.14.64.64 0 0 0 -.66-.45.69.69 0 0 0 -.67.43 2.9 2.9 0 0 0 -.21 1.25 3.1 3.1 0 0 0 .14 1 .73.73 0 0 0 1.34.22z" fill="#208ec5"/><path d="m126.25 6.69h.59v.62h-.59z" fill="#208ec5"/><path d="m128.09 6.27a.73.73 0 0 0 .41.61.93.93 0 0 0 .42.08.78.78 0 0 0 .68-.29 1 1 0 0 0 .22-.64.84.84 0 0 0 -.26-.66 1 1 0 0 0 -1.08-.13.88.88 0 0 0 -.33.28h-.44l.29-2.23h2.12v.5h-1.72l-.17 1.14a1.46 1.46 0 0 1 .27-.17 1.44 1.44 0 0 1 .53-.09 1.36 1.36 0 0 1 .97.33 1.2 1.2 0 0 1 .39.92 1.6 1.6 0 0 1 -.39 1.08 1.38 1.38 0 0 1 -1.15.45 1.45 1.45 0 0 1 -.88-.29 1.08 1.08 0 0 1 -.43-.86z" fill="#208ec5"/><path d="m130.74 3.05h.93l1 1.5 1-1.5h.87l-1.43 2.06 1.5 2.18h-.92l-1.06-1.6-1 1.6h-.91l1.5-2.18z" fill="#208ec5"/><path d="m126.68 18.45h.93l1 1.51 1-1.51h.87l-1.48 2.08 1.5 2.19h-.91l-1.06-1.6-1 1.6h-.91l1.5-2.19z" fill="#208ec5"/><path d="m11.37 41.36h-10.78v-41.3h10.78zm-10.69-.1h10.59v-41.1h-10.59z" fill="#00b2e1"/><path d="m118.63 10.84h-118.04v-10.78h118zm-117.95-.1h117.86v-10.58h-117.86z" fill="#00b2e1"/><path d="m118.63 41.36h-118.04v-10.78h118zm-117.95-.09h117.86v-10.59h-117.86z" fill="#00b2e1"/><path d="m118.63 41.36h-10.78v-41.3h10.78zm-10.63-.1h10.59v-41.1h-10.59z" fill="#00b2e1"/><path d="m64.5 24.59h2.86v-8.29h2.04v11.22h-2.04v-.92l-7.85-.02v.94h-2.12v-11.32h2.1v8.39l2.89-.02v-10.18h2.12z" fill="#00a19b"/><path d="m30.5 17.07a10 10 0 0 1 -12.43 13.05 9.95 9.95 0 0 1 -1.56-18.12 10 10 0 0 1 14 5.11z" fill="#00a19b"/><path d="m29.75 21.88h.32c-.06-.2-.36-.12-.48-.3a.58.58 0 0 1 .4.08c-.06 0-.2 0-.16-.16a9.68 9.68 0 0 1 -2.48-1.37c-.63-.37-1-1.24-1.68-1.48a4.06 4.06 0 0 1 -.26-.51h-.07a2.89 2.89 0 0 1 -.26-.53.54.54 0 0 0 -.43-.18c-.22.12-.56-.08-.69 0l.11.06c0 .07-.07.13-.17.11a7.11 7.11 0 0 1 -1.15-1.24c.18-.51-.47-.63-.71-1s-.77 0-1.1.11a8.73 8.73 0 0 0 -1.72-.33c-.23.06-.37.33-.49.49-.35.51-.51 1.13-.93 1.64-.11.22-.41.12-.57.29a1.81 1.81 0 0 0 -1 .3s0 .1-.1.08a3.93 3.93 0 0 1 -.32.47c-.29.4-.85.52-1.26.77a5.66 5.66 0 0 0 -1.44 1.05c-.22.33-.53.51-.75.81.22-.06.18-.32.43-.28.06.16-.13.22-.15.32s.17-.1.25-.08a.6.6 0 0 1 -.23.27c.1 0 .07.06.11.08s.26-.16.4-.08a4.41 4.41 0 0 1 -.34.32c.08 0 .14 0 .18-.06s.26-.22.38-.24l-.22.3.24-.18c.06.08-.14.14 0 .22.17-.08.21-.26.37-.34 0 .16-.2.28-.27.42.07-.08.31-.14.27-.3a2.42 2.42 0 0 0 .47-.49c.44-.48.75-1 1.4-1.13.36-.31.91-.31 1.25-.67.06-.08.15-.25.29-.21a.17.17 0 0 1 .2-.12v.08c.28-.32.75-.2 1-.5a1.65 1.65 0 0 0 .71-.65 1.71 1.71 0 0 1 .35-.51 2.16 2.16 0 0 1 .32-.51 1.47 1.47 0 0 1 .59 0c.23.33.65.15 1 .17 0 .18.2 0 .22.18.29.14.39.59.65.83a.75.75 0 0 0 -.39.49c-.26 0 0 .32-.28.34a.2.2 0 0 1 .31 0l-.05.06a9.07 9.07 0 0 0 -.89.53c-.08.06-.16.16-.22.2h.06s0 0 0 0a.06.06 0 0 0 0 .08h.06c.1 0 .2-.14.28-.06s0 0 0 .06c.09-.14.21 0 .27 0l-.47.38h.16c-.06.18-.28.12-.38.28.12 0 0 .15 0 .17s.16-.12.26-.06c-.06.14-.24.16-.26.32.14-.08.22-.32.4-.24 0 .06-.12.08-.06.18s.13-.12.23-.08.08 0 .06.08.24 0 .32-.08c.27-.39.81-.33 1.2-.51v-.1c.06-.24.42-.18.61-.26.06-.25.38-.06.48-.29s.21 0 .33 0 .38-.06.51-.14c.38-.08.69.39.91.61a5.6 5.6 0 0 0 1.83 1.36c-.33-.25-.68-.41-1-.67 0-.06.08 0 .12 0 .29.22.59.38.89.59a7.89 7.89 0 0 0 2 1.06l-.1-.08s0-.06 0-.08l.14.08c0-.08.11-.08.17-.1-.1-.19-.35-.25-.53-.35a7.36 7.36 0 0 1 -1.6-.92 11.85 11.85 0 0 0 1.82.9c.09.2.25.08.41.14 0 .17-.08.17-.08.11z" fill="#fff"/><path d="m21.24 19.08h-.1c.06.17-.14.13-.2.19v-.06l-.16.12c0 .17-.26.06-.28.23.14 0 .26-.19.44-.17 0-.17.2-.23.3-.31z" fill="#fff"/><path d="m20.6 19.2c-.1.06-.17.06-.21.17a.33.33 0 0 0 .21-.17z" fill="#fff"/><path d="m86 23.17-1.54-.56h2v-1.73h-3.88v-.83h1.86v-1.05a14.59 14.59 0 0 0 3 1.84l1.28-2a10.3 10.3 0 0 1 -5.86-4.4l.09-.18-2.5-.26a9.67 9.67 0 0 1 -5.36 5.23l.92 2a22.36 22.36 0 0 0 2.71-1.92v.71h1.87v.83h-3.85v1.73h2.17l-1.56.59.73 2.33h-2.4v1.8h11.81v-1.77h-2.59c.15-.32 1.1-2.24 1.1-2.36zm-6.12-4.85a16.27 16.27 0 0 0 1.84-2.08 14.28 14.28 0 0 0 2 2.08zm-1.54 7.21 1.78-.67-1.07-2.25h1.54v2.92zm4.24-2.92h1.51l-1 2.23 1.71.69h-2.22z" fill="#00a19b"/><path d="m101.12 17.73h4.43v1.23h1.7v-1.23-.42-1.13h-3.07v-1.78h-1.69v1.78h-3.07v1.13.42 1.23h1.7z" fill="#00a19b"/><path d="m104.18 23.47h2v-1.21a4.4 4.4 0 0 0 .41.31l1.26-1.12a6.91 6.91 0 0 1 -2.76-3.06l-1.48.67a10.91 10.91 0 0 0 2.09 2.79h-4.83a10.91 10.91 0 0 0 2.13-2.79l-1.48-.67a6.89 6.89 0 0 1 -2.31 2.77v-1.24l-1.2.26v-1.36h1.12v-1.73h-1.13v-2.69h-1.72v2.69h-1.67v1.73h1.67v1.75l-1.91.43.33 1.89 1.58-.43v2.89a.34.34 0 0 1 -.34.34h-.89l.72 1.82h.53a1.72 1.72 0 0 0 1.7-1.73v-3.78l1-.28 1 .88c.14-.1.28-.2.41-.31v1.21h2v2.2h-3.21v1.6h8.27v-1.63h-3.29z" fill="#00a19b"/><path d="m45.52 25.26v-3.66h4.36v-2l-4.36-.02v-2.89h4.67l.01-2.07h-11.47v2.07h4.62v2.89h-4.32v2.02h4.32v3.66h-5.26v2.03h12.67v-2.03z" fill="#00a19b"/><path d="m47.47 22.23a1.26 1.26 0 0 0 -.87 1.06 1.23 1.23 0 0 0 .28.92 1.28 1.28 0 0 0 1.35.4 1.3 1.3 0 0 0 .83-.86 1.34 1.34 0 0 0 -.16-1 1.25 1.25 0 0 0 -1.43-.52z" fill="#00a19b"/><path d="m208.63 17.07a10 10 0 0 1 -12.43 13.05 10 10 0 0 1 -1.56-18.12 9.95 9.95 0 0 1 14 5.11z" fill="#00a19b"/><path d="m207.89 21.88h.31c-.06-.2-.35-.12-.47-.3a.55.55 0 0 1 .39.08c-.05 0-.19 0-.15-.16a9.75 9.75 0 0 1 -2.49-1.37c-.63-.37-1-1.24-1.67-1.48a4.06 4.06 0 0 1 -.26-.51h-.08a2.89 2.89 0 0 1 -.26-.53.52.52 0 0 0 -.43-.18c-.22.12-.55-.08-.69 0l.12.06c0 .07-.08.13-.18.11a7.06 7.06 0 0 1 -1.14-1.24c.18-.51-.48-.63-.71-1s-.77 0-1.11.11a8.77 8.77 0 0 0 -1.71-.33c-.24.06-.38.33-.49.49-.36.51-.52 1.13-.93 1.64-.12.22-.42.12-.57.29a1.85 1.85 0 0 0 -1 .3s0 .1-.1.08a3.79 3.79 0 0 1 -.31.47c-.3.4-.85.52-1.27.77a5.61 5.61 0 0 0 -1.43 1.05c-.22.33-.54.51-.75.81.21-.06.17-.32.43-.28.06.16-.14.22-.16.32s.18-.1.26-.08a.62.62 0 0 1 -.24.27c.1 0 .08.06.12.08s.26-.16.39-.08a3.14 3.14 0 0 1 -.33.32c.08 0 .14 0 .18-.06s.25-.22.37-.24l-.22.3.24-.18c.06.08-.14.14 0 .22.18-.08.22-.26.38-.34 0 .16-.2.28-.28.42.08-.08.32-.14.28-.3a3.12 3.12 0 0 0 .47-.49c.43-.48.75-1 1.4-1.13.35-.31.91-.31 1.24-.67.06-.08.16-.25.3-.21a.16.16 0 0 1 .19-.12v.08c.28-.32.75-.2 1-.5a1.6 1.6 0 0 0 .71-.65 1.94 1.94 0 0 1 .36-.51 1.84 1.84 0 0 1 .31-.51 1.47 1.47 0 0 1 .59 0c.24.33.65.15 1 .17 0 .18.19 0 .21.18.3.14.4.59.65.83a.81.81 0 0 0 -.39.49c-.26 0 0 .32-.28.34a.21.21 0 0 1 .32 0l-.06.06c-.29.14-.59.35-.89.53-.08.06-.15.16-.21.2h.15s-.06 0 0 .08 0 0 0 0c.1 0 .2-.14.28-.06s0 0 0 .06c.1-.14.22 0 .28 0l-.48.38h.16c-.06.18-.27.12-.37.28.12 0 0 .15 0 .17s.15-.12.25-.06c-.06.14-.23.16-.25.32.13-.08.21-.32.39-.24 0 .06-.12.08-.06.18s.14-.12.24-.08.08 0 .06.08.23 0 .31-.08c.28-.39.81-.33 1.21-.51v-.1c.06-.24.41-.18.61-.26.06-.25.37-.06.47-.29s.22 0 .34 0 .37-.06.51-.14c.37-.08.69.39.91.61a5.6 5.6 0 0 0 1.83 1.36c-.34-.25-.69-.41-1-.67 0-.06.08 0 .12 0 .3.22.59.38.89.59a7.89 7.89 0 0 0 2 1.06l-.1-.08s0-.06 0-.08l.14.08c0-.08.12-.08.18-.1-.1-.19-.36-.25-.53-.35a6.92 6.92 0 0 1 -1.6-.92 11.74 11.74 0 0 0 1.81.9c.1.2.26.08.42.14-.02.17-.13.17-.13.11z" fill="#fff"/><path d="m199.38 19.07h-.1c.06.17-.14.13-.2.19v-.06l-.16.12c0 .17-.26.06-.28.23.14 0 .26-.19.44-.17 0-.16.2-.22.3-.31z" fill="#fff"/><path d="m198.74 19.2c-.1.06-.18.06-.22.17a.35.35 0 0 0 .22-.17z" fill="#fff"/><path d="m242.57 24.35h2.84v-8.26h2.03v11.18h-2.03v-.92l-7.82-.02v.94h-2.12v-11.28h2.1v8.36l2.88-.02v-10.14h2.12z" fill="#00a19b"/><path d="m257.85 22.56h2.12v1.35h-2.12z" fill="#00a19b" transform="matrix(.21303039 -.97704557 .97704557 .21303039 181.06 271.25)"/><path d="m265.43 24.1 1.85-1.34s-1.21-1.23-1.25-1.25-1.06.69-1.48 1a5.48 5.48 0 0 1 -.25-1.39h2.24v-6.77h-6.38v10.85l-.61.11-.05-.85-1.74.3v-3.12h1.91v-1.7h-1.91v-.66h1.39v-.83l.13.1.88-2a4.82 4.82 0 0 1 -2.25-2.41h-1.8a5.55 5.55 0 0 1 -2.39 2.8l.88 2 .37-.33v.68h1.12v.66h-2.09v1.7h2.08v3.42l-2.12.37v1.87l5.35-1v1l4.29-.75-.09-1.71a6.36 6.36 0 0 0 2.73 2.5l.91-1.78a8.64 8.64 0 0 1 -1.72-1.47zm-9.43-6.51a8.16 8.16 0 0 0 1-1.31 6.77 6.77 0 0 0 1.11 1.31zm6-1.39h2.64v.89h-2.64zm0 8.67v-3.77h.55a7.14 7.14 0 0 0 .87 3.53zm0-5.33v-.89h2.64v.89z" fill="#00a19b"/><path d="m255.67 24.47-.32-2.26-1.4.25.32 2.28z" fill="#00a19b"/><path d="m277.71 14.31h7.4v1.98h-7.4z" fill="#00a19b"/><path d="m285.65 18.57h-8.6l-1.45-1a14.6 14.6 0 0 1 -3.2 3.76l.91 2.17s.42-.36 1-.94v4.7h2v-7a10.85 10.85 0 0 0 .7-1.11v1.46h4.59v4.39a.28.28 0 0 1 -.28.28h-2.32l.79 2h2.41a1.49 1.49 0 0 0 1.49-1.48v-5.27h2z" fill="#00a19b"/><path d="m277 15.29c-.58-.38-1.14-.8-1.7-1.18a12.68 12.68 0 0 1 -2.84 2.69l.95 1.95a15.51 15.51 0 0 0 3.59-3.46z" fill="#00a19b"/><path d="m223.63 24.96-.01-3.64h4.35v-1.99l-4.35-.02v-2.88h4.66v-2.06h-11.41v2.06h4.6v2.88h-4.31v2.01h4.31v3.64h-5.25v2.03h12.63v-2.03z" fill="#00a19b"/><path d="m225.56 22a1.24 1.24 0 0 0 -.58 2 1.25 1.25 0 0 0 2.17-.47 1.36 1.36 0 0 0 -.15-1 1.27 1.27 0 0 0 -1.44-.53z" fill="#00a19b"/><path d="m30.5 108a10 10 0 0 1 -12.43 13 9.95 9.95 0 0 1 -1.56-18.16 10 10 0 0 1 14 5.11z" fill="#00a19b"/><path d="m21.69 109.7a.19.19 0 0 0 -.12.07c.07-.01.1-.03.12-.07z" fill="#fff"/><path d="m29.75 112.8h.32c-.06-.2-.36-.12-.48-.3a.58.58 0 0 1 .4.08c-.06 0-.2 0-.16-.17a9.36 9.36 0 0 1 -2.48-1.41c-.63-.37-1-1.24-1.68-1.48a4.89 4.89 0 0 1 -.26-.51h-.07a2.89 2.89 0 0 1 -.26-.53.54.54 0 0 0 -.43-.18c-.22.12-.56-.08-.69 0l.11.06c0 .06-.07.12-.17.1a6.71 6.71 0 0 1 -1.15-1.23c.18-.51-.47-.63-.71-1s-.77 0-1.1.1a9.68 9.68 0 0 0 -1.72-.32c-.23.06-.37.32-.49.49-.35.5-.51 1.13-.93 1.64-.11.22-.41.12-.57.28a1.74 1.74 0 0 0 -1 .31s0 .1-.1.08a3.19 3.19 0 0 1 -.32.46c-.29.41-.85.53-1.26.77a5.7 5.7 0 0 0 -1.44 1.06c-.22.32-.53.51-.75.81.22-.06.18-.32.43-.28.06.16-.13.22-.15.32s.17-.1.25-.08a.58.58 0 0 1 -.23.26c.1 0 .08.07.11.09s.26-.17.4-.09a3.3 3.3 0 0 1 -.34.33c.08 0 .14 0 .18-.06s.26-.22.38-.24l-.22.3.24-.18c.06.08-.14.14 0 .22.17-.08.21-.26.37-.34 0 .16-.2.28-.27.42.07-.08.31-.14.27-.3a2.71 2.71 0 0 0 .47-.49c.44-.49.75-1 1.4-1.14.36-.3.91-.3 1.25-.67.06-.08.15-.24.29-.2a.17.17 0 0 1 .2-.12v.08c.28-.32.75-.2 1-.51a1.63 1.63 0 0 0 .71-.64 1.59 1.59 0 0 1 .35-.51 2 2 0 0 1 .32-.51 1.47 1.47 0 0 1 .59 0c.23.33.65.14 1 .16 0 .19.2 0 .22.19.29.14.39.59.65.83a.75.75 0 0 0 -.39.49c-.19 0-.12.18-.16.27a.19.19 0 0 1 .19.07l-.05.06a9.07 9.07 0 0 0 -.89.53c-.08.06-.16.16-.22.2h.06a0 0 0 0 1 0 0s-.06 0 0 .09h.06c.1 0 .2-.14.28-.06s0 0 0 .06c.09-.14.21 0 .27 0-.14.12-.31.27-.47.39h.16c-.06.18-.28.12-.38.28.12 0 0 .14 0 .16s.16-.12.26-.06c-.06.15-.24.17-.26.33.14-.08.22-.33.4-.25 0 .07-.12.09-.06.19s.13-.12.23-.08.08 0 .06.08.24 0 .32-.08c.27-.39.81-.33 1.2-.51v-.1c.06-.25.42-.18.61-.27s.38-.06.48-.28.21 0 .33 0 .38-.06.51-.14c.38-.08.69.38.91.61a5.6 5.6 0 0 0 1.83 1.36c-.33-.25-.68-.41-1-.67 0-.06.08 0 .12 0 .29.22.59.38.89.58a7.76 7.76 0 0 0 2 1.07l-.1-.08s0-.06 0-.09l.14.09c0-.09.11-.09.17-.11-.1-.18-.35-.24-.53-.34a7.36 7.36 0 0 1 -1.6-.92 12.84 12.84 0 0 0 1.82.9c.09.2.25.08.41.14 0 .2-.08.2-.08.14z" fill="#fff"/><path d="m21.24 110h-.1c.06.17-.14.13-.2.19v-.06l-.16.12c0 .17-.26.06-.27.23.13 0 .25-.19.43-.17 0-.17.2-.23.3-.31z" fill="#fff"/><path d="m20.6 110.12c-.1.06-.17.06-.21.16a.29.29 0 0 0 .21-.16z" fill="#fff"/><path d="m40.46 107.22h6.54v1.49h-4.77v2h4.43v1.48h-4.43v2.39h4.93v1.42h-6.7z" fill="#00a19b"/><path d="m54.87 113a1.81 1.81 0 0 0 1.92 1.69c1.25 0 1.74-.65 1.74-1.22 0-.74-.62-.89-2.24-1.29-.87-.22-2.82-.7-2.82-2.65 0-1 .63-2.45 3.21-2.45 1.73 0 3.3.67 3.37 2.66l-1.78.08c-.07-.46-.21-1.29-1.61-1.29-.53 0-1.49.17-1.49.88s.55.81 2 1.14 3.16.76 3.16 2.92a2.61 2.61 0 0 1 -1.44 2.32 5 5 0 0 1 -2.08.39 3.21 3.21 0 0 1 -3.63-3z" fill="#00a19b"/><path d="m65.24 107.22v4.78a4 4 0 0 0 .22 1.9 1.65 1.65 0 0 0 1.56.77c1.7 0 1.7-1.07 1.7-2.57v-4.86h1.77v4.63c0 1.57-.06 2.45-.49 3.11a3.29 3.29 0 0 1 -2.93 1.22c-3.6 0-3.6-2.23-3.6-4.26v-4.7z" fill="#00a19b"/><path d="m74.12 107.22h1.73l3.58 5.88v-5.88h1.67v8.78h-1.78l-3.52-5.74v5.74h-1.68z" fill="#00a19b"/><path d="m88.18 107.22h6v1.49h-4.18v2.09h3.69v1.49h-3.69v3.71h-1.82z" fill="#00a19b"/><path d="m97.22 107.22h1.78v3.47h3.48v-3.47h1.78v8.78h-1.78v-3.85h-3.48v3.85h-1.78z" fill="#00a19b"/><path d="m115 113.34a3.48 3.48 0 0 1 -3.66 2.84c-2.39 0-4-1.74-4-4.48 0-2.45 1.24-4.62 4.11-4.62a3.77 3.77 0 0 1 2.7 1 3.4 3.4 0 0 1 .83 1.58l-1.76.41a1.82 1.82 0 0 0 -1.86-1.47c-2.19 0-2.19 2.41-2.19 3a4.15 4.15 0 0 0 .47 2.21 2 2 0 0 0 1.7.86c1.18 0 1.72-.89 1.94-1.86z" fill="#00a19b"/><path d="m51 114.9a1.14 1.14 0 1 0 -1.14 1.1 1.13 1.13 0 0 0 1.14-1.1z" fill="#00a19b"/><path d="m208.63 108a10 10 0 0 1 -12.43 13 10 10 0 0 1 -1.56-18.16 9.95 9.95 0 0 1 14 5.11z" fill="#00a19b"/><path d="m199.82 109.7a.19.19 0 0 0 -.11.07c.07-.01.1-.03.11-.07z" fill="#fff"/><path d="m207.89 112.8h.31c0-.2-.35-.12-.47-.3a.58.58 0 0 1 .4.08c-.06 0-.2 0-.16-.16a9.75 9.75 0 0 1 -2.49-1.37c-.63-.37-1-1.24-1.67-1.48a4.06 4.06 0 0 1 -.26-.51h-.08a2.32 2.32 0 0 1 -.25-.53.55.55 0 0 0 -.44-.18c-.22.12-.55-.08-.69 0l.12.06c0 .06-.08.12-.18.1a6.66 6.66 0 0 1 -1.14-1.23c.18-.51-.47-.63-.71-1s-.77 0-1.11.1a9.57 9.57 0 0 0 -1.71-.32c-.24.06-.38.32-.49.49-.36.5-.52 1.13-.93 1.64-.12.22-.41.12-.57.28a1.86 1.86 0 0 0 -1 .31s0 .1-.1.08a3.79 3.79 0 0 1 -.31.47c-.3.4-.85.52-1.27.77a5.38 5.38 0 0 0 -1.43 1c-.22.33-.54.51-.75.81.21-.06.17-.32.43-.28.06.16-.14.22-.16.32s.18-.1.26-.08-.14.18-.24.27c.1 0 .08.06.12.08s.26-.17.39-.08a3.14 3.14 0 0 1 -.33.32c.08 0 .14 0 .18-.06s.25-.22.37-.24l-.22.3.24-.18c.06.08-.14.14 0 .22.18-.08.22-.26.38-.34 0 .16-.2.28-.28.42.08-.08.32-.14.28-.3a3.12 3.12 0 0 0 .47-.49c.43-.49.75-1 1.4-1.14.35-.31.91-.31 1.24-.67.06-.09.16-.25.3-.21a.17.17 0 0 1 .2-.12v.08c.28-.32.75-.2 1-.51a1.66 1.66 0 0 0 .71-.65 1.79 1.79 0 0 1 .36-.51 1.7 1.7 0 0 1 .31-.51 1.47 1.47 0 0 1 .59 0c.24.33.65.14 1 .16 0 .19.2 0 .21.19.3.14.4.59.66.83a.79.79 0 0 0 -.4.49c-.18 0-.11.18-.16.27a.21.21 0 0 1 .2.07l-.06.06c-.29.14-.59.35-.89.53-.07.06-.15.16-.21.2h.14a0 0 0 0 0 0 0s-.07 0-.05.09h.05a0 0 0 0 1 0 0c.09 0 .19-.14.27-.06s0 0 0 .06c.1-.14.22 0 .28 0-.14.13-.32.27-.48.39h.16c-.06.18-.27.12-.37.28.12 0 0 .14 0 .16s.16-.12.25-.06-.23.17-.25.33c.14-.08.21-.33.39-.24 0 .06-.12.08-.06.18s.14-.12.24-.08.08 0 .06.08.24 0 .31-.08c.28-.39.81-.33 1.21-.51v-.1c.06-.25.41-.18.61-.27s.37-.06.47-.28.22 0 .34 0 .37-.06.51-.14c.37-.08.69.38.91.61a5.6 5.6 0 0 0 1.83 1.36c-.33-.25-.69-.41-1-.67 0-.06.07 0 .11 0 .3.22.6.38.89.59a8.21 8.21 0 0 0 2 1.06l-.1-.08s0-.06 0-.08l.14.08c0-.08.12-.08.18-.1-.1-.19-.36-.25-.53-.35a6.92 6.92 0 0 1 -1.6-.92 12.72 12.72 0 0 0 1.81.9c.1.2.26.08.42.14 0 .22-.11.22-.11.16z" fill="#fff"/><path d="m199.38 110h-.1c.06.17-.14.13-.2.19v-.06l-.16.12c0 .17-.26.06-.28.23.14 0 .26-.19.44-.17 0-.17.2-.23.3-.31z" fill="#fff"/><path d="m198.74 110.12c-.1.06-.18.06-.22.16a.31.31 0 0 0 .22-.16z" fill="#fff"/><path d="m218.6 107.13h6.54v1.49h-4.77v2h4.44v1.49h-4.44v2.39h4.93v1.5h-6.7z" fill="#00a19b"/><path d="m233 112.92a1.81 1.81 0 0 0 1.92 1.68c1.25 0 1.74-.65 1.74-1.22 0-.74-.62-.89-2.24-1.29-.88-.22-2.82-.7-2.82-2.65 0-1 .63-2.46 3.21-2.46 1.73 0 3.3.68 3.37 2.67l-1.78.08c-.07-.46-.2-1.29-1.61-1.29-.53 0-1.49.16-1.49.88 0 .56.55.81 2 1.14s3.16.76 3.16 2.92a2.59 2.59 0 0 1 -1.46 2.32 5 5 0 0 1 -2.08.39 3.2 3.2 0 0 1 -3.63-3z" fill="#00a19b"/><path d="m243.39 107.13v4.76a3.86 3.86 0 0 0 .23 1.9 1.66 1.66 0 0 0 1.56.78c1.7 0 1.7-1.08 1.7-2.58v-4.86h1.77v4.63a5.78 5.78 0 0 1 -.49 3.12 3.31 3.31 0 0 1 -2.93 1.21c-3.61 0-3.61-2.22-3.61-4.26v-4.7z" fill="#00a19b"/><path d="m252.29 107.13h1.71l3.6 5.87v-5.89h1.65v8.89h-1.78l-3.47-5.81v5.81h-1.64z" fill="#00a19b"/><path d="m229.14 114.82a1.14 1.14 0 1 0 -1.14 1.18 1.14 1.14 0 0 0 1.14-1.18z" fill="#00a19b"/><path d="m269.72 108.91a3.46 3.46 0 0 1 1 .14.83.83 0 0 1 .47.83.84.84 0 0 1 -.36.79 1.74 1.74 0 0 1 -.94.23h-2.15v-2zm.27 3.46a2.13 2.13 0 0 1 .89.15 1 1 0 0 1 .57 1 1.12 1.12 0 0 1 -.59 1.11 2 2 0 0 1 -.9.16h-2.17v-2.38zm.32-5h-4.31v8.9h4a5.45 5.45 0 0 0 1.25-.13 2.31 2.31 0 0 0 1-.44 2.49 2.49 0 0 0 .63-.7 2.62 2.62 0 0 0 .39-1.41 2.42 2.42 0 0 0 -.34-1.3 2 2 0 0 0 -1-.79 1.94 1.94 0 0 0 .67-.51 2 2 0 0 0 .41-1.31 2.3 2.3 0 0 0 -.41-1.36 2.75 2.75 0 0 0 -2.29-.94z" fill="#00a19b"/><path d="m279.15 109.42 1.13 3.5h-2.28zm-4.21 6.86h1.95l.6-1.83h3.28l.58 1.83h2l-3.14-8.9h-2.1z" fill="#00a19b"/><path d="m285.15 107.38h1.94l3.52 6.19v-6.19h1.72v8.9h-1.85l-3.61-6.28v6.31h-1.72z" fill="#00a19b"/><path d="m295.71 107.38h1.85v3.67l3.43-3.67h2.4l-3.63 3.67 3.82 5.23h-2.39l-2.74-3.88-.89.9v3h-1.85z" fill="#00a19b"/><path d="m43.29 219a.52.52 0 0 0 -1 0 .52.52 0 1 0 1 0z" fill="#00a19b"/><path d="m37.41 215.18h3.29v.75h-2.4v1h2.23v.75h-2.23v1.2h2.48v.75h-3.37z" fill="#00a19b"/><path d="m46.55 218.09a.9.9 0 0 0 1 .84c.62 0 .87-.33.87-.61s-.31-.45-1.12-.65c-.44-.11-1.41-.35-1.41-1.32 0-.48.31-1.23 1.61-1.23.86 0 1.65.34 1.68 1.33h-.89c0-.23-.1-.64-.81-.64-.26 0-.74.08-.74.44s.28.4 1 .57 1.59.38 1.59 1.46a1.29 1.29 0 0 1 -.72 1.16 2.65 2.65 0 0 1 -1 .2 1.61 1.61 0 0 1 -1.82-1.51z" fill="#00a19b"/><path d="m52.35 215.18v2.39a2 2 0 0 0 .11 1 .85.85 0 0 0 .79.39c.85 0 .85-.54.85-1.3v-2.44h.9v2.33a2.93 2.93 0 0 1 -.24 1.56 1.67 1.67 0 0 1 -1.48.62c-1.81 0-1.81-1.12-1.81-2.15v-2.36z" fill="#00a19b"/><path d="m57.16 215.18h.84l1.8 3v-3h.83v4.43h-.9l-1.73-2.89v2.89h-.83z" fill="#00a19b"/><path d="m68.12 215.18h3v.75h-2.12v1h1.86v.75h-1.86v1.88h-.9z" fill="#00a19b"/><path d="m73.57 215.18h.89v1.74h1.75v-1.74h.89v4.43h-.89v-1.94h-1.75v1.94h-.89z" fill="#00a19b"/><path d="m83 218.24a1.75 1.75 0 0 1 -1.83 1.42 2 2 0 0 1 -2-2.24 2 2 0 0 1 2.06-2.32 1.94 1.94 0 0 1 1.35.5 1.7 1.7 0 0 1 .41.8l-.88.2a.9.9 0 0 0 -.93-.74c-1.1 0-1.1 1.21-1.1 1.5a2.11 2.11 0 0 0 .24 1.1 1 1 0 0 0 .85.44c.59 0 .86-.45 1-.93z" fill="#00a19b"/><path d="m30.41 208a10 10 0 0 1 -12.41 13 9.95 9.95 0 0 1 -1.56-18.16 10 10 0 0 1 14 5.11z" fill="#00a19b"/><path d="m21.6 209.68a.19.19 0 0 0 -.12.07c.07-.01.1-.03.12-.07z" fill="#fff"/><path d="m29.66 212.78h.34c-.06-.2-.36-.12-.48-.31a.54.54 0 0 1 .4.09c-.06 0-.2 0-.16-.17a9.65 9.65 0 0 1 -2.5-1.39c-.63-.37-1-1.24-1.68-1.48a4.89 4.89 0 0 1 -.26-.51h-.07a3.24 3.24 0 0 1 -.26-.53.55.55 0 0 0 -.44-.18c-.21.12-.55-.08-.68 0l.11.06c0 .06-.08.12-.17.1a6.46 6.46 0 0 1 -1.15-1.24c.18-.5-.47-.62-.71-1s-.77 0-1.1.1a9.68 9.68 0 0 0 -1.72-.32c-.23.06-.37.32-.49.48-.36.51-.51 1.14-.93 1.65-.11.22-.41.12-.57.28a1.74 1.74 0 0 0 -1 .31s0 .1-.1.08a3.19 3.19 0 0 1 -.32.46c-.3.41-.85.53-1.26.77a5.7 5.7 0 0 0 -1.44 1.06c-.22.32-.53.51-.75.81.22-.06.18-.32.43-.28.06.16-.13.22-.15.32s.17-.1.25-.08a.58.58 0 0 1 -.23.26c.1 0 .07.06.11.08s.26-.16.4-.08a3.3 3.3 0 0 1 -.34.33c.08 0 .14 0 .18-.06s.26-.23.38-.25l-.22.31.24-.18c.06.08-.14.14 0 .22.17-.08.21-.26.37-.35 0 .17-.2.29-.27.43.07-.08.31-.14.27-.3a2.71 2.71 0 0 0 .47-.49c.44-.49.75-1 1.4-1.14.36-.3.91-.3 1.25-.67.06-.08.15-.24.29-.2a.17.17 0 0 1 .2-.12v.08c.27-.32.75-.2 1-.51a1.57 1.57 0 0 0 .72-.65 1.66 1.66 0 0 1 .35-.5 2.25 2.25 0 0 1 .31-.51 1.52 1.52 0 0 1 .6 0c.23.33.65.14 1 .16 0 .19.2 0 .22.19.29.14.39.58.65.83a.8.8 0 0 0 -.4.48c-.18 0-.11.19-.15.28a.19.19 0 0 1 .19.07l-.05.06a7.45 7.45 0 0 0 -.89.53c-.08.06-.16.16-.22.2h.07s-.06 0 0 .09h.06c.1 0 .2-.14.28-.06s0 0 0 .06c.09-.14.21 0 .27 0-.14.12-.31.27-.47.39h.16c-.06.18-.28.12-.38.28.12 0 0 .14 0 .16s.16-.12.26-.06c-.06.14-.24.16-.26.33.14-.08.22-.33.4-.25 0 .06-.12.08-.06.19s.13-.13.23-.08.08 0 .06.08.24 0 .32-.08c.27-.39.81-.33 1.2-.51v-.1c.06-.25.42-.19.61-.27.06-.24.38-.06.48-.28s.21 0 .33 0 .38-.06.51-.14c.38-.08.69.38.91.61a5.57 5.57 0 0 0 1.83 1.35c-.33-.24-.69-.4-1-.66 0-.07.08 0 .12 0 .29.22.59.38.88.58a8 8 0 0 0 2 1.07l-.1-.09s0-.06 0-.08l.13.08c0-.08.12-.08.18-.1-.1-.18-.35-.24-.53-.34a8.28 8.28 0 0 1 -1.6-.92 14 14 0 0 0 1.82.9c.09.2.25.08.41.14-.01.19-.09.19-.09.13z" fill="#fff"/><path d="m21.15 210h-.1c.06.17-.14.12-.2.19v-.07l-.16.13c0 .16-.26.06-.28.23.14 0 .26-.19.44-.17 0-.19.2-.26.3-.31z" fill="#fff"/><path d="m20.51 210.1c-.1.06-.18.06-.21.16a.31.31 0 0 0 .21-.16z" fill="#fff"/><path d="m55.06 210.34h1.92v-5.58h1.37v7.55h-1.37v-.63l-5.28-.01v.64h-1.42v-7.62h1.41v5.65l1.94-.02v-6.84h1.43z" fill="#00a19b"/><path d="m42.21 210.78-.01-2.46h2.94v-1.34l-2.94-.01v-1.94h3.15v-1.39h-7.7v1.39h3.1v1.94h-2.91v1.35h2.91v2.46h-3.54v1.37h8.52v-1.37z" fill="#00a19b"/><path d="m43.51 208.75a.86.86 0 0 0 -.58.71.84.84 0 0 0 .19.62.89.89 0 0 0 .91.27.86.86 0 0 0 .55-.58.88.88 0 0 0 -.1-.68.84.84 0 0 0 -.97-.34z" fill="#00a19b"/><path d="m69.5 209.41-1-.37h1.31v-1.15h-2.6v-.55h1.25v-.73a9.42 9.42 0 0 0 2 1.23l.85-1.32a6.85 6.85 0 0 1 -3.9-2.92l.06-.12-1.68-.16a6.45 6.45 0 0 1 -3.57 3.47l.61 1.35a14.59 14.59 0 0 0 1.81-1.27v.47h1.24v.55h-2.55v1.11h1.44l-1 .39.48 1.55h-1.6v1.17h7.86v-1.11h-1.75zm-4.08-3.22a13.5 13.5 0 0 0 1.23-1.38 9.21 9.21 0 0 0 1.3 1.38zm-1 4.79 1.18-.45-.73-1.53h1v2zm2.79-1.98h1l-.7 1.48 1.14.46h-1.44z" fill="#00a19b"/><path d="m78.88 205.74h2.97v.83h1.15v-.83-.28-.76h-2.06v-1.2h-1.14v1.2h-2.06v.76.28.83h1.14z" fill="#00a19b"/><path d="m80.93 209.6h1.38v-.82l.27.21.85-.75a4.61 4.61 0 0 1 -1.85-2.05l-1 .44a7.44 7.44 0 0 0 1.42 1.87h-3.26a7.16 7.16 0 0 0 1.41-1.87l-1-.44a4.68 4.68 0 0 1 -1.55 1.86v-.84l-.81.18v-.92h.76v-1.16h-.76v-1.81h-1.16v1.81h-1.12v1.16h1.12v1.17l-1.28.29.22 1.27 1.06-.29v1.94a.23.23 0 0 1 -.23.23h-.6l.48 1.22h.36a1.15 1.15 0 0 0 1.15-1.15v-2.56l.69-.19.67.59.27-.21v.82h1.38v1.48h-2.21v1.09h5.55v-1.09h-2.21z" fill="#00a19b"/><path d="m183.94 218.07a.9.9 0 0 0 1 .85c.63 0 .88-.33.88-.61s-.31-.45-1.13-.65c-.44-.11-1.42-.35-1.42-1.33 0-.49.32-1.24 1.62-1.24.86 0 1.66.34 1.69 1.34h-.89c0-.23-.11-.65-.81-.65-.27 0-.75.09-.75.45s.27.4 1 .57 1.59.38 1.59 1.47a1.28 1.28 0 0 1 -.73 1.16 2.45 2.45 0 0 1 -1 .2 1.61 1.61 0 0 1 -1.83-1.52z" fill="#00a19b"/><path d="m189.17 215.13v2.42a2.07 2.07 0 0 0 .11 1 .86.86 0 0 0 .79.39c.86 0 .86-.54.86-1.3v-2.47h.9v2.35a2.89 2.89 0 0 1 -.25 1.58 1.68 1.68 0 0 1 -1.48.61c-1.83 0-1.83-1.13-1.83-2.15v-2.39z" fill="#00a19b"/><path d="m175.77 215.13h3.31v.76h-2.41v1h2.25v.75h-2.25v1.21h2.5v.76h-3.4z" fill="#00a19b"/><path d="m193.67 215.13h.87l1.81 3v-3h.83v4.47h-.9l-1.79-2.91v2.91h-.83z" fill="#00a19b"/><path d="m181.26 219a.58.58 0 0 0 -.58-.58.58.58 0 0 0 0 1.15.58.58 0 0 0 .58-.57z" fill="#00a19b"/><path d="m203.55 215.91a1.58 1.58 0 0 1 .53.07.39.39 0 0 1 .24.41.43.43 0 0 1 -.18.4.84.84 0 0 1 -.47.11h-1.09v-1zm.14 1.73a1.3 1.3 0 0 1 .45.08.49.49 0 0 1 .29.48.55.55 0 0 1 -.3.56 1 1 0 0 1 -.46.08h-1.09v-1.2zm.16-2.5h-2.16v4.47h2a3.24 3.24 0 0 0 .64-.06 1.2 1.2 0 0 0 .5-.22 1.38 1.38 0 0 0 .32-.36 1.31 1.31 0 0 0 .2-.71 1.15 1.15 0 0 0 -.18-.65 1 1 0 0 0 -.51-.4 1 1 0 0 0 .34-.21 1 1 0 0 0 .2-.66 1.13 1.13 0 0 0 -.2-.69 1.36 1.36 0 0 0 -1.15-.51z" fill="#00a19b"/><path d="m208.58 216.16.57 1.76h-1.15zm-2.11 3.45h1l.3-.92h1.65l.29.92h1l-1.58-4.47h-1.06z" fill="#00a19b"/><path d="m212 215.14h1l1.78 3.11v-3.11h.86v4.47h-.93l-1.82-3.17v3.17h-.89z" fill="#00a19b"/><path d="m217.62 215.14h.93v1.86l1.72-1.84h1.21l-1.83 1.84 1.93 2.63h-1.21l-1.37-2-.45.45v1.5h-.93z" fill="#00a19b"/><path d="m168.67 208a9.94 9.94 0 0 1 -12.42 13 9.95 9.95 0 0 1 -1.56-18.16 9.94 9.94 0 0 1 14 5.11z" fill="#00a19b"/><path d="m159.87 209.68a.19.19 0 0 0 -.12.07c.07-.01.1-.03.12-.07z" fill="#fff"/><path d="m167.93 212.78h.32c-.06-.2-.36-.12-.48-.31a.54.54 0 0 1 .4.09c-.06 0-.2 0-.16-.17a9.49 9.49 0 0 1 -2.48-1.36c-.64-.37-1-1.24-1.68-1.48a4.89 4.89 0 0 1 -.26-.51h-.08a4.22 4.22 0 0 1 -.25-.53.55.55 0 0 0 -.44-.18c-.21.12-.55-.08-.69 0l.12.06c0 .06-.08.12-.17.1a6.46 6.46 0 0 1 -1.15-1.24c.18-.5-.47-.62-.71-1s-.77 0-1.1.1a9.68 9.68 0 0 0 -1.72-.32c-.23.06-.37.32-.49.48-.36.51-.51 1.14-.93 1.65-.12.22-.41.12-.57.28a1.8 1.8 0 0 0 -1 .31s0 .1-.09.08a3.19 3.19 0 0 1 -.32.46c-.3.41-.85.53-1.26.77a5.7 5.7 0 0 0 -1.44 1.06c-.22.32-.53.51-.75.81.22-.06.18-.32.43-.28.06.16-.13.22-.15.32s.17-.1.25-.08-.14.18-.23.26c.09 0 .07.06.11.08s.26-.16.4-.08a3.3 3.3 0 0 1 -.34.33c.08 0 .14 0 .18-.06s.26-.23.38-.25l-.22.31.24-.18c0 .08-.14.14 0 .22.17-.08.21-.26.37-.35 0 .17-.2.29-.28.43.08-.08.32-.14.28-.3a2.71 2.71 0 0 0 .47-.49c.44-.49.75-1 1.4-1.14.36-.3.91-.3 1.25-.67.05-.08.15-.24.29-.2a.17.17 0 0 1 .2-.12v.08c.27-.32.75-.2 1-.51a1.5 1.5 0 0 0 .71-.65 1.88 1.88 0 0 1 .36-.5 2.25 2.25 0 0 1 .31-.51 1.52 1.52 0 0 1 .6 0c.23.33.65.14 1 .16 0 .19.2 0 .22.19.29.14.39.58.65.83a.8.8 0 0 0 -.4.48c-.18 0-.11.19-.15.28a.19.19 0 0 1 .19.07l-.05.06a7.45 7.45 0 0 0 -.89.53c-.08.06-.16.16-.22.2h.09s-.06 0 0 .09 0 0 0 0c.1 0 .2-.14.27-.06s0 0 0 .06c.09-.14.21 0 .27 0-.14.12-.31.27-.47.39h.16c-.06.18-.28.12-.38.28.12 0 0 .14 0 .16s.16-.12.26-.06c-.06.14-.24.16-.26.33.14-.08.22-.33.4-.25 0 .06-.12.08-.06.19s.13-.13.23-.08.08 0 .06.08.24 0 .32-.08c.27-.39.81-.33 1.2-.51v-.1c.06-.25.41-.19.61-.27.06-.24.38-.06.48-.28s.21 0 .33 0 .37-.06.51-.14c.38-.08.69.38.91.61a5.57 5.57 0 0 0 1.83 1.35c-.33-.24-.69-.4-1-.66 0-.07.08 0 .12 0 .29.22.59.38.88.58a8.09 8.09 0 0 0 2 1.07l-.09-.09s0-.06 0-.08l.13.08c0-.08.12-.08.18-.1-.1-.18-.35-.24-.53-.34a8.28 8.28 0 0 1 -1.6-.92 13.4 13.4 0 0 0 1.82.9c.09.2.25.08.41.14.01.16-.06.16-.06.1z" fill="#fff"/><path d="m159.42 210h-.1c.06.17-.14.12-.2.19v-.07l-.16.13c0 .16-.26.06-.28.23.14 0 .26-.19.44-.17 0-.19.2-.26.3-.31z" fill="#fff"/><path d="m158.78 210.1c-.1.06-.18.06-.22.16a.31.31 0 0 0 .22-.16z" fill="#fff"/><path d="m193.17 210.49h1.96v-5.71h1.41v7.6h-1.41v-.51l-5.4-.02-.01.49h-1.45v-7.63h1.45v5.78l1.99-.02v-7h1.46z" fill="#00a19b"/><path d="m180.66 210.94v-2.51h3v-1.38l-3-.02v-1.98h3.21l.01-1.42h-7.89v1.42h3.18v1.98h-2.98v1.4h2.98v2.51h-3.63v1.4h8.73v-1.4z" fill="#00a19b"/><path d="m182 208.86a.86.86 0 0 0 -.41 1.37.9.9 0 0 0 .93.27.88.88 0 0 0 .57-.6.87.87 0 0 0 -.11-.69.85.85 0 0 0 -.98-.35z" fill="#00a19b"/><path d="m202.98 209.15h1.42v.9h-1.42z" fill="#00a19b" transform="matrix(.21303039 -.97704557 .97704557 .21303039 -44.48 363.98)"/><path d="m208.07 210.19 1.24-.9-.84-.84s-.71.46-1 .66a4.18 4.18 0 0 1 -.16-.94h1.5v-4.53h-4.28v7.28l-.41.07v-.57l-1.17.21v-2.1h1.28v-1.13h-1.28v-.4h.93v-.55l.08.06.59-1.33a3.24 3.24 0 0 1 -1.51-1.62h-1.2a3.71 3.71 0 0 1 -1.6 1.88l.58 1.33.25-.23v.46h.75v.45h-1.38v1.13h1.38v2.29l-1.41.25v1.26l3.58-.69v.67l2.88-.51-.06-1.14a4.36 4.36 0 0 0 1.82 1.68l.61-1.2a6 6 0 0 1 -1.17-1zm-6.34-4.37a5.19 5.19 0 0 0 .69-.88 4.12 4.12 0 0 0 .75.88zm4.06-.93h1.77v.6h-1.77zm0 5.81v-2.53h.37a4.85 4.85 0 0 0 .58 2.37zm0-3.57v-.6h1.77v.6z" fill="#00a19b"/><path d="m201.52 210.43-.21-1.52-.94.18.22 1.52z" fill="#00a19b"/><path d="m216.06 203.57h4.98v1.33h-4.98z" fill="#00a19b"/><path d="m221.4 206.44h-5.78l-1-.7a9.84 9.84 0 0 1 -2.15 2.53l.61 1.46s.28-.24.67-.63v3.16h1.36v-4.74a7.25 7.25 0 0 0 .47-.75v1h3.09v3a.2.2 0 0 1 -.19.19h-1.58l.53 1.33h1.63a1 1 0 0 0 1-1v-3.52h1.32z" fill="#00a19b"/><path d="m215.61 204.23c-.39-.26-.77-.54-1.15-.8a8.13 8.13 0 0 1 -1.9 1.81l.63 1.31a10.25 10.25 0 0 0 2.42-2.32z" fill="#00a19b"/><path d="m315.9 207.79a9.92 9.92 0 0 1 -12.4 13 9.93 9.93 0 0 1 -1.56-18.12 9.93 9.93 0 0 1 14 5.1z" fill="#00a19b"/><path d="m315.16 212.59h.31c-.06-.2-.35-.12-.47-.31a.55.55 0 0 1 .39.09c-.06 0-.19 0-.15-.17a9.21 9.21 0 0 1 -2.48-1.36c-.63-.36-1-1.24-1.68-1.48-.11-.16-.15-.32-.25-.5h-.08a3.69 3.69 0 0 1 -.26-.53.52.52 0 0 0 -.43-.18c-.22.12-.55-.08-.69 0l.12.06c0 .06-.08.12-.18.1a7 7 0 0 1 -1.14-1.23c.18-.51-.47-.63-.71-1s-.76 0-1.1.11a8.77 8.77 0 0 0 -1.71-.33c-.24.06-.37.33-.49.49-.36.5-.51 1.13-.93 1.64-.11.22-.41.12-.57.28a1.81 1.81 0 0 0 -1 .3s0 .11-.1.08a3.46 3.46 0 0 1 -.31.47c-.3.4-.85.53-1.26.77a5.49 5.49 0 0 0 -1.44 1.05c-.22.33-.53.51-.75.81.22-.06.18-.32.43-.28.06.16-.13.22-.15.32s.17-.1.25-.08a.58.58 0 0 1 -.23.26c.1 0 .08.06.11.09s.26-.17.4-.09a3.3 3.3 0 0 1 -.34.33c.08 0 .14 0 .18-.06s.26-.23.38-.24l-.22.3.23-.18c.06.08-.13.14 0 .22.17-.08.21-.26.37-.34 0 .16-.2.28-.28.42.08-.08.32-.14.28-.3a3.11 3.11 0 0 0 .47-.49c.43-.49.75-1 1.4-1.13.35-.31.9-.31 1.24-.67.06-.08.16-.24.29-.2a.17.17 0 0 1 .2-.13v.09c.28-.33.75-.21 1-.51a1.5 1.5 0 0 0 .71-.65 1.88 1.88 0 0 1 .36-.5 1.59 1.59 0 0 1 .31-.51 1.47 1.47 0 0 1 .59 0c.24.32.65.14 1 .16 0 .19.19 0 .21.19.3.14.39.58.65.83a.79.79 0 0 0 -.39.48c-.19 0-.12.19-.16.28a.19.19 0 0 1 .2.06l-.06.07a10.26 10.26 0 0 0 -.89.52c-.08.06-.16.16-.21.2h.06s-.06 0 0 .09h.06s0 0 0 0c.1 0 .2-.15.28-.07s0 .05 0 .07c.1-.15.22 0 .27 0-.13.12-.31.26-.47.38h.16c-.06.18-.28.12-.37.28.11 0 0 .15 0 .17s.15-.12.25-.06c-.06.14-.23.16-.25.32.13-.08.21-.32.39-.24 0 .06-.12.08-.06.18s.14-.12.24-.08.08 0 .06.08.23 0 .31-.08c.28-.39.81-.33 1.2-.51v-.1c.06-.24.41-.18.61-.26.06-.25.38-.06.47-.29s.22 0 .34 0 .37-.06.51-.14c.37-.08.69.39.9.61a5.71 5.71 0 0 0 1.83 1.36c-.33-.25-.68-.41-1-.67 0-.06.08 0 .12 0 .29.22.59.38.89.58a7.87 7.87 0 0 0 2 1.07l-.1-.09s0-.06 0-.08l.14.08c0-.08.12-.08.18-.1-.1-.18-.36-.24-.53-.34a7.53 7.53 0 0 1 -1.6-.92 13.87 13.87 0 0 0 1.81.9c.1.2.26.08.42.14-.01.16-.09.16-.09.1z" fill="#fff"/><path d="m307.11 209.5a.27.27 0 0 0 -.12.06.13.13 0 0 0 .12-.06z" fill="#fff"/><path d="m301.1 210.62s0 0 0 0z" fill="#fff"/><path d="m306.67 209.79h-.1c.06.16-.14.12-.2.18v-.06l-.16.12c0 .17-.26.07-.28.23.14 0 .26-.19.44-.16 0-.17.2-.23.3-.31z" fill="#fff"/><path d="m306 209.91c-.1.06-.18.06-.22.17a.32.32 0 0 0 .22-.17z" fill="#fff"/><path d="m298.5 231.92a.25.25 0 1 0 -.5 0 .25.25 0 0 0 .5 0z" fill="#00a19b"/><path d="m295.7 230.11h1.57v.35h-1.14v.47h1.06v.36h-1.06v.57h1.17v.36h-1.6z" fill="#00a19b"/><path d="m300 231.49a.43.43 0 0 0 .46.4c.3 0 .41-.15.41-.29s-.14-.21-.53-.31c-.21 0-.67-.16-.67-.62 0-.23.15-.59.76-.59.41 0 .79.16.8.64h-.42c0-.11-.05-.3-.38-.3-.13 0-.36 0-.36.21s.14.19.47.27.75.18.75.69a.61.61 0 0 1 -.34.55 1.2 1.2 0 0 1 -.49.1.77.77 0 0 1 -.87-.72z" fill="#00a19b"/><path d="m302.8 230.11v1.14a1 1 0 0 0 .05.45.4.4 0 0 0 .37.19c.41 0 .41-.26.41-.62v-1.16h.42v1.11a1.3 1.3 0 0 1 -.12.74.78.78 0 0 1 -.7.29c-.86 0-.86-.53-.86-1v-1.12z" fill="#00a19b"/><path d="m305.08 230.11h.41l.86 1.41v-1.41h.4v2.11h-.43l-.84-1.38v1.38h-.39z" fill="#00a19b"/><path d="m310.28 230.11h1.45v.35h-1v.54h.88v.35h-.88v.9h-.43z" fill="#00a19b"/><path d="m312.87 230.11h.42v.83h.83v-.83h.43v2.11h-.43v-.93h-.83v.93h-.42z" fill="#00a19b"/><path d="m317.35 231.56a.82.82 0 0 1 -.87.68 1 1 0 0 1 -1-1.07 1 1 0 0 1 1-1.1.94.94 0 0 1 .64.24 1 1 0 0 1 .2.38l-.42.1a.43.43 0 0 0 -.44-.35c-.52 0-.52.57-.52.7a1 1 0 0 0 .11.53.45.45 0 0 0 .4.21c.28 0 .41-.22.46-.45z" fill="#00a19b"/><path d="m304.08 227.81h.91v-2.64h.65v3.58h-.65v-.3l-2.5-.01v.31h-.68v-3.62h.67v2.68h.92v-3.25h.68z" fill="#00a19b"/><path d="m297.98 228.02v-1.16h1.39v-.64l-1.39-.01v-.92h1.49v-.66h-3.65v.66h1.47v.92h-1.38v.65h1.38v1.16h-1.68v.65h4.04v-.65z" fill="#00a19b"/><path d="m298.6 227.06a.4.4 0 0 0 -.27.34.41.41 0 0 0 .08.29.43.43 0 0 0 .44.13.41.41 0 0 0 .26-.28.4.4 0 0 0 -.05-.32.41.41 0 0 0 -.46-.16z" fill="#00a19b"/><path d="m310.93 227.37-.48-.18h.62v-.54h-1.22v-.26h.59v-.34a5.42 5.42 0 0 0 1 .58l.4-.63a3.25 3.25 0 0 1 -1.85-1.39v-.05l-.8-.08a3.06 3.06 0 0 1 -1.69 1.65l.29.64a6.94 6.94 0 0 0 .85-.6v.22h.59v.26h-1.23v.54h.68l-.49.19.23.74h-.76v.55h3.73v-.55h-.81c.05-.12.34-.71.35-.75zm-1.93-1.53a5.24 5.24 0 0 0 .58-.65 4.53 4.53 0 0 0 .62.65zm-.49 2.28.56-.22-.33-.71h.48v.93zm1.34-.93h.48l-.33.71.54.22h-.69z" fill="#00a19b"/><path d="m315.39 225.63h1.41v.39h.54v-.39-.13-.36h-.98v-.57h-.54v.57h-.97v.36.13.39h.54z" fill="#00a19b"/><path d="m316.36 227.46h.64v-.39l.13.1.4-.35a2.23 2.23 0 0 1 -.88-1l-.47.21a3.34 3.34 0 0 0 .67.89h-1.55a3.34 3.34 0 0 0 .67-.89l-.47-.21a2.21 2.21 0 0 1 -.74.88v-.39l-.38.08v-.39h.36v-.55h-.36v-.86h-.56v.86h-.53v.55h.53v.55l-.6.14.1.6.5-.14v.93a.1.1 0 0 1 -.1.11h-.29l.23.57h.17a.55.55 0 0 0 .55-.54v-1.22l.33-.09.31.28.13-.1v.39h.65v.7h-1v.52h2.63v-.52h-1.05z" fill="#00a19b"/><path d="m404.37 201.56h-40.92v-10.56h40.92zm-40.83-.09h40.74v-10.42h-40.74z" fill="#00b2e1"/><path d="m374.06 244.12h-10.62v-53.12h10.62zm-10.52-.1h10.46v-53h-10.46z" fill="#00b2e1"/><path d="m404.38 244.12h-10.62v-53.12h10.62zm-10.52-.1h10.42v-53h-10.42z" fill="#00b2e1"/><path d="m404.37 244.12h-40.92v-10.61h40.92zm-40.83-.12h40.74v-10.4h-40.74z" fill="#00b2e1"/><path d="m365.45 256.11a3 3 0 0 1 .27 1.38 3.42 3.42 0 0 1 -.24 1.38 1.23 1.23 0 0 1 -1.18.78 1.18 1.18 0 0 1 -1.1-.64 2.9 2.9 0 0 1 -.3-1.43 3.51 3.51 0 0 1 .18-1.19 1.24 1.24 0 0 1 1.22-.94 1.21 1.21 0 0 1 1.15.66zm-.52 2.72a2.51 2.51 0 0 0 .24-1.32 3.34 3.34 0 0 0 -.17-1.14.66.66 0 0 0 -.67-.45.69.69 0 0 0 -.66.42 3 3 0 0 0 -.21 1.26 3.14 3.14 0 0 0 .13 1 .74.74 0 0 0 .71.58.72.72 0 0 0 .63-.35z" fill="#208ec5"/><path d="m366.47 258.92h.6v.62h-.6z" fill="#208ec5"/><path d="m368.32 258.5a.71.71 0 0 0 .41.61.93.93 0 0 0 .42.08.79.79 0 0 0 .68-.29 1.08 1.08 0 0 0 .22-.64.81.81 0 0 0 -.27-.66.88.88 0 0 0 -.62-.24 1.08 1.08 0 0 0 -.46.1 1.1 1.1 0 0 0 -.32.29h-.45l.32-2.2h2.12v.5h-1.74l-.17 1.14a1 1 0 0 1 .27-.17 1.42 1.42 0 0 1 .52-.09 1.36 1.36 0 0 1 1 .36 1.2 1.2 0 0 1 .39.92 1.55 1.55 0 0 1 -.36 1 1.37 1.37 0 0 1 -1.14.45 1.46 1.46 0 0 1 -.89-.29 1.1 1.1 0 0 1 -.42-.86z" fill="#208ec5"/><path d="m371 255.28h.93l1 1.5 1-1.5h.87l-1.44 2.06 1.5 2.18h-.91l-1.06-1.6-1 1.6h-.91l1.5-2.18z" fill="#208ec5"/><path d="m373.9 246.3h.21v7.23h-.21z" fill="#00b2e1"/><path d="m363.39 246.3h.21v7.23h-.21z" fill="#00b2e1"/><path d="m396.07 256.11a3 3 0 0 1 .27 1.38 3.42 3.42 0 0 1 -.24 1.38 1.23 1.23 0 0 1 -1.18.78 1.18 1.18 0 0 1 -1.1-.64 2.9 2.9 0 0 1 -.3-1.43 3.51 3.51 0 0 1 .18-1.19 1.24 1.24 0 0 1 1.22-.94 1.21 1.21 0 0 1 1.15.66zm-.52 2.72a2.51 2.51 0 0 0 .24-1.32 3.34 3.34 0 0 0 -.17-1.14.66.66 0 0 0 -.67-.45.69.69 0 0 0 -.66.42 3 3 0 0 0 -.21 1.26 3.14 3.14 0 0 0 .13 1 .74.74 0 0 0 .71.58.72.72 0 0 0 .63-.35z" fill="#208ec5"/><path d="m397.09 258.92h.6v.62h-.6z" fill="#208ec5"/><path d="m398.94 258.5a.71.71 0 0 0 .41.61.93.93 0 0 0 .42.08.79.79 0 0 0 .68-.29 1.08 1.08 0 0 0 .22-.64.81.81 0 0 0 -.27-.66.88.88 0 0 0 -.62-.24 1.08 1.08 0 0 0 -.46.1 1.1 1.1 0 0 0 -.32.29h-.45l.32-2.2h2.13v.5h-1.74l-.17 1.14a1 1 0 0 1 .27-.17 1.44 1.44 0 0 1 .53-.09 1.36 1.36 0 0 1 .95.36 1.2 1.2 0 0 1 .39.92 1.55 1.55 0 0 1 -.36 1 1.37 1.37 0 0 1 -1.14.45 1.46 1.46 0 0 1 -.89-.29 1.1 1.1 0 0 1 -.42-.86z" fill="#208ec5"/><path d="m401.59 255.28h.93l1 1.5 1-1.5h.87l-1.44 2.06 1.5 2.18h-.91l-1.06-1.6-1 1.6h-.91l1.5-2.18z" fill="#208ec5"/><path d="m404.22 246.3h.21v7.23h-.21z" fill="#00b2e1"/><path d="m393.7 246.3h.21v7.23h-.21z" fill="#00b2e1"/><path d="m381.93 247.47h.93l1 1.5 1-1.5h.87l-1.44 2.06 1.51 2.18h-.92l-1.06-1.6-1 1.6h-.9l1.5-2.18z" fill="#208ec5"/><path d="m409.94 237.56a3 3 0 0 1 .27 1.39 3.23 3.23 0 0 1 -.25 1.37 1.26 1.26 0 0 1 -2.27.15 3 3 0 0 1 -.3-1.44 3.51 3.51 0 0 1 .18-1.19 1.3 1.3 0 0 1 2.37-.28zm-.52 2.72a2.49 2.49 0 0 0 .24-1.31 3.36 3.36 0 0 0 -.17-1.15.66.66 0 0 0 -.67-.45.7.7 0 0 0 -.67.43 2.9 2.9 0 0 0 -.21 1.25 3.06 3.06 0 0 0 .14 1 .73.73 0 0 0 1.34.22z" fill="#208ec5"/><path d="m411 240.37h.59v.63h-.59z" fill="#208ec5"/><path d="m412.81 240a.7.7 0 0 0 .4.61 1 1 0 0 0 .43.09.79.79 0 0 0 .67-.29 1 1 0 0 0 .22-.65.82.82 0 0 0 -.26-.66.88.88 0 0 0 -.63-.24.94.94 0 0 0 -.45.11.87.87 0 0 0 -.32.28h-.45l.31-2.2h2.12v.49h-1.73l-.18 1.14a1.35 1.35 0 0 1 .27-.16 1.29 1.29 0 0 1 .53-.1 1.34 1.34 0 0 1 1 .37 1.18 1.18 0 0 1 .39.91 1.6 1.6 0 0 1 -.36 1 1.41 1.41 0 0 1 -1.15.44 1.51 1.51 0 0 1 -.88-.28 1.15 1.15 0 0 1 -.43-.87z" fill="#208ec5"/><path d="m415.45 236.73h.93l1 1.5 1-1.5h.88l-1.44 2.06 1.5 2.19h-.92l-1.06-1.61-1 1.61h-.91l1.5-2.19z" fill="#208ec5"/><path d="m409.94 194.56a2.91 2.91 0 0 1 .27 1.38 3.24 3.24 0 0 1 -.25 1.38 1.21 1.21 0 0 1 -1.17.78 1.18 1.18 0 0 1 -1.1-.64 2.9 2.9 0 0 1 -.3-1.43 3.57 3.57 0 0 1 .18-1.2 1.23 1.23 0 0 1 1.22-.93 1.21 1.21 0 0 1 1.15.66zm-.52 2.72a2.56 2.56 0 0 0 .24-1.32 3.4 3.4 0 0 0 -.17-1.15.65.65 0 0 0 -.67-.44.71.71 0 0 0 -.67.42 3.77 3.77 0 0 0 -.07 2.26.73.73 0 0 0 1.34.23z" fill="#208ec5"/><path d="m411 197.37h.59v.63h-.59z" fill="#208ec5"/><path d="m412.81 197a.73.73 0 0 0 .4.61 1.14 1.14 0 0 0 .43.08.79.79 0 0 0 .67-.29 1 1 0 0 0 .22-.64.84.84 0 0 0 -.26-.67.92.92 0 0 0 -.63-.23.93.93 0 0 0 -.45.1.89.89 0 0 0 -.32.29h-.45l.31-2.2h2.12v.5h-1.73l-.18 1.13a2.09 2.09 0 0 1 .27-.16 1.47 1.47 0 0 1 .53-.09 1.38 1.38 0 0 1 1 .36 1.2 1.2 0 0 1 .39.92 1.57 1.57 0 0 1 -.36 1 1.38 1.38 0 0 1 -1.15.44 1.44 1.44 0 0 1 -.88-.28 1.13 1.13 0 0 1 -.43-.86z" fill="#208ec5"/><path d="m415.45 193.72h.93l1 1.51 1-1.51h.88l-1.44 2.06 1.5 2.19h-.92l-1.06-1.6-1 1.6h-.91l1.5-2.19z" fill="#208ec5"/><path d="m409.7 243.97h7.23v.21h-7.23z" fill="#00b2e1"/><path d="m409.7 233.45h7.23v.21h-7.23z" fill="#00b2e1"/><path d="m409.7 201.38h7.23v.21h-7.23z" fill="#00b2e1"/><path d="m393.14 207.75a9.92 9.92 0 0 1 -12.4 13 9.92 9.92 0 0 1 -1.55-18.11 9.92 9.92 0 0 1 13.95 5.1z" fill="#00a19b"/><path d="m384.35 209.46a.24.24 0 0 0 -.11.06c.07 0 .1-.03.11-.06z" fill="#fff"/><path d="m392.4 212.55h.31c-.06-.21-.35-.12-.47-.31a.56.56 0 0 1 .39.08c-.06 0-.19 0-.15-.16a9.21 9.21 0 0 1 -2.48-1.36c-.63-.37-1-1.24-1.67-1.48a3.93 3.93 0 0 1 -.26-.5h-.08a2.54 2.54 0 0 1 -.25-.53.55.55 0 0 0 -.44-.18c-.21.12-.55-.08-.68 0l.11.06c0 .06-.08.12-.17.1a6.33 6.33 0 0 1 -1.14-1.23c.17-.51-.48-.63-.71-1s-.77 0-1.1.1a8.77 8.77 0 0 0 -1.71-.33c-.24.06-.38.33-.5.49-.35.5-.51 1.13-.92 1.64-.12.22-.41.12-.57.28a1.81 1.81 0 0 0 -1 .3s0 .11-.1.09a3.19 3.19 0 0 1 -.32.46c-.29.4-.84.53-1.26.77a5.61 5.61 0 0 0 -1.43 1.05c-.22.32-.53.51-.75.81.22-.06.18-.32.43-.28.06.16-.13.22-.15.32a.39.39 0 0 1 .25-.08c0 .12-.14.18-.23.26.09 0 .07.06.11.08s.26-.16.4-.08c-.12.12-.26.27-.34.33.08 0 .14 0 .18-.06s.25-.23.37-.25l-.21.31.23-.19c.06.09-.14.15 0 .23.18-.08.22-.27.38-.35 0 .17-.2.29-.28.43.08-.08.32-.14.28-.31a3.05 3.05 0 0 0 .47-.48c.43-.49.75-1 1.4-1.13.35-.31.9-.31 1.23-.67.06-.08.16-.24.3-.2a.17.17 0 0 1 .2-.13v.09c.27-.33.74-.21 1-.51a1.59 1.59 0 0 0 .71-.65 1.86 1.86 0 0 1 .35-.5 2 2 0 0 1 .32-.51 1.47 1.47 0 0 1 .59 0c.23.33.64.14 1 .16 0 .19.2 0 .21.19.3.14.4.58.65.83a.82.82 0 0 0 -.39.48c-.18 0-.11.19-.16.28a.19.19 0 0 1 .2.06l-.06.07a10.12 10.12 0 0 0 -.88.52c-.08.06-.16.16-.22.2h.06s0 0 0 0-.06 0-.05.09h.06c.1 0 .19-.15.27-.07s0 0 0 .07c.1-.15.22 0 .28 0l-.47.38h.15c-.06.18-.27.12-.37.28.12 0 0 .14 0 .16s.16-.12.26-.06c-.06.15-.24.17-.26.33.14-.08.22-.33.39-.25 0 .07-.11.09-.06.19s.14-.12.24-.08.08 0 .06.08.24 0 .31-.08c.28-.39.81-.33 1.2-.51v-.1c.06-.24.42-.18.61-.26.06-.25.38-.06.48-.29s.21 0 .33 0 .37-.06.51-.14c.37-.08.69.39.91.61a5.5 5.5 0 0 0 1.82 1.35c-.33-.24-.68-.4-1-.66 0-.06.08 0 .12 0 .3.22.59.38.89.58a7.53 7.53 0 0 0 2 1.06l-.1-.08s0-.06 0-.08l.14.08c0-.08.12-.08.18-.1-.1-.18-.36-.24-.53-.34a8 8 0 0 1 -1.6-.92 13.87 13.87 0 0 0 1.81.9c.1.2.26.08.41.14.04.17-.04.17-.04.11z" fill="#fff"/><path d="m383.91 209.75h-.1c.06.16-.14.12-.2.18v-.06l-.16.12c0 .17-.26.07-.28.23.14 0 .26-.19.44-.16 0-.17.2-.23.3-.31z" fill="#fff"/><path d="m383.27 209.87c-.1.06-.18.06-.22.17a.32.32 0 0 0 .22-.17z" fill="#fff"/><path d="m376.88 231.28a.43.43 0 0 0 .45.4c.29 0 .41-.15.41-.29s-.15-.21-.53-.3c-.2-.05-.65-.16-.65-.62 0-.22.14-.57.75-.57.4 0 .77.16.78.62h-.41c0-.11-.05-.3-.38-.3-.12 0-.35 0-.35.21s.13.18.46.26.74.18.74.68a.6.6 0 0 1 -.34.54 1.13 1.13 0 0 1 -.48.1.75.75 0 0 1 -.85-.71z" fill="#00a19b"/><path d="m379.31 229.92v1.08a1 1 0 0 0 .05.45.41.41 0 0 0 .37.18c.4 0 .4-.25.4-.61v-1.14h.42v1.12a1.35 1.35 0 0 1 -.12.73.77.77 0 0 1 -.69.29c-.85 0-.85-.53-.85-1v-1.11z" fill="#00a19b"/><path d="m373.1 229.92h1.53v.35h-1.12v.46h1v.35h-1v.56h1.16v.36h-1.57z" fill="#00a19b"/><path d="m381.4 229.92h.4l.84 1.38v-1.38h.36v2.08h-.42l-.83-1.35v1.35h-.38z" fill="#00a19b"/><path d="m375.68 231.78a.25.25 0 0 0 -.25-.25.25.25 0 0 0 -.25.25.26.26 0 0 0 .25.25.25.25 0 0 0 .25-.25z" fill="#00a19b"/><path d="m386 230.28a.85.85 0 0 1 .25 0 .2.2 0 0 1 .11.2.22.22 0 0 1 -.08.18.48.48 0 0 1 -.22.05h-.51v-.46zm.07.81a.58.58 0 0 1 .21 0 .24.24 0 0 1 .13.22.26.26 0 0 1 -.14.26.41.41 0 0 1 -.21 0h-.51v-.55zm.07-1.17h-1v2.08h.93a1.39 1.39 0 0 0 .3 0 .54.54 0 0 0 .23-.1.61.61 0 0 0 .15-.17.6.6 0 0 0 .09-.33.56.56 0 0 0 -.08-.3.37.37 0 0 0 -.24-.18.74.74 0 0 0 .16-.12.5.5 0 0 0 .09-.31.57.57 0 0 0 -.09-.32.68.68 0 0 0 -.56-.25z" fill="#00a19b"/><path d="m388.32 230.4.26.81h-.53zm-1 1.6h.45l.14-.43h.77l.13.43h.47l-.73-2.08h-.49z" fill="#00a19b"/><path d="m389.92 229.92h.45l.82 1.45v-1.45h.4v2.08h-.43l-.84-1.47v1.47h-.4z" fill="#00a19b"/><path d="m392.51 229.92h.43v.86l.8-.86h.56l-.85.86.9 1.22h-.56l-.64-.91-.21.21v.7h-.43z" fill="#00a19b"/><path d="m381.27 227.76h.91v-2.64h.66v3.52h-.66v-.23l-2.5-.01-.01.23h-.67v-3.54h.67v2.67h.93v-3.25h.67z" fill="#00a19b"/><path d="m375.36 227.98v-1.17h1.39v-.64l-1.39-.01v-.92h1.49l.01-.66h-3.67v.66h1.48v.92h-1.38v.65h1.38v1.17h-1.68v.65h4.05v-.65z" fill="#00a19b"/><path d="m376 227a.4.4 0 0 0 -.27.34.37.37 0 0 0 .08.29.43.43 0 0 0 .44.13.41.41 0 0 0 .26-.28.4.4 0 0 0 -.05-.32.41.41 0 0 0 -.46-.16z" fill="#00a19b"/><path d="m385.83 227.14h.66v.42h-.66z" fill="#00a19b" transform="matrix(.21303039 -.97704557 .97704557 .21303039 81.78 556.23)"/><path d="m388.19 227.62.57-.41s-.37-.39-.39-.39l-.46.3a1.76 1.76 0 0 1 -.07-.43h.69v-2.1h-2v3.41h-.19v-.27l-.55.1v-1h.6v-.53h-.6v-.2h.44v-.26l.27-.62a1.48 1.48 0 0 1 -.7-.75h-.56a1.75 1.75 0 0 1 -.74.87l.27.62.11-.11v.22h.35v.2h-.64v.53h.64v1.06l-.66.12v.58l1.66-.32v.31l1.33-.23v-.54a2 2 0 0 0 .85.78l.28-.55a2.62 2.62 0 0 1 -.5-.39zm-2.94-2a2.86 2.86 0 0 0 .32-.41 2.18 2.18 0 0 0 .34.41zm1.88-.43h.87v.27h-.82zm0 2.69v-1.17h.17a2.29 2.29 0 0 0 .27 1.1zm0-1.65v-.28h.87v.28z" fill="#00a19b"/><path d="m385.15 227.74-.1-.71-.43.08.1.71z" fill="#00a19b"/><path d="m391.85 224.55h2.31v.62h-2.31z" fill="#00a19b"/><path d="m394.33 225.89h-2.68l-.45-.33a4.75 4.75 0 0 1 -1 1.18l.28.67s.13-.11.31-.29v1.47h.63v-2.2a3.37 3.37 0 0 0 .22-.35v.46h1.44v1.38a.09.09 0 0 1 -.09.09h-.73l.24.62h.76a.47.47 0 0 0 .46-.46v-1.63h.61z" fill="#00a19b"/><path d="m391.65 224.86-.54-.37a3.89 3.89 0 0 1 -.88.84l.29.61a4.64 4.64 0 0 0 1.13-1.08z" fill="#00a19b"/><path d="m30.5 307.14a10 10 0 0 1 -12.43 13.05 9.95 9.95 0 0 1 -1.56-18.19 9.95 9.95 0 0 1 14 5.11z" fill="#009e96"/><path d="m29.75 312h.32c-.06-.2-.35-.12-.47-.3a.56.56 0 0 1 .39.08c-.06 0-.2 0-.16-.16a9.85 9.85 0 0 1 -2.48-1.37c-.63-.36-1-1.24-1.68-1.48a2.69 2.69 0 0 1 -.25-.51h-.08a3.15 3.15 0 0 1 -.26-.52.52.52 0 0 0 -.43-.19c-.22.13-.55-.08-.69 0l.11.07c0 .06-.07.12-.17.1a6.77 6.77 0 0 1 -1.15-1.24c.18-.51-.47-.63-.71-1s-.77 0-1.1.1a8.73 8.73 0 0 0 -1.72-.33c-.23.06-.37.33-.49.49-.35.51-.51 1.13-.93 1.64-.11.23-.41.12-.57.29a1.81 1.81 0 0 0 -1 .3s0 .1-.1.08a3.26 3.26 0 0 1 -.32.47c-.29.4-.85.53-1.26.77a5.66 5.66 0 0 0 -1.44 1.05c-.22.33-.53.51-.75.81.22-.06.18-.32.43-.28.06.16-.13.22-.15.33.08-.05.17-.11.25-.09a.55.55 0 0 1 -.23.27c.1 0 .08.06.11.08s.26-.16.4-.08a4.41 4.41 0 0 1 -.34.32c.08 0 .14 0 .18-.06s.26-.22.38-.24l-.22.3.24-.18c.06.08-.14.14 0 .22.17-.08.21-.26.37-.34 0 .16-.2.28-.27.43.07-.09.31-.15.27-.31a2.19 2.19 0 0 0 .47-.49c.44-.48.75-1 1.4-1.13.36-.31.91-.31 1.25-.67.06-.08.15-.24.29-.2a.17.17 0 0 1 .2-.13v.08c.28-.32.75-.2 1-.5a1.65 1.65 0 0 0 .71-.65 1.71 1.71 0 0 1 .35-.51 2.16 2.16 0 0 1 .32-.51 1.32 1.32 0 0 1 .59 0c.23.32.65.14 1 .16 0 .18.2 0 .22.18.3.14.39.59.65.83a.81.81 0 0 0 -.39.49c-.26 0 0 .32-.28.34a.21.21 0 0 1 .32 0l-.06.06c-.3.15-.59.35-.89.53-.08.06-.16.16-.22.21h.07a.07.07 0 0 0 0 .08h.06c.1 0 .2-.15.28-.06s0 0 0 .06c.1-.15.21 0 .27 0l-.47.38h.16c-.06.18-.28.12-.38.29.12 0 0 .14 0 .16s.16-.12.26-.06c-.06.14-.24.16-.26.32.14-.08.22-.32.4-.24 0 .06-.12.08-.06.18s.14-.12.23-.08.08 0 .06.08.24 0 .32-.08c.28-.39.81-.33 1.2-.51v-.1c.06-.24.42-.18.61-.26.06-.25.38-.06.48-.29s.21 0 .33 0 .38-.06.52-.14c.37-.08.68.39.9.61a5.4 5.4 0 0 0 1.84 1.36c-.34-.24-.69-.41-1-.67 0-.06.08 0 .12 0 .29.22.59.38.89.59a7.89 7.89 0 0 0 2 1.06l-.1-.08s0-.06 0-.08l.14.08c0-.08.11-.08.17-.1-.1-.18-.35-.25-.53-.35a7.36 7.36 0 0 1 -1.6-.92 12.32 12.32 0 0 0 1.82.9c.1.21.26.08.41.14-.02.12-.1.12-.1.12z" fill="#fff"/><path d="m21.24 309.15h-.1c.06.17-.14.13-.2.19v-.06l-.16.12c0 .17-.25.07-.27.23.14 0 .25-.19.43-.16 0-.18.2-.24.3-.32z" fill="#fff"/><path d="m20.61 309.27c-.1.06-.18.06-.22.17a.32.32 0 0 0 .22-.17z" fill="#fff"/><path d="m114 310.87h4.78v1.13h-3.49v1.43h3.25v1.09h-3.25v1.75h3.61v1.09h-4.9z" fill="#009e96"/><path d="m124.53 315.1a1.31 1.31 0 0 0 1.4 1.24c.91 0 1.27-.48 1.27-.89s-.45-.66-1.64-.95c-.64-.16-2.06-.51-2.06-1.94 0-.7.46-1.8 2.35-1.8 1.26 0 2.41.5 2.47 1.95l-1.31.06c-.05-.33-.15-.94-1.18-.94-.39 0-1.09.12-1.09.64s.41.6 1.44.84 2.32.55 2.32 2.14a1.9 1.9 0 0 1 -1 1.69 3.74 3.74 0 0 1 -1.53.29 2.36 2.36 0 0 1 -2.66-2.21z" fill="#009e96"/><path d="m132.11 310.87v3.49a2.75 2.75 0 0 0 .17 1.38 1.21 1.21 0 0 0 1.14.57c1.24 0 1.24-.78 1.24-1.88v-3.56h1.34v3.39a4.26 4.26 0 0 1 -.36 2.28 2.42 2.42 0 0 1 -2.14.89c-2.65 0-2.65-1.63-2.65-3.12v-3.44z" fill="#009e96"/><path d="m138.61 310.87h1.27l2.62 4.31v-4.31h1.2v6.45h-1.3l-2.58-4.21v4.21h-1.21z" fill="#009e96"/><path d="m148.9 310.87h4.43v1.13h-3.13v1.53h2.71v1.09h-2.71v2.74h-1.3z" fill="#009e96"/><path d="m155.52 310.87h1.29v2.54h2.55v-2.54h1.3v6.45h-1.3v-2.82h-2.55v2.82h-1.29z" fill="#009e96"/><path d="m168.51 315.35a2.55 2.55 0 0 1 -2.68 2.08c-1.75 0-2.94-1.27-2.94-3.28 0-1.79.91-3.39 3-3.39a2.79 2.79 0 0 1 2 .74 2.55 2.55 0 0 1 .61 1.16l-1.29.3a1.32 1.32 0 0 0 -1.36-1.08c-1.6 0-1.6 1.76-1.6 2.18a3.06 3.06 0 0 0 .34 1.62 1.44 1.44 0 0 0 1.24.63c.87 0 1.26-.66 1.43-1.36z" fill="#009e96"/><path d="m121.62 316.49a.84.84 0 1 0 -.83.84.84.84 0 0 0 .83-.84z" fill="#009e96"/><path d="m64.42 314.55h2.85v-8.29h2.04v11.22h-2.04v-.92l-7.84-.02-.01.94h-2.11v-11.32h2.1v8.39l2.89-.02v-10.17h2.12z" fill="#00a19b"/><path d="m45.53 315.22v-3.66h4.36v-2l-4.36-.02v-2.88h4.67v-2.07h-11.45v2.07h4.62v2.88h-4.33v2.02h4.33v3.66h-5.27v2.03h12.67v-2.03z" fill="#00a19b"/><path d="m47.47 312.19a1.27 1.27 0 0 0 -.86 1.06 1.23 1.23 0 0 0 .28.92 1.25 1.25 0 0 0 2.17-.46 1.34 1.34 0 0 0 -.15-1 1.27 1.27 0 0 0 -1.44-.52z" fill="#00a19b"/><path d="m86.11 313.18-1.53-.56h2v-1.71h-3.86v-.82h1.85v-1.09a14.73 14.73 0 0 0 3 1.82l1.26-2a10.23 10.23 0 0 1 -5.8-4.35l.08-.17-2.49-.24a9.57 9.57 0 0 1 -5.31 5.16l.91 2a22.83 22.83 0 0 0 2.69-1.89v.69h1.85v.82h-3.82v1.71h2.15l-1.54.58.72 2.3h-2.38v1.75h11.69v-1.68h-2.58c.17-.31 1.06-2.2 1.11-2.32zm-6.06-4.8a18 18 0 0 0 1.83-2.05 14.26 14.26 0 0 0 1.93 2.05zm-1.52 7.12 1.76-.66-1.06-2.22h1.53v2.88zm4.19-2.88h1.5l-1 2.2 1.7.68h-2.2z" fill="#00a19b"/><path d="m100.97 307.71h4.42v1.24h1.7v-1.24-.41-1.13h-3.07v-1.78h-1.69v1.78h-3.06v1.13.41 1.24h1.7z" fill="#00a19b"/><path d="m104 313.45h2v-1.21l.4.31 1.27-1.12a6.85 6.85 0 0 1 -2.76-3.05l-1.48.66a11 11 0 0 0 2.09 2.79h-4.83a10.91 10.91 0 0 0 2.1-2.79l-1.49-.66a6.88 6.88 0 0 1 -2.31 2.77v-1.25l-1.2.26v-1.35h1.21v-1.73h-1.14v-2.69h-1.73v2.69h-1.66v1.73h1.66v1.74l-1.9.42.32 1.89 1.58-.43v2.89a.34.34 0 0 1 -.34.34h-.89l.72 1.81h.53a1.71 1.71 0 0 0 1.71-1.71v-3.76l1-.28 1 .88c.14-.1.28-.2.41-.31v1.21h2v2.2h-3.22v1.62h8.26v-1.62h-3.31z" fill="#00a19b"/><path d="m238.78 331.44h-10.78v-41.31h10.78zm-10.68-.1h10.59v-41.11h-10.59z" fill="#00b2e1"/><path d="m417.67 300.91h-189.67v-10.78h189.67zm-189.57-.1h189.47v-10.58h-189.47z" fill="#00b2e1"/><path d="m417.67 331.44h-189.67v-10.79h189.67zm-189.57-.1h189.47v-10.59h-189.47z" fill="#00b2e1"/><path d="m417.66 331.44h-10.78v-41.31h10.78zm-10.68-.1h10.59v-41.11h-10.57z" fill="#00b2e1"/><path d="m230 343.79a2.9 2.9 0 0 1 .28 1.38 3.4 3.4 0 0 1 -.25 1.38 1.22 1.22 0 0 1 -1.18.78 1.16 1.16 0 0 1 -1.09-.64 2.9 2.9 0 0 1 -.3-1.43 3.57 3.57 0 0 1 .18-1.2 1.22 1.22 0 0 1 1.21-.93 1.2 1.2 0 0 1 1.15.66zm-.51 2.72a2.69 2.69 0 0 0 .23-1.32 3.4 3.4 0 0 0 -.17-1.15.63.63 0 0 0 -.66-.44.7.7 0 0 0 -.67.42 3.77 3.77 0 0 0 -.07 2.26.72.72 0 0 0 .7.58.73.73 0 0 0 .6-.35z" fill="#208ec5"/><path d="m231 346.6h.6v.62h-.6z" fill="#208ec5"/><path d="m232.83 346.18a.74.74 0 0 0 .41.61 1.08 1.08 0 0 0 .42.08.81.81 0 0 0 .68-.29 1.08 1.08 0 0 0 .22-.64.87.87 0 0 0 -.26-.67 1 1 0 0 0 -.63-.23 1 1 0 0 0 -.46.1 1.1 1.1 0 0 0 -.32.29h-.44l.31-2.2h2.12v.5h-1.74l-.17 1.13a1.28 1.28 0 0 1 .27-.16 1.44 1.44 0 0 1 .53-.09 1.36 1.36 0 0 1 .95.36 1.2 1.2 0 0 1 .39.92 1.57 1.57 0 0 1 -.36 1 1.36 1.36 0 0 1 -1.14.44 1.42 1.42 0 0 1 -.88-.28 1.1 1.1 0 0 1 -.43-.86z" fill="#208ec5"/><path d="m235.48 343h.93l1 1.51 1-1.51h.87l-1.47 2 1.51 2.19h-.92l-1.06-1.6-1 1.6h-.91l1.51-2.19z" fill="#208ec5"/><path d="m409.22 343.79a2.79 2.79 0 0 1 .28 1.38 3.24 3.24 0 0 1 -.25 1.38 1.22 1.22 0 0 1 -1.18.78 1.16 1.16 0 0 1 -1.09-.64 2.9 2.9 0 0 1 -.3-1.43 3.57 3.57 0 0 1 .18-1.2 1.23 1.23 0 0 1 1.22-.93 1.19 1.19 0 0 1 1.14.66zm-.51 2.72a2.58 2.58 0 0 0 .23-1.32 3.17 3.17 0 0 0 -.17-1.15.65.65 0 0 0 -.66-.44.7.7 0 0 0 -.67.42 3.77 3.77 0 0 0 -.07 2.26.73.73 0 0 0 1.34.23z" fill="#208ec5"/><path d="m410.25 346.6h.59v.62h-.59z" fill="#208ec5"/><path d="m412.09 346.18a.74.74 0 0 0 .41.61 1.08 1.08 0 0 0 .42.08.78.78 0 0 0 .68-.29 1 1 0 0 0 .22-.64.87.87 0 0 0 -.26-.67 1 1 0 0 0 -.63-.23.88.88 0 0 0 -.45.1 1 1 0 0 0 -.33.29h-.44l.31-2.2h2.12v.5h-1.74l-.17 1.13a1.58 1.58 0 0 1 .27-.16 1.44 1.44 0 0 1 .53-.09 1.36 1.36 0 0 1 1 .36 1.2 1.2 0 0 1 .39.92 1.55 1.55 0 0 1 -.36 1 1.36 1.36 0 0 1 -1.14.44 1.42 1.42 0 0 1 -.92-.33 1.1 1.1 0 0 1 -.43-.86z" fill="#208ec5"/><path d="m414.74 343h.93l1 1.5 1-1.5h.87l-1.46 2 1.5 2.19h-.92l-1.06-1.6-1 1.6h-.9l1.5-2.19z" fill="#208ec5"/><path d="m238.63 333.15h.21v7.23h-.21z" fill="#00b2e1"/><path d="m227.94 333.15h.21v7.23h-.21z" fill="#00b2e1"/><path d="m417.51 333.15h.21v7.23h-.21z" fill="#00b2e1"/><path d="m406.83 333.15h.21v7.23h-.21z" fill="#00b2e1"/><path d="m424.19 325.09a2.86 2.86 0 0 1 .28 1.39 3.47 3.47 0 0 1 -.25 1.38 1.22 1.22 0 0 1 -1.18.78 1.16 1.16 0 0 1 -1.04-.64 2.92 2.92 0 0 1 -.3-1.43 3.53 3.53 0 0 1 .18-1.2 1.29 1.29 0 0 1 2.36-.28zm-.51 2.73a2.69 2.69 0 0 0 .23-1.32 3.14 3.14 0 0 0 -.17-1.15.64.64 0 0 0 -.66-.45.71.71 0 0 0 -.67.43 2.92 2.92 0 0 0 -.21 1.26 3.37 3.37 0 0 0 .13 1 .74.74 0 0 0 .71.58.76.76 0 0 0 .64-.35z" fill="#208ec5"/><path d="m425.21 327.91h.6v.62h-.6z" fill="#208ec5"/><path d="m427.06 327.49a.71.71 0 0 0 .41.6.93.93 0 0 0 .42.09.81.81 0 0 0 .68-.29 1.11 1.11 0 0 0 .22-.65.87.87 0 0 0 -.26-.66 1 1 0 0 0 -.63-.23.88.88 0 0 0 -.45.1.91.91 0 0 0 -.33.29h-.44l.31-2.2h2.12v.5h-1.74l-.17 1.13a1.28 1.28 0 0 1 .27-.16 1.43 1.43 0 0 1 .53-.1 1.36 1.36 0 0 1 .95.37 1.2 1.2 0 0 1 .39.92 1.59 1.59 0 0 1 -.36 1 1.39 1.39 0 0 1 -1.14.44 1.42 1.42 0 0 1 -.88-.28 1.1 1.1 0 0 1 -.43-.86z" fill="#208ec5"/><path d="m429.71 324.26h.93l1 1.5 1-1.5h.87l-1.51 2.08 1.51 2.19h-.92l-1.06-1.6-1 1.6h-.91l1.51-2.19z" fill="#208ec5"/><path d="m424.19 293.92a2.84 2.84 0 0 1 .28 1.38 3.4 3.4 0 0 1 -.25 1.38 1.22 1.22 0 0 1 -1.18.78 1.16 1.16 0 0 1 -1.09-.64 2.9 2.9 0 0 1 -.3-1.43 3.61 3.61 0 0 1 .18-1.2 1.22 1.22 0 0 1 1.21-.93 1.2 1.2 0 0 1 1.15.66zm-.51 2.72a2.64 2.64 0 0 0 .23-1.32 3.11 3.11 0 0 0 -.17-1.14.64.64 0 0 0 -.66-.45.7.7 0 0 0 -.67.42 3 3 0 0 0 -.21 1.26 3.44 3.44 0 0 0 .13 1 .73.73 0 0 0 1.35.22z" fill="#208ec5"/><path d="m425.21 296.73h.6v.62h-.6z" fill="#208ec5"/><path d="m427.06 296.31a.73.73 0 0 0 .41.61.93.93 0 0 0 .42.08.78.78 0 0 0 .68-.29 1.08 1.08 0 0 0 .22-.64.84.84 0 0 0 -.26-.66.92.92 0 0 0 -.63-.24 1 1 0 0 0 -.45.1 1 1 0 0 0 -.33.29h-.44l.31-2.2h2.12v.5h-1.74l-.17 1.14a1 1 0 0 1 .27-.17 1.44 1.44 0 0 1 .53-.09 1.36 1.36 0 0 1 .95.36 1.2 1.2 0 0 1 .39.92 1.55 1.55 0 0 1 -.36 1 1.36 1.36 0 0 1 -1.14.44 1.42 1.42 0 0 1 -.88-.28 1.08 1.08 0 0 1 -.43-.86z" fill="#208ec5"/><path d="m429.71 293.09h.93l1 1.5 1-1.5h.87l-1.51 2.08 1.51 2.18h-.92l-1.06-1.6-1 1.6h-.91l1.51-2.18z" fill="#208ec5"/><path d="m425.65 308.53h.93l1 1.5 1-1.5h.87l-1.45 2.08 1.5 2.19h-.91l-1.06-1.6-1 1.6h-.91l1.5-2.19z" fill="#208ec5"/><path d="m423.95 331.47h7.23v.21h-7.23z" fill="#00b2e1"/><path d="m423.95 290.26h7.23v.21h-7.23z" fill="#00b2e1"/><path d="m423.95 320.78h7.23v.21h-7.23z" fill="#00b2e1"/><path d="m423.95 300.74h7.23v.21h-7.23z" fill="#00b2e1"/><path d="m257.91 307.14a9.95 9.95 0 0 1 -12.42 13.05 10 10 0 0 1 -1.57-18.19 10 10 0 0 1 14 5.11z" fill="#009e96"/><path d="m257.17 312h.31c-.06-.2-.35-.12-.47-.3a.55.55 0 0 1 .39.08s-.19 0-.15-.16a9.75 9.75 0 0 1 -2.49-1.37c-.63-.36-1-1.24-1.67-1.48a3.48 3.48 0 0 1 -.26-.51h-.08a2.47 2.47 0 0 1 -.25-.52.53.53 0 0 0 -.44-.19c-.22.13-.55-.08-.69 0l.12.07c0 .06-.08.12-.18.1a6.72 6.72 0 0 1 -1.14-1.24c.18-.51-.47-.63-.71-1s-.77 0-1.11.1a8.77 8.77 0 0 0 -1.71-.33c-.24.06-.38.33-.49.49-.36.51-.52 1.14-.93 1.64-.12.23-.41.12-.57.29a1.85 1.85 0 0 0 -1 .3s0 .1-.1.08a3.17 3.17 0 0 1 -.31.47c-.3.4-.85.53-1.26.77a5.49 5.49 0 0 0 -1.44 1.05c-.22.33-.54.51-.75.81.21-.06.17-.32.43-.28.06.16-.14.22-.16.33a.39.39 0 0 1 .26-.09c0 .13-.14.19-.24.27.1 0 .08.06.12.08s.26-.16.39-.08a3.14 3.14 0 0 1 -.33.32c.08 0 .14 0 .18-.06s.25-.22.37-.24l-.22.3.24-.18c.06.08-.14.14 0 .22.18-.08.22-.26.38-.34 0 .16-.2.28-.28.42.08-.08.32-.14.28-.3a2.74 2.74 0 0 0 .47-.49c.43-.48.75-1 1.4-1.13.35-.31.91-.31 1.24-.67.06-.08.16-.24.3-.2a.17.17 0 0 1 .2-.13v.1c.28-.32.75-.2 1-.5a1.6 1.6 0 0 0 .71-.65 1.94 1.94 0 0 1 .36-.51 1.66 1.66 0 0 1 .31-.5 1.31 1.31 0 0 1 .59 0c.24.32.65.14 1 .16 0 .18.2 0 .21.18.3.14.4.59.66.83a.82.82 0 0 0 -.4.49c-.26 0 0 .32-.27.34a.2.2 0 0 1 .31 0l-.06.06c-.29.15-.59.35-.89.53l-.21.21h.06a.06.06 0 0 0 0 .08h.06s0 0 0 0c.09 0 .19-.15.27-.06s0 0 0 .06c.1-.15.22 0 .28 0l-.48.38h.16c-.06.18-.27.12-.37.29.12 0 0 .14 0 .16s.16-.12.25-.06-.23.16-.25.32c.14-.08.21-.32.39-.24 0 .06-.12.08-.06.18s.14-.12.24-.08.08 0 .06.08.24 0 .31-.08c.28-.39.81-.33 1.21-.51v-.1c.06-.24.41-.18.61-.26.06-.25.37-.06.47-.29s.22 0 .34 0 .37-.06.51-.14c.37-.08.69.39.91.61a5.46 5.46 0 0 0 1.83 1.36c-.34-.24-.69-.41-1-.67 0-.06.08 0 .12 0 .3.22.59.38.89.59a7.89 7.89 0 0 0 2 1.06l-.1-.08s0-.06 0-.08l.14.08c0-.08.12-.08.18-.1-.1-.18-.36-.25-.53-.35a6.92 6.92 0 0 1 -1.64-.79 11.74 11.74 0 0 0 1.81.9c.1.21.26.08.42.14.02-.04-.06-.04-.06-.04z" fill="#fff"/><path d="m248.66 309.15h-.1c.06.17-.14.13-.2.19v-.06l-.16.12c0 .17-.26.07-.28.23.14 0 .26-.19.44-.16 0-.18.2-.24.3-.32z" fill="#fff"/><path d="m248 309.27c-.1.06-.18.06-.22.17a.32.32 0 0 0 .22-.17z" fill="#fff"/><path d="m342.08 310.43h5v1.14h-3.63v1.5h3.38v1.13h-3.38v1.8h3.76v1.13h-5.12z" fill="#009e96"/><path d="m353.09 314.85a1.38 1.38 0 0 0 1.47 1.29c.94 0 1.32-.5 1.32-.93s-.47-.69-1.71-1c-.67-.17-2.15-.53-2.15-2 0-.73.48-1.88 2.45-1.88 1.32 0 2.52.52 2.58 2l-1.36.06c-.06-.35-.16-1-1.24-1-.4 0-1.13.12-1.13.66s.42.63 1.5.88 2.42.58 2.42 2.23a2 2 0 0 1 -1.1 1.77 3.89 3.89 0 0 1 -1.59.3 2.46 2.46 0 0 1 -2.78-2.31z" fill="#009e96"/><path d="m361 310.43v3.64a3 3 0 0 0 .17 1.45 1.27 1.27 0 0 0 1.19.59c1.3 0 1.3-.82 1.3-2v-3.72h1.34v3.61a4.37 4.37 0 0 1 -.38 2.38 2.5 2.5 0 0 1 -2.23.93c-2.76 0-2.76-1.7-2.76-3.25v-3.6z" fill="#009e96"/><path d="m367.79 310.43h1.32l2.73 4.5v-4.5h1.26v6.73h-1.36l-2.69-4.39v4.39h-1.26z" fill="#009e96"/><path d="m350.08 316.3a.87.87 0 1 0 -.87.87.87.87 0 0 0 .87-.87z" fill="#009e96"/><path d="m381.09 311.8a2.56 2.56 0 0 1 .8.1.76.76 0 0 1 .09 1.24 1.36 1.36 0 0 1 -.71.17h-1.65v-1.51zm.21 2.63a1.93 1.93 0 0 1 .68.12.73.73 0 0 1 .44.73.86.86 0 0 1 -.45.85 1.64 1.64 0 0 1 -.69.12h-1.66v-1.82zm.24-3.8h-3.27v6.79h3.05a4.16 4.16 0 0 0 1-.1 1.8 1.8 0 0 0 .77-.34 1.88 1.88 0 0 0 .48-.53 2 2 0 0 0 .3-1.08 1.82 1.82 0 0 0 -.26-1 1.49 1.49 0 0 0 -.78-.6 1.43 1.43 0 0 0 .51-.39 1.5 1.5 0 0 0 .31-1 1.68 1.68 0 0 0 -.31-1 2 2 0 0 0 -1.8-.75z" fill="#009e96"/><path d="m388.3 312.18.85 2.67h-1.74zm-3.22 5.24h1.49l.43-1.42h2.5l.44 1.4h1.54l-2.4-6.79h-1.6z" fill="#009e96"/><path d="m392.87 310.63h1.48l2.69 4.72v-4.72h1.31v6.79h-1.41l-2.75-4.82v4.82h-1.32z" fill="#009e96"/><path d="m400.93 310.63h1.42v2.8l2.61-2.8h1.83l-2.77 2.8 2.91 4h-1.82l-2.09-3-.67.69v2.27h-1.42z" fill="#009e96"/><path d="m291.96 314.57h2.86v-8.3h2.04v11.06h-2.04v-.75l-7.85-.02-.02.71h-2.11v-11.1h2.11v8.4l2.89-.02v-10.19h2.12z" fill="#00a19b"/><path d="m272.93 315.08v-3.66h4.37v-2l-4.37-.02v-2.89h4.68l.01-2.07h-11.48v2.07h4.63v2.89h-4.33v2.02h4.33v3.66h-5.27v2.04h12.69v-2.04z" fill="#00a19b"/><path d="m274.88 312.05a1.26 1.26 0 1 0 1.44.52 1.27 1.27 0 0 0 -1.44-.52z" fill="#00a19b"/><path d="m307.12 312.56h2.06v1.32h-2.06z" fill="#00a19b" transform="matrix(.21303039 -.97704557 .97704557 .21303039 -63.51 547.59)"/><path d="m314.51 314.06 1.81-1.3s-1.18-1.21-1.22-1.22-1 .67-1.45.95a6.27 6.27 0 0 1 -.24-1.36h2.19v-6.58h-6.23v10.58l-.59.11v-.83l-1.7.3v-3h1.86v-1.71h-1.94v-.65h1.36v-.81l.12.09.85-1.93a4.69 4.69 0 0 1 -2.19-2.35h-1.75a5.38 5.38 0 0 1 -2.33 2.72l.94 1.93s.15-.12.36-.33v.67h1.1v.66h-2v1.65h2v3.35l-2.07.36.05 1.83 5.21-1v1l4.19-.73-.09-1.67a6.29 6.29 0 0 0 2.66 2.44l.89-1.74a8.46 8.46 0 0 1 -1.79-1.43zm-9.21-6.35a8.36 8.36 0 0 0 1-1.27 6.39 6.39 0 0 0 1.08 1.27zm5.9-1.35h2.57v.87h-2.57zm0 8.45v-3.68h.54a7.06 7.06 0 0 0 .84 3.45zm0-5.19v-.88h2.57v.88z" fill="#00a19b"/><path d="m305 314.42-.31-2.21-1.37.25.31 2.22z" fill="#00a19b"/><path d="m327.02 304.43h7.24v1.94h-7.24z" fill="#00a19b"/><path d="m334.8 308.6h-8.42l-1.42-1a14.46 14.46 0 0 1 -3.13 3.68l.89 2.13s.41-.36 1-.92v4.6h2v-6.91a10.26 10.26 0 0 0 .68-1.08v1.43h4.5v4.35a.28.28 0 0 1 -.28.28h-2.29l.77 1.93h2.37a1.45 1.45 0 0 0 1.45-1.45v-5.11h1.93z" fill="#00a19b"/><path d="m326.38 305.39c-.57-.37-1.12-.79-1.68-1.16a12.14 12.14 0 0 1 -2.77 2.64l.92 1.9a15.09 15.09 0 0 0 3.53-3.38z" fill="#00a19b"/></svg>