<svg viewBox="0 0 466.19 355.18" xmlns="http://www.w3.org/2000/svg"><path d="m228.05 298.02h189.56v41.21h-189.56z" fill="#00a19b"/><path d="m.64 298.02h178.56v41.21h-178.56z" fill="#00a19b"/><path d="m138.82 196.26h93.44v30.28h-93.44z" fill="#00a19b"/><path d="m.75 196.26h93.37v30.28h-93.37z" fill="#00a19b"/><path d="m178.77 91.02h135.49v41.21h-135.49z" fill="#00a19b"/><path d="m.64 91.02h125.01v41.21h-125.01z" fill="#00a19b"/><path d="m178.77.17h117.56v41.15h-117.56z" fill="#00a19b"/><path d="m.64.11h117.95v41.21h-117.95z" fill="#00a19b"/><g fill="#208ec5"><path d="m2.55 148.13a2.94 2.94 0 0 1 .27 1.38 3.24 3.24 0 0 1 -.25 1.38 1.21 1.21 0 0 1 -1.17.78 1.18 1.18 0 0 1 -1.1-.67 2.9 2.9 0 0 1 -.3-1.4 3.61 3.61 0 0 1 .18-1.2 1.23 1.23 0 0 1 1.22-.93 1.21 1.21 0 0 1 1.15.66zm-.55 2.72a2.53 2.53 0 0 0 .24-1.32 3.34 3.34 0 0 0 -.17-1.14.66.66 0 0 0 -.67-.45.72.72 0 0 0 -.67.42 3.77 3.77 0 0 0 -.07 2.26c.14.39.37.59.7.59a.73.73 0 0 0 .64-.36z"/><path d="m3.57 150.94h.6v.62h-.6z"/><path d="m5.42 150.52a.72.72 0 0 0 .4.61 1.18 1.18 0 0 0 .43.08.76.76 0 0 0 .67-.29 1 1 0 0 0 .22-.64.8.8 0 0 0 -.26-.66.88.88 0 0 0 -.63-.24 1.06 1.06 0 0 0 -.45.1.89.89 0 0 0 -.32.29h-.45l.31-2.2h2.12v.5h-1.73l-.18 1.13a2.09 2.09 0 0 1 .27-.16 1.47 1.47 0 0 1 .53-.09 1.38 1.38 0 0 1 1 .36 1.2 1.2 0 0 1 .39.92 1.55 1.55 0 0 1 -.36 1 1.38 1.38 0 0 1 -1.15.44 1.44 1.44 0 0 1 -.88-.28 1.11 1.11 0 0 1 -.43-.86z"/><path d="m8.06 147.3h.94l1 1.5 1-1.5h.88l-1.44 2.06 1.5 2.18h-.94l-1.08-1.54-1 1.6h-.92l1.5-2.18z"/><path d="m117.28 148.13a2.81 2.81 0 0 1 .28 1.38 3.4 3.4 0 0 1 -.25 1.38 1.22 1.22 0 0 1 -1.18.78 1.16 1.16 0 0 1 -1.13-.67 2.9 2.9 0 0 1 -.3-1.43 3.61 3.61 0 0 1 .18-1.2 1.23 1.23 0 0 1 1.22-.93 1.19 1.19 0 0 1 1.18.69zm-.51 2.72a2.66 2.66 0 0 0 .23-1.32 3.11 3.11 0 0 0 -.17-1.14.64.64 0 0 0 -.66-.45.7.7 0 0 0 -.67.42 3.77 3.77 0 0 0 -.07 2.26.73.73 0 0 0 1.34.23z"/><path d="m118.31 150.94h.59v.62h-.59z"/><path d="m120.15 150.52a.73.73 0 0 0 .41.61 1.08 1.08 0 0 0 .42.08.78.78 0 0 0 .68-.29 1 1 0 0 0 .22-.64.84.84 0 0 0 -.26-.66.92.92 0 0 0 -.63-.24 1 1 0 0 0 -.45.1 1 1 0 0 0 -.33.29h-.44l.31-2.2h2.12v.5h-1.74l-.17 1.13a1.28 1.28 0 0 1 .27-.16 1.44 1.44 0 0 1 .53-.09 1.36 1.36 0 0 1 1 .36 1.2 1.2 0 0 1 .39.92 1.55 1.55 0 0 1 -.36 1 1.36 1.36 0 0 1 -1.14.44 1.42 1.42 0 0 1 -.88-.28 1.08 1.08 0 0 1 -.43-.86z"/><path d="m122.8 147.3h.93l1 1.5 1-1.5h.87l-1.44 2.06 1.51 2.18h-.92l-1.06-1.6-1 1.6h-.9l1.5-2.18z"/><path d="m180.68 148.13a2.93 2.93 0 0 1 .28 1.38 3.4 3.4 0 0 1 -.25 1.38 1.22 1.22 0 0 1 -1.18.78 1.16 1.16 0 0 1 -1.09-.64 2.9 2.9 0 0 1 -.3-1.43 3.61 3.61 0 0 1 .18-1.2 1.22 1.22 0 0 1 1.21-.93 1.2 1.2 0 0 1 1.15.66zm-.51 2.72a2.66 2.66 0 0 0 .23-1.32 3.34 3.34 0 0 0 -.17-1.14.65.65 0 0 0 -.67-.45.69.69 0 0 0 -.66.42 3 3 0 0 0 -.21 1.26 3 3 0 0 0 .13 1 .73.73 0 0 0 1.35.23z"/><path d="m181.7 150.94h.6v.62h-.6z"/><path d="m183.55 150.52a.71.71 0 0 0 .41.61 1.08 1.08 0 0 0 .42.08.78.78 0 0 0 .68-.29 1.08 1.08 0 0 0 .22-.64.84.84 0 0 0 -.26-.66.92.92 0 0 0 -.63-.24 1.08 1.08 0 0 0 -.46.1 1.1 1.1 0 0 0 -.32.29h-.44l.31-2.2h2.12v.5h-1.74l-.17 1.13a1.28 1.28 0 0 1 .31-.2 1.44 1.44 0 0 1 .53-.09 1.36 1.36 0 0 1 .95.36 1.2 1.2 0 0 1 .39.92 1.55 1.55 0 0 1 -.36 1 1.37 1.37 0 0 1 -1.14.44 1.42 1.42 0 0 1 -.88-.28 1.08 1.08 0 0 1 -.43-.86z"/><path d="m186.2 147.3h.93l1 1.5 1-1.5h.87l-1.44 2.06 1.51 2.18h-.92l-1.06-1.6-1 1.6h-.91l1.5-2.18z"/><path d="m306.31 148.13a2.94 2.94 0 0 1 .27 1.38 3.24 3.24 0 0 1 -.25 1.38 1.21 1.21 0 0 1 -1.17.78 1.18 1.18 0 0 1 -1.1-.64 2.9 2.9 0 0 1 -.3-1.43 3.61 3.61 0 0 1 .18-1.2 1.23 1.23 0 0 1 1.22-.93 1.21 1.21 0 0 1 1.15.66zm-.52 2.72a2.53 2.53 0 0 0 .24-1.32 3.1 3.1 0 0 0 -.18-1.14.64.64 0 0 0 -.66-.45.71.71 0 0 0 -.67.42 3.77 3.77 0 0 0 -.07 2.26.73.73 0 0 0 1.34.23z"/><path d="m307.33 150.94h.59v.62h-.59z"/><path d="m309.17 150.52a.73.73 0 0 0 .41.61 1.08 1.08 0 0 0 .42.08.77.77 0 0 0 .68-.29 1 1 0 0 0 .22-.64.84.84 0 0 0 -.26-.66.88.88 0 0 0 -.63-.24 1 1 0 0 0 -.45.1 1 1 0 0 0 -.33.29h-.44l.31-2.2h2.12v.5h-1.73l-.18 1.13a2.09 2.09 0 0 1 .27-.16 1.44 1.44 0 0 1 .53-.09 1.34 1.34 0 0 1 .95.36 1.21 1.21 0 0 1 .4.92 1.55 1.55 0 0 1 -.36 1 1.38 1.38 0 0 1 -1.15.44 1.44 1.44 0 0 1 -.88-.28 1.08 1.08 0 0 1 -.43-.86z"/><path d="m311.82 147.3h.93l1 1.5 1-1.5h.88l-1.44 2.06 1.5 2.18h-.92l-1.06-1.6-1 1.6h-.91l1.5-2.18z"/><path d="m131.2 125.75a3 3 0 0 1 .27 1.39 3.31 3.31 0 0 1 -.25 1.38 1.21 1.21 0 0 1 -1.17.78 1.18 1.18 0 0 1 -1.1-.64 2.92 2.92 0 0 1 -.3-1.43 3.53 3.53 0 0 1 .18-1.2 1.23 1.23 0 0 1 1.22-.93 1.22 1.22 0 0 1 1.15.65zm-.52 2.73a2.56 2.56 0 0 0 .24-1.32 3.36 3.36 0 0 0 -.17-1.15.66.66 0 0 0 -.67-.45.7.7 0 0 0 -.66.43 2.92 2.92 0 0 0 -.21 1.26 3.07 3.07 0 0 0 .13 1 .73.73 0 0 0 .7.58.74.74 0 0 0 .64-.35z"/><path d="m132.22 128.57h.6v.62h-.6z"/><path d="m134.07 128.15a.7.7 0 0 0 .4.6 1 1 0 0 0 .43.09.79.79 0 0 0 .67-.29 1 1 0 0 0 .22-.65.83.83 0 0 0 -.26-.66.87.87 0 0 0 -.62-.23.9.9 0 0 0 -.78.38h-.45l.31-2.2h2.13v.5h-1.74l-.18 1.13a1.35 1.35 0 0 1 .27-.16 1.47 1.47 0 0 1 .53-.1 1.37 1.37 0 0 1 1 .37 1.2 1.2 0 0 1 .39.92 1.59 1.59 0 0 1 -.36 1 1.4 1.4 0 0 1 -1.14.44 1.45 1.45 0 0 1 -.89-.29 1.14 1.14 0 0 1 -.43-.86z"/><path d="m136.72 124.92h.92l1 1.5 1-1.5h.87l-1.46 2.08 1.5 2.19h-.91l-1.06-1.6-1 1.6h-.91l1.5-2.19z"/><path d="m131.2 94.58a2.94 2.94 0 0 1 .27 1.38 3.24 3.24 0 0 1 -.25 1.38 1.21 1.21 0 0 1 -1.17.78 1.18 1.18 0 0 1 -1.1-.64 2.9 2.9 0 0 1 -.3-1.43 3.61 3.61 0 0 1 .18-1.2 1.23 1.23 0 0 1 1.22-.93 1.21 1.21 0 0 1 1.15.66zm-.52 2.72a2.56 2.56 0 0 0 .24-1.32 3.34 3.34 0 0 0 -.17-1.14.66.66 0 0 0 -.67-.45.69.69 0 0 0 -.66.42 3 3 0 0 0 -.21 1.26 3 3 0 0 0 .13 1 .73.73 0 0 0 1.34.23z"/><path d="m132.22 97.39h.6v.61h-.6z"/><path d="m134.07 97a.72.72 0 0 0 .4.61 1.18 1.18 0 0 0 .43.08.76.76 0 0 0 .67-.29 1 1 0 0 0 .22-.64.84.84 0 0 0 -.26-.67.91.91 0 0 0 -.62-.23 1 1 0 0 0 -.46.1 1 1 0 0 0 -.32.29h-.45l.32-2.25h2.13v.5h-1.74l-.17 1.13a1.53 1.53 0 0 1 .26-.16 1.47 1.47 0 0 1 .53-.09 1.36 1.36 0 0 1 1 .36 1.2 1.2 0 0 1 .39.92 1.55 1.55 0 0 1 -.36 1 1.37 1.37 0 0 1 -1.14.44 1.45 1.45 0 0 1 -.89-.28 1.11 1.11 0 0 1 -.43-.86z"/><path d="m136.72 93.75h.92l1 1.5 1-1.5h.87l-1.44 2 1.5 2.19h-.91l-1.06-1.6-1 1.6h-.91l1.5-2.19z"/><path d="m132.65 109.19h.93l1 1.5 1-1.5h.88l-1.46 2.08 1.5 2.19h-.92l-1.06-1.61-1 1.61h-.91l1.5-2.19z"/><path d="m2.55 239.46a3 3 0 0 1 .27 1.38 3.24 3.24 0 0 1 -.25 1.38 1.21 1.21 0 0 1 -1.17.78 1.18 1.18 0 0 1 -1.1-.64 2.9 2.9 0 0 1 -.3-1.43 3.51 3.51 0 0 1 .18-1.19 1.24 1.24 0 0 1 1.22-.94 1.21 1.21 0 0 1 1.15.66zm-.55 2.72a2.51 2.51 0 0 0 .24-1.32 3.34 3.34 0 0 0 -.17-1.14.66.66 0 0 0 -.67-.45.72.72 0 0 0 -.67.42 3 3 0 0 0 -.18 1.31 3.1 3.1 0 0 0 .14 1 .74.74 0 0 0 .7.58.73.73 0 0 0 .61-.4z"/><path d="m3.57 242.27h.6v.62h-.6z"/><path d="m5.42 241.85a.72.72 0 0 0 .4.61 1 1 0 0 0 .43.08.76.76 0 0 0 .67-.29 1 1 0 0 0 .22-.64.8.8 0 0 0 -.26-.66.88.88 0 0 0 -.63-.24 1.06 1.06 0 0 0 -.45.1.89.89 0 0 0 -.32.29h-.45l.31-2.2h2.12v.5h-1.73l-.18 1.14a1.46 1.46 0 0 1 .27-.17 1.47 1.47 0 0 1 .53-.09 1.38 1.38 0 0 1 1 .36 1.2 1.2 0 0 1 .39.92 1.55 1.55 0 0 1 -.36 1 1.38 1.38 0 0 1 -1.15.45 1.45 1.45 0 0 1 -.88-.29 1.11 1.11 0 0 1 -.43-.86z"/><path d="m8.06 238.63h.94l1 1.5 1-1.5h.88l-1.44 2.06 1.5 2.18h-.94l-1.06-1.6-1 1.6h-.94l1.5-2.18z"/><path d="m85.72 239.46a2.84 2.84 0 0 1 .28 1.38 3.24 3.24 0 0 1 -.25 1.38 1.22 1.22 0 0 1 -1.18.78 1.16 1.16 0 0 1 -1.09-.64 2.9 2.9 0 0 1 -.3-1.43 3.51 3.51 0 0 1 .18-1.19 1.24 1.24 0 0 1 1.22-.94 1.19 1.19 0 0 1 1.14.66zm-.51 2.72a2.51 2.51 0 0 0 .24-1.32 3.1 3.1 0 0 0 -.18-1.14.64.64 0 0 0 -.66-.45.7.7 0 0 0 -.67.42 3 3 0 0 0 -.21 1.26 3.1 3.1 0 0 0 .14 1 .73.73 0 0 0 1.34.22z"/><path d="m86.75 242.27h.59v.62h-.59z"/><path d="m88.59 241.85a.73.73 0 0 0 .41.61.93.93 0 0 0 .42.08.77.77 0 0 0 .68-.29 1 1 0 0 0 .22-.64.84.84 0 0 0 -.26-.66.9.9 0 0 0 -.63-.24 1 1 0 0 0 -.45.1 1 1 0 0 0 -.33.29h-.44l.31-2.2h2.12v.5h-1.74l-.17 1.14a1.46 1.46 0 0 1 .27-.17 1.44 1.44 0 0 1 .53-.09 1.36 1.36 0 0 1 1 .36 1.21 1.21 0 0 1 .4.92 1.55 1.55 0 0 1 -.36 1 1.38 1.38 0 0 1 -1.15.45 1.45 1.45 0 0 1 -.88-.29 1.08 1.08 0 0 1 -.43-.86z"/><path d="m91.24 238.63h.93l1 1.5 1-1.5h.88l-1.44 2.06 1.5 2.18h-.92l-1.06-1.6-1 1.6h-.91l1.5-2.18z"/><path d="m180.68 55.92a3 3 0 0 1 .32 1.38 3.4 3.4 0 0 1 -.25 1.38 1.22 1.22 0 0 1 -1.18.78 1.17 1.17 0 0 1 -1.09-.63 3 3 0 0 1 -.3-1.44 3.51 3.51 0 0 1 .18-1.19 1.22 1.22 0 0 1 1.21-.93 1.2 1.2 0 0 1 1.11.65zm-.51 2.72a2.64 2.64 0 0 0 .23-1.32 3.34 3.34 0 0 0 -.17-1.14.65.65 0 0 0 -.67-.45.69.69 0 0 0 -.66.43 2.9 2.9 0 0 0 -.21 1.25 3.14 3.14 0 0 0 .13 1 .73.73 0 0 0 1.35.22z"/><path d="m181.7 58.73h.6v.62h-.6z"/><path d="m183.55 58.31a.71.71 0 0 0 .41.61.93.93 0 0 0 .42.08.78.78 0 0 0 .68-.29 1.08 1.08 0 0 0 .22-.64.84.84 0 0 0 -.26-.66.92.92 0 0 0 -.63-.24.94.94 0 0 0 -.78.39h-.44l.31-2.21h2.12v.5h-1.74l-.17 1.15a1 1 0 0 1 .27-.17 1.44 1.44 0 0 1 .53-.09 1.36 1.36 0 0 1 .95.36 1.2 1.2 0 0 1 .39.92 1.55 1.55 0 0 1 -.36 1 1.37 1.37 0 0 1 -1.14.45 1.43 1.43 0 0 1 -.88-.29 1.08 1.08 0 0 1 -.43-.86z"/><path d="m186.2 55.09h.93l1 1.5 1-1.5h.87l-1.44 2.06 1.44 2.2h-.92l-1.06-1.6-1 1.6h-.91l1.5-2.18z"/></g><path d="m302.92 10.6h9.84v.25h-9.84z" fill="#00b2e1"/><path d="m302.92.04h9.84v.25h-9.84z" fill="#00b2e1"/><path d="m302.92 30.51h9.84v.25h-9.84z" fill="#00b2e1"/><path d="m302.92 41.2h9.84v.25h-9.84z" fill="#00b2e1"/><path d="m287.71 55.92a3 3 0 0 1 .29 1.38 3.4 3.4 0 0 1 -.25 1.38 1.22 1.22 0 0 1 -1.18.78 1.2 1.2 0 0 1 -1.1-.63 3 3 0 0 1 -.29-1.44 3.52 3.52 0 0 1 .17-1.19 1.24 1.24 0 0 1 1.22-.93 1.2 1.2 0 0 1 1.14.65zm-.52 2.72a2.51 2.51 0 0 0 .24-1.32 3.34 3.34 0 0 0 -.17-1.14.65.65 0 0 0 -.67-.45.69.69 0 0 0 -.66.43 2.9 2.9 0 0 0 -.21 1.25 3.14 3.14 0 0 0 .13 1 .74.74 0 0 0 .71.58.72.72 0 0 0 .63-.35z" fill="#208ec5"/><path d="m288.73 58.73h.6v.62h-.6z" fill="#208ec5"/><path d="m290.58 58.31a.71.71 0 0 0 .41.61.93.93 0 0 0 .42.08.79.79 0 0 0 .68-.29 1.08 1.08 0 0 0 .22-.64.81.81 0 0 0 -.27-.66.88.88 0 0 0 -.62-.24.94.94 0 0 0 -.78.39h-.45l.32-2.21h2.12v.5h-1.74l-.17 1.15a1 1 0 0 1 .27-.17 1.44 1.44 0 0 1 .53-.09 1.36 1.36 0 0 1 1 .36 1.2 1.2 0 0 1 .39.92 1.55 1.55 0 0 1 -.36 1 1.37 1.37 0 0 1 -1.14.45 1.43 1.43 0 0 1 -.88-.29 1.08 1.08 0 0 1 -.43-.86z" fill="#208ec5"/><path d="m293.23 55.09h.93l1 1.5 1-1.5h.87l-1.44 2.06 1.5 2.18h-.91l-1.06-1.6-1 1.6h-.91l1.5-2.18z" fill="#208ec5"/><path d="m304.46 34.39a3 3 0 0 1 .28 1.39 3.39 3.39 0 0 1 -.25 1.37 1.21 1.21 0 0 1 -1.18.79 1.18 1.18 0 0 1 -1.09-.64 3 3 0 0 1 -.3-1.44 3.51 3.51 0 0 1 .18-1.19 1.29 1.29 0 0 1 2.36-.28zm-.46 2.72a2.62 2.62 0 0 0 .23-1.31 3.36 3.36 0 0 0 -.17-1.15.64.64 0 0 0 -.66-.45.69.69 0 0 0 -.67.43 2.9 2.9 0 0 0 -.21 1.25 3.06 3.06 0 0 0 .14 1 .72.72 0 0 0 .7.58.74.74 0 0 0 .64-.35z" fill="#208ec5"/><path d="m305.48 37.2h.6v.63h-.6z" fill="#208ec5"/><path d="m307.33 36.78a.71.71 0 0 0 .41.61.93.93 0 0 0 .42.09.81.81 0 0 0 .68-.29 1.11 1.11 0 0 0 .22-.65.84.84 0 0 0 -.26-.66.92.92 0 0 0 -.63-.24 1 1 0 0 0 -.46.11 1.06 1.06 0 0 0 -.32.28l-.39-.03.31-2.2h2.12v.49h-1.74l-.17 1.14a1 1 0 0 1 .27-.16 1.25 1.25 0 0 1 .53-.1 1.36 1.36 0 0 1 1 .36 1.22 1.22 0 0 1 .39.92 1.6 1.6 0 0 1 -.36 1 1.39 1.39 0 0 1 -1.14.44 1.49 1.49 0 0 1 -.88-.28 1.12 1.12 0 0 1 -.43-.87z" fill="#208ec5"/><path d="m310 33.56h.93l1 1.5 1-1.5h.87l-1.44 2.06 1.51 2.19h-.92l-1.06-1.61-1 1.61h-.91l1.51-2.19z" fill="#208ec5"/><path d="m304.46 3.72a3 3 0 0 1 .28 1.39 3.39 3.39 0 0 1 -.25 1.37 1.21 1.21 0 0 1 -1.18.79 1.18 1.18 0 0 1 -1.09-.64 3 3 0 0 1 -.3-1.44 3.51 3.51 0 0 1 .18-1.19 1.29 1.29 0 0 1 2.36-.28zm-.46 2.72a2.62 2.62 0 0 0 .23-1.31 3.36 3.36 0 0 0 -.23-1.13.64.64 0 0 0 -.66-.45.69.69 0 0 0 -.67.43 2.9 2.9 0 0 0 -.21 1.25 3.06 3.06 0 0 0 .14 1 .72.72 0 0 0 .7.58.74.74 0 0 0 .7-.37z" fill="#208ec5"/><path d="m305.48 6.53h.6v.63h-.6z" fill="#208ec5"/><path d="m307.33 6.11a.71.71 0 0 0 .41.61.93.93 0 0 0 .42.09.81.81 0 0 0 .68-.29 1.11 1.11 0 0 0 .22-.65.84.84 0 0 0 -.26-.66.92.92 0 0 0 -.63-.24 1 1 0 0 0 -.46.11 1.06 1.06 0 0 0 -.32.28h-.44l.31-2.2h2.12v.49h-1.74l-.17 1.14a1 1 0 0 1 .27-.16 1.25 1.25 0 0 1 .53-.1 1.32 1.32 0 0 1 1 .37 1.18 1.18 0 0 1 .39.91 1.6 1.6 0 0 1 -.36 1 1.39 1.39 0 0 1 -1.14.44 1.49 1.49 0 0 1 -.88-.28 1.12 1.12 0 0 1 -.43-.87z" fill="#208ec5"/><path d="m310 2.89h.93l1 1.5 1-1.5h.87l-1.49 2.11 1.51 2.19h-.92l-1.06-1.61-1 1.61h-.91l1.48-2.19z" fill="#208ec5"/><path d="m305.92 18.84h.93l1 1.5 1-1.5h.87l-1.44 2.06 1.5 2.19h-.91l-1.06-1.61-1 1.61h-.91l1.5-2.19z" fill="#208ec5"/><path d="m11.21 44.56h.21v7.23h-.21z" fill="#00b2e1"/><path d="m.53 44.56h.21v7.23h-.21z" fill="#00b2e1"/><path d="m2.55 55.92a3 3 0 0 1 .27 1.38 3.24 3.24 0 0 1 -.25 1.38 1.21 1.21 0 0 1 -1.17.78 1.19 1.19 0 0 1 -1.1-.63 3 3 0 0 1 -.3-1.44 3.51 3.51 0 0 1 .18-1.19 1.23 1.23 0 0 1 1.22-.93 1.2 1.2 0 0 1 1.15.65zm-.55 2.72a2.51 2.51 0 0 0 .24-1.32 3.1 3.1 0 0 0 -.18-1.14.64.64 0 0 0 -.66-.45.7.7 0 0 0 -.67.43 2.9 2.9 0 0 0 -.21 1.25 3.1 3.1 0 0 0 .14 1 .74.74 0 0 0 .7.58.73.73 0 0 0 .64-.35z" fill="#208ec5"/><path d="m3.57 58.73h.59v.62h-.59z" fill="#208ec5"/><path d="m5.42 58.31a.7.7 0 0 0 .4.61.94.94 0 0 0 .43.08.76.76 0 0 0 .67-.29 1 1 0 0 0 .22-.64.84.84 0 0 0 -.26-.66.88.88 0 0 0 -.63-.24.91.91 0 0 0 -.45.11.88.88 0 0 0 -.33.28h-.44l.31-2.21h2.12v.5h-1.73l-.18 1.15a1.46 1.46 0 0 1 .27-.17 1.44 1.44 0 0 1 .53-.09 1.34 1.34 0 0 1 1 .36 1.21 1.21 0 0 1 .4.92 1.55 1.55 0 0 1 -.36 1 1.38 1.38 0 0 1 -1.15.45 1.45 1.45 0 0 1 -.88-.29 1.08 1.08 0 0 1 -.43-.86z" fill="#208ec5"/><path d="m8.06 55.09h.94l1 1.5 1-1.5h.88l-1.48 2.08 1.5 2.18h-.9l-1.06-1.6-1 1.6h-.94l1.5-2.18z" fill="#208ec5"/><path d="m118.65 44.56h.21v7.23h-.21z" fill="#00b2e1"/><path d="m124.98 30.52h7.23v.21h-7.23z" fill="#00b2e1"/><path d="m124.98 10.68h7.23v.21h-7.23z" fill="#00b2e1"/><path d="m124.98 0h7.23v.21h-7.23z" fill="#00b2e1"/><path d="m124.98 41.21h7.23v.21h-7.23z" fill="#00b2e1"/><path d="m107.96 44.56h.21v7.23h-.21z" fill="#00b2e1"/><path d="m11.21 136.11h.21v7.23h-.21z" fill="#00b2e1"/><path d="m.53 136.11h.21v7.23h-.21z" fill="#00b2e1"/><path d="m125.54 136.11h.21v7.23h-.21z" fill="#00b2e1"/><path d="m114.86 136.11h.21v7.23h-.21z" fill="#00b2e1"/><path d="m11.22 229.33h.19v5.75h-.19z" fill="#00b2e1"/><path d="m.54 229.33h.19v5.75h-.19z" fill="#00b2e1"/><path d="m94.02 229.33h.19v5.75h-.19z" fill="#00b2e1"/><path d="m83.34 229.33h.19v5.75h-.19z" fill="#00b2e1"/><path d="m140.74 239.46a2.84 2.84 0 0 1 .28 1.38 3.24 3.24 0 0 1 -.25 1.38 1.22 1.22 0 0 1 -1.18.78 1.16 1.16 0 0 1 -1.09-.64 2.9 2.9 0 0 1 -.3-1.43 3.51 3.51 0 0 1 .18-1.19 1.24 1.24 0 0 1 1.22-.94 1.2 1.2 0 0 1 1.14.66zm-.51 2.72a2.64 2.64 0 0 0 .23-1.32 3.11 3.11 0 0 0 -.17-1.14.64.64 0 0 0 -.66-.45.7.7 0 0 0 -.67.42 3 3 0 0 0 -.21 1.26 3.1 3.1 0 0 0 .14 1 .73.73 0 0 0 1.34.22z" fill="#208ec5"/><path d="m141.77 242.27h.59v.62h-.59z" fill="#208ec5"/><path d="m143.61 241.85a.73.73 0 0 0 .41.61.93.93 0 0 0 .42.08.78.78 0 0 0 .68-.29 1 1 0 0 0 .22-.64.84.84 0 0 0 -.26-.66.9.9 0 0 0 -.63-.24 1 1 0 0 0 -.45.1 1 1 0 0 0 -.33.29h-.44l.31-2.2h2.12v.5h-1.74l-.17 1.14a1.19 1.19 0 0 1 .27-.17 1.44 1.44 0 0 1 .53-.09 1.36 1.36 0 0 1 .95.36 1.2 1.2 0 0 1 .39.92 1.6 1.6 0 0 1 -.35 1 1.39 1.39 0 0 1 -1.15.45 1.43 1.43 0 0 1 -.88-.29 1.08 1.08 0 0 1 -.43-.86z" fill="#208ec5"/><path d="m146.26 238.63h.93l1 1.5 1-1.5h.87l-1.43 2.06 1.5 2.18h-.92l-1.06-1.6-1 1.6h-.9l1.5-2.18z" fill="#208ec5"/><path d="m223.92 239.46a3 3 0 0 1 .28 1.38 3.4 3.4 0 0 1 -.25 1.38 1.22 1.22 0 0 1 -1.18.78 1.16 1.16 0 0 1 -1.09-.64 2.9 2.9 0 0 1 -.3-1.43 3.51 3.51 0 0 1 .18-1.19 1.23 1.23 0 0 1 1.21-.94 1.2 1.2 0 0 1 1.15.66zm-.51 2.72a2.64 2.64 0 0 0 .23-1.32 3.34 3.34 0 0 0 -.17-1.14.65.65 0 0 0 -.67-.45.69.69 0 0 0 -.66.42 3 3 0 0 0 -.21 1.26 3.14 3.14 0 0 0 .13 1 .73.73 0 0 0 1.35.22z" fill="#208ec5"/><path d="m224.94 242.27h.6v.62h-.6z" fill="#208ec5"/><path d="m226.79 241.85a.73.73 0 0 0 .41.61.93.93 0 0 0 .42.08.78.78 0 0 0 .68-.29 1.08 1.08 0 0 0 .22-.64.84.84 0 0 0 -.26-.66.92.92 0 0 0 -.63-.24 1.08 1.08 0 0 0 -.46.1 1.1 1.1 0 0 0 -.32.29h-.44l.31-2.2h2.12v.5h-1.74l-.17 1.14a1 1 0 0 1 .27-.17 1.44 1.44 0 0 1 .53-.09 1.36 1.36 0 0 1 1 .36 1.2 1.2 0 0 1 .39.92 1.55 1.55 0 0 1 -.36 1 1.37 1.37 0 0 1 -1.14.45 1.43 1.43 0 0 1 -.88-.29 1.08 1.08 0 0 1 -.43-.86z" fill="#208ec5"/><path d="m229.44 238.63h.93l1 1.5 1-1.5h.87l-1.44 2.06 1.51 2.18h-.92l-1.06-1.6-1 1.6h-.91l1.51-2.18z" fill="#208ec5"/><path d="m149.42 229.33h.19v5.75h-.19z" fill="#00b2e1"/><path d="m138.74 229.33h.19v5.75h-.19z" fill="#00b2e1"/><path d="m232.22 229.33h.19v5.75h-.19z" fill="#00b2e1"/><path d="m221.54 229.33h.19v5.75h-.19z" fill="#00b2e1"/><path d="m2.55 351.63a3 3 0 0 1 .27 1.37 3.23 3.23 0 0 1 -.25 1.37 1.21 1.21 0 0 1 -1.17.79 1.2 1.2 0 0 1 -1.1-.64 3 3 0 0 1 -.3-1.42 3.51 3.51 0 0 1 .18-1.19 1.23 1.23 0 0 1 1.22-.91 1.2 1.2 0 0 1 1.15.63zm-.55 2.72a2.49 2.49 0 0 0 .27-1.35 3.36 3.36 0 0 0 -.17-1.15.66.66 0 0 0 -.67-.45.71.71 0 0 0 -.67.43 2.9 2.9 0 0 0 -.21 1.25 3.06 3.06 0 0 0 .14 1 .73.73 0 0 0 1.34.22z" fill="#208ec5"/><path d="m3.57 354.44h.6v.62h-.6z" fill="#208ec5"/><path d="m5.42 354a.7.7 0 0 0 .4.61 1 1 0 0 0 .43.09.79.79 0 0 0 .67-.29 1 1 0 0 0 .22-.65.8.8 0 0 0 -.26-.66.88.88 0 0 0 -.63-.24.94.94 0 0 0 -.45.11.87.87 0 0 0 -.32.28h-.45l.31-2.2h2.12v.49h-1.73l-.18 1.14a1.35 1.35 0 0 1 .27-.16 1.29 1.29 0 0 1 .53-.1 1.38 1.38 0 0 1 1 .36 1.22 1.22 0 0 1 .39.92 1.6 1.6 0 0 1 -.36 1 1.41 1.41 0 0 1 -1.15.44 1.51 1.51 0 0 1 -.88-.28 1.15 1.15 0 0 1 -.43-.87z" fill="#208ec5"/><path d="m8.06 350.8h.94l1 1.5 1-1.5h.88l-1.44 2.06 1.5 2.18h-.94l-1.06-1.6-1 1.6h-.94l1.5-2.18z" fill="#208ec5"/><path d="m171 351.63a3 3 0 0 1 .27 1.39 3.4 3.4 0 0 1 -.24 1.37 1.22 1.22 0 0 1 -1.18.79 1.2 1.2 0 0 1 -1.1-.64 3 3 0 0 1 -.3-1.44 3.51 3.51 0 0 1 .18-1.19 1.23 1.23 0 0 1 1.22-.93 1.2 1.2 0 0 1 1.15.65zm-.52 2.72a2.49 2.49 0 0 0 .24-1.31 3.36 3.36 0 0 0 -.17-1.15.66.66 0 0 0 -.67-.45.69.69 0 0 0 -.66.43 2.9 2.9 0 0 0 -.21 1.25 3.09 3.09 0 0 0 .13 1 .73.73 0 0 0 1.34.22z" fill="#208ec5"/><path d="m172 354.44h.6v.62h-.6z" fill="#208ec5"/><path d="m173.89 354a.69.69 0 0 0 .41.61.93.93 0 0 0 .42.09.82.82 0 0 0 .68-.29 1.11 1.11 0 0 0 .22-.65.81.81 0 0 0 -.27-.66.88.88 0 0 0 -.62-.24 1 1 0 0 0 -.46.11 1.06 1.06 0 0 0 -.32.28h-.45l.31-2.2h2.13v.49h-1.74l-.17 1.14a1 1 0 0 1 .27-.16 1.21 1.21 0 0 1 .52-.1 1.36 1.36 0 0 1 1 .36 1.22 1.22 0 0 1 .39.92 1.6 1.6 0 0 1 -.36 1 1.4 1.4 0 0 1 -1.14.44 1.52 1.52 0 0 1 -.89-.28 1.15 1.15 0 0 1 -.43-.87z" fill="#208ec5"/><path d="m176.54 350.8h.93l1 1.5 1-1.5h.87l-1.44 2.06 1.5 2.18h-.91l-1.06-1.6-1 1.6h-.91l1.5-2.18z" fill="#208ec5"/><path d="m11.21 341h.21v7.23h-.21z" fill="#00b2e1"/><path d="m.53 341h.21v7.23h-.21z" fill="#00b2e1"/><path d="m179.3 341h.21v7.23h-.21z" fill="#00b2e1"/><path d="m168.62 341h.21v7.23h-.21z" fill="#00b2e1"/><path d="m189.35 136.11h.21v7.23h-.21z" fill="#00b2e1"/><path d="m178.66 136.11h.21v7.23h-.21z" fill="#00b2e1"/><path d="m314.15 136.11h.21v7.23h-.21z" fill="#00b2e1"/><path d="m303.47 136.11h.21v7.23h-.21z" fill="#00b2e1"/><path d="m130.96 132.12h7.23v.21h-7.23z" fill="#00b2e1"/><path d="m130.96 90.92h7.23v.21h-7.23z" fill="#00b2e1"/><path d="m130.96 121.44h7.23v.21h-7.23z" fill="#00b2e1"/><path d="m130.96 101.6h7.23v.21h-7.23z" fill="#00b2e1"/><path d="m110.46 197.69a3 3 0 0 1 .27 1.38 3.42 3.42 0 0 1 -.24 1.38 1.23 1.23 0 0 1 -1.18.78 1.18 1.18 0 0 1 -1.1-.64 2.9 2.9 0 0 1 -.3-1.43 3.51 3.51 0 0 1 .18-1.19 1.24 1.24 0 0 1 1.22-.94 1.21 1.21 0 0 1 1.15.66zm-.52 2.72a2.51 2.51 0 0 0 .24-1.32 3.34 3.34 0 0 0 -.18-1.09.66.66 0 0 0 -.67-.45.69.69 0 0 0 -.66.42 3 3 0 0 0 -.21 1.26 3.14 3.14 0 0 0 .13 1 .74.74 0 0 0 .71.58.72.72 0 0 0 .64-.4z" fill="#208ec5"/><path d="m111.48 200.5h.6v.62h-.6z" fill="#208ec5"/><path d="m113 200.2a1.75 1.75 0 0 1 .74-.71l.55-.31a3.09 3.09 0 0 0 .51-.37.78.78 0 0 0 0-1.11.77.77 0 0 0 -.57-.21.75.75 0 0 0 -.73.4 1.49 1.49 0 0 0 -.12.59h-.52a1.75 1.75 0 0 1 .2-.87 1.23 1.23 0 0 1 1.17-.59 1.29 1.29 0 0 1 1 .38 1.26 1.26 0 0 1 .33.85 1.14 1.14 0 0 1 -.35.83 3.26 3.26 0 0 1 -.72.5l-.39.21a3 3 0 0 0 -.44.3 1.06 1.06 0 0 0 -.36.55h2.23v.48h-2.8a2.35 2.35 0 0 1 .27-.92z" fill="#208ec5"/><path d="m116.58 200.08a.71.71 0 0 0 .41.61.93.93 0 0 0 .42.08.79.79 0 0 0 .68-.29 1.08 1.08 0 0 0 .22-.64.81.81 0 0 0 -.27-.66.88.88 0 0 0 -.62-.24 1.08 1.08 0 0 0 -.46.1 1.1 1.1 0 0 0 -.32.29h-.45l.32-2.2h2.12v.5h-1.74l-.17 1.14a1 1 0 0 1 .27-.17 1.44 1.44 0 0 1 .53-.09 1.36 1.36 0 0 1 1 .36 1.2 1.2 0 0 1 .39.92 1.55 1.55 0 0 1 -.36 1 1.37 1.37 0 0 1 -1.14.45 1.43 1.43 0 0 1 -.88-.29 1.08 1.08 0 0 1 -.43-.86z" fill="#208ec5"/><path d="m119.23 196.86h.93l1 1.5 1-1.5h.87l-1.44 2.06 1.5 2.18h-.91l-1.06-1.6-1 1.6h-.91l1.5-2.18z" fill="#208ec5"/><path d="m110.46 222.53a2.91 2.91 0 0 1 .27 1.38 3.42 3.42 0 0 1 -.24 1.38 1.23 1.23 0 0 1 -1.18.78 1.18 1.18 0 0 1 -1.1-.64 2.9 2.9 0 0 1 -.3-1.43 3.57 3.57 0 0 1 .18-1.2 1.23 1.23 0 0 1 1.22-.93 1.21 1.21 0 0 1 1.15.66zm-.52 2.72a2.56 2.56 0 0 0 .24-1.32 3.4 3.4 0 0 0 -.17-1.15.66.66 0 0 0 -.67-.45.7.7 0 0 0 -.66.43 3 3 0 0 0 -.21 1.26 3 3 0 0 0 .13 1 .73.73 0 0 0 1.34.23z" fill="#208ec5"/><path d="m111.48 225.34h.6v.66h-.6z" fill="#208ec5"/><path d="m113 225a1.7 1.7 0 0 1 .74-.71l.55-.32a2.64 2.64 0 0 0 .51-.36.75.75 0 0 0 .24-.55.73.73 0 0 0 -.22-.56.77.77 0 0 0 -.57-.21.75.75 0 0 0 -.73.4 1.49 1.49 0 0 0 -.12.59h-.52a1.75 1.75 0 0 1 .2-.87 1.23 1.23 0 0 1 1.17-.59 1.25 1.25 0 0 1 1 .38 1.24 1.24 0 0 1 .33.84 1.15 1.15 0 0 1 -.35.84 3 3 0 0 1 -.72.49l-.39.22a3 3 0 0 0 -.44.29 1.1 1.1 0 0 0 -.36.55h2.23v.57h-2.8a2.35 2.35 0 0 1 .25-1z" fill="#208ec5"/><path d="m116.58 224.92a.72.72 0 0 0 .41.61 1.08 1.08 0 0 0 .42.08.82.82 0 0 0 .68-.29 1.08 1.08 0 0 0 .22-.64.85.85 0 0 0 -.31-.68.91.91 0 0 0 -.62-.23 1 1 0 0 0 -.46.1 1.1 1.1 0 0 0 -.32.29h-.45l.32-2.2h2.12v.5h-1.74l-.17 1.13a1.28 1.28 0 0 1 .27-.16 1.44 1.44 0 0 1 .53-.09 1.36 1.36 0 0 1 1 .36 1.2 1.2 0 0 1 .39.92 1.59 1.59 0 0 1 -.36 1 1.4 1.4 0 0 1 -1.14.44 1.42 1.42 0 0 1 -.88-.28 1.1 1.1 0 0 1 -.43-.86z" fill="#208ec5"/><path d="m119.23 221.69h.93l1 1.5 1-1.5h.87l-1.44 2.06 1.5 2.19h-.91l-1.06-1.6-1 1.6h-.91l1.5-2.19z" fill="#208ec5"/><path d="m99.39 209.17h.93l1 1.5 1-1.5h.87l-1.44 2.06 1.5 2.19h-.91l-1.06-1.61-1 1.61h-.91l1.5-2.19z" fill="#208ec5"/><path d="m98.36 226.45h5.43v.19h-5.43z" fill="#00b2e1"/><path d="m98.36 196.38h5.43v.19h-5.43z" fill="#00b2e1"/><path d="m98.36 221.44h5.43v.19h-5.43z" fill="#00b2e1"/><path d="m98.36 201.39h5.43v.19h-5.43z" fill="#00b2e1"/><path d="m249.24 197.69a2.84 2.84 0 0 1 .28 1.38 3.4 3.4 0 0 1 -.25 1.38 1.22 1.22 0 0 1 -1.18.78 1.16 1.16 0 0 1 -1.09-.64 2.9 2.9 0 0 1 -.3-1.43 3.51 3.51 0 0 1 .18-1.19 1.24 1.24 0 0 1 1.22-.94 1.2 1.2 0 0 1 1.14.66zm-.51 2.72a2.64 2.64 0 0 0 .23-1.32 3.11 3.11 0 0 0 -.17-1.14.64.64 0 0 0 -.66-.45.7.7 0 0 0 -.67.42 3 3 0 0 0 -.21 1.26 3.1 3.1 0 0 0 .14 1 .73.73 0 0 0 1.34.22z" fill="#208ec5"/><path d="m250.27 200.5h.59v.62h-.59z" fill="#208ec5"/><path d="m251.79 200.2a1.81 1.81 0 0 1 .74-.71l.55-.31a2.85 2.85 0 0 0 .52-.37.81.81 0 0 0 0-1.11.81.81 0 0 0 -.58-.21.75.75 0 0 0 -.73.4 1.49 1.49 0 0 0 -.12.59h-.52a1.86 1.86 0 0 1 .2-.87 1.24 1.24 0 0 1 1.18-.59 1.22 1.22 0 0 1 1.35 1.23 1.14 1.14 0 0 1 -.35.83 3.4 3.4 0 0 1 -.71.5l-.39.21a2.21 2.21 0 0 0 -.44.3 1.06 1.06 0 0 0 -.36.55h2.23v.48h-2.81a2.35 2.35 0 0 1 .24-.92z" fill="#208ec5"/><path d="m255.36 200.08a.73.73 0 0 0 .41.61.93.93 0 0 0 .42.08.78.78 0 0 0 .68-.29 1 1 0 0 0 .22-.64.84.84 0 0 0 -.26-.66.9.9 0 0 0 -.63-.24 1 1 0 0 0 -.45.1 1 1 0 0 0 -.33.29h-.44l.31-2.2h2.12v.5h-1.74l-.17 1.14a1.19 1.19 0 0 1 .27-.17 1.44 1.44 0 0 1 .53-.09 1.36 1.36 0 0 1 .95.36 1.2 1.2 0 0 1 .39.92 1.6 1.6 0 0 1 -.35 1 1.38 1.38 0 0 1 -1.15.45 1.43 1.43 0 0 1 -.88-.29 1.08 1.08 0 0 1 -.43-.86z" fill="#208ec5"/><path d="m258 196.86h.93l1 1.5 1-1.5h.87l-1.43 2.06 1.5 2.18h-.92l-1.06-1.6-1 1.6h-.9l1.5-2.18z" fill="#208ec5"/><path d="m354.45 202.62h.93l1 1.51 1-1.51h.87l-1.43 2.06 1.5 2.19h-.92l-1.06-1.6-1 1.6h-.91l1.5-2.19z" fill="#208ec5"/><path d="m315.74 254.18h.93l1 1.5 1-1.5h.87l-1.44 2.06 1.5 2.18h-.91l-1.06-1.6-1 1.6h-.91l1.5-2.18z" fill="#208ec5"/><path d="m351.37 182.15a3 3 0 0 1 .28 1.39 3.47 3.47 0 0 1 -.25 1.38 1.22 1.22 0 0 1 -1.18.78 1.16 1.16 0 0 1 -1.09-.64 2.92 2.92 0 0 1 -.3-1.43 3.53 3.53 0 0 1 .18-1.2 1.29 1.29 0 0 1 2.36-.28zm-.51 2.73a2.69 2.69 0 0 0 .23-1.32 3.14 3.14 0 0 0 -.17-1.15.65.65 0 0 0 -.67-.45.69.69 0 0 0 -.66.43 2.92 2.92 0 0 0 -.21 1.26 3.07 3.07 0 0 0 .13 1 .74.74 0 0 0 .71.58.76.76 0 0 0 .64-.35z" fill="#208ec5"/><path d="m352.39 185h.6v.62h-.6z" fill="#208ec5"/><path d="m354 185.3a1.48 1.48 0 0 1 -.33-1h.54a1.39 1.39 0 0 0 .14.58.81.81 0 0 0 .73.32.93.93 0 0 0 .65-.22.71.71 0 0 0 .24-.56.64.64 0 0 0 -.26-.59 1.31 1.31 0 0 0 -.71-.17h-.22v-.45h.22a1.06 1.06 0 0 0 .47-.09.58.58 0 0 0 .33-.57.57.57 0 0 0 -.22-.47.85.85 0 0 0 -.51-.17.75.75 0 0 0 -.71.35 1.18 1.18 0 0 0 -.12.53h-.51a1.61 1.61 0 0 1 .18-.78 1.16 1.16 0 0 1 1.11-.57 1.55 1.55 0 0 1 1 .28 1 1 0 0 1 .34.81.93.93 0 0 1 -.2.61 1 1 0 0 1 -.33.23.86.86 0 0 1 .5.34 1 1 0 0 1 .19.62 1.24 1.24 0 0 1 -.39 1 1.5 1.5 0 0 1 -1.09.37 1.25 1.25 0 0 1 -1.04-.4z" fill="#208ec5"/><path d="m357.24 185.3a1.48 1.48 0 0 1 -.33-1h.54a1.39 1.39 0 0 0 .14.58.81.81 0 0 0 .73.32.93.93 0 0 0 .68-.2.71.71 0 0 0 .24-.56.66.66 0 0 0 -.25-.59 1.37 1.37 0 0 0 -.72-.17h-.27v-.45h.25a1.06 1.06 0 0 0 .47-.09.58.58 0 0 0 .33-.57.57.57 0 0 0 -.22-.47.82.82 0 0 0 -.51-.17.75.75 0 0 0 -.71.35 1.18 1.18 0 0 0 -.12.53h-.49a1.5 1.5 0 0 1 .19-.78 1.13 1.13 0 0 1 1.1-.57 1.53 1.53 0 0 1 1 .28 1 1 0 0 1 .34.81.93.93 0 0 1 -.2.61 1 1 0 0 1 -.33.23.91.91 0 0 1 .51.34 1 1 0 0 1 .18.62 1.24 1.24 0 0 1 -.39 1 1.5 1.5 0 0 1 -1.09.37 1.25 1.25 0 0 1 -1.07-.42z" fill="#208ec5"/><path d="m360.14 181.32h.93l1 1.5 1-1.5h.87l-1.44 2.06 1.51 2.19h-.92l-1.09-1.57-1 1.6h-.9l1.5-2.19z" fill="#208ec5"/><path d="m351.37 242.43a2.9 2.9 0 0 1 .28 1.38 3.4 3.4 0 0 1 -.25 1.38 1.22 1.22 0 0 1 -1.18.78 1.16 1.16 0 0 1 -1.09-.64 2.9 2.9 0 0 1 -.3-1.43 3.57 3.57 0 0 1 .18-1.2 1.22 1.22 0 0 1 1.21-.93 1.2 1.2 0 0 1 1.15.66zm-.51 2.72a2.69 2.69 0 0 0 .23-1.32 3.17 3.17 0 0 0 -.17-1.15.65.65 0 0 0 -.67-.44.69.69 0 0 0 -.66.42 3 3 0 0 0 -.21 1.26 3 3 0 0 0 .13 1 .74.74 0 0 0 1.35.23z" fill="#208ec5"/><path d="m352.39 245.24h.6v.62h-.6z" fill="#208ec5"/><path d="m354 245.57a1.44 1.44 0 0 1 -.33-1h.54a1.39 1.39 0 0 0 .14.58.79.79 0 0 0 .73.32 1 1 0 0 0 .65-.21.73.73 0 0 0 .24-.56.63.63 0 0 0 -.26-.59 1.22 1.22 0 0 0 -.71-.11h-.22v-.45h.22a1.06 1.06 0 0 0 .47-.09.57.57 0 0 0 .33-.57.57.57 0 0 0 -.22-.47.84.84 0 0 0 -.51-.16.74.74 0 0 0 -.71.34 1.18 1.18 0 0 0 -.12.53h-.51a1.54 1.54 0 0 1 .18-.77 1.16 1.16 0 0 1 1.11-.57 1.55 1.55 0 0 1 1 .27 1 1 0 0 1 .34.81.91.91 0 0 1 -.2.61.32.32 0 1 0 .17.57 1 1 0 0 1 .19.62 1.24 1.24 0 0 1 -.39.95 1.5 1.5 0 0 1 -1.13.38 1.25 1.25 0 0 1 -1-.43z" fill="#208ec5"/><path d="m357.24 245.57a1.44 1.44 0 0 1 -.33-1h.54a1.39 1.39 0 0 0 .14.58.79.79 0 0 0 .73.32 1 1 0 0 0 .65-.21.73.73 0 0 0 .24-.56.65.65 0 0 0 -.25-.59 1.28 1.28 0 0 0 -.72-.17h-.24v-.45h.25a1.06 1.06 0 0 0 .47-.09.57.57 0 0 0 .33-.57.57.57 0 0 0 -.22-.47.82.82 0 0 0 -.51-.16.74.74 0 0 0 -.71.34 1.18 1.18 0 0 0 -.12.53h-.49a1.44 1.44 0 0 1 .19-.77 1.13 1.13 0 0 1 1.1-.57 1.53 1.53 0 0 1 1 .27 1 1 0 0 1 .34.81.91.91 0 0 1 -.2.61.86.86 0 0 1 -.33.23.91.91 0 0 1 .51.34 1.05 1.05 0 0 1 .18.62 1.24 1.24 0 0 1 -.39.95 1.5 1.5 0 0 1 -1.09.37 1.25 1.25 0 0 1 -1.07-.36z" fill="#208ec5"/><path d="m360.14 241.59h.93l1 1.51 1-1.51h.87l-1.44 2.06 1.51 2.19h-.92l-1.06-1.6-1 1.6h-.9l1.5-2.19z" fill="#208ec5"/><path d="m335.28 261.79a3 3 0 0 1 .27 1.39 3.48 3.48 0 0 1 -.24 1.38 1.23 1.23 0 0 1 -1.18.78 1.18 1.18 0 0 1 -1.1-.64 2.92 2.92 0 0 1 -.3-1.43 3.53 3.53 0 0 1 .18-1.2 1.23 1.23 0 0 1 1.22-.93 1.22 1.22 0 0 1 1.15.65zm-.52 2.73a2.56 2.56 0 0 0 .24-1.32 3.36 3.36 0 0 0 -.17-1.15.66.66 0 0 0 -.67-.45.7.7 0 0 0 -.66.43 2.92 2.92 0 0 0 -.21 1.26 3.07 3.07 0 0 0 .13 1 .73.73 0 0 0 1.34.23z" fill="#208ec5"/><path d="m336.3 264.61h.6v.62h-.6z" fill="#208ec5"/><path d="m337.89 264.94a1.51 1.51 0 0 1 -.32-1h.53a1.54 1.54 0 0 0 .15.58.79.79 0 0 0 .72.32.92.92 0 0 0 .65-.22.68.68 0 0 0 .25-.55.67.67 0 0 0 -.26-.6 1.33 1.33 0 0 0 -.72-.16h-.21v-.45h.25a1.11 1.11 0 0 0 .48-.09.59.59 0 0 0 .32-.57.57.57 0 0 0 -.21-.47.85.85 0 0 0 -.51-.17.75.75 0 0 0 -.71.35 1.18 1.18 0 0 0 -.12.53h-.51a1.54 1.54 0 0 1 .18-.77 1.15 1.15 0 0 1 1.11-.58 1.5 1.5 0 0 1 1 .28 1 1 0 0 1 .35.81.89.89 0 0 1 -.21.61.85.85 0 0 1 -.32.23.89.89 0 0 1 .5.34 1 1 0 0 1 .18.62 1.23 1.23 0 0 1 -.38 1 1.5 1.5 0 0 1 -1.09.37 1.28 1.28 0 0 1 -1.1-.41z" fill="#208ec5"/><path d="m341.14 264.94a1.51 1.51 0 0 1 -.32-1h.53a1.54 1.54 0 0 0 .15.58.8.8 0 0 0 .72.32.94.94 0 0 0 .66-.22.71.71 0 0 0 .24-.55.65.65 0 0 0 -.26-.6 1.33 1.33 0 0 0 -.72-.16h-.21v-.45h.25a1.08 1.08 0 0 0 .48-.09.58.58 0 0 0 .32-.57.57.57 0 0 0 -.21-.47.85.85 0 0 0 -.51-.17.75.75 0 0 0 -.71.35 1.18 1.18 0 0 0 -.12.53h-.51a1.54 1.54 0 0 1 .18-.77 1.15 1.15 0 0 1 1.11-.58 1.55 1.55 0 0 1 1 .28 1 1 0 0 1 .34.81.93.93 0 0 1 -.2.61 1 1 0 0 1 -.33.23.86.86 0 0 1 .5.34 1 1 0 0 1 .18.62 1.23 1.23 0 0 1 -.38 1 1.5 1.5 0 0 1 -1.09.37 1.28 1.28 0 0 1 -1.09-.41z" fill="#208ec5"/><path d="m344.05 261h.95l1 1.5 1-1.5h.87l-1.49 2 1.5 2.19h-.88l-1.06-1.6-1 1.6h-.94l1.5-2.19z" fill="#208ec5"/><path d="m291.28 261.79a3 3 0 0 1 .28 1.39 3.47 3.47 0 0 1 -.25 1.38 1.22 1.22 0 0 1 -1.18.78 1.16 1.16 0 0 1 -1.09-.64 2.81 2.81 0 0 1 -.3-1.43 3.3 3.3 0 0 1 .18-1.2 1.29 1.29 0 0 1 2.36-.28zm-.52 2.73a2.56 2.56 0 0 0 .24-1.32 3.36 3.36 0 0 0 -.17-1.15.65.65 0 0 0 -.67-.45.7.7 0 0 0 -.66.43 2.92 2.92 0 0 0 -.21 1.26 3.07 3.07 0 0 0 .13 1 .73.73 0 0 0 1.34.23z" fill="#208ec5"/><path d="m292.3 264.61h.6v.62h-.6z" fill="#208ec5"/><path d="m293.89 264.94a1.51 1.51 0 0 1 -.32-1h.53a1.54 1.54 0 0 0 .15.58.8.8 0 0 0 .72.32.94.94 0 0 0 .66-.22.71.71 0 0 0 .24-.55.65.65 0 0 0 -.26-.6 1.33 1.33 0 0 0 -.72-.16h-.21v-.45h.25a1.08 1.08 0 0 0 .48-.09.58.58 0 0 0 .32-.57.57.57 0 0 0 -.21-.47.85.85 0 0 0 -.51-.17.75.75 0 0 0 -.71.35 1.18 1.18 0 0 0 -.12.53h-.51a1.54 1.54 0 0 1 .18-.77 1.15 1.15 0 0 1 1.11-.58 1.55 1.55 0 0 1 1 .28 1 1 0 0 1 .34.81.93.93 0 0 1 -.2.61 1 1 0 0 1 -.33.23.86.86 0 0 1 .5.34 1 1 0 0 1 .18.62 1.23 1.23 0 0 1 -.38 1 1.5 1.5 0 0 1 -1.09.37 1.28 1.28 0 0 1 -1.09-.41z" fill="#208ec5"/><path d="m297.15 264.94a1.46 1.46 0 0 1 -.33-1h.54a1.39 1.39 0 0 0 .14.58.81.81 0 0 0 .73.32.93.93 0 0 0 .65-.22.71.71 0 0 0 .24-.55.65.65 0 0 0 -.26-.6 1.31 1.31 0 0 0 -.71-.16h-.22v-.45h.26a1.06 1.06 0 0 0 .47-.09.58.58 0 0 0 .33-.57.57.57 0 0 0 -.22-.47.82.82 0 0 0 -.51-.17.75.75 0 0 0 -.71.35 1.18 1.18 0 0 0 -.12.53h-.51a1.54 1.54 0 0 1 .18-.77 1.15 1.15 0 0 1 1.11-.58 1.55 1.55 0 0 1 1 .28 1 1 0 0 1 .34.81.93.93 0 0 1 -.2.61 1 1 0 0 1 -.33.23.91.91 0 0 1 .51.34 1 1 0 0 1 .18.62 1.24 1.24 0 0 1 -.39 1 1.5 1.5 0 0 1 -1.09.37 1.25 1.25 0 0 1 -1.08-.41z" fill="#208ec5"/><path d="m300.05 261h.95l1 1.5 1-1.5h.87l-1.49 2 1.51 2.19h-.89l-1.06-1.6-1 1.6h-.94l1.51-2.19z" fill="#208ec5"/><path d="m249.24 222.53a2.79 2.79 0 0 1 .28 1.38 3.4 3.4 0 0 1 -.25 1.38 1.22 1.22 0 0 1 -1.18.78 1.16 1.16 0 0 1 -1.09-.64 2.9 2.9 0 0 1 -.3-1.43 3.57 3.57 0 0 1 .18-1.2 1.23 1.23 0 0 1 1.22-.93 1.2 1.2 0 0 1 1.14.66zm-.51 2.72a2.69 2.69 0 0 0 .23-1.32 3.17 3.17 0 0 0 -.17-1.15.64.64 0 0 0 -.66-.45.71.71 0 0 0 -.67.43 3 3 0 0 0 -.21 1.26 3 3 0 0 0 .14 1 .72.72 0 0 0 .7.58.74.74 0 0 0 .64-.35z" fill="#208ec5"/><path d="m250.27 225.34h.59v.66h-.59z" fill="#208ec5"/><path d="m251.79 225a1.75 1.75 0 0 1 .74-.71l.55-.32a2.47 2.47 0 0 0 .52-.36.78.78 0 0 0 .23-.55.76.76 0 0 0 -.21-.56.81.81 0 0 0 -.58-.21.75.75 0 0 0 -.73.4 1.49 1.49 0 0 0 -.12.59h-.52a1.86 1.86 0 0 1 .2-.87 1.36 1.36 0 0 1 2.53.63 1.15 1.15 0 0 1 -.35.84 3.09 3.09 0 0 1 -.71.49l-.39.22a2.23 2.23 0 0 0 -.44.29 1.1 1.1 0 0 0 -.36.55h2.23v.57h-2.81a2.35 2.35 0 0 1 .22-1z" fill="#208ec5"/><path d="m255.36 224.92a.74.74 0 0 0 .41.61 1.08 1.08 0 0 0 .42.08.81.81 0 0 0 .68-.29 1 1 0 0 0 .22-.64.87.87 0 0 0 -.26-.67.94.94 0 0 0 -.63-.23.91.91 0 0 0 -.45.1 1 1 0 0 0 -.33.29h-.44l.31-2.2h2.12v.5h-1.74l-.17 1.13a1.58 1.58 0 0 1 .27-.16 1.44 1.44 0 0 1 .53-.09 1.36 1.36 0 0 1 .95.36 1.2 1.2 0 0 1 .39.92 1.64 1.64 0 0 1 -.35 1 1.41 1.41 0 0 1 -1.15.44 1.42 1.42 0 0 1 -.88-.28 1.1 1.1 0 0 1 -.43-.86z" fill="#208ec5"/><path d="m258 221.69h.93l1 1.5 1-1.5h.87l-1.43 2.06 1.5 2.19h-.92l-1.06-1.6-1 1.6h-.9l1.5-2.19z" fill="#208ec5"/><path d="m238.17 209.17h.93l1 1.5 1-1.5h.87l-1.44 2.06 1.51 2.19h-.92l-1.12-1.59-1 1.61h-.9l1.5-2.19z" fill="#208ec5"/><path d="m237.15 226.45h5.43v.19h-5.43z" fill="#00b2e1"/><path d="m237.15 196.38h5.43v.19h-5.43z" fill="#00b2e1"/><path d="m237.15 221.44h5.43v.19h-5.43z" fill="#00b2e1"/><path d="m353.66 220.72h5.43v.19h-5.43z" fill="#00b2e1"/><path d="m353.66 238.39h5.43v.19h-5.43z" fill="#00b2e1"/><path d="m353.66 249.26h5.43v.19h-5.43z" fill="#00b2e1"/><path d="m301.88 253.02h.19v5.43h-.19z" fill="#00b2e1"/><path d="m290.44 253.02h.19v5.43h-.19z" fill="#00b2e1"/><path d="m334.14 253.02h.19v5.43h-.19z" fill="#00b2e1"/><path d="m344.28 253.02h.19v5.43h-.19z" fill="#00b2e1"/><path d="m418.85 254.18h.92l1 1.5 1-1.5h.87l-1.44 2.06 1.5 2.18h-.91l-1.06-1.6-1 1.6h-.91l1.5-2.18z" fill="#208ec5"/><path d="m438.39 261.79a3 3 0 0 1 .27 1.39 3.31 3.31 0 0 1 -.25 1.38 1.21 1.21 0 0 1 -1.17.78 1.18 1.18 0 0 1 -1.1-.64 2.92 2.92 0 0 1 -.3-1.43 3.53 3.53 0 0 1 .18-1.2 1.23 1.23 0 0 1 1.22-.93 1.22 1.22 0 0 1 1.15.65zm-.52 2.73a2.56 2.56 0 0 0 .24-1.32 3.36 3.36 0 0 0 -.17-1.15.66.66 0 0 0 -.67-.45.7.7 0 0 0 -.66.43 2.92 2.92 0 0 0 -.21 1.26 3.07 3.07 0 0 0 .13 1 .73.73 0 0 0 .7.58.74.74 0 0 0 .64-.35z" fill="#208ec5"/><path d="m439.41 264.61h.6v.62h-.6z" fill="#208ec5"/><path d="m441 264.94a1.46 1.46 0 0 1 -.33-1h.54a1.24 1.24 0 0 0 .15.58.78.78 0 0 0 .72.32.92.92 0 0 0 .65-.22.68.68 0 0 0 .25-.55.67.67 0 0 0 -.26-.6 1.33 1.33 0 0 0 -.72-.16h-.21v-.45h.21a1.14 1.14 0 0 0 .48-.09.59.59 0 0 0 .32-.57.55.55 0 0 0 -.22-.47.8.8 0 0 0 -.5-.17.75.75 0 0 0 -.71.35 1.06 1.06 0 0 0 -.12.53h-.51a1.54 1.54 0 0 1 .18-.77 1.14 1.14 0 0 1 1.1-.58 1.53 1.53 0 0 1 1 .28 1 1 0 0 1 .35.81.89.89 0 0 1 -.21.61.85.85 0 0 1 -.32.23.89.89 0 0 1 .5.34 1 1 0 0 1 .18.62 1.27 1.27 0 0 1 -.38 1 1.51 1.51 0 0 1 -1.1.37 1.27 1.27 0 0 1 -1.04-.41z" fill="#208ec5"/><path d="m444.25 264.94a1.51 1.51 0 0 1 -.32-1h.53a1.37 1.37 0 0 0 .15.58.78.78 0 0 0 .72.32.92.92 0 0 0 .65-.22.68.68 0 0 0 .25-.55.67.67 0 0 0 -.26-.6 1.33 1.33 0 0 0 -.72-.16h-.25v-.45h.25a1.14 1.14 0 0 0 .48-.09.59.59 0 0 0 .32-.57.57.57 0 0 0 -.21-.47.85.85 0 0 0 -.51-.17.75.75 0 0 0 -.71.35 1.06 1.06 0 0 0 -.12.53h-.5a1.54 1.54 0 0 1 .18-.77 1.15 1.15 0 0 1 1.11-.58 1.52 1.52 0 0 1 1 .28 1 1 0 0 1 .34.81.88.88 0 0 1 -.2.61.85.85 0 0 1 -.32.23.89.89 0 0 1 .5.34 1 1 0 0 1 .18.62 1.27 1.27 0 0 1 -.38 1 1.51 1.51 0 0 1 -1.1.37 1.27 1.27 0 0 1 -1.06-.41z" fill="#208ec5"/><path d="m447.16 261h.93l1 1.5 1-1.5h.87l-1.47 2 1.5 2.19h-.91l-1.06-1.6-1 1.6h-.91l1.5-2.19z" fill="#208ec5"/><path d="m394.39 261.79a3 3 0 0 1 .27 1.39 3.48 3.48 0 0 1 -.24 1.38 1.23 1.23 0 0 1 -1.18.78 1.18 1.18 0 0 1 -1.1-.64 2.92 2.92 0 0 1 -.3-1.43 3.53 3.53 0 0 1 .18-1.2 1.23 1.23 0 0 1 1.22-.93 1.22 1.22 0 0 1 1.15.65zm-.52 2.73a2.56 2.56 0 0 0 .24-1.32 3.36 3.36 0 0 0 -.17-1.15.66.66 0 0 0 -.67-.45.7.7 0 0 0 -.66.43 2.92 2.92 0 0 0 -.21 1.26 3.07 3.07 0 0 0 .13 1 .73.73 0 0 0 .7.58.74.74 0 0 0 .64-.35z" fill="#208ec5"/><path d="m395.41 264.61h.6v.62h-.6z" fill="#208ec5"/><path d="m397 264.94a1.51 1.51 0 0 1 -.32-1h.53a1.37 1.37 0 0 0 .15.58.78.78 0 0 0 .72.32.92.92 0 0 0 .65-.22.68.68 0 0 0 .25-.55.67.67 0 0 0 -.26-.6 1.33 1.33 0 0 0 -.72-.16h-.21v-.45h.21a1.14 1.14 0 0 0 .48-.09.59.59 0 0 0 .32-.57.55.55 0 0 0 -.22-.47.8.8 0 0 0 -.5-.17.75.75 0 0 0 -.71.35 1.06 1.06 0 0 0 -.12.53h-.51a1.54 1.54 0 0 1 .18-.77 1.15 1.15 0 0 1 1.11-.58 1.52 1.52 0 0 1 1 .28 1 1 0 0 1 .35.81.89.89 0 0 1 -.21.61.85.85 0 0 1 -.32.23.89.89 0 0 1 .5.34 1 1 0 0 1 .18.62 1.27 1.27 0 0 1 -.38 1 1.51 1.51 0 0 1 -1.1.37 1.27 1.27 0 0 1 -1.05-.41z" fill="#208ec5"/><path d="m400.25 264.94a1.51 1.51 0 0 1 -.32-1h.53a1.54 1.54 0 0 0 .15.58.79.79 0 0 0 .72.32.92.92 0 0 0 .65-.22.68.68 0 0 0 .25-.55.67.67 0 0 0 -.26-.6 1.33 1.33 0 0 0 -.72-.16h-.25v-.45h.25a1.11 1.11 0 0 0 .48-.09.59.59 0 0 0 .32-.57.57.57 0 0 0 -.21-.47.85.85 0 0 0 -.51-.17.75.75 0 0 0 -.71.35 1.18 1.18 0 0 0 -.12.53h-.5a1.54 1.54 0 0 1 .18-.77 1.15 1.15 0 0 1 1.11-.58 1.55 1.55 0 0 1 1 .28 1 1 0 0 1 .34.81.89.89 0 0 1 -.21.61.85.85 0 0 1 -.32.23.89.89 0 0 1 .5.34 1 1 0 0 1 .18.62 1.23 1.23 0 0 1 -.38 1 1.51 1.51 0 0 1 -1.1.37 1.27 1.27 0 0 1 -1.05-.41z" fill="#208ec5"/><path d="m403.16 261h.93l1 1.5 1-1.5h.87l-1.47 2 1.5 2.19h-.91l-1.06-1.6-1 1.6h-.91l1.5-2.19z" fill="#208ec5"/><path d="m404.99 253.02h.19v5.43h-.19z" fill="#00b2e1"/><path d="m393.55 253.02h.19v5.43h-.19z" fill="#00b2e1"/><path d="m437.25 253.02h.19v5.43h-.19z" fill="#00b2e1"/><path d="m447.39 253.02h.19v5.43h-.19z" fill="#00b2e1"/><path d="m237.15 201.39h5.43v.19h-5.43z" fill="#00b2e1"/><path d="m353.66 188.41h5.43v.19h-5.43z" fill="#00b2e1"/><path d="m353.66 177.73h5.43v.19h-5.43z" fill="#00b2e1"/><path d="m456.67 202.62h.93l1 1.51 1-1.51h.87l-1.47 2.08 1.51 2.19h-.92l-1.06-1.6-1 1.6h-.91l1.51-2.19z" fill="#208ec5"/><path d="m453.59 182.15a3 3 0 0 1 .27 1.39 3.48 3.48 0 0 1 -.24 1.38 1.23 1.23 0 0 1 -1.18.78 1.18 1.18 0 0 1 -1.1-.64 2.92 2.92 0 0 1 -.3-1.43 3.53 3.53 0 0 1 .18-1.2 1.23 1.23 0 0 1 1.22-.93 1.22 1.22 0 0 1 1.15.65zm-.52 2.73a2.56 2.56 0 0 0 .24-1.32 3.36 3.36 0 0 0 -.17-1.15.66.66 0 0 0 -.67-.45.69.69 0 0 0 -.66.43 2.92 2.92 0 0 0 -.21 1.26 3.07 3.07 0 0 0 .13 1 .73.73 0 0 0 1.34.23z" fill="#208ec5"/><path d="m454.61 185h.6v.62h-.6z" fill="#208ec5"/><path d="m456.2 185.3a1.53 1.53 0 0 1 -.32-1h.53a1.54 1.54 0 0 0 .15.58.79.79 0 0 0 .72.32.92.92 0 0 0 .65-.22.69.69 0 0 0 .25-.56.67.67 0 0 0 -.26-.59 1.32 1.32 0 0 0 -.72-.17h-.2v-.45h.25a1.11 1.11 0 0 0 .48-.09.59.59 0 0 0 .32-.57.57.57 0 0 0 -.21-.47.85.85 0 0 0 -.51-.17.75.75 0 0 0 -.71.35 1.18 1.18 0 0 0 -.12.53h-.5a1.61 1.61 0 0 1 .18-.78 1.16 1.16 0 0 1 1.11-.57 1.5 1.5 0 0 1 1 .28 1 1 0 0 1 .35.81.89.89 0 0 1 -.21.61.85.85 0 0 1 -.32.23.89.89 0 0 1 .5.34 1 1 0 0 1 .18.62 1.23 1.23 0 0 1 -.38 1 1.51 1.51 0 0 1 -1.1.37 1.27 1.27 0 0 1 -1.11-.4z" fill="#208ec5"/><path d="m459.45 185.3a1.53 1.53 0 0 1 -.32-1h.53a1.54 1.54 0 0 0 .15.58.8.8 0 0 0 .72.32 1 1 0 0 0 .66-.22.71.71 0 0 0 .24-.56.67.67 0 0 0 -.26-.59 1.32 1.32 0 0 0 -.72-.17h-.21v-.45h.25a1.11 1.11 0 0 0 .48-.09.58.58 0 0 0 .32-.57.57.57 0 0 0 -.21-.47.85.85 0 0 0 -.51-.17.75.75 0 0 0 -.71.35 1.18 1.18 0 0 0 -.12.53h-.51a1.61 1.61 0 0 1 .18-.78 1.16 1.16 0 0 1 1.11-.57 1.55 1.55 0 0 1 1 .28 1 1 0 0 1 .34.81.89.89 0 0 1 -.21.61.85.85 0 0 1 -.32.23.89.89 0 0 1 .5.34 1 1 0 0 1 .18.62 1.23 1.23 0 0 1 -.38 1 1.5 1.5 0 0 1 -1.09.37 1.28 1.28 0 0 1 -1.09-.4z" fill="#208ec5"/><path d="m462.36 181.32h.93l1 1.5 1-1.5h.87l-1.44 2.06 1.5 2.19h-.91l-1.06-1.6-1 1.6h-.91l1.5-2.19z" fill="#208ec5"/><path d="m453.59 242.43a2.91 2.91 0 0 1 .27 1.38 3.42 3.42 0 0 1 -.24 1.38 1.23 1.23 0 0 1 -1.18.78 1.18 1.18 0 0 1 -1.1-.64 2.9 2.9 0 0 1 -.3-1.43 3.57 3.57 0 0 1 .18-1.2 1.23 1.23 0 0 1 1.22-.93 1.21 1.21 0 0 1 1.15.66zm-.52 2.72a2.56 2.56 0 0 0 .24-1.32 3.4 3.4 0 0 0 -.17-1.15.65.65 0 0 0 -.67-.44.69.69 0 0 0 -.66.42 3 3 0 0 0 -.21 1.26 3 3 0 0 0 .13 1 .73.73 0 0 0 .71.58.71.71 0 0 0 .63-.35z" fill="#208ec5"/><path d="m454.61 245.24h.6v.62h-.6z" fill="#208ec5"/><path d="m456.2 245.57a1.49 1.49 0 0 1 -.32-1h.53a1.54 1.54 0 0 0 .15.58.77.77 0 0 0 .72.32 1 1 0 0 0 .65-.21.7.7 0 0 0 .25-.56.65.65 0 0 0 -.26-.59 1.24 1.24 0 0 0 -.72-.17h-.2v-.45h.25a1.11 1.11 0 0 0 .48-.09.57.57 0 0 0 .32-.57.57.57 0 0 0 -.21-.47.84.84 0 0 0 -.51-.16.74.74 0 0 0 -.71.34 1.18 1.18 0 0 0 -.12.53h-.5a1.54 1.54 0 0 1 .18-.77 1.16 1.16 0 0 1 1.11-.57 1.5 1.5 0 0 1 1 .27 1 1 0 0 1 .35.81.87.87 0 0 1 -.21.61.75.75 0 0 1 -.32.23.89.89 0 0 1 .5.34 1.05 1.05 0 0 1 .18.62 1.23 1.23 0 0 1 -.38.95 1.51 1.51 0 0 1 -1.1.37 1.27 1.27 0 0 1 -1.11-.36z" fill="#208ec5"/><path d="m459.45 245.57a1.49 1.49 0 0 1 -.32-1h.53a1.54 1.54 0 0 0 .15.58.78.78 0 0 0 .72.32 1 1 0 0 0 .66-.21.73.73 0 0 0 .24-.56.65.65 0 0 0 -.26-.59 1.24 1.24 0 0 0 -.72-.17h-.21v-.45h.25a1.11 1.11 0 0 0 .48-.09.56.56 0 0 0 .32-.57.57.57 0 0 0 -.21-.47.84.84 0 0 0 -.51-.16.74.74 0 0 0 -.71.34 1.18 1.18 0 0 0 -.12.53h-.51a1.54 1.54 0 0 1 .18-.77 1.16 1.16 0 0 1 1.11-.57 1.55 1.55 0 0 1 1 .27 1 1 0 0 1 .34.81.87.87 0 0 1 -.21.61.75.75 0 0 1 -.32.23.89.89 0 0 1 .5.34 1.05 1.05 0 0 1 .18.62 1.23 1.23 0 0 1 -.38.95 1.5 1.5 0 0 1 -1.09.37 1.28 1.28 0 0 1 -1.09-.36z" fill="#208ec5"/><path d="m462.36 241.59h.93l1 1.51 1-1.51h.87l-1.44 2.06 1.5 2.19h-.91l-1.06-1.6-1 1.6h-.91l1.5-2.19z" fill="#208ec5"/><path d="m455.88 220.72h5.43v.19h-5.43z" fill="#00b2e1"/><path d="m455.88 238.39h5.43v.19h-5.43z" fill="#00b2e1"/><path d="m455.88 249.26h5.43v.19h-5.43z" fill="#00b2e1"/><path d="m455.88 188.41h5.43v.19h-5.43z" fill="#00b2e1"/><path d="m455.88 177.73h5.43v.19h-5.43z" fill="#00b2e1"/><path d="m184.54 332.94a3 3 0 0 1 .27 1.38 3.42 3.42 0 0 1 -.24 1.38 1.23 1.23 0 0 1 -1.18.78 1.18 1.18 0 0 1 -1.1-.64 2.9 2.9 0 0 1 -.3-1.43 3.51 3.51 0 0 1 .18-1.19 1.24 1.24 0 0 1 1.22-.94 1.21 1.21 0 0 1 1.15.66zm-.52 2.72a2.51 2.51 0 0 0 .24-1.32 3.34 3.34 0 0 0 -.17-1.14.66.66 0 0 0 -.67-.45.69.69 0 0 0 -.66.42 3 3 0 0 0 -.21 1.26 3.14 3.14 0 0 0 .13 1 .74.74 0 0 0 .7.58.73.73 0 0 0 .62-.35z" fill="#208ec5"/><path d="m185.56 335.75h.6v.62h-.6z" fill="#208ec5"/><path d="m187.41 335.33a.71.71 0 0 0 .41.61.93.93 0 0 0 .42.08.79.79 0 0 0 .68-.29 1.07 1.07 0 0 0 .21-.64.8.8 0 0 0 -.26-.66.88.88 0 0 0 -.62-.24 1.08 1.08 0 0 0 -.46.1 1.1 1.1 0 0 0 -.32.29h-.45l.31-2.2h2.13v.5h-1.74l-.18 1.14a1.23 1.23 0 0 1 .28-.17 1.38 1.38 0 0 1 .52-.09 1.36 1.36 0 0 1 1 .36 1.2 1.2 0 0 1 .39.92 1.55 1.55 0 0 1 -.36 1 1.37 1.37 0 0 1 -1.14.45 1.46 1.46 0 0 1 -.89-.29 1.11 1.11 0 0 1 -.43-.86z" fill="#208ec5"/><path d="m190.06 332.11h.94l1 1.5 1-1.5h.87l-1.44 2.06 1.5 2.18h-.93l-1.06-1.6-1 1.6h-.94l1.5-2.18z" fill="#208ec5"/><path d="m184.54 301.76a3 3 0 0 1 .27 1.39 3.48 3.48 0 0 1 -.24 1.38 1.23 1.23 0 0 1 -1.18.78 1.18 1.18 0 0 1 -1.1-.64 2.92 2.92 0 0 1 -.3-1.43 3.53 3.53 0 0 1 .18-1.2 1.23 1.23 0 0 1 1.22-.93 1.22 1.22 0 0 1 1.15.65zm-.52 2.73a2.56 2.56 0 0 0 .24-1.32 3.36 3.36 0 0 0 -.17-1.15.66.66 0 0 0 -.67-.45.69.69 0 0 0 -.66.43 2.92 2.92 0 0 0 -.21 1.26 3.07 3.07 0 0 0 .13 1 .73.73 0 0 0 .7.58.74.74 0 0 0 .62-.35z" fill="#208ec5"/><path d="m185.56 304.57h.6v.63h-.6z" fill="#208ec5"/><path d="m187.41 304.15a.69.69 0 0 0 .41.61.93.93 0 0 0 .42.09.82.82 0 0 0 .68-.29 1.1 1.1 0 0 0 .21-.65.83.83 0 0 0 -.26-.66.87.87 0 0 0 -.62-.23 1 1 0 0 0 -.46.1 1.06 1.06 0 0 0 -.32.28h-.45l.31-2.2h2.13v.49h-1.74l-.18 1.14a1.17 1.17 0 0 1 .28-.16 1.21 1.21 0 0 1 .52-.1 1.33 1.33 0 0 1 1 .37 1.19 1.19 0 0 1 .39.92 1.59 1.59 0 0 1 -.36 1 1.4 1.4 0 0 1 -1.14.44 1.45 1.45 0 0 1 -.89-.28 1.15 1.15 0 0 1 -.43-.87z" fill="#208ec5"/><path d="m190.06 300.93h.94l1 1.5 1-1.5h.87l-1.48 2.07 1.5 2.19h-.89l-1.06-1.6-1 1.6h-.94l1.5-2.19z" fill="#208ec5"/><path d="m186 316.38h.93l1 1.5 1-1.5h.88l-1.44 2.06 1.5 2.18h-.92l-1.06-1.6-1 1.6h-.91l1.5-2.18z" fill="#208ec5"/><path d="m184.3 339.31h7.23v.21h-7.23z" fill="#00b2e1"/><path d="m184.3 298.1h7.23v.21h-7.23z" fill="#00b2e1"/><path d="m184.3 328.63h7.23v.21h-7.23z" fill="#00b2e1"/><path d="m184.3 308.58h7.23v.21h-7.23z" fill="#00b2e1"/><path d="m321.75 125.75a2.86 2.86 0 0 1 .28 1.39 3.47 3.47 0 0 1 -.25 1.38 1.22 1.22 0 0 1 -1.18.78 1.16 1.16 0 0 1 -1.09-.64 2.92 2.92 0 0 1 -.3-1.43 3.53 3.53 0 0 1 .18-1.2 1.23 1.23 0 0 1 1.22-.93 1.21 1.21 0 0 1 1.14.65zm-.51 2.73a2.69 2.69 0 0 0 .23-1.32 3.14 3.14 0 0 0 -.17-1.15.64.64 0 0 0 -.66-.45.71.71 0 0 0 -.67.43 2.92 2.92 0 0 0 -.21 1.26 3 3 0 0 0 .14 1 .72.72 0 0 0 .7.58.74.74 0 0 0 .64-.35z" fill="#208ec5"/><path d="m322.78 128.57h.59v.62h-.59z" fill="#208ec5"/><path d="m324.62 128.15a.71.71 0 0 0 .41.6.93.93 0 0 0 .42.09.81.81 0 0 0 .68-.29 1 1 0 0 0 .22-.65.87.87 0 0 0 -.26-.66.91.91 0 0 0 -.63-.23.88.88 0 0 0 -.45.1 1 1 0 0 0 -.33.28h-.44l.31-2.2h2.12v.5h-1.74l-.17 1.13a1 1 0 0 1 .27-.16 1.43 1.43 0 0 1 .53-.1 1.36 1.36 0 0 1 .95.37 1.2 1.2 0 0 1 .39.92 1.59 1.59 0 0 1 -.36 1 1.39 1.39 0 0 1 -1.14.44 1.42 1.42 0 0 1 -.88-.28 1.11 1.11 0 0 1 -.43-.86z" fill="#208ec5"/><path d="m327.27 124.92h.93l1 1.5 1-1.5h.87l-1.47 2.08 1.51 2.19h-.92l-1.06-1.6-1 1.6h-.9l1.5-2.19z" fill="#208ec5"/><path d="m321.75 94.58a2.81 2.81 0 0 1 .25 1.42 3.4 3.4 0 0 1 -.25 1.38 1.22 1.22 0 0 1 -1.18.78 1.16 1.16 0 0 1 -1.09-.64 2.9 2.9 0 0 1 -.3-1.43 3.61 3.61 0 0 1 .18-1.2 1.23 1.23 0 0 1 1.22-.93 1.2 1.2 0 0 1 1.17.62zm-.51 2.72a2.69 2.69 0 0 0 .23-1.32 3.11 3.11 0 0 0 -.17-1.14.64.64 0 0 0 -.66-.45.7.7 0 0 0 -.67.42 3.77 3.77 0 0 0 -.07 2.26.73.73 0 0 0 1.34.23z" fill="#208ec5"/><path d="m322.78 97.39h.59v.61h-.59z" fill="#208ec5"/><path d="m324.62 97a.73.73 0 0 0 .41.61 1.08 1.08 0 0 0 .42.08.78.78 0 0 0 .68-.29 1 1 0 0 0 .22-.64.87.87 0 0 0 -.26-.67 1 1 0 0 0 -.63-.23.88.88 0 0 0 -.45.1 1 1 0 0 0 -.33.29h-.44l.31-2.2h2.12v.5h-1.74l-.17 1.13a1.28 1.28 0 0 1 .27-.16 1.44 1.44 0 0 1 .53-.09 1.36 1.36 0 0 1 .95.36 1.2 1.2 0 0 1 .39.92 1.55 1.55 0 0 1 -.36 1 1.36 1.36 0 0 1 -1.14.44 1.42 1.42 0 0 1 -.88-.28 1.08 1.08 0 0 1 -.43-.86z" fill="#208ec5"/><path d="m327.27 93.75h.93l1 1.5 1-1.5h.87l-1.44 2 1.48 2.25h-.92l-1.06-1.6-1 1.6h-.9l1.5-2.19z" fill="#208ec5"/><path d="m323.21 109.19h.93l1 1.5 1-1.5h.87l-1.44 2.06 1.5 2.19h-.91l-1.06-1.61-1 1.61h-.91l1.5-2.19z" fill="#208ec5"/><path d="m321.51 132.12h7.23v.21h-7.23z" fill="#00b2e1"/><path d="m321.51 90.92h7.23v.21h-7.23z" fill="#00b2e1"/><path d="m321.51 121.44h7.23v.21h-7.23z" fill="#00b2e1"/><path d="m321.51 101.6h7.23v.21h-7.23z" fill="#00b2e1"/><path d="m189.35 44.56h.21v7.23h-.21z" fill="#00b2e1"/><path d="m178.66 44.56h.21v7.23h-.21z" fill="#00b2e1"/><path d="m296.22 44.56h.21v7.23h-.21z" fill="#00b2e1"/><path d="m285.54 44.56h.21v7.23h-.21z" fill="#00b2e1"/><path d="m110.46 55.92a3 3 0 0 1 .27 1.38 3.42 3.42 0 0 1 -.24 1.38 1.23 1.23 0 0 1 -1.18.78 1.19 1.19 0 0 1 -1.1-.63 3 3 0 0 1 -.3-1.44 3.51 3.51 0 0 1 .18-1.19 1.23 1.23 0 0 1 1.22-.93 1.2 1.2 0 0 1 1.15.65zm-.52 2.72a2.51 2.51 0 0 0 .24-1.32 3.34 3.34 0 0 0 -.17-1.14.66.66 0 0 0 -.67-.45.69.69 0 0 0 -.66.43 2.9 2.9 0 0 0 -.21 1.25 3.14 3.14 0 0 0 .13 1 .74.74 0 0 0 .71.58.72.72 0 0 0 .63-.35z" fill="#208ec5"/><path d="m111.48 58.73h.6v.62h-.6z" fill="#208ec5"/><path d="m113.33 58.31a.71.71 0 0 0 .41.61.93.93 0 0 0 .42.08.79.79 0 0 0 .68-.29 1.08 1.08 0 0 0 .22-.64.81.81 0 0 0 -.27-.66.88.88 0 0 0 -.62-.24.94.94 0 0 0 -.78.39h-.45l.31-2.21h2.13v.5h-1.74l-.17 1.15a1 1 0 0 1 .27-.17 1.42 1.42 0 0 1 .52-.09 1.36 1.36 0 0 1 1 .36 1.2 1.2 0 0 1 .39.92 1.55 1.55 0 0 1 -.36 1 1.37 1.37 0 0 1 -1.14.45 1.46 1.46 0 0 1 -.89-.29 1.14 1.14 0 0 1 -.43-.86z" fill="#208ec5"/><path d="m116 55.09h.93l1 1.5 1-1.5h.87l-1.44 2.06 1.5 2.18h-.91l-1.06-1.6-1 1.6h-.91l1.5-2.18z" fill="#208ec5"/><path d="m125.22 35a2.84 2.84 0 0 1 .28 1.38 3.24 3.24 0 0 1 -.25 1.38 1.22 1.22 0 0 1 -1.18.78 1.16 1.16 0 0 1 -1.09-.64 2.9 2.9 0 0 1 -.3-1.43 3.51 3.51 0 0 1 .18-1.19 1.23 1.23 0 0 1 1.22-.93 1.18 1.18 0 0 1 1.14.65zm-.51 2.72a2.51 2.51 0 0 0 .24-1.32 3.1 3.1 0 0 0 -.18-1.14.64.64 0 0 0 -.66-.45.7.7 0 0 0 -.67.42 3 3 0 0 0 -.21 1.26 3.1 3.1 0 0 0 .14 1 .73.73 0 0 0 1.34.22z" fill="#208ec5"/><path d="m126.25 37.84h.59v.62h-.59z" fill="#208ec5"/><path d="m128.09 37.42a.73.73 0 0 0 .41.61.93.93 0 0 0 .42.08.78.78 0 0 0 .68-.29 1 1 0 0 0 .22-.64.84.84 0 0 0 -.26-.66.9.9 0 0 0 -.63-.24 1 1 0 0 0 -.45.1 1 1 0 0 0 -.33.29h-.44l.31-2.2h2.12v.5h-1.74l-.17 1.14a1.46 1.46 0 0 1 .27-.17 1.44 1.44 0 0 1 .53-.09 1.36 1.36 0 0 1 .95.36 1.2 1.2 0 0 1 .39.92 1.6 1.6 0 0 1 -.35 1 1.38 1.38 0 0 1 -1.15.45 1.45 1.45 0 0 1 -.88-.29 1.08 1.08 0 0 1 -.43-.86z" fill="#208ec5"/><path d="m130.74 34.2h.93l1 1.5 1-1.5h.87l-1.43 2.06 1.5 2.18h-.92l-1.06-1.6-1 1.6h-.91l1.5-2.18z" fill="#208ec5"/><path d="m125.22 3.88a2.84 2.84 0 0 1 .28 1.38 3.24 3.24 0 0 1 -.25 1.38 1.22 1.22 0 0 1 -1.18.78 1.17 1.17 0 0 1 -1.07-.63 3 3 0 0 1 -.3-1.44 3.51 3.51 0 0 1 .18-1.19 1.23 1.23 0 0 1 1.22-.93 1.18 1.18 0 0 1 1.12.65zm-.51 2.72a2.51 2.51 0 0 0 .29-1.32 3.1 3.1 0 0 0 -.18-1.14.64.64 0 0 0 -.66-.45.69.69 0 0 0 -.67.43 2.9 2.9 0 0 0 -.21 1.25 3.1 3.1 0 0 0 .14 1 .73.73 0 0 0 1.34.22z" fill="#208ec5"/><path d="m126.25 6.69h.59v.62h-.59z" fill="#208ec5"/><path d="m128.09 6.27a.73.73 0 0 0 .41.61.93.93 0 0 0 .42.08.78.78 0 0 0 .68-.29 1 1 0 0 0 .22-.64.84.84 0 0 0 -.26-.66 1 1 0 0 0 -1.08-.13.88.88 0 0 0 -.33.28h-.44l.29-2.23h2.12v.5h-1.72l-.17 1.14a1.46 1.46 0 0 1 .27-.17 1.44 1.44 0 0 1 .53-.09 1.36 1.36 0 0 1 .97.33 1.2 1.2 0 0 1 .39.92 1.6 1.6 0 0 1 -.39 1.08 1.38 1.38 0 0 1 -1.15.45 1.45 1.45 0 0 1 -.88-.29 1.08 1.08 0 0 1 -.43-.86z" fill="#208ec5"/><path d="m130.74 3.05h.93l1 1.5 1-1.5h.87l-1.43 2.06 1.5 2.18h-.92l-1.06-1.6-1 1.6h-.91l1.5-2.18z" fill="#208ec5"/><path d="m126.68 18.45h.93l1 1.51 1-1.51h.87l-1.48 2.08 1.5 2.19h-.91l-1.06-1.6-1 1.6h-.91l1.5-2.19z" fill="#208ec5"/><path d="m64.5 24.59h2.86v-8.3h2.04v11.23h-2.04v-.92l-7.85-.02v.94h-2.12v-11.32h2.1v8.39l2.89-.02v-10.18h2.12z" fill="#fff"/><path d="m30.5 17.07a10 10 0 0 1 -12.43 13.05 9.95 9.95 0 0 1 -1.56-18.12 9.95 9.95 0 0 1 14 5.11z" fill="#fff"/><path d="m29.75 21.88h.32c-.06-.2-.36-.12-.48-.3a.58.58 0 0 1 .4.08c-.06 0-.2 0-.16-.16a9.68 9.68 0 0 1 -2.48-1.37c-.63-.37-1-1.24-1.68-1.48a4.06 4.06 0 0 1 -.26-.51h-.07a2.89 2.89 0 0 1 -.26-.53.54.54 0 0 0 -.43-.18c-.22.12-.56-.08-.69 0l.11.06c0 .07-.07.13-.17.11a7.11 7.11 0 0 1 -1.15-1.24c.18-.51-.47-.63-.71-1s-.77 0-1.1.11a8.73 8.73 0 0 0 -1.72-.33c-.23.06-.37.33-.49.49-.35.51-.51 1.13-.93 1.64-.11.22-.41.12-.57.29a1.81 1.81 0 0 0 -1 .3s0 .1-.1.08a3.93 3.93 0 0 1 -.32.47c-.29.4-.85.52-1.26.77a5.66 5.66 0 0 0 -1.44 1.05c-.22.33-.53.51-.75.81.22-.06.18-.32.43-.28.06.16-.13.22-.15.32s.17-.1.25-.08a.6.6 0 0 1 -.23.27c.1 0 .08.06.11.08s.26-.16.4-.08a4.41 4.41 0 0 1 -.34.32c.08 0 .14 0 .18-.06s.26-.22.38-.24l-.22.3.24-.18c.06.08-.14.14 0 .22.17-.08.21-.26.37-.34 0 .16-.2.28-.27.42.07-.08.31-.14.27-.3a2.42 2.42 0 0 0 .47-.49c.44-.48.75-1 1.4-1.13.36-.31.91-.31 1.25-.67.06-.08.15-.25.29-.21a.17.17 0 0 1 .2-.12v.08c.28-.32.75-.2 1-.5a1.65 1.65 0 0 0 .71-.65 1.71 1.71 0 0 1 .35-.51 2.16 2.16 0 0 1 .32-.51 1.47 1.47 0 0 1 .59 0c.23.33.65.15 1 .17 0 .18.2 0 .22.18.29.14.39.59.65.83a.75.75 0 0 0 -.39.49c-.26 0 0 .32-.28.34a.2.2 0 0 1 .31 0l-.05.06c-.3.14-.59.35-.89.53-.08.06-.16.16-.22.2h.06s0 0 0 0a.06.06 0 0 0 0 .08h.06c.1 0 .2-.14.28-.06s0 0 0 .06c.09-.14.21 0 .27 0l-.47.38h.16c-.06.18-.28.12-.38.28.12 0 0 .15 0 .17s.16-.12.26-.06c-.06.14-.24.16-.26.32.14-.08.22-.32.4-.24 0 .06-.12.08-.06.18s.14-.12.23-.08.08 0 .06.08.24 0 .32-.08c.27-.39.81-.33 1.2-.51v-.1c.06-.24.42-.18.61-.26.06-.25.38-.06.48-.29s.21 0 .33 0 .38-.06.51-.14c.38-.08.69.39.91.61a5.6 5.6 0 0 0 1.83 1.36c-.33-.25-.68-.41-1-.67 0-.06.08 0 .12 0 .29.22.59.38.89.59a7.89 7.89 0 0 0 2 1.06l-.1-.08s0-.06 0-.08l.14.08c0-.08.11-.08.17-.1-.1-.19-.35-.25-.53-.35a7.36 7.36 0 0 1 -1.6-.92 11.85 11.85 0 0 0 1.82.9c.1.2.25.08.41.14 0 .17-.08.17-.08.11z" fill="#00a19b"/><path d="m21.24 19.07h-.1c.06.17-.14.13-.2.19v-.06l-.16.12c0 .17-.25.06-.27.23.14 0 .25-.19.43-.17 0-.16.2-.22.3-.31z" fill="#00a19b"/><path d="m20.6 19.2c-.09.06-.17.06-.21.17a.31.31 0 0 0 .21-.17z" fill="#00a19b"/><path d="m86 23.17-1.54-.56h2v-1.73h-3.88v-.83h1.86v-1.05a14.59 14.59 0 0 0 3 1.84l1.28-2a10.33 10.33 0 0 1 -5.86-4.4l.08-.18-2.49-.26a9.67 9.67 0 0 1 -5.36 5.23l.92 2a22.36 22.36 0 0 0 2.71-1.92v.71h1.87v.83h-3.85v1.73h2.17l-1.56.59.73 2.33h-2.4v1.8h11.81v-1.77h-2.59c.15-.32 1.1-2.24 1.1-2.36zm-6.12-4.85a16.27 16.27 0 0 0 1.84-2.08 14.28 14.28 0 0 0 2 2.08zm-1.54 7.21 1.78-.67-1.07-2.25h1.54v2.92zm4.24-2.92h1.51l-1 2.23 1.72.69h-2.23z" fill="#fff"/><path d="m101.12 17.73h4.43v1.23h1.7v-1.23-.42-1.13h-3.07v-1.78h-1.69v1.78h-3.07v1.13.42 1.23h1.7z" fill="#fff"/><path d="m104.18 23.47h2v-1.21a4.4 4.4 0 0 0 .41.31l1.26-1.12a6.91 6.91 0 0 1 -2.76-3.06l-1.48.67a10.91 10.91 0 0 0 2.09 2.79h-4.83a10.91 10.91 0 0 0 2.13-2.79l-1.48-.67a6.89 6.89 0 0 1 -2.31 2.77v-1.24l-1.2.26v-1.36h1.12v-1.73h-1.13v-2.69h-1.72v2.69h-1.67v1.73h1.67v1.75l-1.91.43.33 1.89 1.58-.43v2.89a.34.34 0 0 1 -.34.34h-.89l.72 1.82h.53a1.72 1.72 0 0 0 1.7-1.73v-3.78l1-.28 1 .88a4.4 4.4 0 0 0 .41-.31v1.21h2v2.2h-3.21v1.6h8.27v-1.63h-3.29z" fill="#fff"/><path d="m45.52 25.26v-3.66h4.36v-2l-4.36-.02v-2.89h4.67l.01-2.07h-11.47v2.07h4.63v2.89h-4.33v2.02h4.33v3.66h-5.27v2.03h12.68v-2.03z" fill="#fff"/><path d="m47.47 22.23a1.26 1.26 0 0 0 -.87 1.06 1.23 1.23 0 0 0 .28.92 1.28 1.28 0 0 0 1.35.4 1.3 1.3 0 0 0 .83-.86 1.34 1.34 0 0 0 -.16-1 1.25 1.25 0 0 0 -1.43-.52z" fill="#fff"/><path d="m208.63 17.07a10 10 0 0 1 -12.43 13.05 10 10 0 0 1 -1.56-18.12 9.95 9.95 0 0 1 14 5.11z" fill="#fff"/><path d="m207.89 21.88h.31c-.06-.2-.35-.12-.47-.3a.55.55 0 0 1 .39.08c-.06 0-.19 0-.15-.16a9.75 9.75 0 0 1 -2.49-1.37c-.63-.37-1-1.24-1.67-1.48a4.06 4.06 0 0 1 -.26-.51h-.08a2.89 2.89 0 0 1 -.26-.53.52.52 0 0 0 -.43-.18c-.22.12-.55-.08-.69 0l.12.06c0 .06-.08.13-.18.11a7.06 7.06 0 0 1 -1.14-1.24c.18-.51-.47-.63-.71-1s-.77 0-1.11.11a8.77 8.77 0 0 0 -1.71-.33c-.24.06-.38.33-.49.49-.36.51-.52 1.13-.93 1.64-.12.22-.42.12-.57.28a1.86 1.86 0 0 0 -1 .31s0 .1-.1.08a3.79 3.79 0 0 1 -.31.47c-.3.4-.85.52-1.27.77a5.61 5.61 0 0 0 -1.43 1.05c-.22.33-.54.51-.75.81.21-.06.17-.32.43-.28.06.16-.14.22-.16.32s.18-.1.26-.08a.62.62 0 0 1 -.24.27c.1 0 .08.06.12.08s.26-.16.39-.08a3.14 3.14 0 0 1 -.33.32c.08 0 .14 0 .18-.06s.25-.22.37-.24l-.22.3.24-.18c.06.08-.14.14 0 .22.18-.08.22-.26.38-.34 0 .16-.2.28-.28.42.08-.08.32-.14.28-.3a3.12 3.12 0 0 0 .47-.49c.43-.48.75-1 1.4-1.13.35-.31.91-.31 1.24-.67.06-.08.16-.25.3-.21a.16.16 0 0 1 .19-.12v.08c.28-.32.75-.2 1-.5a1.6 1.6 0 0 0 .71-.65 1.94 1.94 0 0 1 .36-.51 1.84 1.84 0 0 1 .31-.51 1.47 1.47 0 0 1 .59 0c.24.33.65.15 1 .17 0 .18.19 0 .21.18.3.14.4.59.66.83a.79.79 0 0 0 -.4.49c-.26 0 0 .32-.28.34a.21.21 0 0 1 .32 0l-.06.06c-.29.14-.59.35-.89.53-.08.06-.15.16-.21.2h.15s-.06 0 0 .08 0 0 0 0c.09 0 .19-.14.27-.06s0 0 0 .06c.1-.14.22 0 .28 0l-.48.38h.16c-.06.18-.27.12-.37.28.12 0 0 .15 0 .17s.16-.12.25-.06c-.06.14-.23.16-.25.32.14-.08.21-.32.39-.24 0 .06-.12.08-.06.18s.14-.12.24-.08.08 0 .06.08.23 0 .31-.08c.28-.39.81-.33 1.21-.51v-.1c.06-.24.41-.18.61-.26.06-.25.37-.06.47-.29s.22 0 .34 0 .37-.06.51-.14c.37-.08.69.39.91.61a5.6 5.6 0 0 0 1.83 1.36c-.34-.25-.69-.41-1-.67 0-.06.08 0 .12 0 .3.22.59.38.89.59a7.89 7.89 0 0 0 2 1.06l-.1-.08s0-.06 0-.08l.14.08c0-.08.12-.08.18-.1-.1-.19-.36-.25-.53-.35a6.92 6.92 0 0 1 -1.6-.92 11.74 11.74 0 0 0 1.81.9c.1.2.26.08.42.14-.01.17-.12.17-.12.11z" fill="#00a19b"/><path d="m199.38 19.07h-.1c.06.17-.14.13-.2.19v-.06l-.16.12c0 .17-.26.06-.28.23.14 0 .26-.19.44-.17 0-.16.2-.22.3-.31z" fill="#00a19b"/><path d="m198.74 19.2c-.1.06-.18.06-.22.17a.35.35 0 0 0 .22-.17z" fill="#00a19b"/><path d="m242.57 24.35h2.84v-8.26h2.03v11.18h-2.03v-.92l-7.82-.02v.94h-2.12v-11.28h2.1v8.36l2.88-.02v-10.14h2.12z" fill="#fff"/><path d="m257.85 22.56h2.12v1.35h-2.12z" fill="#fff" transform="matrix(.21303039 -.97704557 .97704557 .21303039 181.06 271.25)"/><path d="m265.43 24.1 1.85-1.34s-1.21-1.23-1.25-1.25-1.06.69-1.48 1a5.48 5.48 0 0 1 -.25-1.39h2.24v-6.77h-6.38v10.85l-.61.11-.05-.85-1.73.3v-3.12h1.9v-1.7h-1.9v-.66h1.38v-.83l.13.1.88-2a4.82 4.82 0 0 1 -2.25-2.41h-1.8a5.55 5.55 0 0 1 -2.39 2.8l.88 2 .37-.33v.68h1.12v.66h-2.09v1.7h2.08v3.42l-2.12.37v1.87l5.35-1v1l4.29-.75-.09-1.71a6.36 6.36 0 0 0 2.73 2.5l.91-1.78a8.64 8.64 0 0 1 -1.72-1.47zm-9.43-6.51a8.16 8.16 0 0 0 1-1.31 6.77 6.77 0 0 0 1.11 1.31zm6-1.39h2.64v.89h-2.64zm0 8.67v-3.77h.55a7.14 7.14 0 0 0 .87 3.53zm0-5.33v-.89h2.64v.89z" fill="#fff"/><path d="m255.67 24.47-.32-2.26-1.4.25.32 2.28z" fill="#fff"/><path d="m277.71 14.31h7.4v1.98h-7.4z" fill="#fff"/><path d="m285.65 18.57h-8.6l-1.45-1a14.6 14.6 0 0 1 -3.2 3.76l.91 2.17s.42-.36 1-.94v4.7h2v-7a10.85 10.85 0 0 0 .7-1.11v1.46h4.59v4.39a.28.28 0 0 1 -.28.28h-2.32l.79 2h2.41a1.49 1.49 0 0 0 1.49-1.48v-5.27h2z" fill="#fff"/><path d="m277 15.29c-.58-.38-1.14-.8-1.7-1.18a12.68 12.68 0 0 1 -2.84 2.69l.95 1.95a15.51 15.51 0 0 0 3.59-3.46z" fill="#fff"/><path d="m223.63 24.96-.01-3.64h4.35v-1.99l-4.35-.02v-2.88h4.66v-2.06h-11.41v2.06h4.6v2.88h-4.31v2.01h4.31v3.64h-5.25v2.03h12.63v-2.03z" fill="#fff"/><path d="m225.57 22a1.24 1.24 0 0 0 -.59 2 1.25 1.25 0 0 0 2.17-.47 1.36 1.36 0 0 0 -.15-1 1.26 1.26 0 0 0 -1.43-.53z" fill="#fff"/><path d="m30.5 108a10 10 0 0 1 -12.43 13 9.95 9.95 0 0 1 -1.56-18.16 9.95 9.95 0 0 1 14 5.11z" fill="#fff"/><path d="m21.69 109.7a.19.19 0 0 0 -.12.07c.07-.01.1-.03.12-.07z" fill="#00a19b"/><path d="m29.75 112.8h.32c-.06-.2-.36-.12-.48-.3a.58.58 0 0 1 .4.08c-.06 0-.2 0-.16-.17a9.36 9.36 0 0 1 -2.48-1.41c-.63-.37-1-1.24-1.68-1.48a4.89 4.89 0 0 1 -.26-.51h-.07a2.89 2.89 0 0 1 -.26-.53.54.54 0 0 0 -.43-.18c-.22.12-.56-.08-.69 0l.11.06c0 .06-.07.12-.17.1a6.71 6.71 0 0 1 -1.15-1.23c.18-.51-.47-.63-.71-1s-.77 0-1.1.1a9.51 9.51 0 0 0 -1.72-.32c-.23.06-.37.32-.49.49-.35.5-.51 1.13-.93 1.64-.11.22-.41.12-.57.28a1.74 1.74 0 0 0 -1 .31s0 .1-.1.08a3.19 3.19 0 0 1 -.32.46c-.29.41-.85.53-1.26.77a5.7 5.7 0 0 0 -1.44 1.06c-.22.32-.53.51-.75.81.22-.06.18-.32.43-.28.06.16-.13.22-.15.32s.17-.1.25-.08a.58.58 0 0 1 -.23.26c.1 0 .08.06.11.09s.26-.17.4-.09a3.3 3.3 0 0 1 -.34.33c.08 0 .14 0 .18-.06s.26-.23.38-.24l-.22.3.24-.18c.06.08-.14.14 0 .22.17-.08.21-.26.37-.34 0 .16-.2.28-.27.42.07-.08.31-.14.27-.3a2.71 2.71 0 0 0 .47-.49c.44-.49.75-1 1.4-1.14a0 0 0 0 1 0 0c.36-.3.91-.3 1.25-.67.06-.08.15-.24.29-.2a.17.17 0 0 1 .2-.12v.08c.28-.32.75-.2 1-.51a1.63 1.63 0 0 0 .71-.64 1.59 1.59 0 0 1 .35-.51 2 2 0 0 1 .32-.51 1.47 1.47 0 0 1 .59 0c.23.33.65.14 1 .16 0 .19.2 0 .22.19.29.14.39.58.65.83a.75.75 0 0 0 -.39.49c-.19 0-.12.18-.16.27a.19.19 0 0 1 .19.07l-.05.06c-.3.14-.59.35-.89.53-.08.06-.16.16-.22.2h.06a0 0 0 0 1 0 0s-.06 0 0 .09h.06c.1 0 .2-.14.28-.06s0 0 0 .06c.09-.14.21 0 .27 0-.14.12-.31.27-.47.39h.16c-.06.18-.28.12-.38.28.12 0 0 .14 0 .16s.16-.12.26-.06c-.06.15-.24.17-.26.33.14-.08.22-.33.4-.25 0 .07-.12.09-.06.19s.14-.12.23-.08.08 0 .06.08.24 0 .32-.08c.27-.39.81-.33 1.2-.51v-.1c.06-.25.42-.18.61-.27s.38-.06.48-.28.21 0 .33 0 .38-.06.51-.14c.38-.08.69.38.91.61a5.6 5.6 0 0 0 1.83 1.36c-.33-.25-.68-.41-1-.67 0-.06.08 0 .12 0 .29.22.59.38.89.58a7.93 7.93 0 0 0 2 1.07l-.1-.08s0-.06 0-.09l.14.09c0-.09.11-.09.17-.11-.1-.18-.35-.24-.53-.34a7.36 7.36 0 0 1 -1.6-.92 12.84 12.84 0 0 0 1.82.9c.1.2.25.08.41.14 0 .2-.08.2-.08.14z" fill="#00a19b"/><path d="m21.24 110h-.1c.06.17-.14.13-.2.19v-.06l-.16.12c0 .17-.25.06-.27.23.14 0 .25-.19.43-.17 0-.17.2-.23.3-.31z" fill="#00a19b"/><path d="m20.61 110.12c-.1.06-.18.06-.22.16a.31.31 0 0 0 .22-.16z" fill="#00a19b"/><path d="m40.46 107.22h6.54v1.49h-4.77v2h4.43v1.48h-4.43v2.39h4.93v1.42h-6.7z" fill="#fff"/><path d="m54.87 113a1.81 1.81 0 0 0 1.92 1.69c1.25 0 1.74-.65 1.74-1.22 0-.74-.62-.9-2.24-1.29-.87-.22-2.82-.7-2.82-2.65 0-1 .63-2.45 3.21-2.45 1.73 0 3.3.67 3.37 2.66l-1.78.08c-.07-.46-.21-1.29-1.61-1.29-.53 0-1.49.17-1.49.88s.55.81 2 1.14 3.16.76 3.16 2.92a2.61 2.61 0 0 1 -1.44 2.32 5 5 0 0 1 -2.08.39 3.21 3.21 0 0 1 -3.63-3z" fill="#fff"/><path d="m65.24 107.22v4.78a4 4 0 0 0 .22 1.9 1.65 1.65 0 0 0 1.56.77c1.7 0 1.7-1.07 1.7-2.57v-4.86h1.77v4.63c0 1.57-.06 2.45-.49 3.11a3.29 3.29 0 0 1 -2.93 1.22c-3.6 0-3.6-2.23-3.6-4.26v-4.7z" fill="#fff"/><path d="m74.12 107.22h1.73l3.58 5.88v-5.88h1.67v8.78h-1.78l-3.52-5.74v5.74h-1.68z" fill="#fff"/><path d="m88.18 107.22h6v1.49h-4.18v2.09h3.69v1.49h-3.69v3.71h-1.82z" fill="#fff"/><path d="m97.22 107.22h1.78v3.47h3.48v-3.47h1.78v8.78h-1.78v-3.85h-3.48v3.85h-1.78z" fill="#fff"/><path d="m115 113.34a3.48 3.48 0 0 1 -3.66 2.84c-2.39 0-4-1.74-4-4.48 0-2.45 1.24-4.62 4.11-4.62a3.77 3.77 0 0 1 2.7 1 3.35 3.35 0 0 1 .83 1.58l-1.76.41a1.81 1.81 0 0 0 -1.86-1.47c-2.19 0-2.19 2.41-2.19 3a4.15 4.15 0 0 0 .47 2.21 2 2 0 0 0 1.7.86c1.18 0 1.72-.89 1.94-1.86z" fill="#fff"/><path d="m51 114.9a1.14 1.14 0 1 0 -1.14 1.1 1.13 1.13 0 0 0 1.14-1.1z" fill="#fff"/><path d="m208.63 108a9.95 9.95 0 0 1 -12.42 13 10 10 0 0 1 -1.57-18.16 9.95 9.95 0 0 1 14 5.11z" fill="#fff"/><path d="m199.82 109.7a.19.19 0 0 0 -.11.07c.07-.01.1-.03.11-.07z" fill="#00a19b"/><path d="m207.89 112.8h.31c0-.2-.35-.12-.47-.3a.58.58 0 0 1 .4.08c-.06 0-.2 0-.16-.16a9.75 9.75 0 0 1 -2.49-1.37c-.63-.37-1-1.24-1.67-1.48a4.06 4.06 0 0 1 -.26-.51h-.08a2.32 2.32 0 0 1 -.25-.53.55.55 0 0 0 -.44-.18c-.22.12-.55-.08-.69 0l.12.06c0 .06-.08.12-.18.1a6.66 6.66 0 0 1 -1.14-1.23c.18-.51-.47-.63-.71-1s-.77 0-1.11.1a9.57 9.57 0 0 0 -1.71-.32c-.24.06-.38.32-.49.49-.36.5-.52 1.13-.93 1.64-.12.22-.41.12-.57.28a1.77 1.77 0 0 0 -1 .31s0 .1-.1.08a3.79 3.79 0 0 1 -.31.47c-.3.4-.85.52-1.27.77a5.38 5.38 0 0 0 -1.43 1c-.22.33-.54.51-.75.81.21-.06.17-.32.43-.28.06.16-.14.22-.16.32s.18-.1.26-.08-.14.18-.24.26c.1 0 .08.07.12.09s.26-.17.39-.09a2.54 2.54 0 0 1 -.33.33c.08 0 .14 0 .18-.06s.25-.22.37-.24l-.22.3.24-.18c.06.08-.14.14 0 .22.18-.08.22-.26.38-.34 0 .16-.2.28-.28.42.08-.08.32-.14.28-.3a3.63 3.63 0 0 0 .47-.49c.43-.49.75-1 1.4-1.14.35-.31.91-.31 1.24-.67.06-.09.16-.25.3-.21a.17.17 0 0 1 .2-.12v.08c.28-.32.75-.2 1-.51a1.66 1.66 0 0 0 .71-.65 1.79 1.79 0 0 1 .36-.51 1.7 1.7 0 0 1 .31-.51 1.47 1.47 0 0 1 .59 0c.24.33.65.14 1 .16 0 .19.2 0 .22.19.29.14.39.59.65.83a.79.79 0 0 0 -.4.49c-.18 0-.11.18-.16.27a.21.21 0 0 1 .2.07l-.06.06c-.29.14-.59.35-.89.53-.07.06-.15.16-.21.2h.14a0 0 0 0 0 0 0s-.07 0-.05.09h.05a0 0 0 0 1 0 0c.09 0 .19-.14.27-.06s0 0 0 .06c.1-.14.22 0 .28 0-.14.13-.32.27-.48.39h.16c-.06.18-.27.12-.37.28.12 0 0 .14 0 .16s.16-.12.25-.06-.23.17-.25.33c.14-.08.21-.33.39-.24 0 .06-.12.08-.06.18s.14-.12.24-.08.08 0 .06.08.24 0 .31-.08c.28-.39.81-.33 1.21-.51v-.1c.06-.25.41-.18.61-.27s.37-.06.47-.28.22 0 .34 0 .37-.06.51-.14c.37-.08.69.38.91.61a5.6 5.6 0 0 0 1.83 1.36c-.33-.25-.69-.41-1-.67 0-.06.07 0 .11 0 .3.22.6.38.89.58a7.93 7.93 0 0 0 2 1.07l-.1-.08s0-.06 0-.08l.14.08c0-.08.12-.08.18-.1-.1-.19-.36-.25-.53-.35a6.92 6.92 0 0 1 -1.6-.92 12.72 12.72 0 0 0 1.81.9c.1.2.26.08.42.14 0 .22-.11.22-.11.16z" fill="#00a19b"/><path d="m199.38 110h-.1c.06.17-.14.13-.2.19v-.06l-.16.12c0 .17-.26.06-.28.23.14 0 .26-.19.44-.17 0-.17.2-.23.3-.31z" fill="#00a19b"/><path d="m198.74 110.12c-.1.06-.18.06-.22.16a.31.31 0 0 0 .22-.16z" fill="#00a19b"/><path d="m218.6 107.13h6.54v1.49h-4.77v2h4.44v1.48h-4.44v2.4h4.93v1.5h-6.7z" fill="#fff"/><path d="m233 112.92a1.81 1.81 0 0 0 1.92 1.68c1.25 0 1.74-.65 1.74-1.22 0-.74-.62-.89-2.24-1.29-.87-.22-2.82-.7-2.82-2.65 0-1 .63-2.46 3.21-2.46 1.73 0 3.3.68 3.38 2.67l-1.79.08c-.07-.46-.2-1.29-1.61-1.29-.53 0-1.49.16-1.49.88 0 .56.55.81 2 1.14s3.17.76 3.17 2.92a2.59 2.59 0 0 1 -1.47 2.32 5 5 0 0 1 -2.08.39 3.2 3.2 0 0 1 -3.63-3z" fill="#fff"/><path d="m243.39 107.13v4.76a3.86 3.86 0 0 0 .23 1.9 1.66 1.66 0 0 0 1.56.78c1.7 0 1.7-1.08 1.7-2.58v-4.86h1.77v4.63a5.78 5.78 0 0 1 -.49 3.12 3.31 3.31 0 0 1 -2.93 1.21c-3.61 0-3.61-2.22-3.61-4.26v-4.7z" fill="#fff"/><path d="m252.29 107.13h1.71l3.6 5.87v-5.89h1.65v8.89h-1.78l-3.47-5.81v5.81h-1.64z" fill="#fff"/><path d="m229.14 114.82a1.14 1.14 0 1 0 -1.14 1.18 1.14 1.14 0 0 0 1.14-1.18z" fill="#fff"/><path d="m269.72 108.91a3.46 3.46 0 0 1 1 .14.81.81 0 0 1 .47.83.84.84 0 0 1 -.36.79 1.74 1.74 0 0 1 -.94.23h-2.15v-2zm.27 3.46a2.13 2.13 0 0 1 .89.15 1 1 0 0 1 .57 1 1.13 1.13 0 0 1 -.59 1.11 2 2 0 0 1 -.9.16h-2.17v-2.38zm.32-5h-4.31v8.9h4a5.45 5.45 0 0 0 1.25-.13 2.31 2.31 0 0 0 1-.44 2.49 2.49 0 0 0 .63-.7 2.62 2.62 0 0 0 .39-1.41 2.33 2.33 0 0 0 -.34-1.3 2 2 0 0 0 -1-.79 1.94 1.94 0 0 0 .67-.51 2 2 0 0 0 .41-1.31 2.3 2.3 0 0 0 -.41-1.36 2.75 2.75 0 0 0 -2.29-.94z" fill="#fff"/><path d="m279.15 109.42 1.13 3.5h-2.28zm-4.21 6.86h1.95l.6-1.83h3.28l.58 1.83h2l-3.14-8.9h-2.1z" fill="#fff"/><path d="m285.15 107.38h1.94l3.52 6.19v-6.19h1.72v8.9h-1.85l-3.61-6.28v6.31h-1.72z" fill="#fff"/><path d="m295.71 107.38h1.85v3.67l3.43-3.67h2.4l-3.63 3.67 3.82 5.23h-2.39l-2.74-3.88-.89.9v3h-1.85z" fill="#fff"/><path d="m43.29 219a.52.52 0 0 0 -1 0 .52.52 0 1 0 1 0z" fill="#fff"/><path d="m37.41 215.18h3.29v.75h-2.4v1h2.23v.75h-2.23v1.2h2.48v.75h-3.37z" fill="#fff"/><path d="m46.55 218.09a.9.9 0 0 0 1 .84c.62 0 .87-.33.87-.61s-.31-.45-1.12-.65c-.44-.11-1.41-.35-1.41-1.32 0-.48.31-1.23 1.61-1.23.86 0 1.65.33 1.68 1.33h-.89c0-.23-.1-.64-.81-.64-.26 0-.74.08-.74.44s.28.4 1 .57 1.59.38 1.59 1.46a1.29 1.29 0 0 1 -.72 1.16 2.65 2.65 0 0 1 -1 .2 1.61 1.61 0 0 1 -1.82-1.51z" fill="#fff"/><path d="m52.35 215.18v2.39a2 2 0 0 0 .11 1 .85.85 0 0 0 .79.39c.85 0 .85-.54.85-1.3v-2.44h.9v2.33a2.93 2.93 0 0 1 -.24 1.56 1.67 1.67 0 0 1 -1.48.62c-1.81 0-1.81-1.12-1.81-2.15v-2.36z" fill="#fff"/><path d="m57.16 215.18h.84l1.8 3v-3h.83v4.43h-.9l-1.73-2.89v2.89h-.83z" fill="#fff"/><path d="m68.12 215.18h3v.75h-2.12v1h1.86v.75h-1.86v1.88h-.9z" fill="#fff"/><path d="m73.57 215.18h.89v1.74h1.75v-1.74h.89v4.43h-.89v-1.94h-1.75v1.94h-.89z" fill="#fff"/><path d="m83 218.24a1.75 1.75 0 0 1 -1.83 1.42 2 2 0 0 1 -2-2.24 2 2 0 0 1 2.06-2.32 1.94 1.94 0 0 1 1.35.5 1.7 1.7 0 0 1 .41.8l-.88.2a.9.9 0 0 0 -.93-.74c-1.09 0-1.09 1.21-1.09 1.5a2.11 2.11 0 0 0 .23 1.1 1 1 0 0 0 .85.44c.59 0 .86-.45 1-.93z" fill="#fff"/><path d="m30.41 208a10 10 0 0 1 -12.41 13 9.95 9.95 0 0 1 -1.56-18.16 10 10 0 0 1 14 5.11z" fill="#fff"/><path d="m21.6 209.68a.19.19 0 0 0 -.12.07c.07-.01.1-.03.12-.07z" fill="#00a19b"/><path d="m29.66 212.78h.34c-.06-.2-.36-.12-.48-.31a.54.54 0 0 1 .4.09c-.06 0-.2 0-.16-.17a9.65 9.65 0 0 1 -2.5-1.39c-.63-.37-1-1.24-1.68-1.48a4.89 4.89 0 0 1 -.26-.51h-.07a3.24 3.24 0 0 1 -.26-.53.55.55 0 0 0 -.44-.18c-.21.12-.55-.08-.68 0l.11.06c0 .06-.08.12-.17.1a6.46 6.46 0 0 1 -1.15-1.24c.18-.5-.47-.62-.71-1s-.77 0-1.1.1a9.68 9.68 0 0 0 -1.72-.32c-.23.06-.37.32-.49.48-.35.51-.51 1.14-.93 1.65-.11.22-.41.12-.57.28a1.74 1.74 0 0 0 -1 .31s0 .1-.1.08a3.19 3.19 0 0 1 -.32.46c-.3.41-.85.53-1.26.77a5.7 5.7 0 0 0 -1.44 1.06c-.22.32-.53.51-.75.81.22-.06.18-.32.43-.28.06.16-.13.22-.15.32s.17-.1.25-.08a.58.58 0 0 1 -.23.26c.1 0 .07.06.11.08s.26-.16.4-.08a3.3 3.3 0 0 1 -.34.33c.08 0 .14 0 .18-.06s.26-.23.38-.25l-.22.31.24-.18c.06.08-.14.14 0 .22.17-.08.21-.26.37-.35 0 .17-.2.29-.27.43.07-.08.31-.14.27-.3a2.71 2.71 0 0 0 .47-.49c.44-.49.75-1 1.4-1.14.36-.3.91-.3 1.25-.67.06-.08.15-.24.29-.2a.17.17 0 0 1 .2-.12v.08c.28-.32.75-.2 1-.51a1.59 1.59 0 0 0 .71-.65 1.66 1.66 0 0 1 .35-.5 2 2 0 0 1 .32-.51 1.47 1.47 0 0 1 .59 0c.23.33.65.14 1 .16 0 .19.2 0 .22.19.29.14.39.58.65.83a.76.76 0 0 0 -.39.48c-.19 0-.12.19-.16.28a.19.19 0 0 1 .19.07l-.05.06a7.45 7.45 0 0 0 -.89.53c-.08.06-.16.16-.22.2h.07s-.06 0 0 .09h.06c.1 0 .2-.14.28-.06s0 0 0 .06c.09-.14.21 0 .27 0-.14.12-.31.27-.47.39h.17c-.06.18-.28.12-.38.28.12 0 0 .14 0 .16s.16-.12.26-.06c-.06.14-.24.16-.26.33.14-.08.22-.33.4-.25 0 .06-.12.08-.06.19s.13-.13.23-.08.08 0 .06.08.24 0 .32-.08c.27-.39.81-.33 1.2-.51v-.1c.06-.25.42-.19.61-.27.06-.24.38-.06.48-.28s.21 0 .33 0 .38-.06.51-.14c.38-.08.69.38.91.61a5.57 5.57 0 0 0 1.83 1.35c-.33-.24-.69-.4-1-.66 0-.07.08 0 .12 0 .29.22.59.38.88.58a8 8 0 0 0 2 1.07l-.1-.09s0-.06 0-.08l.13.08c0-.08.12-.08.18-.1-.1-.18-.35-.24-.53-.34a8.28 8.28 0 0 1 -1.6-.92 14 14 0 0 0 1.82.9c.09.2.25.08.41.14-.01.19-.09.19-.09.13z" fill="#00a19b"/><path d="m21.15 210h-.1c.06.17-.14.12-.2.19v-.07l-.16.13c0 .16-.26.06-.28.23.14 0 .26-.19.44-.17 0-.19.2-.26.3-.31z" fill="#00a19b"/><path d="m20.51 210.1c-.1.06-.18.06-.21.16a.31.31 0 0 0 .21-.16z" fill="#00a19b"/><path d="m55.06 210.34h1.92v-5.58h1.37v7.55h-1.37v-.63l-5.28-.01v.64h-1.42v-7.62h1.41v5.65l1.94-.02v-6.84h1.43z" fill="#fff"/><path d="m42.21 210.78-.01-2.46h2.94v-1.34l-2.94-.01v-1.94h3.15v-1.39h-7.7v1.39h3.1v1.94h-2.91v1.35h2.91v2.46h-3.54v1.37h8.52v-1.37z" fill="#fff"/><path d="m43.51 208.75a.86.86 0 0 0 -.58.71.84.84 0 0 0 .19.62.89.89 0 0 0 .91.27.86.86 0 0 0 .55-.58.88.88 0 0 0 -.1-.68.84.84 0 0 0 -.97-.34z" fill="#fff"/><path d="m69.5 209.41-1-.37h1.31v-1.15h-2.6v-.56h1.25v-.72a9.42 9.42 0 0 0 2 1.23l.85-1.32a6.85 6.85 0 0 1 -3.9-2.92l.06-.12-1.68-.16a6.45 6.45 0 0 1 -3.57 3.47l.61 1.35a14.59 14.59 0 0 0 1.81-1.27v.46h1.24v.56h-2.55v1.11h1.44l-1 .39.48 1.55h-1.6v1.17h7.87v-1.11h-1.76zm-4.08-3.22a13.5 13.5 0 0 0 1.23-1.38 9.21 9.21 0 0 0 1.3 1.38zm-1 4.79 1.18-.45-.73-1.53h1v2zm2.79-1.98h1l-.7 1.48 1.14.46h-1.44z" fill="#fff"/><path d="m78.88 205.74h2.97v.83h1.15v-.83-.28-.76h-2.06v-1.2h-1.14v1.2h-2.06v.76.28.83h1.14z" fill="#fff"/><path d="m80.93 209.6h1.38v-.82l.27.21.85-.75a4.61 4.61 0 0 1 -1.85-2.05l-1 .44a7.44 7.44 0 0 0 1.42 1.87h-3.26a7.16 7.16 0 0 0 1.41-1.87l-1-.44a4.68 4.68 0 0 1 -1.55 1.86v-.84l-.81.18v-.92h.76v-1.16h-.76v-1.81h-1.16v1.81h-1.12v1.16h1.12v1.17l-1.28.29.22 1.27 1.06-.29v1.94a.23.23 0 0 1 -.23.23h-.6l.48 1.22h.36a1.15 1.15 0 0 0 1.15-1.15v-2.56l.69-.19.67.59.27-.21v.82h1.38v1.48h-2.21v1.09h5.55v-1.09h-2.21z" fill="#fff"/><path d="m183.94 218.07a.9.9 0 0 0 1 .85c.63 0 .88-.33.88-.61s-.31-.45-1.13-.65c-.44-.11-1.42-.36-1.42-1.33 0-.49.32-1.24 1.62-1.24.86 0 1.66.34 1.69 1.34h-.89c0-.23-.11-.65-.81-.65-.27 0-.75.09-.75.44s.27.41 1 .58 1.59.38 1.59 1.47a1.28 1.28 0 0 1 -.73 1.16 2.45 2.45 0 0 1 -1 .2 1.61 1.61 0 0 1 -1.83-1.52z" fill="#fff"/><path d="m189.17 215.13v2.42a2.07 2.07 0 0 0 .11 1 .86.86 0 0 0 .79.39c.86 0 .86-.54.86-1.3v-2.47h.9v2.35a2.91 2.91 0 0 1 -.25 1.58 1.68 1.68 0 0 1 -1.48.61c-1.83 0-1.83-1.13-1.83-2.15v-2.39z" fill="#fff"/><path d="m175.77 215.13h3.31v.76h-2.41v1h2.25v.75h-2.25v1.21h2.5v.76h-3.4z" fill="#fff"/><path d="m193.67 215.13h.87l1.81 3v-3h.83v4.47h-.9l-1.79-2.91v2.91h-.83z" fill="#fff"/><path d="m181.26 219a.58.58 0 1 0 -.58.57.58.58 0 0 0 .58-.57z" fill="#fff"/><path d="m203.55 215.91a1.58 1.58 0 0 1 .53.07.39.39 0 0 1 .24.41.43.43 0 0 1 -.18.4.84.84 0 0 1 -.47.11h-1.09v-1zm.14 1.73a1.3 1.3 0 0 1 .45.08.49.49 0 0 1 .29.48.55.55 0 0 1 -.3.56 1 1 0 0 1 -.46.08h-1.09v-1.2zm.16-2.5h-2.16v4.47h2a3.24 3.24 0 0 0 .64-.06 1.2 1.2 0 0 0 .5-.22 1.38 1.38 0 0 0 .32-.36 1.31 1.31 0 0 0 .2-.71 1.15 1.15 0 0 0 -.18-.65 1 1 0 0 0 -.51-.4 1 1 0 0 0 .34-.21 1 1 0 0 0 .2-.66 1.13 1.13 0 0 0 -.2-.69 1.36 1.36 0 0 0 -1.15-.51z" fill="#fff"/><path d="m208.58 216.16.57 1.76h-1.15zm-2.11 3.45h1l.3-.92h1.65l.29.92h1l-1.58-4.47h-1.06z" fill="#fff"/><path d="m212 215.14h1l1.78 3.11v-3.11h.86v4.47h-.93l-1.82-3.17v3.17h-.89z" fill="#fff"/><path d="m217.62 215.14h.93v1.86l1.72-1.84h1.21l-1.83 1.84 1.93 2.63h-1.21l-1.37-2-.45.45v1.5h-.93z" fill="#fff"/><path d="m168.68 208a10 10 0 0 1 -12.43 13 9.95 9.95 0 0 1 -1.56-18.16 10 10 0 0 1 14 5.11z" fill="#fff"/><path d="m159.87 209.68a.19.19 0 0 0 -.12.07c.07-.01.1-.03.12-.07z" fill="#00a19b"/><path d="m167.93 212.78h.32c-.06-.2-.36-.12-.48-.31a.54.54 0 0 1 .4.09c-.06 0-.2 0-.16-.17a9.65 9.65 0 0 1 -2.48-1.36c-.63-.37-1-1.24-1.68-1.48a4.89 4.89 0 0 1 -.26-.51h-.08a4.22 4.22 0 0 1 -.25-.53.55.55 0 0 0 -.44-.18c-.21.12-.55-.08-.69 0l.12.06c0 .06-.08.12-.17.1a6.46 6.46 0 0 1 -1.15-1.24c.18-.5-.47-.62-.71-1s-.77 0-1.1.1a9.68 9.68 0 0 0 -1.72-.32c-.23.06-.37.32-.49.48-.36.51-.51 1.14-.93 1.65-.12.22-.41.12-.57.28a1.8 1.8 0 0 0 -1 .31s0 .1-.09.08a3.19 3.19 0 0 1 -.32.46c-.3.41-.85.53-1.26.77a5.7 5.7 0 0 0 -1.44 1.06c-.22.32-.53.51-.75.81.22-.06.18-.32.43-.28.06.16-.13.22-.15.32s.17-.1.25-.08-.14.18-.23.26c.09 0 .07.06.11.08s.26-.16.4-.08a3.3 3.3 0 0 1 -.34.33c.08 0 .14 0 .18-.06s.26-.23.38-.25l-.22.31.24-.18c0 .08-.14.14 0 .22.17-.08.21-.26.37-.35 0 .17-.2.29-.28.43.08-.08.32-.14.28-.3a2.71 2.71 0 0 0 .47-.49c.44-.49.75-1 1.4-1.14.36-.3.91-.3 1.25-.67.05-.08.15-.24.29-.2a.17.17 0 0 1 .2-.12v.08c.27-.32.75-.2 1-.51a1.5 1.5 0 0 0 .71-.65 1.88 1.88 0 0 1 .36-.5 2.25 2.25 0 0 1 .31-.51 1.52 1.52 0 0 1 .6 0c.23.33.65.14 1 .16 0 .19.2 0 .22.19.29.14.39.58.65.83a.8.8 0 0 0 -.4.48c-.18 0-.11.19-.15.28a.19.19 0 0 1 .19.07l-.05.06a7.45 7.45 0 0 0 -.89.53c-.08.06-.16.16-.22.2h.09s-.06 0 0 .09 0 0 0 0c.1 0 .2-.14.27-.06s0 0 0 .06c.09-.14.21 0 .27 0-.14.12-.31.27-.47.39h.16c-.06.18-.28.12-.38.28.12 0 0 .14 0 .16s.16-.12.26-.06c-.06.14-.24.16-.26.33.14-.08.22-.33.4-.25 0 .06-.12.08-.06.19s.13-.13.23-.08.08 0 .06.08.24 0 .32-.08c.27-.39.81-.33 1.2-.51v-.1c.06-.25.42-.19.61-.27.06-.24.38-.06.48-.28s.21 0 .33 0 .38-.06.51-.14c.38-.08.69.38.91.61a5.57 5.57 0 0 0 1.83 1.35c-.33-.24-.69-.4-1-.66 0-.07.08 0 .12 0 .29.22.59.38.88.58a8.09 8.09 0 0 0 2 1.07l-.09-.09s0-.06 0-.08l.13.08c0-.08.12-.08.18-.1-.1-.18-.35-.24-.53-.34a8.28 8.28 0 0 1 -1.6-.92 14 14 0 0 0 1.82.9c.09.2.25.08.41.14.01.16-.06.16-.06.1z" fill="#00a19b"/><path d="m159.42 210h-.1c.06.17-.14.12-.2.19v-.07l-.16.13c0 .16-.26.06-.28.23.14 0 .26-.19.44-.17 0-.19.2-.26.3-.31z" fill="#00a19b"/><path d="m158.78 210.1c-.1.06-.18.06-.21.16a.31.31 0 0 0 .21-.16z" fill="#00a19b"/><path d="m193.17 210.49h1.96v-5.71h1.41v7.6h-1.41v-.51l-5.4-.02-.01.49h-1.45v-7.63h1.45v5.78l1.99-.02v-7h1.46z" fill="#fff"/><path d="m180.66 210.94v-2.51h3v-1.38l-3-.02v-1.98h3.21l.01-1.43h-7.89v1.43h3.18v1.98h-2.98v1.4h2.98v2.51h-3.63v1.4h8.73v-1.4z" fill="#fff"/><path d="m182 208.86a.86.86 0 0 0 -.41 1.37.9.9 0 0 0 .93.27.88.88 0 0 0 .57-.6.87.87 0 0 0 -.11-.69.85.85 0 0 0 -.98-.35z" fill="#fff"/><path d="m202.98 209.15h1.42v.9h-1.42z" fill="#fff" transform="matrix(.21303039 -.97704557 .97704557 .21303039 -44.48 363.98)"/><path d="m208.07 210.19 1.24-.9-.84-.84s-.71.46-1 .65a4 4 0 0 1 -.16-.93h1.5v-4.53h-4.28v7.28l-.41.07v-.57l-1.17.21v-2.1h1.28v-1.13h-1.28v-.4h.93v-.55l.09.06.58-1.33a3.24 3.24 0 0 1 -1.51-1.62h-1.2a3.71 3.71 0 0 1 -1.6 1.88l.58 1.33.25-.23v.46h.75v.45h-1.38v1.13h1.38v2.29l-1.41.25v1.26l3.58-.69v.67l2.88-.51-.06-1.14a4.36 4.36 0 0 0 1.82 1.68l.61-1.2a6 6 0 0 1 -1.17-1zm-6.34-4.37a5.19 5.19 0 0 0 .69-.88 4.12 4.12 0 0 0 .75.88zm4.06-.93h1.77v.6h-1.77zm0 5.81v-2.53h.37a4.85 4.85 0 0 0 .58 2.37zm0-3.57v-.6h1.77v.6z" fill="#fff"/><path d="m201.52 210.43-.21-1.52-.94.18.22 1.52z" fill="#fff"/><path d="m216.06 203.57h4.98v1.33h-4.98z" fill="#fff"/><path d="m221.4 206.44h-5.78l-1-.7a9.84 9.84 0 0 1 -2.15 2.53l.61 1.46s.28-.24.67-.63v3.16h1.36v-4.74a7.25 7.25 0 0 0 .47-.75v1h3.09v3a.2.2 0 0 1 -.19.19h-1.58l.53 1.32h1.63a1 1 0 0 0 1-1v-3.52h1.32z" fill="#fff"/><path d="m215.61 204.23c-.39-.26-.77-.54-1.15-.8a8.13 8.13 0 0 1 -1.9 1.81l.63 1.31a10.25 10.25 0 0 0 2.42-2.32z" fill="#fff"/><path d="m290.54 177.83h53.84v71.52h-53.84z" fill="#00a19b"/><path d="m333.15 198.77a16.17 16.17 0 0 1 -20.15 21.23 16.18 16.18 0 0 1 -2.54-29.52 16.18 16.18 0 0 1 22.74 8.31z" fill="#fff"/><path d="m332 206.59h.51c-.1-.33-.58-.2-.77-.5a.94.94 0 0 1 .64.14c-.1-.06-.32-.06-.26-.26a15.84 15.84 0 0 1 -4-2.22c-1-.6-1.58-2-2.73-2.41a7 7 0 0 1 -.42-.82l-.12.06a4.55 4.55 0 0 1 -.42-.86.86.86 0 0 0 -.71-.29c-.35.2-.89-.13-1.12.06l.19.1c-.06.1-.12.2-.28.17a10.75 10.75 0 0 1 -1.86-2c.28-.83-.77-1-1.16-1.62-.54-.43-1.25 0-1.79.17a15.12 15.12 0 0 0 -2.79-.53c-.39.1-.61.53-.8.79-.58.82-.84 1.85-1.51 2.67-.19.36-.67.2-.93.46a2.92 2.92 0 0 0 -1.57.5c0 .06-.06.16-.16.13a6.31 6.31 0 0 1 -.51.76c-.48.66-1.38.85-2.06 1.25a9.44 9.44 0 0 0 -2.37 1.66c-.35.52-.87.82-1.22 1.32.35-.1.29-.53.7-.47.1.27-.22.37-.25.53.13-.06.29-.16.42-.13a1 1 0 0 1 -.39.43c.16-.07.13.1.19.13s.42-.26.64-.13a6.43 6.43 0 0 1 -.54.53c.13 0 .22 0 .29-.1.22 0 .41-.36.61-.39l-.36.49.39-.3c.1.13-.23.23-.07.37.29-.14.36-.43.61-.56 0 .26-.32.46-.44.69.12-.13.51-.23.44-.5a4.12 4.12 0 0 0 .77-.79c.71-.79 1.22-1.61 2.28-1.85.58-.5 1.47-.5 2-1.09.09-.13.25-.4.48-.33v-.07a.26.26 0 0 1 .32-.19v.13c.45-.53 1.22-.33 1.57-.83v.07a2.65 2.65 0 0 0 1.16-1.06 3.32 3.32 0 0 1 .57-.82 3.14 3.14 0 0 1 .52-.82 2.22 2.22 0 0 1 1 0c.38.53 1.06.23 1.63.26 0 .3.32 0 .35.3.48.23.65 1 1.06 1.35a1.34 1.34 0 0 0 -.64.79c-.3.05-.18.3-.25.45a.31.31 0 0 1 .31.11l-.09.1a15.61 15.61 0 0 0 -1.44.86l.06.07c-.13.09-.26.26-.35.33h.11c-.05 0-.1.07-.07.14h.09c.16 0 .32-.23.45-.1s0 .06 0 .1c.16-.23.35 0 .44 0-.22.2-.51.43-.76.63h.25c-.09.29-.45.19-.61.46.19 0 .07.23 0 .26.13 0 .26-.19.42-.1-.1.23-.39.27-.42.53.23-.13.36-.53.64-.4 0 .1-.19.14-.09.3.13 0 .22-.2.38-.13s.13.07.1.13c.13-.16.38 0 .51-.13.45-.63 1.32-.53 2-.82v-.17c.1-.4.68-.3 1-.43.09-.39.61-.1.77-.46.19-.16.35.07.54.07s.61-.1.84-.23c.6-.14 1.12.62 1.47 1a9.11 9.11 0 0 0 3 2.2c-.54-.39-1.12-.66-1.67-1.08 0-.1.13-.07.2-.07.48.36 1 .63 1.44 1a12.7 12.7 0 0 0 3.3 1.72l-.16-.13s0-.1 0-.13l.23.13c0-.13.19-.13.29-.16-.17-.3-.58-.4-.87-.56a12.34 12.34 0 0 1 -2.6-1.5 20.64 20.64 0 0 0 2.94 1.46c.16.33.42.13.68.23-.1.05-.17.05-.17-.05z" fill="#00a19b"/><path d="m318.84 201.55a.36.36 0 0 0 -.2.11c.12-.01.17-.05.2-.11z" fill="#00a19b"/><path d="m318.11 202h-.11c.1.27-.23.2-.33.3v-.1l-.26.2c0 .27-.42.1-.45.37.23 0 .42-.3.71-.27-.05-.24.33-.34.44-.5z" fill="#00a19b"/><path d="m317.07 202.23c-.16.1-.29.1-.35.27a.52.52 0 0 0 .35-.27z" fill="#00a19b"/><path d="m304.81 238.08a.41.41 0 0 0 -.41-.41.41.41 0 0 0 0 .81.41.41 0 0 0 .41-.4z" fill="#fff"/><path d="m300.25 235.13h2.55v.58h-1.86v.76h1.73v.58h-1.73v.95h1.92v.58h-2.61z" fill="#fff"/><path d="m307.32 237.38a.71.71 0 0 0 .75.65c.48 0 .67-.25.67-.47s-.24-.34-.87-.5c-.34-.08-1.09-.27-1.09-1 0-.37.24-.95 1.24-.95.67 0 1.28.26 1.31 1h-.69c0-.18-.08-.5-.63-.5-.2 0-.57.06-.57.34s.21.32.76.44 1.23.3 1.23 1.13a1 1 0 0 1 -.56.9 2 2 0 0 1 -.81.15 1.24 1.24 0 0 1 -1.4-1.17z" fill="#fff"/><path d="m311.81 235.13v1.87a1.63 1.63 0 0 0 .08.73.65.65 0 0 0 .61.31c.66 0 .66-.42.66-1v-1.89h.69v1.8a2.23 2.23 0 0 1 -.19 1.22 1.3 1.3 0 0 1 -1.14.47c-1.4 0-1.4-.87-1.4-1.66v-1.83z" fill="#fff"/><path d="m315.53 235.13h.67l1.39 2.29v-2.29h.64v3.43h-.69l-1.37-2.23v2.23h-.64z" fill="#fff"/><path d="m324 235.13h2.36v.58h-1.66v.82h1.43v.58h-1.43v1.45h-.7z" fill="#fff"/><path d="m328.21 235.13h.69v1.35h1.36v-1.35h.74v3.43h-.69v-1.5h-1.41v1.5h-.69z" fill="#fff"/><path d="m335.52 237.5a1.34 1.34 0 0 1 -1.41 1.1 1.56 1.56 0 0 1 -1.56-1.74 1.59 1.59 0 0 1 1.59-1.79 1.48 1.48 0 0 1 1.05.39 1.42 1.42 0 0 1 .32.62l-.68.16a.71.71 0 0 0 -.72-.58c-.85 0-.85.94-.85 1.16a1.6 1.6 0 0 0 .18.85.75.75 0 0 0 .66.34c.46 0 .67-.35.75-.72z" fill="#fff"/><path d="m313.9 231.39h1.48v-4.31h1.07v5.83h-1.07v-.48l-4.07-.01v.49h-1.1v-5.88h1.09v4.36l1.5-.01v-5.29h1.1z" fill="#fff"/><path d="m303.96 231.74v-1.91h2.27v-1.04l-2.27-.01v-1.5h2.43v-1.07h-5.95v1.07h2.4v1.5h-2.25v1.05h2.25v1.91h-2.74v1.05h6.59v-1.05z" fill="#fff"/><path d="m305 230.16a.68.68 0 0 0 -.46.55.71.71 0 0 0 .15.48.65.65 0 0 0 1.05-.76.65.65 0 0 0 -.74-.27z" fill="#fff"/><path d="m325.07 230.67-.8-.29h1v-.88h-2v-.43h1v-.56a7.52 7.52 0 0 0 1.56 1l.66-1a5.35 5.35 0 0 1 -3-2.26v-.09l-1.29-.13a5 5 0 0 1 -2.76 2.69l.47 1a11 11 0 0 0 1.4-1v.36h1v.43h-2v.88h1.11l-.8.31.38 1.19h-1.24v.91h6.08v-.91h-1.34c.07-.17.5-1.15.57-1.22zm-3.16-2.49a10.16 10.16 0 0 0 .95-1.06 7.46 7.46 0 0 0 1 1.06h-2zm-.79 3.7.92-.34-.55-1.16h.79v1.5zm2.18-1.5h.78l-.53 1.15.88.35h-1.13z" fill="#fff"/><path d="m332.32 227.84h2.3v.63h.88v-.63-.22-.59h-1.59v-.92h-.88v.92h-1.59v.59.22.63h.88z" fill="#fff"/><path d="m333.91 230.82h1.09v-.63l.22.16.65-.58a3.55 3.55 0 0 1 -1.43-1.59l-.77.34a5.46 5.46 0 0 0 1.09 1.45h-2.52a5.46 5.46 0 0 0 1.09-1.45l-.77-.34a3.5 3.5 0 0 1 -1.2 1.44v-.62l-.62.14v-.71h.58v-.9h-.58v-1.39h-.9v1.39h-.87v.9h.87v.91l-1 .22.17 1 .82-.22v1.5a.18.18 0 0 1 -.18.18h-.46l.37.94h.28a.89.89 0 0 0 .89-.89v-2l.53-.15.52.46.21-.16v.63h1.01v1.15h-1.71v.85h4.3v-.85h-1.71z" fill="#fff"/><path d="m393.63 177.83h53.84v71.52h-53.84z" fill="#00a19b"/><path d="m436.47 198.94a16.6 16.6 0 0 1 -20.73 21.78 16.61 16.61 0 0 1 -2.61-30.31 16.61 16.61 0 0 1 23.34 8.53z" fill="#fff"/><path d="m411.73 203.68s0 0 0 0z" fill="#00a19b"/><path d="m421.78 201.8a.36.36 0 0 0 -.2.11.2.2 0 0 0 .2-.11z" fill="#00a19b"/><path d="m435.23 207h.53c-.1-.34-.59-.2-.79-.51a1 1 0 0 1 .66.14c-.1-.07-.33-.07-.27-.28a15.93 15.93 0 0 1 -4.14-2.28c-1.05-.61-1.61-2.06-2.8-2.47a7.36 7.36 0 0 1 -.43-.84l-.13.06a5.49 5.49 0 0 1 -.43-.88.89.89 0 0 0 -.72-.3c-.36.2-.92-.14-1.15.07l.2.1c-.07.1-.14.2-.3.17a11.4 11.4 0 0 1 -1.91-2.07c.3-.84-.79-1-1.18-1.66-.56-.44-1.29 0-1.85.17a15.72 15.72 0 0 0 -2.86-.54c-.39.1-.62.54-.82.81-.59.85-.86 1.9-1.55 2.75-.2.37-.69.2-1 .47a3 3 0 0 0 -1.62.51c0 .07-.06.17-.16.13a5.13 5.13 0 0 1 -.53.78c-.49.68-1.41.88-2.1 1.29a9.34 9.34 0 0 0 -2.4 1.76c-.36.54-.89.85-1.25 1.36.36-.11.3-.55.72-.48.1.27-.23.37-.26.54.13-.06.29-.17.43-.13a1.05 1.05 0 0 1 -.4.44c.17-.07.13.1.2.13s.43-.27.66-.13c-.2.2-.43.44-.56.54.13 0 .23 0 .29-.1.23 0 .43-.37.63-.4l-.36.5.39-.3c.1.13-.23.24-.06.37.29-.13.36-.44.62-.57 0 .27-.33.47-.46.71.13-.14.53-.24.46-.51a5 5 0 0 0 .79-.81c.72-.82 1.25-1.66 2.34-1.9.59-.51 1.51-.51 2.07-1.12.1-.14.26-.41.49-.34v-.07a.28.28 0 0 1 .33-.2v.13c.46-.54 1.25-.33 1.61-.84v.07a2.65 2.65 0 0 0 1.18-1.09 3.11 3.11 0 0 1 .6-.84 3.3 3.3 0 0 1 .52-.85 2.54 2.54 0 0 1 1 0c.39.55 1.09.24 1.68.28 0 .3.33 0 .36.3.49.24.66 1 1.09 1.39a1.31 1.31 0 0 0 -.66.81c-.31 0-.19.31-.26.46a.33.33 0 0 1 .32.11l.01.16a14.5 14.5 0 0 0 -1.49.88l.07.06c-.13.11-.26.28-.36.34h.1s-.1.06-.07.14h.1s0 0 0 0c.17 0 .33-.24.46-.1s0 .06 0 .1c.16-.24.36 0 .46 0-.23.21-.53.44-.79.65h.26c-.09.3-.46.2-.62.47.2 0 .06.24 0 .27.13 0 .26-.2.43-.1-.1.23-.4.27-.43.54.23-.14.36-.54.66-.41 0 .1-.2.14-.1.31.13 0 .23-.21.39-.14a.1.1 0 0 1 .1.14c.13-.17.4 0 .53-.14.46-.64 1.35-.54 2-.84v-.17c.1-.41.69-.31 1-.44.1-.41.63-.1.79-.48.2-.17.37.07.56.07s.63-.1.86-.24c.62-.13 1.15.65 1.51 1a9.38 9.38 0 0 0 3.06 2.27c-.56-.41-1.15-.68-1.71-1.12 0-.1.13-.07.2-.07.49.38 1 .65 1.48 1a13.13 13.13 0 0 0 3.39 1.78l-.17-.14s0-.1 0-.13l.23.13c0-.13.19-.13.29-.17-.16-.3-.59-.4-.88-.57a12.33 12.33 0 0 1 -2.67-1.54 20.84 20.84 0 0 0 3 1.5c.16.34.43.14.69.24.03-.02-.1-.02-.1-.09z" fill="#00a19b"/><path d="m421 202.29-.17-.07c.1.27-.23.2-.33.31v-.11l-.27.21c0 .28-.43.11-.46.38.23 0 .43-.31.73-.27.03-.21.36-.32.5-.45z" fill="#00a19b"/><path d="m420 202.49c-.17.11-.3.11-.37.28a.51.51 0 0 0 .37-.28z" fill="#00a19b"/><path d="m409.27 238.32a.71.71 0 0 0 .75.66c.49 0 .68-.25.68-.47s-.24-.35-.87-.51c-.34-.08-1.1-.27-1.1-1 0-.38.24-1 1.25-1 .67 0 1.29.26 1.32 1h-.7c0-.18-.08-.5-.63-.5-.21 0-.58.06-.58.34s.22.32.77.45 1.24.29 1.24 1.14a1 1 0 0 1 -.57.9 1.87 1.87 0 0 1 -.81.16 1.26 1.26 0 0 1 -1.42-1.18z" fill="#fff"/><path d="m413.34 236v1.87a1.68 1.68 0 0 0 .08.75.65.65 0 0 0 .62.3c.66 0 .66-.42.66-1v-1.92h.7v1.82a2.29 2.29 0 0 1 -.19 1.23 1.31 1.31 0 0 1 -1.15.48c-1.42 0-1.42-.88-1.42-1.68v-1.85z" fill="#fff"/><path d="m402.94 236h2.57v.59h-1.88v.77h1.75v.64h-1.75v.94h1.94v.59h-2.63z" fill="#fff"/><path d="m416.83 236h.68l1.4 2.32v-2.32h.65v3.47h-.7l-1.38-2.26v2.26h-.65z" fill="#fff"/><path d="m407.26 239.15a.41.41 0 0 0 -.41-.42.42.42 0 1 0 0 .84.41.41 0 0 0 .41-.42z" fill="#fff"/><path d="m424.5 236.64a1.15 1.15 0 0 1 .41.06.31.31 0 0 1 .19.32.34.34 0 0 1 -.14.31.7.7 0 0 1 -.37.09h-.84v-.78zm.11 1.35a.85.85 0 0 1 .35.06.37.37 0 0 1 .22.37.45.45 0 0 1 -.23.44.82.82 0 0 1 -.35.06h-.85v-.92zm.12-2h-1.67v3.48h1.56a2.46 2.46 0 0 0 .49-.05 1 1 0 0 0 .39-.17 1.12 1.12 0 0 0 .25-.28 1 1 0 0 0 .15-.55.92.92 0 0 0 -.13-.51.73.73 0 0 0 -.4-.3.81.81 0 0 0 .26-.2.76.76 0 0 0 .16-.51.89.89 0 0 0 -.16-.54 1.06 1.06 0 0 0 -.9-.36z" fill="#fff"/><path d="m428.41 236.84.44 1.37h-.85zm-1.65 2.68h.76l.24-.72h1.24l.23.72h.78l-1.18-3.52h-.83z" fill="#fff"/><path d="m431.08 236h.76l1.38 2.42v-2.42h.67v3.48h-.72l-1.41-2.47v2.47h-.68z" fill="#fff"/><path d="m435.42 236h.73v1.43l1.33-1.43h.94l-1.42 1.48 1.5 2h-.94l-1.07-1.48-.34.36v1.16h-.73z" fill="#fff"/><path d="m416.62 232.44h1.52v-4.44h1.1v5.91h-1.1v-.4l-4.19-.01-.01.37h-1.12v-5.92h1.12v4.49l1.55-.01v-5.44h1.13z" fill="#fff"/><path d="m406.73 232.79v-1.96h2.33v-1.07l-2.33-.01v-1.54h2.5v-1.1h-6.13v1.1h2.47v1.54h-2.31v1.08h2.31v1.96h-2.81v1.08h6.77v-1.08z" fill="#fff"/><path d="m407.77 231.17a.71.71 0 0 0 -.47.57.67.67 0 0 0 .88.7.68.68 0 0 0 .44-.46.72.72 0 0 0 -.09-.54.67.67 0 0 0 -.76-.27z" fill="#fff"/><path d="m424.24 231.4h1.1v.7h-1.1z" fill="#fff" transform="matrix(.21303039 -.97704557 .97704557 .21303039 107.89 597.44)"/><path d="m428.19 232.2 1-.7-.65-.65-.77.51a3.57 3.57 0 0 1 -.13-.72h1.17v-3.52h-3.32v5.65l-.32.06v-.44l-.91.15v-1.62h1v-.92h-1v-.34h.72v-.43l.07.05.46-1a2.41 2.41 0 0 1 -1.17-1.25h-.94a2.88 2.88 0 0 1 -1.24 1.46l.45 1 .19-.18v.36h.59v.33h-1.08v.89h1.08v1.78l-1.1.19v1l2.78-.53v.52l2.24-.39-.05-.89a3.34 3.34 0 0 0 1.42 1.3l.47-.93a4.42 4.42 0 0 1 -.96-.74zm-4.92-3.39a4.45 4.45 0 0 0 .54-.68 3.08 3.08 0 0 0 .58.68zm3.15-.72h1.37v.46h-1.37zm0 4.51v-2h.29a3.75 3.75 0 0 0 .45 1.83zm0-2.77v-.47h1.37v.47z" fill="#fff"/><path d="m423.11 232.39-.17-1.18-.72.14.16 1.18z" fill="#fff"/><path d="m434.33 227.06h3.86v1.03h-3.86z" fill="#fff"/><path d="m438.48 229.29h-4.48l-.76-.54a7.54 7.54 0 0 1 -1.67 2l.48 1.14s.22-.19.52-.49v2.45h1.05v-3.68a5.15 5.15 0 0 0 .37-.58v.76h2.4v2.33a.15.15 0 0 1 -.15.14h-1.24l.41 1h1.26a.77.77 0 0 0 .78-.77v-2.73h1z" fill="#fff"/><path d="m434 227.57c-.3-.19-.6-.41-.89-.61a6.53 6.53 0 0 1 -1.48 1.4l.49 1a7.88 7.88 0 0 0 1.88-1.79z" fill="#fff"/><path d="m30.5 315a10 10 0 0 1 -12.43 13 10 10 0 0 1 -1.56-18.17 10 10 0 0 1 14 5.12z" fill="#fff"/><path d="m29.75 319.8h.32c-.06-.21-.35-.12-.47-.31a.52.52 0 0 1 .39.09c-.06 0-.2 0-.16-.16a9.82 9.82 0 0 1 -2.48-1.42c-.63-.37-1-1.24-1.68-1.49a2.92 2.92 0 0 1 -.25-.5h-.08a3.24 3.24 0 0 1 -.26-.53.54.54 0 0 0 -.43-.18c-.22.12-.55-.08-.69 0l.11.06c0 .06-.07.12-.17.1a6.46 6.46 0 0 1 -1.15-1.24c.18-.5-.47-.62-.71-1s-.77 0-1.1.1a9.51 9.51 0 0 0 -1.72-.32c-.23.06-.37.32-.49.48-.35.51-.51 1.14-.93 1.65-.11.22-.41.12-.57.28a1.81 1.81 0 0 0 -1 .3c0 .05 0 .11-.1.09a3.19 3.19 0 0 1 -.32.46c-.29.41-.85.53-1.26.77a5.7 5.7 0 0 0 -1.44 1.06c-.22.32-.53.51-.75.81.22-.06.18-.33.44-.28.05.16-.14.22-.16.32s.17-.1.25-.08a.58.58 0 0 1 -.23.26c.1 0 .08.06.11.08s.26-.16.4-.08c-.12.12-.26.27-.34.33.08 0 .14 0 .18-.06s.26-.23.38-.25l-.22.31.24-.19c.06.09-.14.15 0 .23.17-.08.21-.27.37-.35 0 .17-.2.29-.27.43.07-.08.31-.14.27-.31a2.37 2.37 0 0 0 .47-.48c.44-.49.75-1 1.41-1.14.35-.3.9-.3 1.24-.67.06-.08.15-.24.29-.2a.17.17 0 0 1 .2-.12v.08c.28-.33.75-.2 1-.51a1.59 1.59 0 0 0 .71-.65 1.66 1.66 0 0 1 .35-.5 1.82 1.82 0 0 1 .32-.51 1.47 1.47 0 0 1 .59 0c.23.32.65.14 1 .16 0 .18.2 0 .22.18.3.15.39.59.65.84a.79.79 0 0 0 -.39.48c-.26 0 0 .33-.28.35a.21.21 0 0 1 .32 0l-.06.06a8.33 8.33 0 0 0 -.89.53c-.08.06-.16.16-.22.2h.07s-.06 0 0 .09h.05c.1 0 .2-.14.28-.06s0 0 0 .06c.1-.14.21 0 .27 0-.13.12-.31.26-.47.39h.16c-.06.18-.28.12-.38.28.12 0 0 .14 0 .16s.16-.12.26-.06c-.06.14-.24.16-.26.33.14-.09.22-.33.4-.25 0 .06-.12.08-.06.19s.14-.13.23-.09a.06.06 0 0 1 .06.09c.08-.11.24 0 .32-.09.28-.38.81-.32 1.2-.5v-.1c.06-.25.42-.19.61-.27.06-.24.38-.06.48-.28s.21 0 .33 0 .38-.06.52-.14c.37-.08.69.38.9.61a5.6 5.6 0 0 0 1.84 1.35c-.34-.24-.69-.4-1-.67 0-.06.08 0 .12 0 .29.23.59.39.89.59a7.93 7.93 0 0 0 2 1.07l-.1-.09s0-.06 0-.08l.14.08c0-.08.11-.08.17-.1-.09-.18-.35-.24-.53-.34a7.92 7.92 0 0 1 -1.59-.92 14.67 14.67 0 0 0 1.82.9c.1.2.26.08.41.14-.02.21-.1.21-.1.15z" fill="#00a19b"/><path d="m21.24 317h-.1c.06.16-.14.12-.2.19v-.07l-.15.13c0 .16-.26.06-.28.23.14 0 .25-.19.43-.17 0-.17.2-.24.3-.31z" fill="#00a19b"/><path d="m20.61 317.11c-.1.07-.18.07-.22.17a.3.3 0 0 0 .22-.17z" fill="#00a19b"/><path d="m114 318.71h4.78v1.09h-3.49v1.44h3.25v1.09h-3.25v1.74h3.61v1.09h-4.9z" fill="#fff"/><path d="m124.53 323a1.31 1.31 0 0 0 1.4 1.23c.91 0 1.27-.48 1.27-.89s-.45-.66-1.64-1c-.64-.16-2.06-.51-2.06-1.93 0-.71.46-1.8 2.35-1.8 1.26 0 2.42.49 2.47 1.95l-1.31.06c-.05-.34-.15-.94-1.18-.94-.39 0-1.09.12-1.09.64s.41.59 1.44.83 2.32.56 2.32 2.14a1.9 1.9 0 0 1 -1 1.69 3.58 3.58 0 0 1 -1.53.29 2.36 2.36 0 0 1 -2.66-2.21z" fill="#fff"/><path d="m132.11 318.71v3.49a2.8 2.8 0 0 0 .17 1.39 1.2 1.2 0 0 0 1.14.56c1.24 0 1.24-.78 1.24-1.88v-3.56h1.34v3.39a4.26 4.26 0 0 1 -.36 2.28 2.4 2.4 0 0 1 -2.14.89c-2.65 0-2.65-1.63-2.65-3.11v-3.45z" fill="#fff"/><path d="m138.61 318.71h1.27l2.62 4.29v-4.31h1.2v6.45h-1.3l-2.58-4.2v4.2h-1.21z" fill="#fff"/><path d="m148.9 318.71h4.43v1.09h-3.13v1.54h2.71v1.08h-2.71v2.74h-1.3z" fill="#fff"/><path d="m155.52 318.71h1.3v2.55h2.54v-2.55h1.3v6.45h-1.3v-2.82h-2.54v2.82h-1.3z" fill="#fff"/><path d="m168.51 323.19a2.55 2.55 0 0 1 -2.68 2.08c-1.74 0-2.94-1.27-2.94-3.28 0-1.79.91-3.38 3-3.38a2.77 2.77 0 0 1 2 .73 2.6 2.6 0 0 1 .61 1.16l-1.29.3a1.32 1.32 0 0 0 -1.36-1.08c-1.6 0-1.6 1.77-1.6 2.18a3 3 0 0 0 .34 1.62 1.44 1.44 0 0 0 1.24.63c.87 0 1.26-.65 1.43-1.36z" fill="#fff"/><path d="m121.62 324.34a.84.84 0 1 0 -.83.83.83.83 0 0 0 .83-.83z" fill="#fff"/><path d="m64.42 322.39h2.85v-8.28h2.04v11.21h-2.04v-.92l-7.84-.02-.01.94h-2.11v-11.31h2.1v8.38l2.89-.02v-10.17h2.12z" fill="#fff"/><path d="m45.53 323.06v-3.66h4.36v-2l-4.36-.02v-2.88h4.67v-2.07h-11.45v2.07h4.62v2.88h-4.33v2.02h4.33v3.66h-5.27v2.03h12.67v-2.03z" fill="#fff"/><path d="m47.47 320a1.24 1.24 0 0 0 -.58 2 1.25 1.25 0 0 0 2.17-.47 1.32 1.32 0 0 0 -.15-1 1.27 1.27 0 0 0 -1.44-.53z" fill="#fff"/><path d="m86.11 321-1.53-.56h2v-1.7h-3.86v-.83h1.85v-1.07a14.3 14.3 0 0 0 3 1.82l1.26-2a10.19 10.19 0 0 1 -5.8-4.34l.08-.18-2.49-.14a9.61 9.61 0 0 1 -5.31 5.17l.91 2a22.83 22.83 0 0 0 2.69-1.89v.69h1.85v.83h-3.82v1.7h2.15l-1.54.58.72 2.31h-2.38v1.75h11.69v-1.75h-2.58c.17-.39 1.06-2.25 1.11-2.39zm-6.06-4.79a19 19 0 0 0 1.83-2.05 14.26 14.26 0 0 0 1.93 2.05zm-1.52 7.12 1.76-.67-1.06-2.22h1.53v2.89zm4.19-2.89h1.5l-1 2.21 1.7.68h-2.2z" fill="#fff"/><path d="m100.97 315.56h4.42v1.23h1.7v-1.23-.42-1.13h-3.07v-1.77h-1.69v1.77h-3.06v1.13.42 1.23h1.7z" fill="#fff"/><path d="m104 321.3h2v-1.21l.4.31 1.27-1.13a6.85 6.85 0 0 1 -2.76-3l-1.48.66a11 11 0 0 0 2.09 2.79h-4.83a10.91 10.91 0 0 0 2.1-2.79l-1.49-.66a6.81 6.81 0 0 1 -2.24 2.73v-1.25l-1.2.27v-1.36h1.14v-1.73h-1.14v-2.68h-1.73v2.68h-1.66v1.73h1.66v1.74l-1.9.42.32 1.9 1.58-.44v2.9a.34.34 0 0 1 -.34.34h-.89l.72 1.8h.53a1.7 1.7 0 0 0 1.71-1.71v-3.8l1-.28 1 .88.41-.31v1.21h2v2.2h-3.22v1.62h8.26v-1.63h-3.31z" fill="#fff"/><path d="m230 351.63a3 3 0 0 1 .28 1.39 3.39 3.39 0 0 1 -.25 1.37 1.21 1.21 0 0 1 -1.18.79 1.18 1.18 0 0 1 -1.09-.64 3 3 0 0 1 -.3-1.44 3.51 3.51 0 0 1 .18-1.19 1.22 1.22 0 0 1 1.21-.93 1.2 1.2 0 0 1 1.15.65zm-.51 2.72a2.62 2.62 0 0 0 .23-1.31 3.36 3.36 0 0 0 -.17-1.15.64.64 0 0 0 -.66-.45.69.69 0 0 0 -.67.43 2.9 2.9 0 0 0 -.21 1.25 3.06 3.06 0 0 0 .14 1 .72.72 0 0 0 .7.58.74.74 0 0 0 .6-.35z" fill="#208ec5"/><path d="m231 354.44h.6v.62h-.6z" fill="#208ec5"/><path d="m232.83 354a.71.71 0 0 0 .41.61.93.93 0 0 0 .42.09.81.81 0 0 0 .68-.29 1.11 1.11 0 0 0 .22-.65.84.84 0 0 0 -.26-.66.92.92 0 0 0 -.63-.24 1 1 0 0 0 -.46.11 1.06 1.06 0 0 0 -.32.28h-.44l.31-2.2h2.12v.49h-1.74l-.17 1.14a1 1 0 0 1 .27-.16 1.25 1.25 0 0 1 .53-.1 1.36 1.36 0 0 1 .95.36 1.22 1.22 0 0 1 .39.92 1.6 1.6 0 0 1 -.36 1 1.39 1.39 0 0 1 -1.14.44 1.49 1.49 0 0 1 -.88-.28 1.12 1.12 0 0 1 -.43-.87z" fill="#208ec5"/><path d="m235.48 350.8h.93l1 1.5 1-1.5h.87l-1.44 2.06 1.51 2.18h-.92l-1.06-1.6-1 1.6h-.91l1.51-2.18z" fill="#208ec5"/><path d="m409.22 351.63a2.86 2.86 0 0 1 .28 1.39 3.23 3.23 0 0 1 -.25 1.37 1.21 1.21 0 0 1 -1.18.79 1.18 1.18 0 0 1 -1.09-.64 3 3 0 0 1 -.3-1.44 3.51 3.51 0 0 1 .18-1.19 1.23 1.23 0 0 1 1.22-.93 1.18 1.18 0 0 1 1.14.65zm-.51 2.72a2.51 2.51 0 0 0 .23-1.31 3.14 3.14 0 0 0 -.17-1.15.64.64 0 0 0 -.66-.45.69.69 0 0 0 -.67.43 2.9 2.9 0 0 0 -.21 1.25 3.06 3.06 0 0 0 .14 1 .72.72 0 0 0 .7.58.73.73 0 0 0 .64-.35z" fill="#208ec5"/><path d="m410.25 354.44h.59v.62h-.59z" fill="#208ec5"/><path d="m412.09 354a.71.71 0 0 0 .41.61.93.93 0 0 0 .42.09.81.81 0 0 0 .68-.29 1 1 0 0 0 .22-.65.84.84 0 0 0 -.26-.66.92.92 0 0 0 -.63-.24.88.88 0 0 0 -.45.11 1 1 0 0 0 -.33.28h-.44l.31-2.2h2.12v.49h-1.74l-.17 1.14a1.12 1.12 0 0 1 .27-.16 1.25 1.25 0 0 1 .53-.1 1.36 1.36 0 0 1 1 .36 1.22 1.22 0 0 1 .39.92 1.6 1.6 0 0 1 -.36 1 1.39 1.39 0 0 1 -1.14.44 1.49 1.49 0 0 1 -.88-.28 1.12 1.12 0 0 1 -.43-.87z" fill="#208ec5"/><path d="m414.74 350.8h.93l1 1.5 1-1.5h.87l-1.43 2.06 1.5 2.18h-.92l-1.06-1.6-1 1.6h-.9l1.5-2.18z" fill="#208ec5"/><path d="m238.63 341h.21v7.23h-.21z" fill="#00b2e1"/><path d="m227.94 341h.21v7.23h-.21z" fill="#00b2e1"/><path d="m417.51 341h.21v7.23h-.21z" fill="#00b2e1"/><path d="m406.83 341h.21v7.23h-.21z" fill="#00b2e1"/><path d="m424.19 332.94a2.84 2.84 0 0 1 .28 1.38 3.4 3.4 0 0 1 -.25 1.38 1.22 1.22 0 0 1 -1.18.78 1.16 1.16 0 0 1 -1.09-.64 2.9 2.9 0 0 1 -.3-1.43 3.51 3.51 0 0 1 .18-1.19 1.23 1.23 0 0 1 1.21-.94 1.2 1.2 0 0 1 1.15.66zm-.51 2.72a2.64 2.64 0 0 0 .23-1.32 3.11 3.11 0 0 0 -.17-1.14.64.64 0 0 0 -.66-.45.7.7 0 0 0 -.67.42 3 3 0 0 0 -.21 1.26 3.44 3.44 0 0 0 .13 1 .73.73 0 0 0 1.35.22z" fill="#208ec5"/><path d="m425.21 335.75h.6v.62h-.6z" fill="#208ec5"/><path d="m427.06 335.33a.73.73 0 0 0 .41.61.93.93 0 0 0 .42.08.78.78 0 0 0 .68-.29 1.08 1.08 0 0 0 .22-.64.84.84 0 0 0 -.26-.66.92.92 0 0 0 -.63-.24 1 1 0 0 0 -.45.1 1 1 0 0 0 -.33.29h-.44l.31-2.2h2.12v.5h-1.74l-.17 1.12a1 1 0 0 1 .27-.17 1.44 1.44 0 0 1 .53-.09 1.36 1.36 0 0 1 .95.36 1.2 1.2 0 0 1 .39.92 1.55 1.55 0 0 1 -.36 1 1.36 1.36 0 0 1 -1.14.45 1.43 1.43 0 0 1 -.88-.29 1.08 1.08 0 0 1 -.43-.86z" fill="#208ec5"/><path d="m429.71 332.11h.93l1 1.5 1-1.5h.87l-1.51 2.08 1.51 2.18h-.92l-1.06-1.6-1 1.6h-.91l1.51-2.18z" fill="#208ec5"/><path d="m424.19 301.76a2.86 2.86 0 0 1 .28 1.39 3.47 3.47 0 0 1 -.25 1.38 1.22 1.22 0 0 1 -1.18.78 1.16 1.16 0 0 1 -1.09-.64 2.92 2.92 0 0 1 -.3-1.43 3.53 3.53 0 0 1 .18-1.2 1.29 1.29 0 0 1 2.36-.28zm-.51 2.73a2.69 2.69 0 0 0 .23-1.32 3.14 3.14 0 0 0 -.17-1.15.64.64 0 0 0 -.66-.45.69.69 0 0 0 -.67.43 2.92 2.92 0 0 0 -.21 1.26 3.37 3.37 0 0 0 .13 1 .74.74 0 0 0 .71.58.76.76 0 0 0 .64-.35z" fill="#208ec5"/><path d="m425.21 304.57h.6v.63h-.6z" fill="#208ec5"/><path d="m427.06 304.15a.71.71 0 0 0 .41.61.93.93 0 0 0 .42.09.81.81 0 0 0 .68-.29 1.11 1.11 0 0 0 .22-.65.87.87 0 0 0 -.26-.66.91.91 0 0 0 -.63-.23.88.88 0 0 0 -.45.1 1 1 0 0 0 -.33.28h-.44l.31-2.2h2.12v.49h-1.74l-.17 1.14a1 1 0 0 1 .27-.16 1.25 1.25 0 0 1 .53-.1 1.32 1.32 0 0 1 .95.37 1.19 1.19 0 0 1 .39.92 1.59 1.59 0 0 1 -.36 1 1.39 1.39 0 0 1 -1.14.44 1.42 1.42 0 0 1 -.84-.3 1.12 1.12 0 0 1 -.43-.87z" fill="#208ec5"/><path d="m429.71 300.93h.93l1 1.5 1-1.5h.87l-1.51 2.07 1.51 2.19h-.92l-1.06-1.6-1 1.6h-.91l1.51-2.19z" fill="#208ec5"/><path d="m425.65 316.38h.93l1 1.5 1-1.5h.87l-1.45 2.08 1.5 2.18h-.91l-1.06-1.6-1 1.6h-.91l1.5-2.18z" fill="#208ec5"/><path d="m423.95 339.31h7.23v.21h-7.23z" fill="#00b2e1"/><path d="m423.95 298.1h7.23v.21h-7.23z" fill="#00b2e1"/><path d="m423.95 328.63h7.23v.21h-7.23z" fill="#00b2e1"/><path d="m423.95 308.58h7.23v.21h-7.23z" fill="#00b2e1"/><path d="m257.91 315a9.94 9.94 0 0 1 -12.42 13 9.95 9.95 0 0 1 -1.57-18.15 9.95 9.95 0 0 1 14 5.11z" fill="#fff"/><path d="m257.17 319.8h.31c-.06-.21-.35-.12-.47-.31a.51.51 0 0 1 .39.09s-.19 0-.15-.16a9.71 9.71 0 0 1 -2.49-1.36c-.63-.37-1-1.24-1.67-1.49a3.93 3.93 0 0 1 -.26-.5h-.08a2.54 2.54 0 0 1 -.25-.53.55.55 0 0 0 -.44-.18c-.22.12-.55-.08-.69 0l.12.06c0 .06-.08.12-.18.1a6.41 6.41 0 0 1 -1.14-1.24c.18-.5-.47-.62-.71-1s-.77 0-1.11.1a9.57 9.57 0 0 0 -1.71-.32c-.24.06-.38.32-.49.48-.36.51-.52 1.14-.93 1.65-.12.22-.41.12-.57.28a1.77 1.77 0 0 0 -1 .31s0 .1-.1.08a3.1 3.1 0 0 1 -.31.46c-.3.41-.85.53-1.26.77a5.53 5.53 0 0 0 -1.44 1.06c-.22.32-.54.5-.75.81.21-.06.17-.33.43-.28.06.16-.14.22-.16.32s.18-.1.26-.08-.14.18-.24.26c.1 0 .08.06.12.08s.26-.16.4-.08c-.12.12-.26.27-.34.33.08 0 .14 0 .18-.06s.25-.23.37-.25l-.21.31.23-.19c.06.09-.14.15 0 .23.18-.08.22-.27.38-.35 0 .17-.2.29-.28.43.08-.08.32-.14.28-.31a3.05 3.05 0 0 0 .47-.48c.43-.49.75-1 1.4-1.14.36-.3.91-.3 1.24-.67.06-.08.16-.24.3-.2a.17.17 0 0 1 .2-.12v.08c.27-.33.74-.2 1-.51a1.54 1.54 0 0 0 .71-.65 1.88 1.88 0 0 1 .36-.5 1.59 1.59 0 0 1 .31-.51 1.47 1.47 0 0 1 .59 0c.24.32.65.14 1 .16 0 .18.2 0 .22.18.29.15.39.59.65.84a.8.8 0 0 0 -.4.48c-.25 0 0 .33-.27.35a.2.2 0 0 1 .31 0l-.06.06a9.45 9.45 0 0 0 -.89.53c-.07.06-.15.16-.21.2h.06a.08.08 0 0 0 0 .09h.06c.09 0 .19-.14.27-.06s0 0 0 .06c.1-.14.22 0 .28 0l-.48.39h.16c-.06.18-.27.12-.37.28.12 0 0 .14 0 .16s.16-.12.25-.06-.23.16-.25.33c.14-.09.21-.33.39-.25 0 .06-.12.08-.06.18s.14-.12.24-.08.08 0 .06.08.24 0 .31-.08c.28-.38.81-.32 1.21-.5v-.1c.06-.25.41-.19.61-.27.06-.24.37-.06.47-.28s.22 0 .34 0 .37-.06.51-.14c.37-.08.69.38.91.61a5.57 5.57 0 0 0 1.83 1.35c-.33-.24-.69-.4-1-.67 0-.06.08 0 .12 0 .3.23.59.39.89.59a7.93 7.93 0 0 0 2 1.07l-.1-.09s0-.06 0-.08l.14.08c0-.08.12-.08.18-.1-.1-.18-.36-.24-.53-.34a7.72 7.72 0 0 1 -1.6-.92 13.87 13.87 0 0 0 1.81.9c.1.2.26.08.42.14-.02.15-.1.15-.1.09z" fill="#00a19b"/><path d="m248.66 317h-.1c.06.16-.14.12-.2.19v-.07l-.16.13c0 .16-.26.06-.28.23.14 0 .26-.19.44-.17 0-.17.2-.24.3-.31z" fill="#00a19b"/><path d="m248 317.11c-.1.07-.18.07-.22.17a.3.3 0 0 0 .22-.17z" fill="#00a19b"/><path d="m342.08 318.28h5v1.13h-3.63v1.5h3.38v1.14h-3.38v1.82h3.76v1.13h-5.12z" fill="#fff"/><path d="m353.09 322.7a1.37 1.37 0 0 0 1.47 1.28c.95 0 1.32-.5 1.32-.93s-.47-.68-1.71-1c-.67-.17-2.15-.54-2.15-2 0-.74.48-1.88 2.45-1.88 1.32 0 2.52.51 2.58 2l-1.36.06c-.06-.35-.16-1-1.23-1-.41 0-1.14.12-1.14.67s.42.62 1.5.88 2.42.57 2.42 2.22a2 2 0 0 1 -1.1 1.77 3.89 3.89 0 0 1 -1.59.3 2.45 2.45 0 0 1 -2.78-2.3z" fill="#fff"/><path d="m361 318.28v3.64a3 3 0 0 0 .17 1.45 1.29 1.29 0 0 0 1.19.59c1.3 0 1.3-.82 1.3-2v-3.71h1.34v3.53a4.35 4.35 0 0 1 -.38 2.38 2.5 2.5 0 0 1 -2.23.93c-2.76 0-2.76-1.7-2.76-3.25v-3.59z" fill="#fff"/><path d="m367.79 318.28h1.32l2.73 4.49v-4.49h1.26v6.72h-1.36l-2.69-4.39v4.39h-1.26z" fill="#fff"/><path d="m350.08 324.15a.87.87 0 1 0 -.87.87.87.87 0 0 0 .87-.87z" fill="#fff"/><path d="m381.09 319.64a2.53 2.53 0 0 1 .8.11.6.6 0 0 1 .37.63.66.66 0 0 1 -.28.61 1.36 1.36 0 0 1 -.71.16h-1.65v-1.51zm.21 2.64a1.75 1.75 0 0 1 .68.11.75.75 0 0 1 .44.73.86.86 0 0 1 -.45.85 1.64 1.64 0 0 1 -.69.12h-1.66v-1.81zm.24-3.8h-3.27v6.78h3.05a4.82 4.82 0 0 0 1-.09 1.93 1.93 0 0 0 .77-.34 2 2 0 0 0 .48-.53 2 2 0 0 0 .3-1.08 1.88 1.88 0 0 0 -.26-1 1.54 1.54 0 0 0 -.78-.6 1.41 1.41 0 0 0 .51-.38 1.51 1.51 0 0 0 .31-1 1.71 1.71 0 0 0 -.31-1 2.07 2.07 0 0 0 -1.8-.76z" fill="#fff"/><path d="m388.3 320 .85 2.67h-1.74zm-3.22 5.23h1.49l.46-1.4h2.5l.44 1.4h1.54l-2.4-6.78h-1.6z" fill="#fff"/><path d="m392.87 318.48h1.48l2.65 4.72v-4.72h1.31v6.78h-1.41l-2.75-4.81v4.81h-1.32z" fill="#fff"/><path d="m400.93 318.48h1.42v2.79l2.61-2.79h1.83l-2.79 2.79 2.91 4h-1.82l-2.09-3-.67.69v2.27h-1.42z" fill="#fff"/><path d="m291.96 322.42h2.86v-8.31h2.04v11.06h-2.04v-.75l-7.85-.02-.02.71h-2.11v-11.1h2.11v8.41l2.89-.02v-10.2h2.12z" fill="#fff"/><path d="m272.93 322.93v-3.66h4.37v-2.01l-4.37-.02v-2.88h4.68l.01-2.07h-11.48v2.07h4.63v2.88h-4.33v2.03h4.33v3.66h-5.27v2.03h12.69v-2.03z" fill="#fff"/><path d="m274.88 319.9a1.28 1.28 0 0 0 -.88 1.1 1.32 1.32 0 0 0 .28.92 1.3 1.3 0 0 0 1.36.4 1.32 1.32 0 0 0 .83-.86 1.34 1.34 0 0 0 -.16-1 1.26 1.26 0 0 0 -1.43-.56z" fill="#fff"/><path d="m307.12 320.4h2.06v1.32h-2.06z" fill="#fff" transform="matrix(.21303039 -.97704557 .97704557 .21303039 -71.17 553.77)"/><path d="m314.51 321.91 1.81-1.31s-1.18-1.2-1.22-1.22-1 .67-1.45 1a6.5 6.5 0 0 1 -.24-1.36h2.19v-6.59h-6.23v10.57l-.59.11v-.83l-1.7.3v-3.08h1.86v-1.65h-1.94v-.64h1.36v-.81l.12.09.85-1.94a4.69 4.69 0 0 1 -2.19-2.35h-1.75a5.42 5.42 0 0 1 -2.33 2.73l.85 1.94.36-.33v.67h1.1v.64h-2v1.65h2v3.34l-2.07.36.05 1.82 5.21-1v1l4.19-.73-.09-1.66a6.42 6.42 0 0 0 2.66 2.44l.89-1.75a8.38 8.38 0 0 1 -1.7-1.41zm-9.21-6.35a8.41 8.41 0 0 0 1-1.28 6.44 6.44 0 0 0 1.08 1.28zm5.9-1.36h2.57v.87h-2.57zm0 8.45v-3.65h.54a7 7 0 0 0 .84 3.44zm0-5.19v-.87h2.57v.87z" fill="#fff"/><path d="m305 322.26-.31-2.2-1.37.25.31 2.21z" fill="#fff"/><path d="m327.02 312.27h7.24v1.94h-7.24z" fill="#fff"/><path d="m334.8 316.45h-8.42l-1.42-1a14.46 14.46 0 0 1 -3.13 3.68l.89 2.12s.41-.35 1-.92v4.6h2v-6.93a10.26 10.26 0 0 0 .68-1.08v1.42h4.5v4.36a.27.27 0 0 1 -.28.27h-2.29l.77 1.93h2.37a1.45 1.45 0 0 0 1.45-1.45v-5.11h1.93z" fill="#fff"/><path d="m326.38 313.23c-.57-.37-1.12-.78-1.68-1.15a12.1 12.1 0 0 1 -2.77 2.63l.92 1.91a15.34 15.34 0 0 0 3.53-3.39z" fill="#fff"/></svg>