<svg viewBox="0 0 484.41 474.19" xmlns="http://www.w3.org/2000/svg"><path d="m468.85 143.68c33.79 86.92 9.85 189.51-58.71 250.79-59.14 54.14-146.92 74.1-225.34 47.53a226.33 226.33 0 0 1 -154-203.75c-4.67-88.84 41.33-169.13 118.32-211.38 70.43-40.87 176.05-34.19 240.38 15.18 35.21 24.23 63.38 62.23 79.35 101.63z" fill="#00a19b"/><path d="m250.38 108.39c7.67-2.31 17.57-8.35 25.26-2.31 5.4 8.35 20.27 11.11 16.22 22.71 7.64 9.74 16.22 20.85 26.13 28.27 2.26.47 3.15-.92 4.06-2.31l-2.71-1.39c3.17-2.78 10.81 1.86 15.77-.93 3.16 0 7.67.93 9.93 4.16 2.24 3.73 2.7 8.36 5.85 12.06l1.8-.91c2.26 4.17 3.16 7.88 5.86 11.58 16.23 5.56 23.9 25.5 38.32 33.84a220.26 220.26 0 0 0 56.77 31.25c-.89 2.78 2.27 2.78 3.61 3.72v.46c-2.7-1.4-6.29-2.78-9-1.87 2.72 4.19 9.47 2.32 10.83 7h-7.23c0 1.4 1.8 1.4 2.71 1.86-3.59-1.4-7.22 1.39-9.46-3.25-14.87-6.48-28.41-12.24-41.47-20.57l-.43.44c10.35 10.21 24.77 14.1 36.5 21.05 4.05 2.33 9.9 3.72 12.15 7.89-1.35.46-3.6.46-4 2.32l-3.16-1.86c-.9.47 0 1.39-.47 1.86l2.26 1.86c-15.37-6.54-32.48-12.76-46.48-24.32-6.77-4.64-13.52-8.34-20.29-13.44-.89 0-2.24-.46-2.7.93 7.68 6 15.77 9.72 23.44 15.29-14-6.95-30.65-17.16-41.92-31-5-5.12-12.17-15.77-20.73-13.92-3.15 1.85-8.1 1.4-11.72 3.24-2.69 0-5-3.24-7.65-.92-2.26 5.1-9.47.92-10.83 6.48-4.5 1.87-12.61.48-14 6l.46 2.31c-9 4.17-21.19 2.79-27.49 11.6-1.82 1.85-5.41-.46-7.21 1.85a1.39 1.39 0 0 0 -1.36-1.85c-2.26-.94-3.6 1.38-5.41 1.85-1.35-2.31 1.81-2.79 1.36-4.18-4.06-1.85-5.87 3.71-9 5.57.45-3.7 4.51-4.18 5.86-7.42-2.26-1.37-4.05.93-5.86 1.39.9-.46 2.7-3.71 0-3.71 2.26-3.7 7.21-2.31 8.56-6.48h-3.6c3.6-2.79 7.66-6 10.81-8.81-1.34 0-4.06-3.72-6.3-.47 0-.46.9-.93.44-1.39-1.8-1.86-4 1.39-6.31 1.39 0 .47.45-1.39-.9-1.85h-1.35c1.35-.92 3.16-3.24 5-4.64l-.91-.92c6.78-4.18 13.52-8.82 20.3-12.06l1.33-1.4a4.62 4.62 0 0 0 -7.21 0c5.88-.44.46-6.95 6.31-7.86.9-5.11 5.42-8.81 9-11.13-5.86-5.57-8.12-15.78-14.87-19-.46-4.17-4.51 0-4.95-4.17-8.12-.48-17.59 3.7-23-3.71-4.06-1.4-9.44-.93-13.51-.47-3.61 3.24-5 7.88-7.21 11.58-3.62 2.79-5.4 7.42-8.1 11.6-4.06 5.57-9 12.52-16.24 14.83v-.92c-4.95 6.95-15.77 4.17-22.08 11.59l-.45-1.86a3.75 3.75 0 0 0 -4.51 2.79v.92c-3.16-.92-5.41 2.77-6.75 4.63-7.68 8.35-20.29 8.35-28.4 15.31-.91.46.44 0 0-.46-14.88 3.25-22.1 14.82-32 26-2.7 4.62-7.21 7.41-10.8 11.12.9 3.71-4.52 5.1-6.31 7 1.79-3.25 5.84-6 6.31-9.74-3.63 1.86-4.52 6-8.57 7.88-2.27-1.85 2.26-3.25.9-5.1l-5.42 4.18 5-7c-2.72.46-5.42 5.1-8.57 5.56-.89 1.4-2.26 1.4-4 1.4v-.47a100.68 100.68 0 0 0 7.65-7.42c-3.14-1.85-6.76 2.32-9 1.86-.9-.47-.43-2.79-2.69-1.86 2.26-1.85 4.5-3.25 5.41-6-1.81-.47-4 .91-5.87 1.85.46-2.32 5-3.72 3.61-7.43-5.84-.93-4.95 5.11-9.9 6.49 4.95-7 12.16-11.13 17.12-18.54l-.46-.46c9.47-10.67 21.19-17.15 32.9-24.12 9.48-5.55 22.07-8.34 28.86-17.6 2.69-3.71 5.39-7 7.2-10.67 1.34.47 1.81-.93 2.25-1.85 6.77-4.17 14-7 22.1-7 3.59-3.71 10.36-1.39 13.06-6.5 9.46-11.58 13.07-25.95 21.17-37.54 2.71-3.71 5.86-9.74 11.29-11.13a216.3 216.3 0 0 1 39.09 7.37z" fill="#fff"/><path d="m257.34 189.51c-2.28 1.89-6.85 3.32-7.3 6.15-4.11-.48-6.83 3.79-10 3.79.45-3.79 5.91-1.42 6.37-5.2l3.59-2.85.45 1.43c1.38-1.43 5.93-.48 4.57-4.27z" fill="#fff"/><path d="m242.76 192.35a7.12 7.12 0 0 1 -5 3.79c.89-2.36 2.71-2.36 5-3.79z" fill="#fff"/><path d="m249.59 203.71c0 1-.92 1-1.38 1.91h-1.36c-.46-1.43.91-1.91 1.82-2.38.47 0 .47.47.92.47z" fill="#fff"/><path d="m11.25 171.86-.76.06a1.56 1.56 0 0 0 -.29-.67 1.07 1.07 0 0 0 -.78-.33 1 1 0 0 0 -.64.21 1.74 1.74 0 0 0 -.58.78 4.12 4.12 0 0 0 -.2 1.45 1.88 1.88 0 0 1 .69-.63 1.79 1.79 0 0 1 2.15.36 2 2 0 0 1 .55 1.47 2.44 2.44 0 0 1 -.26 1.1 1.84 1.84 0 0 1 -.7.78 1.91 1.91 0 0 1 -1 .27 2 2 0 0 1 -1.61-.71 3.61 3.61 0 0 1 -.6-2.34 4.19 4.19 0 0 1 .67-2.66 1.93 1.93 0 0 1 1.58-.72 1.79 1.79 0 0 1 1.22.42 1.75 1.75 0 0 1 .56 1.16zm-3.15 2.7a1.88 1.88 0 0 0 .17.77 1.24 1.24 0 0 0 .48.55 1.13 1.13 0 0 0 .63.19 1.08 1.08 0 0 0 .84-.39 1.52 1.52 0 0 0 .36-1.07 1.46 1.46 0 0 0 -.35-1 1.13 1.13 0 0 0 -.87-.37 1.19 1.19 0 0 0 -.89.37 1.33 1.33 0 0 0 -.37.95z" fill="#f39800"/><path d="m11.83 176.6 1.67-2.37-1.5-2.18h1l.7 1.07c.13.2.24.37.32.51.12-.19.24-.36.35-.51l.76-1.07h.87l-1.57 2.14 1.69 2.41h-.94l-.94-1.41-.24-.39-1.19 1.8z" fill="#f39800"/><path d="m0 258.42a5.81 5.81 0 0 1 .23-1.79 2.26 2.26 0 0 1 .68-1 1.77 1.77 0 0 1 1.14-.37 1.83 1.83 0 0 1 .89.21 1.74 1.74 0 0 1 .63.58 3.54 3.54 0 0 1 .39.94 6.44 6.44 0 0 1 .14 1.48 5.81 5.81 0 0 1 -.23 1.79 2.26 2.26 0 0 1 -.68 1.05 1.72 1.72 0 0 1 -1.14.37 1.74 1.74 0 0 1 -1.43-.68 4.2 4.2 0 0 1 -.62-2.58zm.79 0a3.84 3.84 0 0 0 .37 2.06 1.07 1.07 0 0 0 .89.51 1.07 1.07 0 0 0 .89-.51 3.86 3.86 0 0 0 .36-2.06 3.86 3.86 0 0 0 -.36-2.06 1.07 1.07 0 0 0 -.9-.51 1 1 0 0 0 -.85.45 4 4 0 0 0 -.4 2.12z" fill="#f39800"/><path d="m5.32 261.52v-.88h.88v.88z" fill="#f39800"/><path d="m7.32 259.88.81-.07a1.46 1.46 0 0 0 .42.89 1.12 1.12 0 0 0 .79.29 1.25 1.25 0 0 0 .95-.42 1.61 1.61 0 0 0 .38-1.11 1.41 1.41 0 0 0 -.37-1 1.27 1.27 0 0 0 -1-.38 1.26 1.26 0 0 0 -.67.17 1.36 1.36 0 0 0 -.48.44l-.72-.1.61-3.23h3.12v.74h-2.47l-.34 1.69a2.05 2.05 0 0 1 1.19-.4 1.87 1.87 0 0 1 1.38.58 2 2 0 0 1 .57 1.46 2.32 2.32 0 0 1 -.5 1.48 2 2 0 0 1 -1.65.76 2 2 0 0 1 -1.4-.48 1.93 1.93 0 0 1 -.62-1.31z" fill="#f39800"/><path d="m11.91 261.52 1.66-2.36-1.57-2.16h1l.7 1.07c.13.2.24.37.32.51.13-.19.24-.36.35-.5l.76-1.08h.93l-1.58 2.14 1.7 2.41h-1l-.93-1.41-.25-.38-1.2 1.79z" fill="#f39800"/><path d="m11.67 15.17 1.67-2.36-1.54-2.19h1l.7 1.07c.13.2.24.37.32.51a6 6 0 0 1 .35-.5l.76-1.08h.92l-1.57 2.14 1.69 2.41h-.97l-.94-1.41-.25-.38-1.19 1.79z" fill="#f39800"/><path d="m251.15 474.08h-.77v-4.92a3.45 3.45 0 0 1 -.73.53 5 5 0 0 1 -.81.4v-.74a4.8 4.8 0 0 0 1.13-.74 3.12 3.12 0 0 0 .69-.84h.49z" fill="#f39800"/><path d="m257.13 469.33-.76.06a1.45 1.45 0 0 0 -.3-.66 1 1 0 0 0 -.77-.33 1 1 0 0 0 -.64.21 1.74 1.74 0 0 0 -.58.78 4.12 4.12 0 0 0 -.22 1.45 1.93 1.93 0 0 1 .68-.63 1.81 1.81 0 0 1 .85-.21 1.74 1.74 0 0 1 1.31.57 2.05 2.05 0 0 1 .54 1.47 2.43 2.43 0 0 1 -.25 1.1 1.9 1.9 0 0 1 -.7.78 1.93 1.93 0 0 1 -1 .27 2 2 0 0 1 -1.58-.71 3.63 3.63 0 0 1 -.61-2.34 4.17 4.17 0 0 1 .68-2.65 1.93 1.93 0 0 1 1.58-.72 1.75 1.75 0 0 1 1.21.42 1.72 1.72 0 0 1 .56 1.14zm-3.13 2.67a1.88 1.88 0 0 0 .17.77 1.27 1.27 0 0 0 .47.55 1.19 1.19 0 0 0 .64.19 1.08 1.08 0 0 0 .84-.39 1.52 1.52 0 0 0 .36-1.07 1.46 1.46 0 0 0 -.35-1 1.15 1.15 0 0 0 -.88-.37 1.16 1.16 0 0 0 -.88.37 1.33 1.33 0 0 0 -.37.95z" fill="#f39800"/><path d="m257.71 474.08 1.67-2.37-1.54-2.18h1l.7 1.06.32.51.34-.5.77-1.07h.92l-1.57 2.14 1.69 2.41h-1.01l-.94-1.42-.25-.38-1.19 1.8z" fill="#f39800"/><path d="m256.26.13h2v453.54h-2z" fill="#e60012"/><path d="m30.49 225.9h453.54v2h-453.54z" fill="#e60012"/><path d="m30.49 251.23h453.54v2h-453.54z" fill="#fff100"/><path d="m444.93 265.16h1.5v.25h-1.5z" fill="#f8b74a"/><path d="m442 265.41h-3v-.25h3zm-6 0h-3v-.25h3zm-6 0h-3v-.25h3zm-6 0h-3v-.25h3zm-6 0h-3v-.25h3zm-6 0h-3v-.25h3zm-6 0h-3v-.25h3zm-6 0h-3v-.25h3zm-6 0h-3v-.25h3zm-6 0h-3v-.25h3zm-6 0h-3v-.25h3zm-6 0h-3v-.25h3zm-6 0h-3v-.25h3zm-6 0h-3v-.25h3zm-6 0h-3v-.25h3zm-6 0h-3v-.25h3zm-6 0h-3v-.25h3zm-6 0h-3v-.25h3zm-6 0h-3v-.25h3zm-6 0h-3v-.25h3zm-6 0h-3v-.25h3zm-6 0h-3v-.25h3zm-6 0h-3v-.25h3zm-6 0h-3v-.25h3zm-6 0h-3v-.25h3zm-6 0h-3v-.25h3zm-6 0h-3v-.25h3zm-6 0h-3v-.25h3zm-6 0h-3v-.25h3zm-6 0h-3v-.25h3zm-6 0h-3v-.25h3zm-6 0h-3v-.25h3zm-6 0h-3v-.25h3zm-6 0h-3v-.25h3zm-6 0h-3v-.25h3zm-6 0h-3v-.25h3zm-6 0h-3v-.25h3zm-6 0h-3v-.25h3zm-6 0h-3v-.25h3zm-6 0h-3v-.25h3zm-6 0h-3v-.25h3zm-6 0h-3v-.25h3zm-6 0h-3v-.25h3zm-6 0h-3v-.25h3zm-6 0h-3v-.25h3zm-6 0h-3v-.25h3zm-6 0h-3v-.25h3zm-6 0h-3v-.25h3zm-6 0h-3v-.25h3zm-6 0h-3v-.25h3zm-6 0h-3v-.25h3zm-6 0h-3v-.25h3zm-6 0h-3v-.25h3zm-6 0h-3v-.25h3zm-6 0h-3v-.25h3zm-6 0h-3v-.25h3zm-6 0h-3v-.25h3zm-6 0h-3v-.25h3zm-6 0h-3v-.25h3zm-6 0h-3v-.25h3zm-6 0h-3v-.25h3zm-6 0h-3v-.25h3zm-6 0h-3v-.25h3zm-6 0h-3v-.25h3zm-6 0h-3v-.25h3zm-6 0h-3v-.25h3zm-6 0h-3v-.25h3zm-6 0h-3v-.25h3zm-6 0h-3v-.25h3zm-6 0h-3v-.25h3zm-6 0h-3v-.25h3z" fill="#f8b74a"/><path d="m16.11 265.16h1.5v.25h-1.5z" fill="#f8b74a"/><g fill="#dcdddd"><path d="m55.82 25.46h-25.46v-25.46h25.46zm-25.21-.25h25v-24.96h-25z"/><path d="m81 25.46h-25.43v-25.46h25.43zm-25.21-.25h25v-24.96h-25z"/><path d="m106.24 25.46h-25.46v-25.46h25.46zm-25.24-.25h25v-24.96h-25z"/><path d="m131.46 25.46h-25.46v-25.46h25.47zm-25.22-.25h25v-24.96h-25z"/><path d="m156.67 25.46h-25.46v-25.46h25.46zm-25.21-.25h25v-24.96h-25z"/><path d="m181.88 25.46h-25.46v-25.46h25.46zm-25.21-.25h25v-24.96h-25z"/><path d="m207.09 25.46h-25.46v-25.46h25.46zm-25.21-.25h25v-24.96h-25z"/><path d="m232.3 25.46h-25.46v-25.46h25.46zm-25.21-.25h25v-24.96h-25z"/><path d="m257.51 25.46h-25.46v-25.46h25.46zm-25.21-.25h25v-24.96h-25z"/><path d="m282.72 25.46h-25.46v-25.46h25.46zm-25.21-.25h25v-24.96h-25z"/><path d="m307.93 25.46h-25.46v-25.46h25.46zm-25.21-.25h25v-24.96h-25z"/><path d="m333.14 25.46h-25.46v-25.46h25.46zm-25.21-.25h25v-24.96h-25z"/><path d="m358.35 25.46h-25.46v-25.46h25.46zm-25.21-.25h25v-24.96h-25z"/><path d="m383.56 25.46h-25.46v-25.46h25.46zm-25.21-.25h25v-24.96h-25z"/><path d="m408.77 25.46h-25.46v-25.46h25.46zm-25.21-.25h25v-24.96h-25z"/><path d="m434 25.46h-25.48v-25.46h25.48zm-25.21-.25h25v-24.96h-25z"/><path d="m459.19 25.46h-25.46v-25.46h25.46zm-25.19-.25h25v-24.96h-25z"/><path d="m484.41 25.46h-25.47v-25.46h25.47zm-25.22-.25h25v-24.96h-25z"/><path d="m55.82 50.67h-25.46v-25.46h25.46zm-25.21-.25h25v-25h-25z"/><path d="m81 50.67h-25.43v-25.46h25.43zm-25.21-.25h25v-25h-25z"/><path d="m106.24 50.67h-25.46v-25.46h25.46zm-25.24-.25h25v-25h-25z"/><path d="m131.46 50.67h-25.46v-25.46h25.47zm-25.22-.25h25v-25h-25z"/><path d="m156.67 50.67h-25.46v-25.46h25.46zm-25.21-.25h25v-25h-25z"/><path d="m181.88 50.67h-25.46v-25.46h25.46zm-25.21-.25h25v-25h-25z"/><path d="m207.09 50.67h-25.46v-25.46h25.46zm-25.21-.25h25v-25h-25z"/><path d="m232.3 50.67h-25.46v-25.46h25.46zm-25.21-.25h25v-25h-25z"/><path d="m257.51 50.67h-25.46v-25.46h25.46zm-25.21-.25h25v-25h-25z"/><path d="m282.72 50.67h-25.46v-25.46h25.46zm-25.21-.25h25v-25h-25z"/><path d="m307.93 50.67h-25.46v-25.46h25.46zm-25.21-.25h25v-25h-25z"/><path d="m333.14 50.67h-25.46v-25.46h25.46zm-25.21-.25h25v-25h-25z"/><path d="m358.35 50.67h-25.46v-25.46h25.46zm-25.21-.25h25v-25h-25z"/><path d="m383.56 50.67h-25.46v-25.46h25.46zm-25.21-.25h25v-25h-25z"/><path d="m408.77 50.67h-25.46v-25.46h25.46zm-25.21-.25h25v-25h-25z"/><path d="m434 50.67h-25.48v-25.46h25.48zm-25.21-.25h25v-25h-25z"/><path d="m459.19 50.67h-25.46v-25.46h25.46zm-25.19-.25h25v-25h-25z"/><path d="m484.41 50.67h-25.47v-25.46h25.47zm-25.22-.25h25v-25h-25z"/><path d="m55.82 75.88h-25.46v-25.46h25.46zm-25.21-.25h25v-25h-25z"/><path d="m81 75.88h-25.43v-25.46h25.43zm-25.21-.25h25v-25h-25z"/><path d="m106.24 75.88h-25.46v-25.46h25.46zm-25.24-.25h25v-25h-25z"/><path d="m131.46 75.88h-25.46v-25.46h25.47zm-25.22-.25h25v-25h-25z"/><path d="m156.67 75.88h-25.46v-25.46h25.46zm-25.21-.25h25v-25h-25z"/><path d="m181.88 75.88h-25.46v-25.46h25.46zm-25.21-.25h25v-25h-25z"/><path d="m207.09 75.88h-25.46v-25.46h25.46zm-25.21-.25h25v-25h-25z"/><path d="m232.3 75.88h-25.46v-25.46h25.46zm-25.21-.25h25v-25h-25z"/><path d="m257.51 75.88h-25.46v-25.46h25.46zm-25.21-.25h25v-25h-25z"/><path d="m282.72 75.88h-25.46v-25.46h25.46zm-25.21-.25h25v-25h-25z"/><path d="m307.93 75.88h-25.46v-25.46h25.46zm-25.21-.25h25v-25h-25z"/><path d="m333.14 75.88h-25.46v-25.46h25.46zm-25.21-.25h25v-25h-25z"/><path d="m358.35 75.88h-25.46v-25.46h25.46zm-25.21-.25h25v-25h-25z"/><path d="m383.56 75.88h-25.46v-25.46h25.46zm-25.21-.25h25v-25h-25z"/><path d="m408.77 75.88h-25.46v-25.46h25.46zm-25.21-.25h25v-25h-25z"/><path d="m434 75.88h-25.48v-25.46h25.48zm-25.21-.25h25v-25h-25z"/><path d="m459.19 75.88h-25.46v-25.46h25.46zm-25.19-.25h25v-25h-25z"/><path d="m484.41 75.88h-25.47v-25.46h25.47zm-25.22-.25h25v-25h-25z"/><path d="m55.82 101.09h-25.46v-25.46h25.46zm-25.21-.25h25v-25h-25z"/><path d="m81 101.09h-25.43v-25.46h25.43zm-25.21-.25h25v-25h-25z"/><path d="m106.24 101.09h-25.46v-25.46h25.46zm-25.24-.25h25v-25h-25z"/><path d="m131.46 101.09h-25.46v-25.46h25.47zm-25.22-.25h25v-25h-25z"/><path d="m156.67 101.09h-25.46v-25.46h25.46zm-25.21-.25h25v-25h-25z"/><path d="m181.88 101.09h-25.46v-25.46h25.46zm-25.21-.25h25v-25h-25z"/><path d="m207.09 101.09h-25.46v-25.46h25.46zm-25.21-.25h25v-25h-25z"/><path d="m232.3 101.09h-25.46v-25.46h25.46zm-25.21-.25h25v-25h-25z"/><path d="m257.51 101.09h-25.46v-25.46h25.46zm-25.21-.25h25v-25h-25z"/><path d="m282.72 101.09h-25.46v-25.46h25.46zm-25.21-.25h25v-25h-25z"/><path d="m307.93 101.09h-25.46v-25.46h25.46zm-25.21-.25h25v-25h-25z"/><path d="m333.14 101.09h-25.46v-25.46h25.46zm-25.21-.25h25v-25h-25z"/><path d="m358.35 101.09h-25.46v-25.46h25.46zm-25.21-.25h25v-25h-25z"/><path d="m383.56 101.09h-25.46v-25.46h25.46zm-25.21-.25h25v-25h-25z"/><path d="m408.77 101.09h-25.46v-25.46h25.46zm-25.21-.25h25v-25h-25z"/><path d="m434 101.09h-25.48v-25.46h25.48zm-25.21-.25h25v-25h-25z"/><path d="m459.19 101.09h-25.46v-25.46h25.46zm-25.19-.25h25v-25h-25z"/><path d="m484.41 101.09h-25.47v-25.46h25.47zm-25.22-.25h25v-25h-25z"/><path d="m55.82 126.3h-25.46v-25.46h25.46zm-25.21-.25h25v-25h-25z"/><path d="m81 126.3h-25.43v-25.46h25.43zm-25.21-.25h25v-25h-25z"/><path d="m106.24 126.3h-25.46v-25.46h25.46zm-25.24-.25h25v-25h-25z"/><path d="m131.46 126.3h-25.46v-25.46h25.47zm-25.22-.25h25v-25h-25z"/><path d="m156.67 126.3h-25.46v-25.46h25.46zm-25.21-.25h25v-25h-25z"/><path d="m181.88 126.3h-25.46v-25.46h25.46zm-25.21-.25h25v-25h-25z"/><path d="m207.09 126.3h-25.46v-25.46h25.46zm-25.21-.25h25v-25h-25z"/><path d="m232.3 126.3h-25.46v-25.46h25.46zm-25.21-.25h25v-25h-25z"/><path d="m257.51 126.3h-25.46v-25.46h25.46zm-25.21-.25h25v-25h-25z"/><path d="m282.72 126.3h-25.46v-25.46h25.46zm-25.21-.25h25v-25h-25z"/><path d="m307.93 126.3h-25.46v-25.46h25.46zm-25.21-.25h25v-25h-25z"/><path d="m333.14 126.3h-25.46v-25.46h25.46zm-25.21-.25h25v-25h-25z"/><path d="m358.35 126.3h-25.46v-25.46h25.46zm-25.21-.25h25v-25h-25z"/><path d="m383.56 126.3h-25.46v-25.46h25.46zm-25.21-.25h25v-25h-25z"/><path d="m408.77 126.3h-25.46v-25.46h25.46zm-25.21-.25h25v-25h-25z"/><path d="m434 126.3h-25.48v-25.46h25.48zm-25.21-.25h25v-25h-25z"/><path d="m459.19 126.3h-25.46v-25.46h25.46zm-25.19-.25h25v-25h-25z"/><path d="m484.41 126.3h-25.47v-25.46h25.47zm-25.22-.25h25v-25h-25z"/><path d="m55.82 151.51h-25.46v-25.46h25.46zm-25.21-.25h25v-25h-25z"/><path d="m81 151.51h-25.43v-25.46h25.43zm-25.21-.25h25v-25h-25z"/><path d="m106.24 151.51h-25.46v-25.46h25.46zm-25.24-.25h25v-25h-25z"/><path d="m131.46 151.51h-25.46v-25.46h25.47zm-25.22-.25h25v-25h-25z"/><path d="m156.67 151.51h-25.46v-25.46h25.46zm-25.21-.25h25v-25h-25z"/><path d="m181.88 151.51h-25.46v-25.46h25.46zm-25.21-.25h25v-25h-25z"/><path d="m207.09 151.51h-25.46v-25.46h25.46zm-25.21-.25h25v-25h-25z"/><path d="m232.3 151.51h-25.46v-25.46h25.46zm-25.21-.25h25v-25h-25z"/><path d="m257.51 151.51h-25.46v-25.46h25.46zm-25.21-.25h25v-25h-25z"/><path d="m282.72 151.51h-25.46v-25.46h25.46zm-25.21-.25h25v-25h-25z"/><path d="m307.93 151.51h-25.46v-25.46h25.46zm-25.21-.25h25v-25h-25z"/><path d="m333.14 151.51h-25.46v-25.46h25.46zm-25.21-.25h25v-25h-25z"/><path d="m358.35 151.51h-25.46v-25.46h25.46zm-25.21-.25h25v-25h-25z"/><path d="m383.56 151.51h-25.46v-25.46h25.46zm-25.21-.25h25v-25h-25z"/><path d="m408.77 151.51h-25.46v-25.46h25.46zm-25.21-.25h25v-25h-25z"/><path d="m434 151.51h-25.48v-25.46h25.48zm-25.21-.25h25v-25h-25z"/><path d="m459.19 151.51h-25.46v-25.46h25.46zm-25.19-.25h25v-25h-25z"/><path d="m484.41 151.51h-25.47v-25.46h25.47zm-25.22-.25h25v-25h-25z"/><path d="m55.82 176.73h-25.46v-25.47h25.46zm-25.21-.25h25v-25h-25z"/><path d="m81 176.73h-25.43v-25.47h25.43zm-25.21-.25h25v-25h-25z"/><path d="m106.24 176.73h-25.46v-25.47h25.46zm-25.24-.25h25v-25h-25z"/><path d="m131.46 176.73h-25.46v-25.47h25.47zm-25.22-.25h25v-25h-25z"/><path d="m156.67 176.73h-25.46v-25.47h25.46zm-25.21-.25h25v-25h-25z"/><path d="m181.88 176.73h-25.46v-25.47h25.46zm-25.21-.25h25v-25h-25z"/><path d="m207.09 176.73h-25.46v-25.47h25.46zm-25.21-.25h25v-25h-25z"/><path d="m232.3 176.73h-25.46v-25.47h25.46zm-25.21-.25h25v-25h-25z"/><path d="m257.51 176.73h-25.46v-25.47h25.46zm-25.21-.25h25v-25h-25z"/><path d="m282.72 176.73h-25.46v-25.47h25.46zm-25.21-.25h25v-25h-25z"/><path d="m307.93 176.73h-25.46v-25.47h25.46zm-25.21-.25h25v-25h-25z"/><path d="m333.14 176.73h-25.46v-25.47h25.46zm-25.21-.25h25v-25h-25z"/><path d="m358.35 176.73h-25.46v-25.47h25.46zm-25.21-.25h25v-25h-25z"/><path d="m383.56 176.73h-25.46v-25.47h25.46zm-25.21-.25h25v-25h-25z"/><path d="m408.77 176.73h-25.46v-25.47h25.46zm-25.21-.25h25v-25h-25z"/><path d="m434 176.73h-25.48v-25.47h25.48zm-25.21-.25h25v-25h-25z"/><path d="m459.19 176.73h-25.46v-25.47h25.46zm-25.19-.25h25v-25h-25z"/><path d="m484.41 176.73h-25.47v-25.47h25.47zm-25.22-.25h25v-25h-25z"/><path d="m55.82 201.94h-25.46v-25.46h25.46zm-25.21-.25h25v-25h-25z"/><path d="m81 201.94h-25.43v-25.46h25.43zm-25.21-.25h25v-25h-25z"/><path d="m106.24 201.94h-25.46v-25.46h25.46zm-25.24-.25h25v-25h-25z"/><path d="m131.46 201.94h-25.46v-25.46h25.47zm-25.22-.25h25v-25h-25z"/><path d="m156.67 201.94h-25.46v-25.46h25.46zm-25.21-.25h25v-25h-25z"/><path d="m181.88 201.94h-25.46v-25.46h25.46zm-25.21-.25h25v-25h-25z"/><path d="m207.09 201.94h-25.46v-25.46h25.46zm-25.21-.25h25v-25h-25z"/><path d="m232.3 201.94h-25.46v-25.46h25.46zm-25.21-.25h25v-25h-25z"/><path d="m257.51 201.94h-25.46v-25.46h25.46zm-25.21-.25h25v-25h-25z"/><path d="m282.72 201.94h-25.46v-25.46h25.46zm-25.21-.25h25v-25h-25z"/><path d="m307.93 201.94h-25.46v-25.46h25.46zm-25.21-.25h25v-25h-25z"/><path d="m333.14 201.94h-25.46v-25.46h25.46zm-25.21-.25h25v-25h-25z"/><path d="m358.35 201.94h-25.46v-25.46h25.46zm-25.21-.25h25v-25h-25z"/><path d="m383.56 201.94h-25.46v-25.46h25.46zm-25.21-.25h25v-25h-25z"/><path d="m408.77 201.94h-25.46v-25.46h25.46zm-25.21-.25h25v-25h-25z"/><path d="m434 201.94h-25.48v-25.46h25.48zm-25.21-.25h25v-25h-25z"/><path d="m459.19 201.94h-25.46v-25.46h25.46zm-25.19-.25h25v-25h-25z"/><path d="m484.41 201.94h-25.47v-25.46h25.47zm-25.22-.25h25v-25h-25z"/><path d="m55.82 227.15h-25.46v-25.46h25.46zm-25.21-.25h25v-25h-25z"/><path d="m81 227.15h-25.43v-25.46h25.43zm-25.21-.25h25v-25h-25z"/><path d="m106.24 227.15h-25.46v-25.46h25.46zm-25.24-.25h25v-25h-25z"/><path d="m131.46 227.15h-25.46v-25.46h25.47zm-25.22-.25h25v-25h-25z"/><path d="m156.67 227.15h-25.46v-25.46h25.46zm-25.21-.25h25v-25h-25z"/><path d="m181.88 227.15h-25.46v-25.46h25.46zm-25.21-.25h25v-25h-25z"/><path d="m207.09 227.15h-25.46v-25.46h25.46zm-25.21-.25h25v-25h-25z"/><path d="m232.3 227.15h-25.46v-25.46h25.46zm-25.21-.25h25v-25h-25z"/><path d="m257.51 227.15h-25.46v-25.46h25.46zm-25.21-.25h25v-25h-25z"/><path d="m282.72 227.15h-25.46v-25.46h25.46zm-25.21-.25h25v-25h-25z"/><path d="m307.93 227.15h-25.46v-25.46h25.46zm-25.21-.25h25v-25h-25z"/><path d="m333.14 227.15h-25.46v-25.46h25.46zm-25.21-.25h25v-25h-25z"/><path d="m358.35 227.15h-25.46v-25.46h25.46zm-25.21-.25h25v-25h-25z"/><path d="m383.56 227.15h-25.46v-25.46h25.46zm-25.21-.25h25v-25h-25z"/><path d="m408.77 227.15h-25.46v-25.46h25.46zm-25.21-.25h25v-25h-25z"/><path d="m434 227.15h-25.48v-25.46h25.48zm-25.21-.25h25v-25h-25z"/><path d="m459.19 227.15h-25.46v-25.46h25.46zm-25.19-.25h25v-25h-25z"/><path d="m484.41 227.15h-25.47v-25.46h25.47zm-25.22-.25h25v-25h-25z"/><path d="m55.82 252.36h-25.46v-25.46h25.46zm-25.21-.25h25v-25h-25z"/><path d="m81 252.36h-25.43v-25.46h25.43zm-25.21-.25h25v-25h-25z"/><path d="m106.24 252.36h-25.46v-25.46h25.46zm-25.24-.25h25v-25h-25z"/><path d="m131.46 252.36h-25.46v-25.46h25.47zm-25.22-.25h25v-25h-25z"/><path d="m156.67 252.36h-25.46v-25.46h25.46zm-25.21-.25h25v-25h-25z"/><path d="m181.88 252.36h-25.46v-25.46h25.46zm-25.21-.25h25v-25h-25z"/><path d="m207.09 252.36h-25.46v-25.46h25.46zm-25.21-.25h25v-25h-25z"/><path d="m232.3 252.36h-25.46v-25.46h25.46zm-25.21-.25h25v-25h-25z"/><path d="m257.51 252.36h-25.46v-25.46h25.46zm-25.21-.25h25v-25h-25z"/><path d="m282.72 252.36h-25.46v-25.46h25.46zm-25.21-.25h25v-25h-25z"/><path d="m307.93 252.36h-25.46v-25.46h25.46zm-25.21-.25h25v-25h-25z"/><path d="m333.14 252.36h-25.46v-25.46h25.46zm-25.21-.25h25v-25h-25z"/><path d="m358.35 252.36h-25.46v-25.46h25.46zm-25.21-.25h25v-25h-25z"/><path d="m383.56 252.36h-25.46v-25.46h25.46zm-25.21-.25h25v-25h-25z"/><path d="m408.77 252.36h-25.46v-25.46h25.46zm-25.21-.25h25v-25h-25z"/><path d="m434 252.36h-25.48v-25.46h25.48zm-25.21-.25h25v-25h-25z"/><path d="m459.19 252.36h-25.46v-25.46h25.46zm-25.19-.25h25v-25h-25z"/><path d="m484.41 252.36h-25.47v-25.46h25.47zm-25.22-.25h25v-25h-25z"/><path d="m55.82 277.57h-25.46v-25.46h25.46zm-25.21-.25h25v-25h-25z"/><path d="m81 277.57h-25.43v-25.46h25.43zm-25.21-.25h25v-25h-25z"/><path d="m106.24 277.57h-25.46v-25.46h25.46zm-25.24-.25h25v-25h-25z"/><path d="m131.46 277.57h-25.46v-25.46h25.47zm-25.22-.25h25v-25h-25z"/><path d="m156.67 277.57h-25.46v-25.46h25.46zm-25.21-.25h25v-25h-25z"/><path d="m181.88 277.57h-25.46v-25.46h25.46zm-25.21-.25h25v-25h-25z"/><path d="m207.09 277.57h-25.46v-25.46h25.46zm-25.21-.25h25v-25h-25z"/><path d="m232.3 277.57h-25.46v-25.46h25.46zm-25.21-.25h25v-25h-25z"/><path d="m257.51 277.57h-25.46v-25.46h25.46zm-25.21-.25h25v-25h-25z"/><path d="m282.72 277.57h-25.46v-25.46h25.46zm-25.21-.25h25v-25h-25z"/><path d="m307.93 277.57h-25.46v-25.46h25.46zm-25.21-.25h25v-25h-25z"/><path d="m333.14 277.57h-25.46v-25.46h25.46zm-25.21-.25h25v-25h-25z"/><path d="m358.35 277.57h-25.46v-25.46h25.46zm-25.21-.25h25v-25h-25z"/><path d="m383.56 277.57h-25.46v-25.46h25.46zm-25.21-.25h25v-25h-25z"/><path d="m408.77 277.57h-25.46v-25.46h25.46zm-25.21-.25h25v-25h-25z"/><path d="m434 277.57h-25.48v-25.46h25.48zm-25.21-.25h25v-25h-25z"/><path d="m459.19 277.57h-25.46v-25.46h25.46zm-25.19-.25h25v-25h-25z"/><path d="m484.41 277.57h-25.47v-25.46h25.47zm-25.22-.25h25v-25h-25z"/><path d="m55.82 302.78h-25.46v-25.46h25.46zm-25.21-.25h25v-25h-25z"/><path d="m81 302.78h-25.43v-25.46h25.43zm-25.21-.25h25v-25h-25z"/><path d="m106.24 302.78h-25.46v-25.46h25.46zm-25.24-.25h25v-25h-25z"/><path d="m131.46 302.78h-25.46v-25.46h25.47zm-25.22-.25h25v-25h-25z"/><path d="m156.67 302.78h-25.46v-25.46h25.46zm-25.21-.25h25v-25h-25z"/><path d="m181.88 302.78h-25.46v-25.46h25.46zm-25.21-.25h25v-25h-25z"/><path d="m207.09 302.78h-25.46v-25.46h25.46zm-25.21-.25h25v-25h-25z"/><path d="m232.3 302.78h-25.46v-25.46h25.46zm-25.21-.25h25v-25h-25z"/><path d="m257.51 302.78h-25.46v-25.46h25.46zm-25.21-.25h25v-25h-25z"/><path d="m282.72 302.78h-25.46v-25.46h25.46zm-25.21-.25h25v-25h-25z"/><path d="m307.93 302.78h-25.46v-25.46h25.46zm-25.21-.25h25v-25h-25z"/><path d="m333.14 302.78h-25.46v-25.46h25.46zm-25.21-.25h25v-25h-25z"/><path d="m358.35 302.78h-25.46v-25.46h25.46zm-25.21-.25h25v-25h-25z"/><path d="m383.56 302.78h-25.46v-25.46h25.46zm-25.21-.25h25v-25h-25z"/><path d="m408.77 302.78h-25.46v-25.46h25.46zm-25.21-.25h25v-25h-25z"/><path d="m434 302.78h-25.48v-25.46h25.48zm-25.21-.25h25v-25h-25z"/><path d="m459.19 302.78h-25.46v-25.46h25.46zm-25.19-.25h25v-25h-25z"/><path d="m484.41 302.78h-25.47v-25.46h25.47zm-25.22-.25h25v-25h-25z"/><path d="m55.82 328h-25.46v-25.47h25.46zm-25.21-.25h25v-25h-25z"/><path d="m81 328h-25.43v-25.47h25.43zm-25.21-.25h25v-25h-25z"/><path d="m106.24 328h-25.46v-25.47h25.46zm-25.24-.26h25v-25h-25z"/><path d="m131.46 328h-25.46v-25.47h25.47zm-25.22-.25h25v-25h-25z"/><path d="m156.67 328h-25.46v-25.47h25.46zm-25.21-.25h25v-25h-25z"/><path d="m181.88 328h-25.46v-25.47h25.46zm-25.21-.25h25v-25h-25z"/><path d="m207.09 328h-25.46v-25.47h25.46zm-25.21-.25h25v-25h-25z"/><path d="m232.3 328h-25.46v-25.47h25.46zm-25.21-.25h25v-25h-25z"/><path d="m257.51 328h-25.46v-25.47h25.46zm-25.21-.25h25v-25h-25z"/><path d="m282.72 328h-25.46v-25.47h25.46zm-25.21-.25h25v-25h-25z"/><path d="m307.93 328h-25.46v-25.47h25.46zm-25.21-.25h25v-25h-25z"/><path d="m333.14 328h-25.46v-25.47h25.46zm-25.21-.25h25v-25h-25z"/><path d="m358.35 328h-25.46v-25.47h25.46zm-25.21-.25h25v-25h-25z"/><path d="m383.56 328h-25.46v-25.47h25.46zm-25.21-.25h25v-25h-25z"/><path d="m408.77 328h-25.46v-25.47h25.46zm-25.21-.25h25v-25h-25z"/><path d="m434 328h-25.48v-25.47h25.48zm-25.21-.25h25v-25h-25z"/><path d="m459.19 328h-25.46v-25.47h25.46zm-25.19-.26h25v-25h-25z"/><path d="m484.41 328h-25.47v-25.47h25.47zm-25.22-.25h25v-25h-25z"/><path d="m55.82 353.2h-25.46v-25.46h25.46zm-25.21-.2h25v-25h-25z"/><path d="m81 353.2h-25.43v-25.46h25.43zm-25.18-.2h25v-25h-25z"/><path d="m106.24 353.2h-25.46v-25.46h25.46zm-25.24-.2h25v-25h-25z"/><path d="m131.46 353.2h-25.46v-25.46h25.47zm-25.22-.2h25v-25h-25z"/><path d="m156.67 353.2h-25.46v-25.46h25.46zm-25.21-.2h25v-25h-25z"/><path d="m181.88 353.2h-25.46v-25.46h25.46zm-25.21-.2h25v-25h-25z"/><path d="m207.09 353.2h-25.46v-25.46h25.46zm-25.21-.2h25v-25h-25z"/><path d="m232.3 353.2h-25.46v-25.46h25.46zm-25.21-.2h25v-25h-25z"/><path d="m257.51 353.2h-25.46v-25.46h25.46zm-25.21-.2h25v-25h-25z"/><path d="m282.72 353.2h-25.46v-25.46h25.46zm-25.21-.2h25v-25h-25z"/><path d="m307.93 353.2h-25.46v-25.46h25.46zm-25.21-.2h25v-25h-25z"/><path d="m333.14 353.2h-25.46v-25.46h25.46zm-25.21-.2h25v-25h-25z"/><path d="m358.35 353.2h-25.46v-25.46h25.46zm-25.21-.2h25v-25h-25z"/><path d="m383.56 353.2h-25.46v-25.46h25.46zm-25.21-.2h25v-25h-25z"/><path d="m408.77 353.2h-25.46v-25.46h25.46zm-25.21-.2h25v-25h-25z"/><path d="m434 353.2h-25.48v-25.46h25.48zm-25.23-.2h25v-25h-25z"/><path d="m459.19 353.2h-25.46v-25.46h25.46zm-25.19-.2h25v-25h-25z"/><path d="m484.41 353.2h-25.47v-25.46h25.47zm-25.22-.2h25v-25h-25z"/><path d="m55.82 378.41h-25.46v-25.41h25.46zm-25.21-.25h25v-25h-25z"/><path d="m81 378.41h-25.43v-25.41h25.43zm-25.21-.25h25v-25h-25z"/><path d="m106.24 378.41h-25.46v-25.41h25.46zm-25.24-.25h25v-25h-25z"/><path d="m131.46 378.41h-25.46v-25.41h25.47zm-25.22-.25h25v-25h-25z"/><path d="m156.67 378.41h-25.46v-25.41h25.46zm-25.21-.25h25v-25h-25z"/><path d="m181.88 378.41h-25.46v-25.41h25.46zm-25.21-.25h25v-25h-25z"/><path d="m207.09 378.41h-25.46v-25.41h25.46zm-25.21-.25h25v-25h-25z"/><path d="m232.3 378.41h-25.46v-25.41h25.46zm-25.21-.25h25v-25h-25z"/><path d="m257.51 378.41h-25.46v-25.41h25.46zm-25.21-.25h25v-25h-25z"/><path d="m282.72 378.41h-25.46v-25.41h25.46zm-25.21-.25h25v-25h-25z"/><path d="m307.93 378.41h-25.46v-25.41h25.46zm-25.21-.25h25v-25h-25z"/><path d="m333.14 378.41h-25.46v-25.41h25.46zm-25.21-.25h25v-25h-25z"/><path d="m358.35 378.41h-25.46v-25.41h25.46zm-25.21-.25h25v-25h-25z"/><path d="m383.56 378.41h-25.46v-25.41h25.46zm-25.21-.25h25v-25h-25z"/><path d="m408.77 378.41h-25.46v-25.41h25.46zm-25.21-.25h25v-25h-25z"/><path d="m434 378.41h-25.48v-25.41h25.48zm-25.21-.25h25v-25h-25z"/><path d="m459.19 378.41h-25.46v-25.41h25.46zm-25.19-.25h25v-25h-25z"/><path d="m484.41 378.41h-25.47v-25.41h25.47zm-25.22-.25h25v-25h-25z"/><path d="m55.82 403.62h-25.46v-25.46h25.46zm-25.21-.25h25v-25h-25z"/><path d="m81 403.62h-25.43v-25.46h25.43zm-25.21-.25h25v-25h-25z"/><path d="m106.24 403.62h-25.46v-25.46h25.46zm-25.24-.25h25v-25h-25z"/><path d="m131.46 403.62h-25.46v-25.46h25.47zm-25.22-.25h25v-25h-25z"/><path d="m156.67 403.62h-25.46v-25.46h25.46zm-25.21-.25h25v-25h-25z"/><path d="m181.88 403.62h-25.46v-25.46h25.46zm-25.21-.25h25v-25h-25z"/><path d="m207.09 403.62h-25.46v-25.46h25.46zm-25.21-.25h25v-25h-25z"/><path d="m232.3 403.62h-25.46v-25.46h25.46zm-25.21-.25h25v-25h-25z"/><path d="m257.51 403.62h-25.46v-25.46h25.46zm-25.21-.25h25v-25h-25z"/><path d="m282.72 403.62h-25.46v-25.46h25.46zm-25.21-.25h25v-25h-25z"/><path d="m307.93 403.62h-25.46v-25.46h25.46zm-25.21-.25h25v-25h-25z"/><path d="m333.14 403.62h-25.46v-25.46h25.46zm-25.21-.25h25v-25h-25z"/><path d="m358.35 403.62h-25.46v-25.46h25.46zm-25.21-.25h25v-25h-25z"/><path d="m383.56 403.62h-25.46v-25.46h25.46zm-25.21-.25h25v-25h-25z"/><path d="m408.77 403.62h-25.46v-25.46h25.46zm-25.21-.25h25v-25h-25z"/><path d="m434 403.62h-25.48v-25.46h25.48zm-25.21-.25h25v-25h-25z"/><path d="m459.19 403.62h-25.46v-25.46h25.46zm-25.19-.25h25v-25h-25z"/><path d="m484.41 403.62h-25.47v-25.46h25.47zm-25.22-.25h25v-25h-25z"/><path d="m55.82 428.83h-25.46v-25.46h25.46zm-25.21-.25h25v-25h-25z"/><path d="m81 428.83h-25.43v-25.46h25.43zm-25.21-.25h25v-25h-25z"/><path d="m106.24 428.83h-25.46v-25.46h25.46zm-25.24-.25h25v-25h-25z"/><path d="m131.46 428.83h-25.46v-25.46h25.47zm-25.22-.25h25v-25h-25z"/><path d="m156.67 428.83h-25.46v-25.46h25.46zm-25.21-.25h25v-25h-25z"/><path d="m181.88 428.83h-25.46v-25.46h25.46zm-25.21-.25h25v-25h-25z"/><path d="m207.09 428.83h-25.46v-25.46h25.46zm-25.21-.25h25v-25h-25z"/><path d="m232.3 428.83h-25.46v-25.46h25.46zm-25.21-.25h25v-25h-25z"/><path d="m257.51 428.83h-25.46v-25.46h25.46zm-25.21-.25h25v-25h-25z"/><path d="m282.72 428.83h-25.46v-25.46h25.46zm-25.21-.25h25v-25h-25z"/><path d="m307.93 428.83h-25.46v-25.46h25.46zm-25.21-.25h25v-25h-25z"/><path d="m333.14 428.83h-25.46v-25.46h25.46zm-25.21-.25h25v-25h-25z"/><path d="m358.35 428.83h-25.46v-25.46h25.46zm-25.21-.25h25v-25h-25z"/><path d="m383.56 428.83h-25.46v-25.46h25.46zm-25.21-.25h25v-25h-25z"/><path d="m408.77 428.83h-25.46v-25.46h25.46zm-25.21-.25h25v-25h-25z"/><path d="m434 428.83h-25.48v-25.46h25.48zm-25.21-.25h25v-25h-25z"/><path d="m459.19 428.83h-25.46v-25.46h25.46zm-25.19-.25h25v-25h-25z"/><path d="m484.41 428.83h-25.47v-25.46h25.47zm-25.22-.25h25v-25h-25z"/><path d="m55.82 454h-25.46v-25.42h25.46zm-25.21-.25h25v-25h-25z"/><path d="m81 454h-25.43v-25.42h25.43zm-25.21-.25h25v-25h-25z"/><path d="m106.24 454h-25.46v-25.42h25.46zm-25.24-.21h25v-25h-25z"/><path d="m131.46 454h-25.46v-25.42h25.47zm-25.22-.25h25v-25h-25z"/><path d="m156.67 454h-25.46v-25.42h25.46zm-25.21-.25h25v-25h-25z"/><path d="m181.88 454h-25.46v-25.42h25.46zm-25.21-.25h25v-25h-25z"/><path d="m207.09 454h-25.46v-25.42h25.46zm-25.21-.25h25v-25h-25z"/><path d="m232.3 454h-25.46v-25.42h25.46zm-25.21-.25h25v-25h-25z"/><path d="m257.51 454h-25.46v-25.42h25.46zm-25.21-.25h25v-25h-25z"/><path d="m282.72 454h-25.46v-25.42h25.46zm-25.21-.25h25v-25h-25z"/><path d="m307.93 454h-25.46v-25.42h25.46zm-25.21-.25h25v-25h-25z"/><path d="m333.14 454h-25.46v-25.42h25.46zm-25.21-.25h25v-25h-25z"/><path d="m358.35 454h-25.46v-25.42h25.46zm-25.21-.25h25v-25h-25z"/><path d="m383.56 454h-25.46v-25.42h25.46zm-25.21-.25h25v-25h-25z"/><path d="m408.77 454h-25.46v-25.42h25.46zm-25.21-.25h25v-25h-25z"/><path d="m434 454h-25.48v-25.42h25.48zm-25.21-.25h25v-25h-25z"/><path d="m459.19 454h-25.46v-25.42h25.46zm-25.19-.21h25v-25h-25z"/><path d="m484.41 454h-25.47v-25.42h25.47zm-25.22-.25h25v-25h-25z"/></g><path d="m446.31 267.49a2.21 2.21 0 1 1 2.21-2.21 2.21 2.21 0 0 1 -2.21 2.21zm0-3.92a1.71 1.71 0 1 0 1.71 1.71 1.72 1.72 0 0 0 -1.71-1.71z" fill="#f8b74a"/><path d="m459.07 255.86a2.21 2.21 0 1 1 2.21-2.21 2.21 2.21 0 0 1 -2.21 2.21zm0-3.92a1.71 1.71 0 1 0 1.71 1.71 1.72 1.72 0 0 0 -1.71-1.71z" fill="#f8b74a"/><path d="m55.7 239.25a3 3 0 1 1 3-3 3 3 0 0 1 -3 3zm0-5.49a2.5 2.5 0 1 0 2.49 2.49 2.49 2.49 0 0 0 -2.49-2.49z" fill="#f8b74a"/><path d="m15.83 0h9.7v.25h-9.7z" fill="#f39800"/><path d="m15.83 25.21h9.7v.25h-9.7z" fill="#f39800"/><path d="m458.94 253.64h.25v1.5h-.25z" fill="#f8b74a"/><path d="m459.19 469.6h-.25v-3h.25zm0-6h-.25v-3h.25zm0-5.95h-.25v-3h.25zm0-6h-.25v-3h.25zm0-6h-.25v-3h.25zm0-6h-.25v-3h.25zm0-5.95h-.25v-3h.25zm0-6h-.25v-3h.25zm0-6h-.25v-3h.25zm0-5.95h-.25v-3h.25zm0-6h-.25v-3h.25zm0-6h-.25v-3h.25zm0-6h-.25v-3h.25zm0-5.95h-.25v-3h.25zm0-6h-.25v-3h.25zm0-6h-.25v-3h.25zm0-6h-.25v-3h.25zm0-5.95h-.25v-3h.25zm0-6h-.25v-3h.25zm0-6h-.25v-3h.25zm0-6h-.25v-3h.25zm0-6h-.25v-3h.25zm0-6h-.25v-3h.25zm0-6h-.25v-3h.25zm0-5.95h-.25v-3h.25zm0-6h-.25v-3h.25zm0-6h-.25v-3h.25zm0-6h-.25v-3h.25zm0-5.95h-.25v-3h.25zm0-6h-.25v-3h.25zm0-6h-.25v-3h.25zm0-5.95h-.25v-3h.25zm0-6h-.25v-3h.25zm0-6h-.25v-3h.25zm0-6h-.25v-3h.25zm0-5.95h-.25v-3h.25z" fill="#f8b74a"/><path d="m458.94 472.58h.25v1.5h-.25z" fill="#f8b74a"/><path d="m55.57 236.25h.25v1.5h-.25z" fill="#f8b74a"/><path d="m55.82 469.61h-.25v-3h.25zm0-5.95h-.25v-3h.25zm0-5.94h-.25v-3h.25zm0-6h-.25v-3h.25zm0-5.94h-.25v-3h.25zm0-5.95h-.25v-3h.25zm0-5.94h-.25v-3h.25zm0-5.95h-.25v-3h.25zm0-5.94h-.25v-3h.25zm0-5.95h-.25v-3h.25zm0-5.94h-.25v-3h.25zm0-6h-.25v-3h.25zm0-5.94h-.25v-3h.25zm0-5.95h-.25v-3h.25zm0-5.94h-.25v-3h.25zm0-5.95h-.25v-3h.25zm0-5.94h-.25v-3h.25zm0-5.95h-.25v-3h.25zm0-5.94h-.25v-3h.25zm0-6h-.25v-3h.25zm0-5.94h-.25v-3h.25zm0-5.95h-.25v-3h.25zm0-5.94h-.25v-3h.25zm0-5.95h-.25v-3h.25zm0-5.94h-.25v-3h.25zm0-5.95h-.25v-3h.25zm0-5.94h-.25v-3h.25zm0-6h-.25v-3h.25zm0-5.94h-.25v-3h.25zm0-5.95h-.25v-3h.25zm0-5.94h-.25v-3h.25zm0-5.95h-.25v-3h.25zm0-5.94h-.25v-3h.25zm0-5.95h-.25v-3h.25zm0-5.94h-.25v-3h.25zm0-6h-.25v-3h.25zm0-5.94h-.25v-3h.25zm0-6h-.25v-3h.25zm0-5.94h-.25v-3h.25z" fill="#f8b74a"/><path d="m55.57 472.58h.25v1.5h-.25z" fill="#f8b74a"/><path d="m211.17 104a3 3 0 0 1 -2.07-5.13 3 3 0 0 1 2.1-.86 3 3 0 0 1 2.11.89 3 3 0 0 1 -2.13 5.1zm0-5.49a2.51 2.51 0 0 0 -2.5 2.47 2.51 2.51 0 0 0 2.48 2.52 2.5 2.5 0 0 0 0-5z" fill="#f8b74a"/><path d="m79.44 252.11h1.5v.25h-1.5z" fill="#f8b74a"/><path d="m76.47 252.36h-3v-.25h3zm-5.94 0h-3v-.25h3zm-6 0h-3v-.25h3zm-5.94 0h-3v-.25h3zm-5.94 0h-3v-.25h3zm-5.94 0h-3v-.25h3zm-5.94 0h-3v-.25h3zm-5.94 0h-3v-.25h3zm-5.94 0h-2.89v-.25h3zm-5.94 0h-2.95v-.25h3z" fill="#f8b74a"/><path d="m15.56 252.11h1.5v.25h-1.5z" fill="#f8b74a"/><path d="m80.91 255.22a3 3 0 1 1 3-3 3 3 0 0 1 -3 3zm0-5.48a2.49 2.49 0 1 0 2.49 2.49 2.5 2.5 0 0 0 -2.49-2.49z" fill="#f8b74a"/><path d="m209.67 100.86h1.5v.25h-1.5z" fill="#f8b74a"/><path d="m206.7 101.11h-3v-.25h3zm-5.92 0h-3v-.25h3zm-5.93 0h-3v-.25h3zm-5.93 0h-3v-.25h3zm-5.92 0h-3v-.25h3zm-5.93 0h-3v-.25h3zm-5.93 0h-3v-.25h3zm-5.92 0h-3v-.25h3zm-5.93 0h-3v-.25h3zm-5.92 0h-3v-.25h3zm-5.93 0h-3v-.25h3zm-5.93 0h-3v-.25h3zm-5.92 0h-3v-.25h3zm-5.93 0h-3v-.25h3zm-5.93 0h-3v-.25h3zm-5.92 0h-3v-.25h3zm-5.93 0h-3v-.25h3zm-5.93 0h-3v-.25h3zm-5.92 0h-3v-.25h3zm-5.93 0h-3v-.25h3zm-5.93 0h-3v-.25h3zm-5.92 0h-3v-.25h3zm-5.93 0h-3v-.25h3zm-5.93 0h-3v-.25h3zm-5.92 0h-3v-.25h3zm-5.93 0h-3v-.25h3zm-5.92 0h-3v-.25h3zm-5.93 0h-3v-.25h3zm-5.93 0h-3v-.25h3zm-5.92 0h-3v-.25h3zm-5.93 0h-2.91v-.25h3zm-5.93 0h-2.98v-.25h3z" fill="#f8b74a"/><path d="m15.56 100.86h1.5v.25h-1.5z" fill="#f8b74a"/></svg>