<svg viewBox="0 0 415.35 355.48" xmlns="http://www.w3.org/2000/svg"><g fill="#00a19b"><path d="m270.45.29v8.86h-2v-6.46h-2.65v6h-2v-6h-3.24v6.68h-2v-9.08z"/><path d="m262.61 19.82a2.44 2.44 0 0 0 -2.28 2.6c0 1.68.88 2.35 1.65 2.35 1 0 1.22-.84 1.75-3 .3-1.18.95-3.81 3.58-3.81 1.31 0 3.33.85 3.33 4.35 0 2.33-.91 4.46-3.61 4.56l-.1-2.41c.62-.1 1.74-.28 1.74-2.19 0-.71-.22-2-1.19-2-.76 0-1.1.75-1.55 2.66s-1 4.29-3.95 4.29a3.5 3.5 0 0 1 -3.13-2 6.89 6.89 0 0 1 -.54-2.82c0-1.28.12-4.45 4.09-4.92z"/><path d="m270.45 33.85h-6.45a5.24 5.24 0 0 0 -2.57.31 2.26 2.26 0 0 0 -1.05 2.12c0 2.29 1.45 2.29 3.49 2.29h6.58v2.43h-6.27c-2.13 0-3.32-.08-4.22-.66-1.41-.92-1.65-2.64-1.65-4 0-4.88 3-4.88 5.77-4.88h6.37z"/><path d="m270.45 45.89v2.33l-8 4.86h8v2.23h-11.94v-2.38l7.79-4.78h-7.79v-2.26z"/><path d="m270.45 64.93v8.19h-2v-5.78h-2.85v5h-2v-5h-5.07v-2.41z"/><path d="m270.45 77.17v2.4h-4.7v4.72h4.7v2.4h-11.94v-2.4h5.22v-4.72h-5.22v-2.4z"/><path d="m262.17 101.21a4.71 4.71 0 0 1 -3.86-4.95c0-3.24 2.36-5.44 6.07-5.44 3.32 0 6.26 1.68 6.26 5.57a5.08 5.08 0 0 1 -1.36 3.65 4.53 4.53 0 0 1 -2.14 1.13l-.56-2.38a2.46 2.46 0 0 0 2-2.52c0-3-3.28-3-4-3a5.65 5.65 0 0 0 -3 .64 2.65 2.65 0 0 0 -1.17 2.3c0 1.6 1.22 2.33 2.52 2.63z"/><path d="m260 14.31a1.54 1.54 0 1 0 -1.54-1.53 1.53 1.53 0 0 0 1.54 1.53z"/><path d="m246 .29v8.83h-2v-6.43h-2.65v6h-2v-6h-3.23v6.65h-2v-9z"/><path d="m238.22 19.76a2.45 2.45 0 0 0 -2.27 2.6c0 1.68.88 2.34 1.64 2.34 1 0 1.21-.83 1.75-3 .3-1.17.95-3.8 3.57-3.8 1.3 0 3.32.85 3.32 4.34 0 2.32-.91 4.45-3.6 4.55l-.1-2.41c.61-.1 1.73-.28 1.73-2.17 0-.72-.22-2-1.18-2-.77 0-1.1.74-1.55 2.65s-1 4.28-3.94 4.28a3.51 3.51 0 0 1 -3.13-2 7 7 0 0 1 -.53-2.81c0-1.28.12-4.44 4.08-4.9z"/><path d="m246 33.76h-6.4a5.22 5.22 0 0 0 -2.56.31 2.23 2.23 0 0 0 -1 2.11c0 2.29 1.44 2.29 3.47 2.29h6.49v2.39h-6.26c-2.12 0-3.3-.08-4.2-.66-1.41-.92-1.65-2.63-1.65-4 0-4.87 3-4.87 5.75-4.87h6.36z"/><path d="m246 45.77v2.32l-7.95 4.84h7.95v2.23h-11.87v-2.38l7.77-4.78h-7.77v-2.23z"/><path d="m235.66 14.27a1.54 1.54 0 0 0 0-3.07 1.54 1.54 0 1 0 0 3.07z"/><path d="m244 69.43a4.58 4.58 0 0 1 -.18 1.4 1.1 1.1 0 0 1 -1.11.64 1.15 1.15 0 0 1 -1.06-.49 2.34 2.34 0 0 1 -.3-1.25v-2.89h2.65zm-4.62.36a3.08 3.08 0 0 1 -.2 1.19 1.28 1.28 0 0 1 -1.28.76 1.5 1.5 0 0 1 -1.49-.78 2.83 2.83 0 0 1 -.21-1.21v-2.91h3.18zm6.67.42v-5.74h-11.9v5.36a8.12 8.12 0 0 0 .16 1.68 3.34 3.34 0 0 0 .6 1.34 3.26 3.26 0 0 0 .93.84 3.51 3.51 0 0 0 1.9.53 3.14 3.14 0 0 0 1.74-.46 2.56 2.56 0 0 0 1-1.36 2.42 2.42 0 0 0 2.43 1.44 3.06 3.06 0 0 0 1.82-.54 3.68 3.68 0 0 0 1.27-3.09z"/><path d="m243.31 82.05-4.68 1.51v-3zm-9.18-5.63v2.58l2.45.81v4.38l-2.45.79v2.69l11.9-4.2v-2.8z"/><path d="m246 90.08v2.59l-8.28 4.71h8.28v2.3h-11.9v-2.46l8.44-4.84h-8.44v-2.3z"/><path d="m246 104.22v2.47h-4.9l4.9 4.59v3.21l-4.91-4.86-7 5.11v-3.2l5.19-3.66-1.21-1.19h-4v-2.47z"/><path d="m379.35.35v8.82h-2v-6.43h-2.65v6h-2v-6h-3.22v6.64h-2v-9z"/><path d="m369 14.31a1.54 1.54 0 1 0 -1.54-1.53 1.54 1.54 0 0 0 1.54 1.53z"/><path d="m371.15 20.16a2.43 2.43 0 0 0 -1.19.44 2.57 2.57 0 0 0 -.71 2.07 4.35 4.35 0 0 0 .19 1.42 1.36 1.36 0 0 0 1.35 1 1 1 0 0 0 .89-.51 5.46 5.46 0 0 0 .55-1.61l.27-1.25a8 8 0 0 1 .9-2.54 2.85 2.85 0 0 1 2.53-1.18 3.35 3.35 0 0 1 2.61 1.15 4.85 4.85 0 0 1 1 3.36 5.18 5.18 0 0 1 -1 3.17 3.5 3.5 0 0 1 -2.84 1.37v-2.3a1.66 1.66 0 0 0 1.48-.93 3.27 3.27 0 0 0 .28-1.44 2.71 2.71 0 0 0 -.37-1.52 1.19 1.19 0 0 0 -1-.57 1 1 0 0 0 -.93.56 7.72 7.72 0 0 0 -.48 1.53l-.48 2a5.43 5.43 0 0 1 -.85 2 2.91 2.91 0 0 1 -2.39 1 3.35 3.35 0 0 1 -2.65-1.23 5.2 5.2 0 0 1 -1.06-3.47 5.65 5.65 0 0 1 1-3.6 3.42 3.42 0 0 1 2.85-1.32z"/><path d="m379.35 29.43v2.5h-7.23a4.19 4.19 0 0 0 -1.78.28 1.91 1.91 0 0 0 -1 1.94 1.9 1.9 0 0 0 1 1.94 4.16 4.16 0 0 0 1.78.29h7.23v2.5h-7.23a6 6 0 0 1 -2.92-.59q-1.92-1.08-1.92-4.14t1.92-4.15a6 6 0 0 1 2.92-.58z"/><path d="m379.35 41.35v2.58l-8.27 4.71h8.27v2.3h-11.89v-2.46l8.44-4.84h-8.44v-2.29z"/><path d="m379.35 57.94v8.43h-2.09v-6h-2.73v5.22h-2v-5.17h-5v-2.48z"/><path d="m367.46 70.3v-2.48h11.9v2.48z"/><path d="m379.36 72.61v2.59l-8.28 4.72h8.28v2.3h-11.9v-2.47l8.44-4.84h-8.44v-2.3z"/><path d="m376.64 89.35-4.64 1.5v-3zm-9.18-5.64v2.61l2.45.81v4.38l-2.45.79v2.7l11.9-4.2v-2.8z"/><path d="m379.36 96.48v2.59l-8.28 4.72h8.28v2.3h-11.9v-2.47l8.44-4.84h-8.44v-2.3z"/><path d="m378.12 109.56a4.87 4.87 0 0 1 1.47 3.65 4.94 4.94 0 0 1 -2 4.33 4.35 4.35 0 0 1 -2.21.81v-2.48a3.53 3.53 0 0 0 1.29-.6 2.43 2.43 0 0 0 .78-2 2.4 2.4 0 0 0 -1.1-2.08 5.34 5.34 0 0 0 -3.09-.77 4.67 4.67 0 0 0 -3 .81 2.48 2.48 0 0 0 -1 2 2.31 2.31 0 0 0 .85 1.94 4 4 0 0 0 1.37.61v2.47a5.33 5.33 0 0 1 -3.15-1.62 4.77 4.77 0 0 1 -1.22-3.36 5 5 0 0 1 1.65-4 7.79 7.79 0 0 1 9.32.2z"/><path d="m367.46 122.63v-2.48h11.9v2.48z"/><path d="m376.64 129.75-4.69 1.5v-3.05zm-9.18-5.64v2.6l2.45.82v4.37l-2.45.79v2.69l11.9-4.2v-2.82z"/><path d="m379.36 136.9v2.48h-9.76v5.91h-2.14v-8.39z"/><path d="m367.46 151.27h11.9v2.48h-4.55v4.6h4.55v2.47h-11.9v-2.47h5.3v-4.6h-5.3z"/><path d="m369.25 168.49a2.87 2.87 0 0 1 1.09-2.36 4.82 4.82 0 0 1 3.09-.88 4.87 4.87 0 0 1 3.1.88 2.89 2.89 0 0 1 1.08 2.36 2.83 2.83 0 0 1 -1.09 2.34 5.92 5.92 0 0 1 -6.18 0 2.83 2.83 0 0 1 -1.09-2.34zm4.18 5.68a6.32 6.32 0 0 0 4.9-1.79 6.2 6.2 0 0 0 0-7.8 6.29 6.29 0 0 0 -4.9-1.81 6.4 6.4 0 0 0 -4.89 1.81 6.17 6.17 0 0 0 0 7.8 6.43 6.43 0 0 0 4.89 1.79z"/><path d="m379.36 176.09v2.47h-9.76v5.92h-2.14v-8.39z"/><path d="m377.31 190.85a2.38 2.38 0 0 1 -1 2.26 5.5 5.5 0 0 1 -2.8.57 6.26 6.26 0 0 1 -2.28-.37 2.49 2.49 0 0 1 -1.75-2.46v-2.3h7.81zm2.05.43v-5.13h-11.9v5.13a4.27 4.27 0 0 0 2.22 4 7.92 7.92 0 0 0 4 1 9.29 9.29 0 0 0 2-.22 5.33 5.33 0 0 0 1.92-.85 4 4 0 0 0 1.51-2 6.18 6.18 0 0 0 .25-1.93z"/><path d="m367.46 200.36v-2.47h11.9v2.47z"/><path d="m379.36 202.68v2.59l-8.28 4.73h8.28v2.3h-11.9v-2.47l8.44-4.83h-8.44v-2.3z"/><path d="m375.62 222.53a2.28 2.28 0 0 0 1.68-1.35 3.16 3.16 0 0 0 .26-1.33 2.88 2.88 0 0 0 -1.06-2.3 4.93 4.93 0 0 0 -3.22-.9 4 4 0 0 0 -3.06 1 3.18 3.18 0 0 0 -.9 2.22 2.88 2.88 0 0 0 .71 2 3.05 3.05 0 0 0 1.86 1v-2.67h2v4.8h-6.39v-1.64l1.55-.26a5.87 5.87 0 0 1 -1.17-1.27 4.48 4.48 0 0 1 -.59-2.37 4.92 4.92 0 0 1 1.62-3.8 6.16 6.16 0 0 1 4.43-1.54 6.5 6.5 0 0 1 4.56 1.56 5.31 5.31 0 0 1 1.72 4.14 5.43 5.43 0 0 1 -1.13 3.58 4.23 4.23 0 0 1 -2.83 1.55z"/><path d="m378.13 233.23a5.47 5.47 0 0 1 -.49 7.91 4.28 4.28 0 0 1 -2.19.81v-2.46a3.37 3.37 0 0 0 1.29-.6 2.65 2.65 0 0 0 -.32-4 5.36 5.36 0 0 0 -3.07-.75 4.69 4.69 0 0 0 -3 .79 2.48 2.48 0 0 0 -1 2 2.3 2.3 0 0 0 .84 1.92 3.69 3.69 0 0 0 1.36.61v2.45a5.35 5.35 0 0 1 -3.13-1.61 4.73 4.73 0 0 1 -1.21-3.33 5 5 0 0 1 1.64-3.95 7.75 7.75 0 0 1 9.24.2z"/><path d="m369.31 249.27a2.84 2.84 0 0 1 1.07-2.31 5.79 5.79 0 0 1 6.07 0 2.81 2.81 0 0 1 1.07 2.31 2.78 2.78 0 0 1 -1.07 2.3 5.84 5.84 0 0 1 -6.07 0 2.78 2.78 0 0 1 -1.07-2.3zm4.11 5.59a6.16 6.16 0 0 0 4.8-1.77 6.06 6.06 0 0 0 0-7.65 6.16 6.16 0 0 0 -4.8-1.77 6.31 6.31 0 0 0 -4.81 1.77 6.06 6.06 0 0 0 0 7.65 6.31 6.31 0 0 0 4.81 1.77z"/><path d="m379.36 264.78v3.57h-11.9v-2.3h10l-10-2.26v-2.43l10-2.24h-10v-2.3h11.9v3.6l-9.36 2.2z"/><path d="m375.59 277.16a1.76 1.76 0 0 1 -1.36-.47 1.85 1.85 0 0 1 -.43-1.31v-2.22h3.51v2.22a2 2 0 0 1 -.39 1.31 1.68 1.68 0 0 1 -1.33.47zm0 2.47a3.62 3.62 0 0 0 2.85-1 4.13 4.13 0 0 0 .92-2.81v-5.09h-11.9v2.47h4.29v2.47a4.53 4.53 0 0 0 .87 3 3.7 3.7 0 0 0 2.97.96z"/><path d="m376.64 285.22-4.69 1.5v-3.05zm-9.18-5.64v2.61l2.45.81v4.38l-2.45.78v2.7l11.9-4.21v-2.81z"/><path d="m379.36 292.35v2.59l-8.28 4.71h8.28v2.35h-11.9v-2.47l8.44-4.83h-8.44v-2.3z"/><path d="m379.36 311.07v2.82l-7.45-4h-4.45v-2.48h4.44l7.46-4.12v2.93l-5.19 2.46z"/><path d="m365.53 313.2a1.77 1.77 0 0 0 .65 1 2.46 2.46 0 0 0 1.28.38v-1.38h2.4v2.47h-2.08a5.23 5.23 0 0 1 -1.15-.14 2.37 2.37 0 0 1 -1-.54 2.78 2.78 0 0 1 -.71-1 2.65 2.65 0 0 1 -.24-.79z"/><path d="m379.36 322.68v2.48h-9.76v5.91h-2.14v-8.39z"/><path d="m379.36 340.18h-2.1v-3.57h-9.8v-2.47h9.8v-3.57h2.1z"/><path d="m377.31 346.32a2.41 2.41 0 0 1 -1 2.27 5.6 5.6 0 0 1 -2.8.57 6.25 6.25 0 0 1 -2.28-.38 2.47 2.47 0 0 1 -1.75-2.46v-2.32h7.81zm2.05.43v-5.12h-11.9v5.12a4.27 4.27 0 0 0 2.22 4 7.82 7.82 0 0 0 4 1 9.32 9.32 0 0 0 2-.23 5.17 5.17 0 0 0 1.92-.85 3.94 3.94 0 0 0 1.51-2 6.26 6.26 0 0 0 .25-1.92z"/><path d="m367.41 355.48v-2.48h2.21v2.45z"/><path d="m355 .29v8.84h-2v-6.44h-2.65v6h-2v-6h-3.22v6.65h-2v-9z"/><path d="m344.59 14.28a1.54 1.54 0 1 0 -1.54-1.54 1.53 1.53 0 0 0 1.54 1.54z"/><path d="m346.76 20.14a2.39 2.39 0 0 0 -1.19.44 2.58 2.58 0 0 0 -.72 2.07 4.64 4.64 0 0 0 .19 1.42 1.36 1.36 0 0 0 1.36 1 1 1 0 0 0 .89-.51 5.77 5.77 0 0 0 .55-1.61l.28-1.25a7.75 7.75 0 0 1 .89-2.54 2.86 2.86 0 0 1 2.54-1.16 3.4 3.4 0 0 1 2.61 1.14 4.89 4.89 0 0 1 1 3.37 5.16 5.16 0 0 1 -1 3.17 3.5 3.5 0 0 1 -2.84 1.37v-2.32a1.63 1.63 0 0 0 1.47-.93 3.27 3.27 0 0 0 .29-1.44 2.74 2.74 0 0 0 -.38-1.52 1.19 1.19 0 0 0 -1.05-.57 1 1 0 0 0 -.93.56 7.66 7.66 0 0 0 -.48 1.54l-.48 2a5.37 5.37 0 0 1 -.85 2 2.88 2.88 0 0 1 -2.39 1 3.35 3.35 0 0 1 -2.65-1.24 5.13 5.13 0 0 1 -1.06-3.47 5.64 5.64 0 0 1 1-3.61 3.44 3.44 0 0 1 2.85-1.31z"/><path d="m355 29.35v2.51h-7.25a4.11 4.11 0 0 0 -1.77.28 1.91 1.91 0 0 0 -1 2 1.88 1.88 0 0 0 1.02 1.86 4.08 4.08 0 0 0 1.77.29h7.23v2.5h-7.25a6 6 0 0 1 -2.92-.58q-1.92-1.08-1.92-4.14c0-2 .64-3.43 1.92-4.15a6 6 0 0 1 2.92-.59z"/><path d="m355 41.34v2.59l-8.28 4.71h8.28v2.3h-11.9v-2.47l8.44-4.83h-8.44v-2.3z"/><path d="m353.75 58.85a5.55 5.55 0 0 1 -.5 8 4.11 4.11 0 0 1 -2.2.81v-2.49a3.27 3.27 0 0 0 1.27-.61 2.7 2.7 0 0 0 -.31-4.05 5.24 5.24 0 0 0 -3.06-.76 4.57 4.57 0 0 0 -3 .8 2.53 2.53 0 0 0 -1 2 2.3 2.3 0 0 0 .85 1.94 3.74 3.74 0 0 0 1.37.62v2.46a5.35 5.35 0 0 1 -3.1-1.57 4.77 4.77 0 0 1 -1.21-3.35 5.09 5.09 0 0 1 1.63-4 6.61 6.61 0 0 1 4.5-1.44 6.53 6.53 0 0 1 4.76 1.64z"/><path d="m344.9 74.93a2.84 2.84 0 0 1 1.1-2.32 4.82 4.82 0 0 1 3.06-.86 4.77 4.77 0 0 1 3.05.86 2.82 2.82 0 0 1 1.08 2.32 2.76 2.76 0 0 1 -1.08 2.3 5.86 5.86 0 0 1 -6.11 0 2.78 2.78 0 0 1 -1.1-2.3zm4.1 5.59a6.16 6.16 0 0 0 4.8-1.77 6.07 6.07 0 0 0 0-7.66 6.16 6.16 0 0 0 -4.8-1.77 6.3 6.3 0 0 0 -4.81 1.77 6.07 6.07 0 0 0 0 7.66 6.3 6.3 0 0 0 4.81 1.77z"/><path d="m355 90.35v3.56h-11.92v-2.3h10l-10-2.25v-2.36l10-2.24h-10v-2.3h11.92v3.54l-9.35 2.16z"/><path d="m355 104v3.56h-11.92v-2.3h10l-10-2.26v-2.41l10-2.24h-10v-2.3h11.92v3.6l-9.35 2.16z"/><path d="m352.89 118.46v-6.15h-2.55v5.63h-2.07v-5.63h-3.08v6.45h-2.12v-8.87h11.93v8.57z"/><path d="m352.89 126a2.45 2.45 0 0 1 -.21 1.15 1.48 1.48 0 0 1 -1.45.68 1.33 1.33 0 0 1 -1.34-.7 2.83 2.83 0 0 1 -.19-1.19v-2.68h3.19zm2.08.51v-5.67h-11.9v2.42h4.65v2.42a2 2 0 0 1 -.38 1.41 2.23 2.23 0 0 1 -1.51.39h-1.1a5.69 5.69 0 0 0 -1 .11c-.16 0-.37.09-.64.17v2.73h.3a1 1 0 0 1 .68-.46 5.32 5.32 0 0 1 1.1-.07h.79a3.92 3.92 0 0 0 1.86-.34 2.19 2.19 0 0 0 .94-1.16 2.37 2.37 0 0 0 1.16 1.4 3.52 3.52 0 0 0 1.67.43 3.44 3.44 0 0 0 1.25-.22 4 4 0 0 0 1-.6 3 3 0 0 0 .83-1.11 5.2 5.2 0 0 0 .33-1.85z"/><path d="m353.75 133.77a5.54 5.54 0 0 1 -.5 8 4.11 4.11 0 0 1 -2.2.81v-2.46a3.55 3.55 0 0 0 1.28-.6 2.48 2.48 0 0 0 .76-2 2.43 2.43 0 0 0 -1.08-2.09 5.24 5.24 0 0 0 -3.06-.76 4.65 4.65 0 0 0 -3 .8 2.55 2.55 0 0 0 -1 2 2.32 2.32 0 0 0 .84 1.93 3.82 3.82 0 0 0 1.37.62v2.46a5.32 5.32 0 0 1 -3.14-1.63 4.72 4.72 0 0 1 -1.21-3.35 5 5 0 0 1 1.63-4 7.68 7.68 0 0 1 9.25.2z"/><path d="m343.06 146.78v-2.49h11.94v2.49z"/><path d="m352.24 153.79-4.7 1.51v-3.05zm-9.17-5.65v2.62l2.44.82v4.42l-2.44.79v2.7l11.9-4.21v-2.88z"/><path d="m355 160.84v2.48h-9.78v6h-2.12v-8.45z"/><path d="m352.88 180.12a4.65 4.65 0 0 1 -.18 1.41 1.08 1.08 0 0 1 -1.11.64 1.11 1.11 0 0 1 -1-.48 2.41 2.41 0 0 1 -.3-1.27v-2.89h2.63zm-4.61.36a3.3 3.3 0 0 1 -.2 1.2 1.29 1.29 0 0 1 -1.27.77 1.49 1.49 0 0 1 -1.48-.79 2.88 2.88 0 0 1 -.21-1.22v-2.91h3.16zm6.7.43v-5.77h-11.9v5.38a9.06 9.06 0 0 0 .11 1.69 3.34 3.34 0 0 0 .6 1.34 3.47 3.47 0 0 0 .94.85 3.53 3.53 0 0 0 1.9.53 3.15 3.15 0 0 0 1.75-.46 2.64 2.64 0 0 0 1.05-1.36 2.79 2.79 0 0 0 .68.9 2.72 2.72 0 0 0 1.76.54 3.09 3.09 0 0 0 1.83-.54 3.69 3.69 0 0 0 1.31-3.1z"/><path d="m352.27 191.76-4.69 1.5v-3zm-9.2-5.65v2.61l2.47.82v4.37l-2.47.8v2.7l11.9-4.22v-2.82z"/><path d="m355 198.82v2.6l-8.25 4.68h8.25v2.31h-11.9v-2.48l8.43-4.8h-8.43v-2.31z"/><path d="m355 210.74v2.48h-4.85l4.85 4.57v3.21l-4.89-4.86-7 5.11v-3.21l5.18-3.66-1.19-1.17h-4v-2.48z"/><path d="m341.14 224.11a1.78 1.78 0 0 0 .65 1 2.49 2.49 0 0 0 1.28.38v-1.38h2.44v2.48h-2.11a4.72 4.72 0 0 1 -1.15-.15 2.32 2.32 0 0 1 -1-.55 2.78 2.78 0 0 1 -.71-1 2.65 2.65 0 0 1 -.24-.79z"/><path d="m355 233.39v2.48h-9.78v6h-2.13v-8.45z"/><path d="m355 250.89h-2.11v-3.58h-9.79v-2.49h9.79v-3.59h2.11z"/><path d="m352.88 256.94a2.4 2.4 0 0 1 -1 2.27 5.58 5.58 0 0 1 -2.79.58 6 6 0 0 1 -2.28-.39 2.48 2.48 0 0 1 -1.73-2.46v-2.3h7.77zm2.09.43v-5.14h-11.9v5.14a4.27 4.27 0 0 0 2.18 4 7.92 7.92 0 0 0 4 1 9.32 9.32 0 0 0 2-.23 5.14 5.14 0 0 0 1.93-.85 3.89 3.89 0 0 0 1.52-2 6.26 6.26 0 0 0 .3-1.92z"/><path d="m343.07 266.31v-2.43h2.2v2.43z"/></g><path d="m71.69 7.73v-.67c0-.06 0-.09.13-.09q.63 0 .63.09c0 .08 0 .13-.07.13s-.09.06-.09.18v.36h3.19c.06 0 .09 0 .09.13v.26c0 .09 0 .14-.09.14h-3.19v.74h2.19c.09 0 .13 0 .13.1v4.75h1.13c.07 0 .1.05.1.13v.27c0 .08 0 .13-.1.13h-7.43c-.07 0-.11-.05-.11-.13v-.25c0-.08 0-.13.11-.13h1.13v-4.72c0-.09 0-.13.12-.13h2.13v-.76h-3.12c-.07 0-.09 0-.09-.14v-.26c0-.09 0-.13.09-.13zm2.31 2.48v-.66h-4v.66zm0 1.2v-.66h-4v.66zm0 1.23v-.64h-4v.69zm0 1.23v-.7h-4v.7z" fill="#231815"/><path d="m72.13 17.19c0-.46 0-.94 0-1.46 0-.11 0-.17.1-.17h.56c.09 0 .14.05.14.1s0 .13-.1.13a.23.23 0 0 0 -.1.21v1.16h3c.07 0 .1 0 .1.13v.27c0 .09 0 .13-.1.13h-2.97c0 .21 0 .41.06.61a7.9 7.9 0 0 0 .45 1.9 5.66 5.66 0 0 0 .66 1.35 3.11 3.11 0 0 0 .61.75.77.77 0 0 0 .28.1s.09 0 .15-.12a6.75 6.75 0 0 0 .42-1c0-.1 0-.15.09-.15s0 0 .07.05a.8.8 0 0 0 .24.28.37.37 0 0 1 0 .17 11.62 11.62 0 0 1 -.58 1.28c-.15.19-.29.28-.41.28a1.43 1.43 0 0 1 -.8-.47 4.93 4.93 0 0 1 -.87-1.17 7.68 7.68 0 0 1 -.66-1.75 10.1 10.1 0 0 1 -.35-2v-.05h-3.81c-.07 0-.11 0-.11-.13v-.27c0-.09 0-.13.11-.13zm-.44 1.81c.07 0 .1 0 .1.13v.27c0 .08 0 .12-.1.12h-1.23v2.27c.5-.11 1-.23 1.41-.35a.08.08 0 0 1 .06 0s.06 0 .06.07a1.65 1.65 0 0 1 .01.49c-1 .27-2.06.51-3.09.73-.09.15-.15.24-.2.24s-.16-.24-.33-.7c.42-.06.94-.15 1.53-.29v-2.44h-1.3c-.07 0-.09 0-.09-.12v-.27c0-.09 0-.13.09-.13zm3.08-2.87c.25.17.46.34.64.47v.08l-.29.39a9 9 0 0 0 -.85-.64 5.37 5.37 0 0 0 -.61-.32 1.42 1.42 0 0 1 .26-.38s.05-.06.07-.06z" fill="#231815"/><path d="m71.79 25.59v-1.43c0-.07 0-.1.14-.1.44 0 .66 0 .66.1s0 .12-.09.13-.08.07-.08.17v1.13h2.86c.11 0 .16 0 .16.1v3.85c0 .07 0 .1-.16.1h-.34c-.08 0-.12 0-.12-.1v-.63h-2.4v2.76c0 .06-.06.1-.16.1h-.33c-.1 0-.14 0-.14-.1v-2.76h-2.56v.6c0 .07-.06.1-.16.1h-.33c-.09 0-.14 0-.14-.1v-3.79a.12.12 0 0 1 .14-.13zm0 2.72v-2.13h-2.56v2.13zm.63 0h2.4v-2.13h-2.4z" fill="#231815"/><path d="m72.62 32.59c0 .08 0 .12-.08.13s-.09.07-.09.17v1h3.22c.07 0 .11 0 .11.09v.34c0 .09 0 .13-.11.13h-1.37c-.1.37-.21.72-.33 1.06a5.56 5.56 0 0 1 -.67 1.36 8.76 8.76 0 0 1 -.85 1.09 5 5 0 0 0 1.36.86 8.76 8.76 0 0 0 2 .68c.09 0 .13.06.13.09a.25.25 0 0 1 0 .11 2.21 2.21 0 0 0 -.35.34c0 .05-.08.08-.11.08a.93.93 0 0 1 -.28-.12c-.38-.13-.78-.28-1.23-.46a10.26 10.26 0 0 1 -1.47-.83l-.5-.35a6.52 6.52 0 0 1 -.85.64 8 8 0 0 1 -1.3.71c-.39.15-.82.29-1.27.42a.14.14 0 0 1 -.12-.06l-.32-.37a.23.23 0 0 1 0-.1s0-.06.09-.09a7 7 0 0 0 1.35-.38 9.1 9.1 0 0 0 1.08-.56 5.54 5.54 0 0 0 .9-.67 2.68 2.68 0 0 1 -.23-.26 4.19 4.19 0 0 1 -.85-1.34 8 8 0 0 1 -.7-1.88h-1.41c-.06 0-.1 0-.1-.13v-.29c0-.06 0-.09.1-.09h3.45v-1.32c0-.06.05-.09.14-.09q.66 0 .66.09zm-1.88 3a5.74 5.74 0 0 0 .79 1.41 3.37 3.37 0 0 0 .42.49 4.72 4.72 0 0 0 .85-1.07 4.47 4.47 0 0 0 .58-1 9.38 9.38 0 0 0 .32-.94h-3.34a5.85 5.85 0 0 0 .38 1.1z" fill="#231815"/><path d="m69.9 41.2c.09 0 .13.08.13.13s0 .08-.13.09a.2.2 0 0 0 -.2.12.09.09 0 0 0 0 .05h2.22s.07 0 .07.11v.3c0 .07 0 .1-.07.1h-1.2c.15.17.31.35.44.53s0 .13 0 .13a.86.86 0 0 1 -.45.2 8.75 8.75 0 0 0 -.6-.86h-.69a4.39 4.39 0 0 1 -.57.7.26.26 0 0 1 -.16.09.23.23 0 0 1 -.15-.05l-.32-.14s-.06 0-.06 0 0 0 0-.07a5.24 5.24 0 0 0 .67-.68 2.71 2.71 0 0 0 .47-.76c0-.07.07-.11.11-.11zm1.46 1.8c.08 0 .13 0 .13.1v2.22c0 .07 0 .1-.13.1h-2.36v3.28c0 .07 0 .1-.13.1h-.33c-.09 0-.13 0-.13-.1v-5.58c0-.06 0-.1.13-.1zm-.46 1v-.53h-1.9v.53zm0 1v-.5h-1.9v.5zm2.42.9c.09 0 .13 0 .13.1v2.6c0 .07 0 .1-.13.1h-.32c-.07 0-.1 0-.1-.1v-.2h-1.9v.2c0 .07 0 .1-.14.1h-.36c-.07 0-.1 0-.1-.1v-2.6c0-.07 0-.1.1-.1zm-.43 1v-.57h-1.89v.57zm0 1v-.56h-1.89v.56zm.74-6.73c.08 0 .12.08.12.13s0 .08-.12.09a.2.2 0 0 0 -.2.12s0 0 0 .05h2.38s.06 0 .06.11v.33c0 .07 0 .1-.06.1h-1.29a5.62 5.62 0 0 1 .46.53v.13a.83.83 0 0 1 -.45.2 7.16 7.16 0 0 0 -.63-.86h-.72a4.38 4.38 0 0 1 -.56.7.24.24 0 0 1 -.15.09.24.24 0 0 1 -.14-.05l-.33-.18s-.07 0-.07 0 0 0 0-.07a4 4 0 0 0 .62-.68 2.87 2.87 0 0 0 .45-.76c0-.07.07-.11.11-.11zm1.75 1.83c.11 0 .17 0 .17.1v5c0 .2-.14.37-.4.49a3.91 3.91 0 0 1 -1 .18c-.06 0-.09 0-.1-.1a2.05 2.05 0 0 0 -.2-.54s0 0 .09 0a2.45 2.45 0 0 0 .83-.08.24.24 0 0 0 .14-.23v-2.38h-2.39c-.09 0-.13 0-.13-.1v-2.22c0-.06 0-.1.13-.1zm-.44 1v-.53h-1.94v.53zm0 1v-.5h-1.94v.5z" fill="#231815"/><path d="m70 50.43v1.39h1s.07 0 .07.1v.26c0 .1 0 .14-.07.14h-.91a5.92 5.92 0 0 0 .31.85 4.55 4.55 0 0 0 .62 1s0 .05 0 .09l-.06.06a1.2 1.2 0 0 1 -.22.24.14.14 0 0 1 -.09.06s0 0-.08-.06a5.22 5.22 0 0 1 -.54-1 .8.8 0 0 1 -.07-.2v3.72c0 .07 0 .1-.13.1h-.33c-.07 0-.1 0-.1-.1v-3.29c-.12.27-.23.53-.35.75a6.75 6.75 0 0 1 -.55.9c-.06 0-.11 0-.13 0l-.33-.16s-.07 0-.07 0a5.45 5.45 0 0 0 .69-1 5.29 5.29 0 0 0 .41-.93 7.48 7.48 0 0 0 .27-.92h-1.07s-.07 0-.07-.14v-.26c0-.07 0-.1.07-.1h1.17v-1.37a4.92 4.92 0 0 1 -1 .1.11.11 0 0 1 -.13-.1c-.06-.12-.12-.22-.17-.3s0-.1.06-.1a5.7 5.7 0 0 0 1.31-.1 2.34 2.34 0 0 0 1.08-.46.18.18 0 0 1 .1 0s.06 0 .11.06a4.19 4.19 0 0 1 .29.37c0 .07 0 .1-.06.1h-.2a3.35 3.35 0 0 1 -.83.3zm3.25 1.89v-.5s0-.07.1-.07c.4 0 .6 0 .6.1s0 .11-.07.11-.07.06-.07.16v.2h1.5c.11 0 .17 0 .17.13v2.55h.52s.07 0 .07.1v.27c0 .09 0 .13-.07.13h-.49v1.2a.47.47 0 0 1 -.32.41 4.08 4.08 0 0 1 -.78.16.1.1 0 0 1 -.11-.1 1.73 1.73 0 0 0 -.18-.51s0 0 0 0a2.38 2.38 0 0 0 .65-.05.22.22 0 0 0 .12-.2v-.84h-2.73v1.59c0 .07 0 .1-.13.1h-.34c-.07 0-.1 0-.1-.1v-1.62h-.53s-.07 0-.07-.13v-.27c0-.06 0-.1.07-.1h.53v-2.63a.09.09 0 0 1 .1-.09zm2-2.27a8.74 8.74 0 0 1 -1 .18c-.47.07-.9.12-1.28.14s-.89.06-1.28.06c-.1 0-.15 0-.16-.11l-.23-.32c0-.07 0-.11.09-.11h.43a12.49 12.49 0 0 0 1.3-.05 5.54 5.54 0 0 0 1-.1 4.13 4.13 0 0 0 1-.23h.09a.28.28 0 0 1 .13 0c.28.25.43.41.43.47s0 .06-.1.06l-.2-.06zm-3.43.54a7.66 7.66 0 0 1 .63 1v.11a.73.73 0 0 1 -.41.19c-.2-.45-.4-.82-.57-1.13 0 0 .12-.13.34-.23a.06.06 0 0 1 .01.06zm1.43 3.06v-.84h-1.09v.84zm0 1.39v-.9h-1.09v.86zm.2-4.55a7.75 7.75 0 0 1 .5.9v.12a.93.93 0 0 1 -.42.17q-.23-.59-.42-1s.11-.13.33-.23a.09.09 0 0 1 .01.04zm.36 3.16h1.1v-.84h-1.1zm1.1 1.35v-.9h-1.1v.9zm.73-4.45c.07 0 .1.07.1.1a.08.08 0 0 1 -.07.08.12.12 0 0 0 -.11.08 4.81 4.81 0 0 1 -.46 1s-.07.08-.09.08a.36.36 0 0 1 -.13 0l-.28-.12h-.06a4.09 4.09 0 0 0 .34-.52 3.82 3.82 0 0 0 .25-.6s0-.08.06-.08z" fill="#231815"/><path d="m297.93 8.14v-.67c0-.06 0-.1.14-.1.41 0 .63 0 .63.1s0 .12-.08.12-.09.07-.09.18v.37h3.19c.06 0 .1 0 .1.12v.27c0 .09 0 .13-.1.13h-3.19v.77h2.2c.08 0 .13 0 .13.1v4.74h1.14c.06 0 .1.05.1.14v.26c0 .09 0 .14-.1.14h-7.44c-.07 0-.1-.05-.1-.14v-.26c0-.09 0-.14.1-.14h1.13v-4.71c0-.09 0-.13.13-.13h2.12v-.77h-3.12c-.07 0-.09 0-.09-.13v-.27c0-.08 0-.12.09-.12zm2.33 2.48v-.62h-4v.66zm0 1.2v-.67h-4v.67zm0 1.23v-.7h-4v.7zm0 1.22v-.69h-4v.69z" fill="#231815"/><path d="m298.37 17.6c0-.46 0-1 0-1.46 0-.11 0-.17.1-.17h.56c.09 0 .14.05.14.1s0 .13-.09.13a.2.2 0 0 0 -.11.2v1.17h3c.07 0 .1 0 .1.12v.31c0 .08 0 .12-.1.12h-2.97c0 .22 0 .42.06.62a8.54 8.54 0 0 0 .45 1.9 5.07 5.07 0 0 0 .67 1.34 2.77 2.77 0 0 0 .61.76.69.69 0 0 0 .27.1s.09 0 .15-.13a5.85 5.85 0 0 0 .42-1c0-.09.06-.14.09-.14s0 0 .07.05a.88.88 0 0 0 .24.27.44.44 0 0 1 .06.17 13.85 13.85 0 0 1 -.59 1.29c-.15.18-.29.28-.41.28a1.53 1.53 0 0 1 -.8-.47 5.21 5.21 0 0 1 -.86-1.17 7.37 7.37 0 0 1 -.67-1.75 10.86 10.86 0 0 1 -.34-2v-.06h-3.87c-.07 0-.1 0-.1-.12v-.28c0-.08 0-.12.1-.12zm-.44 1.82c.07 0 .1 0 .1.13v.27c0 .09 0 .13-.1.13h-1.22v2.27c.49-.11 1-.23 1.4-.36h.06s.07 0 .07.06a1.34 1.34 0 0 1 0 .46c-1 .28-2.05.51-3.09.73-.08.16-.14.24-.2.24s-.16-.24-.33-.69c.43-.06.94-.16 1.53-.29v-2.37h-1.3c-.07 0-.09 0-.09-.13v-.27c0-.08 0-.13.09-.13zm3.07-2.86c.24.17.46.33.63.47v.07l-.29.4a7.56 7.56 0 0 0 -.85-.64 3 3 0 0 0 -.61-.32 1.55 1.55 0 0 1 .26-.38l.07-.06c.31.17.59.32.79.46z" fill="#231815"/><path d="m296.64 25.14v-.57c0-.07 0-.1.14-.1.41 0 .62 0 .62.1s0 .12-.08.13-.09.06-.09.17v.27h2.13v-.54c0-.07 0-.1.14-.1.41 0 .62 0 .62.1s0 .12-.08.13-.08.07-.08.17v.24h2c.06 0 .1 0 .1.12v.27c0 .09 0 .13-.1.13h-2v.6c0 .07 0 .1-.13.1h-.33c-.1 0-.14 0-.14-.1v-.6h-2.13v.6c0 .07 0 .1-.12.1h-.33c-.1 0-.14 0-.14-.1v-.6h-2.16c-.07 0-.1 0-.1-.13v-.27c0-.08 0-.12.1-.12zm1.29 1.86v-.74s0-.09 0-.09l.6.05c.08 0 .13 0 .13.08a.11.11 0 0 1 -.08.11.15.15 0 0 0 -.09.16v.43h2.16c.09 0 .13 0 .13.1v2h1.22c.07 0 .1 0 .1.13v.26c0 .1 0 .14-.1.14h-3.31a5.13 5.13 0 0 0 .47.63 3 3 0 0 0 .71.59 4.64 4.64 0 0 0 .79.44 6.76 6.76 0 0 0 .85.31l.53.11h.1a.2.2 0 0 1 -.09.14l-.26.31a.22.22 0 0 1 -.16.09 8.48 8.48 0 0 1 -1.3-.47 5.58 5.58 0 0 1 -.82-.48 3.29 3.29 0 0 1 -.73-.65 6.55 6.55 0 0 1 -.53-.71 2 2 0 0 1 -.32.56 4.06 4.06 0 0 1 -.84.8 6.2 6.2 0 0 1 -1.54.79 3.11 3.11 0 0 1 -.76.18c-.05 0-.07 0-.09-.07s-.16-.29-.24-.41h-.07s0-.05.06-.05a6.26 6.26 0 0 0 1.21-.3 3.83 3.83 0 0 0 1-.53 2.38 2.38 0 0 0 .75-.69 1.3 1.3 0 0 0 .31-.59h-3.2c-.07 0-.1 0-.1-.14v-.26c0-.09 0-.13.1-.13h1.13v-2.01a.12.12 0 0 1 .13-.13zm-.05 2a4.79 4.79 0 0 0 .05-.7v-.83h-1.66v1.53zm.65-.7a6.81 6.81 0 0 1 0 .7h1.73v-1.51h-1.7z" fill="#231815"/><path d="m298.87 33a.12.12 0 0 1 -.09.13c-.06 0-.08.07-.08.17v1h3.22c.07 0 .1 0 .1.09v.34c0 .08 0 .13-.1.13h-1.38c-.1.36-.21.72-.32 1.06a6 6 0 0 1 -.68 1.36 8.64 8.64 0 0 1 -.84 1.09h.05a5.59 5.59 0 0 0 1.36.86 9.56 9.56 0 0 0 1.94.68c.09 0 .13.06.13.09a.18.18 0 0 1 0 .1 3.69 3.69 0 0 0 -.35.34s-.08.09-.1.09a1 1 0 0 1 -.25-.1c-.37-.12-.78-.28-1.22-.45a9.08 9.08 0 0 1 -1.48-.84 5.05 5.05 0 0 1 -.48-.39 5.8 5.8 0 0 1 -.85.65 8 8 0 0 1 -1.3.7 12.37 12.37 0 0 1 -1.26.43.2.2 0 0 1 -.13-.06 4 4 0 0 0 -.32-.38.21.21 0 0 1 0-.09s0-.07.09-.09a7.73 7.73 0 0 0 1.35-.38 8 8 0 0 0 1.09-.57 4.83 4.83 0 0 0 .89-.67l-.23-.25a4.42 4.42 0 0 1 -.85-1.34 9 9 0 0 1 -.7-1.88h-1.37c-.07 0-.1 0-.1-.13v-.34c0-.06 0-.09.1-.09h3.45v-1.26c0-.06 0-.09.13-.09.36 0 .58.03.58.09zm-1.87 3a5.7 5.7 0 0 0 .79 1.41 4.26 4.26 0 0 0 .42.5 7.15 7.15 0 0 0 1.43-2.12c.12-.29.22-.6.33-.94h-3.34a6.23 6.23 0 0 0 .37 1.15z" fill="#231815"/><path d="m296.15 41.61c.08 0 .12.08.12.13s0 .07-.12.09a.21.21 0 0 0 -.21.11v.06h2.23s.06 0 .06.1v.27c0 .06 0 .1-.06.1h-1.17a5.37 5.37 0 0 1 .44.53v.13a.83.83 0 0 1 -.45.2 7.31 7.31 0 0 0 -.6-.86h-.69a3.9 3.9 0 0 1 -.57.7.33.33 0 0 1 -.16.09.3.3 0 0 1 -.14 0l-.33-.15s-.06 0-.06 0 0 0 0-.07a4.52 4.52 0 0 0 .66-.68 2.86 2.86 0 0 0 .47-.76c0-.07.07-.11.12-.11zm1.45 1.82c.09 0 .14 0 .14.1v2.22c0 .07-.05.1-.14.1h-2.35v3.26c0 .06-.06.1-.14.1h-.33c-.09 0-.13 0-.13-.1v-5.58c0-.07 0-.1.13-.1zm-.46 1v-.53h-1.89v.52zm0 1v-.49h-1.89v.49zm2.42.9c.09 0 .13 0 .13.11v2.56c0 .07 0 .11-.13.11h-.33c-.07 0-.1 0-.1-.11v-.19h-1.92v.19c0 .07 0 .11-.14.11h-.33c-.07 0-.1 0-.1-.11v-2.61c0-.07 0-.11.1-.11zm-.43 1v-.57h-1.92v.57zm0 1v-.56h-1.92v.56zm.74-6.73c.08 0 .13.08.13.13s-.05.07-.13.09a.2.2 0 0 0 -.2.11.33.33 0 0 1 0 .06h2.33s.07 0 .07.1v.27c0 .06 0 .1-.07.1h-1.26a5.62 5.62 0 0 1 .46.53c0 .08 0 .12-.05.13a.84.84 0 0 1 -.44.2 7.11 7.11 0 0 0 -.64-.86h-.72a5 5 0 0 1 -.55.7.29.29 0 0 1 -.16.09.31.31 0 0 1 -.13 0l-.33-.15c-.05 0-.06 0-.06 0s0 0 0-.07a4 4 0 0 0 .62-.68 3.09 3.09 0 0 0 .46-.76c0-.07.07-.11.1-.11zm1.75 1.82c.11 0 .17 0 .17.1v5c0 .2-.14.37-.4.49a4.32 4.32 0 0 1 -1 .18c-.06 0-.09 0-.1-.1a2.05 2.05 0 0 0 -.2-.54s0 0 .09 0a2.36 2.36 0 0 0 .83-.08.25.25 0 0 0 .15-.24v-2.38h-2.43c-.09 0-.13 0-.13-.1v-2.22c0-.07 0-.1.13-.1zm-.43 1v-.52h-2v.52zm0 1v-.49h-2v.49z" fill="#231815"/><path d="m296.24 50.83v1.4h1s.07 0 .07.1v.26c0 .1 0 .14-.07.14h-.9c.11.35.21.64.3.85a4.55 4.55 0 0 0 .62 1 .08.08 0 0 1 .05.08s0 0-.06.07a1.17 1.17 0 0 1 -.25.27.16.16 0 0 1 -.08.06s-.05 0-.09-.06a4.69 4.69 0 0 1 -.53-1 1 1 0 0 1 -.08-.2v3.72c0 .07 0 .1-.13.1h-.33c-.07 0-.1 0-.1-.1v-3.32c-.12.27-.23.52-.35.75a6.75 6.75 0 0 1 -.55.9.14.14 0 0 1 -.13-.05l-.33-.15c-.05 0-.07 0-.07 0a5.5 5.5 0 0 0 .69-1 5.73 5.73 0 0 0 .42-.92c.07-.21.16-.51.26-.92h-1.1c-.06 0-.07 0-.07-.14v-.26c0-.07 0-.1.07-.1h1.16v-1.31a4.74 4.74 0 0 1 -1 .09c-.08 0-.12 0-.14-.09s-.12-.22-.17-.31 0-.09.07-.09a5.81 5.81 0 0 0 1.31-.1 2.43 2.43 0 0 0 1.08-.46.12.12 0 0 1 .1 0 .18.18 0 0 1 .1.06 2.85 2.85 0 0 1 .3.37c0 .07 0 .1-.07.1h-.2a3 3 0 0 1 -.8.26zm3.26 1.9v-.5s0-.07.1-.07c.39 0 .59 0 .59.1s0 .11-.07.11-.06.06-.06.15v.21h1.49c.11 0 .17 0 .17.13v2.59h.5s.06 0 .06.1v.26c0 .1 0 .14-.06.14h-.5v1.15a.48.48 0 0 1 -.32.42 3.5 3.5 0 0 1 -.77.15c-.07 0-.11 0-.11-.09a1.41 1.41 0 0 0 -.19-.51s0 0 .06 0a2.28 2.28 0 0 0 .64 0 .23.23 0 0 0 .12-.2v-.87h-2.75v1.59c0 .07 0 .1-.13.1h-.34c-.07 0-.09 0-.09-.1v-1.59h-.54c-.05 0-.07 0-.07-.14v-.26c0-.07 0-.1.07-.1h.54v-2.68c0-.06 0-.09.09-.09zm2-2.27a8.74 8.74 0 0 1 -1 .18c-.47.06-.89.12-1.27.14s-.9 0-1.29 0c-.09 0-.14 0-.16-.1s-.14-.19-.23-.3 0-.1.09-.1h.44 1.29a6.64 6.64 0 0 0 1-.1 4.23 4.23 0 0 0 1-.23h.08a.28.28 0 0 1 .13 0c.29.25.43.4.43.46s0 .07-.1.07l-.2-.07zm-3.42.53a9.91 9.91 0 0 1 .63 1c0 .07 0 .11-.05.11a.76.76 0 0 1 -.41.19c-.21-.45-.4-.83-.57-1.13 0-.05.11-.13.33-.23zm1.43 3.06v-.83h-1.1v.83zm0 1.4v-.9h-1.1v.9zm.19-4.55a7 7 0 0 1 .5.89c0 .08 0 .12-.05.12a.84.84 0 0 1 -.41.18c-.16-.39-.29-.72-.43-1 0-.05.11-.13.33-.23.03.01.04.02.05.04zm.37 3.15h1.09v-.83h-1.09zm1.09 1.4v-.9h-1.09v.9zm.73-4.46c.07 0 .11.07.11.11s0 .06-.07.07a.11.11 0 0 0 -.11.09 5.37 5.37 0 0 1 -.47 1c0 .05-.07.07-.09.07a.19.19 0 0 1 -.12 0 1.18 1.18 0 0 1 -.28-.12c-.05 0-.06 0-.06 0a.17.17 0 0 1 0-.05 2.43 2.43 0 0 0 .34-.53 3.37 3.37 0 0 0 .25-.59c0-.05 0-.09.06-.09z" fill="#231815"/><path d="m409.38 7.73v-.67c0-.06.05-.09.14-.09q.63 0 .63.09c0 .08 0 .13-.08.13s-.08.06-.08.18v.36h3.18c.06 0 .1 0 .1.13v.26c0 .09 0 .14-.1.14h-3.17v.74h2.19c.08 0 .13 0 .13.1v4.75h1.13c.06 0 .1.05.1.13v.27c0 .08 0 .13-.1.13h-7.45c-.07 0-.1-.05-.1-.13v-.25c0-.08 0-.13.1-.13h1.13v-4.72c0-.09 0-.13.13-.13h2.12v-.76h-3.12c-.06 0-.09 0-.09-.14v-.26c0-.09 0-.13.09-.13zm2.33 2.48v-.66h-4v.66zm0 1.2v-.66h-4v.66zm0 1.23v-.64h-4v.69zm0 1.23v-.7h-4v.7z" fill="#231815"/><path d="m409.82 17.19c0-.46 0-.94 0-1.46 0-.11 0-.17.1-.17h.56c.09 0 .14.05.14.1s0 .13-.09.13a.21.21 0 0 0 -.1.21v1.16h3c.07 0 .1 0 .1.13v.27c0 .09 0 .13-.1.13h-2.95l.06.61a8.41 8.41 0 0 0 .45 1.9 5.31 5.31 0 0 0 .67 1.35 2.7 2.7 0 0 0 .61.75.69.69 0 0 0 .27.1s.09 0 .15-.12a5.77 5.77 0 0 0 .42-1q0-.15.09-.15s.05 0 .07.05a.92.92 0 0 0 .24.28.39.39 0 0 1 .06.17 11.28 11.28 0 0 1 -.59 1.28c-.15.19-.29.28-.41.28a1.44 1.44 0 0 1 -.79-.47 4.93 4.93 0 0 1 -.87-1.17 6.84 6.84 0 0 1 -.66-1.75 10.1 10.1 0 0 1 -.35-2v-.05h-3.9c-.07 0-.1 0-.1-.13v-.27c0-.09 0-.13.1-.13zm-.44 1.81c.07 0 .1 0 .1.13v.27c0 .08 0 .12-.1.12h-1.22v2.27c.49-.11 1-.23 1.4-.35h.06a.07.07 0 0 1 .07.07 1.44 1.44 0 0 1 0 .46c-1 .27-2 .51-3.09.73-.08.15-.14.24-.19.24s-.17-.24-.34-.7c.43-.06.94-.15 1.53-.29v-2.41h-1.3q-.09 0-.09-.12v-.27c0-.09 0-.13.09-.13zm3.09-2.87.64.47s0 0-.05.08c-.18.26-.29.39-.29.39a9 9 0 0 0 -.85-.64 4.64 4.64 0 0 0 -.61-.32 1.64 1.64 0 0 1 .27-.38l.06-.06z" fill="#231815"/><path d="m408.09 24.73v-.57c0-.07 0-.1.14-.1.41 0 .63 0 .63.1a.12.12 0 0 1 -.09.13c-.06 0-.08.07-.08.17v.27h2.12v-.54c0-.06 0-.1.14-.1.41 0 .63 0 .63.1a.12.12 0 0 1 -.09.13c-.05 0-.08.07-.08.17v.24h2c.06 0 .1 0 .1.13v.26c0 .09 0 .14-.1.14h-2v.59c0 .07-.05.1-.13.1h-.28c-.1 0-.14 0-.14-.1v-.59h-2.12v.59c0 .07-.05.1-.13.1h-.33c-.1 0-.14 0-.14-.1v-.59h-2.16c-.07 0-.1-.05-.1-.14v-.26c0-.09 0-.13.1-.13zm1.29 1.82v-.73c0-.06 0-.1 0-.1l.6.06c.09 0 .13 0 .13.07a.1.1 0 0 1 -.08.11.15.15 0 0 0 -.08.16v.43h2.16c.08 0 .12 0 .12.1v2h1.2c.07 0 .1.05.1.13v.22c0 .09 0 .13-.1.13h-3.31a4.45 4.45 0 0 0 .47.63 3 3 0 0 0 .71.6 5.46 5.46 0 0 0 .79.44 9 9 0 0 0 .85.3l.53.11c.06 0 .1 0 .1.05s0 .09-.09.13-.18.21-.26.32a.21.21 0 0 1 -.15.08 6.95 6.95 0 0 1 -2.13-.94 3.6 3.6 0 0 1 -.73-.66 5.69 5.69 0 0 1 -.53-.71 1.82 1.82 0 0 1 -.32.56 3.82 3.82 0 0 1 -.84.8 5.88 5.88 0 0 1 -1.54.79 3.19 3.19 0 0 1 -.76.19c-.05 0-.07 0-.09-.08s-.16-.29-.24-.41h-.07s0-.05.06-.05a6.08 6.08 0 0 0 1.21-.3 3.56 3.56 0 0 0 1-.53 2.25 2.25 0 0 0 .75-.68 1.33 1.33 0 0 0 .31-.6h-3.15c-.07 0-.1 0-.1-.13v-.27c0-.08 0-.13.1-.13h1.13v-1.96a.12.12 0 0 1 .13-.13zm-.05 2.06a3.67 3.67 0 0 0 .05-.69v-.84h-1.65v1.53zm.66-.69a6.43 6.43 0 0 1 0 .69h1.73v-1.53h-1.72z" fill="#231815"/><path d="m410.32 32.59a.12.12 0 0 1 -.09.13c-.06 0-.08.07-.08.17v1h3.22c.07 0 .1 0 .1.09v.34c0 .09 0 .13-.1.13h-1.37c-.1.37-.21.72-.32 1.06a6 6 0 0 1 -.68 1.36 8.64 8.64 0 0 1 -.84 1.09.1.1 0 0 0 .05 0 5 5 0 0 0 1.36.86 8.65 8.65 0 0 0 1.94.68c.09 0 .13.06.13.09a.17.17 0 0 1 0 .11 2.21 2.21 0 0 0 -.35.34c0 .05-.08.08-.1.08a.94.94 0 0 1 -.25-.09c-.37-.13-.78-.28-1.22-.46a10.38 10.38 0 0 1 -1.48-.83l-.48-.39a6.52 6.52 0 0 1 -.85.64 8 8 0 0 1 -1.3.71q-.58.23-1.26.42a.16.16 0 0 1 -.13-.06c-.1-.13-.21-.26-.31-.37a.18.18 0 0 1 -.06-.1s0-.06.09-.09a7 7 0 0 0 1.35-.38 9.26 9.26 0 0 0 1.09-.56 5.92 5.92 0 0 0 .89-.67c-.08-.09-.16-.17-.23-.26a4.19 4.19 0 0 1 -.85-1.34 9 9 0 0 1 -.7-1.88h-1.37c-.07 0-.1 0-.1-.13v-.28c0-.06 0-.09.1-.09h3.45v-1.32c0-.06 0-.09.13-.09.4 0 .62.03.62.09zm-1.89 3a6.47 6.47 0 0 0 .79 1.41 3.43 3.43 0 0 0 .43.49 5.34 5.34 0 0 0 .85-1.07 4.83 4.83 0 0 0 .57-1 9.33 9.33 0 0 0 .33-.94h-3.34a6.61 6.61 0 0 0 .37 1.1z" fill="#231815"/><path d="m407.93 41.82c-.07 0-.1 0-.1-.12v-.33c0-.07 0-.11.1-.11h1.92a.31.31 0 0 1 .2.09 4.65 4.65 0 0 0 1.14 1.59 4.4 4.4 0 0 0 2.3 1c.12 0 .18.06.18.11a.14.14 0 0 1 -.05.09l-.3.28a.18.18 0 0 1 -.15.1c-.3-.09-.58-.18-.83-.28v.24c0 .09 0 .13-.1.13h-2.24v1.39h2.16a.08.08 0 0 1 .09.09v.33c0 .09 0 .14-.09.14h-2.16v1.44h3.12c.07 0 .1 0 .1.1v.33c0 .09 0 .13-.1.13h-6.92c-.07 0-.1 0-.1-.13v-.33c0-.07 0-.1.1-.1h3.18v-1.49h-2.22c-.06 0-.1 0-.1-.14v-.37c0-.06 0-.09.1-.09h2.22v-1.3h-2.32c-.07 0-.1 0-.1-.13v-.18a3.34 3.34 0 0 1 -.76.35s-.08 0-.11-.11l-.29-.32a.14.14 0 0 1 -.06-.1 9 9 0 0 0 1.41-.61 7 7 0 0 0 1.16-.84 7.62 7.62 0 0 0 .71-.85zm4 2.23a4.55 4.55 0 0 1 -1.16-.7 6 6 0 0 1 -1.08-1.48 3.81 3.81 0 0 1 -.6.77 6.4 6.4 0 0 1 -.87.86 6.51 6.51 0 0 1 -.79.55z" fill="#231815"/><path d="m408.09 52.22a.16.16 0 0 1 -.14.16c-.06 0-.11.06-.12.09-.16.25-.32.47-.47.66v4c0 .07 0 .1-.13.1h-.34c-.08 0-.12 0-.12-.1v-3.36l-.63.57a5 5 0 0 0 -.38-.36.18.18 0 0 1 -.06-.1.09.09 0 0 1 0-.05 4.89 4.89 0 0 0 1-1 6 6 0 0 0 .69-1s0 0 .06 0a3.23 3.23 0 0 1 .64.39zm-.09-2.35a.2.2 0 0 1 .11.16s-.05.06-.13.06a.22.22 0 0 0 -.2.11 7.5 7.5 0 0 1 -1.43 1.62.16.16 0 0 1 -.13-.06 1.48 1.48 0 0 0 -.25-.25.12.12 0 0 1 -.06-.09s0 0 0-.06a1.88 1.88 0 0 0 .46-.38 5.15 5.15 0 0 0 .58-.64 5.08 5.08 0 0 0 .42-.76s.05-.08.07-.08zm2.29-.11c.05.05.08.08.08.11s-.05.09-.14.09a.21.21 0 0 0 -.23.04v.07a3.81 3.81 0 0 0 1.31 1.24.15.15 0 0 1 -.06.13c-.09.08-.22.19-.38.31a1.94 1.94 0 0 1 -.5-.39 8.78 8.78 0 0 1 -.63-.77.58.58 0 0 1 -.11.15 3.84 3.84 0 0 1 -.38.49c-.16.17-.31.32-.47.46a2.25 2.25 0 0 1 -.38.29c-.05 0-.08 0-.12-.08a2 2 0 0 0 -.23-.28c-.05 0-.07-.05-.07-.07s0 0 0 0a5.67 5.67 0 0 0 .54-.35 3.91 3.91 0 0 0 .57-.62 2.72 2.72 0 0 0 .34-.46 5.25 5.25 0 0 0 .24-.53s.05-.06.08-.06zm.57 2.23c.07 0 .1 0 .1.13v.26c0 .09 0 .14-.1.14h-.86v1h1.13c.06 0 .09.05.09.14v.26c0 .09 0 .14-.09.14h-1.13v2.04c.4-.08.79-.18 1.17-.29s.07 0 .07.09a1.6 1.6 0 0 1 0 .5c-.87.2-1.76.39-2.65.56-.1.15-.18.24-.24.24s-.16-.25-.33-.73c.39 0 .84-.13 1.36-.24v-2.18h-1.15c-.07 0-.11 0-.11-.14v-.26c0-.09 0-.14.11-.14h1.15v-1h-.75c-.07 0-.11-.05-.11-.14v-.26c0-.09 0-.13.11-.13zm-1.95 3.25a4.67 4.67 0 0 1 .23.66 1.81 1.81 0 0 1 -.5.17 3.73 3.73 0 0 0 -.16-.54 4.14 4.14 0 0 0 -.34-.75s.15-.13.43-.27a6.47 6.47 0 0 1 .29.73zm2.38-.64c.06 0 .11.07.11.11s0 0-.05.07-.06 0-.06.07a7.64 7.64 0 0 1 -.3.82s-.05.07-.06.07a.27.27 0 0 1 -.13-.05l-.31-.15s-.05 0-.05 0a4.29 4.29 0 0 0 .21-.46 2.35 2.35 0 0 0 .14-.52s0-.07 0-.07zm2.37-2.71q.09 0 .09.12v.28q0 .12-.09.12h-.66v4.22c0 .43-.35.64-1 .64h-.3s-.06-.06-.06-.16a1.3 1.3 0 0 0 -.13-.45 1.77 1.77 0 0 0 .46.07c.3 0 .46-.1.46-.3v-4h-1c-.06 0-.1 0-.1-.12v-.31c0-.08 0-.12.1-.12zm-.28-1.83c.07 0 .11 0 .11.14v.26c0 .08 0 .13-.11.13h-1.75c-.07 0-.1-.05-.1-.13v-.26c0-.09 0-.14.1-.14z" fill="#231815"/><path d="m196.51 8.14v-.67c0-.06 0-.1.14-.1.41 0 .63 0 .63.1s0 .12-.08.12-.09.07-.09.18v.37h3.19c.06 0 .1 0 .1.12v.27c0 .09 0 .13-.1.13h-3.19v.77h2.2c.08 0 .12 0 .12.1v4.74h1.14c.06 0 .1.05.1.14v.26c0 .09 0 .14-.1.14h-7.44c-.07 0-.1-.05-.1-.14v-.26c0-.09 0-.14.1-.14h1.13v-4.71c0-.09 0-.13.13-.13h2.12v-.77h-3.12c-.07 0-.09 0-.09-.13v-.27c0-.08 0-.12.09-.12zm2.33 2.48v-.62h-4v.66zm0 1.2v-.67h-4v.67zm0 1.23v-.7h-4v.7zm0 1.22v-.69h-4v.69z" fill="#231815"/><path d="m197 17.6c0-.46 0-1 0-1.46 0-.11 0-.17.1-.17h.56c.09 0 .14.05.14.1s0 .13-.09.13a.2.2 0 0 0 -.11.2v1.17h3c.07 0 .1 0 .1.12v.31c0 .08 0 .12-.1.12h-2.95c0 .22 0 .42.06.62a8.54 8.54 0 0 0 .45 1.9 5.4 5.4 0 0 0 .66 1.34 3 3 0 0 0 .62.76.69.69 0 0 0 .27.1s.09 0 .15-.13a5.85 5.85 0 0 0 .42-1c0-.09.06-.14.09-.14s0 0 .07.05a.88.88 0 0 0 .24.27.44.44 0 0 1 .06.17 13.85 13.85 0 0 1 -.59 1.29c-.15.18-.29.28-.41.28a1.53 1.53 0 0 1 -.8-.47 4.92 4.92 0 0 1 -.94-1.16 7.37 7.37 0 0 1 -.67-1.75 10.86 10.86 0 0 1 -.34-2v-.06h-3.87c-.07 0-.1 0-.1-.12v-.28c0-.08 0-.12.1-.12zm-.44 1.82c.07 0 .1 0 .1.13v.27c0 .09 0 .13-.1.13h-1.22v2.27c.49-.11 1-.23 1.4-.36h.06s.07 0 .07.06a1.34 1.34 0 0 1 0 .46c-1 .28-2.05.51-3.09.73-.09.16-.15.24-.2.24s-.16-.24-.33-.69c.43-.06.94-.16 1.53-.29v-2.37h-1.3c-.07 0-.09 0-.09-.13v-.27c0-.08 0-.13.09-.13zm3.09-2.86c.24.17.46.33.63.47v.07l-.29.4a7.56 7.56 0 0 0 -.85-.64 3 3 0 0 0 -.61-.32 1.55 1.55 0 0 1 .26-.38s.05-.06.07-.06c.24.17.51.32.74.46z" fill="#231815"/><path d="m196.61 26v-1.43c0-.07 0-.1.14-.1.44 0 .66 0 .66.1s0 .12-.08.13-.09.06-.09.17v1.13h2.86c.11 0 .17 0 .17.1v3.9c0 .07-.06.1-.17.1h-.33c-.09 0-.13 0-.13-.1v-.63h-2.4v2.75c0 .07-.06.1-.16.1h-.33c-.1 0-.14 0-.14-.1v-2.8h-2.56v.59c0 .07-.06.11-.16.11h-.33c-.09 0-.13 0-.13-.11v-3.78a.12.12 0 0 1 .13-.13zm0 2.72v-2.13h-2.56v2.13zm.63 0h2.4v-2.13h-2.4z" fill="#231815"/><path d="m197.45 33a.12.12 0 0 1 -.09.13c-.06 0-.08.07-.08.17v1h3.22c.07 0 .1 0 .1.09v.34c0 .08 0 .13-.1.13h-1.38c-.1.36-.21.72-.32 1.06a6 6 0 0 1 -.68 1.36 8.64 8.64 0 0 1 -.84 1.09h.05a5.59 5.59 0 0 0 1.36.86 9.56 9.56 0 0 0 1.94.68c.09 0 .13.06.13.09a.18.18 0 0 1 0 .1 3.69 3.69 0 0 0 -.35.34s-.08.09-.1.09a1 1 0 0 1 -.25-.1c-.37-.12-.78-.28-1.22-.45a9.08 9.08 0 0 1 -1.48-.84 5.05 5.05 0 0 1 -.48-.39 5.8 5.8 0 0 1 -.85.65 8 8 0 0 1 -1.3.7 12.37 12.37 0 0 1 -1.26.43.18.18 0 0 1 -.13-.06 4 4 0 0 0 -.32-.38.21.21 0 0 1 0-.09s0-.07.09-.09a7.73 7.73 0 0 0 1.35-.38 8 8 0 0 0 1.09-.57 4.83 4.83 0 0 0 .89-.67 2.61 2.61 0 0 1 -.23-.25 4.42 4.42 0 0 1 -.85-1.34 9 9 0 0 1 -.7-1.88h-1.46c-.07 0-.11 0-.11-.13v-.34c0-.06 0-.09.11-.09h3.45v-1.26c0-.06 0-.09.13-.09.45 0 .67.03.67.09zm-1.89 3a5.7 5.7 0 0 0 .79 1.41 3.47 3.47 0 0 0 .42.5 5 5 0 0 0 .85-1.07 4.91 4.91 0 0 0 .58-1c.12-.29.22-.6.33-.94h-3.34a5.56 5.56 0 0 0 .37 1.1z" fill="#231815"/><path d="m195.06 42.23c-.07 0-.1 0-.1-.13v-.33c0-.07 0-.1.1-.1h1.94a.27.27 0 0 1 .19.08 4.59 4.59 0 0 0 1.15 1.59 4.32 4.32 0 0 0 2.3 1c.11 0 .17.06.17.11a.11.11 0 0 1 0 .09 4 4 0 0 0 -.29.28.18.18 0 0 1 -.15.09 5.76 5.76 0 0 1 -.83-.28v.25c0 .09 0 .13-.1.13h-2.22v1.33h2.16c.06 0 .09 0 .09.1v.33c0 .09 0 .13-.09.13h-2.16v1.47h3.12c.07 0 .1 0 .1.1v.33c0 .08 0 .13-.1.13h-7c-.06 0-.09 0-.09-.13v-.33c0-.07 0-.1.09-.1h3.19v-1.46h-2.22c-.07 0-.1 0-.1-.13v-.33a.09.09 0 0 1 .1-.1h2.22v-1.35h-2.32c-.07 0-.1 0-.1-.13v-.17a3.12 3.12 0 0 1 -.77.35s-.07 0-.11-.11l-.28-.31c-.05-.05-.07-.08-.07-.1a10.24 10.24 0 0 0 1.42-.61 6.58 6.58 0 0 0 1.16-.85 8.54 8.54 0 0 0 .71-.84zm4 2.23a4.28 4.28 0 0 1 -1.16-.71 5.63 5.63 0 0 1 -1.08-1.47 4.58 4.58 0 0 1 -.6.77 6.4 6.4 0 0 1 -.87.86 6.51 6.51 0 0 1 -.79.55z" fill="#231815"/><path d="m195.22 52.63a.16.16 0 0 1 -.14.16.2.2 0 0 0 -.12.09c-.16.25-.32.47-.47.66v4c0 .07 0 .1-.13.1h-.36c-.08 0-.13 0-.13-.1v-3.36q-.27.27-.63.57a2.86 2.86 0 0 0 -.37-.36s-.06-.08-.06-.11v-.05a4.64 4.64 0 0 0 1-1 6 6 0 0 0 .69-1s0 0 .06 0a3.72 3.72 0 0 1 .66.4zm-.15-2.36a.21.21 0 0 1 .12.16s-.05.07-.13.07a.22.22 0 0 0 -.21.11 7.75 7.75 0 0 1 -1.42 1.62.15.15 0 0 1 -.13-.06 1.47 1.47 0 0 0 -.25-.25.14.14 0 0 1 -.06-.09.05.05 0 0 1 0-.06 1.9 1.9 0 0 0 .45-.38 4.47 4.47 0 0 0 .58-.64 5.7 5.7 0 0 0 .43-.76c0-.05 0-.08.07-.08zm2.3-.1s.08.08.08.1 0 .1-.14.1a.19.19 0 0 0 -.17.08v.07a3.33 3.33 0 0 0 .53.64 3.22 3.22 0 0 0 .78.6.15.15 0 0 1 -.06.13l-.38.3h-.05a2.19 2.19 0 0 1 -.5-.39 6.58 6.58 0 0 1 -.63-.78c0 .06-.08.11-.11.16a3.84 3.84 0 0 1 -.38.49c-.16.17-.32.32-.47.46a3 3 0 0 1 -.38.29.14.14 0 0 1 -.12-.08 1.56 1.56 0 0 0 -.23-.28s-.14-.06-.14-.06a3.47 3.47 0 0 0 .53-.36 3.11 3.11 0 0 0 .58-.61 2 2 0 0 0 .33-.47 4.21 4.21 0 0 0 .25-.52s0-.06.08-.06zm.57 2.23c.07 0 .1 0 .1.12v.27c0 .09 0 .13-.1.13h-.83v1h1.13c.06 0 .1 0 .1.13v.27c0 .09 0 .13-.1.13h-1.13v2.06c.41-.08.8-.19 1.18-.29h.05s.07 0 .07.1a1.71 1.71 0 0 1 0 .5c-.87.2-1.76.39-2.65.56-.1.15-.18.24-.24.24s-.16-.25-.33-.73c.38-.06.83-.13 1.36-.24v-2.2h-1.15c-.07 0-.11 0-.11-.13v-.27c0-.08 0-.13.11-.13h1.15v-1h-.76c-.06 0-.1 0-.1-.13v-.27c0-.08 0-.12.1-.12zm-1.94 3.25a4.64 4.64 0 0 1 .22.66 1.81 1.81 0 0 1 -.49.17 3.81 3.81 0 0 0 -.16-.55 6.06 6.06 0 0 0 -.34-.75s.14-.12.43-.27a6.55 6.55 0 0 1 .34.74zm2.37-.64c.07 0 .11.06.11.11a.05.05 0 0 1 0 .06.07.07 0 0 0 -.07.07 5.85 5.85 0 0 1 -.29.83c0 .05 0 .06-.06.06a.2.2 0 0 1 -.13 0l-.31-.14s-.06 0-.06 0a.11.11 0 0 1 0 0 4.23 4.23 0 0 0 .21-.45 3.07 3.07 0 0 0 .14-.52s0-.07 0-.07zm2.37-2.72c.06 0 .1.05.1.13v.27c0 .09 0 .13-.1.13h-.63v4.18c0 .42-.35.63-1 .63h-.3s-.06-.05-.06-.16a2.06 2.06 0 0 0 -.13-.44 1.74 1.74 0 0 0 .45.06c.31 0 .47-.1.47-.29v-4h-1c-.07 0-.1 0-.1-.13v-.27c0-.08 0-.13.1-.13zm-.27-1.82c.07 0 .11.05.11.13v.27c0 .08 0 .12-.11.12h-1.77q-.09 0-.09-.12v-.27c0-.08 0-.13.09-.13z" fill="#231815"/><path d="m125.53 48.1h10.69v2.01h-10.69z" fill="#00a19b"/><path d="m140.34 53v-2h-18.63v2l4.38.06.44 1.46h-3.91v13.15h2.62v-8.67l1 1.83h.4l.33-.22v5.64h2.56v-.55h3v.54h2.37l.17-.54.94 2c3.58 0 3.48-2.52 3.48-2.52v-10.68h-4.31l.72-1.52zm-7 3.59h1.4s.1.06.08.13-.25.89-.58.89h-.6a.42.42 0 0 1 -.3-.37zm-.18-3.5-.5 1.46h-3.46l-.52-1.46zm-7.94 5.33v-1.85h2.19c-.83 2.17-2.17 1.83-2.17 1.83zm7.17 5.21h-2.94v-1h2.94zm4.41-7v.86l-1.37-.86zm0 2.31v4.73c0 1.69-1.89 1-1.89 1v-4.29h-7.54a5.61 5.61 0 0 0 2.93-3.81h.57v1.83c0 1.84 1.39 1.63 1.39 1.63h2.74a1.89 1.89 0 0 0 1.82-1.15z" fill="#00a19b"/><path d="m141 89.15c-4.56-.43-5.84-2-5.84-2h5.25v-2.15h-8v-.58h5.78v-2.34h-5.78v-.58h6.74v-2.18h-4l.39-1.15h5.09v-2.4h-3.51l1.55-2.7-2.87-1-1.44 3 1.79.59v.13h-2v-3.79h-2.61v3.83h-1.41v-3.83h-2.58l-.06 3.82h-1.92v-.13l1.71-.92-1.7-2.7-2.6 1h-.06l1.47 2.51v.14h-3.21v2.41h5.22l.35 1.15h-4.11v2.22h6.91v.58h-5.78v2.34h5.78v.58h-8v2.27h5a15.3 15.3 0 0 1 -5.6 2.3l1.66 2.17a24.37 24.37 0 0 0 6.87-3.16v3.14h2.92l-.05-3.1a16.49 16.49 0 0 0 7.32 3.12zm-8.92-9.87h-2.35l-.41-1.11h3.13z" fill="#00a19b"/><path d="m170.41 134.24a33.61 33.61 0 0 0 3-5v-.06l-1-1.16h-7.73a5.4 5.4 0 0 0 1.32-1.73 5.88 5.88 0 0 0 .88-3.71v-.09h1.27v3.27s.63 1.49 1.08 1.5h3.21c.31 0 .77-.22 1.23-1.27a20.43 20.43 0 0 0 .67-2l-2.61-1.18v.19s0 .3 0 .71v.11c0 .51-.07 1-.46 1s-.56-.62-.56-1.06v-3.64h-6.49v2.55a5.71 5.71 0 0 1 -1.68 3.75v-6.3h-6.72v7.71c0 2.88-.22 7.56-1.29 9.75l-.05.1 2.84 1.31v-.12a31 31 0 0 0 1.07-7.1h1.54v3.79c0 .19-.11.3-.21.3h-1.72l1.13 3.44h.12c.84 0 3.07-1.4 3.24-2.3v-.29a17.09 17.09 0 0 1 1.45 2.48l.05.11.1-.06c.15-.07 3.56-2.37 4.39-3.08.43.28 2.76 2.57 3.89 3.1h.07l1.77-3.31h-.17a17.86 17.86 0 0 1 -3.63-1.71zm-10.52-4.86h-1.54v-2.24h1.54zm0-4.73h-1.54v-2.12h1.54zm2.57 11.63v-9.45a7.16 7.16 0 0 1 1.55 1.23h-1v2.37h1l.09.14a33.76 33.76 0 0 0 2.45 3.83 22.18 22.18 0 0 1 -4.08 1.88zm6-3.78-1.41-2.07h2.63a17.91 17.91 0 0 1 -1.22 2.07z" fill="#00a19b"/><path d="m170.37 158.22a34.46 34.46 0 0 0 3-5v-.07l-1-1.15h-7.73a5.53 5.53 0 0 0 1.32-1.73 5.92 5.92 0 0 0 .88-3.72v-.08h1.27v3.27s.63 1.49 1.08 1.49h3.21c.31 0 .77-.22 1.23-1.27a20.87 20.87 0 0 0 .67-2l-2.61-1.18v.16s0 .3 0 .7v.12c0 .5-.07 1-.46 1s-.56-.62-.56-1.06v-3.65h-6.49v2.55a5.66 5.66 0 0 1 -1.68 3.75v-6.3h-6.72v7.72c0 2.88-.22 7.56-1.29 9.74l-.05.1 2.84 1.32v-.12a31 31 0 0 0 1.07-7.1h1.54v3.79c0 .19-.11.29-.21.29h-1.68l1.13 3.44h.12c.84 0 3.07-1.4 3.24-2.31v-.28a16.57 16.57 0 0 1 1.45 2.48l.05.1h.1c.15-.08 3.56-2.37 4.39-3.08.43.28 2.76 2.57 3.89 3.1h.07l1.73-3.26h-.16a17.94 17.94 0 0 1 -3.64-1.76zm-10.48-4.9h-1.54v-2.24h1.54zm0-4.72h-1.54v-2.12h1.54zm2.57 11.63v-9.46a7.49 7.49 0 0 1 1.54 1.23h-1v2.37h1l.09.14a32.48 32.48 0 0 0 2.45 3.82 22.14 22.14 0 0 1 -4.07 1.9zm6-3.79-1.41-2.06h2.63a17 17 0 0 1 -1.22 2.06z" fill="#00a19b"/><path d="m172.11 172.18a14 14 0 0 1 -2.35-4.19v-.1l-2.27.92h-.09v.09a17.17 17.17 0 0 0 4 6.57h-9l.12-.12c1.95-2 4-6.44 4-6.49l.06-.11h-.13c-.9-.2-2.33-.61-2.34-.61h-.08v.08s-2.1 4.22-3.9 5.64v-.92l1.47-4.32v-.11l-3.15-.6v.09s-.69 2.58-.92 3.11a18.22 18.22 0 0 1 -2.88 5.26v.06l1.64 2.76.09-.15c.2-.34.69-1.15 1-1.55v9.82h2.78v-12.93l1.31 1.88.62-.44v2.3h2.12v.31a8.27 8.27 0 0 1 -3.43 5.93l-.1.08 2.34 2.18.07-.08a13.46 13.46 0 0 0 2.52-3.33 15.14 15.14 0 0 0 1.46-5.09h1.95v3.72a3.69 3.69 0 0 1 -.54 2.46.28.28 0 0 1 -.22.08h-2l1.07 2.91h.51a7.52 7.52 0 0 0 1.38-.08 3.12 3.12 0 0 0 2.2-2.18 14.62 14.62 0 0 0 .3-3.21v-6.12l1 1v-.14a13.94 13.94 0 0 1 1.39-2.52v-.08l-.08-.06a19.47 19.47 0 0 1 -1.92-1.72z" fill="#00a19b"/><path d="m164.93 192.26v-.12l-3-.3v.1a12.64 12.64 0 0 1 -.33 1.93h-6.48v2.56h5.62a14.31 14.31 0 0 1 -5.57 6.22l-.11.06.08.1c.06.07 1.47 1.83 1.66 2l.06.06h.07a31.51 31.51 0 0 0 2.9-2.21v8.1h2.7v-4.13h6.09v1.59c-.08.15-.16.22-.25.22h-2.3l1.07 2.77v.06h.7c2-.13 3.39-.47 3.39-1.73v-12.31h-7.92l.4-.8h9.87v-2.56h-9.1c.25-.87.45-1.61.45-1.61zm-2.38 8.86v-1.45h6.09v1.45zm0 3.46v-1.45h6.09v1.45z" fill="#00a19b"/><path d="m173.71 232a10.59 10.59 0 0 1 -3.72-2.29 31 31 0 0 1 3.62-2.67l.18-.08-.17-.11c-.08 0-1.88-1.14-2.5-1.37h-.06l-2.11 2a3.38 3.38 0 0 1 -.38-1.35v-1h3.64v-9.25h-9.47v1.1h-.07s-1.55-.63-2-.84h-5.63v19.18h2.66v-6.32l1.06 2.53h.09c2.11-.54 3.31-1.62 3.56-3.21a6.05 6.05 0 0 0 0-2.08 8.22 8.22 0 0 0 -1.73-3.34c.18-.5 1.47-4.17 2-5.85v14.46l-2.22.37.6 3.37 6.69-1.94h.08v-1.81l.64.73c1.45 1.48 2.26 2.36 3.53 2.91h.09l1.68-3.19zm-14.38-4.26a2.5 2.5 0 0 1 -1.59.61v-9.56h.19 1.41a23.25 23.25 0 0 1 -1.15 4v.06c.5.78 1.8 2.95 1.8 3.58a1.58 1.58 0 0 1 -.66 1.26zm6-9.44h4v1h-4zm2 12.42-2 .34v-6.06h.79a11.76 11.76 0 0 0 .37 2.72 27.67 27.67 0 0 0 1 3m-2.16-8.1v-1h.13 4v1h-.07z" fill="#00a19b"/><path d="m168.5 251.11v-.06l-2.6.95 1.06 2-4.42.95 3.32-7.39-3.35-1-3.24 8.75-2.84.38.93 3.12 10.78-2.26 1.2 2.58 3.45-1.29v-.09c-1.06-2.9-4.26-6.61-4.29-6.64z" fill="#00a19b"/><path d="m171.59 245.85a9 9 0 0 1 -3.85-6v-.12l-3 1h-.1v.09s.7 2.11 1 2.8c1.23 3 6 6 6.19 6.14l.08.05 2.34-2.67-.14-.05a9.86 9.86 0 0 1 -2.52-1.24z" fill="#00a19b"/><path d="m157.18 249.8.06-.05c2.64-1.76 5.67-8.34 5.8-8.62l.05-.1-3.37-1.03v.09a21.5 21.5 0 0 1 -1.84 3.64 13.27 13.27 0 0 1 -3.29 3.5l-.13.07 2.69 2.48z" fill="#00a19b"/><path d="m157.32 271.53v7.9h2.91v-.63h4.87v.63h2.9v-7.9zm7.81 4.51h-4.9v-1.78h4.9z" fill="#00a19b"/><path d="m155.47 263.77v2.73h14.86v12.18c0 .53-.06 1.46-.52 1.46a17.8 17.8 0 0 1 -3.65-.3l.66 2.87h.15a24.06 24.06 0 0 0 3.24.25c2 0 3-1.13 3-3.28v-15.91z" fill="#00a19b"/><path d="m157.15 267.72h11.2v2.75h-11.2z" fill="#00a19b"/><path d="m137.18 158.1a30.52 30.52 0 0 0 2.88-4.86v-.06l-1.06-1.18h-7.73a5.62 5.62 0 0 0 1.32-1.74 5.88 5.88 0 0 0 .88-3.71v-.09h1.27v3.27s.63 1.5 1.08 1.5h3.21c.31 0 .76-.22 1.23-1.27.45-1.2.67-2 .67-2l-2.61-1.17v.21s0 .3 0 .71v.12c0 .5-.06 1-.45 1s-.56-.61-.56-1.05v-3.65h-6.49v2.55a5.68 5.68 0 0 1 -1.68 3.75v-6.3h-6.72v7.71c0 2.88-.22 7.56-1.29 9.75v.1l2.84 1.31v-.12a31 31 0 0 0 1.07-7.1h1.54v3.79c0 .2-.11.3-.21.3h-1.7l1.13 3.44h.12c.84 0 3.07-1.39 3.24-2.3v-.29a16.68 16.68 0 0 1 1.45 2.49v.1l.1-.05c.15-.08 3.56-2.38 4.39-3.09.43.29 2.76 2.58 3.88 3.1h.08l1.87-3.41h-.16a18 18 0 0 1 -3.59-1.76zm-10.62-4.76h-1.56v-2.24h1.54zm0-4.73h-1.56v-2.12h1.54zm2.57 11.64v-9.46a6.89 6.89 0 0 1 1.55 1.24h-1v2.36h1l.09.14a32 32 0 0 0 2.45 3.83 22.14 22.14 0 0 1 -4.08 1.89zm6-3.79-1.41-2.07h2.63a16.37 16.37 0 0 1 -1.22 2.07z" fill="#00a19b"/><path d="m138.78 172.19a14 14 0 0 1 -2.35-4.19v-.1l-2.27.93h-.09v.1a17.24 17.24 0 0 0 4 6.57h-9.07l.12-.12c1.94-2 4-6.45 4-6.49l.06-.12h-.13c-.9-.19-2.33-.61-2.34-.61h-.08v.07s-2.1 4.22-3.9 5.65v-.93l1.47-4.32v-.11l-3.15-.6v.1s-.69 2.57-.92 3.1a18.41 18.41 0 0 1 -2.88 5.27l1.64 2.76.11-.15c.2-.34.69-1.15 1-1.55v9.82h2.78v-12.87l1.31 1.87.62-.44v2.31h2.12v.3a8.29 8.29 0 0 1 -3.43 5.94l-.1.07 2.34 2.18.07-.08a13.46 13.46 0 0 0 2.52-3.33 15.15 15.15 0 0 0 1.46-5.08h2v3.72a3.67 3.67 0 0 1 -.54 2.45.28.28 0 0 1 -.22.08h-2l1.07 2.91h.51a7.66 7.66 0 0 0 1.38-.08 3.1 3.1 0 0 0 2.11-2.22 14.59 14.59 0 0 0 .3-3.2v-6.13l1 1 .05-.15a15 15 0 0 1 1.38-2.52l.06-.08-.08-.06a18.25 18.25 0 0 1 -1.93-1.67z" fill="#00a19b"/><path d="m131.6 192.29v-.12l-3-.29v.1a11.28 11.28 0 0 1 -.34 1.93h-6.46v2.56h5.63a14.31 14.31 0 0 1 -5.57 6.22l-.11.06.08.1c.06.07 1.47 1.83 1.66 2l.06.06h.07a31.51 31.51 0 0 0 2.9-2.21v8.56h2.7v-4.6h6.09v1.6c-.08.14-.17.22-.25.22h-2.3l1.07 2.71v.07h.7c2-.14 3.39-.43 3.39-1.68v-12.31h-7.92l.39-.8h9.88v-2.56h-9.1c.23-.91.43-1.61.43-1.62zm-2.38 8.87v-1.45h6.09v1.45zm0 3.46v-1.45h6.09v1.45z" fill="#00a19b"/><path d="m140.38 232a10.58 10.58 0 0 1 -3.72-2.28 31 31 0 0 1 3.62-2.67l.18-.09-.17-.1a28.11 28.11 0 0 0 -2.5-1.38h-.06l-2.11 2a3.44 3.44 0 0 1 -.38-1.35v-1.13h3.64v-9.24h-9.47v1.09h-.07s-1.55-.62-2-.84h-5.63v19.19h2.66v-6.2l1.06 2.52h.09c2.11-.54 3.31-1.61 3.56-3.2a6.12 6.12 0 0 0 0-2.09 8.25 8.25 0 0 0 -1.73-3.33c.18-.51 1.47-4.18 2-5.85v14.46l-2.22.37.6 3.37 6.68-1.94h.09v-1.72l.64.73c1.45 1.47 2.26 2.36 3.53 2.91h.09l1.68-3.19zm-14.38-4.3a2.64 2.64 0 0 1 -1.59.61v-9.56h.19 1.4a23.64 23.64 0 0 1 -1.15 4v.05c.5.78 1.8 2.94 1.8 3.57a1.61 1.61 0 0 1 -.65 1.33zm6.05-9.45h4v1h-4zm2 12.43-2 .34v-6.02h.79a11.83 11.83 0 0 0 .37 2.72 27.67 27.67 0 0 0 1 3h-.16s-.05-.08 0-.04zm-2-8.13v-1h.13 4v1h-.07z" fill="#00a19b"/><path d="m135.17 251.11v-.06l-2.6.95 1.05 2-4.41.95 3.31-7.39-3.34-1-3.24 8.74-2.66.38.93 3.1 10.6-2.24 1.2 2.59 3.45-1.3v-.09c-1.06-2.89-4.26-6.59-4.29-6.63z" fill="#00a19b"/><path d="m138.26 245.86a9.07 9.07 0 0 1 -3.85-6v-.12l-3 1h-.1v.1s.7 2.11 1 2.8c1.23 3 6 6 6.18 6.13l.08.05 2.35-2.67-.14-.05a10.23 10.23 0 0 1 -2.52-1.24z" fill="#00a19b"/><path d="m123.85 249.8.06-.05c2.64-1.76 5.67-8.34 5.8-8.61v-.11l-3.32-1.03v.09a21.45 21.45 0 0 1 -1.84 3.65 13.19 13.19 0 0 1 -3.29 3.49l-.13.07 2.69 2.48z" fill="#00a19b"/><path d="m124 271.53v7.9h2.91v-.63h4.87v.63h2.93v-7.9zm7.8 4.47h-4.9v-1.78h4.9z" fill="#00a19b"/><path d="m122.14 263.77v2.73h14.86v12.18c0 .53-.07 1.46-.52 1.46a17.8 17.8 0 0 1 -3.65-.3l.65 2.87h.16a23.94 23.94 0 0 0 3.24.25c2 0 3-1.13 3-3.28v-15.91z" fill="#00a19b"/><path d="m123.69 267.63h11.2v2.75h-11.2z" fill="#00a19b"/><path d="m154.87 72.38h10.38v2.25h-10.38z" fill="#00a19b"/><path d="m164.07 79.45v-4.17h-7.94v4.17zm-5.66-2.31h3.39v.47h-3.39z" fill="#00a19b"/><path d="m172.62 84.84-2 .29.3 2-.54.07v-3.29h.44v.37h2.36v-8.83h-2.8v-3.32h-2.38v3.31h-2.7v8.86h2.21v-.48h.57v3.59l-3.27.4v-7.89h-9.66v11.55h2.25v-7.2l1 .81c1.58-.76 1.59-3 1.59-3h.21v2a.76.76 0 0 0 .84.76h1.61s0 3.1 0 3.59-1.34.3-1.34.3l-.27-.08v-1.45h1.36v-1.93h-4.84v1.9a.11.11 0 0 0 .11.11h1.08a.09.09 0 0 1 .1.1v3.28h2.28v-1.65c.54.45.76 2 .76 2a.48.48 0 0 0 .52.45c2.45 0 2.47-1.11 2.54-1.35v-2l.84 2.33 5.39-1.06.41 2.11 2.27-.25zm-2.25-7h.48v3.75h-.48zm-2.37 3.73h-.45v-3.75h.45zm-10.6 1.78v-1.3h.72s.02 1.08-.72 1.3zm5.28-.41h-.6v-.89h.6z" fill="#00a19b"/><path d="m164.93 90.12a1.09 1.09 0 0 1 -.24.61l-.24-.15.29-.53z" fill="#00a19b"/><path d="m162.33 91.47a.43.43 0 0 1 -.35-.18" fill="#00a19b"/><path d="m40.73 41.74h4.3v-12.5h3.08v16.92h-3.08v-1.4l-11.82-.03v1.43h-3.2v-17.07h3.17v12.65l4.35-.03v-15.34h3.2z" fill="#00a19b"/><path d="m40.71 16.44v-5.51h6.57v-3.02l-6.57-.03v-4.35h7.04l.01-3.11h-17.27v3.11h6.96v4.35h-6.52v3.05h6.52v5.51h-7.94v3.06h19.1v-3.06z" fill="#00a19b"/><path d="m43.64 11.88a1.89 1.89 0 0 0 -1.3 1.59 1.93 1.93 0 0 0 .41 1.4 2 2 0 0 0 2 .59 1.94 1.94 0 0 0 1.25-1.3 2 2 0 0 0 -.23-1.51 1.91 1.91 0 0 0 -2.13-.77z" fill="#00a19b"/><path d="m45.16 66.32-2.31-.84h2.94v-2.57h-5.79v-1.24h2.79v-1.62a21.44 21.44 0 0 0 4.52 2.75l1.9-3a15.34 15.34 0 0 1 -8.75-6.55l.13-.27-3.76-.36a14.41 14.41 0 0 1 -8 7.78l1.37 3a33.92 33.92 0 0 0 4.05-2.85v1h2.79v1.24h-5.71v2.57h3.24l-2.33.88 1.09 3.48h-3.59v2.63h17.63v-2.51h-3.86zm-9.16-7.22a28.73 28.73 0 0 0 2.77-3.1 20.94 20.94 0 0 0 2.91 3.09h-5.68zm-2.28 10.74 2.65-1-1.59-3.35h2.3v4.36zm6.28-4.36h2.27l-1.56 3.33 2.56 1h-3.27z" fill="#00a19b"/><path d="m39.04 84.8h6.66v1.86h2.57v-1.86-.62-1.71h-4.63v-2.68h-2.54v2.68h-4.62v1.71.62 1.86h2.56z" fill="#00a19b"/><path d="m43.64 93.45h3.09v-1.82c.19.16.4.31.61.46l1.91-1.69a10.34 10.34 0 0 1 -4.16-4.6l-2.24 1a16.66 16.66 0 0 0 3.15 4.2h-7.27a16.66 16.66 0 0 0 3.16-4.2l-2.24-1a10.34 10.34 0 0 1 -3.48 4.2v-1.91l-1.81.4v-2h1.69v-2.6h-1.69v-4h-2.62v4h-2.51v2.6h2.51v2.63l-2.86.64.48 2.85 2.38-.65v4.36a.51.51 0 0 1 -.51.51h-1.34l1.11 2.68h.81a2.59 2.59 0 0 0 2.58-2.58v-5.74l1.54-.42 1.5 1.32c.21-.15.42-.3.61-.46v1.82h3.06v3.32h-5v2.44h12.49v-2.44h-5z" fill="#00a19b"/><path d="m11.56 41.89h4.3v-12.54h3.09v16.7h-3.09v-1.13l-11.85-.03-.03 1.07h-3.18v-16.75h3.18v12.68l4.37-.03v-15.39h3.21z" fill="#00a19b"/><path d="m11.53 16.49v-5.53h6.6v-3.02l-6.6-.03v-4.37h7.07v-3.12h-17.32v3.12h6.98v4.37h-6.54v3.05h6.54v5.53h-7.96v3.07h19.16v-3.07z" fill="#00a19b"/><path d="m14.47 11.92a1.88 1.88 0 0 0 -.89 3 1.9 1.9 0 0 0 3.3-.71 2 2 0 0 0 -.24-1.51 1.9 1.9 0 0 0 -2.17-.78z" fill="#00a19b"/><path d="m6.02 65.19h3.08v1.97h-3.08z" fill="#00a19b" transform="matrix(.21303039 -.97704557 .97704557 .21303039 -58.71 59.47)"/><path d="m17.06 67.44 2.7-2s-1.77-1.8-1.82-1.82-1.55 1-2.16 1.43a8.85 8.85 0 0 1 -.37-2h3.27v-9.82h-9.3v15.77l-.89.16-.06-1.16-2.53.4v-4.55h2.78v-2.47h-2.78v-1h2v-1.17l.18.14 1.28-2.9a7 7 0 0 1 -3.26-3.51h-2.61a8 8 0 0 1 -3.49 4.06l1.28 2.9.54-.49v1h1.63v1h-3v2.47h3v5l-3.08.54.06 2.68 7.79-1.49v1.45l6.24-1.06-.13-2.48a9.44 9.44 0 0 0 4 3.64l1.32-2.6a12.93 12.93 0 0 1 -2.59-2.12zm-13.76-9.44a12 12 0 0 0 1.49-1.9 9 9 0 0 0 1.63 1.9zm8.81-2h3.89v1.3h-3.89zm0 12.63v-5.5h.8a10.4 10.4 0 0 0 1.27 5.15zm0-7.76v-1.38h3.89v1.31z" fill="#00a19b"/><path d="m2.84 67.97-.46-3.29-2.04.37.46 3.32z" fill="#00a19b"/><path d="m1.43 94.43s4.07-3.5 5.77-7.07l-2.39-1.7s-2.33 3.91-4.72 5.56z" fill="#00a19b"/><path d="m2.9 89.49h2.98v10.49h-2.98z" fill="#00a19b"/><path d="m11.93 76.88h2.93v10.93h-2.93z" fill="#00a19b" transform="matrix(0 -1 1 0 -68.95 95.74)"/><path d="m11.85 82.25h2.89v12.76h-2.89z" fill="#00a19b" transform="matrix(0 -1 1 0 -75.34 101.92)"/><path d="m7 82.33a22.62 22.62 0 0 1 -5.32 5.11l-1.44-2.88a18.51 18.51 0 0 0 4.19-4c.83.59 1.66 1.21 2.57 1.77z" fill="#00a19b"/><path d="m9.83 97.07h3.46a.42.42 0 0 0 .42-.42v-6.65h3.05v7.8a2.2 2.2 0 0 1 -2.2 2.2h-3.56z" fill="#00a19b"/><path d="m166.03 39.39h4.3v-12.51h3.08v16.93h-3.08v-1.39l-11.83-.03v1.42h-3.2v-17.07h3.17v12.65l4.36-.03v-15.35h3.2z" fill="#00a19b"/><path d="m166 16.45v-5.52h6.58v-3.01l-6.58-.03v-4.35h7.05l.01-3.12h-17.29v3.12h6.97v4.35h-6.52v3.04h6.52v5.52h-7.94v3.06h19.11v-3.06z" fill="#00a19b"/><path d="m168.94 11.89a1.92 1.92 0 0 0 -1.31 1.59 1.94 1.94 0 0 0 .42 1.4 1.9 1.9 0 0 0 3.29-.71 2 2 0 0 0 -.24-1.52 1.9 1.9 0 0 0 -2.16-.76z" fill="#00a19b"/><path d="m132.7 39.42h4.3v-12.51h3.08v16.93h-3.08v-1.39l-11.83-.03v1.42h-3.2v-17.07h3.17v12.65l4.36-.03v-15.35h3.2z" fill="#00a19b"/><path d="m132.67 16.48v-5.51h6.58v-3.02l-6.58-.03v-4.35h7.05v-3.12h-17.28v3.12h6.97v4.35h-6.52v3.05h6.52v5.51h-7.94v3.07h19.11v-3.07z" fill="#00a19b"/><path d="m135.61 11.92a1.91 1.91 0 0 0 -1.31 1.6 1.87 1.87 0 0 0 .42 1.39 1.9 1.9 0 0 0 3.28-.71 2 2 0 0 0 -.24-1.51 1.89 1.89 0 0 0 -2.15-.77z" fill="#00a19b"/><path d="m170.55 61.62-2.31-.84h2.94v-2.58h-5.75v-1.2h2.79v-1.66a21.86 21.86 0 0 0 4.52 2.75l1.91-3a15.4 15.4 0 0 1 -8.76-6.55c.09-.17.13-.27.13-.27l-3.76-.27a14.48 14.48 0 0 1 -8 7.79l1.37 3a33.13 33.13 0 0 0 4-2.85v1h2.79v1.26h-5.75v2.58h3.33l-2.33.87 1.09 3.48h-3.59v2.64h17.65v-2.64h-3.92c.22-.47 1.56-3.33 1.65-3.51zm-9.16-7.23a28 28 0 0 0 2.77-3.1 21.26 21.26 0 0 0 2.91 3.1zm-2.29 10.74 2.66-1-1.59-3.35h2.29v4.35zm6.33-4.35h2.27l-1.56 3.33 2.56 1h-3.27z" fill="#00a19b"/><path d="m164.47 100.9h6.67v1.86h2.56v-1.86-.63-1.7h-4.62v-2.69h-2.55v2.69h-4.62v1.7.63 1.86h2.56z" fill="#00a19b"/><path d="m169.08 109.55h3.08v-1.82l.62.47 1.91-1.7a10.39 10.39 0 0 1 -4.17-4.6l-2.23 1a16.37 16.37 0 0 0 3.16 4.2h-7.29a16.37 16.37 0 0 0 3.16-4.2l-2.24-1a10.27 10.27 0 0 1 -3.48 4.17v-1.88l-1.81.4v-2h1.69v-2.6h-1.69v-4.11h-2.62v4.06h-2.51v2.6h2.51v2.63l-2.87.64.49 2.86 2.38-.66v4.36a.51.51 0 0 1 -.51.52h-1.34l1.08 2.73h.8a2.59 2.59 0 0 0 2.59-2.59v-5.74l1.54-.42 1.5 1.33.62-.47v1.82h3.08v3.32h-4.95v2.45h12.42v-2.45h-4.95z" fill="#00a19b"/><path d="m127.03 108.52h3.18v2.03h-3.18z" fill="#00a19b" transform="matrix(.21303039 -.97704557 .97704557 .21303039 -5.79 211.89)"/><path d="m138.45 110.85 2.78-2s-1.82-1.86-1.88-1.88-1.59 1-2.23 1.47a9.38 9.38 0 0 1 -.38-2.1h3.38v-10.18h-9.61v16.33l-.92.17-.06-1.28-2.62.46v-4.71h2.87v-2.55h-2.87v-1h2.09v-1.25l.19.14 1.32-3a7.28 7.28 0 0 1 -3.39-3.62h-2.69a8.32 8.32 0 0 1 -3.61 4.2l1.32 3 .56-.51v1h1.69v1h-3.12v2.55h3.12v5.15l-3.19.56.07 2.82 8-1.54v1.49l6.47-1.13-.14-2.57a9.7 9.7 0 0 0 4.1 3.77l1.37-2.69a13.34 13.34 0 0 1 -2.62-2.1zm-14.23-9.85a11.89 11.89 0 0 0 1.55-2 9.4 9.4 0 0 0 1.68 2zm9.11-2h4v1.35h-4zm0 13v-5.68h.83a10.81 10.81 0 0 0 1.3 5.32zm0-8v-1.35h4v1.35z" fill="#00a19b"/><path d="m123.75 111.39-.47-3.4-2.11.39.48 3.42z" fill="#00a19b"/><path d="m122.29 134s4.21-3.6 6-7.29l-2.47-1.76s-2.41 4-4.88 5.74z" fill="#00a19b"/><path d="m123.81 128.89h3.08v10.84h-3.08z" fill="#00a19b"/><path d="m133.15 115.86h3.02v11.3h-3.02z" fill="#00a19b" transform="matrix(0 -1 1 0 13.15 256.17)"/><path d="m133.06 121.42h2.98v13.18h-2.98z" fill="#00a19b" transform="matrix(0 -1 1 0 6.54 262.56)"/><path d="m128 121.5a23.71 23.71 0 0 1 -5.49 5.28l-1.45-3a18.87 18.87 0 0 0 4.33-4.1c.86.6 1.72 1.24 2.61 1.82z" fill="#00a19b"/><path d="m131 136.72h3.57a.43.43 0 0 0 .43-.43v-6.88h3.15v8.06a2.27 2.27 0 0 1 -2.27 2.27h-3.69z" fill="#00a19b"/><path d="m71.61-5.21h.84v11.26h-.84z" fill="#363736" transform="matrix(0 -1 1 0 71.61 72.45)"/><path d="m196.43-5.21h.84v11.26h-.84z" fill="#363736" transform="matrix(0 -1 1 0 196.43 197.27)"/><path d="m297.85-5.21h.84v11.26h-.84z" fill="#363736" transform="matrix(0 -1 1 0 297.85 298.69)"/><path d="m409.3-5.21h.84v11.26h-.84z" fill="#363736" transform="matrix(0 -1 1 0 409.3 410.14)"/></svg>