<svg viewBox="0 0 539.95 331.69" xmlns="http://www.w3.org/2000/svg"><path d="m344.76 54.74a21.5 21.5 0 0 1 -26.86 28.2 21.51 21.51 0 0 1 -3.37-39.25c6.66-3.86 16.64-3.23 22.73 1.44a21.85 21.85 0 0 1 7.5 9.61z" fill="#00a19b"/><path d="m324.1 51.4c.73-.22 1.66-.79 2.39-.22.51.79 1.92 1 1.53 2.15a14.94 14.94 0 0 0 2.47 2.67c.22 0 .3-.08.39-.22l-.26-.13c.3-.26 1 .18 1.49-.09a1.14 1.14 0 0 1 .94.4 6.67 6.67 0 0 0 .56 1.14l.17-.09a7.53 7.53 0 0 0 .55 1.1c1.53.52 2.26 2.41 3.62 3.2a20.66 20.66 0 0 0 5.37 3c-.08.27.21.27.34.35a1.2 1.2 0 0 0 -.85-.18c.26.4.9.22 1 .66h-.68c0 .13.17.13.26.17-.34-.13-.69.14-.9-.3a28.63 28.63 0 0 1 -3.92-2c1 1 2.34 1.34 3.45 2 .38.22.94.36 1.15.75-.13 0-.34 0-.38.22l-.3-.18c-.09.05 0 .14 0 .18l.21.18a17.26 17.26 0 0 1 -4.39-2.3c-.64-.44-1.28-.79-1.92-1.27-.08 0-.21-.05-.25.08.72.57 1.49.92 2.21 1.45a12 12 0 0 1 -4-2.94c-.47-.48-1.15-1.49-2-1.31-.3.17-.77.13-1.11.3-.25 0-.47-.3-.72-.08-.22.48-.9.08-1 .61-.42.18-1.19 0-1.32.57l.05.22c-.86.39-2 .26-2.6 1.1-.17.17-.51-.05-.68.17 0-.09 0-.17-.13-.17s-.34.13-.51.17c-.13-.22.17-.26.12-.39-.38-.18-.55.35-.85.52 0-.35.43-.39.56-.7-.22-.13-.39.09-.56.13.09 0 .26-.35 0-.35.22-.35.68-.22.81-.61h-.34c.34-.26.72-.57 1-.83-.12 0-.38-.36-.59 0 0 0 .08-.09 0-.13s-.38.13-.6.13c0 0 0-.13-.08-.17h-.13c.13-.09.3-.31.47-.44l-.09-.09c.64-.39 1.28-.83 1.92-1.14l.13-.13a.43.43 0 0 0 -.68 0c.55 0 0-.66.59-.74a1.76 1.76 0 0 1 .85-1.06c-.55-.52-.76-1.49-1.4-1.79 0-.4-.43 0-.47-.4-.77 0-1.66.35-2.17-.35a3.08 3.08 0 0 0 -1.28 0 4 4 0 0 0 -.68 1.09 3.93 3.93 0 0 0 -.77 1.1 3.46 3.46 0 0 1 -1.53 1.4v-.09c-.47.66-1.5.4-2.09 1.1v-.18a.36.36 0 0 0 -.43.27v.09c-.3-.08-.51.27-.64.44-.73.79-1.92.79-2.68 1.45-.09 0 0 0 0 0-1.41.3-2.09 1.4-3 2.45a6 6 0 0 1 -1 1c.08.35-.43.48-.6.66.17-.31.55-.57.6-.92-.35.17-.43.57-.81.74-.22-.17.21-.3.08-.48l-.51.4.47-.66c-.26 0-.51.48-.81.52-.09.14-.21.14-.38.14.17-.13.46-.44.72-.7-.3-.17-.64.22-.85.18s0-.27-.26-.18a1.22 1.22 0 0 0 .51-.57c-.17 0-.38.09-.55.18 0-.22.47-.35.34-.71-.55-.08-.47.49-.94.62.47-.66 1.15-1 1.62-1.75a12.1 12.1 0 0 1 3.11-2.28c.9-.52 2.09-.79 2.73-1.66a7.45 7.45 0 0 0 .68-1c.13 0 .17-.09.21-.18a4 4 0 0 1 2.09-.65c.34-.36 1-.14 1.24-.62.89-1.09 1.23-2.45 2-3.55.26-.35.55-.92 1.07-1a20.5 20.5 0 0 1 3.62.53z" fill="#fff"/><path d="m324.76 59.07c-.22.18-.65.31-.69.58-.39 0-.65.36-.95.36.05-.36.56-.13.6-.49l.35-.27v.13c.13-.13.56 0 .43-.4z" fill="#fff"/><path d="m323.38 59.34a.7.7 0 0 1 -.47.36c.09-.23.26-.23.47-.36z" fill="#fff"/><path d="m324 60.41c0 .09-.09.09-.13.18h-.13c0-.13.08-.18.17-.22s.09.04.09.04z" fill="#fff"/><path d="m13.47 2.22v-1.95c0-.08 0-.12.16-.12.49 0 .74 0 .74.12s0 .14-.1.15-.1.08-.1.2v1.6h.9c.08 0 .12.06.12.16v.31c0 .11 0 .16-.12.16h-.77a9.76 9.76 0 0 0 .36 1.06 5 5 0 0 0 .71 1.25.16.16 0 0 1 .05.11s0 .05-.06.08a2.3 2.3 0 0 1 -.27.28.11.11 0 0 1 -.2 0 5.78 5.78 0 0 1 -.61-1.19 2.83 2.83 0 0 1 -.11-.31v5q0 .12-.15.12h-.39c-.11 0-.16 0-.16-.12v-4c-.1.3-.19.58-.29.83a7.7 7.7 0 0 1 -.57 1.23.18.18 0 0 1 -.16-.06l-.45-.25c-.06 0-.08 0-.08 0a9.22 9.22 0 0 0 .7-1.41 8.2 8.2 0 0 0 .42-1.27c.08-.28.17-.71.28-1.3h-1c-.08 0-.12-.05-.12-.16v-.36c0-.1 0-.16.12-.16zm3.53 5.15a.24.24 0 0 1 .07.13s0 0-.06 0a.27.27 0 0 0 -.16.06 4.3 4.3 0 0 1 -.54.58 7 7 0 0 1 -.88.61.14.14 0 0 1 -.15-.08l-.28-.24s-.07 0-.07-.07a.05.05 0 0 1 0 0 1.63 1.63 0 0 0 .42-.2 3.79 3.79 0 0 0 .61-.5c.14-.15.31-.34.49-.57h.05zm4-1.43c.05 0 .08 0 .08.11v.31c0 .11 0 .16-.08.16h-2.45v1.92c0 .49-.41.74-1.21.74h-.43c-.05 0-.07-.08-.07-.19a1.64 1.64 0 0 0 -.17-.52 3.57 3.57 0 0 0 .63.07c.36 0 .55-.12.55-.35v-1.67h-2.5c-.06 0-.08 0-.08-.16v-.31c0-.07 0-.11.08-.11zm0-5.4s.08 0 .08.12v.34c0 .11 0 .16-.08.16h-1.75v.78h1.41q.15 0 .15.12v1.88q0 .12-.15.12h-5c-.11 0-.16 0-.16-.12v-1.94c0-.08.05-.12.16-.12h1.34v-.75h-1.58c-.05 0-.07 0-.07-.16v-.31c0-.08 0-.12.07-.12zm-.66 4.18s.07 0 .07.12v.31c0 .11 0 .16-.07.16h-4.34c-.06 0-.08 0-.08-.16v-.31c0-.08 0-.12.08-.12zm-3.34-2.22h-.82v1h.82zm1.56-1.37h-.9v.78h.9zm0 1.37h-.9v1h.9zm1.52 0h-.86v1h.86zm.37 5.16c.25.26.47.49.65.7l-.05.07-.3.4a8.29 8.29 0 0 0 -.87-.9 4.8 4.8 0 0 0 -.62-.47 1.67 1.67 0 0 1 .27-.41s.06-.06.08-.06a8.78 8.78 0 0 1 .87.67z" fill="#231815"/><path d="m25.58 1.79c.08 0 .12.06.12.16v.31c0 .11 0 .16-.12.16h-3.32c-.08 0-.12 0-.12-.16v-.26c0-.1 0-.16.12-.16zm-.43 4.21c.1 0 .16 0 .16.12v2.88c0 .08-.06.12-.16.12h-.39c-.11 0-.16 0-.16-.12v-.37h-1.44v.43c0 .08-.06.12-.16.12h-.39q-.15 0-.15-.12v-2.89a.14.14 0 0 1 .15-.17zm0-2.81c.08 0 .12.06.12.16v.31c0 .11 0 .16-.12.16h-2.3c-.08 0-.12-.05-.12-.16v-.3c0-.1 0-.16.12-.16zm0 1.37q.12 0 .12.15v.29q0 .15-.12.15h-2.3q-.12 0-.12-.15v-.28q0-.15.12-.15zm0-4.14q.12 0 .12.15v.33q0 .15-.12.15h-2.3q-.12 0-.12-.15v-.32q0-.15.12-.15zm-.55 7.58v-1.36h-1.44v1.36zm2.15-2a.12.12 0 0 1 -.08.12.22.22 0 0 0 -.11.17 10.34 10.34 0 0 1 -.23 1.38q-.09.3-.21.6c0 .05-.05.08-.07.08a3.09 3.09 0 0 0 -.54-.14.09.09 0 0 1 -.09-.1 7.25 7.25 0 0 0 .32-.87 9.83 9.83 0 0 0 .26-1.36.09.09 0 0 1 .1-.1c.41.1.65.22.65.22zm1.41-4.4v-1.41c0-.07.05-.11.15-.11.5 0 .75 0 .75.11s0 .14-.1.15-.1.08-.1.2v1.06h2.14c.08 0 .12.06.12.16v.31q0 .15-.12.15h-2.14v1.61h1.92c.07 0 .11 0 .11.15v.31c0 .11 0 .16-.11.16h-4.5c-.08 0-.11 0-.11-.16v-.29c0-.1 0-.15.11-.15h1.88v-1.63h-2.11q-.12 0-.12-.15v-.31c0-.1 0-.16.12-.16zm-.31 3.91c.07 0 .11 0 .11.07s0 .11-.07.12a.11.11 0 0 0 -.08.12v2.11c0 .29.18.43.54.43h.65c.36 0 .57 0 .65-.14a2.34 2.34 0 0 0 .35-.84 1.24 1.24 0 0 0 .41.37c.09 0 .14.08.14.14a2.62 2.62 0 0 1 -.41.94.76.76 0 0 1 -.6.19h-1.26c-.79 0-1.18-.24-1.18-.7v-2.78c0-.07 0-.11.08-.11zm1.3.21a6.41 6.41 0 0 1 .34.8 1.88 1.88 0 0 1 -.63.2 3.62 3.62 0 0 0 -.23-.72 5.36 5.36 0 0 0 -.51-.93s.17-.14.51-.31c.21.38.37.68.52.96zm1.92.93c.12.27.23.55.33.85a2.48 2.48 0 0 1 -.62.19 4 4 0 0 0 -.24-.69 6.06 6.06 0 0 0 -.54-1s.17-.14.51-.31c.25.36.42.68.56.96z" fill="#231815"/><path d="m34.86.9a7.47 7.47 0 0 1 -1.31.35v1.09h1.56c.08 0 .12.06.12.16v.31c0 .11 0 .16-.12.16h-1.56v1.29h1.6q.12 0 .12.15v.31c0 .11 0 .16-.12.16h-1.6v1.33h2.19v-2.15s0-.08.15-.08c.42 0 .63 0 .63.08s0 .13-.08.13-.08.07-.08.18v1.84h.78v-2.7h-1.21a.13.13 0 0 1 -.15-.15v-3.17s0-.08.15-.08c.42 0 .63 0 .63.08s0 .13-.08.13-.08.07-.08.19v.78h1.33c.05 0 .08 0 .08.11v.32c0 .1 0 .15-.08.15h-1.33v1h1.25c.1 0 .16 0 .16.12v3.2h1.91v-1.31h-1.48c-.08 0-.12 0-.12-.16v-.31q0-.15.12-.15h1.48v-1.26h-1.48c-.08 0-.12-.05-.12-.16v-.34c0-.1 0-.16.12-.16h1.48v-1.25h-1.52q-.12 0-.12-.15v-.4c0-.07 0-.11.12-.11h2.07c.1 0 .15 0 .15.11v5.67h.63q.12 0 .12.15v.32q0 .15-.12.15h-8.87q-.12 0-.12-.15v-.32q0-.15.12-.15h.67v-5.63a.1.1 0 0 1 .15-.11l.46.18a4.33 4.33 0 0 0 .54-.14 5.06 5.06 0 0 0 .81-.34.31.31 0 0 1 .19-.06 2.79 2.79 0 0 1 .39.75c0 .06 0 .08-.08.08l-.31-.08zm.82 6.4c.06 0 .1.09.1.12s-.07.12-.2.12a.33.33 0 0 0 -.23.06 5.45 5.45 0 0 1 -.61.59 4.27 4.27 0 0 1 -.53.41c-.21.14-.42.26-.62.38l-.51.24a.19.19 0 0 1 -.15-.1 1.42 1.42 0 0 0 -.29-.35c-.08 0-.11-.08-.11-.1s0 0 0 0c.28-.1.52-.2.72-.29a5.11 5.11 0 0 0 .79-.52 2.89 2.89 0 0 0 .44-.39 3 3 0 0 0 .38-.47.19.19 0 0 1 .14 0zm3.74.61a4.65 4.65 0 0 0 1.39.76 3.17 3.17 0 0 1 -.46.55 4.63 4.63 0 0 1 -1.27-.71 6.49 6.49 0 0 1 -1.16-1.09s.18-.21.55-.47a4.31 4.31 0 0 0 .95.96z" fill="#231815"/><path d="m46.36 2v-1.73c0-.08 0-.12.16-.12q.78 0 .78.12c0 .09 0 .14-.1.15s-.1.08-.1.2v1.38h3.36c.13 0 .2 0 .2.12v4.48c0 .08-.07.12-.2.12h-.39q-.15 0-.15-.12v-.74h-2.82v3.24c0 .08-.07.12-.19.12h-.39c-.11 0-.16 0-.16-.12v-3.24h-3v.7c0 .08-.07.12-.19.12h-.39c-.11 0-.16 0-.16-.12v-4.45a.14.14 0 0 1 .15-.11zm0 3.2v-2.55h-3v2.5zm.74 0h2.82v-2.55h-2.82z" fill="#231815"/><path d="m57.34.19c0 .09 0 .14-.1.15s-.1.08-.1.2v1.14h3.79c.08 0 .12 0 .12.11v.4q0 .15-.12.15h-1.62c-.12.43-.25.85-.38 1.25a6.83 6.83 0 0 1 -.8 1.6 9.83 9.83 0 0 1 -1 1.28h.06a6.2 6.2 0 0 0 1.6 1 10.74 10.74 0 0 0 2.29.8c.1 0 .15.07.15.11a.21.21 0 0 1 -.05.12 3.06 3.06 0 0 0 -.41.4c-.05.06-.09.1-.12.1a1.1 1.1 0 0 1 -.28 0q-.66-.22-1.44-.54a11.1 11.1 0 0 1 -1.74-1c-.21-.16-.4-.31-.56-.46a7.13 7.13 0 0 1 -1 .76 9.71 9.71 0 0 1 -1.53.83c-.46.18-1 .35-1.49.5a.21.21 0 0 1 -.15-.09 5.7 5.7 0 0 0 -.37-.44.24.24 0 0 1 -.09-.12s0-.08.1-.11a8.31 8.31 0 0 0 1.59-.45 10.23 10.23 0 0 0 1.31-.66 6.27 6.27 0 0 0 1-.79 3.65 3.65 0 0 1 -.27-.3 5 5 0 0 1 -1-1.58 9.83 9.83 0 0 1 -.73-2.21h-1.66q-.12 0-.12-.15v-.4c0-.07 0-.11.12-.11h4.06v-1.49c0-.07.05-.11.16-.11.52 0 .78.04.78.11zm-2.22 3.51a6.89 6.89 0 0 0 .93 1.66 4.1 4.1 0 0 0 .5.58 6 6 0 0 0 1-1.26 5.67 5.67 0 0 0 .68-1.23c.14-.34.26-.71.38-1.11h-3.93a7.25 7.25 0 0 0 .44 1.36z" fill="#231815"/><path d="m64.14.32q.15.06.15.15c0 .06-.05.09-.15.11a.23.23 0 0 0 -.24.13v.07h2.62s.08 0 .08.12v.31c0 .08 0 .12-.08.12h-1.42c.18.2.36.41.52.62 0 .1 0 .15-.06.16a1.05 1.05 0 0 1 -.53.23 9.43 9.43 0 0 0 -.71-1h-.81a5 5 0 0 1 -.67.82.24.24 0 0 1 -.36.05l-.38-.21c-.05 0-.1 0-.1 0s0 0 0-.08a6.27 6.27 0 0 0 .78-.8 3.41 3.41 0 0 0 .56-.9c0-.08.08-.13.13-.13zm1.71 2.14c.1 0 .16 0 .16.12v2.61c0 .08-.06.12-.16.12h-2.77v3.83c0 .08-.06.11-.16.11h-.39c-.1 0-.15 0-.15-.11v-6.56q0-.12.15-.12zm-.54 1.17v-.63h-2.23v.62zm0 1.13v-.58h-2.23v.58zm2.85 1.06q.15 0 .15.12v3.06q0 .12-.15.12h-.39a.11.11 0 0 1 -.12-.12v-.21h-2.26v.21c0 .08-.06.12-.16.12h-.39a.11.11 0 0 1 -.12-.12v-3.06a.11.11 0 0 1 .12-.12zm-.51 1.18v-.64h-2.26v.64zm0 1.21v-.63h-2.26v.66zm.87-7.89q.15.06.15.15c0 .06 0 .09-.15.11a.22.22 0 0 0 -.23.13v.07h2.8s.08 0 .08.12v.31c0 .08 0 .12-.08.12h-1.52a6.14 6.14 0 0 1 .54.62c0 .1 0 .15-.06.16a1 1 0 0 1 -.52.23 9.15 9.15 0 0 0 -.75-1h-.85a5 5 0 0 1 -.65.82.3.3 0 0 1 -.18.11.32.32 0 0 1 -.16-.06l-.38-.21c-.06 0-.08 0-.08 0s0 0 0-.08a4.94 4.94 0 0 0 .73-.8 3.58 3.58 0 0 0 .54-.9c0-.08.08-.13.12-.13zm2.06 2.14c.13 0 .2 0 .2.12v5.89c0 .24-.16.44-.47.58a4.6 4.6 0 0 1 -1.14.2.11.11 0 0 1 -.12-.11 2.24 2.24 0 0 0 -.23-.63s0 0 .1 0a2.86 2.86 0 0 0 1-.09.3.3 0 0 0 .17-.28v-2.83h-2.87c-.11 0-.16 0-.16-.12v-2.61c0-.08 0-.12.16-.12zm-.51 1.17v-.63h-2.3v.62zm0 1.13v-.58h-2.3v.58z" fill="#231815"/><path d="m74.25 1.17v1.64h1.17s.08 0 .08.12v.31c0 .11 0 .16-.08.16h-1.07a8.8 8.8 0 0 0 .36 1 5.5 5.5 0 0 0 .73 1.2.12.12 0 0 1 .06.1s0 0-.07.08a1.63 1.63 0 0 1 -.26.28.16.16 0 0 1 -.1.07s-.06 0-.1-.07a5.62 5.62 0 0 1 -.63-1.14 1.17 1.17 0 0 1 -.09-.24v4.38q0 .12-.15.12h-.39a.11.11 0 0 1 -.12-.12v-3.93c-.14.32-.27.62-.41.88a7.51 7.51 0 0 1 -.65 1.06.17.17 0 0 1 -.15-.07l-.38-.16c-.06 0-.08 0-.08 0a6.44 6.44 0 0 0 .81-1.22 6.11 6.11 0 0 0 .49-1.09 11 11 0 0 0 .31-1.08h-1.3c-.06 0-.08 0-.08-.16v-.36c0-.08 0-.12.08-.12h1.37v-1.48a5.79 5.79 0 0 1 -1.17.11c-.09 0-.14 0-.16-.11s-.14-.26-.2-.36 0-.11.08-.11a6.88 6.88 0 0 0 1.53-.12 2.79 2.79 0 0 0 1.32-.54.17.17 0 0 1 .12-.05.26.26 0 0 1 .12.07 3.45 3.45 0 0 1 .35.44c0 .08 0 .12-.08.12h-.23a3.54 3.54 0 0 1 -1.03.39zm3.83 2.23v-.59c0-.05 0-.08.12-.08.46 0 .7 0 .7.12s0 .13-.08.13-.08.07-.08.18v.24h1.76c.13 0 .2.05.2.15v3.05h.58s.08 0 .08.12v.28c0 .11 0 .16-.08.16h-.58v1.39a.56.56 0 0 1 -.38.49 4.42 4.42 0 0 1 -.91.18.12.12 0 0 1 -.13-.12 1.68 1.68 0 0 0 -.22-.59s0 0 .07 0a2.56 2.56 0 0 0 .76-.06.27.27 0 0 0 .11-.27v-1h-3.21v1.88q0 .12-.15.12h-.4c-.08 0-.11 0-.11-.12v-1.87h-.63c-.06 0-.08-.05-.08-.16v-.31c0-.08 0-.12.08-.12h.63v-3.09a.1.1 0 0 1 .11-.11zm2.35-2.67a11.21 11.21 0 0 1 -1.18.21c-.55.08-1 .14-1.5.17s-1 .06-1.51.06c-.11 0-.17 0-.19-.12l-.27-.35c0-.08 0-.12.11-.12h.51c.58 0 1.09 0 1.52-.06a7.74 7.74 0 0 0 1.17-.12 4.84 4.84 0 0 0 1.12-.27h.1a.33.33 0 0 1 .15 0c.34.3.51.48.51.55s0 .08-.12.08l-.23-.06zm-4 .63a9.89 9.89 0 0 1 .74 1.22c0 .08 0 .13-.06.13a.89.89 0 0 1 -.48.22c-.24-.53-.47-1-.67-1.33q0-.09.39-.27a.1.1 0 0 1 .05.03zm1.65 3.64v-1h-1.29v1zm0 1.64v-1.1h-1.29v1.06zm.23-5.35a8.89 8.89 0 0 1 .59 1c0 .09 0 .14-.06.14a1 1 0 0 1 -.49.21c-.18-.46-.34-.85-.5-1.17q0-.09.39-.27a.07.07 0 0 1 .07.05zm.43 3.71h1.26v-1h-1.26zm1.26 1.6v-1.06h-1.26v1.06zm.86-5.24q.12.06.12.12a.09.09 0 0 1 -.08.09.13.13 0 0 0 -.13.1 5.67 5.67 0 0 1 -.55 1.13c0 .06-.08.09-.1.09a.29.29 0 0 1 -.12-.06 2.52 2.52 0 0 1 -.33-.14s-.07 0-.07 0v-.06a4.18 4.18 0 0 0 .4-.63 3.83 3.83 0 0 0 .29-.7c0-.06 0-.1.07-.1z" fill="#231815"/><path d="m84.87.43v.11c0 .06-.06.09-.17.09s-.26 0-.3.11q-.49.89-.93 1.59l.67.64a.83.83 0 0 0 .08-.12c.38-.53.7-1 1-1.45a4.29 4.29 0 0 1 .7.63c0 .05 0 .07-.12.07s-.25 0-.29.08c-.58.86-1.16 1.64-1.72 2.36l1.64-.11a7.6 7.6 0 0 0 -.37-.76s.17-.14.51-.31a10 10 0 0 1 .48 1 6.6 6.6 0 0 1 .3.92 2.52 2.52 0 0 1 -.58.2q-.06-.27-.18-.66l-1.15.2v3.98c0 .08-.06.12-.16.12h-.38c-.11 0-.16 0-.16-.12v-3.83l-1.32.22a1.27 1.27 0 0 1 -.28.27 4.14 4.14 0 0 1 -.14-.94 6.68 6.68 0 0 1 1-.12c.36-.46.66-.87.92-1.21-.36-.3-.64-.52-.83-.66a7.46 7.46 0 0 0 -.92-.51 2 2 0 0 1 .42-.52.1.1 0 0 1 .09-.06l.38.28c.19-.29.36-.57.51-.85.23-.48.43-.83.53-1.07zm-1.56 5.66a.18.18 0 0 1 -.11.16.22.22 0 0 0 -.11.17 12.65 12.65 0 0 1 -.22 1.4c-.06.2-.12.41-.19.62 0 0-.05.07-.07.07a3.33 3.33 0 0 0 -.61-.14q-.09 0-.09-.09a6.31 6.31 0 0 0 .31-.9 7.9 7.9 0 0 0 .25-1.38.09.09 0 0 1 .1-.1c.49.1.74.1.74.19zm2.15-.19a12.11 12.11 0 0 1 .63 1.71c0 .06-.19.12-.55.16-.09 0-.13 0-.13-.07a13.45 13.45 0 0 0 -.41-1.7s.15-.09.46-.15c-.02-.03-.01 0 0 .05zm4.93-5.39c.1 0 .15 0 .15.11v7.62h.74c.08 0 .12 0 .12.16v.31q0 .15-.12.15h-5.35q-.12 0-.12-.15v-.31c0-.11 0-.16.12-.16h.86v-7.58c0-.1 0-.15.16-.15zm-.55 2.49v-1.87h-2.35v1.87zm0 2.57v-1.98h-2.35v2zm0 2.7v-2.1h-2.35v2.07z" fill="#231815"/><path d="m97.27.45c.07 0 .11.09.11.13s-.07.16-.2.16a.75.75 0 0 0 -.24 0 10.16 10.16 0 0 0 .89 1 5.9 5.9 0 0 0 1.22.93 7.18 7.18 0 0 0 2 .9c.1 0 .15 0 .15.08a.14.14 0 0 1 -.06.12 3.42 3.42 0 0 0 -.39.35c0 .06-.07.08-.1.08a6.66 6.66 0 0 1 -1.5-.65 7.21 7.21 0 0 1 -1.53-1.09 10.65 10.65 0 0 1 -1.16-1.26 8.79 8.79 0 0 1 -.81.87 8.48 8.48 0 0 1 -1 .86 13.05 13.05 0 0 1 -1.13.8 7 7 0 0 1 -.92.5.19.19 0 0 1 -.17-.1 1.67 1.67 0 0 0 -.34-.4c-.08 0-.11-.08-.11-.12s0 0 .06-.06a10 10 0 0 0 1.38-.55 10 10 0 0 0 1.46-1.07 6.09 6.09 0 0 0 .8-.82 7 7 0 0 0 .62-.92.3.3 0 0 1 .18-.11zm2.22 4.78q.15 0 .15.12v3.75q0 .12-.15.12h-.39c-.11 0-.16 0-.16-.12v-.47h-4.69v.47q0 .12-.15.12h-.39c-.11 0-.16 0-.16-.12v-3.71a.14.14 0 0 1 .16-.16zm-.55 2.77v-2.14h-4.69v2.14zm-.39-4.57q.12 0 .12.15v.32c0 .11 0 .16-.12.16h-4c-.08 0-.11 0-.11-.16v-.31c0-.1 0-.15.11-.15z" fill="#231815"/><path d="m13.47 139.94v-1.94c0-.08 0-.12.16-.12.49 0 .74 0 .74.12s0 .14-.1.15-.1.08-.1.2v1.6h.9c.08 0 .12.06.12.16v.31c0 .11 0 .16-.12.16h-.77a9.76 9.76 0 0 0 .36 1.06 5 5 0 0 0 .71 1.25.16.16 0 0 1 .05.1.11.11 0 0 1 -.06.08 1.75 1.75 0 0 1 -.27.28c0 .06-.08.08-.1.08s-.06 0-.1-.08a5.46 5.46 0 0 1 -.61-1.18 2.83 2.83 0 0 1 -.11-.31v5q0 .12-.15.12h-.39c-.11 0-.16 0-.16-.12v-4c-.1.29-.19.57-.29.82a7.7 7.7 0 0 1 -.57 1.23.18.18 0 0 1 -.16-.06l-.42-.21c-.06 0-.08 0-.08-.05a9.22 9.22 0 0 0 .7-1.41 7.76 7.76 0 0 0 .42-1.26c.08-.28.17-.71.28-1.3h-1c-.08 0-.12 0-.12-.16v-.31c0-.1 0-.16.12-.16zm3.53 5.14a.24.24 0 0 1 .07.13s0 0-.06 0a.27.27 0 0 0 -.16.06 4.3 4.3 0 0 1 -.54.58 7 7 0 0 1 -.88.61.14.14 0 0 1 -.15-.08c-.13-.11-.24-.2-.32-.28s-.07 0-.07-.07a.05.05 0 0 1 0 0 1.63 1.63 0 0 0 .42-.2 3.79 3.79 0 0 0 .61-.5c.14-.15.31-.34.49-.57 0 0 0-.05.05-.05zm4-1.43c.05 0 .08 0 .08.11v.31c0 .11 0 .16-.08.16h-2.45v1.92c0 .49-.41.74-1.21.74h-.43c-.05 0-.07-.07-.07-.19a1.64 1.64 0 0 0 -.17-.52 3.57 3.57 0 0 0 .63.07c.36 0 .55-.12.55-.35v-1.64h-2.5c-.06 0-.08 0-.08-.16v-.31c0-.07 0-.11.08-.11zm0-5.39s.08 0 .08.12v.31c0 .11 0 .16-.08.16h-1.75v.78h1.41q.15 0 .15.12v1.91q0 .12-.15.12h-5c-.11 0-.16 0-.16-.12v-1.91c0-.08.05-.12.16-.12h1.34v-.78h-1.58c-.05 0-.07 0-.07-.16v-.31c0-.08 0-.12.07-.12zm-.66 4.18s.07 0 .07.12v.31c0 .11 0 .15-.07.15h-4.34c-.06 0-.08 0-.08-.15v-.31c0-.08 0-.12.08-.12zm-3.34-2.22h-.82v1h.82zm1.56-1.37h-.9v.78h.9zm0 1.37h-.9v1h.9zm1.52 0h-.86v1h.86zm.37 5.15c.25.26.47.49.65.7l-.05.07-.3.4a8.29 8.29 0 0 0 -.87-.9 4.8 4.8 0 0 0 -.62-.47 1.67 1.67 0 0 1 .27-.41s.06-.06.08-.06a8.78 8.78 0 0 1 .87.67z" fill="#231815"/><path d="m25.58 139.51c.08 0 .12.06.12.16v.33c0 .11 0 .16-.12.16h-3.32c-.08 0-.12 0-.12-.16v-.31c0-.1 0-.16.12-.16zm-.43 4.21c.1 0 .16 0 .16.12v2.89c0 .08-.06.12-.16.12h-.39c-.11 0-.16 0-.16-.12v-.39h-1.44v.43c0 .08-.06.12-.16.12h-.39q-.15 0-.15-.12v-2.89a.14.14 0 0 1 .15-.16zm0-2.8c.08 0 .12.06.12.16v.31c0 .11 0 .16-.12.16h-2.3c-.08 0-.12-.05-.12-.16v-.31c0-.1 0-.16.12-.16zm0 1.37q.12 0 .12.15v.32c0 .09 0 .15-.12.15h-2.3c-.08 0-.12-.06-.12-.15v-.32q0-.15.12-.15zm0-4.14q.12 0 .12.15v.32q0 .15-.12.15h-2.3q-.12 0-.12-.15v-.32q0-.15.12-.15zm-.55 7.57v-1.37h-1.44v1.37zm2.15-2a.12.12 0 0 1 -.08.12.22.22 0 0 0 -.11.17 10.34 10.34 0 0 1 -.23 1.38q-.09.3-.21.6s-.05.08-.07.08a3.09 3.09 0 0 0 -.54-.14.09.09 0 0 1 -.09-.1 7.25 7.25 0 0 0 .32-.87 9.83 9.83 0 0 0 .21-1.37.09.09 0 0 1 .1-.1c.46.1.7.18.7.23zm1.41-4.4v-1.41c0-.07.05-.11.15-.11.5 0 .75 0 .75.11s0 .14-.1.15-.1.08-.1.2v1.06h2.14c.08 0 .12.06.12.16v.31q0 .15-.12.15h-2.14v1.61h1.92c.07 0 .11 0 .11.15v.3c0 .11 0 .16-.11.16h-4.5c-.08 0-.11 0-.11-.16v-.31c0-.1 0-.15.11-.15h1.88v-1.61h-2.11q-.12 0-.12-.15v-.31c0-.1 0-.16.12-.16zm-.31 3.91c.07 0 .11 0 .11.06a.13.13 0 0 1 -.07.13.1.1 0 0 0 -.08.11v2.11c0 .29.18.43.54.43h.65c.36 0 .57 0 .65-.14a2.34 2.34 0 0 0 .32-.84 1.24 1.24 0 0 0 .41.37c.09 0 .14.08.14.14a2.62 2.62 0 0 1 -.41.94.76.76 0 0 1 -.6.19h-1.23c-.79 0-1.18-.24-1.18-.7v-2.78c0-.06 0-.1.08-.1zm1.3.21a5.69 5.69 0 0 1 .34.79 1.88 1.88 0 0 1 -.63.2 3.62 3.62 0 0 0 -.23-.68 4.94 4.94 0 0 0 -.51-.92s.17-.14.51-.31a9 9 0 0 1 .52.92zm1.92.92c.12.27.23.55.33.85a2.48 2.48 0 0 1 -.62.19 4 4 0 0 0 -.24-.71 6.06 6.06 0 0 0 -.51-1s.17-.14.51-.3a9.62 9.62 0 0 1 .53.97z" fill="#231815"/><path d="m34.86 138.62a7.47 7.47 0 0 1 -1.31.35v1.09h1.56c.08 0 .12.06.12.16v.31c0 .11 0 .16-.12.16h-1.56v1.31h1.6q.12 0 .12.15v.31c0 .11 0 .16-.12.16h-1.6v1.32h2.19v-2.14c0-.05 0-.08.15-.08.42 0 .63 0 .63.08s0 .13-.08.13-.08.07-.08.18v1.83h.78v-2.69h-1.21a.13.13 0 0 1 -.15-.15v-3.17s0-.08.15-.08c.42 0 .63 0 .63.08s0 .13-.08.13-.08.07-.08.19v.75h1.33c.05 0 .08 0 .08.11v.32c0 .1 0 .15-.08.15h-1.33v1h1.25c.1 0 .16 0 .16.12v3.19h1.91v-1.29h-1.48c-.08 0-.12 0-.12-.16v-.31q0-.15.12-.15h1.48v-1.29h-1.48c-.08 0-.12-.05-.12-.16v-.31c0-.1 0-.16.12-.16h1.48v-1.25h-1.52q-.12 0-.12-.15v-.4c0-.07 0-.11.12-.11h2.07c.1 0 .15 0 .15.11v5.66h.63q.12 0 .12.15v.32q0 .15-.12.15h-8.87q-.12 0-.12-.15v-.32q0-.15.12-.15h.67v-5.62a.1.1 0 0 1 .11-.11l.46.18a4.33 4.33 0 0 0 .61-.14 5.06 5.06 0 0 0 .81-.34.31.31 0 0 1 .12-.06 2.79 2.79 0 0 1 .39.75c0 .06 0 .08-.08.08l-.28-.08zm.82 6.39c.06.05.1.09.1.12s-.07.12-.2.12a.33.33 0 0 0 -.23.06 5.45 5.45 0 0 1 -.61.59 4.27 4.27 0 0 1 -.53.41c-.21.14-.42.26-.62.38l-.51.24a.19.19 0 0 1 -.15-.1 1.42 1.42 0 0 0 -.29-.35c-.08 0-.11-.08-.11-.1s0 0 0 0c.28-.1.52-.2.72-.29a5.11 5.11 0 0 0 .79-.52 2.89 2.89 0 0 0 .44-.39 3 3 0 0 0 .34-.44.19.19 0 0 1 .1-.05zm3.74.61a4.65 4.65 0 0 0 1.39.76 3.17 3.17 0 0 1 -.46.55 4.63 4.63 0 0 1 -1.27-.71 6.49 6.49 0 0 1 -1.16-1.09s.18-.21.55-.47a4.31 4.31 0 0 0 .95.96z" fill="#231815"/><path d="m46.36 139.67v-1.67c0-.08 0-.12.16-.12q.78 0 .78.12c0 .09 0 .14-.1.15s-.1.08-.1.2v1.33h3.36c.13 0 .2 0 .2.12v4.52c0 .08-.07.12-.2.12h-.39q-.15 0-.15-.12v-.74h-2.82v3.24c0 .08-.07.12-.19.12h-.39c-.11 0-.16 0-.16-.12v-3.24h-3v.7c0 .08-.07.12-.19.12h-.39c-.11 0-.16 0-.16-.12v-4.44a.14.14 0 0 1 .16-.16zm0 3.2v-2.5h-3v2.5zm.74 0h2.82v-2.5h-2.82z" fill="#231815"/><path d="m57.34 137.91c0 .09 0 .14-.1.15s-.1.08-.1.2v1.14h3.79c.08 0 .12 0 .12.11v.4q0 .15-.12.15h-1.62c-.12.43-.25.85-.38 1.25a6.83 6.83 0 0 1 -.8 1.6 10.49 10.49 0 0 1 -1 1.27h.06a6.2 6.2 0 0 0 1.6 1 10.74 10.74 0 0 0 2.29.8c.1 0 .15.07.15.11a.21.21 0 0 1 -.05.12 3.06 3.06 0 0 0 -.41.4c-.05.06-.09.1-.12.1a1.1 1.1 0 0 1 -.29-.11q-.66-.22-1.44-.54a11.1 11.1 0 0 1 -1.74-1c-.21-.16-.4-.31-.56-.46a7.13 7.13 0 0 1 -1 .76 9.71 9.71 0 0 1 -1.53.83c-.46.18-1 .35-1.49.5a.21.21 0 0 1 -.15-.07 5.7 5.7 0 0 0 -.37-.44.24.24 0 0 1 -.06-.11s0-.08.1-.11a8.31 8.31 0 0 0 1.59-.45 10.23 10.23 0 0 0 1.28-.66 6.27 6.27 0 0 0 1-.79 3.65 3.65 0 0 1 -.27-.3 4.94 4.94 0 0 1 -1-1.57 9.83 9.83 0 0 1 -.82-2.21h-1.56q-.12 0-.12-.15v-.4c0-.07 0-.11.12-.11h4.06v-1.49c0-.07.05-.11.16-.11.52.08.78.12.78.19zm-2.22 3.51a6.89 6.89 0 0 0 .93 1.66 4.63 4.63 0 0 0 .5.57 5.91 5.91 0 0 0 1-1.25 5.67 5.67 0 0 0 .68-1.23c.14-.34.26-.71.38-1.11h-3.93a7.25 7.25 0 0 0 .44 1.36z" fill="#231815"/><path d="m64.53 138.77q-.12 0-.12-.15v-.39a.11.11 0 0 1 .12-.12h2.26a.33.33 0 0 1 .23.1 5.39 5.39 0 0 0 1.35 1.87 5.07 5.07 0 0 0 2.7 1.18c.14 0 .21.07.21.13a.15.15 0 0 1 -.06.11c-.14.12-.25.23-.35.33a.2.2 0 0 1 -.17.11 8.62 8.62 0 0 1 -1-.33v.29q0 .15-.12.15h-2.58v1.56h2.54a.1.1 0 0 1 .11.11v.39c0 .11 0 .16-.11.16h-2.54v1.73h3.67a.11.11 0 0 1 .12.12v.39q0 .15-.12.15h-8.18c-.08 0-.11-.05-.11-.15v-.39c0-.08 0-.12.11-.12h3.75v-1.72h-2.61c-.08 0-.12-.05-.12-.16v-.39c0-.07 0-.11.12-.11h2.61v-1.56h-2.73q-.12 0-.12-.15v-.22a3.83 3.83 0 0 1 -.9.41s-.09 0-.13-.13l-.33-.37c-.06-.05-.08-.09-.08-.12a11 11 0 0 0 1.66-.71 7.93 7.93 0 0 0 1.37-1 9.58 9.58 0 0 0 .83-1zm4.66 2.62a5.14 5.14 0 0 1 -1.36-.83 6.6 6.6 0 0 1 -1.27-1.73 5.33 5.33 0 0 1 -.71.9 7.46 7.46 0 0 1 -1 1 7.71 7.71 0 0 1 -.93.65z" fill="#231815"/><path d="m74.72 141a.18.18 0 0 1 -.16.19.27.27 0 0 0 -.15.11 7.33 7.33 0 0 1 -.55.77v4.7q0 .12-.15.12h-.4q-.15 0-.15-.12v-3.94c-.22.21-.46.42-.74.66-.19-.2-.34-.34-.44-.43a.16.16 0 0 1 -.07-.11v-.06a5.64 5.64 0 0 0 1.24-1.15 7.36 7.36 0 0 0 .81-1.2s0 0 .07 0a3.82 3.82 0 0 1 .69.46zm-.17-2.77a.23.23 0 0 1 .13.19c0 .06-.05.08-.15.08a.25.25 0 0 0 -.24.13 8.93 8.93 0 0 1 -1.68 1.9.18.18 0 0 1 -.15-.07 2 2 0 0 0 -.29-.29.16.16 0 0 1 -.07-.11.08.08 0 0 1 0-.07 2.15 2.15 0 0 0 .54-.45 5.47 5.47 0 0 0 .68-.75 6 6 0 0 0 .5-.89c0-.06.06-.1.08-.1zm2.7-.12q.09.07.09.12c0 .08-.06.11-.16.11a.23.23 0 0 0 -.2.1v.08a4 4 0 0 0 .63.76 3.91 3.91 0 0 0 .91.7.16.16 0 0 1 -.07.15l-.44.36h-.06a2.43 2.43 0 0 1 -.59-.46 8.15 8.15 0 0 1 -.74-.91 1.4 1.4 0 0 1 -.13.18 4.35 4.35 0 0 1 -.45.58c-.19.2-.37.38-.55.54a2.93 2.93 0 0 1 -.45.34.16.16 0 0 1 -.14-.09 2.16 2.16 0 0 0 -.27-.33q-.09 0-.09-.09a4.3 4.3 0 0 0 .63-.42 4.34 4.34 0 0 0 .68-.72 3.1 3.1 0 0 0 .39-.55 5.16 5.16 0 0 0 .29-.62s.06-.07.09-.07zm.67 2.62q.12 0 .12.15v.31c0 .11 0 .16-.12.16h-.92v1.17h1.33c.07 0 .11.06.11.16v.3c0 .12 0 .17-.11.17h-1.33v2.41c.48-.1.94-.22 1.38-.34h.06s.08 0 .08.11a2.29 2.29 0 0 1 0 .59q-1.55.36-3.12.66c-.12.18-.21.28-.28.28s-.19-.29-.39-.86c.45-.06 1-.15 1.6-.28v-2.56h-1.45c-.08 0-.12-.05-.12-.17v-.3c0-.1 0-.16.12-.16h1.36v-1.17h-.89c-.08 0-.12 0-.12-.16v-.31q0-.15.12-.15zm-2.29 3.82a5.8 5.8 0 0 1 .26.77 1.72 1.72 0 0 1 -.58.2 6.58 6.58 0 0 0 -.19-.64 6.17 6.17 0 0 0 -.4-.88s.17-.15.51-.32c.16.32.3.61.4.87zm2.79-.76c.08 0 .13.08.13.13a.09.09 0 0 1 0 .08.07.07 0 0 0 -.08.08 6.33 6.33 0 0 1 -.35 1c0 .06-.06.08-.07.08a.29.29 0 0 1 -.15-.06l-.36-.17h-.07a.13.13 0 0 1 0-.06 5.71 5.71 0 0 0 .24-.54 3.25 3.25 0 0 0 .17-.61c0-.05 0-.08 0-.08zm2.79-3.18c.07 0 .11 0 .11.15v.32c0 .1 0 .15-.11.15h-.75v5c0 .5-.41.75-1.21.75h-.35c-.05 0-.07-.07-.07-.19a1.88 1.88 0 0 0 -.16-.52 2 2 0 0 0 .54.08c.36 0 .55-.12.55-.35v-4.68h-1.13q-.12 0-.12-.15v-.32q0-.15.12-.15zm-.32-2.15c.08 0 .12.06.12.16v.31q0 .15-.12.15h-2.07c-.08 0-.11-.05-.11-.15v-.31c0-.1 0-.16.11-.16z" fill="#231815"/><path d="m84.87 138.15v.11c0 .06-.06.09-.17.09s-.26 0-.3.11q-.49.89-.93 1.59l.67.64a.83.83 0 0 0 .08-.12c.38-.53.7-1 1-1.45a4.29 4.29 0 0 1 .7.63c0 .05 0 .07-.12.07s-.25 0-.29.08c-.58.86-1.16 1.64-1.72 2.36l1.64-.11a7.6 7.6 0 0 0 -.37-.76s.17-.14.51-.31a10 10 0 0 1 .48 1 6.92 6.92 0 0 1 .3.91 2.22 2.22 0 0 1 -.58.21c0-.19-.1-.4-.18-.66l-1.15.2v4c0 .08-.06.12-.16.12h-.38c-.11 0-.16 0-.16-.12v-3.84l-1.32.21a1.52 1.52 0 0 1 -.28.28 4.33 4.33 0 0 1 -.19-.94 6.68 6.68 0 0 1 1-.12c.36-.46.66-.87.92-1.21-.36-.3-.64-.52-.83-.66a7.46 7.46 0 0 0 -.92-.51 2 2 0 0 1 .42-.52.1.1 0 0 1 .09-.06l.38.28c.19-.29.36-.57.51-.85.26-.48.44-.83.56-1.07zm-1.56 5.65a.18.18 0 0 1 -.11.16.22.22 0 0 0 -.11.17 12.65 12.65 0 0 1 -.22 1.4c-.06.2-.12.41-.19.62 0 0-.05.07-.07.07a3.33 3.33 0 0 0 -.57-.14q-.09 0-.09-.09a6.31 6.31 0 0 0 .31-.9 7.9 7.9 0 0 0 .21-1.42.09.09 0 0 1 .1-.1c.49.1.74.18.74.23zm2.15-.19a12.11 12.11 0 0 1 .63 1.71c0 .06-.19.12-.55.16-.09 0-.13 0-.13-.07a13.45 13.45 0 0 0 -.45-1.73s.15-.09.46-.15c.02 0 .03.03.04.08zm4.93-5.38c.1 0 .15 0 .15.11v7.66h.74c.08 0 .12.05.12.16v.31q0 .15-.12.15h-5.35q-.12 0-.12-.15v-.31c0-.11 0-.16.12-.16h.86v-7.57c0-.1 0-.15.16-.15zm-.55 2.46v-1.84h-2.35v1.84zm0 2.56v-1.94h-2.35v1.94zm0 2.7v-2.07h-2.35v2.12z" fill="#231815"/><path d="m97.27 138.17c.07.05.11.09.11.13s-.07.16-.2.16a.75.75 0 0 0 -.24 0 10.16 10.16 0 0 0 .89 1 5.9 5.9 0 0 0 1.22.93 7.18 7.18 0 0 0 2 .9c.1 0 .15 0 .15.08a.14.14 0 0 1 -.06.12 3.42 3.42 0 0 0 -.39.35c0 .06-.07.08-.1.08a6.66 6.66 0 0 1 -1.5-.65 7.21 7.21 0 0 1 -1.53-1.09 10.65 10.65 0 0 1 -1.15-1.18 8.79 8.79 0 0 1 -.81.87 8.48 8.48 0 0 1 -1 .86 13.05 13.05 0 0 1 -1.13.8 7 7 0 0 1 -.92.5.19.19 0 0 1 -.17-.1 1.67 1.67 0 0 0 -.34-.4c-.08 0-.11-.08-.11-.12s0 0 .06-.06a8.1 8.1 0 0 0 2.79-1.68 6.09 6.09 0 0 0 .8-.82 7 7 0 0 0 .62-.92.3.3 0 0 1 .18-.11zm2.22 4.83c.1 0 .15 0 .15.11v3.75q0 .12-.15.12h-.39c-.11 0-.16 0-.16-.12v-.47h-4.69v.47q0 .12-.15.12h-.39c-.11 0-.16 0-.16-.12v-3.76c0-.1 0-.15.16-.15zm-.55 2.77v-2.15h-4.69v2.15zm-.39-4.56q.12 0 .12.15v.31c0 .11 0 .16-.12.16h-4c-.08 0-.11-.05-.11-.16v-.31c0-.1 0-.15.11-.15z" fill="#231815"/><path d="m485.28 216.77h-2.67v-.1h2.57v-27.85h-2.57v-.1h2.67z" fill="#00b2e1"/><path d="m485.4 309.59h-.04l-2.62-.01v-.1l2.57.01.14-27.76-2.56-.01v-.1l2.67.01v.05z" fill="#00b2e1"/><path d="m13.09 222.98h-1.97v-42h1.97v.1h-1.87v41.8h1.87z" fill="#00b2e1"/><path d="m15.76 316.3h-2.66v-42.01h2.66v.1h-2.56v41.81h2.56z" fill="#00b2e1"/><path d="m477.25 232.35h-398.11v-.1h398.01v-2.56h.1z" fill="#00b2e1"/><path d="m477.24 323.11h-398.1v-.1h398v-2.57h.1z" fill="#00b2e1"/><path d="m66.72 96.12a4.22 4.22 0 0 1 .16-1.25 1.56 1.56 0 0 1 .48-.73 1.19 1.19 0 0 1 .8-.26 1.38 1.38 0 0 1 .62.14 1.15 1.15 0 0 1 .44.41 2.22 2.22 0 0 1 .27.66 4.05 4.05 0 0 1 .1 1 3.87 3.87 0 0 1 -.16 1.25 1.51 1.51 0 0 1 -.47.74 1.24 1.24 0 0 1 -.8.26 1.19 1.19 0 0 1 -1-.46 2.88 2.88 0 0 1 -.44-1.76zm.56 0a2.78 2.78 0 0 0 .25 1.45.75.75 0 0 0 .63.36.73.73 0 0 0 .62-.37 2.68 2.68 0 0 0 .22-1.44 2.73 2.73 0 0 0 -.26-1.44.75.75 0 0 0 -.63-.36.69.69 0 0 0 -.59.32 2.74 2.74 0 0 0 -.24 1.48z" fill="#208ec5"/><path d="m70.44 98.29v-.61h.62v.61z" fill="#208ec5"/><path d="m71.85 97.13.54-.07a1.14 1.14 0 0 0 .32.66.76.76 0 0 0 .54.21.88.88 0 0 0 .65-.27.91.91 0 0 0 .26-.65.84.84 0 0 0 -.24-.62.86.86 0 0 0 -.62-.24 1.54 1.54 0 0 0 -.38.06l.06-.47h.08a1.1 1.1 0 0 0 .62-.18.6.6 0 0 0 .32-.56.66.66 0 0 0 -.2-.49.73.73 0 0 0 -.52-.2.78.78 0 0 0 -.53.2 1 1 0 0 0 -.26.59l-.58-.1a1.37 1.37 0 0 1 .44-.84 1.32 1.32 0 0 1 .88-.3 1.45 1.45 0 0 1 .66.15 1.18 1.18 0 0 1 .46.42 1.08 1.08 0 0 1 .17.57 1 1 0 0 1 -.16.52 1 1 0 0 1 -.45.37 1.05 1.05 0 0 1 .61.38 1.13 1.13 0 0 1 .21.71 1.3 1.3 0 0 1 -.42 1 1.46 1.46 0 0 1 -1.06.4 1.36 1.36 0 0 1 -1-.34 1.34 1.34 0 0 1 -.4-.91z" fill="#208ec5"/><path d="m75 98.29 1.74-2.29-1.5-2.1h.69l.8 1.12c.17.24.28.42.35.54.1-.16.22-.32.35-.5l.89-1.16h.68l-1.59 2.1 1.66 2.32h-.72l-1.11-1.56-.19-.3-.21.33-1.1 1.53z" fill="#208ec5"/><path d="m147.77 97.13.54-.07a1.13 1.13 0 0 0 .31.66.77.77 0 0 0 .55.21.9.9 0 0 0 .9-.92.82.82 0 0 0 -.86-.86 1.54 1.54 0 0 0 -.38.06l.06-.47h.11a1.1 1.1 0 0 0 .62-.18.62.62 0 0 0 .28-.55.64.64 0 0 0 -.21-.49.69.69 0 0 0 -.51-.2.76.76 0 0 0 -.53.2 1 1 0 0 0 -.27.59l-.54-.09a1.43 1.43 0 0 1 .45-.84 1.28 1.28 0 0 1 .87-.3 1.53 1.53 0 0 1 .67.15 1.25 1.25 0 0 1 .46.42 1.07 1.07 0 0 1 .16.57 1 1 0 0 1 -.15.52 1 1 0 0 1 -.46.37 1 1 0 0 1 .61.38 1.13 1.13 0 0 1 .22.71 1.28 1.28 0 0 1 -.42 1 1.48 1.48 0 0 1 -1.07.4 1.39 1.39 0 0 1 -1-.34 1.33 1.33 0 0 1 -.41-.93z" fill="#208ec5"/><path d="m151.48 98.29v-.61h.62v.61z" fill="#208ec5"/><path d="m152.89 97.14h.57a1 1 0 0 0 .29.63.77.77 0 0 0 .55.21.85.85 0 0 0 .66-.3 1.09 1.09 0 0 0 .27-.78 1 1 0 0 0 -.26-.73.89.89 0 0 0 -.68-.26.93.93 0 0 0 -.47.11 1 1 0 0 0 -.33.31l-.51-.06.43-2.26h2.19v.51h-1.76l-.23 1.18a1.44 1.44 0 0 1 .83-.27 1.31 1.31 0 0 1 1 .4 1.4 1.4 0 0 1 .39 1 1.63 1.63 0 0 1 -.34 1 1.43 1.43 0 0 1 -1.16.53 1.39 1.39 0 0 1 -1-.34 1.29 1.29 0 0 1 -.44-.88z" fill="#208ec5"/><path d="m156.08 98.29 1.7-2.29-1.5-2.1h.72l.8 1.12c.17.24.28.42.35.54.1-.16.22-.32.35-.5l.89-1.16h.61l-1.55 2.1 1.66 2.32h-.72l-1.11-1.56-.19-.3-.21.33-1.1 1.53z" fill="#208ec5"/><path d="m247.63 62.58a4.17 4.17 0 0 1 .16-1.25 1.65 1.65 0 0 1 .48-.74 1.23 1.23 0 0 1 .8-.25 1.26 1.26 0 0 1 .62.14 1.15 1.15 0 0 1 .44.41 2 2 0 0 1 .27.65 4.19 4.19 0 0 1 .1 1 3.87 3.87 0 0 1 -.16 1.25 1.51 1.51 0 0 1 -.47.74 1.24 1.24 0 0 1 -.8.26 1.19 1.19 0 0 1 -1-.46 2.88 2.88 0 0 1 -.44-1.75zm.56 0a2.71 2.71 0 0 0 .25 1.44.75.75 0 0 0 .63.36.74.74 0 0 0 .62-.36 4.12 4.12 0 0 0 0-2.88.75.75 0 0 0 -.63-.36.69.69 0 0 0 -.59.32 2.74 2.74 0 0 0 -.28 1.48z" fill="#208ec5"/><path d="m251.36 64.75v-.61h.64v.61z" fill="#208ec5"/><path d="m255.56 61.43h-.54a.94.94 0 0 0 -.2-.46.74.74 0 0 0 -.54-.23.77.77 0 0 0 -.45.14 1.31 1.31 0 0 0 -.41.55 3.12 3.12 0 0 0 -.15 1 1.25 1.25 0 0 1 1.07-.58 1.21 1.21 0 0 1 .92.4 1.41 1.41 0 0 1 .38 1 1.65 1.65 0 0 1 -.18.77 1.31 1.31 0 0 1 -.49.55 1.45 1.45 0 0 1 -1.81-.31 2.54 2.54 0 0 1 -.42-1.64 2.89 2.89 0 0 1 .47-1.85 1.33 1.33 0 0 1 1.1-.5 1.18 1.18 0 0 1 1.25 1.09zm-2.2 1.9a1.4 1.4 0 0 0 .11.53.87.87 0 0 0 .34.39.8.8 0 0 0 .44.13.76.76 0 0 0 .59-.27 1.08 1.08 0 0 0 .25-.75 1 1 0 0 0 -.25-.72.77.77 0 0 0 -.61-.26.82.82 0 0 0 -.62.26.93.93 0 0 0 -.25.69z" fill="#208ec5"/><path d="m256 64.75 1.7-2.29-1.5-2.11h.69l.8 1.13c.17.24.28.42.36.54a4.44 4.44 0 0 1 .34-.5l.89-1.17h.63l-1.54 2.08 1.63 2.32h-.72l-1.11-1.57-.19-.29-.21.33-1.1 1.53z" fill="#208ec5"/><path d="m0 65.68 1.66-2.36-1.54-2.19h1l.7 1.07c.13.2.23.37.31.51l.35-.5.77-1.08h.92l-1.6 2.14 1.69 2.41h-.95l-.93-1.41-.25-.38-1.2 1.79z" fill="#208ec5"/><path d="m2.81 203.93 1.66-2.37-1.54-2.19h1l.7 1.07.31.51.35-.5.71-1.08h1l-1.57 2.15 1.69 2.41h-1l-.93-1.42-.25-.38-1.2 1.8z" fill="#208ec5"/><path d="m2.81 296.43 1.66-2.36-1.54-2.19h1l.67 1.12c.13.2.23.37.31.51.13-.19.24-.36.35-.5l.74-1.13h1l-1.62 2.12 1.69 2.41h-1l-.88-1.41-.25-.38-1.2 1.79z" fill="#208ec5"/><path d="m361.21 89.12h-15.07v-1.71h.1v1.61h14.87v-1.61h.1z" fill="#00b2e1"/><path d="m66.48 238.82a3.91 3.91 0 0 1 .16-1.25 1.55 1.55 0 0 1 .47-.74 1.42 1.42 0 0 1 1.42-.11 1.08 1.08 0 0 1 .44.41 2.28 2.28 0 0 1 .28.65 4.83 4.83 0 0 1 .09 1 4.22 4.22 0 0 1 -.15 1.25 1.59 1.59 0 0 1 -.48.74 1.24 1.24 0 0 1 -.8.26 1.2 1.2 0 0 1 -1-.46 2.89 2.89 0 0 1 -.43-1.75zm.55 0a2.88 2.88 0 0 0 .25 1.45.74.74 0 0 0 .63.35.75.75 0 0 0 .63-.36 4.27 4.27 0 0 0 0-2.88.76.76 0 0 0 -.64-.36.7.7 0 0 0 -.59.32 2.74 2.74 0 0 0 -.31 1.48z" fill="#208ec5"/><path d="m70.2 241v-.61h.61v.61z" fill="#208ec5"/><path d="m71.6 239.83.54-.07a1.2 1.2 0 0 0 .32.66.76.76 0 0 0 .54.2.87.87 0 0 0 .65-.26.91.91 0 0 0 .26-.65.82.82 0 0 0 -.86-.86 1.54 1.54 0 0 0 -.38.06l.06-.47h.09a1.12 1.12 0 0 0 .62-.18.61.61 0 0 0 .27-.55.63.63 0 0 0 -.2-.49.7.7 0 0 0 -.51-.22.73.73 0 0 0 -.52.2 1 1 0 0 0 -.27.59l-.54-.09a1.28 1.28 0 0 1 1.33-1.12 1.45 1.45 0 0 1 .66.15 1.14 1.14 0 0 1 .47.42 1.17 1.17 0 0 1 .16.57 1 1 0 0 1 -.15.52 1.07 1.07 0 0 1 -.46.37 1.09 1.09 0 0 1 .61.37 1.17 1.17 0 0 1 .21.71 1.3 1.3 0 0 1 -.42 1 1.46 1.46 0 0 1 -1.06.4 1.34 1.34 0 0 1 -1.4-1.24z" fill="#208ec5"/><path d="m74.79 241 1.7-2.29-1.49-2.11h.69l.8 1.12q.26.36.36.54a5.82 5.82 0 0 1 .35-.5l.88-1.16h.63l-1.54 2.07 1.65 2.33h-.72l-1.1-1.58c-.07-.09-.13-.18-.2-.29a2.46 2.46 0 0 1 -.21.33l-1.1 1.54z" fill="#208ec5"/><path d="m277.67 240h.52a1 1 0 0 0 .25.53.71.71 0 0 0 .48.16.8.8 0 0 0 .44-.11 1.26 1.26 0 0 0 .31-.3 2 2 0 0 0 .2-.52 2.84 2.84 0 0 0 .13-.76.54.54 0 0 0 0-.11 1.11 1.11 0 0 1 -.44.42 1.18 1.18 0 0 1 -.61.16 1.23 1.23 0 0 1 -.92-.39 1.65 1.65 0 0 1 0-2.13 1.31 1.31 0 0 1 1-.4 1.41 1.41 0 0 1 1.32.89 3.26 3.26 0 0 1 .18 1.23 4.11 4.11 0 0 1 -.18 1.35 1.6 1.6 0 0 1 -.54.76 1.45 1.45 0 0 1 -.85.26 1.22 1.22 0 0 1 -.84-.29 1.26 1.26 0 0 1 -.45-.75zm2.21-1.95a1.07 1.07 0 0 0 -.24-.73.78.78 0 0 0 -.6-.28.82.82 0 0 0 -.63.3 1.11 1.11 0 0 0 -.26.76.92.92 0 0 0 .25.68.82.82 0 0 0 .63.26.77.77 0 0 0 .61-.26 1 1 0 0 0 .24-.78z" fill="#208ec5"/><path d="m281.31 241v-.61h.62v.61z" fill="#208ec5"/><path d="m282.72 239.84.56-.05a1 1 0 0 0 .3.63.76.76 0 0 0 .55.2.84.84 0 0 0 .66-.29 1.12 1.12 0 0 0 .27-.78 1 1 0 0 0 -.26-.73.9.9 0 0 0 -.68-.27.94.94 0 0 0 -.47.12.9.9 0 0 0 -.33.31l-.51-.07.43-2.26h2.19v.52h-1.76l-.24 1.18a1.49 1.49 0 0 1 .84-.27 1.31 1.31 0 0 1 1 .4 1.38 1.38 0 0 1 .39 1 1.6 1.6 0 0 1 -.34 1 1.54 1.54 0 0 1 -2.14.2 1.29 1.29 0 0 1 -.46-.84z" fill="#208ec5"/><path d="m285.91 241 1.7-2.29-1.5-2.1h.69l.8 1.12c.17.24.28.42.35.54.1-.16.22-.32.35-.5l.89-1.16h.63l-1.55 2.07 1.67 2.32h-.72l-1.11-1.57-.19-.29-.21.33-1.1 1.53z" fill="#208ec5"/><path d="m277.67 330.6.52-.05a1 1 0 0 0 .25.53.72.72 0 0 0 .48.17.81.81 0 0 0 .44-.12 1 1 0 0 0 .31-.3 2 2 0 0 0 .2-.52 2.84 2.84 0 0 0 .08-.66.41.41 0 0 0 0-.1 1.09 1.09 0 0 1 -.44.41 1.18 1.18 0 0 1 -.61.16 1.23 1.23 0 0 1 -.92-.39 1.47 1.47 0 0 1 -.38-1.05 1.45 1.45 0 0 1 .4-1.07 1.28 1.28 0 0 1 1-.41 1.45 1.45 0 0 1 .78.23 1.37 1.37 0 0 1 .54.66 3.31 3.31 0 0 1 .18 1.24 4 4 0 0 1 -.18 1.34 1.55 1.55 0 0 1 -.54.76 1.45 1.45 0 0 1 -.85.26 1.18 1.18 0 0 1 -.84-.29 1.23 1.23 0 0 1 -.42-.8zm2.21-1.94a1.08 1.08 0 0 0 -.24-.74.8.8 0 0 0 -.6-.27.81.81 0 0 0 -.63.29 1.13 1.13 0 0 0 -.26.76 1 1 0 0 0 .25.69.86.86 0 0 0 .63.26.8.8 0 0 0 .61-.26 1.05 1.05 0 0 0 .24-.73z" fill="#208ec5"/><path d="m281.31 331.62v-.62h.62v.62z" fill="#208ec5"/><path d="m282.72 330.46h.56a1 1 0 0 0 .3.62.77.77 0 0 0 .55.21.85.85 0 0 0 .66-.3 1.09 1.09 0 0 0 .27-.78 1 1 0 0 0 -.26-.73.93.93 0 0 0 -.68-.26 1 1 0 0 0 -.47.11 1 1 0 0 0 -.33.31l-.51-.06.43-2.26h2.19v.51h-1.76l-.24 1.19a1.43 1.43 0 0 1 .84-.28 1.31 1.31 0 0 1 1 .4 1.41 1.41 0 0 1 .39 1 1.63 1.63 0 0 1 -.34 1 1.57 1.57 0 0 1 -2.14.2 1.33 1.33 0 0 1 -.46-.88z" fill="#208ec5"/><path d="m285.91 331.62 1.7-2.3-1.5-2.1h.69l.8 1.13a4.56 4.56 0 0 1 .35.54c.1-.16.22-.33.35-.51l.89-1.16h.63l-1.55 2.07 1.67 2.33h-.72l-1.11-1.57-.19-.3-.21.33-1.1 1.54z" fill="#208ec5"/><path d="m79.19 232.35h-14.43v-1.71h.1v1.61h14.23v-1.61h.1z" fill="#00b2e1"/><path d="m79.19 323.11h-14.43v-1.71h.1v1.61h14.23v-1.61h.1z" fill="#00b2e1"/><path d="m66 329.45a4 4 0 0 1 .16-1.26 1.56 1.56 0 0 1 .48-.73 1.21 1.21 0 0 1 .79-.26 1.39 1.39 0 0 1 .63.14 1.32 1.32 0 0 1 .44.41 2.52 2.52 0 0 1 .27.66 4.6 4.6 0 0 1 .1 1 4 4 0 0 1 -.16 1.25 1.61 1.61 0 0 1 -.48.73 1.35 1.35 0 0 1 -1.8-.19 3 3 0 0 1 -.43-1.75zm.56 0a2.76 2.76 0 0 0 .25 1.44.72.72 0 0 0 1.25 0 4.3 4.3 0 0 0 0-2.89.77.77 0 0 0 -.63-.35.7.7 0 0 0 -.6.31 2.87 2.87 0 0 0 -.26 1.49z" fill="#208ec5"/><path d="m69.73 331.62v-.62h.61v.62z" fill="#208ec5"/><path d="m71.14 330.46.54-.08a1.13 1.13 0 0 0 .32.62.79.79 0 0 0 .55.21.92.92 0 0 0 .66-1.54.84.84 0 0 0 -.62-.24 1.54 1.54 0 0 0 -.38.06l.06-.47h.09a1.1 1.1 0 0 0 .62-.18.61.61 0 0 0 .28-.56.66.66 0 0 0 -.2-.49.73.73 0 0 0 -.52-.2.76.76 0 0 0 -.53.2 1 1 0 0 0 -.27.6l-.54-.1a1.43 1.43 0 0 1 .45-.84 1.31 1.31 0 0 1 .87-.3 1.5 1.5 0 0 1 .67.15 1.19 1.19 0 0 1 .46.43 1 1 0 0 1 .16.56.93.93 0 0 1 -.15.52 1 1 0 0 1 -.45.37 1 1 0 0 1 .6.38 1.1 1.1 0 0 1 .22.71 1.28 1.28 0 0 1 -.42 1 1.47 1.47 0 0 1 -1.06.4 1.4 1.4 0 0 1 -1-.34 1.33 1.33 0 0 1 -.41-.87z" fill="#208ec5"/><path d="m74.33 331.62 1.7-2.3-1.5-2.1h.69l.8 1.13a6.38 6.38 0 0 1 .35.54 5.88 5.88 0 0 1 .35-.51l.88-1.16h.64l-1.55 2.07 1.67 2.33h-.72l-1.11-1.57c-.06-.09-.13-.19-.19-.3l-.21.33-1.13 1.54z" fill="#208ec5"/><path d="m242.6 76.7h-1.71v-.1h1.61v-27.8h-1.61v-.09h1.71z" fill="#00b2e1"/><path d="m346.45 97a3.87 3.87 0 0 1 .16-1.25 1.65 1.65 0 0 1 .48-.74 1.4 1.4 0 0 1 1.41-.11 1.17 1.17 0 0 1 .45.41 2.59 2.59 0 0 1 .27.65 5.18 5.18 0 0 1 -.06 2.29 1.59 1.59 0 0 1 -.48.74 1.34 1.34 0 0 1 -1.8-.2 2.89 2.89 0 0 1 -.43-1.79zm.55 0a2.75 2.75 0 0 0 .26 1.45.76.76 0 0 0 .62.35.75.75 0 0 0 .63-.36 4.27 4.27 0 0 0 0-2.88.75.75 0 0 0 -.63-.36.71.71 0 0 0 -.6.32 2.84 2.84 0 0 0 -.28 1.48z" fill="#208ec5"/><path d="m350.17 99.19v-.61h.62v.61z" fill="#208ec5"/><path d="m351.58 98 .54-.07a1.2 1.2 0 0 0 .31.66.76.76 0 0 0 .55.2.84.84 0 0 0 .64-.26.87.87 0 0 0 .26-.65.82.82 0 0 0 -.86-.86 1.54 1.54 0 0 0 -.38.06l.06-.47h.09a1.1 1.1 0 0 0 .62-.18.62.62 0 0 0 .28-.55.66.66 0 0 0 -.2-.49.69.69 0 0 0 -.52-.2.76.76 0 0 0 -.53.2 1 1 0 0 0 -.27.59l-.54-.09a1.43 1.43 0 0 1 .45-.85 1.37 1.37 0 0 1 .88-.29 1.49 1.49 0 0 1 .66.15 1.1 1.1 0 0 1 .46.42 1.07 1.07 0 0 1 .16.57 1 1 0 0 1 -.15.52 1 1 0 0 1 -.45.37 1 1 0 0 1 .6.37 1.11 1.11 0 0 1 .22.71 1.3 1.3 0 0 1 -.42 1 1.47 1.47 0 0 1 -1.06.4 1.4 1.4 0 0 1 -1-.34 1.33 1.33 0 0 1 -.4-.92z" fill="#208ec5"/><path d="m354.76 99.19 1.71-2.29-1.47-2.11h.69l.8 1.13c.16.24.28.42.35.54a5.82 5.82 0 0 1 .35-.5l.88-1.17h.64l-1.55 2.08 1.67 2.32h-.72l-1.11-1.57c-.06-.09-.13-.18-.19-.29l-.21.33-1.11 1.53z" fill="#208ec5"/><path d="m420.36 98 .54-.07a1.14 1.14 0 0 0 .32.66.76.76 0 0 0 .54.2.87.87 0 0 0 .65-.26.91.91 0 0 0 .26-.65.84.84 0 0 0 -.24-.62.86.86 0 0 0 -.62-.24 1.54 1.54 0 0 0 -.38.06l.06-.47h.09a1.15 1.15 0 0 0 .62-.18.61.61 0 0 0 .27-.55.63.63 0 0 0 -.2-.49.68.68 0 0 0 -.52-.2.73.73 0 0 0 -.52.2 1 1 0 0 0 -.23.61l-.54-.09a1.26 1.26 0 0 1 1.32-1.14 1.45 1.45 0 0 1 .66.15 1.13 1.13 0 0 1 .47.42 1.17 1.17 0 0 1 .16.57.89.89 0 0 1 -.16.52 1 1 0 0 1 -.45.37 1 1 0 0 1 .61.37 1.17 1.17 0 0 1 .21.71 1.3 1.3 0 0 1 -.42 1 1.46 1.46 0 0 1 -1.06.4 1.38 1.38 0 0 1 -1-.34 1.34 1.34 0 0 1 -.44-.94z" fill="#208ec5"/><path d="m424.08 99.19v-.61h.62v.61z" fill="#208ec5"/><path d="m425.48 98 .57-.05a1 1 0 0 0 .29.63.89.89 0 0 0 1.22-.09 1.12 1.12 0 0 0 .27-.78 1 1 0 0 0 -.26-.73.9.9 0 0 0 -.68-.27.91.91 0 0 0 -.47.12.9.9 0 0 0 -.33.31l-.51-.07.43-2.26h2.18v.52h-1.75l-.24 1.18a1.46 1.46 0 0 1 .83-.27 1.28 1.28 0 0 1 1 .4 1.35 1.35 0 0 1 .4 1 1.55 1.55 0 0 1 -.35 1 1.37 1.37 0 0 1 -1.15.54 1.39 1.39 0 0 1 -1-.34 1.34 1.34 0 0 1 -.45-.84z" fill="#208ec5"/><path d="m428.67 99.19 1.71-2.29-1.5-2.11h.69l.8 1.13c.16.24.28.42.35.54a5.82 5.82 0 0 1 .35-.5l.88-1.17h.64l-1.59 2.08 1.67 2.32h-.67l-1.11-1.57c-.06-.09-.13-.18-.19-.29l-.21.33-1.11 1.53z" fill="#208ec5"/><path d="m527.61 62.28a4 4 0 0 1 .16-1.26 1.52 1.52 0 0 1 .47-.73 1.24 1.24 0 0 1 .76-.29 1.35 1.35 0 0 1 .62.14 1.24 1.24 0 0 1 .44.41 2.22 2.22 0 0 1 .28.66 4.76 4.76 0 0 1 .09 1 4.31 4.31 0 0 1 -.15 1.25 1.56 1.56 0 0 1 -.48.73 1.19 1.19 0 0 1 -.8.26 1.22 1.22 0 0 1 -1-.45 2.93 2.93 0 0 1 -.39-1.72zm.55 0a2.86 2.86 0 0 0 .25 1.44.73.73 0 0 0 1.26 0 2.86 2.86 0 0 0 .25-1.44 2.81 2.81 0 0 0 -.25-1.44.76.76 0 0 0 -.64-.36.69.69 0 0 0 -.59.31 2.78 2.78 0 0 0 -.28 1.49z" fill="#208ec5"/><path d="m531.33 64.45v-.62h.61v.62z" fill="#208ec5"/><path d="m535.53 61.13h-.53a1 1 0 0 0 -.21-.46.68.68 0 0 0 -.54-.23.71.71 0 0 0 -.45.14 1.2 1.2 0 0 0 -.4.54 2.93 2.93 0 0 0 -.16 1 1.18 1.18 0 0 1 .48-.44 1.26 1.26 0 0 1 .59-.15 1.24 1.24 0 0 1 .92.4 1.45 1.45 0 0 1 .38 1 1.68 1.68 0 0 1 -.18.77 1.23 1.23 0 0 1 -.49.54 1.3 1.3 0 0 1 -.71.19 1.39 1.39 0 0 1 -1.1-.49 2.56 2.56 0 0 1 -.42-1.64 2.92 2.92 0 0 1 .47-1.86 1.36 1.36 0 0 1 1.11-.5 1.27 1.27 0 0 1 .85.29 1.23 1.23 0 0 1 .39.9zm-2.2 1.87a1.25 1.25 0 0 0 .12.54.83.83 0 0 0 .33.38.82.82 0 0 0 .44.14.74.74 0 0 0 .59-.28 1.23 1.23 0 0 0 0-1.47.84.84 0 0 0 -.62-.26.85.85 0 0 0 -.62.26 1 1 0 0 0 -.24.69z" fill="#208ec5"/><path d="m535.92 64.45 1.7-2.29-1.5-2.11h.69l.8 1.13a4.94 4.94 0 0 1 .36.54 4.59 4.59 0 0 1 .35-.5l.88-1.17h.63l-1.54 2.07 1.71 2.33h-.72l-1.1-1.57c-.07-.09-.13-.19-.2-.3a2.46 2.46 0 0 1 -.21.33l-1.1 1.54z" fill="#208ec5"/><path d="m284.64 65 1.67-2.37-1.54-2.19h1l.7 1.07c.13.2.24.37.32.51a6 6 0 0 1 .35-.5l.76-1.08h.92l-1.57 2.15 1.65 2.41h-.9l-1-1.41-.25-.38-1.17 1.79z" fill="#208ec5"/><path d="m13.31 83.87h-1.71v-42.98h1.71v.1h-1.62v42.78h1.62z" fill="#00b2e1"/><path d="m297.95 84.07h-1.71v-42.99h1.71v.1h-1.61v42.79h1.61z" fill="#00b2e1"/><path d="m511.26 89.12h-150.15v-1.71h.1v1.61h149.95v-1.61h.1z" fill="#00b2e1"/><path d="m79.19 89.12h-14.07v-1.71h.1v1.61h13.87v-1.61h.1z" fill="#00b2e1"/><path d="m229.24 89.12h-150.15v-1.71h.1v1.61h149.95v-1.61h.1z" fill="#00b2e1"/><path d="m522.58 76.84h-1.72v-.1h1.62v-27.86h-1.62v-.1h1.72z" fill="#00b2e1"/><path d="m492.27 202.71a3.88 3.88 0 0 1 .17-1.25 1.47 1.47 0 0 1 .47-.73 1.19 1.19 0 0 1 .8-.26 1.35 1.35 0 0 1 .62.14 1.08 1.08 0 0 1 .44.41 2 2 0 0 1 .27.66 4.05 4.05 0 0 1 .1 1 3.87 3.87 0 0 1 -.14 1.32 1.51 1.51 0 0 1 -.47.74 1.24 1.24 0 0 1 -.8.26 1.2 1.2 0 0 1 -1-.46 2.88 2.88 0 0 1 -.46-1.83zm.56 0a2.78 2.78 0 0 0 .25 1.45.75.75 0 0 0 .63.36.71.71 0 0 0 .62-.37 2.68 2.68 0 0 0 .26-1.44 2.73 2.73 0 0 0 -.26-1.44.73.73 0 0 0 -.63-.36.7.7 0 0 0 -.59.32 2.74 2.74 0 0 0 -.28 1.48z" fill="#208ec5"/><path d="m496 204.88v-.61h.61v.61z" fill="#208ec5"/><path d="m500.2 201.56h-.53a1 1 0 0 0 -.21-.46.73.73 0 0 0 -.54-.23.72.72 0 0 0 -.45.15 1.13 1.13 0 0 0 -.4.54 2.93 2.93 0 0 0 -.16 1 1.29 1.29 0 0 1 .48-.45 1.35 1.35 0 0 1 .61-.11 1.21 1.21 0 0 1 .92.4 1.44 1.44 0 0 1 .38 1 1.71 1.71 0 0 1 -.18.77 1.35 1.35 0 0 1 -.49.54 1.3 1.3 0 0 1 -.71.19 1.4 1.4 0 0 1 -1.1-.5 2.51 2.51 0 0 1 -.42-1.63 2.92 2.92 0 0 1 .47-1.86 1.35 1.35 0 0 1 1.1-.5 1.2 1.2 0 0 1 .85.29 1.17 1.17 0 0 1 .38.86zm-2.2 1.9a1.21 1.21 0 0 0 .12.53.79.79 0 0 0 .33.39.82.82 0 0 0 .44.14.77.77 0 0 0 .59-.28 1.23 1.23 0 0 0 0-1.47.84.84 0 0 0 -.62-.26.85.85 0 0 0 -.62.26 1 1 0 0 0 -.24.69z" fill="#208ec5"/><path d="m500.63 204.88 1.66-2.36-1.54-2.19h1l.69 1.07c.14.2.24.37.32.51.13-.19.24-.36.35-.5l.77-1.08h.92l-1.58 2.15 1.7 2.4h-.95l-.93-1.41-.25-.38-1.2 1.79z" fill="#208ec5"/><path d="m492.47 295a4.17 4.17 0 0 1 .16-1.25 1.59 1.59 0 0 1 .48-.74 1.24 1.24 0 0 1 .8-.26 1.26 1.26 0 0 1 .62.15 1.15 1.15 0 0 1 .44.41 2.16 2.16 0 0 1 .27.65 4.14 4.14 0 0 1 .1 1 3.91 3.91 0 0 1 -.16 1.25 1.55 1.55 0 0 1 -.47.74 1.24 1.24 0 0 1 -.8.26 1.21 1.21 0 0 1 -1-.46 2.9 2.9 0 0 1 -.44-1.75zm.56 0a2.76 2.76 0 0 0 .25 1.44.75.75 0 0 0 .63.36.74.74 0 0 0 .62-.36 4.12 4.12 0 0 0 0-2.88.75.75 0 0 0 -.63-.36.67.67 0 0 0 -.59.32 2.71 2.71 0 0 0 -.31 1.48z" fill="#208ec5"/><path d="m496.19 297.16v-.62h.62v.62z" fill="#208ec5"/><path d="m500.4 293.84h-.54a.9.9 0 0 0 -.2-.46.7.7 0 0 0 -.54-.23.77.77 0 0 0 -.45.14 1.34 1.34 0 0 0 -.41.54 3.23 3.23 0 0 0 -.15 1 1.26 1.26 0 0 1 .48-.44 1.29 1.29 0 0 1 1.51.25 1.45 1.45 0 0 1 .38 1 1.68 1.68 0 0 1 -.18.77 1.31 1.31 0 0 1 -.49.55 1.45 1.45 0 0 1 -1.81-.31 2.54 2.54 0 0 1 -.43-1.64 2.93 2.93 0 0 1 .47-1.85 1.37 1.37 0 0 1 1.11-.51 1.18 1.18 0 0 1 1.25 1.1zm-2.2 1.9a1.23 1.23 0 0 0 .11.53.87.87 0 0 0 .34.39.8.8 0 0 0 .44.13.74.74 0 0 0 .59-.28 1.09 1.09 0 0 0 .25-.75 1 1 0 0 0 -.25-.71.78.78 0 0 0 -.61-.27.83.83 0 0 0 -.62.27.93.93 0 0 0 -.25.69z" fill="#208ec5"/><path d="m500.83 297.16 1.66-2.37-1.49-2.18h1l.7 1.06.32.52c.13-.19.24-.36.35-.51l.76-1.07h.87l-1.58 2.14 1.7 2.41h-.95l-.94-1.41-.24-.39-1.2 1.8z" fill="#208ec5"/><path d="m63.74 54.51a21.5 21.5 0 0 1 -26.86 28.2 21.5 21.5 0 0 1 -3.37-39.24c6.66-3.87 16.64-3.24 22.73 1.43a21.91 21.91 0 0 1 7.5 9.61z" fill="#00a19b"/><path d="m43.08 51.17c.73-.21 1.66-.78 2.39-.21.51.79 1.92 1 1.53 2.14a15.35 15.35 0 0 0 2.47 2.68c.22 0 .3-.09.39-.22l-.26-.13c.3-.27 1 .17 1.49-.09a1.17 1.17 0 0 1 .94.39 6.33 6.33 0 0 0 .56 1.14l.17-.08a7.94 7.94 0 0 0 .55 1.09c1.53.53 2.26 2.41 3.62 3.2a21 21 0 0 0 5.37 3c-.08.26.21.26.34.35a1.25 1.25 0 0 0 -.85-.18c.26.4.9.22 1 .66h-.68c0 .13.17.13.26.18-.34-.13-.69.13-.9-.31a28.59 28.59 0 0 1 -3.92-1.94c1 1 2.34 1.33 3.45 2 .38.22.94.35 1.15.74-.13 0-.34 0-.38.22l-.3-.17c-.09 0 0 .13 0 .17l.21.18a17 17 0 0 1 -4.39-2.3c-.64-.44-1.28-.79-1.92-1.27-.08 0-.21 0-.25.09.72.57 1.49.92 2.21 1.44a11.92 11.92 0 0 1 -4-2.93c-.47-.49-1.15-1.49-2-1.32-.3.18-.77.13-1.11.31-.25 0-.47-.31-.72-.09-.22.48-.9.09-1 .61-.42.18-1.19.05-1.32.58v.21c-.86.4-2 .27-2.6 1.1-.17.18-.51 0-.68.18a.14.14 0 0 0 -.13-.18c-.22-.09-.34.13-.51.18-.13-.22.17-.27.12-.4-.38-.17-.55.35-.85.53 0-.35.43-.4.56-.7-.22-.13-.39.08-.56.13.09 0 .26-.35 0-.35.22-.35.68-.22.81-.62h-.34c.34-.26.72-.57 1-.83-.12 0-.38-.35-.59 0 0-.05.08-.09 0-.14s-.38.14-.6.14c0 0 0-.14-.08-.18h-.03c.13-.09.3-.31.47-.44l-.09-.08a19.34 19.34 0 0 1 1.92-1.15l.13-.14a.43.43 0 0 0 -.68 0c.55 0 0-.65.59-.74a1.77 1.77 0 0 1 .85-1c-.55-.53-.76-1.5-1.4-1.8 0-.39-.43 0-.47-.39-.77-.05-1.66.35-2.17-.36a3.25 3.25 0 0 0 -1.28 0 4.38 4.38 0 0 0 -.68 1.09 4.24 4.24 0 0 0 -.77 1.1 3.35 3.35 0 0 1 -1.53 1.4v-.08c-.47.65-1.5.39-2.09 1.09v-.17a.35.35 0 0 0 -.43.26v.09c-.3-.09-.51.26-.64.44-.73.78-1.92.78-2.68 1.44-.09 0 0 0 0 0-1.41.31-2.09 1.4-3 2.45a6.4 6.4 0 0 1 -1 1.06c.08.35-.43.48-.6.65.17-.3.55-.57.6-.92-.35.18-.43.57-.81.75-.22-.18.21-.31.08-.48l-.51.39.47-.66c-.26 0-.51.49-.81.53-.09.13-.21.13-.38.13a9.21 9.21 0 0 0 .72-.71c-.3-.17-.64.22-.85.18s0-.26-.26-.18c.22-.17.43-.3.51-.56-.17 0-.38.08-.55.17 0-.22.47-.35.34-.7-.55-.09-.47.48-.94.61.47-.65 1.15-1.05 1.62-1.75a11.87 11.87 0 0 1 3.11-2.28c.9-.53 2.09-.79 2.73-1.67a7.45 7.45 0 0 0 .68-1c.13 0 .17-.09.21-.17a3.89 3.89 0 0 1 2.09-.66c.34-.35 1-.13 1.24-.62.89-1.09 1.23-2.45 2-3.54.26-.36.55-.93 1.07-1.06a20.5 20.5 0 0 1 3.57.48z" fill="#fff"/><path d="m43.74 58.85c-.22.17-.65.31-.69.58-.39 0-.65.36-.95.36 0-.36.56-.14.6-.5l.35-.27v.14c.13-.14.56 0 .43-.4z" fill="#fff"/><path d="m42.36 59.11a.67.67 0 0 1 -.47.36c.11-.22.25-.22.47-.36z" fill="#fff"/><path d="m43 60.19c0 .09-.09.09-.13.18h-.13c0-.14.08-.18.17-.23s.09.05.09.05z" fill="#fff"/><path d="m63.42 194.39a20.94 20.94 0 0 1 -26.16 27.46 20.94 20.94 0 0 1 -3.26-38.22c6.49-3.76 16.22-3.15 22.14 1.4a21.26 21.26 0 0 1 7.28 9.36z" fill="#00a19b"/><path d="m43.3 191.14c.7-.22 1.62-.77 2.32-.22.5.77 1.87 1 1.5 2.1a14.12 14.12 0 0 0 2.4 2.6c.21 0 .29-.08.38-.21l-.25-.13c.29-.26 1 .17 1.45-.09a1.14 1.14 0 0 1 .92.39 6.22 6.22 0 0 0 .53 1.11l.17-.09a8.23 8.23 0 0 0 .54 1.07c1.49.51 2.2 2.35 3.53 3.12a20.33 20.33 0 0 0 5.21 2.87c-.09.26.2.26.33.35a1.15 1.15 0 0 0 -.83-.17c.25.38.87.21 1 .64h-.67c0 .13.17.13.25.17-.33-.13-.67.13-.87-.3a26.66 26.66 0 0 1 -3.82-1.9c1 .94 2.28 1.29 3.36 1.93.37.22.91.35 1.12.73-.12 0-.33 0-.37.21l-.29-.17c-.09 0 0 .13 0 .17l.21.18a16.65 16.65 0 0 1 -4.27-2.24c-.63-.43-1.25-.77-1.87-1.24-.08 0-.21 0-.25.08.71.56 1.45.9 2.16 1.41a11.72 11.72 0 0 1 -3.86-2.86c-.46-.47-1.12-1.45-1.91-1.28-.29.17-.75.13-1.08.3-.25 0-.46-.3-.7-.08-.21.47-.88.08-1 .59-.41.17-1.16 0-1.29.56v.21c-.84.39-2 .26-2.54 1.07-.16.17-.49 0-.66.17a.13.13 0 0 0 -.13-.17c-.2-.09-.33.13-.49.17-.13-.21.16-.26.12-.38-.37-.17-.54.34-.83.51 0-.34.42-.39.54-.68-.21-.13-.37.08-.54.12.08 0 .25-.34 0-.34.21-.34.66-.21.79-.6h-.33c.33-.25.7-.55 1-.81-.12 0-.37-.34-.58 0 0 0 .09-.09 0-.13s-.37.13-.58.13c0 0 0-.13-.08-.17h-.12c.12-.09.29-.3.45-.43l-.08-.08a19.12 19.12 0 0 1 1.87-1.11l.12-.13a.42.42 0 0 0 -.66 0c.54 0 0-.64.58-.73a1.68 1.68 0 0 1 .83-1c-.54-.51-.75-1.45-1.37-1.75 0-.39-.42 0-.46-.39-.75 0-1.62.35-2.12-.34a3 3 0 0 0 -1.24 0 4 4 0 0 0 -.66 1.07 3.81 3.81 0 0 0 -.75 1.06 3.3 3.3 0 0 1 -1.43 1.36v-.08c-.46.64-1.46.38-2 1.06v-.17a.34.34 0 0 0 -.41.26v.08c-.3-.08-.5.26-.63.43-.7.77-1.87.77-2.61 1.41-.09 0 0 0 0 0-1.37.3-2 1.36-2.95 2.39a6 6 0 0 1 -1 1c.08.34-.42.47-.59.64.17-.3.54-.55.59-.89-.34.17-.42.55-.79.72-.21-.17.2-.3.08-.47l-.5.39.46-.64c-.25 0-.5.46-.79.51-.08.13-.21.13-.37.13v-.05c.16-.13.45-.42.7-.68-.29-.17-.62.21-.83.17s0-.26-.25-.17c.21-.17.42-.3.5-.55-.17-.05-.37.08-.54.17 0-.22.46-.35.33-.69-.54-.08-.45.47-.91.6.46-.64 1.12-1 1.58-1.71h-.05a12.24 12.24 0 0 1 3-2.22c.88-.51 2-.77 2.66-1.62a6.24 6.24 0 0 0 .66-1c.13 0 .17-.09.21-.17a3.81 3.81 0 0 1 2-.64c.33-.35 1-.13 1.2-.6.87-1.07 1.2-2.39 1.95-3.46.25-.34.54-.9 1-1a19.53 19.53 0 0 1 3.6.62z" fill="#fff"/><path d="m43.94 198.61c-.21.17-.63.3-.67.56-.38 0-.63.35-.93.35 0-.35.55-.13.59-.48l.34-.26v.13c.13-.13.54 0 .42-.39z" fill="#fff"/><path d="m42.6 198.87a.71.71 0 0 1 -.47.35c.09-.22.26-.22.47-.35z" fill="#fff"/><path d="m43.22 199.92c0 .08-.08.08-.12.17h-.1c0-.13.09-.17.17-.22s.01.05.05.05z" fill="#fff"/><path d="m63.42 287.66a20.94 20.94 0 0 1 -26.16 27.47 20.94 20.94 0 0 1 -3.26-38.22c6.49-3.77 16.22-3.15 22.14 1.4a21.28 21.28 0 0 1 7.28 9.35z" fill="#00a19b"/><path d="m43.3 284.41c.7-.21 1.62-.76 2.32-.21.5.77 1.87 1 1.5 2.09a14.18 14.18 0 0 0 2.4 2.61c.21 0 .29-.09.38-.22l-.25-.12c.29-.26 1 .17 1.45-.09a1.16 1.16 0 0 1 .92.38 5.91 5.91 0 0 0 .53 1.11l.17-.08a9.74 9.74 0 0 0 .54 1.07c1.49.51 2.2 2.34 3.53 3.11a20.37 20.37 0 0 0 5.21 2.88c-.09.26.2.26.33.34a1.26 1.26 0 0 0 -.83-.17c.25.39.87.22 1 .64h-.67c0 .13.17.13.25.17-.33-.12-.67.13-.87-.29a26.66 26.66 0 0 1 -3.82-1.9c1 .94 2.28 1.3 3.36 1.94.37.21.91.34 1.12.73-.12 0-.33 0-.37.21l-.29-.17c-.09 0 0 .13 0 .17l.21.17a16.35 16.35 0 0 1 -4.27-2.24c-.63-.42-1.25-.76-1.87-1.23-.08 0-.21-.05-.25.08.71.56 1.45.9 2.16 1.41a11.72 11.72 0 0 1 -3.93-2.8c-.46-.47-1.12-1.45-1.91-1.28-.29.17-.75.13-1.08.3-.25 0-.46-.3-.7-.09-.21.47-.88.09-1 .6-.41.17-1.16 0-1.29.56v.21c-.84.38-2 .25-2.54 1.07-.16.17-.49-.05-.66.17a.13.13 0 0 0 -.13-.17c-.2-.09-.33.12-.49.17-.13-.22.16-.26.12-.39-.37-.17-.54.34-.83.51 0-.34.42-.38.54-.68-.21-.12-.37.09-.54.13.08 0 .25-.34 0-.34.21-.34.66-.22.79-.6h-.33c.33-.26.7-.55 1-.81-.12 0-.37-.34-.58 0 0 0 .09-.09 0-.13s-.37.13-.58.13c0 0 0-.13-.08-.17h-.12c.12-.09.29-.3.45-.43l-.08-.09a21.34 21.34 0 0 1 1.87-1.11l.12-.13a.42.42 0 0 0 -.66 0c.54 0 0-.64.58-.72a1.68 1.68 0 0 1 .83-1c-.54-.52-.75-1.46-1.37-1.75 0-.39-.42 0-.46-.39-.75 0-1.62.34-2.12-.34a2.88 2.88 0 0 0 -1.24 0 3.82 3.82 0 0 0 -.66 1.06 4 4 0 0 0 -.75 1.07 3.41 3.41 0 0 1 -1.36 1.29v-.09c-.46.64-1.46.39-2 1.07v-.17a.33.33 0 0 0 -.41.25v.09c-.3-.09-.5.25-.63.43-.7.76-1.87.76-2.61 1.41-.09 0 0 0 0-.05-1.37.3-2 1.37-2.95 2.39a5.69 5.69 0 0 1 -1 1c.08.34-.42.47-.59.64.17-.3.54-.56.59-.9-.34.17-.42.56-.79.73-.21-.17.2-.3.08-.47l-.5.38.46-.64c-.25 0-.5.47-.79.51-.08.13-.21.13-.37.13.16-.13.45-.43.7-.68-.29-.17-.62.21-.83.17s0-.26-.25-.17c.21-.17.42-.3.5-.56-.17 0-.37.09-.54.17 0-.21.46-.34.33-.68-.54-.09-.45.47-.91.6.46-.64 1.12-1 1.58-1.71h-.05a12 12 0 0 1 3-2.22c.88-.52 2-.77 2.66-1.63a6.24 6.24 0 0 0 .66-1c.13.05.17-.08.21-.17a3.9 3.9 0 0 1 2-.64c.33-.34 1-.13 1.2-.6.87-1.06 1.2-2.39 1.95-3.45.25-.35.54-.9 1-1a20.38 20.38 0 0 1 3.6.62z" fill="#fff"/><path d="m43.94 291.88c-.21.18-.63.31-.67.57-.38 0-.63.35-.93.35 0-.35.55-.13.59-.48l.34-.26v.13c.13-.13.54 0 .42-.39z" fill="#fff"/><path d="m42.6 292.15a.67.67 0 0 1 -.47.34c.09-.21.26-.21.47-.34z" fill="#fff"/><path d="m43.22 293.19c0 .09-.08.09-.12.18h-.1c0-.13.09-.18.17-.22s.01.04.05.04z" fill="#fff"/><g fill="#00a19b"><path d="m137.23 70.73h6.15v-17.88h4.4v24.19h-4.4v-1.99l-16.91-.04-.01 2.03h-4.57v-24.4h4.53v18.09l6.23-.05v-21.94h4.58z"/><path d="m96.16 72.16v-7.88h9.4v-4.31l-9.4-.05v-6.22h10.07l.01-4.46h-24.7v4.46h9.96v6.22h-9.33v4.36h9.33v7.88h-11.36v4.38h27.32v-4.38z"/><path d="m100.35 65.64a2.68 2.68 0 0 0 -1.27 4.27 2.71 2.71 0 0 0 4.7-1 2.85 2.85 0 0 0 -.33-2.16 2.72 2.72 0 0 0 -3.1-1.11z"/><path d="m184.1 67.76-3.31-1.2h4.21v-3.68h-8.22v-1.78h4v-2.31a31.2 31.2 0 0 0 6.47 3.93l2.75-4.23a22 22 0 0 1 -12.51-9.37c.12-.24.18-.38.18-.38l-5.38-.52a20.62 20.62 0 0 1 -11.49 11.14l1.95 4.33a45.71 45.71 0 0 0 5.8-4.08v1.49h4v1.78h-8.22v3.68h4.67l-3.33 1.25 1.56 5h-5.13v3.77h25.22v-3.8h-5.53c.26-.67 2.21-4.78 2.31-5.02zm-13.1-10.33a39.28 39.28 0 0 0 4-4.43 29.88 29.88 0 0 0 4.16 4.43zm-3.27 15.35 3.79-1.43-2.27-4.79h3.28v6.22zm9-6.22h3.27l-2.23 4.76 3.66 1.46h-4.67z"/><path d="m215.55 55.98h9.54v2.66h3.66v-2.66-.89-2.44h-6.61v-3.83h-3.64v3.83h-6.61v2.44.89 2.66h3.66z"/><path d="m222.14 68.36h4.41v-2.61c.28.23.58.45.88.67l2.73-2.42a14.75 14.75 0 0 1 -5.95-6.57l-3.21 1.41a23.6 23.6 0 0 0 4.52 6h-10.41a23.6 23.6 0 0 0 4.52-6l-3.2-1.42a14.82 14.82 0 0 1 -5 6v-2.72l-2.59.57v-2.93h2.42v-3.73h-2.42v-5.79h-3.74v5.79h-3.59v3.73h3.59v3.76l-4.1.9.7 4.08 3.4-.94v6.24a.73.73 0 0 1 -.73.73h-1.92l1.55 3.89h1.15a3.69 3.69 0 0 0 3.69-3.69v-8.19l2.21-.6 2.14 1.9c.3-.22.6-.44.88-.67v2.61h4.41v4.74h-7.08v3.5h17.8v-3.5h-7.08z"/><path d="m418.1 70.62h6.14v-17.86h4.4v23.79h-4.4v-1.61l-16.89-.05-.04 1.53h-4.53v-23.87h4.53v18.07l6.22-.04v-21.93h4.57z"/><path d="m377.16 71.86v-7.88h9.4v-4.3l-9.4-.05v-6.21h10.07l.01-4.45h-24.68v4.45h9.95v6.21h-9.32v4.35h9.32v7.88h-11.35v4.38h27.3v-4.38z"/><path d="m381.36 65.35a2.68 2.68 0 0 0 -1.27 4.27 2.79 2.79 0 0 0 2.92.84 2.75 2.75 0 0 0 1.77-1.85 2.89 2.89 0 0 0 -.33-2.17 2.72 2.72 0 0 0 -3.09-1.09z"/><path d="m451.33 66.55h4.45v2.84h-4.45z" transform="matrix(.21303039 -.97704557 .97704557 .21303039 290.55 496.64)"/><path d="m467.28 69.8 3.89-2.8s-2.55-2.6-2.63-2.63-2.23 1.45-3.12 2.06a13.22 13.22 0 0 1 -.53-2.94h4.72v-14.22h-13.42v22.83l-1.29.24-.08-1.8-3.66.64v-6.57h4v-3.61h-4v-1.34h2.92v-1.75l.26.2 1.85-4.18a10 10 0 0 1 -4.73-5.07h-3.78a11.65 11.65 0 0 1 -5 5.88l1.85 4.18s.31-.27.78-.71v1.45h2.36v1.34h-4.36v3.57h4.36v7.23l-4.46.78.1 3.94 11.24-2.15v2.09l9-1.58-.19-3.59a13.63 13.63 0 0 0 5.73 5.26l1.91-3.76a18.42 18.42 0 0 1 -3.72-2.99zm-19.88-13.71a17 17 0 0 0 2.17-2.75 13.1 13.1 0 0 0 2.34 2.75zm12.73-2.92h5.55v1.88h-5.55zm0 18.24v-7.94h1.15a15.11 15.11 0 0 0 1.83 7.43zm0-11.21v-1.88h5.55v1.88z"/><path d="m446.74 70.56-.66-4.75-2.95.53.67 4.79z"/><path d="m494.46 48.75h15.73v4.21h-15.73z"/><path d="m493.06 57.82-3.06-2.19s-3.36 5.62-6.8 8l1.93 4.62s.89-.77 2.12-2v10h4.29v-15a24.15 24.15 0 0 0 1.46-2.36v3.11h9.78v9.46a.6.6 0 0 1 -.61.6h-5l1.67 4.2h5.16a3.16 3.16 0 0 0 3.15-3.16v-11.1h4.19v-4.18z"/><path d="m493.06 50.84c-1.24-.81-2.44-1.7-3.64-2.51a26.48 26.48 0 0 1 -6 5.72l2 4.14a33 33 0 0 0 7.64-7.35z"/><path d="m153.96 281.34h15.31v2.87h-15.31z"/><path d="m175.17 288.33v-2.94l-26.69.05v2.93l6.28.09.63 2.09h-5.6v18.83h3.75v-12.47l1.4 2.62h.57l.48-.31v8.07h3.67v-.78h4.23v.78h3.4l.24-.78 1.36 2.87c5.12 0 5-3.61 5-3.61v-15.26h-6.17l1-2.18zm-10 5.15h2s.14.08.11.18-.36 1.28-.83 1.28h-.87a.61.61 0 0 1 -.41-.54zm-.27-5-.72 2.09h-4.95l-.75-2.09zm-11.37 7.64v-2.62h3.13c-1.21 3.09-3.12 2.6-3.12 2.6zm10.26 7.46h-4.2v-1.4h4.2zm6.33-10.08v1.22l-2-1.22zm0 3.31v6.77c0 2.41-2.72 1.4-2.72 1.4v-6h-10.8a8.08 8.08 0 0 0 4.21-5.46h.81v2.62c0 2.62 2 2.33 2 2.33h3.94a2.72 2.72 0 0 0 2.57-1.68z"/><path d="m211 305.85c-6.53-.62-8.36-2.86-8.36-2.86h7.51v-3.13h-11.47v-.86h8.32v-3.31h-8.28v-.83h9.66v-3.1h-5.7l.55-1.66 7.29.06v-3.43h-5l2.22-3.87-4.12-1.4-2.06 4.23 2.56.86v.18h-2.89v-5.48h-3.74v5.48h-2v-5.48h-3.7l-.08 5.48h-2.76v-.18l2.45-1.33-2.44-3.87-3.72 1.47h-.09l2.11 3.59v.2h-4.66v3.45h7.47l.5 1.66-5.89-.07v3.19h9.9v.83l-8.28-.05v3.38h8.27v.83l-11.43-.05v3.26h7.23a21.85 21.85 0 0 1 -8 3.29l2.38 3.1a34.8 34.8 0 0 0 9.84-4.52v4.5h4.18l-.07-4.44a23.5 23.5 0 0 0 10.49 4.46zm-12.77-14.15h-3.37l-.59-1.59h4.48z"/><path d="m274.81 209a49.17 49.17 0 0 0 4.27-7.12v-.09l-1.5-1.66h-11.07a7.55 7.55 0 0 0 1.89-2.49 8.45 8.45 0 0 0 1.27-5.34v-.12h1.82v4.7c0 .78.91 2.15 1.56 2.15h4.61c.44 0 1.1-.31 1.77-1.82.65-1.73 1-2.9 1-2.9l-3.75-1.69v.23s0 .43 0 1v.15c0 .73-.09 1.44-.65 1.44s-.81-.89-.81-1.52v-5.22h-9.32v3.66a8.18 8.18 0 0 1 -2.42 5.39v-9.05h-9.65v11.08c0 4.14-.32 10.87-1.86 14l-.07.14 4.08 1.89.05-.17a43.91 43.91 0 0 0 1.53-10.2h2.22v5.44c0 .28-.16.43-.31.43h-2.47l1.62 4.94h.17c1.2 0 4.41-2 4.65-3.3v-.41a24.78 24.78 0 0 1 2.09 3.56l.07.15.14-.08c.21-.11 5.12-3.41 6.31-4.42.62.4 4 3.69 5.58 4.45h.11l2.55-4.75h-.24a25.4 25.4 0 0 1 -5.24-2.45zm-15.12-7h-2.21v-3.2h2.21zm0-6.79h-2.22v-3h2.22zm3.68 16.71v-13.56a10.21 10.21 0 0 1 2.23 1.77h-1.38v3.4h1.44l.12.21a48 48 0 0 0 3.53 5.49 31.88 31.88 0 0 1 -5.92 2.71zm8.63-5.42-2-3h3.78a25.71 25.71 0 0 1 -1.78 3z"/><path d="m309.59 209.06a50.16 50.16 0 0 0 4.33-7.18v-.09l-1.5-1.66h-11.07a7.53 7.53 0 0 0 1.9-2.49 8.5 8.5 0 0 0 1.26-5.34v-.12h1.82v4.7c0 .78.91 2.15 1.56 2.15h4.61c.44 0 1.1-.31 1.78-1.82.64-1.73 1-2.9 1-2.9l-3.74-1.69v.23s0 .43 0 1v.15c0 .73-.09 1.44-.65 1.44s-.81-.89-.81-1.52v-5.22h-9.32v3.66a8.18 8.18 0 0 1 -2.42 5.39v-9.05h-9.65v11.08c0 4.14-.32 10.87-1.86 14l-.07.14 4.08 1.89v-.17a43.91 43.91 0 0 0 1.53-10.2h2.22v5.44c0 .28-.16.43-.31.43h-2.43l1.62 4.94h.17c1.2 0 4.41-2 4.65-3.3v-.41a23.88 23.88 0 0 1 2.09 3.56l.07.15.14-.08c.21-.11 5.12-3.41 6.31-4.42.62.4 4 3.69 5.58 4.45h.11l2.49-4.69-.24-.06a25.44 25.44 0 0 1 -5.25-2.39zm-15.06-7h-2.21v-3.26h2.21zm0-6.79h-2.22v-3h2.22zm3.68 16.71v-13.62a10.21 10.21 0 0 1 2.23 1.77h-1.38v3.4h1.44l.12.21a48 48 0 0 0 3.53 5.49 31.88 31.88 0 0 1 -5.92 2.71zm8.61-5.44-2-3h3.78a23.13 23.13 0 0 1 -1.76 2.96z"/><path d="m346.66 194.55a19.92 19.92 0 0 1 -3.37-6l-.05-.14-3.24 1.3h-.14v.14c0 .06 1.85 5.8 5.79 9.44h-13l.17-.17c2.8-2.85 5.75-9.27 5.78-9.33l.08-.17h-.19c-1.28-.28-3.33-.87-3.36-.88h-.11l-.06.11s-3 6.06-5.61 8.11v-1.36l2.12-6.2.05-.16-4.52-.86v.14s-1 3.7-1.32 4.46a26.61 26.61 0 0 1 -4.14 7.56l-.06.08 2.36 4 .13-.22c.28-.48 1-1.65 1.43-2.23v14.12h4v-18.58l1.89 2.7.9-.64v3.32h3v.43a11.85 11.85 0 0 1 -4.94 8.53l-.14.11 3.36 3.13.1-.11a19 19 0 0 0 3.63-4.79 21.91 21.91 0 0 0 2.1-7.3h2.8v5.34c0 1.93-.3 3.09-.78 3.53a.42.42 0 0 1 -.32.12h-2.86l1.54 4.18h.73a10.57 10.57 0 0 0 2-.12 4.45 4.45 0 0 0 3.16-3.13 20.93 20.93 0 0 0 .43-4.61v-8.79l1.48 1.41.08-.21a19.79 19.79 0 0 1 2-3.62l.09-.12-.12-.09a27.28 27.28 0 0 1 -2.87-2.43z"/><path d="m368.49 189 .05-.18-4.32-.42v.15a17.23 17.23 0 0 1 -.49 2.77h-9.31v3.68h8.08a20.5 20.5 0 0 1 -8 8.94l-.16.08.11.14c.09.11 2.12 2.63 2.4 2.89l.08.08.1-.06a47.49 47.49 0 0 0 4.17-3.18v11.64h3.88v-5.94h8.75v2.29c-.12.21-.24.31-.36.31h-3.31l1.54 4v.1h1c2.92-.19 4.87-.69 4.87-2.49v-17.67h-11.34l.57-1.14h14.2v-3.68h-13.08c.28-1.31.56-2.31.57-2.31zm-3.42 12.74v-2.09h8.75v2.09zm0 5v-2.09h8.75v2.09z"/><path d="m415 211.61a15.23 15.23 0 0 1 -5.36-3.28 44.44 44.44 0 0 1 5.21-3.84l.26-.12-.25-.15a39.09 39.09 0 0 0 -3.59-2h-.09l-3 2.9a4.74 4.74 0 0 1 -.54-1.94v-1.51h5.24v-13.29h-13.6v1.62h-.1s-2.24-.9-2.84-1.21h-8.09v27.57h3.75v-8.95l1.51 3.63h.13c3-.77 4.76-2.32 5.12-4.6a8.49 8.49 0 0 0 0-3 11.82 11.82 0 0 0 -2.48-4.79c.26-.73 2.11-6 2.9-8.4v20.77l-3.19.53.86 4.85 9.6-2.79h.12v-2.61l.93 1.05c2.08 2.12 3.24 3.39 5.07 4.18l.12.06 2.41-4.59zm-20.67-6.11a3.66 3.66 0 0 1 -2.28.87v-13.74h.27 2a34.67 34.67 0 0 1 -1.66 5.79v.07l.05.07c.72 1.12 2.59 4.23 2.59 5.14a2.32 2.32 0 0 1 -.98 1.8zm8.7-13.58h5.78v1.5h-5.81zm2.87 17.85-2.87.49v-8.6h.18v-.11h.95a16.06 16.06 0 0 0 .53 3.91 37 37 0 0 0 1.35 4.08h-.21zm-2.9-11.68v-1.4h.18 5.7v1.31h-.1v.05z"/><path d="m440.78 204.74-.07-.09-3.71 1.35 1.52 2.83-6.35 1.36 4.77-10.62-4.8-1.4-4.66 12.57-4.08.55 1.33 4.48 15.49-3.25 1.74 3.72 4.95-1.86v-.13c-1.5-4.14-6.1-9.46-6.13-9.51z"/><path d="m445.21 197.19a13 13 0 0 1 -5.53-8.62v-.17l-4.27 1.45-.15.05v.13s1 3 1.42 4c1.77 4.3 8.6 8.63 8.89 8.81l.12.07 3.36-3.83-.2-.08a13.9 13.9 0 0 1 -3.64-1.81z"/><path d="m424.5 202.85.1-.06c3.78-2.54 8.14-12 8.32-12.39l.07-.15-4.84-1.53v.13a30 30 0 0 1 -2.63 5.23 18.77 18.77 0 0 1 -4.74 5l-.18.1 3.86 3.56z"/><path d="m454.16 199.8v11.36h4.17v-.91h7v.91h4.21v-11.36zm11.22 6.49h-7.05v-2.56h7.05z"/><path d="m451.5 188.65v3.93h21.35v17.49c0 .77-.1 2.11-.75 2.11a25.94 25.94 0 0 1 -5.25-.43l.95 4.11h.22a33.82 33.82 0 0 0 4.65.37c2.85 0 4.35-1.63 4.35-4.72v-22.86z"/><path d="m453.92 194.33h16.09v3.96h-16.09z"/><path d="m310 301.72a44 44 0 0 0 4.12-7v-.09l-1.5-1.65h-11.01a7.69 7.69 0 0 0 1.89-2.49 8.35 8.35 0 0 0 1.25-5.31v-.12h1.82v4.68c0 .77.91 2.13 1.55 2.14h4.6c.44 0 1.1-.31 1.77-1.82.65-1.72.95-2.88.95-2.88l-3.73-1.69v.22s0 .43 0 1v.17c0 .72-.09 1.43-.66 1.43s-.8-.89-.8-1.51v-5.23h-9.29v3.65a8.14 8.14 0 0 1 -2.41 5.37v-9h-9.62v11.05c0 4.13-.32 10.83-1.86 14l-.06.14 4.06 1.88.05-.17a44.14 44.14 0 0 0 1.53-10.16h2.21v5.42c0 .28-.16.43-.31.43h-2.42l1.61 4.92h.17c1.2 0 4.39-2 4.64-3.3v-.41a24.72 24.72 0 0 1 2.08 3.56l.07.14.14-.07c.21-.11 5.11-3.4 6.28-4.42.63.41 4 3.69 5.58 4.44h.1l2.69-4.88h-.24a25.37 25.37 0 0 1 -5.25-2.44zm-15.21-6.82h-2.19v-3.21h2.21zm0-6.77h-2.2v-3h2.2zm3.68 16.66v-13.54a10 10 0 0 1 2.21 1.77h-1.37v3.39h1.44l.12.2a46.52 46.52 0 0 0 3.52 5.48 32 32 0 0 1 -5.89 2.7zm8.57-5.42-2-3h3.76a23.75 23.75 0 0 1 -1.73 3z"/><path d="m346.38 287.61a20 20 0 0 1 -3.36-6v-.13l-3.24 1.32h-.14v.14c0 .06 1.84 5.79 5.77 9.41h-13l.17-.17c2.79-2.84 5.73-9.23 5.76-9.29l.08-.17h-.18c-1.28-.28-3.33-.87-3.35-.88h-.12l-.05.11s-3 6-5.59 8.08v-1.33l2.1-6.18.06-.16-4.51-.85v.13s-1 3.69-1.33 4.45a26.34 26.34 0 0 1 -4.12 7.54l-.06.08 2.35 3.95.13-.22c.28-.48 1-1.64 1.43-2.22v14.07h4v-18.53l1.88 2.69.89-.63v3.3h3v.44a11.88 11.88 0 0 1 -4.93 8.5l-.13.11 3.34 3.12.1-.11a19.34 19.34 0 0 0 3.62-4.77 22 22 0 0 0 2.09-7.29h2.79v5.33c0 1.93-.29 3.08-.77 3.51a.43.43 0 0 1 -.32.13h-2.85l1.53 4.17h.73a9.33 9.33 0 0 0 2-.12 4.46 4.46 0 0 0 3.16-3.12 20.52 20.52 0 0 0 .42-4.59v-8.77l1.47 1.41.09-.21a20.22 20.22 0 0 1 2-3.61l.09-.11-.12-.09a25.91 25.91 0 0 1 -2.88-2.44z"/><path d="m368.51 282.1.05-.17-4.3-.42v.15a17.69 17.69 0 0 1 -.48 2.76h-9.28v3.66h8a20.52 20.52 0 0 1 -8 8.92l-.15.08.11.14c.08.11 2.11 2.62 2.38 2.88l.09.08.1-.06a47.4 47.4 0 0 0 4.15-3.17v12.26h3.87v-6.58h8.72v2.28c-.12.21-.24.32-.36.32h-3.3l1.54 3.88v.1h1c2.91-.19 4.85-.61 4.85-2.4v-17.58h-11.24l.56-1.15h14.18v-3.66h-13c.22-1.32.5-2.31.51-2.32zm-3.41 12.71v-2.09h8.72v2.09zm0 4.95v-2.08h8.72v2.08z"/><path d="m415.59 304.62a15.13 15.13 0 0 1 -5.33-3.27 43.91 43.91 0 0 1 5.18-3.83l.26-.12-.24-.15a36.74 36.74 0 0 0 -3.58-2h-.09l-3 2.89a4.62 4.62 0 0 1 -.54-1.93v-1.5h5.23v-13.24h-13.59v1.53h-.1s-2.23-.9-2.82-1.21h-8.07v27.48h3.81v-8.92l1.52 3.62h.13c3-.77 4.74-2.31 5.1-4.59a8.31 8.31 0 0 0 0-3 11.76 11.76 0 0 0 -2.47-4.78c.26-.73 2.11-6 2.89-8.38v20.71l-3.18.53.86 4.83 9.57-2.78h.12v-2.51l.92 1c2.08 2.12 3.24 3.39 5.06 4.18l.12.05 2.4-4.57zm-20.6-6.1a3.64 3.64 0 0 1 -2.28.87v-13.69h.29v-.05h2a34.68 34.68 0 0 1 -1.66 5.77v.07.07c.72 1.12 2.59 4.22 2.59 5.12a2.29 2.29 0 0 1 -.93 1.84zm8.67-13.52h5.76v1.49h-5.76zm2.86 17.8-2.86.48v-8.58h.18v-.11h1a16.6 16.6 0 0 0 .52 3.9 42.42 42.42 0 0 0 1.35 4.07h-.21c-.03.1 0 .17.02.23zm-2.86-11.65v-1.39h.18 5.68v1.38h-.1v.05z"/><path d="m440.72 297.76-.06-.08-3.73 1.32 1.52 2.82-6.33 1.36 4.75-10.59-4.79-1.39-4.64 12.53-3.81.54 1.33 4.43 15.18-3.2 1.73 3.7 4.94-1.85v-.13c-1.47-4.1-6.05-9.41-6.09-9.46z"/><path d="m445.14 290.23a12.94 12.94 0 0 1 -5.51-8.59v-.17l-4.26 1.45-.14.05v.13s1 3 1.42 4c1.76 4.3 8.57 8.61 8.86 8.79l.12.07 3.35-3.82-.2-.08a13.81 13.81 0 0 1 -3.64-1.83z"/><path d="m424.5 295.88.09-.06c3.78-2.53 8.12-11.95 8.3-12.35l.07-.15-4.82-1.53-.05.13a30.17 30.17 0 0 1 -2.62 5.22 18.93 18.93 0 0 1 -4.73 5l-.17.1 3.84 3.55z"/><path d="m454.19 292.71v11.29h4.16v-.91h7v.91h4.2v-11.29zm11.19 6.47h-7v-2.55h7z"/><path d="m451.54 281.6v3.91h21.29v17.49c0 .76-.1 2.1-.76 2.1a25 25 0 0 1 -5.23-.43l1 4.1h.21a33.82 33.82 0 0 0 4.65.37c2.83 0 4.33-1.63 4.33-4.7v-22.84z"/><path d="m453.75 287.12h16.04v3.94h-16.04z"/><path d="m181.81 188.72h14.92v3.23h-14.92z"/><path d="m195 198.88v-6h-11.4v6zm-8.13-3.33h4.86v.68h-4.86z"/><path d="m207.31 206.62-2.89.42.43 2.82-.77.1v-4.68h.63v.54h3.38v-12.69h-4v-4.77h-3.35v4.76h-3.94v12.72h3.2v-.68h.82v5.15l-4.7.57v-11.34h-13.91v16.61h3.23v-10.34l1.48 1.15c2.26-1.08 2.28-4.35 2.28-4.35h.3v2.92a1.1 1.1 0 0 0 1.21 1.09h2.29v5.15c0 .7-1.93.44-1.93.44l-.39-.11v-2.1h2v-2.78h-6.95v2.78a.15.15 0 0 0 .14.15h1.57a.14.14 0 0 1 .14.14v4.71h3.27l-.05-2.37c.77.65 1.08 2.87 1.08 2.87a.69.69 0 0 0 .75.65c3.52-.05 3.55-1.59 3.65-1.94v-2.92l1.2 3.35 7.75-1.52.58 3 3.26-.36zm-3.23-10.08h.68v5.39h-.68zm-3.35 5.39h-.66v-5.39h.66zm-15.29 2.55v-1.87h1s.07 1.56-1 1.87zm7.59-.59h-.86v-1.28h.83z"/><path d="m196.26 214.21a1.53 1.53 0 0 1 -.35.87l-.34-.21.41-.76z"/><path d="m192.52 216.15a.63.63 0 0 1 -.5-.25"/><path d="m129.59 210.29h6.18v-17.97h4.43v24.32h-4.43v-2l-17-.05v2.05h-4.6v-24.53h4.56v18.18l6.26-.04v-22.06h4.6z"/><path d="m95.85 211.74-.01-7.93h9.46v-4.34l-9.46-.04v-6.25h10.13l.01-4.48h-24.83v4.48h10.01v6.25h-9.37v4.38h9.37v7.93h-11.41v4.4h27.46v-4.4z"/><path d="m100.07 205.18a2.71 2.71 0 0 0 -1.28 4.3 2.72 2.72 0 0 0 4.72-1 2.9 2.9 0 0 0 -.33-2.18 2.74 2.74 0 0 0 -3.11-1.12z"/><path d="m130.72 303.21h6.16v-17.92h4.42v24.25h-4.42v-2l-16.94-.04-.01 2.04h-4.58v-24.46h4.54v18.13l6.25-.04v-21.99h4.58z"/><path d="m96 304.65-.01-7.9h9.43v-4.32l-9.43-.05v-6.23h10.1l.01-4.47h-24.76v4.47h9.98v6.23h-9.34v4.37h9.34v7.9h-11.38v4.39h27.38v-4.39z"/><path d="m100.2 298.11a2.7 2.7 0 0 0 -1.27 4.29 2.72 2.72 0 0 0 4.71-1 2.94 2.94 0 0 0 -.34-2.17 2.72 2.72 0 0 0 -3.1-1.12z"/><path d="m170.22 207.36-3.32-1.21h4.23v-3.7h-8.27v-1.78h4v-2.33a31.94 31.94 0 0 0 6.5 3.95l2.74-4.25a22.17 22.17 0 0 1 -12.58-9.42l.18-.38-5.4-.52a20.8 20.8 0 0 1 -11.51 11.2l2 4.34a48.8 48.8 0 0 0 5.83-4.09v1.5h4v1.78h-8.26v3.7h4.64l-3.35 1.26 1.57 5h-5.16v3.78h25.35v-3.78h-5.56zm-13.15-10.36a40.9 40.9 0 0 0 4-4.45 30.77 30.77 0 0 0 4.18 4.45h-8.15zm-3.29 15.44 3.81-1.44-2.29-4.82h3.3v6.26zm9.08-6.26h3.26l-2.24 4.78 3.68 1.48h-4.7z"/><path d="m230.87 195.47h9.58v2.67h3.69v-2.67-.9-2.45h-6.65v-3.85h-3.66v3.85h-6.65v2.45.9 2.67h3.69z"/><path d="m237.49 207.91h4.43v-2.62c.29.23.58.45.89.67l2.74-2.44a14.81 14.81 0 0 1 -6-6.61l-3.21 1.44a23.5 23.5 0 0 0 4.54 6h-10.46a23.5 23.5 0 0 0 4.54-6l-3.21-1.44a15 15 0 0 1 -5 6v-2.7l-2.6.57v-2.94h2.43v-3.75h-2.43v-5.82h-3.76v5.82h-3.61v3.75h3.61v3.78l-4.12.91.7 4.11 3.42-.94v6.3a.74.74 0 0 1 -.74.74h-1.92l1.55 3.92h1.16a3.71 3.71 0 0 0 3.71-3.71v-8.25l2.22-.61 2.15 1.91c.31-.22.6-.44.89-.67v2.62h4.43v4.77h-7.12v3.52h17.9v-3.52h-7.12z"/><path d="m226.14 299.3h4.56v2.91h-4.56z" transform="matrix(.21303039 -.97704557 .97704557 .21303039 -114.08 459.88)"/><path d="m242.49 302.63 4-2.89s-2.6-2.66-2.69-2.7-2.28 1.49-3.19 2.11a13.19 13.19 0 0 1 -.54-3h4.83v-14.56h-13.78v23.41l-1.31.25-.09-1.84-3.75.66v-6.74h4.11v-3.65h-4.08v-1.43h3v-1.79l.27.21 1.89-4.29a10.32 10.32 0 0 1 -4.85-5.19h-3.86a12 12 0 0 1 -5.17 6l1.89 4.29.8-.72v1.47h2.42v1.43h-4.47v3.65h4.47v7.37l-4.57.8.1 4 11.52-2.19v2.13l9.27-1.62-.2-3.67a14.05 14.05 0 0 0 5.88 5.39l2-3.86a18.63 18.63 0 0 1 -3.9-3.03zm-20.37-14.05a18.31 18.31 0 0 0 2.22-2.82 13.72 13.72 0 0 0 2.39 2.82zm13-3h5.69v1.92h-5.69zm0 18.69v-8.13h1.18a15.48 15.48 0 0 0 1.88 7.61zm0-11.48v-1.94h5.69v1.94z"/><path d="m221.44 303.41-.68-4.87-3.01.55.68 4.9z"/><path d="m263.58 281.44h16.18v4.33h-16.18z"/><path d="m281 290.77h-18.86l-3.14-2.26s-3.46 5.79-7 8.22l2 4.75s.91-.78 2.18-2.05v10.28h4.41v-15.43a22.05 22.05 0 0 0 1.52-2.41v3.18h10.06v9.73a.62.62 0 0 1 -.62.62h-5.12l1.72 4.31h5.29a3.24 3.24 0 0 0 3.24-3.24v-11.42h4.32z"/><path d="m262.13 283.59c-1.27-.84-2.5-1.75-3.73-2.58a27.36 27.36 0 0 1 -6.2 5.88l2.06 4.26a33.61 33.61 0 0 0 7.87-7.56z"/></g></svg>