<svg viewBox="0 0 297.83 222.24" xmlns="http://www.w3.org/2000/svg"><g fill="#727171"><path d="m197 61.39v.19q0 .36-3 1.08c-.28-.15-.5.21-.6 1.08l-.61 1.26 2.06-.48h.15l.24.24v.2c-.08.19-1.4.72-3.94 1.53l.36 2.21 2.59-.94-.14-.74a.55.55 0 0 1 .36-.53h.29c.31.17.43.34.38.48l.05.43.09.07 1.3-.55 1-.14c.22.1.34.22.34.34v.19c-.07.19-.34.31-.79.36l-1.92.67a12.39 12.39 0 0 1 -2.16 3.1l-1.08.93v.12l.09.1 3.15-1.08c.26-.17.55-.1.84.19v.19c0 .17-1 .58-3 1.23l-.75.36-.29.19.05 1.87.1.29a55 55 0 0 1 6.26-1.49h.43l.2.17v.24c-.24.24-1.83.7-4.78 1.42l-2.07.64a25.38 25.38 0 0 1 -.52 6.34l-.46.6c-.1.1-.14-.07-.14-.46v-.52l.14-2.21c.12 0 .15-1.06.05-3.17l-.15-.29a17.52 17.52 0 0 1 -3.67.84l-2.13.43-.29-.33v-.29c-.07-.19.57-.41 1.92-.6a24.69 24.69 0 0 0 4-.89l.24-.19-.19-2h-.05l-1.08.48a18.3 18.3 0 0 0 -3.19 1.1c-.38 0-.55-.17-.51-.46s.75-.67 2.52-1.27a6.5 6.5 0 0 0 2.31-1.73l-.29-2.35-2 .6.29.77c-.08.07.12.31.6.74l-.27.24h-.33c-.43-.12-.94-.63-1.47-1.51l-3.41.57-.28-.33v-.24c-.1-.29.5-.48 1.82-.56l1.18-.28c-.43-.34-.43-.68 0-1h.39l.89.75 2.52-.65-.17-1.27-.24-.84-3.23 1.17-.34-.33v-.27c.05-.24 1.13-.74 3.24-1.46a7.55 7.55 0 0 1 -.55-2.21l-1.8.34h-.74a.49.49 0 0 1 -.29-.58c0-.19.19-.36.48-.46h.14a3.11 3.11 0 0 0 1.86-.23l-.19-.74a.46.46 0 0 1 .34-.29h.41c.14 0 .33.26.52.84l2.21-.5-.1-.58.32-.26h.29a1 1 0 0 1 .52.55 10.38 10.38 0 0 0 3.22-.75zm-6.5 2.11-.05.93.12 1.23h.05a3 3 0 0 0 2.06-2.33v-.33h-.21zm1.3 6c-.1 0-.08.55.09 1.51l.05.34a6.88 6.88 0 0 0 1.88-2.35v-.2h-.1z"/><path d="m218.25 62.8.34.29c-1.23 1.13-3.7 2-7.42 2.62l-.41.05q2.1 3.89-2.16 12.15l-1.12 1.58a1.26 1.26 0 0 1 -1 .53l-.33-.24c2.37-2.16 3.84-5.66 4.37-10.54a6.34 6.34 0 0 0 -.2-1.92l-.5-1c0-.24 0-.38-.1-.38l-.77.14-.4-.38v-.24c.14-.36 2-.77 5.52-1.25l1.32-.43a6.71 6.71 0 0 0 2.66-.94zm-1.17 3.7h1.82a1.12 1.12 0 0 1 1.22.93l.34.29c.1.17-.12.39-.65.65l-.81 1.63.67-.58h.31c.22.12.31.24.29.36-.07.53-1.18 1.44-3.34 2.71a19 19 0 0 0 0 3.82 12.92 12.92 0 0 0 2.74-1.87l1.2-.63h.33c.29 0 .39.58.34 1.83a14 14 0 0 0 2 4.27v.48c-.14.77-1 1.61-2.76 2.52h-.28l-.2-.24 1.89-1.67c.29-.09.45-.4.53-1a12 12 0 0 1 -2.45-5 6 6 0 0 0 -2.07 1.36l-1.27 1v2.08a1.38 1.38 0 0 1 -.6 1.42l-.33.14c-.14.14-.5 0-1-.6l-.84-.92-1.63 1.61-.58.1-.26-.34c-.14-.09.12-.55.75-1.41l.33-1-1.77-.88-.1-.4a2 2 0 0 1 2-.72c.67.24 1 .88 1 2l.26.1 1.84-1.54-.14-4v-.05l-2.4.84c-.27-.14-.39-.28-.34-.4v-.15c-.14-.21.31-.5 1.37-.84a3.63 3.63 0 0 0 1.44-.62 2.62 2.62 0 0 0 -.05-1.59l-2.66 1.35-.65.62h-.24l-.24-.29v-.24c.12-.67 1.42-1.56 3.89-2.61a2.76 2.76 0 0 0 -.1-1.32l-2 .48c-.19 0-.28-.19-.31-.43s.38-.6 1.54-.89l.79-.19-.05-.7a.67.67 0 0 1 .67-.51c.36-.02.56.37.56 1.04zm-1.78-4.59c.22 0 .38.15.53.44v.12c0 .19-.58.33-1.71.38a3.22 3.22 0 0 1 -1.53.19c-.24 0-.34-.17-.29-.33v-.32c-.05-.19.14-.31.53-.38a4.17 4.17 0 0 0 1.77-.1zm.34 16.47h-.15l-.74.84c0 .15.38.46 1.15 1 .19 0 .24-.32.19-.94l-.1-1.13c-.33.04-.45.16-.35.23zm1.34-10 .05.26 2-.74.14-.15c-.07-.26-.7-.36-1.87-.29-.3-.17-.42.14-.3.89zm0 1.39v1.18h.05a6.11 6.11 0 0 0 1.41-1.63l.2-.38z"/><path d="m240.86 62.15a2.23 2.23 0 0 1 -.48 1.78l.24.24c.14.24-.05.38-.6.41l-.1 1.18h.15l1.44-1 .24-.36h.19l.29.22c.24.29-.41.89-1.9 1.8-.41 0-.55.46-.45 1.54l.09 1.46 2.81.89.24.21-.34.39a9.33 9.33 0 0 1 -2.71-.44l-.24 1.66 2.21-.24c.14 0 .26.15.31.39s-.17 1.29-1.06 3.55l1.25 1.37c.53.62.65 2 .34 4l-.14 1.58a.94.94 0 0 1 -.65.48c-.67.15-1.44-.21-2.31-1l-.24-.19.1-.34c.05-.14.43 0 1.13.44l1 .24c.19 0 .26-.44.24-1.37l.14-1.92-.05-.52c.14-.46-.34-1.16-1.47-2.12l-.26-.5c-.1-.1.05-.55.46-1.42l.6-1.82-.51.05a24.84 24.84 0 0 0 -3.19.69l-.7.34a.4.4 0 0 1 -.43-.38v-.22l.58-.38c.55-.2.74-.32.6-.39a1.15 1.15 0 0 0 1-.17c.38-.24.48-1 .29-2.25l-.84-.43a16.49 16.49 0 0 1 -3.19 3.52h-.24l-.39-.38a14.3 14.3 0 0 0 3.77-4.92v-.19l-3.94 1.77h-.48a.49.49 0 0 1 -.19-.55 16.12 16.12 0 0 0 5.64-4.42c-.14-.55.12-.84.75-.88l.43-.85v-.19c-.1-.36-1-.36-2.69 0a.57.57 0 0 1 -.24-.45c0-.24.5-.44 1.56-.58a2.27 2.27 0 0 1 1.94.67zm-2.16 11.38.19.43a7.41 7.41 0 0 1 -2.76 6.1h-.24l-.29-.19a9.09 9.09 0 0 0 2.5-6.24l.17-.15zm-1.22-6.53 1.51-.65-.05-.62-.14.05zm1.12 1.73v.09l.34.2h.06l.09-.1v-.14l-.14-.6z"/><path d="m255.21 66.93c1.08 2.45.67 6.19-1.22 11.26-.17.53-.32.77-.41.69l-.24.1-.19-.24.14-.84a18.26 18.26 0 0 0 1.49-9.29l-.26-1.44.16-.24zm8.16.89v.18c-.05.43-1 1-2.76 1.54a6.79 6.79 0 0 1 .22 1.92c-.22.38.17.53 1.17.38l1.28.24.28.31v.29c.1.48-.69 1.35-2.4 2.59l-.28 2.33-.41 1.32h.14a6.51 6.51 0 0 0 1.78-1.27l.09-.31c0-.53.12-.89.46-1h.34l.24.36a3.21 3.21 0 0 0 .79 2.85l.05.43-.29.29h-.15a6.41 6.41 0 0 1 -1.29-1.7q-.36.65-2.88 1.8l-.8.07c-.16 0-.23-.22-.23-.65a1.1 1.1 0 0 0 .91-.84 7.19 7.19 0 0 0 .5-3.33h-.65l-.53-.36.1.88-.33.24h-.22c-.14 0-.39-.74-.77-2.3l-1.08-1.92v-.16c.53-.49 1-.29 1.27.6l.19.24 1.83-.84-.29-2.12a14.49 14.49 0 0 0 -1.73.6.79.79 0 0 1 -.24-.69c0-.15 1.59-.79 4.85-1.92l.41-.15zm2.21-3.46c.77.22.91 1.64.46 4.25l-.04.39a12.86 12.86 0 0 0 1.65 9.1c.08.22.48.55 1.25 1l.53.15.05-.29.14-.19h.22c.21.14.33.28.33.43v.6l-.5.38h-.29c-2.4-.57-3.84-2.83-4.32-6.72a20 20 0 0 1 .19-6 5.75 5.75 0 0 0 0-2.23c-.07-.32-2.25.12-6.52 1.29l-1.25.34c-.17 0-.27-.19-.29-.7-.05-.24 2.45-.89 7.46-1.89h.41zm-7 9.36.21.8h.05l.29-.31h.24q.18.07.36.51h.24l.19-.15-.19-1.53h-.14c-.18.01-.61.23-1.28.68zm2.52.39h.05l1.08-.89.28-.39c0-.12-.31-.16-.93-.14h-.63z"/><path d="m278.71 63.23 2-.24h.84c1.48.24 1.94 1.13 1.32 2.72-.2 1-1 1.7-2.45 2.25h-.42l-.29-.24.19-1.12c0-.34-.19-.49-.57-.46a.55.55 0 0 1 -.15-.58 7 7 0 0 1 3.05-.79v-.46c-.05-.28-.31-.43-.84-.48a15.48 15.48 0 0 0 -2.35.34l-.27.14a10.17 10.17 0 0 1 0 3.85l-.14.69 5-1c.24-.05.45.07.6.38v.22c-.15.62-.94 1.39-2.43 2.35h-.29l.05-.34c-.07 0 .19-.33.79-.88l.65-.75h-.17l-4.82 1.28-.87.4a7 7 0 0 1 -.14 2 1.12 1.12 0 0 1 -.36.87h-.29l-.24-.24q.29-.43 0-3.84l-.26-.85c.05-.19.26-.31.6-.38.29.1.5.58.65 1.39l1-.4c-.22 0-.24-.36-.05-1.23l.05-1-.22-2.52c-.14-.12-.19-.51-.14-1.13a.58.58 0 0 1 .41-.34c.34.06.51.16.56.39zm.65 7.3a.79.79 0 0 1 .43.67l1.58-.28c1-.2 1.44.72 1.42 2.71v1.77c.38.08.35.51-.1 1.32v4.42l.19 1.49-.38.29h-.15a3.23 3.23 0 0 1 -1.22-1.52l-.1-.69.29.05.39.28h.14v-3.48h-.05l-1.8 1.56h-.39l-.33-.43-.1.34-.18 2.76c-.1.53-.39.62-.82.29l.05-.7.48-4.94c-.29-.36-.24-.77.14-1.25l.1-2.35c-.29.07-.5 0-.62-.39v-.21l.57-.53-.14-.84a.78.78 0 0 1 .4-.34zm.33 5.55-.19.69-.19 1.56h.09a9.35 9.35 0 0 0 2.5-2.16l.1-1.17h-.19zm.19-3.8-.09 2.52 2.11-.74.05-.62a3.58 3.58 0 0 0 -.34-1.68h-.53a2.79 2.79 0 0 0 -1.2.52zm.89-6.28v1a3.52 3.52 0 0 0 1.13-1.13l.14-.43zm8.07-2.6.14.39.79-.19-.14-1.25.24-.34h.26c.29-.1.53.46.72 1.63l1.44.1c.34 0 .58.21.72.62.19.7-.26 1.75-1.41 3.17.33.53-.27 1-1.78 1.32l-3 1.13h-.53a.71.71 0 0 1 -.31-.65c.62-.31.31-1.95-.94-4.9v-.17l.36-.33h.33c.1 0 .27.26.51.89-.08-.19.43-.44 1.51-.75l.19-.14a5.7 5.7 0 0 0 -.19-1.73.41.41 0 0 1 .41-.38c.29-.15.53.38.68 1.58zm-2.07 9.53c.12-.05.27.15.41.6l.24.58a9.5 9.5 0 0 1 3.34-.84h.24c.24 0 .36.21.36.55.24.29-.63 1.27-2.62 2.9l-.19.24.09.89a8.09 8.09 0 0 1 0 2.86l.09.09a3.18 3.18 0 0 0 2.27-2.8 5.37 5.37 0 0 0 -.53-2.36c0-.12.14-.21.43-.31h.22a3.65 3.65 0 0 1 .72 2.28 3.85 3.85 0 0 1 -.72 2.45l-.51.5h1.83l1.51-.16.31.26v.14c.12.46-1.13.75-3.74.89a18.82 18.82 0 0 0 -4.23.84.75.75 0 0 1 -.4-.41v-.28c-.1-.29.43-.51 1.63-.65.29.14.38-.17.29-1v-2.19l-.24-1.08c-.41-.15-.56-.36-.46-.65a9.47 9.47 0 0 0 -1-2.91c.14-.31.31-.45.48-.43zm4.83-2.81v.24c-.53.68-2.33 1.37-5.36 2.14l-.26-.36v-.34c-.07-.14.38-.36 1.34-.6a15.55 15.55 0 0 0 3.58-1.27.76.76 0 0 1 .7.19zm-4.92-4.61h-.29l.48 1.32 1.2-.7-.07-1v-.13zm.33 2.36v.84h.27c.55-.1.81-.32.79-.65v-.84zm1.11 7-.32.29.2 1.08 1.87-1.75.14-.22h-.24zm.88-10.05.07.89h.05l.72-.36.05-.67h-.48zm.07 1.87v.24h.1l.09-.14v-.1zm1.75-2.06v.29l.6-.24.29.33c0 .26-.45.7-1.32 1.27.1.07-.17.58-.79 1.49h.24c.55.07 1.32-.79 2.28-2.62v-.38l-.31-.24h-.81z"/><path d="m200.54 33.3a.58.58 0 0 1 -.65.65h-1.89v2.37h3.44a.6.6 0 0 1 .66.67c0 .51-.24.74-.66.74h-3.44v2.37h2.88a.59.59 0 0 1 .65.65c0 .51-.23.74-.65.74h-7.79v1.89h6.91a.59.59 0 0 1 .65.65c0 .5-.23.75-.65.75h-6.89v2a.75.75 0 0 1 -1.49 0v-2h-6.89c-.44 0-.65-.25-.65-.75a.58.58 0 0 1 .65-.65h6.89v-1.89h-7.79c-.44 0-.65-.23-.65-.74a.58.58 0 0 1 .65-.65h2.71v-2.37h-3.28c-.44 0-.65-.23-.65-.74a.58.58 0 0 1 .65-.67h3.28v-2.32h-1.81a.57.57 0 0 1 -.65-.65.58.58 0 0 1 .65-.65h15.18a.59.59 0 0 1 .63.6zm1.32-3.21a.59.59 0 0 1 -.67.67h-4.26v.48a.74.74 0 1 1 -1.47 0v-.48h-6.23v.48a.66.66 0 0 1 -.74.74c-.5 0-.73-.24-.73-.74v-.48h-4.18a.66.66 0 1 1 0-1.32h4.18v-.66a.64.64 0 0 1 .73-.73.66.66 0 0 1 .74.73v.66h6.23v-.66a.74.74 0 0 1 1.47 0v.66h4.26a.59.59 0 0 1 .67.65zm-10.26 3.91h-3.6v2.37h3.61zm0 6.15v-2.42h-3.6v2.37zm4.93-6.15h-3.44v2.37h3.44zm-3.44 6.15h3.44v-2.42h-3.44z"/><path d="m214.47 28.7v.65h7.05c.48 0 .74.23.74.67a.65.65 0 0 1 -.74.74h-7.05v1.38h4.74c.93 0 1.41.44 1.41 1.33v1.38h1a.59.59 0 0 1 .67.65.58.58 0 0 1 -.67.65h-1v1.49c0 .89-.48 1.31-1.41 1.31h-4.53a6.59 6.59 0 0 0 .82 1.74 6.52 6.52 0 0 0 1.5 1.72 19.12 19.12 0 0 0 2.3-2.41.91.91 0 0 1 .56-.34.67.67 0 0 1 .76.76.88.88 0 0 1 -.34.65 17.32 17.32 0 0 1 -2.16 2.22 8 8 0 0 0 1.18.74 8.9 8.9 0 0 0 2.16 1 1.89 1.89 0 0 1 1 .59.6.6 0 0 1 .25.49.72.72 0 0 1 -.82.81 5.51 5.51 0 0 1 -1.6-.54 14.25 14.25 0 0 1 -2.46-1.38 17.25 17.25 0 0 1 -1.83-1.56 8.72 8.72 0 0 1 -1.43-1.89.44.44 0 0 1 -.08-.15v4.29c0 1.19-.7 1.8-2.06 1.8a9.82 9.82 0 0 1 -2.14-.33.74.74 0 0 1 -.57-.74c0-.48.19-.73.57-.73a1.12 1.12 0 0 1 .33 0 11.85 11.85 0 0 0 1.64.27c.48 0 .74-.27.74-.82v-6.14h-5.57c-.4 0-.59-.21-.59-.65s.19-.66.59-.66h5.57v-1.54h-6.39c-.46 0-.67-.21-.67-.65a.58.58 0 0 1 .67-.65h6.39v-1.38h-5.65c-.4 0-.59-.21-.59-.67s.19-.66.59-.66h5.65v-1.38h-6.89a.42.42 0 0 0 -.48.48v6.32a26.8 26.8 0 0 1 -.49 5.59 16.49 16.49 0 0 1 -.92 3.44.71.71 0 0 1 -.65.48c-.53 0-.8-.27-.82-.73a2.83 2.83 0 0 1 .23-.84c.11-.32.21-.67.34-1.09.16-.66.31-1.33.44-2a29.47 29.47 0 0 0 .38-4.83v-7.24c0-.65.35-1 1.07-1h7.64v-.64a.82.82 0 1 1 1.64 0zm-2 14.11a.81.81 0 0 1 -.5.74 11.67 11.67 0 0 1 -2.56 1.3 22.65 22.65 0 0 1 -2.92.92.84.84 0 0 1 -.08-1.66 15.46 15.46 0 0 0 5-1.87 1.81 1.81 0 0 1 .42-.08.62.62 0 0 1 .66.65zm-4.09-3.13c.33.19.63.36.92.51a12.59 12.59 0 0 1 1.2.81c.17.19.25.32.25.4 0 .51-.23.76-.65.76a1.24 1.24 0 0 1 -.76-.25c-.42-.3-.77-.55-1-.72s-.53-.27-.82-.44a.79.79 0 0 1 -.26-.56.59.59 0 0 1 .66-.66 1.76 1.76 0 0 1 .48.15zm6.07-4.83h4.66v-.85c0-.37-.17-.56-.48-.56h-4.18zm0 2.79h4.18c.31 0 .48-.18.48-.58v-.91h-4.66z"/><path d="m240.67 28.78c1 0 1.47.44 1.47 1.31v15.6c0 .92-.5 1.38-1.47 1.38h-14.76q-1.47 0-1.47-1.38v-15.6c0-.87.49-1.31 1.47-1.31zm0 16.32v-14.43c0-.42-.19-.65-.56-.65h-13.63c-.38 0-.57.23-.57.65v14.43c0 .48.19.73.57.73h13.63c.37 0 .56-.25.56-.73zm-2.54-9.91c.76 0 1.16.31 1.16.9v5.73c0 .67-.4 1-1.16 1h-1.78a19.5 19.5 0 0 0 3.59 1.3.66.66 0 0 1 .48.59.64.64 0 0 1 -.73.73 12.31 12.31 0 0 1 -2.25-.71 13.25 13.25 0 0 1 -2-.92.89.89 0 0 1 -.33-.59.55.55 0 0 1 .1-.4h-3.71a.78.78 0 0 1 .17.48.74.74 0 0 1 -.32.59 19.38 19.38 0 0 1 -4.05 1.32 1.81 1.81 0 0 1 -.38.07c-.5 0-.73-.28-.73-.82a.5.5 0 0 1 .31-.48 23 23 0 0 0 4.12-1.16h-2.06c-.72 0-1.07-.32-1.07-1v-5.73c0-.59.35-.9 1.07-.9zm-.65-4.29c.76 0 1.14.32 1.14.91v1.57c0 .67-.38 1-1.14 1h-8.29c-.71 0-1.07-.32-1.07-1v-1.57c0-.59.36-.91 1.07-.91zm.4 6.41v-.65c0-.27-.1-.42-.31-.42h-8.46c-.17 0-.24.15-.24.42v.65zm0 2.22v-1.23h-9v1.23zm0 1.73v-.74h-9v.74c0 .33.07.48.24.48h8.46c.2 0 .3-.15.3-.48zm-.65-8.46v-.4c0-.28-.13-.42-.34-.42h-7.11c-.17 0-.25.14-.25.42v.4c0 .33.08.5.25.5h7.11c.21 0 .34-.17.34-.5z"/><path d="m252.88 35.67a5.57 5.57 0 0 1 -.26 1.55.66.66 0 0 1 -.73.51c-.11 0-.19 0-.23 0a1.93 1.93 0 0 1 .15.69v6.89c0 1.36-.55 2-1.64 2a4.86 4.86 0 0 1 -1.58-.33c-.33-.13-.48-.32-.48-.57 0-.54.19-.82.57-.82a.84.84 0 0 1 .31.07 3.11 3.11 0 0 0 1 .25c.31 0 .48-.28.48-.82v-1.46h-3.61v3a.59.59 0 0 1 -.65.67.58.58 0 0 1 -.65-.67v-8.25c0-.82.46-1.24 1.38-1.24h3.62a1.29 1.29 0 0 1 .84.25.52.52 0 0 1 0-.17c.1-.62.16-1 .16-1.13s-.14-.33-.4-.33h-5.1a.5.5 0 0 0 -.57.56v1.07a.58.58 0 0 1 -.65.65c-.46 0-.67-.21-.67-.65v-1.55a1.13 1.13 0 0 1 1.07-1.3v-4.2a1 1 0 0 1 1.16-1.16h4.51a1 1 0 0 1 1.09 1.16v4.18c.58.04.88.48.88 1.15zm-2-4.68a.59.59 0 0 0 -.65-.65h-3.23a.58.58 0 0 0 -.65.65v3.53h1.65v-1.52c0-.8.44-1.22 1.32-1.22h1.55zm-.42 8.78v-1c0-.25-.06-.4-.17-.4h-3.29c-.13 0-.17.15-.17.4v1zm0 2.7v-1.55h-3.61v1.55zm.42-7.95v-1.81h-1.07c-.44 0-.65.25-.65.76v1.05zm5 9a16.25 16.25 0 0 1 1.24 1.72 1.52 1.52 0 0 1 .08.33h2.29a.37.37 0 0 1 .08-.25 12.45 12.45 0 0 0 1.08-1.72.55.55 0 0 1 .56-.34 1.12 1.12 0 0 1 .57.17.51.51 0 0 1 .25.42 1.57 1.57 0 0 1 -.08.4 9.17 9.17 0 0 1 -.88 1.32h1.61a.58.58 0 0 1 .67.65.59.59 0 0 1 -.67.65h-9.26a.58.58 0 0 1 -.65-.65.57.57 0 0 1 .65-.65h2.33c-.29-.42-.56-.82-.86-1.24a.86.86 0 0 1 -.17-.39c0-.45.26-.68.76-.68.13.03.25.12.42.29zm7.56-6.52a.58.58 0 0 1 -.65.65h-9c-.46 0-.67-.21-.67-.65a.59.59 0 0 1 .67-.67h9a.59.59 0 0 1 .65.67zm-7.21-7.64v-.57a.5.5 0 0 1 .57-.56c.42 0 .65.19.65.56v.57h1.41v-.57a.5.5 0 0 1 .57-.56c.42 0 .65.19.65.56v.57h1.57c.7 0 1.05.34 1.05 1v3.95c0 .67-.35 1-1.05 1h-7.14a.85.85 0 0 1 -1-1v-3.97a.87.87 0 0 1 1-1zm5.42 9.37a.86.86 0 0 1 1 1v2.39a.86.86 0 0 1 -1 1h-7c-.65 0-1-.31-1-1v-2.44a.86.86 0 0 1 1-1zm-5.42-7v-1.22h-1c-.34 0-.51.19-.51.56v.67zm0 1.06h-1.49v.73c0 .4.17.59.51.59h1zm5.09 8.46v-.74a.45.45 0 0 0 -.51-.5h-5.31a.44.44 0 0 0 -.5.5v.74c0 .33.16.48.5.48h5.31c.34.01.51-.14.51-.47zm-3.87-9.52h1.41v-1.22h-1.41zm1.41 1.06h-1.41v1.32h1.41zm1.22-1.06h1.4v-.67a.51.51 0 0 0 -.58-.56h-.82zm1.4 1.79v-.72h-1.4v1.32h.82a.52.52 0 0 0 .58-.59z"/><path d="m191.6 166.9a1.86 1.86 0 0 1 .74 1.28s0 .12 0 .21c.72-.14 1.51-.31 2.38-.5a6.18 6.18 0 0 0 .36-1.59 2.67 2.67 0 0 1 -.27-1.37 4.16 4.16 0 0 1 2 .65c.39.29.61.58.61.87a3.83 3.83 0 0 1 -.46.86 4.15 4.15 0 0 1 1.32-.26 4.38 4.38 0 0 1 1.37.67 1.36 1.36 0 0 1 .14.7c0 .31-.26.47-.67.5-1.25.14-2.4.29-3.51.43l-.79 1.47.27-.08a4.3 4.3 0 0 1 1.56-.4 4.74 4.74 0 0 1 1.22.59 1.43 1.43 0 0 1 .12.63c-.05.29-.24.43-.6.45-1.15.15-2.23.29-3.29.49 0 .43 0 1 .05 1.7.84-.12 1.68-.24 2.5-.38a1.51 1.51 0 0 0 -.58-.89.51.51 0 0 1 -.24-.48 11.84 11.84 0 0 1 1.35-.07 1.46 1.46 0 0 1 .83.45 4.58 4.58 0 0 1 .53.7l2.81-.46a1.9 1.9 0 0 1 1.18.31 1.18 1.18 0 0 1 .31.84 1.15 1.15 0 0 1 -1.2.68 34.21 34.21 0 0 0 -3.63.24c-.12.16-.24.33-.35.5a9.75 9.75 0 0 0 -.48 1 2 2 0 0 1 1.12.75 1.06 1.06 0 0 1 -.19.62l-4.11 1.93a1.16 1.16 0 0 0 0 .31 2.87 2.87 0 0 0 .58-.07 10.71 10.71 0 0 1 1.75-.24 2.49 2.49 0 0 1 .79.21l.72.51a1 1 0 0 1 .14.5 5.25 5.25 0 0 1 .08.55c0 .1-.15.27-.41.51a1.12 1.12 0 0 1 -.53.19 5.54 5.54 0 0 1 -.91-.46 4.19 4.19 0 0 0 -1-.14c-.37 0-.8.05-1.28.09v2.09a6.09 6.09 0 0 1 -.72 2.93 5.68 5.68 0 0 1 -.65-2.71c-.05-.7-.1-1.39-.12-2.07a3.53 3.53 0 0 1 -.55.1c-1.11.43-1.73.65-1.85.67a3.93 3.93 0 0 1 -.72-.72 3.63 3.63 0 0 1 -.65-.79 1 1 0 0 1 .12-.53h.46a1 1 0 0 0 0 .29 12.37 12.37 0 0 0 1.51-.38l.58-.17a10.07 10.07 0 0 0 1-.48v-.52c-1.11.19-2.26.31-3.41.4a1.76 1.76 0 0 1 -1.2-1.44.27.27 0 0 1 .24-.12 1.18 1.18 0 0 0 .36.05l1-.21a3.43 3.43 0 0 1 -.58-1.4l-2.28.58a2.78 2.78 0 0 1 -1.46-.31c-.22 0-.36-.27-.41-.63a.78.78 0 0 1 .24-.64c.67-.05 1.95-.27 3.82-.63 0-.53 0-1.15.09-1.85.46.1.87.63 1.23 1.61.31-.05.62-.12 1-.19a7.14 7.14 0 0 0 1-1.1 6.2 6.2 0 0 1 -.38 1c.33 0 .67-.12 1-.2 0-.6.12-1.15.2-1.68a16.59 16.59 0 0 1 -2.84.7 1.73 1.73 0 0 1 -1.22-.74 1.91 1.91 0 0 1 -.58-1.08 3 3 0 0 1 .72.16 13.76 13.76 0 0 0 2.36-.26h.12a.12.12 0 0 1 0-.08 3.35 3.35 0 0 0 -.45-.69 1.69 1.69 0 0 1 -.12-.36 9.44 9.44 0 0 1 -1.78.33 1.92 1.92 0 0 1 -1.34-.81 2 2 0 0 1 -.6-1.16 5.39 5.39 0 0 1 .76.2 20 20 0 0 0 2.84-.29 6.73 6.73 0 0 0 -.24-1.15c-.12-.34-.24-.53-.39-.53a.62.62 0 0 1 .39-.53 3 3 0 0 1 1.17.34zm.77 10.68c0-.55 0-1.05.09-1.53l-1.8.38-.28.51a5.32 5.32 0 0 1 -.2 1.12zm1.51-6.55a5.3 5.3 0 0 1 .24-1.15 1.6 1.6 0 0 1 .1-.31 6 6 0 0 1 -.63.09c-.57.17-1.1.31-1.56.41v.1c-.07.31-.14.62-.19.91v.36c.6-.1 1.27-.24 2.04-.44zm1.92 5.81c.07-.24.14-.5.19-.74s.17-.51.27-.75c-.53.1-1.06.17-1.56.27a3.9 3.9 0 0 0 -.55.12v1.46z"/><path d="m220.14 167.77a1.17 1.17 0 0 1 .81.93.49.49 0 0 1 -.31.41 6.9 6.9 0 0 0 -2.16.84 1.85 1.85 0 0 1 1.42.82 3.9 3.9 0 0 1 1.1-.15 3.34 3.34 0 0 1 2.59 1.56 2.81 2.81 0 0 0 .2.58 1 1 0 0 0 0 .26 2.79 2.79 0 0 1 1.51.82c-.05.41-.91.62-2.59.65a7.7 7.7 0 0 0 -.94 1.63 1.62 1.62 0 0 1 .82 1 9.21 9.21 0 0 1 -2.88.72l-.36.15c-.1 1.2-.17 2.44-.22 3.76.07.72.12 1.78.12 3.15a3.81 3.81 0 0 1 -.22 1.13c-.14.45-.36.69-.64.69a7.55 7.55 0 0 1 -2.84-3.12 8.07 8.07 0 0 1 -2.42 1.59 4.73 4.73 0 0 1 -.24-1.66c.43-.17.91-.86 1.42-2.09 0-.65-.08-1-.15-1a1.75 1.75 0 0 0 -.6.89 1.55 1.55 0 0 1 -.57-1 1.79 1.79 0 0 1 1.8-1.06c.43.1.69.48.81 1.2a3 3 0 0 1 -.31 1.25c.77-.48 1.58-1 2.47-1.56 0-.58.07-1.15.12-1.73a4.38 4.38 0 0 1 -1.22.19 8.21 8.21 0 0 1 -2-.21c0-.44.38-.94 1.15-1.47a9.74 9.74 0 0 0 2.16-.5 4.68 4.68 0 0 1 0-.67 20 20 0 0 1 -2.52.69 2.56 2.56 0 0 1 -1.35-.53 1.21 1.21 0 0 1 -.31-.4c-.22.33-.41.67-.6 1q-3.6 9.15-4.34 9.15c-.44-.07-.7-.51-.75-1.32a3.79 3.79 0 0 0 .6-1.61 4.09 4.09 0 0 0 .58.1 67.54 67.54 0 0 1 3.09-7 19.31 19.31 0 0 1 3.53-5.35c-.53.24-1.1.47-1.77.72a10.46 10.46 0 0 1 -2.43 1c-.62 0-1.05-.5-1.32-1.39a1.17 1.17 0 0 1 .19-.72l1.85.14a18.63 18.63 0 0 0 5.67-2.2 2.12 2.12 0 0 1 .21-.27 2.36 2.36 0 0 1 -.57-.19 36.56 36.56 0 0 0 -4 1.2c.8-.58 1.83-1.37 3.1-2.38a2.48 2.48 0 0 1 -.79-1.63c2.56.32 3.96 1.28 4.1 2.99zm-2.31 6.48a.44.44 0 0 0 .15-.05 6.78 6.78 0 0 1 0-.77l-1 .29a5 5 0 0 1 -1.75-.24c-.05 0-.05 0-.05 0-.33.48-.65 1-.93 1.44a24.47 24.47 0 0 0 3.58-.67zm-.62-2.19.69-.36v-.19a2.93 2.93 0 0 0 -.24-1l-.14.12a13.6 13.6 0 0 0 -1.75 2c.48-.21.96-.4 1.44-.57zm-1.42 11.31a2.33 2.33 0 0 0 1.11.29.59.59 0 0 0 .6-.41c0-.67.09-1.32.14-2a15.59 15.59 0 0 1 -1.85 2.12zm4-7.37a6.88 6.88 0 0 0 .58-.89l-.89.27c0 .24-.05.48-.05.72a1.55 1.55 0 0 0 .37-.1zm1.2-2.71c.05-.17.07-.34.12-.51s-.19-.38-.57-.38a7 7 0 0 1 -.82.38c0 .32-.07.63-.1.92zm1.63 5.49c.51.39.77.72.77 1s-.19.41-.55.67a13.37 13.37 0 0 1 -1.7 1 11.22 11.22 0 0 0 1.87.93 2.2 2.2 0 0 1 1 1.3c0 .48-.12.74-.31.84a3.2 3.2 0 0 1 -2.28-.77 3.85 3.85 0 0 1 -1.2-2.21 5.91 5.91 0 0 0 .62-.88 3.46 3.46 0 0 0 .41-.87 1.32 1.32 0 0 0 -.53-.41 5.2 5.2 0 0 0 -1-.24 1.58 1.58 0 0 1 .65-.52 2.69 2.69 0 0 1 1-.15 2.42 2.42 0 0 1 1.26.31z"/><path d="m238.62 167.84a3.58 3.58 0 0 1 .74 1.78c-.05.31-.55.55-1.56.72a8 8 0 0 0 -.94.62 3.47 3.47 0 0 1 1 .94 2.77 2.77 0 0 1 .48 1.44 4.29 4.29 0 0 1 -1.13 1.41c-.41.43-.77.79-1.06 1.11a4.3 4.3 0 0 1 .2 1 5.34 5.34 0 0 0 -.27 1.46 10.75 10.75 0 0 0 0 1.18c.2 0 .51-.82 1-2.45.62-1 1.08-1.77 1.37-2.23a37 37 0 0 0 -1.35 4.75c-.24 3.53-.57 5.28-1 5.28s-.74-.43-1.17-1.32a6.78 6.78 0 0 1 -.41-2.3c.19-.1.34-1.18.41-3.27v-.64a13.23 13.23 0 0 1 -1.13 1.12 11.81 11.81 0 0 1 -1.78 1.66.32.32 0 0 1 -.36-.26c-.14 0-.24-.27-.33-.8a6.28 6.28 0 0 1 -.1-1.08c.39 0 .89-.4 1.51-1.24.56-.58 1.11-1.16 1.68-1.73a5.55 5.55 0 0 0 1-1.35 3 3 0 0 0 .69-1.56 1.63 1.63 0 0 0 -.62-.21 4.52 4.52 0 0 0 -.46.31c-.79.62-1.2.91-1.22.91-.19 0-.31-.24-.41-.74a16.26 16.26 0 0 1 -.14-1.83 9.38 9.38 0 0 1 1.12-.74 4.23 4.23 0 0 0 1-.72 1.89 1.89 0 0 0 .79-1c.19-.91.29-1.46.33-1.65.39-.03 1.11.47 2.12 1.43zm2.28 8.78a1.41 1.41 0 0 1 -.79-.33 2.91 2.91 0 0 1 -.68-.6c-.12-.05-.21-.19-.26-.48a.91.91 0 0 1 -.1-.41.65.65 0 0 0 .36.19 68 68 0 0 1 9.34-2.23c.72.05 1.22.62 1.51 1.73a1.08 1.08 0 0 1 -.26.81c-.31 0-1.25 0-2.81-.14a12.09 12.09 0 0 0 -1.92.22 2 2 0 0 0 .19.16 2.34 2.34 0 0 1 .58 1.16 2.06 2.06 0 0 1 -.08.52 1.26 1.26 0 0 0 -.24.41c0 .19 0 1.39-.07 3.65s-.07 3.55-.09 3.79a2 2 0 0 1 -.29.75 1.88 1.88 0 0 1 -.82.31 14 14 0 0 1 -2.09-1.27 22.29 22.29 0 0 1 -2.16-1.66 11.07 11.07 0 0 0 1.3.41 6.55 6.55 0 0 0 1 .14 4.35 4.35 0 0 0 .94-.14c.26-.05.41-.15.41-.27a15.62 15.62 0 0 0 .14-3.14c.05-1.73.07-2.74.07-3a1.4 1.4 0 0 0 -.36-.77 3.87 3.87 0 0 1 -.6-.46 15.57 15.57 0 0 1 -2.22.65zm1.58-7.46c1.34-.53 2.45-.94 3.36-1.25a2.45 2.45 0 0 1 1.42.91 1.27 1.27 0 0 1 -.22.75c-1.56 1-3.1 2-4.58 2.93a4.34 4.34 0 0 1 -1 .4c0-.07.24-.31.77-.72a8.24 8.24 0 0 0 1.63-1.32c-.21 0-.43.07-.62.1-.7-.17-1.17-.74-1.44-1.73a.3.3 0 0 1 .29-.14 1.77 1.77 0 0 0 .39.07z"/><path d="m255.3 173.53a18.12 18.12 0 0 0 3-1.37l.7-.34c.19-2.13.29-3.28.29-3.45a4.31 4.31 0 0 0 -.65-.91 2.09 2.09 0 0 1 -.36-1.08 1.7 1.7 0 0 1 .77-.1 4 4 0 0 1 1.63.91 2.9 2.9 0 0 1 .93 1.54.71.71 0 0 1 -.21.57.94.94 0 0 0 -.36.53c-.12 0-.24.46-.36 1.27a4 4 0 0 1 .65-.21c1 0 1.53.43 1.63 1.25 0 .19-.22.43-.62.72a8.27 8.27 0 0 1 -1.42.88 2.07 2.07 0 0 1 .29 1 12.07 12.07 0 0 1 -.75 1.13l-.28.28v1.11l.72-.65c.72-.6 1.44-1.25 2.13-1.94a1.38 1.38 0 0 1 -.19-.58 7.69 7.69 0 0 0 .34-2.09 8.86 8.86 0 0 1 .07-1.17c-.1-.24-.17-.46-.27-.68a2.8 2.8 0 0 1 .37-1.44 1.57 1.57 0 0 1 .79-.28.83.83 0 0 1 .38.74c.05.48.07.89.1 1.25l.36-.12a7 7 0 0 0 1.08-.51.82.82 0 0 1 .43-.24 3.63 3.63 0 0 1 1.22.58 1.36 1.36 0 0 1 .12.65q0 .42-.57.45a6.22 6.22 0 0 0 -1 .34 4 4 0 0 1 -.89.45 1 1 0 0 1 -.67-.26 13.41 13.41 0 0 0 -.29 2.07c0 .14.09.21.33.21a1.36 1.36 0 0 0 .8-.38 13 13 0 0 0 1.15-.82c.43-.26.81-.5 1.15-.69a22 22 0 0 0 .5-4.61 2.4 2.4 0 0 0 -1.29-.89c.09-.34.38-.55.89-.7a2 2 0 0 1 1.89 1.42 26.38 26.38 0 0 1 -.29 3.55 1.66 1.66 0 0 0 .24-.17c.17-.19.32-.33.46-.48a1.37 1.37 0 0 0 .48-.48 1.26 1.26 0 0 0 .48-.93 2.1 2.1 0 0 1 -.2-.86.78.78 0 0 1 .22-.29 2.71 2.71 0 0 1 .55.48c.12.17.21.34.31.48.31.41.6.77.86 1.08a2.71 2.71 0 0 1 .12.79 2.77 2.77 0 0 1 -.48.36 3.93 3.93 0 0 0 -.67.39 7.68 7.68 0 0 1 -1.15.81 4.23 4.23 0 0 1 -1.32.75 1.4 1.4 0 0 1 -.29.16c-.05.36-.09.63-.12.77a.4.4 0 0 0 .46.46 4.84 4.84 0 0 0 2.64-.87c1.2.41 1.82.89 1.82 1.42-.09.31-.67.53-1.77.62a21.84 21.84 0 0 1 -2.84.7c-1.44 0-2.13-.6-2.13-1.82.09-.32.17-.6.24-.89a40.63 40.63 0 0 1 -2.38 3.33c-.41 0-1-.45-1.73-1.39-.14-.26-.26-.48-.33-.65a18 18 0 0 1 -2.93 3.8v1.44c0 .62.12 1.22.19 1.84a6.47 6.47 0 0 0 .31 1.59 8.61 8.61 0 0 1 -.19 1.44q-.15 1.08-.36 1.08a.58.58 0 0 1 -.41-.19c-.19 0-.43-.53-.72-1.56a6.38 6.38 0 0 1 -.48-1.78 3.11 3.11 0 0 1 .26-1.08 1.82 1.82 0 0 0 .15-.67v-.82c-1.16 1.15-1.95 1.73-2.33 1.73-.17 0-.36-.22-.6-.7a3.1 3.1 0 0 1 -.34-1.22 22 22 0 0 1 1.78-2.5 10.29 10.29 0 0 0 1.29-2.08.21.21 0 0 1 -.14.07 8.68 8.68 0 0 1 -1.92 1 2.21 2.21 0 0 1 -1.73-.72 3.3 3.3 0 0 1 -.53-2 3.15 3.15 0 0 0 .99.17zm3.26 4.75a.53.53 0 0 0 .22-.07v-.46a1.15 1.15 0 0 0 -.22.53zm12.58.24v2.81c-.15 2.73-.65 4.37-1.49 5l-.34-.19c-.26-.48-.55-1-.86-1.47l-.38.08a4.26 4.26 0 0 0 -1.3.19 3.9 3.9 0 0 1 -1.13.29 1.32 1.32 0 0 1 -1.15-.77 4 4 0 0 1 -.41-2.07c.07-.91.17-1.77.29-2.54a4.78 4.78 0 0 1 .41-2.06.9.9 0 0 1 .43.5 2.18 2.18 0 0 1 .41-.55 2.08 2.08 0 0 0 .6-1.15c-.07-.29-.15-.58-.22-.84a.31.31 0 0 1 .07-.17 12 12 0 0 1 1.11.5 1.29 1.29 0 0 1 .5.58v.43a6.15 6.15 0 0 1 -2.4 1.56 4.1 4.1 0 0 1 .05.62 14.05 14.05 0 0 1 .22 1.92v.27h.1c.28-.19.79-.51 1.46-1a7.72 7.72 0 0 1 1.49-.28c.1 0 .19.09.29.28a1.61 1.61 0 0 1 .12.51c0 .12-.17.31-.48.55l-.75.62c-.5.44-.93.77-1.29 1.06a3.73 3.73 0 0 1 .12-.48c.05-.17.09-.36.17-.58a3 3 0 0 1 -1.08-.31.41.41 0 0 1 -.2-.09 1.87 1.87 0 0 1 -.07.33 4.81 4.81 0 0 0 -.09.77.81.81 0 0 0 .16.53.37.37 0 0 0 .31.19 1.36 1.36 0 0 0 .56-.14.75.75 0 0 0 .41-.2 9.65 9.65 0 0 1 1.63.2 1.84 1.84 0 0 1 .48.28h.05a4 4 0 0 0 .36-.81 31 31 0 0 1 .19-3.75 1.13 1.13 0 0 0 -1.15-.64c-.84.38-1.66.72-2.45 1.05a.42.42 0 0 0 -.17-.05c1.15-1.56 2.21-2.4 3.22-2.49a2.9 2.9 0 0 1 2.2 1.51z"/><path d="m281.29 181.5a17 17 0 0 0 -.15 2c0 .91-.09 1.39-.28 1.51a1.2 1.2 0 0 1 -.68-.63 3.49 3.49 0 0 1 -.43-1.36c.15-1.28.41-2.74.75-4.42a7 7 0 0 1 1.27-2.9 3.33 3.33 0 0 1 1.85-.94.9.9 0 0 1 .12-.1c.55-.48.84-.81.84-1a29 29 0 0 0 -3.75 1.7 26.55 26.55 0 0 0 -3.07 2.57c-.65-.15-1-.75-1.06-1.78a2.24 2.24 0 0 0 1.52-2.21 1 1 0 0 1 .79 1c.55-.24 1.1-.51 1.68-.75-.05 0-.07 0-.07-.09a1.89 1.89 0 0 1 -.36-.84 13.76 13.76 0 0 0 .43-2.16 7.28 7.28 0 0 1 -.48-1.9 2.55 2.55 0 0 1 .89.27 1.74 1.74 0 0 1 .62 1 14.86 14.86 0 0 1 -.14 1.85 3.51 3.51 0 0 0 0 .55c-.05.41-.07.74-.1 1 .51-.19 1-.4 1.47-.62a3.63 3.63 0 0 1 -.33-1.28 1.17 1.17 0 0 0 .14-.48v-.12c-.48-.12-.69-.38-.69-.76 0-.15 0-.24.19-.24a4.24 4.24 0 0 0 1.22-.46 6.06 6.06 0 0 1 1.37-.43c0-.24 0-.44 0-.63a.69.69 0 0 0 -.31-.43 7.22 7.22 0 0 0 -1.75 1.11 1.54 1.54 0 0 1 -1.42-.92 6.41 6.41 0 0 1 2-.74 16 16 0 0 1 1.71-.41 4.34 4.34 0 0 1 1.92 1.84 28.17 28.17 0 0 0 -1.27 3c1.1.05 1.68.27 1.68.6s-.62.72-1.82 1.44a5.32 5.32 0 0 1 -1 .55 3.35 3.35 0 0 1 1.05 2.84c0 1.08-.09 3.26-.14 6.57-.17 1.2-.46 1.83-.86 1.83a4 4 0 0 1 -1.59-1.56 4.68 4.68 0 0 1 -1.08-2.14l.79.53a2.13 2.13 0 0 0 .89.26c.36 0 .56-.26.6-.79s-.07-1.22-.07-1.8q-.33.15-.72.36c-.5.53-.84.84-1 1s-.34-.12-.46-.4a1.57 1.57 0 0 1 -.26-.77 1.55 1.55 0 0 1 .16-.82 1.68 1.68 0 0 0 .48-.6 1.2 1.2 0 0 0 .2-.62 4.83 4.83 0 0 0 -.53.09 1.66 1.66 0 0 1 -.43.36c-.05 0-.05 0-.05 0-.14.71-.21 1.45-.28 2.27zm2.42-3.82a.94.94 0 0 1 .19.6 2.3 2.3 0 0 1 -.33.62 4.39 4.39 0 0 0 -.22 1.25 1.55 1.55 0 0 1 .75-.29c0-1 0-1.84 0-2.71 0-.53-.38-.86-1-1.05a3.11 3.11 0 0 0 -1.22 1.08 2.06 2.06 0 0 0 -.08.52l.17-.07a3.74 3.74 0 0 1 1.25-.19 1.16 1.16 0 0 1 .49.24zm.19-5.3v.19s-.1.14-.1.19v.17c.25-.1.48-.17.68-.27.09-.65.16-1.22.24-1.75a6 6 0 0 1 -.94.39 3.71 3.71 0 0 1 .12 1.08zm5.14 4.1c1.83-.58 3.36-1 4.59-1.34a1.71 1.71 0 0 1 1.05.64 1 1 0 0 1 -.17.56c-.81.43-1.58.81-2.35 1.2.43-.08.91-.15 1.39-.2 1.23 0 1.85.6 1.85 1.71a3.06 3.06 0 0 1 -1.1 1.17 2.16 2.16 0 0 1 .17.6c0 .12-.2.24-.58.39.1.07.17.14.26.21q.51.41.51.63c0 .09-.15.26-.39.45a2.41 2.41 0 0 1 -.74.8 13.53 13.53 0 0 1 2-.22 2.45 2.45 0 0 1 .7.19c.36.24.57.41.64.46s.08.17.12.43.05.43.05.5-.12.22-.33.44a1.07 1.07 0 0 1 -.48.19 7.35 7.35 0 0 1 -.82-.41 3 3 0 0 0 -.89-.12 42.08 42.08 0 0 0 -4.56.36c-1.53.38-2.4.58-2.57.6a3.8 3.8 0 0 1 -.55-.55 7 7 0 0 1 -.5-.6.68.68 0 0 1 .09-.41h.36a.45.45 0 0 0 0 .22 19 19 0 0 0 1.85-.44 2.27 2.27 0 0 0 .38-.09 1.8 1.8 0 0 1 -.29-.55 4.36 4.36 0 0 0 -.36-1.44 2.49 2.49 0 0 1 1.73 1 6.11 6.11 0 0 0 1.27-.82 7 7 0 0 1 -1.05 1.61c.16 0 .33 0 .52-.05.41 0 .77-.05 1.11-.1a1.33 1.33 0 0 0 .33-.24 1.81 1.81 0 0 0 .51-1.22.47.47 0 0 0 -.39-.36 8.13 8.13 0 0 1 -1.84.34 1.53 1.53 0 0 1 -.89-.22.23.23 0 0 0 0 .12.84.84 0 0 1 -.74-.5 4 4 0 0 1 -.58-1.42c-.14-.34-.26-.62-.36-.91a1 1 0 0 1 -.12-.48h.32c.21.09.43.21.64.31a5.54 5.54 0 0 1 2.19-1.08l.36-.29h.07a12.21 12.21 0 0 1 -1.92.32c-.53-.1-.86-.53-1.06-1.25a.22.22 0 0 1 .22-.12 1.11 1.11 0 0 0 .31-.02zm1.8-7.85v.94l1.05-.36c.08-.63.15-1.25.22-1.87a1.43 1.43 0 0 0 -.53-1 .4.4 0 0 1 -.19-.38 7.83 7.83 0 0 1 1.08-.07 1.3 1.3 0 0 1 .67.38 1.48 1.48 0 0 1 .55.89 11.88 11.88 0 0 1 -.24 1.65c.27 0 .53-.11.82-.16 1.39.28 2.11.91 2.16 1.87-.86 2.71-1.54 4.15-2 4.3a1.1 1.1 0 0 1 -.72-.22 29.43 29.43 0 0 0 -4.24 1.34 1.84 1.84 0 0 1 -.68-.12 1.24 1.24 0 0 1 -.55-.33 1.22 1.22 0 0 1 -.34-.84c-.19-1.83-.62-3-1.27-3.63 0-.12 0-.19.05-.21a.31.31 0 0 1 .17-.05 2.1 2.1 0 0 1 1.25.36 2.73 2.73 0 0 1 .48.41c.12.33.21.65.31.93a3.92 3.92 0 0 0 .82-.21c0-.43-.05-.84-.05-1.25a13.46 13.46 0 0 1 -1.56.12c.12-.34.62-.67 1.49-1a9.12 9.12 0 0 0 -.58-2.16c0-.08.07-.12.17-.17 1.09.12 1.66.41 1.66.84zm-1.22 4.85a1.51 1.51 0 0 1 -.53-.1 6.7 6.7 0 0 1 .12 1.08c.19 0 .36-.12.55-.16 0-.29-.05-.56-.05-.82zm.31 6.86v.39a10.42 10.42 0 0 0 1.32-.39 13.52 13.52 0 0 1 1.53-.4 1.91 1.91 0 0 0 .7-1.35 9.33 9.33 0 0 0 -3.7 1.08h-.07a2.17 2.17 0 0 1 .22.67zm.84-7.05v.72l.69-.22c0-.24.05-.5.07-.74-.3.09-.53.19-.76.24zm.46-2.52c-.17 0-.32 0-.41 0v1s0 0 .1-.05c.26-.09.5-.19.74-.26a5.54 5.54 0 0 1 .05-.56 1.75 1.75 0 0 1 .05-.33zm2.95 1.15a5.57 5.57 0 0 1 -1.42.67c-.05.29-.07.58-.09.82l.45-.15a1 1 0 0 1 .6.15 14 14 0 0 0 .46-1.49zm.21-1.3c0-.48-.14-.74-.43-.74l-.81.24a2.43 2.43 0 0 0 -.1.41 2.52 2.52 0 0 0 -.07.6c.33 0 .65-.1.93-.12a.44.44 0 0 1 .41.21c.03-.22.05-.4.07-.6z"/><path d="m187.5 99.07v-1.74h2v1.74h2.37v1.64h-2.37v1.55h5.5v-1.55h-2.2v-1.64h2.2v-1.74h2v1.74h4.77v1.64h-4.77v1.55h3.7v1.56h-2.14v1.72h2.79v1.64h-2.79v2.14h3.21v1.55h-8.46v1.72h7.73v1.56h-7.73v2.45h-1.95v-2.45h-7.73v-1.56h7.73v-1.72h-8.46v-1.55h3.36v-2.14h-2.94v-1.64h2.94v-1.72h-2.54v-1.56h3.78v-1.55h-4.68v-1.64zm3.87 4.75h-3.22v1.72h3.22zm0 5.5v-2.14h-3.22v2.14zm5.33-5.5h-3.38v1.72h3.38zm-3.38 5.5h3.38v-2.14h-3.38z"/><path d="m215.56 98.65h7.14v1.64h-7.06v1.24h5.59v2.79h1.47v1.68h-1.47v2.71h-5.59v4l.74-1.16 1.26.53-.84-1.1a14 14 0 0 0 3.1-2.22l1.33 1.66a15.61 15.61 0 0 1 -3.17 1.85 34.42 34.42 0 0 1 4.38 2.41l-1.07 1.64a25.72 25.72 0 0 0 -5.73-3.3v1.66a1.79 1.79 0 0 1 -.5 1.43 2.34 2.34 0 0 1 -1.64.46h-2.12l-.42-1.89a16.14 16.14 0 0 0 2.06.17c.48 0 .73-.17.73-.51v-5.64h-5.08v-1.49h5.08v-1.21h-6.49v.73a31.41 31.41 0 0 1 -.37 4.73 25.29 25.29 0 0 1 -1.58 5l-1.72-1.46a14.8 14.8 0 0 0 1.41-4.14 29.42 29.42 0 0 0 .31-4.14v-8h8.11c-.23-.4-.49-.78-.74-1.15l2.14-.32c.25.39.51.88.74 1.4zm-2.63 14.35a26.32 26.32 0 0 1 -5.67 2.69l-.73-1.72a26.08 26.08 0 0 0 6-2.63zm.82-12.72h-6.49v4h6.49v-1.28h-5.08v-1.47h5.08zm-1.75 10.59-1.69 1.13a25.09 25.09 0 0 0 -2.21-2l1.39-.82a27.45 27.45 0 0 1 2.51 1.69zm3.69-6.55h3.7v-1.32h-3.7zm0 2.86h3.7v-1.18h-3.7z"/><path d="m229.84 98c-.44 1.64-.88 3-1.32 4.18v14.36h-1.81v-10.77c-.42.69-.84 1.38-1.3 2.06l-.67-2.38a27.91 27.91 0 0 0 1.82-3.52 25 25 0 0 0 1.56-4.75zm1.72 3.36v2h-1.64v-3.21h6.22v2.85l.84-.11v-2.89h6.21v3.29h-1.64v-2h-1.09a18.12 18.12 0 0 1 .7 1.72l-1.33.33a18 18 0 0 0 -.77-2h-.45v2h-1.19c.12.3.23.61.33.91h6v1.38h-4.35v1.16h3.85v3.84h-4v1.66a18.52 18.52 0 0 0 3.27-1.16l.82 1.14a20.77 20.77 0 0 1 -4.09 1.42v.72c0 .31.21.48.65.48h1.4a1 1 0 0 0 .59-.15c.15-.1.25-.56.32-1.4l1.72.5c-.17 1.2-.42 1.91-.76 2.12a3 3 0 0 1 -1.64.34h-2.28a2.11 2.11 0 0 1 -1.33-.4 1.36 1.36 0 0 1 -.48-1.07v-4.2h-3.11v1.24h2.67v1.3h-2.63v1.34a17.36 17.36 0 0 0 2.63-.51v1.41a32.68 32.68 0 0 1 -5.4 1l-.25-1.64 1.16-.06v-4h-1c0 .55-.11 1.07-.17 1.59a21.91 21.91 0 0 1 -1.11 4.39l-1.56-1.38a14.24 14.24 0 0 0 .95-3.57c.12-1.28.21-2.48.21-3.57v-3.84h6c-.15-.32-.3-.61-.45-.91h-.94v-2h-1.11c.21.5.42 1 .63 1.64l-1.33.33a20.89 20.89 0 0 0 -.71-2zm4.83-3.44v1.38h-6.47v-1.38zm-2.71 11.4v-1.24h-2v1.24zm0-3.7h-2v1.16h2zm3.95 0h-2.14v1.16h2.14zm-2.14 3.7h2.14v-1.24h-2.14zm8.12-11.4v1.38h-6.61v-1.38zm-4.18 11.4h2v-1.24h-2z"/><path d="m250.42 112.59a18.11 18.11 0 0 1 -2.54 4l-1.81-1.3a19.7 19.7 0 0 0 2.71-3.44zm12.72-14.76v7.79h-6.91v1.24h7.31v1.64h-7.31v1.3h8.3v1.81h-18.29v-1.81h8v-1.3h-7.05v-1.64h7.05v-1.24h-6.65v-7.79zm-8.86 1.72h-4.76v4.35h4.76zm-.82 3-1.49 1a24.11 24.11 0 0 0 -1.64-2.69l1.24-.75a30.14 30.14 0 0 1 1.89 2.4zm.91 13.69-2.15.26a38.37 38.37 0 0 0 -.25-4l1.81-.17a18.86 18.86 0 0 1 .59 3.87zm6.88-16.65h-5v4.35h5zm-2 16.49-2.21.16c-.16-1.42-.33-2.68-.5-3.77l1.81-.24c.36 1.14.65 2.42.93 3.77zm1.07-15.33a12 12 0 0 1 -1.81 2.77l-1.47-1a12.38 12.38 0 0 0 1.87-2.39zm4.26 15.07-1.89.82a27.34 27.34 0 0 0 -1.8-4l1.89-.56a28.85 28.85 0 0 1 1.83 3.7z"/><path d="m274.21 103.08h.57v3.78h-1v7.71a2.12 2.12 0 0 1 -.44 1.44 1.3 1.3 0 0 1 -1.05.45h-1.19l-.42-1.73.91.09c.31 0 .48-.3.48-.76v-1.13h-2.77v3.53h-1.66v-9.77h-.9v-3.61h.67v-5.33h6.8zm-1.15 2.79v-1.23h-4.58v1.23zm-3-2.79v-2.62h2.63v-1.07h-3.69v3.69zm2 5.65v-1.3h-2.76v1.3zm0 2.79v-1.38h-2.76v1.38zm.59-8.44v-1.32h-1.24v1.32zm13.35 3.19v1.64h-11v-1.64zm-1 2.54v4h-1.07l-.82 1.72h2.71v1.55h-10.82v-1.55h2.86l-.8-1.72h-1.32v-4zm-6.74-10.16v-1.39h1.49v1.39h1.39v-1.39h1.47v1.39h3v6.72h-10.24v-6.72zm0 2.71v-1.24h-1.3v1.24zm0 1.22h-1.3v1.32h1.3zm5 7.64h-5.75v1.22h5.75zm-2 4.35.81-1.72h-3.19l.8 1.72zm-1.56-13.21h1.39v-1.24h-1.39zm1.39 1.22h-1.39v1.32h1.39zm1.47-1.22h1.44v-1.24h-1.4zm1.4 1.22h-1.4v1.32h1.44z"/><path d="m201.7 137.79a1.44 1.44 0 0 1 -2.15.7 16.26 16.26 0 0 1 -2.37-1.35.73.73 0 0 1 -.78.74h-2.64v2.2h5.37a.7.7 0 0 1 .76.78.68.68 0 0 1 -.76.76h-5.37v5.64h6.24a.74.74 0 0 1 .81.82.76.76 0 0 1 -.81.84h-15.33a.75.75 0 0 1 -.82-.84.74.74 0 0 1 .82-.82h6.33v-5.64h-5.51a.77.77 0 1 1 0-1.54h5.51v-2.2h-2.7a.76.76 0 0 1 -.76-.55 18.28 18.28 0 0 1 -3.88 1.83c-.42.12-.73 0-.88-.36a.65.65 0 0 1 .38-.88 18.6 18.6 0 0 0 7.64-7.54 1.44 1.44 0 0 1 2.08-.5 1.23 1.23 0 0 1 .54 1.78 19.8 19.8 0 0 0 7.21 4.16c1.09.36 1.42 1.18 1.07 1.97zm-14.26 8.4a29.09 29.09 0 0 0 -1.39-3.17.68.68 0 0 1 .19-.94.71.71 0 0 1 .95.12 13.87 13.87 0 0 1 2.48 2.84 1.2 1.2 0 0 1 -.47 1.91c-.77.44-1.45.12-1.76-.76zm8.65-9.84a16.55 16.55 0 0 1 -3.4-3.59 18.15 18.15 0 0 1 -3.68 3.59zm2.12 5.9c.76.44.9 1.15.19 2.05a14.87 14.87 0 0 1 -2.73 2.67.72.72 0 0 1 -1 0 .7.7 0 0 1 -.06-1 26.49 26.49 0 0 0 1.64-3.1 1.23 1.23 0 0 1 1.96-.62z"/><path d="m204 132.23a.68.68 0 0 1 .74-.76h3.42v-.47a1.3 1.3 0 0 1 2.6 0v.5h5.12v-.5c0-.78.47-1.2 1.31-1.2s1.3.42 1.3 1.2v.5h3.4a.67.67 0 0 1 .73.76.66.66 0 0 1 -.73.74h-3.4v.6c0 .78-.46 1.2-1.3 1.2s-1.31-.42-1.31-1.2v-.6h-5.12v.6c0 .78-.46 1.2-1.3 1.2s-1.3-.42-1.3-1.2v-.6h-3.42a.67.67 0 0 1 -.74-.77zm18.62 15.92a.67.67 0 0 1 -.75.75h-17.06a.69.69 0 0 1 -.78-.75.7.7 0 0 1 .78-.78h17.09a.69.69 0 0 1 .75.78zm-3-9.24v-1.64a.24.24 0 0 0 -.25-.25h-12.06a.24.24 0 0 0 -.26.25v1.73c0 .84-.46 1.22-1.3 1.22s-1.32-.38-1.32-1.22v-2.14a1.12 1.12 0 0 1 1.28-1.24h6.29v-1c0-.73.5-1.17 1.32-1.17s1.33.42 1.33 1.17v1h6.35a1.12 1.12 0 0 1 1.26 1.26v2.08c0 .84-.47 1.21-1.31 1.21s-1.28-.42-1.28-1.26zm-11.27 1.34h9.93a1.1 1.1 0 0 1 1.22 1.22v3.74a1.11 1.11 0 0 1 -1.22 1.23h-9.88a1.11 1.11 0 0 1 -1.22-1.23v-3.74a1.1 1.1 0 0 1 1.22-1.22zm.06-.9a.65.65 0 0 1 -.71-.72.64.64 0 0 1 .71-.69h9.78a.64.64 0 0 1 .72.69.65.65 0 0 1 -.72.72zm1.26 3.27h7.33v-.73a.24.24 0 0 0 -.26-.25h-6.74a.24.24 0 0 0 -.25.25zm0 2.17a.25.25 0 0 0 .25.25h6.78a.25.25 0 0 0 .26-.25v-.79h-7.29z"/><path d="m234.94 132.27v14.34c0 2.86-2.35 3.28-5.31 1.91a.66.66 0 0 1 -.4-.84c.08-.35.38-.44.8-.4 2.06.21 2.45 0 2.45-1.19v-4.22h-2.43c-.59 3.34-1.74 5.86-4 7.56-.36.27-.65.27-.9 0a.67.67 0 0 1 0-1 11.64 11.64 0 0 0 2.56-6.57h-1.32a.7.7 0 0 1 -.74-.76.66.66 0 0 1 .74-.71h1.47c.06-1 .1-2.14.12-3.42h-1.57a.67.67 0 0 1 -.74-.74.65.65 0 0 1 .74-.71h1.59v-3.17h-1.9a.69.69 0 0 1 -.75-.76.67.67 0 0 1 .75-.73h7.46a1.25 1.25 0 0 1 1.38 1.41zm-2.46 8.13v-3.4h-2c0 1.21-.11 2.35-.23 3.42zm-1.95-4.87h1.95v-2.92a.24.24 0 0 0 -.25-.25h-1.7zm8.5 10.22a.65.65 0 0 1 -.33-.82c.1-.33.36-.44.78-.4 1.49.13 1.82-.12 1.78-1.38a12.29 12.29 0 0 0 -1.34-4.56 2 2 0 0 1 -.19-1.64 23.72 23.72 0 0 0 1-4.24.22.22 0 0 0 -.24-.27h-1.89v16a1.23 1.23 0 0 1 -2.45 0v-17.03a1.25 1.25 0 0 1 2.39-.44h2.14a1.54 1.54 0 0 1 1.77-.34c.71.3 1 1 .67 1.92a25.19 25.19 0 0 1 -2.16 5 .27.27 0 0 0 0 .36 9.13 9.13 0 0 1 2.62 5.67c.16 2.91-2.24 3.49-4.58 2.17z"/><path d="m251.05 140.15v7.24c0 2.06-2.19 2.58-4.6 1.43a.67.67 0 0 1 -.4-.8c.09-.36.36-.48.8-.44 1.41.12 1.66-.11 1.66-.93v-4.89l-.69.36a1.21 1.21 0 0 1 -1.85-.67 1.1 1.1 0 0 1 .8-1.6l1.74-.63v-3.71h-1.72a.68.68 0 0 1 -.76-.74.67.67 0 0 1 .76-.73h1.72v-3a1.12 1.12 0 0 1 1.26-1.24 1.13 1.13 0 0 1 1.28 1.24v3h1.17a.67.67 0 0 1 .76.73.68.68 0 0 1 -.76.74h-1.17v2.62c.29-.15.59-.29.88-.46a.68.68 0 0 1 .95.1c.23.32.14.63-.15.95a15.78 15.78 0 0 1 -1.68 1.43zm12.34 8.77a31.5 31.5 0 0 1 -3.57 0 6.16 6.16 0 0 1 -5-3 8.92 8.92 0 0 1 -2.48 3.21c-.34.26-.61.28-.86 0a.62.62 0 0 1 -.05-.9 11.1 11.1 0 0 0 1.87-5.86 1.12 1.12 0 0 1 1.43-1.17c.84.1 1.09.63 1 1.49a10 10 0 0 1 -.32 1.66 5.41 5.41 0 0 0 1.81 1.47v-5.25h-4.22a.74.74 0 0 1 0-1.47h10.54a.74.74 0 1 1 0 1.47h-3.8v1.76h3a.74.74 0 1 1 0 1.47h-3v2.58c1.16 0 2.35 0 3.55-.1 1-.11 1.51.27 1.53 1.13s-.42 1.47-1.43 1.51zm-9.67-12.11v-4.81a1.27 1.27 0 0 1 1.42-1.22h6.68a1.11 1.11 0 0 1 1.18 1.22v4.77a1.12 1.12 0 0 1 -1.22 1.24h-6.89a1.11 1.11 0 0 1 -1.17-1.2zm2.51-3.13h4.27v-1.13a.25.25 0 0 0 -.26-.26h-3.75a.25.25 0 0 0 -.26.26zm0 2.64a.25.25 0 0 0 .26.26h3.75a.25.25 0 0 0 .26-.26v-1.19h-4.27z"/><path d="m274.4 139.75v7.85c0 1.7-1.41 2.23-3.21 1.47a.59.59 0 0 1 -.38-.74c.06-.31.21-.46.61-.44.9.09 1-.19 1-.84v-1.89h-2.25v3.53c0 .59-.38.92-1 .92s-1-.33-1-.92v-8.92a.84.84 0 0 1 -1-.91v-1.51a1.05 1.05 0 0 1 1-1.19v-4.22a1.09 1.09 0 0 1 1.22-1.22h3.72a1.1 1.1 0 0 1 1.22 1.22v4.22a1.08 1.08 0 0 1 .88 1.19v1.51a.83.83 0 0 1 -.81.89zm-1.22-1.18h.07v-.71a.25.25 0 0 0 -.26-.26h-3.61a.24.24 0 0 0 -.25.26v.73a.75.75 0 0 1 .21 0zm-3.18-6.17v3.74h.59v-2a.84.84 0 0 1 .92-.95h.89v-.75a.24.24 0 0 0 -.26-.25h-1.89a.24.24 0 0 0 -.25.21zm2.14 7.64h-1.76a.24.24 0 0 0 -.25.25v.91h2.25v-.91a.22.22 0 0 0 -.21-.29zm.24 3.74v-1.22h-2.25v1.22zm0-9.47h-.34a.24.24 0 0 0 -.25.25v1.58h.59zm13.43 14a.67.67 0 0 1 -.73.76h-9.78a.77.77 0 0 1 0-1.54h2.3a1.09 1.09 0 0 1 -.1-.25c-.21-.59-.48-1.09-.71-1.66a.54.54 0 0 1 .21-.75s0 0 0 0a1.08 1.08 0 0 1 -1.2-1.22v-1.53a1.05 1.05 0 0 1 1.2-1.18h6.36a1.06 1.06 0 0 1 1.2 1.18v1.57a1.05 1.05 0 0 1 -1.2 1.18h-5.71a.61.61 0 0 1 .14.1 8.7 8.7 0 0 1 1.35 1.53.87.87 0 0 1 .1 1.05h1.83a20.27 20.27 0 0 0 .67-2 .88.88 0 0 1 1.3-.61.83.83 0 0 1 .49 1.32 7.62 7.62 0 0 1 -.89 1.26h2.42a.69.69 0 0 1 .8.75zm-10.58-8.82a.65.65 0 0 1 .72-.73h8.69a.74.74 0 0 1 0 1.47h-8.64a.66.66 0 0 1 -.72-.78zm.28-2.58v-3.82a1.1 1.1 0 0 1 1.21-1.22h1v-1.17c0-.55.36-.87 1-.87s1 .32 1 .87v1.17h.86v-1.17c0-.55.35-.87 1-.87s1 .32 1 .87v1.17h1.05a1.11 1.11 0 0 1 1.24 1.22v3.82a1.12 1.12 0 0 1 -1.24 1.24h-6.93a1.11 1.11 0 0 1 -1.14-1.28zm1.95-2.6h.84v-1h-.59a.24.24 0 0 0 -.25.25zm0 2.16a.24.24 0 0 0 .25.25h.59v-1.09h-.84zm.71 6.74a.24.24 0 0 0 .25.25h3.58a.24.24 0 0 0 .25-.25v-.65a.24.24 0 0 0 -.25-.25h-3.55a.24.24 0 0 0 -.25.25zm1.58-8.9h.84v-1h-.84zm0 2.41h.84v-1.09h-.84zm2.89-3.44h-.63v1h.99v-.78a.24.24 0 0 0 -.31-.26zm.26 2.35h-.89v1.09h.63a.24.24 0 0 0 .26-.25z"/><path d="m188.48 202.39c0-.39-.07-.77-.1-1.16a10.29 10.29 0 0 1 1.71-.14c0 .48.12.91.17 1.32 2.13.05 4.27.12 6.38.22.07-.46.17-.89.26-1.32a12.37 12.37 0 0 1 1.47.21c-.05.39-.1.79-.14 1.18 1.2.05 2.4.12 3.6.19v.7a2.68 2.68 0 0 1 -.1.76h-3.73c-.09.48-.16 1-.26 1.47a4.1 4.1 0 0 1 -1.49-.31c0-.39.08-.8.12-1.18-2.16 0-4.1-.07-5.88-.14.05.43.07.84.12 1.22a8.44 8.44 0 0 1 -1.58.14 14.68 14.68 0 0 1 -.29-1.44c-1.44 0-2.74-.12-3.91-.21a1.71 1.71 0 0 1 -.1-.77 2.22 2.22 0 0 1 .12-.77c1.15 0 2.41.03 3.63.03zm.05 8a8.93 8.93 0 0 1 -.05-1.15 8.48 8.48 0 0 1 1.56-.15c.12.48.22.91.31 1.3h3c0-.45 0-.91.07-1.39a2 2 0 0 1 .75-.17 1.9 1.9 0 0 1 .74.17v1.42h2.95c.12-.43.26-.88.41-1.32a11.05 11.05 0 0 1 1.39.2c-.05.38-.12.76-.19 1.15h2v.67a2.86 2.86 0 0 1 -.12.8h-2.19c-.12.5-.24 1-.38 1.48a3.68 3.68 0 0 1 -1.44-.31 11 11 0 0 1 .19-1.2c-.87 0-1.73 0-2.55 0v2.18h.65a31.52 31.52 0 0 1 3.48.17 2.27 2.27 0 0 1 .09.7 1.7 1.7 0 0 1 -.09.69 20.92 20.92 0 0 1 -3.48.12h-.63v1.25c1.3 0 2.33.07 3.15.17a2.27 2.27 0 0 1 .07.67 2 2 0 0 1 -.07.7 29.92 29.92 0 0 1 -3.19.09c-.05.68-.08 1.35-.12 2a7 7 0 0 1 -.75 0 5.68 5.68 0 0 1 -.69 0c0-.68-.07-1.35-.07-2a20.53 20.53 0 0 1 -2.36-.09 3 3 0 0 1 -.07-.75 1.6 1.6 0 0 1 .12-.69c.72-.05 1.46-.07 2.26-.07 0-.44 0-.85 0-1.28q-5.32 0-5.9-.12a2.47 2.47 0 0 1 0-1.46c1.83-.05 3.79-.07 5.91-.1 0-.72 0-1.44.05-2.18-.92 0-1.81 0-2.69 0 0 .44.07.87.09 1.25a3 3 0 0 1 -1.44.24 8.36 8.36 0 0 1 -.5-1.51c-1 0-2 0-2.93 0a3.43 3.43 0 0 1 -.1-.8 3.21 3.21 0 0 1 0-.69zm9.84-3.41a6.4 6.4 0 0 1 -.14 1.34 113.51 113.51 0 0 1 -11.55-.55 5.5 5.5 0 0 1 .17-1.41c3.84.08 7.68.27 11.52.64z"/><path d="m209.12 204.91a5.19 5.19 0 0 1 .19-1.52c2.59 0 5.19.05 7.73.15a11.63 11.63 0 0 1 .22-2.09h.86a2.18 2.18 0 0 1 .82.15c0 .64-.05 1.34-.12 2.08 2.23.1 4.44.24 6.65.41a10.33 10.33 0 0 1 -.12 1.49q-6.81 0-13.3-.43c-.72 3.48-1.59 7-2.59 10.54a2.69 2.69 0 0 1 -1.56-.37c.74-3.45 1.6-6.86 2.59-10.27-.49-.05-.94-.05-1.37-.14zm6.72 13.94a6.83 6.83 0 0 1 -2.54 1.3 4.17 4.17 0 0 1 -.7-1.25 10 10 0 0 1 2.59-1.3 3.75 3.75 0 0 1 .65 1.25zm2-11.62c0-.33-.05-.67-.08-1a7.15 7.15 0 0 1 1.57-.15c0 .46.09.89.14 1.3 1.39.12 2.93.29 4.56.48a13.13 13.13 0 0 1 .24 2.54c.53 0 1.08.07 1.63.12v.58a2.18 2.18 0 0 1 -.07.67h-1.58a6.46 6.46 0 0 1 -.32 2.11 4.52 4.52 0 0 1 -2.44.43h-1.4c.12 2 .2 3.94.24 5.89a9.9 9.9 0 0 1 -3.12.36 3.22 3.22 0 0 1 -.21-1.08c.48-.1 1-.17 1.56-.27-.1-1.66-.2-3.31-.29-4.94a41.27 41.27 0 0 1 -4.54-.41 2.35 2.35 0 0 1 -.07-.6 1.11 1.11 0 0 1 .1-.62c1.48 0 2.95.09 4.41.09 0-.38 0-.74-.07-1.1-2-.1-3.77-.22-5.26-.39a2.05 2.05 0 0 1 -.07-.67 2.32 2.32 0 0 1 .1-.67c1.73 0 3.43 0 5.14.09 0-.38-.05-.76-.08-1.15-1.32-.12-2.69-.26-4.08-.43a5.44 5.44 0 0 1 .12-1.32c1.15 0 2.45.05 3.89.14zm-2.09 8.43a4.85 4.85 0 0 1 -.43 1.32 9.37 9.37 0 0 1 -2.48-.65 4.73 4.73 0 0 1 .46-1.39c.79.19 1.6.43 2.47.72zm4-5.57 2.6.14c0-.38 0-.74 0-1.1-.86 0-1.75-.07-2.66-.17-.01.39.01.75.06 1.13zm.24 2.67h2.38c0-.36 0-.72 0-1.05-.87 0-1.69 0-2.45-.07 0 .42.02.78.08 1.12zm5 3a6 6 0 0 1 -2.47 1.17 4 4 0 0 1 -.72-1.24 12 12 0 0 1 2.55-1.18 4.78 4.78 0 0 1 .65 1.2zm.24 2.88a5.76 5.76 0 0 1 -.43 1.39 9.3 9.3 0 0 1 -2.83-.86 9.92 9.92 0 0 1 .53-1.37 13 13 0 0 1 2.77.79z"/><path d="m234.08 208.27c.43-.89.84-1.71 1.25-2.48a3.82 3.82 0 0 1 1.27.65c-.29.7-.55 1.37-.84 2 1.15.15 2.3.31 3.46.51a6.55 6.55 0 0 1 -.17 1.24 27 27 0 0 1 -3.91-.28c-.48 1.15-1 2.25-1.44 3.33.52.29 1.05.56 1.58.84.62-1 1.25-2 1.87-2.9a3 3 0 0 1 1.35.46c-.58 1.1-1.18 2.18-1.8 3.21l1.53.91a3.2 3.2 0 0 1 -.6 1.28c-.62-.27-1.22-.53-1.75-.82a1.09 1.09 0 0 0 -.14.24c-.2.29-.36.58-.53.82a5.6 5.6 0 0 1 -.75 1 3.09 3.09 0 0 1 -1.27-.72c.41-.72.82-1.41 1.25-2.09a25.8 25.8 0 0 1 -2.76-1.7c.58-1.46 1.18-2.83 1.75-4.13a13.39 13.39 0 0 1 -1.51-.33 5.23 5.23 0 0 1 .12-1.3zm15.27.84a2.24 2.24 0 0 1 .07.62 2 2 0 0 1 -.07.65 18.61 18.61 0 0 1 -3.2.12c-3.81 0-5.88 0-6.21-.12a2.59 2.59 0 0 1 -.08-.7 1.54 1.54 0 0 1 .14-.68c1.28 0 2.64-.07 4.09-.09-.1-.72-.15-1.47-.2-2.21a23.94 23.94 0 0 1 -3.36-.12 2.12 2.12 0 0 1 -.07-.65 1.25 1.25 0 0 1 .12-.62c1-.05 2.09-.07 3.24-.07-.05-.87-.05-1.73-.05-2.6l.91-.07h.82c.05.86.1 1.75.14 2.61h.36a25.16 25.16 0 0 1 3.1.17 1.89 1.89 0 0 1 .07.6 1.36 1.36 0 0 1 -.07.6 16.31 16.31 0 0 1 -3.1.12h-.29c0 .74 0 1.49.05 2.21h.43a26.75 26.75 0 0 1 3.16.23zm-3.51 2.11c0 .86.1 1.73.14 2.57a23.92 23.92 0 0 1 3 .17 2 2 0 0 1 .07.64 1.64 1.64 0 0 1 -.07.63 16.49 16.49 0 0 1 -3 .12c0 .91.05 1.82.05 2.73 1.25-.07 2.57-.14 3.91-.19a2.56 2.56 0 0 1 .1.67 4.28 4.28 0 0 1 -.05.75c-3.19.31-6.46.5-9.77.57a12.44 12.44 0 0 1 -.07-1.37l4.23-.31c-.1-1-.17-1.92-.2-2.85a27.37 27.37 0 0 1 -3.62-.12 2.48 2.48 0 0 1 -.07-.68 1.46 1.46 0 0 1 .12-.67c1.08 0 2.25-.07 3.5-.09 0-.84 0-1.68 0-2.52.27 0 .58-.05.92-.1a6.39 6.39 0 0 1 .81.05z"/><path d="m257.48 208.27c.43-.89.84-1.71 1.25-2.48a3.82 3.82 0 0 1 1.27.65c-.29.7-.55 1.37-.84 2 1.15.15 2.3.31 3.46.51a6.55 6.55 0 0 1 -.17 1.24 27 27 0 0 1 -3.91-.28c-.48 1.15-1 2.25-1.44 3.33.52.29 1 .56 1.58.84.62-1 1.25-2 1.87-2.9a3 3 0 0 1 1.35.46c-.58 1.1-1.18 2.18-1.8 3.21l1.53.91a3.2 3.2 0 0 1 -.6 1.28c-.62-.27-1.22-.53-1.75-.82a1.09 1.09 0 0 0 -.14.24c-.2.29-.36.58-.53.82a5.6 5.6 0 0 1 -.75 1 3.09 3.09 0 0 1 -1.27-.72c.41-.72.82-1.41 1.25-2.09a25.8 25.8 0 0 1 -2.76-1.7c.58-1.46 1.18-2.83 1.75-4.13a13.39 13.39 0 0 1 -1.51-.33 5.23 5.23 0 0 1 .12-1.3zm15.27.84a2.24 2.24 0 0 1 .07.62 2 2 0 0 1 -.07.65 18.61 18.61 0 0 1 -3.2.12c-3.81 0-5.88 0-6.21-.12a2.65 2.65 0 0 1 -.07-.7 1.4 1.4 0 0 1 .12-.65c1.27 0 2.64-.07 4.08-.09-.1-.72-.15-1.47-.2-2.21a23.94 23.94 0 0 1 -3.36-.12 2.12 2.12 0 0 1 -.07-.65 1.25 1.25 0 0 1 .12-.62c1-.05 2.09-.07 3.24-.07-.05-.87-.05-1.73-.05-2.6l.92-.07h.81c.05.86.1 1.75.15 2.61h.33a25.16 25.16 0 0 1 3.1.17 1.89 1.89 0 0 1 .07.6 1.36 1.36 0 0 1 -.07.6 16.31 16.31 0 0 1 -3.1.12h-.29c0 .74 0 1.49.05 2.21h.43a26.75 26.75 0 0 1 3.2.2zm-3.51 2.11c.05.86.1 1.73.15 2.57a23.86 23.86 0 0 1 3 .17 2 2 0 0 1 .07.64 1.64 1.64 0 0 1 -.07.63 16.49 16.49 0 0 1 -3 .12c0 .91.05 1.82.05 2.73 1.25-.07 2.57-.14 3.91-.19a2.56 2.56 0 0 1 .1.67 4.28 4.28 0 0 1 -.05.75c-3.19.31-6.46.5-9.77.57a12.44 12.44 0 0 1 -.07-1.37l4.23-.31c-.1-1-.17-1.92-.2-2.85a27.37 27.37 0 0 1 -3.62-.12 2.48 2.48 0 0 1 -.07-.68 1.46 1.46 0 0 1 .12-.67c1.08 0 2.25-.07 3.5-.09-.05-.84-.05-1.68-.05-2.52.27 0 .58-.05.92-.1a6.39 6.39 0 0 1 .85.05z"/><path d="m278.53 207.47c0 1.44 0 3-.15 4.78a2.37 2.37 0 0 1 -.79.1c-.38 0-.62 0-.74-.2 0-2.11 0-3.69.12-4.77a6.39 6.39 0 0 1 .81 0 2.21 2.21 0 0 1 .75.09zm2.23 4.3c0 .38 0 1.08-.07 2.07.67.09 1.32.23 2 .38a6 6 0 0 0 -.1.62c-.05.31-.1.55-.14.7a4.79 4.79 0 0 1 -1.3-.17 2.16 2.16 0 0 1 -.5-.12 7.89 7.89 0 0 0 -.05.84v.38l2.07.29c-.05.24-.07.46-.1.65a5 5 0 0 1 -.14.67 6.37 6.37 0 0 1 -1.43-.08 2.42 2.42 0 0 1 -.53-.09c-.05.86-.12 1.7-.19 2.52a7.17 7.17 0 0 1 -1.49-.15c0-1.92.12-4.8.38-8.64a9.78 9.78 0 0 1 1.59.13zm-.41-8.9c0 1.39.1 2.83.1 4.32a1.08 1.08 0 0 1 -.7.19 1.93 1.93 0 0 1 -.67-.1c-.1-1.44-.12-2.88-.12-4.32a1.88 1.88 0 0 1 .7-.19 2 2 0 0 1 .69.1zm4.11 2.52v-1.66a19.49 19.49 0 0 1 -3.17-.41 1.9 1.9 0 0 1 -.1-.69 2.06 2.06 0 0 1 .1-.63c1.56.05 3.17.17 4.85.39 0 2.2-.05 4.15-.15 5.88h1v3.77a1.72 1.72 0 0 1 -.67.1 4.59 4.59 0 0 1 -.77-.05c0-.5-.05-1.32-.08-2.47-2 0-4.1-.07-6.16-.24a3.13 3.13 0 0 1 -.08-.75 2.81 2.81 0 0 1 0-.62h2.52c-.05-.57-.07-1.15-.07-1.72a1.68 1.68 0 0 1 -.55-.08 4.11 4.11 0 0 1 .12-1.15c1.09.13 2.15.23 3.21.33zm1.05 6.31c0 3.55-.09 6.48-.28 8.76a4.3 4.3 0 0 1 -2.29-.34c0-.36 0-.69 0-1a4.69 4.69 0 0 1 .86 0c0-2.16.05-4.22.1-6.19a8.87 8.87 0 0 1 -1.87-.34 2.17 2.17 0 0 1 -.05-.6 1.89 1.89 0 0 1 .07-.6 22.05 22.05 0 0 1 3.46.31zm-1.05-5.11a11.28 11.28 0 0 1 -1.32-.08c0 .56 0 1.08.07 1.61l1.25.07zm11.66 11.06a3.83 3.83 0 0 1 -.6 1.47h2.31v1.3c-2.52.14-5.93.21-10.25.21a6 6 0 0 1 -.15-1.32 13.87 13.87 0 0 1 2.19-.14 6.74 6.74 0 0 1 -.46-1.73l1.44-.21a10.2 10.2 0 0 1 .7 1.92h2.7a5 5 0 0 1 1-1.88c.31.09.71.24 1.12.38zm-4.27-16.06c0 .48 0 .94.07 1.37h1.25a13.88 13.88 0 0 1 .07-1.44 3.19 3.19 0 0 1 .7-.08 2.73 2.73 0 0 1 .67.08c0 .52.05 1 .07 1.51 1 .05 1.92.12 2.88.19a22.72 22.72 0 0 1 .19 3.74c0 1.11 0 1.95-.09 2.48a59.91 59.91 0 0 1 -6 .19 24.46 24.46 0 0 1 -3.84-.29 6.39 6.39 0 0 1 -.29-2.33c0-.67.05-1.89.14-3.67a2.61 2.61 0 0 1 .7-.1 2.93 2.93 0 0 1 .65.1v2.16h1.32c0-.41 0-.82 0-1.25a4.83 4.83 0 0 1 -.7 0 1.12 1.12 0 0 1 -.12-.67 3.08 3.08 0 0 1 .05-.65h.81c0-.43 0-.88.05-1.32h.67a6.64 6.64 0 0 1 .75-.02zm5.59 8.91v1.25c-2.3.14-5.45.21-9.43.21a5.74 5.74 0 0 1 -.12-1.32c.58 0 1.37-.09 2.42-.14zm-.86 2.71a10 10 0 0 1 .14 1.75 4 4 0 0 1 -.19 1.47 7.06 7.06 0 0 1 -2.81.36c-2.69 0-4.34-.15-5-.48a13.74 13.74 0 0 1 -.14-1.8 9.83 9.83 0 0 1 .14-1.47 3.19 3.19 0 0 1 .7-.09 4.83 4.83 0 0 1 .65 0c.09 1 .14 1.76.14 2.21a25.68 25.68 0 0 0 3.46.17 6.45 6.45 0 0 0 1.49-.1c0-.33 0-.64 0-1-.36-.07-1.75-.21-4.17-.45a2.48 2.48 0 0 1 -.05-.65 2.2 2.2 0 0 1 .05-.57 20.58 20.58 0 0 1 5.59.65zm-7.51-5c2.4.1 4.77.14 7.12.14a8.34 8.34 0 0 0 .08-1.32c0-.72 0-1.53 0-2.44a13.82 13.82 0 0 1 -1.49-.08v.94h.79a1.86 1.86 0 0 1 .1.6 4.32 4.32 0 0 1 -.05.69c-.31 0-.62 0-.91 0-.05.36-.1.67-.17 1a2.28 2.28 0 0 1 -.65.07 1.62 1.62 0 0 1 -.57-.07 5.42 5.42 0 0 1 -.1-.94c-.43 0-.86 0-1.25 0-.05.36-.09.68-.14 1a2 2 0 0 1 -.67.08 1.4 1.4 0 0 1 -.56-.08 5.19 5.19 0 0 1 -.14-.93c-.48 0-.94 0-1.37 0-.09.36-.02.82-.02 1.3zm2.88-3.82v1.11h1.15c0-.33 0-.69 0-1-.41-.1-.82-.12-1.1-.15z"/></g><path d="m9 1.69c.32.21.59.4.81.56a.3.3 0 0 1 -.06.09l-.27.38h3.52a.11.11 0 0 1 .12.12v.39q0 .15-.12.15h-3.5v2.54h3.07a.11.11 0 0 1 .12.12v.39c0 .11 0 .16-.12.16h-3.07v2.61h3.93a.11.11 0 0 1 .12.12v.39c0 .1 0 .16-.12.16h-8.66c-.08 0-.12-.06-.12-.16v-.39a.11.11 0 0 1 .12-.12h4v-2.61h-3.22c-.08 0-.12 0-.12-.16v-.43a.11.11 0 0 1 .12-.12h3.2v-2.5h-3.55q-.12 0-.12-.15v-.39a.11.11 0 0 1 .12-.12h4.15a10.33 10.33 0 0 0 -1-.67 6.2 6.2 0 0 0 -.77-.39 2.33 2.33 0 0 1 .31-.44s.11-.06.11-.06a10.57 10.57 0 0 1 1 .53z" fill="#363736"/><path d="m23.35 1.55s.08 0 .08.11v.34c0 .1 0 .15-.08.15h-2.8v.85h2.14c.1 0 .16 0 .16.12v2.33c0 .08-.06.12-.16.12h-3.2c.05 0 .08.07.08.08s0 .09-.07.09a.3.3 0 0 0 -.24.1c-.13.22-.25.41-.37.59h4.62s.08 0 .08.12v.31c0 .11 0 .16-.08.16h-1.72a4.73 4.73 0 0 1 -.43.69 3.37 3.37 0 0 1 -.7.75l.94.37c.68.28 1.36.58 2 .92a.24.24 0 0 1 -.06.14c-.23.27-.37.41-.41.41a.56.56 0 0 1 -.15 0c-.78-.38-1.43-.68-1.94-.89l-1.04-.47a4.53 4.53 0 0 1 -.54.27 12.29 12.29 0 0 1 -1.48.53c-.72.2-1.57.38-2.55.56-.08 0-.12 0-.13-.08a5.26 5.26 0 0 1 -.32-.49.21.21 0 0 1 -.09-.14 4.84 4.84 0 0 0 .79-.09c.42-.06.88-.13 1.38-.22a12.19 12.19 0 0 0 1.68-.47 3 3 0 0 0 .36-.16c-.54-.16-1.15-.31-1.83-.47l-.66.51a.29.29 0 0 1 -.21-.09l-.31-.25a.15.15 0 0 1 -.09-.12c.32-.24.64-.49 1-.76a4.22 4.22 0 0 0 .44-.47h-2.75c-.06 0-.08 0-.08-.16v-.29c0-.08 0-.12.08-.12h3.31a.44.44 0 0 0 0-.11 6.17 6.17 0 0 0 .47-.75h-2.88c-.11 0-.16 0-.16-.12v-2.34c0-.08.05-.12.16-.12h2v-.86h-2.74c-.06 0-.08 0-.08-.15v-.32c0-.07 0-.11.08-.11zm-5.73 2.07h-1.48v1.32h1.48zm.83 3.38a5.92 5.92 0 0 1 -.58.62c.57.13 1.1.27 1.6.43l.43.13a3.89 3.89 0 0 0 .64-.56 3.45 3.45 0 0 0 .46-.62zm1.4-4.89h-1.53v.89h1.53zm0 1.49h-1.53v1.34h1.53zm2.29 0h-1.59v1.34h1.59z" fill="#363736"/><path d="m31.18 3.81a.28.28 0 0 1 .18 0c.13.12.21.2.21.26l-1.92 2v.63h3.78c.08 0 .12.06.12.16v.39c0 .11 0 .16-.12.16h-3.82v2.14c0 .52-.37.79-1.09.79h-.74c-.05 0-.08-.07-.09-.2a1.18 1.18 0 0 0 -.19-.51c0-.06 0-.08.08-.08a4.89 4.89 0 0 0 .94.12.31.31 0 0 0 .35-.35v-1.91h-4c-.08 0-.12 0-.12-.16v-.39c0-.1 0-.16.12-.16h4v-1a.14.14 0 0 1 .13-.21l.23.11 1.17-1.16h-3.6c-.08 0-.12-.05-.12-.16v-.28c0-.1 0-.16.12-.16zm-1.53-2.54c0 .09 0 .14-.1.15s-.09.08-.09.2v.55h3.54c.1 0 .16 0 .16.12v2c0 .08-.06.12-.16.12h-.39c-.11 0-.16 0-.16-.12v-1.49h-6.78v1.44c0 .08-.06.12-.16.12h-.39c-.11 0-.16 0-.16-.12v-1.91a.14.14 0 0 1 .16-.16h3.59v-.9c0-.06.05-.11.16-.11.52 0 .78.05.78.11z" fill="#363736"/><path d="m38.83 7.44v-.89c0-.08.05-.12.16-.12.49 0 .74 0 .74.12s0 .14-.1.14-.1.09-.1.21v.54h2.85c.07 0 .11.06.11.16v.31c0 .11 0 .16-.11.16h-2.85v1.29h3.9c.08 0 .12.05.12.16v.31q0 .15-.12.15h-8.66q-.12 0-.12-.15v-.31c0-.11 0-.16.12-.16h4.06v-1.29h-3c-.08 0-.11-.05-.11-.16v-.31c0-.1 0-.16.11-.16zm.7-5.89s.08 0 .08.11v.34c0 .1 0 .15-.08.15h-.85v1.66h1c.08 0 .12.06.12.16v.31c0 .11 0 .16-.12.16h-1v2c0 .08-.06.12-.16.12h-.39c-.11 0-.16 0-.16-.12v-2h-1.35a.26.26 0 0 0 0 .07 4.74 4.74 0 0 1 -.42 1.39 4 4 0 0 1 -.5.76h-.07a5 5 0 0 1 -.62-.2s0 0 0-.11a3.06 3.06 0 0 0 .59-.72 3 3 0 0 0 .36-1 1.77 1.77 0 0 1 0-.2h-1.15c-.08 0-.12-.05-.12-.16v-.27c0-.1 0-.16.12-.16h1.19c0-.37 0-.8 0-1.29 0-.09 0-.22 0-.39h-1c0-.03 0-.08 0-.16v-.34c0-.07 0-.11.08-.11zm-1.53.58h-1.27a.28.28 0 0 0 0 .08v1.6h1.27zm3.47-.19c0 .09 0 .14-.09.14s-.11.09-.11.21v3.05c0 .08-.05.11-.14.11h-.39c-.11 0-.16 0-.16-.11v-3.4c0-.08.05-.12.16-.12.45 0 .7.04.7.12zm1.92-.55c.07 0 .11.06.11.08s0 .09-.12.09-.19.2-.19.46v4.1c0 .47-.36.7-1 .7h-.79s-.08-.05-.08-.17a1.86 1.86 0 0 0 -.18-.46s0-.07.06-.07a5.07 5.07 0 0 0 .83.07c.27 0 .42-.11.42-.35v-3.84a2.44 2.44 0 0 0 0-.44.5.5 0 0 1 0-.19c0-.05.06-.08.19-.08z" fill="#363736"/><path d="m0 .09h.84v11.26h-.84z" fill="#363736"/><path d="m190.42 6.42c.16.36.25.56.25.58a.17.17 0 0 1 0 .12c-.35.62-.68 1.14-1 1.57-.18.25-.38.52-.62.8a.5.5 0 0 0 -.07.29c0 .07 0 .11-.07.11s-.27-.21-.64-.63a.13.13 0 0 1 -.07-.11.13.13 0 0 1 .05-.11 4.08 4.08 0 0 0 .62-.58 12.92 12.92 0 0 0 .84-1.09c.23-.35.43-.66.61-1 0 0 .05-.06.07-.06s.02.07.03.11zm-.1-4.09q.12 0 .12.15v.39c0 .11 0 .16-.12.16h-1.91c-.08 0-.12 0-.12-.16v-.39q0-.15.12-.15zm4 1.52c.06 0 .1 0 .1.08s0 .07-.08.12a.34.34 0 0 0 -.15.23q-.06.6-.12 1a5.67 5.67 0 0 0 .14 1.16 5.83 5.83 0 0 0 .38 1 3.34 3.34 0 0 0 .53.76 3.48 3.48 0 0 0 .83.73 4.21 4.21 0 0 0 1.17.54c0 .06 0 .1-.1.14a4.48 4.48 0 0 0 -.36.4.29.29 0 0 1 -.13.09 6.72 6.72 0 0 1 -1.17-.66 2.68 2.68 0 0 1 -.78-.76 4.44 4.44 0 0 1 -.59-.89 3.64 3.64 0 0 1 -.31-.77c0 .11-.08.21-.11.31a4.28 4.28 0 0 1 -.64 1.18 6 6 0 0 1 -.93 1.08 7.19 7.19 0 0 1 -.78.5.26.26 0 0 1 -.22-.09 3.81 3.81 0 0 0 -.32-.41.24.24 0 0 1 -.06-.11c0-.06 0-.11 0-.13a2.75 2.75 0 0 0 1-.56 3.77 3.77 0 0 0 .91-1 5 5 0 0 0 .49-1 7.09 7.09 0 0 0 .31-1.33 8 8 0 0 0 .1-1.46c0-.14 0-.22.09-.22zm-1-2.44c.07.06.11.1.11.13a.15.15 0 0 1 -.12.16.16.16 0 0 0 -.17.13l-.21.65h4a.27.27 0 0 1 .19 0c.14.12.2.2.2.26l-1.43 2.56s-.06.07-.1.07c-.4-.1-.59-.19-.59-.27l1.1-2h-3.66l-.1.22c-.18.37-.37.72-.56 1.06a7.34 7.34 0 0 1 -.64.79.73.73 0 0 1 -.23 0c-.14-.07-.27-.11-.41-.17s-.07 0-.07-.08a.1.1 0 0 1 .05-.08 5.4 5.4 0 0 0 .95-1.28 5.41 5.41 0 0 0 .44-.94 11.74 11.74 0 0 0 .39-1.35q0-.09.09-.09z" fill="#363736"/><path d="m206.92 1.47c.05 0 .08 0 .08.11v.32c0 .1 0 .15-.08.15h-2.81v.86h2.15c.1 0 .16 0 .16.12v2.34c0 .08-.06.11-.16.11h-3.21l.08.08c0 .07 0 .09-.07.09a.34.34 0 0 0 -.24.1c-.13.22-.25.41-.37.59h4.63s.07 0 .07.13v.3c0 .12 0 .16-.07.16h-1.72a4.78 4.78 0 0 1 -.44.69 3.37 3.37 0 0 1 -.7.75l.94.37c.69.28 1.37.58 2 .92a.22.22 0 0 1 -.05.14c-.23.27-.37.41-.41.41a.56.56 0 0 1 -.15 0c-.78-.38-1.43-.68-1.94-.89l-1.12-.43a4.53 4.53 0 0 1 -.54.27 12.29 12.29 0 0 1 -1.48.53c-.72.2-1.57.38-2.55.56-.08 0-.12 0-.13-.08a5.26 5.26 0 0 1 -.32-.49.21.21 0 0 1 -.09-.14 4.84 4.84 0 0 0 .79-.09c.42-.06.88-.13 1.38-.22a12.19 12.19 0 0 0 1.68-.47 3 3 0 0 0 .36-.16c-.54-.16-1.15-.31-1.83-.47l-.66.51a.29.29 0 0 1 -.21-.09l-.31-.25a.15.15 0 0 1 -.07-.12c.32-.24.64-.49 1-.76a4.22 4.22 0 0 0 .49-.45h-2.75c-.06 0-.08 0-.08-.16v-.3c0-.08 0-.13.08-.13h3.26a.44.44 0 0 0 .09-.11 6.17 6.17 0 0 0 .47-.75h-2.92c-.11 0-.16 0-.16-.11v-2.41c0-.08 0-.12.16-.12h2v-.83h-2.77c-.06 0-.08 0-.08-.15v-.32c0-.07 0-.11.08-.11zm-5.74 2.07h-1.48v1.32h1.48zm.82 3.39a5.92 5.92 0 0 1 -.58.62c.57.13 1.1.27 1.6.43l.43.13a3.89 3.89 0 0 0 .64-.56 3.06 3.06 0 0 0 .49-.63zm1.4-4.88h-1.53v.86h1.53zm0 1.49h-1.53v1.32h1.53zm2.3 0h-1.6v1.32h1.6z" fill="#363736"/><path d="m214.74 3.73a.26.26 0 0 1 .18 0c.14.12.21.2.21.26l-1.92 2v.54h3.79c.08 0 .12.06.12.16v.39c0 .11 0 .16-.12.16h-3.79v2.22c0 .52-.37.79-1.09.79h-.74c-.05 0-.08-.07-.09-.2a1.18 1.18 0 0 0 -.19-.51c0-.06 0-.08.08-.08a4.89 4.89 0 0 0 .94.12.31.31 0 0 0 .35-.35v-1.91h-4c-.08 0-.12-.05-.12-.16v-.39c0-.1 0-.16.12-.16h4v-1.05a.15.15 0 0 1 .16-.16l.23.12 1.14-1.16h-3.6c-.08 0-.12-.06-.12-.16v-.31c0-.1 0-.16.12-.16zm-1.53-2.54c0 .09 0 .14-.1.15s-.09.08-.09.2v.55h3.55c.1 0 .16 0 .16.12v2c0 .08-.06.12-.16.12h-.39c-.11 0-.16 0-.16-.12v-1.49h-6.79v1.44c0 .08-.06.12-.16.12h-.39c-.11 0-.16 0-.16-.12v-1.91a.14.14 0 0 1 .16-.16h3.59v-.9c0-.07 0-.11.16-.11.57 0 .78.04.78.11z" fill="#363736"/><path d="m222.39 7.35v-.88c0-.08.05-.13.16-.13.49 0 .74 0 .74.13s0 .13-.1.13-.1.09-.1.21v.54h2.91c.07 0 .11.06.11.16v.31c0 .11 0 .16-.11.16h-2.86v1.29h3.86c.08 0 .11.05.11.16v.31c0 .1 0 .15-.11.15h-8.67q-.12 0-.12-.15v-.31c0-.11 0-.16.12-.16h4.06v-1.27h-3c-.08 0-.11-.05-.11-.16v-.33c0-.1 0-.16.11-.16zm.7-5.88s.08 0 .08.11v.32c0 .1 0 .15-.08.15h-.85v1.68h1c.08 0 .12.06.12.16v.31c0 .1 0 .16-.12.16h-1v2c0 .08-.06.11-.16.11h-.39c-.11 0-.16 0-.16-.11v-2h-1.35a.23.23 0 0 0 0 .07 4.58 4.58 0 0 1 -.41 1.38 4 4 0 0 1 -.5.76h-.07a5 5 0 0 1 -.62-.19.12.12 0 0 1 0-.12 3 3 0 0 0 .59-.71 3 3 0 0 0 .36-1s0-.12 0-.19h-1.14c-.08 0-.12-.06-.12-.16v-.31c0-.1 0-.16.12-.16h1.21c0-.37 0-.8 0-1.29 0-.09 0-.22 0-.39h-1c-.06 0-.08 0-.08-.15v-.32c0-.07 0-.11.08-.11zm-1.56.58h-1.24a.28.28 0 0 0 0 .08v1.6h1.29zm3.47-.19c0 .09 0 .14-.1.14s-.1.09-.1.21v3.05c0 .07-.05.11-.15.11h-.39c-.11 0-.16 0-.16-.11v-3.4c0-.08 0-.12.16-.12.5 0 .74.04.74.12zm1.92-.56c.07 0 .11.07.11.09s0 .09-.12.09-.19.2-.19.46v4.06c0 .46-.36.69-1.06.69h-.66c-.06 0-.08-.05-.08-.17a2.14 2.14 0 0 0 -.19-.46s0-.06.07-.06a6.33 6.33 0 0 0 .82.06c.28 0 .43-.11.43-.35v-3.81a2.44 2.44 0 0 0 0-.44.54.54 0 0 1 0-.19c0-.05.06-.08.19-.08z" fill="#363736"/><path d="m183.56 0h.84v11.26h-.84z" fill="#363736"/><path d="m9.8 45.25a16.88 16.88 0 0 1 -2 2.74 14.86 14.86 0 0 1 -1.43 1.5c2.31-.1 4.42-.24 6.29-.39-.44-.51-.92-1-1.43-1.53l1.77-1.06a20.42 20.42 0 0 1 3.52 4.18l-1.93 1.13c-.22-.39-.45-.79-.71-1.16q-5.2.59-11.44 1l-.34-1.97 1.9-.08a19.89 19.89 0 0 0 1.77-2 17.43 17.43 0 0 0 1.84-3zm5.44 14.81h-1.92v-.8h-8v.8h-1.9v-7.77h11.82zm-1.92-2.6v-3.38h-8v3.38z" fill="#727171"/><path d="m21.19 50.1-1.33 1.65a12.67 12.67 0 0 0 -1.73-1.45l1.41-1.46a9.61 9.61 0 0 1 1.65 1.26zm.27 4a49.65 49.65 0 0 1 -1.26 6l-1.87-1a40 40 0 0 0 1.4-5.58zm.14-8-1.35 1.6a10.05 10.05 0 0 0 -1.64-1.46l1.39-1.46a10.89 10.89 0 0 1 1.6 1.27zm2.58-.73c-.44.77-.83 1.41-1.21 2a1 1 0 0 0 .21.17 17.87 17.87 0 0 0 .93-1.53l1.26.52c-.32.51-.63 1-.9 1.36l.65-.3c.2.7.37 1.44.52 2.26l-1.14.47c0-.1 0-.2 0-.3l-.36.07v3.09h-1.35v-2.95c-.43.07-.85.14-1.26.19l-.2-1.26a5.92 5.92 0 0 0 .67-.06l.5-.62c-.48-.4-1-.81-1.46-1.24l.73-.93a3.16 3.16 0 0 0 .27.2 16.23 16.23 0 0 0 .93-1.73zm-1.53 5.44a10.5 10.5 0 0 1 -.46 2.19l-1.14-.41a9.79 9.79 0 0 0 .48-2zm10.1 2.59v3.06h-8.84l-.07.39h9.5c-.13 1.53-.4 2.46-.81 2.84a2.37 2.37 0 0 1 -1.58.49 7.53 7.53 0 0 1 -1.33-.18l-.25-1.32a9.83 9.83 0 0 0 1.39.13.55.55 0 0 0 .37-.1c.11-.08.17-.27.22-.58h-7.71l-.12.8-1.74-.32.55-3.52h8.67v-.41h-8.88v-1.33zm-8.59-5.12-.45.63c.2 0 .39 0 .57-.09-.03-.23-.08-.42-.12-.59zm1.41 4-1.07.26a14.51 14.51 0 0 0 -.25-1.85l1-.21a10.73 10.73 0 0 1 .32 1.74zm6.24-6.9c-.37.68-.73 1.26-1 1.74l.25.18a14.44 14.44 0 0 0 .94-1.52l1.26.53c-.39.58-.77 1.09-1.11 1.56l.65-.3a13.3 13.3 0 0 1 .86 2.19l-1.13.47c0-.1-.06-.22-.09-.32l-.44.09v.68l1-.26a8.06 8.06 0 0 1 .61 1.94l-1.27.32a8 8 0 0 0 -.34-1.78v2.19h-1.38v-2.87c-.49.08-1 .15-1.46.2l-.16-1.26c.2 0 .41 0 .61-.06.24-.28.48-.56.7-.84-.45-.34-.87-.69-1.31-1v.29h-3.43v-1.24h3.43v.47l.52-.68c.11.07.19.14.28.19.3-.51.56-1 .8-1.51zm-2.92 5.1v2.52h-3.18v-2.6zm0-5.44v1.07h-3.11v-1.11zm-.14 2.79v1.07h-3v-1.13zm0 1.33v1.07h-3v-1.13zm-1.12 2.84v-.46h-.63v.46zm2.86-1.19a9.44 9.44 0 0 1 -.39 1.92l-1.1-.44a10 10 0 0 0 .34-1.73zm1.34-2.53c-.19.25-.36.48-.53.68a7.37 7.37 0 0 0 .75-.12z" fill="#727171"/><path d="m50.12 50.69v1.67h-7.7v7.84h-1.87v-1.43c-1.63.2-3.4.39-5.3.56l-.34-1.87c.37 0 .73 0 1.07-.05v-5h-1.14v-1.72zm-1.73-5.84v5.45h-11.88v-5.45zm-7.84 8.15v-.59h-2.79v.59zm0 2.13v-.6h-2.79v.6zm0 2.07v-.54h-2.79v.71c1.02-.1 1.94-.15 2.79-.22zm6-10.25v-.52h-8.19v.52zm0 1.87v-.52h-8.19v.47zm2.71 4v1.26a11.1 11.1 0 0 1 -1.52 3.07 8.7 8.7 0 0 0 2.46 1.11l-.94 1.8a9.44 9.44 0 0 1 -2.8-1.56 8.38 8.38 0 0 1 -2.91 1.63l-.93-1.74a7.27 7.27 0 0 0 2.5-1.2 9.66 9.66 0 0 1 -1.62-2.71h-.68v-1.66zm-2.95 3.18a7 7 0 0 0 .89-1.48h-1.92a6.42 6.42 0 0 0 1.03 1.48z" fill="#727171"/><path d="m60.19 44.64v1h6.3v1.73h-14.6v-1.72h6.24v-1zm6.1 13.36c0 1.41-.8 2.13-2.38 2.13a5.5 5.5 0 0 1 -.66-.07l-.41-1.87a3 3 0 0 0 1.07.2c.3 0 .46-.29.46-.86v-3.66h-10.37v6.26h-2v-8h14.29zm-1.92-10.23v3.93h-10.49v-3.93zm-1.67 10.62h-5.51v.67h-1.78v-4.71h7.29zm-.18-8.29v-.73h-6.79v.73zm-1.6 6.7v-.8h-3.73v.85z" fill="#727171"/><path d="m70.18 59.65h-1.92v-12.47h1.53c.22-.82.39-1.64.53-2.47l2 .48a20 20 0 0 1 -.48 2h2.53v3a14.86 14.86 0 0 0 1.13-2.37 20.13 20.13 0 0 0 1.07-3.14l2 .61c-.17.63-.34 1.24-.53 1.86h4.76c0 6.51-.23 10.28-.63 11.32a2.22 2.22 0 0 1 -2.35 1.7 7.64 7.64 0 0 1 -1.94-.28l-.39-2.05a10.78 10.78 0 0 0 2.33.32c.36 0 .6-.27.7-.82a67.4 67.4 0 0 0 .29-8.34h-3.49a16 16 0 0 1 -1.56 3.13l-1.4-1v7.87h-1.92v-.92h-2.26zm2.26-7.77v-2.88h-2.26v2.85zm0 1.81h-2.26v2.58h2.26zm7.11 1.53-2.06.66a16.42 16.42 0 0 0 -1.14-3.88l1.87-.59a17.07 17.07 0 0 1 1.33 3.81z" fill="#727171"/><path d="m87.29 47.18v9.62h3.85v-11.95h2v11.95h3.86v-9.62h2v12.74h-2v-1.25h-9.7v1.25h-2v-12.74z" fill="#727171"/><path d="m5 28.43v-.63l.82.08c.16 0 .24.05.24.13a.45.45 0 0 1 -.16.22v.2h2.1v-.63l.82.08c.15 0 .22.05.22.13a.44.44 0 0 1 -.14.22v.2h2.33v.78h-2.34v.59h-.89v-.59h-2.12v.59h-.88v-.59h-2.48v-.78zm5.44 1.57v.74h-1.12v.86h1.68v.78h-1.68v1h1.39v.74h-3.27v.7h3v.79h-3v1.17h-.9v-1.16h-3.16v-.79h3.16v-.7h-3.39v-.74h1.48v-1h-1.72v-.78h1.72v-.86h-1.29v-.75zm-3.9.74h-1v.86h1zm0 1.64h-1v1h1zm1.92-1.64h-1v.86h1zm0 1.64h-1v1h1z" fill="#00b2e1"/><path d="m17.7 27.88c.16 0 .25.05.25.13s-.07.13-.19.22v.24h3.42v.82h-3.31v.58h2.3v1.25h1.17v.78h-1.17v1.33h-2.1a6.17 6.17 0 0 0 1 1.25 10.08 10.08 0 0 0 1.29-1l.61.63a.24.24 0 0 1 .06.15c0 .06-.1.08-.28.08-.36.22-.72.42-1.08.62a8.72 8.72 0 0 0 1.75 1l-.86.66a7.91 7.91 0 0 1 -1.74-1.22 5.4 5.4 0 0 1 -.91-1v1.24a1.12 1.12 0 0 1 -.32.87c-.18.2-.64.3-1.36.3l-.35-.9h.72c.25 0 .39-.14.41-.43v-.35c-.66.36-1.57.8-2.73 1.33-.07.1-.14.15-.2.15s-.1-.05-.1-.14l-.21-.87a14.64 14.64 0 0 0 3.23-1.24v-1.13h-2.3v-.74h2.3v-.59h-3v.1a16.75 16.75 0 0 1 -.19 2.6 17.2 17.2 0 0 1 -.52 2.17l-.86-.43a13.71 13.71 0 0 0 .52-2 16.36 16.36 0 0 0 .12-2.34v-3.53h3.75v-.67zm-.7 1.41h-3v1.83h3v-.5h-2.3v-.75h2.3zm-.78 4.92-.54.59a13.53 13.53 0 0 0 -1.68-.9l.58-.55a9.43 9.43 0 0 1 1.61.86zm1.68-3.09h1.45v-.5h-1.48zm0 1.37h1.45v-.59h-1.48z" fill="#00b2e1"/><path d="m24.32 35.15a7.43 7.43 0 0 1 -.9 1.68l-.94-.32a6.27 6.27 0 0 0 1-1.56zm6.28-7.06v3.54h-3.24v.7h3.51v.75h-3.51v.7h4.06v.74h-8.9v-.74h4v-.7h-3.52v-.75h3.52v-.7h-3.26v-3.54zm-4.09.73h-2.39v2.07h1.32c-.28-.48-.59-1-.93-1.45l.71-.35c.35.51.66 1 .93 1.49l-.52.31h.88zm-.08 7.93h-1c0-.36 0-.69 0-1s0-.35 0-.62h.74a5.33 5.33 0 0 1 .26 1.62zm3.31-7.93h-2.38v2.07h1l-.61-.27a5.19 5.19 0 0 0 .86-1.62l.68.31c.07 0 .11.06.11.08a.25.25 0 0 1 -.08.16 8.56 8.56 0 0 1 -.69 1.33h1.11zm-.74 7.77-.9.2a5.74 5.74 0 0 0 -.59-1.57l.74-.19a6.46 6.46 0 0 1 .75 1.56zm2.41-.08-.9.2a6.17 6.17 0 0 0 -.66-1.6l.74-.2a6.4 6.4 0 0 1 .79 1.6z" fill="#00b2e1"/><path d="m36.15 28.05v2.53h.47v1.72h-.62v3.55a.71.71 0 0 1 -.51.73 2.66 2.66 0 0 1 -.78.13l-.31-.78h.57a.25.25 0 0 0 .25-.29v-.28h-1.45v1.37h-.77v-4.43h-.66v-1.72h.58v-2.53zm-.27 3.82v-.59h-2.81v.59zm-1.64-1.29v-1.25h1.17v-.59h-1.76v1.84zm1 2.69v-.7h-1.47v.7zm0 1.41v-.74h-1.47v.74zm.19-4.1v-.67h-.55v.67zm3.2 5.31h1l.51-.94.67.14c.12 0 .19.07.19.13s-.07.16-.2.24l-.26.43h1.12v.66h-5.12v-.66h1.25a7.37 7.37 0 0 0 -.39-.74l.75-.16a5.49 5.49 0 0 1 .46.9zm2.83-3.89v.67h-4.72v-.67zm-3.31-3.32v-.88l.64.07c.11 0 .18 0 .18.1s0 .08-.12.16v.53h.43v-.86l.63.07c.12 0 .18 0 .18.1s0 .08-.12.16v.53h1.25v3h-4.28v-3zm2.85 4.32v1.72h-3.83v-1.72zm-2.88-3.17v-.58h-.47v.58zm0 .59h-.47v.58h.47zm2.13 3.12h-2.34v.63h2.37zm-1.43-3.71h.43v-.58h-.43zm.43.59h-.43v.58h.43zm.69-.59h.51v-.58h-.45zm.51.59h-.45v.58h.51z" fill="#00b2e1"/><path d="m41.94 37.3v-.82h5v.82z" fill="#00b2e1"/><path d="m53.39 35.82h-.9l-1.33-5-1.33 5h-.9l-1.84-6.57h1l1.32 5 1.35-5h.88l1.35 5 1.32-5h.95z" fill="#00b2e1"/><path d="m55.93 34.25.84-.08a1.48 1.48 0 0 0 .41.86 1.12 1.12 0 0 0 .78.27 1.3 1.3 0 0 0 .71-.19 1.46 1.46 0 0 0 .5-.49 2.78 2.78 0 0 0 .32-.84 4.3 4.3 0 0 0 .14-1.07s0-.1 0-.18a2 2 0 0 1 -1.71.94 2 2 0 0 1 -1.5-.64 2.37 2.37 0 0 1 -.62-1.7 2.39 2.39 0 0 1 .65-1.75 2.1 2.1 0 0 1 1.6-.67 2.29 2.29 0 0 1 1.28.38 2.34 2.34 0 0 1 .88 1.07 5.33 5.33 0 0 1 .3 2 6.45 6.45 0 0 1 -.3 2.18 2.62 2.62 0 0 1 -.88 1.24 2.35 2.35 0 0 1 -1.38.42 1.88 1.88 0 0 1 -2-1.77zm3.59-3.16a1.69 1.69 0 0 0 -.4-1.2 1.26 1.26 0 0 0 -1-.45 1.34 1.34 0 0 0 -1 .48 1.77 1.77 0 0 0 -.43 1.24 1.49 1.49 0 0 0 .41 1.11 1.37 1.37 0 0 0 1 .43 1.32 1.32 0 0 0 1-.43 1.68 1.68 0 0 0 .42-1.18z" fill="#00b2e1"/><path d="m9.2 99.46c.21.06.33.15.33.25s-.14.22-.39.39a37.45 37.45 0 0 1 -2.74 4.27c2.26-.17 4.49-.37 6.66-.63a22.83 22.83 0 0 0 -1.6-2l1.13-.94a29 29 0 0 1 3.79 4.8l-1.46 1c-.31-.54-.63-1.07-1-1.58-2.34.31-5.81.7-10.4 1.19-.12.22-.24.33-.34.33s-.19-.09-.2-.28l-.39-1.65c.66 0 1.32-.06 2-.11.54-.79 1-1.5 1.36-2.15a28.21 28.21 0 0 0 1.71-3.51zm4.92 7.54v7h-1.53v-.94h-6.31v.94h-1.53v-7zm-1.53 4.71v-3.25h-6.31v3.25z" fill="#727171"/><path d="m21.33 105.42-.94 1a14.76 14.76 0 0 0 -2.26-1.74l1-1a13.26 13.26 0 0 1 2.2 1.74zm.79 3.52q-1.11 2.43-2.32 4.52c0 .34-.12.53-.33.53l-1.27-1.07a30.55 30.55 0 0 0 3-5.1zm-.73-8.43-.93 1a14.8 14.8 0 0 0 -2-1.72l1-.93a11.77 11.77 0 0 1 1.93 1.65zm3-1.29c.1.07.17.12.17.15a.32.32 0 0 1 -.19.27l-1.05 1.11q.18.23.36.42l.81-1 .87.53a.26.26 0 0 1 .14.2q0 .15-.21.21l-1.82 1.83a12.94 12.94 0 0 0 1.3-.14 5.22 5.22 0 0 1 -.14-.57l.93-.19a18.82 18.82 0 0 1 .44 1.96l-.92.21a3.83 3.83 0 0 1 -.07-.43l-.73.12v2.82h-1.17v-2.72l-1.26.2c-.13.17-.25.26-.32.26s-.19-.07-.2-.24l-.07-1.22h.93l.8-1a17.67 17.67 0 0 0 -1.53-1.58l.8-.73c.14.14.27.24.39.34l.94-1.27zm-1.63 5.66c.1 0 .15.07.15.13s-.06.17-.2.28a9.42 9.42 0 0 1 -.39 1.53l-.94-.34a3.47 3.47 0 0 0 .26-.73c.07-.33.13-.7.2-1.13zm9.71 2.21v2.72h-8.34c-.07.25-.12.49-.19.73h9.67a8.38 8.38 0 0 1 -.37 2.18 1.72 1.72 0 0 1 -1 1 10 10 0 0 1 -2.62.38l-.73-1.33 1.7-.1c.71 0 1.17-.17 1.34-.42a2 2 0 0 0 .21-.62h-8.52c-.09.26-.17.5-.24.73l-1.38-.49a18.59 18.59 0 0 0 1.12-3.52l1.27.25a.89.89 0 0 0 0 .14h6.8v-.6h-7.81v-1zm-6.77-.73-1 .19c0-.48 0-1.06-.07-1.72l.87-.21c.09.63.16 1.21.21 1.74zm3.52-6.12v.93h-3.58v-.93zm-.22-1.39v.93h-3.09v-.93zm0 5.5v2.33h-3.09v-2.33zm-.14-2.72v.94h-2.86v-.94zm0 1.33v.93h-2.86v-.89zm-.86 2.26h-1.1v.59h1.1zm4.52-6c.12.07.19.12.19.15a.31.31 0 0 1 -.21.27l-1.42 1.36.34.48 1.12-1.17.87.52a.29.29 0 0 1 .14.21c0 .1-.07.17-.21.2l-1.9 1.6.95-.07c0-.17 0-.32 0-.47l1-.19c.09.64.16 1.26.21 1.85l-1 .21c0-.14 0-.29 0-.43l-.63.09v2.85h-1.21v-2.68l-1.07.14c-.14.17-.26.25-.32.25s-.19-.07-.21-.24l-.07-1.22h1l.58-.59a21.53 21.53 0 0 0 -1.36-1.7l.8-.73c.13.13.25.27.37.41l1.28-1.48zm-2.07 5.59a.15.15 0 0 1 .13.15c0 .07-.06.16-.2.26a10.54 10.54 0 0 1 -.26 1.46l-.93-.32a5.12 5.12 0 0 0 .17-.72 7.82 7.82 0 0 0 .15-1.08zm3 1.48-1.07.26c0-.52-.09-1.11-.19-1.79l.92-.27c.18.64.3 1.26.37 1.8z" fill="#727171"/><path d="m50.05 105v1.26h-7.63v7.84h-1.42v-1.4c-1.33.2-3.16.46-5.53.76a.46.46 0 0 1 -.32.19c-.1 0-.15-.07-.15-.2l-.33-1.33c.62 0 1.21-.07 1.81-.12v-5.78h-1.6v-1.22zm-2.39-6.25v5.46h-10v-5.5zm-6.66 7.47h-3.1v1.06h3.1zm0 2.13h-3.1v1.19h3.1zm0 2.26h-3.1v1.27c1.05-.08 2.11-.2 3.13-.34zm5.16-9.78v-.91h-7.1v.91zm0 1.07h-7.1v1.1h7.1zm2.4 5.1a.72.72 0 0 1 .35-.13l.21.13.56.68a.76.76 0 0 1 .1.31c0 .1-.15.23-.46.4a10.22 10.22 0 0 1 -1.56 2.72 4.44 4.44 0 0 1 -.43.5l.17.12a6.89 6.89 0 0 0 2.62.91l-1 1.33a9.49 9.49 0 0 1 -2.67-1.29l-.14-.1a16.76 16.76 0 0 1 -2.38 1.46l-.93-1.04a14.63 14.63 0 0 0 2.38-1.41 6.41 6.41 0 0 1 -.48-.68 9.87 9.87 0 0 1 -1.14-2.69h-.63v-1.22zm-2.56 3.32c.1.13.2.27.31.39a7.69 7.69 0 0 0 .78-1c.25-.41.53-.92.83-1.53h-2.92a7.52 7.52 0 0 0 1 2.14z" fill="#727171"/><path d="m59.73 98.69c.25 0 .39.1.39.22s-.1.22-.27.41v.6h6.57v1.32h-14.73v-1.32h6.64v-1.33zm6.1 8.06v5.71a1.33 1.33 0 0 1 -1 1.39 5.14 5.14 0 0 1 -1.56.28l-.62-1.47h1.23c.34 0 .51-.22.51-.63v-3.93h-10.65v6h-1.46v-7.31h13.55zm-2.12-4.57v3.7h-9.3v-3.7zm-1.19 6.76v3.52h-7v-3.52zm-.28-5.51h-6.37v1.19h6.37zm-1.12 6.7h-4.25v1.14h4.25z" fill="#727171"/><path d="m73 99.39c.16 0 .24.1.24.19s-.1.23-.27.34l-.9 1.39h2.77v12.15h-1.46v-1.07h-3.59v1.12h-1.46v-12.2h2.19l1.19-2.26zm.38 6.56v-3.31h-3.59v3.36zm0 5.12v-3.79h-3.59v3.79zm5.51-11.82c.17 0 .27.12.27.19a.26.26 0 0 1 -.14.2 4 4 0 0 0 -.66 1.47c0 .08-.07.15-.09.2h4.73a62.53 62.53 0 0 1 -.41 9.37 4 4 0 0 1 -1.07 2.56 4.65 4.65 0 0 1 -3 .75l-.73-1.53c1.51 0 2.41-.14 2.7-.44a3 3 0 0 0 .64-1.65 53 53 0 0 0 .38-7.73h-3.78a27 27 0 0 1 -1.31 2.51l-1.46-.8a20.84 20.84 0 0 0 2.6-5.57zm1.32 9.23-1.21 1.06a16.31 16.31 0 0 0 -2.72-2.65l1.06-1a19 19 0 0 1 2.87 2.59z" fill="#727171"/><path d="m93.1 99c.29 0 .44.09.44.22s-.12.26-.34.46v11h4.32v-8.5l1.49.1c.28 0 .43.1.43.22s-.12.22-.32.39v11h-1.6v-1.73h-10.76v1.73h-1.6v-11.71l1.51.1c.27 0 .43.1.43.22s-.12.22-.34.39v7.79h4.77v-11.83z" fill="#727171"/><path d="m5 82.43v-.63l.82.07c.16 0 .24.06.24.13s-.06.13-.16.23v.2h2.1v-.63l.82.07c.15 0 .22.06.22.13a.46.46 0 0 1 -.14.23v.2h2.33v.78h-2.34v.59h-.89v-.59h-2.12v.59h-.88v-.59h-2.48v-.78zm5.44 1.57v.74h-1.12v.86h1.68v.78h-1.68v1h1.39v.74h-3.27v.7h3v.79h-3v1.17h-.9v-1.16h-3.16v-.79h3.16v-.7h-3.39v-.74h1.48v-1h-1.72v-.78h1.72v-.86h-1.29v-.75zm-3.9.74h-1v.86h1zm0 1.64h-1v1h1zm1.92-1.64h-1v.86h1zm0 1.64h-1v1h1z" fill="#00b2e1"/><path d="m17.7 81.87c.16 0 .25.06.25.13s-.07.13-.19.23v.24h3.42v.82h-3.31v.58h2.3v1.25h1.17v.78h-1.17v1.33h-2.1a6.17 6.17 0 0 0 1 1.25 10.08 10.08 0 0 0 1.29-1l.61.63a.24.24 0 0 1 .06.15c0 .06-.1.08-.28.08-.36.22-.72.42-1.08.62a8.72 8.72 0 0 0 1.75 1l-.86.66a7.91 7.91 0 0 1 -1.74-1.22 5.4 5.4 0 0 1 -.91-1v1.24a1.12 1.12 0 0 1 -.32.87c-.18.2-.64.3-1.36.3l-.35-.9h.72c.25 0 .39-.14.41-.43v-.35c-.66.36-1.57.8-2.73 1.33-.07.1-.14.15-.2.15s-.1 0-.1-.14l-.21-.87a14.64 14.64 0 0 0 3.23-1.24v-1.13h-2.3v-.74h2.3v-.59h-3v.1a16.75 16.75 0 0 1 -.19 2.6 17.2 17.2 0 0 1 -.52 2.17l-.86-.43a13.71 13.71 0 0 0 .52-2 16.36 16.36 0 0 0 .12-2.34v-3.53h3.75v-.67zm-.7 1.42h-3v1.83h3v-.5h-2.3v-.75h2.3zm-.78 4.92-.54.59a13.53 13.53 0 0 0 -1.68-.9l.58-.55a9.43 9.43 0 0 1 1.61.86zm1.68-3.09h1.45v-.5h-1.48zm0 1.37h1.45v-.59h-1.48z" fill="#00b2e1"/><path d="m24.32 89.15a7.43 7.43 0 0 1 -.9 1.68l-.94-.32a6.27 6.27 0 0 0 1-1.56zm6.28-7.07v3.55h-3.24v.7h3.51v.75h-3.51v.7h4.06v.74h-8.9v-.74h4v-.7h-3.52v-.75h3.52v-.7h-3.26v-3.55zm-4.09.74h-2.39v2.07h1.32c-.28-.48-.59-1-.93-1.45l.71-.35c.35.51.66 1 .93 1.49l-.52.31h.88zm-.08 7.93h-1c0-.36 0-.69 0-1 0-.14 0-.35 0-.62h.74a5.33 5.33 0 0 1 .26 1.62zm3.31-7.93h-2.38v2.07h1l-.61-.27a5.19 5.19 0 0 0 .86-1.62l.68.31c.07 0 .11.06.11.08a.25.25 0 0 1 -.08.16 8.56 8.56 0 0 1 -.69 1.33h1.11zm-.74 7.77-.9.2a5.74 5.74 0 0 0 -.59-1.57l.74-.19a6.46 6.46 0 0 1 .75 1.56zm2.41-.08-.9.2a6.17 6.17 0 0 0 -.66-1.6l.74-.2a6.4 6.4 0 0 1 .79 1.6z" fill="#00b2e1"/><path d="m36.15 82v2.54h.47v1.76h-.62v3.55a.71.71 0 0 1 -.51.73 2.66 2.66 0 0 1 -.78.13l-.31-.78h.57a.25.25 0 0 0 .25-.29v-.28h-1.45v1.37h-.77v-4.43h-.66v-1.72h.58v-2.58zm-.27 3.83v-.59h-2.81v.59zm-1.64-1.29v-1.21h1.17v-.59h-1.76v1.84zm1 2.69v-.7h-1.47v.7zm0 1.41v-.74h-1.47v.74zm.19-4.1v-.67h-.55v.67zm3.2 5.31h1l.51-.94.67.14c.12 0 .19.07.19.13s-.07.16-.2.24l-.26.43h1.12v.66h-5.12v-.66h1.25a7.37 7.37 0 0 0 -.39-.74l.75-.16a5.49 5.49 0 0 1 .46.94zm2.83-3.85v.67h-4.72v-.67zm-3.31-3.32v-.88l.64.06c.11 0 .18 0 .18.1s0 .09-.12.16v.54h.43v-.86l.63.06c.12 0 .18 0 .18.1s0 .09-.12.16v.54h1.25v3h-4.28v-3zm2.85 4.32v1.72h-3.83v-1.72zm-2.88-3.17v-.58h-.47v.58zm0 .59h-.47v.58h.47zm2.13 3.12h-2.34v.63h2.37zm-1.43-3.71h.43v-.58h-.43zm.43.59h-.43v.58h.43zm.69-.59h.51v-.58h-.45zm.51.59h-.45v.58h.51z" fill="#00b2e1"/><path d="m41.94 91.3v-.82h5v.82z" fill="#00b2e1"/><path d="m53.39 89.82h-.9l-1.33-5-1.33 5h-.9l-1.84-6.57h1l1.32 5 1.35-5h.88l1.35 5 1.32-5h.95z" fill="#00b2e1"/><path d="m55.85 83.68v-.85h4.64v.69a9.63 9.63 0 0 0 -1.36 1.93 11.87 11.87 0 0 0 -1 2.48 9.76 9.76 0 0 0 -.33 2h-.91a8.45 8.45 0 0 1 .34-2 10.37 10.37 0 0 1 .91-2.31 9.51 9.51 0 0 1 1.26-1.87z" fill="#00b2e1"/><path d="m8.8 153.25c0 .12-.09.17-.23.17s-.23.05-.23.15c-.5 1.06-1.11 2.26-1.86 3.61-.35.64-.73 1.25-1.12 1.82 2.82-.26 5.65-.6 8.47-1a17.79 17.79 0 0 0 -1.83-2.69c0-.09.32-.29 1-.6a26.11 26.11 0 0 1 2 3.06 16.76 16.76 0 0 1 1.29 2.7c0 .07-.41.21-1.21.41a10.28 10.28 0 0 0 -.71-1.87c-3.3.46-7 .89-11 1.26a.5.5 0 0 0 -.44.27c-.06.19-.14.27-.28.27s-.42-.51-.86-1.53c.74 0 1.51-.1 2.26-.17a43.57 43.57 0 0 0 2.24-4.3 15.62 15.62 0 0 0 .72-2.12c0-.07.06-.1.16-.1q1.63.51 1.63.66zm5.45 8c.17 0 .26.07.26.21v6.44c0 .13-.09.2-.26.2h-.66c-.19 0-.27-.07-.27-.2v-.87h-8.18v.8c0 .14-.08.2-.25.2h-.67c-.18 0-.27-.06-.27-.2v-6.3a.25.25 0 0 1 .27-.28zm-.93 4.75v-3.66h-8.18v3.66z" fill="#727171"/><path d="m19.83 157.55c.37.27.7.53 1 .75l-.09.12-.51.66a13.38 13.38 0 0 0 -1.29-1 6.08 6.08 0 0 0 -.9-.51 3.34 3.34 0 0 1 .46-.68.15.15 0 0 1 .14-.1 11.08 11.08 0 0 1 1.19.76zm.25-3.59c.34.31.65.56.91.8 0 0 0 .07-.07.14a7.07 7.07 0 0 1 -.53.66 12.23 12.23 0 0 0 -1.21-1 5.34 5.34 0 0 0 -.85-.54 2.81 2.81 0 0 1 .48-.7.16.16 0 0 1 .12-.1c.47.25.85.51 1.15.78zm.68 7.31c.28.6.43.9.43.94a.64.64 0 0 1 -.05.24c-.32 1.24-.63 2.29-.9 3.16-.17.49-.36 1-.58 1.6a1.85 1.85 0 0 0 -.07.57c0 .14-.05.21-.12.21a5 5 0 0 1 -1-1 .26.26 0 0 1 -.12-.17.57.57 0 0 1 .05-.24 11.26 11.26 0 0 0 .67-1.17c.3-.65.59-1.36.88-2.18s.46-1.34.66-1.94c0-.08 0-.13.07-.13s.07.03.08.11zm1.77-2.22c.12 0 .19.1.19.17a.16.16 0 0 1 -.07.13.12.12 0 0 0 -.12.12 7.79 7.79 0 0 1 -.53 1.53c0 .08-.06.12-.08.12a.4.4 0 0 1 -.22-.07l-.48-.21c-.06 0-.1 0-.1-.05a.1.1 0 0 1 0-.08 8 8 0 0 0 .32-.87 8.12 8.12 0 0 0 .25-1c0-.08 0-.13.05-.13zm1.72-5.73a.58.58 0 0 0 .07.12c0 .08-.07.12-.19.12s-.31.05-.34.15c-.31.54-.6 1-.87 1.46l.56.65a.9.9 0 0 0 .05-.09c.36-.49.67-.95.92-1.36a7.31 7.31 0 0 1 .85.8s0 .05-.1.05a.41.41 0 0 0 -.27.07q-.83 1.13-1.62 2.07l1.28-.05c-.09-.18-.17-.37-.27-.54s.18-.19.59-.41c.19.37.36.71.49 1s.21.59.31.92a5.23 5.23 0 0 1 -.73.18 5.17 5.17 0 0 0 -.19-.66l-.88.14v2.92c0 .1-.07.14-.19.14h-.54c-.14 0-.19 0-.19-.14v-2.77l-1.21.19c-.23.22-.35.32-.39.32a5.2 5.2 0 0 1 -.2-1.12 7.34 7.34 0 0 1 1.07-.09c.36-.44.65-.81.88-1.13l-.83-.77a10.76 10.76 0 0 0 -1-.61c0-.07.15-.26.49-.6a.18.18 0 0 1 .1-.06c.15.13.31.27.48.4a7.73 7.73 0 0 0 .37-.69q.36-.72.54-1.11zm8 8.43c.17 0 .26.07.26.19v2a.23.23 0 0 1 -.26.26h-8.2c-.07.27-.12.51-.19.73h9.21c.22 0 .34 0 .34.13a11.19 11.19 0 0 1 -.59 1.72 2.47 2.47 0 0 1 -.82 1.07 4.49 4.49 0 0 1 -1.84.27c-1.24 0-1.92-.12-2-.35a1.92 1.92 0 0 0 -.56-.85c0-.14 0-.19.14-.19a24.21 24.21 0 0 0 2.79.19 1.44 1.44 0 0 0 1.15-.36 3.6 3.6 0 0 0 .39-.77h-8.52a9.19 9.19 0 0 1 -.47 1.08c0 .06-.07.11-.09.11a1.12 1.12 0 0 1 -.27 0 6.26 6.26 0 0 1 -.73-.14c-.1 0-.14-.05-.14-.08a5.46 5.46 0 0 0 .46-.94 8 8 0 0 0 .46-1.19 9.19 9.19 0 0 0 .31-1.46c0-.08.05-.13.17-.13.3.15.54.25.69.32h7.35v-.73h-8.43c-.11 0-.14-.09-.14-.26v-.4c0-.12 0-.19.14-.19zm-7.17-3.06c.2.48.41 1 .59 1.53 0 .12 0 .19-.08.19a1.31 1.31 0 0 1 -.65.27c-.17-.67-.32-1.23-.46-1.67 0-.08.17-.22.53-.39-.01 0-.01.04.04.07zm4.25-4.11c.08 0 .13.06.13.18v.41c0 .14-.05.2-.13.2h-3.62c-.1 0-.14-.06-.14-.2v-.41c0-.12 0-.18.14-.18zm-.21-1.33c.09 0 .14.05.14.12v.41c0 .13-.05.2-.14.2h-3.12c-.08 0-.12-.07-.12-.2v-.41a.11.11 0 0 1 .12-.12zm-.12 2.75a.12.12 0 0 1 .13.13v.39c0 .14-.05.21-.13.21h-2.9c-.1 0-.13-.07-.13-.21v-.39c0-.08 0-.13.13-.13zm0 1.26a.12.12 0 0 1 .13.13v.39c0 .14-.05.21-.13.21h-2.9c-.1 0-.13-.07-.13-.21v-.39c0-.08 0-.13.13-.13zm0 1.32c.13 0 .2 0 .2.14v2.28c0 .1-.07.14-.2.14h-2.83c-.14 0-.2 0-.2-.14v-2.19c0-.09.06-.14.2-.14zm-.74.73h-1.36v1h1.39zm4.07-6v.11c0 .09-.07.12-.19.12s-.3 0-.34.16c-.32.47-.61.91-.88 1.29l.56.66s0 0 0 0a16.62 16.62 0 0 0 1-1.44 7.27 7.27 0 0 1 .87.79c0 .06 0 .07-.14.07a.48.48 0 0 0 -.3.07c-.58.78-1.16 1.5-1.7 2.13.37 0 .78-.06 1.22-.11-.08-.18-.17-.37-.27-.56s.19-.18.59-.41c.19.38.34.72.48 1s.22.6.32.92c0 0-.25.09-.73.19 0-.17-.1-.38-.18-.65l-.75.17v3c0 .1-.07.14-.21.14h-.52c-.14 0-.21 0-.21-.14v-2.79l-1 .26a1.51 1.51 0 0 1 -.41.34 7.29 7.29 0 0 1 -.19-1.12s.26-.09.8-.16c.39-.47.72-.88 1-1.24l-.73-.68a6 6 0 0 0 -.94-.59c0-.07.16-.26.5-.6a.15.15 0 0 1 .11-.06c.11.1.23.18.33.28l.39-.62c.24-.45.42-.77.54-1zm-1.63 5.66c.1 0 .15.1.15.17a.17.17 0 0 1 0 .12c-.05 0-.08 0-.08.11-.12.63-.24 1.11-.34 1.45a.36.36 0 0 1 -.07.12.24.24 0 0 1 -.19-.09l-.44-.2c-.07 0-.1 0-.1 0a.18.18 0 0 1 0-.09c.1-.3.18-.56.24-.8s.13-.59.17-.9c0-.08 0-.13.05-.13zm2.27-.36a12.59 12.59 0 0 1 .73 1.66c0 .11 0 .17-.06.17a1.18 1.18 0 0 1 -.67.29c-.2-.71-.4-1.32-.59-1.8 0-.08.17-.22.54-.39.08.08.08.12.08.15z" fill="#727171"/><path d="m49.92 159.08c.08 0 .13.07.13.2v.53c0 .19 0 .27-.13.27h-7.84v7.7c0 .14-.1.21-.27.21h-.66c-.17 0-.26-.07-.26-.21v-1.25l-4.91.52c-.17.31-.31.46-.41.46s-.29-.44-.59-1.33c.4 0 .85-.06 1.32-.11v-6h-1.3c-.1 0-.13-.08-.13-.27v-.53c0-.13 0-.2.13-.2zm-2.33-6.17c.17 0 .27.07.27.2v4.89c0 .13-.1.2-.27.2h-10c-.17 0-.26-.07-.26-.2v-4.85c0-.13.09-.2.26-.2zm-6.7 8.36v-1.19h-3.38v1.19zm0 2.26v-1.25h-3.38v1.25zm-2.89 2.33c1-.12 2-.25 2.92-.41v-.91h-3.41v1.39c.14-.02.29-.03.49-.07zm8.67-10.86v-1.12h-8.11v1.12zm0 1h-8.11v1.12h8.11zm2.06 5.16a.38.38 0 0 1 .22.11l.25.35a.74.74 0 0 1 .12.34 14.26 14.26 0 0 1 -1.82 3.27c-.1.13-.2.24-.27.32a4.75 4.75 0 0 0 1.07.65 8.51 8.51 0 0 0 1.82.66c.09 0 .14 0 .14.08a.28.28 0 0 1 -.09.19 4.89 4.89 0 0 0 -.61.6c-.07.1-.14.15-.17.15a.68.68 0 0 1 -.24-.1c-.37-.14-.76-.29-1.19-.48a8.89 8.89 0 0 1 -1.42-.85.42.42 0 0 1 -.12-.1 5.19 5.19 0 0 1 -.68.49 18 18 0 0 1 -2.06 1 .34.34 0 0 1 -.31-.22 5.21 5.21 0 0 0 -.35-.56c-.11-.1-.14-.17-.14-.22a.17.17 0 0 1 .12-.17 6.61 6.61 0 0 0 2.5-1.06s0 0 0-.05a1.06 1.06 0 0 1 -.17-.2 4.5 4.5 0 0 1 -.82-1.38 7.78 7.78 0 0 1 -.61-1.71h-.7c-.13 0-.18-.09-.18-.28v-.52c0-.17 0-.28.18-.28zm-3.38 1.89a5.91 5.91 0 0 0 .74 1.36 2.84 2.84 0 0 0 .29.36 7 7 0 0 0 .75-.95c.25-.39.54-.92.88-1.58h-2.94a4.73 4.73 0 0 0 .28.85z" fill="#727171"/><path d="m60.12 152.84c0 .15-.07.24-.17.26s-.17.13-.17.34v.93h6.64c.14 0 .21.1.21.27v.53c0 .19-.07.27-.21.27h-14.73c-.14 0-.21-.08-.21-.27v-.53c0-.17.07-.27.21-.27h6.9v-1.53c0-.13.08-.2.27-.2.83 0 1.26.07 1.26.2zm5.32 8c.2 0 .32.09.32.26v6.22c0 .25-.2.46-.59.59a8.68 8.68 0 0 1 -1.46.24.21.21 0 0 1 -.23-.2 2.92 2.92 0 0 0 -.37-1.07s0 0 .1 0a4.76 4.76 0 0 0 1.16-.08.27.27 0 0 0 .2-.26v-4.6h-11.1v5.91c0 .14-.08.2-.25.2h-.67c-.18 0-.27-.06-.27-.2v-6.71a.24.24 0 0 1 .27-.26zm-2.07-4.45c.17 0 .27.07.27.2v3.11c0 .14-.1.21-.27.21h-8.69c-.19 0-.27-.07-.27-.21v-3.11c0-.13.08-.2.27-.2zm-.79 6.64c.17 0 .26.07.26.19v3c0 .14-.09.21-.26.21h-6.78c-.19 0-.27-.07-.27-.21v-3c0-.12.08-.19.27-.19zm-.13-5.57h-6.85v1.39h6.85zm-.8 6.56h-4.91v1.39h4.91z" fill="#727171"/><path d="m72.89 152.94c.13 0 .22.11.22.24s-.09.24-.26.24a.32.32 0 0 0 -.2.22 21.69 21.69 0 0 1 -1 2h2.65c.17 0 .27.07.27.2v11.29c0 .14-.1.2-.27.2h-.67c-.17 0-.25-.06-.25-.2v-.87h-3.59v1.33c0 .14-.1.2-.27.2h-.66c-.19 0-.27-.06-.27-.2v-11.69a.24.24 0 0 1 .27-.27h1.53q.63-1.15 1.32-2.79a.21.21 0 0 1 .21-.13zm.49 7.41v-3.65h-3.59v3.65zm0 4.85v-3.79h-3.59v3.79zm5.85-12.2c.11.1.18.17.18.24a.2.2 0 0 1 -.13.19.24.24 0 0 0 -.26.2 18.74 18.74 0 0 1 -.68 1.8h4.2a.29.29 0 0 1 .32.32c0 3.88-.06 6.55-.2 8a9.57 9.57 0 0 1 -.63 2.84 1.67 1.67 0 0 1 -.92.93 5.16 5.16 0 0 1 -1.9.29c-.71 0-1.09-.12-1.09-.34a4.87 4.87 0 0 0 -.24-.85c0-.1 0-.13.07-.13h.14a6.88 6.88 0 0 0 .86.05 2.94 2.94 0 0 0 1.7-.35 3.4 3.4 0 0 0 .72-2.14 66.09 66.09 0 0 0 .3-7.6h-3.84a9.69 9.69 0 0 1 -.58 1 10 10 0 0 1 -1 1.19 1.27 1.27 0 0 1 -.37-.05l-.65-.26c-.08 0-.11 0-.11-.08a.18.18 0 0 1 .06-.16 8.24 8.24 0 0 0 1.5-1.95 11.12 11.12 0 0 0 .68-1.43 16 16 0 0 0 .61-2 .18.18 0 0 1 .14-.12zm-1.47 6.55a27.14 27.14 0 0 1 1.72 3.31c0 .17 0 .26-.1.27a1.93 1.93 0 0 1 -.95.39c-.58-1.41-1.11-2.58-1.6-3.52 0-.11.24-.28.73-.52a.25.25 0 0 1 .2.08z" fill="#727171"/><path d="m93.34 152.91c0 .15-.07.24-.17.25s-.17.14-.17.34v11.77h4.72v-9.37c0-.14.09-.2.26-.2.88 0 1.32.06 1.32.2s0 .24-.15.26-.17.13-.17.34v11.28c0 .14-.12.21-.34.21h-.64c-.17 0-.26-.07-.26-.21v-1.39h-11v1.39c0 .14-.12.21-.32.21h-.67q-.27 0-.27-.21v-11.78q0-.21.27-.21c.89 0 1.33.07 1.33.21s-.07.24-.17.24-.17.15-.17.35v8.71h5v-12.39c0-.14.08-.2.27-.2.88 0 1.33.06 1.33.2z" fill="#727171"/><path d="m5 136.43v-.63l.82.07c.16 0 .24.06.24.13s-.06.13-.16.23v.2h2.1v-.63l.82.07c.15 0 .22.06.22.13a.46.46 0 0 1 -.14.23v.2h2.33v.78h-2.34v.59h-.89v-.59h-2.12v.59h-.88v-.59h-2.48v-.78zm5.46 1.6v.74h-1.14v.86h1.68v.78h-1.68v1h1.39v.74h-3.27v.7h3v.79h-3v1.17h-.9v-1.17h-3.16v-.79h3.16v-.7h-3.39v-.74h1.48v-1h-1.72v-.78h1.72v-.86h-1.29v-.77zm-3.9.74h-1v.86h1zm0 1.64h-1v1h1zm1.92-1.64h-1v.86h1zm0 1.64h-1v1h1z" fill="#00b2e1"/><path d="m17.7 135.87c.16 0 .25.06.25.13s-.07.13-.19.23v.24h3.42v.82h-3.31v.58h2.3v1.25h1.17v.78h-1.17v1.33h-2.1a6.17 6.17 0 0 0 1 1.25 10.08 10.08 0 0 0 1.29-1l.61.63a.24.24 0 0 1 .06.15c0 .06-.1.08-.28.08-.36.22-.72.42-1.08.62a8.72 8.72 0 0 0 1.75 1l-.86.66a7.91 7.91 0 0 1 -1.74-1.22 5.4 5.4 0 0 1 -.91-1v1.24a1.12 1.12 0 0 1 -.32.87c-.18.2-.64.3-1.36.3l-.35-.9h.72c.25 0 .39-.14.41-.43v-.35c-.66.36-1.57.8-2.73 1.33-.07.1-.14.15-.2.15s-.1-.05-.1-.14l-.21-.87a14.64 14.64 0 0 0 3.23-1.24v-1.13h-2.3v-.74h2.3v-.59h-3v.1a16.75 16.75 0 0 1 -.19 2.6 17.2 17.2 0 0 1 -.52 2.17l-.86-.43a13.71 13.71 0 0 0 .52-2 16.36 16.36 0 0 0 .19-2.39v-3.55h3.75v-.67zm-.7 1.42h-3v1.83h3v-.5h-2.3v-.75h2.3zm-.78 4.92-.54.59a13.53 13.53 0 0 0 -1.64-.9l.58-.55a9.43 9.43 0 0 1 1.57.86zm1.68-3.09h1.45v-.5h-1.48zm0 1.37h1.45v-.59h-1.48z" fill="#00b2e1"/><path d="m24.32 143.15a7.43 7.43 0 0 1 -.9 1.68l-.94-.32a6.27 6.27 0 0 0 1-1.56zm6.28-7.07v3.55h-3.24v.7h3.51v.75h-3.51v.7h4.06v.74h-8.9v-.74h4v-.7h-3.52v-.75h3.52v-.7h-3.26v-3.55zm-4.09.74h-2.39v2.07h1.32c-.28-.48-.59-1-.93-1.45l.71-.35c.35.51.66 1 .93 1.49l-.52.31h.88zm-.08 7.93h-1c0-.36 0-.69 0-1s0-.35 0-.62h.74a5.33 5.33 0 0 1 .26 1.62zm3.31-7.93h-2.38v2.07h1l-.61-.27a5.19 5.19 0 0 0 .82-1.61l.68.31c.07 0 .11.06.11.08a.25.25 0 0 1 -.08.16 8.56 8.56 0 0 1 -.69 1.33h1.11zm-.74 7.77-.9.2a5.74 5.74 0 0 0 -.59-1.57l.74-.19a6.46 6.46 0 0 1 .75 1.56zm2.41-.08-.9.2a6.17 6.17 0 0 0 -.66-1.6l.74-.2a6.4 6.4 0 0 1 .79 1.6z" fill="#00b2e1"/><path d="m36.15 136v2.54h.47v1.72h-.62v3.55a.71.71 0 0 1 -.51.73 2.66 2.66 0 0 1 -.78.13l-.31-.78h.57a.25.25 0 0 0 .25-.29v-.28h-1.45v1.37h-.77v-4.39h-.66v-1.72h.58v-2.58zm-.27 3.83v-.59h-2.81v.59zm-1.64-1.29v-1.25h1.17v-.59h-1.76v1.84zm1 2.69v-.7h-1.47v.7zm0 1.41v-.74h-1.47v.74zm.19-4.1v-.67h-.55v.67zm3.2 5.31h1l.51-.94.67.14c.12 0 .19.07.19.13s-.07.16-.2.24l-.26.43h1.12v.66h-5.12v-.66h1.25a7.37 7.37 0 0 0 -.39-.74l.75-.16a5.49 5.49 0 0 1 .46.94zm2.83-3.85v.67h-4.72v-.67zm-3.31-3.32v-.86l.64.06c.11 0 .18 0 .18.1s0 .09-.12.16v.54h.43v-.86l.63.06c.12 0 .18 0 .18.1s0 .09-.12.16v.54h1.25v3h-4.28v-3zm2.85 4.32v1.72h-3.83v-1.72zm-2.88-3.17v-.58h-.47v.58zm0 .59h-.47v.58h.47zm2.13 3.12h-2.34v.63h2.37zm-1.43-3.71h.43v-.58h-.43zm.43.59h-.43v.58h.43zm.69-.59h.51v-.58h-.45zm.51.59h-.45v.58h.51z" fill="#00b2e1"/><path d="m41.94 145.3v-.82h5v.82z" fill="#00b2e1"/><path d="m53.39 143.82h-.9l-1.33-5-1.33 5h-.9l-1.84-6.57h1l1.32 5 1.35-5h.88l1.35 5 1.32-5h.95z" fill="#00b2e1"/><path d="m55.79 142 .93-.08a1.63 1.63 0 0 0 .47 1 1.32 1.32 0 0 0 .9.34 1.41 1.41 0 0 0 1.08-.48 1.82 1.82 0 0 0 .44-1.27 1.65 1.65 0 0 0 -.42-1.19 1.5 1.5 0 0 0 -1.11-.43 1.54 1.54 0 0 0 -.77.19 1.42 1.42 0 0 0 -.53.5l-.83-.11.69-3.67h3.56v.84h-2.85l-.35 1.96a2.32 2.32 0 0 1 1.35-.45 2.16 2.16 0 0 1 1.59.65 2.3 2.3 0 0 1 .64 1.67 2.59 2.59 0 0 1 -.57 1.68 2.51 2.51 0 0 1 -3.47.32 2.15 2.15 0 0 1 -.75-1.47z" fill="#00b2e1"/><path d="m9.34 206.91a17.79 17.79 0 0 1 -2.24 3.18 18.06 18.06 0 0 1 -2.37 2.41c2.74-.07 5.82-.2 9.23-.44a36.12 36.12 0 0 0 -2.77-2.5l.53-.53a37.86 37.86 0 0 1 5.44 5.25l-.66.67c-.58-.75-1.19-1.46-1.82-2.14q-5.6.51-12.92.61l-.21-.87h2a24.25 24.25 0 0 0 2.64-2.75 22.17 22.17 0 0 0 2.22-3.26zm5.17 15.33h-.87v-1.12h-8.64v1.12h-.91v-6.9h10.42zm-.87-1.92v-4.18h-8.64v4.18z" fill="#727171"/><path d="m20.73 213.28-.53.53a17.33 17.33 0 0 0 -2.2-2.65l.46-.46a17.48 17.48 0 0 1 2.27 2.58zm.6 2.47a28.92 28.92 0 0 1 -2.47 6.1l-.66-.46a24.14 24.14 0 0 0 2.53-6zm.13-6.26-.53.55a14.58 14.58 0 0 0 -2.12-2.4l.46-.46a18.83 18.83 0 0 1 2.19 2.31zm1.4 3.4a12.35 12.35 0 0 1 -.94 2.52l-.53-.27a11.31 11.31 0 0 0 .87-2.45zm1.32-6a8.86 8.86 0 0 1 -.65 1.37 6.94 6.94 0 0 1 -.61 1c.51 0 1-.07 1.45-.12a8.58 8.58 0 0 0 .47-.82l.53.21a10.21 10.21 0 0 1 -1.21 1.78 9.88 9.88 0 0 1 -1.22 1.33 10 10 0 0 0 1.67-.29c-.11-.17-.19-.34-.29-.5l.46-.34a12.91 12.91 0 0 1 .93 1.86l-.59.2c-.11-.27-.21-.53-.31-.76a11.46 11.46 0 0 1 -3.09.44v-.55h.56a20 20 0 0 0 1.41-1.53c.13-.17.25-.34.39-.51-.72.1-1.43.17-2.18.2l-.13-.53a3.79 3.79 0 0 0 .49 0 9 9 0 0 0 .76-1.14 8.85 8.85 0 0 0 .68-1.43zm7.7 8.7v2.26h-7.95l-.4 1.12h9.22a6.25 6.25 0 0 1 -.85 2.74 1.75 1.75 0 0 1 -1.28.39 14.9 14.9 0 0 1 -2.26-.27l-.07-.66a14.09 14.09 0 0 0 2.33.27.88.88 0 0 0 .67-.24 3.75 3.75 0 0 0 .46-1.63h-9.17l.87-2.33h7.77v-1h-8.57v-.6zm-7.9-.53-.6.06c0-.87 0-1.64-.07-2.32l.53-.06a19.15 19.15 0 0 1 .16 2.34zm1.59-.4-.59.13a8.81 8.81 0 0 0 -.53-2l.53-.2a8.41 8.41 0 0 1 .59 2.09zm2.43-6.56-.36.27h1.87v.53h-4v-.53h1.92a6.44 6.44 0 0 0 -.92-1.39l.53-.4a7.4 7.4 0 0 1 .96 1.52zm1 1.6v.52h-3.15v-.52zm0 1.3v.55h-3.15v-.55zm0 1.33v2.39h-3v-2.39zm-.6 1.87v-1.33h-1.77v1.33zm2.13-1.33a11.09 11.09 0 0 1 -.87 2.31l-.53-.25a11 11 0 0 0 .8-2.26zm1.19-6a10.54 10.54 0 0 1 -.61 1.41c-.21.37-.4.71-.6 1 .53 0 1-.09 1.53-.17.2-.33.37-.65.54-1l.53.2a12.45 12.45 0 0 1 -1.22 1.94 10.4 10.4 0 0 1 -1.29 1.46 10.79 10.79 0 0 0 1.9-.25l-.37-.56.45-.33a10.92 10.92 0 0 1 1.14 1.92l-.61.21c-.12-.27-.24-.55-.36-.78a17.45 17.45 0 0 1 -3.48.39l-.07-.55h.68a12.75 12.75 0 0 0 1.46-1.67l.36-.48a18.76 18.76 0 0 1 -2.23.24l-.13-.53h.46a11.24 11.24 0 0 0 .74-1.19 9.88 9.88 0 0 0 .65-1.46zm-.07 8.24-.6.06c0-.87 0-1.64-.06-2.32l.54-.06c.03.71.08 1.48.08 2.29zm1.87-.13-.6.13a7.72 7.72 0 0 0 -.86-2.26l.52-.2a7.66 7.66 0 0 1 .9 2.35z" fill="#727171"/><path d="m50.19 212.76v.66h-8.43v8.82h-.76v-2.41a51.78 51.78 0 0 1 -6.12 1.49l-.14-.73 1.74-.3v-6.87h-1.6v-.66zm-9.19 2.38v-1.72h-3.76v1.72zm0 2.39v-1.72h-3.76v1.72zm0 1.62v-1h-3.76v1.94a38.88 38.88 0 0 0 3.76-.94zm6.63-11.9v4.43h-10.33v-4.43zm-.73 1.85v-1.19h-8.9v1.19zm0 1.92v-1.26h-8.9v1.24zm2.32 3.72a13.3 13.3 0 0 1 -2.51 4.54 10.46 10.46 0 0 0 3.57 1.91l-.39.73a10.05 10.05 0 0 1 -3.67-2.13 10.11 10.11 0 0 1 -4 2.13l-.28-.67a9.07 9.07 0 0 0 3.69-2 10.68 10.68 0 0 1 -2.38-3.86h-1v-.67zm-3.07 4a11.77 11.77 0 0 0 2-3.36h-4.1a8.86 8.86 0 0 0 2.13 3.39z" fill="#727171"/><path d="m59.91 208.17h6.79v.73h-15.28v-.73h7.51a14.05 14.05 0 0 0 -.87-1.26l.66-.39a8.81 8.81 0 0 1 1.19 1.65zm5.78 12.56c0 .88-.59 1.32-1.78 1.32-.48 0-1 0-1.67-.06l-.06-.8a14.89 14.89 0 0 0 1.73.13c.65 0 1-.25 1-.73v-5.59h-11.76v7.22h-.8v-8h13.34zm-2.58-10.83v3.25h-8.11v-3.25zm-.73 2.58v-1.92h-6.65v1.92zm-.14 8h-.73v-.66h-5v1h-.73v-4.57h6.51zm-.73-1.32v-2.16h-5v2.19z" fill="#727171"/><path d="m72.1 207.11a13.74 13.74 0 0 1 -.49 1.77 7.9 7.9 0 0 1 -.39 1h2.78v11.74h-.8v-1h-3.82v1.53h-.79v-12.25h1.75c.13-.34.29-.71.44-1.14.2-.59.37-1.24.54-1.92zm1.14 7.5v-4h-3.86v4zm0 5.25v-4.52h-3.86v4.52zm4.76-13.09a25.43 25.43 0 0 1 -.71 2.86h5.44c0 6.46-.26 10.18-.73 11.13a1.87 1.87 0 0 1 -1.87 1.16 6.26 6.26 0 0 1 -2-.34l-.07-.85a9.82 9.82 0 0 0 2.06.32c.61 0 1-.39 1.19-1.17.3-1.16.47-4.34.47-9.52h-4.78c-.07.24-.15.44-.22.64a23.45 23.45 0 0 1 -1.62 3.68l-.66-.6a20.92 20.92 0 0 0 1.62-3.64 24 24 0 0 0 1-3.86zm2.19 10.1-.86.34a14.42 14.42 0 0 0 -2.59-3.59l.67-.47a18.89 18.89 0 0 1 2.73 3.72z" fill="#727171"/><path d="m86.55 209.76v10h5.12v-13.12h.87v13.08h5.18v-10h.87v12.48h-.87v-1.72h-11.17v1.72h-.78v-12.44z" fill="#727171"/><path d="m5 190.43v-.63l.82.07c.16 0 .24.06.24.13s-.06.13-.16.23v.2h2.1v-.63l.82.07c.15 0 .22.06.22.13a.46.46 0 0 1 -.14.23v.2h2.33v.78h-2.34v.59h-.89v-.59h-2.12v.59h-.88v-.59h-2.48v-.78zm5.46 1.6v.74h-1.14v.86h1.68v.78h-1.68v1h1.39v.74h-3.27v.69h3v.79h-3v1.17h-.9v-1.17h-3.16v-.79h3.16v-.69h-3.39v-.74h1.48v-1h-1.72v-.78h1.72v-.86h-1.29v-.77zm-3.9.74h-1v.86h1zm0 1.64h-1v1h1zm1.92-1.64h-1v.86h1zm0 1.64h-1v1h1z" fill="#00b2e1"/><path d="m17.7 189.87c.16 0 .25.06.25.13s-.07.13-.19.23v.24h3.42v.82h-3.31v.58h2.3v1.25h1.17v.78h-1.17v1.32h-2.1a5.66 5.66 0 0 0 1 1.25 10.06 10.06 0 0 0 1.29-1l.61.63a.22.22 0 0 1 .06.15c0 .06-.1.08-.28.08-.36.21-.72.42-1.08.61a9.25 9.25 0 0 0 1.75 1l-.86.65a7.91 7.91 0 0 1 -1.74-1.22 5 5 0 0 1 -.91-1v1.23a1.12 1.12 0 0 1 -.32.87c-.18.2-.64.3-1.36.3l-.35-.89h.72c.25 0 .39-.15.41-.43v-.36c-.66.37-1.57.8-2.73 1.33-.07.1-.14.15-.2.15s-.1-.05-.1-.14l-.21-.87a15.12 15.12 0 0 0 3.23-1.2v-1.14h-2.3v-.73h2.3v-.59h-3v.1a16.75 16.75 0 0 1 -.19 2.6 17.11 17.11 0 0 1 -.52 2.16l-.86-.43a13.37 13.37 0 0 0 .52-1.95 16.12 16.12 0 0 0 .19-2.38v-3.55h3.75v-.67zm-.7 1.42h-3v1.83h3v-.5h-2.3v-.75h2.3zm-.78 4.92-.54.59a13.58 13.58 0 0 0 -1.64-.91l.58-.54a8.78 8.78 0 0 1 1.57.86zm1.68-3.09h1.45v-.5h-1.48zm0 1.37h1.45v-.59h-1.48z" fill="#00b2e1"/><path d="m24.32 197.14a7.23 7.23 0 0 1 -.9 1.68l-.94-.32a6.22 6.22 0 0 0 1-1.55zm6.28-7.06v3.55h-3.24v.7h3.51v.75h-3.51v.7h4.06v.74h-8.9v-.74h4v-.7h-3.52v-.75h3.52v-.7h-3.26v-3.55zm-4.09.74h-2.39v2.07h1.32c-.28-.48-.59-1-.93-1.45l.71-.35c.35.51.66 1 .93 1.49l-.52.31h.88zm-.08 7.92h-1c0-.36 0-.69 0-1 0-.13 0-.35 0-.62h.74a5.33 5.33 0 0 1 .26 1.62zm3.31-7.92h-2.38v2.07h1l-.61-.27a5.19 5.19 0 0 0 .82-1.61l.68.31c.07 0 .11.06.11.08a.25.25 0 0 1 -.08.16 8.56 8.56 0 0 1 -.69 1.33h1.11zm-.74 7.76-.9.2a5.58 5.58 0 0 0 -.59-1.56l.74-.19a6.24 6.24 0 0 1 .75 1.55zm2.41-.08-.9.2a6.17 6.17 0 0 0 -.66-1.6l.74-.2a6.4 6.4 0 0 1 .79 1.6z" fill="#00b2e1"/><path d="m36.15 190v2.54h.47v1.72h-.62v3.54a.71.71 0 0 1 -.51.73 2.66 2.66 0 0 1 -.78.13l-.31-.78h.57c.16 0 .25-.1.25-.29v-.28h-1.45v1.37h-.77v-4.4h-.66v-1.72h.58v-2.56zm-.27 3.83v-.59h-2.81v.59zm-1.64-1.29v-1.25h1.17v-.59h-1.76v1.84zm1 2.69v-.7h-1.47v.7zm0 1.4v-.73h-1.47v.73zm.19-4.09v-.67h-.55v.67zm3.2 5.31h1l.51-.94.67.13c.12 0 .19.07.19.14s-.07.16-.2.24l-.26.43h1.12v.65h-5.12v-.65h1.25q-.18-.39-.39-.75l.75-.16a5.19 5.19 0 0 1 .46.95zm2.83-3.85v.67h-4.72v-.67zm-3.31-3.32v-.86l.64.06c.11 0 .18 0 .18.1s0 .09-.12.16v.54h.43v-.86l.63.06c.12 0 .18 0 .18.1s0 .09-.12.16v.54h1.25v3h-4.28v-3zm2.85 4.32v1.71h-3.83v-1.71zm-2.88-3.17v-.58h-.47v.58zm0 .59h-.47v.58h.47zm2.13 3.12h-2.34v.63h2.37zm-1.43-3.71h.43v-.58h-.43zm.43.59h-.43v.58h.43zm.69-.59h.51v-.58h-.45zm.51.59h-.45v.58h.51z" fill="#00b2e1"/><path d="m41.94 199.29v-.82h5v.82z" fill="#00b2e1"/><path d="m53.39 197.81h-.9l-1.33-5-1.33 5h-.9l-1.84-6.56h1l1.32 5 1.35-5h.88l1.35 5 1.32-5h.95z" fill="#00b2e1"/><path d="m55.8 196 .88-.11a2 2 0 0 0 .51 1.08 1.33 1.33 0 0 0 .89.32 1.43 1.43 0 0 0 1.05-.43 1.45 1.45 0 0 0 .42-1.06 1.36 1.36 0 0 0 -.39-1 1.39 1.39 0 0 0 -1-.39 2.38 2.38 0 0 0 -.62.1l.1-.78h.14a1.76 1.76 0 0 0 1-.29 1 1 0 0 0 .45-.9 1 1 0 0 0 -.33-.8 1.15 1.15 0 0 0 -.84-.32 1.24 1.24 0 0 0 -.86.32 1.65 1.65 0 0 0 -.43 1l-.88-.16a2.24 2.24 0 0 1 .73-1.37 2.12 2.12 0 0 1 1.42-.48 2.32 2.32 0 0 1 1.08.25 1.78 1.78 0 0 1 .75.68 1.72 1.72 0 0 1 .26.93 1.53 1.53 0 0 1 -.24.84 1.73 1.73 0 0 1 -.74.61 1.64 1.64 0 0 1 1 .61 1.8 1.8 0 0 1 .36 1.15 2.11 2.11 0 0 1 -.69 1.59 2.41 2.41 0 0 1 -1.73.65 2.26 2.26 0 0 1 -1.56-.56 2.15 2.15 0 0 1 -.73-1.48z" fill="#00b2e1"/></svg>