<svg viewBox="0 0 341.97 376.72" xmlns="http://www.w3.org/2000/svg"><path d="m8.79 137a5.6 5.6 0 0 1 -.69.22c-.31.08-.64.15-1 .21s-.5.09-.83.13v2.38a1.61 1.61 0 0 0 .29-.09q.86-.27 1.62-.57a10.7 10.7 0 0 0 -.58-1s.18-.16.55-.35a15 15 0 0 1 .77 1.45 11.33 11.33 0 0 1 .48 1.28 2.17 2.17 0 0 1 -.67.2 5.67 5.67 0 0 0 -.29-.94q-1.46.57-2.91 1-.18.27-.27.27c-.07 0-.2-.28-.4-.86.22 0 .45-.1.71-.17v-3.31c0-.06 0-.1.12-.1l.53.21a8 8 0 0 0 .79-.15 5.64 5.64 0 0 0 .99-.31 2.72 2.72 0 0 0 .58-.24s.06 0 .1.08a6.22 6.22 0 0 1 .44.57c0 .07 0 .08-.08.08h-.23zm4.09 4.22c.1 0 .16 0 .16.12v4c0 .08-.06.12-.16.12h-.39q-.15 0-.15-.12v-.34h-5.58v.27c0 .08-.06.12-.16.12h-.39q-.15 0-.15-.12v-4a.13.13 0 0 1 .15-.15zm-3.78 1.59v-1h-2.34v1zm0 1.6v-1h-2.34v1zm4.49-7.68c.07 0 .11 0 .11.14 0 1.06 0 1.82-.11 2.28a4.75 4.75 0 0 1 -.3 1.23c-.12.3-.44.44-.95.44s-.76-.06-.79-.19a1.44 1.44 0 0 0 -.3-.52v-.11h1.09a.42.42 0 0 0 .44-.29 3.39 3.39 0 0 0 .18-.9c0-.32.08-.84.1-1.54h-1.58a10.86 10.86 0 0 1 -.11 1.38 4.68 4.68 0 0 1 -.3 1.09 2.22 2.22 0 0 1 -.42.59 2.44 2.44 0 0 1 -.57.46 6.89 6.89 0 0 1 -.47-.51 1.85 1.85 0 0 0 .39-.3 2.31 2.31 0 0 0 .41-.56 4.15 4.15 0 0 0 .27-.94c0-.28.07-.69.09-1.21h-1c-.08 0-.12-.05-.12-.16v-.31c0-.1 0-.14.12-.14zm-3.78 6.08h2.53v-1h-2.53zm2.53 1.6v-1h-2.53v1z" fill="#363736"/><path d="m20.2 137s-.06.09-.16.12a.43.43 0 0 0 -.3.15 5.91 5.91 0 0 1 -.49.63h3.67c.13 0 .2 0 .2.11v7.23c0 .08-.07.12-.2.12h-.39c-.11 0-.15 0-.15-.12v-.62h-5.74v.62c0 .08-.07.12-.19.12h-.39c-.11 0-.16 0-.16-.12v-7.24c0-.07 0-.11.16-.11h2.23a4.7 4.7 0 0 0 .33-.35 3.75 3.75 0 0 0 .54-.89c0-.05.05-.09.1-.09a5.65 5.65 0 0 1 .94.44zm2.18 3.87v-2.31h-5.74v2.31zm0 3v-2.38h-5.74v2.38z" fill="#363736"/><path d="m27.93 136.75c0 .06 0 .09-.08.09a.35.35 0 0 0 -.23.11 15.81 15.81 0 0 1 -.74 1.79v6.53c0 .08-.06.12-.16.12h-.39c-.11 0-.16 0-.16-.12v-5.37c-.22.3-.49.66-.82 1.07a.27.27 0 0 1 -.2-.09l-.31-.25a.16.16 0 0 1 -.07-.13c.26-.32.53-.67.81-1a8.57 8.57 0 0 0 .92-1.6 11.26 11.26 0 0 0 .53-1.54s0-.06.08-.06a3.4 3.4 0 0 1 .82.45zm2.58.55v-.94c0-.06 0-.1 0-.1l.7.05c.09 0 .16.05.16.09s0 .12-.09.12a.2.2 0 0 0 -.11.21v.57h2.65c.08 0 .12.06.12.16v.31c0 .11 0 .16-.12.16h-2.61v1h2.18c.1 0 .16 0 .16.12v3.12c0 .08-.06.12-.16.12h-.39c-.11 0-.16 0-.16-.12v-.46h-1.72s0 .07 0 .1a3.86 3.86 0 0 1 -.42 1.28 4.12 4.12 0 0 1 -.35.54 3.15 3.15 0 0 0 .49.22 7.44 7.44 0 0 0 1.12.39c.34.09.72.18 1.18.26l.76.1h.13a.22.22 0 0 1 -.1.16l-.34.4a.24.24 0 0 1 -.19.1 15.29 15.29 0 0 1 -1.84-.43c-.47-.16-.86-.3-1.15-.43a4.35 4.35 0 0 1 -.53-.28 5.19 5.19 0 0 1 -1.3.94 2.08 2.08 0 0 1 -.68.24c-.06 0-.09 0-.11-.1s-.19-.33-.28-.47-.08-.05-.08-.06 0-.07 0-.07a3.64 3.64 0 0 0 1.06-.37 3.79 3.79 0 0 0 .73-.52 7.35 7.35 0 0 1 -1-.91c0-.07.21-.17.63-.31a5.53 5.53 0 0 0 .82.73 2.85 2.85 0 0 0 .35-.55 2.33 2.33 0 0 0 .29-.9.44.44 0 0 1 0-.1h-1.6v.33c0 .08-.06.12-.16.12h-.39q-.15 0-.15-.12v-2.9a.14.14 0 0 1 .15-.16h2.27v-1h-2.43c-.08 0-.12-.05-.12-.16v-.31c0-.1 0-.16.12-.16zm0 3.79c0-.22 0-.45 0-.7v-.82h-1.72v1.52zm.73-.7v.7h1.65v-1.52h-1.68z" fill="#363736"/><path d="m42.92 136.69c.13 0 .2 0 .2.14v7.48a.82.82 0 0 1 -.49.73 4.29 4.29 0 0 1 -1.18.27.12.12 0 0 1 -.13-.12 1.78 1.78 0 0 0 -.22-.62s0-.06.1-.06a2.39 2.39 0 0 0 1-.11.43.43 0 0 0 .2-.38v-1.6h-2.52v2.58c0 .07-.05.11-.15.11h-.39c-.11 0-.16 0-.16-.11v-2.62h-2.65v.25a6.67 6.67 0 0 1 -.48 1.7 4.31 4.31 0 0 1 -.54 1h-.1a1.54 1.54 0 0 0 -.36-.27.19.19 0 0 1 0-.14 4.42 4.42 0 0 0 .55-1.17 10.34 10.34 0 0 0 .36-1.64 19.19 19.19 0 0 0 .11-2.19v-3.09c0-.1.05-.14.15-.14zm-3.74 5.1v-1.95h-2.5v.08c0 .72 0 1.35-.07 1.87zm0-2.57v-1.92h-2.5v1.92zm.7 0h2.54v-1.92h-2.54zm2.54 2.57v-1.95h-2.54v1.95z" fill="#363736"/><path d="m46.64 138v-1.64c0-.06 0-.1 0-.1a8.51 8.51 0 0 1 .86.14c0 .08 0 .12-.08.12a.24.24 0 0 0 -.11.23v1.25h1.29c.07 0 .11.06.11.16v.31c0 .11 0 .16-.11.16h-1.25v1.17.59h1.46q.12 0 .12.15v.32q0 .15-.12.15h-1.38a6.24 6.24 0 0 0 .36.94 3.09 3.09 0 0 0 .42.71 2 2 0 0 0 .44.47 2.22 2.22 0 0 0 .45.34.11.11 0 0 1 -.07.11 1.36 1.36 0 0 0 -.25.34.18.18 0 0 1 -.15.06 2.75 2.75 0 0 1 -.61-.51 3.53 3.53 0 0 1 -.47-.64 4.13 4.13 0 0 1 -.39-.76 5.49 5.49 0 0 1 -.24.89 5.7 5.7 0 0 1 -.65 1.28 5.79 5.79 0 0 1 -1 1s-.07 0-.1-.09a2.79 2.79 0 0 0 -.32-.28c-.06 0-.08-.07-.08-.1a5 5 0 0 0 .94-1 4.43 4.43 0 0 0 .49-1 7.32 7.32 0 0 0 .31-1.45v-.31h-1.51q-.12 0-.12-.15v-.32q0-.15.12-.15h1.59c0-.19 0-.39 0-.59v-1.17h-1.43c-.08 0-.12 0-.12-.16v-.31c0-.1 0-.16.12-.16zm6.63-1.56c.1 0 .16 0 .16.12v5.74c0 .08-.06.12-.16.12h-.81v2c0 .1 0 .16.07.16h.74c.1 0 .21-.28.32-.86l.62.39c-.2.75-.45 1.13-.74 1.13h-1.21c-.34 0-.51-.16-.51-.47v-2.34h-.75a5.19 5.19 0 0 1 -.16 1.18 2.92 2.92 0 0 1 -.48 1 2.8 2.8 0 0 1 -.65.52 5.06 5.06 0 0 1 -.89.4l-.47-.51a4.58 4.58 0 0 0 .65-.26 2.81 2.81 0 0 0 .67-.47 2.05 2.05 0 0 0 .46-.81 4.07 4.07 0 0 0 .16-1h-.65c-.11 0-.16 0-.16-.12v-5.74c0-.08 0-.12.16-.12zm-.54 1.76v-1.13h-2.53v1.13zm0 1.8v-1.18h-2.53v1.18zm0 .62h-2.53v1.17h2.53z" fill="#363736"/><path d="m57 136.67c.06.06.1.1.1.12s-.07.12-.19.12a.14.14 0 0 0 -.14.08l-.07.16h2.67s.08 0 .08.11v.31c0 .11 0 .16-.08.16h-1.2c.15.22.29.44.42.67s0 .15-.07.15a1 1 0 0 1 -.52.24c-.2-.43-.38-.78-.54-1.06h-1.05a3.21 3.21 0 0 1 -.29.46 3.69 3.69 0 0 1 -.36.46 2.57 2.57 0 0 1 -.29.29.18.18 0 0 1 -.15-.09 1.42 1.42 0 0 0 -.29-.35c-.08 0-.11-.08-.11-.1s0 0 0 0a3 3 0 0 0 .41-.36 5.1 5.1 0 0 0 .45-.61 2.61 2.61 0 0 0 .24-.47 3.78 3.78 0 0 0 .2-.52s0-.08 0-.08zm0 2.58v-.5q0-.12.15-.12c.49 0 .74 0 .74.12s0 .14-.09.14-.1.09-.1.21v.15h1.8s.07 0 .07.12v.31c0 .11 0 .16-.07.16h-1.8v.51h1.6c.1 0 .16 0 .16.12v2.65c0 .08-.06.12-.16.12h-1.6v.47h2c.05 0 .08 0 .08.11v.32c0 .1 0 .15-.08.15h-2v.94c0 .08-.06.12-.16.12h-.39q-.15 0-.15-.12v-.94h-2c-.06 0-.08 0-.08-.15v-.32c0-.07 0-.11.08-.11h2v-.47h-1.57q-.15 0-.15-.12v-2.65q0-.12.15-.12h1.57v-.51h-1.8c-.06 0-.08-.05-.08-.16v-.31c0-.08 0-.12.08-.12zm0 2.31v-.66h-1v.66zm0 .51h-1v.62h1zm.7-.51h1.05v-.66h-1.09zm1.05.51h-1.09v.62h1.05zm2.95-5.4c.05.06.09.1.09.12s-.07.12-.2.12a.17.17 0 0 0 -.13.08 1.38 1.38 0 0 1 -.06.16h2.38s.08 0 .08.11v.31c0 .11 0 .16-.08.16h-1.35a7.63 7.63 0 0 1 .49.67q0 .15-.06.15a1 1 0 0 1 -.52.24c-.24-.43-.46-.78-.64-1.06h-.62a4.25 4.25 0 0 1 -.27.46 5 5 0 0 1 -.34.46c-.12.14-.21.23-.27.29a.16.16 0 0 1 -.15-.09 1.72 1.72 0 0 0 -.3-.35c-.07 0-.1-.08-.1-.1s0 0 0 0a2.66 2.66 0 0 0 .38-.36 4.23 4.23 0 0 0 .43-.61 3.39 3.39 0 0 0 .23-.47c.06-.15.12-.32.18-.52v-.08zm-.92 7.43c0 .32.19.47.59.47h1.28c.3 0 .48-.1.54-.32a3 3 0 0 0 .2-.74 1.49 1.49 0 0 0 .55.31.15.15 0 0 1 .06.18 2.51 2.51 0 0 1 -.33.89c-.11.24-.39.36-.85.36h-1.9q-.9 0-.9-.66v-5.24c0-.1.05-.15.16-.15h2.88c.1 0 .15 0 .15.11v2.78a.77.77 0 0 1 -.08.45 1.37 1.37 0 0 1 -1 .29c-.23 0-.35-.05-.36-.16s-.06-.3-.11-.47a.07.07 0 0 1 .08-.07h.55c.18 0 .27-.09.27-.28v-2h-1.82z" fill="#363736"/><path d="m.35 135.22h.84v11.26h-.84z" fill="#363736"/><path d="m7 284.72h5.27a.41.41 0 0 1 .2.06c.12.1.19.17.19.21a14.91 14.91 0 0 1 -.39 1.57 6.85 6.85 0 0 1 -.63 1.31 5.2 5.2 0 0 1 -.64.93 2.15 2.15 0 0 1 -.19.22 4.75 4.75 0 0 0 1.08.68 8 8 0 0 0 1.81.68c.08 0 .13.05.13.08a.21.21 0 0 1 -.05.12 2.64 2.64 0 0 0 -.38.37c-.05.06-.09.1-.12.1a.8.8 0 0 1 -.28-.05c-.35-.13-.73-.28-1.15-.46a9.78 9.78 0 0 1 -1.37-.83l-.2-.17a3.48 3.48 0 0 1 -.3.26 7 7 0 0 1 -1.08.68 11.43 11.43 0 0 1 -1.48.65.21.21 0 0 1 -.17-.1 4.87 4.87 0 0 0 -.47-.32l-.06-.09s0-.06.08-.07a9.44 9.44 0 0 0 1.68-.64 4.86 4.86 0 0 0 1.22-.8l.1-.11a3.34 3.34 0 0 1 -.41-.45 4.14 4.14 0 0 1 -.79-1.32 7.71 7.71 0 0 1 -.66-1.9h-.94v.35a11.35 11.35 0 0 1 -.24 2.63 5.49 5.49 0 0 1 -.64 1.69 3.61 3.61 0 0 1 -.69.93h-.1a2.42 2.42 0 0 0 -.33-.33.17.17 0 0 1 0-.14 3.64 3.64 0 0 0 .75-1.12 6.72 6.72 0 0 0 .47-1.56 12.24 12.24 0 0 0 .15-2.08v-3.17c0-.1 0-.15.16-.15h6.47q.12 0 .12.15v.32q0 .15-.12.15h-6zm2 1.78a5.29 5.29 0 0 0 .74 1.39 4.32 4.32 0 0 0 .58.68 3.24 3.24 0 0 0 .4-.47 9.32 9.32 0 0 0 .69-1.18 12.55 12.55 0 0 0 .46-1.57h-3.25a5.81 5.81 0 0 0 .38 1.15z" fill="#363736"/><path d="m20.2 282.73s-.06.09-.16.12a.43.43 0 0 0 -.3.15 5.91 5.91 0 0 1 -.49.63h3.67c.13 0 .2 0 .2.11v7.26c0 .08-.07.12-.2.12h-.39c-.11 0-.15 0-.15-.12v-.62h-5.74v.62c0 .08-.07.12-.19.12h-.39c-.11 0-.16 0-.16-.12v-7.23c0-.07 0-.11.16-.11h2.23a4.7 4.7 0 0 0 .33-.35 3.75 3.75 0 0 0 .54-.89c0-.06.05-.09.1-.09a5.65 5.65 0 0 1 .94.4zm2.18 3.87v-2.31h-5.74v2.31zm0 3v-2.38h-5.74v2.38z" fill="#363736"/><path d="m27.93 282.49c0 .06 0 .09-.08.09a.31.31 0 0 0 -.23.11 15.81 15.81 0 0 1 -.74 1.79v6.52c0 .08-.06.12-.16.12h-.39c-.11 0-.16 0-.16-.12v-5.37c-.22.3-.49.66-.82 1.07a.27.27 0 0 1 -.2-.09l-.31-.25a.16.16 0 0 1 -.07-.13c.26-.32.53-.67.81-1a8.57 8.57 0 0 0 .92-1.6 11.26 11.26 0 0 0 .53-1.54s0-.07.08-.07a3.59 3.59 0 0 1 .82.47zm2.58.55v-.94c0-.07 0-.11 0-.11l.7.06c.09 0 .16.05.16.09a.1.1 0 0 1 -.09.12.19.19 0 0 0 -.11.2v.54h2.65c.08 0 .12.06.12.16v.31c0 .11 0 .16-.12.16h-2.61v1h2.18c.1 0 .16 0 .16.12v3.12c0 .08-.06.12-.16.12h-.39c-.11 0-.16 0-.16-.12v-.46h-1.72s0 .07 0 .1a3.86 3.86 0 0 1 -.42 1.28 4.12 4.12 0 0 1 -.35.54 3.15 3.15 0 0 0 .49.22 7.44 7.44 0 0 0 1.16.45c.34.09.72.18 1.18.26l.76.1h.13a.22.22 0 0 1 -.1.16l-.34.4a.24.24 0 0 1 -.19.1 15.29 15.29 0 0 1 -1.84-.43c-.47-.16-.86-.3-1.15-.43a4.35 4.35 0 0 1 -.53-.28 5.19 5.19 0 0 1 -1.3.94 2.08 2.08 0 0 1 -.68.24c-.06 0-.09 0-.11-.1s-.19-.33-.28-.47-.08 0-.08-.06 0-.07 0-.07a3.64 3.64 0 0 0 1.06-.37 3.79 3.79 0 0 0 .73-.52 7.35 7.35 0 0 1 -1-.91c0-.07.21-.17.63-.31a5.53 5.53 0 0 0 .82.73 2.85 2.85 0 0 0 .35-.55 2.33 2.33 0 0 0 .29-.9.44.44 0 0 1 0-.1h-1.6v.23c0 .08-.06.12-.16.12h-.39q-.15 0-.15-.12v-2.85a.14.14 0 0 1 .15-.16h2.27v-1h-2.47c-.08 0-.12-.05-.12-.16v-.31c0-.1 0-.16.12-.16zm0 3.79c0-.22 0-.45 0-.7v-.82h-1.72v1.52zm.73-.7v.7h1.65v-1.52h-1.68z" fill="#363736"/><path d="m42.92 282.42c.13 0 .2.05.2.15v7.48a.82.82 0 0 1 -.49.73 4.29 4.29 0 0 1 -1.18.27.12.12 0 0 1 -.13-.12 1.78 1.78 0 0 0 -.22-.62s0-.06.1-.06a2.39 2.39 0 0 0 1-.11.43.43 0 0 0 .2-.38v-1.6h-2.52v2.62c0 .07-.05.11-.15.11h-.39c-.11 0-.16 0-.16-.11v-2.62h-2.65v.25a6.67 6.67 0 0 1 -.48 1.7 4.31 4.31 0 0 1 -.54 1h-.1a1.54 1.54 0 0 0 -.36-.27.19.19 0 0 1 0-.14 4.42 4.42 0 0 0 .55-1.17 10.34 10.34 0 0 0 .36-1.64 19.19 19.19 0 0 0 .11-2.19v-3.09a.13.13 0 0 1 .15-.15zm-3.74 5.11v-1.95h-2.5v.08c0 .72 0 1.35-.07 1.87zm0-2.57v-1.96h-2.5v2zm.7 0h2.54v-1.96h-2.54zm2.54 2.57v-1.95h-2.54v1.95z" fill="#363736"/><path d="m46.64 283.74v-1.64c0-.07 0-.11 0-.11a5 5 0 0 1 .86.15c0 .07 0 .11-.08.11a.26.26 0 0 0 -.11.24v1.25h1.29c.07 0 .11.06.11.16v.31c0 .11 0 .16-.11.16h-1.25v1.17.59h1.46q.12 0 .12.15v.32q0 .15-.12.15h-1.38a6.24 6.24 0 0 0 .36.94 3.09 3.09 0 0 0 .42.71 2 2 0 0 0 .44.47 2.22 2.22 0 0 0 .45.34.11.11 0 0 1 -.07.11 1.36 1.36 0 0 0 -.25.34.18.18 0 0 1 -.15.06 2.75 2.75 0 0 1 -.61-.51 3.53 3.53 0 0 1 -.47-.64 4.13 4.13 0 0 1 -.39-.76 5.49 5.49 0 0 1 -.24.89 5.7 5.7 0 0 1 -.65 1.28 5.79 5.79 0 0 1 -1 1s-.07 0-.1-.09a2.79 2.79 0 0 0 -.32-.28c-.06 0-.08-.07-.08-.1a5 5 0 0 0 .94-1 4.43 4.43 0 0 0 .49-1 7.32 7.32 0 0 0 .31-1.45v-.31h-1.51q-.12 0-.12-.15v-.32q0-.15.12-.15h1.59c0-.19 0-.39 0-.59v-1.17h-1.43c-.08 0-.12-.05-.12-.16v-.31c0-.1 0-.16.12-.16zm6.63-1.56c.1 0 .16 0 .16.12v5.7c0 .08-.06.12-.16.12h-.81v2c0 .1 0 .16.07.16h.74c.1 0 .21-.28.32-.86l.62.39c-.2.75-.45 1.13-.74 1.13h-1.21c-.34 0-.51-.16-.51-.47v-2.34h-.75a5.19 5.19 0 0 1 -.16 1.18 2.92 2.92 0 0 1 -.48 1 2.8 2.8 0 0 1 -.65.52 5.06 5.06 0 0 1 -.89.4l-.47-.51a4.58 4.58 0 0 0 .65-.26 2.81 2.81 0 0 0 .67-.47 2.05 2.05 0 0 0 .46-.81 4.07 4.07 0 0 0 .16-1h-.65c-.11 0-.16 0-.16-.12v-5.76c0-.08 0-.12.16-.12zm-.54 1.76v-1.13h-2.53v1.13zm0 1.8v-1.18h-2.53v1.18zm0 .62h-2.53v1.17h2.53z" fill="#363736"/><path d="m57 282.41c.06 0 .1.09.1.12s-.07.12-.19.12a.14.14 0 0 0 -.14.08l-.07.16h2.67s.08 0 .08.11v.31c0 .11 0 .16-.08.16h-1.2c.15.22.29.44.42.67s0 .15-.07.15a1 1 0 0 1 -.52.24c-.2-.43-.38-.78-.54-1.06h-1.05a3.21 3.21 0 0 1 -.29.46 3.69 3.69 0 0 1 -.36.46 2.57 2.57 0 0 1 -.29.29.18.18 0 0 1 -.15-.09 1.42 1.42 0 0 0 -.29-.35c-.08 0-.11-.08-.11-.1s0 0 0 0a3 3 0 0 0 .41-.36 5.1 5.1 0 0 0 .45-.61 2.61 2.61 0 0 0 .24-.47 4.55 4.55 0 0 0 .2-.53s0-.07 0-.07zm0 2.59v-.5q0-.12.15-.12c.49 0 .74 0 .74.12s0 .14-.09.14-.1.09-.1.21v.15h1.8s.07 0 .07.12v.31c0 .11 0 .16-.07.16h-1.8v.51h1.6c.1 0 .16 0 .16.12v2.65c0 .08-.06.12-.16.12h-1.6v.47h2c.05 0 .08 0 .08.11v.32c0 .1 0 .15-.08.15h-2v.96c0 .08-.06.12-.16.12h-.39q-.15 0-.15-.12v-1h-2c-.06 0-.08 0-.08-.15v-.32c0-.07 0-.11.08-.11h2v-.42h-1.57q-.15 0-.15-.12v-2.65q0-.12.15-.12h1.57v-.51h-1.8c-.06 0-.08-.05-.08-.16v-.31c0-.08 0-.12.08-.12zm0 2.31v-.66h-1v.66zm0 .51h-1v.62h1zm.7-.51h1.05v-.66h-1.09zm1.05.51h-1.09v.62h1.05zm2.95-5.4c.05 0 .09.09.09.12s-.07.12-.2.12a.17.17 0 0 0 -.13.08 1.38 1.38 0 0 1 -.06.16h2.38s.08 0 .08.11v.31c0 .11 0 .16-.08.16h-1.35a7.63 7.63 0 0 1 .49.67q0 .15-.06.15a1 1 0 0 1 -.52.24c-.24-.43-.46-.78-.64-1.06h-.62a4.25 4.25 0 0 1 -.27.46 5 5 0 0 1 -.34.46c-.12.14-.21.23-.27.29a.16.16 0 0 1 -.15-.09 1.72 1.72 0 0 0 -.3-.35c-.07 0-.1-.08-.1-.1s0 0 0 0a2.66 2.66 0 0 0 .38-.36 4.23 4.23 0 0 0 .43-.61 3.39 3.39 0 0 0 .23-.47c.06-.16.12-.33.18-.53v-.07zm-.92 7.43c0 .32.19.47.59.47h1.28c.3 0 .48-.1.54-.32a3 3 0 0 0 .2-.74 1.49 1.49 0 0 0 .55.31.15.15 0 0 1 .12.16 2.51 2.51 0 0 1 -.33.89c-.11.24-.39.36-.85.36h-1.9q-.9 0-.9-.66v-5.24c0-.1.05-.15.16-.15h2.88c.1 0 .15 0 .15.11v2.78a.77.77 0 0 1 -.08.45 1.37 1.37 0 0 1 -1 .29c-.23 0-.35-.05-.36-.16s-.06-.3-.11-.47a.07.07 0 0 1 .08-.07h.55c.18 0 .27-.09.27-.28v-2h-1.88z" fill="#363736"/><path d="m.35 280.95h.84v11.26h-.84z" fill="#363736"/><path d="m6.29 3.22v-1.95c0-.08 0-.12.16-.12.49 0 .74 0 .74.12s0 .14-.1.15-.1.08-.1.2v1.6h.9c.08 0 .12.06.12.16v.31c0 .11 0 .16-.12.16h-.77a8.79 8.79 0 0 0 .36 1.05 5 5 0 0 0 .71 1.25.16.16 0 0 1 .05.11s0 0-.06.08a2.3 2.3 0 0 1 -.27.28.11.11 0 0 1 -.2 0 6 6 0 0 1 -.61-1.18c0-.11-.08-.21-.11-.32v5q0 .12-.15.12h-.39c-.11 0-.16 0-.16-.12v-4c-.1.3-.19.58-.29.83a7.7 7.7 0 0 1 -.57 1.23.18.18 0 0 1 -.16-.06l-.42-.21c-.06 0-.08 0-.08 0a9.22 9.22 0 0 0 .7-1.41 8.46 8.46 0 0 0 .42-1.26c.08-.29.17-.71.28-1.3h-1c-.17-.09-.17-.14-.17-.25v-.31c0-.1 0-.16.12-.16zm3.52 5.14a.24.24 0 0 1 .07.13s0 0-.06 0a.27.27 0 0 0 -.16.06 4.3 4.3 0 0 1 -.54.58 7 7 0 0 1 -.88.61.14.14 0 0 1 -.15-.08l-.32-.28s-.07-.05-.07-.07a.05.05 0 0 1 0 0 1.63 1.63 0 0 0 .42-.2 3.79 3.79 0 0 0 .61-.5c.14-.15.31-.34.49-.57h.05zm4-1.43c.05 0 .08 0 .08.11v.31c0 .11 0 .16-.08.16h-2.44v1.92c0 .49-.41.74-1.21.74h-.43c-.05 0-.07-.07-.07-.19a1.64 1.64 0 0 0 -.17-.52 3.57 3.57 0 0 0 .63.07c.36 0 .55-.12.55-.35v-1.67h-2.5c-.06 0-.08 0-.08-.16v-.35c0-.07 0-.11.08-.11zm0-5.39s.08 0 .08.12v.34c0 .11 0 .16-.08.16h-1.75v.78h1.41q.15 0 .15.12v1.88q0 .12-.15.12h-5c-.11 0-.16 0-.16-.12v-1.94c0-.08 0-.12.16-.12h1.38v-.75h-1.61c-.05 0-.07 0-.07-.16v-.31c0-.08 0-.12.07-.12zm-.66 4.17s.07 0 .07.12v.31c0 .11 0 .16-.07.16h-4.32c-.06 0-.08 0-.08-.16v-.31c0-.08 0-.12.08-.12zm-3.3-2.21h-.85v1h.82zm1.56-1.37h-.9v.78h.9zm0 1.37h-.9v1h.9zm1.51 0h-.86v1h.86zm.37 5.15c.25.26.47.49.65.7v.07l-.3.4a8.29 8.29 0 0 0 -.87-.9 4.8 4.8 0 0 0 -.62-.47 1.56 1.56 0 0 1 .23-.45.09.09 0 0 1 .08 0 9.94 9.94 0 0 1 .83.65z" fill="#363736"/><path d="m16.27 3.33.65.44s0 0-.05.07a4.27 4.27 0 0 1 -.31.4c-.28-.2-.56-.39-.86-.57a4.48 4.48 0 0 0 -.62-.29 2 2 0 0 1 .27-.4s.06-.07.08-.07q.51.24.84.42zm3.07 4.42v-.63q0-.12.15-.12.75 0 .75.12c0 .09 0 .14-.1.15s-.1.08-.1.2v.28h3.58q.12 0 .12.15v.31c0 .11 0 .16-.12.16h-3.62v1.8c0 .07-.06.11-.16.11h-.39c-.1 0-.15 0-.15-.11v-1.8h-4.1c-.08 0-.12 0-.12-.16v-.31q0-.15.12-.15zm-1.94-3.2a4.79 4.79 0 0 1 .22.51s0 .05-.05.08a12.54 12.54 0 0 1 -1 1.15c-.17.18-.38.37-.62.58a.37.37 0 0 0 -.06.21c0 .08 0 .12-.08.12a2.64 2.64 0 0 1 -.56-.56.11.11 0 0 1 -.06-.11.1.1 0 0 1 .05-.08 3.2 3.2 0 0 0 .6-.43 8.62 8.62 0 0 0 .82-.79c.23-.25.43-.5.61-.71h.07s.04-.02.06.03zm-.46-2.9.6.44s0 0-.05.07l-.3.4c-.26-.2-.52-.39-.8-.57a3.84 3.84 0 0 0 -.57-.29 1.85 1.85 0 0 1 .28-.4s0-.07.07-.07c.31.16.57.3.77.42zm3-.34c0 .06 0 .09-.05.09s-.16.05-.18.11c-.13.27-.25.5-.36.7h1.58c.08-.12.13-.22.19-.3a5 5 0 0 0 .28-.76s0-.07.07-.07a6.57 6.57 0 0 1 .81.39s0 .05-.12.07a.25.25 0 0 0 -.18.14c-.08.18-.17.35-.26.53h1.85s.07 0 .07.12v.31c0 .08 0 .12-.07.12h-2v.7h1.76c.05 0 .08 0 .08.12v.31c0 .1 0 .15-.08.15h-1.78v.67h1.76c.05 0 .08 0 .08.11v.32c0 .09 0 .14-.08.14h-1.76v.72h2.19c.05 0 .08 0 .08.11v.32c0 .1 0 .15-.08.15h-4.64v.42q0 .12-.15.12h-.32q-.15 0-.15-.12v-3.68c-.18.19-.4.41-.67.65a.22.22 0 0 1 -.17-.09l-.27-.23a.14.14 0 0 1 -.06-.11c.22-.2.44-.42.67-.65a5 5 0 0 0 .76-1 4.66 4.66 0 0 0 .44-.89s0-.08 0-.08a2.56 2.56 0 0 1 .74.39zm.94 1.45h-1.78v.7h1.76zm0 1.28h-1.78v.67h1.76zm0 2v-.76h-1.78v.72z" fill="#363736"/><path d="m28.44 1.51c0 .06 0 .08-.08.08a.31.31 0 0 0 -.23.11 15.39 15.39 0 0 1 -.71 1.5v6.89c0 .08-.07.12-.19.12h-.39c-.11 0-.16 0-.16-.12v-5.76c-.27.36-.69.82-1.25 1.42a.24.24 0 0 1 -.2-.09l-.31-.25a.16.16 0 0 1 -.07-.13 14.06 14.06 0 0 0 1-1 8.54 8.54 0 0 0 1.1-1.62 8.93 8.93 0 0 0 .63-1.54c0-.05 0-.08.08-.08a3.05 3.05 0 0 1 .78.47zm5.09 2.49a8.58 8.58 0 0 1 -1.07.71 10.82 10.82 0 0 1 -1.94.86h-.09v3.27c0 .32.18.47.55.47h1c.55 0 .88-.06 1-.2a3 3 0 0 0 .51-1.25 1.24 1.24 0 0 0 .44.4c.09 0 .14.09.14.15a3.41 3.41 0 0 1 -.63 1.33 1.2 1.2 0 0 1 -.93.27h-1.61c-.81 0-1.21-.25-1.21-.74v-8c0-.08 0-.12 0-.12l.73.09c.08 0 .13 0 .13.07s0 .11-.07.12a.1.1 0 0 0 -.09.12v3.3a5.35 5.35 0 0 0 1.48-.61 9.28 9.28 0 0 0 1.32-1h.08a5.5 5.5 0 0 1 .59.66c0 .06-.06.08-.16.08h-.08a.38.38 0 0 0 -.09.02z" fill="#363736"/><path d="m36.64 2.79v-1.64c0-.07 0-.11 0-.11a5 5 0 0 1 .86.15c0 .07 0 .11-.08.11a.26.26 0 0 0 -.11.24v1.25h1.29c.07 0 .11.06.11.16v.31c0 .11 0 .16-.11.16h-1.25v1.17.59h1.46c.08 0 .12.05.12.14v.33c0 .09 0 .14-.12.14h-1.38a6.24 6.24 0 0 0 .36.94 3.09 3.09 0 0 0 .42.71 2 2 0 0 0 .44.47 2.22 2.22 0 0 0 .45.34.11.11 0 0 1 -.07.11 1.36 1.36 0 0 0 -.25.34.18.18 0 0 1 -.15.06 2.75 2.75 0 0 1 -.63-.51 3.53 3.53 0 0 1 -.47-.64 4.13 4.13 0 0 1 -.39-.76 5.49 5.49 0 0 1 -.24.89 5.7 5.7 0 0 1 -.63 1.26 5.79 5.79 0 0 1 -1 1s-.07 0-.1-.09a2.79 2.79 0 0 0 -.32-.28c-.06 0-.08-.07-.08-.1a5 5 0 0 0 .94-1 4.43 4.43 0 0 0 .49-1 7.32 7.32 0 0 0 .31-1.45v-.31h-1.51c-.08 0-.12 0-.12-.14v-.31c0-.09 0-.14.12-.14h1.59c0-.2 0-.39 0-.59v-1.17h-1.43c-.08 0-.12 0-.12-.16v-.26c0-.1 0-.16.12-.16zm6.63-1.56c.1 0 .16 0 .16.12v5.73c0 .08-.06.12-.16.12h-.81v2c0 .1 0 .16.07.16h.74c.1 0 .21-.28.32-.86l.62.39c-.2.75-.45 1.13-.74 1.13h-1.21c-.34 0-.51-.16-.51-.47v-2.35h-.75a5.19 5.19 0 0 1 -.16 1.18 2.92 2.92 0 0 1 -.48.95 2.8 2.8 0 0 1 -.65.52 5.06 5.06 0 0 1 -.89.4l-.47-.51a4.58 4.58 0 0 0 .65-.26 2.81 2.81 0 0 0 .68-.48 2.05 2.05 0 0 0 .46-.81 4.07 4.07 0 0 0 .16-1h-.65c-.11 0-.16 0-.16-.12v-5.72c0-.08 0-.12.16-.12zm-.54 1.77v-1.14h-2.53v1.14zm0 1.8v-1.19h-2.53v1.18zm0 .61h-2.53v1.16h2.53z" fill="#363736"/><path d="m46.49 3.15v-1.84q0-.12.15-.12c.49 0 .74 0 .74.12s0 .14-.09.15-.1.08-.1.2v1.49h1.17c.08 0 .12 0 .12.11v.39c0 .11 0 .16-.12.16h-1.09a5.66 5.66 0 0 0 .34.81 4.44 4.44 0 0 0 .73 1s.06 0 .06.09 0 0-.07.09a2 2 0 0 1 -.29.3c0 .06-.08.08-.11.08a.17.17 0 0 1 -.11-.06 5 5 0 0 1 -.62-1 0 0 0 0 1 0 0v4.91c0 .08-.06.12-.16.12h-.39q-.15 0-.15-.12v-4.22c-.13.32-.26.62-.4.89a7.44 7.44 0 0 1 -.7 1.16.22.22 0 0 1 -.17-.05 3.55 3.55 0 0 1 -.44-.21c-.06 0-.09 0-.09 0a8.05 8.05 0 0 0 .87-1.35 7 7 0 0 0 .51-1.25 8.67 8.67 0 0 0 .33-1.18h-1.25c-.08 0-.12-.05-.12-.16v-.4c0-.07 0-.11.12-.11zm4.26-1.82c.07.06.11.1.11.14a.11.11 0 0 1 -.08.11.11.11 0 0 0 -.12.1c0 .1-.06.18-.09.26h2.43a.23.23 0 0 1 .16.06 1.24 1.24 0 0 1 .19.33 10.53 10.53 0 0 1 -.55 1.45 5.5 5.5 0 0 1 -.63 1.07 2.12 2.12 0 0 1 -.2.24 5.57 5.57 0 0 0 .86.52 6.7 6.7 0 0 0 1.33.47q.09 0 .09.06a.13.13 0 0 1 0 .11 3.85 3.85 0 0 0 -.35.35c-.05.06-.09.09-.11.09a.51.51 0 0 1 -.17-.07 7.41 7.41 0 0 1 -.86-.33 6.12 6.12 0 0 1 -1-.6 1 1 0 0 1 -.2-.15.57.57 0 0 1 -.14.13 5.9 5.9 0 0 1 -1.21.73 3.75 3.75 0 0 1 -.5.21h3.49q.15 0 .15.12v3.32q0 .12-.15.12h-.4q-.15 0-.15-.12v-.47h-2.65v.47q0 .12-.15.12h-.39c-.11 0-.16 0-.16-.12v-3.28a.08.08 0 0 1 0 0 2.05 2.05 0 0 1 -.28.08.19.19 0 0 1 -.19-.09 2.75 2.75 0 0 1 -.23-.33.11.11 0 0 1 0-.09s0 0 .06-.07a5.54 5.54 0 0 0 .8-.27 5 5 0 0 0 1.33-.7l.23-.2a.85.85 0 0 1 -.16-.17 2.72 2.72 0 0 1 -.59-1 3.75 3.75 0 0 1 -.27-.66l-.16.28a4.51 4.51 0 0 1 -.48.57.69.69 0 0 1 -.22 0l-.4-.12c-.05 0-.07 0-.07-.06a.09.09 0 0 1 0-.07 4.34 4.34 0 0 0 .71-1 4.11 4.11 0 0 0 .32-.7 8.8 8.8 0 0 0 .29-1s0-.06.06-.06zm1.9 7.67v-1.76h-2.65v1.76zm-2-5.62a4.33 4.33 0 0 0 .55 1 2.48 2.48 0 0 0 .25.3 2.32 2.32 0 0 1 .21-.25 4.88 4.88 0 0 0 .56-1 4.48 4.48 0 0 0 .29-.78h-2.07a4.21 4.21 0 0 0 .25.69z" fill="#363736"/><path d="m.35 0h.84v11.26h-.84z" fill="#363736"/><path d="m2.91 53.41a3.07 3.07 0 0 0 .5.71 2 2 0 0 1 .68 1.19 5.32 5.32 0 0 1 -.34 1.8 15.35 15.35 0 0 1 -.84 1.65 7.07 7.07 0 0 1 -1.11 1.52c-.38.37-.66.53-.84.53s-.34-.32-.52-1a5 5 0 0 1 -.32-1.49 5.06 5.06 0 0 1 .35-1.15 1.58 1.58 0 0 1 .9-.93c.21-.41.43-.84.68-1.31a4.55 4.55 0 0 0 .4-.93 11.08 11.08 0 0 1 -.12-1.27 3.1 3.1 0 0 1 .58.68zm3.57-1c1.14 3.79 3.81 6.11 8 7 1.61 0 2.45-.19 2.45-.62-.69-1.59-1.33-3-2-4.42 4.31 3.17 6.48 5.07 6.48 5.72q-.58 1.91-4.41 2.05-9.66-.31-12-9.14a2.08 2.08 0 0 1 .31-1.16 1.35 1.35 0 0 1 1.17.55zm5-2.8a4.5 4.5 0 0 1 .93 1.74c1.7-.44 2.79-1.15 3.22-2.15.15.06.25.34.25.84 0 .25-.25.56-.75.91l-1.13 1.53a9 9 0 0 1 -1.14 2.39 2.14 2.14 0 0 1 -1.55 1 1.4 1.4 0 0 1 -1-.62 2.25 2.25 0 0 1 -.71-1.4 14.64 14.64 0 0 1 .55-2.17 15.27 15.27 0 0 0 .35-2.33 12.16 12.16 0 0 1 -.66-1.22 8.28 8.28 0 0 1 1.69 1.46zm9-1.13a7.83 7.83 0 0 1 2.26 1 6.6 6.6 0 0 1 1.05 1.31 2.3 2.3 0 0 1 .35 1 3.11 3.11 0 0 1 -.5 1.05c-.34.31-.59.47-.74.47a1.87 1.87 0 0 1 -1-.28 4.33 4.33 0 0 0 -1.12-.16 9.83 9.83 0 0 1 -1.58-.12h-1.2c.18-.13.41-.25.62-.41a2.77 2.77 0 0 0 1-.37 1.92 1.92 0 0 0 .31-1c-.31-.56-.59-1-.83-1.4a5.43 5.43 0 0 1 -.38-1.41 9.46 9.46 0 0 1 1.76.3z" fill="#009e96"/><path d="m40.41 52a5.2 5.2 0 0 1 1 2.08 2.77 2.77 0 0 1 -.18 1 .71.71 0 0 1 -.41.37c-.18.47-.37 1.12-.59 1.93a19.39 19.39 0 0 0 -.4 2.24c.19.46.44 1 .71 1.49.38 0 .94-1.12 1.62-3.39.93-2.3 1.92-4.72 2.94-7.25-.15 1-.4 2.12-.74 3.43a38.64 38.64 0 0 0 5.08-1.8c0-.19.06-.38.09-.53a2.71 2.71 0 0 1 -.71.12c-.56 0-1.49-.69-2.79-2.08a9.07 9.07 0 0 0 1.64-.13c.81-.37 1.58-.74 2.33-1.05a6.17 6.17 0 0 1 .12-.75 4.24 4.24 0 0 1 -1.8.49 8.51 8.51 0 0 1 -2.29-.24c0-.5.43-1.09 1.33-1.71a11.1 11.1 0 0 0 3.16-1.43c.06-.5.16-1 .22-1.49a2.73 2.73 0 0 0 -1.33-2.15v-.15a3.7 3.7 0 0 1 1.08-.22c1.73.49 2.64 1.21 2.76 2.14a6 6 0 0 0 -.06.66.58.58 0 0 0 .21-.07c1.31.07 2 .56 2.3 1.53-.06.24-1 .68-2.89 1.24-.06.43-.15.84-.21 1.21h.77a1.94 1.94 0 0 1 1.43 1.43.62.62 0 0 1 -.44.56 5.19 5.19 0 0 1 -1.39.68c-.4.19-.78.37-1.09.54-.06.24-.12.46-.18.64l5.39-1.67a2.61 2.61 0 0 1 1.61.4 1.61 1.61 0 0 1 .4 1.15 1.51 1.51 0 0 1 -1.6.94 18.07 18.07 0 0 0 -5.33 1c-.84.25-1.68.56-2.54.9-.07.37-.1.71-.13 1a9.13 9.13 0 0 1 2.76-1.59 3.2 3.2 0 0 1 3.41 2.15 13.15 13.15 0 0 1 -.29 2.55 42.27 42.27 0 0 0 .26 4.91c0 1.58-.06 2.89-.06 4-.41 1.21-1 1.83-1.74 1.83a41.58 41.58 0 0 1 -3.75-5.69c-.56.13-1 .25-1.49.38.13.87.25 1.64.44 2.39a1.78 1.78 0 0 1 -.5 1.24s-.09.07-.25.07a8.39 8.39 0 0 1 -1.52-3.39c.37-4 .87-6.78 1.49-8.21a3.22 3.22 0 0 1 .62-1.34c-1 .4-2 .87-3.06 1.37a3.24 3.24 0 0 1 -1.62-.31c-.09 0-.15-.06-.22-.16-.24.87-.49 1.81-.8 2.74-.59 5.56-1.2 8.36-1.83 8.42-.24 0-.65-.37-1.14-1.06a5.88 5.88 0 0 1 -.87-2.17 16.71 16.71 0 0 0 -.25-2.33 5.29 5.29 0 0 1 -.28-1.37c0-1.15.06-2.18.1-3 0-1.12 0-1.83 0-2.17a7.13 7.13 0 0 0 -.58-2 6.12 6.12 0 0 0 -.53-2.34c.54-.09 1.37.63 2.61 2.02zm1.89-7.74a6.31 6.31 0 0 1 2 .9 11 11 0 0 1 .9 1.15 1.91 1.91 0 0 1 .31.87 2 2 0 0 1 -.37.81c-.25.25-.43.34-.56.34a8.43 8.43 0 0 0 -.9.07 6.11 6.11 0 0 1 -1 .05c-.46 0-.93 0-1.39 0h-1.1c.22-.19.47-.38.72-.62a4.67 4.67 0 0 0 1.09-.48 1.79 1.79 0 0 0 .22-.78 14.33 14.33 0 0 0 -1-1.27 3.12 3.12 0 0 1 -.47-1.3 8.38 8.38 0 0 1 1.55.27zm7.5 18.37a6.42 6.42 0 0 1 -.47-.83l.65.68a1.42 1.42 0 0 0 .35-.41 4 4 0 0 1 -.22-1.55 2.31 2.31 0 0 1 .59-1.52 14.8 14.8 0 0 1 -1.67.31c-.16 1.37-.32 2.67-.47 3.95a.36.36 0 0 0 0 .15 7.82 7.82 0 0 0 1.24-.77zm.37-5.63a2.59 2.59 0 0 1 1-.18 1.81 1.81 0 0 1 1.58 1.93 2.55 2.55 0 0 0 -1.2 2 .23.23 0 0 0 .24.19 1.32 1.32 0 0 0 1.15-.5h.34v-1.62c0-2.33-.43-3.51-1.3-3.51-.59.37-1.27.77-2 1.27a4.37 4.37 0 0 1 -.65 0q-.09.89-.18 1.68a2.8 2.8 0 0 0 1.02-1.26zm3 5.63c-1 .16-1.8.31-2.55.47a5.51 5.51 0 0 0 2.61 1.61c0-.49 0-1.21.06-2.08z" fill="#009e96"/><path d="m76.55 48.71a21.52 21.52 0 0 0 .62 2.12 8.78 8.78 0 0 1 .83 2.17 4.84 4.84 0 0 0 0 .77h.06a24.25 24.25 0 0 1 2.94-1.48c.13-.59.22-1.18.32-1.81a28.84 28.84 0 0 0 .24-3.54 2.7 2.7 0 0 0 -.77-2.14 4.38 4.38 0 0 0 -.31.81 4.49 4.49 0 0 1 -.31-.69 2.71 2.71 0 0 1 .56-.65c.49 0 1.24.65 2.23 1.92a5.37 5.37 0 0 1 1.39 3.05 20.38 20.38 0 0 0 -1.48 4.29 35.87 35.87 0 0 0 -.72 4.14c.25.62.56 1.43.94 2.39a9.84 9.84 0 0 1 .58 2.3 2.58 2.58 0 0 1 -1.12.22 2.35 2.35 0 0 1 -1-.25c-.13.68-.25 1.28-.37 1.71-.31 1.18-.62 1.78-.93 1.78-.65 0-1.76-.6-3.32-1.78s-2.75-2-3.5-2.52a1 1 0 0 0 -.64.25c-.53 0-.81-.37-.84-1.15a10 10 0 0 1 .35-1.62 7.83 7.83 0 0 1 1.46-1.87 8.57 8.57 0 0 1 2.07-1.86 1.86 1.86 0 0 1 -.12-.38 22.54 22.54 0 0 1 -.5-3.57 9.5 9.5 0 0 1 .69-2.32c.24-.5.49-.82.8-.91a4 4 0 0 0 -.15.62zm-1.93 11.35c.31 1.25 1.83 2 4.56 2.24.31 0 .56-.25.74-.78a13.83 13.83 0 0 1 -2.72-3.1 6.35 6.35 0 0 1 -.59-1.16c-1.27 1.24-1.92 2.18-1.99 2.8zm5.77-2c0-1.25.06-2.53.18-3.77.06-.25.1-.5.16-.75a29.51 29.51 0 0 1 -2.39 2.18 10.24 10.24 0 0 0 .31 1.28 3.57 3.57 0 0 0 1.62 2 6.57 6.57 0 0 1 .12-1zm11.06-4.8a4.72 4.72 0 0 0 -2.76 1.56c-1.36 0-2-.38-2-1.15q1.39-2.15 5-2.74 3.52.09 3.53 3.27a10.6 10.6 0 0 1 -1.86 3.73 6.52 6.52 0 0 1 -.4.53c.46.34.74.52.8.59a1.83 1.83 0 0 1 .19.71c.06.44.09.69.09.81s-.19.37-.56.68a1.53 1.53 0 0 1 -.74.28 9.06 9.06 0 0 1 -1.3-.65 6.55 6.55 0 0 0 -1.44-.23 4 4 0 0 0 -1.51.53l-.66.65-.18.75a1.41 1.41 0 0 1 -1.3-.87 7.18 7.18 0 0 1 -1-2.49c-.18-1.36-.34-2.6-.49-3.79a11.1 11.1 0 0 1 -.19-1.9h.53a14.9 14.9 0 0 1 2 2.15c.37 1.34.65 2.39.78 3.17a3.22 3.22 0 0 1 1-.28 5.31 5.31 0 0 0 1.21-.25 10.87 10.87 0 0 0 1.26-5.1z" fill="#009e96"/><path d="m122.22 44.45a3.07 3.07 0 0 1 1.09 1.74 12.61 12.61 0 0 1 -1.09 3.92c-.22 1-.43 2.15-.62 3.39.07.1.1.16.12.16a2.74 2.74 0 0 1 .32 1.15 6 6 0 0 1 -.94 2.08c0 .25 0 .5-.08.75-.13 2.17-.29 3.72-.44 4.66a3.35 3.35 0 0 0 .81-.09 28.89 28.89 0 0 1 3.19-.31 5.54 5.54 0 0 1 1.33.31l1.18.87a2.16 2.16 0 0 1 .22.84c.06.5.12.81.12.93s-.22.43-.65.81a1.89 1.89 0 0 1 -.87.31 9.65 9.65 0 0 1 -1.55-.75 8.25 8.25 0 0 0 -1.61-.22 51.81 51.81 0 0 0 -6.23.59c-2.1.63-3.25 1-3.5 1a5.88 5.88 0 0 1 -1.21-1.21 7.2 7.2 0 0 1 -1.08-1.38 1.8 1.8 0 0 1 .19-.9h.77a1.2 1.2 0 0 0 .06.5c.19 0 1.09-.19 2.73-.56a14.62 14.62 0 0 1 3-.5 3 3 0 0 1 0-.5 5.71 5.71 0 0 1 -1.11-.77 15.28 15.28 0 0 1 -2.67-3 .58.58 0 0 1 -.4.16c-.18 0-.34-.19-.43-.57a5 5 0 0 1 -.16-1.18 2.38 2.38 0 0 1 1.4-1.8 7.14 7.14 0 0 1 2.89-1.47c.62-.13 1.18-.22 1.7-.28.41-2.83.62-4.54.62-5.13a4.6 4.6 0 0 1 -1.32 1.12 2.42 2.42 0 0 1 -1.35.47 1.86 1.86 0 0 1 -1.37-.69 3.74 3.74 0 0 1 -1.11-1.9c.19-.07.8-.22 1.89-.53 1.33-.63 2.07-1.12 2.23-1.5a7.56 7.56 0 0 0 .93-.83c.4-.25.8-.5 1.18-.78a2.84 2.84 0 0 1 1.82 1.09zm-5.88 12a8.14 8.14 0 0 0 -2 1.28c.3.29.83.77 1.57 1.46a2.61 2.61 0 0 0 1.65.87 3.53 3.53 0 0 0 .21-.77c0-.28.06-.56.1-.84.12-.88.24-1.68.37-2.43a14.6 14.6 0 0 0 -1.9.43zm9.6-2.7a6.89 6.89 0 0 1 2 .75c.37.37.68.71.91 1a1.84 1.84 0 0 1 .3.78 3.64 3.64 0 0 1 -.4.9 1.41 1.41 0 0 1 -.65.37h-4.37c.18-.18.4-.37.62-.59a3.29 3.29 0 0 0 1-.53 1.48 1.48 0 0 0 .25-.83 6.06 6.06 0 0 0 -.81-1 2.72 2.72 0 0 1 -.37-1.06 10.09 10.09 0 0 1 1.52.21z" fill="#009e96"/><path d="m137.07 65.5a1.76 1.76 0 0 0 -1.65-.13 4.11 4.11 0 0 0 -1.65 1.13 8.13 8.13 0 0 0 -.52.76c-.09.18.05-.28.52-.76a4.13 4.13 0 0 1 .73-.71 4.15 4.15 0 0 0 -1.33.74 3.87 3.87 0 0 0 -.35.8 4.42 4.42 0 0 0 .64 3.81 5.92 5.92 0 0 0 1.55 1.4 4.52 4.52 0 0 1 -2.46-5.15l-.07.15a4.51 4.51 0 0 0 .36 3.23l.31.51a3.86 3.86 0 0 1 -.31-.51 5.17 5.17 0 0 1 -.63-1.41 4.77 4.77 0 0 1 0-1.07 1.92 1.92 0 0 1 .26-.75 3.53 3.53 0 0 1 .15-.46.77.77 0 0 1 0-.15 3 3 0 0 0 -.78 2.58 4.29 4.29 0 0 0 1.34 2.82 6.17 6.17 0 0 0 1.82.67c.2.07.35.21.53.19a.41.41 0 0 1 .22-.09c.41.09.82.33 1.16.18s1 .79 1 .6c.1-.64 0-.14.62-.24.08 0 .23-.3.37-.33.5 0 .56-.27 1-.6.53-.58.93-.43 1.11-1.21a6.5 6.5 0 0 0 .38-1.09c.4-.71.19-1.22.65-1.8-.31-.71-.08-1.71-.54-2.42a15 15 0 0 1 -.78-1.77c-.13-.17-.28-.24-.34-.38s-.44-.12-.6-.26l.13-.11a2.23 2.23 0 0 0 -.24-.19c-.06-.05 0-.09 0-.13s.17-.16.08-.3a3.56 3.56 0 0 0 -.89-.57 4 4 0 0 0 -1 .07.78.78 0 0 1 -.11.2l-.29.1a4.41 4.41 0 0 0 -.1.46c0 .47-.35.91-.27 1.34 0 .13.39.17.51.43 0 .07-.08.21-.13.37.18 0 .15.21.07.35h.07l-.08.22c.35.27.47.75.81.73a1.61 1.61 0 0 0 .34 0c.05 0 .05.13.07.15a3.47 3.47 0 0 0 .4-.3c.11.33.1.9.62.64.06.22.35.16.44.41a2.51 2.51 0 0 1 .16 1.25 1.77 1.77 0 0 1 -.18.71l-.11.24a2.83 2.83 0 0 1 -2 1.45 6 6 0 0 1 -2.46 0 2.78 2.78 0 0 1 -2.12-1.91 2.83 2.83 0 0 1 2.22-3.66 3.28 3.28 0 0 1 1.11 0z" fill="#e60012"/><path d="m323.33 60.66a1.78 1.78 0 0 0 -1.66-.13 4.11 4.11 0 0 0 -1.67 1.13c-.24.3-.39.56-.52.75s.05-.27.52-.75a3.9 3.9 0 0 1 .74-.71 4.27 4.27 0 0 0 -1.34.73 5 5 0 0 0 -.36.81 4.39 4.39 0 0 0 .65 3.81 5.93 5.93 0 0 0 1.54 1.41 4.53 4.53 0 0 1 -2.45-5.17l-.08.16a4.46 4.46 0 0 0 .37 3.23l.3.51a4.52 4.52 0 0 1 -.3-.51 5.11 5.11 0 0 1 -.63-1.42 4.79 4.79 0 0 1 0-1.07 2.33 2.33 0 0 1 .26-.74c0-.16.1-.31.15-.46a.4.4 0 0 1 0-.15 3.08 3.08 0 0 0 -.79 2.59 4.29 4.29 0 0 0 1.34 2.82 5.64 5.64 0 0 0 1.81.63c.2.07.35.22.53.2a.41.41 0 0 1 .22-.09c.41.09.82.33 1.16.18.19 0 .95.8 1 .61.11-.64 0-.15.63-.24.08 0 .23-.31.36-.33.5 0 .57-.28 1-.6.53-.59.93-.44 1.12-1.21a6.38 6.38 0 0 0 .37-1.09c.41-.72.2-1.23.66-1.81-.31-.71-.07-1.71-.53-2.42a13.53 13.53 0 0 1 -.78-1.77c-.13-.18-.28-.25-.34-.39s-.44-.12-.6-.25l.13-.12a2.23 2.23 0 0 0 -.24-.19c-.06 0 0-.08 0-.13s.17-.16.08-.29a3.59 3.59 0 0 0 -.89-.58 4.14 4.14 0 0 0 -1.06.07.49.49 0 0 1 -.11.2l-.28.1a4.41 4.41 0 0 0 -.1.46c0 .47-.35.91-.27 1.34 0 .14.39.17.5.43 0 .07-.07.21-.12.37.18 0 .15.21.06.35h.07l-.07.21c.35.27.47.75.8.73a2.35 2.35 0 0 0 .34 0c.06 0 .06.12.07.15a3.79 3.79 0 0 0 .4-.3c.11.32.1.9.62.63.07.22.35.17.45.42a2.63 2.63 0 0 1 .21 1.23 1.86 1.86 0 0 1 -.18.71l-.11.24a2.89 2.89 0 0 1 -2 1.46 6.38 6.38 0 0 1 -2.47 0 2.83 2.83 0 0 1 -2.12-1.92 2.85 2.85 0 0 1 2.28-3.61 3.55 3.55 0 0 1 1.11 0z" fill="#e60012"/><path d="m195.68 43.84a11.37 11.37 0 0 1 2.85-2.24c.56-.24 1.18-.52 1.89-.78a2.11 2.11 0 0 1 1.58.57 4 4 0 0 1 .38 2 11.37 11.37 0 0 1 -1.25 1.56 2.75 2.75 0 0 0 .47-.13 2.33 2.33 0 0 1 1.36.84 1.28 1.28 0 0 1 -.22.72c-1.11.56-2.2 1.09-3.19 1.58.07.06.1.06.1.06v.19c.4-.09.8-.19 1.17-.31a2.43 2.43 0 0 1 1.34.84 1.29 1.29 0 0 1 -.19.71c-1 .5-1.92 1-2.82 1.43a9 9 0 0 1 -.28.87c.84-.31 1.67-.65 2.48-1a1 1 0 0 1 .59-.22 4 4 0 0 1 .87 1v.75c-1.09.5-2.14.93-3.19 1.3a4.79 4.79 0 0 1 1.38 3.22c.44-.06.84-.12 1.18-.15a11.46 11.46 0 0 0 -1.33-1.65 10.19 10.19 0 0 1 1.68 1.21 3.83 3.83 0 0 1 2 1.18 2.35 2.35 0 0 1 -.18.94 21 21 0 0 0 -2.92.28 15.37 15.37 0 0 0 .68 2 4.17 4.17 0 0 0 .69-1.16 1.16 1.16 0 0 1 -.22-.77 3.11 3.11 0 0 1 1.67.49 2.21 2.21 0 0 1 .75 1.43 1.26 1.26 0 0 1 -.12.4 2.19 2.19 0 0 1 -.35.5 6.27 6.27 0 0 1 -1.42 1.27 5.88 5.88 0 0 0 2.94 2.92c0-.37 0-.83 0-1.33v-3a23.41 23.41 0 0 1 1.74 6.77 5.9 5.9 0 0 1 -.44.87c-1.85-.21-3.65-2-5.39-5.38-.28.22-.53.41-.74.6a5.23 5.23 0 0 1 -2.3 1 6.22 6.22 0 0 1 -1-.09c-.33-.06-.49-.16-.49-.28a7.46 7.46 0 0 0 2-1.28 7 7 0 0 0 1.59-1.74c-.44-.93-.87-1.92-1.28-3a30.27 30.27 0 0 0 -3.19.94v.19a12.91 12.91 0 0 0 -.22 1.46 21 21 0 0 0 2.64-1.74c-.12.68-1 1.68-2.66 3l-.13.13c0 .5 0 1.06-.09 1.65a7 7 0 0 0 -.07 1 7.39 7.39 0 0 0 .29 1.42c0 .5.09.84.09 1.1a.77.77 0 0 1 -.28.55.75.75 0 0 1 -.5.19c-.37 0-1.36-.65-2.91-1.93-.43-.37-.77-.64-1-.9a1.54 1.54 0 0 1 -.59.13c-.59-.07-1-.5-1.24-1.25 0-.53.06-.84.19-.93a14 14 0 0 0 4.55-1.58 2.14 2.14 0 0 1 .22-.1c0-.18 0-.4 0-.59a10.19 10.19 0 0 0 -.09-1 44.73 44.73 0 0 0 -4.32 2.17c-.89 0-1.45-.68-1.64-2.05a31.72 31.72 0 0 0 5.83-1.77 4.44 4.44 0 0 0 -.47-1 .2.2 0 0 1 -.06-.12 1.24 1.24 0 0 1 -.22.12 6.46 6.46 0 0 1 -2.23.65 3.19 3.19 0 0 1 -.9-.12c-.31-.07-.46-.12-.46-.25a7.1 7.1 0 0 0 2-.84 7.36 7.36 0 0 0 1.83-1.4 9.37 9.37 0 0 0 .75-.68l-1 .31c-.81.31-1.59.62-2.33 1a7.38 7.38 0 0 1 -2.38.53c-.62-.19-1-.78-1.18-1.77a7 7 0 0 1 2.14-.74c1.11-.26 2.45-.66 4.05-1.19.81-.25 1.65-.49 2.48-.8a1.46 1.46 0 0 1 .07-.47l-1.27.62a6.71 6.71 0 0 1 -1.22.46 4.27 4.27 0 0 1 .9-.84 10.08 10.08 0 0 0 1.68-.87.51.51 0 0 1 0-.21 14.44 14.44 0 0 1 -2.24.34c-.64-.13-1.08-.65-1.33-1.59a.32.32 0 0 1 .28-.12 1.24 1.24 0 0 0 .41.06c.74-.25 1.45-.46 2.13-.68.1-.06.22-.19.38-.32.31-.12.56-.24.8-.36v-.07a.11.11 0 0 1 0-.09 23.79 23.79 0 0 1 -3.65.62c-.69-.16-1.12-.72-1.37-1.65a.31.31 0 0 1 .28-.12 1.19 1.19 0 0 0 .4.06l2.08-.65a1.22 1.22 0 0 1 -.65-1.06 9.5 9.5 0 0 1 -.59-3.57c.87.7 1.49 1.3 1.95 1.73zm-2.63 21.51a8.81 8.81 0 0 0 2 .41c0-.19 0-.78 0-1.84a11.92 11.92 0 0 1 -2 1.43zm3.84-7.35c.93-.31 1.73-.59 2.45-.81-.25-.68-.5-1.47-.78-2.33a7.78 7.78 0 0 0 -.74-.69 8.29 8.29 0 0 1 -.8.32 1.86 1.86 0 0 1 .52 1.14.4.4 0 0 1 -.12.22 1.28 1.28 0 0 1 -.34.31 6.33 6.33 0 0 1 -1.53.87c.75.36 1.22.68 1.34.97zm.81-12.19a.58.58 0 0 1 .15-.13 4.83 4.83 0 0 0 2-3.66 4.38 4.38 0 0 0 -1.52 1c-.58.61-1.08 1.14-1.51 1.64a15.82 15.82 0 0 1 -.87 1.68c.6-.17 1.19-.34 1.75-.51zm7.12 7.4a5.06 5.06 0 0 1 1.49.53 2.21 2.21 0 0 1 .52 1.46c0 .12-.52.22-1.54.31-.87.16-1.61.28-2.27.34a5.56 5.56 0 0 0 .87-1.09 5.54 5.54 0 0 1 -.62-.9 1.76 1.76 0 0 1 -.37-.86 15.38 15.38 0 0 1 1.92.23z" fill="#009e96"/><path d="m240.34 50.86a2.9 2.9 0 0 1 1.27 2.14 28.65 28.65 0 0 1 -1.92 4.72c-.66 1.08-1.12 1.62-1.43 1.62a1.2 1.2 0 0 1 -.77-.41c-.91.46-1.77.9-2.61 1.28v.11l2.23-.52a2.54 2.54 0 0 1 1.53 1 1.6 1.6 0 0 1 -.23.81c-1.3.8-2.54 1.61-3.74 2.36a1.76 1.76 0 0 0 0 .37 15.16 15.16 0 0 0 1.94-.25 22.21 22.21 0 0 1 3.33-.37 3.83 3.83 0 0 1 1.14.28l1 .74c.07.06.13.28.19.72s.1.65.1.77-.2.35-.57.72a1.68 1.68 0 0 1 -.74.28 8.4 8.4 0 0 1 -1.34-.65 5.39 5.39 0 0 0 -1.39-.19 48.31 48.31 0 0 0 -6.88.68c-2.29.68-3.59 1.06-3.84 1.12a5.88 5.88 0 0 1 -1-1c-.56-.65-.87-1-.9-1.08a1.27 1.27 0 0 1 .16-.75h.61a.67.67 0 0 0 .07.4 25.11 25.11 0 0 0 2.82-.69 17 17 0 0 1 3.28-.62l.16-.09c0-.37 0-.75 0-1.09-.72.13-1.43.22-2.14.28a2.16 2.16 0 0 1 -1.52-1.83c0-.09.12-.15.31-.15a1.55 1.55 0 0 0 .43.06c.78-.19 1.52-.41 2.2-.59a2.19 2.19 0 0 1 .22-.2 5.45 5.45 0 0 0 .59-.27c0-.22 0-.44 0-.65a23 23 0 0 1 -2.95.33c-.72-.15-1.21-.74-1.46-1.74a.35.35 0 0 1 .31-.15 1.86 1.86 0 0 0 .43.1 6.15 6.15 0 0 1 -.65-1.69c-.19-.9-.37-1.74-.5-2.55a4.79 4.79 0 0 1 -.08-1.22h.44a10.17 10.17 0 0 1 1.67 1.45 11.22 11.22 0 0 1 .78 2.86c0 .28 0 .53-.06.78.49-.09.92-.19 1.36-.31a1.62 1.62 0 0 0 .34-.28c.18-.13.37-.22.49-.31v-.38a4 4 0 0 1 0-.65 4.18 4.18 0 0 1 -1 .15 2 2 0 0 1 -1.43-1.7c0-.1.12-.16.28-.16a1.56 1.56 0 0 0 .43.09l1.77-.58c0-.38 0-.72 0-1-.25.12-.46.28-.68.4-1.46 0-2.17-.31-2.17-.93a8.6 8.6 0 0 1 2.94-1.62c0-.4 0-.78.06-1.11-.49.12-1 .21-1.55.33-4.46 2-6.87 3-7.28 3a2.36 2.36 0 0 1 -1.11-.49 4.32 4.32 0 0 1 -1-.82c-.19 0-.31-.31-.37-.71a1.15 1.15 0 0 1 -.13-.56.91.91 0 0 0 .5.25c4.24-1.15 7.9-2.08 10.93-2.83a2.31 2.31 0 0 0 -.49-1.18 8.29 8.29 0 0 1 -1.58.59c-.37 0-.9 0-1.58-.09a1.59 1.59 0 0 1 -1.15-.38 6.67 6.67 0 0 0 2.66-1.36c.81-.63 1.56-1.18 2.17-1.71a8 8 0 0 1 1.15-1 3.48 3.48 0 0 0 .61-1.14 10.26 10.26 0 0 1 2.2.53c.8.53 1.24 1.06 1.24 1.59 0 .74-.22 1.18-.66 1.3a11.33 11.33 0 0 1 -1.36.09c-.34.16-1 .41-1.86.78.19.12.34.28.5.4a3.7 3.7 0 0 1 .77 1c2.73-.56 4.87-.93 6.45-1.09.86 0 1.46.69 1.77 2a1.32 1.32 0 0 1 -.31.93c-.65 0-2.64 0-5.92-.16a12 12 0 0 0 -1.92.19c0 .37-.07.71-.1 1.08.5-.06 1.05-.09 1.61-.12a5.34 5.34 0 0 1 2.93.74zm-4.81 2.34c.31-.07.6-.16.88-.25a2.48 2.48 0 0 1 1.42.9 1.39 1.39 0 0 1 -.22.75c-.84.59-1.64 1.14-2.42 1.64 0 .35-.06.66-.06.94l2.32-.5a.47.47 0 0 0 .19.06 15.41 15.41 0 0 1 .52-1.68 10.4 10.4 0 0 0 .56-3.17 6.72 6.72 0 0 0 0-.74 18.88 18.88 0 0 0 -3 .71c-.12.43-.16.87-.19 1.34z" fill="#009e96"/><path d="m262.5 48.84c.19.72.37 1.43.61 2.12a8.28 8.28 0 0 1 .89 2.14 4.91 4.91 0 0 0 0 .78.1.1 0 0 0 .06 0 22.29 22.29 0 0 1 2.94-1.46c.12-.59.22-1.18.3-1.8a27.24 27.24 0 0 0 .26-3.55 2.74 2.74 0 0 0 -.78-2.15 4.22 4.22 0 0 0 -.31.81 4 4 0 0 1 -.31-.68 2.92 2.92 0 0 1 .56-.65c.5 0 1.24.65 2.23 1.93a5.32 5.32 0 0 1 1.39 3 20.58 20.58 0 0 0 -1.48 4.29 35.93 35.93 0 0 0 -.71 4.14c.24.62.55 1.43.93 2.39a9.84 9.84 0 0 1 .58 2.3 2.56 2.56 0 0 1 -1.11.22 2.3 2.3 0 0 1 -1.06-.25 16.12 16.12 0 0 1 -.37 1.71c-.3 1.18-.62 1.77-.92 1.77-.65 0-1.77-.59-3.32-1.77s-2.76-2-3.5-2.51a1 1 0 0 0 -.65.24c-.53 0-.81-.37-.84-1.15a10.33 10.33 0 0 1 .4-1.58 7.83 7.83 0 0 1 1.46-1.87 8.49 8.49 0 0 1 2.08-1.86 1.43 1.43 0 0 1 -.13-.38 22.54 22.54 0 0 1 -.5-3.57 10.15 10.15 0 0 1 .68-2.36c.25-.5.5-.82.81-.9a3.63 3.63 0 0 0 -.19.65zm-1.92 11.35c.3 1.25 1.83 2 4.55 2.24.31 0 .56-.25.74-.77a14.25 14.25 0 0 1 -2.74-3.12 7.29 7.29 0 0 1 -.58-1.15c-1.26 1.25-1.91 2.18-1.97 2.8zm5.76-2a36.41 36.41 0 0 1 .19-3.76c.06-.25.09-.5.15-.75a31.22 31.22 0 0 1 -2.38 2.18 8.71 8.71 0 0 0 .3 1.27 3.73 3.73 0 0 0 1.61 2c.04-.4.07-.68.13-.99zm11.06-4.79a4.72 4.72 0 0 0 -2.76 1.56c-1.36 0-2-.38-2-1.15.93-1.44 2.6-2.34 5-2.74 2.35.07 3.53 1.15 3.53 3.26a10.56 10.56 0 0 1 -1.88 3.67 6.12 6.12 0 0 1 -.4.52c.46.35.74.54.8.59a1.73 1.73 0 0 1 .19.72 8 8 0 0 1 .09.81c0 .13-.18.37-.56.68a1.49 1.49 0 0 1 -.74.28 9.7 9.7 0 0 1 -1.3-.65 5.93 5.93 0 0 0 -1.42-.18 4 4 0 0 0 -1.53.52l-.64.66c-.07.24-.13.49-.19.74a1.41 1.41 0 0 1 -1.3-.87 7.22 7.22 0 0 1 -1-2.48c-.19-1.37-.35-2.62-.5-3.8a10.94 10.94 0 0 1 -.18-1.9h.52a14.9 14.9 0 0 1 2 2.15c.37 1.33.65 2.39.78 3.17a3 3 0 0 1 1-.28 4.72 4.72 0 0 0 1.21-.25 10.84 10.84 0 0 0 1.28-5.08z" fill="#009e96"/><path d="m297.82 56.77c0 .9.1 1.59.16 2a10 10 0 0 0 -.12 1.31 6.7 6.7 0 0 0 -.09.71 6 6 0 0 1 1.67-.65c.89-.21 2-.4 3.25-.59-.37-.34-.68-.65-1-1a5.09 5.09 0 0 1 -.12-1.09 5.11 5.11 0 0 0 1.49 1.18c.49 0 .77-2.61.83-7.9a40 40 0 0 0 .34-4.44 8.11 8.11 0 0 1 -1.52-2.21c.56.13 1.15.25 1.74.41a7.24 7.24 0 0 1 2.35 1.14 2.53 2.53 0 0 1 .94 1.94 10 10 0 0 1 -1.18 2.92 67.66 67.66 0 0 0 -.81 8.64c1.39-.13 2.85-.19 4.37-.19a4.61 4.61 0 0 0 1-.46.91.91 0 0 0 .28-.31 9.71 9.71 0 0 0 .25-2.09 2.92 2.92 0 0 0 -1.4-2.39 3.79 3.79 0 0 1 1.62-.31c1.85.46 2.78 1.49 2.85 3.08a13.8 13.8 0 0 1 -1.72 5.03c-.44.93-1.4 1.4-2.89 1.4a4.22 4.22 0 0 1 .35-1.65c-2.82.19-5.33.46-7.5.81a16.74 16.74 0 0 0 -3.16 1 12.49 12.49 0 0 0 -1.49 1.09 3.16 3.16 0 0 1 -1.08.37 2.11 2.11 0 0 1 -1.42-.77 11.76 11.76 0 0 1 -.88-2.18c.16 0 .29-.34.38-1s.15-1.56.21-2.74a19 19 0 0 1 .31-2.4c.31-.65.59-1 .81-1a7.9 7.9 0 0 1 1.49.87c.77.62 1.17 1.08 1.24 1.37l-1.56-.47z" fill="#009e96"/><path d="m328.42 69.18h-328.42v-28.58h328.42zm-328.17-.25h327.92v-28.08h-327.92z" fill="#00b2e1"/><path d="m261.79 373.13v-.47a2.73 2.73 0 0 0 .93-.22 1.1 1.1 0 0 0 .39-.72h.48v4.87h-.65v-3.46z" fill="#208ec5"/><path d="m265.61 375.85h.71v.74h-.71z" fill="#208ec5"/><path d="m267.82 375.35a.83.83 0 0 0 .49.72 1.12 1.12 0 0 0 .5.11.94.94 0 0 0 .81-.35 1.23 1.23 0 0 0 .27-.77 1 1 0 0 0 -.32-.8 1.12 1.12 0 0 0 -.75-.28 1 1 0 0 0 -.54.13 1.14 1.14 0 0 0 -.39.34h-.53l.37-2.64h2.54v.6h-2.08l-.21 1.36a1.32 1.32 0 0 1 .33-.2 1.73 1.73 0 0 1 .63-.11 1.6 1.6 0 0 1 1.14.43 1.45 1.45 0 0 1 .47 1.1 1.88 1.88 0 0 1 -.43 1.23 1.67 1.67 0 0 1 -1.37.53 1.79 1.79 0 0 1 -1.06-.34 1.37 1.37 0 0 1 -.51-1z" fill="#208ec5"/><path d="m271 371.36h1.14l1.2 1.84 1.22-1.84h1.07l-1.77 2.52 1.85 2.68h-1.13l-1.3-2-1.26 2h-1.12l1.84-2.68z" fill="#208ec5"/><path d="m196.73 375.35a.84.84 0 0 0 .49.72 1.16 1.16 0 0 0 .51.11 1 1 0 0 0 .81-.35 1.28 1.28 0 0 0 .26-.77 1 1 0 0 0 -.31-.8 1.12 1.12 0 0 0 -.75-.28 1 1 0 0 0 -.55.13 1.14 1.14 0 0 0 -.39.34h-.53l.37-2.64h2.55v.6h-2.09l-.2 1.36a1.66 1.66 0 0 1 .32-.2 1.73 1.73 0 0 1 .63-.11 1.6 1.6 0 0 1 1.14.43 1.42 1.42 0 0 1 .47 1.1 1.88 1.88 0 0 1 -.43 1.23 1.66 1.66 0 0 1 -1.37.53 1.69 1.69 0 0 1 -1-.34 1.33 1.33 0 0 1 -.52-1z" fill="#208ec5"/><path d="m199.91 371.36h1.09l1.21 1.85 1.21-1.85h1.07l-1.76 2.52 1.84 2.68h-1.12l-1.3-2-1.26 2h-1.12l1.84-2.68z" fill="#208ec5"/><path d="m135.14 373.13v-.47a2.6 2.6 0 0 0 .93-.22 1.06 1.06 0 0 0 .4-.72h.53v4.87h-.65v-3.46z" fill="#208ec5"/><path d="m139 375.85h.72v.74h-.72z" fill="#208ec5"/><path d="m141.18 375.35a.83.83 0 0 0 .49.72 1.12 1.12 0 0 0 .5.11.94.94 0 0 0 .81-.35 1.23 1.23 0 0 0 .27-.77 1 1 0 0 0 -.32-.8 1.12 1.12 0 0 0 -.75-.28 1 1 0 0 0 -.54.13 1.14 1.14 0 0 0 -.39.34h-.53l.37-2.64h2.54v.6h-2.08l-.21 1.36a1.32 1.32 0 0 1 .33-.2 1.73 1.73 0 0 1 .63-.11 1.6 1.6 0 0 1 1.14.43 1.45 1.45 0 0 1 .47 1.1 1.88 1.88 0 0 1 -.43 1.23 1.67 1.67 0 0 1 -1.37.53 1.79 1.79 0 0 1 -1.06-.34 1.34 1.34 0 0 1 -.51-1z" fill="#208ec5"/><path d="m144.35 371.36h1.14l1.2 1.84 1.22-1.84h1.07l-1.77 2.52 1.84 2.68h-1.12l-1.3-2-1.26 2h-1.11l1.84-2.68z" fill="#208ec5"/><path d="m8.5 373.13v-.47a2.6 2.6 0 0 0 .93-.22 1.06 1.06 0 0 0 .4-.72h.48v4.87h-.65v-3.46z" fill="#208ec5"/><path d="m12.32 375.85h.68v.74h-.72z" fill="#208ec5"/><path d="m14.54 375.35a.83.83 0 0 0 .49.72 1.12 1.12 0 0 0 .5.11.94.94 0 0 0 .81-.35 1.22 1.22 0 0 0 .26-.77 1 1 0 0 0 -.31-.8 1.12 1.12 0 0 0 -.75-.28 1 1 0 0 0 -.54.13 1.14 1.14 0 0 0 -.39.34h-.53l.37-2.64h2.55v.6h-2.09l-.21 1.36a1.17 1.17 0 0 1 .33-.2 1.73 1.73 0 0 1 .63-.11 1.6 1.6 0 0 1 1.14.43 1.45 1.45 0 0 1 .47 1.1 1.88 1.88 0 0 1 -.43 1.23 1.67 1.67 0 0 1 -1.37.53 1.79 1.79 0 0 1 -1.06-.34 1.34 1.34 0 0 1 -.51-1z" fill="#208ec5"/><path d="m17.71 371.36h1.14l1.2 1.84 1.22-1.84h1.07l-1.77 2.52 1.84 2.68h-1.12l-1.3-2-1.26 2h-1.11l1.84-2.68z" fill="#208ec5"/><path d="m70.94 375.35a.83.83 0 0 0 .48.72 1.19 1.19 0 0 0 .51.11 1 1 0 0 0 .81-.35 1.22 1.22 0 0 0 .26-.77 1 1 0 0 0 -.31-.8 1.12 1.12 0 0 0 -.75-.28 1 1 0 0 0 -.54.13 1.06 1.06 0 0 0 -.39.34h-.54l.38-2.64h2.54v.6h-2.08l-.21 1.36a1.66 1.66 0 0 1 .32-.2 1.83 1.83 0 0 1 .64-.11 1.6 1.6 0 0 1 1.14.43 1.45 1.45 0 0 1 .47 1.1 1.94 1.94 0 0 1 -.43 1.23 1.67 1.67 0 0 1 -1.37.53 1.72 1.72 0 0 1 -1.06-.34 1.3 1.3 0 0 1 -.51-1z" fill="#208ec5"/><path d="m74.11 371.36h1.14l1.2 1.85 1.22-1.85h1.07l-1.74 2.55 1.84 2.68h-1.15l-1.3-2-1.26 2h-1.13l1.84-2.68z" fill="#208ec5"/><path d="m295.25 338.53h1.14l1.2 1.84 1.21-1.84h1.07l-1.76 2.53 1.84 2.68h-1.12l-1.3-2-1.26 2h-1.11l1.84-2.68z" fill="#208ec5"/><path d="m.12 315.9h283.43v48.86h-283.43z" fill="#009e96"/><path d="m293.98 330.9h7.24v.25h-7.24z" fill="#00b2e1"/><path d="m293.98 315.78h7.24v.25h-7.24z" fill="#00b2e1"/><path d="m293.98 350.53h7.24v.25h-7.24z" fill="#00b2e1"/><path d="m293.98 364.64h7.24v.25h-7.24z" fill="#00b2e1"/><path d="m127.06 369.36h.25v7.24h-.25z" fill="#00b2e1"/><path d="m156.37 369.36h.25v7.24h-.25z" fill="#00b2e1"/><path d="m0 369.36h.25v7.24h-.25z" fill="#00b2e1"/><path d="m29.31 369.36h.25v7.24h-.25z" fill="#00b2e1"/><path d="m254.11 369.36h.25v7.24h-.25z" fill="#00b2e1"/><path d="m283.43 369.36h.25v7.24h-.25z" fill="#00b2e1"/><path d="m31.36 339.88a2.09 2.09 0 0 0 .34.5 1.31 1.31 0 0 1 .47.81 3.73 3.73 0 0 1 -.23 1.24c-.22.47-.41.86-.58 1.14a4.46 4.46 0 0 1 -.77 1c-.26.26-.45.37-.58.37s-.23-.22-.35-.69a1.88 1.88 0 0 1 0-1.82 1.11 1.11 0 0 1 .62-.64c.14-.28.29-.58.46-.9a2.56 2.56 0 0 0 .28-.64 7.73 7.73 0 0 1 -.08-.88 2.57 2.57 0 0 1 .42.51zm2.45-.7a6.74 6.74 0 0 0 5.51 4.82c1.11 0 1.68-.13 1.68-.43-.47-1.1-.91-2.1-1.38-3 3 2.18 4.46 3.49 4.46 3.94-.26.89-1.26 1.37-3 1.43q-6.66-.22-8.26-6.31a1.43 1.43 0 0 1 .21-.8.91.91 0 0 1 .78.35zm3.48-1.93a3 3 0 0 1 .64 1.2 3 3 0 0 0 2.22-1.45c.11 0 .17.24.17.58 0 .17-.17.39-.51.62l-.81 1.04a6.61 6.61 0 0 1 -.79 1.65 1.45 1.45 0 0 1 -1.07.66 1 1 0 0 1 -.68-.42 1.6 1.6 0 0 1 -.49-1 10.59 10.59 0 0 1 .38-1.49 10.8 10.8 0 0 0 .24-1.61 8.59 8.59 0 0 1 -.45-.84 5.56 5.56 0 0 1 1.15 1.06zm6.17-.77a4.92 4.92 0 0 1 1.56.71 4.79 4.79 0 0 1 .72.9 1.59 1.59 0 0 1 .24.68 2.37 2.37 0 0 1 -.34.73c-.24.21-.41.32-.52.32a1.34 1.34 0 0 1 -.68-.19 2.87 2.87 0 0 0 -.77-.11 7.09 7.09 0 0 1 -1.09-.08h-.85c.13-.09.28-.17.43-.29a1.93 1.93 0 0 0 .68-.25 1.36 1.36 0 0 0 .21-.69q-.31-.57-.57-1a3.38 3.38 0 0 1 -.26-1 6.2 6.2 0 0 1 1.24.27z" fill="#fff"/><path d="m57.19 338.92a3.72 3.72 0 0 1 .7 1.43 1.8 1.8 0 0 1 -.13.69.48.48 0 0 1 -.28.26c-.12.32-.25.77-.4 1.33a11 11 0 0 0 -.28 1.54c.13.32.3.66.49 1 .26 0 .65-.76 1.11-2.33.64-1.59 1.33-3.25 2-5-.11.66-.28 1.46-.51 2.36a26.91 26.91 0 0 0 3.5-1.24c0-.14 0-.26.06-.37a2 2 0 0 1 -.49.09c-.38 0-1-.48-1.92-1.44a7.24 7.24 0 0 0 1.13-.08c.56-.26 1.09-.52 1.6-.73a3 3 0 0 1 .09-.52 2.87 2.87 0 0 1 -1.24.34 5.62 5.62 0 0 1 -1.58-.17c0-.34.3-.74.92-1.17a7.74 7.74 0 0 0 2.17-1c0-.34.11-.68.15-1a1.87 1.87 0 0 0 -.91-1.48v-.15a2.49 2.49 0 0 1 .74-.15c1.2.34 1.82.83 1.9 1.48a4.14 4.14 0 0 0 0 .45.44.44 0 0 0 .15-.05c.89.05 1.41.39 1.58 1.05 0 .17-.71.47-2 .86 0 .3-.1.58-.15.83h.54a1.37 1.37 0 0 1 1 1 .42.42 0 0 1 -.3.38 3.83 3.83 0 0 1 -1 .47l-.75.37q-.06.25-.12.45c1.21-.39 2.45-.77 3.71-1.16a1.83 1.83 0 0 1 1.11.28 1.14 1.14 0 0 1 .27.79 1.05 1.05 0 0 1 -1.05.67 12.59 12.59 0 0 0 -3.67.7 18.35 18.35 0 0 0 -1.75.62 6.89 6.89 0 0 0 -.09.71 6.07 6.07 0 0 1 1.9-1.09 2.21 2.21 0 0 1 2.35 1.47 9.66 9.66 0 0 1 -.2 1.76 31.61 31.61 0 0 0 .17 3.38v2.72c-.28.84-.68 1.26-1.19 1.26a27.32 27.32 0 0 1 -2.58-3.91c-.39.08-.73.17-1 .26.09.59.17 1.13.3 1.64a1.23 1.23 0 0 1 -.34.86s-.07 0-.17 0a5.65 5.65 0 0 1 -1.05-2.33 21.29 21.29 0 0 1 1-5.65 2.18 2.18 0 0 1 .42-.93c-.68.28-1.39.61-2.11.94a2.24 2.24 0 0 1 -1.11-.21.19.19 0 0 1 -.15-.1c-.17.59-.34 1.24-.55 1.88q-.61 5.75-1.26 5.8c-.17 0-.45-.25-.79-.73a4 4 0 0 1 -.6-1.49 11.41 11.41 0 0 0 -.17-1.61 3.4 3.4 0 0 1 -.19-.94q0-1.2.06-2.1c0-.77 0-1.27 0-1.5a5.13 5.13 0 0 0 -.4-1.37 4.08 4.08 0 0 0 -.37-1.61c.3.03.87.57 1.73 1.49zm1.29-5.33a4.29 4.29 0 0 1 1.35.62 7.7 7.7 0 0 1 .62.79 1.35 1.35 0 0 1 .21.6 1.4 1.4 0 0 1 -.25.56.63.63 0 0 1 -.39.23c-.21 0-.42 0-.62.05a3.6 3.6 0 0 1 -.66 0h-1-.74c.15-.13.32-.26.49-.43a2.91 2.91 0 0 0 .76-.36 1.12 1.12 0 0 0 .15-.54 10.94 10.94 0 0 0 -.7-.87 2.08 2.08 0 0 1 -.32-.88 5.62 5.62 0 0 1 1.1.23zm5.17 12.65a4.09 4.09 0 0 1 -.32-.57c.17.19.32.34.45.46a.71.71 0 0 0 .23-.27 3.09 3.09 0 0 1 -.14-1.07 1.58 1.58 0 0 1 .4-1 8.62 8.62 0 0 1 -1.15.21c-.11.95-.22 1.84-.32 2.72a.27.27 0 0 0 0 .11 5.33 5.33 0 0 0 .85-.59zm.26-3.89a1.65 1.65 0 0 1 .7-.13 1.24 1.24 0 0 1 1.09 1.33 1.76 1.76 0 0 0 -.83 1.34.16.16 0 0 0 .13.11.91.91 0 0 0 .79-.34h.23v-1.09c0-1.61-.29-2.42-.89-2.42-.41.25-.88.53-1.39.88a3.1 3.1 0 0 1 -.45 0c0 .4-.08.79-.13 1.15a2 2 0 0 0 .75-.83zm2 3.87c-.66.11-1.24.22-1.75.32a3.85 3.85 0 0 0 1.84 1.12c0-.35 0-.84 0-1.44z" fill="#fff"/><path d="m82.07 336.65c.13.49.26 1 .43 1.46a6 6 0 0 1 .58 1.48 4.52 4.52 0 0 0 0 .53 15.43 15.43 0 0 1 2-1c.09-.4.15-.81.22-1.24a20.72 20.72 0 0 0 .17-2.44 1.85 1.85 0 0 0 -.47-1.44 3.4 3.4 0 0 0 -.21.56 3.11 3.11 0 0 1 -.21-.47 1.85 1.85 0 0 1 .38-.45c.34 0 .86.45 1.54 1.32a3.72 3.72 0 0 1 1 2.1 13.54 13.54 0 0 0 -1 3 24.35 24.35 0 0 0 -.5 2.85c.18.42.39 1 .65 1.65a6.6 6.6 0 0 1 .4 1.58 1.8 1.8 0 0 1 -.77.15 1.57 1.57 0 0 1 -.72-.17c-.09.47-.18.88-.26 1.18-.21.81-.43 1.22-.64 1.22a5 5 0 0 1 -2.28-1.22c-1.09-.77-1.9-1.35-2.42-1.74a.71.71 0 0 0 -.44.17c-.36 0-.56-.25-.58-.79a7.62 7.62 0 0 1 .28-1.09 5.57 5.57 0 0 1 1-1.29 6 6 0 0 1 1.43-1.28 1.12 1.12 0 0 1 -.08-.26 14.54 14.54 0 0 1 -.34-2.46 6.05 6.05 0 0 1 .47-1.63c.17-.34.34-.56.55-.62a2.7 2.7 0 0 0 -.18.34zm-1.32 7.82c.21.85 1.26 1.37 3.13 1.54.22 0 .39-.17.52-.54a9.46 9.46 0 0 1 -1.88-2.14 5 5 0 0 1 -.41-.79 4.13 4.13 0 0 0 -1.36 1.93zm4-1.41a25.15 25.15 0 0 1 .13-2.6c0-.17.06-.34.1-.51a20.1 20.1 0 0 1 -1.64 1.49 5.67 5.67 0 0 0 .21.88 2.5 2.5 0 0 0 1.11 1.35c-.01-.21.02-.4.06-.61zm7.62-3.31a3.26 3.26 0 0 0 -1.9 1.07c-.94 0-1.41-.25-1.41-.79a4.83 4.83 0 0 1 3.46-1.88q2.43.06 2.43 2.25a7.27 7.27 0 0 1 -1.31 2.6 3.27 3.27 0 0 1 -.28.36c.32.24.51.37.55.41s.09.19.13.49a4.14 4.14 0 0 1 .07.56c0 .08-.13.26-.39.47a1 1 0 0 1 -.51.19 7.09 7.09 0 0 1 -.89-.45 4.73 4.73 0 0 0 -1-.13 2.7 2.7 0 0 0 -1 .37l-.45.44c0 .18-.08.35-.13.52a1 1 0 0 1 -.89-.6 4.87 4.87 0 0 1 -.71-1.71c-.13-.94-.24-1.8-.34-2.62a7.73 7.73 0 0 1 -.13-1.3h.33a10 10 0 0 1 1.37 1.47c.25.93.45 1.65.53 2.19a2.17 2.17 0 0 1 .69-.19 4.27 4.27 0 0 0 .83-.17 7.52 7.52 0 0 0 .92-3.55z" fill="#fff"/><path d="m113.53 333.71a2.14 2.14 0 0 1 .75 1.2 8.68 8.68 0 0 1 -.75 2.7c-.15.69-.3 1.48-.43 2.34.05.06.07.1.09.1a1.91 1.91 0 0 1 .21.8 4 4 0 0 1 -.64 1.43l-.06.52c-.09 1.49-.2 2.56-.3 3.21a2.4 2.4 0 0 0 .6-.01 18.09 18.09 0 0 1 2.19-.22 3.39 3.39 0 0 1 .92.22l.81.59a1.3 1.3 0 0 1 .15.58c0 .34.09.56.09.64s-.15.3-.45.56a1.38 1.38 0 0 1 -.6.22 8.05 8.05 0 0 1 -1.11-.59 5.08 5.08 0 0 0 -1.11-.15 36.49 36.49 0 0 0 -4.29.4c-1.45.44-2.24.67-2.41.69a4.38 4.38 0 0 1 -.83-.83 5.25 5.25 0 0 1 -.74-.92 1.34 1.34 0 0 1 .12-.62h.54a.83.83 0 0 0 0 .34c.13 0 .75-.13 1.88-.39a10.11 10.11 0 0 1 2-.34 1.38 1.38 0 0 1 0-.34 3.72 3.72 0 0 1 -.77-.54 10.5 10.5 0 0 1 -1.84-2.05.42.42 0 0 1 -.28.1c-.12 0-.23-.13-.29-.38a3.4 3.4 0 0 1 -.11-.82 1.62 1.62 0 0 1 1-1.24 5 5 0 0 1 2-1.05c.42-.09.81-.14 1.17-.19.28-1.95.43-3.13.43-3.53a3.29 3.29 0 0 1 -.94.77 1.74 1.74 0 0 1 -.94.32 1.29 1.29 0 0 1 -.94-.47 2.6 2.6 0 0 1 -.75-1.29l1.3-.36c.92-.43 1.43-.77 1.54-1a4.81 4.81 0 0 0 .64-.58c.28-.17.55-.34.81-.53a2 2 0 0 1 1.34.71zm-4 8.27a5.77 5.77 0 0 0 -1.37.88l1.09 1a1.82 1.82 0 0 0 1.13.6 2.52 2.52 0 0 0 .15-.54l.06-.58c.09-.6.17-1.15.26-1.67a9.26 9.26 0 0 0 -1.37.33zm6.61-1.86a5 5 0 0 1 1.34.51 8.47 8.47 0 0 1 .63.69 1.29 1.29 0 0 1 .21.54 2.5 2.5 0 0 1 -.28.61.91.91 0 0 1 -.44.26h-3l.43-.41a2.28 2.28 0 0 0 .69-.36 1.12 1.12 0 0 0 .16-.58 4.64 4.64 0 0 0 -.55-.71 2 2 0 0 1 -.33-.67 6.08 6.08 0 0 1 1.09.12z" fill="#fff"/><path d="m123.76 348.21a1.24 1.24 0 0 0 -1.14-.09 2.83 2.83 0 0 0 -1.13.78 4.17 4.17 0 0 0 -.36.52c-.07.12 0-.19.36-.52a2.59 2.59 0 0 1 .5-.49 2.9 2.9 0 0 0 -.92.51 2.48 2.48 0 0 0 -.24.55 3 3 0 0 0 .44 2.62 4 4 0 0 0 1.07 1 3.12 3.12 0 0 1 -1.7-3.55v.1a3.11 3.11 0 0 0 .26 2.23l.2.35a4 4 0 0 1 -.2-.35 3.43 3.43 0 0 1 -.44-1 3.66 3.66 0 0 1 0-.74 1.53 1.53 0 0 1 .18-.52c0-.1.07-.21.11-.31a.34.34 0 0 1 0-.1 2.1 2.1 0 0 0 -.54 1.78 3 3 0 0 0 .92 1.94 3.89 3.89 0 0 0 1.24.43c.15 0 .25.15.38.14s.08-.05.14-.06c.28.06.57.22.8.12s.66.54.7.41c.07-.44 0-.1.43-.16 0 0 .16-.21.25-.23.34 0 .39-.19.67-.41.37-.4.64-.3.77-.83a4.58 4.58 0 0 0 .26-.76c.28-.49.13-.84.45-1.24-.21-.49-.05-1.18-.37-1.66a10.45 10.45 0 0 1 -.54-1.22c-.09-.12-.19-.17-.23-.27s-.31-.08-.42-.17l.09-.08-.16-.13s0-.06 0-.09.11-.11.05-.21a2.27 2.27 0 0 0 -.61-.39 3 3 0 0 0 -.73.05.61.61 0 0 1 -.07.14.68.68 0 0 0 -.2.07c0 .11 0 .23-.07.31 0 .32-.24.63-.18.93 0 .09.27.11.35.29s-.06.15-.09.26c.12 0 .1.14 0 .24v.15c.24.19.33.52.56.5h.23s0 .08.05.1a1.78 1.78 0 0 0 .27-.21c.08.23.07.62.43.44.05.15.24.11.31.29a1.76 1.76 0 0 1 .11.85 1.15 1.15 0 0 1 -.13.49l-.07.17a2 2 0 0 1 -1.35 1 4.2 4.2 0 0 1 -1.7 0 1.9 1.9 0 0 1 -1.46-1.32 2 2 0 0 1 .33-1.81 2 2 0 0 1 1.2-.71 2.29 2.29 0 0 1 .76 0z" fill="#e60012"/><path d="m162.55 333.29a7.68 7.68 0 0 1 2-1.54c.38-.17.81-.36 1.3-.53a1.49 1.49 0 0 1 1.09.38 2.8 2.8 0 0 1 .26 1.35 7.44 7.44 0 0 1 -.86 1.07 1.17 1.17 0 0 0 .32-.09 1.61 1.61 0 0 1 .94.58.87.87 0 0 1 -.15.5l-2.2 1.09s.07 0 .07 0v.13a6.87 6.87 0 0 0 .81-.22 1.69 1.69 0 0 1 .92.58 1 1 0 0 1 -.13.5c-.68.34-1.32.68-1.94 1-.07.22-.13.43-.19.6.57-.22 1.15-.45 1.7-.71a.71.71 0 0 1 .41-.15 3 3 0 0 1 .6.69v.51c-.75.34-1.47.64-2.2.9a3.28 3.28 0 0 1 .94 2.27l.81-.11a8.18 8.18 0 0 0 -.9-1.15 7 7 0 0 1 1.16.83 2.62 2.62 0 0 1 1.38.82 1.5 1.5 0 0 1 -.13.64 17.32 17.32 0 0 0 -2 .19 9.1 9.1 0 0 0 .47 1.37 3.49 3.49 0 0 0 .47-.79.82.82 0 0 1 -.15-.54 2.1 2.1 0 0 1 1.15.35 1.5 1.5 0 0 1 .53 1 .86.86 0 0 1 -.08.28 1.57 1.57 0 0 1 -.24.35 4.51 4.51 0 0 1 -1 .87 4 4 0 0 0 2 2c0-.25 0-.57 0-.92v-2a16.51 16.51 0 0 1 1.2 4.67 5.59 5.59 0 0 1 -.3.6q-1.92-.23-3.72-3.71l-.51.41a3.61 3.61 0 0 1 -1.58.71 4.51 4.51 0 0 1 -.66-.07c-.23 0-.34-.1-.34-.19a5.2 5.2 0 0 0 1.41-.88 4.64 4.64 0 0 0 1.09-1.2c-.3-.64-.6-1.32-.88-2.1a22.88 22.88 0 0 0 -2.2.65s0 .08 0 .13a10 10 0 0 0 -.15 1 13.17 13.17 0 0 0 1.81-1.2c-.08.47-.7 1.16-1.83 2.06l-.08.09c0 .35 0 .73-.07 1.14a5.8 5.8 0 0 0 0 .66 5 5 0 0 0 .19 1 7.38 7.38 0 0 1 .07.75.55.55 0 0 1 -.2.38.48.48 0 0 1 -.34.13 5.91 5.91 0 0 1 -2-1.32c-.3-.26-.54-.45-.71-.62a1.06 1.06 0 0 1 -.41.08c-.4 0-.67-.34-.85-.86 0-.36 0-.58.13-.64a9.74 9.74 0 0 0 3.14-1.09l.15-.06c0-.13 0-.28 0-.41s0-.37-.07-.71a33.1 33.1 0 0 0 -3 1.5c-.61 0-1-.47-1.13-1.41a21.74 21.74 0 0 0 4-1.22 3.3 3.3 0 0 0 -.32-.71.13.13 0 0 1 -.05-.09l-.15.09a4.52 4.52 0 0 1 -1.53.45 2.22 2.22 0 0 1 -.63-.09c-.21 0-.31-.08-.31-.17a4.61 4.61 0 0 0 1.34-.58 4.73 4.73 0 0 0 1.26-1 4.14 4.14 0 0 0 .51-.47 6.26 6.26 0 0 1 -.66.21c-.55.22-1.09.43-1.6.67a5.16 5.16 0 0 1 -1.64.36c-.43-.13-.71-.53-.81-1.22a5 5 0 0 1 1.47-.51c.77-.17 1.69-.46 2.8-.82.55-.17 1.13-.34 1.7-.55a.93.93 0 0 1 .05-.32c-.3.14-.6.3-.88.42a4.37 4.37 0 0 1 -.83.32 2.73 2.73 0 0 1 .61-.57 7.31 7.31 0 0 0 1.16-.61.34.34 0 0 1 0-.14 10.23 10.23 0 0 1 -1.54.23c-.44-.09-.74-.45-.92-1.09a.24.24 0 0 1 .2-.08.81.81 0 0 0 .28 0l1.47-.47.26-.22c.21-.08.38-.17.55-.25a.07.07 0 0 1 0-.06 17.93 17.93 0 0 1 -2.52.43c-.47-.11-.77-.5-.94-1.14a.21.21 0 0 1 .19-.08.87.87 0 0 0 .28 0l1.43-.45a.86.86 0 0 1 -.45-.73 6.66 6.66 0 0 1 -.41-2.46c.56.62.99 1.04 1.31 1.33zm-1.82 14.82a6.35 6.35 0 0 0 1.39.28c0-.13 0-.54 0-1.27a7.91 7.91 0 0 1 -1.39.99zm2.65-5.05c.64-.22 1.19-.41 1.69-.56-.18-.47-.35-1-.54-1.61a5.45 5.45 0 0 0 -.51-.47 5.23 5.23 0 0 1 -.55.22 1.25 1.25 0 0 1 .36.79.28.28 0 0 1 -.08.15.85.85 0 0 1 -.24.21 4 4 0 0 1 -1 .6c.49.24.79.45.87.67zm.56-8.4a.35.35 0 0 1 .1-.08 3.38 3.38 0 0 0 1.37-2.53 3.23 3.23 0 0 0 -1 .69c-.4.43-.75.79-1 1.13a11 11 0 0 1 -.6 1.16c.34-.13.74-.24 1.13-.37zm4.9 5.1a3.41 3.41 0 0 1 1 .36 1.58 1.58 0 0 1 .36 1c0 .09-.36.15-1.07.21s-1.1.2-1.56.24a4 4 0 0 0 .6-.75 4.22 4.22 0 0 1 -.42-.62 1.15 1.15 0 0 1 -.26-.6 10.67 10.67 0 0 1 1.35.16z" fill="#fff"/><path d="m193.31 338.13a2 2 0 0 1 .87 1.48 18.34 18.34 0 0 1 -1.32 3.25c-.45.75-.77 1.12-1 1.12a.79.79 0 0 1 -.53-.28c-.62.32-1.22.62-1.79.88v.08l1.53-.36a1.79 1.79 0 0 1 1 .66 1.08 1.08 0 0 1 -.15.56l-2.58 1.63a1.24 1.24 0 0 0 0 .25 9.19 9.19 0 0 0 1.34-.17 15.39 15.39 0 0 1 2.32-.23 2.55 2.55 0 0 1 .78.19c.39.27.62.45.71.51s.09.2.13.49.07.45.07.54-.14.24-.39.49a1.1 1.1 0 0 1 -.52.19 4.93 4.93 0 0 1 -.91-.44 3.76 3.76 0 0 0 -1-.13 32.36 32.36 0 0 0 -4.73.47c-1.58.47-2.48.72-2.65.77a4.55 4.55 0 0 1 -.66-.67c-.38-.44-.6-.7-.62-.74a.89.89 0 0 1 .11-.52h.42a.45.45 0 0 0 .05.28 16.76 16.76 0 0 0 1.94-.47 11.42 11.42 0 0 1 2.26-.43l.11-.07c0-.25 0-.51 0-.74-.49.08-1 .15-1.47.19a1.51 1.51 0 0 1 -1.05-1.26c0-.07.09-.11.22-.11a1.07 1.07 0 0 0 .29 0c.54-.13 1-.28 1.52-.4a.69.69 0 0 1 .15-.14 3 3 0 0 0 .4-.19c0-.15 0-.3 0-.45a15.81 15.81 0 0 1 -2 .24 1.42 1.42 0 0 1 -1-1.2.23.23 0 0 1 .21-.11.94.94 0 0 0 .3.07 4.21 4.21 0 0 1 -.44-1.16c-.14-.62-.26-1.2-.35-1.75a3.6 3.6 0 0 1 -.13-.86h.3a8 8 0 0 1 1.16 1 8.32 8.32 0 0 1 .53 2v.53a8.44 8.44 0 0 0 .93-.22.8.8 0 0 0 .24-.19l.34-.21v-.26a3.7 3.7 0 0 1 0-.45 2.53 2.53 0 0 1 -.68.11 1.4 1.4 0 0 1 -1-1.18.18.18 0 0 1 .19-.11.88.88 0 0 0 .3.07l1.21-.41c0-.26 0-.49 0-.7-.17.08-.31.19-.47.28-1 0-1.49-.22-1.49-.65a6.11 6.11 0 0 1 2-1.11c0-.28 0-.54 0-.77l-1.07.23a35.86 35.86 0 0 1 -5 2.08 1.61 1.61 0 0 1 -.77-.34 2.79 2.79 0 0 1 -.66-.56c-.13 0-.21-.22-.25-.49a.8.8 0 0 1 -.09-.39.62.62 0 0 0 .34.17c2.92-.79 5.44-1.43 7.53-1.95a1.57 1.57 0 0 0 -.34-.81 6.14 6.14 0 0 1 -1.09.41 10.53 10.53 0 0 1 -1.08-.07 1.11 1.11 0 0 1 -.8-.25 4.67 4.67 0 0 0 1.84-.94c.55-.43 1.07-.81 1.49-1.18a5.64 5.64 0 0 1 .79-.69 2.23 2.23 0 0 0 .32-.79 6.76 6.76 0 0 1 1.52.37c.55.36.85.73.85 1.09q0 .77-.45.9a8.15 8.15 0 0 1 -.93.06l-1.28.54c.12.08.23.19.33.27a2.69 2.69 0 0 1 .54.71c1.88-.38 3.35-.64 4.44-.75.59 0 1 .47 1.22 1.37a.86.86 0 0 1 -.22.64c-.44 0-1.82 0-4.07-.1a8.18 8.18 0 0 0 -1.33.13l-.06.74c.34 0 .72-.06 1.11-.08a3.67 3.67 0 0 1 2.17.49zm-3.31 1.61.6-.17a1.75 1.75 0 0 1 1 .61 1 1 0 0 1 -.15.52c-.58.41-1.13.79-1.67 1.14v.64l1.6-.34a.28.28 0 0 0 .13 0 9.85 9.85 0 0 1 .36-1.16 7.2 7.2 0 0 0 .38-2.18 4.66 4.66 0 0 0 0-.51 11.68 11.68 0 0 0 -2.09.49c-.16.34-.16.64-.16.96z" fill="#fff"/><path d="m208.57 336.74c.13.49.25 1 .42 1.46a5.74 5.74 0 0 1 .58 1.47 4.7 4.7 0 0 0 0 .54s0 0 0 0a17.6 17.6 0 0 1 2-1c.09-.41.15-.81.21-1.24a18.66 18.66 0 0 0 .17-2.44 1.88 1.88 0 0 0 -.53-1.48 2.38 2.38 0 0 0 -.21.56 3.23 3.23 0 0 1 -.22-.47 2.11 2.11 0 0 1 .39-.45c.34 0 .85.45 1.53 1.33a3.67 3.67 0 0 1 1 2.09 14.9 14.9 0 0 0 -1 3 27 27 0 0 0 -.49 2.84c.17.44.38 1 .64 1.65a7 7 0 0 1 .41 1.59 1.83 1.83 0 0 1 -.77.15 1.61 1.61 0 0 1 -.73-.17c-.08.47-.17.88-.25 1.18-.22.81-.43 1.22-.64 1.22a5 5 0 0 1 -2.29-1.22c-1.09-.77-1.9-1.35-2.41-1.74a.74.74 0 0 0 -.45.17c-.36 0-.55-.26-.57-.79a6.86 6.86 0 0 1 .27-1.09 5.57 5.57 0 0 1 1-1.29 6.39 6.39 0 0 1 1.44-1.28.89.89 0 0 1 -.07-.33 15.85 15.85 0 0 1 -.34-2.46 6.88 6.88 0 0 1 .47-1.63c.17-.34.34-.56.55-.62a2.71 2.71 0 0 0 -.11.45zm-1.32 7.81c.21.86 1.25 1.37 3.13 1.55.21 0 .39-.18.51-.54a9.72 9.72 0 0 1 -1.88-2.14 5.34 5.34 0 0 1 -.4-.79 4.08 4.08 0 0 0 -1.36 1.92zm4-1.41a25 25 0 0 1 .13-2.59c0-.17.06-.34.11-.51-.56.55-1.09 1-1.64 1.5a4.81 4.81 0 0 0 .21.87 2.5 2.5 0 0 0 1.11 1.35c-.02-.21 0-.4.04-.62zm7.62-3.29a3.24 3.24 0 0 0 -1.9 1.06c-.94 0-1.41-.25-1.41-.79a4.81 4.81 0 0 1 3.46-1.88c1.62 0 2.44.79 2.44 2.25a7.48 7.48 0 0 1 -1.29 2.57 3.35 3.35 0 0 1 -.27.36c.32.24.51.37.55.41a1.12 1.12 0 0 1 .13.49 5.59 5.59 0 0 1 .06.56c0 .08-.12.25-.38.46a1.08 1.08 0 0 1 -.51.2 6.77 6.77 0 0 1 -.9-.45 4.07 4.07 0 0 0 -1-.13 2.68 2.68 0 0 0 -1.05.37l-.45.45-.12.51a1 1 0 0 1 -.9-.6 4.88 4.88 0 0 1 -.7-1.71c-.13-.94-.24-1.8-.35-2.62a7.66 7.66 0 0 1 -.12-1.3h.36a9.52 9.52 0 0 1 1.36 1.48 22.42 22.42 0 0 1 .54 2.18 2.05 2.05 0 0 1 .68-.19 4.27 4.27 0 0 0 .83-.17 7.48 7.48 0 0 0 .9-3.51z" fill="#fff"/><path d="m232.9 342.2a12.22 12.22 0 0 0 .11 1.41 5.94 5.94 0 0 0 -.09.9 4.78 4.78 0 0 0 -.06.49 4.21 4.21 0 0 1 1.15-.45c.62-.14 1.36-.27 2.24-.4a8.21 8.21 0 0 1 -.66-.67 3.61 3.61 0 0 1 -.09-.74 3.66 3.66 0 0 0 1 .81c.34 0 .53-1.8.57-5.44a25.85 25.85 0 0 0 .24-3.06 5.49 5.49 0 0 1 -1.05-1.52c.39.09.79.17 1.2.28a4.89 4.89 0 0 1 1.62.79 1.7 1.7 0 0 1 .64 1.33 6.75 6.75 0 0 1 -.81 2 49.05 49.05 0 0 0 -.56 5.95c1-.08 2-.13 3-.13a2.84 2.84 0 0 0 .71-.32.63.63 0 0 0 .19-.21 6.3 6.3 0 0 0 .17-1.44 2 2 0 0 0 -1-1.64 2.46 2.46 0 0 1 1.11-.22 2.2 2.2 0 0 1 2 2.12 9.26 9.26 0 0 1 -1.24 3.41 2 2 0 0 1 -2 1 2.82 2.82 0 0 1 .24-1.14c-2 .13-3.67.32-5.17.56a11.5 11.5 0 0 0 -2.17.66 8.94 8.94 0 0 0 -1 .75 2.32 2.32 0 0 1 -.75.26 1.46 1.46 0 0 1 -1-.53 8.56 8.56 0 0 1 -.6-1.51c.11 0 .2-.23.26-.7s.11-1.07.15-1.89a12.23 12.23 0 0 1 .21-1.65c.22-.44.41-.68.56-.68a6.12 6.12 0 0 1 1 .6 2.61 2.61 0 0 1 .86.94c-.45-.13-.81-.23-1.07-.32z" fill="#fff"/><path d="m250.46 344.88a1.24 1.24 0 0 0 -1.14-.09 2.73 2.73 0 0 0 -1.13.78 4.17 4.17 0 0 0 -.36.52c-.06.12 0-.19.36-.52a2.59 2.59 0 0 1 .5-.49 3 3 0 0 0 -.92.51 2.48 2.48 0 0 0 -.24.55 3 3 0 0 0 .44 2.62 4.13 4.13 0 0 0 1.07 1 3.12 3.12 0 0 1 -1.7-3.55l-.05.1a3.11 3.11 0 0 0 .26 2.23l.21.35a2.5 2.5 0 0 1 -.21-.35 3.37 3.37 0 0 1 -.44-1 3.56 3.56 0 0 1 0-.73 1.53 1.53 0 0 1 .18-.52 2.83 2.83 0 0 1 .11-.31.31.31 0 0 1 0-.1 2.1 2.1 0 0 0 -.54 1.78 3 3 0 0 0 .92 1.94 4.12 4.12 0 0 0 1.22.4c.14.05.24.15.37.13s.08 0 .14-.06c.28.06.57.23.8.13s.66.54.7.41c.07-.44 0-.1.43-.16.05 0 .16-.21.25-.23.34 0 .39-.19.68-.41.36-.41.63-.3.76-.84a4.21 4.21 0 0 0 .26-.75c.28-.49.13-.84.45-1.24-.21-.49 0-1.18-.37-1.67a10.29 10.29 0 0 1 -.54-1.21c-.09-.13-.19-.17-.23-.27s-.3-.08-.42-.17l.09-.09-.16-.12s0-.06 0-.09.11-.12 0-.21a2.39 2.39 0 0 0 -.61-.4 3.54 3.54 0 0 0 -.73.06.27.27 0 0 1 -.07.13l-.2.07c0 .12 0 .24-.07.32 0 .32-.23.63-.18.92 0 .09.27.12.35.3s-.05.14-.09.26c.12 0 .11.14.05.23l-.05.15c.24.18.33.51.56.5a1.11 1.11 0 0 0 .23 0s0 .09 0 .11a1.78 1.78 0 0 0 .27-.21c.08.23.07.62.43.44 0 .15.24.11.31.28a1.82 1.82 0 0 1 .11.86 1.31 1.31 0 0 1 -.12.49l-.08.17a2 2 0 0 1 -1.35 1 4.39 4.39 0 0 1 -1.7 0 1.92 1.92 0 0 1 -1.46-1.32 2 2 0 0 1 .33-1.81 2 2 0 0 1 1.2-.71 2.29 2.29 0 0 1 .76 0z" fill="#e60012"/><path d="m261.79 222.9v-.47a2.51 2.51 0 0 0 .93-.22 1.1 1.1 0 0 0 .39-.72h.48v4.88h-.65v-3.47z" fill="#208ec5"/><path d="m265.61 225.62h.71v.75h-.71z" fill="#208ec5"/><path d="m267.82 225.12a.85.85 0 0 0 .49.73 1.12 1.12 0 0 0 .5.1.94.94 0 0 0 .81-.35 1.23 1.23 0 0 0 .27-.77 1 1 0 0 0 -.32-.79 1.08 1.08 0 0 0 -.75-.28 1.13 1.13 0 0 0 -.54.12 1.26 1.26 0 0 0 -.39.34h-.53l.37-2.63h2.54v.59h-2.08l-.21 1.36a1.71 1.71 0 0 1 .33-.2 1.73 1.73 0 0 1 .63-.11 1.61 1.61 0 0 1 1.14.44 1.44 1.44 0 0 1 .47 1.1 1.86 1.86 0 0 1 -.43 1.22 1.67 1.67 0 0 1 -1.37.53 1.72 1.72 0 0 1 -1.06-.34 1.36 1.36 0 0 1 -.51-1z" fill="#208ec5"/><path d="m271 221.14h1.14l1.2 1.84 1.22-1.84h1.07l-1.77 2.53 1.85 2.68h-1.13l-1.3-2-1.26 2h-1.12l1.84-2.68z" fill="#208ec5"/><path d="m196.73 225.12a.87.87 0 0 0 .49.73 1.16 1.16 0 0 0 .51.1 1 1 0 0 0 .81-.35 1.28 1.28 0 0 0 .26-.77 1 1 0 0 0 -.31-.79 1.08 1.08 0 0 0 -.75-.28 1.15 1.15 0 0 0 -.55.12 1.26 1.26 0 0 0 -.39.34h-.53l.37-2.63h2.55v.59h-2.09l-.2 1.36a1.66 1.66 0 0 1 .32-.2 1.73 1.73 0 0 1 .63-.11 1.61 1.61 0 0 1 1.14.44 1.4 1.4 0 0 1 .47 1.1 1.86 1.86 0 0 1 -.46 1.23 1.66 1.66 0 0 1 -1.37.53 1.69 1.69 0 0 1 -1-.34 1.33 1.33 0 0 1 -.52-1z" fill="#208ec5"/><path d="m199.91 221.14h1.09l1.21 1.84 1.21-1.84h1.07l-1.76 2.53 1.84 2.68h-1.12l-1.3-2-1.26 2h-1.12l1.84-2.68z" fill="#208ec5"/><path d="m135.14 222.9v-.47a2.4 2.4 0 0 0 .93-.22 1.06 1.06 0 0 0 .4-.72h.53v4.88h-.65v-3.47z" fill="#208ec5"/><path d="m139 225.62h.72v.75h-.72z" fill="#208ec5"/><path d="m141.18 225.12a.85.85 0 0 0 .49.73 1.12 1.12 0 0 0 .5.1.94.94 0 0 0 .81-.35 1.23 1.23 0 0 0 .27-.77 1 1 0 0 0 -.32-.79 1.08 1.08 0 0 0 -.75-.28 1.13 1.13 0 0 0 -.54.12 1.26 1.26 0 0 0 -.39.34h-.53l.37-2.63h2.54v.59h-2.08l-.21 1.36a1.71 1.71 0 0 1 .33-.2 1.73 1.73 0 0 1 .63-.11 1.61 1.61 0 0 1 1.14.44 1.44 1.44 0 0 1 .47 1.1 1.86 1.86 0 0 1 -.43 1.22 1.67 1.67 0 0 1 -1.37.53 1.72 1.72 0 0 1 -1.06-.34 1.32 1.32 0 0 1 -.51-1z" fill="#208ec5"/><path d="m144.35 221.14h1.14l1.2 1.84 1.22-1.84h1.07l-1.77 2.53 1.84 2.68h-1.12l-1.3-2-1.26 2h-1.11l1.84-2.68z" fill="#208ec5"/><path d="m8.5 222.9v-.47a2.4 2.4 0 0 0 .93-.22 1.06 1.06 0 0 0 .4-.72h.48v4.88h-.65v-3.47z" fill="#208ec5"/><path d="m12.32 225.62h.68v.75h-.72z" fill="#208ec5"/><path d="m14.54 225.12a.85.85 0 0 0 .49.73 1.12 1.12 0 0 0 .5.1.94.94 0 0 0 .81-.35 1.22 1.22 0 0 0 .26-.77 1 1 0 0 0 -.31-.79 1.08 1.08 0 0 0 -.75-.28 1.13 1.13 0 0 0 -.54.12 1.26 1.26 0 0 0 -.39.34h-.53l.37-2.63h2.55v.59h-2.09l-.21 1.36a1.46 1.46 0 0 1 .33-.2 1.73 1.73 0 0 1 .63-.11 1.61 1.61 0 0 1 1.14.44 1.44 1.44 0 0 1 .47 1.1 1.86 1.86 0 0 1 -.43 1.22 1.67 1.67 0 0 1 -1.37.53 1.72 1.72 0 0 1 -1.06-.34 1.32 1.32 0 0 1 -.51-1z" fill="#208ec5"/><path d="m17.71 221.14h1.14l1.2 1.84 1.22-1.84h1.07l-1.77 2.53 1.84 2.68h-1.12l-1.3-2-1.26 2h-1.11l1.84-2.68z" fill="#208ec5"/><path d="m70.94 225.12a.86.86 0 0 0 .48.73 1.19 1.19 0 0 0 .51.1 1 1 0 0 0 .81-.35 1.22 1.22 0 0 0 .26-.77 1 1 0 0 0 -.31-.79 1.08 1.08 0 0 0 -.75-.28 1.13 1.13 0 0 0 -.54.12 1.16 1.16 0 0 0 -.39.34h-.54l.38-2.63h2.54v.59h-2.08l-.21 1.36a1.66 1.66 0 0 1 .32-.2 1.83 1.83 0 0 1 .64-.11 1.61 1.61 0 0 1 1.14.44 1.44 1.44 0 0 1 .47 1.1 1.91 1.91 0 0 1 -.43 1.22 1.67 1.67 0 0 1 -1.37.53 1.72 1.72 0 0 1 -1.06-.34 1.3 1.3 0 0 1 -.51-1z" fill="#208ec5"/><path d="m74.11 221.14h1.14l1.2 1.84 1.22-1.84h1.07l-1.74 2.55 1.84 2.68h-1.15l-1.3-2-1.26 2h-1.13l1.84-2.68z" fill="#208ec5"/><path d="m294.4 188.3h1.14l1.2 1.84 1.26-1.84h1.07l-1.76 2.52 1.84 2.68h-1.15l-1.3-2-1.26 2h-1.11l1.84-2.68z" fill="#208ec5"/><path d="m283.68 214.66h-283.68v-49.11h283.68zm-283.43-.25h283.18v-48.61h-283.18z" fill="#00b2e1"/><path d="m293.13 180.67h7.24v.25h-7.24z" fill="#00b2e1"/><path d="m293.13 165.53h7.24v.25h-7.24z" fill="#00b2e1"/><path d="m293.13 200.3h7.24v.25h-7.24z" fill="#00b2e1"/><path d="m293.13 214.39h7.24v.25h-7.24z" fill="#00b2e1"/><path d="m336.25 51.57h1.14l1.2 1.84 1.21-1.84h1.07l-1.76 2.53 1.89 2.7h-1.12l-1.3-2-1.26 2h-1.11l1.79-2.68z" fill="#208ec5"/><path d="m334.73 40.6h7.24v.25h-7.24z" fill="#00b2e1"/><path d="m334.73 68.95h7.24v.25h-7.24z" fill="#00b2e1"/><path d="m127.06 219.13h.25v7.24h-.25z" fill="#00b2e1"/><path d="m156.37 219.13h.25v7.24h-.25z" fill="#00b2e1"/><path d="m0 219.13h.25v7.24h-.25z" fill="#00b2e1"/><path d="m29.31 219.13h.25v7.24h-.25z" fill="#00b2e1"/><path d="m254.11 219.13h.25v7.24h-.25z" fill="#00b2e1"/><path d="m283.43 219.13h.25v7.24h-.25z" fill="#00b2e1"/><path d="m158.35 83.25v-.47a2.6 2.6 0 0 0 .93-.22 1.06 1.06 0 0 0 .4-.72h.48v4.87h-.65v-3.46z" fill="#208ec5"/><path d="m162.17 86h.72v.74h-.72z" fill="#208ec5"/><path d="m164.39 85.47a.83.83 0 0 0 .49.72 1.12 1.12 0 0 0 .5.11.94.94 0 0 0 .81-.35 1.23 1.23 0 0 0 .27-.78 1 1 0 0 0 -.32-.79 1.12 1.12 0 0 0 -.75-.28 1 1 0 0 0 -.54.13 1.14 1.14 0 0 0 -.39.34h-.53l.37-2.64h2.54v.59h-2.08l-.21 1.37a1.17 1.17 0 0 1 .33-.2 1.73 1.73 0 0 1 .63-.11 1.6 1.6 0 0 1 1.14.43 1.45 1.45 0 0 1 .47 1.1 1.88 1.88 0 0 1 -.43 1.23 1.67 1.67 0 0 1 -1.37.53 1.79 1.79 0 0 1 -1.06-.34 1.34 1.34 0 0 1 -.51-1z" fill="#208ec5"/><path d="m167.56 81.48h1.14l1.2 1.84 1.22-1.84h1.07l-1.77 2.52 1.84 2.68h-1.12l-1.3-2-1.26 2h-1.11l1.84-2.68z" fill="#208ec5"/><path d="m67.49 85.47a.83.83 0 0 0 .49.72 1.12 1.12 0 0 0 .5.11.94.94 0 0 0 .81-.35 1.22 1.22 0 0 0 .26-.78 1 1 0 0 0 -.31-.79 1.12 1.12 0 0 0 -.75-.28 1 1 0 0 0 -.54.13 1.06 1.06 0 0 0 -.39.34h-.54l.38-2.64h2.54v.59h-2.08l-.21 1.37a1.17 1.17 0 0 1 .33-.2 1.73 1.73 0 0 1 .63-.11 1.6 1.6 0 0 1 1.14.43 1.45 1.45 0 0 1 .47 1.1 1.94 1.94 0 0 1 -.43 1.23 1.67 1.67 0 0 1 -1.37.53 1.79 1.79 0 0 1 -1.06-.34 1.34 1.34 0 0 1 -.51-1z" fill="#208ec5"/><path d="m70.66 81.48h1.14l1.2 1.84 1.22-1.84h1.07l-1.77 2.52 1.84 2.68h-1.12l-1.3-2-1.26 2h-1.11l1.84-2.68z" fill="#208ec5"/><path d="m141.89 80.43h.25v7.24h-.25z" fill="#00b2e1"/><path d="m188.04 80.43h.25v7.24h-.25z" fill="#00b2e1"/><path d="m207.81 80.43h.25v7.24h-.25z" fill="#00b2e1"/><path d="m221.82 80.43h.25v7.24h-.25z" fill="#00b2e1"/><path d="m31.36 189.66a2 2 0 0 0 .34.49 1.36 1.36 0 0 1 .47.81 3.73 3.73 0 0 1 -.23 1.24 11.67 11.67 0 0 1 -.58 1.14 4.74 4.74 0 0 1 -.77 1c-.26.25-.45.36-.58.36s-.23-.21-.35-.68a3.21 3.21 0 0 1 -.22-1 3.07 3.07 0 0 1 .24-.79 1.14 1.14 0 0 1 .62-.65l.46-.89a2.64 2.64 0 0 0 .28-.65 7.69 7.69 0 0 1 -.08-.87 2 2 0 0 1 .4.49zm2.45-.71a6.72 6.72 0 0 0 5.51 4.82c1.11 0 1.68-.13 1.68-.43-.47-1.09-.91-2.1-1.38-3 3 2.18 4.46 3.49 4.46 3.94-.26.9-1.26 1.37-3 1.43q-6.66-.21-8.26-6.31a1.45 1.45 0 0 1 .21-.8.93.93 0 0 1 .78.4zm3.48-1.95a3 3 0 0 1 .64 1.21 3.07 3.07 0 0 0 2.22-1.48c.11 0 .17.23.17.57q0 .27-.51.63l-.81 1.07a6.56 6.56 0 0 1 -.79 1.64 1.47 1.47 0 0 1 -1.07.67 1 1 0 0 1 -.68-.43 1.58 1.58 0 0 1 -.49-1 11 11 0 0 1 .38-1.49 10.63 10.63 0 0 0 .24-1.61 8.45 8.45 0 0 1 -.45-.83 5.53 5.53 0 0 1 1.15 1.05zm6.17-.77a5.15 5.15 0 0 1 1.54.77 4.79 4.79 0 0 1 .72.9 1.62 1.62 0 0 1 .24.69 2.42 2.42 0 0 1 -.34.72c-.24.21-.41.32-.52.32a1.25 1.25 0 0 1 -.68-.19 3.33 3.33 0 0 0 -.77-.11 7.09 7.09 0 0 1 -1.09-.08h-.85c.13-.09.28-.17.43-.28a2 2 0 0 0 .68-.26 1.29 1.29 0 0 0 .21-.68c-.21-.39-.4-.71-.57-1a3.41 3.41 0 0 1 -.26-1 6 6 0 0 1 1.26.22z" fill="#009e96"/><path d="m57.19 188.7a3.59 3.59 0 0 1 .7 1.43 1.72 1.72 0 0 1 -.13.68.45.45 0 0 1 -.28.26c-.12.32-.25.77-.4 1.33a11 11 0 0 0 -.28 1.54c.13.32.3.66.49 1 .26 0 .65-.77 1.11-2.34.64-1.58 1.33-3.25 2-5-.11.67-.28 1.46-.51 2.36a26.91 26.91 0 0 0 3.5-1.24c0-.13 0-.26.06-.37a1.59 1.59 0 0 1 -.49.09c-.38 0-1-.47-1.92-1.43a7.27 7.27 0 0 0 1.16-.01c.56-.26 1.09-.51 1.6-.73a3 3 0 0 1 .09-.51 3 3 0 0 1 -1.24.34 5.62 5.62 0 0 1 -1.58-.17c0-.34.3-.75.92-1.18a7.44 7.44 0 0 0 2.17-1c0-.35.11-.69.15-1a1.87 1.87 0 0 0 -.91-1.48v-.15a2.86 2.86 0 0 1 .74-.15c1.2.34 1.82.84 1.9 1.48a4.14 4.14 0 0 0 0 .45.42.42 0 0 0 .15 0c.89 0 1.41.38 1.58 1.05 0 .17-.71.47-2 .85 0 .3-.1.58-.15.84h.54a1.34 1.34 0 0 1 1 1 .42.42 0 0 1 -.3.38 3.46 3.46 0 0 1 -1 .48l-.75.36q-.06.25-.12.45c1.21-.38 2.45-.77 3.71-1.15a1.84 1.84 0 0 1 1.11.27 1.17 1.17 0 0 1 .27.8 1 1 0 0 1 -1.1.64 12.59 12.59 0 0 0 -3.67.7c-.58.18-1.16.39-1.75.63a6.72 6.72 0 0 0 -.09.7 6.28 6.28 0 0 1 1.9-1.09 2.21 2.21 0 0 1 2.35 1.48 9.56 9.56 0 0 1 -.2 1.75 31.8 31.8 0 0 0 .17 3.39v2.72c-.28.83-.68 1.26-1.19 1.26a28 28 0 0 1 -2.58-3.92c-.39.09-.73.17-1 .26.09.6.17 1.13.3 1.65a1.23 1.23 0 0 1 -.34.85s-.07.05-.17.05a5.75 5.75 0 0 1 -1.05-2.34 21.47 21.47 0 0 1 1-5.65 2.08 2.08 0 0 1 .42-.92c-.68.28-1.39.6-2.11.94a2.24 2.24 0 0 1 -1.11-.21.2.2 0 0 1 -.15-.11c-.17.6-.34 1.24-.55 1.89q-.61 5.75-1.26 5.79c-.17 0-.45-.25-.79-.72a4.05 4.05 0 0 1 -.6-1.5 11.71 11.71 0 0 0 -.17-1.61 3.28 3.28 0 0 1 -.19-.94c0-.79 0-1.5.06-2.1 0-.77 0-1.26 0-1.49a5.17 5.17 0 0 0 -.4-1.38 4.07 4.07 0 0 0 -.37-1.6c.32-.11.89.38 1.75 1.35zm1.29-5.34a4.29 4.29 0 0 1 1.35.62 6.76 6.76 0 0 1 .62.8 1.28 1.28 0 0 1 .21.59 1.4 1.4 0 0 1 -.25.56.66.66 0 0 1 -.39.24c-.21 0-.42 0-.62 0a3.6 3.6 0 0 1 -.66 0h-1-.74c.15-.14.32-.26.49-.43a3.32 3.32 0 0 0 .76-.37 1.12 1.12 0 0 0 .15-.53 9.66 9.66 0 0 0 -.7-.88 2.08 2.08 0 0 1 -.32-.88 6.61 6.61 0 0 1 1.1.28zm5.17 12.64a4.85 4.85 0 0 1 -.32-.58c.17.19.32.34.45.47a.81.81 0 0 0 .23-.28 3 3 0 0 1 -.14-1.07 1.62 1.62 0 0 1 .4-1 10.84 10.84 0 0 1 -1.15.22c-.11.94-.22 1.84-.32 2.72a.24.24 0 0 0 0 .1 5.39 5.39 0 0 0 .85-.58zm.26-3.9a1.65 1.65 0 0 1 .7-.13 1.24 1.24 0 0 1 1.09 1.33 1.78 1.78 0 0 0 -.83 1.35.16.16 0 0 0 .17.13.92.92 0 0 0 .79-.35h.23v-1.1c0-1.6-.29-2.42-.89-2.42-.41.26-.88.54-1.39.88a3.1 3.1 0 0 1 -.45 0c0 .41-.08.8-.13 1.16a2 2 0 0 0 .71-.83zm2.09 3.9c-.66.1-1.24.21-1.75.32a3.81 3.81 0 0 0 1.75 1.11c0-.34 0-.83 0-1.43z" fill="#009e96"/><path d="m82.07 186.42c.13.49.26 1 .43 1.46a6.36 6.36 0 0 1 .58 1.48 4.78 4.78 0 0 0 0 .54s0 0 0 0a15.33 15.33 0 0 1 2-1c.09-.41.15-.82.22-1.25a20.43 20.43 0 0 0 .17-2.44 1.84 1.84 0 0 0 -.54-1.47 3.29 3.29 0 0 0 -.21.55 3.11 3.11 0 0 1 -.21-.47 2.06 2.06 0 0 1 .38-.45c.34 0 .86.45 1.54 1.33a3.66 3.66 0 0 1 1 2.1 13.63 13.63 0 0 0 -1 3 24.35 24.35 0 0 0 -.5 2.85c.18.43.39 1 .65 1.65a6.72 6.72 0 0 1 .4 1.58 1.8 1.8 0 0 1 -.77.16 1.59 1.59 0 0 1 -.72-.18c-.09.47-.18.88-.26 1.18-.21.82-.43 1.22-.64 1.22a4.85 4.85 0 0 1 -2.28-1.26l-2.42-1.73a.66.66 0 0 0 -.44.17c-.36 0-.56-.26-.58-.79a7.93 7.93 0 0 1 .28-1.1 5.67 5.67 0 0 1 1-1.28 6 6 0 0 1 1.43-1.27 1.21 1.21 0 0 1 -.08-.25 14.8 14.8 0 0 1 -.34-2.46 5.84 5.84 0 0 1 .47-1.63c.17-.34.34-.56.55-.62a2.58 2.58 0 0 0 -.11.38zm-1.32 7.82c.21.86 1.26 1.37 3.13 1.54.22 0 .39-.17.52-.53a9.91 9.91 0 0 1 -1.88-2.14 5.05 5.05 0 0 1 -.41-.8 4.17 4.17 0 0 0 -1.36 1.93zm4-1.41a25.15 25.15 0 0 1 .13-2.6c0-.17.06-.33.1-.51a20.29 20.29 0 0 1 -1.64 1.5 6.27 6.27 0 0 0 .21.88 2.54 2.54 0 0 0 1.11 1.35 6.17 6.17 0 0 1 .06-.62zm7.62-3.3a3.21 3.21 0 0 0 -1.9 1.07c-.94 0-1.41-.26-1.41-.79a4.8 4.8 0 0 1 3.46-1.89c1.62.05 2.43.79 2.43 2.25a7.19 7.19 0 0 1 -1.28 2.57 3.51 3.51 0 0 1 -.28.37c.32.23.51.36.55.4s.09.19.13.49a4.55 4.55 0 0 1 .07.56c0 .08-.13.26-.39.47a1.08 1.08 0 0 1 -.51.2 7.09 7.09 0 0 1 -.89-.45 4.2 4.2 0 0 0 -1-.14 2.88 2.88 0 0 0 -1 .37l-.45.45c0 .17-.08.34-.13.52a1 1 0 0 1 -.89-.6 5 5 0 0 1 -.71-1.72c-.13-.94-.24-1.79-.34-2.61a7.84 7.84 0 0 1 -.13-1.31h.3a10.06 10.06 0 0 1 1.37 1.48c.25.92.45 1.65.53 2.18a2.47 2.47 0 0 1 .69-.19 3.17 3.17 0 0 0 .83-.17 7.45 7.45 0 0 0 .92-3.51z" fill="#009e96"/><path d="m113.53 183.49a2.08 2.08 0 0 1 .75 1.2 8.75 8.75 0 0 1 -.75 2.7c-.15.68-.3 1.47-.43 2.33.05.07.07.11.09.11a1.9 1.9 0 0 1 .21.79 3.85 3.85 0 0 1 -.64 1.43l-.06.52c-.09 1.5-.2 2.57-.3 3.21a2.4 2.4 0 0 0 .56-.06 20.44 20.44 0 0 1 2.19-.22 3.83 3.83 0 0 1 .92.22c.47.34.73.53.81.6a1.2 1.2 0 0 1 .15.58c0 .34.09.55.09.64s-.15.3-.45.55a1.38 1.38 0 0 1 -.6.22 7.21 7.21 0 0 1 -1.07-.51 5.12 5.12 0 0 0 -1.11-.16 37 37 0 0 0 -4.29.41c-1.45.43-2.24.67-2.41.69a4.27 4.27 0 0 1 -.83-.84 4.54 4.54 0 0 1 -.74-.92 1.34 1.34 0 0 1 .12-.62h.54a.81.81 0 0 0 0 .34c.13 0 .75-.13 1.88-.38a10.11 10.11 0 0 1 2-.34 1.46 1.46 0 0 1 0-.35 4.08 4.08 0 0 1 -.77-.53 10.42 10.42 0 0 1 -1.84-2.06.39.39 0 0 1 -.28.11c-.12 0-.23-.13-.29-.39a3.4 3.4 0 0 1 .02-.76 1.62 1.62 0 0 1 1-1.24 4.87 4.87 0 0 1 2-1.05c.42-.09.81-.15 1.17-.2.28-1.94.43-3.12.43-3.53a3.13 3.13 0 0 1 -.94.77 1.74 1.74 0 0 1 -.94.32 1.29 1.29 0 0 1 -.94-.47 2.58 2.58 0 0 1 -.75-1.28l1.3-.37c.92-.43 1.43-.77 1.54-1a5.69 5.69 0 0 0 .64-.58 8.77 8.77 0 0 0 .81-.54 2 2 0 0 1 1.21.66zm-4 8.26a6.1 6.1 0 0 0 -1.37.88l1.09 1a1.77 1.77 0 0 0 1.13.6 2.52 2.52 0 0 0 .15-.54l.06-.57c.09-.61.17-1.16.26-1.67a9 9 0 0 0 -1.37.3zm6.61-1.85a4.37 4.37 0 0 1 1.34.51 7.12 7.12 0 0 1 .63.68 1.39 1.39 0 0 1 .21.54 2.59 2.59 0 0 1 -.28.62 1 1 0 0 1 -.44.25h-3c.13-.12.28-.25.43-.4a2.32 2.32 0 0 0 .69-.37 1.11 1.11 0 0 0 .16-.57 4.19 4.19 0 0 0 -.55-.71 2.11 2.11 0 0 1 -.26-.73 6.37 6.37 0 0 1 1.02.18z" fill="#009e96"/><path d="m123.76 198a1.21 1.21 0 0 0 -1.14-.08 2.81 2.81 0 0 0 -1.13.77c-.17.21-.27.39-.36.52s0-.19.36-.52a2.31 2.31 0 0 1 .5-.48 2.88 2.88 0 0 0 -.92.5 2.7 2.7 0 0 0 -.24.55 3 3 0 0 0 .44 2.63 4.32 4.32 0 0 0 1.07 1 3.14 3.14 0 0 1 -1.7-3.56v.11a3.08 3.08 0 0 0 .26 2.22l.2.35a4 4 0 0 1 -.2-.35 3.19 3.19 0 0 1 -.44-1 3.66 3.66 0 0 1 0-.74 1.48 1.48 0 0 1 .18-.51c0-.11.07-.21.11-.32a.38.38 0 0 1 0-.1 2.13 2.13 0 0 0 -.54 1.78 3 3 0 0 0 .92 1.95 4.45 4.45 0 0 0 1.24.43c.15.05.25.15.38.13a.23.23 0 0 1 .14-.06c.28.06.57.23.8.12s.66.55.7.42c.07-.44 0-.1.43-.17 0 0 .16-.21.25-.22.34 0 .39-.19.67-.42.37-.4.64-.3.77-.83a4.5 4.5 0 0 0 .26-.75c.28-.49.13-.85.45-1.25-.21-.48-.05-1.17-.37-1.66a10.45 10.45 0 0 1 -.54-1.22c-.09-.12-.19-.17-.23-.26s-.31-.08-.42-.18l.09-.08-.16-.13s0-.06 0-.09.11-.11.05-.2a2.57 2.57 0 0 0 -.61-.4 3 3 0 0 0 -.73.05.61.61 0 0 1 -.07.14l-.2.07c0 .11 0 .24-.07.31 0 .33-.24.63-.18.93 0 .09.27.12.35.29s-.06.15-.09.26c.12 0 .1.14 0 .24v.15c.24.19.33.52.56.51h.23s0 .09.05.1a1.71 1.71 0 0 0 .27-.2c.08.22.07.62.43.43.05.15.24.11.31.29a1.8 1.8 0 0 1 .11.86 1.23 1.23 0 0 1 -.13.49l-.07.16a2 2 0 0 1 -1.35 1 4.2 4.2 0 0 1 -1.7 0 1.91 1.91 0 0 1 -1.46-1.31 2 2 0 0 1 .33-1.81 2 2 0 0 1 1.2-.71 2.73 2.73 0 0 1 .76 0z" fill="#e60012"/><path d="m162.55 183.06a7.84 7.84 0 0 1 2-1.53c.38-.17.81-.37 1.3-.54a1.45 1.45 0 0 1 1.09.39 2.79 2.79 0 0 1 .26 1.34 7.55 7.55 0 0 1 -.86 1.08 1.68 1.68 0 0 0 .32-.09 1.56 1.56 0 0 1 .94.58.86.86 0 0 1 -.15.49c-.76.39-1.51.75-2.2 1.09h.07v.13q.42-.09.81-.21a1.63 1.63 0 0 1 .92.58.94.94 0 0 1 -.13.49c-.68.34-1.32.68-1.94 1-.07.22-.13.43-.19.6.57-.21 1.15-.45 1.7-.7a.71.71 0 0 1 .41-.15 2.89 2.89 0 0 1 .6.68v.52c-.75.34-1.47.64-2.2.89a3.28 3.28 0 0 1 .94 2.27l.81-.1a8.2 8.2 0 0 0 -.9-1.16 7.76 7.76 0 0 1 1.16.84 2.62 2.62 0 0 1 1.38.81 1.54 1.54 0 0 1 -.13.65 13.79 13.79 0 0 0 -2 .19 9.94 9.94 0 0 0 .47 1.37 3.24 3.24 0 0 0 .47-.8.8.8 0 0 1 -.15-.53 2.18 2.18 0 0 1 1.15.34 1.52 1.52 0 0 1 .53 1 .93.93 0 0 1 -.08.28 1.42 1.42 0 0 1 -.24.34 4.7 4.7 0 0 1 -1 .88 4.07 4.07 0 0 0 2 2c0-.26 0-.58 0-.92v-2a16.51 16.51 0 0 1 1.2 4.67 5.59 5.59 0 0 1 -.3.6c-1.28-.15-2.52-1.39-3.72-3.7l-.51.4a3.61 3.61 0 0 1 -1.58.71 3.45 3.45 0 0 1 -.66-.07c-.23 0-.34-.1-.34-.19a5.42 5.42 0 0 0 1.41-.87 5 5 0 0 0 1.09-1.2c-.3-.65-.6-1.33-.88-2.1a20.26 20.26 0 0 0 -2.2.64s0 .09 0 .13c-.06.25-.1.6-.15 1a14.15 14.15 0 0 0 1.81-1.2c-.08.47-.7 1.15-1.83 2l-.08.09c0 .34 0 .73-.07 1.13a5.83 5.83 0 0 0 0 .67 4.91 4.91 0 0 0 .19 1c0 .35.07.58.07.75a.57.57 0 0 1 -.2.39.53.53 0 0 1 -.34.13 5.85 5.85 0 0 1 -2-1.33c-.3-.26-.54-.45-.71-.62a1.06 1.06 0 0 1 -.41.08c-.4 0-.67-.34-.85-.85 0-.37 0-.58.13-.65a9.5 9.5 0 0 0 3.14-1.09l.15-.06c0-.13 0-.28 0-.41s0-.36-.07-.7a30.65 30.65 0 0 0 -3 1.5c-.61 0-1-.48-1.13-1.42a21.74 21.74 0 0 0 4-1.22 3.79 3.79 0 0 0 -.32-.71s-.05 0-.05-.08l-.15.08a4.3 4.3 0 0 1 -1.53.45 2.58 2.58 0 0 1 -.63-.08c-.21-.05-.31-.09-.31-.18a4.59 4.59 0 0 0 1.34-.57 5.19 5.19 0 0 0 1.26-1 5 5 0 0 0 .51-.48c-.23.09-.44.15-.66.22-.55.21-1.09.43-1.6.66a5.46 5.46 0 0 1 -1.64.37c-.43-.13-.71-.54-.81-1.22a4.69 4.69 0 0 1 1.47-.52 29.17 29.17 0 0 0 2.8-.82c.55-.16 1.13-.33 1.7-.55a.93.93 0 0 1 .05-.32l-.88.43a5.37 5.37 0 0 1 -.83.32 2.62 2.62 0 0 1 .61-.58 7.32 7.32 0 0 0 1.16-.6.39.39 0 0 1 0-.15 10.26 10.26 0 0 1 -1.54.24c-.44-.09-.74-.45-.92-1.09a.21.21 0 0 1 .2-.09.81.81 0 0 0 .28 0l1.47-.47c.06 0 .15-.13.26-.22s.38-.17.55-.25a.1.1 0 0 1 0-.07 16.59 16.59 0 0 1 -2.52.43c-.47-.11-.77-.49-.94-1.13a.2.2 0 0 1 .19-.09.87.87 0 0 0 .28 0l1.43-.45a.85.85 0 0 1 -.45-.72 6.7 6.7 0 0 1 -.41-2.46c.56.69.99 1.1 1.31 1.39zm-1.82 14.82a5.78 5.78 0 0 0 1.39.28c0-.13 0-.53 0-1.26a7.79 7.79 0 0 1 -1.39.98zm2.65-5 1.69-.56c-.18-.47-.35-1-.54-1.6a5.45 5.45 0 0 0 -.51-.47 5 5 0 0 1 -.55.21 1.3 1.3 0 0 1 .36.79.25.25 0 0 1 -.08.15 1 1 0 0 1 -.24.22 4.39 4.39 0 0 1 -1 .6c.49.18.79.4.87.61zm.56-8.39a.27.27 0 0 1 .1-.09 3.36 3.36 0 0 0 1.37-2.52 3.18 3.18 0 0 0 -1 .68c-.4.43-.75.79-1 1.14a11.74 11.74 0 0 1 -.6 1.15zm4.9 5.09a3.66 3.66 0 0 1 1 .37 1.53 1.53 0 0 1 .36 1c0 .09-.36.15-1.07.22s-1.1.19-1.56.23a3.73 3.73 0 0 0 .6-.75 3.75 3.75 0 0 1 -.42-.62 1.16 1.16 0 0 1 -.26-.59 12.4 12.4 0 0 1 1.35.09z" fill="#009e96"/><path d="m193.31 187.9a2 2 0 0 1 .87 1.49 18.34 18.34 0 0 1 -1.32 3.25c-.45.75-.77 1.11-1 1.11a.79.79 0 0 1 -.53-.28c-.62.32-1.22.62-1.79.88v.08l1.53-.36a1.76 1.76 0 0 1 1 .67 1.14 1.14 0 0 1 -.15.56c-.9.55-1.75 1.11-2.58 1.62a1.33 1.33 0 0 0 0 .26 13.13 13.13 0 0 0 1.34-.17 14.42 14.42 0 0 1 2.29-.26 2.55 2.55 0 0 1 .78.19l.71.51a1.09 1.09 0 0 1 .13.5c0 .28.07.45.07.53s-.14.24-.39.5a1.23 1.23 0 0 1 -.52.19 5.47 5.47 0 0 1 -.91-.45 3.76 3.76 0 0 0 -1-.13 33.85 33.85 0 0 0 -4.73.47c-1.58.47-2.48.73-2.65.77a4.14 4.14 0 0 1 -.66-.66c-.38-.45-.6-.71-.62-.75a.84.84 0 0 1 .11-.51h.42a.47.47 0 0 0 .05.28 18.26 18.26 0 0 0 1.94-.48 12.19 12.19 0 0 1 2.26-.43l.11-.06c0-.26 0-.51 0-.75a14.78 14.78 0 0 1 -1.47.19 1.5 1.5 0 0 1 -1.05-1.26c0-.06.09-.1.22-.1a1.07 1.07 0 0 0 .29 0c.54-.13 1-.28 1.52-.41a.67.67 0 0 1 .15-.13c.15-.06.28-.13.4-.19s0-.3 0-.45a15.77 15.77 0 0 1 -2 .23 1.39 1.39 0 0 1 -1-1.2.23.23 0 0 1 .21-.1 1.19 1.19 0 0 0 .3.06 4.08 4.08 0 0 1 -.44-1.16c-.14-.61-.26-1.2-.35-1.75a3.45 3.45 0 0 1 -.13-.85h.3a7 7 0 0 1 1.16 1 8.28 8.28 0 0 1 .53 2v.53a8.45 8.45 0 0 0 .93-.21 1 1 0 0 0 .24-.19c.12-.09.25-.15.34-.22v-.26a3.7 3.7 0 0 1 0-.45 2.94 2.94 0 0 1 -.68.1c-.47-.1-.81-.49-1-1.17 0-.07.08-.11.19-.11a1.11 1.11 0 0 0 .3.06l1.21-.4c0-.26 0-.5 0-.71-.17.09-.31.19-.47.28-1 0-1.49-.22-1.49-.64a6 6 0 0 1 2-1.12c0-.28 0-.53 0-.77-.34.09-.7.15-1.07.24a36.46 36.46 0 0 1 -5 2.07 1.52 1.52 0 0 1 -.77-.34 2.79 2.79 0 0 1 -.66-.56c-.13 0-.21-.21-.25-.49a.76.76 0 0 1 -.09-.38.62.62 0 0 0 .34.17c2.92-.79 5.44-1.44 7.53-2a1.54 1.54 0 0 0 -.34-.81 5.43 5.43 0 0 1 -1.09.4c-.25 0-.62 0-1.08-.06a1.11 1.11 0 0 1 -.8-.26 4.67 4.67 0 0 0 1.84-.94c.55-.43 1.07-.81 1.49-1.17a5 5 0 0 1 .79-.69 2.3 2.3 0 0 0 .32-.79 7.14 7.14 0 0 1 1.52.36c.55.36.85.73.85 1.09q0 .78-.45.9a8.15 8.15 0 0 1 -.93.06l-1.28.54a3 3 0 0 1 .33.28 2.54 2.54 0 0 1 .54.71 43 43 0 0 1 4.44-.75c.59 0 1 .47 1.22 1.37a.89.89 0 0 1 -.22.64c-.44 0-1.82 0-4.07-.11a8.18 8.18 0 0 0 -1.33.13l-.06.75c.34 0 .72-.06 1.11-.09a3.67 3.67 0 0 1 2.2.56zm-3.31 1.61a5.9 5.9 0 0 0 .6-.17 1.76 1.76 0 0 1 1 .62 1 1 0 0 1 -.15.51c-.58.41-1.13.8-1.67 1.14v.64l1.6-.34a.28.28 0 0 0 .13 0 10.47 10.47 0 0 1 .36-1.16 7.15 7.15 0 0 0 .38-2.18 4.9 4.9 0 0 0 0-.51 13.69 13.69 0 0 0 -2.09.49c-.16.34-.16.64-.16.96z" fill="#009e96"/><path d="m208.57 186.51c.13.5.25 1 .42 1.46a5.74 5.74 0 0 1 .58 1.48 4.52 4.52 0 0 0 0 .53 16.08 16.08 0 0 1 2-1c.09-.41.15-.82.21-1.24a18.81 18.81 0 0 0 .17-2.45 1.9 1.9 0 0 0 -.53-1.48 2.38 2.38 0 0 0 -.21.56 3.23 3.23 0 0 1 -.22-.47 2.11 2.11 0 0 1 .39-.45c.34 0 .85.45 1.53 1.33a3.66 3.66 0 0 1 1 2.1 14.8 14.8 0 0 0 -1 3 27.17 27.17 0 0 0 -.49 2.85c.17.43.38 1 .64 1.65a6.79 6.79 0 0 1 .41 1.58 1.83 1.83 0 0 1 -.77.16 1.63 1.63 0 0 1 -.73-.18c-.08.47-.17.88-.25 1.18-.22.81-.43 1.22-.64 1.22a5 5 0 0 1 -2.29-1.22c-1.09-.77-1.9-1.35-2.41-1.73a.68.68 0 0 0 -.45.17c-.36 0-.55-.26-.57-.8a7.19 7.19 0 0 1 .27-1.08 5.33 5.33 0 0 1 1-1.29 6.35 6.35 0 0 1 1.44-1.29.8.8 0 0 1 -.09-.26 15.85 15.85 0 0 1 -.34-2.46 6.65 6.65 0 0 1 .47-1.62c.17-.35.34-.56.55-.62a2.35 2.35 0 0 0 -.09.37zm-1.32 7.82c.21.86 1.25 1.37 3.13 1.54.21 0 .39-.17.51-.53a10 10 0 0 1 -1.88-2.15 4.51 4.51 0 0 1 -.4-.79 4.09 4.09 0 0 0 -1.36 1.93zm4-1.42a24.76 24.76 0 0 1 .13-2.58c0-.18.06-.35.11-.52a22.12 22.12 0 0 1 -1.64 1.5 5.13 5.13 0 0 0 .21.88 2.58 2.58 0 0 0 1.11 1.35c-.02-.22 0-.41.04-.63zm7.62-3.29a3.21 3.21 0 0 0 -1.9 1.07c-.94 0-1.41-.26-1.41-.79a4.82 4.82 0 0 1 3.44-1.9c1.62.05 2.44.79 2.44 2.25a7.31 7.31 0 0 1 -1.29 2.57 2.57 2.57 0 0 1 -.27.36c.32.24.51.37.55.41a1.12 1.12 0 0 1 .13.49c0 .3.06.48.06.56s-.12.26-.38.47a1 1 0 0 1 -.51.19 6.77 6.77 0 0 1 -.9-.45 4.58 4.58 0 0 0 -1-.12 2.62 2.62 0 0 0 -1.05.36l-.45.45-.12.52a1 1 0 0 1 -.9-.6 5 5 0 0 1 -.7-1.72c-.13-.94-.24-1.8-.35-2.61a7.78 7.78 0 0 1 -.12-1.31h.36a10 10 0 0 1 1.36 1.48c.26.92.45 1.65.54 2.18a2.33 2.33 0 0 1 .68-.19 3.17 3.17 0 0 0 .83-.17 7.48 7.48 0 0 0 .92-3.5z" fill="#009e96"/><path d="m232.9 192a12.42 12.42 0 0 0 .11 1.41 5.94 5.94 0 0 0 -.09.9 4.21 4.21 0 0 0 -.06.49 3.58 3.58 0 0 1 1.15-.45c.62-.15 1.36-.28 2.24-.41-.26-.24-.47-.45-.66-.66a3.7 3.7 0 0 1 -.09-.75 3.66 3.66 0 0 0 1 .81c.34 0 .53-1.8.57-5.44a25.85 25.85 0 0 0 .24-3.06 5.49 5.49 0 0 1 -1.05-1.52c.39.09.79.17 1.2.28a5.09 5.09 0 0 1 1.62.79 1.73 1.73 0 0 1 .64 1.33 6.75 6.75 0 0 1 -.81 2 49.21 49.21 0 0 0 -.56 6c1-.09 2-.13 3-.13a3.35 3.35 0 0 0 .71-.32.66.66 0 0 0 .19-.22 6.22 6.22 0 0 0 .17-1.43 2 2 0 0 0 -1-1.65 2.61 2.61 0 0 1 1.11-.21 2.19 2.19 0 0 1 2 2.12 9.27 9.27 0 0 1 -1.24 3.4 2 2 0 0 1 -2 1 2.77 2.77 0 0 1 .24-1.13c-2 .13-3.67.32-5.17.55a11.69 11.69 0 0 0 -2.17.67 6.93 6.93 0 0 0 -1 .75 2.22 2.22 0 0 1 -.75.25 1.46 1.46 0 0 1 -1-.53 9 9 0 0 1 -.6-1.5c.11 0 .2-.23.26-.71s.11-1.07.15-1.88a12 12 0 0 1 .21-1.65c.22-.45.41-.68.56-.68a5.38 5.38 0 0 1 1 .6 2.46 2.46 0 0 1 .86.94l-1.07-.32z" fill="#009e96"/><path d="m250.46 194.65a1.24 1.24 0 0 0 -1.14-.09 2.93 2.93 0 0 0 -1.13.78c-.17.21-.27.39-.36.52s0-.19.36-.52a2.92 2.92 0 0 1 .5-.49 3 3 0 0 0 -.92.51 2.7 2.7 0 0 0 -.24.55 3 3 0 0 0 .44 2.63 4.1 4.1 0 0 0 1.07 1 3.12 3.12 0 0 1 -1.7-3.55l-.05.11a3.09 3.09 0 0 0 .26 2.22l.21.35a2.5 2.5 0 0 1 -.21-.35 3.43 3.43 0 0 1 -.44-1 3.66 3.66 0 0 1 0-.74 1.48 1.48 0 0 1 .18-.51c0-.11.07-.21.11-.32a.34.34 0 0 1 0-.1 2.1 2.1 0 0 0 -.54 1.78 3 3 0 0 0 .92 1.94 3.86 3.86 0 0 0 1.25.43c.14.05.24.16.37.14s.08-.05.14-.06c.28.06.57.23.8.12s.66.55.7.42c.07-.44 0-.11.43-.17.05 0 .16-.21.25-.23.34 0 .39-.19.68-.41.36-.4.63-.3.76-.83a4.5 4.5 0 0 0 .26-.75c.28-.5.13-.85.45-1.25-.21-.48 0-1.17-.37-1.66a10.45 10.45 0 0 1 -.54-1.22c-.09-.12-.19-.17-.23-.27s-.3-.08-.42-.17l.09-.08-.16-.13s0-.06 0-.09.11-.11 0-.2a2.39 2.39 0 0 0 -.61-.4 3 3 0 0 0 -.73 0 .37.37 0 0 1 -.07.14l-.2.07c0 .11 0 .24-.07.31 0 .32-.23.63-.18.93 0 .09.27.12.35.29s-.05.15-.09.26c.12 0 .11.14.05.24l-.05.15c.24.19.33.52.56.51h.23s0 .08 0 .1a2.69 2.69 0 0 0 .27-.2c.08.22.07.61.43.43 0 .15.24.11.31.29a1.79 1.79 0 0 1 .11.86 1.41 1.41 0 0 1 -.12.49l-.08.16a2 2 0 0 1 -1.35 1 4.2 4.2 0 0 1 -1.7 0 1.91 1.91 0 0 1 -1.46-1.31 2 2 0 0 1 1.53-2.53 2.61 2.61 0 0 1 .76 0z" fill="#e60012"/><path d="m283.68 200.42h-283.68v-19.62h283.68zm-283.43-.25h283.18v-19.12h-283.18z" fill="#00b2e1"/><path d="m283.68 214.66h-29.92v-49.11h29.92zm-29.68-.25h29.42v-48.61h-29.42z" fill="#00b2e1"/><path d="m29.92 214.66h-29.92v-49.11h29.92zm-29.67-.25h29.42v-48.61h-29.42z" fill="#00b2e1"/><g fill="#208ec5"><path d="m210.52 91.06a3.52 3.52 0 0 1 .33 1.66 3.93 3.93 0 0 1 -.3 1.65 1.51 1.51 0 0 1 -2.72.17 3.45 3.45 0 0 1 -.36-1.71 4.26 4.26 0 0 1 .22-1.43 1.47 1.47 0 0 1 1.46-1.12 1.44 1.44 0 0 1 1.37.78zm-.62 3.26a3 3 0 0 0 .29-1.57 3.85 3.85 0 0 0 -.21-1.38.77.77 0 0 0 -.79-.53.83.83 0 0 0 -.8.51 3.47 3.47 0 0 0 -.25 1.5 3.69 3.69 0 0 0 .16 1.21.87.87 0 0 0 1.6.26z"/><path d="m211.75 94.43h.71v.75h-.71z"/><path d="m214 93.93a.85.85 0 0 0 .49.73 1.12 1.12 0 0 0 .5.1.94.94 0 0 0 .81-.35 1.23 1.23 0 0 0 .27-.77 1 1 0 0 0 -.32-.79 1.08 1.08 0 0 0 -.75-.29 1.13 1.13 0 0 0 -1 .44h-.53l.37-2.64h2.54v.64h-2.08l-.21 1.36a1.71 1.71 0 0 1 .33-.2 1.73 1.73 0 0 1 .63-.11 1.61 1.61 0 0 1 1.14.44 1.42 1.42 0 0 1 .47 1.1 1.86 1.86 0 0 1 -.43 1.22 1.67 1.67 0 0 1 -1.37.53 1.72 1.72 0 0 1 -1.06-.34 1.32 1.32 0 0 1 -.51-1z"/><path d="m217.13 90h1.14l1.2 1.84 1.22-1.84h1.07l-1.76 2.5 1.85 2.68h-1.13l-1.3-2-1.26 2h-1.16l1.84-2.68z"/><path d="m290.65 171.21a3.46 3.46 0 0 1 .33 1.66 4.17 4.17 0 0 1 -.29 1.65 1.46 1.46 0 0 1 -1.41.93 1.39 1.39 0 0 1 -1.31-.76 3.52 3.52 0 0 1 -.36-1.72 4.35 4.35 0 0 1 .21-1.43 1.48 1.48 0 0 1 1.46-1.11 1.44 1.44 0 0 1 1.37.78zm-.61 3.26a3.07 3.07 0 0 0 .28-1.58 3.79 3.79 0 0 0 -.21-1.37.77.77 0 0 0 -.79-.54.83.83 0 0 0 -.8.51 3.49 3.49 0 0 0 -.25 1.51 3.59 3.59 0 0 0 .16 1.2.88.88 0 0 0 .84.69.89.89 0 0 0 .73-.42z"/><path d="m291.88 174.58h.71v.74h-.71z"/><path d="m296.89 170.51v.54a5.06 5.06 0 0 0 -.63.79 8.54 8.54 0 0 0 -.69 1.22 8.08 8.08 0 0 0 -.45 1.17c-.07.23-.16.59-.26 1.09h-.68a8.3 8.3 0 0 1 1-2.79 8.82 8.82 0 0 1 1-1.4h-2.71v-.62z"/><path d="m298 174.07a.86.86 0 0 0 .49.73 1.19 1.19 0 0 0 .51.1 1 1 0 0 0 .81-.34 1.33 1.33 0 0 0 .26-.78 1 1 0 0 0 -.31-.79 1.08 1.08 0 0 0 -.75-.28 1.18 1.18 0 0 0 -.55.12 1.26 1.26 0 0 0 -.39.34h-.53l.37-2.63h2.55v.59h-2.09l-.2 1.36a1.58 1.58 0 0 1 .32-.19 1.54 1.54 0 0 1 .63-.11 1.6 1.6 0 0 1 1.14.43 1.42 1.42 0 0 1 .47 1.1 1.86 1.86 0 0 1 -.43 1.22 1.63 1.63 0 0 1 -1.37.53 1.75 1.75 0 0 1 -1.05-.33 1.35 1.35 0 0 1 -.52-1z"/><path d="m301.16 170.09h1.14l1.2 1.84 1.21-1.84h1.07l-1.78 2.55 1.84 2.68h-1.12l-1.3-2-1.26 2h-1.12l1.84-2.68z"/><path d="m291.56 321.67a3.52 3.52 0 0 1 .33 1.66 3.93 3.93 0 0 1 -.3 1.65 1.46 1.46 0 0 1 -1.41.94 1.41 1.41 0 0 1 -1.31-.77 3.48 3.48 0 0 1 -.36-1.71 4.38 4.38 0 0 1 .21-1.44 1.48 1.48 0 0 1 1.46-1.11 1.45 1.45 0 0 1 1.38.78zm-.62 3.26a3 3 0 0 0 .28-1.57 4.11 4.11 0 0 0 -.22-1.36.79.79 0 0 0 -.8-.54.84.84 0 0 0 -.8.52 3.63 3.63 0 0 0 -.25 1.5 3.86 3.86 0 0 0 .16 1.2.89.89 0 0 0 .85.7.87.87 0 0 0 .78-.45z"/><path d="m292.78 325h.72v.75h-.72z"/><path d="m297.79 321v.54a5.26 5.26 0 0 0 -.63.8 7.57 7.57 0 0 0 -.69 1.22 7.66 7.66 0 0 0 -.45 1.17c-.07.22-.15.58-.26 1.09h-.68a8.39 8.39 0 0 1 1-2.79 8.48 8.48 0 0 1 1-1.41h-2.71v-.62z"/><path d="m298.89 324.54a.86.86 0 0 0 .48.73 1.36 1.36 0 0 0 .51.1 1 1 0 0 0 .81-.35 1.22 1.22 0 0 0 .26-.77 1 1 0 0 0 -.31-.8 1.16 1.16 0 0 0 -1.29-.15 1 1 0 0 0 -.39.34h-.54l.38-2.64h2.54v.6h-2.08l-.21 1.36a1.66 1.66 0 0 1 .32-.2 1.83 1.83 0 0 1 .64-.11 1.57 1.57 0 0 1 1.14.44 1.41 1.41 0 0 1 .47 1.09 1.92 1.92 0 0 1 -.43 1.23 1.67 1.67 0 0 1 -1.37.53 1.72 1.72 0 0 1 -1.06-.34 1.3 1.3 0 0 1 -.51-1z"/><path d="m302.06 320.56h1.14l1.2 1.84 1.22-1.84h1.07l-1.77 2.52 1.84 2.69h-1.12l-1.3-2-1.26 2h-1.08l1.84-2.69z"/><path d="m291.56 356.14a3.52 3.52 0 0 1 .33 1.66 3.93 3.93 0 0 1 -.3 1.65 1.46 1.46 0 0 1 -1.41.94 1.41 1.41 0 0 1 -1.31-.77 3.48 3.48 0 0 1 -.36-1.71 4.38 4.38 0 0 1 .21-1.44 1.48 1.48 0 0 1 1.46-1.11 1.45 1.45 0 0 1 1.38.78zm-.62 3.26a3.07 3.07 0 0 0 .28-1.58 4.09 4.09 0 0 0 -.2-1.37.79.79 0 0 0 -.8-.54.84.84 0 0 0 -.8.51 3.72 3.72 0 0 0 -.25 1.51 3.86 3.86 0 0 0 .16 1.2.89.89 0 0 0 .85.7.87.87 0 0 0 .76-.43z"/><path d="m292.78 359.51h.72v.74h-.72z"/><path d="m297.79 355.44v.56a5.61 5.61 0 0 0 -.63.79 8.13 8.13 0 0 0 -.69 1.23 7.58 7.58 0 0 0 -.45 1.16c-.07.23-.15.59-.26 1.09h-.68a9.3 9.3 0 0 1 2-4.19h-2.71v-.62z"/><path d="m298.89 359a.83.83 0 0 0 .48.72 1.19 1.19 0 0 0 .51.11 1 1 0 0 0 .81-.35 1.22 1.22 0 0 0 .26-.77 1 1 0 0 0 -.31-.8 1.12 1.12 0 0 0 -.75-.28 1 1 0 0 0 -.54.13 1 1 0 0 0 -.39.34h-.54l.38-2.64h2.54v.6h-2.08l-.21 1.36a1.66 1.66 0 0 1 .32-.2 1.83 1.83 0 0 1 .64-.11 1.6 1.6 0 0 1 1.14.43 1.45 1.45 0 0 1 .47 1.1 1.94 1.94 0 0 1 -.43 1.23 1.67 1.67 0 0 1 -1.37.53 1.72 1.72 0 0 1 -1.06-.34 1.3 1.3 0 0 1 -.51-1z"/><path d="m302.06 355h1.14l1.2 1.85 1.22-1.85h1.07l-1.77 2.52 1.84 2.68h-1.12l-1.3-2-1.26 2h-1.08l1.84-2.68z"/><path d="m290.65 205.48a3.49 3.49 0 0 1 .33 1.66 4.13 4.13 0 0 1 -.29 1.65 1.47 1.47 0 0 1 -1.41.94 1.4 1.4 0 0 1 -1.28-.73 3.5 3.5 0 0 1 -.36-1.71 4.38 4.38 0 0 1 .21-1.44 1.48 1.48 0 0 1 1.46-1.11 1.44 1.44 0 0 1 1.34.74zm-.61 3.26a3.07 3.07 0 0 0 .28-1.58 3.83 3.83 0 0 0 -.21-1.37.77.77 0 0 0 -.79-.54.83.83 0 0 0 -.8.51 3.52 3.52 0 0 0 -.25 1.51 3.59 3.59 0 0 0 .16 1.2.87.87 0 0 0 .84.7.9.9 0 0 0 .73-.43z"/><path d="m291.88 208.85h.71v.74h-.71z"/><path d="m296.89 204.78v.54a5.61 5.61 0 0 0 -.63.79 8.13 8.13 0 0 0 -.69 1.23 7.58 7.58 0 0 0 -.45 1.16c-.07.23-.16.59-.26 1.09h-.68a8.3 8.3 0 0 1 1-2.79 8.82 8.82 0 0 1 1-1.4h-2.71v-.62z"/><path d="m298 208.35a.84.84 0 0 0 .49.72 1.19 1.19 0 0 0 .51.11 1 1 0 0 0 .81-.35 1.28 1.28 0 0 0 .26-.77 1 1 0 0 0 -.31-.8 1.12 1.12 0 0 0 -.76-.26 1.07 1.07 0 0 0 -.55.13 1.14 1.14 0 0 0 -.39.34h-.53l.37-2.64h2.55v.6h-2.09l-.2 1.36a1.28 1.28 0 0 1 .32-.2 1.73 1.73 0 0 1 .63-.11 1.6 1.6 0 0 1 1.14.43 1.42 1.42 0 0 1 .47 1.1 1.88 1.88 0 0 1 -.43 1.23 1.66 1.66 0 0 1 -1.37.53 1.76 1.76 0 0 1 -1.05-.34 1.35 1.35 0 0 1 -.52-1z"/><path d="m301.16 204.36h1.14l1.2 1.84 1.21-1.84h1.07l-1.78 2.55 1.84 2.68h-1.12l-1.3-2-1.26 2h-1.12l1.84-2.68z"/></g><path d="m0 80.43h.25v7.24h-.25z" fill="#00b2e1"/><path d="m328.17 80.43h.25v7.24h-.25z" fill="#00b2e1"/><path d="m317.99 80.43h.25v7.24h-.25z" fill="#00b2e1"/><path d="m319.3 91.06a3.52 3.52 0 0 1 .33 1.66 4.1 4.1 0 0 1 -.29 1.65 1.46 1.46 0 0 1 -1.41.94 1.43 1.43 0 0 1 -1.32-.77 3.46 3.46 0 0 1 -.35-1.71 4.27 4.27 0 0 1 .21-1.43 1.48 1.48 0 0 1 1.46-1.12 1.44 1.44 0 0 1 1.37.78zm-.61 3.26a3.13 3.13 0 0 0 .28-1.57 3.85 3.85 0 0 0 -.21-1.38.77.77 0 0 0 -.79-.53.83.83 0 0 0 -.8.51 3.47 3.47 0 0 0 -.25 1.5 3.69 3.69 0 0 0 .16 1.21.87.87 0 0 0 .84.69.88.88 0 0 0 .77-.43z" fill="#208ec5"/><path d="m320.53 94.43h.71v.75h-.71z" fill="#208ec5"/><path d="m324.2 95.18v-1.18h-2.15v-.6l2.24-3.11h.52v3.17h.72v.54h-.72v1.2zm0-1.74v-2.22l-1.57 2.22z" fill="#208ec5"/><path d="m325.91 90h1.14l1.2 1.84 1.22-1.84h1.07l-1.76 2.53 1.84 2.68h-1.13l-1.3-2-1.25 2h-1.12l1.84-2.68z" fill="#208ec5"/><path d="m243.71 80.43h.25v7.24h-.25z" fill="#00b2e1"/><path d="m257.72 80.43h.25v7.24h-.25z" fill="#00b2e1"/><path d="m246.42 91.06a3.52 3.52 0 0 1 .33 1.66 3.93 3.93 0 0 1 -.3 1.65 1.51 1.51 0 0 1 -2.72.17 3.45 3.45 0 0 1 -.36-1.71 4.26 4.26 0 0 1 .22-1.43 1.47 1.47 0 0 1 1.46-1.12 1.44 1.44 0 0 1 1.37.78zm-.62 3.26a3 3 0 0 0 .29-1.57 3.85 3.85 0 0 0 -.21-1.38.79.79 0 0 0 -.8-.53.83.83 0 0 0 -.79.51 3.47 3.47 0 0 0 -.25 1.5 3.69 3.69 0 0 0 .16 1.21.87.87 0 0 0 1.6.26z" fill="#208ec5"/><path d="m247.65 94.43h.71v.75h-.71z" fill="#208ec5"/><path d="m249.86 93.93a.85.85 0 0 0 .49.73 1.12 1.12 0 0 0 .5.1.94.94 0 0 0 .81-.35 1.23 1.23 0 0 0 .27-.77 1 1 0 0 0 -.32-.79 1.08 1.08 0 0 0 -.75-.29 1.13 1.13 0 0 0 -.93.47h-.53l.37-2.64h2.54v.61h-2.08l-.23 1.32a1.71 1.71 0 0 1 .33-.2 1.73 1.73 0 0 1 .67-.12 1.61 1.61 0 0 1 1.14.44 1.42 1.42 0 0 1 .47 1.1 1.86 1.86 0 0 1 -.43 1.22 1.67 1.67 0 0 1 -1.37.53 1.72 1.72 0 0 1 -1.06-.34 1.32 1.32 0 0 1 -.51-1z" fill="#208ec5"/><path d="m253 90h1.14l1.2 1.84 1.25-1.84h1.07l-1.77 2.53 1.84 2.68h-1.12l-1.3-2-1.26 2h-1.11l1.84-2.68z" fill="#208ec5"/><path d="m281.03 80.43h.25v7.24h-.25z" fill="#00b2e1"/><path d="m295.04 80.43h.25v7.24h-.25z" fill="#00b2e1"/><path d="m283.74 91.06a3.52 3.52 0 0 1 .33 1.66 3.93 3.93 0 0 1 -.3 1.65 1.45 1.45 0 0 1 -1.41.94 1.42 1.42 0 0 1 -1.31-.77 3.45 3.45 0 0 1 -.36-1.71 4 4 0 0 1 .22-1.43 1.47 1.47 0 0 1 1.46-1.12 1.44 1.44 0 0 1 1.37.78zm-.62 3.26a3 3 0 0 0 .29-1.57 3.85 3.85 0 0 0 -.21-1.38.79.79 0 0 0 -.8-.53.82.82 0 0 0 -.79.51 3.45 3.45 0 0 0 -.26 1.5 3.66 3.66 0 0 0 .17 1.21.87.87 0 0 0 1.6.26z" fill="#208ec5"/><path d="m285 94.43h.72v.75h-.72z" fill="#208ec5"/><path d="m287.18 93.93a.86.86 0 0 0 .48.73 1.19 1.19 0 0 0 .51.1 1 1 0 0 0 .81-.35 1.22 1.22 0 0 0 .26-.77 1 1 0 0 0 -.31-.79 1.08 1.08 0 0 0 -.75-.29 1.13 1.13 0 0 0 -.54.13 1 1 0 0 0 -.39.34h-.54l.38-2.64h2.54v.61h-2.08l-.21 1.36a1.66 1.66 0 0 1 .32-.2 1.83 1.83 0 0 1 .64-.11 1.61 1.61 0 0 1 1.14.44 1.42 1.42 0 0 1 .47 1.1 1.91 1.91 0 0 1 -.43 1.22 1.67 1.67 0 0 1 -1.37.53 1.72 1.72 0 0 1 -1.06-.34 1.3 1.3 0 0 1 -.51-1z" fill="#208ec5"/><path d="m290.35 90h1.14l1.2 1.84 1.22-1.84h1.09l-1.77 2.53 1.84 2.68h-1.12l-1.3-2-1.26 2h-1.11l1.84-2.68z" fill="#208ec5"/></svg>