<svg enable-background="new 0 0 773.2 493.5" viewBox="0 0 773.2 493.5" xmlns="http://www.w3.org/2000/svg"><g fill="#595757"><path d="m5.5 13.2c.1.1.2.3.2.4 0 .2-.1.3-.2.4s-.3.2-.4.2c-.2 0-.3-.1-.4-.2s-.2-.3-.2-.4c0-.2.1-.3.2-.4s.3-.2.4-.2c.1.1.3.1.4.2z"/><path d="m10.9 17.5h-.6c0-.1 0-.1 0-.2s0-.1 0-.2 0-.2 0-.3v-2.2c0-.1 0-.1 0-.2v-.1l.4.1h.3.1s0 .1-.1.1c0 0-.1.1-.1.1v.2 1.5h2.4v-3h-.9-.8-.6-.4c0-.1 0-.2.1-.4 0-.1 0-.3 0-.6v-.9c0-.2 0-.4 0-.6 0-.1 0-.2-.1-.3l.4.1h.3c.1 0 .1 0 .1.1s0 .1-.1.1-.1.2-.1.4v1.8h2v-1.8c0-.4 0-.7 0-.9s0-.3-.1-.4l.4.1h.3c.1 0 .2 0 .2.1s0 .1-.1.2c-.1 0-.1.1-.1.2v.2 2.3h2v-1.5c0-.2 0-.3 0-.5 0-.1 0-.3 0-.4h.4.3c.1 0 .1 0 .1.1s0 .1-.1.1c0 0-.1.1-.1.1v.2 2 .4h-.4-.6-.7-.8v3h2.3v-1.2c0-.2 0-.3 0-.5s0-.3 0-.4l.3.1h.3c.1 0 .1 0 .1.1s0 .1-.1.1c0 0-.1.1-.1.1v.2 2.1.3s0 .2 0 .3h-.6v-.6h-5.5v.4z"/><path d="m21.9 12v-1.4c0-.1 0-.2 0-.3s0-.2 0-.2v-.3l.4.1h.3c.1 0 .2 0 .1.1s-.1.1-.1.2-.1.3 0 .4v1.4h1.4.6.6v.6h-.6-.6-1.5v1.7h1.5.5.4v.6h-.4-1.9v2.1h2 .8.6v.6h-.7-.8-2.2-2.2c-.6 0-1.1 0-1.6.1v-.6c.4 0 .9 0 1.5.1h2.1v-2.5h-2.1-.4v-.7h.4.5 1.4v-1.6h-2c-.1.2-.1.3-.2.4-.1.2-.2.3-.2.5-.1.2-.2.3-.3.5l-.2.4c-.1-.1-.2-.1-.2-.2-.1-.1-.2-.1-.3-.1.2-.2.3-.4.5-.6s.3-.5.4-.7c.1-.3.3-.6.4-.9s.2-.7.3-1.2c.1.1.2.1.3.1s.2.1.3.1.1.1.1.1 0 .1-.1.1-.1.1-.2.3-.2.5-.3.8z"/><path d="m27.8 12.3h-.4-.3-.1-.2v-.6h.2.2.3.4c0-.3 0-.6 0-.8s0-.4 0-.6 0-.3 0-.4 0-.2 0-.2h.3.3.1s0 .1-.1.1-.1.1-.1.2v1.6h.3.3.2.2v.6h-.2-.2-.5v2.9l.6-.2.6-.3v.3.2l-.8.3-.7.2-.6.2-.7.3c0-.1-.1-.2-.1-.3s-.1-.2-.1-.3c.3 0 .5-.1.7-.1l.6-.2zm4.4-.2.5-.2.5-.1.4-.1.3-.1-.1 2.8c0 .1 0 .3-.1.4 0 .1-.1.2-.2.3s-.2.1-.3.2c-.2.1-.4.1-.5.1 0-.1 0-.2-.1-.3s-.1-.2-.2-.3h.4c.1 0 .2 0 .3-.1.1 0 .1-.1.1-.2s0-.2 0-.3v-2.1l-1.2.3v2.1.5s0 .4 0 .6h-.6c0-.2 0-.4 0-.6s0-.4 0-.5v-1.9l-1.1.3v3 .4c0 .1 0 .2.1.2.1.1.2.1.3.1.2 0 .3.1.5.1h1.2.6c.1 0 .2 0 .4-.1.1 0 .2-.1.3-.1.1-.1.1-.2.2-.3.1-.2.1-.3.1-.5 0 .1.1.2.2.2.1.1.2.1.3.1-.1.2-.1.4-.2.5s-.1.2-.2.3-.2.2-.4.2c-.1 0-.3.1-.5.1h-.7-.5-.8c-.2 0-.5 0-.7-.1-.2 0-.3-.1-.4-.2s-.2-.2-.2-.4 0-.4 0-.6v-2.8l-.5.1-.5.1-.1-.6h.2.2l.3-.1.4-.1v-.3c0-.3 0-.6 0-.8s0-.4 0-.6 0-.3 0-.4 0-.2 0-.2h.4.3c.1 0 .1 0 .2.1s0 .1-.1.1-.1.1-.1.1v.2 1.6l.5-.1.6-.1v-1.4c0-.2 0-.4 0-.6s0-.3-.1-.5h.4.3c.1 0 .1 0 .1.1s0 .1-.1.1-.1.2-.1.5z"/><path d="m39.3 12.8h-.8v-.8h.8zm0 3.4h-.8v-.8h.8z"/><path d="m47.2 11h-1.5l-1.3.1v-.5c.4 0 .9.1 1.4.1h3.5.7.6v.5l-.6-.2h-.6-1.6v2.2h1.5.5.4v.5h-.4-.5-1.5v2.9h2.1.8.8v.4h-.8-3-2.1c-.6 0-1.2 0-1.7 0v-.6c.5 0 1 0 1.6.1h1.8v-2.9h-1.5-.5-.4v-.5h.4.5 1.4zm2.9 5.1c-.2-.3-.4-.5-.7-.8s-.6-.5-.9-.7l.4-.4c.3.2.6.4.8.7s.5.5.8.7z"/><path d="m55.7 16.2v-5.3c0-.2 0-.3 0-.4s0-.2 0-.3 0-.2 0-.2 0-.1 0-.2h.3.4c.1 0 .1 0 .1.1s0 .1-.1.1c-.1.1-.1.1-.1.2v6h2.2v-3.6c0-.2 0-.4 0-.5s0-.3-.1-.4h.2.2.3.2s0 .1-.1.1c0 0-.1.1-.1.1v.2 4.4.4s0 .3 0 .4h-.6c0-.1 0-.3 0-.4s0-.3 0-.4h-5v.8h-.5c0-.1 0-.1 0-.2v-.1c0-.1 0-.2 0-.3v-4.2c0-.2 0-.3 0-.5s0-.3 0-.4c.1 0 .2 0 .3.1h.3c.1 0 .2 0 .2.1s0 .1-.2.2-.1.1-.1.3v4h2.2z"/><path d="m62.7 11h-1-.5-.2v-.5h1.3s1.3 0 2.3 0h2.2 1.2v.5h-.6-4l-.2 1.3h2.1.6l.6-.1-.3 4v.3c0 .1 0 .1.1.2.1 0 .1.1.2.1h.3.5c.1 0 .2-.1.3-.2s.1-.2.1-.3.1-.3.1-.5c.1.1.1.1.2.2h.3c-.1.2-.1.4-.2.6s-.2.3-.3.4c-.2.1-.3.2-.5.2-.3 0-.5 0-.8 0-.1 0-.3 0-.4 0s-.2-.1-.3-.2-.1-.2-.1-.4 0-.4 0-.6l.3-3.4h-3l-.6 3.8c.3-.1.7-.2 1.1-.4l1.3-.4v.3.2l-1.1.3-.9.3-.7.3-.6.2c0-.1-.1-.2-.1-.3s-.1-.2-.2-.3h.2l.3-.1zm1.8 4.1c-.1-.1-.2-.3-.2-.4s-.2-.3-.2-.4l-.3-.3-.3-.4.4-.2.3.4.3.4.3.4c.1.1.2.2.2.4z"/><path d="m70.6 11.9c-.4 0-.9 0-1.3.1v-.6h.6.8v-.8c0-.2 0-.4 0-.5s0-.2 0-.3 0-.1 0-.2l.3.1h.3.2s0 .1-.1.1c0 0-.1.1-.1.1v.2 1.2h.6.1.2v.7h-.2-.2-.2-.3v1.5l.5-.3.5-.3v.3c0 .1 0 .2.1.2l-.6.3-.6.3v2.6.4c0 .1-.1.2-.2.3s-.3.1-.4.1c-.2 0-.5.1-.7.1 0-.1-.1-.2-.1-.3s-.1-.2-.2-.3c.2 0 .4.1.6.1h.3c.1 0 .1-.1.2-.2 0-.1 0-.2 0-.4v-2.1l-.6.3-.6.3c0-.1-.1-.2-.1-.3-.1-.1-.1-.2-.2-.3l.7-.3c.2-.1.5-.2.7-.3zm4.4 4.6h1.4.4.2v.6c-.2 0-.5 0-1-.1h-1.6-1-.7-.5-.4v-.6l.7.1h1 1c.3-.8.5-1.5.7-2.2.2-.6.3-1.3.4-1.9.1.1.2.1.4.1.1 0 .2.1.3.1s.1 0 .1.1 0 .1-.1.1-.1.1-.2.2c0 .1-.1.2-.1.3l-.2.6c-.1.2-.1.4-.2.7s-.2.5-.3.9-.2.6-.3 1zm-.2-5.1h.7.5.4.3v.6h-.3-.4-2.7-.4-.3v-.6h.3.4.5.7l-.4-.4c0-.1-.1-.2-.1-.3s-.1-.2-.2-.3l-.2-.4.5-.2.2.4c0 .1.1.2.2.4l.2.4c0 .1 0 .2.1.4zm-1 4.6c-.2-.6-.3-1.2-.5-1.7-.1-.5-.3-1-.5-1.4l.4-.2c.2.5.4 1 .6 1.5s.3 1 .5 1.6z"/><path d="m80.8 13.2h-1.5-.7-.6v-.5h1.4 1.9v-1.5c0-.3 0-.6 0-.8s0-.4-.1-.6c.2.1.5.1.7.1s.2.1 0 .2c-.1.1-.1.1-.1.2v.3 2.1h2.1 1.3v.5h-.7-.8-1.5c.4.6.9 1.2 1.5 1.7.5.5 1.1.9 1.7 1.2-.1 0-.2.1-.2.2-.1.1-.1.2-.2.3-.3-.2-.6-.4-.9-.7s-.6-.5-.8-.8-.5-.6-.7-.9-.5-.7-.7-1v2.9.7s0 .5 0 .8h-.7c0-.3 0-.5.1-.8s0-.5 0-.7v-2.9h-.1c-.3.7-.7 1.3-1.2 1.9-.5.7-1.1 1.3-1.8 1.8-.1-.1-.1-.2-.2-.2-.1-.1-.2-.2-.3-.2.3-.2.6-.3.8-.5.3-.2.6-.5.8-.7.3-.3.5-.6.8-.9.2-.5.5-.8.7-1.2zm-.7-.9-.3-.3c-.1-.1-.2-.3-.4-.4s-.3-.3-.4-.4-.2-.2-.4-.3l.3-.3.3.3.4.4.4.4.3.4zm4.3-1.6c.1 0 .1.1.1.1s0 .1-.1.1l-.2.1c-.1.1-.2.1-.2.2-.1.1-.2.3-.4.4l-.7.8c-.1-.1-.1-.1-.2-.2-.1 0-.1-.1-.2-.1.1-.1.3-.3.4-.4s.3-.3.4-.5.2-.3.3-.5c.1-.1.2-.3.2-.4.1.1.2.2.3.2.1.1.2.2.3.2z"/><path d="m87.6 17.4h-.6c0-.2 0-.3.1-.5s0-.4 0-.6v-4.9c0-.2 0-.4 0-.5s0-.2 0-.4h1.3 1.8 1.8 1.3v.4.5 4.8.6s0 .3 0 .5h-.6v-.6h-5zm2.2-4v-2.4h-2.3v2.3zm-2.2.4v2.4h2.3v-2.4zm5-.4v-2.4h-2.2v2.3zm-2.3.4v2.4h2.3v-2.4z"/><path d="m5.5 29.2c.1.1.2.3.2.5s-.1.3-.2.4-.3.2-.4.2c-.2 0-.3-.1-.4-.2s-.2-.3-.2-.4c0-.2.1-.3.2-.5.1-.1.3-.2.4-.2.1.1.3.1.4.2z"/><path d="m13.4 28v-1.4c0-.1 0-.2 0-.3s0-.2 0-.2v-.2l.4.1h.3c.2 0 .2.1.1.1-.1.1-.1.1-.1.2v.4 1.3h1.5.6.6v.5h-.6-.6-1.6v1.7h1.5.5.4v.5h-.4-2v2.1h2 .8.6v.7h-.7-.8-2.3-2.2c-.6 0-1.1 0-1.6.1v-.7c.4 0 .9 0 1.5.1h2.1v-2.5h-1.9-.4v-.5h.4.5 1.4v-1.6h-2.1c-.1.2-.1.3-.2.5s-.2.3-.2.5c-.1.2-.2.3-.3.5l-.2.4c-.1-.1-.2-.1-.2-.2-.1-.1-.2-.1-.3-.1.2-.2.3-.4.5-.6s.3-.5.4-.7c.1-.3.3-.6.4-.9s.2-.7.3-1.2c.1.1.2.1.3.1s.2.1.3.1.1.1.1.1 0 .1-.1.1-.1.1-.2.3-.2.5-.3.7z"/><path d="m20.1 33.3h-.7c.1-.2.1-.4.1-.6s0-.4 0-.7v-4.7c0-.1 0-.3 0-.4s0-.3 0-.4h.5 4.2.6c-.1.3-.1.5-.1.8v4.9.4.3.3h-.7v-.8h-4zm4-4v-2.3h-4v2.3zm-4 .4v2.3h4v-2.3z"/><path d="m30.8 28.8h-.8v-.8h.8zm0 3.4h-.8v-.8h.8z"/><path d="m36.4 26.1h1.2v6.1h-.6v-5.5h-1z"/><path d="m42.4 30.6c0 .6-.2 1.1-.4 1.6s-.5.9-.9 1.3c-.1-.1-.1-.2-.2-.2-.1-.1-.2-.1-.4-.1.2-.2.4-.3.6-.5s.3-.5.4-.7c.1-.3.2-.7.2-1 .1-.4.1-.9.1-1.3v-3c0-.2 0-.3 0-.5h.5 4.1.6v.3.2.3 5.5.5c0 .1-.1.2-.2.3-.2.1-.3.1-.5.1-.3 0-.7 0-1 0 0-.1 0-.3 0-.4s-.1-.2-.2-.3c.3 0 .5.1.8.1h.5c.1 0 .2-.1.2-.2s.1-.2.1-.3v-1.7zm4-2.3v-1.5h-4v1.5zm-3.9.4v1.5h3.9v-1.5z"/><path d="m49 28h-.6c0-.6.2-1.1.6-1.5s.9-.6 1.4-.6 1 .2 1.4.5.5.8.5 1.3c0 .4-.1.7-.3 1-.3.4-.6.8-.9 1.1l-1.5 1.6h2.8v.6h-4.1l2.3-2.5c.3-.3.6-.7.9-1 .2-.3.3-.6.3-.9s-.1-.6-.4-.9c-.5-.5-1.4-.5-1.9 0-.3.5-.5.9-.5 1.3z"/><path d="m56 28.9c.7.2 1.1.9 1.2 1.6 0 .5-.2 1-.6 1.4s-1 .6-1.5.6c-.6 0-1.1-.2-1.5-.5-.4-.5-.6-1-.6-1.5 0-.7.5-1.4 1.2-1.6-.7-.3-1.1-1.1-.8-1.9.1-.2.2-.4.4-.6.4-.3.8-.5 1.3-.5s.9.2 1.3.5c.6.5.7 1.4.2 2-.2.3-.4.4-.6.5zm.5 1.6c0-.3-.2-.7-.4-.9-.3-.3-.6-.4-1-.4s-.7.2-1 .4-.4.6-.4 1c0 .3.1.7.4.9.6.5 1.5.5 2.1 0 .3-.3.4-.6.3-1zm-.2-2.9c0-.3-.1-.5-.3-.7s-.5-.3-.8-.3-.6.1-.8.3-.3.4-.3.7.1.6.4.7c.2.2.5.3.8.3s.6-.1.8-.3c0-.2.2-.4.2-.7z"/><path d="m59.7 33.3h-.7c0-.2.1-.4.1-.6s0-.4 0-.7v-4.7c0-.1 0-.3 0-.4s0-.3-.1-.4h.6 4.2.6c-.1.3-.1.5-.1.8v4.9.4.3c0 .1 0 .2.1.3h-.7v-.8h-4zm4-4v-2.3h-4v2.3zm-4 .4v2.3h4v-2.3z"/><path d="m70 25.6h.7c-.3.6-.5 1.3-.7 2s-.2 1.5-.2 2.2c0 1.3.2 2.7.7 3.9h-.7c-.5-1.2-.7-2.5-.7-3.8 0-1.4.3-2.9.9-4.3z"/><path d="m75.1 27h-1.5-1.3v-.5c.4 0 .9 0 1.4.1h3.5.7.6v.5h-.6-.6-1.6v2.2h1.5.5.4v.5h-.4-.5-1.5v2.9h2.1.8.8v.3h-.8-3-2.1c-.6 0-1.2 0-1.7 0v-.6c.5 0 1 0 1.6.1h1.9v-2.9h-1.5-.5-.4v-.5h.4.5 1.4v-2.1zm2.9 5.1c-.2-.3-.4-.5-.7-.8s-.6-.5-.9-.7l.4-.4c.3.2.6.5.8.7s.6.5.8.7z"/><path d="m83.6 32.2v-5.7c0-.1 0-.2 0-.3s0-.2 0-.2 0-.1-.1-.2h.3.4c.1 0 .1 0 .1.1 0 0 0 .1-.1.1-.1.1-.1.1-.1.2v6h2.2v-3.6c0-.2 0-.4 0-.5s0-.3-.1-.4h.2.2.4.2s0 .1-.1.1c0 0-.1.1-.1.1v.2 4.4.4s0 .3 0 .4h-.6c0-.1 0-.2 0-.4s0-.3 0-.4h-5v.8h-.6c0-.1 0-.1 0-.2s0-.1 0-.2 0-.2 0-.3v-4.2c0-.2 0-.3 0-.5s0-.3 0-.4h.3.3c.2 0 .2 0 .2.1s0 .1-.2.2-.1.1-.1.3v4.1z"/><path d="m92.3 29h-1-.7v-.4l-.7.4c-.3.2-.6.3-.9.5 0-.1-.1-.2-.2-.3s-.2-.2-.3-.2c.3-.1.6-.2.9-.4.3-.1.5-.3.8-.4.3-.2.5-.3.7-.5s.5-.4.7-.7c.2-.2.4-.5.5-.7s.2-.5.3-.7c.1.1.2.2.3.2.1.1.2.1.3.1s.1 0 .1.1 0 .1-.1.1l-.1.1-.1.1c.3.4.6.7.9.9.3.3.5.5.8.7s.6.4.9.5c.3.2.7.3 1 .5-.1.1-.2.1-.2.2-.1.1-.1.2-.2.3l-.8-.4c-.2-.1-.4-.3-.6-.4v.4h-.7-1v1.1h.8.7.6.5v.6c-.2 0-.3 0-.5 0h-.6-1.5v2.1h1.5 1c.2 0 .5 0 .7-.1v.6h-.7-4.8-.8-.7v-.6c.2 0 .5.1.7.1h1 1.5v-2.2h-1.6-.6c-.2 0-.4 0-.5 0v-.6h.5.6.7.8zm-1.1 3.6c-.2-.2-.3-.5-.5-.7s-.4-.5-.6-.7l.3-.3.3.3c.1.1.2.2.3.3l.3.3.3.3zm-.4-4h.4 3 .4c-.2-.1-.3-.2-.5-.4l-.5-.4-.5-.5c-.2-.2-.3-.4-.5-.6-.1.2-.2.4-.4.5s-.3.3-.4.5-.3.3-.5.4c-.2.2-.3.3-.5.5zm4.2 2.6c.1 0 .1.1.1.1s0 .1-.1.1h-.1c-.1 0-.1.1-.2.1l-.3.4-.5.6-.4-.3c.1-.1.2-.2.3-.3s.2-.3.3-.4.2-.3.3-.4.1-.2.2-.3c.1.1.2.1.3.2z"/><path d="m98.4 28.1h-.7c-.2 0-.4 0-.5.1v-.6c.2 0 .4.1.5.1h.7c0-.4 0-.8 0-1.1 0-.2 0-.4-.1-.7h.3.3.2s0 .1-.1.2-.1.2-.1.3v1.2c.3 0 .7 0 1-.1v.6h-.4-.5v1.5l.4-.2c.2-.1.3-.2.4-.3 0 .2 0 .3.1.5l-.5.2-.5.2v2.5.4c0 .1-.1.2-.2.3s-.3.1-.4.2c-.2 0-.4 0-.7 0v-.2s0-.1 0-.2c0 0 0-.1-.1-.1 0-.1-.1-.1-.1-.2l.5.1h.3c.1 0 .1-.1.1-.1 0-.1 0-.2 0-.3v-2.2l-.6.3-.5.3c0-.1-.1-.2-.1-.3-.1-.1-.1-.2-.2-.3.5-.2.9-.4 1.3-.6zm4.1 4.6h1.4.6.4v.6h-.5-.7-.7-1.4-.8-.7-.5v-.6h.4.6.7.7v-1.9h-1-.8v-.5h.9 1.2 1.1.8v.5h-.8-1zm-.4-5.7c-.1-.2-.1-.4-.2-.5s-.2-.3-.2-.4l.5-.2c.1.2.2.4.2.5.1.2.1.4.2.6h1.2.4.4v1.6h-.5v-1.2h-3.6v1.1h-.5v-1.6h.4.4zm-.2.8h.1v.1s-.1.1-.1.1c0 .1-.1.1-.1.2-.1.3-.2.6-.4.9-.3.3-.6.5-.9.7 0-.1-.1-.2-.2-.3s-.1-.2-.2-.2c.4-.1.7-.3 1-.6.2-.3.4-.7.4-1.1.1 0 .2.1.3.1 0 .1.1.1.1.1zm.9.6c0-.1 0-.2 0-.4 0-.1 0-.2 0-.3h.3.3.1c0 .1 0 .1-.1.1s-.1.1-.1.1v.1 1c0 .1 0 .1.1.2.1 0 .2.1.2 0h.2.3.3l.2-.1c0 .1 0 .2-.1.3v.3c-.1 0-.1 0-.2 0h-.2-.2-.3c-.1 0-.3 0-.4 0s-.2 0-.2-.1c-.1 0-.1-.1-.1-.1 0-.1 0-.2 0-.2z"/><path d="m106.9 29.5v1.3c0 .3-.1.7-.1 1s-.1.6-.2.8c-.1.3-.2.5-.3.8-.1-.1-.2-.2-.3-.2-.1-.1-.2-.1-.3-.1.2-.3.3-.5.4-.8.1-.4.2-.7.2-1.1.1-.5.1-1.1.1-1.6 0-.6 0-1.4 0-2.3h.4.8 1 1.3c0-.4 0-.8-.1-1s0-.4-.1-.5l.3.1h.3c.1 0 .1 0 .2.1s0 .1-.1.1v.1.2.4.6h1.7c.3 0 .6 0 .8-.1v.6h-.4-.5-.7-.7c0 .5.1 1 .2 1.5.1.4.2.8.3 1.2.1-.1.1-.2.2-.2l.1-.2c.1-.3.3-.6.4-.9.1-.2.1-.3.2-.5 0-.2.1-.3.1-.5l.3.2c.1 0 .2.1.3.1s.2.1.2.1 0 .1-.1.1-.1 0-.1.1-.1.1-.1.2l-.2.4-.3.6c-.1.2-.2.3-.2.5-.1.2-.2.3-.3.5.2.6.5 1.1 1 1.6.1 0 .1.1.2.1h.1c.1-.1.1-.2.1-.3 0-.2.1-.4.1-.6.1.1.2.2.3.2.1.1.2.1.3.1-.1.3-.2.5-.4.8-.1.2-.2.3-.3.4s-.2.1-.3.1-.2-.1-.3-.2-.3-.2-.4-.3-.2-.3-.4-.4-.2-.3-.3-.5-.2-.3-.3-.5c-.3.3-.6.7-.9 1s-.6.6-.9.8c-.1-.1-.2-.2-.2-.2-.1-.1-.2-.1-.3-.2.4-.2.8-.5 1.1-.8.4-.4.7-.7 1-1.1-.2-.5-.3-1.1-.4-1.6-.1-.6-.2-1.1-.2-1.7h-3v1.3h1 .7c.2 0 .3 0 .5-.1l-.2 2.8c0 .3-.1.6-.4.7-.4.1-.8.2-1.2.1 0-.1 0-.2 0-.3s-.1-.2-.1-.3c.2 0 .4.1.6.1h.4c.1 0 .1-.1.2-.1 0-.1 0-.2 0-.2l.2-2.1zm5.1-2.2c-.1-.2-.3-.4-.4-.5-.2-.2-.4-.4-.6-.5l.4-.3c.2.2.4.3.6.5s.3.3.4.5z"/><path d="m118.4 32.4c.2-.3.3-.7.5-1.1s.3-.7.4-1.1.2-.7.3-1 .1-.5.2-.8c.1.1.2.1.4.2.1 0 .2.1.3.1s.1 0 .2.1c0 .1 0 .1-.1.2 0 0-.1.1-.1.1-.1.2-.2.3-.2.5l-.2.5-.2.6c-.1.2-.2.5-.3.7l-.4.9h1.7.6.4v.7h-.5-.7-5-.7-.5v-.6h.5.7.7zm-.1-5h1 .8.6.4v.6h-.5-.6-.9-2.3-.8-.6-.4v-.6h.4.6.8 1.1c-.1-.2-.2-.5-.3-.7s-.2-.5-.4-.7l.5-.3.2.5c.1.1.1.3.2.4l.2.4c-.2.1-.1.3 0 .4zm-1.3 4.6c-.1-.2-.2-.5-.2-.7s-.2-.5-.3-.7-.2-.5-.3-.7-.3-.5-.4-.9l.4-.2c.2.5.5 1 .7 1.5s.5 1 .7 1.5z"/><path d="m124.4 33.3h-.7c0-.2.1-.4.1-.6s0-.4 0-.7v-4.7c0-.1 0-.3 0-.4s0-.3 0-.4h.6 4.2.6c-.1.3-.1.5-.1.8v4.9.4.3.3h-.7v-.8h-4zm4-4v-2.3h-4v2.3zm-4 .4v2.3h4v-2.3z"/><path d="m134.9 27h.4.4v.5h-.4-.4v3.3h.4.4v.5l-.5-.1h-3.4c-.2 0-.4 0-.6.1v-.5h.5.5v-3.4h-.4-.4v-.4h.4.4c0-.2 0-.4 0-.6 0-.1 0-.3-.1-.4h.3.3.1s0 0 0 .1c0 0-.1.1-.1.1v.2.6h1.7c0-.3 0-.5 0-.7 0-.1 0-.3 0-.4l.3.1h.3.1s0 0-.1.1c-.1 0-.1.1-.1.1v.1zm-1.6 4.8c-.1 0-.1 0-.1.1s-.1.1-.1.2c-.2.2-.4.5-.6.7l-.7.7c-.1-.1-.1-.2-.2-.2-.1-.1-.2-.1-.3-.1.2-.1.3-.2.5-.4.2-.1.3-.3.4-.4.1-.2.3-.3.4-.5s.2-.3.3-.5c.1.1.3.2.4.3.1 0 .1.1.1.1s-.1 0-.1 0zm-.6-4.4v.9h1.7v-.8zm1.8 1.2h-1.7v.9h1.7zm0 1.3h-1.7v.8h1.7zm.4 3.1c-.1-.2-.3-.5-.4-.7-.2-.2-.4-.4-.6-.6l.3-.3c.2.2.4.4.6.6s.3.4.5.6zm1.7-2.4c0 .3 0 .6-.1.9 0 .3-.1.5-.2.8-.1.2-.2.5-.3.7s-.2.5-.4.7c-.1-.1-.1-.1-.2-.2s-.2-.1-.3-.1c.2-.2.3-.4.5-.7.1-.2.2-.5.3-.8s.1-.7.2-1c0-.4 0-.9 0-1.5v-2.7c0-.2 0-.3 0-.4h.6 1.4.6v.3 6.1.4c0 .1-.1.2-.2.2-.1.1-.3.1-.4.1-.2 0-.4 0-.7 0 0-.1 0-.2 0-.3s-.1-.2-.2-.3l.6.1h.3c.1 0 .1-.1.1-.2s0-.2 0-.3v-1.8zm1.6-2.2v-1.6h-1.6v1.5zm-1.6.4v1.4h1.6v-1.5z"/><path d="m140.4 25.6c.6 1.4.9 2.8.8 4.3 0 1.3-.2 2.6-.7 3.8h-.6c.5-1.2.7-2.6.7-3.9 0-.8-.1-1.5-.2-2.2s-.4-1.4-.7-2z"/><path d="m5.5 45.2c.1.1.2.3.2.5s-.1.3-.2.4-.3.2-.4.2c-.2 0-.3-.1-.4-.2s-.2-.3-.2-.4c0-.2.1-.3.2-.5.1-.1.3-.2.4-.2.1.1.3.1.4.2z"/><path d="m11.4 47.9c-.2.3-.4.6-.6.9s-.4.5-.6.7l-.5-.3c.3-.2.5-.5.8-.7.2-.2.4-.5.5-.8zm-.4-3.6c-.4 0-.8 0-1.1.1v-.5h.3.4.5.6v-.9h-.9c-.2 0-.4 0-.6.1v-.5c.2 0 .4.1.6.1h.9c0-.2 0-.4 0-.5s0-.3 0-.4h.3.3c.1 0 .1 0 .2.1s0 .1-.1.2c0 0-.1.1-.1.1v.4h.8.5v.5c-.2 0-.4 0-.6 0h-.8v.7h1c.2 0 .4 0 .6-.1v.5h-.5-.3v.3c0 .1 0 .2.1.2h.3c.2 0 .4 0 .6-.1 0 .1-.1.2-.1.2v.2h-.3-.3c-.2 0-.4 0-.5-.1s-.1-.2-.1-.3v-.5h-1c-.1.3-.2.5-.4.7-.3.2-.6.4-.9.5-.1-.2-.3-.3-.5-.4.3-.1.5-.2.8-.3.1 0 .2-.2.3-.3zm1.2 2.4h.4.4.3l.3-.1c-.1.2-.1.3-.1.5h-.9l-1 .1-.9.1h-.7c0-.1 0-.2 0-.3l-.1-.3h.7 1.1v-.8l-.7.1c-.2 0-.3 0-.5.1v-.6c.2 0 .3.1.5.1h.8c0-.2 0-.3 0-.4s0-.2 0-.3l.2.1h.3.1s0 .1-.1.1c0 0-.1.1-.1.1v.3c.4 0 .8 0 1.1-.1v.6c-.4-.1-.8-.1-1.1-.1zm.5 2.7c0-.1 0-.3 0-.4s-.1-.2-.1-.4-.1-.2-.1-.4-.1-.3-.2-.5l.4-.1.2.4c0 .1.1.2.1.4s.1.2.1.4.1.3.1.4zm2.4-4 .4.2.3.2-.3.4c-.2-.2-.3-.3-.5-.4-.1.3-.2.6-.4.9s-.4.6-.6.8c-.1-.2-.3-.3-.5-.3.3-.2.5-.5.7-.8s.3-.6.4-.9l-.3-.2c-.1-.1-.2-.1-.4-.2l.2-.4.3.2.3.1c0-.2.1-.4.1-.6s0-.5.1-.7c-.1 0-.3 0-.4 0l-.5.3v-.5h.3.5c0-.4 0-.7 0-1 0-.2 0-.4-.1-.6.2 0 .4.1.6.1h.1s0 .1-.1.1 0 .1-.1.1v.2.4.6h.8.6v.2s0 .1 0 .2 0 .2 0 .3 0 .2 0 .4v1.7c0 .3.1.5.2.5s.1-.1.2-.2c.1-.2.1-.3.1-.5.1.1.3.2.5.2 0 .2-.1.3-.2.5-.1.1-.1.3-.2.4s-.2.2-.3.2c-.2 0-.3-.1-.4-.3-.1-.1-.1-.2-.2-.3 0-.2-.1-.3-.1-.5 0-.3 0-.6 0-.9 0-.4 0-.8.1-1.4h-.9c0 .5-.1 1-.3 1.5zm-.4 3.9c-.1-.2-.1-.5-.2-.7s-.2-.5-.4-.8l.4-.2c.1.2.1.3.2.4s.1.2.2.4c.1.1.1.2.1.3s.1.3.1.4zm2.2 0c-.1-.3-.3-.6-.5-.8-.2-.3-.5-.5-.7-.8l.3-.3.4.4.3.4.3.4.3.4z"/><path d="m20.9 46.1c-.1 0-.2-.1-.2-.2s-.1-.3-.1-.4v-.4c0-.1 0-.2 0-.2 0-.1 0-.1 0-.2l.3.1h.3.1s0 0-.1.1l-.1.1v.1.4c0 .1 0 .2.1.2.1.1.3.1.5.1h.8.3c.1 0 .2 0 .2-.1.1-.1.1-.1.1-.2s.1-.2.1-.4l.2.2c.1 0 .2.1.3.1-.1.2-.1.3-.2.5 0 .1-.1.2-.2.3s-.2.1-.3.1-.3 0-.4 0c-.3 0-.5 0-.7 0s-.4 0-.6 0h-.2-.1l.2.1.2.1s.1 0 .1.1c0 0 0 .1-.1.1h-.1c-.1.1-.2.1-.2.2h2.1.5.5.3c-.2.3-.5.6-.8.8-.3.3-.6.5-1 .8.5.2 1 .3 1.5.4.6.1 1.2.1 1.7.1-.1.1-.2.2-.2.3s-.1.2-.1.3c-.4 0-.7-.1-1-.1s-.6-.1-.9-.2-.5-.1-.8-.2-.5-.2-.7-.3c-.5.3-1 .5-1.6.6-.7.2-1.4.3-2.1.4 0-.1-.1-.2-.1-.3s-.1-.2-.2-.2c.6 0 1.2 0 1.9-.2.6-.1 1.1-.3 1.6-.5-.2-.1-.4-.2-.5-.3-.2-.1-.4-.2-.5-.4l.3-.3c.2.2.4.3.6.4s.4.2.6.4c.2-.1.5-.3.7-.4.2-.2.4-.3.5-.5h-2.9c-.5.4-1 .7-1.6 1-.1-.1-.1-.2-.2-.3s-.2-.1-.3-.2c.2-.1.5-.2.7-.3s.4-.2.6-.4c.2-.1.4-.3.5-.5.4-.3.6-.5.7-.7zm2.2-2 .3-.4.3-.3c.1-.1.1-.2.2-.3l.2-.3.2.2.3.1s.1.1.1.1c0 .1-.1.1-.1.1h-.1l-.1.1-.4.2-.3.4h.6 1.2v1.3h-.5v-.9h-6v1h-.5v-1.4h.5.7zm-4.5-1.7c.5.1 1 .1 1.5.1.6 0 1.3 0 2.1-.1s1.3-.1 1.7-.2c.3 0 .6-.1.9-.2.1.2.2.3.4.5.1.1.1.1.1.2s-.1 0-.2 0-.3 0-.4 0c-.2 0-.5 0-1 .1l-1 .1-1.1.1-1.2.1-1.4.1c0-.1-.1-.2-.1-.3-.2-.3-.2-.4-.3-.5zm1.5 2.5-.2.4c0 .1-.1.2-.2.4l-.2.3c-.1.1-.1.2-.2.3l-.4-.2c.2-.2.3-.4.5-.7.1-.2.2-.5.3-.8zm0-.9c-.1-.2-.2-.3-.3-.4s-.2-.3-.4-.4l.4-.2.4.4s.2.3.4.4zm1.8 0c0-.1-.1-.2-.1-.2l-.1-.2-.1-.2-.2-.4.4-.2c.1.1.2.3.3.5s.2.3.2.5zm.4 1.6c-.1-.1-.2-.3-.3-.4s-.3-.2-.4-.3l.3-.3.2.1.2.1.2.2.2.2zm2.4.7c-.1-.2-.3-.5-.5-.7s-.3-.4-.5-.7l.4-.3c.2.2.4.5.6.7s.3.4.5.6z"/><path d="m27.9 43c-.2 0-.3 0-.5 0h-.5v-.5h.6.7.7.6v.5h-.5c-.2 0-.3 0-.5 0v2h.4.4v.5h-.3-.2-.2-.2v2.1l.5-.2.6-.2v.3.2l-.8.2-.7.2c-.2.1-.4.1-.6.2l-.6.3c0-.1-.1-.2-.1-.3s-.1-.2-.1-.3c.2 0 .4-.1.6-.1l.6-.2v-2.4h-.5-.5v-.5h.5.5zm2.7 4.8c-.2.2-.5.4-.8.6-.2.2-.5.3-.8.4 0-.1-.1-.2-.1-.3-.1-.1-.2-.1-.2-.2.2-.1.4-.2.7-.3.2-.1.4-.2.6-.4.2-.1.4-.3.6-.4s.3-.3.4-.5h-.5-.5s0-.1 0-.2v-.2c0-.1 0-.2 0-.2v-.1c0-.1 0-.2 0-.4 0-.1 0-.3 0-.4h.4.4 2.2.4.4v.8.4.2.2h-.3-.5-.4-.4l.3.5c.1.2.2.3.4.5l.3-.2.2-.2.2-.2c0-.1.1-.1.1-.2l.2.2c.1.1.1.1.2.1s.1.1.1.1 0 .1-.1.1h-.1c-.1 0-.1 0-.2.1l-.2.2-.4.3c.2.2.4.3.6.5.2.1.5.3.7.4-.1.1-.1.1-.2.2 0 .1-.1.2-.1.3-.3-.2-.6-.4-.8-.6s-.4-.4-.6-.6-.3-.4-.5-.6-.3-.5-.5-.8h-.3l-.2.1c-.1.1-.1.2-.2.2v1.5c.2-.1.4-.2.5-.3l.5-.3v.3s0 .1.1.2c-.3.2-.7.3-.9.5-.3.1-.6.3-.8.5 0-.1-.1-.2-.1-.3s-.1-.2-.2-.2l.2-.1.2-.1zm3.6-2.8h-.5-.5-.6-1.6-.6-.5-.5v-.5h.5.5 2.9.5.5zm-.3-2.7v.5s0 .3 0 .4 0 .4 0 .5v.4h-.3-1.9-1.3-.8c0-.2 0-.3 0-.5s0-.3 0-.5 0-.3 0-.4 0-.3 0-.5h.3.5.6 1.4.6.5zm-3 .5h-.8v1h.9zm2.2 3h-2.7v.7h2.7zm-1.7-2h.8v-1h-.8zm1.2 0h.8v-1h-.8z"/><path d="m36.5 44.4c-.1.2-.3.4-.5.6-.1.2-.3.4-.5.6-.1-.2-.2-.3-.4-.4.1-.1.2-.2.3-.3s.2-.2.3-.3.2-.3.4-.5.3-.5.4-.7.3-.5.4-.7.2-.5.3-.7c.1.1.2.1.3.2.1 0 .2.1.3.1.2.1.2.1 0 .2-.1.1-.2.2-.3.3-.1.2-.3.5-.5.9v6h-.6c0-.2 0-.5.1-.8s0-.6 0-.9zm4 1.5h1.5c.4 0 .7 0 .9-.1v.5c-.2 0-.5 0-.8 0h-1.1c.1.3.3.5.5.8.1.2.3.4.5.6l.5.5c.2.2.4.3.6.4-.1.1-.2.1-.3.2s-.1.2-.2.3c-.5-.3-.9-.7-1.2-1.2s-.6-1-.8-1.6h-.2v2.3.4s0 .3 0 .5h-.6c0-.2 0-.3 0-.5s0-.3 0-.4v-2.4h-.2c-.2.5-.4 1.1-.7 1.5-.4.5-.8 1-1.4 1.4-.1-.1-.1-.2-.2-.2-.1-.1-.2-.1-.3-.2.5-.3.9-.6 1.3-1s.7-.9.9-1.5c-.4 0-.7 0-1 0h-.9v-.5h.4.5.7 1.1v-1h-1-.8c0-.1 0-.3 0-.5v-1.5c0-.1 0-.2 0-.3s0-.2 0-.2h.9 1.1 1.2.9v.2.3s0 .2 0 .3v.4.8s0 .4 0 .5h-.8-1zm1.3-3.1h-3v1.6h3z"/><path d="m48 45.9c.1.6-.3 1.2-.9 1.3v-.4c.2 0 .3-.1.4-.3s.1-.4.1-.6h-.5v-.9h.9z"/><path d="m53.9 47.9c-.2.3-.4.6-.6.9s-.4.5-.6.7l-.5-.3c.3-.2.5-.5.8-.7.2-.2.4-.5.5-.8zm-.4-3.6c-.4 0-.8 0-1.1.1v-.5h.3.4.5.7v-.9h-.9c-.2 0-.4 0-.6.1v-.5c.2 0 .4.1.6.1h.9c0-.2 0-.4 0-.5s0-.3 0-.4h.3.3c.1 0 .2 0 .2.1s0 .1-.1.2c0 0-.1.1-.1.1v.4h.8.5v.5c-.2 0-.4 0-.6 0h-.8v.7h1c.2 0 .4 0 .6-.1v.5h-.5-.5v.3c0 .1 0 .2.1.2h.3c.2 0 .4 0 .6-.1 0 .1-.1.2-.1.2v.2h-.3-.3c-.2 0-.4 0-.5-.1s-.1-.2-.1-.3v-.5h-1c-.1.3-.2.5-.4.7-.3.2-.6.4-.9.5-.1-.2-.2-.3-.3-.4.3-.1.5-.2.8-.3 0-.1.1-.2.2-.3zm1.2 2.4h.4.3.3l.3-.1c-.1.2-.1.3-.1.5h-.9l-1 .1-.9.1-.7.1c0-.1 0-.2 0-.3s-.1-.2-.1-.3h.7 1.1v-.8h-.8c-.2 0-.3 0-.5.1v-.5c.2 0 .3.1.5.1h.8c0-.2 0-.3 0-.4s0-.2 0-.3h.3.3.1s0 .1-.1.1c0 0-.1.1-.1.1v.3c.4 0 .8 0 1.2-.1v.6c-.4-.1-.8-.1-1.2-.1zm.4 2.7c0-.1 0-.3 0-.4s0-.2-.1-.4-.1-.2-.1-.4-.1-.3-.2-.5l.5-.1.2.4c0 .1.1.2.1.4s.1.2.1.4.1.3.1.4zm2.5-4 .4.2.3.2-.3.5c-.2-.2-.3-.3-.5-.4-.1.3-.2.6-.4.9s-.4.6-.6.8c-.1-.2-.3-.3-.5-.3.3-.2.5-.5.7-.8s.3-.6.4-.9l-.3-.2c-.1-.1-.2-.1-.3-.2l.2-.4.3.2.3.1c0-.2.1-.4.1-.6s0-.5 0-.7c-.1 0-.3 0-.4 0h-.4v-.5h.3.5c0-.4 0-.7 0-1 0-.2 0-.4 0-.6.2 0 .4.1.6.1v.2.1s0 .1-.1.1v.2.4.6h.8.6v.2s0 .1 0 .2 0 .2 0 .3 0 .2 0 .4v1.7c0 .3.1.5.2.5s.2-.1.2-.2c.1-.2.1-.3.1-.5.1.1.3.2.5.2 0 .2-.1.3-.2.5-.1.1-.1.3-.2.4s-.2.2-.3.2c-.2 0-.3-.1-.4-.3-.1-.1-.1-.2-.2-.3 0-.2-.1-.3-.1-.5 0-.3 0-.6 0-.9 0-.4 0-.8.1-1.4h-.9c-.1.5-.3 1-.5 1.5zm-.4 3.9c-.1-.2-.2-.5-.2-.7s-.2-.5-.4-.8l.5-.2c.1.2.1.3.2.4s.1.2.2.4c.1.1.1.2.2.3 0 .1.1.3.1.4zm2.2 0c-.1-.3-.3-.6-.5-.8-.2-.3-.5-.5-.7-.8l.3-.3.4.4.3.4.3.4.3.4z"/><path d="m62.1 45.2c-.2.5-.3.9-.4 1.3s-.3.7-.5 1.1l-.6-.2c.1-.2.2-.3.3-.5s.2-.3.2-.5c.1-.2.1-.4.2-.6s.1-.5.1-.7zm5.3 2.8c-.1.2-.1.4-.2.6-.1.1-.2.3-.3.4s-.2.1-.4.2c-.2 0-.3.1-.5.1-.5 0-.9 0-1.3 0-.3 0-.7 0-1 0h-.4c-.1 0-.2-.1-.2-.1-.1 0-.1-.1-.1-.2s0-.2 0-.3v-3.9c0-.1 0-.2 0-.3s0-.1 0-.2h.3.3.1s0 .1-.1.1c0 0-.1.1-.1.1v.2 3.7c0 .2.1.3.3.3h.4 1.2.5c.1 0 .3 0 .4-.1.1 0 .2-.1.2-.2.1-.1.1-.2.1-.3s0-.3.1-.5c.1.1.2.2.3.3.2 0 .3 0 .4.1zm-2.2-3.7c-.2-.4-.4-.7-.7-1s-.5-.6-.8-.9l.4-.3.5.5.4.4.4.5.3.4zm2.8 2.9c-.1-.2-.2-.4-.2-.6-.1-.2-.2-.3-.3-.5s-.2-.3-.3-.5-.2-.3-.4-.5l.4-.3.4.5c.1.1.2.3.3.4l.3.5.3.6z"/><path d="m72 43.2c-.2.2-.4.4-.4.6-.1.3-.3.5-.4.8s-.3.5-.4.7-.3.4-.4.6-.3.3-.4.5c-.1-.1-.2-.2-.2-.2-.1-.1-.2-.1-.3-.2.3-.2.6-.5.9-.8.2-.3.4-.6.6-.9.1-.2.1-.3.2-.4l.2-.4c0-.1.1-.2.1-.3s0-.2.1-.4c.2.1.4.2.6.2.1 0 .1 0 .1.1s-.3 0-.3.1zm2.8 5c-.1-.2-.3-.4-.5-.6s-.4-.4-.6-.7l.4-.3c.4.6.8 1.1 1.1 1.5s.5.8.7 1.1l-.5.3-.2-.5c-.1-.1-.2-.3-.2-.4l-1.6.1-1.1.1-.8.1h-.5-.3-.2c0-.1-.1-.2-.1-.3-.1-.1-.1-.2-.2-.3h.3.3c.1-.2.3-.4.4-.6l.4-.7.4-.7.4-.7c.1-.2.2-.4.3-.6s.1-.3.2-.5l.4.2.3.1c.1 0 .1.1.1.1s0 .1-.1.1-.2.1-.2.2c-.1.1-.2.3-.3.4-.1.2-.2.4-.3.6s-.3.4-.4.7-.3.5-.5.8l-.5.8zm-1.7-5.5h-.5-.5v-.5h.2 1.9.2c0 .2.1.4.2.6s.1.4.2.6.2.4.3.5.2.3.3.4c.2.3.5.6.8.9.2.2.5.4.7.5-.1.1-.2.1-.3.2s-.2.2-.2.3c-.3-.3-.5-.5-.8-.8-.2-.3-.5-.6-.7-.9l-.3-.5c-.1-.2-.2-.3-.2-.5s-.1-.3-.2-.5l-.2-.5z"/><path d="m79 46.8c0-.1 0-.2 0-.4s0-.3 0-.4h.4.6 3.2.5.4v.4 2.3h.7l.7-.1v.6h-.5-.7-5.5-.7-.5v-.6h.6.8zm1.7-2.2-.2.1c-.1.1-.2.1-.4.2s-.4.3-.7.5l-1.1.8c-.1-.1-.1-.2-.2-.2-.1-.1-.2-.1-.3-.2.2-.1.5-.2.7-.3s.5-.3.7-.5.4-.3.6-.5.3-.3.4-.5c.1.1.2.2.2.2.1.1.1.1.2.1s.1.1.1.1 0 .2 0 .2zm1.5-1.2c.1-.1.2-.2.3-.4l.3-.4c.1-.2.2-.3.3-.4s.1-.3.2-.4c.1.1.3.2.5.3.1 0 .1 0 .2.1 0 .1 0 .1-.2.2 0 0-.1 0-.1.1-.1 0-.1.1-.2.2s-.2.2-.3.3-.3.3-.4.5h.8.6.5.3v.5h-.6-.6-4.5-.7-.6v-.5h.5.3zm-1.9-.1c-.1-.2-.3-.4-.5-.6s-.4-.3-.6-.5l.4-.3.3.3.3.2.2.3.3.3zm-.8 3.2v2.2h1v-2.2zm1.5 0v2.2h1v-2.2zm3.6-.4c-.2-.2-.3-.3-.5-.4s-.3-.3-.5-.4-.4-.3-.6-.4-.5-.3-.8-.4l.3-.4.8.5c.2.1.4.3.6.4s.4.2.6.4l.6.4zm-1 .4h-1.1v2.2h1.1z"/><path d="m5.5 61.2c.1.1.2.3.2.5s-.1.3-.2.4-.3.2-.4.2c-.2 0-.3-.1-.4-.2s-.2-.3-.2-.4c0-.2.1-.3.2-.5.1-.1.3-.2.4-.2.1.1.3.1.4.2z"/><path d="m13 64.3-1 .2-.8.1-.6.1-.5.1c0-.1 0-.2-.1-.2l-.1-.3h.5.5v-3h-.4-.6v-.5h.6.7 5 .7.6v.5h-.4-.4-3.3v2.8.9s0 .5.1.7h-.6c0-.1 0-.3 0-.5.1-.3.1-.5.1-.9zm3.1-3.8h-.4-.4-4.3c0-.1 0-.2 0-.3s0-.2 0-.3v-.5c0-.3 0-.7-.1-1h5.2v.5s0 .3 0 .5v.3.3.3zm-4.8.8v.7h1.7v-.7zm0 1v.7h1.7v-.7zm0 1.9.8-.1.9-.1v-.6h-1.7zm4.3-5v-.6h-4.1v.6zm-4 .3v.6h4.1v-.6zm4.1 4.7c.4.4 1 .6 1.5.7l-.1.1s-.1.1-.1.1l-.1.1c0 .1 0 .1-.1.2-.3-.1-.6-.2-.9-.4-.2-.1-.5-.3-.7-.5-.2.2-.4.4-.6.5-.2.2-.5.3-.7.5 0-.1-.1-.2-.2-.2l-.2-.2c.5-.2 1-.5 1.4-.9-.5-.6-.8-1.3-1-2h-.1-.2v-.5h.4.3 1.8.3.3c-.1.5-.2.9-.4 1.3-.2.5-.4.8-.6 1.2zm-1.2-2c.2.6.5 1.2.9 1.7.2-.2.4-.5.5-.8s.3-.6.3-.9z"/><path d="m20.9 62.1c-.1 0-.2-.1-.2-.2s-.1-.3-.1-.4v-.4c0-.1 0-.2 0-.2 0-.1 0-.1 0-.2l.3.1h.3.1s0 0-.1.1l-.1.1v.1.4c0 .1 0 .2.1.2.1.1.3.1.5.1h.8.3c.1 0 .2 0 .2-.1.1-.1.1-.1.1-.2s.1-.2.1-.4l.2.2c.1 0 .2.1.3.1-.1.2-.1.3-.2.5 0 .1-.1.2-.2.3s-.2.1-.3.1-.3 0-.4 0c-.3 0-.5 0-.7 0s-.4 0-.6 0h-.2-.1l.2.1.2.1s.1 0 .1.1c0 0 0 .1-.1.1h-.1c-.1.1-.2.1-.2.2h2.1.5.5.3c-.2.3-.5.6-.8.8-.3.3-.6.5-1 .8.5.2 1 .3 1.5.4.6.1 1.2.1 1.7.1-.1.1-.2.2-.2.3s-.1.2-.1.3c-.4 0-.7-.1-1-.1s-.6-.1-.9-.2-.5-.1-.8-.2-.5-.2-.7-.3c-.5.3-1 .5-1.6.6-.7.2-1.4.3-2.1.4 0-.1-.1-.2-.1-.3s-.1-.2-.2-.2c.6 0 1.2 0 1.9-.2.6-.1 1.1-.3 1.6-.5-.2-.1-.4-.2-.5-.3-.2-.1-.4-.2-.5-.4l.3-.3c.2.2.4.3.6.4s.4.2.6.4c.2-.1.5-.3.7-.4.2-.2.4-.3.5-.5h-2.9c-.5.4-1 .7-1.6 1-.1-.1-.1-.2-.2-.3s-.2-.1-.3-.2c.2-.1.5-.2.7-.3s.4-.2.6-.4c.2-.1.4-.3.5-.5.4-.3.6-.5.7-.7zm2.2-2 .3-.4.3-.3c.1-.1.1-.2.2-.3l.2-.3.2.2.3.1s.1.1.1.1c0 .1-.1.1-.1.1h-.1l-.1.1-.4.2-.3.4h.6 1.2v1.3h-.5v-.9h-6v1h-.5v-1.4h.5.7zm-4.5-1.7c.5.1 1 .1 1.5.1.6 0 1.3 0 2.1-.1s1.3-.1 1.7-.2c.3 0 .6-.1.9-.2.1.2.2.3.4.5.1.1.1.1.1.2s-.1 0-.2 0-.3 0-.4 0c-.2 0-.5 0-1 .1l-1 .1-1.1.1-1.2.1-1.4.1c0-.1-.1-.2-.1-.3-.2-.3-.2-.4-.3-.5zm1.5 2.5-.2.4c0 .1-.1.2-.2.4l-.2.3c-.1.1-.1.2-.2.3l-.4-.2c.2-.2.3-.4.5-.7.1-.2.2-.5.3-.8zm0-.9c-.1-.2-.2-.3-.3-.4s-.2-.3-.4-.4l.4-.2c.1.1.3.3.4.4s.2.3.4.4zm1.8 0c0-.1-.1-.2-.1-.2l-.1-.2-.1-.2-.2-.4.4-.2c.1.1.2.3.3.5s.2.3.2.5zm.4 1.6c-.1-.1-.2-.3-.3-.4s-.3-.2-.4-.3l.3-.3.2.1.2.1.2.2.2.2zm2.4.7c-.1-.2-.3-.5-.5-.7s-.3-.4-.5-.7l.4-.3c.2.2.4.5.6.7s.3.4.5.6z"/><path d="m28.7 58.9h-.3-.3v1.8 1.8c0 .4-.1.8-.1 1.2-.1.3-.1.6-.3.9-.1.3-.2.5-.4.7-.1-.1-.2-.2-.3-.2-.1-.1-.2-.1-.3-.1.2-.2.3-.4.4-.6s.2-.5.3-.7c.1-.3.1-.7.2-1 0-.4.1-.8.1-1.4 0-.7 0-1.3 0-1.8s0-.8-.1-1.1c.7 0 1.3-.1 1.8-.1.5-.1.9-.2 1.4-.3v.2c0 .1.1.2.1.2v.2c-.1.1-.1 0-.1 0h-.1-.2v1.6s0 .8 0 1.1 0 .6 0 .8 0 .3.1.5c.1.4.2.7.4 1s.4.5.7.6c.4.2.8.3 1.2.3h1.8c-.2.2-.3.5-.3.7-.6 0-1.2 0-1.8-.1-.4 0-.8-.1-1.2-.3-.3-.2-.6-.4-.8-.7s-.4-.6-.5-1c-.1-.2-.1-.4-.1-.6s0-.5-.1-.8 0-.8 0-1.2 0-1.1 0-1.8h-.3-.3v5.3.7s0 .4 0 .6h-.6c0-.2 0-.4.1-.6s0-.4 0-.7zm2.7 2.7v1.1.2c0 .1 0 .1.1.2s.1.1.2.1h.3.7.5c.1 0 .2 0 .3-.1.1 0 .1-.1.2-.2s.1-.2.1-.3.1-.3.1-.4l.3.3c.1.1.2.1.3.1-.1.2-.1.3-.2.5-.1.1-.1.2-.2.3s-.2.1-.3.1-.2 0-.4 0h-1.4c-.3 0-.5-.1-.8-.2-.1-.2-.2-.4-.2-.6v-4.1h.6.9.9.6v.8 1.7.5.3h-.5v-.3zm.8-2.4h-.8v2h.8zm.5 2h.8v-2h-.8z"/><path d="m38.7 59h-1.5-1.3v-.5c.4 0 .9 0 1.4.1h3.5.7.6v.5h-.6-.6-1.6v2.2h1.5.5.4v.5h-.4-.5-1.5v2.9h2.1.8.8v.3h-.8-3-2.2c-.6 0-1.2 0-1.7 0v-.6c.5 0 1 0 1.6.1h1.8v-2.9h-1.4-.5-.4v-.5h.4.5 1.4zm2.9 5.1c-.2-.3-.4-.5-.7-.8s-.6-.5-.9-.7l.4-.4c.3.2.6.5.8.7s.5.5.8.7z"/><path d="m47.2 64.2v-5.3c0-.2 0-.3 0-.4s0-.2 0-.3 0-.2 0-.2 0-.1 0-.2h.3.4c.1 0 .1 0 .1.1s0 .1 0 .1c-.1.1-.1.1-.1.2v6h2.1v-3.6c0-.2 0-.4 0-.5s0-.3-.1-.4h.2.2.3.2s0 .1-.1.1c0 0-.1.1-.1.1v.2 4.4.4s0 .3 0 .4h-.6c0-.1 0-.3 0-.4s0-.3 0-.4h-5v.8h-.6c0-.1 0-.1 0-.2v-.1c0-.1 0-.2 0-.3v-4.2c0-.2 0-.3 0-.5s0-.3 0-.4h.3.3c.1 0 .2 0 .2.1s0 .1-.2.2 0 .2 0 .3v4z"/><path d="m57.4 62.1-.4.4c-.6-.6-1.3-1.2-2-1.8l.3-.4c.7.6 1.4 1.2 2.1 1.8z"/><path d="m62.2 60h-.8-.5v-.5h.5.8c0-.5 0-.8 0-1.2 0-.2 0-.4-.1-.7l.3.1h.3.2s0 .1-.1.1c-.1.1-.2.2-.2.3v1.2h.7.5v.7h-.5-.7v1.6l.7-.3.7-.3v.3c0 .1 0 .2.1.3l-.7.3-.8.3v2.6.4c0 .1-.1.2-.2.2-.1.1-.3.1-.4.1-.2 0-.5.1-.7.1 0-.1 0-.2-.1-.3 0-.1-.1-.2-.2-.3.2 0 .4.1.6.1h.3c.1 0 .1-.1.1-.1 0-.1 0-.1 0-.2v-2.3l-.6.3-.5.2c0-.1-.1-.2-.1-.3s-.1-.2-.2-.3c.3-.1.5-.2.8-.3l.8-.3zm4.9 4.7c0 .1 0 .2-.1.3s-.1.2-.2.2c-.2.1-.3.1-.5.1-.3 0-.6.1-.8.1 0-.1 0-.2-.1-.4 0-.1-.1-.2-.2-.3.2 0 .5.1.7.1h.4c.1 0 .1-.1.2-.1 0-.1 0-.2 0-.2v-5.3h-1.1-.9c-.3 0-.5 0-.8.1v-.6h.3.4.6 2 .7.5.3v.6l-.7-.1h-.8z"/><path d="m69.2 59.5c.2 0 .4.1.6.1h.7c0-.2 0-.4 0-.6s0-.3 0-.5 0-.3 0-.4 0-.2 0-.3l.4.1h.1c.1 0 .1 0 .2.1s0 .1-.1.2c0 0-.1.1-.1.1v.2 1.2h.6c.2 0 .3 0 .5-.1v.6c-.2 0-.3-.1-.5-.1h-.6v.4c.2.2.4.5.6.7s.4.5.5.7l-.5.3c-.2-.4-.5-.8-.8-1.2v3 .7s0 .6 0 .9h-.6c0-.3.1-.6.1-.9s0-.5 0-.8v-2.7c-.1.2-.1.4-.2.6s-.1.4-.2.6l-.2.6c-.1.2-.2.4-.3.6-.1-.1-.1-.2-.2-.3s-.2-.1-.2-.2c.2-.2.3-.5.4-.7s.2-.5.4-.8c.1-.3.2-.5.3-.8s.2-.6.3-.9h-.8-.2-.2zm4.5-.3h-.9-.7v-.5h.3.4.4.5c0-.2 0-.4 0-.6s0-.3 0-.4c.2.1.4.1.7.1.1 0 .1 0 .2.1 0 .1 0 .1-.1.1 0 .1-.1.1-.1.2s-.1.3-.1.5h1.3s.7 0 .9 0v.5c-.2 0-.6 0-1 0h-1.4c0 .1 0 .2-.1.4s0 .2-.1.4h1.6.5v.5c-.2 0-.4 0-.5 0h-1.5c0 .1-.1.2-.1.4 0 .1-.1.2-.2.3h2.4.3.3v.5h-.6-.7c.2.3.5.5.8.7s.6.3.9.4c-.1.1-.2.1-.2.2-.1.1-.1.2-.2.3-.4-.2-.7-.4-1-.7s-.6-.6-.8-1h-1.5c-.2.3-.4.6-.7.9s-.6.6-1 .9c-.1-.2-.3-.3-.5-.4.4-.2.7-.4 1-.6s.5-.5.7-.8h-.4-.4v-.5h.5.6c.1-.1.1-.2.2-.3 0-.1.1-.2.1-.4h-.5-.5v-.5h.2.3.6c0-.1 0-.2.1-.4s0-.2 0-.3zm.3 3.8h-.7-.5v-.5h.5.7c0-.2 0-.4 0-.6 0-.1 0-.2 0-.3l.3.1h.3.1s0 .1-.1.1c0 0-.1.1-.1.1v.2.4h.7.5v.5h-.6-.7v.8h1.2c.3 0 .6 0 .8-.1v.6c-.2 0-.5-.1-.8-.1h-1.2v.7s0 .4.1.7h-.5c0-.2 0-.4.1-.7 0-.2 0-.5 0-.7h-1.1c-.3 0-.6 0-.8.1v-.6c.2 0 .5 0 .8.1h1.1z"/><path d="m79.1 59.1c-.2 0-.4 0-.6 0s-.3 0-.5 0v-.6h.2.3.4.5.8.5v.6c-.2 0-.3 0-.5 0s-.4 0-.7 0v1.9h.5.4v.5h-.4-.5v2l.5-.2.5-.2v.3.2c-.5.2-1 .3-1.4.4s-.8.3-1.3.5c0-.1-.1-.2-.1-.3s-.1-.2-.2-.3l.7-.1.7-.2v-2.3h-.6-.3v-.5h.4.6zm3.4 3.7-.6.4-.5.4-.4.4-.4.4c0-.1-.1-.2-.2-.3s-.1-.2-.2-.2c.2-.1.4-.2.5-.3l.5-.3.5-.4.6-.5c0 .1 0 .1.1.2 0 .1 0 .1.1.2zm.6 2v.4c0 .1-.1.2-.2.2-.1.1-.2.1-.4.1s-.4 0-.7.1c0-.1 0-.2 0-.3s-.1-.2-.2-.3h.5c.1 0 .2 0 .3-.1.1 0 .1-.1.1-.2s0-.2 0-.3v-4.4h-.5-.5-.5-.4v-.5h.4.4 1.1v-.5c0-.3 0-.5 0-.8 0-.2 0-.4-.1-.5.1 0 .2 0 .3.1h.3.2s0 .1-.1.1-.1.1-.1.2v.2 1.1h1.3.7.5v.6h-.5-.5-.6-.8zm-1.1-2.8c-.2-.2-.3-.4-.5-.5-.2-.2-.4-.3-.6-.5l.3-.4.6.5c.2.2.4.3.6.5zm3 2.4-.4-.5-.4-.5-.4-.4-.4-.4.3-.3.4.4.4.5.4.5.4.4zm-.5-5c-.1-.1-.1-.2-.2-.2l-.3-.3-.3-.2-.3-.2.3-.3c.2.1.4.3.6.5s.3.3.5.5zm-1 2.3c.2-.2.4-.4.6-.6s.3-.4.4-.7c.1.1.2.2.3.2s.1.1.2.1.1.1.1.1 0 .1-.2.1-.3.1-.5.3l-.1.2-.2.2-.2.2c-.1.1-.1.1-.2.2z"/><path d="m5.5 77.2c.1.1.2.3.2.4 0 .2-.1.3-.2.4s-.3.2-.4.2c-.2 0-.3-.1-.4-.2s-.2-.3-.2-.4c0-.2.1-.3.2-.4s.3-.2.4-.2c.1.1.3.1.4.2z"/><path d="m14.1 78.8c.2-.2.3-.4.4-.5s.1-.2.2-.3c.1.1.1.1.2.2l.2.1s.1.1.1.1 0 .1-.1.1h-.1l-.1.1-.1.1-.2.2h1.9s.8 0 1 0v.5c-.1 0-.3 0-.4 0h-.7-1.1-1.7-2.6c-.6 0-1.1 0-1.3.1v-.5h.3.5.7 1c-.1-.1-.2-.2-.2-.3-.1-.1-.1-.1-.2-.2l.3-.3c.1.2.3.3.4.4s.2.2.3.4zm-.3-3.2h1.5.7.5v.5c-.4 0-.8 0-1.3 0l-1.7-.1h-1.7c-.5 0-.9 0-1.3 0v-.5h.5.7 1.6v-.5h-.9-.9-.8-.7v-.5h1.4s1.2 0 1.8 0v-.3c0-.1 0-.2 0-.2 0-.1 0-.1 0-.2 0 0 0-.1 0-.2h.4.4c.1 0 .1 0 0 .1-.1 0-.1.1-.1.2v.5h1.8c.6 0 1 0 1.4-.1v.7c-.4 0-.8-.1-1.4-.1s-1.2 0-1.8 0zm-2.3 5.7v.4h-.6c0-.1 0-.2 0-.3s0-.2 0-.3v-.8c0-.1 0-.2 0-.3v-.3h.4.5.7 1.9.7.5.4v.3.3.8.3.3h-.6v-.3h-3.9zm4.5-3.3h-.5-.5-3.1-.5-.4c0-.1 0-.2 0-.4s0-.3 0-.4 0-.3 0-.4 0-.3 0-.4h.5 4.1.5v.4.4s0 .3 0 .4c0 .2-.1.3-.1.4zm-.5 2.9v-.8h-4.1v.8zm0-4h-4v.8h4z"/><path d="m20.6 77.7c-.1-.2-.2-.3-.4-.4l.4-.2c.1.1.2.2.3.3s.1.2.2.3h.8.6v.5h-.6-.8v.5h.7.5v.3c-.2 0-.4 0-.5 0h-.7v.5h.7.6v.5h-.5c-.2 0-.4 0-.7 0v.6h.8.6v.5h-.7-.9-1.5v.6h-.5c0-.3 0-.5.1-.8s0-.6 0-.9v-1.4c-.1.1-.1.2-.2.3l-.3.4c-.1-.1-.1-.1-.2-.2-.1 0-.2 0-.2-.1.3-.3.6-.6.8-.9s.3-.7.5-1c.1.1.3.1.4.2.1 0 .1 0 .1.1s0 .1-.1.1c-.1.1-.2.1-.3.2zm1-3h.5.2.3v.6h-.3-.2-.6v.5h-.4v-.5h-1.3v.5h-.4v-.5h-.5-.3-.3v-.6h.3.3.5c0-.2 0-.3 0-.4s0-.2 0-.3c.1 0 .2 0 .3.1h.3s.1 0 .1.1c0 0 0 .1-.1.1 0 0-.1.1-.1.1v.2.3h1.3c0-.2 0-.3 0-.4s0-.2 0-.3c.2 0 .4.1.5.1s.1 0 .1 0 0 .1-.1.1c0 0-.1.1-.1.1zm-1.3 2.4h-.4-1.3c0-.1 0-.2 0-.3s0-.2 0-.4 0-.2 0-.3 0-.2 0-.3h1.6v.3.7c.1.1.1.2.1.3zm-.4-1h-.8v.6h.8zm-.5 2v.5h1.2v-.5zm1.3.8h-1.3v.5h1.2zm0 .9h-1.3v.6h1.2zm1.7-2.7h-.4-1.3c0-.1 0-.2 0-.3v-.7c0-.1 0-.2 0-.3h1.6v.3.7c.1.1.1.3.1.3zm-.4-1h-.8v.6h.8zm2 2.7c-.1.6-.3 1.1-.5 1.6s-.6.9-1 1.2c-.1-.1-.1-.1-.2-.2s-.2-.1-.3-.1c.3-.2.6-.4.8-.7s.4-.6.5-1 .3-.8.3-1.3c.1-.5.1-1 .1-1.6l.3.1h.2.1s0 .1-.1.1v.1.2.4s0 .3-.1.6.2.6.4.9c.1.3.3.6.5.8s.3.5.5.7.4.4.6.5c-.1.1-.1.1-.2.2s-.2.2-.2.2c-.2-.2-.4-.4-.5-.6-.2-.2-.3-.5-.5-.7-.1-.2-.3-.5-.4-.7 0-.2-.2-.5-.3-.7zm-.5-2.9c0 .1-.1.3-.1.4l-.1.3c0 .1-.1.2-.1.4s-.1.3-.2.4c-.1-.1-.2-.1-.2-.1-.1 0-.2-.1-.3-.1.1-.2.2-.4.3-.6s.2-.5.3-.8.1-.6.2-.9.1-.7.1-1c.2.1.4.1.6.1.1 0 .1 0 .1.1s0 .1-.1.2v.1c0 .1-.1.1-.1.2s-.1.2-.1.3-.1.3-.1.5h.8.8s.5 0 .8-.1l-.8 1.7-.5-.1.5-.9z"/><path d="m27.9 74.9h-.6c-.2 0-.3 0-.5.1v-.6h.6 1.6.3.3v.6c-.2 0-.3-.1-.5-.1h-.7v1.9h.6l.4-.1v.5c-.1 0-.3 0-.4 0h-.6v2.2l.6-.2.5-.3v.3c0 .1 0 .2.1.3l-1.4.5c-.5.2-.9.3-1.4.5 0-.1 0-.2-.1-.3 0-.1-.1-.2-.1-.3h.3.3l.3-.1.4-.1v-2.4h-.6c-.2 0-.3 0-.5 0v-.5c.2 0 .3 0 .5.1h.6zm3.4 2.4c0 .6 0 1.1-.1 1.7 0 .4-.2.8-.4 1.2-.2.3-.4.6-.8.8-.4.3-.8.5-1.2.6 0-.1-.1-.2-.2-.3s-.2-.2-.3-.2c.4-.1.8-.3 1.1-.4s.6-.4.8-.6c.2-.3.3-.6.4-1 .1-.5.1-1.1.1-1.6-.2 0-.5 0-.7 0-.1 0-.3 0-.4.1v-.6c.2 0 .5.1.7.1h1.7.9.7.4.3v.6c-.2 0-.4 0-.5-.1-.2 0-.6 0-.9 0v3.2c0 .1 0 .2.1.2.1.1.2.1.4.1s.4-.1.5-.2c.1-.2.2-.4.2-.6 0 .1.1.2.2.2.1.1.2.1.3.1 0 .2-.1.3-.2.5-.1.1-.1.2-.2.3s-.2.1-.4.2c-.2 0-.4 0-.6 0s-.3 0-.5-.1c-.1 0-.2-.1-.3-.1-.1-.1-.1-.1-.1-.2s0-.2 0-.3v-3.3zm.6-2.7h1.1c.3 0 .5 0 .8-.1v.6c-.2 0-.5 0-.8-.1h-2.2c-.3 0-.6 0-.8.1v-.6c.2 0 .5 0 .8.1z"/><path d="m36.5 80.4c-.1.2-.2.3-.4.5-.1.2-.3.3-.5.5-.1-.1-.1-.1-.2-.2l-.2-.2c.2-.2.4-.3.6-.5s.3-.3.4-.5.2-.4.3-.7.2-.5.2-.8h-.6-.1-.2-.2l-.1-.2c0-.1-.1-.1-.1-.2h.1s.1 0 .1-.1c0 0 .1-.1.1-.1l.1-.2.6-1.1h-.9-.4v-.5h.5.5c.3 0 .7 0 1-.1l-1.1 1.9h1 .3c-.1.4-.2.8-.3 1.1s-.2.6-.3.8c.3.2.6.4.9.5.4.1.8.2 1.2.3.6.1 1.1.1 1.7.1.7 0 1.5-.1 2.4-.2-.1.1-.1.2-.2.3v.3h-1.7-1.3c-.4 0-.7 0-1-.1-.3 0-.5-.1-.8-.2-.2-.1-.4-.2-.7-.3-.2.1-.4 0-.7-.1zm.3-4.7-.2-.3-.3-.4-.2-.3c-.1-.1-.2-.2-.3-.3l.4-.3c.2.2.3.4.5.6l.5.7zm1.3.1h-.7v-.5h.6.7.6l.6-.1v.5h-.5-.8v.5s0 .3 0 .4c.4 0 .8 0 1.2-.1l-.1 2.8v.3c0 .1-.1.1-.1.2-.3.2-.3.2-.4.2-.2 0-.3.1-.5.1 0-.1 0-.2-.1-.3 0-.1-.1-.2-.2-.2h.4c.1 0 .1 0 .2-.1.1 0 .1-.1.1-.2s0-.2 0-.3l.1-2h-.7c0 .4-.1.8-.1 1.1s-.1.5-.2.8c-.1.2-.2.4-.3.6s-.3.4-.4.6c-.1-.1-.3-.3-.4-.3.1-.2.3-.3.4-.4s.2-.3.2-.4c.1-.2.1-.3.2-.5 0-.2.1-.4.1-.6 0-.1 0-.3 0-.4s0-.3 0-.5 0-.3 0-.5zm.6-.6c-.1-.2-.2-.3-.2-.5-.1-.2-.2-.4-.3-.5l.4-.2c.1.2.3.4.4.5l.3.5zm2 .4-.3.4c-.1.1-.2.3-.3.4-.1-.1-.3-.2-.4-.3.1-.1.3-.3.4-.4s.2-.3.3-.4c.1-.2.2-.3.2-.5.1-.2.1-.4.2-.6l.2.1h.1.2s.1 0 .1.1c0 0 0 .1-.1.1s-.1.1-.2.2-.2.3-.2.4h1.1c.2 0 .4 0 .6-.1v.5h-.2zm.9 2.4h.6.6v.5c-.2 0-.3 0-.5 0h-.7v1.2.3c0 .1-.1.2-.1.2-.1.1-.2.1-.3.1-.2 0-.4.1-.5.1 0-.1 0-.2-.1-.3 0-.1-.1-.2-.1-.3h.4.2c.1 0 .1-.1.1-.1 0-.1 0-.1 0-.2v-1.3h-.7-.5v-.5h.5.6v-.7l.6-.6h-1.1-.2v-.4h.4 1.2.5v.4c-.1 0-.2.1-.3.2l-.6.5z"/><path d="m46.2 75.5h.6.5.5.5l-.5 1.1-.4-.2.2-.4h-2.9v.5 1.1.5.9s-.1.6-.1.8c0 .3-.1.6-.2.8-.1.3-.2.6-.3.9-.1-.1-.2-.1-.2-.1-.1 0-.2 0-.3 0 .2-.4.4-.8.5-1.2.1-.6.2-1.2.2-1.8 0-.4 0-.8 0-1.2s0-.9-.1-1.5h.6.9v-1.2c0-.1 0-.1 0-.2s0-.1 0-.2c0 0 0-.1 0-.2h.2.5.1s0 .1-.1.1-.1.1-.1.2v.3h1.2.2.3v.5h-.3-1.5zm-.5 5.3c-.1-.1-.1-.2-.2-.3s-.2-.2-.2-.3l.4-.2c0 .1.1.1.1.2l.1.2c0 .1.1.1.1.2l.1.3h.3.3c.1-.2.1-.3.2-.5 0-.1.1-.2.1-.3.1.1.3.1.4.1h.1s0 .1-.1.1l-.1.1s-.1 0-.1.1c0 0 0 .1-.1.1s-.1.1-.1.2l1-.2v.2.2h-1c-.3 0-.6.1-.8.1l-.7.1-.6.1c0-.1 0-.2 0-.3s-.1-.1-.1-.2h.5zm2.4-2.5c-.2 0-.5-.1-.7-.1h-1-.9c-.1 0-.2 0-.3 0h-.3v-.4c.2 0 .4.1.6.1h1.8c.2 0 .5 0 .7-.1v.5zm-.3-1.2s-.1.1 0 0c-.1.1-.1.2-.1.2v.1.1c-.4 0-.8 0-1 0s-.4 0-.5-.1c-.1 0-.2-.1-.2-.2s0-.2 0-.4l-.4.1-.6.1v-.4h.4.4c0-.1 0-.2 0-.3s0-.2 0-.3h.2.2.1s0 .1-.1.1-.1.1-.1.1v.2h.4l.3-.1.3-.1v.4h-.3-.4-.4v.2c0 .1.1.1.2.1h.5zm.1 2.7h-2.1-.6c0-.1 0-.2 0-.3s0-.2 0-.3 0-.3 0-.4 0-.2 0-.3h2.7v.3.7zm-.4-.8h-1.8v.5h1.8zm1.4-2.1-.3.1h-.2-.2-.3l-.1-.5h.2.2.2.3c0-.2 0-.4 0-.7v-.7c0-.2 0-.5 0-.7s0-.3 0-.5h.2.3c.2 0 .2.1.1.2s-.1.1-.1.1v.3.6s0 .6 0 1l.8-.1c.2 0 .3-.1.5-.1l.5.1v.5h-.5c-.2 0-.3 0-.5.1l-.8.1c0 .4.1.9.1 1.3s.1.8.2 1.1c.2-.3.3-.6.4-.9s.2-.6.3-.9l.3.2.2.1c.1 0 .1 0 .1.1s0 .1-.1.1-.1.1-.2.1c-.1.1-.1.2-.2.3-.1.2-.2.4-.3.7s-.3.5-.5.8c0 .1.1.2.1.3s.1.2.1.2l.2.2.2.2c.1.1.2.2.3.2.1.1.1.1.2 0s.1-.1.1-.2c0-.2.1-.4.1-.5.1.1.1.2.2.2s.1.1.2.1c0 .2-.1.4-.2.6 0 .1-.1.2-.2.3 0 .1-.1.1-.2.1h-.1c-.1 0-.2 0-.3-.1s-.3-.2-.4-.3c-.2-.1-.3-.3-.4-.4-.1-.2-.3-.4-.3-.6-.2.2-.3.5-.5.7s-.4.5-.7.7l.1-.1c-.1-.1-.2-.1-.3-.2.1-.1.3-.2.4-.3s.3-.2.4-.3.3-.3.4-.4c.1-.2.3-.3.4-.5 0-.1-.1-.3-.1-.4s-.1-.4-.1-.6-.1-.5-.1-.8-.1-.6-.1-.9zm1.5-1c-.1-.2-.2-.4-.3-.6-.2-.2-.3-.4-.5-.6l.4-.3.2.2.2.3.2.3.2.3z"/><path d="m56.5 77.9c.1.6-.3 1.2-.9 1.3v-.4c.2 0 .3-.1.4-.3s.1-.4.1-.6h-.5v-.9h.9z"/><path d="m65.5 80.1v.3c0 .1.1.1.1.2.1 0 .2.1.3.1h.5.6c.1 0 .2-.1.3-.1.1-.1.2-.2.2-.3.1-.2.1-.3.1-.5l.3.3c.1 0 .2.1.3.1-.1.2-.2.4-.2.6-.1.1-.2.3-.3.3-.2.1-.3.1-.5.2-.2 0-.5 0-.8 0s-.5 0-.8 0c-.1 0-.3 0-.4-.1s-.2-.1-.2-.2 0-.3 0-.4v-4h-.9c-.1.6-.2 1.2-.2 1.7-.1.4-.2.9-.4 1.3s-.5.7-.8 1c-.4.4-.8.7-1.2 1 0-.1-.1-.2-.2-.3s-.2-.2-.4-.2c.4-.2.8-.5 1.2-.8.3-.3.6-.6.8-.9.2-.4.4-.8.4-1.2.1-.5.2-1 .3-1.6h-1.3c-.4 0-.8 0-1 .1v-.7h.4.5 1.5c0-.3 0-.5.1-.7s0-.4 0-.5 0-.3 0-.5 0-.3 0-.5c.1 0 .2.1.4.1h.3c.1 0 .2 0 .2.1s0 .1-.1.2c0 0-.1.1-.1.1 0 .1 0 .2-.1.3 0 .1 0 .3-.1.5s-.1.5-.1.9h2.3c.7 0 1.1 0 1.4-.1v.6h-.9-1.5zm1.3-4.5-.3-.3c-.1-.1-.2-.2-.3-.2-.1-.1-.2-.2-.3-.2l-.4-.2.3-.4c.3.2.5.3.7.5s.4.3.6.5z"/><path d="m72.3 80.2c-.1 0-.1 0-.2 0s-.2.1-.2.1c-.1.1-.3.2-.4.3l-.7.4-.6.3c-.2.1-.4.2-.5.3-.1-.2-.2-.4-.4-.5.2-.1.4-.2.7-.3s.5-.3.8-.4.5-.3.7-.4.3-.3.5-.4c.1.1.1.2.2.2l.2.2s0 .1-.1.2zm3-5.2h.6.6v.6c-.2 0-.4 0-.6 0h-.6v3.4h.9.8v.6c-.9 0-2.2-.1-3.8-.1s-2.9 0-3.8.1v-.6h.8.8v-3.5h-.6-.6v-.5h.6.6v-.6c0-.1 0-.1 0-.2v-.1-.2h.7.1s0 .1-.1.1-.1.2-.1.4v.6h3.2v-.7c0-.1 0-.1 0-.2v-.1s0-.1 0-.2h.7.1s0 .1-.1.1-.1.2-.1.4zm-3.8.5v.9h3.2v-.9zm3.3 1.3h-3.3v.9h3.2zm0 1.3h-3.3v.9h3.2zm1.5 3.4c-.2-.1-.3-.3-.5-.4s-.4-.3-.7-.4-.5-.3-.7-.4-.4-.2-.6-.3l.3-.4.7.3.8.4.7.4c.2.1.3.2.5.3z"/><path d="m81.3 78h-2.1-1.5v-.5c.5 0 1 0 1.6.1h4.4.8.7v.5h-1.5-2v1h1.7l.8-.1v.5c-.1 0-.4 0-.8 0h-1.7v1.5c.2 0 .4.1.6.1h.8 1l1.3-.1-.1.1v.1.1.2c-1.1 0-2 0-2.7 0-.5 0-1-.1-1.4-.2-.7-.2-1.4-.7-1.8-1.3-.1.1-.2.3-.2.4s-.2.3-.3.4-.2.3-.3.4-.2.2-.3.3c-.1-.1-.1-.1-.2-.2l-.3-.2c.4-.3.7-.7 1-1.2s.5-.9.6-1.5c.1.1.2.1.3.2l.3.1c.1 0 .1 0 .1.1s0 .1 0 .1c-.1 0-.1.1-.2.1-.1.1-.1.2-.2.4.2.3.5.5.8.7s.6.3.9.4zm2.6-.9h-.2-4.3-.3v-.4c0-.1 0-.3 0-.4v-1.4c0-.1 0-.1 0-.2s0-.1 0-.2 0-.1 0-.2h.3 4.3.3v.3s0 .3 0 .5v1.1.4s-.1.4-.1.5zm-.6-1.5v-.8h-3.6v.8zm-3.6.4v.7h3.6v-.7z"/><path d="m88.3 77.9h.7.4v.5h-.2-1v1.6l1.1-.3v.5l-.8.2-.8.2c-.3.1-.5.2-.8.3l-.6.2c0-.2-.1-.4-.2-.6h.5v-1.9c0-.2 0-.4 0-.5 0-.2 0-.3 0-.5h.3.3.1s0 0 0 .1c0 0-.1 0-.1.1v.2 2.4l.6-.2v-3.3h-.6c-.2 0-.4 0-.5 0 0-.2 0-.4 0-.6s0-.4 0-.7 0-.4 0-.7 0-.4 0-.6h.5.8.7.5v.3.3.3.3s0 .4 0 .7v.6h-.4-.5zm.4-3h-1.5v1.6h1.5zm3.2 4.2.5-.3.4-.3.3-.3.3-.3c.1.1.1.2.2.3l.2.2c.1.1.1.1.1.1s-.1 0-.1 0h-.1c-.1 0-.2.1-.3.1-.2.1-.3.2-.4.3l-.7.5c.1.2.2.3.4.4.1.1.3.2.4.3s.3.2.4.3l.5.3c-.1.1-.2.2-.3.2-.1.1-.2.2-.2.3-.2-.1-.3-.1-.5-.2-.1-.1-.3-.2-.4-.3s-.2-.2-.4-.4-.2-.3-.4-.5c-.1-.1-.2-.3-.3-.4-.1-.2-.2-.3-.2-.5-.1-.2-.2-.3-.2-.5-.1-.2-.1-.4-.2-.5h-.7v2.9l.3-.1.3-.1.3-.2.3-.2v.3c0 .1 0 .1.1.2l-.5.2c-.2.1-.3.2-.5.2l-.4.2-.5.3c0-.1-.1-.2-.1-.3s-.1-.2-.2-.2l.2-.1c.1 0 .1 0 .2-.1v-5.7c0-.2 0-.3 0-.5s0-.3 0-.4h.3.4.6.6 1c.2 0 .5 0 .7-.1v.4.5 1.6.6s0 .3 0 .5h-.3-.3-.5-.7c0 .2.1.5.2.7 0 .2.1.4.2.6zm-1.7-4.3v1.2h2.4v-1.1zm0 1.5v1h2.4v-1z"/><path d="m96.1 77.1h-.8c-.2 0-.4 0-.6 0v-.6h.6.8v-1.5c0-.2 0-.4 0-.6s0-.3-.1-.4l.3.1h.3.1s0 .1-.1.2c0 0-.1.1-.1.1v.3 2h.7.5v.6c-.1 0-.3 0-.5 0h-.7v.4c.3.2.5.4.8.6l.6.6-.5.4c-.1-.2-.3-.4-.4-.6-.2-.2-.3-.4-.5-.6v2.2.7s0 .5.1.7h-.7c0-.2 0-.5.1-.7s0-.5 0-.7v-2c-.1.4-.3.7-.5 1.1-.2.3-.4.7-.6 1-.2-.2-.3-.3-.5-.3.4-.4.7-.8.9-1.2.4-.7.6-1.2.8-1.8zm-.7-.9c-.1-.2-.1-.5-.2-.7-.1-.3-.2-.5-.4-.7l.4-.2c.1.2.3.5.4.7s.2.5.3.7zm2.7-1.3s.1 0 0 0c.1.2.1.2 0 .2-.1.1-.2.2-.3.3-.2.3-.3.6-.5.9-.1-.1-.1-.1-.2-.1s-.2 0-.2-.1c.2-.2.3-.5.4-.7s.2-.5.3-.8c.1.1.3.2.5.3zm4.5 2.5c-.1.1-.2.1-.3.2s-.1.2-.2.3c-.2-.2-.4-.4-.6-.7v.4s0 .3 0 .6l-.1 1.9c0 .2 0 .4-.1.6 0 .1-.1.3-.2.4s-.3.2-.5.2c-.3.1-.5.1-.8.1 0-.1 0-.2-.1-.3s-.2-.2-.2-.3c.2 0 .5.1.7.1.1 0 .3 0 .4-.1.1 0 .2-.1.2-.2s0-.3 0-.4l.1-2.4h-1.2c0 .4 0 .8-.1 1.2-.1.3-.2.7-.3 1s-.3.6-.6.8c-.3.3-.6.6-.9.8 0-.1-.1-.2-.2-.3s-.2-.2-.3-.2c.3-.1.6-.3.9-.5.2-.2.4-.4.6-.7s.3-.6.3-.9c.1-.4.1-.8.1-1.3h-.5c-.1 0-.2 0-.3 0v-.3l-.2.2-.2.2c-.2-.1-.3-.2-.5-.3.1-.1.2-.2.3-.4.1-.1.2-.3.2-.4.1-.2.2-.3.2-.5s.2-.4.2-.6c.1-.2.2-.5.2-.7.1-.2.1-.5.1-.7.1.1.2.1.3.1h.3c.1 0 .1 0 .1.1s0 .1-.1.1 0 .1-.1.1c0 .1 0 .1-.1.2 0 .1-.1.2-.1.4-.1.4-.2.8-.4 1.1s-.2.6-.4.9h.2.3 1.9.5c-.2-.3-.4-.6-.5-.9-.2-.5-.3-1.1-.4-1.6h-.3c-.2 0-.3 0-.5.1v-.8h.3.6.3c.1.4.1.7.2 1s.2.6.3.9.3.5.4.8c.6.3.9.5 1.1.7z"/><path d="m104.4 79.4c-.1.3-.1.6-.2.8-.1.3-.2.6-.4.9l-.6-.2c.1-.1.2-.2.2-.4.1-.1.1-.2.2-.3s.1-.3.1-.4c0-.2.1-.3.1-.5zm-.7-3c.1-.1.2-.2.3-.4s.2-.4.3-.6.2-.4.4-.7.2-.5.3-.8c.2.1.3.2.5.3.1 0 .2.1.2.1s0 .1-.2.1c-.1 0-.2.1-.2.2s-.1.2-.2.3-.2.3-.3.5c-.1.1-.2.3-.2.4l-.2.3c-.1.1-.1.2-.2.3h1.2c.1-.1.2-.2.3-.4l.2-.3c0-.1.1-.2.1-.2 0-.1.1-.1.1-.2.1.1.2.1.3.2s.2.1.3.1.1.1.1.1 0 .1-.1.1-.1.1-.2.1c-.1.1-.2.2-.2.3-.2.3-.4.5-.6.7l-.4.5-.4.5c-.1.2-.3.3-.4.5h.4.4.3.2c0-.1-.1-.2-.1-.3l-.2-.3.4-.2c.1.1.1.2.2.4l.2.4c.1.1.1.3.2.4 0 .1.1.2.1.3l-.5.2-.1-.2c0-.1 0-.1 0-.2l-1.5.2-.5.1-.4.1c0-.2-.1-.4-.2-.6h.4l.3-.3.3-.4.4-.4.4-.5-.8.1c-.1 0-.3 0-.4 0s-.3.1-.4.1c0-.1 0-.2 0-.3s-.1-.2-.1-.3zm1.4 4.4c0-.2-.1-.5-.1-.7s-.1-.4-.2-.7l.4-.1c.1.2.1.4.2.6s.1.5.2.8zm1-.3c0-.1-.1-.2-.1-.4 0-.1-.1-.2-.1-.3s-.1-.2-.1-.3-.1-.2-.2-.3l.4-.1c.1.2.2.4.3.6s.2.4.3.6zm1.8-1.2c-.1.1-.1.1-.2.2s-.1.2-.2.3c-.1.2-.2.4-.3.6s-.2.4-.3.5c-.1-.1-.1-.1-.2-.1s-.2-.1-.3-.1c.1-.1.2-.2.3-.4.1-.1.2-.2.2-.4.1-.2.1-.3.2-.5s.2-.4.2-.6l.2.2c.1 0 .2.1.2.1.1 0 .1 0 .1.1s.2 0 .1.1zm-.9-3c.3-.3.5-.6.7-1 .3-.5.6-.9.8-1.4.2.1.4.2.6.2.1 0 .1 0 .1.1s0 .1-.1.1l-.1.1-.1.1s-.1.1-.1.1-.1.1-.1.2l-.5.8-.6.8h1.3c.1-.2.2-.3.3-.4s.2-.2.2-.3c.1-.1.1-.2.2-.3 0-.1.1-.2.1-.3l.6.3c.1 0 .1.1.1.1s0 .1-.1.1-.1 0-.2.1l-.2.2-.5.6-.5.6-.5.6-.5.5h.6.6.5.3c-.1-.2-.2-.3-.2-.5l-.3-.4.4-.3c.2.3.4.7.6 1s.3.6.4.9l-.5.2c-.1-.2-.1-.4-.2-.6h-1.1v2.2.5s0 .3 0 .5h-.6c0-.2 0-.4 0-.5s0-.3 0-.4v-2.2c-.3 0-.6.1-.8.1s-.4.1-.6.1c0-.1 0-.2 0-.3s-.1-.2-.1-.3h.4c.2-.1.3-.3.6-.6s.5-.5.7-.8h-.9c-.1 0-.2 0-.4 0-.1 0-.2 0-.3.1 0-.1 0-.2 0-.3s-.1-.2-.1-.3zm3.4 4.6c-.1-.3-.2-.6-.4-.9s-.4-.6-.6-.8l.4-.3c.2.3.4.5.6.8s.4.6.6.9z"/><path d="m114.4 79.2h-.7-.5l.9-4.2h-1.1l-.8.1v-.6h.4.7 4.4.6.4v.5c-.2 0-.6 0-.9-.1h-1.2-2l-.3 1.2h3.3.3v.2s0 .2-.1.3 0 .2 0 .3 0 .2 0 .3l-.3 3.1h.5.5.5.4v.7h-.5-.7-5-.7-.5v-.6h.5.6.6 3.5l.1-1.2zm-.5-.5h3.3l.2-2h-3.1z"/><path d="m122.5 74.8-.8.1h-.8c0-.1 0-.2 0-.3s-.1-.2-.2-.3h.9 1s.7-.1 1-.1.5-.1.8-.2c0 .1.1.2.1.2 0 .1.1.1.1.2.2.2.1.2-.1.2-.1 0-.2 0-.3 0s-.4 0-.8.1h-.2-.2v.8h1 .4.4v.5h-.4-.4-.4-.6v.6h.6.4.3.2v.6.9.3.3.3h-.2-.3-1v.6h.8.6v.5h-.6-.8v.7l1-.1c.3 0 .5-.1.7-.1 0 .1-.1.2-.1.2v.2l-.9.1-1.1.2-1.1.2-.9.2c0-.1 0-.2 0-.3s-.1-.2-.1-.3h1l1-.1v-.8h-.9c-.2 0-.4 0-.7.1v-.9h.7.9v-.6h-1.2-.3-.2c0-.1 0-.2 0-.3s0-.2 0-.3 0-.2 0-.3v-.6c0-.1 0-.2 0-.3s0-.2 0-.3 0-.2 0-.3c.2 0 .4.1.5.1h1v-.6h-1.1c-.3 0-.6 0-.8.1v-.5c.2 0 .5 0 .8.1h1.1zm0 2h-1.1v.7h1.1zm0 1h-1.1v.7h1.1zm.5-.3h1v-.7h-1zm0 1h1v-.7h-1zm3.2-2.2c0 .8 0 1.4-.1 1.9 0 .5-.1 1-.3 1.4-.1.4-.3.8-.5 1.1-.2.4-.5.7-.8 1-.1-.1-.1-.2-.2-.2-.1-.1-.2-.1-.3-.1.3-.2.6-.5.8-.8s.4-.6.5-1c.2-.5.3-.9.3-1.4.1-.6.1-1.2.1-1.9h-.5-.4v-.5l.4.1h.5c0-.3 0-.6 0-.8s0-.4 0-.6c0-.1 0-.3 0-.4s0-.2 0-.3l.3.1h.3c.1 0 .1 0 .1.1s0 .1-.1.2 0 0 0 .1v.2.5s0 .5 0 .9h.6.4.3.2l-.1 4.8v.5c0 .1-.1.2-.2.3s-.3.2-.4.2c-.2 0-.5.1-.8.1 0-.3-.1-.5-.3-.7.2 0 .5.1.7.1.1 0 .3 0 .4-.1s.2-.2.2-.3 0-.3 0-.4l.1-4z"/></g><path d="m646.6 71.3s2.3-25.5 18.9-25.3c0 0 19.5 1 20.3 14.1 0 0 8 21.2-11.2 26.5l-15.1 3.7z" fill="#150201"/><path d="m575.6 83.8s8.7-37.8-25.9-33.2c0 0-11.1 1.3-12.5 12.6 0 0-9.9 24.7 27.3 32.1z" fill="#150201"/><path d="m558 60s5.5 4.1 9.8 13.5l-14.4 11.1s-8.8-6.4-8.3-11.8 2.4-15.3 12.9-12.8z" fill="#403a39"/><path d="m653.1 66.8s6.3-12.7 15.2-9.6 7.4 23.3-11.5 21.3z" fill="#403a39"/><path d="m535.6 206.9c-35.4-32.3-18.6-76.9 17.7-130.5 9-13.2 84.4-40.9 115.8-2.4 17.4 21.4 31.5 45.6 33.5 57.8 2.8 17.1 7.8 48.5-14.3 68.5-2.4 2.3-79.8 70-152.7 6.6z" fill="#150201"/><path d="m644.3 128.8c1.5 5.8-.7 11.3-4.9 12.4s-8.7-2.8-10.1-8.6.8-11.3 4.9-12.4 8.6 2.8 10.1 8.6z" fill="#fff"/><path d="m640.3 128.9c.6 2.4-.9 4.9-3.3 5.5s-4.9-.9-5.5-3.3.9-4.9 3.3-5.5c2.4-.6 4.9.9 5.5 3.3z" fill="#150201"/><path d="m566 135.9c-1.7 5.7-6.5 9.3-10.6 8.1s-6-6.9-4.2-12.6 6.5-9.3 10.6-8 5.9 6.8 4.2 12.5z" fill="#fff"/><path d="m562.2 134c-.7 2.4-3.3 3.8-5.7 3-2.4-.7-3.8-3.3-3-5.7.7-2.4 3.3-3.8 5.7-3 2.4.7 3.7 3.3 3 5.7z" fill="#150201"/><path d="m595.8 134.2s34.1-1.5 34.5 24.3c0 0-5.1 22.2-33.4 20.7 0 0-33.5-5-29.1-26.8-.1 0 6.5-17.6 28-18.2z" fill="#fff"/><path d="m586.3 142.6c-1.5.9-3 3.1-2.5 4.5s5.9 6.7 8.9 6.7 11.7-4.4 13-5.6.7-6.5-.7-6.8-7.3 2-11.9 1.5c-3.4-.3-6.2-.6-6.8-.3z" fill="#150201"/><path d="m586.6 143.4c-1.3.7-2.6 2.5-2.2 3.6s5.4 5.9 8.1 5.9 9.8-3.4 10.9-4.4.6-5.6-.6-5.5c-1.7.1-6.1 1.1-10.1.7-3-.2-5.5-.6-6.1-.3z" fill="#29201f"/><path d="m587 144.1c-1.1.5-2.3 1.9-1.9 2.7s5 5.1 7.2 5.1 7.9-2.5 8.9-3.1.5-4.5-.5-4.1c-2 .8-4.8.2-8.3-.1-2.7-.3-5-.7-5.4-.5z" fill="#403a39"/><path d="m588.8 258.6c-3.6-.1 1.2 27.5 2.2 30.1-1.7 0-3.6.9-3.6 2.7 2.1.3 4.1 0 6.1-.8 2.6-1.5.9-3.5 2.1-6.1 2.1-4.4 6-7.7 10.7-9 2.4-.6 4.2.1 4.9-.2 4.1-2.1 5.8-7.1 3.7-11.2-3.4-7.8-19.7-5.3-26.1-5.5z" fill="#150201"/><path d="m634.2 263.5c0 2.1-.2 4.3-.5 6.4-.3 2.9-.9 5.8-1.5 8.7-.9 4.2-1.5 9.4-3.5 13.3 1.6.1 3.4 1.1 3.2 2.8-2 .1-3.9-.3-5.7-1.2-2.3-1.6-.6-3.4-1.5-5.9-1.4-3.9-6-8.5-9.7-10.5-2.5-1.3-5.2-1.9-7.9-2-2.8-.1.1-.5.4-3 .1-.6-.4-1.1-.3-1.7.1-1.3-.1-2.2.6-3.5 3-5.6 9.7-3.3 14.6-4.7 2.8-.8 9.8-6.9 11.5-1.3.2.9.3 1.7.3 2.6z" fill="#150201"/><path d="m641.5 249.4c2.5 1.1 4.3 5.7 2.8 8.2-.1.1-.3.3-.4.4-.2 1.1-.8 2.1-1.6 2-.4 0-.8-.1-1.1-.2-.6 1.2-1.8 2.4-3.3 1.3-.3-.2-.6-.5-.7-.9-.8.5-1.8.7-2.3.1-.3-.4-.5-.9-.7-1.3l-.3-.2c.1-.4 1.2-8.2 7.6-9.4z" fill="#150201"/><path d="m583.1 253.4c-2.4.7-4.7 4.7-3.6 7.1.1.1.2.3.3.4 0 1 .4 2 1.2 2 .3 0 .7 0 1-.1.4 1.1 2.1 2.6 3 1.7.2-.2.4-.5.6-.8.7.6 1.5.9 2 .4.3-.3.6-.7.8-1.1.1 0 .1-1.6.2-1.6.1-3.6-2.1-6.8-5.5-8z" fill="#150201"/><path d="m593.6 225.4c-.9.3-14.8 11.9-14.3 32.8 0 1.9 3.3 8.1 7.5 4.8.9-.7.3-1.2.3-1.2-.3-.6-.6-1.3-.7-2 0-.8-1.6-13.6 7.2-34.4z" fill="#150201"/><path d="m579.7 259.9c1 2.5 3.9 5.7 7.1 3.1.9-.7.3-1.2.3-1.2-.3-.6-.6-1.3-.7-2 0-.7-2.2-12.4 6.4-32.9-3.2 3.9-12.1 17.2-9.9 32.8.1 1-1.4 1.7-3.2.2z" fill="#150201"/><path d="m627.7 225.1c.9.5 9.9 7.4 16.2 26.8.7 2-3.4 8.1-8.2 6.7-2.5-.7-8-33.5-8-33.5z" fill="#150201"/><path d="m593.9 223.6c-.6 1.7-12.1 21.8-8.3 37.1.8 3.4 5.5 13.9 22.1 14.1 4.7.1 9.8-1.9 13.8-4 9-4.7 14.9-6.9 14.1-18.3-.6-7.7-3.4-15.1-5.7-22.3-.7-2.2-1.6-4.3-2.9-6.3-20.9 11.5-33.1-.3-33.1-.3z" fill="#150201"/><path d="m624.4 237.5c-3 2.9-15.6 10.8-21.6 7.4-2.6-1.6-5-3.5-7.2-5.7 1 3.3 1.8 8.4 8.7 12.2 2.1 1.1 4.9.8 14-5.2 2.5-1.8 6.1-8.7 6.1-8.7z" fill="#fff"/><path d="m638.2 255.8c.4.6 1.2.7 1.8.3h.1c.5-.2.8-.6.9-1.1 0-.6-.4-1.1-1-1.2-1.1-.3-2.6.8-1.8 2z" fill="#fff"/><path d="m635.8 256.1c-.1.3 0 .6.3.7h.2c.4 0 .7-.3.9-.6 0 0 .1-.1.1-.1.1-.1.1-.2.1-.3 0-.3-.3-.5-.6-.5-.1 0-.1 0-.2 0-.4.1-.7.4-.8.8z" fill="#fff"/><path d="m637 258.4c0 .3.3.5.6.5.1 0 .2 0 .2-.1.3-.2.5-.6.5-.9v-.1c0-.1 0-.2 0-.3-.2-.3-.5-.3-.8-.2 0 0-.1.1-.1.1-.3.2-.4.6-.4 1z" fill="#fff"/><path d="m639.3 258.7c.1.2.2.2.3.2.3.2.8-.2.8-.6 0-.1 0-.1 0-.2s0-.2-.1-.3c0-.1-.1-.2-.2-.2-.2-.1-.4-.1-.6 0-.3.3-.5.9-.2 1.1z" fill="#fff"/><path d="m641 256.6c-.1.2-.1.5 0 .7 0 .1.1.1.1.2l.1.1h.1c.1 0 .1.1.2.1.1.1.3.1.4 0 .2 0 .3-.1.4-.2s.1-.4 0-.5c-.1-.5-.9-.8-1.3-.4z" fill="#fff"/><path d="m642.4 254.6c-.2 0-.4.2-.5.5v.2.1.1c0 .1 0 .1.1.2s.2.2.3.3.3.1.4.1c.2 0 .3-.2.3-.4.3-.4-.1-1.2-.6-1.1z" fill="#fff"/><path d="m583 257.6c.1.7.8 1.2 1.5 1.1.5.1 1.1-.2 1.3-.6.3-.5.1-1.2-.4-1.5-.8-.8-2.7-.5-2.4 1z" fill="#fff"/><path d="m580.6 259.4c-.2.2-.2.5 0 .7.1.1.1.1.2.1.4.1.8.1 1.1-.1l.1-.1c.1-.1.2-.1.2-.2.1-.3-.1-.6-.4-.7 0 0-.1 0-.2 0-.3-.1-.7.1-1 .3z" fill="#fff"/><path d="m580.4 257c-.2.2-.2.5 0 .7.1.1.1.1.2.1.4.2.9.1 1.2-.2.1-.1.2-.1.2-.2.1-.3 0-.6-.3-.7-.1 0-.1 0-.2 0-.5-.1-.8 0-1.1.3z" fill="#fff"/><path d="m582.7 260.7c0 .1 0 .1 0 0 0 .2 0 .3.2.3.2.3.8.2 1-.2 0-.1 0-.1 0-.2.1-.1.1-.2 0-.2 0-.1 0-.2-.1-.2 0-.2-.2-.4-.5-.3 0 0 0 0-.1 0-.2.1-.7.5-.5.8z" fill="#fff"/><path d="m585.2 259.8c-.2 0-.5.1-.6.4 0 .1-.1.1-.1.2v.1.2.2c0 .2.1.3.2.4s.3.2.4.2c.2 0 .4-.1.4-.3.3-.6.2-1.2-.3-1.4z" fill="#fff"/><path d="m586.7 258.4c-.3 0-.6.2-.7.5v.1.1.1.2c0 .1.1.3.2.4s.2.2.4.2.4-.1.4-.3c.4-.4.2-1.2-.3-1.3z" fill="#fff"/><path d="m635.6 128.2c.2.8-.3 1.7-1.1 1.9s-1.7-.3-1.9-1.1.3-1.7 1.1-1.9c.9-.2 1.7.3 1.9 1.1z" fill="#fff"/><path d="m558.1 130.5c.2.8-.3 1.7-1.1 1.9s-1.7-.3-1.9-1.1.3-1.7 1.1-1.9c.9-.2 1.7.3 1.9 1.1z" fill="#fff"/><path d="m584.1 52.2s-13.7 3.1-16.4 9.2 2.6 7.1 22.9 6.6 45-3.8 46.2-13-52.7-2.8-52.7-2.8" fill="#8fc31f"/><path d="m584 52.6s0-19.1 14.4-23.8c15-4.9 24.1-2.8 31.4 2.1s5.6 15.9 7.4 22.2c1.1 4.3-36.2-.7-53.2-.5" fill="#009e96"/><path d="m611.7 27.3c-.6-.1-1.2-.2-1.8-.4-1.3-.5-2.2-1.4.3-2.3 3.6-1.3 9.4 1.5 1.5 2.7" fill="#8fc31f"/><path d="m614 38.1c1.4 2.9.8 6.4-1.4 8.8-3 3.1-7.9 3.2-11.1.2-3.1-3-3.2-7.9-.2-11.1.4-.4.9-.8 1.4-1.2 2.5-1.6 5.7-1.6 8.3-.1 1.3.9 2.4 2 3 3.4" fill="#fff"/><path d="m606.3 37.3c.3-.1.6-.3.9-.2s.8.3.6.8c.3.3.6.7 1 .9.1 0 .1 0 .1-.1h-.1c.1-.1.4 0 .6-.1.1 0 .3 0 .4.1s.1.3.2.4h.1c.1.1.1.3.2.4.6.2.9.8 1.5 1.1.7.5 1.4.8 2.1 1.1 0 .1.1.1.1.1-.1 0-.2-.1-.3 0 .1.1.3 0 .4.2h-.2.1c-.1 0-.3.1-.3-.1-.5-.2-1.1-.4-1.6-.7.4.3.9.6 1.4.8.2.1.4.1.5.2-.1 0-.1 0-.2.1l-.1-.1v.1l.1.1c-.6-.2-1.2-.5-1.7-.9-.3-.1-.5-.2-.8-.4h-.1c.3.2.6.3.9.5-.6-.2-1.1-.6-1.6-1-.2-.2-.5-.5-.8-.4-.1.1-.3.1-.4.1s-.2-.1-.3 0-.3 0-.4.3c-.2.1-.5 0-.5.2v.2c-.3.2-.8.2-1 .5-.1.1-.2 0-.2.1h-.1c-.1 0-.1.1-.2.1s0-.1 0-.2-.2.2-.3.2c0-.1.1-.2.2-.3s-.2 0-.2.1.1-.1 0-.1c.1-.1.3-.1.3-.2h-.1l.4-.3s-.2-.1-.2 0c-.1-.1-.2 0-.2.1v-.1s.1-.1.2-.2c.2-.2.5-.3.7-.5-.1-.1-.2-.1-.2 0 .2 0 0-.2.2-.3 0-.2.2-.3.3-.4-.2-.2-.3-.5-.6-.6 0-.1-.2 0-.2-.1-.3 0-.6.2-.8-.1-.2 0-.3 0-.5 0-.1.1-.2.3-.2.4-.1.1-.2.3-.3.4-.1.2-.3.4-.5.6-.2.3-.5.2-.8.5v-.1c-.1 0-.1 0-.2.1-.1 0-.2.1-.2.2-.2.3-.7.4-1 .6-.5.2-.8.6-1.1 1-.1.2-.2.3-.4.4 0 .1-.2.2-.2.3.1-.1.2-.2.2-.4-.1.1-.1.2-.3.3s.1-.1 0-.2l-.2.2.2-.2c-.1 0-.2.2-.3.2s-.1.1-.2.1l.2-.3c-.1 0-.2.1-.3.1s0-.1-.1 0 .2-.1.2-.2-.1 0-.2.1.2-.2.1-.3c-.2 0-.2.2-.3.3.2-.3.4-.4.6-.7.3-.4.7-.7 1.1-.9.3-.2.8-.3 1-.7.1-.1.2-.3.2-.4l.1-.1c.2-.2.5-.3.8-.3.1-.1.4-.1.4-.3.3-.4.4-.9.7-1.4.1-.1.2-.4.4-.4.3-.3.8-.3 1.3-.3" fill="#009e96"/><path d="m600.3 38.2-.1-.2z" fill="#009e96"/><path d="m600.5 38.5c-.1 0-.1 0-.1-.1z" fill="#009e96"/><path d="m594 41.5c-.1-.1 0-.2.1-.2 0 0-.1.1-.1.2" fill="#009e96"/><path d="m597.4 39.9c-.1.1-.2.2-.2.3-.2 0-.2.2-.3.2 0-.1.2-.1.2-.2l.1-.1c0-.1.2-.1.1-.2z" fill="#009e96"/><path d="m596.9 40.2c0 .1-.1.1-.1.2 0-.2 0-.2.1-.2" fill="#009e96"/><path d="m597.3 40.4v-.1z" fill="#009e96"/><path d="m597.6 40.7c0 .1-.1.1-.1.1z" fill="#009e96"/><path d="m597.7 40.8c0 .1-.1.1-.2.2z" fill="#009e96"/><path d="m601.5 39.9c.1 0 .1.1.2.1v.1c-.1-.1-.3-.2-.3-.3 0 0 0 .1.1.1" fill="#009e96"/><path d="m604 40.1h-.2z" fill="#009e96"/><path d="m604.5 40.2c-.1 0-.3 0-.4-.1.1 0 .2.1.4.1" fill="#009e96"/><path d="m603.1 40.6-.2-.1h.1z" fill="#009e96"/><path d="m604.5 40.7h.1z" fill="#009e96"/><path d="m604.5 40.8h-.1z" fill="#009e96"/><path d="m587 159.8c3.6 6.8 10.3 11.9 19.2-.8.7-1 0-1.7-.9-1.3-5.4 2.7-11.6 3-17.3.9-.8-.4-1.5.2-1 1.2z" fill="#150405"/></svg>