<svg viewBox="0 0 773.25 493.45" xmlns="http://www.w3.org/2000/svg"><path d="m0 0h773.25v493.45h-773.25z" fill="#fff"/><path d="m359.41 29.49h244.19v330.67h-244.19z" fill="#231815"/><path d="m115 29.49h244.19v330.67h-244.19z" fill="#fff" stroke="#231815" stroke-miterlimit="10"/><path d="m268 115.57s2.27-25 18.58-24.76c0 0 19.12 1 19.87 13.8 0 0 7.81 20.75-10.95 25.94l-14.78 3.61z" fill="#231815"/><path d="m198.46 127.83s8.54-37.09-25.35-32.57c0 0-10.87 1.29-12.27 12.37 0 0-9.7 24.16 26.75 31.45z" fill="#231815"/><path d="m181.18 104.48s5.4 4 9.58 13.22l-14 10.89s-8.63-6.25-8.13-11.58 2.37-15.01 12.55-12.53z" fill="#373a36"/><path d="m274.42 111.19s6.19-12.49 14.91-9.43 7.28 22.88-11.26 20.87z" fill="#373a36"/><path d="m159.26 248.5c-34.73-31.66-18.21-75.46 17.35-127.95 8.78-13 82.76-40.12 113.53-2.34 17.1 21 30.88 44.68 32.88 56.66 2.79 16.79 7.7 47.57-14 67.16-2.44 2.21-78.33 68.55-149.76 6.47z" fill="#231815"/><path d="m265.76 171.86c1.42 5.68-.76 11.14-4.76 12.14s-8.51-2.77-9.93-8.44.74-11.09 4.8-12.11 8.48 2.74 9.89 8.41z" fill="#fff"/><path d="m261.87 172a4.45 4.45 0 1 1 -5.39-3.24 4.47 4.47 0 0 1 5.39 3.24z" fill="#150201"/><path d="m189 178.86c-1.71 5.6-6.35 9.13-10.36 7.9s-5.87-6.75-4.16-12.35 6.36-9.12 10.37-7.89 5.88 6.75 4.15 12.34z" fill="#fff"/><path d="m185.31 177a4.49 4.49 0 1 1 -3-5.61 4.49 4.49 0 0 1 3 5.61z" fill="#150201"/><path d="m218.22 177.2s33.44-1.47 33.79 23.86c0 0-5 21.79-32.76 20.32 0 0-32.81-4.93-28.51-26.29 0 0 6.44-17.35 27.48-17.89z" fill="#fff"/><path d="m209 185.47c-1.48.88-3 3.06-2.5 4.41s5.79 6.58 8.73 6.58 11.45-4.31 12.7-5.44.68-6.35-.68-6.68-7.16 1.94-11.68 1.47c-3.32-.34-6.05-.68-6.57-.34z" fill="#150201"/><path d="m209.28 186.18c-1.3.71-2.59 2.45-2.19 3.53s5.32 5.79 7.91 5.79 9.6-3.36 10.7-4.27.56-5.44-.6-5.35c-1.68.12-6 1.06-9.93.69-2.89-.27-5.39-.66-5.89-.39z" fill="#29201f"/><path d="m209.6 186.89c-1.11.54-2.23 1.84-1.89 2.65s4.87 5 7.1 5 7.75-2.42 8.7-3.1.45-4.4-.52-4c-2 .77-4.75.18-8.18-.1-2.5-.22-4.81-.65-5.21-.45z" fill="#403a39"/><path d="m211.37 299.15c-3.5-.13 1.15 27 2.18 29.47-1.69 0-3.55.87-3.51 2.68a11.74 11.74 0 0 0 5.94-.78c2.51-1.51.92-3.41 2.05-6a16.75 16.75 0 0 1 10.5-8.81c2.32-.62 4.14.14 4.84-.24a8.15 8.15 0 0 0 3.63-10.91c-3.36-7.66-19.35-5.19-25.63-5.41z" fill="#231815"/><path d="m255.87 303.91a48.49 48.49 0 0 1 -.48 6.26 84.79 84.79 0 0 1 -1.39 8.53c-.86 4.16-1.48 9.18-3.39 13 1.61.08 3.31 1.07 3.14 2.78a11.13 11.13 0 0 1 -5.58-1.15c-2.27-1.6-.63-3.3-1.52-5.8-1.37-3.83-5.92-8.33-9.49-10.34a17.46 17.46 0 0 0 -7.79-1.91c-2.76-.07.09-.49.43-2.95.07-.6-.39-1.08-.34-1.63.13-1.27-.09-2.2.57-3.44 2.92-5.52 9.51-3.26 14.27-4.6 2.78-.79 9.6-6.77 11.29-1.29a9.81 9.81 0 0 1 .28 2.54z" fill="#231815"/><path d="m263.09 290.08c2.41 1.12 4.22 5.62 2.73 8a1.59 1.59 0 0 1 -.4.37c-.19 1-.73 2-1.57 2a4.29 4.29 0 0 1 -1.09-.25c-.58 1.13-1.82 2.32-3.21 1.29a2.28 2.28 0 0 1 -.72-.87c-.81.51-1.75.71-2.22.08a5 5 0 0 1 -.64-1.29l-.31-.19c.02-.22 1.08-7.93 7.43-9.14z" fill="#150201"/><path d="m205.85 294c-2.34.7-4.59 4.56-3.56 6.94a1.83 1.83 0 0 0 .31.39c0 1 .4 1.95 1.17 2a4.08 4.08 0 0 0 1-.08c.37 1.11 2.09 2.54 2.93 1.68a3.54 3.54 0 0 0 .59-.79c.66.59 1.49.91 2 .39a4.66 4.66 0 0 0 .75-1.09c.11-.05.08-1.59.18-1.63a8 8 0 0 0 -5.37-7.81z" fill="#150201"/><path d="m216.13 266.59c-.85.26-14.47 11.64-14.07 32.11 0 1.88 3.27 7.92 7.35 4.69.9-.7.29-1.17.29-1.17a6.1 6.1 0 0 1 -.68-2c-.02-.64-1.5-13.22 7.11-33.63z" fill="#150201"/><path d="m202.43 300.38c1 2.4 3.79 5.54 7 3 .9-.7.29-1.17.29-1.17a6.1 6.1 0 0 1 -.68-2c0-.68-2.12-12.18 6.24-32.22-3.09 3.87-11.9 16.85-9.71 32.16.11 1.07-1.32 1.69-3.14.23z" fill="#231815"/><path d="m249.52 266.26c.85.45 9.72 7.3 15.9 26.27.65 2-3.29 7.9-8.05 6.61-2.44-.67-7.85-32.88-7.85-32.88z" fill="#150201"/><path d="m216.36 264.84c-.59 1.71-11.83 21.38-8.14 36.33.82 3.31 5.34 13.57 21.64 13.86 4.57.08 9.64-1.82 13.56-3.88 8.77-4.59 14.61-6.78 13.79-18-.55-7.52-3.31-14.81-5.58-21.84a24.71 24.71 0 0 0 -2.76-6.16c-20.51 11.21-32.51-.31-32.51-.31z" fill="#231815"/><path d="m246.33 278.48c-3 2.83-15.33 10.61-21.15 7.21a39 39 0 0 1 -7-5.58c.93 3.24 1.73 8.24 8.5 12 2 1.13 4.78.81 13.74-5.1 2.39-1.8 5.91-8.53 5.91-8.53z" fill="#fff"/><path d="m259.83 296.39a1.29 1.29 0 0 0 1.83.29 1.32 1.32 0 0 0 .91-1.09 1.14 1.14 0 0 0 -.95-1.14c-1.15-.28-2.62.77-1.79 1.94z" fill="#fff"/><path d="m257.44 296.65a.51.51 0 0 0 .51.69 1.24 1.24 0 0 0 .89-.56.54.54 0 0 0 .07-.13.51.51 0 0 0 .08-.29.56.56 0 0 0 -.78-.46 1.27 1.27 0 0 0 -.77.75z" fill="#fff"/><path d="m258.61 298.92a.51.51 0 0 0 .77.39 1.28 1.28 0 0 0 .54-.9.38.38 0 0 0 0-.15.52.52 0 0 0 -.05-.3.55.55 0 0 0 -.9 0 1.23 1.23 0 0 0 -.36.96z" fill="#fff"/><path d="m260.89 299.26v.06a.28.28 0 0 0 .25.16c.31.16.78-.21.78-.56 0-.08 0-.12 0-.18a.91.91 0 0 0 -.09-.33c0-.08-.08-.19-.17-.2a.5.5 0 0 0 -.62 0c-.2.22-.46.79-.15 1.05z" fill="#fff"/><path d="m262.59 297.17a.59.59 0 0 0 0 .65.46.46 0 0 0 .11.16h.08.05l.08.05a1 1 0 0 0 .17.1.56.56 0 0 0 .42 0 .49.49 0 0 0 .37-.24.42.42 0 0 0 0-.49.87.87 0 0 0 -1.28-.23z" fill="#fff"/><path d="m263.92 295.18c-.23 0-.4.22-.47.45a.69.69 0 0 0 0 .19s0 .05 0 .09a.13.13 0 0 0 0 .06.29.29 0 0 1 0 .09.76.76 0 0 0 .06.2.49.49 0 0 0 .3.28.52.52 0 0 0 .43.1.43.43 0 0 0 .34-.36c.2-.41-.18-1.13-.66-1.1z" fill="#fff"/><path d="m205.67 298.12a1.31 1.31 0 0 0 1.54 1.08 1.4 1.4 0 0 0 1.33-.63 1.18 1.18 0 0 0 -.38-1.48c-.92-.74-2.71-.4-2.49 1.03z" fill="#fff"/><path d="m203.39 299.94a.51.51 0 0 0 .17.86 1.29 1.29 0 0 0 1.05-.13l.12-.09a.52.52 0 0 0 .21-.23.57.57 0 0 0 -.51-.76 1.32 1.32 0 0 0 -1.04.35z" fill="#fff"/><path d="m203.14 297.57a.51.51 0 0 0 .17.85 1.25 1.25 0 0 0 1.05-.12 1.27 1.27 0 0 0 .12-.1.47.47 0 0 0 .21-.23.58.58 0 0 0 -.51-.76 1.32 1.32 0 0 0 -1.04.36z" fill="#fff"/><path d="m205.4 301.23a.11.11 0 0 0 0 .07.2.2 0 0 0 .15.24c.21.31.82.16 1-.16a.33.33 0 0 0 .05-.21.2.2 0 0 0 0-.25.2.2 0 0 0 -.11-.22.4.4 0 0 0 -.52-.3c-.26.05-.75.46-.57.83z" fill="#fff"/><path d="m207.84 300.26a.61.61 0 0 0 -.57.35.52.52 0 0 0 -.07.18.34.34 0 0 0 0 .1v.11s0 .06 0 .1a.45.45 0 0 0 0 .2.58.58 0 0 0 .24.36.47.47 0 0 0 .41.18.42.42 0 0 0 .41-.26.9.9 0 0 0 -.42-1.32z" fill="#fff"/><path d="m209.37 298.89a.61.61 0 0 0 -.58.32.61.61 0 0 0 -.08.18.34.34 0 0 0 0 .1s0 0 0 .05v.1a.67.67 0 0 0 0 .2.56.56 0 0 0 .23.37.48.48 0 0 0 .4.2.41.41 0 0 0 .42-.25.89.89 0 0 0 -.39-1.27z" fill="#fff"/><path d="m257.31 171.36a1.52 1.52 0 1 1 -1.85-1.11 1.53 1.53 0 0 1 1.85 1.11z" fill="#fff"/><path d="m181.34 173.61a1.52 1.52 0 1 1 -1.85-1.11 1.51 1.51 0 0 1 1.85 1.11z" fill="#fff"/><path d="m206.82 96.89s-13.43 3-16 9 2.52 6.91 22.42 6.42 44.12-3.7 45.31-12.78-51.68-2.68-51.68-2.68" fill="#8fc31f"/><path d="m206.71 97.24s0-18.73 14.12-23.31c14.67-4.76 23.66-2.72 30.79 2.11s5.53 15.56 7.22 21.78c1.12 4.1-35.45-.77-52.13-.58" fill="#009e96"/><path d="m233.87 72.42a10.33 10.33 0 0 1 -1.8-.41c-1.26-.48-2.16-1.36.27-2.22 3.56-1.28 9.26 1.49 1.53 2.63" fill="#8fc31f"/><path d="m236.06 83a7.77 7.77 0 0 1 -1.34 8.61 7.66 7.66 0 1 1 -9.66-11.76 7.74 7.74 0 0 1 8.1-.1 8 8 0 0 1 2.9 3.25" fill="#fff"/><g fill="#009e96"><path d="m228.51 82.28c.26-.11.59-.33.89-.15s.74.33.62.75a6 6 0 0 0 1 .9.12.12 0 0 0 .14-.09h-.09c.11-.1.38 0 .55-.07a.42.42 0 0 1 .36.12 4.1 4.1 0 0 0 .23.4h.06c.11.13.14.26.24.38.59.15.91.81 1.44 1.07a8.2 8.2 0 0 0 2.09 1c0 .11.08.1.13.13a.38.38 0 0 0 -.31 0c.1.14.34 0 .39.21h-.24.1c-.14 0-.27.08-.35-.09a9.24 9.24 0 0 1 -1.52-.72 6.27 6.27 0 0 0 1.35.76c.15.08.36.11.46.25-.06 0-.13 0-.15.09l-.11-.06v.06l.09.06a6.46 6.46 0 0 1 -1.71-.84c-.25-.14-.5-.25-.75-.41h-.09c.28.19.58.3.86.47a4.52 4.52 0 0 1 -1.55-1c-.18-.16-.47-.51-.77-.42-.1.07-.28.07-.39.14s-.19-.1-.28 0-.34 0-.37.26-.44 0-.47.24v.07c-.31.17-.73.16-.94.48-.06.06-.19 0-.24.08h-.06c-.09 0-.12 0-.18.06s.05-.09 0-.14-.19.14-.31.21c0-.13.15-.15.19-.27s-.14 0-.2.07.09-.14 0-.13c.07-.14.25-.1.3-.24h-.14c.13-.11.26-.24.36-.34s-.16-.12-.23 0v-.05c-.07-.06-.15.05-.23.06l.15-.18a7.51 7.51 0 0 1 .68-.47.16.16 0 0 0 -.25 0c.2 0 0-.24.19-.28a.66.66 0 0 1 .3-.42c-.22-.17-.33-.52-.57-.62 0-.14-.16 0-.19-.13-.29 0-.61.18-.82-.07a1.49 1.49 0 0 0 -.47 0c-.12.12-.15.3-.23.42a1.41 1.41 0 0 0 -.26.43 1.4 1.4 0 0 1 -.52.56c-.16.26-.54.19-.75.46v-.07a.15.15 0 0 0 -.15.11c-.12 0-.18.11-.22.17-.25.31-.7.35-1 .61-.52.15-.73.57-1.06 1a2.37 2.37 0 0 1 -.35.42c0 .12-.15.19-.2.25.05-.11.18-.22.19-.34-.11.06-.14.21-.28.28s.07-.11 0-.17l-.19.15.16-.25c-.1 0-.18.2-.29.21a.14.14 0 0 1 -.14.06 2.74 2.74 0 0 0 .24-.28c-.11 0-.21.1-.3.09s0-.1-.1-.06a.41.41 0 0 0 .17-.22c-.07 0-.13 0-.19.08s.15-.14.1-.27c-.21 0-.15.19-.33.26.16-.26.4-.42.56-.69a4.59 4.59 0 0 1 1.09-.92c.32-.21.76-.35 1-.68a2.65 2.65 0 0 0 .23-.39l.07-.07a1.52 1.52 0 0 1 .77-.3c.11-.13.36-.08.43-.26.3-.43.39-.93.65-1.36.09-.13.19-.35.37-.41a7.89 7.89 0 0 1 1.4.16"/><path d="m222.68 83.13-.11-.19.11.16z"/><path d="m222.88 83.41c-.06 0-.06 0-.1-.08z"/><path d="m216.47 86.35c-.08-.09 0-.15.07-.24a.73.73 0 0 1 -.07.24"/><path d="m217.07 85.16v-.01l.05-.02z"/><path d="m216.77 85.34-.07.09z"/><path d="m219.8 84.79c-.06.09-.2.18-.19.27-.15 0-.2.19-.31.22 0-.13.19-.1.18-.23l.09-.13c0-.06.2-.08.12-.19z"/><path d="m219.33 85a.25.25 0 0 1 -.13.18c0-.09.06-.11.13-.18"/><path d="m219.76 85.24-.04.01-.02-.04.05-.02z"/><path d="m219.66 85.33-.02.08-.05.01.04-.1z"/><path d="m220 85.54c0 .07-.07.09-.1.12v-.07z"/><path d="m220.1 85.63c0 .07-.11.1-.17.15l.1-.15z"/><path d="m223.82 84.77c.07 0 .13.08.18.12v.06a1.18 1.18 0 0 1 -.33-.3c.06 0 .1.11.18.12"/><path d="m226.26 85h-.16z"/><path d="m226.75 85.09c-.14 0-.31 0-.43 0a.88.88 0 0 1 .43 0"/><path d="m225.39 85.45-.21-.09.13.03z"/><path d="m226.83 85.56.01-.03.04.03z"/><path d="m226.79 85.66-.06.01-.01-.03z"/></g><path d="m209.63 202.24c3.53 6.65 10.09 11.66 18.82-.79.68-1 0-1.7-.86-1.28a21.5 21.5 0 0 1 -16.94.9c-.8-.31-1.49.29-1.02 1.17z" fill="#150405"/><path d="m525.67 115.57s2.27-25 18.57-24.76c0 0 19.12 1 19.88 13.8 0 0 7.81 20.75-11 25.94l-14.78 3.61z" fill="#231815"/><path d="m456.12 127.83s8.54-37.09-25.35-32.57c0 0-10.88 1.29-12.27 12.37 0 0-9.7 24.16 26.74 31.45z" fill="#231815"/><path d="m438.84 104.48s5.4 4 9.58 13.22l-14 10.89s-8.64-6.25-8.14-11.58 2.33-15.01 12.56-12.53z" fill="#373a36"/><path d="m532.08 111.19s6.18-12.49 14.91-9.43 7.28 22.88-11.26 20.87z" fill="#373a36"/><path d="m416.92 248.5c-34.73-31.66-18.21-75.46 17.35-127.95 8.78-13 82.76-40.12 113.53-2.34 17.09 21 30.87 44.68 32.88 56.66 2.79 16.79 7.69 47.57-14 67.16-2.44 2.21-78.34 68.55-149.76 6.47z" fill="#231815"/><path d="m523.42 171.86c1.42 5.68-.73 11.11-4.79 12.12s-8.52-2.77-9.93-8.44.73-11.09 4.79-12.11 8.51 2.76 9.93 8.43z" fill="#fff"/><path d="m519.53 172a4.45 4.45 0 1 1 -5.39-3.24 4.47 4.47 0 0 1 5.39 3.24z" fill="#150201"/><path d="m446.68 178.86c-1.71 5.6-6.35 9.13-10.36 7.9s-5.87-6.75-4.16-12.35 6.36-9.12 10.37-7.89 5.86 6.75 4.15 12.34z" fill="#fff"/><path d="m443 177a4.49 4.49 0 1 1 -3-5.61 4.49 4.49 0 0 1 3 5.61z" fill="#150201"/><path d="m475.87 177.2s33.44-1.47 33.79 23.86c0 0-5 21.79-32.75 20.32 0 0-32.82-4.93-28.52-26.29 0 0 6.45-17.35 27.48-17.89z" fill="#fff"/><path d="m466.62 185.47c-1.48.88-2.95 3.06-2.5 4.41s5.79 6.58 8.73 6.58 11.45-4.31 12.7-5.44.67-6.35-.68-6.68-7.17 1.94-11.68 1.47c-3.28-.34-6.01-.68-6.57-.34z" fill="#150201"/><path d="m466.94 186.18c-1.3.71-2.59 2.45-2.2 3.53s5.33 5.79 7.92 5.79 9.6-3.36 10.7-4.27.56-5.44-.61-5.35c-1.68.12-5.95 1.06-9.92.69-2.89-.27-5.39-.66-5.89-.39z" fill="#29201f"/><path d="m467.26 186.89c-1.12.54-2.24 1.84-1.89 2.65s4.86 5 7.1 5 7.75-2.42 8.7-3.1.45-4.4-.53-4c-2 .77-4.74.18-8.17-.1-2.47-.22-4.78-.65-5.21-.45z" fill="#403a39"/><path d="m469 299.15c-3.51-.13 1.15 27 2.17 29.47-1.69 0-3.55.87-3.5 2.68a11.74 11.74 0 0 0 5.94-.78c2.51-1.51.92-3.41 2.05-6a16.76 16.76 0 0 1 10.49-8.81c2.33-.62 4.14.14 4.84-.24a8.15 8.15 0 0 0 3.63-10.94c-3.33-7.63-19.31-5.16-25.62-5.38z" fill="#231815"/><path d="m513.53 303.91a50.34 50.34 0 0 1 -.48 6.26c-.3 2.87-.85 5.71-1.43 8.53-.87 4.16-1.48 9.18-3.39 13 1.61.08 3.3 1.07 3.13 2.78a11.11 11.11 0 0 1 -5.57-1.15c-2.27-1.6-.63-3.3-1.52-5.8-1.38-3.83-5.92-8.33-9.5-10.34a17.38 17.38 0 0 0 -7.78-1.91c-2.76-.07.08-.49.42-2.95.08-.6-.38-1.08-.33-1.63.13-1.27-.09-2.2.56-3.44 2.93-5.52 9.51-3.26 14.28-4.6 2.78-.79 9.6-6.77 11.29-1.29a10.28 10.28 0 0 1 .32 2.54z" fill="#231815"/><path d="m520.75 290.08c2.41 1.12 4.22 5.62 2.74 8a1.59 1.59 0 0 1 -.4.37c-.19 1-.74 2-1.57 2a4.47 4.47 0 0 1 -1.1-.25c-.58 1.13-1.81 2.32-3.21 1.29a2.37 2.37 0 0 1 -.72-.87c-.8.51-1.74.71-2.21.08a5.37 5.37 0 0 1 -.65-1.29l-.3-.19c.01-.22 1.07-7.93 7.42-9.14z" fill="#150201"/><path d="m463.5 294c-2.34.7-4.59 4.56-3.55 6.94a1.83 1.83 0 0 0 .31.39c0 1 .4 1.95 1.17 2a4 4 0 0 0 1-.08c.38 1.11 2.09 2.54 2.94 1.68a3.87 3.87 0 0 0 .59-.79c.65.59 1.49.91 2 .39a4.35 4.35 0 0 0 .74-1.09c.11-.05.08-1.59.19-1.63a8 8 0 0 0 -5.39-7.81z" fill="#150201"/><path d="m473.79 266.59c-.86.26-14.47 11.64-14.07 32.11 0 1.88 3.27 7.92 7.35 4.69.89-.7.28-1.17.28-1.17a5.92 5.92 0 0 1 -.67-2c-.02-.64-1.5-13.22 7.11-33.63z" fill="#150201"/><path d="m460.09 300.38c1 2.4 3.78 5.54 7 3 .89-.7.28-1.17.28-1.17a5.92 5.92 0 0 1 -.67-2c0-.68-2.12-12.18 6.23-32.22-3.09 3.87-11.89 16.85-9.7 32.16.11 1.07-1.32 1.69-3.14.23z" fill="#231815"/><path d="m507.18 266.26c.85.45 9.72 7.3 15.9 26.27.65 2-3.29 7.9-8.05 6.61-2.45-.67-7.85-32.88-7.85-32.88z" fill="#150201"/><path d="m474 264.84c-.6 1.71-11.83 21.38-8.14 36.33.82 3.31 5.34 13.57 21.63 13.86 4.58.08 9.65-1.82 13.56-3.88 8.77-4.59 14.62-6.78 13.79-18-.54-7.52-3.31-14.81-5.57-21.84a24.71 24.71 0 0 0 -2.76-6.16c-20.51 11.21-32.51-.31-32.51-.31z" fill="#231815"/><path d="m504 278.48c-3 2.83-15.33 10.61-21.15 7.21a38.29 38.29 0 0 1 -7-5.58c.93 3.24 1.73 8.24 8.5 12 2 1.13 4.78.81 13.73-5.1 2.38-1.8 5.92-8.53 5.92-8.53z" fill="#fff"/><path d="m517.49 296.39a1.27 1.27 0 0 0 1.82.29 1.32 1.32 0 0 0 .92-1.09 1.14 1.14 0 0 0 -1-1.14c-1.1-.28-2.53.77-1.74 1.94z" fill="#fff"/><path d="m515.1 296.65a.51.51 0 0 0 .51.69 1.26 1.26 0 0 0 .89-.56.31.31 0 0 0 .06-.13.52.52 0 0 0 .09-.29.56.56 0 0 0 -.78-.46 1.27 1.27 0 0 0 -.77.75z" fill="#fff"/><path d="m516.27 298.92a.51.51 0 0 0 .77.39 1.31 1.31 0 0 0 .54-.9.76.76 0 0 0 0-.15.52.52 0 0 0 -.05-.3.56.56 0 0 0 -.91 0 1.26 1.26 0 0 0 -.35.96z" fill="#fff"/><path d="m518.55 299.26.05.06a.28.28 0 0 0 .24.16c.32.16.79-.21.79-.56 0-.08 0-.12 0-.18a.72.72 0 0 0 -.08-.33c0-.08-.08-.19-.18-.2a.48.48 0 0 0 -.61 0c-.26.22-.52.79-.21 1.05z" fill="#fff"/><path d="m520.25 297.17a.57.57 0 0 0 0 .65.41.41 0 0 0 .1.16h.09l.08.05.18.1a.56.56 0 0 0 .42 0 .49.49 0 0 0 .37-.24.42.42 0 0 0 0-.49.87.87 0 0 0 -1.24-.23z" fill="#fff"/><path d="m521.57 295.18c-.23 0-.39.22-.46.45a.45.45 0 0 0 0 .19s0 .05 0 .09a.13.13 0 0 0 0 .06s0 .06 0 .09a1.46 1.46 0 0 0 0 .2.54.54 0 0 0 .31.28.5.5 0 0 0 .43.1.43.43 0 0 0 .34-.36c.25-.41-.13-1.13-.62-1.1z" fill="#fff"/><path d="m463.33 298.12a1.31 1.31 0 0 0 1.54 1.08 1.37 1.37 0 0 0 1.32-.63 1.17 1.17 0 0 0 -.37-1.48c-.93-.74-2.71-.4-2.49 1.03z" fill="#fff"/><path d="m461 299.94a.52.52 0 0 0 .17.86 1.31 1.31 0 0 0 1.06-.13l.12-.09a.56.56 0 0 0 .2-.23.57.57 0 0 0 -.51-.76 1.33 1.33 0 0 0 -1.04.35z" fill="#fff"/><path d="m460.79 297.57a.51.51 0 0 0 .17.85 1.09 1.09 0 0 0 1.18-.22.5.5 0 0 0 .2-.23.57.57 0 0 0 -.51-.76 1.34 1.34 0 0 0 -1.04.36z" fill="#fff"/><path d="m463.05 301.23a.11.11 0 0 0 0 .07.21.21 0 0 0 .16.24c.21.31.82.16 1-.16a.33.33 0 0 0 .05-.21h.05a.22.22 0 0 0 0-.25.2.2 0 0 0 -.12-.22.39.39 0 0 0 -.52-.3c-.3.05-.8.46-.62.83z" fill="#fff"/><path d="m465.5 300.26a.61.61 0 0 0 -.57.35.38.38 0 0 0 -.07.18s0 .07 0 .1v.15a.45.45 0 0 0 0 .2.55.55 0 0 0 .24.36.46.46 0 0 0 .41.18.39.39 0 0 0 .4-.26.89.89 0 0 0 -.41-1.26z" fill="#fff"/><path d="m467 298.89a.69.69 0 0 0 -.66.5s0 .07 0 .1a0 0 0 0 0 0 .05s0 .07 0 .1a.67.67 0 0 0 0 .2.55.55 0 0 0 .22.37.51.51 0 0 0 .41.2.4.4 0 0 0 .41-.25.88.88 0 0 0 -.38-1.27z" fill="#fff"/><path d="m515 171.36a1.52 1.52 0 1 1 -1.84-1.11 1.52 1.52 0 0 1 1.84 1.11z" fill="#fff"/><path d="m439 173.61a1.52 1.52 0 1 1 -1.84-1.11 1.5 1.5 0 0 1 1.84 1.11z" fill="#fff"/><path d="m464.48 96.89s-13.43 3-16.06 9 2.53 6.91 22.42 6.42 44.13-3.7 45.31-12.78-51.67-2.68-51.67-2.68" fill="#8fc31f"/><path d="m464.36 97.24s0-18.73 14.13-23.31c14.67-4.76 23.65-2.72 30.79 2.11s5.53 15.56 7.22 21.78c1.11 4.1-35.45-.77-52.14-.58" fill="#009e96"/><path d="m491.53 72.42a10.58 10.58 0 0 1 -1.81-.41c-1.25-.48-2.15-1.36.27-2.22 3.56-1.28 9.27 1.49 1.54 2.63" fill="#8fc31f"/><path d="m493.72 83a7.77 7.77 0 0 1 -1.34 8.61 7.66 7.66 0 1 1 -9.66-11.76 7.73 7.73 0 0 1 8.09-.1 8 8 0 0 1 2.91 3.25" fill="#fff"/><path d="m486.17 82.28c.26-.11.59-.33.88-.15s.74.33.63.75a6 6 0 0 0 1 .9c.08 0 .11 0 .14-.09h-.1c.11-.1.39 0 .56-.07a.42.42 0 0 1 .36.12 2.05 2.05 0 0 0 .23.4h.06c.1.13.14.26.23.38.59.15.92.81 1.45 1.07a8 8 0 0 0 2.09 1c0 .11.08.1.13.13-.1 0-.22-.09-.31 0 .1.14.34 0 .39.21h-.24.09c-.13 0-.26.08-.34-.09a9.75 9.75 0 0 1 -1.53-.72 6 6 0 0 0 1.35.76c.15.08.36.11.45.25s-.12 0-.14.09l-.12-.06v.06l.1.06a6.46 6.46 0 0 1 -1.71-.84c-.25-.14-.5-.25-.75-.41h-.09c.28.19.57.3.86.47a4.65 4.65 0 0 1 -1.56-1c-.18-.16-.47-.51-.76-.42-.1.07-.28.07-.4.14s-.19-.1-.28 0-.33 0-.36.26-.44 0-.47.24v.07c-.3.17-.73.16-.93.48-.06.06-.19 0-.24.08h-.06c-.09 0-.12 0-.19.06s.05-.09 0-.14c-.16 0-.19.14-.31.21 0-.13.14-.15.19-.27s-.14 0-.2.07.09-.14 0-.13c.07-.14.25-.1.29-.24h-.13l.36-.34c-.05 0-.16-.12-.23 0v-.05c-.07-.06-.15.05-.23.06s.09-.12.15-.18a6.32 6.32 0 0 1 .68-.47.17.17 0 0 0 -.26 0c.21 0 0-.24.2-.28a.65.65 0 0 1 .29-.42c-.21-.17-.32-.52-.56-.62 0-.14-.16 0-.19-.13-.29 0-.61.18-.82-.07a1.55 1.55 0 0 0 -.48 0 2.91 2.91 0 0 0 -.23.42 1.39 1.39 0 0 0 -.25.43 1.42 1.42 0 0 1 -.53.56c-.17.26-.55.19-.75.46v-.07a.15.15 0 0 0 -.15.11c-.12 0-.19.11-.23.17-.24.31-.69.35-1 .61-.52.15-.74.57-1.06 1a2.37 2.37 0 0 1 -.35.42c0 .12-.15.19-.21.25.06-.11.19-.22.2-.34-.12.06-.15.21-.28.28s.07-.11 0-.17l-.18.15.15-.25c-.09 0-.18.2-.28.21s-.08.06-.15.06a2.74 2.74 0 0 0 .24-.28c-.11 0-.21.1-.31.09s0-.1-.09-.06.15-.12.17-.22-.14 0-.2.08.16-.14.11-.27c-.21 0-.16.19-.33.26.15-.26.4-.42.55-.69a4.85 4.85 0 0 1 1.1-.92c.32-.21.75-.35 1-.68a2.74 2.74 0 0 0 .24-.39l.07-.07a1.49 1.49 0 0 1 .76-.3c.11-.13.36-.08.44-.26.3-.43.38-.93.65-1.36.09-.13.19-.35.36-.41a7.9 7.9 0 0 1 1.41.16" fill="#009e96"/><path d="m480.34 83.13-.11-.19.1.16z" fill="#009e96"/><path d="m480.54 83.41c-.07 0-.06 0-.1-.08z" fill="#009e96"/><path d="m474.12 86.35c-.07-.09 0-.15.07-.24a.44.44 0 0 1 -.07.24" fill="#009e96"/><path d="m474.73 85.16v-.01l.05-.02z" fill="#009e96"/><path d="m474.43 85.34-.07.09z" fill="#009e96"/><path d="m477.46 84.79c-.06.09-.2.18-.19.27-.16 0-.21.19-.31.22 0-.13.19-.1.17-.23l.1-.13c0-.06.2-.08.11-.19z" fill="#009e96"/><path d="m477 85a.32.32 0 0 1 -.13.18c0-.09.06-.11.13-.18" fill="#009e96"/><path d="m477.42 85.24-.04.01-.02-.04.04-.02z" fill="#009e96"/><path d="m477.32 85.33-.02.08-.05.01.04-.1z" fill="#009e96"/><path d="m477.69 85.54c0 .07-.07.09-.09.12v-.07z" fill="#009e96"/><path d="m477.76 85.63c0 .07-.11.1-.17.15l.1-.15z" fill="#009e96"/><path d="m481.48 84.77c.07 0 .12.08.18.12v.06a1.18 1.18 0 0 1 -.33-.3c.05 0 .1.11.18.12" fill="#009e96"/><path d="m483.92 85h-.17z" fill="#009e96"/><path d="m484.41 85.09c-.15 0-.31 0-.43 0a.9.9 0 0 1 .43 0" fill="#009e96"/><path d="m483.05 85.45-.22-.09.14.03z" fill="#009e96"/><path d="m484.49 85.56v-.03l.05.03z" fill="#009e96"/><path d="m484.45 85.66-.07.01v-.03z" fill="#009e96"/><path d="m467.29 202.24c3.53 6.65 10.08 11.66 18.82-.79.68-1 0-1.7-.87-1.28a21.5 21.5 0 0 1 -16.94.9c-.79-.31-1.48.29-1.01 1.17z" fill="#150405"/><path d="m446.13 375.82c0-.07 0-.15 0-.23s0-.16 0-.24a1.34 1.34 0 0 0 0-.21.63.63 0 0 0 0-.16h.33.27.13s0 .07-.1.12v.05a.86.86 0 0 0 0 .13s0 .13 0 .22v1.72.42s0 .3 0 .42h-.56q0-.13 0-.33c0-.13 0-.25 0-.36l-.74.13-.61.12-.52.12-.46.13a1.72 1.72 0 0 0 -.11-.3 1.53 1.53 0 0 0 -.16-.26c.33 0 .7 0 1.12-.09s.92-.13 1.48-.24v-.81h-2a1.69 1.69 0 0 0 -.33 0v-.51h.34 2zm-.8 6.87h-.58c0-.16 0-.31 0-.44s0-.25 0-.36 0-.22 0-.32v-2.37c0-.19 0-.35 0-.48a2 2 0 0 0 -.05-.36c.33 0 .72 0 1.17.05s.95 0 1.48 0 1.17 0 1.6 0 .79 0 1.1-.05a2.63 2.63 0 0 0 -.06.39v.45 2.67a1.27 1.27 0 0 1 -.05.37.47.47 0 0 1 -.24.24 1.77 1.77 0 0 1 -.54.13 7.93 7.93 0 0 1 -1 .05.74.74 0 0 0 -.19-.63c.33.05.58.08.78.09a2.44 2.44 0 0 0 .44 0 .31.31 0 0 0 .2-.14.46.46 0 0 0 0-.21v-.65h-4.19zm4.19-3.1v-.78h-4.19v.78zm-4.19.38v.73h4.19v-.7zm3.12-3.83.65-.2.51-.17a3.76 3.76 0 0 0 .39-.17l.31-.18a1.36 1.36 0 0 0 .38.44c.06.05.08.1.06.14s-.07.05-.17 0h-.17l-.34.07-.62.16-1 .28v.49a1.41 1.41 0 0 0 0 .33.27.27 0 0 0 .15.18.82.82 0 0 0 .33.09h.6a4.24 4.24 0 0 0 .57 0 .71.71 0 0 0 .34-.14.52.52 0 0 0 .16-.28 3.47 3.47 0 0 0 .08-.47.89.89 0 0 0 .5.33 3.44 3.44 0 0 1 -.19.53.91.91 0 0 1 -.27.31 1.14 1.14 0 0 1 -.46.14 7.56 7.56 0 0 1 -.76 0c-.36 0-.65 0-.86 0a1 1 0 0 1 -.47-.14.47.47 0 0 1 -.21-.3 2.39 2.39 0 0 1 0-.51v-1.17c0-.23 0-.42 0-.56s0-.27 0-.36a2.23 2.23 0 0 0 .34 0h.31c.18 0 .19.05.05.17a.35.35 0 0 0 -.17.28z" fill="#383736"/><path d="m455.61 378.37-.17-.17-.24-.2.4-.28c.07.06.12.13.17.18l.13.15.11.15.14.17h1.23.94.74.64v.55h-.66-.76-1-2.72-1-.8-.68v-.55h.65.76.95zm-1.2 3.09a.41.41 0 0 0 -.19.06l-.32.19a6.66 6.66 0 0 1 -.59.38l-.77.4a1.47 1.47 0 0 0 -.16-.27.94.94 0 0 0 -.23-.2c.25-.09.47-.17.66-.26s.35-.17.51-.26a3.29 3.29 0 0 0 .44-.28l.41-.34.13.21a.54.54 0 0 0 .15.15c.07.07.1.12.09.16s-.05.06-.13.06zm4-3.74q-.89 0-2.61 0h-1.49c-.43 0-.8 0-1.1 0 0-.14 0-.31 0-.52s0-.4 0-.59 0-.4 0-.62 0-.4 0-.54h1.1 1.5 1.5 1.1v.6 1.15c0 .22.01.39.02.52zm-2.16 4.34a1.53 1.53 0 0 1 0 .35.33.33 0 0 1 -.17.2 1.1 1.1 0 0 1 -.4.1c-.17 0-.41 0-.72.06a.94.94 0 0 0 -.08-.31 1 1 0 0 0 -.2-.3 5.7 5.7 0 0 0 .58.06.92.92 0 0 0 .33 0 .19.19 0 0 0 .15-.12.56.56 0 0 0 0-.2v-1.17h-1.4l-1 .05c0-.14 0-.26 0-.36s0-.25 0-.44v-.25c0-.07 0-.13 0-.19s0-.12 0-.18a1.24 1.24 0 0 0 0-.18h1.06 1.46 1.46 1.07a1.23 1.23 0 0 0 0 .19v1.05.35c-.27 0-.57 0-.9 0h-1.2zm1.64-6.16h-4.13v.56h4.13zm-4.13 1.42h4.13v-.52h-4.13zm4.08 2.26h-4v.72h4zm1.21 2.76a9.71 9.71 0 0 0 -1-.56c-.33-.16-.68-.31-1-.46l.26-.44 1.12.51 1 .48z" fill="#383736"/><path d="m461.45 378.44v1.19s0 .64 0 .89a5.54 5.54 0 0 1 -.07.67 3.81 3.81 0 0 1 -.12.51 2.26 2.26 0 0 1 -.17.43c-.07.13-.15.28-.24.42l-.17-.1-.12-.06h-.12-.14a5.55 5.55 0 0 0 .42-.72 2.94 2.94 0 0 0 .24-.82 6.6 6.6 0 0 0 .06-1.15c0-.45-.05-1-.12-1.69h.34.49.56.54 1a5.77 5.77 0 0 0 .67-.07v.5a2.17 2.17 0 0 0 -.38 0h-.6a.69.69 0 0 0 .18.17.51.51 0 0 0 .21.09.08.08 0 0 1 .06.1c0 .06-.06.09-.14.09a.46.46 0 0 0 -.19 0l-.16.09-.24.2-.27.21-.37.26-.52.36a.46.46 0 0 0 -.16-.18 1.06 1.06 0 0 0 -.3-.14 5.38 5.38 0 0 0 .6-.28c.19-.11.38-.23.55-.35a3.38 3.38 0 0 0 .44-.35 1.37 1.37 0 0 0 .27-.31zm2.85-2.1a6.32 6.32 0 0 0 -.7-.06c-.27 0-.59 0-1 0s-.71 0-1 0a6.51 6.51 0 0 0 -.72.06v-.51a6.51 6.51 0 0 0 .72.06h1s.7 0 1 0a6.32 6.32 0 0 0 .7-.06zm-1.51.55.24-.15.2-.15.18-.13.17-.15a.64.64 0 0 0 .12.21.55.55 0 0 0 .14.12c.07 0 .1.08.08.12s-.06.06-.16.06l-.17.05a3.2 3.2 0 0 0 -.41.21l.5.25.56.31-.24.36a6.78 6.78 0 0 0 -.59-.42 5.65 5.65 0 0 0 -.53-.29l-.24.15c-.09.05-.18.11-.29.16l-.39.18-.54.23-.06-.14-.05-.1-.08-.07-.12-.08a7 7 0 0 0 .73-.23c.23-.09.44-.19.65-.29l-.35-.17-.28-.12-.23-.08-.21-.08.22-.33.66.31zm1.75 3.7a.11.11 0 0 1 .06.13s-.06.08-.13.06h-.12l-.15.06-.2.16-.3.24-.37.32-.38.29-.46.31-.57.38a.4.4 0 0 0 -.17-.23 1 1 0 0 0 -.31-.16c.31-.14.59-.27.82-.39a6.08 6.08 0 0 0 .66-.4 5.09 5.09 0 0 0 .58-.48 8 8 0 0 0 .62-.65 1 1 0 0 0 .23.23zm-.28-1.1c.08 0 .12.08.11.12s-.05.06-.12.05a.37.37 0 0 0 -.17 0 .89.89 0 0 0 -.24.17l-.25.21-.33.26-.46.35-.67.48a1.12 1.12 0 0 0 -.2-.18 1.1 1.1 0 0 0 -.27-.14 7.29 7.29 0 0 0 1.34-.81 4 4 0 0 0 .85-.83 2.31 2.31 0 0 0 .21.18zm-1.41-3.6a3.85 3.85 0 0 0 -.44-.39 3.94 3.94 0 0 0 -.5-.33l.31-.3.28.2.22.17.21.18.22.2zm3 5.78a.61.61 0 0 0 -.24 0 .66.66 0 0 0 -.26.2l-.57.55c-.17.14-.34.28-.54.42a.54.54 0 0 0 -.18-.19 1.85 1.85 0 0 0 -.29-.17 4 4 0 0 0 .85-.54 5.37 5.37 0 0 0 .86-.86 1.83 1.83 0 0 0 .41.32c.07 0 .1.07.08.14a.1.1 0 0 1 -.09.13zm.19-5.71h-.84-.37-.28v-.5h.29.38 2.28c.29 0 .52 0 .69-.05v.5h-.27-.32-.45-.63q0 .19-.12.42l-.17.54h.43.46.42a.91.91 0 0 0 .27 0 3.53 3.53 0 0 0 0 .36v.54 2.43.5a3.84 3.84 0 0 0 0 .39h-.24-.32-2-.29-.23c0-.12 0-.26 0-.41s0-.32 0-.48v-2.43c0-.17 0-.33 0-.5s0-.3 0-.4h.16.18.67a3.68 3.68 0 0 0 .17-.44 3 3 0 0 0 .16-.43zm1.26 1.32h-2v.81h2zm0 1.18h-2v.86h2zm0 1.23h-2v.92h2zm.74 3.1a3.89 3.89 0 0 0 -.29-.3l-.36-.34-.4-.34-.38-.28.28-.34c.31.22.58.43.82.62s.48.39.7.59z" fill="#383736"/><path d="m470.17 377.61-.3.31-.36.35a1.24 1.24 0 0 0 -.23-.23 1.12 1.12 0 0 0 -.29-.14 6.88 6.88 0 0 0 1.47-1.29 7.9 7.9 0 0 0 1.15-1.78.94.94 0 0 0 .24.18 1.17 1.17 0 0 0 .25.11q.15.06.15.12c0 .05-.06.09-.16.13a.69.69 0 0 0 -.23.18 4.91 4.91 0 0 0 -.33.43h3 .4.29l-1.56 1.74h1.34a6.53 6.53 0 0 0 .72-.05v.61.66.7s0 .42 0 .57h-.2-4.78v1.27a.9.9 0 0 0 0 .25.4.4 0 0 0 .13.18.71.71 0 0 0 .26.1 2.11 2.11 0 0 0 .43.06h.86.9.85.72a2.81 2.81 0 0 0 .6-.08.68.68 0 0 0 .37-.18.62.62 0 0 0 .21-.34 2.3 2.3 0 0 0 .11-.56.79.79 0 0 0 .56.3 6.12 6.12 0 0 1 -.22.68 1.06 1.06 0 0 1 -.26.39.87.87 0 0 1 -.4.18 4 4 0 0 1 -.6.08h-.42-3.24c-.31 0-.56-.05-.74-.08a1.06 1.06 0 0 1 -.42-.15.5.5 0 0 1 -.18-.27 2.27 2.27 0 0 1 0-.41v-2.87c-.04-.37-.05-.76-.09-1.15zm1.06-1.2a3.4 3.4 0 0 1 -.21.28l-.23.27a2.35 2.35 0 0 1 -.26.29l-.33.34h.3.5 2l1.11-1.24zm-.48 1.66v1.61h2v-1.61zm4.4 1.61v-1.61h-1.86v1.61z" fill="#383736"/><path d="m480.19 376.3h-1.32l-1 .05v-.58h.46.52 4 1.31c.38 0 .72 0 1-.05v.58l-1-.05h-2.1l-.17.34a2 2 0 0 1 -.18.32v4.44.64s0 .41 0 .62h-.67c0-.22.05-.42.06-.62s0-.41 0-.64v-3.6a5.44 5.44 0 0 1 -.56.69 8.46 8.46 0 0 1 -.68.65 10.22 10.22 0 0 1 -.84.64c-.31.21-.65.44-1 .67a.93.93 0 0 0 -.2-.3 2 2 0 0 0 -.3-.24 15.2 15.2 0 0 0 1.37-.78 9.54 9.54 0 0 0 1.08-.82 6.37 6.37 0 0 0 .82-.92 6.46 6.46 0 0 0 .63-1.09zm4.46 4.21a16.65 16.65 0 0 0 -1.1-1.25 17.44 17.44 0 0 0 -1.31-1.19l.42-.4c.54.45 1 .87 1.4 1.27s.75.78 1.05 1.14z" fill="#383736"/><path d="m489.42 377.45-1.29.08-.83.08a5.3 5.3 0 0 0 -.56.07 3 3 0 0 0 -.43.09 1.22 1.22 0 0 0 0-.32 1.45 1.45 0 0 0 -.11-.29h.23.21c.16-.19.31-.39.46-.6s.29-.41.41-.61.24-.38.34-.55.16-.32.21-.44a1.64 1.64 0 0 0 .26.17 1.15 1.15 0 0 0 .25.12c.08 0 .12.06.12.11s0 .08-.14.11a.53.53 0 0 0 -.2.13c-.05.05-.13.16-.25.31s-.23.31-.4.53-.35.46-.55.71l2.06-.1c-.1-.15-.21-.29-.32-.43s-.22-.28-.34-.43l.4-.23c.25.29.47.56.66.82s.37.53.56.83l-.48.24-.11-.21zm-2.24 5.14h-.56q0-.46.06-.81c0-.23 0-.45 0-.65v-2.13c0-.2 0-.36 0-.48a3.48 3.48 0 0 0 -.05-.36h.28.38.42.78.39.38.34a1.48 1.48 0 0 0 -.05.35v.49 2.82a1.06 1.06 0 0 1 0 .33.42.42 0 0 1 -.17.21 1.12 1.12 0 0 1 -.37.13 6.21 6.21 0 0 1 -.64.07 1.16 1.16 0 0 0 -.2-.62 3.73 3.73 0 0 0 .46.08.84.84 0 0 0 .29 0 .22.22 0 0 0 .14-.14.64.64 0 0 0 0-.27v-.71h-1.87zm1.87-3.19v-.77h-1.87v.77zm-1.87.36v.75h1.87v-.75zm3.71-3.17a6.89 6.89 0 0 0 1.06-.5 4.76 4.76 0 0 0 .78-.52 1.77 1.77 0 0 0 .17.24 1.24 1.24 0 0 0 .19.2c.08.06.11.1.09.14s-.09.06-.19.06h-.22l-.34.12-.58.25-1 .41v.48a.51.51 0 0 0 0 .17.29.29 0 0 0 .12.13.92.92 0 0 0 .25.08 2.1 2.1 0 0 0 .4 0 2.7 2.7 0 0 0 .54 0 .68.68 0 0 0 .32-.15.63.63 0 0 0 .16-.29 2.29 2.29 0 0 0 .08-.45 1.71 1.71 0 0 0 .26.21 2.38 2.38 0 0 0 .29.13 2.63 2.63 0 0 1 -.19.53.65.65 0 0 1 -.28.31 1.36 1.36 0 0 1 -.48.15 7.25 7.25 0 0 1 -.76 0 5.43 5.43 0 0 1 -.65 0 .84.84 0 0 1 -.37-.13.46.46 0 0 1 -.16-.29 3.54 3.54 0 0 1 0-.52v-1.35c0-.16 0-.31 0-.44v-.36a1.47 1.47 0 0 0 .29.05h.33.12s0 .07-.08.13a.45.45 0 0 0 -.11.13.48.48 0 0 0 0 .21zm0 3.7a8.36 8.36 0 0 0 1.11-.53 5.28 5.28 0 0 0 .71-.51 3.4 3.4 0 0 0 .36.44c.08.06.11.12.09.17s-.08.08-.19.08h-.2l-.35.12-.6.23c-.25.09-.56.22-.93.38v.87a1.12 1.12 0 0 0 0 .2.23.23 0 0 0 .1.12.52.52 0 0 0 .24.07 2.56 2.56 0 0 0 .42 0 6.34 6.34 0 0 0 .67 0 1 1 0 0 0 .39-.12.52.52 0 0 0 .22-.26 2.45 2.45 0 0 0 .14-.47 1 1 0 0 0 .49.3 3.5 3.5 0 0 1 -.2.54.84.84 0 0 1 -.31.31 1.33 1.33 0 0 1 -.55.15 7.46 7.46 0 0 1 -.91 0 4.93 4.93 0 0 1 -.61 0 .85.85 0 0 1 -.37-.12.44.44 0 0 1 -.18-.27 2 2 0 0 1 0-.47v-2.2c0-.13 0-.24 0-.32s0-.15 0-.2v-.15l.3.05h.27c.14 0 .16.05 0 .17a.45.45 0 0 0 -.1.24 2.39 2.39 0 0 0 0 .55z" fill="#383736"/><path d="m500.69 378.08h.46.32l-.4 1.4h.4.3.23.19q-.06.39-.12 1c-.05.39-.1.85-.17 1.39a1.44 1.44 0 0 1 -.13.51.65.65 0 0 1 -.28.29 1.38 1.38 0 0 1 -.49.13c-.21 0-.47 0-.79 0a.6.6 0 0 0 0-.3 1.42 1.42 0 0 0 -.18-.34 5.35 5.35 0 0 0 .64.09 1.09 1.09 0 0 0 .39 0 .37.37 0 0 0 .21-.17 1.18 1.18 0 0 0 .11-.29c0-.11 0-.24.07-.39a3.35 3.35 0 0 0 .06-.47c0-.16 0-.33.05-.5s0-.32 0-.45h-4.7a8.94 8.94 0 0 1 -.7 1.24c-.28.4-.6.8-1 1.22a.86.86 0 0 0 -.26-.21l-.36-.12a8 8 0 0 0 .84-.81 6.6 6.6 0 0 0 .72-1 9.91 9.91 0 0 0 .61-1.34 15 15 0 0 0 .52-1.78h-1.56-.47-.38v-.53c.23 0 .49 0 .79.05h1.71c.06-.26.11-.53.16-.81s.11-.57.16-.88a1.69 1.69 0 0 0 .27.13 2 2 0 0 0 .31.07c.13 0 .2 0 .21.08s0 .1-.15.18l-.09.11-.09.18c0 .09-.07.2-.11.35s-.11.34-.17.59h2.82.43zm-4.25-1.48a4 4 0 0 0 -.4-.52 2.46 2.46 0 0 0 -.44-.42l.32-.35c.19.17.36.32.5.47l.44.53zm1 4.06c0 .13-.09.26-.12.38s-.09.25-.14.37a3.76 3.76 0 0 1 -.16.37l-.21.42-.46-.21.2-.33a3.24 3.24 0 0 0 .17-.32 3 3 0 0 0 .16-.36c.05-.13.1-.28.15-.46zm3.48-2.18h-3.54a4.13 4.13 0 0 1 -.15.5c0 .15-.11.31-.17.47h3.54zm-.72-.4.36-1h-2.79c0 .14-.08.3-.13.47s-.1.36-.15.57zm-2 3.86a2.88 2.88 0 0 0 -.05-.33c0-.09-.05-.19-.08-.29a2.34 2.34 0 0 0 -.12-.3l-.15-.34.41-.16a2.61 2.61 0 0 1 .14.32l.12.28.12.3c0 .1.08.22.12.36zm1.23-.24a3.54 3.54 0 0 0 -.17-.58 6.07 6.07 0 0 0 -.34-.67l.34-.16a3 3 0 0 1 .19.32c.06.09.11.19.16.28a2.71 2.71 0 0 1 .13.3c.05.1.09.21.14.33zm1.13-.24a3.23 3.23 0 0 0 -.3-.62 6.36 6.36 0 0 0 -.4-.55l.35-.22.22.31.19.26c.05.09.11.18.17.27l.18.33z" fill="#383736"/><path d="m504.73 381.3c-.05.1-.13.21-.21.34l-.28.4a4.08 4.08 0 0 1 -.31.39 3.19 3.19 0 0 1 -.28.32l-.46-.3a3.18 3.18 0 0 0 .37-.35 3.82 3.82 0 0 0 .27-.32 4 4 0 0 0 .23-.34l.22-.43zm2.4-.95h1.87s1 0 1.4-.05v.54h-.71-.8-4.14-.8-.7v-.54h.67.76.89 1.05v-.89h-1.48-1.11v-.41h1.11 1.48v-.8h-1.5-.58-.51v-.31c0-.11 0-.21 0-.32s0-.23 0-.36 0-.26 0-.42c0-.32 0-.59 0-.81s0-.44 0-.66h.55.63 3.38.63.55v.66s0 .49 0 .81v.43.35.31s0 .2 0 .31h-.52-2.12v.8h1.49 1.12v.49h-1.12-1.49zm-.51-4.45h-2v2h2zm-.78 1.74a5.58 5.58 0 0 0 -.41-.72 3.47 3.47 0 0 0 -.4-.51l.4-.27a5 5 0 0 1 .45.58c.14.21.29.44.43.7zm.3 4.92a4.93 4.93 0 0 0 -.24-.67 2.62 2.62 0 0 0 -.37-.6l.44-.22q.16.26.36.6c.13.24.24.47.34.7zm1-4.69h2.1v-2h-2.1zm.92 4.58-.16-.33a2.15 2.15 0 0 0 -.14-.26 2 2 0 0 0 -.18-.26l-.24-.3.41-.26.44.6c.13.21.25.4.34.58zm.76-6a1.06 1.06 0 0 0 -.15.15l-.2.23-.27.36c-.1.14-.22.31-.35.52l-.43-.25a5.11 5.11 0 0 0 .52-.63 4.69 4.69 0 0 0 .42-.67zm1.29 6.21-.21-.33-.22-.31a3.76 3.76 0 0 0 -.28-.32l-.37-.41.37-.29c.26.24.48.48.67.69s.36.42.5.61z" fill="#383736"/><path d="m512.67 377.61-.3.31-.36.35a1.24 1.24 0 0 0 -.23-.23 1.12 1.12 0 0 0 -.29-.14 6.88 6.88 0 0 0 1.47-1.29 7.9 7.9 0 0 0 1.15-1.78.94.94 0 0 0 .24.18 1.17 1.17 0 0 0 .25.11q.15.06.15.12c0 .05-.06.09-.16.13a.69.69 0 0 0 -.23.18 4.91 4.91 0 0 0 -.33.43h3 .4.29l-1.56 1.74h1.36a6.53 6.53 0 0 0 .72-.05v.61.66.7s0 .42 0 .57h-.2-4.78v1.27a.9.9 0 0 0 0 .25.4.4 0 0 0 .13.18.71.71 0 0 0 .26.1 2.11 2.11 0 0 0 .43.06h.86.9.85.72a2.81 2.81 0 0 0 .6-.08.68.68 0 0 0 .37-.18.62.62 0 0 0 .21-.34 2.3 2.3 0 0 0 .11-.56.79.79 0 0 0 .56.3 6.12 6.12 0 0 1 -.22.68 1.06 1.06 0 0 1 -.26.39.87.87 0 0 1 -.4.18 4 4 0 0 1 -.6.08h-.42-3.26c-.31 0-.56-.05-.74-.08a1.06 1.06 0 0 1 -.42-.15.5.5 0 0 1 -.18-.27 2.27 2.27 0 0 1 0-.41v-2.87c-.04-.37-.05-.76-.09-1.15zm1.06-1.2a3.4 3.4 0 0 1 -.21.28l-.23.27a2.35 2.35 0 0 1 -.26.29l-.33.34h.3.5 2l1.11-1.24zm-.48 1.66v1.61h2v-1.61zm4.4 1.61v-1.61h-1.86v1.61z" fill="#383736"/><path d="m524 376v-.36c0-.1 0-.19 0-.27s0-.14 0-.21a.88.88 0 0 0 0-.17 2.16 2.16 0 0 0 .62 0h.1s0 .07-.05.11v.06a.86.86 0 0 0 0 .13 1.3 1.3 0 0 0 0 .23v.4h2.05a5.88 5.88 0 0 0 .9-.06v.54h-.28-5.69v1.72s0 .93 0 1.32-.06.72-.1 1a6.08 6.08 0 0 1 -.17.81 4.44 4.44 0 0 1 -.27.72 7.93 7.93 0 0 1 -.36.71 1.74 1.74 0 0 0 -.26-.15 1.11 1.11 0 0 0 -.34-.12 4.81 4.81 0 0 0 .4-.6 4.48 4.48 0 0 0 .31-.7 5 5 0 0 0 .21-.88 10.79 10.79 0 0 0 .12-1.11c0-.42 0-.89 0-1.42s0-1.13-.08-1.81h.41.75 1.73zm1.41 6.46h-.25-3.12-.25v-.55h.26 3.1.26zm-.88-2.18a1 1 0 0 0 0 .26.57.57 0 0 0 .09.22q-1 .31-1.62.57a8.8 8.8 0 0 0 -.9.41 1 1 0 0 0 -.1-.3 1.43 1.43 0 0 0 -.19-.26h.22l.22-.05v-2.62c0-.25 0-.5 0-.73a5 5 0 0 0 0-.54h.75a8.77 8.77 0 0 0 .88 0l.9-.07.85-.1c.27 0 .5-.07.7-.11a2.2 2.2 0 0 0 .46-.13c0 .11.09.21.13.3a1.15 1.15 0 0 0 .19.26c0 .06.07.1 0 .13s-.09 0-.17 0a1.15 1.15 0 0 0 -.36-.05 4.52 4.52 0 0 0 -.6 0l-.45.05-.39.05v.77s0 .53.09.78h1.27s.58 0 .77 0v.5h-2c0 .19.1.39.16.59a4.3 4.3 0 0 0 .2.54 4 4 0 0 0 .22.46 1.77 1.77 0 0 0 .24.32c.2.2.36.34.48.44s.23.12.3.09.13-.11.17-.26a5.38 5.38 0 0 0 .08-.66 1.19 1.19 0 0 0 .26.25.88.88 0 0 0 .3.1 4.14 4.14 0 0 1 -.26.78.79.79 0 0 1 -.31.37.47.47 0 0 1 -.37 0 1.9 1.9 0 0 1 -.45-.27 3.94 3.94 0 0 1 -.55-.52 2.77 2.77 0 0 1 -.41-.6 3.71 3.71 0 0 1 -.3-.73 7.8 7.8 0 0 1 -.24-.93h-2.1v1.41zm.24-1.19c0-.24-.06-.49-.08-.75s0-.52-.05-.75l-.92.06h-1v1.4z" fill="#383736"/><circle cx="228.3" cy="415.39" fill="none" r="11.21" stroke="#00c08b" stroke-miterlimit="10"/><path d="m474.37 406.06 18.67 18.67" fill="none" stroke="#e04847" stroke-miterlimit="10"/><path d="m493.04 406.06-18.67 18.67" fill="none" stroke="#e04847" stroke-miterlimit="10"/></svg>