<svg viewBox="0 0 773.25 493.45" xmlns="http://www.w3.org/2000/svg"><path d="m0 0h773.25v493.45h-773.25z" fill="#fff"/><g fill="#383736"><path d="m439.32 121.8c0-.16 0-.29 0-.4s0-.22 0-.32a4.73 4.73 0 0 0 .75 0 5.71 5.71 0 0 0 .74-.13 5.92 5.92 0 0 0 .67-.18 4.84 4.84 0 0 0 .55-.22 1.81 1.81 0 0 0 .17.29 1 1 0 0 0 .17.2c.07.07.1.14.08.19s-.11.08-.25.06a.9.9 0 0 0 -.23 0h-.35l-.64.09-1.09.18v1.44h1.5.41.34v.57a2 2 0 0 0 -.34 0h-.42-1.49v2.43c.42-.19.81-.39 1.18-.6s.71-.4 1-.59c0 .12 0 .21.06.29a.84.84 0 0 0 .1.22l-2.23 1.14-.44.25-.4.26a1.23 1.23 0 0 0 -.13-.29 1.78 1.78 0 0 0 -.23-.28 2.34 2.34 0 0 0 .24-.09l.24-.1zm6.35-.78a2.87 2.87 0 0 0 -.05.41v.43 3.69a1.48 1.48 0 0 1 -.05.39.37.37 0 0 1 -.19.24 1.19 1.19 0 0 1 -.43.15c-.18 0-.44.06-.75.08a1 1 0 0 0 -.07-.32 2.25 2.25 0 0 0 -.21-.35 3.46 3.46 0 0 0 .55.08.92.92 0 0 0 .36 0 .35.35 0 0 0 .2-.15.6.6 0 0 0 .05-.24v-3.86h-1.8v6.43h-.6c0-.33 0-.63.05-.91s0-.56 0-.84v-4.42a5.08 5.08 0 0 0 -.06-.84 5.59 5.59 0 0 0 .64.06h.89.84a5.2 5.2 0 0 0 .63-.05z"/><path d="m451.69 122.66h-.2-.32-2.78a17.18 17.18 0 0 1 -.2 2.83 5.25 5.25 0 0 1 -.68 1.89 1.07 1.07 0 0 0 -.22-.15 1.14 1.14 0 0 0 -.33-.08 4.59 4.59 0 0 0 .35-.51 3.11 3.11 0 0 0 .26-.61 5.92 5.92 0 0 0 .18-.75c0-.29.08-.61.11-1 0-.59.07-1.19.06-1.79s0-1.21-.07-1.81h.28.39 1.25a15.65 15.65 0 0 0 1.92-.07 8.12 8.12 0 0 0 -.05.9v.68s.04.36.05.47zm-.51-1.53h-2.79v1.07h2.79zm-.8 5.55v.68a4.85 4.85 0 0 0 .05.64h-.62c0-.23.05-.45.06-.65s0-.42 0-.67v-2.36h-.87v2.52h-.52a12.49 12.49 0 0 0 .08-1.34v-1.63h.23.27.34.47c0-.15 0-.27 0-.37s0-.19 0-.26a1.25 1.25 0 0 0 0-.21c0-.06 0-.13 0-.2h.33.33q.09 0 .09 0s0 0-.06.08a.22.22 0 0 0 -.11.1.27.27 0 0 0 -.05.14v.64h.89.28.24v2.25a1 1 0 0 1 0 .27.38.38 0 0 1 -.13.18.83.83 0 0 1 -.31.12 4 4 0 0 1 -.53.08 1.06 1.06 0 0 0 -.18-.57h.37a.43.43 0 0 0 .22 0 .2.2 0 0 0 .09-.16 1 1 0 0 0 0-.28v-1.43h-.93zm2.64-5.16a.26.26 0 0 0 -.09.23v2.54.69s0 .46 0 .66h-.6c0-.21 0-.41.05-.62s0-.45 0-.73v-1.86a7 7 0 0 0 0-.7 2.21 2.21 0 0 0 -.05-.43h.32a1 1 0 0 0 .29 0h.12s.02.19-.06.22zm1.44-1.07a.25.25 0 0 0 -.11.23v6.32a2.11 2.11 0 0 1 0 .47.46.46 0 0 1 -.19.28 1 1 0 0 1 -.44.14 5.86 5.86 0 0 1 -.81 0 .65.65 0 0 0 0-.33 1 1 0 0 0 -.17-.28c.26 0 .46.07.62.08a.92.92 0 0 0 .35 0 .26.26 0 0 0 .16-.15 1 1 0 0 0 0-.28v-5.33c0-.3 0-.58 0-.83a5.09 5.09 0 0 0 0-.56 2.28 2.28 0 0 0 .64.06c.08 0 .12 0 .14.06s-.12.09-.19.12z"/><path d="m456.83 123.78-.32-.31a4.15 4.15 0 0 0 -.32-.27c-.11-.09-.23-.17-.35-.25a3.14 3.14 0 0 0 -.45-.23l.31-.41c.3.18.57.37.82.54l.69.54zm.76 1c-.12.29-.24.55-.35.79s-.22.48-.34.72-.23.5-.37.76l-.45.91-.3-.19a1.53 1.53 0 0 0 -.29-.14 7.54 7.54 0 0 0 .95-1.47 7 7 0 0 0 .59-1.76 1.07 1.07 0 0 0 .22.21 1.76 1.76 0 0 0 .34.15zm-.35-2.77c-.12-.12-.23-.23-.34-.32l-.33-.29c-.11-.08-.23-.17-.36-.25l-.39-.24.32-.39c.13.09.25.17.36.26l.35.24.35.26.38.3zm2.64 4.67c.05 0 .07 0 .07.08s0 0-.08 0a1.47 1.47 0 0 0 -.29.12 2.2 2.2 0 0 0 -.51.36 1.64 1.64 0 0 1 -.25.21 3.16 3.16 0 0 1 -.27.2l-.33.2-.41.23a.66.66 0 0 0 -.18-.26 1.54 1.54 0 0 0 -.28-.21 4.68 4.68 0 0 0 1.09-.48 4.42 4.42 0 0 0 .95-.82l.28.21zm.58-5.47a4.2 4.2 0 0 0 -.57-.42 7.59 7.59 0 0 0 -.76-.39l.32-.34.37.19.33.18.31.2.36.23-.33.35h.79.63.53.46v1.48h-.51v-1h-4.27v1.2h-.49v-1.79l.44.05h.5 1.89zm-.51 1.52h-.85a5 5 0 0 0 -.63 0v-.49h.29.34 2.33.33.29v.49a5.79 5.79 0 0 0 -.68 0h-.91v.66h1.12s.6 0 .89 0a1.94 1.94 0 0 0 0 .24v.27s0 .24 0 .39v1.14.39s0 .21 0 .29 0 .18 0 .29c-.32 0-.68 0-1.06-.06s-.82 0-1.29 0h-1.07-.56-.52q0-.14 0-.24a2 2 0 0 0 0-.27c0-.1 0-.22 0-.38v-1.15c0-.16 0-.29 0-.4s0-.22 0-.3a2 2 0 0 0 0-.25h.95s.69 0 1 0zm0 1h-1.42v.84h1.47zm0 1.23h-1.42v.87h1.47zm.51-.39h1.45v-.84h-1.45zm0 1.26h1.45v-.83h-1.45zm2.32 2.08-.41-.32-.43-.28-.54-.29c-.2-.11-.45-.23-.74-.36l.31-.37.66.34c.19.1.37.19.53.29s.32.18.47.28.32.19.49.31z"/><path d="m465.05 122.89-.31.3-.36.35a1 1 0 0 0 -.23-.23 1.12 1.12 0 0 0 -.29-.14 6.88 6.88 0 0 0 1.47-1.29 7.9 7.9 0 0 0 1.15-1.78 1.49 1.49 0 0 0 .24.18 1.27 1.27 0 0 0 .26.11c.09 0 .14.08.14.12s-.05.09-.15.13a.71.71 0 0 0 -.24.18 3.65 3.65 0 0 0 -.32.43h3 .4.29l-1.56 1.74h1.35a6.57 6.57 0 0 0 .73 0v.61.66.7a4.45 4.45 0 0 0 0 .57h-.21-4.78v1.26a.89.89 0 0 0 0 .26.32.32 0 0 0 .13.18.65.65 0 0 0 .25.1 2.22 2.22 0 0 0 .43.06h.87.89.85.73a2.8 2.8 0 0 0 .59-.08.71.71 0 0 0 .38-.18.76.76 0 0 0 .21-.34 4 4 0 0 0 .11-.56.68.68 0 0 0 .25.21 1 1 0 0 0 .3.09 5 5 0 0 1 -.22.68 1 1 0 0 1 -.26.39.83.83 0 0 1 -.39.18 4.14 4.14 0 0 1 -.61.08h-.42-3.28c-.31 0-.56 0-.74-.08a1.2 1.2 0 0 1 -.42-.15.44.44 0 0 1 -.17-.27 1.62 1.62 0 0 1 0-.41v-2.87c-.01-.42-.03-.77-.06-1.19zm1.06-1.21-.22.28-.22.27a3.58 3.58 0 0 1 -.27.29l-.33.34h.3.5 2l1.1-1.24zm-.49 1.66v1.66h2v-1.61zm4.38 1.66v-1.61h-1.86v1.61z"/><path d="m474.87 120.55h.63v2.28l2.43-2.28h.83l-2.94 2.73 3.17 3.37h-.81l-2.68-2.85v2.85h-.63z"/><path d="m480.73 120.55h1.2v6.1h-.61v-5.51h-1z"/><path d="m486.19 126.8a1.71 1.71 0 0 1 -1.52-.81 5.65 5.65 0 0 1 0-4.78 1.71 1.71 0 0 1 1.51-.82 1.8 1.8 0 0 1 1.55.83 4.21 4.21 0 0 1 .57 2.38 4.07 4.07 0 0 1 -.58 2.37 1.75 1.75 0 0 1 -1.53.83zm0-5.83a1.21 1.21 0 0 0 -1.09.68 4 4 0 0 0 -.4 2c0 1.75.5 2.63 1.49 2.63a1.26 1.26 0 0 0 1.13-.69 3.93 3.93 0 0 0 .4-2 3.85 3.85 0 0 0 -.41-1.95 1.27 1.27 0 0 0 -1.11-.64z"/><path d="m490.89 126.8a1.7 1.7 0 0 1 -1.51-.81 5.65 5.65 0 0 1 0-4.78 1.7 1.7 0 0 1 1.51-.82 1.81 1.81 0 0 1 1.55.83 4.21 4.21 0 0 1 .57 2.38 4.07 4.07 0 0 1 -.58 2.37 1.77 1.77 0 0 1 -1.54.83zm0-5.83a1.2 1.2 0 0 0 -1.09.68 3.92 3.92 0 0 0 -.4 2c0 1.75.5 2.63 1.49 2.63a1.26 1.26 0 0 0 1.13-.69 3.93 3.93 0 0 0 .4-2 3.85 3.85 0 0 0 -.41-1.95 1.27 1.27 0 0 0 -1.1-.64z"/><path d="m439.23 206.28h1.29a7.74 7.74 0 0 1 1.5.09 1.83 1.83 0 0 1 .64.32 1.64 1.64 0 0 1 .45.56 1.72 1.72 0 0 1 .17.75 1.6 1.6 0 0 1 -1.27 1.63 9.51 9.51 0 0 1 -1.67.11h-.46v3h-.65zm.65.63v2.21h1.12a1.85 1.85 0 0 0 1.31-.32 1.14 1.14 0 0 0 .32-.8c0-.72-.53-1.09-1.57-1.09z"/><path d="m449.22 208v4.77h-.6v-.81a2.42 2.42 0 0 1 -1.87 1 2.38 2.38 0 0 1 -1.78-.75 2.51 2.51 0 0 1 -.72-1.8 2.45 2.45 0 0 1 .73-1.78 2.35 2.35 0 0 1 1.74-.74 2.23 2.23 0 0 1 1.9 1v-.89zm-.56 2.41a1.91 1.91 0 0 0 -.55-1.38 1.81 1.81 0 0 0 -1.35-.57 1.79 1.79 0 0 0 -1.34.58 1.93 1.93 0 0 0 -.55 1.38 1.9 1.9 0 0 0 .56 1.37 1.76 1.76 0 0 0 1.33.58 1.84 1.84 0 0 0 1.34-.56 1.91 1.91 0 0 0 .56-1.43z"/><path d="m450.61 208h.62v.85a2.19 2.19 0 0 1 1.79-1 1.71 1.71 0 0 1 1 .29 1.61 1.61 0 0 1 .62.77 4.09 4.09 0 0 1 .18 1.39v2.45h-.62v-2.27a5.73 5.73 0 0 0 -.07-1.14 1.37 1.37 0 0 0 -.24-.5.94.94 0 0 0 -.4-.31 1.32 1.32 0 0 0 -.59-.11 1.43 1.43 0 0 0 -.68.17 1.52 1.52 0 0 0 -.56.48 1.71 1.71 0 0 0 -.32.63 6.9 6.9 0 0 0 -.08 1.3v1.75h-.62z"/><path d="m457.26 212c0 .16 0 .26.06.29a.76.76 0 0 0 .33 0h.35v.52a3.23 3.23 0 0 1 -.6.07.78.78 0 0 1 -.59-.2.85.85 0 0 1 -.19-.62v-3.6h-.85v-.46h.85v-1.85h.62v1.85h1v.52h-1z"/><path d="m458.93 210.39a2.51 2.51 0 0 1 .72-1.8 2.45 2.45 0 0 1 3.53 0 2.59 2.59 0 0 1 0 3.57 2.46 2.46 0 0 1 -3.54 0 2.44 2.44 0 0 1 -.71-1.77zm4.35 0a1.93 1.93 0 0 0 -.55-1.38 1.78 1.78 0 0 0 -2.63 0 2 2 0 0 0 -.54 1.39 1.86 1.86 0 0 0 .53 1.35 1.7 1.7 0 0 0 1.31.56 1.82 1.82 0 0 0 1.34-.56 1.9 1.9 0 0 0 .54-1.35z"/><path d="m465.05 208h.62v.85a2.19 2.19 0 0 1 1.79-1 1.73 1.73 0 0 1 1 .29 1.59 1.59 0 0 1 .61.77 4.09 4.09 0 0 1 .18 1.39v2.45h-.61v-2.27a5.5 5.5 0 0 0 -.08-1.14 1.53 1.53 0 0 0 -.23-.5 1 1 0 0 0 -.4-.31 1.32 1.32 0 0 0 -.59-.11 1.4 1.4 0 0 0 -.68.17 1.63 1.63 0 0 0 -.57.48 1.68 1.68 0 0 0 -.31.63 6.12 6.12 0 0 0 -.08 1.3v1.75h-.62z"/><path d="m474.56 211.2.52.27a2.47 2.47 0 0 1 -2.29 1.44 2.33 2.33 0 0 1 -1.78-.75 2.48 2.48 0 0 1 -.7-1.78 2.52 2.52 0 0 1 .71-1.79 2.29 2.29 0 0 1 1.74-.75 2.4 2.4 0 0 1 1.75.69 2.63 2.63 0 0 1 .73 1.89h-4.3a2 2 0 0 0 .55 1.39 1.69 1.69 0 0 0 1.25.53 2 2 0 0 0 1.82-1.14zm0-1.31a1.75 1.75 0 0 0 -.63-1.07 1.87 1.87 0 0 0 -1.16-.39 1.75 1.75 0 0 0 -1.77 1.46z"/><path d="m481.79 206.12h.12v4.5h.79v.62h-.79v1.5h-.64v-1.5h-3.09zm-.52 4.5v-2.69l-1.91 2.69z"/><path d="m486.77 206.12h.13v4.5h.78v.62h-.78v1.5h-.64v-1.5h-3.1zm-.51 4.5v-2.69l-1.91 2.69z"/><path d="m488.57 206.28h4.1l-3.46 6.63-.53-.27 3-5.74h-3.1z"/><path d="m499.71 207.48-.5.39a2.82 2.82 0 0 0 -2.31-1.12 2.76 2.76 0 0 0 -2 .81 2.68 2.68 0 0 0 -.83 2 2.63 2.63 0 0 0 .81 2 3 3 0 0 0 4.32-.28l.5.39a3 3 0 0 1 -1.2 1 3.9 3.9 0 0 1 -1.61.33 3.45 3.45 0 0 1 -2.52-1 3.3 3.3 0 0 1 -1-2.46 3.35 3.35 0 0 1 .45-1.7 3.22 3.22 0 0 1 1.26-1.22 3.59 3.59 0 0 1 1.73-.44 3.93 3.93 0 0 1 1.67.35 3.1 3.1 0 0 1 1.23.95z"/><path d="m439.23 107.85h1.29a7.74 7.74 0 0 1 1.5.09 1.83 1.83 0 0 1 .64.32 1.55 1.55 0 0 1 .45.56 1.66 1.66 0 0 1 .17.75 1.63 1.63 0 0 1 -.37 1.09 1.55 1.55 0 0 1 -.9.53 8.44 8.44 0 0 1 -1.67.12h-.46v3h-.65zm.65.63v2.21h1.12a1.85 1.85 0 0 0 1.31-.32 1.14 1.14 0 0 0 .32-.8c0-.73-.53-1.09-1.57-1.09z"/><path d="m449.22 109.53v4.78h-.6v-.82a2.37 2.37 0 0 1 -3.65.23 2.48 2.48 0 0 1 -.72-1.79 2.45 2.45 0 0 1 .73-1.78 2.35 2.35 0 0 1 1.74-.74 2.23 2.23 0 0 1 1.9 1v-.88zm-.56 2.42a2 2 0 0 0 -.55-1.39 1.84 1.84 0 0 0 -1.35-.56 1.79 1.79 0 0 0 -1.34.58 1.93 1.93 0 0 0 -.55 1.37 1.9 1.9 0 0 0 .56 1.38 1.8 1.8 0 0 0 1.33.58 1.84 1.84 0 0 0 1.34-.56 1.91 1.91 0 0 0 .56-1.35z"/><path d="m450.61 109.53h.62v.86a2.19 2.19 0 0 1 1.79-1 1.71 1.71 0 0 1 1 .29 1.61 1.61 0 0 1 .62.77 4.05 4.05 0 0 1 .18 1.39v2.45h-.62v-2.29a5.73 5.73 0 0 0 -.07-1.14 1.29 1.29 0 0 0 -.24-.5 1 1 0 0 0 -.4-.32 1.48 1.48 0 0 0 -.59-.11 1.44 1.44 0 0 0 -.68.18 1.59 1.59 0 0 0 -.56.47 1.88 1.88 0 0 0 -.32.63 7 7 0 0 0 -.08 1.31v1.75h-.62z"/><path d="m457.26 113.56c0 .16 0 .25.06.28a.71.71 0 0 0 .33 0h.35v.52a4.12 4.12 0 0 1 -.6.06.78.78 0 0 1 -.59-.19.87.87 0 0 1 -.19-.62v-3.6h-.85v-.53h.85v-1.84h.62v1.84h1v.53h-1z"/><path d="m458.93 112a2.51 2.51 0 0 1 .72-1.8 2.47 2.47 0 0 1 3.53 0 2.6 2.6 0 0 1 0 3.58 2.49 2.49 0 0 1 -3.54 0 2.46 2.46 0 0 1 -.71-1.78zm4.35 0a1.93 1.93 0 0 0 -.55-1.37 1.78 1.78 0 0 0 -2.63 0 2 2 0 0 0 -.54 1.38 1.86 1.86 0 0 0 .53 1.36 1.74 1.74 0 0 0 1.31.56 1.82 1.82 0 0 0 1.34-.56 1.91 1.91 0 0 0 .54-1.37z"/><path d="m465.05 109.53h.62v.86a2.19 2.19 0 0 1 1.79-1 1.73 1.73 0 0 1 1 .29 1.59 1.59 0 0 1 .61.77 4.05 4.05 0 0 1 .18 1.39v2.45h-.61v-2.29a5.5 5.5 0 0 0 -.08-1.14 1.44 1.44 0 0 0 -.23-.5 1 1 0 0 0 -.4-.32 1.48 1.48 0 0 0 -.59-.11 1.41 1.41 0 0 0 -.68.18 1.71 1.71 0 0 0 -.57.47 1.84 1.84 0 0 0 -.31.63 6.23 6.23 0 0 0 -.08 1.31v1.75h-.62z"/><path d="m474.56 112.76.52.27a2.47 2.47 0 0 1 -2.29 1.44 2.33 2.33 0 0 1 -1.78-.74 2.48 2.48 0 0 1 -.7-1.78 2.54 2.54 0 0 1 .71-1.8 2.32 2.32 0 0 1 1.74-.74 2.4 2.4 0 0 1 1.75.69 2.62 2.62 0 0 1 .73 1.89h-4.3a2 2 0 0 0 .55 1.39 1.69 1.69 0 0 0 1.25.53 1.94 1.94 0 0 0 1.82-1.15zm0-1.3a1.72 1.72 0 0 0 -.63-1.07 1.87 1.87 0 0 0 -1.16-.39 1.75 1.75 0 0 0 -1.77 1.46z"/><path d="m478.75 107.85h1.25a2.48 2.48 0 0 1 1.54.41 1.38 1.38 0 0 1 .53 1.17 1.47 1.47 0 0 1 -.21.78 1.49 1.49 0 0 1 -.62.57 2.15 2.15 0 0 1 1 .65 1.6 1.6 0 0 1 .34 1 1.71 1.71 0 0 1 -.58 1.33 2.19 2.19 0 0 1 -1.52.52h-1.78zm.64.63v2.07h.37a2.36 2.36 0 0 0 1.26-.27.93.93 0 0 0 .42-.85c0-.63-.44-1-1.3-1zm0 2.72v2.48h.8a2.64 2.64 0 0 0 1-.14 1.19 1.19 0 0 0 .54-.43 1 1 0 0 0 .21-.6 1.19 1.19 0 0 0 -.12-.54 1.22 1.22 0 0 0 -.35-.41 1.49 1.49 0 0 0 -.55-.27 5.15 5.15 0 0 0 -1.19-.09z"/><path d="m483.71 107.69h.61v6.62h-.61z"/><path d="m490.36 109.53v4.78h-.6v-.82a2.37 2.37 0 0 1 -3.65.23 2.57 2.57 0 0 1 0-3.57 2.39 2.39 0 0 1 1.75-.74 2.25 2.25 0 0 1 1.9 1v-.88zm-.56 2.47a2 2 0 0 0 -.55-1.39 1.84 1.84 0 0 0 -1.35-.56 1.79 1.79 0 0 0 -1.34.58 1.93 1.93 0 0 0 -.56 1.37 1.9 1.9 0 0 0 .56 1.38 1.8 1.8 0 0 0 1.33.58 1.84 1.84 0 0 0 1.34-.56 1.91 1.91 0 0 0 .57-1.4z"/><path d="m496.42 110.52-.49.31a2.17 2.17 0 0 0 -3.17-.28 1.81 1.81 0 0 0 -.59 1.37 1.91 1.91 0 0 0 .58 1.4 2 2 0 0 0 1.45.59 2.11 2.11 0 0 0 1.73-.84l.49.32a2.34 2.34 0 0 1 -1 .81 3.17 3.17 0 0 1 -1.31.27 2.56 2.56 0 0 1 -1.85-.72 2.43 2.43 0 0 1 -.74-1.79 2.45 2.45 0 0 1 .75-1.8 2.62 2.62 0 0 1 1.93-.75 2.9 2.9 0 0 1 1.28.29 2.21 2.21 0 0 1 .94.82z"/><path d="m497.48 107.69h.62v3.77l2.21-1.93h.91l-2.63 2.28 2.78 2.5h-.87l-2.4-2.15v2.15h-.62z"/><path d="m439.32 170.13c0-.16 0-.29 0-.4s0-.22 0-.32a6.3 6.3 0 0 0 .75 0c.26 0 .5-.08.74-.13a5.92 5.92 0 0 0 .67-.18 4.84 4.84 0 0 0 .55-.22 1.81 1.81 0 0 0 .17.29 1.39 1.39 0 0 0 .17.2c.07.07.1.14.08.19s-.11.08-.25.06a.9.9 0 0 0 -.23 0h-.35l-.64.09-1.09.18v1.49h1.5.41a1.87 1.87 0 0 0 .34 0v.57h-.34-1.91v2.53c.42-.19.81-.39 1.18-.6s.71-.4 1-.59a2.57 2.57 0 0 0 .06.28.77.77 0 0 0 .1.23l-2.23.99-.44.25-.4.26a1.08 1.08 0 0 0 -.13-.29 1.78 1.78 0 0 0 -.23-.28l.24-.09.24-.1zm6.35-.78a2.87 2.87 0 0 0 -.05.41v.43 3.68a1.5 1.5 0 0 1 -.05.4.37.37 0 0 1 -.19.24 1.41 1.41 0 0 1 -.43.15c-.18 0-.44.06-.75.08a1 1 0 0 0 -.07-.32 2.25 2.25 0 0 0 -.21-.35 3.46 3.46 0 0 0 .55.08.92.92 0 0 0 .36-.05.35.35 0 0 0 .2-.15.62.62 0 0 0 .05-.25v-3.85h-1.8v6.51h-.6c0-.33 0-.63.05-.91s0-.56 0-.84v-4.42a5 5 0 0 0 -.06-.84 5.59 5.59 0 0 0 .64.06h.89.84a5.2 5.2 0 0 0 .63-.06z"/><path d="m451.69 171h-.2-.32-2.78a17.27 17.27 0 0 1 -.2 2.83 5.25 5.25 0 0 1 -.68 1.89 1.07 1.07 0 0 0 -.22-.15 1.14 1.14 0 0 0 -.33-.08 4.59 4.59 0 0 0 .35-.51 3.39 3.39 0 0 0 .26-.61 6.1 6.1 0 0 0 .18-.76c0-.28.08-.6.11-1 0-.59.07-1.19.06-1.79s0-1.21-.07-1.81h.28.39 1.25a15.65 15.65 0 0 0 1.92-.07 8.12 8.12 0 0 0 -.05.9v.68s.04.36.05.48zm-.51-1.54h-2.79v1.08h2.79zm-.8 5.56v.67a5 5 0 0 0 .05.65h-.62c0-.23.05-.45.06-.65s0-.42 0-.67v-2.36h-.87v2.52h-.52a12.49 12.49 0 0 0 .08-1.34v-1.64h.23.27.34.47c0-.15 0-.27 0-.37s0-.19 0-.26a1.25 1.25 0 0 0 0-.21c0-.06 0-.13 0-.21h.33.33.09s0 0-.06.08a.22.22 0 0 0 -.11.1.24.24 0 0 0 -.05.14v.64h.89.28.24v2.25a1.1 1.1 0 0 1 0 .27.38.38 0 0 1 -.13.18.83.83 0 0 1 -.31.12 4 4 0 0 1 -.53.08 1.06 1.06 0 0 0 -.18-.57h.37a.43.43 0 0 0 .22 0 .22.22 0 0 0 .09-.16 1 1 0 0 0 0-.28v-1.43h-.93zm2.64-5.16a.26.26 0 0 0 -.09.23v2.54.68s0 .47 0 .67h-.6c0-.21 0-.41.05-.62s0-.45 0-.73v-1.86a7 7 0 0 0 0-.7 2.44 2.44 0 0 0 -.05-.44l.32.06a1 1 0 0 0 .29 0c.07 0 .11 0 .12.05s.02.07-.06.11zm1.44-1.07a.25.25 0 0 0 -.11.23v6.35a2.11 2.11 0 0 1 0 .47.46.46 0 0 1 -.19.28 1.08 1.08 0 0 1 -.44.14 5.86 5.86 0 0 1 -.81 0 .65.65 0 0 0 0-.33 1 1 0 0 0 -.17-.28c.26 0 .46.07.62.08a1.19 1.19 0 0 0 .35 0 .26.26 0 0 0 .16-.15 1 1 0 0 0 0-.28v-5.38c0-.3 0-.58 0-.83a5.09 5.09 0 0 0 0-.56 2.28 2.28 0 0 0 .64.06c.08 0 .12 0 .14.06s-.12.1-.19.13z"/><path d="m456.83 172.11-.32-.31a2.69 2.69 0 0 0 -.32-.27c-.11-.09-.23-.17-.35-.25a4.6 4.6 0 0 0 -.45-.24l.31-.4c.3.18.57.36.82.54s.47.35.69.54zm.76 1c-.12.29-.24.55-.35.79s-.22.48-.34.72-.23.5-.37.76l-.45.91-.3-.19a1.53 1.53 0 0 0 -.29-.14 7.54 7.54 0 0 0 .95-1.47 7 7 0 0 0 .59-1.76 1.42 1.42 0 0 0 .22.21 1.76 1.76 0 0 0 .34.15zm-.35-2.77-.34-.33-.33-.28c-.11-.08-.23-.17-.36-.25l-.39-.24.32-.39.36.25.35.25.35.26.38.3zm2.64 4.67c.05 0 .07 0 .07.07s0 0-.08.05a1.47 1.47 0 0 0 -.29.12 2.2 2.2 0 0 0 -.51.36 2.52 2.52 0 0 1 -.25.21l-.27.2-.33.2-.41.22a.62.62 0 0 0 -.18-.25 1.54 1.54 0 0 0 -.28-.21 4.68 4.68 0 0 0 1.09-.48 4.42 4.42 0 0 0 .95-.82l.28.2zm.58-5.47a4.2 4.2 0 0 0 -.57-.42 7.59 7.59 0 0 0 -.76-.39l.32-.34c.14.06.26.13.37.19l.33.18.31.2.36.23-.33.35h.79.63.53l.46-.05v1.48h-.51v-1h-4.27v1.2h-.49v-1.64h.44.5 1.89zm-.46 1.46h-.85-.63v-.48h.29.34 2.33.33.29v.48h-.68-.91v.66h1.12.89a1.94 1.94 0 0 0 0 .24v.27s0 .24 0 .38v1.15.39s0 .21 0 .29 0 .18 0 .29c-.32 0-.68 0-1.06-.06s-.82 0-1.29 0h-1.07-.56-.52q0-.13 0-.24a2 2 0 0 0 0-.27c0-.1 0-.23 0-.38v-1.15c0-.16 0-.29 0-.4s0-.22 0-.3a2 2 0 0 0 0-.25h.95 1zm0 1h-1.42v.84h1.42zm0 1.22h-1.42v.88h1.42zm.51-.38h1.45v-.84h-1.45zm0 1.26h1.45v-.88h-1.45zm2.32 2.08-.41-.32-.43-.28-.54-.29c-.2-.11-.45-.23-.74-.36l.31-.37.66.34c.19.09.37.19.53.28l.47.28.49.32z"/><path d="m465.05 171.21-.31.31-.36.35a1 1 0 0 0 -.23-.23 1.12 1.12 0 0 0 -.29-.14 6.88 6.88 0 0 0 1.47-1.29 7.9 7.9 0 0 0 1.15-1.78 1.49 1.49 0 0 0 .24.18 1.27 1.27 0 0 0 .26.11c.09 0 .14.08.14.12s-.05.09-.15.13a.71.71 0 0 0 -.24.18 3.65 3.65 0 0 0 -.32.43h3 .4.29l-1.56 1.74h1.35a6.57 6.57 0 0 0 .73-.05v.61.65.71a4.45 4.45 0 0 0 0 .57h-.21-4.78v1.19a.89.89 0 0 0 0 .26.32.32 0 0 0 .13.18.65.65 0 0 0 .25.1 2.22 2.22 0 0 0 .43.06h.87.89.85.73a3.67 3.67 0 0 0 .59-.08.9.9 0 0 0 .38-.18.76.76 0 0 0 .21-.34 4 4 0 0 0 .11-.56 1 1 0 0 0 .25.21.74.74 0 0 0 .3.08 4.74 4.74 0 0 1 -.22.69 1 1 0 0 1 -.26.39.83.83 0 0 1 -.39.18 4.14 4.14 0 0 1 -.61.08h-.42-3.28c-.31 0-.56-.05-.74-.08a1.44 1.44 0 0 1 -.42-.15.44.44 0 0 1 -.17-.27 1.62 1.62 0 0 1 0-.41v-2.87c-.01-.29-.03-.65-.06-1.08zm1.06-1.2-.22.28-.22.27a3.58 3.58 0 0 1 -.27.29l-.33.34h.3.5 2l1.13-1.19zm-.49 1.65v1.62h2v-1.62zm4.41 1.62v-1.62h-1.86v1.62z"/><path d="m480.56 170-.48.36a2.67 2.67 0 0 0 -2.18-1.05 2.6 2.6 0 0 0 -1.88.76 2.54 2.54 0 0 0 -.78 1.88 2.43 2.43 0 0 0 .77 1.85 2.62 2.62 0 0 0 1.92.74 2.7 2.7 0 0 0 2.15-1l.48.37a2.88 2.88 0 0 1 -1.14.9 3.63 3.63 0 0 1 -1.52.31 3.21 3.21 0 0 1 -2.38-.92 3.29 3.29 0 0 1 -.5-3.92 3.06 3.06 0 0 1 1.19-1.15 3.34 3.34 0 0 1 1.64-.42 3.65 3.65 0 0 1 1.57.33 3 3 0 0 1 1.14.96z"/><path d="m483.36 175.13a1.7 1.7 0 0 1 -1.51-.81 5.65 5.65 0 0 1 0-4.78 1.68 1.68 0 0 1 1.51-.82 1.81 1.81 0 0 1 1.55.83 4.18 4.18 0 0 1 .57 2.38 4.07 4.07 0 0 1 -.58 2.37 1.77 1.77 0 0 1 -1.54.83zm0-5.83a1.22 1.22 0 0 0 -1.1.68 4 4 0 0 0 -.39 2c0 1.75.5 2.63 1.49 2.63a1.26 1.26 0 0 0 1.13-.69 3.93 3.93 0 0 0 .4-2 3.72 3.72 0 0 0 -.42-2 1.25 1.25 0 0 0 -1.09-.62z"/><path d="m488.34 175 .87-6.1h.09l2.49 5 2.46-5h.1l.87 6.1h-.6l-.6-4.37-2.16 4.37h-.15l-2.18-4.4-.6 4.4z"/><path d="m498 175.13a1.72 1.72 0 0 1 -1.52-.81 5.65 5.65 0 0 1 0-4.78 1.7 1.7 0 0 1 1.51-.82 1.8 1.8 0 0 1 1.55.83 5.15 5.15 0 0 1 0 4.75 1.78 1.78 0 0 1 -1.54.83zm0-5.83a1.22 1.22 0 0 0 -1.1.68 4 4 0 0 0 -.39 2c0 1.75.49 2.63 1.49 2.63a1.24 1.24 0 0 0 1.12-.69 3.92 3.92 0 0 0 .41-2 3.72 3.72 0 0 0 -.42-2 1.27 1.27 0 0 0 -1.11-.62z"/><path d="m502.79 168.88h.7l1.56 2.51 1.53-2.51h.71l-1.94 3.18v2.94h-.59v-2.92z"/><path d="m509.87 175.13a1.7 1.7 0 0 1 -1.51-.81 5.65 5.65 0 0 1 0-4.78 1.68 1.68 0 0 1 1.51-.82 1.81 1.81 0 0 1 1.55.83 4.18 4.18 0 0 1 .57 2.38 4.07 4.07 0 0 1 -.58 2.37 1.77 1.77 0 0 1 -1.54.83zm0-5.83a1.23 1.23 0 0 0 -1.1.68 4 4 0 0 0 -.39 2c0 1.75.5 2.63 1.49 2.63a1.26 1.26 0 0 0 1.13-.69 3.93 3.93 0 0 0 .4-2 3.72 3.72 0 0 0 -.42-2 1.25 1.25 0 0 0 -1.09-.62z"/><path d="m515.13 168.88h.63v2.28l2.43-2.28h.81l-2.93 2.73 3.16 3.37h-.81l-2.67-2.85v2.87h-.63z"/><path d="m521.73 175.13a1.72 1.72 0 0 1 -1.52-.81 5.65 5.65 0 0 1 0-4.78 1.7 1.7 0 0 1 1.51-.82 1.8 1.8 0 0 1 1.55.83 5.15 5.15 0 0 1 0 4.75 1.78 1.78 0 0 1 -1.54.83zm0-5.83a1.22 1.22 0 0 0 -1.1.68 4 4 0 0 0 -.39 2c0 1.75.5 2.63 1.49 2.63a1.23 1.23 0 0 0 1.12-.69 3.92 3.92 0 0 0 .41-2 3.72 3.72 0 0 0 -.42-2 1.27 1.27 0 0 0 -1.09-.62z"/><path d="m439.32 220.23c0-.16 0-.29 0-.4v-.32a4.73 4.73 0 0 0 .75 0c.26 0 .5-.07.74-.12s.46-.12.67-.19a4.84 4.84 0 0 0 .55-.22 1.81 1.81 0 0 0 .17.29 1 1 0 0 0 .17.2c.07.07.1.14.08.2s-.11.07-.25 0h-.23-.35l-.64.08-1.09.18v1.5h1.5.41.34v.57h-.34-.42-1.49v2.53c.42-.19.81-.39 1.18-.6s.71-.4 1-.59a2.84 2.84 0 0 0 .06.29.84.84 0 0 0 .1.22l-2.23 1.04-.44.26a3.07 3.07 0 0 0 -.4.26 1 1 0 0 0 -.13-.29 1.81 1.81 0 0 0 -.23-.29l.24-.09.24-.1zm6.35-.78a3.05 3.05 0 0 0 -.05.41v.43 3.71a1.37 1.37 0 0 1 -.05.39.37.37 0 0 1 -.19.24 1.19 1.19 0 0 1 -.43.15c-.18 0-.44.06-.75.08a.89.89 0 0 0 -.07-.31 1.87 1.87 0 0 0 -.21-.36 3.46 3.46 0 0 0 .55.08 1.19 1.19 0 0 0 .36 0 .41.41 0 0 0 .2-.16.57.57 0 0 0 .05-.24v-3.87h-1.8v6.51h-.6c0-.32 0-.63.05-.91s0-.56 0-.83v-4.43a5.08 5.08 0 0 0 -.06-.84 5.59 5.59 0 0 0 .64.06h.89s.6 0 .84 0a5.2 5.2 0 0 0 .63-.11z"/><path d="m451.69 221.1h-.2-.32-2.78a17.18 17.18 0 0 1 -.2 2.83 5.25 5.25 0 0 1 -.68 1.89 1.07 1.07 0 0 0 -.22-.15 1.14 1.14 0 0 0 -.33-.08 4.59 4.59 0 0 0 .35-.51 3.11 3.11 0 0 0 .26-.61 5.92 5.92 0 0 0 .18-.75c0-.28.08-.61.11-1 0-.59.07-1.19.06-1.79s0-1.2-.07-1.81h.28.39 1.25a15 15 0 0 0 1.92-.08 8.12 8.12 0 0 0 -.05.9v.68s.04.38.05.48zm-.51-1.54h-2.79v1.07h2.79zm-.8 5.56v.67a4.85 4.85 0 0 0 .05.64h-.62c0-.23.05-.45.06-.65s0-.42 0-.66v-2.37h-.87v2.52h-.52a12.49 12.49 0 0 0 .08-1.34v-1.63h.23.27.34.47c0-.15 0-.27 0-.37s0-.19 0-.26a1.25 1.25 0 0 0 0-.21c0-.06 0-.13 0-.2h.33.33q.09 0 .09 0s0 0-.06.08a.27.27 0 0 0 -.11.1.27.27 0 0 0 -.05.14v.64h.89.28.24v2.25a1 1 0 0 1 0 .27.38.38 0 0 1 -.13.18.83.83 0 0 1 -.31.12 4 4 0 0 1 -.53.08 1.06 1.06 0 0 0 -.18-.57h.37a.43.43 0 0 0 .22 0 .2.2 0 0 0 .09-.15 1.17 1.17 0 0 0 0-.29v-1.43h-.93zm2.62-5.12a.25.25 0 0 0 -.09.23v2.53.69s0 .46 0 .66h-.6c0-.2 0-.41.05-.62s0-.45 0-.73v-1.86a7 7 0 0 0 0-.7 2.31 2.31 0 0 0 -.05-.43l.32.06a1.4 1.4 0 0 0 .29 0c.07 0 .11 0 .12.05s.04.04-.04.12zm1.44-1.07a.22.22 0 0 0 -.11.22v6.35a2.05 2.05 0 0 1 0 .47.46.46 0 0 1 -.19.28 1 1 0 0 1 -.44.14 5.86 5.86 0 0 1 -.81 0 .65.65 0 0 0 0-.33 1 1 0 0 0 -.17-.28c.26 0 .46.07.62.08a.92.92 0 0 0 .35 0 .26.26 0 0 0 .16-.15 1 1 0 0 0 0-.28v-5.43c0-.3 0-.58 0-.83a5.09 5.09 0 0 0 0-.56 2 2 0 0 0 .64.06c.08 0 .12 0 .14.06s-.1.12-.17.16z"/><path d="m456.83 222.21-.32-.31-.32-.27-.35-.25a4.67 4.67 0 0 0 -.45-.23l.31-.41.82.54.69.54zm.76 1c-.12.29-.24.55-.35.79s-.22.48-.34.72-.23.5-.37.76l-.45.91-.3-.19a2.53 2.53 0 0 0 -.29-.14 7.78 7.78 0 0 0 .95-1.46 7.22 7.22 0 0 0 .59-1.77 1.07 1.07 0 0 0 .22.21 1.76 1.76 0 0 0 .34.15zm-.35-2.77-.34-.32a4.09 4.09 0 0 0 -.33-.28 2.31 2.31 0 0 0 -.36-.25l-.39-.25.32-.39c.13.09.25.17.36.26l.35.24.35.26.38.3zm2.64 4.67c.05 0 .07 0 .07.08s0 0-.08 0a1.47 1.47 0 0 0 -.29.12 2.2 2.2 0 0 0 -.51.36 1.64 1.64 0 0 1 -.25.21 3.16 3.16 0 0 1 -.27.2l-.33.2-.41.23a.66.66 0 0 0 -.18-.26 1.54 1.54 0 0 0 -.28-.21 4.68 4.68 0 0 0 1.09-.48 4.42 4.42 0 0 0 .95-.82c.12.1.21.16.28.21zm.58-5.47a4.2 4.2 0 0 0 -.57-.42 7.59 7.59 0 0 0 -.76-.39l.32-.34.37.19.33.18.31.2.36.24-.33.34h.79.63.53.46v1.36h-.51v-1h-4.27v1.2h-.49v-1.64l.44.05h.5 1.89zm-.51 1.52h-.85a5 5 0 0 0 -.63 0v-.49h.29.34 2.33.33.29v.49a5.79 5.79 0 0 0 -.68 0h-.91v.66h1.12c.3 0 .6 0 .89-.06a1.94 1.94 0 0 0 0 .24v.27s0 .24 0 .39v1.14.4s0 .2 0 .28 0 .19 0 .29c-.32 0-.68 0-1.06-.06h-1.29-1.07-.56c-.19 0-.36 0-.52 0 0-.09 0-.18 0-.25a1.84 1.84 0 0 0 0-.26c0-.11 0-.23 0-.39v-1.15c0-.16 0-.29 0-.4s0-.21 0-.3a2.11 2.11 0 0 0 0-.25c.28 0 .6 0 .95.06h1zm0 1h-1.42v.84h1.47zm0 1.23h-1.42v.87h1.47zm.51-.39h1.45v-.84h-1.45zm0 1.26h1.45v-.87h-1.45zm2.32 2.08-.41-.31a3.55 3.55 0 0 0 -.43-.28q-.24-.15-.54-.3c-.2-.11-.45-.23-.74-.36l.31-.37.66.34c.19.1.37.19.53.29s.32.18.47.28.32.19.49.31z"/><path d="m465.05 221.32-.31.3-.36.35a1 1 0 0 0 -.23-.23.87.87 0 0 0 -.29-.13 7.22 7.22 0 0 0 1.47-1.3 7.9 7.9 0 0 0 1.15-1.78 1.49 1.49 0 0 0 .24.18l.26.12c.09 0 .14.07.14.11s-.05.09-.15.13a.71.71 0 0 0 -.24.18 4.78 4.78 0 0 0 -.32.43h2.53.44.4.29l-1.56 1.74h1.35a6.57 6.57 0 0 0 .73-.05v.61.66.7a4.45 4.45 0 0 0 0 .57h-.21-.31-4.47v1.27a1 1 0 0 0 0 .26.3.3 0 0 0 .13.17.84.84 0 0 0 .25.11l.43.05h.87.89.85.73a2.8 2.8 0 0 0 .59-.08.71.71 0 0 0 .38-.18.76.76 0 0 0 .28-.51 4 4 0 0 0 .11-.56.68.68 0 0 0 .25.21.75.75 0 0 0 .3.09 4.55 4.55 0 0 1 -.22.68.86.86 0 0 1 -.65.58c-.16 0-.37.05-.61.07h-.42-.63-2.65c-.31 0-.56 0-.74-.08a1 1 0 0 1 -.42-.15.44.44 0 0 1 -.17-.27 1.62 1.62 0 0 1 0-.41v-2.87c-.05-.2-.07-.55-.1-.97zm1.06-1.21-.22.28-.22.28a3.5 3.5 0 0 1 -.27.28c-.09.1-.2.22-.33.34h.3.5 2l1.1-1.24zm-.49 1.66v1.61h2v-1.61zm4.41 1.61v-1.61h-1.86v1.61z"/><path d="m480.56 220.11-.48.36a2.67 2.67 0 0 0 -2.18-1.05 2.61 2.61 0 0 0 -1.88.77 2.51 2.51 0 0 0 -.78 1.87 2.43 2.43 0 0 0 .77 1.85 2.63 2.63 0 0 0 1.92.75 2.71 2.71 0 0 0 2.15-1l.48.37a2.79 2.79 0 0 1 -1.14.9 3.63 3.63 0 0 1 -1.52.31 3.24 3.24 0 0 1 -2.38-.91 3.14 3.14 0 0 1 -.93-2.32 3.11 3.11 0 0 1 .43-1.61 3.06 3.06 0 0 1 1.19-1.15 3.33 3.33 0 0 1 1.64-.41 3.65 3.65 0 0 1 1.57.33 3 3 0 0 1 1.14.94z"/><path d="m481.65 219h3.87l-3.26 6.25-.5-.25 2.82-5.42h-2.93z"/><path d="m489 221.73a1.76 1.76 0 0 1 1.15 1.6 1.8 1.8 0 0 1 -.57 1.36 2.12 2.12 0 0 1 -1.51.54 2.07 2.07 0 0 1 -1.49-.54 1.77 1.77 0 0 1 -.56-1.31 1.8 1.8 0 0 1 1.18-1.65 1.42 1.42 0 0 1 -.37-2.42 1.92 1.92 0 0 1 2.52 0 1.47 1.47 0 0 1 .52 1.14 1.45 1.45 0 0 1 -.87 1.28zm.54 1.61a1.2 1.2 0 0 0 -.42-.91 1.53 1.53 0 0 0 -2.05 0 1.27 1.27 0 0 0 -.44.95 1.19 1.19 0 0 0 .4.91 1.52 1.52 0 0 0 1.05.36 1.45 1.45 0 0 0 1-.39 1.22 1.22 0 0 0 .48-.92zm-.28-2.93a.94.94 0 0 0 -.32-.71 1.2 1.2 0 0 0 -.83-.29 1.25 1.25 0 0 0 -.85.29.93.93 0 0 0 -.33.71 1 1 0 0 0 .36.75 1.19 1.19 0 0 0 .82.33 1.13 1.13 0 0 0 .81-.33 1 1 0 0 0 .36-.75z"/><path d="m493.05 225.08.87-6.1h.08l2.49 5 2.46-5h.09l.88 6.1h-.6l-.6-4.37-2.16 4.37h-.15l-2.18-4.4-.6 4.4z"/><path d="m501 219h3.87l-3.27 6.25-.5-.25 2.82-5.42h-2.92z"/><path d="m506.68 219h1.2v6.1h-.61v-5.51h-1z"/><path d="m512.2 219h.71l1.55 2.51 1.54-2.51h.71l-1.94 3.19v2.91h-.59v-2.91z"/><path d="m517.58 219h3.87l-3.26 6.25-.5-.25 2.82-5.42h-2.93z"/><path d="m522.8 220.39h-.62a2.1 2.1 0 0 1 .65-1.16 1.88 1.88 0 0 1 2.38.05 1.43 1.43 0 0 1 .52 1.12 1.4 1.4 0 0 1 -.78 1.25 1.68 1.68 0 0 1 .82.66 1.65 1.65 0 0 1 .3.95 1.9 1.9 0 0 1 -.59 1.39 2.06 2.06 0 0 1 -1.5.58 1.91 1.91 0 0 1 -1.31-.45 2.24 2.24 0 0 1 -.69-1.33h.59a1.85 1.85 0 0 0 .5.9 1.42 1.42 0 0 0 .95.29 1.45 1.45 0 0 0 1-.39 1.31 1.31 0 0 0 .41-1 1.09 1.09 0 0 0 -.46-.93 2.17 2.17 0 0 0 -1.33-.37v-.56a1.69 1.69 0 0 0 1-.29.85.85 0 0 0 .4-.72.91.91 0 0 0 -.32-.71 1.12 1.12 0 0 0 -.77-.29 1.09 1.09 0 0 0 -.73.24 2 2 0 0 0 -.42.77z"/><path d="m529.25 219h.63v2.29l2.43-2.29h.83l-2.93 2.74 3.16 3.36h-.81l-2.68-2.85v2.85h-.63z"/><path d="m537.16 218.83h.12v4.25h.72v.58h-.74v1.42h-.61v-1.42h-2.92zm-.49 4.25v-2.55l-1.8 2.55z"/><path d="m539.23 220.89h-.58a2.1 2.1 0 0 1 .62-1.5 1.89 1.89 0 0 1 1.39-.56 1.87 1.87 0 0 1 1.37.53 1.77 1.77 0 0 1 .54 1.29 2 2 0 0 1 -.31 1.06 7.86 7.86 0 0 1 -.91 1.14l-1.52 1.64h2.82v.59h-4.15l2.33-2.51a11.25 11.25 0 0 0 .88-1 1.55 1.55 0 0 0 .26-.88 1.17 1.17 0 0 0 -.39-.86 1.34 1.34 0 0 0 -1-.38 1.27 1.27 0 0 0 -1 .39 1.73 1.73 0 0 0 -.35 1.05z"/><path d="m439.23 252.84h1.29a7.74 7.74 0 0 1 1.5.09 1.81 1.81 0 0 1 .64.31 1.59 1.59 0 0 1 .45.57 1.77 1.77 0 0 1 -.2 1.84 1.55 1.55 0 0 1 -.9.53 8.61 8.61 0 0 1 -1.67.11h-.46v3h-.65zm.65.63v2.2h1.12a1.76 1.76 0 0 0 1.31-.32 1.12 1.12 0 0 0 .32-.79c0-.73-.53-1.09-1.57-1.09z"/><path d="m449.22 254.52v4.78h-.6v-.82a2.37 2.37 0 0 1 -3.65.23 2.5 2.5 0 0 1 -.72-1.79 2.43 2.43 0 0 1 .73-1.78 2.31 2.31 0 0 1 1.74-.74 2.23 2.23 0 0 1 1.9 1v-.88zm-.56 2.41a1.94 1.94 0 0 0 -.55-1.38 1.84 1.84 0 0 0 -1.35-.56 1.75 1.75 0 0 0 -1.34.58 2 2 0 0 0 0 2.75 1.8 1.8 0 0 0 1.33.58 1.84 1.84 0 0 0 1.34-.56 1.91 1.91 0 0 0 .57-1.41z"/><path d="m450.61 254.52h.62v.86a2.17 2.17 0 0 1 1.79-1 1.63 1.63 0 0 1 1 .29 1.58 1.58 0 0 1 .62.76 4.13 4.13 0 0 1 .18 1.39v2.46h-.62v-2.28a5.67 5.67 0 0 0 -.07-1.13 1.23 1.23 0 0 0 -.24-.5 1 1 0 0 0 -.4-.32 1.48 1.48 0 0 0 -.59-.11 1.55 1.55 0 0 0 -.68.17 1.73 1.73 0 0 0 -.56.48 1.88 1.88 0 0 0 -.32.63 7 7 0 0 0 -.08 1.31v1.75h-.62z"/><path d="m457.26 258.54c0 .17 0 .26.06.29a.71.71 0 0 0 .33.05h.35v.52a4.12 4.12 0 0 1 -.6.06.74.74 0 0 1 -.59-.2.84.84 0 0 1 -.19-.62v-3.64h-.85v-.52h.85v-1.84h.62v1.84h1v.52h-1z"/><path d="m458.93 256.94a2.51 2.51 0 0 1 .72-1.8 2.47 2.47 0 0 1 3.53 0 2.6 2.6 0 0 1 0 3.58 2.49 2.49 0 0 1 -3.54 0 2.46 2.46 0 0 1 -.71-1.78zm4.35 0a1.91 1.91 0 0 0 -.55-1.37 1.78 1.78 0 0 0 -2.63 0 2 2 0 0 0 -.54 1.38 1.88 1.88 0 0 0 .53 1.36 1.74 1.74 0 0 0 1.31.56 1.82 1.82 0 0 0 1.34-.56 1.91 1.91 0 0 0 .54-1.31z"/><path d="m465.05 254.52h.62v.86a2.17 2.17 0 0 1 1.79-1 1.65 1.65 0 0 1 1 .29 1.56 1.56 0 0 1 .61.76 4.13 4.13 0 0 1 .18 1.39v2.46h-.61v-2.28a5.45 5.45 0 0 0 -.08-1.13 1.36 1.36 0 0 0 -.23-.5 1 1 0 0 0 -.4-.32 1.48 1.48 0 0 0 -.59-.11 1.52 1.52 0 0 0 -.68.17 1.87 1.87 0 0 0 -.57.48 1.84 1.84 0 0 0 -.31.63 6.23 6.23 0 0 0 -.08 1.31v1.75h-.62z"/><path d="m474.56 257.75.52.27a2.47 2.47 0 0 1 -2.29 1.44 2.33 2.33 0 0 1 -1.78-.74 2.49 2.49 0 0 1 -.7-1.79 2.53 2.53 0 0 1 .71-1.79 2.32 2.32 0 0 1 1.74-.74 2.4 2.4 0 0 1 1.75.69 2.62 2.62 0 0 1 .73 1.89h-4.3a2 2 0 0 0 .55 1.39 1.69 1.69 0 0 0 1.25.53 2 2 0 0 0 1.82-1.15zm0-1.3a1.7 1.7 0 0 0 -.63-1.07 1.87 1.87 0 0 0 -1.16-.39 1.75 1.75 0 0 0 -1.77 1.46z"/><path d="m479.14 254.33h-.66a2.2 2.2 0 0 1 .69-1.23 2 2 0 0 1 2.52.06 1.55 1.55 0 0 1 .55 1.18 1.47 1.47 0 0 1 -.83 1.32 1.93 1.93 0 0 1 .88.7 1.85 1.85 0 0 1 .31 1 2 2 0 0 1 -.63 1.48 2.16 2.16 0 0 1 -1.58.61 2 2 0 0 1 -1.39-.45 2.39 2.39 0 0 1 -.73-1.41h.63a1.84 1.84 0 0 0 .52.95 1.47 1.47 0 0 0 1 .31 1.53 1.53 0 0 0 1.09-.41 1.38 1.38 0 0 0 .44-1 1.2 1.2 0 0 0 -.49-1 2.32 2.32 0 0 0 -1.41-.39v-.6a1.81 1.81 0 0 0 1.08-.3.92.92 0 0 0 .42-.76 1 1 0 0 0 -.34-.76 1.16 1.16 0 0 0 -.81-.3 1.12 1.12 0 0 0 -.77.25 2.1 2.1 0 0 0 -.49.75z"/><path d="m484 254.86h-.62a2.23 2.23 0 0 1 .66-1.58 2 2 0 0 1 1.48-.6 1.94 1.94 0 0 1 1.44.56 1.84 1.84 0 0 1 .57 1.37 2.11 2.11 0 0 1 -.32 1.12 8.77 8.77 0 0 1 -1 1.21l-1.61 1.74h3v.62h-4.39l2.46-2.66a10.78 10.78 0 0 0 .93-1.11 1.57 1.57 0 0 0 .28-.93 1.23 1.23 0 0 0 -.41-.91 1.38 1.38 0 0 0 -1-.4 1.34 1.34 0 0 0 -1 .41 1.79 1.79 0 0 0 -.47 1.16z"/><path d="m488.57 252.84h4.1l-3.46 6.62-.53-.27 3-5.74h-3.1z"/><path d="m494 254.86h-.62a2.23 2.23 0 0 1 .66-1.58 2 2 0 0 1 1.48-.6 1.94 1.94 0 0 1 1.44.56 1.84 1.84 0 0 1 .57 1.37 2.11 2.11 0 0 1 -.32 1.12 8.07 8.07 0 0 1 -1 1.21l-1.61 1.74h3v.62h-4.39l2.47-2.66a10.41 10.41 0 0 0 .92-1.11 1.57 1.57 0 0 0 .28-.93 1.23 1.23 0 0 0 -.41-.91 1.38 1.38 0 0 0 -1-.4 1.34 1.34 0 0 0 -1 .41 1.79 1.79 0 0 0 -.47 1.16z"/><path d="m504.7 254-.5.38a2.86 2.86 0 0 0 -2.32-1.11 2.73 2.73 0 0 0 -2 .81 2.78 2.78 0 0 0 0 3.94 2.79 2.79 0 0 0 2 .79 2.88 2.88 0 0 0 2.28-1.06l.5.39a3 3 0 0 1 -1.21.95 3.83 3.83 0 0 1 -1.61.33 3.44 3.44 0 0 1 -2.52-1 3.34 3.34 0 0 1 -1-2.46 3.23 3.23 0 0 1 .46-1.69 3.15 3.15 0 0 1 1.26-1.22 3.45 3.45 0 0 1 1.73-.44 3.71 3.71 0 0 1 1.66.35 3 3 0 0 1 1.27 1.04z"/><path d="m439.32 266.78c0-.15 0-.28 0-.4v-.31a6.3 6.3 0 0 0 .68-.07c.26 0 .5-.08.74-.13a5.92 5.92 0 0 0 .67-.18 4.8 4.8 0 0 0 .55-.23 1.52 1.52 0 0 0 .17.3 1.39 1.39 0 0 0 .17.2c.07.07.1.13.08.19s-.11.08-.25.05h-.23a2.58 2.58 0 0 0 -.35 0l-.64.09-1.09.17v1.54h.89.61.41.34v.57h-.34-.42-.6-.89v2.43c.42-.2.81-.39 1.18-.6s.71-.41 1-.59a2.57 2.57 0 0 0 .06.28.89.89 0 0 0 .1.23l-2.16 1.13-.44.25a4.64 4.64 0 0 0 -.4.26 1.08 1.08 0 0 0 -.13-.29 1.78 1.78 0 0 0 -.23-.28l.24-.09.24-.1zm6.35-.77a2.91 2.91 0 0 0 -.05.4v.43 3.69a1.37 1.37 0 0 1 -.05.39.37.37 0 0 1 -.19.25 1.2 1.2 0 0 1 -.43.14 5.3 5.3 0 0 1 -.75.09 1 1 0 0 0 -.07-.32 1.59 1.59 0 0 0 -.21-.35 3.29 3.29 0 0 0 .55.07.78.78 0 0 0 .36 0 .35.35 0 0 0 .2-.15.62.62 0 0 0 .05-.25v-3.9h-1.8v6.5h-.6c0-.32 0-.62.05-.91s0-.56 0-.83v-4.43a5 5 0 0 0 -.06-.83 5.59 5.59 0 0 0 .64.06h.89.84a5.2 5.2 0 0 0 .63-.06z"/><path d="m451.69 267.65h-.2-3.1a17.05 17.05 0 0 1 -.2 2.82 5.23 5.23 0 0 1 -.68 1.9.62.62 0 0 0 -.22-.15.88.88 0 0 0 -.33-.08 4.59 4.59 0 0 0 .35-.51 3.39 3.39 0 0 0 .26-.61 6.56 6.56 0 0 0 .18-.76c0-.28.08-.6.11-1 0-.6.07-1.19.06-1.8s0-1.2-.07-1.81h.28.39.54.71a13.26 13.26 0 0 0 1.92-.08 8.46 8.46 0 0 0 -.05.91v.68s.04.38.05.49zm-.51-1.54h-2.79v1.07h2.79zm-.8 5.56v.67a5 5 0 0 0 .05.65h-.62c0-.23.05-.45.06-.65s0-.43 0-.67v-2.36h-.87v2.51h-.52a12.31 12.31 0 0 0 .08-1.33v-1.63h.23.27.81c0-.15 0-.27 0-.37s0-.19 0-.27a1.23 1.23 0 0 0 0-.2c0-.07 0-.13 0-.21h.33.33.09s0 0-.06.07a.29.29 0 0 0 -.11.11.24.24 0 0 0 -.05.14v.64h1.17.24v2.25a1 1 0 0 1 0 .26.36.36 0 0 1 -.13.19 1.43 1.43 0 0 1 -.31.12c-.13 0-.31.05-.53.08a1.06 1.06 0 0 0 -.18-.57h.37a.42.42 0 0 0 .22-.05.2.2 0 0 0 .09-.15 1 1 0 0 0 0-.28v-1.43h-.93zm2.64-5.16a.26.26 0 0 0 -.09.23v2.53.69s0 .47 0 .67h-.6c0-.21 0-.41.05-.62s0-.45 0-.74v-1.86a6.86 6.86 0 0 0 0-.69 2.44 2.44 0 0 0 -.05-.44l.32.06a1.43 1.43 0 0 0 .29 0h.12s.02.13-.06.17zm1.44-1.07a.25.25 0 0 0 -.11.23v6.33a2 2 0 0 1 0 .46.46.46 0 0 1 -.19.29 1.08 1.08 0 0 1 -.44.14 8 8 0 0 1 -.81 0 .71.71 0 0 0 0-.34 1.3 1.3 0 0 0 -.17-.28 5.11 5.11 0 0 0 .62.09.89.89 0 0 0 .35 0 .24.24 0 0 0 .16-.15 1 1 0 0 0 0-.27v-5.38c0-.3 0-.58 0-.83a5.32 5.32 0 0 0 0-.57 1.72 1.72 0 0 0 .64.06c.08 0 .12 0 .14.07s-.12.12-.19.15z"/><path d="m456.83 268.76-.32-.3a2.69 2.69 0 0 0 -.32-.27c-.11-.09-.23-.17-.35-.25a4.6 4.6 0 0 0 -.45-.24l.31-.41c.3.19.57.37.82.55s.47.35.69.53zm.76 1-.35.79c-.11.24-.22.48-.34.72s-.23.49-.37.76l-.45.91-.3-.19a1.53 1.53 0 0 0 -.29-.14 7.86 7.86 0 0 0 .95-1.47 7 7 0 0 0 .59-1.76 2.13 2.13 0 0 0 .22.21 1.76 1.76 0 0 0 .34.16zm-.35-2.77-.34-.33-.33-.28a3.27 3.27 0 0 0 -.36-.25l-.39-.25.32-.39.36.26.35.25.35.26.38.3zm2.64 4.67c.05 0 .07.05.07.07a.09.09 0 0 1 -.08 0l-.29.13a2.2 2.2 0 0 0 -.51.36l-.25.21a3.15 3.15 0 0 1 -.27.19l-.33.2-.41.23a.75.75 0 0 0 -.18-.26 1.54 1.54 0 0 0 -.28-.21 4 4 0 0 0 1.09-.48 4.16 4.16 0 0 0 .95-.82 2.21 2.21 0 0 0 .28.21zm.58-5.47a4.2 4.2 0 0 0 -.57-.42 5.92 5.92 0 0 0 -.76-.4l.32-.34.37.2.33.18.31.2.36.23-.33.35h.79.63.53.46v1.48h-.51v-1h-4.27v1.2h-.49v-1.64h.44a3.43 3.43 0 0 0 .5 0h.74zm-.51 1.51h-.85a5.27 5.27 0 0 0 -.63 0v-.48h.29.34 2.33.33.29v.48a6.07 6.07 0 0 0 -.68 0h-.91v.67h1.12l.89-.05a2 2 0 0 0 0 .23v.28s0 .24 0 .38v1.15.39s0 .2 0 .29 0 .18 0 .29c-.32 0-.68-.05-1.06-.06s-.82 0-1.29 0h-1.07-.56-.52v-.24a2.13 2.13 0 0 0 0-.27c0-.1 0-.23 0-.38v-1.16c0-.15 0-.28 0-.4s0-.21 0-.29a2 2 0 0 0 0-.25l.95.05h1zm0 1.05h-1.42v.84h1.47zm0 1.22h-1.42v.88h1.47zm.51-.38h1.45v-.84h-1.45zm0 1.26h1.45v-.85h-1.45zm2.32 2.08-.41-.32c-.13-.09-.27-.19-.43-.28l-.54-.3-.74-.36.31-.36.66.33.53.29.47.28.49.31z"/><path d="m465.05 267.87a3 3 0 0 1 -.31.3l-.36.36a.83.83 0 0 0 -.23-.23 1.12 1.12 0 0 0 -.29-.14 7.48 7.48 0 0 0 1.47-1.29 8 8 0 0 0 1.15-1.79l.24.19a1.27 1.27 0 0 0 .26.11c.09 0 .14.07.14.12s-.05.09-.15.13a.71.71 0 0 0 -.24.18 3.65 3.65 0 0 0 -.32.43h2.53.44.4.29l-1.56 1.75h1.35.73v.6.66.71a4.45 4.45 0 0 0 0 .57h-.21-4.78v1.26a1 1 0 0 0 0 .26.32.32 0 0 0 .13.18.65.65 0 0 0 .25.1 2.22 2.22 0 0 0 .43.06h.87.89.85.73a3.67 3.67 0 0 0 .59-.08.9.9 0 0 0 .38-.18.76.76 0 0 0 .21-.34 4 4 0 0 0 .11-.56 1 1 0 0 0 .25.21 1 1 0 0 0 .3.08 4.74 4.74 0 0 1 -.22.69 1 1 0 0 1 -.26.38.84.84 0 0 1 -.39.19c-.16 0-.37.06-.61.08h-.42-.63-2.06-.48a5.64 5.64 0 0 1 -.74-.07 1.19 1.19 0 0 1 -.42-.16.39.39 0 0 1 -.17-.26 1.71 1.71 0 0 1 0-.42v-2.86c-.09-.45-.11-.79-.14-1.22zm1.06-1.21-.22.29-.22.27a3.58 3.58 0 0 1 -.27.29l-.33.34h.3 2.51l1.1-1.25zm-.49 1.66v1.62h2v-1.62zm4.41 1.62v-1.62h-1.86v1.62z"/><path d="m480.56 266.66-.48.37a2.67 2.67 0 0 0 -2.18-1 2.6 2.6 0 0 0 -1.88.76 2.53 2.53 0 0 0 -.78 1.87 2.45 2.45 0 0 0 .77 1.86 2.66 2.66 0 0 0 1.92.74 2.7 2.7 0 0 0 2.15-1l.48.36a2.9 2.9 0 0 1 -1.14.91 3.63 3.63 0 0 1 -1.52.31 3.25 3.25 0 0 1 -2.38-.92 3.11 3.11 0 0 1 -.93-2.32 3.07 3.07 0 0 1 .41-1.6 3 3 0 0 1 1.19-1.15 3.34 3.34 0 0 1 1.64-.42 3.65 3.65 0 0 1 1.57.33 3 3 0 0 1 1.16.9z"/><path d="m482.61 265.53h1.2v6.11h-.6v-5.51h-1z"/><path d="m488.07 271.79a1.69 1.69 0 0 1 -1.51-.81 5.58 5.58 0 0 1 0-4.79 1.68 1.68 0 0 1 1.5-.81 1.79 1.79 0 0 1 1.55.83 5.15 5.15 0 0 1 0 4.75 1.79 1.79 0 0 1 -1.54.83zm0-5.83a1.22 1.22 0 0 0 -1.1.68 4 4 0 0 0 -.39 2c0 1.76.5 2.64 1.49 2.64a1.25 1.25 0 0 0 1.13-.7 3.89 3.89 0 0 0 .4-2 3.72 3.72 0 0 0 -.42-1.95 1.26 1.26 0 0 0 -1.09-.63z"/><path d="m492.78 271.79a1.72 1.72 0 0 1 -1.52-.81 5.68 5.68 0 0 1 0-4.79 1.71 1.71 0 0 1 1.51-.81 1.8 1.8 0 0 1 1.55.83 4.08 4.08 0 0 1 .58 2.38 4.14 4.14 0 0 1 -.58 2.37 1.81 1.81 0 0 1 -1.54.83zm0-5.83a1.22 1.22 0 0 0 -1.1.68 4 4 0 0 0 -.39 2c0 1.76.5 2.64 1.49 2.64a1.23 1.23 0 0 0 1.12-.7 3.88 3.88 0 0 0 .41-2 3.72 3.72 0 0 0 -.42-1.95 1.27 1.27 0 0 0 -1.09-.63z"/><path d="m497.56 265.53h.7l1.56 2.52 1.54-2.52h.7l-1.94 3.19v2.92h-.59v-2.92z"/><path d="m506.51 265.53v.58h-2.18l-.3 1.67a2.66 2.66 0 0 1 .76-.12 1.8 1.8 0 0 1 1.34.56 2.05 2.05 0 0 1 .53 1.45 2.09 2.09 0 0 1 -.58 1.5 2 2 0 0 1 -1.54.62 1.87 1.87 0 0 1 -1.25-.44 1.79 1.79 0 0 1 -.61-1.19h.62a1.28 1.28 0 0 0 .45.78 1.32 1.32 0 0 0 .81.27 1.4 1.4 0 0 0 1-.45 1.51 1.51 0 0 0 .44-1.12 1.42 1.42 0 0 0 -.38-1 1.35 1.35 0 0 0 -1-.39 3.34 3.34 0 0 0 -1.36.32l.56-3z"/><path d="m509.36 271.79a1.71 1.71 0 0 1 -1.52-.81 5.68 5.68 0 0 1 0-4.79 1.7 1.7 0 0 1 1.51-.81 1.8 1.8 0 0 1 1.55.83 4.16 4.16 0 0 1 .57 2.38 4.07 4.07 0 0 1 -.58 2.37 1.78 1.78 0 0 1 -1.53.83zm0-5.83a1.21 1.21 0 0 0 -1.09.68 4 4 0 0 0 -.39 2c0 1.76.49 2.64 1.48 2.64a1.25 1.25 0 0 0 1.13-.7 3.89 3.89 0 0 0 .4-2 3.83 3.83 0 0 0 -.41-1.95 1.27 1.27 0 0 0 -1.11-.63z"/><path d="m439.23 302.5h1.29a7.74 7.74 0 0 1 1.5.09 1.81 1.81 0 0 1 .64.31 1.59 1.59 0 0 1 .45.57 1.77 1.77 0 0 1 -.2 1.84 1.55 1.55 0 0 1 -.9.53 8.61 8.61 0 0 1 -1.67.11h-.46v3h-.65zm.65.63v2.2h1.12a1.76 1.76 0 0 0 1.31-.32 1.12 1.12 0 0 0 .32-.79c0-.73-.53-1.09-1.57-1.09z"/><path d="m449.22 304.18v4.82h-.6v-.82a2.42 2.42 0 0 1 -1.87 1 2.38 2.38 0 0 1 -1.78-.75 2.5 2.5 0 0 1 -.72-1.79 2.43 2.43 0 0 1 .73-1.78 2.31 2.31 0 0 1 1.74-.74 2.25 2.25 0 0 1 1.9 1v-.87zm-.56 2.41a1.94 1.94 0 0 0 -.55-1.38 1.84 1.84 0 0 0 -1.35-.56 1.75 1.75 0 0 0 -1.34.58 1.91 1.91 0 0 0 -.55 1.37 1.86 1.86 0 0 0 .56 1.37 1.77 1.77 0 0 0 1.33.59 1.84 1.84 0 0 0 1.34-.56 1.93 1.93 0 0 0 .56-1.41z"/><path d="m450.61 304.18h.62v.82a2.17 2.17 0 0 1 1.79-1 1.63 1.63 0 0 1 1 .29 1.58 1.58 0 0 1 .62.76 4.13 4.13 0 0 1 .18 1.39v2.56h-.62v-2.28a5.61 5.61 0 0 0 -.07-1.13 1.34 1.34 0 0 0 -.24-.51 1 1 0 0 0 -.4-.31 1.48 1.48 0 0 0 -.59-.11 1.55 1.55 0 0 0 -.68.17 1.85 1.85 0 0 0 -.88 1.11 7 7 0 0 0 -.08 1.3v1.76h-.62z"/><path d="m457.26 308.2c0 .17 0 .26.06.29a.71.71 0 0 0 .33.05h.35v.52a4.12 4.12 0 0 1 -.6.06.74.74 0 0 1 -.59-.2.85.85 0 0 1 -.19-.62v-3.6h-.85v-.52h.85v-1.84h.62v1.84h1v.52h-1z"/><path d="m458.93 306.6a2.51 2.51 0 0 1 .72-1.8 2.47 2.47 0 0 1 3.53 0 2.6 2.6 0 0 1 0 3.58 2.49 2.49 0 0 1 -3.54 0 2.48 2.48 0 0 1 -.71-1.78zm4.35 0a1.91 1.91 0 0 0 -.55-1.37 1.78 1.78 0 0 0 -2.63 0 2 2 0 0 0 -.54 1.38 1.88 1.88 0 0 0 .53 1.36 1.74 1.74 0 0 0 1.31.56 1.79 1.79 0 0 0 1.34-.57 1.87 1.87 0 0 0 .54-1.35z"/><path d="m465.05 304.18h.62v.82a2.17 2.17 0 0 1 1.79-1 1.65 1.65 0 0 1 1 .29 1.56 1.56 0 0 1 .61.76 4.13 4.13 0 0 1 .18 1.39v2.56h-.61v-2.28a5.38 5.38 0 0 0 -.08-1.13 1.5 1.5 0 0 0 -.23-.51 1.11 1.11 0 0 0 -.4-.31 1.48 1.48 0 0 0 -.59-.11 1.52 1.52 0 0 0 -.68.17 1.87 1.87 0 0 0 -.57.48 1.68 1.68 0 0 0 -.31.63 6.18 6.18 0 0 0 -.08 1.3v1.76h-.62z"/><path d="m474.56 307.41.52.27a2.47 2.47 0 0 1 -2.29 1.44 2.36 2.36 0 0 1 -1.78-.74 2.51 2.51 0 0 1 -.7-1.79 2.53 2.53 0 0 1 .71-1.79 2.28 2.28 0 0 1 1.74-.74 2.4 2.4 0 0 1 1.75.69 2.62 2.62 0 0 1 .73 1.89h-4.3a2 2 0 0 0 .55 1.39 1.69 1.69 0 0 0 1.25.53 2 2 0 0 0 1.82-1.15zm0-1.3a1.7 1.7 0 0 0 -.63-1.07 1.87 1.87 0 0 0 -1.16-.39 1.74 1.74 0 0 0 -1.77 1.46z"/><path d="m479.14 304h-.66a2.2 2.2 0 0 1 .69-1.23 2 2 0 0 1 2.52.06 1.55 1.55 0 0 1 .55 1.18 1.47 1.47 0 0 1 -.83 1.32 1.93 1.93 0 0 1 .88.7 1.85 1.85 0 0 1 .31 1 2 2 0 0 1 -.63 1.48 2.16 2.16 0 0 1 -1.58.61 2 2 0 0 1 -1.39-.48 2.39 2.39 0 0 1 -.73-1.41h.63a1.88 1.88 0 0 0 .52.95 1.47 1.47 0 0 0 1 .31 1.57 1.57 0 0 0 1.09-.41 1.38 1.38 0 0 0 .44-1 1.19 1.19 0 0 0 -.49-1 2.39 2.39 0 0 0 -1.41-.4v-.59a1.81 1.81 0 0 0 1.08-.3.93.93 0 0 0 .42-.77 1 1 0 0 0 -.34-.75 1.16 1.16 0 0 0 -.81-.3 1.12 1.12 0 0 0 -.77.25 2 2 0 0 0 -.49.78z"/><path d="m483.59 302.5h4.09l-3.46 6.62-.53-.27 3-5.74h-3.09z"/><path d="m492.35 302.5v.61h-2.3l-.33 1.76a3.06 3.06 0 0 1 .81-.12 1.87 1.87 0 0 1 1.42.6 2.17 2.17 0 0 1 .56 1.53 2.25 2.25 0 0 1 -.61 1.59 2.13 2.13 0 0 1 -1.64.65 1.94 1.94 0 0 1 -1.31-.46 1.9 1.9 0 0 1 -.66-1.27h.71a1.37 1.37 0 0 0 .49.83 1.35 1.35 0 0 0 .85.29 1.47 1.47 0 0 0 1.1-.48 1.63 1.63 0 0 0 .47-1.18 1.47 1.47 0 0 0 -.41-1.07 1.4 1.4 0 0 0 -1.06-.42 3.65 3.65 0 0 0 -1.44.34l.6-3.2z"/><path d="m499.71 303.7-.5.38a2.84 2.84 0 0 0 -2.31-1.08 2.76 2.76 0 0 0 -2 .81 2.67 2.67 0 0 0 -.83 2 2.62 2.62 0 0 0 .81 2 2.82 2.82 0 0 0 2 .79 2.88 2.88 0 0 0 2.28-1.06l.5.38a3 3 0 0 1 -1.2 1 3.9 3.9 0 0 1 -1.61.33 3.41 3.41 0 0 1 -2.52-1 3.51 3.51 0 0 1 -.53-4.15 3.15 3.15 0 0 1 1.26-1.22 3.48 3.48 0 0 1 1.73-.44 3.78 3.78 0 0 1 1.67.35 3 3 0 0 1 1.25.91z"/><path d="m439.32 316.44c0-.15 0-.28 0-.4s0-.22 0-.31a6.3 6.3 0 0 0 .75-.05l.74-.13a5.92 5.92 0 0 0 .67-.18 4.8 4.8 0 0 0 .55-.23 1.52 1.52 0 0 0 .17.3l.17.2c.07.07.1.13.08.19s-.11.08-.25.05h-.23-.35l-.64.09-1.09.17v1.5h.89.61.41.34v.57h-.34-.42-1.49v2.54c.42-.2.81-.4 1.18-.6s.71-.41 1-.59a2.57 2.57 0 0 0 .06.28.89.89 0 0 0 .1.23l-2.23 1.04-.44.25a4.64 4.64 0 0 0 -.4.26 1.08 1.08 0 0 0 -.13-.29 1.78 1.78 0 0 0 -.23-.28l.24-.09.24-.11zm6.35-.77a2.91 2.91 0 0 0 -.05.4v.43 3.69a1.37 1.37 0 0 1 -.05.39.39.39 0 0 1 -.19.25 1.2 1.2 0 0 1 -.43.14 5.3 5.3 0 0 1 -.75.09 1 1 0 0 0 -.07-.32 1.59 1.59 0 0 0 -.21-.35 3.29 3.29 0 0 0 .55.07.94.94 0 0 0 .36 0 .35.35 0 0 0 .2-.15.62.62 0 0 0 .05-.25v-3.86h-1.8v6.51h-.6c0-.32 0-.62.05-.91s0-.56 0-.83v-4.47a5 5 0 0 0 -.06-.83 5.59 5.59 0 0 0 .64.06h.89.84a5.2 5.2 0 0 0 .63-.06z"/><path d="m451.69 317.31h-.2-3.1a17.05 17.05 0 0 1 -.2 2.82 5.23 5.23 0 0 1 -.68 1.9.62.62 0 0 0 -.22-.15.88.88 0 0 0 -.33-.08 4.59 4.59 0 0 0 .35-.51 3.73 3.73 0 0 0 .26-.61 6.56 6.56 0 0 0 .18-.76c0-.28.08-.6.11-1 0-.6.07-1.19.06-1.8s0-1.2-.07-1.81h.28.39.54.71a13.26 13.26 0 0 0 1.92-.08 8.42 8.42 0 0 0 -.05.9v.68s.04.39.05.5zm-.51-1.54h-2.79v1.07h2.79zm-.8 5.56v.67a5 5 0 0 0 .05.65h-.62c0-.23.05-.45.06-.65s0-.43 0-.67v-2.33h-.87v2.51h-.52a12.31 12.31 0 0 0 .08-1.33v-1.63h.23.27.81c0-.15 0-.27 0-.37s0-.19 0-.27a1.23 1.23 0 0 0 0-.2c0-.07 0-.14 0-.21h.33.33.09s0 0-.06.07a.29.29 0 0 0 -.11.11.24.24 0 0 0 -.05.14v.64h1.17.24v2.25a1 1 0 0 1 0 .26.36.36 0 0 1 -.13.19 1.08 1.08 0 0 1 -.31.11 3.81 3.81 0 0 1 -.53.09 1.06 1.06 0 0 0 -.18-.57h.37a.42.42 0 0 0 .22-.05.2.2 0 0 0 .09-.15 1.09 1.09 0 0 0 0-.28v-1.31h-.93zm2.64-5.16a.26.26 0 0 0 -.09.23v2.53.69s0 .47 0 .66h-.6c0-.2 0-.4.05-.61s0-.45 0-.74v-1.86a6.86 6.86 0 0 0 0-.69 2.33 2.33 0 0 0 -.05-.44l.32.06a1.43 1.43 0 0 0 .29 0h.12s.02.13-.06.17zm1.44-1.07a.25.25 0 0 0 -.11.23v6.35a2 2 0 0 1 0 .46.48.48 0 0 1 -.19.29 1.26 1.26 0 0 1 -.44.14 8 8 0 0 1 -.81 0 .71.71 0 0 0 0-.34 1.3 1.3 0 0 0 -.17-.28 5.11 5.11 0 0 0 .62.09.89.89 0 0 0 .35 0 .24.24 0 0 0 .16-.15 1 1 0 0 0 0-.27v-5.38q0-.45 0-.84a5.3 5.3 0 0 0 0-.56 1.72 1.72 0 0 0 .64.06c.08 0 .12 0 .14.07s-.12.1-.19.13z"/><path d="m456.83 318.42-.32-.3a2.69 2.69 0 0 0 -.32-.27c-.11-.09-.23-.17-.35-.25a4.6 4.6 0 0 0 -.45-.24l.31-.41c.3.19.57.37.82.55s.47.35.69.53zm.76 1-.35.79c-.11.24-.22.48-.34.72s-.23.49-.37.76l-.45.91-.3-.19a1.53 1.53 0 0 0 -.29-.14 7.86 7.86 0 0 0 .95-1.47 7 7 0 0 0 .56-1.8 2.13 2.13 0 0 0 .22.21 1.76 1.76 0 0 0 .37.2zm-.35-2.77-.34-.33-.33-.28a3.27 3.27 0 0 0 -.36-.25l-.39-.25.32-.39.36.26.35.25.35.26.38.29zm2.64 4.66c.05 0 .07.06.07.08a.09.09 0 0 1 -.08 0l-.29.13a2.2 2.2 0 0 0 -.51.36l-.25.21a3.15 3.15 0 0 1 -.27.19l-.33.2-.41.23a.75.75 0 0 0 -.18-.26 1.54 1.54 0 0 0 -.28-.21 4.3 4.3 0 0 0 1.09-.48 4.16 4.16 0 0 0 .95-.82 2.21 2.21 0 0 0 .28.21 1.43 1.43 0 0 0 .21.15zm.58-5.46a4.25 4.25 0 0 0 -.57-.43 7.59 7.59 0 0 0 -.76-.39l.32-.34.37.19.33.19.31.2.36.23-.33.35h1.42.53.46v1.48h-.51v-1h-4.27v1.2h-.49v-1.64h.44a3.43 3.43 0 0 0 .5 0h1.89zm-.51 1.51h-.85l-.63.05v-.48h.29 3 .29v.48l-.68-.05h-.91v.64h1.12l.89-.05a2 2 0 0 0 0 .23v.28s0 .23 0 .38v1.16.39s0 .2 0 .29 0 .18 0 .29l-1.06-.07h-1.29-1.07-.56-.52v-.25a1.84 1.84 0 0 0 0-.26c0-.1 0-.23 0-.38v-1.16c0-.15 0-.28 0-.4s0-.21 0-.29a2 2 0 0 0 0-.25l.95.05h1zm0 1h-1.42v.84h1.47zm0 1.22h-1.42v.88h1.47zm.51-.38h1.45v-.84h-1.45zm0 1.26h1.45v-.88h-1.45zm2.32 2.08c-.15-.12-.28-.23-.41-.32s-.27-.19-.43-.28l-.54-.3-.74-.36.34-.28.66.33.53.29.47.28.49.31z"/><path d="m465.05 317.53a3 3 0 0 1 -.31.3l-.36.36a.83.83 0 0 0 -.23-.23 1.12 1.12 0 0 0 -.29-.14 7.48 7.48 0 0 0 1.47-1.29 8 8 0 0 0 1.15-1.79l.24.19a1.27 1.27 0 0 0 .26.11c.09 0 .14.07.14.12s-.05.09-.15.13a.6.6 0 0 0 -.24.18 3.65 3.65 0 0 0 -.32.43h2.53.44.4.29l-1.56 1.75h1.35.73v.6.66.71a4.45 4.45 0 0 0 0 .57h-.21-4.78v1.27a1 1 0 0 0 0 .26.27.27 0 0 0 .13.17.65.65 0 0 0 .25.11 3.42 3.42 0 0 0 .43.06h.87.89.85.73a3.67 3.67 0 0 0 .59-.08.9.9 0 0 0 .38-.18.82.82 0 0 0 .21-.34 3.85 3.85 0 0 0 .11-.57.84.84 0 0 0 .25.22 1 1 0 0 0 .3.08 4.74 4.74 0 0 1 -.22.69 1 1 0 0 1 -.26.38.84.84 0 0 1 -.39.19c-.16 0-.37.06-.61.08h-.42-.63-2.65c-.31 0-.56 0-.74-.07a1.19 1.19 0 0 1 -.42-.16.44.44 0 0 1 -.17-.27 1.58 1.58 0 0 1 0-.41v-2.86c.02-.46 0-.76-.03-1.23zm1.06-1.21-.22.29-.22.27-.27.29-.33.34h.3.5 2l1.1-1.25zm-.49 1.66v1.62h2v-1.6zm4.38 1.62v-1.6h-1.86v1.62z"/><path d="m480.56 316.32-.48.37a2.67 2.67 0 0 0 -2.18-1.05 2.6 2.6 0 0 0 -1.88.76 2.51 2.51 0 0 0 -.78 1.87 2.47 2.47 0 0 0 .77 1.86 2.66 2.66 0 0 0 1.92.74 2.7 2.7 0 0 0 2.15-1l.48.36a2.9 2.9 0 0 1 -1.14.91 3.63 3.63 0 0 1 -1.52.31 3.25 3.25 0 0 1 -2.38-.92 3.11 3.11 0 0 1 -.93-2.32 3.07 3.07 0 0 1 .43-1.6 3 3 0 0 1 1.19-1.15 3.34 3.34 0 0 1 1.64-.42 3.65 3.65 0 0 1 1.57.33 3 3 0 0 1 1.14.95z"/><path d="m485.23 315.19v.58h-2.18l-.31 1.67a2.78 2.78 0 0 1 .77-.12 1.77 1.77 0 0 1 1.33.56 2 2 0 0 1 .54 1.45 2.13 2.13 0 0 1 -.58 1.5 2 2 0 0 1 -1.55.62 1.86 1.86 0 0 1 -1.25-.45 1.8 1.8 0 0 1 -.62-1.19h.62a1.33 1.33 0 0 0 .46.78 1.28 1.28 0 0 0 .81.27 1.4 1.4 0 0 0 1-.45 1.55 1.55 0 0 0 .44-1.12 1.39 1.39 0 0 0 -.39-1 1.31 1.31 0 0 0 -1-.39 3.42 3.42 0 0 0 -1.37.32l.57-3z"/><path d="m488.07 321.45a1.69 1.69 0 0 1 -1.51-.81 5.58 5.58 0 0 1 0-4.79 1.68 1.68 0 0 1 1.5-.81 1.79 1.79 0 0 1 1.55.83 5.15 5.15 0 0 1 0 4.75 1.79 1.79 0 0 1 -1.54.83zm0-5.83a1.22 1.22 0 0 0 -1.1.68 4 4 0 0 0 -.39 2c0 1.76.5 2.64 1.49 2.64a1.25 1.25 0 0 0 1.13-.7 3.9 3.9 0 0 0 .4-2 3.7 3.7 0 0 0 -.42-1.94 1.26 1.26 0 0 0 -1.09-.68z"/><path d="m492.85 315.19h.7l1.56 2.52 1.54-2.52h.7l-1.93 3.19v2.92h-.6v-2.92z"/><path d="m499.25 321.45-.5-.32 1.65-2.5a2.1 2.1 0 0 1 -.64.11 1.63 1.63 0 0 1 -1.23-.53 1.84 1.84 0 0 1 -.5-1.31 1.74 1.74 0 0 1 .56-1.32 1.85 1.85 0 0 1 1.35-.54 1.74 1.74 0 0 1 1.33.55 1.81 1.81 0 0 1 .52 1.31 2.39 2.39 0 0 1 -.17.86 5.65 5.65 0 0 1 -.52.93zm-.62-4.53a1.23 1.23 0 0 0 .37.91 1.25 1.25 0 0 0 .91.37 1.2 1.2 0 0 0 .91-.38 1.23 1.23 0 0 0 .38-.9 1.27 1.27 0 0 0 -.38-.91 1.23 1.23 0 0 0 -.91-.37 1.25 1.25 0 0 0 -.91.37 1.23 1.23 0 0 0 -.37.91z"/><path d="m505.59 318a1.76 1.76 0 0 1 1.16 1.6 1.79 1.79 0 0 1 -.58 1.36 2.09 2.09 0 0 1 -1.5.54 2.05 2.05 0 0 1 -1.49-.54 1.75 1.75 0 0 1 -.56-1.31 1.78 1.78 0 0 1 1.18-1.65 1.42 1.42 0 0 1 -.37-2.43 1.8 1.8 0 0 1 1.26-.48 1.84 1.84 0 0 1 1.26.47 1.44 1.44 0 0 1 -.36 2.44zm.54 1.6a1.23 1.23 0 0 0 -.42-.91 1.44 1.44 0 0 0 -1-.39 1.46 1.46 0 0 0 -1 .41 1.24 1.24 0 0 0 -.43.95 1.14 1.14 0 0 0 .4.9 1.48 1.48 0 0 0 1 .36 1.53 1.53 0 0 0 1.06-.38 1.25 1.25 0 0 0 .39-.99zm-.28-2.93a.9.9 0 0 0 -.32-.7 1.15 1.15 0 0 0 -.83-.29 1.19 1.19 0 0 0 -.84.29.92.92 0 0 0 -.33.71 1 1 0 0 0 .36.74 1.17 1.17 0 0 0 .82.33 1.16 1.16 0 0 0 .8-.32 1 1 0 0 0 .34-.81z"/></g><path d="m549.83 151.41h30.93v30.93h-30.93z" fill="#fff" stroke="#231815" stroke-miterlimit="10"/><path d="m549.83 200.18h30.93v30.93h-30.93z" fill="#363935"/><path d="m549.83 248.51h30.93v30.93h-30.93z" fill="#009e96"/><path d="m549.83 296.39h30.93v30.93h-30.93z" fill="#8fc426"/><path d="m549.83 100.19h30.93v30.93h-30.93z" fill="#231815"/><path d="m233.73 115.57s2.27-25 18.57-24.76c0 0 19.12 1 19.87 13.8 0 0 7.81 20.75-10.94 25.94l-14.78 3.61z" fill="#231815"/><path d="m164.17 127.83s8.54-37.09-25.35-32.57c0 0-10.87 1.29-12.26 12.37 0 0-9.7 24.16 26.74 31.45z" fill="#231815"/><path d="m146.89 104.48s5.4 4 9.58 13.22l-14 10.89s-8.63-6.25-8.13-11.58 2.32-15.01 12.55-12.53z" fill="#373a36"/><path d="m240.14 111.19s6.18-12.49 14.9-9.43 7.29 22.88-11.25 20.87z" fill="#373a36"/><path d="m125 248.5c-34.75-31.66-18.24-75.5 17.32-127.95 8.79-13 82.76-40.12 113.54-2.34 17.09 21 30.87 44.68 32.87 56.66 2.79 16.79 7.7 47.57-14 67.16-2.44 2.21-78.33 68.55-149.73 6.47z" fill="#231815"/><path d="m231.48 171.86c1.42 5.68-.73 11.11-4.79 12.12s-8.52-2.77-9.93-8.44.73-11.09 4.79-12.11 8.52 2.76 9.93 8.43z" fill="#fff"/><path d="m227.59 172a4.45 4.45 0 1 1 -5.39-3.24 4.48 4.48 0 0 1 5.39 3.24z" fill="#150201"/><path d="m154.73 178.86c-1.71 5.6-6.34 9.13-10.35 7.9s-5.87-6.75-4.16-12.35 6.35-9.12 10.37-7.89 5.85 6.75 4.14 12.34z" fill="#fff"/><path d="m151 177a4.49 4.49 0 1 1 -3-5.61 4.48 4.48 0 0 1 3 5.61z" fill="#150201"/><path d="m183.93 177.2s33.44-1.47 33.79 23.86c0 0-5 21.79-32.76 20.32 0 0-32.81-4.93-28.51-26.29 0 0 6.44-17.35 27.48-17.89z" fill="#fff"/><path d="m174.67 185.47c-1.48.88-2.95 3.06-2.5 4.41s5.79 6.58 8.73 6.58 11.45-4.31 12.7-5.44.68-6.35-.68-6.68-7.16 1.94-11.67 1.47c-3.25-.34-6.01-.68-6.58-.34z" fill="#150201"/><path d="m175 186.18c-1.29.71-2.59 2.45-2.19 3.53s5.33 5.79 7.91 5.79 9.6-3.36 10.7-4.27.56-5.44-.6-5.35c-1.68.12-5.95 1.06-9.92.69-2.9-.27-5.41-.66-5.9-.39z" fill="#29201f"/><path d="m175.32 186.89c-1.12.54-2.24 1.84-1.9 2.65s4.87 5 7.11 5 7.75-2.42 8.69-3.1.46-4.4-.52-4c-2 .77-4.74.18-8.17-.1-2.53-.22-4.78-.65-5.21-.45z" fill="#403a39"/><path d="m177.09 299.15c-3.51-.13 1.15 27 2.17 29.47-1.69 0-3.55.87-3.5 2.68a11.74 11.74 0 0 0 5.94-.78c2.5-1.51.92-3.41 2-6a16.78 16.78 0 0 1 10.5-8.81c2.33-.62 4.14.14 4.84-.24a8.16 8.16 0 0 0 3.63-10.94c-3.32-7.63-19.31-5.16-25.58-5.38z" fill="#231815"/><path d="m221.58 303.91a50.45 50.45 0 0 1 -.47 6.26 84.82 84.82 0 0 1 -1.44 8.53c-.86 4.16-1.47 9.18-3.39 13 1.62.08 3.31 1.07 3.14 2.78a11.11 11.11 0 0 1 -5.57-1.15c-2.28-1.6-.64-3.3-1.53-5.8-1.37-3.83-5.92-8.33-9.49-10.34a17.45 17.45 0 0 0 -7.78-1.91c-2.76-.07.08-.49.42-2.95.08-.6-.39-1.08-.33-1.63.13-1.27-.1-2.2.56-3.44 2.93-5.52 9.51-3.26 14.28-4.6 2.77-.79 9.59-6.77 11.28-1.29a9.39 9.39 0 0 1 .32 2.54z" fill="#231815"/><path d="m228.81 290.08c2.41 1.12 4.22 5.62 2.73 8a1.31 1.31 0 0 1 -.4.37c-.18 1-.73 2-1.57 2a4.39 4.39 0 0 1 -1.09-.25c-.58 1.13-1.82 2.32-3.21 1.29a2.28 2.28 0 0 1 -.72-.87c-.8.51-1.74.71-2.22.08a5 5 0 0 1 -.64-1.29l-.3-.19c.01-.22 1.07-7.93 7.42-9.14z" fill="#150201"/><path d="m171.56 294c-2.34.7-4.59 4.56-3.55 6.94a1.51 1.51 0 0 0 .3.39c0 1 .41 1.95 1.17 2a4 4 0 0 0 1-.08c.38 1.11 2.09 2.54 2.94 1.68a3.85 3.85 0 0 0 .58-.79c.66.59 1.49.91 2 .39a4.38 4.38 0 0 0 .75-1.09c.11-.05.08-1.59.19-1.63a8 8 0 0 0 -5.38-7.81z" fill="#150201"/><path d="m181.85 266.59c-.86.26-14.47 11.64-14.08 32.11 0 1.88 3.27 7.92 7.35 4.69.9-.7.29-1.17.29-1.17a6.1 6.1 0 0 1 -.68-2c-.02-.64-1.5-13.22 7.12-33.63z" fill="#150201"/><path d="m168.14 300.38c1 2.4 3.79 5.54 7 3 .9-.7.29-1.17.29-1.17a6.1 6.1 0 0 1 -.68-2c0-.68-2.11-12.18 6.24-32.22-3.09 3.87-11.9 16.85-9.71 32.16.12 1.07-1.28 1.69-3.14.23z" fill="#231815"/><path d="m215.23 266.26c.86.45 9.73 7.3 15.9 26.27.66 2-3.29 7.9-8 6.61-2.49-.67-7.9-32.88-7.9-32.88z" fill="#150201"/><path d="m182.07 264.84c-.59 1.71-11.83 21.38-8.13 36.33.81 3.31 5.34 13.57 21.63 13.86 4.58.08 9.64-1.82 13.56-3.88 8.77-4.59 14.62-6.78 13.79-18-.54-7.52-3.31-14.81-5.58-21.84a24.71 24.71 0 0 0 -2.76-6.16c-20.5 11.21-32.51-.31-32.51-.31z" fill="#231815"/><path d="m212 278.48c-2.95 2.83-15.32 10.61-21.15 7.21a38.67 38.67 0 0 1 -7-5.58c.92 3.24 1.73 8.24 8.5 12 2 1.13 4.77.81 13.73-5.1 2.44-1.8 5.92-8.53 5.92-8.53z" fill="#fff"/><path d="m225.55 296.39a1.27 1.27 0 0 0 1.82.29 1.32 1.32 0 0 0 .91-1.09 1.13 1.13 0 0 0 -.95-1.14c-1.14-.28-2.57.77-1.78 1.94z" fill="#fff"/><path d="m223.16 296.65a.51.51 0 0 0 .51.69 1.28 1.28 0 0 0 .89-.56.52.52 0 0 0 .06-.13.62.62 0 0 0 .09-.29.56.56 0 0 0 -.78-.46 1.22 1.22 0 0 0 -.77.75z" fill="#fff"/><path d="m224.32 298.92a.51.51 0 0 0 .77.39 1.28 1.28 0 0 0 .54-.9.38.38 0 0 0 0-.15.62.62 0 0 0 -.06-.3.55.55 0 0 0 -.9 0 1.26 1.26 0 0 0 -.35.96z" fill="#fff"/><path d="m226.61 299.26a.21.21 0 0 0 0 .06.28.28 0 0 0 .25.16c.31.16.79-.21.79-.56 0-.08 0-.12 0-.18a.75.75 0 0 0 -.09-.33c0-.08-.08-.19-.17-.2a.5.5 0 0 0 -.62 0c-.22.22-.48.79-.16 1.05z" fill="#fff"/><path d="m228.31 297.17a.55.55 0 0 0 0 .65.41.41 0 0 0 .1.16h.08.05l.08.05a1 1 0 0 0 .18.1.53.53 0 0 0 .41 0 .46.46 0 0 0 .37-.24.42.42 0 0 0 0-.49c-.18-.4-.95-.59-1.27-.23z" fill="#fff"/><path d="m229.63 295.18c-.23 0-.4.22-.46.45a.34.34 0 0 0 0 .19.25.25 0 0 1 0 .09.07.07 0 0 0 0 .06s0 .06 0 .09l.06.2a.51.51 0 0 0 .31.28.49.49 0 0 0 .42.1.43.43 0 0 0 .34-.36c.19-.41-.19-1.13-.67-1.1z" fill="#fff"/><path d="m171.39 298.12a1.31 1.31 0 0 0 1.54 1.08 1.37 1.37 0 0 0 1.32-.63 1.17 1.17 0 0 0 -.38-1.48c-.87-.74-2.71-.4-2.48 1.03z" fill="#fff"/><path d="m169.1 299.94a.52.52 0 0 0 .17.86 1.31 1.31 0 0 0 1.06-.13l.11-.09a.52.52 0 0 0 .21-.23.57.57 0 0 0 -.51-.76 1.32 1.32 0 0 0 -1.04.35z" fill="#fff"/><path d="m168.85 297.57a.51.51 0 0 0 .17.85 1.27 1.27 0 0 0 1.06-.12l.11-.1a.47.47 0 0 0 .21-.23.58.58 0 0 0 -.51-.76 1.32 1.32 0 0 0 -1.04.36z" fill="#fff"/><path d="m171.11 301.23a.11.11 0 0 0 0 .07.22.22 0 0 0 .15.24c.22.31.82.16 1-.16a.41.41 0 0 0 .05-.21.21.21 0 0 0 0-.25.22.22 0 0 0 -.12-.22.4.4 0 0 0 -.52-.3c-.25.05-.74.46-.56.83z" fill="#fff"/><path d="m173.55 300.26a.62.62 0 0 0 -.57.35.54.54 0 0 0 -.06.18s0 .07 0 .1a0 0 0 0 0 0 .05v.1a.67.67 0 0 0 0 .2.63.63 0 0 0 .24.36.48.48 0 0 0 .41.18.41.41 0 0 0 .41-.26.9.9 0 0 0 -.43-1.26z" fill="#fff"/><path d="m175.09 298.89a.64.64 0 0 0 -.66.5s0 .07 0 .1v.15a.67.67 0 0 0 0 .2.56.56 0 0 0 .23.37.49.49 0 0 0 .4.2.4.4 0 0 0 .42-.25.9.9 0 0 0 -.39-1.27z" fill="#fff"/><path d="m223 171.36a1.52 1.52 0 0 1 -3 .73 1.52 1.52 0 0 1 3-.73z" fill="#fff"/><path d="m147.05 173.61a1.52 1.52 0 1 1 -1.85-1.11 1.5 1.5 0 0 1 1.85 1.11z" fill="#fff"/><path d="m172.54 96.89s-13.43 3-16.06 9 2.52 6.91 22.42 6.42 44.12-3.7 45.31-12.78-51.67-2.68-51.67-2.68" fill="#8fc31f"/><path d="m172.42 97.24s0-18.73 14.12-23.31c14.67-4.76 23.66-2.72 30.79 2.11s5.53 15.56 7.23 21.78c1.11 4.1-35.46-.77-52.14-.58" fill="#009e96"/><path d="m199.58 72.42a10.33 10.33 0 0 1 -1.8-.41c-1.26-.48-2.15-1.36.27-2.22 3.56-1.28 9.26 1.49 1.53 2.63" fill="#8fc31f"/><path d="m201.78 83a7.81 7.81 0 0 1 -1.34 8.61 7.66 7.66 0 1 1 -9.66-11.76 7.73 7.73 0 0 1 8.09-.1 8 8 0 0 1 2.91 3.25" fill="#fff"/><path d="m194.22 82.28c.26-.11.59-.33.89-.15s.74.33.62.75a6.08 6.08 0 0 0 1 .9.12.12 0 0 0 .13-.09h-.09c.11-.1.39 0 .55-.07a.42.42 0 0 1 .36.12 2.82 2.82 0 0 0 .24.4h.06c.1.13.13.26.23.38.59.15.91.81 1.44 1.07a8.36 8.36 0 0 0 2.09 1c0 .11.09.1.14.13a.38.38 0 0 0 -.31 0c.11.14.34 0 .39.21h-.24.1c-.13 0-.27.08-.34-.09a9 9 0 0 1 -1.53-.72 6.27 6.27 0 0 0 1.35.76c.16.08.36.11.46.25s-.13 0-.15.09l-.11-.06v.06l.1.06a6.32 6.32 0 0 1 -1.71-.84c-.26-.14-.5-.25-.75-.41h-.09c.27.19.57.3.86.47a4.46 4.46 0 0 1 -1.56-1c-.18-.16-.47-.51-.77-.42-.1.07-.27.07-.39.14s-.19-.1-.28 0-.33 0-.37.26-.43 0-.46.24v.07c-.31.17-.73.16-.94.48 0 .06-.18 0-.24.08h-.06c-.09 0-.12 0-.18.06s0-.09 0-.14-.19.14-.3.21c0-.13.14-.15.19-.27s-.15 0-.21.07.09-.14 0-.13c.07-.14.25-.1.3-.24h-.14l.37-.34s-.16-.12-.23 0v-.05c-.07-.06-.15.05-.23.06l.16-.18c.22-.16.46-.34.68-.47a.16.16 0 0 0 -.25 0c.21 0 0-.24.19-.28a.7.7 0 0 1 .3-.42c-.22-.17-.32-.52-.57-.62 0-.14-.15 0-.19-.13-.28 0-.61.18-.81-.07a1.54 1.54 0 0 0 -.48 0c-.12.12-.15.3-.23.42a1.22 1.22 0 0 0 -.25.43 1.42 1.42 0 0 1 -.53.56c-.16.26-.54.19-.75.46v-.07a.16.16 0 0 0 -.15.11c-.12 0-.18.11-.22.17-.25.31-.69.35-1 .61-.52.15-.73.57-1.05 1a2.94 2.94 0 0 1 -.36.42c0 .12-.15.19-.2.25.05-.11.18-.22.19-.34-.11.06-.14.21-.28.28s.08-.11 0-.17l-.19.15.16-.25c-.1 0-.18.2-.29.21s-.08.06-.14.06a2.63 2.63 0 0 0 .25-.28c-.12 0-.22.1-.31.09s0-.1-.1-.06a.49.49 0 0 0 .18-.22c-.07 0-.14 0-.2.08s.16-.14.1-.27c-.21 0-.15.19-.33.26.16-.26.4-.42.56-.69a4.8 4.8 0 0 1 1.09-.92c.33-.21.76-.35 1-.68a2.65 2.65 0 0 0 .23-.39l.07-.07a1.52 1.52 0 0 1 .77-.3c.11-.13.36-.08.44-.26.29-.43.38-.93.64-1.36.1-.13.2-.35.37-.41a7.89 7.89 0 0 1 1.4.16" fill="#009e96"/><path d="m188.4 83.13-.12-.19.11.16z" fill="#009e96"/><path d="m188.6 83.41c-.07 0-.07 0-.11-.08z" fill="#009e96"/><path d="m182.18 86.35c-.08-.09 0-.15.07-.24a.73.73 0 0 1 -.07.24" fill="#009e96"/><path d="m182.78 85.16v-.01l.06-.02z" fill="#009e96"/><path d="m182.48 85.34-.07.09z" fill="#009e96"/><path d="m185.52 84.79c-.07.09-.2.18-.2.27-.15 0-.2.19-.31.22 0-.13.2-.1.18-.23l.09-.13c0-.06.19-.08.11-.19z" fill="#009e96"/><path d="m185.05 85a.3.3 0 0 1 -.14.18c0-.09.07-.11.14-.18" fill="#009e96"/><path d="m182.81 86.89h-.05z" fill="#009e96"/><path d="m185.47 85.24-.04.01-.02-.04.05-.02z" fill="#009e96"/><path d="m185.38 85.33-.03.08-.04.01.03-.1z" fill="#009e96"/><path d="m185.75 85.54c0 .07-.07.09-.09.12v-.07z" fill="#009e96"/><path d="m185.81 85.63c0 .07-.1.1-.16.15l.09-.15z" fill="#009e96"/><path d="m189.53 84.77c.07 0 .13.08.19.12v.06a1.34 1.34 0 0 1 -.33-.3c.06 0 .11.11.18.12" fill="#009e96"/><path d="m192 85h-.16z" fill="#009e96"/><path d="m192.47 85.09c-.15 0-.31 0-.43 0a.91.91 0 0 1 .43 0" fill="#009e96"/><path d="m191.1 85.45-.21-.09.13.03z" fill="#009e96"/><path d="m192.54 85.56.01-.03.05.03z" fill="#009e96"/><path d="m192.5 85.66-.06.01-.01-.03z" fill="#009e96"/><path d="m175.35 202.24c3.53 6.65 10.08 11.66 18.81-.79.68-1 0-1.7-.86-1.28a21.5 21.5 0 0 1 -16.94.9c-.79-.31-1.49.29-1.01 1.17z" fill="#150405"/></svg>