<svg viewBox="0 0 793.64 493.47" xmlns="http://www.w3.org/2000/svg"><path d="m0 0h793.64v493.47h-793.64z" fill="#fff"/><path d="m528.75 322.64s-4.89 10.27-12.81 11.24c-6.93.85-10.46 1.95-11.57 2.92 0 0-.92.73-.37 1.56s.58.5.58.5-1.06 1-.53 1.69a4.56 4.56 0 0 0 .89 1s-.54 1.35.32 1.63c1.09.37.63 1.53 2.92 1.67a33.23 33.23 0 0 0 17.56-3.28s21.75-10.4 11.41-21c0-.09-4.88-3.48-8.4 2.07z" fill="#130508"/><path d="m580.49 361.37c1.94-4.06 3.62-8.32 3.88-12.82.34-5.64-1.5-11.1-4.34-15.92-.82-1.38-1.72-2.73-2.68-4-3.68-5-6.6-11.53-11.72-15.27-9.59-7-21.69-6.1-31.57 0-4.66 2.86-4.15 4.44-3.91 9.46.31 7 .07 14.14 0 21.17 0 3.17-.18 5.8 0 8.2.81 10 4.38 19.38 3.86 29.8 0-.4-4.28-.23-4.86.2a4.36 4.36 0 0 0 -1.32 3.75 94.42 94.42 0 0 0 10.64 0c.68-.54 1-2.43 1.43-3.21.65-1.26 1.32-2.52 2-3.76a18.46 18.46 0 0 1 5.1-5.64 12.32 12.32 0 0 1 6.42-2.73c2.87-.5 6-1.38 8.94-.59 4.07 1.1 3.65 5.5 3 8.85-.44 2.44-1.24 2.15-3.37 2.15a3.34 3.34 0 0 0 -3.2 3.75c3.22.5 6.73-.12 10-.29 0 0 3.64-8.22 3.82-8.61 1.81-4 4.44-7.57 6.41-11.5.52-1.03.98-2.01 1.47-2.99z" fill="#130508"/><path d="m551.79 326.9c-1.78 2.93-9.92 11.46-14.9 9a33.15 33.15 0 0 1 -6.22-4.34c1.22 2.87 2.65 7.38 8.39 10.07 1.73.81 3.76.2 9.61-6.23 1.53-1.93 3.12-8.5 3.12-8.5z" fill="#fff"/><path d="m551.24 128.15s-2.24-29.43 16.76-32.37c0 0 22.38-2.57 25.76 12.13 0 0 13.12 22.54-7.64 32.24l-16.43 7.09z" fill="#130508"/><path d="m472.32 155.72s2.68-44.72-35.78-32.84c0 0-12.37 3.62-11.82 16.75 0 0-6.53 29.93 37.18 31.27z" fill="#130508"/><path d="m447.7 132s7.06 3.64 13.7 13.47l-14.15 15.37s-11.25-5.55-11.7-11.84-.19-17.83 12.15-17z" fill="#413a39"/><path d="m557.82 121.81s4.73-15.7 15.45-13.86 12.92 25.12-9 26.42z" fill="#413a39"/><path d="m450.71 303.22c-46.48-30-35.89-84-4.88-151.85 7.65-16.76 88.17-62.73 131.27-24.91 23.93 21 44.56 45.8 49.22 59.31 6.52 18.94 18.23 53.69-3.1 80.66-2.41 3.04-77.5 94.85-172.51 36.79z" fill="#130508"/><path d="m554.21 201.36c2.75 6.31 1.32 13-3.19 15s-10.42-1.54-13.17-7.84-1.32-13 3.19-15 10.43 1.53 13.17 7.84z" fill="#fff"/><path d="m466.53 224.48c-.89 6.83-5.58 11.84-10.47 11.2s-8.13-6.69-7.24-13.52 5.59-11.83 10.49-11.19 8.12 6.69 7.22 13.51z" fill="#fff"/><path d="m500.09 216.85s38.51-8.24 43.87 21.07c0 0-1.57 26.27-34 30 0 0-39 .68-38.22-24.93-.04.01 4.04-21.4 28.35-26.14z" fill="#fff"/><path d="m491 228.25c-1.54 1.32-2.82 4.13-2 5.61s8 6.51 11.42 5.93c3.56-.6 12.44-7.24 13.67-8.8s-.45-7.49-2.1-7.62-7.93 3.66-13.26 4c-3.95.24-7.18.38-7.73.88z" fill="#130508"/><path d="m491.47 229c-1.37 1.07-2.53 3.34-1.86 4.52s7.32 5.68 10.32 5.17 10.49-5.78 11.58-7.05-.41-6.42-1.75-6.09c-1.92.47-6.69 2.4-11.37 2.74-3.39.28-6.39.32-6.92.71z" fill="#292222"/><path d="m492 229.78c-1.2.83-2.24 2.57-1.68 3.44s6.62 4.84 9.21 4.41 8.52-4.32 9.49-5.3-.33-5.19-1.4-4.55c-2.14 1.27-5.46 1.14-9.49 1.48-2.95.26-5.68.2-6.13.52z" fill="#413a39"/><path d="m462.78 221.4a5.54 5.54 0 1 1 -6.42-4.48 5.55 5.55 0 0 1 6.42 4.48z" fill="#140407"/><path d="m457.17 220.2a1.9 1.9 0 1 1 -2.2-1.54 1.9 1.9 0 0 1 2.2 1.54z" fill="#fff"/><path d="m582.18 342.18c-.75 6.61 8.15 5.56 7-1.33-1-5.82-6-5.16-7.44.45" fill="#130508"/><path d="m514.49 343.93c-2.1 2-7.4 2-9.24-.46a1.65 1.65 0 0 1 -.21-.54c-1-.61-1.77-1.57-1.38-2.4a5.33 5.33 0 0 1 .69-1c-.92-1-1.37-3.65 0-4a4.62 4.62 0 0 1 1.14-.15 11.22 11.22 0 0 1 -.28-3.48c.28-1.24 1.31-2.09 1.87-2.06 1.86-.08 2.71 4.27 2.82 4.19a9 9 0 0 1 4.59 9.9z" fill="#150505"/><path d="m544 207.23c.05-.14.09-.27.15-.4l-.22.52a5.31 5.31 0 0 1 .61-1.06l-.33.43a4.44 4.44 0 0 1 .79-.72l-.43.34a3.32 3.32 0 0 1 .68-.41l-.52.22a2.49 2.49 0 0 1 .71-.19l-.58.07a3.31 3.31 0 0 1 .63 0l-.57-.08a3.86 3.86 0 0 1 .74.2l-.52-.22a5 5 0 0 1 .95.56l-.44-.34.33.27a2.27 2.27 0 0 0 1.52.63 2.19 2.19 0 0 0 1.52-.63 2.15 2.15 0 0 0 0-3 5.94 5.94 0 0 0 -2.89-1.56 5.07 5.07 0 0 0 -1.94 0 5.26 5.26 0 0 0 -1.29.48 6.46 6.46 0 0 0 -3 3.82 2.15 2.15 0 1 0 4.14 1.15z" fill="#150505"/><path d="m497.6 249.08c6.11 2.31 14.09.72 20.26-6.64.66-.79-.2-1.12-1.09-.55a40.82 40.82 0 0 1 -18.22 6.1c-.89.06-1.74.8-.95 1.09z" fill="#150505"/><path d="m556.38 325.45a10.92 10.92 0 0 0 -.16 1.52s.83 11.65-5 16.11c-5.1 3.89-7.39 6.48-7.83 7.87a1.38 1.38 0 0 0 .43 1.6c.85.52.69.2.69.2s-.41 1.37.35 1.8a4.19 4.19 0 0 0 1.14.45s.19 1.48 1 1.36c1-.15 1.21 1.11 3.08.23a28 28 0 0 0 12.41-10.89s6.42-10 5.22-17.5" fill="#130508"/><path d="m556.38 325.45-.13 1.52a32.08 32.08 0 0 1 -.42 7.82 15.63 15.63 0 0 1 -3.11 7.21 4.39 4.39 0 0 1 -.7.73c-.25.22-.49.47-.74.67l-1.52 1.22c-1 .83-2 1.66-2.94 2.55a19 19 0 0 0 -2.55 2.85 2.73 2.73 0 0 0 -.62 1.58.75.75 0 0 0 .28.59 3.36 3.36 0 0 0 .36.22l.17.07s.06 0 0 0a.36.36 0 0 0 -.13.05.31.31 0 0 0 -.11.38l.67-.07a1.74 1.74 0 0 0 0 1.25.46.46 0 0 0 .18.15l.34.17a3 3 0 0 0 .65.25.38.38 0 0 1 .29.32 2 2 0 0 0 .37.94c.1.09.1.1.25.08a1.48 1.48 0 0 1 .81.13 2.73 2.73 0 0 0 1.05.41 2.36 2.36 0 0 0 1-.25 31.48 31.48 0 0 0 4.36-2.43 27.24 27.24 0 0 0 7.09-6.95 42 42 0 0 0 4.69-8.86 20.88 20.88 0 0 0 1.68-9.83 16.14 16.14 0 0 1 -.05 5 26.84 26.84 0 0 1 -1.27 4.91 42.17 42.17 0 0 1 -4.55 9.08 27.21 27.21 0 0 1 -7.2 7.19 31.26 31.26 0 0 1 -4.38 2.6 2.9 2.9 0 0 1 -1.4.33 3.13 3.13 0 0 1 -1.3-.47.77.77 0 0 0 -.42-.06 1.19 1.19 0 0 1 -.48 0 1.24 1.24 0 0 1 -.41-.28 2.66 2.66 0 0 1 -.56-1.37l.31.32a3.89 3.89 0 0 1 -.84-.31l-.38-.2a1.13 1.13 0 0 1 -.42-.37 1.66 1.66 0 0 1 -.26-1 3.42 3.42 0 0 1 .12-.9.35.35 0 0 1 .43-.25.36.36 0 0 1 .24.21.48.48 0 0 1 0 .29.4.4 0 0 1 -.16.25.5.5 0 0 1 -.19.07.59.59 0 0 1 -.28 0l-.28-.12a4 4 0 0 1 -.47-.3 1.46 1.46 0 0 1 -.55-1.11 3.42 3.42 0 0 1 .75-2 19.27 19.27 0 0 1 2.68-2.94c1-.9 2-1.75 3-2.56l1.56-1.19c.26-.2.48-.42.72-.62a4.71 4.71 0 0 0 .67-.67 15.4 15.4 0 0 0 3.17-6.93 32 32 0 0 0 .71-7.75z" fill="#ccc"/><path d="m322.68 140s2.57-28.3 21-28.05c0 0 21.66 1.14 22.52 15.63 0 0 8.84 23.51-12.41 29.39l-16.74 4.09z" fill="#150201"/><path d="m243.89 153.88s9.67-42-28.72-36.9c0 0-12.31 1.46-13.89 14 0 0-11 27.37 30.29 35.63z" fill="#150201"/><path d="m224.32 127.43s6.11 4.59 10.85 15l-15.89 12.33s-9.79-7.07-9.22-13.11 2.67-16.98 14.26-14.22z" fill="#403a39"/><path d="m329.94 135s7-14.15 16.89-10.69 8.25 25.92-12.75 23.64z" fill="#403a39"/><path d="m199.48 290.57c-39.33-35.86-20.63-85.48 19.66-144.94 10-14.68 93.75-45.44 128.61-2.65 19.37 23.75 35 50.61 37.24 64.19 3.16 19 8.72 53.88-15.84 76.07-2.78 2.51-88.75 77.66-169.67 7.33z" fill="#150201"/><path d="m320.13 203.75c1.61 6.44-.82 12.59-5.42 13.73s-9.65-3.13-11.25-9.55.83-12.57 5.43-13.73 9.65 3.13 11.24 9.55z" fill="#fff"/><path d="m315.73 203.93a5 5 0 1 1 -6.11-3.66 5.06 5.06 0 0 1 6.11 3.66z" fill="#150201"/><path d="m233.2 211.69c-1.94 6.31-7.2 10.31-11.74 8.95s-6.65-7.66-4.71-14 7.2-10.34 11.75-9 6.63 7.72 4.7 14.05z" fill="#fff"/><path d="m229 209.61a5.08 5.08 0 1 1 -3.37-6.35 5.08 5.08 0 0 1 3.37 6.35z" fill="#150201"/><path d="m266.27 209.81s37.88-1.67 38.28 27c0 0-5.69 24.69-37.11 23 0 0-37.17-5.6-32.3-29.79 0 .05 7.3-19.6 31.13-20.21z" fill="#fff"/><path d="m255.78 219.17c-1.67 1-3.34 3.47-2.82 5s6.55 7.46 9.88 7.46c3.48 0 13-4.89 14.39-6.17s.77-7.19-.77-7.57-8.12 2.2-13.23 1.67c-3.72-.39-6.81-.77-7.45-.39z" fill="#150201"/><path d="m256.15 220c-1.47.8-2.94 2.77-2.49 4s6 6.56 9 6.56 10.87-3.82 12.12-4.84.64-6.16-.68-6.07c-1.91.14-6.75 1.21-11.25.79-3.3-.33-6.14-.76-6.7-.44z" fill="#29201f"/><path d="m256.51 220.79c-1.26.6-2.53 2.08-2.14 3s5.51 5.65 8.05 5.65 8.77-2.73 9.85-3.5.51-5-.6-4.56c-2.24.87-5.37.21-9.25-.11-2.84-.22-5.42-.71-5.91-.48z" fill="#403a39"/><path d="m258.52 348c-4-.15 1.3 30.56 2.46 33.39-1.91 0-4 1-4 3a13.37 13.37 0 0 0 6.73-.88c2.84-1.71 1-3.87 2.32-6.77a19 19 0 0 1 11.89-10c2.64-.7 4.69.16 5.48-.27a9.23 9.23 0 0 0 4.11-12.39c-3.77-8.68-21.88-5.88-28.99-6.08z" fill="#150201"/><path d="m308.92 353.34a55.33 55.33 0 0 1 -.53 7.1c-.34 3.24-1 6.47-1.63 9.66-1 4.71-1.67 10.4-3.84 14.76 1.83.09 3.75 1.21 3.55 3.15a12.46 12.46 0 0 1 -6.31-1.31c-2.57-1.81-.71-3.73-1.73-6.56-1.55-4.34-6.7-9.44-10.75-11.72a19.65 19.65 0 0 0 -8.81-2.16c-3.13-.08.09-.56.47-3.35.09-.68-.44-1.21-.37-1.84.14-1.44-.11-2.49.63-3.9 3.32-6.25 10.78-3.69 16.18-5.21 3.14-.89 10.87-7.67 12.78-1.46a10.48 10.48 0 0 1 .36 2.84z" fill="#150201"/><path d="m317.11 337.67a0 0 0 0 1 0 0c2.73 1.27 4.78 6.37 3.1 9.09a1.86 1.86 0 0 1 -.46.41c-.21 1.18-.83 2.31-1.78 2.25a5.1 5.1 0 0 1 -1.23-.29c-.66 1.29-2.06 2.64-3.64 1.46a2.73 2.73 0 0 1 -.82-1c-.91.58-2 .81-2.5.09a5.71 5.71 0 0 1 -.74-1.46l-.34-.22c.01-.28 1.21-8.95 8.41-10.33z" fill="#150201"/><path d="m252.26 342.17c-2.65.8-5.2 5.17-4 7.87a2 2 0 0 0 .35.44c0 1.1.46 2.21 1.33 2.27a3.87 3.87 0 0 0 1.16-.09c.43 1.26 2.36 2.88 3.33 1.91a4.47 4.47 0 0 0 .66-.89c.75.67 1.69 1 2.28.43a4.93 4.93 0 0 0 .84-1.23c.13-.05.09-1.8.21-1.84a9 9 0 0 0 -6.16-8.87z" fill="#150201"/><path d="m263.91 311.07c-1 .29-16.39 13.19-15.94 36.37 0 2.13 3.7 9 8.32 5.32 1-.8.33-1.33.33-1.33a6.92 6.92 0 0 1 -.77-2.21c-.02-.79-1.7-15.07 8.06-38.15z" fill="#150201"/><path d="m248.39 349.34c1.11 2.72 4.29 6.29 7.9 3.42 1-.8.33-1.33.33-1.33a6.92 6.92 0 0 1 -.77-2.21c0-.77-2.39-13.79 7.07-36.5-3.5 4.38-13.48 19.09-11 36.44.15 1.14-1.47 1.84-3.53.18z" fill="#150201"/><path d="m301.73 310.7c1 .51 11 8.27 18 29.75.74 2.26-3.72 9-9.11 7.49-2.76-.76-8.89-37.24-8.89-37.24z" fill="#150201"/><path d="m264.17 309.09c-.67 1.93-13.41 24.22-9.22 41.15.93 3.75 6.05 15.38 24.51 15.7 5.18.09 10.92-2.06 15.36-4.39 9.93-5.2 16.56-7.68 15.62-20.34-.62-8.53-3.75-16.79-6.32-24.75a28.06 28.06 0 0 0 -3.12-7c-23.23 12.68-36.83-.37-36.83-.37z" fill="#150201"/><path d="m298.12 324.54c-3.35 3.21-17.37 12-24 8.16a43.74 43.74 0 0 1 -8-6.32c1.05 3.67 2 9.34 9.63 13.6 2.31 1.28 5.41.91 15.56-5.78 2.82-2.04 6.81-9.66 6.81-9.66z" fill="#fff"/><path d="m313.42 344.83a1.45 1.45 0 0 0 2.06.33 1.5 1.5 0 0 0 1-1.24 1.28 1.28 0 0 0 -1.07-1.3c-1.27-.31-2.89.88-1.99 2.21z" fill="#fff"/><path d="m310.71 345.12a.58.58 0 0 0 .58.78 1.45 1.45 0 0 0 1-.63.55.55 0 0 0 .08-.15.66.66 0 0 0 .09-.33.63.63 0 0 0 -.88-.52 1.41 1.41 0 0 0 -.87.85z" fill="#fff"/><path d="m312 347.7a.58.58 0 0 0 .87.43 1.44 1.44 0 0 0 .61-1 .49.49 0 0 0 0-.17.75.75 0 0 0 -.06-.33.63.63 0 0 0 -1-.06 1.42 1.42 0 0 0 -.42 1.13z" fill="#fff"/><path d="m314.62 348.08a.1.1 0 0 0 .05.06.33.33 0 0 0 .28.18c.35.19.89-.23.89-.63 0-.08 0-.13 0-.21a.76.76 0 0 0 -.1-.36c0-.09-.08-.22-.19-.23a.57.57 0 0 0 -.7 0c-.3.25-.59.91-.23 1.19z" fill="#fff"/><path d="m316.54 345.71a.65.65 0 0 0 0 .73.38.38 0 0 0 .12.18l.09.07h.06l.09.06.2.11a.59.59 0 0 0 .47 0 .58.58 0 0 0 .42-.27.49.49 0 0 0 0-.56 1 1 0 0 0 -1.45-.32z" fill="#fff"/><path d="m318 343.45a.64.64 0 0 0 -.52.52.49.49 0 0 0 0 .21s0 .06 0 .11a.07.07 0 0 0 0 .06.52.52 0 0 0 0 .11 1 1 0 0 0 .06.22.58.58 0 0 0 .35.32.56.56 0 0 0 .48.11.47.47 0 0 0 .38-.41c.25-.46-.16-1.28-.75-1.25z" fill="#fff"/><path d="m252.06 346.78a1.49 1.49 0 0 0 1.75 1.23 1.58 1.58 0 0 0 1.5-.71 1.35 1.35 0 0 0 -.43-1.68c-1.05-.84-3.07-.46-2.82 1.16z" fill="#fff"/><path d="m249.47 348.85a.58.58 0 0 0 .19 1 1.48 1.48 0 0 0 1.2-.14l.13-.11a.6.6 0 0 0 .24-.26.65.65 0 0 0 -.58-.86 1.49 1.49 0 0 0 -1.18.37z" fill="#fff"/><path d="m249.19 346.16a.58.58 0 0 0 .19 1 1.49 1.49 0 0 0 1.2-.14l.13-.11a.53.53 0 0 0 .23-.26.65.65 0 0 0 -.57-.87 1.53 1.53 0 0 0 -1.18.38z" fill="#fff"/><path d="m251.75 350.31a.08.08 0 0 0 0 .07.28.28 0 0 0 .18.29c.24.34.92.18 1.09-.19a.42.42 0 0 0 .05-.24l.06-.05a.23.23 0 0 0 0-.28.22.22 0 0 0 -.13-.25.44.44 0 0 0 -.59-.34c-.31.1-.87.57-.66.99z" fill="#fff"/><path d="m254.52 349.22a.68.68 0 0 0 -.65.39.55.55 0 0 0 -.08.2.37.37 0 0 0 0 .11v.08s0 .08 0 .12a.54.54 0 0 0 0 .22.64.64 0 0 0 .27.41.59.59 0 0 0 .47.21.47.47 0 0 0 .46-.3c.32-.45.07-1.35-.47-1.44z" fill="#fff"/><path d="m256.25 347.66a.69.69 0 0 0 -.66.36.46.46 0 0 0 -.08.2.25.25 0 0 0 0 .12s0 0 0 .06v.11a.59.59 0 0 0 0 .23.61.61 0 0 0 .26.41.58.58 0 0 0 .45.24.48.48 0 0 0 .48-.29 1 1 0 0 0 -.45-1.44z" fill="#fff"/><path d="m310.55 203.19a1.72 1.72 0 1 1 -2.09-1.26 1.71 1.71 0 0 1 2.09 1.26z" fill="#fff"/><path d="m224.49 205.74a1.72 1.72 0 1 1 -2.09-1.26 1.72 1.72 0 0 1 2.09 1.26z" fill="#fff"/><path d="m253.37 118.82s-15.22 3.42-18.2 10.25 2.87 7.83 25.4 7.28 50-4.2 51.33-14.49-58.53-3-58.53-3" fill="#8fc31f"/><path d="m253.23 119.23s0-21.22 16-26.41c16.62-5.39 26.8-3.09 34.88 2.39s6.27 17.62 8.18 24.68c1.26 4.64-40.16-.88-59.06-.66" fill="#009e96"/><path d="m284 91.11a11.77 11.77 0 0 1 -2-.46c-1.42-.56-2.44-1.54.31-2.52 4-1.45 10.49 1.69 1.73 3" fill="#8fc31f"/><path d="m286.49 103.1a8.84 8.84 0 0 1 -1.52 9.76 8.68 8.68 0 1 1 -10.97-13.33 8.73 8.73 0 0 1 9.16-.1 8.93 8.93 0 0 1 3.3 3.67" fill="#fff"/><path d="m277.93 102.28c.3-.12.67-.38 1-.17s.84.37.71.85a6.81 6.81 0 0 0 1.13 1 .13.13 0 0 0 .15-.11h-.1c.12-.12.44 0 .62-.08a.47.47 0 0 1 .41.14c.1.13.13.31.26.45h.07c.12.15.16.3.27.44.67.16 1 .92 1.63 1.21a9.58 9.58 0 0 0 2.37 1.19c0 .12.1.11.15.14a.48.48 0 0 0 -.35 0c.12.16.38 0 .44.24h-.27l.11.06c-.16 0-.3.09-.39-.1a11.48 11.48 0 0 1 -1.73-.82 7.23 7.23 0 0 0 1.53.85c.17.09.4.13.52.29-.07 0-.15 0-.17.1l-.13-.07v.07l.11.07a7.46 7.46 0 0 1 -1.94-1c-.29-.15-.56-.28-.85-.45h-.1c.31.21.65.33 1 .52a5 5 0 0 1 -1.76-1.09c-.21-.18-.53-.58-.87-.48-.11.08-.31.08-.45.16s-.21-.11-.31 0-.38.07-.42.3c-.17.07-.49 0-.53.28v.08c-.35.19-.83.18-1.06.54-.07.07-.21 0-.28.09l-.06-.06c-.1 0-.14.06-.21.08s.06-.11 0-.17c-.18-.06-.22.17-.35.24 0-.14.16-.17.22-.3-.09 0-.17 0-.23.07s.1-.15 0-.14c.08-.16.29-.12.34-.27h-.15c.14-.13.3-.27.41-.39-.06 0-.18-.14-.26 0-.08-.08-.17.06-.26.07v-.07s.1-.13.17-.2a8.84 8.84 0 0 1 .77-.53.19.19 0 0 0 -.29 0c.24 0 0-.27.22-.32a.79.79 0 0 1 .34-.47c-.25-.2-.37-.59-.65-.7 0-.16-.17 0-.21-.15-.32 0-.69.21-.93-.08a1.57 1.57 0 0 0 -.53 0 2.33 2.33 0 0 0 -.27.48 1.41 1.41 0 0 0 -.28.48 1.61 1.61 0 0 1 -.6.64c-.18.3-.61.22-.85.52v-.07a.18.18 0 0 0 -.17.12v.05c-.14 0-.21.12-.25.19-.28.35-.79.39-1.09.69-.59.17-.83.65-1.19 1.11a3.09 3.09 0 0 1 -.4.47c0 .14-.18.21-.23.29 0-.13.2-.25.22-.39-.13.07-.17.24-.32.32s.08-.13 0-.2l-.21.18.17-.28c-.11 0-.2.22-.32.24s-.09 0-.16.06a2.14 2.14 0 0 0 .28-.3c-.13-.06-.25.1-.35.09s0-.11-.11-.06c.07-.08.17-.14.2-.25a.39.39 0 0 0 -.23.09c0-.1.18-.16.12-.31-.24 0-.18.22-.37.29.17-.29.45-.48.63-.78a5.36 5.36 0 0 1 1.24-1c.37-.25.86-.39 1.1-.78a2.43 2.43 0 0 0 .26-.44l.08-.08a1.78 1.78 0 0 1 .87-.33c.12-.16.41-.09.49-.3.34-.48.44-1 .73-1.53.11-.15.23-.4.42-.47a7.45 7.45 0 0 1 1.59.18" fill="#009e96"/><path d="m271.33 103.24-.13-.21.12.18z" fill="#009e96"/><path d="m271.56 103.56c-.08 0-.08 0-.12-.1z" fill="#009e96"/><path d="m264.29 106.88c-.09-.09 0-.16.08-.26a.61.61 0 0 1 -.08.26" fill="#009e96"/><path d="m264.97 105.54v-.01l.06-.02z" fill="#009e96"/><path d="m264.63 105.75-.08.1z" fill="#009e96"/><path d="m268.07 105.12c-.07.1-.23.2-.22.31-.17 0-.23.22-.35.25 0-.15.22-.11.2-.26l.11-.15c0-.07.22-.08.13-.2z" fill="#009e96"/><path d="m267.54 105.38a.29.29 0 0 1 -.16.2c0-.1.08-.11.16-.2" fill="#009e96"/><path d="m265 107.5h-.05z" fill="#009e96"/><path d="m268.02 105.63-.05.02-.02-.05.05-.02z" fill="#009e96"/><path d="m267.91 105.73-.03.09-.05.01.04-.11z" fill="#009e96"/><path d="m268.33 106c0 .08-.08.1-.1.14v-.14z" fill="#009e96"/><path d="m268.4 106.07c0 .08-.11.11-.19.18l.12-.18z" fill="#009e96"/><path d="m272.62 105.1c.08 0 .14.09.21.13v.07a1.23 1.23 0 0 1 -.38-.34c.07.05.12.13.21.14" fill="#009e96"/><path d="m275.38 105.35h-.18z" fill="#009e96"/><path d="m275.94 105.46a1.88 1.88 0 0 1 -.49-.06 1.14 1.14 0 0 1 .49.06" fill="#009e96"/><path d="m274.4 105.87-.24-.1.15.04z" fill="#009e96"/><path d="m276.03 106 .01-.05.05.04z" fill="#009e96"/><path d="m275.98 106.1-.07.02-.01-.03z" fill="#009e96"/><path d="m256.55 238.18c4 7.52 11.42 13.2 21.31-.9.78-1.1 0-1.93-1-1.45a24.39 24.39 0 0 1 -19.19 1c-.87-.33-1.67.34-1.12 1.35z" fill="#150405"/><g fill="#383736"><path d="m57 210.26h-.8c0-.35.05-.73.07-1.14s0-.77 0-1.06v-5.84c0-.17 0-.34 0-.53s0-.37 0-.56v-.56a5.18 5.18 0 0 0 .68.06h1.11s.84 0 1.12 0a5.19 5.19 0 0 0 .69-.06v.5.55s0 .37 0 .55 0 .33 0 .48v5.16q0 .44 0 1.05c0 .42 0 .79.06 1.13h-.93v-1h-2zm2-9h-2v2h2zm0 2.56h-2v2.05h2zm0 2.63h-2v2h2zm2.44 3.67c.37-.15.76-.33 1.15-.52s.77-.38 1.14-.58a2.07 2.07 0 0 0 .15.72c-.4.18-.76.34-1.08.5s-.63.3-.9.44l-.75.39c-.22.13-.44.25-.63.38a2.07 2.07 0 0 0 -.54-.79 5.06 5.06 0 0 0 .69-.23v-8.54c0-.26 0-.5 0-.72a5 5 0 0 0 -.07-.65 4.69 4.69 0 0 0 .49.05l.67.05h.78.84 1.64a10 10 0 0 0 1.15-.1v.66s0 .45 0 .71v2.3.84s0 .5 0 .76h-.41-.5-1.8a5.69 5.69 0 0 0 .29 1 5.48 5.48 0 0 0 .48.89c.32-.2.58-.38.79-.52s.4-.28.56-.41a5.79 5.79 0 0 0 .44-.39c.14-.13.29-.29.46-.47a2.79 2.79 0 0 0 .32.39 2.91 2.91 0 0 0 .31.3c.21.18.17.26-.1.25a.79.79 0 0 0 -.22 0 2.42 2.42 0 0 0 -.4.2c-.18.1-.41.25-.69.43l-1.1.72a8.34 8.34 0 0 0 .64.74 6.58 6.58 0 0 0 .64.56 4.68 4.68 0 0 0 .71.44 7.13 7.13 0 0 0 .83.36 2.08 2.08 0 0 0 -.4.35 1.69 1.69 0 0 0 -.27.42 9 9 0 0 1 -1.47-1.05 9.88 9.88 0 0 1 -1.13-1.21 4.9 4.9 0 0 1 -.44-.65 7.16 7.16 0 0 1 -.4-.78c-.12-.27-.23-.54-.33-.82a6.66 6.66 0 0 1 -.25-.8h-1.25zm0-8.81v1.62h3.89v-1.63zm0 2.22v1.56h3.89v-1.56z"/><path d="m70.84 201.73h-.94c-.3 0-.55.05-.74.08v-.81h.38a2.94 2.94 0 0 0 .44 0h.59.78 1.18s.55 0 .8-.07v.83l-.73-.08h-1v2.75h.79a5.39 5.39 0 0 0 .61-.07v.83a4.2 4.2 0 0 0 -.62-.07c-.21 0-.47 0-.78 0v2.95l.8-.28.76-.29a2 2 0 0 0 0 .43 1.65 1.65 0 0 0 .08.34c-.76.22-1.48.45-2.15.68a19.82 19.82 0 0 0 -1.9.74 2 2 0 0 0 -.39-.92c.31-.05.63-.12 1-.2s.7-.16 1.07-.26v-3.2c-.33 0-.61 0-.86 0a5.5 5.5 0 0 0 -.65.08v-.83a5.63 5.63 0 0 0 .65.07h.86zm5.09 5.54-.83.65c-.26.21-.5.4-.73.6l-.64.56c-.21.18-.4.37-.59.56a2.16 2.16 0 0 0 -.25-.46 1.35 1.35 0 0 0 -.35-.32l.77-.43c.23-.14.48-.3.72-.47s.49-.36.75-.57.55-.45.86-.72a1.05 1.05 0 0 0 .1.3 1.37 1.37 0 0 0 .19.3zm1 2.94a2.35 2.35 0 0 1 -.05.58.52.52 0 0 1 -.24.34 1.4 1.4 0 0 1 -.57.19c-.24 0-.58.07-1 .1a1.49 1.49 0 0 0 -.07-.42 1.67 1.67 0 0 0 -.24-.45 6.87 6.87 0 0 0 .78.06.94.94 0 0 0 .42-.07.37.37 0 0 0 .18-.24 2.33 2.33 0 0 0 0-.43v-6.76h-1-.77-.63l-.61.05v-.81h.62.66.77 1v-.68c0-.43 0-.82 0-1.15s-.06-.61-.1-.82a3.1 3.1 0 0 0 .5.09 1.85 1.85 0 0 0 .47 0c.14 0 .22 0 .24.08s0 .13-.1.19a.38.38 0 0 0 -.17.24 1.58 1.58 0 0 0 0 .38v1.67h.98.87.74.68v.81l-.68-.05h-.74-.87-1.1zm-1.69-4.21a6.19 6.19 0 0 0 -.81-.81 7 7 0 0 0 -1-.71l.57-.48 1 .75.87.76zm4.53 3.61c-.16-.21-.35-.45-.56-.7l-.64-.77-.66-.72q-.33-.35-.6-.6l.53-.42.65.63.68.69.66.7.59.65zm-.77-7.5-.3-.35c-.12-.12-.24-.25-.38-.37l-.42-.36a4.92 4.92 0 0 0 -.41-.31l.47-.49c.27.21.55.45.84.7s.54.5.76.73zm-1.43 3.51a12.73 12.73 0 0 0 1-.92 4.69 4.69 0 0 0 .68-1 3.57 3.57 0 0 0 .39.35 1.35 1.35 0 0 0 .27.16c.13.05.19.11.19.18s-.08.1-.23.12-.4.19-.73.52c-.07.09-.15.17-.21.24l-.23.22-.27.26-.34.33z"/><path d="m85.94 202.06h-1.14-.94-.84-.87v-.83h.91q.43 0 .9 0h1 1.25c.11-.26.21-.55.31-.86s.19-.66.29-1.07a3 3 0 0 0 .41.17 3.58 3.58 0 0 0 .45.09c.14 0 .21.06.22.15s0 .17-.17.26 0 0-.08.08a1.67 1.67 0 0 0 -.12.19 3.7 3.7 0 0 0 -.2.37l-.3.62h2.8 1 .79.73.78v.83l-1.24-.06h-1.29-3.86c-.12.26-.25.53-.4.83a7.42 7.42 0 0 1 -.47.83h4.58.83.54v.26s0 .24 0 .38v.42.37 5a2.38 2.38 0 0 1 -.06.59.63.63 0 0 1 -.26.38 1.26 1.26 0 0 1 -.58.21 9.36 9.36 0 0 1 -1 .1 1.33 1.33 0 0 0 -.33-.94 5.28 5.28 0 0 0 .77.08 1.11 1.11 0 0 0 .45-.06.32.32 0 0 0 .21-.21 1.21 1.21 0 0 0 .05-.41v-1.34h-5.49v3h-.87c0-.36 0-.68.06-1s0-.59 0-.84v-4.47a11.32 11.32 0 0 1 -1 1.06c-.39.35-.83.72-1.33 1.1a.78.78 0 0 0 -.2-.38 1.21 1.21 0 0 0 -.48-.31 16 16 0 0 0 1.36-1 9.18 9.18 0 0 0 1.12-1 8.43 8.43 0 0 0 .93-1.19 10.1 10.1 0 0 0 .78-1.4zm5 3.79v-1.5h-5.37v1.5zm-5.33.6v1.42h5.29v-1.42z"/><path d="m95.38 210.26h-.79q0-.52.06-1.14c0-.42 0-.77 0-1.06v-5.41c0-.12 0-.26 0-.43s0-.34 0-.53 0-.37 0-.56 0-.38 0-.56a5 5 0 0 0 .67.06h1.12s.83 0 1.12 0a5.18 5.18 0 0 0 .68-.06v.5s0 .37 0 .55 0 .37 0 .55v5.64 1.05s0 .79.07 1.13h-.81v-1h-2.12zm2.05-9h-2.05v2h2.05zm0 2.56h-2.05v2.05h2.05zm0 2.63h-2.05v2h2.05zm2.45 3.67c.37-.15.76-.33 1.15-.52s.77-.38 1.14-.58a3.14 3.14 0 0 0 0 .4 2 2 0 0 0 .11.32l-1.09.5-.89.44-.75.39c-.23.13-.44.25-.64.38a1.93 1.93 0 0 0 -.53-.79 6.17 6.17 0 0 0 .69-.23v-8.54c0-.26 0-.5 0-.72s0-.43-.07-.65a4.69 4.69 0 0 0 .49.05l.67.05h.78.84 1.64a10 10 0 0 0 1.15-.1v.66s0 .45 0 .71v2.3.84s0 .5.06.76h-.42-.49-1.83a5 5 0 0 0 .29 1 4.28 4.28 0 0 0 .48.89l.79-.52c.21-.15.4-.28.56-.41s.3-.26.44-.39.29-.29.46-.47a3.79 3.79 0 0 0 .31.39 3 3 0 0 0 .32.3c.2.18.17.26-.1.25a.69.69 0 0 0 -.22 0 2.43 2.43 0 0 0 -.41.2l-.69.43-1.09.72a6.93 6.93 0 0 0 .63.74 6.67 6.67 0 0 0 .65.56 4.68 4.68 0 0 0 .71.44 7.78 7.78 0 0 0 .82.36 2.43 2.43 0 0 0 -.4.35 1.68 1.68 0 0 0 -.26.42 9 9 0 0 1 -1.47-1.07 9.16 9.16 0 0 1 -1.13-1.21 6.09 6.09 0 0 1 -.45-.65q-.21-.37-.39-.78c-.12-.27-.23-.54-.34-.82a6.57 6.57 0 0 1 -.24-.8h-1.28zm0-8.81v1.62h3.89v-1.63zm0 2.22v1.56h3.89v-1.56z"/><path d="m111.1 201.71c.15-.25.27-.48.37-.68s.19-.38.26-.54a3.29 3.29 0 0 0 .18-.42 1.75 1.75 0 0 0 .11-.35 4.09 4.09 0 0 0 .5.23 3.09 3.09 0 0 0 .51.15c.11 0 .17.07.17.13s-.07.11-.22.15l-.14.08a.92.92 0 0 0 -.2.2 4.4 4.4 0 0 0 -.31.4c-.12.16-.27.38-.44.65h3.76.74.64.47v.5a4.43 4.43 0 0 0 0 .52v7.2.51s0 .3 0 .42 0 .22 0 .3h-.88v-1.15h-7.26v1.28h-.86c0-.2 0-.47 0-.81s0-.75 0-1.24v-6.51c0-.18 0-.36 0-.54s0-.33 0-.48c.2 0 .52 0 1 .07s.96-.07 1.6-.07zm5.52 3.74v-3.07h-7.26v3.07zm-7.26.67v3.13h7.26v-3.13z"/><path d="m3.39 230.55h-1.7l-1.69.09v-.79c.36 0 1 .06 2 .08s2.21 0 3.72 0h2.15 1.63 1.16l.74-.05v.79c-.37 0-.82-.06-1.35-.07h-1.82v1.27.57a3.39 3.39 0 0 0 .06.54h-.87c0-.17 0-.35.07-.55s0-.39 0-.56v-1.27h-3.33a3.2 3.2 0 0 1 -.22.74 1.8 1.8 0 0 1 -.42.62 3.17 3.17 0 0 1 -.74.55 9.38 9.38 0 0 1 -1.17.55 1.29 1.29 0 0 0 -.22-.37 1.88 1.88 0 0 0 -.46-.35 6.63 6.63 0 0 0 1.07-.34 2.78 2.78 0 0 0 .73-.39 1.38 1.38 0 0 0 .43-.48 1.67 1.67 0 0 0 .23-.58zm6.85-1.14h-.82c-.29 0-.62 0-1 0h-1.21-3.04-1.19c-.36 0-.68 0-1 0h-.82a2.72 2.72 0 0 0 .1-.45 4.36 4.36 0 0 0 0-.51v-1.23a3 3 0 0 0 -.13-.93h.84 1 1.19 3 1.21 1 .83a3.21 3.21 0 0 0 -.14.92v1.26a4.15 4.15 0 0 0 0 .49 2 2 0 0 0 .18.45zm-6.12-7.25a5 5 0 0 0 .26-.52 4.2 4.2 0 0 0 .16-.51 2.56 2.56 0 0 0 .45.16 3.51 3.51 0 0 0 .53.1c.1 0 .15.05.16.11s0 .1-.14.13a.83.83 0 0 0 -.23.14 2.15 2.15 0 0 0 -.33.39h2.91.69.6.47a5 5 0 0 0 -.14 1.23v1.4a5.37 5.37 0 0 0 0 .7 2.88 2.88 0 0 0 .1.55h-.58-.76-5.22-.73-.63a2.52 2.52 0 0 0 .11-.56 5 5 0 0 0 0-.69v-1.41q0-.33 0-.63a2.94 2.94 0 0 0 -.12-.59c.3 0 .66.06 1.09.08s.89-.08 1.35-.08zm-2.07 4.71v.73h3.24v-.73zm0 1.94h3.24v-.72h-3.24zm6.73-5.46v-.68h-6.23v.68zm-6.23.39v.68h6.23v-.68zm0 1.7h6.23v-.65h-6.23zm6.82 1.43h-3.37v.73h3.37zm0 1.94v-.72h-3.37v.72z"/><path d="m18.21 225.19 3.13-2.41h-5.7c-.43 0-.9 0-1.38.06v-.84q.38 0 .75 0h7.09.71v.79a2.26 2.26 0 0 0 -.91.45l-2.9 2.27v.88h1.62 1.39 1.2l1.08-.07v1l-1.08-.06h-1.2-1.39-1.62v4.58a1.25 1.25 0 0 1 -.07.45.65.65 0 0 1 -.34.33 2.92 2.92 0 0 1 -.76.22 10.34 10.34 0 0 1 -1.32.09 1.5 1.5 0 0 0 -.05-.58 1.63 1.63 0 0 0 -.33-.54 10.7 10.7 0 0 0 1.08.14 2.14 2.14 0 0 0 .62 0 .41.41 0 0 0 .28-.22 1.25 1.25 0 0 0 .06-.42v-4h-3.11c-.88 0-1.68 0-2.38.11v-1c.7.06 1.5.1 2.38.11s1.94 0 3.15 0z"/><path d="m31.77 230.6v1.39s.05.71.09 1h-1.05c0-.31.06-.65.08-1s0-.83 0-1.39v-2h-3.44v1.11h-.89c0-.27 0-.55.06-.85s0-.59 0-.86v-3.07c0-.22 0-.46 0-.71s0-.45-.06-.61c.32 0 .84.07 1.57.1h2.79v-.92c0-.32 0-.63 0-.94s0-.58-.09-.83a5.86 5.86 0 0 0 .58.1h.47c.14 0 .22 0 .24.1s0 .14-.18.22a.34.34 0 0 0 -.11.17.92.92 0 0 0 0 .33v1.74h2.74c.7 0 1.21-.06 1.53-.1a2.63 2.63 0 0 0 0 .33v.41s0 .29 0 .44v3 .9s0 .66 0 .93h-.88v-1h-3.45zm-.85-6.23h-3.47v3.54h3.47zm.85 3.54h3.39v-3.54h-3.39z"/><path d="m43.48 225.85h-1.1-2.29v4.67 1.21s0 .74.07 1.17h-1c0-.22 0-.42.05-.61s0-.38 0-.57 0-.38 0-.58 0-.4 0-.62v-7.32c0-.21 0-.41 0-.6s0-.37 0-.53h.25 3.54.47v.52s0 .39 0 .61v1.57.61s-.01.32.01.47zm-.77-1.61h-2.62v.95h2.62zm0-1.52h-2.61v.92h2.61zm3.75 7.9a8.34 8.34 0 0 0 -.88-.07c-.41 0-.9 0-1.46 0s-1.06 0-1.48 0a8.6 8.6 0 0 0 -.89.07 2.73 2.73 0 0 0 0-.41c0-.15 0-.27 0-.36v-2.49c0-.1 0-.22 0-.36a2.5 2.5 0 0 0 0-.4l.88.06q.63 0 1.47 0h1.48l.88-.06a1.72 1.72 0 0 0 0 .34v.42 2.49.43a1.87 1.87 0 0 0 0 .34zm-.74-3.32h-3.23v.93h3.23zm-3.23 2.61h3.23v-1.1h-3.23zm6.51-7.91a3.7 3.7 0 0 0 0 .49v8.85a2.58 2.58 0 0 1 -.07.64.59.59 0 0 1 -.33.35 2.56 2.56 0 0 1 -.75.18c-.33 0-.78.07-1.35.1a1.94 1.94 0 0 0 -.42-1c.49.07.88.11 1.16.12a2.29 2.29 0 0 0 .64 0 .4.4 0 0 0 .28-.21 1.17 1.17 0 0 0 .05-.41v-5.31h-2.29-.58l-.59.06c0-.07 0-.16 0-.27s0-.24 0-.37 0-.27 0-.41v-1.69c0-.23 0-.43 0-.61s0-.35 0-.51h.51 2.62c.38.07.74.05 1.12 0zm-.81.66h-2.69v.91h2.67zm0 1.51h-2.69v1h2.67z"/><path d="m55.43 223.49h-1.14-.93-.85-.87v-.83h.92.89 1 1.25a7.79 7.79 0 0 0 .3-.66c.09-.31.19-.66.29-1.07a2.9 2.9 0 0 0 .41.16 1.8 1.8 0 0 0 .45.09c.14 0 .21.07.23.16s0 .17-.18.25l-.08.09a1.07 1.07 0 0 0 -.12.19c-.05.09-.12.21-.2.37s-.18.36-.3.62h3.76.78.73.78v.83l-1.24-.06h-1.29-1.61-2.2l-.4.82a6.81 6.81 0 0 1 -.48.84h4.58.83.55v.26.38s0 .27 0 .41 0 .27 0 .38v5a2.38 2.38 0 0 1 -.06.59.64.64 0 0 1 -.25.38 1.31 1.31 0 0 1 -.58.21 9.88 9.88 0 0 1 -1 .1 1.58 1.58 0 0 0 -.06-.47 1.84 1.84 0 0 0 -.28-.48 5.53 5.53 0 0 0 .77.09 1.38 1.38 0 0 0 .46-.06.38.38 0 0 0 .21-.22 1.47 1.47 0 0 0 0-.41v-1.33h-5.44v3h-.87c0-.35.06-.68.06-1s0-.59 0-.85v-4.46a14.71 14.71 0 0 1 -1 1.06c-.38.35-.83.71-1.33 1.1a.89.89 0 0 0 -.19-.39 1.21 1.21 0 0 0 -.49-.3c.5-.33 1-.65 1.36-1a9.18 9.18 0 0 0 1.12-1 8.34 8.34 0 0 0 .94-1.19 11.92 11.92 0 0 0 .77-1.6zm5 3.78v-1.49h-5.37v1.49zm-5.34.61v1.42h5.31v-1.42z"/><path d="m71.8 223.17h1.07 1 .77.48v.82h-.48-.77-1-4.82q-.22 1.68-.51 2.91a18.3 18.3 0 0 1 -.64 2.2 10.23 10.23 0 0 1 -.83 1.76 16 16 0 0 1 -1.07 1.41 1.22 1.22 0 0 0 -.41-.38 2.47 2.47 0 0 0 -.5-.19 7.67 7.67 0 0 0 1.13-1.23 6.86 6.86 0 0 0 .84-1.55 13.56 13.56 0 0 0 .65-2.13c.19-.82.36-1.81.51-3-.66 0-1.25 0-1.76 0s-.86 0-1 0v-.82h1.08s1.14 0 1.82 0a8.94 8.94 0 0 0 .07-1.24 5 5 0 0 0 -.09-.72l.54.09a5 5 0 0 0 .57 0c.13 0 .2 0 .23.08s0 .13-.17.28a1.09 1.09 0 0 0 -.16.43c0 .21-.1.56-.17 1zm-.8 5.39a5.6 5.6 0 0 1 -1.33 2.32 9 9 0 0 1 -2.8 1.92 1.31 1.31 0 0 0 -.3-.43 1.69 1.69 0 0 0 -.42-.27 10.62 10.62 0 0 0 1.88-.93 6.6 6.6 0 0 0 1.27-1.06 4.47 4.47 0 0 0 .76-1.18 4.92 4.92 0 0 0 .33-1.32c0-.39.06-.72.08-1a7 7 0 0 0 0-.78c0-.25 0-.49-.06-.73s-.07-.51-.13-.8l.56.07h.51c.14 0 .21.05.21.13s0 .14-.17.2a.36.36 0 0 0 -.06.11 2 2 0 0 0 -.06.33q0 .26-.06.72v1.24a13 13 0 0 0 .63 1.51 6.19 6.19 0 0 0 .8 1.21 6.55 6.55 0 0 0 1.12 1 12.19 12.19 0 0 0 1.6 1 1.53 1.53 0 0 0 -.69.79c-.53-.36-1-.71-1.37-1a8.37 8.37 0 0 1 -1-.95 6.62 6.62 0 0 1 -.72-1 9.11 9.11 0 0 1 -.58-1.1zm-1.65-2.22a10.47 10.47 0 0 1 -.38 1.22 10.13 10.13 0 0 1 -.51 1.19l-.75-.28a5.13 5.13 0 0 0 .54-1 6.55 6.55 0 0 0 .35-1.28zm4.75.19a.62.62 0 0 0 -.22.16 2.15 2.15 0 0 0 -.23.28l-.21.31-.29.42-.3.43-.27.35-.68-.39a6.17 6.17 0 0 0 1-1.18 5 5 0 0 0 .33-.58 2.25 2.25 0 0 0 .18-.51 3.75 3.75 0 0 0 .36.24 1.31 1.31 0 0 0 .37.17c.1 0 .15.07.16.14s-.1.13-.22.16z"/><path d="m78.42 225.19-.46.45-.54.53a1.53 1.53 0 0 0 -.78-.55 10.66 10.66 0 0 0 2.21-1.94 11.84 11.84 0 0 0 1.73-2.68 2.54 2.54 0 0 0 .36.28 2.7 2.7 0 0 0 .38.17c.15.05.22.11.22.18s-.08.13-.23.19a.89.89 0 0 0 -.35.27 6.64 6.64 0 0 0 -.49.65h3.81.66.6.44l-2.35 2.62h2a9 9 0 0 0 1.09-.07v.91 1 1.06s0 .64 0 .86h-.3-.48-6.65v1.91a1.48 1.48 0 0 0 0 .39.49.49 0 0 0 .19.26 1.17 1.17 0 0 0 .39.16 4.24 4.24 0 0 0 .65.09l1.3.05h1.35 1.28c.41 0 .77 0 1.09-.06a7.64 7.64 0 0 0 .9-.12 1.39 1.39 0 0 0 .56-.27 1.09 1.09 0 0 0 .32-.51 5.65 5.65 0 0 0 .16-.85 1.38 1.38 0 0 0 .38.32 1.25 1.25 0 0 0 .45.13 9.37 9.37 0 0 1 -.32 1 1.61 1.61 0 0 1 -.4.58 1.39 1.39 0 0 1 -.6.28 6 6 0 0 1 -.9.11h-.63-1-3.17-.72a8.59 8.59 0 0 1 -1.12-.11 1.57 1.57 0 0 1 -.63-.23.71.71 0 0 1 -.27-.41 2.72 2.72 0 0 1 0-.62v-4.31c-.05-.56-.08-1.08-.13-1.72zm1.6-1.82c-.11.15-.22.3-.33.43l-.34.41-.39.44c-.15.14-.32.31-.5.5h.45a7.2 7.2 0 0 0 .75 0h3l1.66-1.87zm-.73 2.5v2.43h3v-2.43zm6.63 2.43v-2.43h-2.8v2.43z"/><path d="m91.22 225.19-.46.45-.54.53a1.83 1.83 0 0 0 -.35-.34 1.57 1.57 0 0 0 -.43-.21 10.92 10.92 0 0 0 2.21-1.94 11.84 11.84 0 0 0 1.73-2.68 2.54 2.54 0 0 0 .36.28 2.7 2.7 0 0 0 .38.17c.15.05.22.11.22.18s-.08.13-.23.19a.89.89 0 0 0 -.35.27 5.34 5.34 0 0 0 -.49.65h3.81.66.6.44l-2.35 2.62h2a9 9 0 0 0 1.09-.07v.91 1 1.06s0 .64 0 .86h-.3-.48-6.65v1.91a1.15 1.15 0 0 0 0 .39.49.49 0 0 0 .19.26 1.09 1.09 0 0 0 .39.16 4.24 4.24 0 0 0 .65.09l1.3.05h1.35 1.28c.41 0 .77 0 1.08-.06a7.55 7.55 0 0 0 .91-.12 1.39 1.39 0 0 0 .56-.27 1 1 0 0 0 .31-.51 4.52 4.52 0 0 0 .17-.85 1.38 1.38 0 0 0 .38.32 1.25 1.25 0 0 0 .45.13 9.37 9.37 0 0 1 -.32 1 1.61 1.61 0 0 1 -.4.58 1.39 1.39 0 0 1 -.6.28 6.13 6.13 0 0 1 -.9.11h-.63-1-3.18-.71a8.41 8.41 0 0 1 -1.12-.11 1.57 1.57 0 0 1 -.63-.23.71.71 0 0 1 -.27-.41 2.65 2.65 0 0 1 -.06-.62v-4.31c0-.56-.02-1.08-.07-1.72zm1.6-1.82c-.11.15-.22.3-.33.43l-.34.41c-.12.14-.25.29-.4.44l-.49.5h.45a7.2 7.2 0 0 0 .75 0h3l1.66-1.87zm-.73 2.5v2.43h3v-2.43zm6.63 2.43v-2.43h-2.81v2.43z"/><path d="m104.14 225.11h-.9q-.42 0-.81.09v-.87l.77.09h.94c0-.91 0-1.59 0-2a8.89 8.89 0 0 0 -.07-.93 3.35 3.35 0 0 0 .51.08h.5c.11 0 .16 0 .18.06s0 .09-.13.15a.23.23 0 0 0 -.12.12.36.36 0 0 0 -.06.2v2.34h.8l.66-.09v.87l-.67-.09c-.23 0-.49 0-.79 0v4l.75-.27.75-.28a1.33 1.33 0 0 0 0 .38 1.12 1.12 0 0 0 .06.35c-.3.08-.63.17-1 .29l-1 .37c-.35.13-.67.26-1 .4l-.82.38a1.49 1.49 0 0 0 -.11-.44 1.22 1.22 0 0 0 -.27-.41c.26-.05.54-.11.86-.2s.67-.18 1-.3zm4.41-2.43a5.5 5.5 0 0 0 .23-.72 6.24 6.24 0 0 0 .16-.75l.54.18.45.13q.12 0 .12.09s0 .09-.11.12a2.12 2.12 0 0 0 -.69 1h1.35 1c.29 0 .53 0 .72-.05a4.24 4.24 0 0 0 .47 0 3.42 3.42 0 0 0 -.08.6v.73 2.32.72a2.7 2.7 0 0 0 .08.56h-3.36a8.41 8.41 0 0 1 -.39 1.59 5.86 5.86 0 0 1 -.65 1.33 6.85 6.85 0 0 1 -1 1.2 13.73 13.73 0 0 1 -1.4 1.2 1.57 1.57 0 0 0 -.32-.41 1.11 1.11 0 0 0 -.41-.25 6.88 6.88 0 0 0 2.44-2 5.9 5.9 0 0 0 1-2.63h-1.35v.82h-.8c0-.19 0-.4.07-.62s0-.45 0-.68v-3.11c0-.31 0-.56 0-.75s0-.38-.08-.58a6.87 6.87 0 0 0 .77.09zm.82 2.11v-1.53h-2v1.53zm-2 .56v1.54h2v-1.54zm2.22 2.55a2.6 2.6 0 0 0 .45.08 1.31 1.31 0 0 0 .4 0 .22.22 0 0 1 .19 0s0 .09 0 .16a.78.78 0 0 0 -.17.34 3.59 3.59 0 0 0 0 .69v2a.85.85 0 0 0 0 .25.22.22 0 0 0 .15.15 1 1 0 0 0 .37.08h.69.73a1.13 1.13 0 0 0 .43-.1.6.6 0 0 0 .25-.25 2.2 2.2 0 0 0 .14-.45 2.25 2.25 0 0 0 .75.39 3 3 0 0 1 -.25.56.91.91 0 0 1 -.39.33 2 2 0 0 1 -.64.16 8.82 8.82 0 0 1 -1 .05c-.45 0-.81 0-1.07 0a2 2 0 0 1 -.58-.14.45.45 0 0 1 -.26-.3 2.2 2.2 0 0 1 0-.5v-2.67c0-.13 0-.24 0-.34s0-.18 0-.26zm2.37-3.11v-1.53h-2v1.53zm-2 .56v1.54h2v-1.54zm2.62 4.64c-.06-.17-.13-.34-.2-.49a4 4 0 0 0 -.23-.42l.52-.23c.16.31.3.62.42.92s.23.59.32.87l-.59.26c0-.1 0-.17 0-.22s0-.12 0-.22l-1.06.18a3.21 3.21 0 0 0 -.43.1 2.48 2.48 0 0 0 -.48.17 2.55 2.55 0 0 0 -.13-.37 2.7 2.7 0 0 0 -.23-.39h.36c.2-.41.38-.79.52-1.15a10 10 0 0 0 .35-1.17l.36.17.41.13c.11 0 .16.07.16.12s0 .1-.15.14a.7.7 0 0 0 -.14.08 2.34 2.34 0 0 0 -.18.23c-.08.12-.17.28-.29.5s-.27.52-.45.9z"/><path d="m63.56 102.34h-.87c-.24 0-.5 0-.77.07v-.83c.27 0 .53.06.77.07h.87c0-.47 0-.86 0-1.19s0-.59 0-.82 0-.4 0-.53a2.15 2.15 0 0 0 -.07-.35 3.22 3.22 0 0 0 .51.1 3 3 0 0 0 .43 0c.19 0 .3 0 .31.06s0 .12-.16.22a.59.59 0 0 0 -.21.5v2h.85l.86-.08v.83c-.3 0-.59-.06-.85-.07h-.86v2c.41-.22.86-.49 1.34-.81a2.06 2.06 0 0 0 .07.4 1.58 1.58 0 0 0 .16.35l-.81.42-.76.42v4.25a1.24 1.24 0 0 1 -.07.46.66.66 0 0 1 -.28.32 2 2 0 0 1 -.55.19 4.72 4.72 0 0 1 -.85.08 2.4 2.4 0 0 0 -.1-.48 2 2 0 0 0 -.26-.5c.31.06.55.09.73.11a1.19 1.19 0 0 0 .41 0 .24.24 0 0 0 .18-.17 1.06 1.06 0 0 0 0-.33v-3.47l-.68.39-.74.45a3.08 3.08 0 0 0 -.47-.86l1-.41c.31-.12.6-.26.87-.39zm5.81.47a9.14 9.14 0 0 1 -1.59 1.81 14.72 14.72 0 0 1 -1.88 1.38 2.29 2.29 0 0 0 -.31-.42 1.16 1.16 0 0 0 -.35-.25 6.86 6.86 0 0 0 1.28-.68 7.94 7.94 0 0 0 1.15-.91 6.39 6.39 0 0 0 .93-1.1 5.46 5.46 0 0 0 .62-1.23 3.76 3.76 0 0 0 .42.26 1.74 1.74 0 0 0 .36.13.15.15 0 0 1 .13.13c0 .06 0 .11-.12.14h-.13a.48.48 0 0 0 -.15.14 7.53 7.53 0 0 0 .89 1 6.5 6.5 0 0 0 .95.73 5.49 5.49 0 0 0 1 .51 8.94 8.94 0 0 0 1.17.36 2.51 2.51 0 0 0 -.27.37 2.13 2.13 0 0 0 -.2.46 8.82 8.82 0 0 1 -2.27-1.13 6.58 6.58 0 0 1 -1.63-1.7zm-1.23-.32h-.72v-1.49h-.87c-.25 0-.54 0-.87.08v-.87c.32 0 .61.07.87.08s.55 0 .87 0v-.29c0-.14 0-.27 0-.4v-.36a1.87 1.87 0 0 0 0-.27 3 3 0 0 0 .47.07 3.53 3.53 0 0 0 .46 0c.08 0 .12 0 .14.07s0 .09-.12.15-.16.23-.16.51v.62h2.63c0-.23 0-.49 0-.78s0-.52-.06-.73a2.19 2.19 0 0 0 .48.08 3.23 3.23 0 0 0 .44 0c.07 0 .11 0 .13.07s0 .1-.12.16a.23.23 0 0 0 -.11.16 1.31 1.31 0 0 0 0 .33v.71h.4.45.43l.47-.06v.87l-.47-.06h-.42-.46-.55v1.44h-.71v-1.58h-2.6zm-.65 8.05h-.83a4.52 4.52 0 0 0 .08-.63c0-.21 0-.45 0-.72v-1.69c0-.23 0-.41 0-.55s0-.28 0-.41c.24 0 .57 0 1 .06h1.67 1.9s.79 0 1 0v.37s0 .34 0 .59v1.44.71s0 .42.06.66h-.81v-.85h-4zm4-3.34h-4v1.73h4zm-2-1.64c-.35 0-.66 0-.95 0l-.87.1v-.83l.85.09a9 9 0 0 0 1 0h.48a3 3 0 0 0 .44 0h.4l.42-.06v.83c-.14 0-.28 0-.42-.06h-.41-.44z"/><path d="m76.64 100.25h-1.08-.9v-.75a10.48 10.48 0 0 0 1.12.09h1.81s1.41 0 1.86 0a10.3 10.3 0 0 0 1.06-.09v.81h-.84-1v1.55h.82a4.74 4.74 0 0 0 .67-.08c0 .17-.05.36-.07.55s0 .4 0 .59v5 1.31a7.48 7.48 0 0 0 .07.88h-.82v-.63h-3.52v.89h-.82q0-.5.06-1.08c0-.39 0-.76 0-1.1v-5.29c0-.19 0-.39 0-.59a4.63 4.63 0 0 0 -.06-.55 4.64 4.64 0 0 0 .71.09h.88zm2.69 5.53h-.59a.73.73 0 0 1 -.56-.21 1 1 0 0 1 -.16-.62v-2.55h-.73c0 .48 0 .9-.05 1.26a6.25 6.25 0 0 1 -.15 1 4.74 4.74 0 0 1 -.65 1.53 1.67 1.67 0 0 0 -.28-.22 2.35 2.35 0 0 0 -.34-.14v1h3.51zm-3.51-.18a3.52 3.52 0 0 0 .39-.56 2.92 2.92 0 0 0 .24-.65 5 5 0 0 0 .14-.86c0-.32 0-.69 0-1.13h-.82zm0 3.2h3.51v-1.38h-3.51zm1.47-8.55v1.55h.71v-1.55zm1.37 4.51a.3.3 0 0 0 .13.25.94.94 0 0 0 .54.1v-2.71h-.67zm5.88-4.34h-2.45-.45l-.4.06a1.67 1.67 0 0 0 -.3.07v-1a3.66 3.66 0 0 0 .79.13h1.41s1 0 1.39 0a4.28 4.28 0 0 0 .81-.13v.49s0 .39 0 .69v2.53 1.06s0 .67 0 1h-.8v-1h-2.69v3.71a2 2 0 0 0 .07.6.61.61 0 0 0 .26.36 1.18 1.18 0 0 0 .52.18 6.36 6.36 0 0 0 .85 0 4.65 4.65 0 0 0 .92-.07 1.24 1.24 0 0 0 .58-.26 1 1 0 0 0 .31-.5 3.84 3.84 0 0 0 .14-.82l.24.24a1.3 1.3 0 0 0 .2.15l.19.1.24.06a5.17 5.17 0 0 1 -.34.94 1.27 1.27 0 0 1 -.48.54 1.8 1.8 0 0 1 -.75.26 8.83 8.83 0 0 1 -1.15.07 11 11 0 0 1 -1.28-.06 1.79 1.79 0 0 1 -.76-.24.85.85 0 0 1 -.38-.51 3 3 0 0 1 -.1-.88v-3.29c0-.3 0-.54 0-.71s0-.34-.05-.48h.28.33 2.86z"/><path d="m92.73 100.57h-2.32c-.69 0-1.34 0-2 .07v-.81c.67.05 1.38.07 2.14.08h5.33 1l1-.05v.81h-.9q-.43 0-.93 0h-2.48v3.32h1.29 1 .75.62v.8h-.62-.75-2.29v4.35h3.2 1.15l1.13-.06v.85l-1.16-.06h-1.2-3.37-3.15c-.91 0-1.78 0-2.59.09v-.85c.75 0 1.53.07 2.36.09h2.79v-4.35h-2.15-.71-.6v-.8h.6.71 2.15zm4.41 7.64a7.44 7.44 0 0 0 -1-1.14 13.26 13.26 0 0 0 -1.39-1.07l.54-.55c.42.32.85.67 1.27 1l1.21 1.12z"/><path d="m105.55 108.4v-8c0-.25 0-.47 0-.65s0-.33 0-.46a2.16 2.16 0 0 0 -.05-.32 1.4 1.4 0 0 0 -.06-.24l.52.07h.57c.09 0 .14 0 .15.08s0 .11-.1.16a.39.39 0 0 0 -.17.33v9h3.34v-5.35c0-.29 0-.54 0-.76a5.77 5.77 0 0 0 -.09-.62h.29.23.21.25q.23 0 .24.06s0 .1-.16.2a.26.26 0 0 0 -.1.14.91.91 0 0 0 0 .27v6.64.63a4.58 4.58 0 0 0 .06.56h-.94c0-.17 0-.36 0-.57v-.59h-7.45v1.16h-.85c0-.09 0-.17 0-.25s0-.18 0-.29v-6.6c0-.23 0-.48 0-.75s0-.48 0-.63l.5.08h.43c.22 0 .33 0 .35.13s-.07.18-.27.32a.51.51 0 0 0 -.13.41v5.82z"/><path d="m116 108.65v1s0 .63.08 1h-.92c0-.35.07-.68.09-1s0-.64 0-1v-7.05h-1v6.46h-.8c0-.32.06-.65.07-1s0-.69 0-1v-5.18h.29.32 1.05v-.81c0-.22 0-.42 0-.6s0-.33 0-.46 0-.26 0-.39h.49a3.78 3.78 0 0 0 .5 0c.08 0 .13 0 .14.06s0 .07-.1.11a.52.52 0 0 0 -.17.16.37.37 0 0 0 -.06.21v1.84h1 .3.28v6a1.64 1.64 0 0 1 0 .4.58.58 0 0 1 -.17.29.92.92 0 0 1 -.37.2 4.17 4.17 0 0 1 -.68.1 1.47 1.47 0 0 0 0-.39 1.5 1.5 0 0 0 -.18-.36 2.15 2.15 0 0 0 .43 0 .41.41 0 0 0 .24-.11.48.48 0 0 0 .09-.27c0-.11 0-.27 0-.46v-4.8h-.92zm8.24-6.12v.67s0 .42 0 .61h-.79v-3.46h-4.66v3.5h-.78c0-.22 0-.42 0-.63s0-.42 0-.65v-1.79c0-.2 0-.4 0-.61a3 3 0 0 0 0-.49h.48.59 4 .61.5v.49s0 .41 0 .61zm-4.85 8h-.78v-.94c0-.31 0-.66 0-1v-3.27c0-.23 0-.42 0-.6s0-.34 0-.49h.38.62.77 1.67.77.62.38v.52 4.91.81h-.77v-.85h-3.68zm3.68-4.69v-1h-3.68v1zm-3.68.57v1h3.68v-1zm0 2.58h3.68v-1h-3.68zm3.57-5.8h-.67c-.26 0-.63 0-1.11 0h-.66-.48-.35-.29v-.69h.3.37 1.11 1.11a5.74 5.74 0 0 0 .67-.06zm-.06-1.38h-.3-.35-2.18-.34-.29v-.69c.19 0 .41 0 .66.06h1.07 1.07c.25 0 .47 0 .66-.06z"/><path d="m80.45 346.2h-2.09c-.59 0-1.09 0-1.5.08v-.85l.72.05h.85 1.22 1.8 2.76c.73 0 1.33 0 1.81-.09v.85l-.74-.05h-.89-1.26-1.84l-.46 2.81h2.17q.51 0 1 0h1.07l-.28 5h.62.61.53.42v.84h-.61-1.07-1.6-4-1.46-1.2-1v-.84c.27 0 .55.07.86.09h1.13 1.18l.72-4.46c-.39 0-.74 0-1.06 0s-.68 0-1.08.07v-.82l1.11.06 1.11.06zm-.45 7.8h4l.34-4.46h-3.62z"/><path d="m90.53 348.21c-.2.32-.4.62-.6.89l-.66.85a1.81 1.81 0 0 0 -.34-.37 1.9 1.9 0 0 0 -.34-.2 12.21 12.21 0 0 0 1.78-2.22 11.19 11.19 0 0 0 1.16-2.65 2.23 2.23 0 0 0 .4.24 1.54 1.54 0 0 0 .4.13c.14 0 .21.07.23.17s0 .16-.16.19a.31.31 0 0 0 -.14.07.91.91 0 0 0 -.18.22 5.49 5.49 0 0 0 -.3.48c-.13.21-.28.49-.47.85v9.22h-.92c0-.37.07-.76.1-1.18s0-.86 0-1.32zm3 7.82h-.83c0-.23 0-.45 0-.68s0-.47 0-.72v-7.37c0-.52 0-.95 0-1.29s0-.55 0-.64h.89.82.89 2.37 1 .75.66a5.7 5.7 0 0 0 0 .63v1.3 7.29.7a5.59 5.59 0 0 0 0 .57h-.79v-.82h-5.78zm5.71-10h-5.73v8.24h5.71zm-2.49 4.08h.91l.73-.06c0 .17 0 .36-.05.57s0 .43 0 .66v.85.77s0 .4 0 .55l-.85-.05h-2.12l-.87.05v-.58c0-.19 0-.45 0-.76v-.83c0-.23 0-.44 0-.66s0-.4 0-.57l.69.06h.83v-1.5h-.72-.55-.43-.38v-.61l.36.05h.42.54.74c0-.15 0-.31 0-.47s0-.32 0-.47 0-.3 0-.43 0-.23 0-.3l.48.07h.44c.11 0 .17 0 .18.07s0 .12-.13.19a.44.44 0 0 0 -.12.19 1.82 1.82 0 0 0 0 .4v.75l1.15-.05c.32 0 .6 0 .84-.07v.79h-.35-.43-.57-.78zm-1.48.58v2.07h2.34v-2.07z"/><path d="m109.43 346.16-1 .11c-.35 0-.7.07-1.07.09v6.93 1.09a8.26 8.26 0 0 0 .08.94h-1c0-.32.06-.65.08-1s0-.68 0-1.06v-6.86h-1.21c-.41 0-.84 0-1.27 0v.46s0 .45 0 .73 0 .56 0 .87v.91c0 .71 0 1.36-.09 1.93a10.14 10.14 0 0 1 -.28 1.58 7.24 7.24 0 0 1 -.51 1.35 8.12 8.12 0 0 1 -.79 1.25 2.73 2.73 0 0 0 -.48-.27 2.27 2.27 0 0 0 -.66-.17 4.72 4.72 0 0 0 1.6-2.31 11.26 11.26 0 0 0 .47-3.58c0-.8 0-1.5-.08-2.09s-.08-1-.12-1.39c.82.05 1.63.07 2.42.05s1.53-.06 2.22-.13a16.91 16.91 0 0 0 1.85-.28 7.66 7.66 0 0 0 1.35-.4 3 3 0 0 0 .44.41 3.3 3.3 0 0 0 .44.32c.14.09.19.17.15.26a.19.19 0 0 1 -.24.08 1.42 1.42 0 0 0 -.28 0h-.43-.5l-.54.07c0 .29 0 .63.08 1s.09.78.15 1.19.12.82.19 1.23.17.81.26 1.17.2.79.32 1.16a6.76 6.76 0 0 0 .43 1 5 5 0 0 0 .59.92 4.73 4.73 0 0 0 .81.8 2.1 2.1 0 0 0 -.93.75 10.14 10.14 0 0 1 -.7-.91 6.71 6.71 0 0 1 -.51-1 9.25 9.25 0 0 1 -.41-1.13c-.13-.41-.24-.9-.36-1.46l-.21-1.21q-.11-.63-.18-1.23c0-.41-.08-.8-.11-1.19s.04-.65.03-.98z"/><path d="m79.61 324.79c.14-.26.27-.49.37-.69s.19-.38.26-.54a2.41 2.41 0 0 0 .18-.42 1.75 1.75 0 0 0 .11-.35l.5.24a4.6 4.6 0 0 0 .51.14c.11 0 .17.07.17.13s-.07.11-.22.16l-.14.07a1.23 1.23 0 0 0 -.2.2 4.4 4.4 0 0 0 -.31.4c-.12.16-.27.38-.44.66h3.76.74.64.47c0 .17 0 .33-.05.5s0 .33 0 .51v7.2.51s0 .3 0 .42 0 .23 0 .3h-.88v-1.23h-7.21v1.28h-.87c0-.2 0-.46 0-.81s0-.75 0-1.24v-6.51c0-.18 0-.36 0-.53s0-.34 0-.48l1 .06c.43.01 1 .02 1.61.02zm5.52 3.73v-3.07h-7.26v3.07zm-7.26.67v3.13h7.26v-3.13z"/><path d="m90.23 326.83a6.38 6.38 0 0 1 -.45.46l-.55.53a1.63 1.63 0 0 0 -.34-.35 2 2 0 0 0 -.44-.2 11 11 0 0 0 2.21-1.95 12.14 12.14 0 0 0 1.74-2.68 1.57 1.57 0 0 0 .35.27 2 2 0 0 0 .39.17c.14.06.22.11.22.18s-.08.14-.23.2a1 1 0 0 0 -.36.26c-.12.14-.28.36-.49.66h3.21.6.66.61l.44-.05-2.36 2.63h2c.54 0 .9 0 1.1-.07v.91s0 .62 0 1 0 .72 0 1.07 0 .63 0 .85h-.3-.48-.71-6v1.91a1.48 1.48 0 0 0 .05.39.56.56 0 0 0 .2.26 1 1 0 0 0 .39.16 4.25 4.25 0 0 0 .64.08c.41 0 .85.05 1.3.06h1.37 1.28l1.09-.05a5.49 5.49 0 0 0 .9-.13 1.26 1.26 0 0 0 .57-.26 1.17 1.17 0 0 0 .31-.52 5.26 5.26 0 0 0 .17-.85 1.2 1.2 0 0 0 .37.32 1.36 1.36 0 0 0 .46.13 6.63 6.63 0 0 1 -.33 1 1.53 1.53 0 0 1 -.4.58 1.21 1.21 0 0 1 -.59.28 6 6 0 0 1 -.83-.08h-.63-.95-3.32-.72a10.38 10.38 0 0 1 -1.12-.12 1.44 1.44 0 0 1 -.62-.23.66.66 0 0 1 -.27-.4 2.71 2.71 0 0 1 -.06-.62v-4.23c0-.4-.03-.93-.08-1.57zm1.6-1.81-.32.43-.34.4a5.31 5.31 0 0 1 -.4.44l-.5.51h.46.74 3l1.69-1.8zm-.73 2.49v2.43h3v-2.43zm6.63 2.43v-2.43h-2.8v2.43z"/><path d="m110.83 323.7-3.4 8.8h-.65l-3.44-8.8h.89l2.86 7.61 2.85-7.61z"/><path d="m119.56 331.57h-1.27-1l-.83.05h-.7v-.86h.7l.83.05h1 1.27c0-.37 0-.66 0-.86s0-.38 0-.53l.52.06h.45c.14 0 .22 0 .22.08s0 .13-.17.22a.52.52 0 0 0 -.12.19.75.75 0 0 0 -.05.26v.77h1.32 1.06.86l.72-.07v.86c-.45 0-1-.08-1.66-.1s-1.42 0-2.3 0v1.69h1.59 1.35 1.15l1-.07v.69l-1.09-.07h-1.23-1.46-1.79-1.78-1.46-1.23l-1.09.07v-.94l1 .07h1.17 1.36 1.65zm-2.87-7.26-.81.05h-.66v-.73c.35 0 .76.06 1.23.08s1 0 1.67 0 1.22 0 1.68 0 .88 0 1.23-.08v.73a12.58 12.58 0 0 0 -1.33-.07v2h.55.42.36.38v.71h-.38-.36-.42-.55v.79.61.53q0 .25.06.54h-.93c0-.19 0-.37.05-.54s0-.36 0-.54 0-.39 0-.61v-.78h-1.58a5.28 5.28 0 0 1 -.19 1 4.07 4.07 0 0 1 -.33.8 4.27 4.27 0 0 1 -.49.71 8.38 8.38 0 0 1 -.66.7 2.44 2.44 0 0 0 -.82-.54 8 8 0 0 0 .68-.49 3.39 3.39 0 0 0 .51-.56 2.9 2.9 0 0 0 .37-.7 5.93 5.93 0 0 0 .22-.9h-1c-.29 0-.57 0-.82.06v-.77h.4.4.47.63c0-.28 0-.59 0-.93s.04-.66.02-1.07zm2.3 0h-1.61v1.12s0 .65 0 .94h1.62zm3.75-.09a.4.4 0 0 0 -.14.35v2.05.87s0 .66.06 1h-.84c0-.16 0-.3 0-.43v-.41c0-.14 0-.29 0-.45s0-.34 0-.54v-1.36c0-.33 0-.6 0-.83a4.44 4.44 0 0 0 -.08-.59l.45.09a2.64 2.64 0 0 0 .4 0q.16 0 .18.06t-.03.19zm2.19-.82a.37.37 0 0 0 -.17.35v4.89a2.73 2.73 0 0 1 -.05.61.83.83 0 0 1 -.25.41 1.54 1.54 0 0 1 -.56.24 5.61 5.61 0 0 1 -1 .1 1.08 1.08 0 0 0 0-.45 1 1 0 0 0 -.27-.44 4.31 4.31 0 0 0 .75.1 1.05 1.05 0 0 0 .43 0 .41.41 0 0 0 .21-.22 1.3 1.3 0 0 0 0-.38v-3.43c0-.45 0-.87 0-1.25s0-.67-.07-.85a2.29 2.29 0 0 0 .44.09 1.62 1.62 0 0 0 .44 0c.12 0 .19 0 .21.1s-.04.08-.11.13z"/><path d="m692.39 334.39h-1.14-.93-.85-.87v-.83h.92.89 1 1.25a8.6 8.6 0 0 0 .31-.86c.09-.31.19-.66.29-1.07a2.9 2.9 0 0 0 .41.16 2.39 2.39 0 0 0 .45.09c.14 0 .21.07.22.16s0 .17-.17.25l-.08.08-.12.2c-.05.09-.12.21-.2.37s-.18.36-.3.62h3.75.79.73.78v.83l-1.24-.06h-1.29-3.82l-.39.82a8.39 8.39 0 0 1 -.48.84h4.58.83.55v.26.38.41.38 5a2.38 2.38 0 0 1 -.06.59.69.69 0 0 1 -.25.38 1.35 1.35 0 0 1 -.59.21c-.25 0-.6.07-1 .1a1.61 1.61 0 0 0 -.05-.47 1.84 1.84 0 0 0 -.28-.48 7.66 7.66 0 0 0 .77.09 1.28 1.28 0 0 0 .45-.06.37.37 0 0 0 .22-.22 1.47 1.47 0 0 0 .05-.41v-1.33h-5.52v3h-.87c0-.35.05-.68.06-1s0-.59 0-.85v-4.47a13 13 0 0 1 -1 1.07c-.38.35-.83.71-1.33 1.1a.89.89 0 0 0 -.19-.39 1.21 1.21 0 0 0 -.49-.3c.5-.33 1-.65 1.36-1a9.18 9.18 0 0 0 1.12-1 10 10 0 0 0 .94-1.19 12.75 12.75 0 0 0 .79-1.4zm5 3.78v-1.49h-5.39v1.49zm-5.34.61v1.42h5.34v-1.42z"/><path d="m711.28 335.64h-.29-7.67v2.6a14.44 14.44 0 0 1 -.23 2 10.79 10.79 0 0 1 -.45 1.68 13.91 13.91 0 0 1 -.69 1.55 1.89 1.89 0 0 0 -.43-.26 2 2 0 0 0 -.51-.11 6.44 6.44 0 0 0 .67-1.05 7.81 7.81 0 0 0 .47-1.21 8.53 8.53 0 0 0 .29-1.44 16.94 16.94 0 0 0 .14-1.7c0-.31 0-.66 0-1s0-.79 0-1.22 0-.86 0-1.31 0-.89-.06-1.32h.46.79 6.31.77.45v.58 1.57c-.04.22-.04.43-.02.64zm-.83-2.2h-7.13v1.56h7.13zm-3.67 3.86-1.1.13-1.25.13a1.6 1.6 0 0 0 -.11-.39 1.49 1.49 0 0 0 -.24-.38c.91 0 1.67-.05 2.29-.09s1.13-.11 1.56-.19a7.45 7.45 0 0 0 1.11-.28c.31-.11.62-.24.92-.38q.1.21.18.33a2.34 2.34 0 0 0 .25.29c.18.19.17.27 0 .25h-.22-.26l-.34.07-.48.11-.7.15c-.26.05-.53.1-.83.14v1.17c.83-.07 1.54-.14 2.1-.21s1-.13 1.23-.18v.83l-.34-.05h-.55l-.92.05-1.53.12v1.18q1.54-.06 2.58-.15a10.89 10.89 0 0 0 1.41-.19v.85a11.41 11.41 0 0 0 -1.32 0c-.63 0-1.52.05-2.65.11v1.36a.9.9 0 0 0 .06.34.54.54 0 0 0 .26.23 1.59 1.59 0 0 0 .56.15 8.28 8.28 0 0 0 1 0 8.43 8.43 0 0 0 1-.05 1.51 1.51 0 0 0 .6-.2 1 1 0 0 0 .34-.4 2.58 2.58 0 0 0 .19-.64 1.14 1.14 0 0 0 .39.33 1 1 0 0 0 .46.08 3.68 3.68 0 0 1 -.36.79 1.28 1.28 0 0 1 -.5.48 2 2 0 0 1 -.76.24 7.35 7.35 0 0 1 -1.15.07 11.54 11.54 0 0 1 -1.46-.07 2.49 2.49 0 0 1 -.84-.24.74.74 0 0 1 -.38-.42 1.85 1.85 0 0 1 -.09-.62v-1.44l-1.81.1c-.59 0-1.07.07-1.46.11l-.13-.77h1.46s1.25 0 1.94-.05v-1.1l-1.31.1c-.43 0-.75.05-1 .08l-.08-.68a2.25 2.25 0 0 0 .38 0h.48.65l.87-.06z"/><path d="m715.16 338.08v3.19a2.25 2.25 0 0 0 0 .49.54.54 0 0 0 .15.31.73.73 0 0 0 .34.18 4.53 4.53 0 0 0 .61.1h1.07 1.43 1.62 1.68a3.72 3.72 0 0 0 .66-.08.87.87 0 0 0 .44-.27 1.15 1.15 0 0 0 .27-.53 5.78 5.78 0 0 0 .12-.91 1.41 1.41 0 0 0 .46.34 2.53 2.53 0 0 0 .55.18 8.31 8.31 0 0 1 -.32 1 1.45 1.45 0 0 1 -.43.6 1.56 1.56 0 0 1 -.7.31 6.22 6.22 0 0 1 -1.13.11h-1.38-1.6-1.59l-1.29-.05a4.71 4.71 0 0 1 -.95-.13 1.16 1.16 0 0 1 -.53-.28.81.81 0 0 1 -.23-.44 4 4 0 0 1 -.05-.66v-7.21c0-.17 0-.33 0-.49s0-.32 0-.46 0-.27 0-.36l.42.05h.73 1.26 4 1.28.79a4 4 0 0 0 .47-.05q0 .13 0 .36v.47s0 .32 0 .48v3.32.48s0 .32 0 .47 0 .26 0 .35h-.86v-.91zm3.21-4.24h-3.21v3.57h3.21zm.78 3.57h3.2v-3.57h-3.2z"/></g><path d="m157.57 106.75h84.41" fill="none" stroke="#231815" stroke-miterlimit="10"/><path d="m245 106.75a2.49 2.49 0 1 1 -2.49-2.48 2.5 2.5 0 0 1 2.49 2.48" fill="#383736"/><path d="m144.93 350.09h92.59" fill="none" stroke="#231815" stroke-miterlimit="10"/><path d="m240 350.09a2.49 2.49 0 1 1 -2.49-2.48 2.49 2.49 0 0 1 2.49 2.48" fill="#383736"/><path d="m126.15 206.91h47.31" fill="none" stroke="#231815" stroke-miterlimit="10"/><path d="m176 206.91a2.49 2.49 0 1 1 -2.49-2.49 2.49 2.49 0 0 1 2.49 2.49" fill="#383736"/><path d="m170.14 329.4 67.38.02" fill="none" stroke="#231815" stroke-miterlimit="10"/><path d="m240 329.42a2.49 2.49 0 1 1 -2.49-2.48 2.49 2.49 0 0 1 2.49 2.48" fill="#383736"/><path d="m680.47 340.06-67.38-.02" fill="none" stroke="#231815" stroke-miterlimit="10"/><path d="m610.61 340a2.48 2.48 0 1 1 2.48 2.49 2.48 2.48 0 0 1 -2.48-2.49" fill="#383736"/><path d="m122.98 226.95h47.31" fill="none" stroke="#231815" stroke-miterlimit="10"/><path d="m171.31 227a2.49 2.49 0 1 1 -2.48-2.49 2.48 2.48 0 0 1 2.48 2.49" fill="#383736"/></svg>