<svg viewBox="0 0 793.64 493.47" xmlns="http://www.w3.org/2000/svg"><path d="m0 0h793.64v493.47h-793.64z" fill="#fff"/><g fill="#231815"><path d="m421.91 202.24v.93a4.1 4.1 0 0 1 -.13 1.05c-8 0-14.33-.13-19.08-.45a2.46 2.46 0 0 1 -.12-1.05 3.25 3.25 0 0 1 .19-1.05q9.65 0 19.14.57zm-8.22 3.66c.06 2.3.1 4.56.1 6.79 1.59 0 3.21-.07 4.87-.07a7.37 7.37 0 0 1 .06.9v.95c-1.65.16-3.31.26-4.9.32v.44c0 2-.07 3.86-.13 5.64l6.62.19a11 11 0 0 1 -.19 2c-5.54 0-11-.16-16.36-.45v-1.05a4.2 4.2 0 0 1 .06-.86c2.36 0 4.9 0 7.64.1a50.73 50.73 0 0 1 -.25-5.38v-.55c-1.6.07-3.19.1-4.75.1a10.11 10.11 0 0 1 -.16-2c1.59-.09 3.22-.16 4.94-.22 0-2.26.13-4.55.28-6.85a2.6 2.6 0 0 1 1.06-.25 2.68 2.68 0 0 1 1.11.25zm9.94 13.19a4.66 4.66 0 0 1 -1.79 1.11 20.78 20.78 0 0 1 -2.51-3.6 5.12 5.12 0 0 1 1.78-1.08 33.48 33.48 0 0 1 2.52 3.57z"/><path d="m435.25 209.66c0 2.55-.13 5.38-.35 8.5a62.48 62.48 0 0 0 9.71.51 58.54 58.54 0 0 0 8.82-.41 9.21 9.21 0 0 1 .22 1.82c-1.37.5-4.3.76-8.79.76-6.11 0-10.19-.22-12.26-.73 0-3.35.13-6.85.45-10.51a8.59 8.59 0 0 1 1.15-.07c.7.1 1.05.13 1.05.13zm10.44-7.61q.48 6.93.48 15.19a3.41 3.41 0 0 1 -1.15.13 5.12 5.12 0 0 1 -1.14-.06c-.29-5.45-.42-10.51-.42-15.2a3.58 3.58 0 0 1 1.15-.22 3.19 3.19 0 0 1 1.08.16zm11.31 15.32a4.12 4.12 0 0 1 -1.92.32 24.52 24.52 0 0 1 -1-7.3 16 16 0 0 1 2-.16 46.35 46.35 0 0 1 .92 7.14z"/><path d="m477.12 200c-2.13 2.58-4.74 5.7-7.86 9.36 1.78.32 6 .64 12.67 1-.06.61-.13 1.24-.25 1.94-6.44-.12-10.48-.28-12.11-.54-2.29-.19-3.66-.51-4.14-.92a39.91 39.91 0 0 1 3.16-4.52c1.62-2 3.82-4.59 6.62-7.77.57.35 1.21.83 1.91 1.45zm7.48 15.67a27.23 27.23 0 0 1 .26 4.74 33 33 0 0 1 -.16 3.73 68.46 68.46 0 0 1 -7 .25 34.71 34.71 0 0 1 -5.95-.51 10 10 0 0 1 -.41-3.5c0-.89-.07-2.55-.13-4.94a2.93 2.93 0 0 1 1-.16 3.92 3.92 0 0 1 1 .16c0 .9.13 3.09.42 6.6 3 .19 5.95.28 8.92.28a13.45 13.45 0 0 0 .12-1.91c0-.76 0-1.65-.06-2.67-3.73-.19-6.05-.38-7-.51a2.36 2.36 0 0 1 -.19-1.12 4.57 4.57 0 0 1 .07-1c3.1.03 6.12.19 9.11.51zm3.16-5.8a4.41 4.41 0 0 1 -1.82 1.12 26.18 26.18 0 0 1 -3.09-4.59 5.66 5.66 0 0 1 1.79-1.08 47.4 47.4 0 0 1 3.12 4.5z"/><path d="m497.37 211.7a4.86 4.86 0 0 1 .13 1.05 9.14 9.14 0 0 1 -.06 1 1.14 1.14 0 0 1 -.61.12 15.18 15.18 0 0 1 -2.36-.12 2.28 2.28 0 0 1 -.19-1 3.87 3.87 0 0 1 .13-1.05 18.42 18.42 0 0 1 2.55-.13.9.9 0 0 1 .41.13zm1.18-6.24a6.41 6.41 0 0 1 -.7 1.75 6 6 0 0 1 -3.38-1.4 7.08 7.08 0 0 1 .64-1.79 9.57 9.57 0 0 1 3.44 1.44zm.61 13.72a7.22 7.22 0 0 1 -3.28 2.11 5.09 5.09 0 0 1 -.93-1.72 15.19 15.19 0 0 1 3.28-2.14 6.19 6.19 0 0 1 .93 1.75zm5.51-15.73-2.58 2.77a9.5 9.5 0 0 0 2.7.26 2.84 2.84 0 0 1 -.63-.93 6.36 6.36 0 0 1 1.3-.28 9 9 0 0 1 1.18 2.39c0 .22-.92.31-2.74.31-2.39-.12-3.92-.47-4.55-1.05.44-.63.92-1.24 1.43-1.88a11.1 11.1 0 0 1 -2.45-2.16c1.37-1.4 2.83-2.87 4.42-4.33a5.08 5.08 0 0 1 1.28 1.34c-1 1-2 2-3 3a10.22 10.22 0 0 0 1 .7l1.18-1.18a9.62 9.62 0 0 1 1.46 1.04zm-3.89 5.42a23.67 23.67 0 0 1 -.29 3.44 2.67 2.67 0 0 1 -.79.09c-.35 0-.61 0-.73-.16a15.82 15.82 0 0 1 .28-3.44 5.7 5.7 0 0 1 .8-.06 2.48 2.48 0 0 1 .73.13zm3.09 2.83a3.06 3.06 0 0 1 -1.24.41 6.28 6.28 0 0 1 -.83-3.05 4.8 4.8 0 0 1 1.21-.32 8.68 8.68 0 0 1 .86 2.96zm9 6.15a6.51 6.51 0 0 1 -.38 1.52 29.92 29.92 0 0 1 -6.56-1c-.06.57-.16 1.15-.26 1.72 3.12.19 6.28.44 9.46.8a13.8 13.8 0 0 1 -1.08 5.09 9.63 9.63 0 0 1 -1.72.13 6.08 6.08 0 0 1 -1.59-.32v-1.08h1.65c.07-.83.16-1.53.26-2.14a79.05 79.05 0 0 1 -9.3-.89 15.64 15.64 0 0 1 .44-3.79c-.31-.06-.57-.16-.82-.22a6 6 0 0 1 .35-1.6c3.19.47 6.38 1.04 9.56 1.78zm4.46-3.7a9 9 0 0 1 -.54 2.39 14.82 14.82 0 0 1 -1.12 2.74 9.63 9.63 0 0 1 -2-.38c.32-1.09.67-2.07 1-3-3-.26-6.75-.71-11.24-1.31a6.29 6.29 0 0 1 0-.8 3.22 3.22 0 0 1 .12-.89c4.45.23 9.08.62 13.79 1.25zm-10.57-2.86a3.83 3.83 0 0 1 -1.18.35 5.54 5.54 0 0 1 -.83-2.74 4.7 4.7 0 0 1 1.15-.29 7.38 7.38 0 0 1 .87 2.68zm2.32-11a15.82 15.82 0 0 1 .16-1.66c.32 0 .64-.06 1-.06a2.2 2.2 0 0 1 .92.19c0 .57 0 1.14-.06 1.75.83.09 1.62.19 2.39.29a6.6 6.6 0 0 1 -.26 1.62 42.2 42.2 0 0 1 -7.35-.67 7.39 7.39 0 0 1 .16-1.72c1.05.05 2.06.14 3.05.21zm3.19 5.28a5.66 5.66 0 0 0 -.13.73 2.87 2.87 0 0 1 -.16.8c-.89 0-1.75 0-2.64 0s-1.75 0-2.62-.1a7.57 7.57 0 0 1 .16-1.56c1.89-.01 3.68.02 5.4.08zm-.45-2.45a2.63 2.63 0 0 1 .1.7v.7a17.67 17.67 0 0 1 -3.05.16 9.37 9.37 0 0 1 -1.66-.1 1.59 1.59 0 0 1 -.13-.7 2.69 2.69 0 0 1 .1-.7 10.18 10.18 0 0 1 1.78-.09c1.18-.09 2.17-.02 2.87-.02zm.92 8.85a20.42 20.42 0 0 1 -4.77.54 11.21 11.21 0 0 1 -.7-4.07 26.06 26.06 0 0 1 5.15-.51 27.17 27.17 0 0 1 .33 3.99zm-1.59-1.11-.28-1.56-1.82.22.32 1.63zm8.82-7.58c-.86.89-1.78 1.81-2.74 2.77a10.32 10.32 0 0 0 2.77.22 3.83 3.83 0 0 1 -.57-1 7.15 7.15 0 0 1 1.37-.28 8.82 8.82 0 0 1 1.15 2.51c0 .19-.93.29-2.74.29-2.55-.13-4.14-.45-4.81-1 .38-.51.76-1 1.18-1.5a11.69 11.69 0 0 1 -2.29-2.26c1.24-1.37 2.57-2.77 4-4.2a4.89 4.89 0 0 1 1.27 1.34l-2.56 2.83c.32.26.61.51.93.74.5-.51 1.05-1 1.59-1.5a11 11 0 0 1 1.48.99zm-4.23 5.51a19.77 19.77 0 0 1 -.32 3.15 3 3 0 0 1 -.86.1 1.28 1.28 0 0 1 -.8-.19 13.36 13.36 0 0 1 .29-3.19h.89a2.28 2.28 0 0 1 .81.08zm3.6 3a3.68 3.68 0 0 1 -1.34.48 6.39 6.39 0 0 1 -.86-3.09 5 5 0 0 1 1.3-.35 6.9 6.9 0 0 1 .91 2.93zm2.77-.63a2.67 2.67 0 0 1 -1.31.41 5.77 5.77 0 0 1 -.8-2.71 4.55 4.55 0 0 1 1.28-.35 7.06 7.06 0 0 1 .84 2.62z"/><path d="m548.39 217.81v.86q-8.55.77-16.91.77a8.73 8.73 0 0 1 -.19-1.85c2.35-.19 4.8-.32 7.29-.44 0-.64-.07-1.25-.07-1.88-2 .09-4 .12-5.92.12a7.76 7.76 0 0 1 -.16-1.75c1.94-.19 4-.32 6-.41 0-.7-.07-1.37-.07-2.07h-3.12a28.18 28.18 0 0 1 -5.19-.38 73.87 73.87 0 0 1 -.44-9h2.1c.13 2.73.22 5.09.22 7.07 1.37.12 3.19.19 5.48.19h.89q-.09-3.06-.09-6.12c-1.09 0-2.14-.09-3.19-.19 0-.64 0-1.27 0-1.88 4.52.13 9.17.35 13.89.7a19.29 19.29 0 0 1 .44 5c0 1.47-.06 2.77-.16 4-.31.35-3.21.54-8.66.61v2c2.11-.06 4.27-.12 6.5-.12a6.56 6.56 0 0 1 .06.82v.83c-2.22.26-4.39.42-6.52.51v1.91c2.51-.06 5.09-.13 7.7-.13a7.3 7.3 0 0 1 .12.83zm-15 3.13a8.89 8.89 0 0 1 -1.5 3.88 4.48 4.48 0 0 1 -1.81-.54 11.48 11.48 0 0 1 1.43-4c.63.21 1.27.4 1.91.66zm3.22-13.38a4.4 4.4 0 0 1 -1.69.57 5 5 0 0 1 -1.56-3.21 8.87 8.87 0 0 1 1.65-.48 5.9 5.9 0 0 1 1.63 3.12zm2.41 13.73a24 24 0 0 1 -.31 3.44 4.86 4.86 0 0 1 -1 .09 1.83 1.83 0 0 1 -1-.22 11.6 11.6 0 0 1 .35-3.44c.32 0 .67-.07 1.05-.07a2.49 2.49 0 0 1 .94.2zm1.47-12.23c2.83 0 5 0 6.43-.1 0-1.72-.09-3.56-.22-5.54-2.13-.06-4.24-.19-6.34-.35.1 2.01.13 4.01.16 5.99zm4.3 15a5.1 5.1 0 0 1 -1.78.61 5.41 5.41 0 0 1 -1.31-3.19 7.89 7.89 0 0 1 1.75-.5 6.16 6.16 0 0 1 1.37 3.02zm.67-18.88a11.67 11.67 0 0 1 -2 2.8 6.34 6.34 0 0 1 -1.69-.73 12.25 12.25 0 0 1 2-2.77 4.92 4.92 0 0 1 1.72.66zm4.27 18.41a4.63 4.63 0 0 1 -1.66.57 4.82 4.82 0 0 1 -1.12-2.9 6.5 6.5 0 0 1 1.63-.44 5.75 5.75 0 0 1 1.18 2.73z"/><path d="m565.71 200.49c-1 1.53-1.91 3.15-2.8 4.87 1.94-.06 3.91-.12 6-.12a9.15 9.15 0 0 1 -.51-2c.57-.06 1.18-.16 1.82-.25a19.51 19.51 0 0 1 .92 4c-.89.38-3 .54-6.34.54a18.93 18.93 0 0 1 -5-.54c1.09-2.36 2.36-4.78 3.76-7.2a17.31 17.31 0 0 1 2.15.7zm-2.61 8.63c0 .45-.07 1.21-.16 2.29 1.21.1 2.35.23 3.47.35a6.63 6.63 0 0 0 -.13.86 5.84 5.84 0 0 1 -.19.86 12.12 12.12 0 0 1 -2.2-.16c-.41 0-.79-.06-1.14-.12 0 .28-.07.57-.1.82a2 2 0 0 0 0 .39c1.14.06 2.23.16 3.28.22a8.51 8.51 0 0 0 -.13.86 6.16 6.16 0 0 1 -.19.86 21.26 21.26 0 0 1 -2.13-.1 6.33 6.33 0 0 1 -1.09-.09c-.12 1-.28 1.85-.44 2.7a8.26 8.26 0 0 1 -1.82-.19 63.3 63.3 0 0 1 1.09-9.77 9.65 9.65 0 0 1 1.88.22zm2.38 11a8.76 8.76 0 0 1 -1.62 4.05 4.65 4.65 0 0 1 -1.94-.58 11.82 11.82 0 0 1 1.56-4.14 14.23 14.23 0 0 1 2 .72zm5.51-11q0 6.21-.35 10.13c-2.32 0-3.69-.13-4.07-.45a9.5 9.5 0 0 1 .06-1.3c.83 0 1.56 0 2.2.06 0-2.35.06-4.61.13-6.78a28.07 28.07 0 0 1 -4.21-.48 3.09 3.09 0 0 1 -.06-.79 2.75 2.75 0 0 1 .09-.8 55.25 55.25 0 0 1 6.22.47zm-.44 11.6c0 .95-.07 2-.19 3.24a4.32 4.32 0 0 1 -1.09.13 2 2 0 0 1 -1-.22 21.83 21.83 0 0 1 .19-3.28c.32 0 .7-.07 1.12-.07a3 3 0 0 1 .97.26zm5.22-20.7c-.06.79-.09 1.59-.13 2.35h1.28 5.79a4.55 4.55 0 0 1 .1 1v.86a46 46 0 0 1 -6 .25c-.51 0-.92 0-1.24 0 0 .83-.07 1.62-.07 2.39h7.11v.86a5.33 5.33 0 0 1 -.07 1 40.51 40.51 0 0 1 -5.76.22 16.15 16.15 0 0 1 -3.5-.26 84 84 0 0 1 .44-8.66 8.31 8.31 0 0 1 1-.06 5.38 5.38 0 0 1 1.05.11zm.29 9.93c-.07.77-.1 1.5-.1 2.23h1.28c2 0 3.53 0 4.68-.06a5 5 0 0 1 .12.95 7.64 7.64 0 0 1 -.06.89 30.18 30.18 0 0 1 -4.87.26c-.48 0-.89 0-1.21 0 0 .76-.07 1.52-.07 2.29l5.23.09v.93a6.21 6.21 0 0 1 -.07 1.05 16.27 16.27 0 0 1 -3.6.22 16.5 16.5 0 0 1 -3.82-.32c0-2.67.13-5.51.42-8.53a8 8 0 0 1 1-.06 6.27 6.27 0 0 1 1.07.11zm.41 13.28a4.78 4.78 0 0 1 -1.75.57 5.6 5.6 0 0 1 -1-3 10.15 10.15 0 0 1 1.76-.47 6.86 6.86 0 0 1 .99 2.96zm5.29-.16a5 5 0 0 1 -1.66.54 5.35 5.35 0 0 1 -1-2.83 9.74 9.74 0 0 1 1.66-.48 6.21 6.21 0 0 1 1 2.83z"/><path d="m626.61 209.34v1c.6-.07 1.22-.11 1.86-.15a8.7 8.7 0 0 1 0 .89 12.58 12.58 0 0 1 -1.89.16v.64l2.1-.09a8.1 8.1 0 0 1 .06.87 48.43 48.43 0 0 1 -5.76.35 4 4 0 0 1 -.08-.86l.88-.08a14 14 0 0 1 -.2-1.57 5.39 5.39 0 0 1 1.09-.1c.06.54.12 1.08.19 1.59h.7c0-.86-.08-1.7-.08-2.54a1.21 1.21 0 0 1 .51-.13 1.89 1.89 0 0 1 .62.02zm-1.61 4.82a7.81 7.81 0 0 1 -1.07 1.54 1.13 1.13 0 0 1 -.78-.46 7.26 7.26 0 0 1 .94-1.59 1.84 1.84 0 0 1 .91.51zm1.24-7.11c0-.34-.06-.67-.08-1a9.65 9.65 0 0 1 1.11-.08c0 .39.1.75.15 1.12l3.4.11c.07-.38.15-.76.24-1.15a8 8 0 0 1 1 .15c0 .35-.08.7-.13 1.06.76 0 1.53.08 2.29.13v.45a1.84 1.84 0 0 1 -.06.49h-2.39c-.06.33-.11.67-.17 1a2.57 2.57 0 0 1 -1-.2 7.61 7.61 0 0 1 .09-.82c-1.13 0-2.18 0-3.13-.08 0 .29 0 .55.08.78a5.33 5.33 0 0 1 -1.05.1 8.08 8.08 0 0 1 -.16-.92c-1-.05-2-.12-2.85-.18a1.44 1.44 0 0 1 0-.49 1.46 1.46 0 0 1 .08-.48zm2.69 8.65a41.77 41.77 0 0 1 -4.36 3.09 1.34 1.34 0 0 1 -.61-.73 34 34 0 0 1 4.38-3 1.81 1.81 0 0 1 .56.64zm-1.8-.19a1.85 1.85 0 0 1 -1 .32 1.61 1.61 0 0 1 -.82-.14.67.67 0 0 1 0-.29 1.62 1.62 0 0 1 0-.33 1.68 1.68 0 0 1 .76-.21c0-.52-.11-1.05-.19-1.58l.88-.11a9.87 9.87 0 0 1 .34 2.34zm7.87-5.51a3.35 3.35 0 0 1 -.09.79c-.69 0-1.36 0-2 0-.15.32-.27.59-.37.78l2.34.19c.08.94.13 1.67.13 2.18a16 16 0 0 1 -.23 3.28 18.39 18.39 0 0 1 -2.78.16 8 8 0 0 1 -.92 1.4 3.34 3.34 0 0 1 -1-.43 4.91 4.91 0 0 1 .6-1c-.4 0-.76-.06-1.08-.1a23.41 23.41 0 0 1 -.16-3 15 15 0 0 0 -.08-1.6 1.84 1.84 0 0 1 .56-.1h.44c0 .23 0 .42.08.59.56 0 1.08.07 1.59.13a2.5 2.5 0 0 0 -.06.38 2.14 2.14 0 0 1 -.06.41c-.34 0-.67 0-1 0a2.58 2.58 0 0 1 -.4 0c0 .26 0 .51.06.74h.5.76a1.79 1.79 0 0 1 .05.42v.38a2.86 2.86 0 0 1 -.83.08h-.4v.75a5 5 0 0 0 1 .06 11.85 11.85 0 0 0 2.2-.11c0-.43.06-1.66.06-3.68l-3.12-.25a2.62 2.62 0 0 1 0-.43 1.84 1.84 0 0 1 .06-.48 5.44 5.44 0 0 0 .57 0 5.82 5.82 0 0 1 .35-.75c-.68 0-1.36-.07-2-.14a3.58 3.58 0 0 1 .08-.86c1.63-.01 3.36.09 5.15.21zm-.09 8.11a7.85 7.85 0 0 1 -.46.85 9.13 9.13 0 0 1 -1.13-.51 2.09 2.09 0 0 1 .47-.81 7.81 7.81 0 0 1 1.08.51z"/><path d="m645.49 211.84h2.91q0-2 0-4a52.46 52.46 0 0 1 -5.62-.33v-.5a1.41 1.41 0 0 1 .07-.49c2.13.05 4.34.14 6.66.3.08.93.13 1.95.13 3.08a26.71 26.71 0 0 1 -.09 2.83c-.63.06-1.91.09-3.87.09h-.06c0 .38 0 .75.07 1.1 1.68 0 2.92.05 3.74.08a3 3 0 0 1 0 .45v.55a29.28 29.28 0 0 1 -3.7.14c0 1 .08 2 .12 3a6.05 6.05 0 0 1 -1.88.22 1.67 1.67 0 0 1 -.13-.68l.83-.16c0-.78-.1-1.56-.13-2.34h-1.74a19.72 19.72 0 0 1 -2.87-.13 1.77 1.77 0 0 1 -.06-.49 2.28 2.28 0 0 1 0-.48h2.93 1.64c0-.38-.06-.75-.08-1.11a29.86 29.86 0 0 1 -4.28-.35 25.49 25.49 0 0 1 -.06-2.55 27.48 27.48 0 0 1 .28-3.15 6.39 6.39 0 0 1 1.09.1l-.12 2.33h2.82c0-.2 0-.41 0-.63a4.41 4.41 0 0 1 1-.1q0 .39.09.75l1.8.05a2.54 2.54 0 0 1 0 .41v.43a7.47 7.47 0 0 1 -1.7.1c.11.46.16.97.21 1.48zm-3.44 4.45a9.21 9.21 0 0 1 -1 1.88 2.59 2.59 0 0 1 -1-.46 14.84 14.84 0 0 1 1-1.77 6.27 6.27 0 0 1 1 .35zm-.87-4.61c1.08.06 2.13.09 3.13.13 0-.51-.08-1-.11-1.52h-1c-.79 0-1.43 0-1.92 0-.06.43-.07.91-.1 1.39zm8.86 5.79a3.82 3.82 0 0 1 -.87.56 7.15 7.15 0 0 1 -1.07-1.42 6 6 0 0 1 .9-.61 10.05 10.05 0 0 1 1 1.47z"/><path d="m656.38 210.42c.29-.59.56-1.13.83-1.64a2.57 2.57 0 0 1 .84.43c-.19.46-.36.91-.55 1.35.76.1 1.52.21 2.29.34a4.52 4.52 0 0 1 -.11.83 17.51 17.51 0 0 1 -2.6-.2c-.32.77-.63 1.5-1 2.22l1 .55c.41-.66.83-1.32 1.24-1.92a2.13 2.13 0 0 1 .89.3c-.38.73-.78 1.45-1.19 2.13.35.21.68.42 1 .61a2.25 2.25 0 0 1 -.4.84 11.44 11.44 0 0 1 -1.16-.54 1.21 1.21 0 0 0 -.1.16c-.13.19-.24.38-.35.54a4.09 4.09 0 0 1 -.49.67 2.24 2.24 0 0 1 -.85-.48c.27-.48.54-.94.83-1.38a18.78 18.78 0 0 1 -1.83-1.13c.38-1 .78-1.88 1.16-2.74a9.78 9.78 0 0 1 -1-.22 3.76 3.76 0 0 1 .08-.86zm10.12.56a1.08 1.08 0 0 1 0 .41 1 1 0 0 1 0 .43 12 12 0 0 1 -2.11.08c-2.53 0-3.9 0-4.12-.08a1.46 1.46 0 0 1 0-.46.87.87 0 0 1 .08-.43c.84 0 1.75-.05 2.7-.06-.06-.48-.09-1-.12-1.47a15.19 15.19 0 0 1 -2.23-.08 1.48 1.48 0 0 1 0-.43.91.91 0 0 1 .08-.41h2.15c0-.57 0-1.15 0-1.72l.6-.05h.54c0 .57.07 1.16.1 1.74h.22a15.94 15.94 0 0 1 2 .11 1 1 0 0 1 .05.39.8.8 0 0 1 -.05.4 10.32 10.32 0 0 1 -2 .08h-.19v1.47h.29a16.88 16.88 0 0 1 2.01.1zm-2.32 1.4c0 .57.06 1.14.1 1.7a17.17 17.17 0 0 1 2 .11 1.53 1.53 0 0 1 .05.43 1.18 1.18 0 0 1 -.05.42 10.74 10.74 0 0 1 -2 .08v1.81c.83-.05 1.7-.1 2.59-.13a1.47 1.47 0 0 1 .07.45 4.31 4.31 0 0 1 0 .49c-2.12.21-4.29.34-6.48.38 0-.3 0-.6 0-.9.88-.07 1.82-.15 2.8-.21-.06-.64-.11-1.27-.13-1.89a19.58 19.58 0 0 1 -2.4-.08 1.81 1.81 0 0 1 -.05-.45 1.09 1.09 0 0 1 .08-.45c.72 0 1.5 0 2.33-.06 0-.56 0-1.11 0-1.67l.61-.06a4.27 4.27 0 0 1 .48.03z"/><path d="m672.3 210.42c.29-.59.56-1.13.83-1.64a2.47 2.47 0 0 1 .84.43c-.19.46-.36.91-.55 1.35.76.1 1.53.21 2.29.34a4.52 4.52 0 0 1 -.11.83 17.51 17.51 0 0 1 -2.6-.2c-.31.77-.63 1.5-1 2.22l1.05.55c.41-.66.83-1.32 1.24-1.92a2.13 2.13 0 0 1 .89.3c-.38.73-.78 1.45-1.19 2.13.35.21.68.42 1 .61a2.25 2.25 0 0 1 -.4.84 12.56 12.56 0 0 1 -1.16-.54 1.21 1.21 0 0 0 -.1.16c-.13.19-.24.38-.35.54a3.57 3.57 0 0 1 -.49.67 2.12 2.12 0 0 1 -.84-.48c.27-.48.54-.94.82-1.38a18.78 18.78 0 0 1 -1.83-1.13c.39-1 .78-1.88 1.16-2.74a9.78 9.78 0 0 1 -1-.22 3.76 3.76 0 0 1 .08-.86zm10.13.56a1.39 1.39 0 0 1 0 .41 1.3 1.3 0 0 1 0 .43 12.25 12.25 0 0 1 -2.12.08c-2.53 0-3.9 0-4.12-.08a1.83 1.83 0 0 1 -.05-.46 1 1 0 0 1 .08-.43c.84 0 1.75-.05 2.71-.06-.07-.48-.1-1-.13-1.47a15.19 15.19 0 0 1 -2.23-.08 1.48 1.48 0 0 1 -.05-.43.91.91 0 0 1 .08-.41h2.15c0-.57 0-1.15 0-1.72l.6-.05h.54c0 .57.07 1.16.1 1.74h.22a15.83 15.83 0 0 1 2.05.11 1 1 0 0 1 0 .39.8.8 0 0 1 0 .4 10.32 10.32 0 0 1 -2.05.08h-.21v1.47h.29a17.05 17.05 0 0 1 2.14.1zm-2.33 1.4c0 .57.07 1.14.1 1.7a17 17 0 0 1 2 .11 1.53 1.53 0 0 1 0 .43 1.18 1.18 0 0 1 0 .42 10.74 10.74 0 0 1 -2 .08v1.81c.83-.05 1.7-.1 2.6-.13a1.89 1.89 0 0 1 .06.45 4.31 4.31 0 0 1 0 .49q-3.18.31-6.48.38c0-.3 0-.6 0-.9.88-.07 1.82-.15 2.8-.21-.06-.64-.11-1.27-.12-1.89a19.68 19.68 0 0 1 -2.41-.08 1.87 1.87 0 0 1 0-.45 1.09 1.09 0 0 1 .07-.45c.72 0 1.5 0 2.33-.06 0-.56 0-1.11 0-1.67l.6-.06a4.27 4.27 0 0 1 .45.03z"/><path d="m686.67 209.9c0 .95 0 2-.1 3.16a1.48 1.48 0 0 1 -.52.07.67.67 0 0 1 -.5-.13c0-1.4 0-2.45.08-3.17h.54a1.27 1.27 0 0 1 .5.07zm1.48 2.84v1.37c.44.07.87.16 1.3.26 0 .16 0 .28-.06.41a2 2 0 0 1 -.1.46 3.1 3.1 0 0 1 -.85-.11 1.54 1.54 0 0 1 -.34-.08v.56s0 .17 0 .25l1.37.19c0 .16 0 .31-.06.43a3.19 3.19 0 0 1 -.1.45 4.63 4.63 0 0 1 -.92-.08 2.81 2.81 0 0 1 -.35-.06c0 .57-.08 1.13-.13 1.67a4.4 4.4 0 0 1 -1-.1c0-1.27.07-3.18.25-5.73a6.47 6.47 0 0 1 .99.11zm-.27-5.9c0 .92.06 1.88.06 2.86a.66.66 0 0 1 -.46.13 1.23 1.23 0 0 1 -.45-.06c-.06-1-.08-1.91-.08-2.87a1.24 1.24 0 0 1 .46-.12 1.56 1.56 0 0 1 .47.06zm2.72 1.67v-1.1a13.1 13.1 0 0 1 -2.1-.27 1.17 1.17 0 0 1 -.07-.46 1.22 1.22 0 0 1 .07-.41c1 0 2.1.11 3.21.25 0 1.47 0 2.75-.09 3.9q.33 0 .66 0v2.5a1.11 1.11 0 0 1 -.45.06 3.47 3.47 0 0 1 -.51 0c0-.33 0-.87 0-1.64-1.36 0-2.73 0-4.09-.16a1.72 1.72 0 0 1 0-.49 2 2 0 0 1 0-.41h1.67c0-.38-.05-.76-.05-1.14a1.2 1.2 0 0 1 -.36-.05 2.54 2.54 0 0 1 .08-.76c.63.05 1.33.12 2.03.18zm.7 4.19c0 2.35-.07 4.29-.19 5.81-.86 0-1.37-.08-1.51-.23s0-.46 0-.68a3.38 3.38 0 0 1 .57 0c0-1.43 0-2.8.07-4.11a5.82 5.82 0 0 1 -1.24-.22 1.2 1.2 0 0 1 0-.4 1.27 1.27 0 0 1 0-.39 14.21 14.21 0 0 1 2.3.22zm-.7-3.39a8.49 8.49 0 0 1 -.88-.05v1.06l.83.05zm7.73 7.33a2.43 2.43 0 0 1 -.4 1h1.53v.86q-2.51.14-6.79.14a3.81 3.81 0 0 1 -.1-.87 7.91 7.91 0 0 1 1.45-.1 4.16 4.16 0 0 1 -.3-1.15l.95-.14a6.14 6.14 0 0 1 .46 1.27h1.77a3.27 3.27 0 0 1 .64-1.24zm-2.83-10.64v.9h.82c0-.32 0-.64 0-1a2.32 2.32 0 0 1 .46 0 2.09 2.09 0 0 1 .45 0v1l1.91.12a15.44 15.44 0 0 1 .12 2.49c0 .73 0 1.29-.06 1.64-.78.09-2.1.12-4 .12a15.61 15.61 0 0 1 -2.54-.19 4.23 4.23 0 0 1 -.2-1.54c0-.45 0-1.26.1-2.44a1.9 1.9 0 0 1 .46-.06 2.12 2.12 0 0 1 .43.06v1.44h.87c0-.27 0-.54 0-.83a2.46 2.46 0 0 1 -.46 0c-.07-.08-.08-.22-.08-.45a2.27 2.27 0 0 1 0-.43h.54c0-.29 0-.59 0-.87a3.27 3.27 0 0 1 .45 0 3 3 0 0 1 .73.04zm3.71 5.9v.83c-1.53.09-3.61.14-6.26.14a4.21 4.21 0 0 1 -.08-.87c.39 0 .91-.07 1.61-.1zm-.58 1.8a5.63 5.63 0 0 1 .1 1.16 2.54 2.54 0 0 1 -.13 1 4.63 4.63 0 0 1 -1.86.24 9.22 9.22 0 0 1 -3.29-.32 7.62 7.62 0 0 1 -.1-1.19 5.4 5.4 0 0 1 .1-1 2.21 2.21 0 0 1 .46-.07 2.16 2.16 0 0 1 .43 0c.06.66.09 1.16.09 1.46a17 17 0 0 0 2.29.11 4.53 4.53 0 0 0 1-.06c0-.23 0-.43 0-.64-.24-.05-1.16-.14-2.77-.3a1.8 1.8 0 0 1 0-.43 1.58 1.58 0 0 1 0-.38 13.26 13.26 0 0 1 3.68.42zm-5-3.34c1.59.06 3.17.09 4.73.09a6 6 0 0 0 0-.87c0-.48 0-1 0-1.63-.35 0-.69 0-1 0v.62h.52a1.1 1.1 0 0 1 .07.4 3.52 3.52 0 0 1 0 .46h-.61a5.12 5.12 0 0 1 -.11.63 1.34 1.34 0 0 1 -.43 0 1 1 0 0 1 -.38 0 3.91 3.91 0 0 1 -.07-.62c-.28 0-.57 0-.82 0 0 .24-.07.44-.1.63a1.13 1.13 0 0 1 -.44 0 .8.8 0 0 1 -.37 0 3.65 3.65 0 0 1 -.1-.62c-.31 0-.62 0-.9 0 .02.29.03.55.03.91zm1.91-2.53v.73h.76c0-.22 0-.46 0-.68-.24-.02-.51-.04-.74-.05z"/><path d="m411.16 75.62c-2 0-3.82 0-5.44 0s-3.16.08-4.6.16v-1.84c1.56.1 3.24.16 5 .18s3.8 0 6.05 0h3.64q1.56 0 2.82 0l2.37-.12 2.25-.1v1.89l-2.12-.1q-1 0-2.19-.06h-2.56-3.23v7.79h3 2.3l1.76-.07 1.46-.11v1.9l-1.44-.14c-.51 0-1.1 0-1.76-.06h-2.3-3v10.17h4.24 3.26c1 0 1.88 0 2.72-.06s1.73-.08 2.65-.14v2c-1-.06-1.87-.1-2.74-.13s-1.8 0-2.81-.06h-3.41-4.51q-4.16 0-7.39 0t-6.09.19v-2c1.75.1 3.59.17 5.54.2s4.13 0 6.55 0v-10.22h-2.85-2.18c-.64 0-1.2 0-1.69.06l-1.4.11v-1.86l1.4.11c.49 0 1.05 0 1.69.06h2.18 2.85zm10.38 18a18.84 18.84 0 0 0 -2.45-2.69 31.64 31.64 0 0 0 -3.17-2.52l1.26-1.29c1 .76 2 1.58 3 2.47s1.93 1.76 2.85 2.64z"/><path d="m442.8 94v-18.68q0-.9 0-1.53c0-.42 0-.78-.07-1.08a7.58 7.58 0 0 0 -.11-.76 4.74 4.74 0 0 0 -.15-.57 11.15 11.15 0 0 0 1.22.17l1.34.07c.22 0 .34.07.36.2s-.06.25-.24.37a.91.91 0 0 0 -.39.79v21.02h7.85v-12.54c0-.68 0-1.28-.06-1.79a9.49 9.49 0 0 0 -.22-1.46l.7.1.54.06a3.91 3.91 0 0 0 .49 0h.59c.34 0 .53 0 .56.14s-.1.24-.38.46a.74.74 0 0 0 -.24.35 2.24 2.24 0 0 0 -.06.61v15.66c0 .5 0 1 .05 1.48s.07.92.13 1.32h-2.19c0-.4.06-.85.07-1.34s0-1 0-1.4h-17.52v2.74h-2c0-.2 0-.4 0-.59s0-.41 0-.67 0-.58 0-.94v-14.88c0-.54 0-1.13 0-1.76s-.06-1.13-.1-1.49c.5.1.89.16 1.17.19s.62.06 1 .08.78.12.82.3-.18.43-.64.75q-.3.21-.3 1v13.62z"/><path d="m483.58 81.19a29.59 29.59 0 0 0 -2.49-2.51c-.83-.74-1.77-1.5-2.83-2.31l1.41-1.23c1.51 1.26 2.95 2.55 4.35 3.85s2.81 2.76 4.25 4.36l-1.77 1.33-.9-1.15c-.24-.3-.5-.59-.75-.87l-6.88.27-5 .21c-1.41.06-2.6.12-3.55.18s-1.75.12-2.4.18-1.21.13-1.66.2-.88.15-1.28.25a7.73 7.73 0 0 0 -.34-1.18 9.24 9.24 0 0 0 -.59-1.19c.6.06 1.38.09 2.35.09 1-1 1.91-2 2.84-3s1.79-2 2.59-2.94 1.48-1.81 2.07-2.6a16.92 16.92 0 0 0 1.31-2 11.18 11.18 0 0 0 1.13.69 10.63 10.63 0 0 0 1.09.48c.41.15.6.3.59.47s-.24.28-.68.32a1.65 1.65 0 0 0 -.67.34 11.27 11.27 0 0 0 -1.28 1.19q-1.77 1.8-3.38 3.47l-3.33 3.48zm-15.49 17.81h-2c0-.56.07-1.1.1-1.62s.05-1.08.05-1.66v-6.95c0-.19 0-.4 0-.64v-.72c0-.24 0-.46 0-.66s0-.36-.06-.48l1.37.07c.63 0 1.37.06 2.22.08h2.77 3q4.13 0 6.48-.06c1.58 0 2.68-.09 3.33-.15 0 .24-.08.61-.11 1.11s0 1 0 1.63v8.3 1.44h-2v-2.02h-15.15zm14.91-10.93h-14.91v7h14.91z"/><path d="m498.14 83.86c-.3-.36-.63-.72-1-1.09s-.73-.77-1.14-1.07-.77-.65-1.13-.93a8.85 8.85 0 0 0 -1-.7l1-1.2c.36.24.74.52 1.14.83s.8.63 1.19 1 .77.67 1.13 1 .68.65 1 .95zm1.5 2.56c-.18.58-.39 1.33-.63 2.24s-.5 1.91-.78 3-.56 2.2-.84 3.34-.54 2.23-.79 3.25a5.45 5.45 0 0 0 -1.08-.45q-.45-.12-1.08-.24a20.56 20.56 0 0 0 .86-2c.33-.85.66-1.82 1-2.89s.65-2.23 1-3.46.59-2.45.81-3.65a2.41 2.41 0 0 0 .72.57 4.63 4.63 0 0 0 .81.29zm-1-9.2a18.66 18.66 0 0 0 -3.85-3.34l1-1.29c.66.52 1.37 1.1 2.11 1.74s1.4 1.24 2 1.8zm1.95-.54c.36-.55.75-1.18 1.15-1.91s.84-1.64 1.32-2.73a2.42 2.42 0 0 0 1.11.67q.39.09.39.27t-.33.27a1.06 1.06 0 0 0 -.39.21 1.55 1.55 0 0 0 -.3.33c-.4.66-.73 1.19-1 1.58s-.52.82-.82 1.31h1.89c.28-.47.49-.84.63-1.12a5.63 5.63 0 0 0 .36-.93 3.72 3.72 0 0 0 .61.47l.54.31v-1.2l.82.1.82.08q.44 0 1 0h2.81 1.07l.84-.08.8-.1v1.53l-.81-.1-.86-.08h-1.07-1.44-1.21-.91c-.27 0-.52 0-.74.06l-.69.07q.06.15-.39.27a1 1 0 0 0 -.44.3c-.15.16-.36.42-.62.76-.54.74-1.05 1.42-1.54 2l-1.28 1.6q.81-.08 1.56-.09c.5 0 .9 0 1.2-.07a6.89 6.89 0 0 0 -.34-.66l-.44-.75 1.05-.57c.31.5.59 1 .86 1.55s.53 1.1.77 1.7l-1.26.45a6.17 6.17 0 0 0 -.21-.72l-2.74.33-1.36.21a4.9 4.9 0 0 0 -.92.24 3.06 3.06 0 0 0 -.18-.86 1.56 1.56 0 0 0 -.42-.64h.51.63c.3-.35.64-.76 1-1.24s.83-1.1 1.37-1.86h-.69a9.92 9.92 0 0 0 -1.11.12 5 5 0 0 0 -.88.21 2.22 2.22 0 0 0 -.19-.63 5.81 5.81 0 0 0 -.41-.66zm1.24 6.55a19 19 0 0 1 -.23 2.6 8.72 8.72 0 0 1 -.53 2l-1.38-.33a6 6 0 0 0 .71-1.82 12.12 12.12 0 0 0 .25-2.69zm15 8.69c-.24 0-.54-.07-.9-.1s-1-.06-1.79-.08-2 0-3.5 0h-6l-.21 1.63h5.28 3.78 2.57 1.64l1-.06c.25 0 .49 0 .71-.09a7.5 7.5 0 0 0 -.5 1.14c-.11.34-.23.79-.37 1.35a8.14 8.14 0 0 1 -.57 1.73 2.27 2.27 0 0 1 -1.09 1 6.31 6.31 0 0 1 -2.07.53 33.1 33.1 0 0 1 -3.55.15 2.11 2.11 0 0 0 -.09-1 5 5 0 0 0 -.69-1.06 23 23 0 0 0 2.92.39 6.83 6.83 0 0 0 1.85-.11 1.89 1.89 0 0 0 1-.56 2.59 2.59 0 0 0 .52-1l.33-1.2h-9.18-2.45-1.48a6.06 6.06 0 0 0 -.81.07l-.51.07c.12-.68.21-1.38.29-2.11a18.68 18.68 0 0 0 0-2.4 7 7 0 0 0 1 .1l1.82.09c.71 0 1.5 0 2.35.06s1.7 0 2.55 0 1.67 0 2.46 0h2l.15-1.53h-7.69-2.26-1.47c-.39 0-.7 0-.94 0l-.61.06v-1.52c.3 0 .62.08 1 .11s.8 0 1.35.06h2 6.36 2.05s.93 0 1.23-.07l.88-.11a12.49 12.49 0 0 0 -.34 2.17 17.44 17.44 0 0 0 -.01 2.29zm-13.92-4.87c0-.26 0-.57-.05-.92s-.06-.7-.1-1-.1-.69-.17-1a8.17 8.17 0 0 0 -.22-.86l1.11-.27q.12.36.24.87c.08.34.16.69.23 1s.13.7.19 1 .1.64.12.9zm2.56-.42a16.65 16.65 0 0 0 -.46-2.07 8.76 8.76 0 0 0 -.72-1.81l1-.33a17.86 17.86 0 0 1 1.44 3.73zm7.42-8.48-1.07-.15c-.38 0-.92 0-1.62 0s-1.5 0-2 0-.95.07-1.29.11v-1.31l.56.06h.66.87 1.22q1.11 0 1.65 0a8.87 8.87 0 0 0 1-.12zm0 2.62c-.34 0-.73-.08-1.17-.11s-1 0-1.74 0-1.33 0-1.76 0a10.18 10.18 0 0 0 -1.19.12v-1.46l1.22.11h1.73s1.3 0 1.74 0a9.2 9.2 0 0 0 1.17-.12zm-.09 6c-.3 0-.65-.06-1-.08h-3.44-.6l-.62.06q.06-.3.12-.9t.06-1.26a21.65 21.65 0 0 0 -.22-2.59q.66.09 1.23.12h1.63.85.7l.61-.05a6.71 6.71 0 0 0 .69-.07c-.06.9-.09 1.79-.09 2.68v1.17s.05.64.09.96zm-2.37-12.66a5.92 5.92 0 0 0 -1.05-.93c-.41-.28-.87-.56-1.39-.85l.72-1.05c.46.28.93.58 1.39.89a11.69 11.69 0 0 1 1.2.92zm1.08 9.2h-3v2.39h3zm2.41-6.79.58-.92c.19-.31.38-.65.57-1s.4-.76.61-1.2.44-1 .7-1.54a2.92 2.92 0 0 0 1 .6c.22.09.34.18.36.29s-.08.22-.3.32a1.86 1.86 0 0 0 -.76.84 30.36 30.36 0 0 1 -1.68 2.65h2.1a10.15 10.15 0 0 0 .89-1.35c.19-.36.36-.71.5-1a4.27 4.27 0 0 0 1.35.72c.18 0 .27.13.27.26s-.11.22-.33.28a1.6 1.6 0 0 0 -.37.24 4.67 4.67 0 0 0 -.62.66c-.68.87-1.32 1.66-1.91 2.4s-1.13 1.35-1.61 1.88l3.19-.1q-.18-.42-.39-.81t-.42-.72l1-.51c.34.52.67 1.11 1 1.76s.6 1.26.82 1.82l-1.2.48a4.42 4.42 0 0 0 -.15-.48l-.18-.48-3.37.27-1 .15a5.59 5.59 0 0 0 -.94.24 5.1 5.1 0 0 0 -.55-1.57h.76c.18-.19.34-.37.49-.55l.51-.61.64-.78.82-1.07c-.66 0-1.15.08-1.49.13s-.7.13-1.12.23a3.37 3.37 0 0 0 -.21-.69 7.32 7.32 0 0 0 -.33-.69zm1.59 6.7a11.92 11.92 0 0 1 -.47 2.18 9.72 9.72 0 0 1 -.67 1.64l-1.27-.36a4 4 0 0 0 .79-1.47 14 14 0 0 0 .45-2.32zm1.11 3.43a10.63 10.63 0 0 0 0-1.77 7.55 7.55 0 0 0 -.33-1.69l1-.24a11.31 11.31 0 0 1 .37 1.76c.09.65.15 1.24.17 1.76zm2.71-.21a9.9 9.9 0 0 0 -.45-1.7 15.87 15.87 0 0 0 -.72-1.67l1.05-.48a14.25 14.25 0 0 1 .8 1.7 15.79 15.79 0 0 1 .61 1.88z"/><path d="m531.25 93.91c-.2.34-.46.74-.77 1.2s-.64.93-1 1.41-.71 1-1.07 1.39-.69.81-1 1.11l-1.62-1a17.46 17.46 0 0 0 1.29-1.24 12.1 12.1 0 0 0 1-1.14 12.24 12.24 0 0 0 .8-1.22c.25-.43.52-.92.8-1.48zm8.48-3.37c2.59 0 4.79 0 6.62-.06s3.48-.1 5-.18v1.89l-2.51-.1-2.84-.09h-3.36-4-4-3.32l-2.83.08-2.49.1v-1.88l2.39.1 2.69.08h3.13 3.73v-3.1c-2 0-3.77 0-5.22.05s-2.77.07-4 .13v-1.74c1.19.06 2.5.1 3.94.13s3.19 0 5.24 0v-2.78h-2.91-2.42q-1.11 0-2 .06l-1.81.07c0-.38.08-.75.11-1.11s0-.74.06-1.13 0-.81 0-1.25 0-.94 0-1.5c0-1.14 0-2.1 0-2.87s-.09-1.55-.17-2.33c.63 0 1.28.07 2 .09h2.24 2.68 3.29 3.29 2.68 2.24q1 0 2-.09c-.06.78-.1 1.56-.13 2.34s-.05 1.74-.05 2.86v1.53s0 .85 0 1.22 0 .74 0 1.1 0 .73.09 1.11l-1.83-.06-2.08-.06c-.74 0-1.56 0-2.45 0h-3v2.85h5.26s2.79-.07 4-.13v1.74c-1.18-.06-2.5-.1-4-.13s-3.21-.05-5.26-.05zm-1.8-15.76h-7.22v7h7.22zm-2.77 6.22a22.2 22.2 0 0 0 -1.43-2.55 14.82 14.82 0 0 0 -1.43-1.81l1.42-1a21.29 21.29 0 0 1 1.6 2.08c.5.72 1 1.54 1.52 2.46zm1.08 17.41a17.65 17.65 0 0 0 -.85-2.36 9.88 9.88 0 0 0 -1.31-2.15l1.53-.75a24.34 24.34 0 0 1 1.29 2.12 25.22 25.22 0 0 1 1.21 2.45zm3.49-16.6h7.43v-7h-7.43zm3.27 16.19c-.2-.44-.38-.83-.54-1.16s-.33-.65-.51-1a8 8 0 0 0 -.64-.91c-.24-.32-.53-.67-.87-1.07l1.48-.9q.81 1 1.53 2.13a22.65 22.65 0 0 1 1.23 2zm2.71-21.38c-.18.16-.37.34-.56.54s-.42.47-.69.81-.59.76-1 1.26-.78 1.12-1.26 1.87l-1.51-.91a18.36 18.36 0 0 0 1.88-2.19 21.16 21.16 0 0 0 1.49-2.39zm4.54 22c-.26-.44-.51-.84-.74-1.19s-.49-.71-.77-1.07-.6-.74-1-1.15l-1.31-1.43 1.29-1.06c.9.89 1.69 1.7 2.36 2.46s1.27 1.47 1.79 2.18z"/><path d="m561.93 93.34c-.17.44-.36.91-.59 1.43s-.47 1-.72 1.51-.5 1-.76 1.4a10.1 10.1 0 0 1 -.67 1l-2-.72a27.54 27.54 0 0 0 1.81-2.4 10.12 10.12 0 0 0 1.2-2.76zm6.19-16.34c-.28-.32-.56-.63-.83-.91s-.55-.55-.85-.81l1.14-1.08q.66.66 1.14 1.17c.32.34.62.67.89 1s.53.63.8 1l.9 1.16-1.33 1-.45-.67c-.14-.21-.29-.43-.45-.65l-8 .54c-.7 0-1.27.09-1.71.14a7 7 0 0 0 -1.17.22 4 4 0 0 0 -.61-1.89 12.63 12.63 0 0 0 1.48.09l1.55-1.46c.45-.43.86-.86 1.24-1.28a14.58 14.58 0 0 0 1.07-1.31c.33-.45.68-1 1-1.49a6 6 0 0 0 1.68 1.09q.6.27 0 .51a3.84 3.84 0 0 0 -.6.34 10.42 10.42 0 0 0 -.84.66c-.34.29-.76.68-1.25 1.15s-1.11 1.06-1.85 1.79zm-7.28 14.79h-2c.06-.6.11-1.13.16-1.59s.09-.88.11-1.25 0-.73 0-1.07 0-.69 0-1v-3.95c0-.7 0-1.27-.05-1.7a7.39 7.39 0 0 0 -.06-1.23c.26 0 .6.08 1 .11l1.4.07 1.54.06h1.47 1.35c.49 0 1 0 1.46-.06l1.43-.09c.46 0 .87-.07 1.23-.11a11.23 11.23 0 0 0 -.21 1.36q-.06.66-.06 1.59v6.44a3.77 3.77 0 0 1 -.15 1.15 1.36 1.36 0 0 1 -.6.76 3.33 3.33 0 0 1 -1.28.4 15.72 15.72 0 0 1 -2.18.12 3.84 3.84 0 0 0 -.15-.9 3 3 0 0 0 -.51-.9 11.12 11.12 0 0 0 1.72.13 2.25 2.25 0 0 0 1-.19.82.82 0 0 0 .44-.53 3.43 3.43 0 0 0 .09-.86v-1h-7.1zm7.1-8.39v-1.85h-7.1v1.83zm-7.1 1.2v1.75h7.1v-1.77zm5.78 14.08a27.38 27.38 0 0 0 -.62-2.68 23.42 23.42 0 0 0 -.86-2.49l1.66-.39c.12.3.26.67.42 1.12s.31.93.45 1.43.27 1 .39 1.48.21.89.27 1.23zm6.46-.6c-.12-.42-.26-.87-.43-1.36s-.36-.94-.56-1.39-.4-.87-.59-1.25a6.59 6.59 0 0 0 -.52-.9l1.53-.64c.34.61.7 1.29 1.07 2s.8 1.71 1.28 2.86zm.69-12.51a38.76 38.76 0 0 0 4.32-1.21 10.42 10.42 0 0 0 2.57-1.26 7.89 7.89 0 0 0 .5.77 5.35 5.35 0 0 0 .52.61c.26.25.36.46.3.65s-.29.26-.69.2a3.24 3.24 0 0 0 -.69 0q-.42 0-1.23.21c-.54.11-1.26.28-2.15.5l-3.45.87v1.59a2.29 2.29 0 0 0 .11.77.8.8 0 0 0 .44.45 2.88 2.88 0 0 0 1 .23q.66.06 1.8.06a18 18 0 0 0 2.36-.12 3.15 3.15 0 0 0 1.34-.45 1.77 1.77 0 0 0 .68-.92 12.59 12.59 0 0 0 .37-1.52 2.88 2.88 0 0 0 .83.72 2.55 2.55 0 0 0 .92.3 9.83 9.83 0 0 1 -.8 1.87 2.67 2.67 0 0 1 -1.11 1.05 5 5 0 0 1 -1.85.45c-.76.06-1.76.09-3 .09s-2 0-2.65-.1a2.86 2.86 0 0 1 -1.44-.42 1.55 1.55 0 0 1 -.6-1 11.3 11.3 0 0 1 -.12-1.88v-3.71c0-.52 0-1 0-1.33s-.06-.78-.12-1.22a9.14 9.14 0 0 0 2.23.27c.28 0 .44.07.48.22s-.07.33-.33.53a2 2 0 0 0 -.52 1.53zm.09-9.39c.93-.2 1.72-.38 2.38-.55s1.24-.34 1.73-.51a11.06 11.06 0 0 0 1.31-.54c.38-.2.74-.4 1.08-.62a4.5 4.5 0 0 0 .48.84 4 4 0 0 0 .57.66c.26.24.36.44.3.59s-.28.2-.66.16a6.2 6.2 0 0 0 -.76 0 9.41 9.41 0 0 0 -1.22.15c-.52.09-1.2.23-2 .41s-1.89.43-3.18.75v.84a3 3 0 0 0 .09.8.79.79 0 0 0 .43.49 2.73 2.73 0 0 0 1 .26 16.71 16.71 0 0 0 1.79.07 16.22 16.22 0 0 0 2.05-.1 3 3 0 0 0 1.26-.42 2 2 0 0 0 .72-.86 7.08 7.08 0 0 0 .42-1.41 1.74 1.74 0 0 0 .7.67 2.54 2.54 0 0 0 1 .32 12.94 12.94 0 0 1 -.86 1.62 2.66 2.66 0 0 1 -1 1 4.57 4.57 0 0 1 -1.65.46 24 24 0 0 1 -2.68.12c-1.12 0-2 0-2.64-.08a2.87 2.87 0 0 1 -1.45-.42 1.52 1.52 0 0 1 -.6-1 11.15 11.15 0 0 1 -.12-1.85v-3q0-.78 0-1.29c0-.34-.06-.74-.12-1.21a4.45 4.45 0 0 0 1 .19h1.15c.29 0 .45 0 .49.13s-.07.28-.33.5a1.13 1.13 0 0 0 -.4.64 4 4 0 0 0 -.12 1zm7.22 22.17a32 32 0 0 0 -1.82-2.81 26.61 26.61 0 0 0 -2.12-2.63l1.33-.91c.68.71 1.38 1.53 2.12 2.47s1.42 1.9 2.09 2.89z"/><path d="m624.82 83.11h-.5-.57-.56-.45v-.86l.54.06h.93 1.54 4.72 1.45.84l.51-.06v.86a15.19 15.19 0 0 0 -2.07-.12v1.67h.87.88.76a5 5 0 0 0 .52 0v.82c-.3 0-.73 0-1.27-.07s-1.14 0-1.76 0v1.59h.6.64.59.48v.92l-.53-.06c-.22 0-.51 0-.89 0h-1.45-2.24v1.14h1.45 1.36 1.17.9v.9h-.9-1.19-1.35-1.44q0 .53 0 1.2c0 .44.06.87.1 1.26h-1c0-.2 0-.41 0-.63s0-.45 0-.68 0-.43 0-.63 0-.38 0-.52h-1.46-1.38-1.21-.94v-.9h.94 1.21 1.38 1.46v-1.3h-2.22-1.48-.92l-.55.06v-.92c.25 0 .59.06 1 .08h1.33v-1.52h-.66-.85-.79-.59v-.82c.3 0 .7 0 1.2.07s1.11 0 1.83 0zm5.59-2.62h1 .84.72l.69-.05v.9h-.69-.72-.84-1v.66h-.82v-.86h-3v.92h-.82v-.92h-2c-.59 0-1.11 0-1.57.09v-.9c.46 0 1 .07 1.53.09h2q0-.37 0-.75c0-.26 0-.46-.06-.62l.51.06h.5a.14.14 0 0 1 .15.09.15.15 0 0 1 -.09.15.32.32 0 0 0 -.12.18.82.82 0 0 0 0 .26v.61h3v-.4a3.49 3.49 0 0 0 0-.35c0-.1 0-.19 0-.27s0-.17 0-.27l.51.06h.5c.08 0 .13 0 .15.07s0 .08-.1.13a.41.41 0 0 0 -.12.18 1.15 1.15 0 0 0 0 .26zm-4.78 2.62v1.67h2v-1.67zm0 2.29v1.6h2v-1.6zm2.77-2.29v1.67h2v-1.67zm0 2.29v1.6h2v-1.6z"/><path d="m642.79 86.35h-1.23-.89-.69-.63v-.85h.58.72.92 1.22v-1h-2.28-.67-.64-.57v-.5h.57.64.67 2.28v-1h-1.29-.89-.64-.53v-.89l.61.07h.7.88 1.16v-.91h-4.57v2.87s0 1.57 0 2.22-.09 1.21-.16 1.7a11.5 11.5 0 0 1 -.27 1.35 7 7 0 0 1 -.4 1.12 11.49 11.49 0 0 1 -.53 1 1.58 1.58 0 0 0 -.41-.28 2.93 2.93 0 0 0 -.53-.15 9.28 9.28 0 0 0 .58-1 6 6 0 0 0 .46-1.08 10.93 10.93 0 0 0 .31-1.38 17.13 17.13 0 0 0 .16-1.82c0-.69 0-1.48 0-2.37s0-1.91-.12-3.07h.5.92 1.54 2.39a5 5 0 0 0 -.28-.57 5.32 5.32 0 0 0 -.51-.7l.89-.45c.08.18.16.33.22.46s.12.25.17.37.1.26.16.39.12.31.2.5h3c.69 0 1.15 0 1.38-.07v.87c-.25 0-.67 0-1.26 0s-1.41 0-2.43 0h-.64v1.17h1.29.89.64l.58-.07a3.21 3.21 0 0 0 -.09.5 4.81 4.81 0 0 0 0 .52v.77h.75l.82-.08v.84l-.84-.07h-.73v.65a5.13 5.13 0 0 0 0 .53 4.68 4.68 0 0 0 .09.56h-.64-.69-.89-1.14v4.19a1.83 1.83 0 0 1 -.1.66.91.91 0 0 1 -.38.43 2.52 2.52 0 0 1 -.8.25 13.51 13.51 0 0 1 -1.32-.03 1.11 1.11 0 0 0 -.07-.54 1.29 1.29 0 0 0 -.33-.45c.45.05.83.07 1.12.08a2.44 2.44 0 0 0 .68-.07.56.56 0 0 0 .33-.23.75.75 0 0 0 .09-.39zm-.79 2.81c-.62.33-1.22.63-1.79.91s-1.11.55-1.64.79a1.48 1.48 0 0 0 -.46-.93c.53-.15 1.11-.34 1.73-.55a14 14 0 0 0 1.93-.87zm-.78-.69-.45-.32a4.92 4.92 0 0 0 -.45-.28 4.85 4.85 0 0 0 -.51-.26c-.18-.09-.39-.17-.61-.26l.34-.61 1.13.56 1 .51zm4.84-4.39v-1h-2.46v1zm-2.49.64v1h2.49v-1zm4 6.28-.86-.53c-.28-.17-.56-.34-.84-.49s-.58-.31-.89-.45-.64-.28-1-.41l.22-.58 1.13.42.95.37.87.38.94.43zm-3.27-3.08a7.67 7.67 0 0 0 .89-.6 10.1 10.1 0 0 0 .83-.73 4.91 4.91 0 0 0 .34.37 1.58 1.58 0 0 0 .29.22c.08.06.11.12.09.17s-.11.09-.26.1a1 1 0 0 0 -.27 0 3.12 3.12 0 0 0 -.35.16c-.14.07-.3.16-.49.28s-.43.27-.69.45z"/><path d="m652.74 89.65a6.26 6.26 0 0 1 -.36.56c-.15.22-.3.44-.47.67s-.33.44-.5.65a5.08 5.08 0 0 1 -.47.52l-.76-.49c.24-.21.44-.4.61-.58a5.36 5.36 0 0 0 .45-.54c.13-.18.26-.37.38-.57s.24-.44.37-.71zm4-1.59q1.83 0 3.12 0c.85 0 1.63 0 2.33-.08v.89h-1.18-1.34-1.58-3.75-1.56-1.33-1.18v-.87h1.13 1.27 1.47 1.75v-1.43c-1 0-1.77 0-2.45 0s-1.31 0-1.86.06v-.82c.55 0 1.17 0 1.85.06s1.5 0 2.46 0v-1.28h-2.5-1-.85c0-.18 0-.36 0-.53s0-.34 0-.53 0-.38 0-.58 0-.45 0-.71q0-.81 0-1.35c0-.37 0-.73-.07-1.1h.92 1 1.26 3.1 1.26 1.05.92c0 .37 0 .74-.06 1.1s0 .82 0 1.35v.72s0 .4 0 .57 0 .35 0 .52 0 .34 0 .52h-.86-1-1.15-1.41v1.33h2.48s1.31 0 1.87-.06v.82c-.56 0-1.18 0-1.87-.06s-1.52 0-2.48 0zm-.85-7.41h-3.39v3.28h3.39zm-1.3 2.9a9.57 9.57 0 0 0 -.67-1.2 7.53 7.53 0 0 0 -.67-.86l.66-.45a8.87 8.87 0 0 1 .76 1c.23.34.47.72.71 1.16zm.51 8.19a8.23 8.23 0 0 0 -.4-1.11 4.49 4.49 0 0 0 -.62-1l.72-.36c.19.28.39.61.61 1a11.27 11.27 0 0 1 .57 1.16zm1.64-7.81h3.5v-3.28h-3.5zm1.53 7.63c-.09-.21-.18-.39-.25-.55s-.16-.3-.25-.44a3.7 3.7 0 0 0 -.29-.44l-.41-.5.69-.42c.26.33.5.66.72 1a10.67 10.67 0 0 1 .58 1zm1.27-10.07-.26.26a3.67 3.67 0 0 0 -.32.38q-.19.24-.45.6c-.17.23-.37.52-.59.87l-.71-.42a9.4 9.4 0 0 0 .87-1 11.11 11.11 0 0 0 .7-1.13zm2.14 10.35c-.12-.21-.24-.39-.35-.56a4.75 4.75 0 0 0 -.36-.5c-.13-.17-.28-.35-.46-.55l-.61-.67.61-.49c.42.41.79.8 1.11 1.15s.59.69.84 1z"/><path d="m664.93 81.15c0-.33 0-.59 0-.79a4.72 4.72 0 0 0 -.08-.56c.23 0 .54.06.91.08s.76 0 1.15 0h1.29.41c.13 0 .25 0 .37-.06a5 5 0 0 0 -.06.54v.81 2.4a2.58 2.58 0 0 0 .42 0h.3v1.67h-.64v-1h-4.2v1.22h-.69v-1.97h.36.46zm.82 10.68h-.75c0-.33 0-.61.06-.84s0-.48 0-.76v-3.49c0-.75 0-1.28 0-1.58a5.55 5.55 0 0 0 .71.06h1.23.73.53.39.29v.3.42.45s0 .29 0 .41v3.85a1.88 1.88 0 0 1 -.06.53.76.76 0 0 1 -.24.34 1.37 1.37 0 0 1 -.5.19 6.77 6.77 0 0 1 -.83.09 2.06 2.06 0 0 0 0-.51.82.82 0 0 0 -.24-.42l.65.12a.72.72 0 0 0 .35 0 .32.32 0 0 0 .16-.21 2.39 2.39 0 0 0 0-.43v-1.16h-2.33zm2.43-11.34h-2.54v3.07h.89v-2h1.65zm-.1 6.44v-1.08h-2.33v1.08zm-2.33.55v1.12h2.33v-1.12zm2.43-3.92v-1.43h-1v1.43zm3.4 7.18c-.11-.2-.23-.41-.37-.63s-.32-.45-.54-.72l.71-.35c.16.25.33.53.5.84s.32.59.45.86h1.12c.16-.24.29-.44.39-.61s.2-.32.27-.45a3.13 3.13 0 0 0 .19-.35l.17-.36a2 2 0 0 0 .77.41c.14 0 .2.08.21.17s-.08.14-.26.17a.44.44 0 0 0 -.15 0 .65.65 0 0 0 -.19.14 2.92 2.92 0 0 0 -.28.3c-.11.13-.24.31-.4.53h1.48c.4 0 .79 0 1.18-.06v.76h-.71-.79-4.4c-.57 0-1.08 0-1.53.07v-.76l1.21.07zm5-4.87h-.52-.73-1-1.33q-1 0-1.8 0l-1.44.07v-.75l1.47.07q.75 0 1.77 0 1.45 0 2.31 0c.56 0 1 0 1.3-.07zm-4.81-5.24c0-.4 0-.7 0-.91a3 3 0 0 0 -.07-.56 3.45 3.45 0 0 0 .94.1h.2s0 .1-.09.17a.7.7 0 0 0 -.14.16.67.67 0 0 0 -.09.21v.31s0 .28 0 .47h1.13v-.57c0-.15 0-.27 0-.38s0-.2 0-.28a1.84 1.84 0 0 0 0-.25l.54.09a2.78 2.78 0 0 0 .41 0c.12 0 .18 0 .2.05s0 .11-.1.18a.76.76 0 0 0 -.21.38 3 3 0 0 0 -.07.78h1.16.39.39v.87 2.64a4.59 4.59 0 0 0 0 .48h-.5-5.3-.56c0-.13 0-.3 0-.49v-3.08c0-.13 0-.26 0-.41h.39.41 1.13zm1.43 5.85h1.64.53.57v.58s0 .47 0 .68 0 .46 0 .69 0 .42 0 .56h-.39-5-.52v-.22q0-.11 0-.24c0-.1 0-.21 0-.34v-.46c0-.21 0-.44 0-.68s0-.43-.05-.58h.52.63 2zm-1.43-5.31h-1.22v1.12h1.22zm0 1.63h-1.22v1.2h1.22zm3.39 4.2h-4.33v1.33h4.33zm-2.73-4.74h1.13v-1.09h-1.13zm0 1.69h1.13v-1.15h-1.13zm1.81-1.69h1.22v-1.09h-1.22zm0 1.69h1.22v-1.15h-1.22z"/><path d="m411.16 142.48c-2 0-3.82 0-5.44 0s-3.16.09-4.6.17v-1.85c1.56.1 3.24.16 5 .18s3.8 0 6.05 0h3.64q1.56 0 2.82 0l2.35-.08 2.25-.1v1.89l-2.12-.1-2.19-.07h-2.56c-.93 0-2 0-3.23 0v7.79h3 2.3l1.76-.08 1.46-.1v1.87l-1.46-.1c-.51 0-1.1 0-1.76-.06h-2.3-3v10.16h4.24 3.26c1 0 1.88 0 2.72-.06s1.73-.07 2.65-.13v2c-1-.06-1.87-.1-2.74-.13s-1.8-.05-2.81-.06h-3.41-4.51q-4.16 0-7.39.05t-6.09.19v-2c1.75.1 3.59.16 5.54.19s4.13.05 6.55.05v-10.36h-2.85-2.18c-.64 0-1.2 0-1.69.06l-1.4.1v-1.89l1.4.1c.49 0 1.05.05 1.69.06h2.18 2.85zm10.38 18a19.4 19.4 0 0 0 -2.45-2.69 31.62 31.62 0 0 0 -3.17-2.51l1.26-1.29c1 .76 2 1.58 3 2.46s1.93 1.77 2.85 2.65z"/><path d="m442.8 160.89v-18.71q0-.9 0-1.53c0-.43 0-.79-.07-1.09s-.07-.55-.11-.75a4.74 4.74 0 0 0 -.15-.57 9.08 9.08 0 0 0 1.22.16c.39 0 .84.06 1.34.08.22 0 .34.07.36.2s-.06.25-.24.37a.89.89 0 0 0 -.39.78v21.06h7.85v-12.58c0-.68 0-1.27-.06-1.79a9.36 9.36 0 0 0 -.22-1.45l.7.1.54.06h.49.59c.34 0 .53 0 .56.13s-.1.25-.38.47a.71.71 0 0 0 -.24.34 2.32 2.32 0 0 0 -.06.62v15.61c0 .5 0 1 .05 1.47s.07.93.13 1.33h-2.19c0-.4.06-.85.07-1.34s0-1 0-1.4h-17.52v2.74h-2c0-.2 0-.4 0-.59s0-.42 0-.68 0-.57 0-.93v-14.84c0-.54 0-1.12 0-1.76s-.06-1.12-.1-1.48c.5.1.89.16 1.17.19s.62.06 1 .08.78.12.82.3-.18.43-.64.75q-.3.21-.3 1v13.69z"/><path d="m483.58 148a32.89 32.89 0 0 0 -2.49-2.51c-.83-.73-1.77-1.5-2.83-2.3l1.41-1.23c1.51 1.26 2.95 2.55 4.35 3.85s2.81 2.75 4.25 4.36l-1.77 1.32-.9-1.14c-.24-.3-.5-.59-.75-.87l-6.88.27-5 .21c-1.41.06-2.6.12-3.55.18s-1.75.12-2.4.18-1.21.12-1.66.2-.88.15-1.28.25a7.88 7.88 0 0 0 -.34-1.19 9.89 9.89 0 0 0 -.59-1.18c.6.05 1.38.08 2.35.08 1-1 1.91-1.94 2.84-3s1.79-2 2.59-2.93 1.48-1.81 2.07-2.6a16.92 16.92 0 0 0 1.31-2 11.18 11.18 0 0 0 1.13.69 10.63 10.63 0 0 0 1.09.48c.41.14.6.3.59.47s-.24.27-.68.31a1.71 1.71 0 0 0 -.67.35 11.27 11.27 0 0 0 -1.28 1.19q-1.77 1.8-3.38 3.47c-1.08 1.11-2.18 2.27-3.33 3.47zm-15.49 17.81h-2c0-.56.07-1.11.1-1.63s.05-1.07.05-1.65v-6.95c0-.18 0-.39 0-.63v-.72c0-.24 0-.46 0-.66s0-.36-.06-.48l1.37.07c.63 0 1.37.06 2.22.08h2.77 3q4.13 0 6.48-.06c1.58 0 2.68-.09 3.33-.15 0 .24-.08.61-.11 1.11s0 1 0 1.62v8.3 1.45h-2v-2.08h-15.15zm14.91-10.88h-14.91v7h14.91z"/><path d="m498.14 150.72c-.3-.36-.63-.73-1-1.1s-.74-.72-1.13-1.06-.77-.66-1.13-.94a10.13 10.13 0 0 0 -1-.69l1-1.2c.36.24.74.51 1.14.83s.8.63 1.19 1l1.13 1c.36.33.68.65 1 1zm1.5 2.56c-.18.58-.39 1.32-.63 2.24s-.5 1.91-.78 3-.56 2.19-.84 3.34-.54 2.22-.79 3.25a5.45 5.45 0 0 0 -1.08-.45 11.07 11.07 0 0 0 -1.08-.25 19.48 19.48 0 0 0 .86-2q.49-1.27 1-2.88c.33-1.07.65-2.23 1-3.46s.59-2.45.81-3.65a2.41 2.41 0 0 0 .72.57 4.63 4.63 0 0 0 .81.29zm-1-9.21a18.92 18.92 0 0 0 -3.85-3.33l1-1.3c.66.52 1.37 1.11 2.11 1.75s1.4 1.24 2 1.8zm1.95-.54c.36-.54.75-1.18 1.15-1.91s.84-1.64 1.32-2.72a2.47 2.47 0 0 0 1.11.66q.39.09.39.27t-.33.27a1.23 1.23 0 0 0 -.39.21 1.59 1.59 0 0 0 -.3.34c-.4.66-.73 1.18-1 1.57l-.82 1.31h1.89q.42-.69.63-1.11a5.63 5.63 0 0 0 .36-.93 3.61 3.61 0 0 0 .61.46l.54.32v-1.17l.82.1.82.08q.44 0 1 0h2.81 1.07l.84-.08.8-.1v1.53c-.28 0-.55-.08-.81-.1l-.86-.08h-1.07-2.65-.91l-.74.07-.69.07q.06.15-.39.27a1 1 0 0 0 -.44.3c-.15.16-.36.41-.62.75-.54.75-1.05 1.43-1.54 2l-1.28 1.59 1.56-.09 1.2-.06a6.89 6.89 0 0 0 -.34-.66l-.44-.75 1.05-.57c.31.5.59 1 .86 1.55s.53 1.09.77 1.7l-1.26.45a7 7 0 0 0 -.21-.73l-2.74.34-1.4.21a4.9 4.9 0 0 0 -.92.24 3.06 3.06 0 0 0 -.18-.86 1.59 1.59 0 0 0 -.42-.65h.51l.63-.05c.3-.34.64-.75 1-1.23s.83-1.1 1.37-1.86h-.69a9.92 9.92 0 0 0 -1.11.12 5 5 0 0 0 -.88.21 2.29 2.29 0 0 0 -.19-.64 5.81 5.81 0 0 0 -.41-.66zm1.24 6.56a19 19 0 0 1 -.23 2.6 8.86 8.86 0 0 1 -.53 2l-1.38-.33a6 6 0 0 0 .71-1.82 12.12 12.12 0 0 0 .25-2.69zm15 8.69c-.24 0-.54-.07-.9-.1s-1-.06-1.79-.08-2 0-3.5 0-3.52 0-6 0l-.21 1.62h9.06 2.57c.67 0 1.21 0 1.64-.05l1-.06c.25 0 .49 0 .71-.09a7.57 7.57 0 0 0 -.5 1.15c-.11.34-.23.79-.37 1.35a8.14 8.14 0 0 1 -.57 1.73 2.27 2.27 0 0 1 -1.09 1 6.31 6.31 0 0 1 -2.07.53 33.1 33.1 0 0 1 -3.55.15 2.11 2.11 0 0 0 -.09-1 5 5 0 0 0 -.69-1.07 23 23 0 0 0 2.92.39 6.89 6.89 0 0 0 1.85-.1 2 2 0 0 0 1-.56 2.59 2.59 0 0 0 .52-1l.33-1.2h-9.18-2.45-1.48a6.44 6.44 0 0 0 -.81.06l-.51.08c.12-.68.21-1.39.29-2.11a18.68 18.68 0 0 0 0-2.4 7 7 0 0 0 1 .1l1.82.09c.71 0 1.5.05 2.35.06h2.55 2.46 2l.15-1.54h-4.5-3.27-2.26-1.47-.94l-.61.06v-1.56l1 .11c.35 0 .8 0 1.35.05s1.23 0 2 0 1.83 0 3.06 0h3.3 2.05l1.23-.07.88-.11a12.53 12.53 0 0 0 -.34 2.16 17.61 17.61 0 0 0 .07 2.41zm-13.92-4.87c0-.26 0-.57-.05-.92s-.06-.7-.1-1.05-.1-.69-.17-1a8.17 8.17 0 0 0 -.22-.86l1.11-.27q.12.36.24.87c.08.34.16.69.23 1s.13.7.19 1 .1.64.12.9zm2.56-.42a16.82 16.82 0 0 0 -.46-2.08 8.9 8.9 0 0 0 -.72-1.8l1-.33a16.31 16.31 0 0 1 .78 1.71 15.28 15.28 0 0 1 .66 2zm7.43-8.49-1.08-.11c-.38 0-.92 0-1.62 0s-1.5 0-2 0-.95.07-1.29.11v-1.36l.56.06h.66.87 1.22q1.11 0 1.65 0a8.87 8.87 0 0 0 1-.12zm0 2.61c-.34 0-.73-.07-1.17-.1s-1-.05-1.74-.05-1.33 0-1.76 0a10.18 10.18 0 0 0 -1.19.12v-1.44l1.22.1c.43 0 1 .05 1.73.05s1.3 0 1.74 0a9.2 9.2 0 0 0 1.17-.12zm-.09 6a9.81 9.81 0 0 0 -1-.08h-3.44-.6l-.62.06q.06-.3.12-.9c0-.4.06-.83.06-1.27a21.62 21.62 0 0 0 -.18-2.67q.66.09 1.23.12h1.63.85.7.61a6.71 6.71 0 0 0 .69-.07q-.09 1.35-.09 2.67v1.18s0 .7.04 1.02zm-2.37-12.61a6 6 0 0 0 -1.05-.94 15.44 15.44 0 0 0 -1.39-.84l.72-1c.46.28.93.58 1.39.89a11.7 11.7 0 0 1 1.2.91zm1.08 9.2h-3v2.35h3zm2.41-6.8c.2-.3.39-.6.58-.91s.38-.65.57-1 .4-.76.61-1.21.44-.95.7-1.53a3.09 3.09 0 0 0 1 .6c.22.08.34.18.36.29s-.08.21-.3.31a1.85 1.85 0 0 0 -.76.85 28.76 28.76 0 0 1 -1.68 2.61h2.1a10.15 10.15 0 0 0 .89-1.41c.19-.36.36-.71.5-1.05a4.27 4.27 0 0 0 1.35.72c.18 0 .27.12.27.25s-.11.23-.33.29a1.6 1.6 0 0 0 -.37.24 4.67 4.67 0 0 0 -.62.66l-1.91 2.39c-.59.74-1.13 1.36-1.61 1.88l3.19-.09q-.18-.42-.39-.81t-.42-.72l1-.51c.34.52.67 1.11 1 1.76a19.67 19.67 0 0 1 .82 1.82l-1.2.48a4.42 4.42 0 0 0 -.15-.48l-.18-.49-3.37.28-1 .15a5.59 5.59 0 0 0 -.94.24 5 5 0 0 0 -.55-1.57h.76c.18-.18.34-.36.49-.54l.51-.62.64-.78.82-1.06c-.66 0-1.15.08-1.49.13s-.7.13-1.12.23a3.65 3.65 0 0 0 -.21-.7 7.32 7.32 0 0 0 -.33-.69zm1.59 6.71a11.92 11.92 0 0 1 -.47 2.18 9.72 9.72 0 0 1 -.67 1.64l-1.27-.36a4 4 0 0 0 .79-1.48 13.87 13.87 0 0 0 .45-2.31zm1.11 3.43a10.75 10.75 0 0 0 0-1.78 7.57 7.57 0 0 0 -.33-1.68l1-.24a11.31 11.31 0 0 1 .37 1.76c.09.65.15 1.24.17 1.76zm2.71-.21a9.9 9.9 0 0 0 -.45-1.7 15.87 15.87 0 0 0 -.72-1.67l1.05-.48a14.25 14.25 0 0 1 .8 1.7 15.23 15.23 0 0 1 .61 1.88z"/><path d="m531.25 160.77c-.2.34-.46.74-.77 1.2s-.64.93-1 1.41-.71.94-1.07 1.39-.69.81-1 1.11l-1.62-1c.5-.45.93-.86 1.29-1.24a12.1 12.1 0 0 0 1-1.14 13.52 13.52 0 0 0 .8-1.22c.25-.43.52-.93.8-1.49zm8.48-3.37c2.59 0 4.79 0 6.62-.06s3.48-.1 5-.18v1.89l-2.51-.1-2.84-.08h-3.36-4-4-3.32l-2.83.08-2.49.1v-1.89l2.39.1 2.69.08h3.13 3.73v-3.16c-2 0-3.77 0-5.22 0s-2.77.08-4 .14v-1.74c1.19.06 2.5.1 3.94.13s3.19.05 5.24.05v-2.76h-2.9-2.42q-1.11 0-2 .06l-1.81.08c0-.38.08-.75.11-1.11s0-.74.06-1.13 0-.81 0-1.25 0-.94 0-1.5c0-1.15 0-2.1 0-2.87s-.09-1.55-.17-2.34c.63 0 1.28.07 2 .09l2.24.05h2.68 6.58 2.68l2.24-.05q1 0 2-.09c-.06.79-.1 1.57-.13 2.35s-.05 1.73-.05 2.86v1.53s0 .85 0 1.22 0 .74 0 1.1 0 .73.09 1.11l-1.83-.06-2.08-.06c-.74 0-1.56 0-2.45 0h-3v2.83c2 0 3.8 0 5.26-.05s2.79-.07 4-.13v1.74c-1.18-.06-2.5-.11-4-.14s-3.21 0-5.26 0zm-1.8-15.76h-7.22v7h7.22zm-2.77 6.16a22 22 0 0 0 -1.43-2.54 14.94 14.94 0 0 0 -1.43-1.82l1.42-1a20.15 20.15 0 0 1 1.6 2.08c.5.72 1 1.54 1.52 2.46zm1.08 17.42a17.78 17.78 0 0 0 -.85-2.37 10.12 10.12 0 0 0 -1.31-2.15l1.53-.75c.4.58.83 1.29 1.29 2.12a26.4 26.4 0 0 1 1.21 2.45zm3.49-16.6h7.43v-7h-7.43zm3.27 16.21c-.2-.45-.38-.83-.54-1.16s-.33-.65-.51-.95a8.09 8.09 0 0 0 -.64-.92c-.24-.31-.53-.66-.87-1.07l1.48-.9c.54.7 1.05 1.42 1.53 2.14s.89 1.4 1.23 2zm2.71-21.39c-.18.16-.37.34-.56.54s-.42.48-.69.82-.59.76-1 1.26-.78 1.12-1.26 1.86l-1.51-.9a19.17 19.17 0 0 0 1.85-2.21 22.09 22.09 0 0 0 1.49-2.39zm4.54 22c-.26-.44-.51-.84-.74-1.19s-.49-.71-.77-1.07-.6-.75-1-1.16l-1.31-1.43 1.29-1.05c.9.88 1.69 1.7 2.36 2.45s1.27 1.48 1.79 2.18z"/><path d="m561.93 160.19c-.17.45-.36.92-.59 1.43s-.47 1-.72 1.52-.5 1-.76 1.4a10.1 10.1 0 0 1 -.67 1l-2-.73a27.42 27.42 0 0 0 1.75-2.43 10.05 10.05 0 0 0 1.2-2.77zm6.19-16.36c-.28-.32-.56-.62-.83-.9s-.55-.55-.85-.81l1.14-1.08q.66.66 1.14 1.17c.32.34.62.67.89 1s.53.63.8 1l.9 1.16-1.33 1-.45-.68c-.14-.21-.29-.42-.45-.64l-8 .54c-.7 0-1.27.08-1.71.13a6.93 6.93 0 0 0 -1.17.23 4.06 4.06 0 0 0 -.61-1.9 12.63 12.63 0 0 0 1.48.09l1.55-1.45c.45-.44.86-.86 1.24-1.28a14.58 14.58 0 0 0 1.07-1.31c.33-.45.68-.95 1-1.49a6 6 0 0 0 1.68 1.08q.6.27 0 .51a4 4 0 0 0 -.6.35 10.42 10.42 0 0 0 -.84.66c-.34.29-.76.67-1.25 1.14l-1.85 1.79zm-7.28 14.8h-2c.06-.6.11-1.13.16-1.59s.09-.88.11-1.25 0-.73 0-1.07 0-.69 0-1.05v-3.88c0-.7 0-1.27-.05-1.7a7.24 7.24 0 0 0 -.19-1.25c.26 0 .6.08 1 .11l1.4.07 1.54.06h1.47 1.35c.49 0 1 0 1.46-.06l1.43-.09c.46 0 .87-.07 1.23-.11a11.08 11.08 0 0 0 -.21 1.35c0 .45-.06 1-.06 1.6v6.43a3.8 3.8 0 0 1 -.15 1.16 1.37 1.37 0 0 1 -.6.75 3.32 3.32 0 0 1 -1.28.41 15.72 15.72 0 0 1 -2.18.12 3.84 3.84 0 0 0 -.15-.9 3 3 0 0 0 -.51-.9 11.12 11.12 0 0 0 1.72.13 2.25 2.25 0 0 0 1-.19.82.82 0 0 0 .44-.53 3.49 3.49 0 0 0 .09-.86v-1h-7.1zm7.1-8.39v-1.84h-7.1v1.84zm-7.1 1.2v1.75h7.1v-1.75zm5.78 14.08a26.72 26.72 0 0 0 -.62-2.68 24.41 24.41 0 0 0 -.86-2.5l1.66-.39c.12.3.26.68.42 1.13s.31.93.45 1.43.27 1 .39 1.47.21.9.27 1.24zm6.46-.6c-.12-.43-.26-.88-.43-1.36s-.36-.95-.56-1.4-.4-.86-.59-1.24a6.21 6.21 0 0 0 -.5-.92l1.53-.63c.34.6.7 1.29 1.07 2.05s.8 1.71 1.28 2.85zm.69-12.52a41.42 41.42 0 0 0 4.32-1.2 10.42 10.42 0 0 0 2.57-1.26 7.89 7.89 0 0 0 .5.77 5.35 5.35 0 0 0 .52.61c.26.24.36.46.3.65s-.29.25-.69.19a3.34 3.34 0 0 0 -.69 0q-.42 0-1.23.21c-.54.11-1.26.28-2.15.5l-3.45.87v1.59a2.29 2.29 0 0 0 .11.77.8.8 0 0 0 .44.45 2.88 2.88 0 0 0 1 .23q.66.06 1.8.06a16.13 16.13 0 0 0 2.36-.13 2.9 2.9 0 0 0 1.34-.45 1.74 1.74 0 0 0 .68-.91 12.59 12.59 0 0 0 .37-1.52 2.88 2.88 0 0 0 .83.72 2.55 2.55 0 0 0 .92.3 10 10 0 0 1 -.8 1.86 2.64 2.64 0 0 1 -1.11 1.06 5 5 0 0 1 -1.85.45c-.76.06-1.76.09-3 .09s-2-.06-2.65-.11a2.86 2.86 0 0 1 -1.44-.42 1.52 1.52 0 0 1 -.6-1 11.38 11.38 0 0 1 -.12-1.88v-3.67c0-.52 0-1 0-1.34s-.06-.77-.12-1.21a9.14 9.14 0 0 0 2.23.27c.28 0 .44.07.48.22s-.07.33-.33.53a2 2 0 0 0 -.52 1.53zm.09-9.38c.93-.2 1.72-.38 2.38-.55s1.24-.35 1.73-.52a11.06 11.06 0 0 0 1.31-.54 11.21 11.21 0 0 0 1.08-.61 4.5 4.5 0 0 0 .48.84 4 4 0 0 0 .57.66c.26.24.36.44.3.59s-.28.2-.66.16a6.2 6.2 0 0 0 -.76 0 9.41 9.41 0 0 0 -1.22.15c-.52.09-1.2.22-2 .4s-1.89.43-3.18.76v.84a2.91 2.91 0 0 0 .09.79.81.81 0 0 0 .43.5 2.73 2.73 0 0 0 1 .26 16.71 16.71 0 0 0 1.79.07 16.22 16.22 0 0 0 2.05-.1 3 3 0 0 0 1.26-.43 1.93 1.93 0 0 0 .72-.85 7 7 0 0 0 .42-1.42 1.7 1.7 0 0 0 .7.68 2.54 2.54 0 0 0 1 .32 12.94 12.94 0 0 1 -.86 1.62 2.73 2.73 0 0 1 -1 1 4.79 4.79 0 0 1 -1.65.45 24 24 0 0 1 -2.68.12c-1.12 0-2 0-2.64-.07a2.87 2.87 0 0 1 -1.45-.42 1.52 1.52 0 0 1 -.6-1 11.23 11.23 0 0 1 -.12-1.85v-3q0-.78 0-1.29c0-.35-.06-.75-.12-1.21a5 5 0 0 0 1 .18 10.92 10.92 0 0 0 1.15 0c.29 0 .45 0 .49.14s-.07.27-.33.49a1.15 1.15 0 0 0 -.4.65 4 4 0 0 0 -.12 1zm7.22 22.17a32.1 32.1 0 0 0 -1.82-2.82 29.18 29.18 0 0 0 -2.12-2.63l1.33-.9a30 30 0 0 1 2.12 2.47c.73.94 1.42 1.9 2.09 2.88z"/><path d="m624.82 150h-.5-.57-.56l-.45.05v-.86l.54.06h.93 1.54 4.72 1.45.84l.51-.06v.86a15.19 15.19 0 0 0 -2.07-.12v1.67h.87.88.76a5 5 0 0 0 .52 0v.82c-.3 0-.73-.05-1.27-.07s-1.14 0-1.76 0v1.61h.6.64l.59-.05h.48v.92h-.53c-.22 0-.51 0-.89-.05h-1.45-2.24v1.3h1.45 1.36 1.17.9v.9h-.9-1.19-1.35-1.44v1.19s.06.87.1 1.27h-1c0-.2 0-.41 0-.64s0-.45 0-.67v-.64c0-.2 0-.37 0-.51h-1.46-1.38-1.21-.94v-.9h.94 1.21 1.38 1.46v-1.3h-2.22-1.48c-.39 0-.69 0-.92.05h-.55v-.92a9.62 9.62 0 0 0 1 .09h1.33v-1.61h-.66-.85-.79-.59v-.82l1.2.07q.75 0 1.83 0zm5.59-2.62h1 .84.72l.69-.05v.91h-.69-.72-.84-1v.86h-.82v-1.1h-3v1h-.82v-1c-.75 0-1.41 0-2 0s-1.11 0-1.57.09v-.91c.46.05 1 .08 1.53.1h2q0-.37 0-.75t-.06-.63l.51.07h.5a.14.14 0 0 1 .15.08c0 .06 0 .11-.09.16a.32.32 0 0 0 -.12.18.78.78 0 0 0 0 .26v.61h3v-.48a3.32 3.32 0 0 0 0-.35c0-.1 0-.19 0-.27s0-.17 0-.28l.51.07h.5q.12 0 .15.06s0 .09-.1.14a.36.36 0 0 0 -.12.18 1.15 1.15 0 0 0 0 .26zm-4.78 2.62v1.67h2v-1.67zm0 2.29v1.61h2v-1.61zm2.77-2.29v1.67h2v-1.67zm0 2.29v1.61h2v-1.61z"/><path d="m642.79 153.21h-1.23-.89-.69-.63v-.85l.58.05h.72.92 1.22v-1h-2.28-.67-.64-.57v-.84h.57.64.67 2.28v-1h-1.29-.89-.64-.53v-.9l.61.08h.7.88 1.16v-1.17h-4.57v2.87s0 1.57 0 2.21-.09 1.22-.16 1.71a10.92 10.92 0 0 1 -.27 1.34 7.14 7.14 0 0 1 -.4 1.13c-.15.34-.33.69-.53 1.05a1.58 1.58 0 0 0 -.41-.28 2.84 2.84 0 0 0 -.53-.16 8.18 8.18 0 0 0 .58-.94 6.05 6.05 0 0 0 .46-1.09 10.19 10.19 0 0 0 .31-1.38 16.92 16.92 0 0 0 .16-1.81c0-.69 0-1.48 0-2.37s0-1.92-.12-3.08a4.38 4.38 0 0 0 .5 0h.92 3.93a3.77 3.77 0 0 0 -.28-.57 4.73 4.73 0 0 0 -.51-.7l.89-.45.22.46c.06.12.12.25.17.37l.16.39c.06.14.12.3.2.5h3s1.15 0 1.38-.07v.88l-1.26-.06c-.59 0-1.41 0-2.43 0h-.64v1.17h1.29.89.64l.58-.08a3.59 3.59 0 0 0 -.09.51 4.63 4.63 0 0 0 0 .51v.78h.75l.82-.07v.84l-.84-.07h-.73v.65a5.13 5.13 0 0 0 0 .53 5 5 0 0 0 .09.56h-.64-.69-.89-1.14v4.19a1.74 1.74 0 0 1 -.1.65.83.83 0 0 1 -.38.43 2.1 2.1 0 0 1 -.8.25 13.1 13.1 0 0 1 -1.35.11 1.17 1.17 0 0 0 -.07-.55 1.37 1.37 0 0 0 -.33-.44c.45.05.83.07 1.12.08a2.07 2.07 0 0 0 .68-.08.55.55 0 0 0 .33-.22.75.75 0 0 0 .09-.39zm-.79 2.79-1.79.91c-.56.28-1.11.55-1.64.79a1.48 1.48 0 0 0 -.46-.93c.53-.15 1.11-.34 1.73-.56a12.76 12.76 0 0 0 1.93-.86zm-.78-.69-.45-.32a4.92 4.92 0 0 0 -.45-.28 4.85 4.85 0 0 0 -.51-.26c-.18-.09-.39-.17-.61-.26l.34-.61 1.13.55 1 .51zm4.84-4.39v-1h-2.46v1zm-2.49.64v1h2.49v-1zm4 6.28-.86-.54q-.42-.25-.84-.48c-.29-.16-.58-.31-.89-.45s-.64-.28-1-.41l.22-.58 1.13.42.95.37.87.38c.29.12.6.27.94.43zm-3.27-3.08a7.67 7.67 0 0 0 .89-.6 10.1 10.1 0 0 0 .83-.73 4.91 4.91 0 0 0 .34.37 1.58 1.58 0 0 0 .29.22c.08.06.11.11.09.17s-.11.09-.26.1a1 1 0 0 0 -.27.05 2 2 0 0 0 -.35.16c-.14.07-.3.16-.49.28s-.43.26-.69.44z"/><path d="m651.72 158.87h-.89c0-.35 0-.71.06-1.07s0-.81 0-1.32v-8.13c0-.22 0-.49 0-.78s0-.61-.06-.93a3.43 3.43 0 0 0 .5 0h.89 8.13.91a3.49 3.49 0 0 0 .51 0v.4s0 .24 0 .37v9.05 1.2s0 .77 0 1.16h-.92v-.77h-9.16zm9.16-11.49h-9.16v10h9.16zm-5.89 8a3.73 3.73 0 0 0 .6.37q.1.07.09.15c0 .05-.06.08-.17.08a1 1 0 0 0 -.27.05 2.93 2.93 0 0 0 -.48.21c-.4.24-.77.44-1.09.61l-.94.46c-.08-.16-.14-.29-.2-.39a2.81 2.81 0 0 0 -.28-.35 5.78 5.78 0 0 0 1.2-.42 7.79 7.79 0 0 0 1.3-.75h-1-.88a2 2 0 0 0 .13-.4 5.44 5.44 0 0 0 0-.57v-2.9a5.25 5.25 0 0 0 0-.56 2.74 2.74 0 0 0 -.07-.43h.67.65 4 .74.71c0 .1-.05.25-.07.43a5.25 5.25 0 0 0 0 .56v2.9a5.44 5.44 0 0 0 0 .57 3.57 3.57 0 0 0 .07.42h-.45-.42-1.22c.49.19.95.39 1.39.6s.84.41 1.21.6l-.45.66a8.39 8.39 0 0 0 -1.13-.68c-.45-.23-1-.49-1.76-.77l.23-.41zm4.42-5.36-1.41-.02h-3.24-.71-.73c0-.22.06-.39.07-.51s0-.28 0-.45 0-.34 0-.5a4.85 4.85 0 0 0 -.07-.55l1.48.06h3.36.61.68v1.05.43s-.06.26-.04.47zm-.54 1.2h-5.1v.89h5.1zm0 1.39h-5.1v.79h5.1zm0 1.26h-5.1v.93h5.1zm-.26-5.25h-4.54v.87h4.54z"/><path d="m664.93 148c0-.33 0-.59 0-.79a4.89 4.89 0 0 0 -.08-.57 8.18 8.18 0 0 0 .91.09h1.15 1.29.41l.37-.07a4.87 4.87 0 0 0 -.06.55v.81 2.39a2.68 2.68 0 0 0 .42 0h.3v1.59h-.64v-1h-4.2v1.22h-.69v-1.87h.36.46zm.82 10.67h-.75c0-.33 0-.61.06-.83s0-.48 0-.77v-3.47c0-.75 0-1.28 0-1.58a5.55 5.55 0 0 0 .71.06h1.23.73.53.39.29q0 .1 0 .3t0 .42v.45s0 .29 0 .41v3.85a1.88 1.88 0 0 1 -.06.53.68.68 0 0 1 -.24.33 1.37 1.37 0 0 1 -.5.2 6.77 6.77 0 0 1 -.83.09 2.06 2.06 0 0 0 0-.51.89.89 0 0 0 -.24-.43 3.84 3.84 0 0 0 .65.12.63.63 0 0 0 .35 0 .32.32 0 0 0 .16-.21 2.46 2.46 0 0 0 0-.43v-1.06h-2.33zm2.43-11.33h-2.54v3.07h.89v-2h1.65zm-.1 6.44v-1.08h-2.33v1.08zm-2.33.55v1.12h2.33v-1.12zm2.43-3.92v-1.41h-1v1.43zm3.4 7.17c-.11-.19-.23-.4-.37-.62a6.73 6.73 0 0 0 -.54-.72l.71-.35c.16.25.33.53.5.84s.32.59.45.85h1.12c.16-.23.29-.44.39-.61s.2-.31.27-.44.14-.25.19-.35l.17-.37a1.76 1.76 0 0 0 .77.41c.14 0 .2.09.21.17s-.08.15-.26.17l-.15.05a.72.72 0 0 0 -.19.15 2.92 2.92 0 0 0 -.28.3c-.11.13-.24.31-.4.52h1.48l1.18-.07v.77h-.71-.79-1-1.4-2c-.57 0-1.08 0-1.53.07v-.77c.42 0 .83.06 1.21.07zm5-4.86h-.52-.73-1-1.33-1.8l-1.44.08v-.8l1.47.07h1.77 2.31c.56 0 1-.05 1.3-.07zm-4.81-5.24c0-.4 0-.7 0-.91a2.84 2.84 0 0 0 -.07-.56 3.9 3.9 0 0 0 .94.1h.2s0 .1-.09.17a.7.7 0 0 0 -.14.16.51.51 0 0 0 -.09.21v.31s0 .28 0 .47h1.13v-.57c0-.15 0-.28 0-.38s0-.2 0-.28a2.38 2.38 0 0 0 0-.26 3 3 0 0 0 .54.09 1.94 1.94 0 0 0 .41 0c.12 0 .18 0 .2.05s0 .1-.1.18a.72.72 0 0 0 -.21.37 3.17 3.17 0 0 0 -.07.79h1.16.39.39a8.71 8.71 0 0 0 0 .87v2.64a4.59 4.59 0 0 0 0 .48h-.5-5.3-.56c0-.13 0-.3 0-.5v-3.07-.41h.39.41 1.13zm1.43 5.84h1.64.53.57v.58s0 .46 0 .68 0 .46 0 .69 0 .41 0 .56h-.39-4.39-.57-.52v-.22c0-.07 0-.15 0-.25a3.22 3.22 0 0 0 0-.33v-.46c0-.22 0-.44 0-.68s0-.43-.05-.58h.52.63 2zm-1.43-5.3h-1.22v1.11h1.22zm0 1.62h-1.22v1.19h1.22zm3.41 4.24h-4.33v1.33h4.33zm-2.73-4.75h1.13v-1.13h-1.13zm0 1.7h1.13v-1.19h-1.13zm1.81-1.7h1.22v-1.13h-1.22zm0 1.7h1.22v-1.19h-1.22z"/></g><path d="m60.78 38.4a9.74 9.74 0 0 0 -1.45.09v-.66a9.74 9.74 0 0 0 1.45.09c0-.28 0-.52 0-.71s0-.37 0-.52 0-.27 0-.39 0-.22 0-.33a2.6 2.6 0 0 0 .45.07.85.85 0 0 0 .32 0c.1 0 .16 0 .18.05s0 .12-.12.2a.46.46 0 0 0 -.14.31v1.32a4.33 4.33 0 0 0 .55 0l.47-.06v.66l-.47-.06h-.55v.71c.24.3.47.6.7.93s.42.6.57.84l-.59.38-.3-.67c-.12-.23-.25-.46-.38-.69v3.23.88s0 .65.06 1h-.75c0-.37.06-.7.07-1s0-.6 0-.88v-3.37c-.08.25-.16.48-.25.69s-.18.42-.28.62l-.32.61-.39.64a1 1 0 0 0 -.52-.46 6.84 6.84 0 0 0 .58-.75 8.66 8.66 0 0 0 .47-.79 8.76 8.76 0 0 0 .39-.87c.11-.3.22-.64.32-1zm3.4 4.44c.08 0 .11.07.1.12s0 .07-.12.09a.37.37 0 0 0 -.19.12l-.25.26-.2.23-.26.28-.3.29c-.11.1-.2.19-.3.27a1.12 1.12 0 0 0 -.19-.24.85.85 0 0 0 -.3-.18 6.14 6.14 0 0 0 .55-.4 4.81 4.81 0 0 0 .4-.36 3.47 3.47 0 0 0 .3-.37 3.74 3.74 0 0 0 .27-.46l.23.21a1.26 1.26 0 0 0 .26.14zm.17-5.84h-1-.41-.41v-.63l.57.05h.61 3.29.6l.57-.05v.63c-.28 0-.56 0-.85-.06h-1.07v.79h1a5 5 0 0 0 .54-.05 1.83 1.83 0 0 0 0 .21v.17a1.27 1.27 0 0 0 0 .2v.8.51s0 .26 0 .4h-.34l-.45.03h-3.32-.48-.35c0-.06 0-.13 0-.19s0-.12 0-.19v-1.03c0-.18 0-.32 0-.43s0-.24 0-.4a5.06 5.06 0 0 0 .53.05h1zm.72 5.22h-1.46-.56-.52v-.59h.58.64 3.4.6.56v.59h-.53-.57-1.55v2a1.27 1.27 0 0 1 0 .37.42.42 0 0 1 -.21.25 1 1 0 0 1 -.45.16 5.26 5.26 0 0 1 -.76 0 1.06 1.06 0 0 0 0-.33 1.2 1.2 0 0 0 -.19-.3 3.88 3.88 0 0 0 .58.07.84.84 0 0 0 .34 0 .28.28 0 0 0 .15-.15.9.9 0 0 0 0-.25zm2.66-1.1h-.45-.5-2.71-.51-.45v-.61h.45.51.6 1.5.61.5.45zm-3.38-2.87h-.91v1.23h.91zm.52-1.25v.79h.87v-.79zm0 2.48h.87v-1.2h-.87zm1.4 0h.9v-1.2h-.9zm1.42 4.91a5.43 5.43 0 0 0 -.57-.74 8.59 8.59 0 0 0 -.8-.79l.4-.36c.25.23.5.46.72.69s.47.49.72.78z" fill="#363736"/><path d="m74.09 42.57h2.24c.61 0 1.16 0 1.65-.08v.66c-.49 0-1-.07-1.65-.08h-2.24v1.13.47.52h-.7c0-.17 0-.33 0-.48s0-.33 0-.51v-1.2h-2.38c-.65 0-1.23 0-1.74.08v-.66q.77.08 1.74.09h2.38c0-.26 0-.47 0-.61s0-.27 0-.39a2.43 2.43 0 0 0 .4.06 1.16 1.16 0 0 0 .32 0c.09 0 .14 0 .15.08s0 .11-.09.16 0 0 0 .06a.53.53 0 0 0 0 .11 1 1 0 0 0 0 .2 3.33 3.33 0 0 0 -.08.39zm-3.09-3.65c-.13-.12-.24-.23-.35-.32s-.21-.18-.31-.25l-.34-.22-.4-.23.31-.44c.29.18.54.34.76.5s.45.34.7.55zm1 .64-.47.58-.39.5c-.12.17-.26.35-.4.53l-.52.67a2.63 2.63 0 0 0 -.25-.29 1.57 1.57 0 0 0 -.33-.21 5.32 5.32 0 0 0 1-.92 7.74 7.74 0 0 0 .87-1.26 1.06 1.06 0 0 0 .23.24 1 1 0 0 0 .26.16zm-.59-2.09-.32-.33-.31-.28-.33-.26-.4-.24.32-.44.4.29.35.26.34.26.36.29zm3.92-.47a4.4 4.4 0 0 0 -.35-.39 4.76 4.76 0 0 0 -.44-.36l.31-.37.24.21.21.18.21.19.22.22-.36.32h1.69.41.26v.51h-.24-1.92v.85h1.62a1.3 1.3 0 0 0 .22 0v.54h-.22-1.62v.77h1.28.35.23v.33h-.23-1.63v.84h1.64.46.28v.54h-.31-4.42v.32h-.68c0-.21.06-.42.08-.61a5.49 5.49 0 0 0 0-.58v-2.29c-.08.12-.17.23-.26.35l-.29.37a.78.78 0 0 0 -.24-.27 1.27 1.27 0 0 0 -.35-.17l.32-.25a3.44 3.44 0 0 0 .3-.25c.09-.1.18-.22.28-.35l.36-.53a4.7 4.7 0 0 0 .37-.68 4.26 4.26 0 0 0 .22-.63l.32.16a2 2 0 0 0 .23.1c.13.05.18.1.17.14a.35.35 0 0 1 -.18.15.19.19 0 0 0 -.07.06.35.35 0 0 0 -.09.11l-.13.19-.18.28zm-2.11.43v.85h1.78v-.85zm0 1.29v.77h1.78v-.77zm1.78 1.2h-1.78v.84h1.78z" fill="#363736"/><path d="m84 44a1.06 1.06 0 0 1 -.08.43.58.58 0 0 1 -.3.25 2.11 2.11 0 0 1 -.6.12c-.25 0-.57 0-1 0a1.06 1.06 0 0 0 0-.45 1.36 1.36 0 0 0 -.23-.39 5.32 5.32 0 0 0 .79.14 1.35 1.35 0 0 0 .48 0 .37.37 0 0 0 .24-.18.8.8 0 0 0 .06-.34v-2h-2.31c-.66 0-1.25 0-1.76.08v-.72c.51 0 1.1.07 1.76.08s1.43 0 2.31 0v-.7l1.6-1.2h-3c-.26 0-.55 0-.86 0v-.6h.47 4.29.46v.56l-.17.05-.21.08-.21.11-.18.1-1.55 1.22v.36h2.28s1.22 0 1.72-.08v.72c-.51 0-1.08-.06-1.72-.08h-2.28zm-.76-7a3.75 3.75 0 0 0 -.34-.36 5.41 5.41 0 0 0 -.43-.35l.55-.51c.23.26.43.48.58.67s.28.38.41.55h2.29.68a4.63 4.63 0 0 0 .54 0v1.78h-.62v-1.32h-6.66v1.41h-.6v-2a4.8 4.8 0 0 0 .55 0h.7 2.37z" fill="#363736"/><path d="m93.39 42.7h-1-.8-.65-.55v-.67h.55.65.8 1c0-.29 0-.52 0-.67a4.05 4.05 0 0 0 -.05-.42l.41.05h.35c.11 0 .17 0 .18.07s0 .1-.14.17a.32.32 0 0 0 -.09.15.45.45 0 0 0 0 .2v.44h1 .83.67.56v.67c-.35 0-.78-.06-1.29-.08s-1.11 0-1.8 0v1.39h1.27 1.06.9l.8-.06v.73h-.85-1-1.14-2.78-1.14-1-.86v-.73l.81.06h.91 1.07 1.28zm-2.24-5.7h-.63-.52v-.57c.27 0 .6 0 1 .06h1.31 1.32c.36 0 .68 0 1-.06v.57c-.29 0-.64-.05-1-.06v1.59h.76.29.29v.6h-.29-.29-.89v.62s0 .33 0 .48v.41.42h-.73c0-.14 0-.29 0-.42s0-.28 0-.42 0-.3 0-.48v-.61h-1.14a3.89 3.89 0 0 1 -.15.77 3 3 0 0 1 -.26.63 3.45 3.45 0 0 1 -.38.56 6.44 6.44 0 0 1 -.52.54 1.78 1.78 0 0 0 -.64-.42 3.81 3.81 0 0 0 .53-.38 2.85 2.85 0 0 0 .41-.44 2.3 2.3 0 0 0 .28-.54 4.11 4.11 0 0 0 .17-.71h-.78-.65v-.6h.32.31.86c0-.22 0-.46 0-.72s.03-.47.02-.82zm1.85 0h-1.31v.88s0 .51 0 .73h1.31zm2.88 0a.31.31 0 0 0 -.11.27v1.6.69s0 .51 0 .74h-.66c0-.12 0-.23 0-.33s0-.21 0-.32 0-.23 0-.35v-1.5c0-.25 0-.47 0-.64a3 3 0 0 0 -.06-.47 1.8 1.8 0 0 0 .35.07 1.06 1.06 0 0 0 .31 0h.15s.14.16.02.24zm1.71-.64a.3.3 0 0 0 -.13.27v3.82a2.21 2.21 0 0 1 0 .48.6.6 0 0 1 -.2.32 1.15 1.15 0 0 1 -.43.19 3.85 3.85 0 0 1 -.78.07 1 1 0 0 0 0-.35.87.87 0 0 0 -.21-.34 4.33 4.33 0 0 0 .58.08.81.81 0 0 0 .34 0 .33.33 0 0 0 .16-.17.87.87 0 0 0 0-.3v-2.76c0-.35 0-.68 0-1s0-.52-.06-.66a3.08 3.08 0 0 0 .35.07 1 1 0 0 0 .34 0c.09 0 .15 0 .17.08s-.06.12-.13.16z" fill="#363736"/><path d="m54.56 34.75h.84v11.26h-.84z" fill="#363736"/><path d="m403.43 40.64c-.09.17-.21.39-.35.67s-.28.58-.43.91l-.48 1-.45 1a1.5 1.5 0 0 0 -.33-.26 3.35 3.35 0 0 0 -.38-.18 14.83 14.83 0 0 0 1.83-3.66 1.56 1.56 0 0 0 .28.29 1.29 1.29 0 0 0 .31.23zm-.43-1.35a14 14 0 0 0 -.86-1.26 8 8 0 0 0 -.87-1l.47-.45.47.53.49.57.46.59.41.54zm3.47 2a4.51 4.51 0 0 1 -.94 2.06 6.2 6.2 0 0 1 -2.18 1.65 1.84 1.84 0 0 0 -.27-.34 1.92 1.92 0 0 0 -.38-.25 4.68 4.68 0 0 0 2.63-1.89 5.68 5.68 0 0 0 .7-3.42 3.83 3.83 0 0 0 .42.08 2.34 2.34 0 0 0 .38 0c.1 0 .14 0 .14.07a.22.22 0 0 1 -.12.14.54.54 0 0 0 -.13.28 6.12 6.12 0 0 0 -.14.6 6.28 6.28 0 0 0 .52 1.45 5 5 0 0 0 .74 1.08 5.13 5.13 0 0 0 1 .83 10.4 10.4 0 0 0 1.2.65 1.2 1.2 0 0 0 -.33.25 2.88 2.88 0 0 0 -.3.39 6 6 0 0 1 -1.08-.73 6.33 6.33 0 0 1 -.85-.87 5.42 5.42 0 0 1 -.62-1 5.1 5.1 0 0 1 -.44-.99zm-1.18-3c-.12.32-.27.66-.44 1a10.22 10.22 0 0 1 -.51.95 1.85 1.85 0 0 0 -.38-.18l-.39-.09a6.21 6.21 0 0 0 1.13-1.84 10.15 10.15 0 0 0 .58-2.25 3.54 3.54 0 0 0 .39.13 2 2 0 0 0 .39.07c.1 0 .16 0 .16.09s-.05.1-.14.15l-.08.08a2.17 2.17 0 0 0 -.11.22l-.17.43c-.07.18-.15.42-.25.71h2.06 1.08c.37 0 .7 0 1-.08l-.86 2.23-.65-.16.59-1.45z" fill="#363736"/><path d="m414.11 37h-.81-.83-.73-.49v-.61a4.59 4.59 0 0 0 .48 0h.81 1.23 3.36 1.17.83.56v.61h-1.15-1.75v.84h1.21 1v.53s0 .46 0 .69 0 .56 0 .75 0 .35 0 .48h-.72-3.37a1 1 0 0 0 .2.13.78.78 0 0 0 .21.09q.17.06.15.12c0 .05-.06.09-.17.13h-.06l-.09.07a1.16 1.16 0 0 0 -.13.15l-.19.24h4.82.44v.56h-.87-1.28a8.51 8.51 0 0 1 -.73 1 5.15 5.15 0 0 1 -.78.77l1.34.48c.45.16.93.35 1.45.56a1.69 1.69 0 0 0 -.2.25 2.45 2.45 0 0 0 -.18.33l-.79-.37-.73-.33-.7-.28-.71-.27a6.51 6.51 0 0 1 -.83.44 7 7 0 0 1 -1 .34q-.53.15-1.17.27c-.42.07-.89.14-1.39.2a1.49 1.49 0 0 0 -.14-.37 1.19 1.19 0 0 0 -.28-.35 8.82 8.82 0 0 0 4.13-.73l-1.11-.32-1.34-.36c.18-.18.36-.38.54-.59s.36-.44.54-.68h-2.38-.47v-.56h.57 2.6c.11-.17.21-.34.3-.5s.17-.32.24-.47h-1.55-1.17c0-.15 0-.34 0-.55s0-.44 0-.67 0-.45 0-.66 0-.4 0-.56h1 1.18zm0 1.3h-1.5v1.45h1.5zm.32 3.33-.32.43-.41.54 1.09.32 1 .31a4.18 4.18 0 0 0 1.38-1.6zm.25-4.63v.84h1.55v-.84zm0 2.75h1.55v-1.45h-1.55zm2.11 0h1.53v-1.45h-1.53z" fill="#363736"/><path d="m425.86 44a.91.91 0 0 1 -.09.43.51.51 0 0 1 -.3.25 2 2 0 0 1 -.59.12c-.25 0-.58 0-1 0a1.06 1.06 0 0 0 0-.45 1.36 1.36 0 0 0 -.23-.39 5.32 5.32 0 0 0 .79.14 1.4 1.4 0 0 0 .48 0 .33.33 0 0 0 .23-.18.66.66 0 0 0 .07-.34v-2h-2.32c-.65 0-1.24 0-1.75.08v-.72c.51 0 1.1.07 1.75.08s1.43 0 2.32 0v-.7l1.6-1.2h-3.05c-.27 0-.56 0-.86 0v-.6h.46 4.29.47v.56a.83.83 0 0 0 -.18.05l-.21.08-.21.11a1.28 1.28 0 0 0 -.17.1l-1.51 1.15v.43h2.28s1.22 0 1.72-.08v.72c-.51 0-1.08-.06-1.73-.08h-2.27zm-.76-7a3.75 3.75 0 0 0 -.34-.36 5.41 5.41 0 0 0 -.43-.35l.55-.51c.23.26.42.48.57.67l.42.55h2.28.68a4.8 4.8 0 0 0 .55 0v1.78h-.64v-1.32h-6.66v1.41h-.6v-2a4.8 4.8 0 0 0 .55 0h.69 2.38z" fill="#363736"/><path d="m435.23 42.7h-1-.8-.65-.55v-.67h.55.65.8 1c0-.29 0-.52 0-.67s0-.3 0-.42l.41.05h.35c.11 0 .17 0 .17.07s0 .1-.13.17a.44.44 0 0 0 -.1.15.64.64 0 0 0 0 .2v.44h1 .83.67.56v.67c-.36 0-.79-.06-1.3-.08s-1.11 0-1.79 0v1.39h1.27 1 .9l.81-.06v.73h-.86-1-1.14-2.79-1.14-1-.85v-.73l.9.06h.91 1.06 1.29zm-2.23-5.7h-.64-.51v-.57q.41 0 1 .06h1.31 1.31c.37 0 .68 0 1-.06v.57c-.29 0-.64-.05-1-.06v1.59h.76.28.3v.6h-.3-.28-.76v.62.48s0 .28 0 .41 0 .28.05.42h-.73c0-.14 0-.29 0-.42v-.42c0-.15 0-.3 0-.48s0-.37 0-.61h-1.32a4.78 4.78 0 0 1 -.15.77 3 3 0 0 1 -.26.63 4.24 4.24 0 0 1 -.38.56 6.44 6.44 0 0 1 -.52.54 1.87 1.87 0 0 0 -.64-.42 4.51 4.51 0 0 0 .53-.38 2.38 2.38 0 0 0 .4-.44 2 2 0 0 0 .29-.54 4.11 4.11 0 0 0 .17-.71h-.79-.64v-.6h.31.31.9q0-.33 0-.72c0-.18 0-.47 0-.82zm1.8 0h-1.26v.88s0 .51 0 .73h1.27zm2.93-.07a.29.29 0 0 0 -.11.27v1.6.69s0 .51.05.74h-.67q0-.18 0-.33c0-.11 0-.21 0-.32s0-.23 0-.35 0-.27 0-.43v-1c0-.25 0-.47 0-.64s0-.33-.06-.47a1.8 1.8 0 0 0 .35.07 1.06 1.06 0 0 0 .31 0h.14s.05.16-.02.24zm1.71-.64a.28.28 0 0 0 -.13.27v3.82a2.14 2.14 0 0 1 -.05.48.59.59 0 0 1 -.19.32 1.21 1.21 0 0 1 -.44.19 3.74 3.74 0 0 1 -.77.07 1.3 1.3 0 0 0 0-.35 1 1 0 0 0 -.21-.34 4.13 4.13 0 0 0 .58.08.81.81 0 0 0 .34 0 .33.33 0 0 0 .16-.17 1.21 1.21 0 0 0 0-.3v-2.69c0-.35 0-.68 0-1a6.41 6.41 0 0 0 0-.66l.35.07a1 1 0 0 0 .34 0c.09 0 .15 0 .16.08s-.08.12-.15.16z" fill="#363736"/><path d="m396.4 34.75h.84v11.26h-.84z" fill="#363736"/><path d="m97.43 86.67a10.17 10.17 0 0 1 .15 1.52v1.38c0 .12 0 .15.07.15a26.68 26.68 0 0 1 -3.59-.15 2.81 2.81 0 0 1 -.31-1.45 8.31 8.31 0 0 1 .25-1.45c.54-.08 1.84-.16 3.83-.23a.39.39 0 0 0 -.38.23m1.49-7.45a6.77 6.77 0 0 1 -1.08 2.51 5.9 5.9 0 0 1 -3.78-1.67c.23-.92.54-1.84.84-2.68a10.88 10.88 0 0 1 4 1.84m.68 17a8.4 8.4 0 0 1 -3.75 2.45 9.69 9.69 0 0 1 -1.41-2.52 27.63 27.63 0 0 1 3.9-2.52 9.52 9.52 0 0 1 1.26 2.59m6.88-19.11c-.76.89-1.56 1.89-2.48 2.89 0 .15.61.23 1.84.23a2.79 2.79 0 0 1 -.39-.77 12.39 12.39 0 0 1 2-.38 9.26 9.26 0 0 1 1.13 2.92c0 .26-1.14.42-3.36.42.08.68.12 1.29.15 1.87.35-.54.65-1 1-1.57a23.52 23.52 0 0 1 2.63 1.61 7.83 7.83 0 0 1 -1.19 2.11 8.56 8.56 0 0 1 -2.37-1.38c0 1 .08 2 .08 2.91a2.57 2.57 0 0 1 -1.3.26 4.54 4.54 0 0 1 -1.26-.15c-.12-1.18-.19-2.37-.27-3.52a14.91 14.91 0 0 1 -1.91 2.3 3.19 3.19 0 0 1 -2.1-1.15 15.15 15.15 0 0 1 1.91-2.83 4.87 4.87 0 0 1 2.03 1.12c0-.61-.07-1.18-.07-1.79a4.7 4.7 0 0 1 -2.76-1.11c.46-.69 1-1.38 1.53-2a13.9 13.9 0 0 1 -2.67-2.75c1.57-1.64 3.25-3.4 5-5.24a5.77 5.77 0 0 1 1.9 1.91c-.91 1.19-1.83 2.34-2.82 3.44a3.66 3.66 0 0 0 .49.42 15.12 15.12 0 0 1 1.11-1.14 18.79 18.79 0 0 1 2.1 1.41m9.6 17.05a5 5 0 0 1 -.54 2.22 34.12 34.12 0 0 1 -7.49-1.19c-.08.53-.19 1.07-.3 1.57 3.66.26 7.34.69 11 1.26a15.18 15.18 0 0 1 -1.31 6 10.35 10.35 0 0 1 -2.59.23 5.59 5.59 0 0 1 -1.27-.19v-1.57a3.57 3.57 0 0 1 1.34-.38v-1.69a63.07 63.07 0 0 1 -10.63-1.29 19.33 19.33 0 0 1 .58-4.7 2.72 2.72 0 0 1 -.61-.16 7.65 7.65 0 0 1 .53-2.29c3.75.53 7.53 1.22 11.32 2.1m5.31-4.24a16 16 0 0 1 -.42 2.86 21.77 21.77 0 0 1 -1.16 3.26 16.34 16.34 0 0 1 -3-.49c.23-1.07.5-2.07.73-3-3.4-.39-7.64-1-12.69-1.76a5.54 5.54 0 0 1 -.12-1.22 8.07 8.07 0 0 1 .23-1.27 155.64 155.64 0 0 1 16.44 1.65m-10.12-16.91a5.73 5.73 0 0 1 .23-1.76c.46 0 1-.07 1.49-.15a6.14 6.14 0 0 1 1.41.19 18 18 0 0 1 -.15 2c.88.08 1.72.19 2.56.3a15.54 15.54 0 0 1 -.26 2.41 46.79 46.79 0 0 1 -8.79-.84 9.15 9.15 0 0 1 .3-2.48c1.07.07 2.14.19 3.21.3m4 6.35a10.61 10.61 0 0 1 -.08 1.07 3.3 3.3 0 0 1 -.22 1.15c-1 0-2.06 0-3.1 0s-2.14 0-3.25-.12a17.55 17.55 0 0 1 .27-2.29c2.22.07 4.32.15 6.38.23m-.49-3c0 .34.07.68.07 1.07v1a19.51 19.51 0 0 1 -3.06.15 24.14 24.14 0 0 1 -2.56-.07 2.35 2.35 0 0 1 -.19-1 4 4 0 0 1 .16-1 25.19 25.19 0 0 1 2.71-.15c1.22 0 2.18 0 2.87.08m1.41 11a19.71 19.71 0 0 1 -6 .87 13.84 13.84 0 0 1 -1-5.42 30.72 30.72 0 0 1 6.45-.77 24.42 24.42 0 0 1 .58 5.32m-2.41-1.61-.45-1.64-1.57.3.49 1.76zm11-8.79c-.76.91-1.64 1.91-2.64 2.91 0 .15.62.18 1.88.18a2.2 2.2 0 0 1 -.28-.84 19.92 19.92 0 0 1 2.08-.42 11.69 11.69 0 0 1 1.1 3c0 .31-1.38.42-4.13.42.15 1.72.22 3.44.22 5.2a2.27 2.27 0 0 1 -1.26.27 6.41 6.41 0 0 1 -1.26-.11c-.11-1.19-.19-2.37-.27-3.56a10.87 10.87 0 0 1 -1.68 2 3.4 3.4 0 0 1 -2.1-1.15 10.74 10.74 0 0 1 1.8-2.63 4.59 4.59 0 0 1 1.94 1c0-.46-.07-.88-.07-1.26a4.36 4.36 0 0 1 -2.26-.95c.39-.54.85-1.11 1.3-1.68a14.54 14.54 0 0 1 -2.56-2.87c1.42-1.61 3-3.29 4.59-5.09a5.81 5.81 0 0 1 1.91 1.91c-.77 1.15-1.57 2.22-2.37 3.29a2.5 2.5 0 0 0 .46.46c.46-.46 1-1 1.49-1.45a21.13 21.13 0 0 1 2.14 1.45m1.91 6.88a7.86 7.86 0 0 1 -1.18 2.1 7 7 0 0 1 -2.33-1.45l1.3-2.1a25 25 0 0 1 2.21 1.45"/><path d="m177.51 70.21c-.73 2.22-2.35 4.08-3 6.27.51.08 6.58-.13 6.58-.07a21.75 21.75 0 0 0 -.19-2.31 25.12 25.12 0 0 0 3.14-.37 34.57 34.57 0 0 1 1 5.63c-1 .74-3.41 1.06-7.32 1.06-2.23 0-4.92.39-7.07-.3-3.59-1.16.08-5.1 1-6.9.47-.92 1.17-3.41 2.07-3.94s3 .45 3.83.93m-3.75 12.52c0 .55-.1 1.52-.19 2.9 1.58.14 3.09.33 4.57.56 0 .46 0 1-.09 1.47a3.69 3.69 0 0 1 -.33 1.52c-1 0-2.07 0-3.13-.13a6.33 6.33 0 0 1 -1.34-.14 4.56 4.56 0 0 0 -.09.78v.32c1.48.09 3 .19 4.34.33 0 .46-.05 1-.1 1.47a4.34 4.34 0 0 1 -.37 1.52c-1 0-2 0-3-.09a10.35 10.35 0 0 1 -1.21-.09c-.18 1.2-.41 2.4-.64 3.5a18.43 18.43 0 0 1 -3.23-.27 94.43 94.43 0 0 1 1.48-14.07 14 14 0 0 1 3.41.42m3.24 16c.59 1.18-.85 3.87-1.49 4.76-1 1.33-4 .89-4.21-.81-.13-1 1.11-2.88 1.56-3.84s.51-1.35 1.68-1.24a5.22 5.22 0 0 1 2.38 1 .64.64 0 0 1 .08.14m7.83-16c0 6.08-.23 11.06-.61 15-3.22 0-5.16-.28-5.84-.84a22.58 22.58 0 0 1 .08-2.3 19.78 19.78 0 0 1 2.44.18c.1-3.14.19-6.18.24-9.13a21.52 21.52 0 0 1 -5.31-1 5.73 5.73 0 0 1 -.18-1.53 7.49 7.49 0 0 1 .23-1.38 44.3 44.3 0 0 1 9 1m-.57 16.84a1.8 1.8 0 0 1 .31 1c.08 2.17.25 3.68-2.19 3.68-1.55 0-2.06-1.24-2-2.58 0-2 .66-2.32 2.42-2.54a1.54 1.54 0 0 1 1.51.47m7.81-30v3c.64 0 1.38 0 2.21-.09 3.18 0 5.67 0 7.47.09a8.71 8.71 0 0 1 .18 1.71v1.52a53.09 53.09 0 0 1 -7.79.37c-.83 0-1.48 0-2 0v2.53c3.09.09 6.23.19 9.46.37v1.53a12.83 12.83 0 0 1 -.09 1.74c-.93.1-3.28.1-7 .1a28 28 0 0 1 -6.31-.51c0-3.82.09-8 .32-12.41a13.2 13.2 0 0 0 1.71-.09 12.23 12.23 0 0 1 1.89.19m.72 33.27a2.12 2.12 0 0 1 -2.75 1.11c-.82-.39-1.69-2.69-1.5-3.53.28-1.28 2.79-2 3.7-.88a5.55 5.55 0 0 1 .49 2.37 1.63 1.63 0 0 1 -.17.77m-.31-18.93v2.86c.64 0 1.38 0 2.21-.09h5.91a10.29 10.29 0 0 1 .18 1.7v1.57a32.67 32.67 0 0 1 -6.23.42c-.83 0-1.47 0-2 0v2.31c2.21.09 4.43.27 6.74.46v1.61a12.19 12.19 0 0 1 -.1 1.89c-.5 0-1.75 0-3.78 0a32.83 32.83 0 0 1 -6.83-.51c0-3.78.05-7.89.23-12.31a11.82 11.82 0 0 0 1.71-.1 13.3 13.3 0 0 1 1.89.19m8.14 18.77a1.8 1.8 0 0 1 -.56.48c-1.7 1.21-3-.14-3.51-1.75s.61-3.3 2.53-2.5a3.93 3.93 0 0 1 1.63 2.94 1.78 1.78 0 0 1 -.09.83"/><path d="m155.65 94.41v1.26c-6.73.62-13.45.92-20.26.92a12.4 12.4 0 0 1 -.26-2.71c2.75-.15 5.61-.31 8.52-.38 0-.65-.08-1.3-.08-2-2.29.11-4.54.15-6.8.15a10.48 10.48 0 0 1 -.27-2.56c2.25-.15 4.58-.27 7-.38 0-.69-.08-1.34-.08-2h-2.25c-2.1 0-6.59 1.13-7.8-1.15-.88-1.68-.46-5.11-.45-7 0-.61-.34-2.76 0-3.22a4.74 4.74 0 0 1 2.7-.39c1.26.68.39 5.23.36 6.43s.12 1.78 1.48 2c.55.1 5.92.15 5.93.18-.08-2.22-.12-4.47-.12-6.73a19.11 19.11 0 0 1 -3.63-.38c0-1-.31-2.5.74-2.86 2-.7 5.5.34 7.62.47 1.45.09 2.91.19 4.36.3.47 0 4.15 0 4.29.37a14.84 14.84 0 0 1 .57 5.09c0 2.14-.08 4.08-.15 5.84-.35.54-3.83.85-10.4.92v1.91c2.44-.07 4.93-.11 7.46-.15a11.2 11.2 0 0 1 .07 1.14v1.19c-2.52.27-5 .46-7.49.57v2c2.9-.08 5.89-.11 8.9-.15a9.24 9.24 0 0 1 .08 1.18m-18 4.06a1.7 1.7 0 0 1 .1.85c-.06.92-.34 2.55-1.11 3.16s-2.63.36-3.05-.39c-.65-1.18.32-2.67.9-3.65.7-1.23 1.15-1.41 2.43-.6a1.89 1.89 0 0 1 .73.63m4.16-16.33a4.84 4.84 0 0 1 -2.56.8 6.42 6.42 0 0 1 -1.91-3.8 14 14 0 0 1 2.48-.69 6.79 6.79 0 0 1 2 3.67m2.56 16.8c1 1.14.35 3.92-1.56 3.92-1.35 0-1.57-.23-1.54-1.49.05-1.67.06-2.91 2-2.91a1.43 1.43 0 0 1 1.11.48m2.14-15.08c3.18 0 5.55-.07 7.07-.15a54.74 54.74 0 0 0 -.34-5.93c-2.3-.07-4.59-.19-6.8-.38 0 2.18.07 4.32.07 6.46m5 18c0 .14-.2.27-.47.47a2.17 2.17 0 0 1 -2.3.09c-.65-.54-1.66-2.38-1.23-3.24a3.15 3.15 0 0 1 2.7-.81c.77.33 1.06 1.88 1.21 2.62.09.45.2.66.09.87m.82-22.32a11.36 11.36 0 0 1 -2.39 3.22 6.82 6.82 0 0 1 -2.48-1.11 14.93 14.93 0 0 1 2.48-3.17 6.62 6.62 0 0 1 2.34 1m5.16 21.8a1.5 1.5 0 0 1 -.51.39c-1.87 1.17-3.16-.34-2.88-2.27.45-3.06 3.35-.84 3.46 1.21 0 .36 0 .53-.07.67"/><path d="m137.7 98.47a1.7 1.7 0 0 1 .1.85c-.06.92-.34 2.55-1.11 3.16s-2.63.36-3.05-.39c-.65-1.18.32-2.67.9-3.65.7-1.23 1.15-1.41 2.43-.6a1.89 1.89 0 0 1 .73.63" fill="#fff"/><path d="m135.49 103.71a3 3 0 0 1 -2.65-1.18c-.86-1.55.13-3.23.77-4.34l.13-.21a2.48 2.48 0 0 1 2-1.55 3.22 3.22 0 0 1 1.7.63 2.71 2.71 0 0 1 1 1 2.39 2.39 0 0 1 .22 1.34c0 .67-.27 2.88-1.45 3.83a3 3 0 0 1 -1.72.48zm.27-5.45a3.52 3.52 0 0 0 -.43.64l-.13.22c-.47.79-1.11 1.88-.75 2.52a2 2 0 0 0 1 .23 1.34 1.34 0 0 0 .63-.11 4.37 4.37 0 0 0 .77-2.5 1.86 1.86 0 0 0 0-.37 3.1 3.1 0 0 0 -.41-.28 1.86 1.86 0 0 0 -.68-.35z"/><path d="m75.41 66.8c.14.11-4.82 6.28-5.19 6.79-1.13 1.55-2.75 2.78-3.82 4.35s.11 1.8 1.64 2c1 .13 14 1 14 1.09a15.9 15.9 0 0 1 -.46 3.4c-9.17-.14-14.94-.37-17.33-.74-1.34-.15-6-.06-5.6-2.18.13-.72 1.34-1.73 1.75-2.34.8-1.17 1.56-2.33 2.43-3.45 2.29-3 5.32-6.79 9.13-11.42a22.08 22.08 0 0 1 3.43 2.48m10.94 22.16a25.46 25.46 0 0 1 .46 6c0 3-.1 5.23-.19 6.6a65 65 0 0 1 -10.82.64 56.42 56.42 0 0 1 -10.73-1 18 18 0 0 1 -.73-6.18c0-1.1 0-3.21.09-6.23.45-.09 1-.23 1.79-.32a6.41 6.41 0 0 1 1.83.32c0 1.23.1 4.31.32 9.21 4.77.32 9.54.46 14.31.46a15.52 15.52 0 0 0 .34-3.44 15.11 15.11 0 0 0 -.23-2.34c-5.32-.37-8.62-.64-9.91-.87a5.35 5.35 0 0 1 -.27-2.07c.05-.55.09-1.1.09-1.69a110.36 110.36 0 0 1 13.67 1m4.35-8.39a7 7 0 0 1 -3.21 1.92 46.19 46.19 0 0 1 -4.33-6.56 12.62 12.62 0 0 1 3.17-1.83c1.51 2 3 4.17 4.35 6.42"/><path d="m76.69 147.09q.06 4.26.12 8.4c2.39.08 4.81.13 7.32.21a21.3 21.3 0 0 1 -.25 3.18c-2.38 0-4.73 0-7-.08v3.8c0 1.3 0 2.55-.12 3.72 3.68-.08 7.4-.12 11.16-.17a14.18 14.18 0 0 1 .09 1.43v1.5c-9 .67-17.94 1-27 1a13 13 0 0 1 -.33-3.17c4-.17 8.07-.34 12.25-.47a19.86 19.86 0 0 1 -.29-3.55c0-1.34 0-2.72.08-4.14-3.34-.08-6.64-.21-9.91-.37v-1.8a11.36 11.36 0 0 0 .09-1.3q4.58 0 9.91.13.12-4.14.38-8.28a8.83 8.83 0 0 1 1.62-.42 4.53 4.53 0 0 1 1.88.38z" fill="#231815"/><path d="m86.89 141.94v1.55a7 7 0 0 1 -.13 1.63c-10.2 0-18.35-.17-24.5-.58a3.21 3.21 0 0 1 -.26-1.54 10.09 10.09 0 0 1 .33-1.8c8.21-.05 16.4.24 24.56.74z" fill="#231815"/><path d="m105.53 152c.26 0-.24 6.65-.28 7.24 0 .83-.63 3-.08 3.64.73.87 2.83.58 3.85.63 1.82.1 3.63.2 5.46.2 7.23 0 12.12-.21 14.68-.67a18 18 0 0 1 .29 2.84c-2.22.92-7.07 1.34-14.56 1.34-2.57 0-5.13-.11-7.7-.28-1.4-.09-3.72.27-4.94-.57-1.66-1.15-1.06-4.27-.91-5.93 0-.66.63-8.52.68-8.52l1.88-.17zm13.76-10c.41 6.1.67 12.71.67 19.86a5.23 5.23 0 0 1 -1.89.21h-1.79c-.42-7.19-.59-13.84-.59-20a16 16 0 0 1 1.8-.37 4.54 4.54 0 0 1 1.8.3zm14.8 20a6.32 6.32 0 0 1 -3.09.55 29.82 29.82 0 0 1 -1.35-9.45c1.14-.17 2.22-.25 3.27-.34a54 54 0 0 1 1.17 9.24z" fill="#231815"/><path d="m189.69 154.41a10.59 10.59 0 0 1 .17 1.67v1.5c0 .13 0 .17.08.17a29.14 29.14 0 0 1 -3.93-.17 3.1 3.1 0 0 1 -.33-1.59 7.92 7.92 0 0 1 .25-1.58c.58-.09 2-.17 4.18-.26a.46.46 0 0 0 -.42.26zm1.63-8.16a7.06 7.06 0 0 1 -1.17 2.76 6.45 6.45 0 0 1 -4.14-1.84c.25-1 .59-2 .92-2.93a11.81 11.81 0 0 1 4.39 2.01zm.75 18.57a9.31 9.31 0 0 1 -4.1 2.67 10.35 10.35 0 0 1 -1.54-2.76 32 32 0 0 1 4.26-2.76 10.25 10.25 0 0 1 1.38 2.85zm7.53-20.91c-.83 1-1.71 2.09-2.72 3.18 0 .17.67.25 2 .25a3.3 3.3 0 0 1 -.42-.84 13 13 0 0 1 2.18-.42 10.2 10.2 0 0 1 1.25 3.18c0 .3-1.25.46-3.68.46.09.75.13 1.42.17 2.05.38-.58.71-1.13 1-1.71a24.46 24.46 0 0 1 2.89 1.79 8.3 8.3 0 0 1 -1.3 2.3 9.12 9.12 0 0 1 -2.59-1.5c0 1.08.09 2.17.09 3.18a2.8 2.8 0 0 1 -1.43.29 4.66 4.66 0 0 1 -1.38-.17c-.12-1.29-.21-2.59-.29-3.85a15 15 0 0 1 -2.09 2.51 3.42 3.42 0 0 1 -2.3-1.25 16.88 16.88 0 0 1 2.09-3.1 5.35 5.35 0 0 1 2.26 1.18c0-.67-.09-1.3-.09-2a5.15 5.15 0 0 1 -3-1.21 27.51 27.51 0 0 1 1.76-2.23 15.46 15.46 0 0 1 -2.93-3c1.71-1.8 3.56-3.72 5.52-5.73a6.32 6.32 0 0 1 2.09 2.09c-1 1.3-2 2.55-3.09 3.77a5.73 5.73 0 0 0 .54.46c.42-.46.79-.88 1.21-1.26a18.91 18.91 0 0 1 2.26 1.58zm10.5 18.65a5.4 5.4 0 0 1 -.59 2.42 36.73 36.73 0 0 1 -8.24-1.21c-.08.59-.2 1.17-.33 1.72q6 .44 12 1.38a16.71 16.71 0 0 1 -1.42 6.56 11.09 11.09 0 0 1 -2.84.25 5.58 5.58 0 0 1 -1.38-.21v-1.71a3.85 3.85 0 0 1 1.46-.42v-1.84a69.33 69.33 0 0 1 -11.62-1.42 21.46 21.46 0 0 1 .62-5.14 3.73 3.73 0 0 1 -.66-.17 8.43 8.43 0 0 1 .58-2.51c4.14.58 8.32 1.34 12.42 2.3zm5.81-4.64a18.14 18.14 0 0 1 -.46 3.13 22.81 22.81 0 0 1 -1.3 3.52 17.63 17.63 0 0 1 -3.26-.55c.25-1.17.54-2.26.8-3.26-3.72-.42-8.37-1-13.89-1.92a6.67 6.67 0 0 1 -.12-1.34 7.42 7.42 0 0 1 .25-1.38 169.69 169.69 0 0 1 17.98 1.8zm-11.08-18.49a6 6 0 0 1 .25-1.92c.5 0 1-.08 1.63-.17a6.72 6.72 0 0 1 1.54.21 19 19 0 0 1 -.16 2.22c1 .08 1.88.21 2.8.33a16.41 16.41 0 0 1 -.29 2.64 51.68 51.68 0 0 1 -9.62-.92 10.14 10.14 0 0 1 .34-2.72c1.17.08 2.34.21 3.51.33zm4.43 6.95c0 .37 0 .75-.08 1.17a3.69 3.69 0 0 1 -.25 1.25c-1.13 0-2.26 0-3.39 0s-2.34 0-3.55-.13a17.62 17.62 0 0 1 .29-2.5zm-.54-3.26a10.57 10.57 0 0 1 .08 1.16v1.09a21.29 21.29 0 0 1 -3.34.17 25.08 25.08 0 0 1 -2.8-.08 2.48 2.48 0 0 1 -.21-1.13 4.73 4.73 0 0 1 .16-1.13 25.26 25.26 0 0 1 3-.17c1.31-.03 2.39.04 3.11.09zm1.54 12a21.59 21.59 0 0 1 -6.56 1 15.27 15.27 0 0 1 -1.13-5.94 34.42 34.42 0 0 1 7.07-.84 27.15 27.15 0 0 1 .62 5.78zm-2.63-1.76-.5-1.8-1.72.34.55 1.92zm12-9.62c-.83 1-1.8 2.09-2.88 3.18 0 .17.67.21 2.05.21a2.49 2.49 0 0 1 -.3-.92 17.85 17.85 0 0 1 2.26-.46 12.35 12.35 0 0 1 1.21 3.3c0 .34-1.5.46-4.51.46.16 1.88.25 3.77.25 5.69a2.62 2.62 0 0 1 -1.38.29 6.67 6.67 0 0 1 -1.38-.12c-.13-1.3-.21-2.6-.29-3.89a12.61 12.61 0 0 1 -1.85 2.13 3.72 3.72 0 0 1 -2.29-1.26 12 12 0 0 1 2-2.88 5 5 0 0 1 2.13 1.05c0-.51-.08-1-.08-1.38a4.81 4.81 0 0 1 -2.47-1c.42-.59.92-1.21 1.42-1.84a16 16 0 0 1 -2.8-3.13c1.55-1.76 3.22-3.6 5-5.57a6.32 6.32 0 0 1 2.09 2.09c-.84 1.26-1.71 2.43-2.59 3.6a2.62 2.62 0 0 0 .5.5c.5-.5 1.05-1 1.63-1.59a22.87 22.87 0 0 1 2.32 1.54zm2.09 7.74a8.82 8.82 0 0 1 -1.29 2.3 7.93 7.93 0 0 1 -2.55-1.59l1.42-2.3a26.77 26.77 0 0 1 2.46 1.59z" fill="#231815"/><path d="m258.18 162.73v1.38c-7.36.67-14.72 1-22.16 1a13.42 13.42 0 0 1 -.29-3c3-.17 6.14-.33 9.32-.42 0-.71-.08-1.42-.08-2.13-2.52.12-5 .17-7.45.17a12 12 0 0 1 -.29-2.8c2.47-.17 5-.3 7.61-.42 0-.76-.08-1.47-.08-2.18h-2.47c-2.3 0-7.21 1.24-8.52-1.25-1-1.85-.51-5.6-.5-7.61 0-.66-.38-3 0-3.52s2.6-.61 3-.42c1.37.74.42 5.71.39 7s.13 1.94 1.62 2.23c.6.11 6.48.16 6.48.2-.08-2.43-.12-4.89-.12-7.36a21.17 21.17 0 0 1 -4-.42c0-1.09-.33-2.73.82-3.13 2.23-.77 6 .37 8.33.51 1.59.1 3.19.21 4.77.34.52 0 4.54 0 4.69.4a16 16 0 0 1 .63 5.56c0 2.34-.08 4.47-.17 6.4-.37.58-4.18.92-11.37 1v2.09c2.67-.08 5.4-.12 8.16-.17a10.53 10.53 0 0 1 .08 1.26v1.3c-2.76.29-5.52.5-8.2.62v2.18c3.18-.09 6.44-.13 9.74-.17a9 9 0 0 1 .06 1.36zm-19.64 4.43a1.78 1.78 0 0 1 .11.93c-.06 1-.37 2.79-1.21 3.46s-2.87.39-3.33-.43c-.72-1.29.35-2.91 1-4 .78-1.35 1.27-1.55 2.66-.66a2.29 2.29 0 0 1 .77.7zm4.55-18a5.43 5.43 0 0 1 -2.81.87 7 7 0 0 1 -2.09-4.14 15.77 15.77 0 0 1 2.72-.75 7.45 7.45 0 0 1 2.18 4zm2.79 18.38c1.09 1.24.38 4.28-1.71 4.28-1.46 0-1.71-.25-1.68-1.63.06-1.82.06-3.18 2.18-3.18a1.52 1.52 0 0 1 1.21.51zm2.35-16.5c3.47 0 6.06-.09 7.73-.17a57.87 57.87 0 0 0 -.38-6.48c-2.51-.09-5-.21-7.44-.42.04 2.36.09 4.71.09 7.03zm5.43 19.65a1.7 1.7 0 0 1 -.53.51 2.37 2.37 0 0 1 -2.51.1c-.72-.59-1.81-2.61-1.35-3.55.31-.63 2.3-1.17 3-.89.84.37 1.16 2.06 1.32 2.87.06.47.18.7.07.94zm.88-24.42a12.26 12.26 0 0 1 -2.54 3.53 7.37 7.37 0 0 1 -2.72-1.21 16.5 16.5 0 0 1 2.72-3.47 7.13 7.13 0 0 1 2.54 1.13zm5.66 23.85a2 2 0 0 1 -.56.42c-2.06 1.28-3.47-.37-3.16-2.48.5-3.35 3.67-.93 3.79 1.32.02.37.03.56-.07.72z" fill="#231815"/><path d="m87.26 163.19a2.36 2.36 0 1 1 -2.35-2.35 2.36 2.36 0 0 1 2.35 2.35z" fill="none" stroke="#231815" stroke-miterlimit="10" stroke-width="2.01"/><path d="m105.53 152c.26 0-.24 6.65-.28 7.24 0 .83-.63 3-.08 3.64.73.87 2.83.58 3.85.63 1.82.1 3.63.2 5.46.2 7.23 0 12.12-.21 14.68-.67a18 18 0 0 1 .29 2.84c-2.22.93-7.07 1.34-14.56 1.34-2.57 0-5.13-.11-7.7-.28-1.4-.09-3.72.27-4.94-.57-1.66-1.15-1.06-4.27-.91-5.93 0-.66.63-8.52.68-8.52.41 0 1-.08 1.88-.17z" fill="#231815"/><path d="m134.09 162a6.32 6.32 0 0 1 -3.09.55 29.82 29.82 0 0 1 -1.35-9.45c1.14-.17 2.22-.25 3.27-.34a54 54 0 0 1 1.17 9.24z" fill="#231815"/><path d="m238.54 167.16a1.68 1.68 0 0 1 .11.93c-.06 1-.37 2.79-1.21 3.46s-2.87.39-3.33-.43c-.72-1.29.35-2.91 1-4 .78-1.35 1.27-1.55 2.66-.66a2.29 2.29 0 0 1 .77.7z" fill="#fff" stroke="#231815" stroke-miterlimit="10" stroke-width="2.01"/><path d="m282.66 140.08c-.67 2-2.13 3.71-2.77 5.69.47.07 6-.11 6-.06a19.88 19.88 0 0 0 -.16-2.09 23.74 23.74 0 0 0 2.84-.34 32.42 32.42 0 0 1 .92 5.1c-.88.67-3.09 1-6.64 1-2 0-4.46.35-6.41-.28-3.25-1 .07-4.62.91-6.26.42-.83 1.06-3.08 1.87-3.57s2.66.39 3.44.81zm-3.37 11.36c0 .5-.08 1.38-.17 2.63 1.43.13 2.8.29 4.14.5 0 .42 0 .88-.08 1.34a3.29 3.29 0 0 1 -.3 1.38c-.92 0-1.88 0-2.83-.13a5.94 5.94 0 0 1 -1.22-.12 4.82 4.82 0 0 0 -.08.71c0 .12-.05.21-.05.29 1.35.08 2.68.17 3.94.3 0 .41-.05.87-.09 1.33a4.19 4.19 0 0 1 -.33 1.38c-.92 0-1.84 0-2.76-.08a7 7 0 0 1 -1.09-.09c-.17 1.09-.38 2.18-.59 3.18a16 16 0 0 1 -2.92-.25 84.93 84.93 0 0 1 1.34-12.75 12.82 12.82 0 0 1 3.09.38zm2.94 14.56c.53 1.07-.77 3.51-1.35 4.32-.87 1.21-3.62.8-3.82-.73-.11-1 1-2.62 1.41-3.49s.47-1.22 1.53-1.12a4.85 4.85 0 0 1 2.16.89zm7.1-14.53c0 5.52-.21 10-.55 13.59-2.93 0-4.68-.25-5.3-.76a18.61 18.61 0 0 1 .08-2.09 18.4 18.4 0 0 1 2.21.17c.08-2.84.17-5.6.21-8.28a19.37 19.37 0 0 1 -4.81-.88 5 5 0 0 1 -.17-1.38 6.38 6.38 0 0 1 .22-1.25 40.09 40.09 0 0 1 8.11.85zm-.52 15.27a1.48 1.48 0 0 1 .28.87c.08 2 .23 3.34-2 3.34-1.4 0-1.87-1.12-1.86-2.34 0-1.77.6-2.1 2.19-2.3a1.38 1.38 0 0 1 1.39.4zm7.08-27.23v2.71c.59 0 1.26 0 2-.08 2.88 0 5.14 0 6.77.08a7.9 7.9 0 0 1 .17 1.55v1.38a48.77 48.77 0 0 1 -7.07.34c-.75 0-1.34 0-1.84 0v2.29c2.81.09 5.65.17 8.58.34v1.38a10.78 10.78 0 0 1 -.09 1.59c-.84.08-3 .08-6.35.08a25.16 25.16 0 0 1 -5.73-.46c0-3.47.08-7.23.29-11.25a12.21 12.21 0 0 0 1.55-.08 11 11 0 0 1 1.72.1zm.66 30.16a1.93 1.93 0 0 1 -2.5 1 4.24 4.24 0 0 1 -1.36-3.2c.26-1.16 2.53-1.79 3.36-.8a5.11 5.11 0 0 1 .65 2.29 1.55 1.55 0 0 1 -.15.68zm-.28-17.16v2.59c.59 0 1.25 0 2-.08h5.35a9.55 9.55 0 0 1 .17 1.55v1.43a30 30 0 0 1 -5.65.38c-.75 0-1.34 0-1.84-.05v2.09c2 .09 4 .26 6.11.42v1.47a12.55 12.55 0 0 1 -.08 1.71c-.46 0-1.59 0-3.43 0a29.37 29.37 0 0 1 -6.19-.46c0-3.43 0-7.15.2-11.16a10.72 10.72 0 0 0 1.55-.09 12.52 12.52 0 0 1 1.81.17zm7.37 17a1.64 1.64 0 0 1 -.5.44c-1.55 1.09-2.69-.13-3.19-1.59s.56-3 2.3-2.27a3.57 3.57 0 0 1 1.48 2.67 1.48 1.48 0 0 1 -.09.74z" fill="#231815"/><path d="m162 139.52c.13.1-4.4 5.73-4.73 6.19-1 1.42-2.51 2.55-3.49 4s.1 1.65 1.5 1.84c.88.12 12.79.93 12.79 1a14.85 14.85 0 0 1 -.42 3.1c-8.36-.13-13.63-.34-15.81-.67-1.22-.14-5.45-.06-5.11-2 .12-.66 1.23-1.58 1.6-2.14.73-1.06 1.43-2.12 2.22-3.15 2.09-2.72 4.85-6.19 8.32-10.41a20.55 20.55 0 0 1 3.13 2.24zm9.95 20.19a22.33 22.33 0 0 1 .43 5.48c0 2.76-.09 4.77-.17 6a58.51 58.51 0 0 1 -9.87.59 50.91 50.91 0 0 1 -9.79-.88 16.29 16.29 0 0 1 -.67-5.68c0-1 .05-2.93.09-5.69a16.29 16.29 0 0 1 1.63-.29 6 6 0 0 1 1.67.29c0 1.13.09 3.93.29 8.4 4.35.29 8.7.42 13.05.42a14.48 14.48 0 0 0 .29-3.18 13.52 13.52 0 0 0 -.21-2.13c-4.85-.33-7.86-.58-9-.79a4.77 4.77 0 0 1 -.25-1.89c0-.5.08-1 .08-1.54a102.35 102.35 0 0 1 12.4.89zm4-7.65a6.52 6.52 0 0 1 -2.93 1.76 42.15 42.15 0 0 1 -3.93-5.94 11.28 11.28 0 0 1 2.88-1.67c1.34 1.84 2.67 3.79 3.93 5.85z" fill="#231815"/></svg>