<svg viewBox="0 0 258.16 231.26" xmlns="http://www.w3.org/2000/svg"><path d="m121.28 23.48s2.15-23.68 17.6-23.48c0 0 18.13 1 18.85 13.09 0 0 7.4 19.67-10.38 24.59l-14 3.43z" fill="#231815"/><path d="m55.33 35.11s8.1-35.17-24-30.89c-.03 0-10.33 1.22-11.66 11.78 0 0-9.2 22.91 25.35 29.82z" fill="#231815"/><path d="m39 13s5.07 3.81 9 12.5l-13.27 10.32s-8.19-5.92-7.71-11 2.23-14.17 11.98-11.82z" fill="#373a36"/><path d="m127.35 19.33s5.86-11.84 14.14-8.95 6.9 21.7-10.68 19.79z" fill="#373a36"/><path d="m18.16 149.51c-32.92-30.02-17.26-71.51 16.45-121.31 8.33-12.29 78.47-38 107.65-2.22 16.2 19.88 29.27 42.36 31.17 53.72 2.64 15.92 7.29 45.1-13.27 63.67-2.32 2.1-74.28 65-142 6.14z" fill="#231815"/><path d="m119.14 76.85c1.35 5.38-.69 10.53-4.54 11.48s-8.07-2.62-9.41-8 .69-10.52 4.54-11.49 8.08 2.63 9.41 8.01z" fill="#fff"/><path d="m115.45 77a4.22 4.22 0 1 1 -5.11-3.07 4.21 4.21 0 0 1 5.11 3.07z" fill="#150201"/><path d="m46.38 83.49c-1.62 5.3-6 8.65-9.82 7.49s-5.56-6.41-3.94-11.71 6-8.65 9.83-7.49 5.55 6.41 3.93 11.71z" fill="#fff"/><path d="m42.86 81.75a4.25 4.25 0 1 1 -2.86-5.32 4.25 4.25 0 0 1 2.86 5.32z" fill="#150201"/><path d="m74.06 81.91s31.71-1.39 32 22.62c0 0-4.77 20.66-31.06 19.27 0 0-31.11-4.68-27-24.93 0 0 6.12-16.44 26.06-16.96z" fill="#fff"/><path d="m65.29 89.75c-1.41.84-2.8 2.9-2.37 4.19s5.49 6.23 8.27 6.23 10.86-4.08 12-5.16.64-6-.64-6.33-6.79 1.84-11.07 1.39c-3.07-.32-5.66-.64-6.19-.32z" fill="#150201"/><path d="m65.59 90.43c-1.23.67-2.46 2.32-2.08 3.34s5.05 5.49 7.5 5.49 9.11-3.19 10.15-4.05.53-5.15-.57-5.07c-1.6.11-5.65 1-9.41.65-2.74-.26-5.12-.62-5.59-.36z" fill="#29201f"/><path d="m65.9 91.1c-1.06.51-2.12 1.74-1.8 2.51s4.61 4.74 6.74 4.74 7.34-2.29 8.24-2.94.43-4.17-.5-3.81c-1.87.73-4.49.17-7.74-.09-2.37-.19-4.53-.6-4.94-.41z" fill="#403a39"/><path d="m67.58 197.53c-3.33-.12 1.09 25.57 2 27.94-1.6 0-3.36.83-3.32 2.54a11.13 11.13 0 0 0 5.64-.74c2.37-1.43.87-3.23 1.94-5.66a15.86 15.86 0 0 1 10-8.35c2.2-.59 3.92.13 4.59-.23a7.74 7.74 0 0 0 3.44-10.37c-3.19-7.26-18.35-4.92-24.29-5.13z" fill="#231815"/><path d="m109.76 202a45.52 45.52 0 0 1 -.45 5.94 79.39 79.39 0 0 1 -1.36 8.09c-.82 3.94-1.4 8.7-3.21 12.35 1.53.08 3.13 1 3 2.63a10.42 10.42 0 0 1 -5.28-1.09c-2.16-1.51-.6-3.12-1.45-5.49-1.3-3.63-5.61-7.9-9-9.81a16.44 16.44 0 0 0 -7.38-1.81c-2.61-.07.08-.46.4-2.8.08-.57-.36-1-.31-1.54.12-1.21-.09-2.08.53-3.26 2.78-5.23 9-3.09 13.54-4.37 2.63-.74 9.1-6.41 10.7-1.22a9.31 9.31 0 0 1 .27 2.38z" fill="#231815"/><path d="m116.61 188.93c2.29 1.06 4 5.33 2.59 7.61a1.53 1.53 0 0 1 -.37.34c-.18 1-.7 1.93-1.49 1.88a3.91 3.91 0 0 1 -1-.24c-.55 1.08-1.72 2.21-3 1.23a2.17 2.17 0 0 1 -.69-.83c-.76.49-1.65.68-2.1.08a4.87 4.87 0 0 1 -.61-1.23 2.2 2.2 0 0 1 -.28-.18c-.08-.25.93-7.51 6.95-8.66z" fill="#150201"/><path d="m62.33 192.69c-2.21.67-4.35 4.33-3.36 6.59a1.56 1.56 0 0 0 .29.37c0 .91.38 1.85 1.11 1.9a3.63 3.63 0 0 0 1-.08c.36 1.06 2 2.41 2.78 1.6a3.41 3.41 0 0 0 .56-.75c.62.56 1.41.86 1.9.36a3.61 3.61 0 0 0 .71-1c.11 0 .08-1.5.18-1.54a7.58 7.58 0 0 0 -5.17-7.45z" fill="#150201"/><path d="m72.09 166.66c-.81.25-13.72 11-13.34 30.44 0 1.78 3.1 7.52 7 4.45.85-.67.27-1.11.27-1.11a5.88 5.88 0 0 1 -.64-1.85c-.05-.66-1.46-12.59 6.71-31.93z" fill="#150201"/><path d="m59.09 198.7c.94 2.27 3.6 5.25 6.62 2.85.85-.67.27-1.11.27-1.11a5.88 5.88 0 0 1 -.64-1.85c0-.65-2-11.54 5.92-30.54-2.93 3.66-11.28 16-9.21 30.49.13.95-1.22 1.54-2.96.16z" fill="#231815"/><path d="m103.74 166.35c.81.43 9.22 6.92 15.08 24.91.62 1.88-3.12 7.49-7.63 6.26-2.32-.63-7.45-31.17-7.45-31.17z" fill="#150201"/><path d="m72.3 165c-.56 1.62-11.21 20.28-7.71 34.45.77 3.14 5.06 12.87 20.51 13.13 4.34.08 9.14-1.72 12.85-3.67 8.32-4.35 13.86-6.43 13.08-17-.52-7.13-3.14-14-5.29-20.7a23.32 23.32 0 0 0 -2.61-5.84c-19.45 10.56-30.83-.37-30.83-.37z" fill="#231815"/><g fill="#fff"><path d="m100.72 177.94c-2.81 2.68-14.54 10.05-20.06 6.83a37.22 37.22 0 0 1 -6.66-5.29c.88 3.07 1.64 7.81 8.06 11.38 1.93 1.07 4.53.76 13-4.84 2.32-1.7 5.66-8.08 5.66-8.08z"/><path d="m113.52 194.91a1.21 1.21 0 0 0 1.73.28 1.24 1.24 0 0 0 .86-1 1.08 1.08 0 0 0 -.9-1.08c-1.08-.31-2.44.7-1.69 1.8z"/><path d="m111.25 195.16a.48.48 0 0 0 .49.65 1.17 1.17 0 0 0 .84-.52.38.38 0 0 0 .06-.13.45.45 0 0 0 .08-.27.53.53 0 0 0 -.74-.44 1.22 1.22 0 0 0 -.73.71z"/><path d="m112.36 197.32a.48.48 0 0 0 .73.36 1.21 1.21 0 0 0 .51-.85.65.65 0 0 0 0-.14.51.51 0 0 0 -.91-.34 1.21 1.21 0 0 0 -.33.97z"/><path d="m114.52 197.64a.27.27 0 0 0 .23.15c.3.16.75-.19.75-.53 0-.07 0-.11 0-.17a.65.65 0 0 0 -.08-.31c0-.07-.08-.18-.16-.19a.48.48 0 0 0 -.59 0c-.2.26-.44.81-.15 1.05z"/><path d="m116.14 195.65a.52.52 0 0 0 0 .62.49.49 0 0 0 .09.15l.08.05.07.05.17.09a.51.51 0 0 0 .4 0 .48.48 0 0 0 .35-.22.42.42 0 0 0 0-.47c-.12-.39-.86-.61-1.16-.27z"/><path d="m117.39 193.77c-.22 0-.38.21-.44.43a.61.61 0 0 0 0 .17s0 0 0 .09a.07.07 0 0 0 0 .05.29.29 0 0 1 0 .09 1.8 1.8 0 0 0 0 .19.55.55 0 0 0 .29.27.5.5 0 0 0 .41.09.4.4 0 0 0 .32-.34c.24-.39-.12-1.07-.58-1.04z"/><path d="m62.17 196.55a1.24 1.24 0 0 0 1.46 1 1.32 1.32 0 0 0 1.25-.59 1.11 1.11 0 0 0 -.35-1.41c-.88-.67-2.53-.35-2.36 1z"/><path d="m60 198.28a.49.49 0 0 0 .16.81 1.23 1.23 0 0 0 1-.11l.1-.1a.45.45 0 0 0 .2-.21.55.55 0 0 0 -.48-.73 1.28 1.28 0 0 0 -.98.34z"/><path d="m59.77 196a.49.49 0 0 0 .16.81 1.21 1.21 0 0 0 1-.12l.11-.09a.41.41 0 0 0 .19-.22.54.54 0 0 0 -.48-.72 1.25 1.25 0 0 0 -.98.34z"/><path d="m61.91 199.5a.07.07 0 0 0 0 .06.21.21 0 0 0 .14.24c.2.29.78.15.92-.15a.38.38 0 0 0 0-.2v-.05a.19.19 0 0 0 0-.23.19.19 0 0 0 .03-.17.38.38 0 0 0 -.5-.29c-.29.05-.76.45-.59.79z"/><path d="m64.23 198.59a.56.56 0 0 0 -.54.32.44.44 0 0 0 -.07.17.34.34 0 0 0 0 .1v.15a.61.61 0 0 0 0 .19.53.53 0 0 0 .22.34.51.51 0 0 0 .39.18.39.39 0 0 0 .39-.25c.27-.37.06-1.12-.39-1.2z"/><path d="m65.68 197.29a.55.55 0 0 0 -.55.3.45.45 0 0 0 -.08.17.28.28 0 0 0 0 .09s0 0 0 .05v.1a.61.61 0 0 0 0 .19.53.53 0 0 0 .22.35.47.47 0 0 0 .38.2.39.39 0 0 0 .39-.24.84.84 0 0 0 -.36-1.21z"/><path d="m111.12 76.37a1.44 1.44 0 0 1 -2.8.7 1.44 1.44 0 0 1 1.05-1.75 1.43 1.43 0 0 1 1.75 1.05z"/><path d="m39.1 78.51a1.44 1.44 0 1 1 -1.75-1.06 1.44 1.44 0 0 1 1.75 1.06z"/></g><path d="m65.92 105.66c3.35 6.29 9.57 11 17.85-.75.64-.92 0-1.62-.82-1.22a20.38 20.38 0 0 1 -16.06.85c-.76-.29-1.41.27-.97 1.12z" fill="#150405"/><path d="m210.96.64h1v130.61h-1z" fill="#231815"/><path d="m210.96 131.83h1v99.27h-1z" fill="#231815"/><path d="m169.61 1.21h2.01v.33h-2.01z" fill="#363736"/><path d="m228.53 1.54h-4.06v-.33h4.06zm-8.13 0h-4.06v-.33h4.06zm-8.13 0h-4.06v-.33h4.06zm-8.13 0h-4.06v-.33h4.06zm-8.13 0h-4.01v-.33h4zm-8.13 0h-4.06v-.33h4.06zm-8.13 0h-4.07v-.33h4.07z" fill="#363736"/><path d="m232.6 1.21h2.01v.33h-2.01z" fill="#363736"/><path d="m169.61 172.65h2.01v.33h-2.01z" fill="#363736"/><path d="m228.53 173h-4.06v-.34h4.06zm-8.13 0h-4.06v-.34h4.06zm-8.13 0h-4.06v-.34h4.06zm-8.13 0h-4.06v-.34h4.06zm-8.14 0h-4v-.34h4zm-8.13 0h-4.06v-.34h4.06zm-8.13 0h-4.07v-.34h4.07z" fill="#363736"/><path d="m232.6 172.65h2.01v.33h-2.01z" fill="#363736"/><path d="m169.61 230.93h2.01v.33h-2.01z" fill="#363736"/><path d="m228.53 231.26h-4.06v-.33h4.06zm-8.13 0h-4.06v-.33h4.06zm-8.13 0h-4.06v-.33h4.06zm-8.13 0h-4.06v-.33h4.06zm-8.13 0h-4.01v-.33h4zm-8.13 0h-4.06v-.33h4.06zm-8.13 0h-4.07v-.33h4.07z" fill="#363736"/><path d="m232.6 230.93h2.01v.33h-2.01z" fill="#363736"/><path d="m233.07 69.69c.09 0 .14.1.14.15s0 .1-.1.13-.14 0-.16.15a9.5 9.5 0 0 1 -.72 1.59c.32-.06.62-.13.9-.2h.07a.08.08 0 0 1 .09.09 1.85 1.85 0 0 1 0 .62c-1.27.28-2.56.53-3.87.76-.11.2-.19.3-.26.3s-.22-.32-.44-.93c.59-.07 1.3-.17 2.11-.33q.65-.11 1.23-.24a.05.05 0 0 1 0 0l-.41-.19c-.06 0-.08 0-.08 0a.19.19 0 0 1 0-.09 6.6 6.6 0 0 0 .53-.88 6.14 6.14 0 0 0 .37-1c0-.09 0-.14.09-.14zm0-5.86c.08 0 .12.07.12.18v.36q0 .18-.12.18h-4c-.09 0-.14-.06-.14-.18v-.37c0-.11 0-.18.14-.18zm-2.81 6.84a7.53 7.53 0 0 1 .45 1 3 3 0 0 1 -.71.21 4.15 4.15 0 0 0 -.32-.78 6.45 6.45 0 0 0 -.68-1.1s.19-.16.58-.36a10.31 10.31 0 0 1 .7 1.03zm2.54-5c.11 0 .18 0 .18.12v3.08c0 .09-.07.13-.18.13h-3.39c-.11 0-.17 0-.17-.13v-3.13c0-.07.06-.12.17-.12zm-.59.71h-2.21v1.91h2.21zm6.86-2.54s.09 0 .09.13v.36c0 .12 0 .18-.09.18h-2.27l-.32 1.07h2.21c.11 0 .17 0 .17.14v5.81c0 .09-.06.14-.17.14h-.82a4.4 4.4 0 0 0 .56.67 5 5 0 0 0 .89.65.23.23 0 0 1 .07.15 2.21 2.21 0 0 1 -.44.53h-.1a8.4 8.4 0 0 1 -1.66-1.72c-.05-.06-.06-.09-.06-.12s0-.06.09-.13h-1.22l.17.12a.29.29 0 0 1 .08.14s0 .06-.09.06a.41.41 0 0 0 -.22.09 6.65 6.65 0 0 1 -.75.82 9.14 9.14 0 0 1 -1.2.86c-.09 0-.15 0-.17-.09l-.38-.32c-.06 0-.08 0-.08-.08s0 0 .05-.07a3.93 3.93 0 0 0 .58-.28 5.84 5.84 0 0 0 .84-.69c.16-.16.32-.35.5-.56h-1c-.13 0-.18-.05-.18-.14v-5.89c0-.1 0-.14.18-.14h1.39l.32-1.07h-2.04c-.07 0-.09-.06-.09-.18v-.36c0-.09 0-.13.09-.13zm-1 3.56v-1.21h-3.2v1.16zm0 1.82v-1.22h-3.2v1.15zm0 .67h-3.2v1.11h3.2z" fill="#383736"/><path d="m244.51 72a2.42 2.42 0 0 1 -1.67.59 2 2 0 0 1 -2.25-1.73l.75-.26a1.38 1.38 0 0 0 1.5 1.25 1.61 1.61 0 0 0 1.13-.4 1.27 1.27 0 0 0 .43-1 1.47 1.47 0 0 0 -.41-1 1.42 1.42 0 0 0 -1-.42h-.87v-.74h.76a1.25 1.25 0 0 0 .89-.46 1.38 1.38 0 0 0 .43-.94 1.1 1.1 0 0 0 -1.26-1.22 1.25 1.25 0 0 0 -1.31 1.19l-.74-.24a2.25 2.25 0 0 1 .62-1.18 2 2 0 0 1 1.39-.44 2.13 2.13 0 0 1 1.5.53 1.93 1.93 0 0 1 .55 1.43 1.8 1.8 0 0 1 -1 1.66 1.82 1.82 0 0 1 1 .74 2.21 2.21 0 0 1 .34 1.2 1.91 1.91 0 0 1 -.78 1.44z" fill="#383736"/><path d="m252.13 72.51-2.52-3.51-2.52 3.5h-.91l3-4.14-2.42-3.36h.92l1.93 2.68 1.94-2.68h.91l-2.39 3.33 3 4.14z" fill="#383736"/><path d="m234.33 194.24s-.05.07-.14.09a.24.24 0 0 0 -.18.14 4.44 4.44 0 0 1 -.3.57h3.11c.14 0 .22.07.22.18v4.35a1.36 1.36 0 0 0 .17-.17 6.25 6.25 0 0 0 .93-1.08c.05-.07.09-.12.15-.12l.22.06a4.83 4.83 0 0 1 .67.69c0 .13-.05.19-.14.19h-.18a.48.48 0 0 0 -.29.15c-.61.58-1.12 1.06-1.53 1.42v2.64a.91.91 0 0 1 -.57.79 5.42 5.42 0 0 1 -1.39.29.13.13 0 0 1 -.14-.13 2.45 2.45 0 0 0 -.26-.72c0-.05 0-.06.12-.06a3.27 3.27 0 0 0 1.21-.12.4.4 0 0 0 .23-.39v-1.64c-.4.3-.83.58-1.29.88a17.29 17.29 0 0 1 -1.88 1 26.54 26.54 0 0 1 -3.15 1q-.24 0-.27-.09a1.69 1.69 0 0 0 -.43-.47.18.18 0 0 1 -.09-.14c0-.07 0-.1.13-.1.62-.08 1.05-.14 1.29-.2a10.46 10.46 0 0 0 1.58-.46 13.57 13.57 0 0 0 1.86-.87 14.72 14.72 0 0 0 1.79-1.2c-.26 0-.51.06-.75.09l-5 .69c-.09.22-.18.34-.26.35a.17.17 0 0 1 -.14-.07l-.3-1.08c.3 0 .88-.08 1.73-.18v-5.25a.16.16 0 0 1 .18-.18h1.62c.1-.14.18-.25.23-.34a4.25 4.25 0 0 0 .3-.78s0-.08.07-.08a5.92 5.92 0 0 1 .87.35zm1.91 2.49v-1h-4.4v1zm0 1.69v-1h-4.4v1zm-.94 1.58c.36-.05.68-.08.94-.13v-.7h-4.4v1.24z" fill="#383736"/><path d="m244 194.29c.12 0 .17 0 .17.13v2.58h.45c.11 0 .18.05.18.14v1.51c0 .09-.07.14-.18.14h-.35c-.13 0-.19-.05-.19-.14v-1h-3.2v1c0 .09-.06.14-.18.14h-.35c-.11 0-.17-.05-.17-.14v-1.51c0-.09.06-.14.17-.14h.4v-2.53c0-.09.06-.13.18-.13zm-.18 4.08c.12 0 .18 0 .18.14v4.62a1.08 1.08 0 0 1 -.13.66c0 .15-.37.3-1 .46-.13 0-.2-.05-.2-.14a5.61 5.61 0 0 0 -.15-.58c.52 0 .79-.17.8-.4v-1.13h-1.62v2.13c0 .09 0 .14-.17.14h-.35c-.13 0-.18-.05-.18-.14v-5.6c0-.09.05-.14.18-.14zm-1.63-1.37v-1.24a.13.13 0 0 1 .14-.14h1.16v-.62h-2v2zm1.12 2.85v-.85h-1.61v.76zm0 1.51v-.84h-1.61v.84zm.18-4.36v-.75h-.63v.75zm3.33 6c.11.15.2.3.29.45h1.38a2.49 2.49 0 0 0 .39-.45 2 2 0 0 0 .38-.62c0-.06.06-.09.09-.09l.58.22c.09.05.14.08.14.13s0 .07-.1.08-.15 0-.17.09a4.21 4.21 0 0 1 -.41.64h1.08c.05 0 .09 0 .09.14v.35c0 .11 0 .17-.09.17h-5.47c-.06 0-.08-.06-.08-.17v-.35c0-.1 0-.14.08-.14h1.37l-.09-.15a4.42 4.42 0 0 0 -.61-.74c0-.05.16-.15.49-.32a8.37 8.37 0 0 1 .66.67zm-.09-8.09v-.72s.05-.09.14-.09c.43 0 .66 0 .66.09s0 .15-.07.15-.07.08-.07.22v.35h.77v-.72s0-.09.13-.09c.44 0 .66 0 .66.09s0 .15-.07.15-.06.08-.06.22v.35h1.25c.11 0 .17.05.17.14v3c0 .09-.06.14-.17.14h-4.59c-.11 0-.17 0-.17-.14v-3c0-.09.06-.14.17-.14zm3.43 3.83s.08 0 .08.12v.37c0 .11 0 .17-.08.17h-4.71c-.07 0-.09-.06-.09-.17v-.37c0-.08 0-.12.09-.12zm-.16 1.06c.12 0 .17 0 .17.13v1.87c0 .09-.05.14-.17.14h-4.4c-.12 0-.17-.05-.17-.14v-1.87c0-.09.05-.13.17-.13zm-3.29-3.65v-.71h-.71v.71zm0 .58h-.71v.71h.71zm2.71 3.69h-3.22v.89h3.24zm-2.05-4.27h.77v-.71h-.77zm.77.58h-.77v.71h.77zm.66-.58h.71v-.71h-.71zm.71.58h-.71v.71h.71z" fill="#383736"/><path d="m257.25 203.22-2.52-3.49-2.51 3.49h-.91l3-4.13-2.39-3.34h.91l1.93 2.69 1.94-2.69h.91l-2.39 3.34 3 4.13z" fill="#383736"/></svg>