<svg viewBox="0 0 793.64 493.47" xmlns="http://www.w3.org/2000/svg"><path d="m0 0h793.64v493.47h-793.64z" fill="#fff"/><g fill="#595757"><path d="m58.06 16.85-.2-.65a9.48 9.48 0 0 0 1.91-3.57l.58.27a12.61 12.61 0 0 1 -.79 1.88v5.71h-.62v-4.74a11.46 11.46 0 0 1 -.88 1.1zm4.67-3.3v-.87h.62v.87h2.33v.59h-2.33v.86h2v2.4h-2a4.71 4.71 0 0 1 -.44 1.78 6.93 6.93 0 0 0 2.95.79l-.15.58a6.9 6.9 0 0 1 -3.14-.9 3.68 3.68 0 0 1 -2.17.92l-.3-.57a3.12 3.12 0 0 0 1.9-.75 6.29 6.29 0 0 1 -1.35-1.25l.47-.32a5.81 5.81 0 0 0 1.22 1.16 4.11 4.11 0 0 0 .35-1.45h-1.9v-2.39h1.94v-.81h-2.23v-.59zm0 3v-1.1h-1.36v1.35h1.35c0-.07.01-.14.01-.21zm2-1.1h-1.38v1.1.21h1.42z"/><path d="m66.92 20.4-.47-.4a5 5 0 0 0 .84-2.89v-4.11h6.33v6.37a.79.79 0 0 1 -.89.89h-1l-.16-.6h.94c.31 0 .47-.17.47-.53v-1.43h-2.29v2.49h-.63v-2.49h-2.19a5.13 5.13 0 0 1 -.95 2.7zm1-6.78v1.46h2.16v-1.46zm0 3.52h2.16v-1.49h-2.18zm5.08-3.52h-2.31v1.46h2.31zm0 2h-2.31v1.49h2.31z"/><path d="m75.51 14.69-.51-.31a4.73 4.73 0 0 0 1.13-1.71l.59.12a3.92 3.92 0 0 1 -.22.51h2.16v.52h-1.19a6 6 0 0 1 .39.73l-.47.17v.41h1.61v.51h-1.6v.48h1.38v2.46h-1.39v.48h1.68v.53h-1.68v.87h-.58v-.87h-1.68v-.53h1.68v-.48h-1.38v-2.46h1.38v-.48h-1.61v-.51h1.61v-.47h.49c-.13-.29-.28-.57-.43-.84h-.66a6.05 6.05 0 0 1 -.7.87zm1.34 2.45v-.56h-.91v.56zm0 .42h-.91v.56h.91zm.5-.42h.91v-.56h-.91zm.91.42h-.91v.56h.91zm1-2.85-.51-.32a4.73 4.73 0 0 0 1-1.71l.6.12c-.07.17-.13.34-.2.5h2.44v.52h-1.46c.17.28.31.53.43.77l-.53.19a6.33 6.33 0 0 0 -.51-1h-.68a6.66 6.66 0 0 1 -.62.93zm.71.93v3.74a.35.35 0 0 0 .39.4h1.14a.51.51 0 0 0 .5-.22 4.09 4.09 0 0 0 .15-1l.57.18a3 3 0 0 1 -.3 1.37 1.06 1.06 0 0 1 -.76.21h-1.56a.66.66 0 0 1 -.74-.75v-4.44h2.79v2.19c0 .51-.23.77-.68.79-.26 0-.5 0-.74 0l-.14-.53a5.58 5.58 0 0 0 .67.05c.22 0 .33-.16.33-.45v-1.54z"/><path d="m90.74 20.5h-.58v-.29h-5.64v.29h-.58v-7.5h6.8zm-.58-.81v-6.17h-5.64v6.17zm-3.49-5.55c0-.16.06-.3.08-.44l.56.07c0 .13 0 .25-.06.37h1.75v.92h.72v.42h-4.72v-.42h1.47c0-.17.1-.34.14-.5h-1.14v-.42zm2.54 1.71v1.25h-1.37v.39h1.65v.45h-1.65v.55h1.79v.45h-1.79v.57h-.57v-.57h-2l.2-1h-.39v-.45h2.15v-.39h-1.74v-1.25zm-3.16 2.09-.12.55h1.34v-.55zm2.64-1.7h-2.69v.47h2.68zm-.23-1.18v-.5h-1.3c0 .17-.08.34-.13.5z"/><path d="m96.22 14.61a.5.5 0 0 1 .15.37.49.49 0 0 1 -.15.36.51.51 0 0 1 -.38.16.47.47 0 0 1 -.37-.16.49.49 0 0 1 -.15-.36.5.5 0 0 1 .15-.37.47.47 0 0 1 .37-.16.51.51 0 0 1 .38.16zm0 3.11a.5.5 0 0 1 .15.37.49.49 0 0 1 -.15.36.51.51 0 0 1 -.38.16.47.47 0 0 1 -.37-.16.49.49 0 0 1 -.15-.36.5.5 0 0 1 .15-.37.47.47 0 0 1 .37-.16.51.51 0 0 1 .38.16z"/><path d="m58.29 33.27a.62.62 0 0 1 -.44 1.06.62.62 0 0 1 0-1.24.6.6 0 0 1 .44.18z"/><path d="m67 31.12a2.16 2.16 0 0 1 .82 1.45h-.67a1.54 1.54 0 0 0 -.65-1 2 2 0 0 0 -1.2-.34 2 2 0 0 0 -1.64.74 3.38 3.38 0 0 0 0 3.62 2 2 0 0 0 1.63.7 2 2 0 0 0 1.23-.38 2 2 0 0 0 .72-1.2h.67a2.6 2.6 0 0 1 -1 1.65 2.68 2.68 0 0 1 -1.67.55 2.62 2.62 0 0 1 -2.1-.91 3.87 3.87 0 0 1 0-4.41 2.6 2.6 0 0 1 2.17-1 2.64 2.64 0 0 1 1.69.53z"/><path d="m72.56 31.05a2 2 0 0 1 .7 1.45h-.69a1.57 1.57 0 0 0 -.51-1 1.81 1.81 0 0 0 -1.15-.32 2.12 2.12 0 0 0 -1.06.22.84.84 0 0 0 -.43.77.83.83 0 0 0 .52.74 6.68 6.68 0 0 0 1.11.38 8.28 8.28 0 0 1 1.58.59 1.42 1.42 0 0 1 .76 1.28 1.46 1.46 0 0 1 -.64 1.26 2.89 2.89 0 0 1 -1.71.45 2.74 2.74 0 0 1 -1.69-.46 2.17 2.17 0 0 1 -.79-1.66h.69a1.7 1.7 0 0 0 .55 1.16 2 2 0 0 0 1.24.34 2.24 2.24 0 0 0 1.2-.28.85.85 0 0 0 .46-.76 1 1 0 0 0 -.6-.9 7.89 7.89 0 0 0 -1.28-.44 11 11 0 0 1 -1.4-.49 1.27 1.27 0 0 1 -.69-1.17 1.39 1.39 0 0 1 .67-1.21 2.69 2.69 0 0 1 1.54-.41 2.56 2.56 0 0 1 1.62.46z"/><path d="m76.89 30.7a2.21 2.21 0 0 1 1.43.42 1.54 1.54 0 0 1 .54 1.28 1.56 1.56 0 0 1 -.27.9 1.4 1.4 0 0 1 -.83.52 1.16 1.16 0 0 1 1 1.11l.09.93a1.66 1.66 0 0 0 .33.89h-.76a1.62 1.62 0 0 1 -.25-.81l-.07-.8a1 1 0 0 0 -.39-.78 1.43 1.43 0 0 0 -.87-.22h-1.84v2.61h-.69v-6.05zm-1.89 2.86h1.84a1.53 1.53 0 0 0 1-.32 1 1 0 0 0 .32-.82 1.07 1.07 0 0 0 -.31-.83 1.59 1.59 0 0 0 -1-.28h-1.85z"/><path d="m81.76 33.24-.43.42a8.84 8.84 0 0 0 -1.46-1.26l.42-.42a10 10 0 0 1 1.47 1.26zm.09 1.21a31.16 31.16 0 0 1 -1.22 3.07l-.63-.26a24.91 24.91 0 0 0 1.29-3zm.08-3.38-.41.42a8.72 8.72 0 0 0 -1.45-1.14l.42-.4a10 10 0 0 1 1.44 1.12zm2.53 1.23v-1.3q-1 .09-2.07.09l-.18-.55a14.43 14.43 0 0 0 4.62-.63l.3.53a10.85 10.85 0 0 1 -2 .48v1.38h2.45v.59h-2.5v1.32h1.92v3.4h-.6v-.45h-3.2v.47h-.6v-3.42h1.86v-1.32h-2.46v-.59zm1.93 4.29v-1.81h-3.19v1.81z"/><path d="m94 29.85v1.62h1.72c0 2.8 0 4.52-.12 5.18a.93.93 0 0 1 -1 .89h-.84l-.19-.54h.9c.32 0 .51-.19.56-.58s.1-2 .11-4.4h-1.14v.41c0 2.35-.53 4.07-1.53 5.16l-.47-.38a.7.7 0 0 0 .08-.1c-1.1.14-2.36.25-3.76.34l-.08-.54 1.8-.12v-.79h-1.51v-.51h1.53v-.58h-1.52v-2.6h1.52v-.51h-1.73v-.51h1.73v-.59c-.47 0-1 .05-1.52.05l-.17-.5a16.24 16.24 0 0 0 3.63-.34l.28.46a12 12 0 0 1 -1.6.28v.64h1.69v.51h-1.73v.54h1.53v2.6h-1.53v.58h1.54v.48h-1.54v.71c.55-.05 1.07-.11 1.54-.18v.47a7.25 7.25 0 0 0 1.25-4.58v-.42h-.84v-.55h.84v-1.6zm-3.9 3.57v-.63h-1v.63zm0 .43h-1v.63h1zm.5-.43h1v-.63h-1zm1 .43h-1v.63h1z"/><path d="m99.79 30.39a9.43 9.43 0 0 1 -2.43 3.87l-.48-.42a8.44 8.44 0 0 0 2.34-3.68zm4 7-.56.25c-.13-.28-.26-.55-.39-.8-1.5.23-3.18.4-5 .52l-.11-.59q1-.54 2.54-4l.6.2a17.76 17.76 0 0 1 -2.19 3.79 37.59 37.59 0 0 0 3.9-.42 16.63 16.63 0 0 0 -1-1.68l.56-.18a17.11 17.11 0 0 1 1.66 2.88zm-1.37-7.23a6.15 6.15 0 0 0 2.08 3.65l-.49.44a6.82 6.82 0 0 1 -2.01-3.55h-1.43v-.57z"/><path d="m108.34 32.62a8.82 8.82 0 0 1 -2.76 1.75l-.26-.57a7.62 7.62 0 0 0 2.68-1.62zm3.53 4.14h1.06v.58h-7.53v-.58h1.12v-2.76h5.35zm-4.13-5.43a9.69 9.69 0 0 0 -1-1.21l.51-.32a12 12 0 0 1 1.02 1.2l-.4.29h2.13a9.36 9.36 0 0 0 .91-1.53l.59.21a8.46 8.46 0 0 1 -.82 1.32h2v.59h-7.17v-.59zm.36 5.43v-2.15h-1v2.15zm1.6 0v-2.15h-1v2.15zm3.3-2.92-.34.54a11.76 11.76 0 0 0 -2.66-1.68l.32-.47a12.85 12.85 0 0 1 2.68 1.61zm-1.7 2.92v-2.15h-1v2.15z"/><path d="m113.89 34-.2-.64a9.36 9.36 0 0 0 2-3.54l.57.28a10 10 0 0 1 -.82 1.82v5.75h-.63v-4.82a12.51 12.51 0 0 1 -.92 1.15zm7.36-1.52-2.81.35a10.67 10.67 0 0 0 .21 1.41 5.36 5.36 0 0 0 .85 2c.33.46.64.69.93.7s.4-.55.52-1.62l.53.3a4.93 4.93 0 0 1 -.48 1.58.72.72 0 0 1 -.58.38 1.8 1.8 0 0 1 -1.29-.81 6 6 0 0 1 -1.08-2.32 10.15 10.15 0 0 1 -.25-1.57l-1.85.24-.09-.59 1.89-.24c-.06-.72-.1-1.54-.11-2.48h.63c0 .91 0 1.71.08 2.4l2.76-.35zm-.69-1.29-.43.42a8.19 8.19 0 0 0 -1.28-1.33l.39-.38a10.84 10.84 0 0 1 1.32 1.26z"/><path d="m126 30.91a7.26 7.26 0 0 0 -.47-1l.64-.18a8.08 8.08 0 0 1 .43 1l-.34.13h3.74v.58h-7.63v-.58zm3 6.73h-.59v-.41h-4.51v.41h-.6v-2.75h5.7zm-.13-5.41v.55h-5.43v-.55zm0 1.3v.55h-5.43v-.55zm-.46 3.12v-1.18h-4.51v1.18z"/><path d="m58.29 50.41a.63.63 0 0 1 .18.45.58.58 0 0 1 -.18.43.6.6 0 0 1 -.44.18.58.58 0 0 1 -.43-.18.56.56 0 0 1 -.19-.43.6.6 0 0 1 .19-.45.61.61 0 0 1 .43-.17.64.64 0 0 1 .44.17z"/><path d="m69.92 47.47v.59h-3.25v2.27h2.84v.59h-2.84v2.89h3.42v.59h-7.47v-.59h3.38v-2.89h-2.78v-.59h2.78v-2.27h-3.19v-.59zm-.42 5.61-.49.34a14.24 14.24 0 0 0 -1.24-1.77l.48-.3a13.13 13.13 0 0 1 1.25 1.73z"/><path d="m78.2 48.42v6.19h-.61v-.61h-5.48v.56h-.61v-6.17h.61v5.06h2.43v-6.45h.63v6.43h2.42v-5z"/><path d="m79.73 54.67-.13-.59h.7a.31.31 0 0 0 .34-.34v-2.06c-.35.15-.72.28-1.09.4l-.16-.64a8.64 8.64 0 0 0 1.25-.39v-1.93h-1.09v-.58h1.09v-1.54h.62v1.56h1v.58h-1v1.66c.31-.15.61-.3.91-.47v.67c-.3.17-.61.32-.91.47v2.5a.66.66 0 0 1 -.75.75zm2.92-6.76v-.58h4.24a8.61 8.61 0 0 1 -.28 2.89 1 1 0 0 1 -.93.48c-.19 0-.41 0-.67 0l-.14-.54h.68a.59.59 0 0 0 .59-.38 7.56 7.56 0 0 0 .15-1.87h-1.6a5.68 5.68 0 0 1 -.57 1.71 4.35 4.35 0 0 1 -1.33 1.3l-.36-.48a3.63 3.63 0 0 0 1.15-1.07 4.77 4.77 0 0 0 .51-1.46zm4.12 6.84h-.6v-.35h-2.74v.35h-.6v-3.53h3.94zm-.6-.93v-2h-2.74v2z"/><path d="m89.59 53.05a7.92 7.92 0 0 1 -1 1.62l-.51-.26a8.56 8.56 0 0 0 1-1.6zm1.74-5.74v5.15h-2.87v-5.15zm-.6 1.57v-1h-1.67v1zm0 1.49v-1h-1.67v1zm0 .51h-1.67v1h1.67zm.9 3.33-.46.34a11.75 11.75 0 0 0 -1-1.53l.45-.28a12.73 12.73 0 0 1 1.01 1.47zm.15-5v-.55h2.31v-1.66h.59v1.61h1v.55h-1v4.75a.69.69 0 0 1 -.78.77h-1l-.13-.57h.91a.35.35 0 0 0 .39-.4v-4.31a9.43 9.43 0 0 1 -2.35 4.14l-.32-.54a8.26 8.26 0 0 0 2.28-3.82z"/><path d="m97.35 52.69a7.52 7.52 0 0 1 -.41 2l-.51-.16a6.86 6.86 0 0 0 .41-1.94zm2.13-.63-.51.12-.1-.45a13.32 13.32 0 0 1 -2.18.5l-.15-.54a1.28 1.28 0 0 0 .26-.16 8.65 8.65 0 0 0 1.2-1.6c-.45.09-.9.15-1.34.21l-.14-.53a.7.7 0 0 0 .24-.22 13.21 13.21 0 0 0 1.11-2.45l.58.22a13.67 13.67 0 0 1 -1.23 2.41l1.09-.19c.2-.35.4-.72.61-1.12l.56.22a20 20 0 0 1 -2 3.12 10.52 10.52 0 0 0 1.34-.34c-.07-.27-.15-.54-.24-.79l.48-.16a15.73 15.73 0 0 1 .42 1.75zm-1 2.27-.52.12c-.09-.68-.19-1.28-.31-1.8l.49-.11c.17.55.29 1.15.39 1.79zm1.06-.41-.5.12a14.39 14.39 0 0 0 -.43-1.57l.46-.15a13 13 0 0 1 .52 1.6zm2.57-6.74v1.31h1.89v5.43c0 .52-.24.77-.71.77h-.74l-.17-.59h.72a.29.29 0 0 0 .32-.33v-4.71h-1.1a5.89 5.89 0 0 0 1 2.95l-.35.48a5.37 5.37 0 0 1 -1-2.41 5.85 5.85 0 0 1 -1.05 2.43l-.38-.46a5.82 5.82 0 0 0 1.17-3h-1.21v5.7h-.58v-6.26h1.84a6.85 6.85 0 0 1 0-.79h-1.12v-.52z"/><path d="m105.16 52.23-.19-.64a7.89 7.89 0 0 0 2.15-2.83h-2v-.59h1.23a8.62 8.62 0 0 0 -.45-1.09l.58-.17a12.43 12.43 0 0 1 .43 1.17l-.25.09h1v.52a6.46 6.46 0 0 1 -1 1.84 7.17 7.17 0 0 1 1.13.93l-.34.5a6.21 6.21 0 0 0 -.79-.82v3.61h-.6v-3.49c-.21.33-.55.65-.9.97zm7.46-4.92v.55h-4.62v-.55zm-.13 7.47h-.58v-.35h-3.24v.35h-.58v-3.84h4.4zm-.38-6.33v1.88h-3.62v-1.88zm-2.11 4v-1h-1.33v1zm0 1.48v-1h-1.33v1zm1.53-5h-2.46v.9h2.46zm-1 3.47h1.33v-1h-1.33zm1.33 1.48v-1h-1.33v1z"/><path d="m115.93 53.91h-.57v-.52h-1v.72h-.59v-6.43h2.13zm-.57-1.1v-4.55h-1v4.55zm1.93-4.81v-1h.59v1h.64v.56h-.64v.91h-.59v-.91h-1v-.56zm3.51 6.81h-.58v-.43h-3v.43h-.58v-4.93h4.2zm-2.37-3v-1.37h-1.25v1.37zm0 2v-1.45h-1.25v1.43zm1.57-6.81v1h1v.56h-1v.91h-.6v-.91h-.66v-.56h.66v-1zm-1 4.81h1.23v-1.37h-1.23zm1.23 2v-1.45h-1.23v1.43z"/><path d="m124.43 53.91h-.57v-.52h-1v.72h-.59v-6.43h2.13zm-.57-1.1v-4.55h-1v4.55zm1.93-4.81v-1h.59v1h.62v.56h-.64v.91h-.59v-.91h-1v-.56zm3.51 6.81h-.58v-.43h-3v.43h-.58v-4.93h4.2zm-2.37-3v-1.37h-1.25v1.37zm0 2v-1.45h-1.25v1.43zm1.61-6.81v1h1.05v.56h-1.05v.91h-.6v-.91h-.66v-.56h.66v-1zm-1 4.81h1.23v-1.37h-1.23zm1.23 2v-1.45h-1.23v1.43z"/><path d="m131.37 51.27a16.82 16.82 0 0 1 -.48 2.23l-.46-.16a15.93 15.93 0 0 0 .49-2.19zm0-1.83-.42.1a17 17 0 0 0 -.42-1.74l.45-.16a15.45 15.45 0 0 1 .41 1.8zm.34.55v-2.99h.58v3h1a6.44 6.44 0 0 0 1.29-2.78l.56.14a7 7 0 0 1 -1.58 3.26l-.27-.35v.25h-1v4.17h-.58v-4.15h-1.06v-.54zm1.68-2.4a7.22 7.22 0 0 1 -.36 1.88l-.41-.13a7.76 7.76 0 0 0 .3-1.81zm.17 5.72-.48.11a22.43 22.43 0 0 0 -.45-2.28l.41-.13a21.65 21.65 0 0 1 .54 2.3zm3.6.34c-.06.66-.38 1-1 1h-.79l-.15-.56h.85c.27 0 .43-.23.47-.68a18 18 0 0 0 .12-2.51h-1.3v.32a5 5 0 0 1 -1.49 3.54l-.5-.43a4.29 4.29 0 0 0 1.38-3.11v-.32h-.75v-.6h3.28a26.24 26.24 0 0 1 -.1 3.35zm-.42-6.39a5.89 5.89 0 0 0 1.46 2.87l-.38.52a6.66 6.66 0 0 1 -1.53-2.84h-.71v-.55z"/><path d="m142.28 52.05-.51.12c0-.17-.08-.34-.13-.5a14.18 14.18 0 0 1 -2.39.53l-.16-.56a.88.88 0 0 0 .28-.17 8.44 8.44 0 0 0 1.23-1.55c-.47.09-.93.17-1.41.24l-.15-.55a.6.6 0 0 0 .25-.23 11.82 11.82 0 0 0 1.27-2.38l.58.24a12.52 12.52 0 0 1 -1.36 2.37c.39-.05.78-.12 1.18-.21.19-.31.39-.64.59-1l.56.2a18.6 18.6 0 0 1 -2.11 3 13.49 13.49 0 0 0 1.5-.34 6.29 6.29 0 0 0 -.29-.8l.48-.16a12.27 12.27 0 0 1 .59 1.75zm-2.33.61a9.84 9.84 0 0 1 -.31 2.06l-.58-.17a9.09 9.09 0 0 0 .33-2zm1.24 1.58-.57.13c-.06-.67-.13-1.27-.21-1.79l.51-.11c.08.53.19 1.13.27 1.77zm1.1-.74-.51.23a10.06 10.06 0 0 0 -.5-1.33l.49-.16a9.5 9.5 0 0 1 .52 1.26zm1.4-.88a8 8 0 0 1 -1.18 1.9l-.35-.45a7.45 7.45 0 0 0 1.12-1.79zm-.16 2.08-.12-.57a4.49 4.49 0 0 0 .62 0c.17 0 .26-.11.26-.32v-2.18c-.56.09-1.15.16-1.75.23l-.1-.55a4.77 4.77 0 0 0 1.81-1.68c-.55.11-1.08.22-1.63.3l-.15-.53a.5.5 0 0 0 .25-.21 10.05 10.05 0 0 0 1.44-2.19l.56.23a11.3 11.3 0 0 1 -1.47 2.14c.44-.06.9-.14 1.37-.23.25-.38.5-.78.78-1.23l.59.21a16 16 0 0 1 -2.47 3.12 17 17 0 0 0 2.1-.41q-.24-.45-.51-.9l.44-.27a20.67 20.67 0 0 1 1.2 2.21l-.47.33c-.12-.28-.25-.57-.4-.86l-1 .22v2.44c0 .47-.23.71-.66.71zm3.19-.6-.42.41a11.64 11.64 0 0 0 -1-1.91l.38-.37a13.63 13.63 0 0 1 1.04 1.87z"/><path d="m154.82 54.78h-.58v-.37h-5.78v.37h-.57v-7.47h6.93zm-.58-.89v-6.08h-5.78v6.08zm-3.17-5.56v-.33h.55v.32h2v.4h-2v.35h1.65v1.8a6.38 6.38 0 0 1 .54.71l-.37.25a3.5 3.5 0 0 0 -.23-.35h-.4v.52h.95v.44h-.95v.56c0 .37-.21.56-.62.56h-.84l-.11-.47h.78c.17 0 .26-.08.26-.23v-.45h-3.35v-.41h3.35v-.47c-.85 0-1.9.08-3.14.11v-.36h2v-.38h-1.64v-1.8h1.64v-.35h-2v-.4zm-.21 4.74-.25.38a4.41 4.41 0 0 0 -1.08-.59l.23-.33a5.36 5.36 0 0 1 1.1.54zm.26-3.22v-.44h-1.19v.44zm0 .28h-1.19v.44h1.19zm.45-.28h1.21v-.44h-1.21zm1.21.28h-1.21v.44h1.21zm-1.16 1.11 1.36-.05-.26-.31h-1.1z"/><path d="m156.39 49v-.6h3.21a9.31 9.31 0 0 0 -.53-1.3l.6-.16a11.1 11.1 0 0 1 .49 1.33l-.33.13h3.5v.6h-3.16v2h2.75v.57h-2.75v2.27h3.46v.61h-7.54v-.61h3.46v-2.24h-2.76v-.6h2.76v-2z"/><path d="m172.11 47.31v.56h-2.51v.75h2v2.14h-3.53c-.15.28-.3.52-.44.76h4.6v.56h-1.82a2.86 2.86 0 0 1 -.94 1.31c.87.26 1.75.57 2.65.93l-.38.5c-.94-.4-1.88-.75-2.82-1.06a12.23 12.23 0 0 1 -4 1l-.23-.54a15.32 15.32 0 0 0 3.42-.71c-.7-.22-1.41-.4-2.11-.56l.58-.89h-2.1v-.56h2.44l.43-.76h-2.24v-2.12h2v-.75h-2.5v-.56zm-5 1.85h-1.39v1.08h1.39zm2.66 2.92h-2.48c-.14.23-.28.44-.41.63.63.14 1.27.3 1.93.48a2.22 2.22 0 0 0 .95-1.11zm-.77-4.21h-1.33v.75h1.33zm0 1.29h-1.33v1.08h1.33zm2 0h-1.4v1.08h1.4z"/><path d="m173.55 54.78-.47-.42a4.38 4.38 0 0 0 1-2.91v-2c-.21.15-.42.3-.64.44l-.39-.47a7.84 7.84 0 0 0 2.58-2.48l.6.14c-.13.21-.26.4-.4.59h3.17v.45a9.25 9.25 0 0 1 -1.06 1h2.06v5c0 .44-.24.67-.72.67h-1.17l-.15-.56h1.14c.21 0 .31-.12.31-.35v-1.09h-4.92a4.48 4.48 0 0 1 -.94 1.99zm3.53-5.7a8.83 8.83 0 0 0 1.1-.88h-2.76a9.23 9.23 0 0 1 -.89.88zm-2.39 2.33c0 .29 0 .57-.06.83h2.08v-1h-2zm0-1.78v1h2v-1zm4.75 0h-2.13v1h2.13zm0 1.59h-2.13v1h2.13z"/><path d="m181.89 50-.41-.5a8.14 8.14 0 0 0 2.69-2.53l.61.14c-.15.24-.31.48-.48.7h3.09v.47a9.25 9.25 0 0 1 -1 1.17h2v2.68h-5.27v1.57c0 .25.14.39.42.39h4.1a.68.68 0 0 0 .6-.29 3.67 3.67 0 0 0 .21-1.08l.6.18a4.25 4.25 0 0 1 -.24 1.2 1 1 0 0 1 -1 .58h-4.53c-.54 0-.8-.25-.8-.76v-4.44c-.15.17-.37.32-.59.52zm.78-.55h2.93a10.4 10.4 0 0 0 1-1.07h-2.77a9.08 9.08 0 0 1 -1.16 1.02zm.5.56v1.49h2v-1.5zm4.65 1.54v-1.55h-2v1.5z"/><path d="m193.06 52-.5.13q-.06-.26-.12-.48a13.43 13.43 0 0 1 -2.25.49l-.15-.53a1.64 1.64 0 0 0 .26-.16 8.51 8.51 0 0 0 1.12-1.57l-1.31.21-.15-.55a.64.64 0 0 0 .25-.22 13.33 13.33 0 0 0 1.07-2.4l.55.22a12.37 12.37 0 0 1 -1.19 2.37c.36 0 .72-.1 1.09-.17l.65-1.23.55.2a19.19 19.19 0 0 1 -2.06 3.22c.48-.09.95-.21 1.43-.35-.08-.25-.16-.49-.25-.72l.47-.15a11.23 11.23 0 0 1 .54 1.69zm-2.22.64a9.78 9.78 0 0 1 -.32 2l-.54-.17a6.79 6.79 0 0 0 .32-1.85zm1.21 1.55-.54.12c-.07-.65-.16-1.21-.26-1.7l.51-.11c.1.56.24 1.12.29 1.73zm1.06-.48-.51.14c-.1-.49-.22-1-.35-1.39l.47-.16a10.1 10.1 0 0 1 .39 1.45zm1.34-5.4a8 8 0 0 1 -.8 1.37 8.52 8.52 0 0 1 .87 1.36l-.51.29a8.24 8.24 0 0 0 -1-1.63 8.15 8.15 0 0 0 .87-1.61zm-1 3.86v-.56h4v.56h-1.73v1.83h2v.57h-4.65v-.57h2v-1.79zm4.22-4.91v.56h-4.4v-.52zm-1.67 1.11a7.53 7.53 0 0 1 -.78 1.35 7.89 7.89 0 0 1 .86 1.33l-.49.29a9.41 9.41 0 0 0 -1-1.6 9.11 9.11 0 0 0 .86-1.59zm1.6 0a6.42 6.42 0 0 1 -.81 1.34 7.27 7.27 0 0 1 .88 1.33l-.49.29a8.83 8.83 0 0 0 -1-1.6 7.93 7.93 0 0 0 .87-1.58z"/><path d="m200.36 48.77a2.87 2.87 0 0 1 -1.39.74l-.3-.46a2.69 2.69 0 0 0 1.24-.62 1.81 1.81 0 0 0 .35-1v-.43h.56v.4a2.94 2.94 0 0 1 -.18.91 14.39 14.39 0 0 1 1.54.8l-.41.41a9.92 9.92 0 0 0 -1.39-.77.05.05 0 0 0 -.02.02zm5.58 2.23h-.59v-.89h-6v.89h-.58v-1.43h7.17zm-6.22-2.86-.47.2a4.77 4.77 0 0 0 -.45-1l.45-.19a5.25 5.25 0 0 1 .47 1zm5.06 2.48v1.58h-2.13l-.14.48h3v2.11h-.59v-.33h-4.92v.34h-.59v-2.12h2.51l.14-.48h-2.09v-1.57zm.14 3.34v-.8h-4.92v.84zm-.73-2.88h-3.66v.65h3.66zm-2.08-3.82a2.92 2.92 0 0 1 -.44 1l-.49-.16a3.26 3.26 0 0 0 .43-1zm1.2.89-.47.2a6.61 6.61 0 0 0 -.45-1l.45-.18a5.81 5.81 0 0 1 .47.99zm.72.57a2.72 2.72 0 0 1 -1.32.68l-.3-.46a2.45 2.45 0 0 0 1.17-.56 1.48 1.48 0 0 0 .33-.92v-.46h.56v.5a2.92 2.92 0 0 1 -.15.79 9.2 9.2 0 0 1 1.54.76l-.31.49a7.78 7.78 0 0 0 -1.5-.8zm1.77-1.44a3.17 3.17 0 0 1 -.41 1l-.49-.17a3.35 3.35 0 0 0 .41-1z"/><path d="m58.29 67.56a.6.6 0 0 1 .18.44.57.57 0 0 1 -.18.43.6.6 0 0 1 -.44.18.58.58 0 0 1 -.43-.18.54.54 0 0 1 -.19-.43.63.63 0 0 1 .62-.62.6.6 0 0 1 .44.18z"/><path d="m66 67.26a3.1 3.1 0 0 1 .51 1.8h-3.43a1.9 1.9 0 0 0 .4 1.14 1.26 1.26 0 0 0 1 .41 1.35 1.35 0 0 0 .87-.27 1.47 1.47 0 0 0 .44-.69h.68a2 2 0 0 1 -.59 1 2.06 2.06 0 0 1 -1.4.49 2 2 0 0 1 -1.48-.58 2.41 2.41 0 0 1 -.57-1.7 2.34 2.34 0 0 1 .55-1.62 1.83 1.83 0 0 1 1.51-.69 1.89 1.89 0 0 1 1.51.71zm-2.53.24a1.7 1.7 0 0 0 -.41 1h2.74c-.08-1-.55-1.41-1.38-1.41a1.23 1.23 0 0 0 -.91.41z"/><path d="m68.31 70.2a.5.5 0 0 1 .15.38.49.49 0 0 1 -.15.36.52.52 0 0 1 -.37.16.47.47 0 0 1 -.36-.16.49.49 0 0 1 -.15-.36.5.5 0 0 1 .15-.38.46.46 0 0 1 .36-.15.51.51 0 0 1 .37.15z"/><path d="m73.74 65v.61h-3.37v2h3.19v.6h-3.19v2.82h-.69v-6.03z"/><path d="m75.42 65.15a.44.44 0 0 1 .16.36.49.49 0 0 1 -.16.37.52.52 0 0 1 -.36.14.53.53 0 0 1 -.37-.14.5.5 0 0 1 -.14-.37.45.45 0 0 1 .14-.36.49.49 0 0 1 .37-.14.48.48 0 0 1 .36.14zm0 1.52v4.39h-.68v-4.39z"/><path d="m80.37 68.36v2.7h-.68v-2.65c0-.86-.39-1.28-1.16-1.28a1.09 1.09 0 0 0 -.79.33 1.47 1.47 0 0 0 -.39 1v2.65h-.68v-4.44h.68v.64a1.66 1.66 0 0 1 .59-.56 1.63 1.63 0 0 1 .79-.2c1.09 0 1.64.6 1.64 1.81z"/><path d="m84.71 67.42v-.75h.68v4.08c0 1.41-.67 2.11-2 2.11a2.23 2.23 0 0 1 -1.39-.35 1.61 1.61 0 0 1 -.59-1.07h.68a1 1 0 0 0 .38.65 1.51 1.51 0 0 0 .89.22c.88 0 1.32-.49 1.32-1.46v-.77a1.59 1.59 0 0 1 -1.48.88 1.81 1.81 0 0 1 -1.45-.63 2.63 2.63 0 0 1 0-3.14 1.79 1.79 0 0 1 1.45-.64 1.58 1.58 0 0 1 1.51.87zm-2.4.16a1.82 1.82 0 0 0 -.31 1.19 1.89 1.89 0 0 0 .31 1.13 1.4 1.4 0 0 0 2.1 0 2.1 2.1 0 0 0 0-2.35 1.22 1.22 0 0 0 -1-.47 1.2 1.2 0 0 0 -1.1.5z"/><path d="m90 67.23a2.67 2.67 0 0 1 0 3.26 2 2 0 0 1 -1.58.69 2 2 0 0 1 -1.57-.69 2.33 2.33 0 0 1 -.56-1.62 2.37 2.37 0 0 1 .56-1.64 2.15 2.15 0 0 1 3.14 0zm-2.66.42a2.28 2.28 0 0 0 0 2.43 1.28 1.28 0 0 0 1.09.53 1.32 1.32 0 0 0 1.1-.53 2.28 2.28 0 0 0 0-2.43 1.32 1.32 0 0 0 -1.1-.53 1.28 1.28 0 0 0 -1.11.53z"/><path d="m94.67 71.78h-.6v-.43h-1.79v.43h-.6v-3.69h3zm-.6-1v-2.1h-1.79v2.09zm3.42-6.3v2.78h-4.68v-2.79zm-.61.58h-3.46v1.63h3.46zm1.74 6.73h-.62v-.43h-1.85v.43h-.61v-3.7h3.08zm-.61-1v-2.11h-1.86v2.09z"/><path d="m100.18 71.85-.44-.38a7 7 0 0 0 .58-3.24v-3.86h.59v2.13h.93v-2.28h.57v2.83h-1.5v1.22h1.55v3.54h-.59v-3h-1a6.67 6.67 0 0 1 -.69 3.04zm4.37-7a3.51 3.51 0 0 0 .27-.79l.61.09a4.82 4.82 0 0 1 -.26.7h1.93v3.6h-2l-.09.19a2.66 2.66 0 0 1 -1.24 1h1.67v-.9h.6v.9h1.47v.58h-1.47v1.63h-.6v-1.59h-2.6v-.58h.83l-.25-.39a2.41 2.41 0 0 0 1.06-.82h-1.26v-3.6zm.34 1.53v-1h-1.11v1zm0 .52h-1.1v1h1a3.83 3.83 0 0 0 .09-.98zm1.66 0h-1.1a5.59 5.59 0 0 1 -.14 1h1.24zm-1.1-.52h1.1v-1h-1.1z"/><path d="m108.38 68.26-.2-.64a9.36 9.36 0 0 0 2-3.54l.57.28a10.32 10.32 0 0 1 -.82 1.82v5.75h-.63v-4.79a12.51 12.51 0 0 1 -.92 1.12zm7.36-1.52-2.81.35a10.5 10.5 0 0 0 .21 1.4 5.35 5.35 0 0 0 .85 2.06c.33.46.64.69.93.7s.4-.55.52-1.63l.54.31a4.9 4.9 0 0 1 -.45 1.56.71.71 0 0 1 -.57.38 1.78 1.78 0 0 1 -1.29-.81 5.68 5.68 0 0 1 -1.08-2.32 9 9 0 0 1 -.26-1.57l-1.84.24-.1-.59 1.89-.25c-.06-.71-.1-1.53-.1-2.47h.63c0 .91 0 1.71.07 2.4l2.77-.35zm-.69-1.29-.43.42a7.78 7.78 0 0 0 -1.28-1.33l.39-.38a10.84 10.84 0 0 1 1.32 1.29z"/><path d="m120.49 65.2a7.26 7.26 0 0 0 -.47-1l.64-.18a6.84 6.84 0 0 1 .43 1l-.34.13h3.72v.57h-7.62v-.52zm3 6.73h-.6v-.41h-4.52v.41h-.59v-2.75h5.71zm-.14-5.42v.56h-5.43v-.56zm0 1.3v.56h-5.43v-.56zm-.46 3.13v-1.18h-4.52v1.18z"/><path d="m59.1 150.2v-2.11h-1.1v-.59h2.79v.59h-1.06v2.11h.93v.6h-.93v2.07c.38-.15.74-.31 1.09-.49v.6a17.67 17.67 0 0 1 -2.68 1l-.15-.59c.38-.08.75-.18 1.11-.29v-2.3h-1v-.6zm6-2.91v4.71h-1v1.8c0 .16.06.25.19.27h.44a.34.34 0 0 0 .32-.32 7.47 7.47 0 0 0 .06-1.12l.54.2a3.9 3.9 0 0 1 -.17 1.5.84.84 0 0 1 -.72.3h-.47c-.51 0-.77-.24-.77-.71v-1.92h-.76a3.11 3.11 0 0 1 -1.86 2.73l-.32-.51a2.53 2.53 0 0 0 1.62-2.22h-1v-4.69zm-.59 1.38v-.85h-2.69v.85zm0 1.38v-.88h-2.69v.88zm0 .49h-2.69v.92h2.68z"/><path d="m68.91 147.31a6.72 6.72 0 0 1 -2.29 2.49l-.18-.61a5.93 5.93 0 0 0 1.92-2.14zm.4 1.93a6.39 6.39 0 0 1 -.92 1.36v4.17h-.61v-3.55a10.05 10.05 0 0 1 -1.11.89l-.18-.61a7 7 0 0 0 2.27-2.5zm4.84.44v.6h-1.38v3.72c0 .5-.28.74-.82.74h-1.25l-.13-.6h1.17s.41-.11.41-.33v-3.56h-2.68v-.6zm-.37-2.16v.6h-4.08v-.6z"/><path d="m75.06 151.14-.2-.65a9.48 9.48 0 0 0 1.91-3.57l.58.27a12.61 12.61 0 0 1 -.79 1.88v5.72h-.62v-4.79a10.34 10.34 0 0 1 -.88 1.14zm4.67-3.3v-.84h.62v.87h2.33v.59h-2.33v.81h2v2.4h-2a4.71 4.71 0 0 1 -.44 1.78 6.93 6.93 0 0 0 2.95.79l-.15.58a6.9 6.9 0 0 1 -3.14-.9 3.68 3.68 0 0 1 -2.17.92l-.26-.56a3.12 3.12 0 0 0 1.89-.71 6.29 6.29 0 0 1 -1.34-1.29l.47-.32a5.81 5.81 0 0 0 1.22 1.16 4.11 4.11 0 0 0 .35-1.45h-1.9v-2.4h1.94v-.81h-2.27v-.59zm0 3v-1.1h-1.36v1.31h1.35c0-.05.01-.05.01-.17zm2-1.1h-1.38v1.1.21h1.42z"/><path d="m83.92 154.69-.47-.41a5 5 0 0 0 .84-2.89v-4.08h6.33v6.37a.79.79 0 0 1 -.89.89h-1l-.16-.6h.94c.31 0 .47-.17.47-.53v-1.44h-2.29v2.49h-.63v-2.49h-2.19a5.13 5.13 0 0 1 -.95 2.69zm1-6.78v1.46h2.16v-1.46zm0 3.52h2.16v-1.49h-2.18zm5.1-3.52h-2.33v1.46h2.31zm0 2h-2.33v1.49h2.31z"/><path d="m96.22 148.9a.5.5 0 0 1 .15.37.49.49 0 0 1 -.15.36.51.51 0 0 1 -.38.16.47.47 0 0 1 -.37-.16.49.49 0 0 1 -.15-.36.5.5 0 0 1 .15-.37.47.47 0 0 1 .37-.16.51.51 0 0 1 .38.16zm0 3.11a.5.5 0 0 1 .15.37.53.53 0 0 1 -.15.37.54.54 0 0 1 -.38.15.5.5 0 0 1 -.37-.15.53.53 0 0 1 -.15-.37.5.5 0 0 1 .15-.37.47.47 0 0 1 .37-.16.51.51 0 0 1 .38.15z"/><path d="m58.29 167.56a.62.62 0 0 1 -.44 1.06.62.62 0 0 1 0-1.24.6.6 0 0 1 .44.18z"/><path d="m67 165.41a2.16 2.16 0 0 1 .82 1.45h-.67a1.54 1.54 0 0 0 -.65-1 2 2 0 0 0 -1.2-.34 2 2 0 0 0 -1.64.74 3.38 3.38 0 0 0 0 3.62 2 2 0 0 0 1.63.7 2 2 0 0 0 1.23-.38 2 2 0 0 0 .72-1.2h.67a2.6 2.6 0 0 1 -1 1.65 2.68 2.68 0 0 1 -1.67.55 2.62 2.62 0 0 1 -2.17-.93 3.87 3.87 0 0 1 0-4.41 2.6 2.6 0 0 1 2.17-1 2.64 2.64 0 0 1 1.76.55z"/><path d="m72.56 165.34a2 2 0 0 1 .7 1.45h-.69a1.57 1.57 0 0 0 -.51-1 1.81 1.81 0 0 0 -1.15-.32 2.12 2.12 0 0 0 -1.06.22.84.84 0 0 0 -.43.77.83.83 0 0 0 .52.74 6.68 6.68 0 0 0 1.11.38 8.28 8.28 0 0 1 1.58.59 1.42 1.42 0 0 1 .76 1.28 1.46 1.46 0 0 1 -.64 1.26 2.89 2.89 0 0 1 -1.71.45 2.74 2.74 0 0 1 -1.69-.46 2.15 2.15 0 0 1 -.79-1.66h.69a1.68 1.68 0 0 0 .55 1.16 2 2 0 0 0 1.24.34 2.24 2.24 0 0 0 1.2-.28.85.85 0 0 0 .46-.76 1 1 0 0 0 -.6-.9 7.89 7.89 0 0 0 -1.28-.44 11 11 0 0 1 -1.4-.49 1.27 1.27 0 0 1 -.69-1.17 1.39 1.39 0 0 1 .67-1.24 2.69 2.69 0 0 1 1.54-.4 2.56 2.56 0 0 1 1.62.48z"/><path d="m76.89 165a2.21 2.21 0 0 1 1.43.42 1.54 1.54 0 0 1 .54 1.28 1.56 1.56 0 0 1 -.27.9 1.4 1.4 0 0 1 -.83.52 1.16 1.16 0 0 1 1 1.11l.09.93a1.66 1.66 0 0 0 .33.89h-.76a1.62 1.62 0 0 1 -.25-.81l-.07-.8a1 1 0 0 0 -.39-.78 1.43 1.43 0 0 0 -.87-.22h-1.84v2.61h-.69v-6.05zm-1.89 2.85h1.84a1.58 1.58 0 0 0 1-.31 1.08 1.08 0 0 0 .32-.83 1.07 1.07 0 0 0 -.31-.83 1.59 1.59 0 0 0 -1-.28h-1.85z"/><path d="m81.76 167.53-.43.42a8.84 8.84 0 0 0 -1.46-1.26l.42-.42a10 10 0 0 1 1.47 1.26zm.09 1.21a31.16 31.16 0 0 1 -1.22 3.07l-.62-.26a24.91 24.91 0 0 0 1.29-3zm.08-3.38-.41.42a9.28 9.28 0 0 0 -1.45-1.14l.42-.4a10 10 0 0 1 1.44 1.12zm2.53 1.23v-1.33q-1 .09-2.07.09l-.18-.55a14.43 14.43 0 0 0 4.62-.63l.3.53a10.85 10.85 0 0 1 -2 .48v1.41h2.45v.59h-2.5v1.32h1.92v3.4h-.6v-.45h-3.2v.47h-.6v-3.42h1.86v-1.32h-2.46v-.59zm1.93 4.29v-1.81h-3.19v1.81z"/><path d="m94 164.14v1.62h1.72c0 2.8 0 4.52-.12 5.18a.93.93 0 0 1 -1 .89h-.84l-.14-.54h.9c.32 0 .51-.19.56-.58s.1-2 .11-4.4h-1.19v.41c0 2.35-.53 4.07-1.53 5.16l-.47-.38a.7.7 0 0 0 .08-.1c-1.1.14-2.36.25-3.76.34l-.08-.54 1.8-.12v-.76h-1.51v-.51h1.53v-.58h-1.52v-2.6h1.52v-.54h-1.73v-.51h1.73v-.58c-.47 0-1 0-1.52 0l-.17-.5a16.24 16.24 0 0 0 3.63-.3l.28.46a10.55 10.55 0 0 1 -1.6.28v.64h1.69v.51h-1.73v.54h1.53v2.6h-1.53v.58h1.54v.51h-1.54v.68c.55-.05 1.07-.11 1.54-.18v.45a7.25 7.25 0 0 0 1.25-4.58v-.41h-.84v-.55h.84v-1.62zm-3.9 3.57v-.63h-1v.63zm0 .43h-1v.63h1zm.5-.43h1v-.63h-1zm1 .43h-1v.63h1z"/><path d="m99.79 164.68a9.37 9.37 0 0 1 -2.43 3.87l-.48-.42a8.44 8.44 0 0 0 2.34-3.68zm4 7-.56.25c-.13-.28-.26-.55-.39-.8-1.5.23-3.18.4-5 .52l-.11-.59q1-.54 2.54-4l.6.2a17.76 17.76 0 0 1 -2.19 3.74 37.59 37.59 0 0 0 3.9-.42 16.63 16.63 0 0 0 -1-1.68l.56-.18a17.11 17.11 0 0 1 1.66 2.93zm-1.37-7.23a6.15 6.15 0 0 0 2.08 3.65l-.49.44a6.82 6.82 0 0 1 -2.01-3.54h-1.43v-.57z"/><path d="m108.34 166.91a8.82 8.82 0 0 1 -2.76 1.75l-.26-.57a7.48 7.48 0 0 0 2.63-1.62zm3.53 4.14h1.06v.58h-7.53v-.58h1.12v-2.73h5.35zm-4.13-5.43a9.69 9.69 0 0 0 -1-1.21l.51-.32a12 12 0 0 1 1.07 1.24l-.4.29h2.08a9.36 9.36 0 0 0 .91-1.53l.59.21a8.46 8.46 0 0 1 -.82 1.32h2v.59h-7.17v-.59zm.36 5.43v-2.15h-1v2.15zm1.6 0v-2.15h-1v2.15zm3.28-2.92-.34.54a11.76 11.76 0 0 0 -2.64-1.67l.32-.47a12.85 12.85 0 0 1 2.68 1.6zm-1.7 2.92v-2.15h-1v2.15z"/><path d="m113.89 168.26-.2-.64a9.36 9.36 0 0 0 2-3.54l.57.28a10 10 0 0 1 -.82 1.82v5.75h-.63v-4.78a12.39 12.39 0 0 1 -.92 1.11zm7.36-1.52-2.81.35a10.67 10.67 0 0 0 .21 1.41 5.36 5.36 0 0 0 .85 2.05c.33.46.64.69.93.7s.4-.55.52-1.62l.53.3a4.93 4.93 0 0 1 -.44 1.56.72.72 0 0 1 -.58.38 1.8 1.8 0 0 1 -1.29-.81 6 6 0 0 1 -1.08-2.32 10.15 10.15 0 0 1 -.25-1.57l-1.85.24-.09-.59 1.89-.24c-.06-.72-.1-1.54-.11-2.48h.63c0 .91 0 1.71.08 2.4l2.76-.35zm-.69-1.29-.43.42a8.19 8.19 0 0 0 -1.28-1.33l.39-.38a10.84 10.84 0 0 1 1.32 1.29z"/><path d="m126 165.2a7.9 7.9 0 0 0 -.47-1l.64-.18a8.08 8.08 0 0 1 .43 1l-.34.13h3.74v.58h-7.63v-.58zm3 6.73h-.59v-.41h-4.51v.41h-.6v-2.75h5.7zm-.13-5.41v.55h-5.43v-.55zm0 1.3v.55h-5.43v-.55zm-.46 3.12v-1.18h-4.51v1.18z"/><path d="m138.23 164a8.48 8.48 0 0 0 -.81 1.76 6.79 6.79 0 0 0 0 4.42 8.72 8.72 0 0 0 .81 1.76h-.6a7.52 7.52 0 0 1 -.87-1.75 6.65 6.65 0 0 1 0-4.43 7.22 7.22 0 0 1 .87-1.76z"/><path d="m141 171.9h-.6v-4.21a10.68 10.68 0 0 1 -.93 2.11l-.27-.67a8 8 0 0 0 1.19-2.76h-1v-.58h1v-1.67h.6v1.67h.86v.58h-.85v.63c.34.42.68.9 1 1.43l-.34.51c-.26-.5-.49-.92-.69-1.25zm3.12-7c0-.27 0-.53.06-.79l.61.08-.06.71h2.12v.56h-2.17c0 .27-.07.52-.11.78h1.72v4.88h.73v.58h-5.32v-.58h.86v-4.88h1.44c0-.26.07-.53.09-.78h-2.09v-.56zm1.58 2.59v-.71h-2.55v.71zm0 1.18v-.67h-2.55v.68zm0 1.19v-.7h-2.55v.7zm0 1.26v-.76h-2.55v.76z"/><path d="m149.34 171.89h-.57v-4a10.69 10.69 0 0 1 -.82 2l-.26-.66a8.83 8.83 0 0 0 1.07-2.85h-.88v-.58h.89v-1.67h.57v1.67h.75v.58h-.75v.57c.32.41.65.88 1 1.39l-.34.51c-.25-.49-.46-.89-.65-1.21zm3.44-2.15c-.16.41-.32.77-.47 1.08l.74-.22v.53a18.59 18.59 0 0 1 -2.94.67l-.07-.56c.6-.08 1.14-.18 1.65-.29a10.21 10.21 0 0 0 .6-1.39zm-1.47-4.74v-.84h.56v.84h1v.54h-1v.79h1v.55h-2.54v-.55h1v-.79h-1.07v-.54zm0 5.73-.43.19a7.58 7.58 0 0 0 -.48-1.06l.45-.19a6.78 6.78 0 0 1 .44 1.04zm1.44-3.32v2h-2.24v-2zm-.54.49h-1.21v1h1.17zm1.93 1.32-.46.21a14.44 14.44 0 0 0 -.67-1.77l.46-.2a11.47 11.47 0 0 1 .65 1.74zm.33-3.4v-1.66h.53v1.66h.51v.55h-.51v4.79c0 .46-.24.7-.73.7h-.95l-.12-.56c.31 0 .6.05.87.05s.36-.12.36-.34v-4.64h-1.36v-.55z"/><path d="m158.26 167.53-.43.42a8.84 8.84 0 0 0 -1.46-1.26l.42-.42a10 10 0 0 1 1.47 1.26zm.09 1.21a31.16 31.16 0 0 1 -1.22 3.07l-.62-.26a24.91 24.91 0 0 0 1.29-3zm.08-3.38-.41.42a9.28 9.28 0 0 0 -1.45-1.14l.42-.4a10 10 0 0 1 1.44 1.12zm2.53 1.23v-1.33q-1 .09-2.07.09l-.18-.55a14.43 14.43 0 0 0 4.62-.63l.3.53a10.85 10.85 0 0 1 -2 .48v1.41h2.37v.59h-2.45v1.32h1.91v3.4h-.6v-.45h-3.16v.47h-.6v-3.42h1.9v-1.32h-2.43v-.59zm1.93 4.29v-1.81h-3.19v1.81z"/><path d="m170.5 164.14v1.62h1.72c0 2.8 0 4.52-.12 5.18a.93.93 0 0 1 -1 .89h-.84l-.14-.54h.9c.32 0 .51-.19.56-.58s.1-2 .11-4.4h-1.19v.41c0 2.35-.53 4.07-1.53 5.16l-.45-.38a.7.7 0 0 0 .08-.1c-1.1.14-2.36.25-3.76.34l-.08-.54 1.8-.12v-.76h-1.56v-.51h1.53v-.58h-1.53v-2.6h1.52v-.54h-1.73v-.51h1.73v-.58c-.47 0-1 0-1.52 0l-.17-.5a16.24 16.24 0 0 0 3.59-.34l.28.46a10.55 10.55 0 0 1 -1.6.28v.64h1.69v.51h-1.69v.54h1.53v2.6h-1.53v.58h1.54v.51h-1.54v.72c.55-.05 1.07-.11 1.54-.18v.45a7.25 7.25 0 0 0 1.25-4.58v-.41h-.84v-.55h.84v-1.62zm-3.9 3.57v-.63h-1v.63zm0 .43h-1v.63h1zm.5-.43h1v-.63h-1zm1 .43h-1v.63h1z"/><path d="m177.47 167.81a6.24 6.24 0 0 1 .73.87l-.42.36a8 8 0 0 0 -.72-.88 7.16 7.16 0 0 0 -.95-.84l.39-.36a6.63 6.63 0 0 1 .97.85z"/><path d="m188.7 164.46v2.92h-2.7v.68h2.88v.55h-2.88v.71h3.37v.55h-7.37v-.55h3.37v-.71h-2.88v-.55h2.88v-.68h-2.72v-2.92zm-5.36 5.91a5.94 5.94 0 0 1 -.73 1.54l-.56-.19a5.82 5.82 0 0 0 .75-1.5zm2-5.38h-2.17v1.87h2.17zm-.57 1.48-.5.14a7.59 7.59 0 0 0 -.56-1.19l.49-.16a7.57 7.57 0 0 1 .61 1.21zm.42 5.31-.59.13a9.08 9.08 0 0 0 -.43-1.48l.55-.12a15 15 0 0 1 .51 1.47zm2.89-6.79h-2.18v1.87h2.18zm-.94 6.77-.58.14a7.79 7.79 0 0 0 -.61-1.51l.54-.12a10.63 10.63 0 0 1 .69 1.49zm.35-6.41a4.82 4.82 0 0 1 -.59 1.25l-.49-.18a4.79 4.79 0 0 0 .57-1.2zm1.76 6.22-.49.34a11.63 11.63 0 0 0 -1-1.45l.46-.29a11 11 0 0 1 1.07 1.4z"/><path d="m192 170.29a7.43 7.43 0 0 1 -1.08 1.66l-.5-.36a6.05 6.05 0 0 0 1.08-1.54zm1.92-1c0 .38-.24.56-.71.56h-.79l-.13-.52h.76q.3 0 .3-.27v-.54c-.51.14-1.1.27-1.74.39l-.14-.48c.68-.12 1.3-.27 1.88-.42v-1.22h-1.88v.42c.56 0 1.1.13 1.63.23l-.17.42c-.47-.1-1-.18-1.46-.24v.38a3.24 3.24 0 0 1 -.58 2l-.44-.39a2.6 2.6 0 0 0 .46-1.54v-1.73h3zm.45-3.49-.45.3c-.09-.13-.17-.27-.27-.4-.83.12-1.82.21-3 .27l-.14-.46a.79.79 0 0 0 .25-.15 5.21 5.21 0 0 0 1.11-1.29l.56.17a4.67 4.67 0 0 1 -1.06 1.23c.63 0 1.29-.1 2-.19-.16-.2-.31-.4-.48-.59l.44-.29a10.33 10.33 0 0 1 1.01 1.37zm-.57 6-.6.14a9.8 9.8 0 0 0 -.41-1.64l.58-.13c.13.49.27 1.04.4 1.62zm1.9 0-.58.14a9.86 9.86 0 0 0 -.6-1.7l.57-.13a13.87 13.87 0 0 1 .58 1.69zm-.42-7.66v.79l2.42-.14v.51l-2.42.14v.56c0 .2.07.31.23.31h2.38v.54h-2.54c-.44 0-.65-.24-.65-.71v-2zm.12 5.6a.63.63 0 0 1 -.7-.72v-1.92h.58v.51l2.43-.13v.52l-2.43.14v.78c0 .17.09.27.29.27h1.2a.63.63 0 0 0 .41-.11c.1-.07.17-.31.2-.7l.56.17c-.06.57-.18.92-.35 1a1.28 1.28 0 0 1 -.71.16zm2.54 1.89-.49.35a13 13 0 0 0 -1.17-1.68l.48-.29a13.3 13.3 0 0 1 1.15 1.62z"/><path d="m201.18 164.33a11.31 11.31 0 0 1 -.75 1.78v5.82h-.63v-4.82a12.73 12.73 0 0 1 -.92 1.14l-.2-.66a9.37 9.37 0 0 0 1.92-3.52zm1.74 5.21a7.31 7.31 0 0 1 -1.78 1.86l-.37-.48a7.6 7.6 0 0 0 1.74-1.75zm2.77-5v2.69h-1.69v.92h2.44v.59h-2.44v3.21h-.62v-3.25h-2.38v-.59h2.36v-.92h-1.69v-2.69zm-.6.59h-2.8v1.5h2.8zm1.52 5.84-.41.44a13.18 13.18 0 0 0 -1.76-1.81l.38-.42a13.16 13.16 0 0 1 1.79 1.75z"/><path d="m211.32 164.26c-.15.22-.31.42-.47.62h4.15v.57h-2a15.68 15.68 0 0 1 1.83 1.62l-.51.35a7.85 7.85 0 0 0 -.64-.66q-2.92.19-5.52.3l-.11-.51a4.46 4.46 0 0 0 1.58-1.1h-2.25v-.57h2.76c.19-.25.39-.51.59-.8zm2.4 6.86c0 .5-.28.76-.84.76h-.88l-.14-.56h.9c.27 0 .4-.14.4-.43v-.7c-1.15.21-2.38.38-3.69.52l-.15-.58c1.33-.1 2.61-.25 3.84-.46v-1.64h-3.87v.53c.76.06 1.37.11 1.79.16l1.46.2-.21.48c-.52-.08-1.05-.16-1.57-.22s-1-.11-1.47-.14v.09a4.16 4.16 0 0 1 -1 2.82l-.46-.43a3.44 3.44 0 0 0 .86-2.35v-1.68h5.08zm-1.28-5.4.43-.27h-2.52a6.69 6.69 0 0 1 -1.25 1.08c1.89-.1 3.23-.18 4-.24-.19-.19-.42-.39-.66-.57z"/><path d="m220 167.81a6.24 6.24 0 0 1 .73.87l-.42.36a8 8 0 0 0 -.72-.88 7.16 7.16 0 0 0 -.95-.84l.36-.32a6.63 6.63 0 0 1 1 .81z"/><path d="m225.4 165.46v-1.32h.6v1.32h1v3.48h-1v1.66l.59-.17c-.08-.27-.15-.54-.24-.79l.43-.14a20.38 20.38 0 0 1 .56 2.11l-.44.11c0-.27-.12-.52-.17-.76a19.94 19.94 0 0 1 -2.22.6l-.15-.64c.36 0 .72-.12 1.06-.19v-1.79h-1v-3.48zm0 .55h-.53v2.38h.53zm1 0h-.53v2.38h.53zm2.87 4.88h-1.47v.51h-.53v-3.4h.74v-1.64h-.83v-.54h.83v-1.47h.56v1.47h.82v.54h-.82v1.64h.7zm-.53-.5v-1.87h-.94v1.87zm.79 1.52-.44-.39a7.32 7.32 0 0 0 .57-3v-4.14h2.1v6.84a.56.56 0 0 1 -.64.62h-.53l-.13-.51a4.1 4.1 0 0 0 .48 0c.19 0 .28-.11.28-.33v-2c-.33.1-.69.19-1.06.27a7.26 7.26 0 0 1 -.58 2.64zm.66-3.38v.19a8.25 8.25 0 0 0 1-.27v-1.14a8.06 8.06 0 0 0 -1-.31zm1-3.57h-1v1.52a6.48 6.48 0 0 1 1 .29z"/><path d="m234.58 164.14v1.28h1.08v3.52h-1.08v1.72c.22-.06.43-.14.64-.22-.07-.34-.15-.66-.23-1l.44-.15a22.07 22.07 0 0 1 .54 2.28l-.5.13c-.05-.28-.09-.53-.14-.78a17.79 17.79 0 0 1 -2.44.72l-.14-.56c.43-.08.85-.17 1.26-.28v-1.89h-1.07v-3.52h1.06v-1.28zm-1.11 1.86v2.44h.58v-2.44zm1.66 2.44v-2.44h-.6v2.44zm2.37 1.81a5.63 5.63 0 0 1 -1.2 1.38l-.34-.43a5.64 5.64 0 0 0 1.15-1.29zm-1-5.1v-1h.5v1h.74v-1h.53v1h.89v-1h.52v1h.76v.52h-.76v1.28h-1.94v-1.28h-.74v1.87h3.36v.46h-1.86v.81h1.94v.56h-1.94v2.52h-.58v-2.52h-1.92v-.56h1.93v-.81h-1.46v-2.4h-.47v-.52zm1.83 1.31h.89v-.79h-.89zm2.33 4.72-.37.41a9.9 9.9 0 0 0 -1.29-1.36l.34-.38a9.22 9.22 0 0 1 1.28 1.28z"/><path d="m244.85 165.62v-.62c-.78 0-1.6.06-2.48.06l-.18-.52a36.35 36.35 0 0 0 5.55-.38l.27.47a18.26 18.26 0 0 1 -2.54.32v.69h3.34v.56h-3.34v.19a18.06 18.06 0 0 1 1.89.54 15.89 15.89 0 0 1 1.56.63l-.24.55a13.09 13.09 0 0 0 -1.68-.75 10.87 10.87 0 0 0 -1.53-.47v1.07h1.72v.53a17.68 17.68 0 0 1 -1.53.91v.26h3v.56h-3v1c0 .45-.25.68-.76.68h-1.07l-.15-.55h1a.31.31 0 0 0 .32-.35v-.79h-3.36v-.56h3.36v-.5c.59-.27 1-.5 1.33-.67h-3.44v-.53h1.92v-1.76a6.46 6.46 0 0 1 -3.11 2l-.32-.52a6.8 6.8 0 0 0 2.8-1.46h-2.66v-.56z"/><path d="m250.68 164a7.63 7.63 0 0 1 .88 1.76 6.82 6.82 0 0 1 0 4.43 8 8 0 0 1 -.88 1.75h-.59a9.31 9.31 0 0 0 .81-1.76 6.79 6.79 0 0 0 0-4.42 9 9 0 0 0 -.81-1.76z"/><path d="m58.29 184.71a.59.59 0 0 1 .18.44.58.58 0 0 1 -.18.43.6.6 0 0 1 -.44.18.58.58 0 0 1 -.43-.18.56.56 0 0 1 -.19-.43.56.56 0 0 1 .19-.44.58.58 0 0 1 .43-.18.6.6 0 0 1 .44.18z"/><path d="m69.92 181.76v.59h-3.25v2.27h2.84v.6h-2.84v2.88h3.42v.59h-7.47v-.59h3.38v-2.88h-2.78v-.6h2.78v-2.27h-3.19v-.59zm-.42 5.61-.49.34a14.24 14.24 0 0 0 -1.24-1.77l.48-.3a13.13 13.13 0 0 1 1.25 1.73z"/><path d="m78.2 182.71v6.19h-.61v-.57h-5.48v.56h-.61v-6.21h.61v5.06h2.43v-6.43h.63v6.43h2.42v-5z"/><path d="m79.73 189-.13-.59h.7a.31.31 0 0 0 .34-.34v-2.07c-.35.15-.72.28-1.09.4l-.16-.64a8.64 8.64 0 0 0 1.25-.39v-1.93h-1.09v-.58h1.09v-1.56h.62v1.56h1v.58h-1v1.68c.31-.15.61-.3.91-.47v.62c-.3.17-.61.32-.91.47v2.51a.66.66 0 0 1 -.75.74zm2.92-6.76v-.58h4.24a8.61 8.61 0 0 1 -.28 2.89 1 1 0 0 1 -.93.48c-.19 0-.41 0-.67 0l-.14-.54h.68a.59.59 0 0 0 .59-.38 7.56 7.56 0 0 0 .15-1.87h-1.6a5.68 5.68 0 0 1 -.57 1.71 4.49 4.49 0 0 1 -1.33 1.31l-.36-.49a3.63 3.63 0 0 0 1.15-1.07 4.77 4.77 0 0 0 .51-1.46zm4.12 6.76h-.6v-.35h-2.74v.35h-.6v-3.53h3.94zm-.6-.93v-2h-2.74v2z"/><path d="m89.59 187.34a7.92 7.92 0 0 1 -1 1.62l-.51-.26a8.56 8.56 0 0 0 1-1.6zm1.74-5.74v5.15h-2.87v-5.15zm-.6 1.57v-1h-1.67v1zm0 1.49v-1h-1.67v1zm0 .51h-1.67v1h1.67zm.9 3.33-.46.34a11.75 11.75 0 0 0 -1-1.53l.45-.28a12.73 12.73 0 0 1 1.01 1.47zm.15-5v-.55h2.31v-1.65h.59v1.61h1v.55h-1v4.75a.69.69 0 0 1 -.78.77h-1l-.13-.57h.91a.35.35 0 0 0 .39-.4v-4.36a9.43 9.43 0 0 1 -2.35 4.14l-.34-.55a8.26 8.26 0 0 0 2.28-3.82z"/><path d="m97.35 187a7.52 7.52 0 0 1 -.41 2l-.51-.16a6.78 6.78 0 0 0 .41-1.94zm2.13-.63-.51.12-.1-.45a13.32 13.32 0 0 1 -2.18.5l-.15-.54a1.28 1.28 0 0 0 .26-.16 8.65 8.65 0 0 0 1.16-1.6c-.45.09-.9.15-1.34.21l-.14-.53a.7.7 0 0 0 .24-.22 13.21 13.21 0 0 0 1.11-2.45l.58.22a13.67 13.67 0 0 1 -1.23 2.41l1.09-.19c.2-.35.4-.72.61-1.11l.56.21a20.69 20.69 0 0 1 -2 3.13 12.57 12.57 0 0 0 1.34-.35c-.07-.27-.15-.54-.24-.79l.48-.16a15.73 15.73 0 0 1 .46 1.73zm-1 2.27-.52.12c-.09-.68-.19-1.28-.31-1.8l.49-.11c.17.53.29 1.15.39 1.77zm1.06-.41-.5.12a14.39 14.39 0 0 0 -.43-1.57l.46-.15a13 13 0 0 1 .52 1.58zm2.57-6.74v1.31h1.89v5.44c0 .51-.24.76-.71.76h-.74l-.17-.59h.72a.29.29 0 0 0 .32-.33v-4.74h-1.1a5.89 5.89 0 0 0 1 3l-.35.48a5.37 5.37 0 0 1 -1-2.41 5.85 5.85 0 0 1 -1.05 2.43l-.38-.46a5.82 5.82 0 0 0 1.17-3h-1.21v5.7h-.58v-6.27h1.84a6.85 6.85 0 0 1 0-.79h-1.12v-.52z"/><path d="m105.16 186.52-.19-.64a7.89 7.89 0 0 0 2.15-2.83h-2v-.59h1.23a8.62 8.62 0 0 0 -.45-1.09l.58-.17a12.43 12.43 0 0 1 .43 1.17l-.25.09h1v.54a6.46 6.46 0 0 1 -1 1.84 7.17 7.17 0 0 1 1.13.93l-.34.5a6.21 6.21 0 0 0 -.79-.82v3.61h-.6v-3.51c-.21.33-.55.65-.9.97zm7.46-4.92v.55h-4.62v-.55zm-.13 7.47h-.58v-.35h-3.24v.35h-.58v-3.84h4.4zm-.38-6.33v1.88h-3.62v-1.88zm-2.11 4v-1h-1.33v1zm0 1.48v-1h-1.33v1zm1.53-4.94h-2.46v.89h2.46zm-1 3.46h1.33v-1h-1.33zm1.33 1.48v-1h-1.33v1z"/><path d="m115.93 188.2h-.57v-.52h-1v.72h-.59v-6.4h2.13zm-.57-1.1v-4.55h-1v4.55zm1.93-4.83v-1h.59v1h.64v.56h-.64v.91h-.59v-.91h-1v-.56zm3.51 6.81h-.58v-.43h-3v.43h-.58v-4.91h4.2zm-2.37-3v-1.37h-1.25v1.37zm0 2v-1.43h-1.25v1.43zm1.61-6.79v1h1v.56h-1v.91h-.6v-.91h-.66v-.56h.66v-1zm-1.04 4.81h1.23v-1.37h-1.23zm1.23 2v-1.43h-1.23v1.43z"/><path d="m124.43 188.2h-.57v-.52h-1v.72h-.59v-6.4h2.13zm-.57-1.1v-4.55h-1v4.55zm1.93-4.83v-1h.59v1h.62v.56h-.64v.91h-.59v-.91h-1v-.56zm3.51 6.81h-.58v-.43h-3v.43h-.58v-4.91h4.2zm-2.37-3v-1.37h-1.25v1.37zm0 2v-1.43h-1.25v1.43zm1.61-6.79v1h1.05v.56h-1.05v.91h-.6v-.91h-.66v-.56h.66v-1zm-1 4.81h1.23v-1.37h-1.23zm1.23 2v-1.43h-1.23v1.43z"/><path d="m131.37 185.56a16.82 16.82 0 0 1 -.48 2.23l-.46-.16a15.93 15.93 0 0 0 .49-2.19zm0-1.83-.42.1a17 17 0 0 0 -.42-1.74l.45-.16a15.45 15.45 0 0 1 .41 1.8zm.34.55v-3h.58v3h1a6.46 6.46 0 0 0 1.29-2.77l.56.13a7 7 0 0 1 -1.58 3.26l-.27-.35v.25h-1v4.2h-.58v-4.17h-1.06v-.55zm1.68-2.4a7.22 7.22 0 0 1 -.36 1.88l-.41-.13a7.76 7.76 0 0 0 .3-1.81zm.17 5.72-.48.11a22.43 22.43 0 0 0 -.45-2.28l.41-.13a21.65 21.65 0 0 1 .54 2.3zm3.6.34c-.06.66-.38 1-1 1h-.79l-.15-.56h.85c.27 0 .43-.23.47-.68a18 18 0 0 0 .12-2.51h-1.3v.32a5 5 0 0 1 -1.49 3.54l-.5-.43a4.27 4.27 0 0 0 1.38-3.11v-.32h-.75v-.59h3.28a26.24 26.24 0 0 1 -.1 3.34zm-.42-6.39a5.89 5.89 0 0 0 1.46 2.87l-.38.52a6.66 6.66 0 0 1 -1.53-2.84h-.71v-.55z"/><path d="m142.28 186.34-.51.12c0-.17-.08-.34-.13-.5a14.18 14.18 0 0 1 -2.39.53l-.16-.56a.88.88 0 0 0 .28-.17 8.44 8.44 0 0 0 1.23-1.55c-.47.09-.93.17-1.41.24l-.15-.55a.6.6 0 0 0 .25-.23 11.82 11.82 0 0 0 1.27-2.43l.58.24a12.52 12.52 0 0 1 -1.36 2.37c.39 0 .78-.12 1.18-.21.19-.31.39-.64.59-1l.56.2a18.6 18.6 0 0 1 -2.11 3 13.49 13.49 0 0 0 1.5-.34 6.29 6.29 0 0 0 -.29-.8l.48-.16a12.27 12.27 0 0 1 .59 1.8zm-2.28.66a9.84 9.84 0 0 1 -.31 2.06l-.58-.17a9.09 9.09 0 0 0 .33-2zm1.24 1.58-.57.13c-.06-.67-.13-1.27-.21-1.79l.51-.11c.03.5.14 1.08.22 1.72zm1.1-.74-.51.23a10.06 10.06 0 0 0 -.5-1.33l.49-.16a9.5 9.5 0 0 1 .47 1.21zm1.4-.88a8 8 0 0 1 -1.18 1.9l-.35-.45a7.45 7.45 0 0 0 1.12-1.79zm-.16 2.08-.12-.57a4.49 4.49 0 0 0 .62 0c.17 0 .26-.11.26-.32v-2.22c-.56.09-1.15.16-1.75.23l-.1-.55a4.77 4.77 0 0 0 1.81-1.68c-.55.11-1.08.22-1.63.3l-.15-.53a.5.5 0 0 0 .25-.21 10.05 10.05 0 0 0 1.44-2.23l.56.23a11.3 11.3 0 0 1 -1.47 2.14c.44-.06.9-.14 1.37-.23.25-.38.5-.78.78-1.23l.59.21a16 16 0 0 1 -2.47 3.12 17 17 0 0 0 2.1-.41q-.24-.45-.51-.9l.44-.27a20.67 20.67 0 0 1 1.2 2.21l-.47.33c-.12-.28-.25-.57-.4-.86l-1 .22v2.47c0 .47-.23.71-.66.71zm3.19-.6-.42.41a11.64 11.64 0 0 0 -1-1.91l.38-.37a13.63 13.63 0 0 1 .99 1.82z"/><path d="m154.82 189.07h-.58v-.37h-5.78v.37h-.57v-7.47h6.93zm-.58-.89v-6.08h-5.78v6.08zm-3.17-5.56v-.32h.55v.32h2v.4h-2v.35h1.65v1.8a6.38 6.38 0 0 1 .54.71l-.37.25a2.54 2.54 0 0 0 -.23-.34h-.4v.5h.95v.44h-.95v.56c0 .37-.21.56-.62.56h-.84l-.11-.47h.78c.17 0 .26-.08.26-.23v-.45h-3.35v-.44h3.35v-.47c-.85 0-1.9.08-3.14.11v-.36h2v-.38h-1.64v-1.8h1.64v-.36h-2v-.4zm-.21 4.74-.25.38a4.41 4.41 0 0 0 -1.08-.59l.23-.33a5.36 5.36 0 0 1 1.1.54zm.26-3.22v-.44h-1.19v.44zm0 .28h-1.19v.44h1.19zm.45-.28h1.21v-.44h-1.21zm1.21.28h-1.21v.44h1.21zm-1.16 1.11 1.36-.05-.26-.31h-1.1z"/><path d="m163.34 189.07h-.57v-.34h-5.77v.36h-.57v-7.48h7zm-.57-.85v-6.09h-5.77v6.09zm-1.14-5.64v1.32h-1.54l-.13.41h2.45v.42h-5.09v-.42h2.1l.13-.41h-1.45v-1.32zm.38 2.54v2.66h-4.28v-2.66zm-.52.38h-3.25v1.89h3.25zm-.39-2.5h-2.47v.58h2.47zm-.18 3v1h-2.1v-1.1zm-.45.28h-1.21v.54h1.21z"/><path d="m166.85 181.5v2h3.31v-2.27h.61v2.86h-3.92v.52.85h4.13v3.57h-.61v-3h-3.6a4.94 4.94 0 0 1 -1.46 3l-.47-.41a5.15 5.15 0 0 0 1.43-4v-3.12z"/><path d="m58.29 201.85a.63.63 0 0 1 0 .88.64.64 0 0 1 -.44.17.61.61 0 0 1 -.43-.17.62.62 0 0 1 .43-1.06.6.6 0 0 1 .44.18z"/><path d="m66 201.55a3.1 3.1 0 0 1 .51 1.8h-3.43a1.9 1.9 0 0 0 .4 1.14 1.23 1.23 0 0 0 1 .41 1.35 1.35 0 0 0 .87-.27 1.47 1.47 0 0 0 .44-.69h.68a1.93 1.93 0 0 1 -.59 1 2.06 2.06 0 0 1 -1.4.49 2 2 0 0 1 -1.52-.62 2.4 2.4 0 0 1 -.57-1.7 2.34 2.34 0 0 1 .55-1.62 1.83 1.83 0 0 1 1.51-.69 1.89 1.89 0 0 1 1.55.75zm-2.53.24a1.75 1.75 0 0 0 -.41 1h2.74c-.08-.94-.55-1.41-1.38-1.41a1.27 1.27 0 0 0 -.91.41z"/><path d="m68.31 204.49a.52.52 0 0 1 .15.38.49.49 0 0 1 -.15.36.52.52 0 0 1 -.37.16.47.47 0 0 1 -.36-.16.49.49 0 0 1 -.15-.36.52.52 0 0 1 .15-.38.46.46 0 0 1 .36-.15.51.51 0 0 1 .37.15z"/><path d="m73.74 199.28v.61h-3.37v2h3.19v.6h-3.19v2.82h-.69v-6.07z"/><path d="m75.42 199.45a.41.41 0 0 1 .16.35.47.47 0 0 1 -.16.37.52.52 0 0 1 -.36.14.53.53 0 0 1 -.37-.14.49.49 0 0 1 -.14-.37.42.42 0 0 1 .14-.35.46.46 0 0 1 .37-.15.46.46 0 0 1 .36.15zm0 1.51v4.39h-.68v-4.35z"/><path d="m80.37 202.65v2.7h-.68v-2.65c0-.86-.39-1.28-1.16-1.28a1.09 1.09 0 0 0 -.79.33 1.47 1.47 0 0 0 -.39.95v2.65h-.68v-4.35h.68v.64a1.66 1.66 0 0 1 .59-.56 1.63 1.63 0 0 1 .79-.2c1.09-.04 1.64.56 1.64 1.77z"/><path d="m84.71 201.71v-.71h.68v4.09c0 1.4-.67 2.1-2 2.1a2.23 2.23 0 0 1 -1.39-.39 1.61 1.61 0 0 1 -.59-1.07h.68a1 1 0 0 0 .38.65 1.51 1.51 0 0 0 .89.22c.88 0 1.32-.49 1.32-1.46v-.77a1.59 1.59 0 0 1 -1.48.88 1.81 1.81 0 0 1 -1.45-.63 2.63 2.63 0 0 1 0-3.14 1.79 1.79 0 0 1 1.45-.64 1.58 1.58 0 0 1 1.51.87zm-2.4.17a1.77 1.77 0 0 0 -.36 1.18 1.89 1.89 0 0 0 .31 1.13 1.4 1.4 0 0 0 2.1 0 1.81 1.81 0 0 0 .36-1.16 1.77 1.77 0 0 0 -.36-1.18 1.2 1.2 0 0 0 -1-.48 1.18 1.18 0 0 0 -1.05.51z"/><path d="m90 201.52a2.67 2.67 0 0 1 0 3.26 2 2 0 0 1 -1.58.69 2 2 0 0 1 -1.57-.69 2.33 2.33 0 0 1 -.56-1.62 2.38 2.38 0 0 1 .56-1.64 2.15 2.15 0 0 1 3.14 0zm-2.66.42a2.28 2.28 0 0 0 0 2.43 1.28 1.28 0 0 0 1.09.53 1.32 1.32 0 0 0 1.1-.53 2.28 2.28 0 0 0 0-2.43 1.32 1.32 0 0 0 -1.1-.53 1.28 1.28 0 0 0 -1.11.53z"/><path d="m94.67 206.07h-.6v-.43h-1.79v.43h-.6v-3.68h3zm-.6-1v-2.07h-1.79v2.09zm3.42-6.3v2.78h-4.68v-2.78zm-.61.58h-3.46v1.65h3.46zm1.74 6.73h-.62v-.43h-1.85v.43h-.61v-3.68h3.08zm-.61-1v-2.08h-1.86v2.09z"/><path d="m100.18 206.14-.44-.38a7 7 0 0 0 .58-3.24v-3.86h.59v2.13h.93v-2.28h.57v2.83h-1.5v1.22h1.55v3.54h-.59v-3h-1a6.67 6.67 0 0 1 -.69 3.04zm4.37-7a3.51 3.51 0 0 0 .27-.79l.61.09a4.82 4.82 0 0 1 -.26.7h1.93v3.6h-2l-.1.26a2.66 2.66 0 0 1 -1.24 1h1.67v-.9h.6v.9h1.47v.58h-1.47v1.63h-.6v-1.63h-2.6v-.58h.83l-.25-.39a2.41 2.41 0 0 0 1.06-.82h-1.26v-3.6zm.34 1.53v-1h-1.11v1zm0 .52h-1.1v1h1a3.83 3.83 0 0 0 .09-.98zm1.66 0h-1.1a5.47 5.47 0 0 1 -.14 1h1.24zm-1.1-.52h1.1v-1h-1.1z"/><path d="m111.26 200v-.57h-1.69v2.34a10.52 10.52 0 0 1 -.82 4.33l-.46-.4a10 10 0 0 0 .68-3.93v-2.87h3.26a4.72 4.72 0 0 0 -.26-.46l.65-.1c.08.17.16.35.24.56h3v.53h-1.49v.57h1.25v.46h-1.25v.89h-3.16v-.89h-1.21v-.46zm4.67 1.73v.49h-6.29v-.49zm-3.72 3.58a8.45 8.45 0 0 1 -2.27.91l-.24-.5a8.43 8.43 0 0 0 2.18-.78zm3.14-2.69v2.38h-5v-2.31zm-2.8.94v-.51h-1.64v.51zm0 .39h-1.64v.52h1.64zm1.29-4.52h-2v.57h2zm-2 1.51h2v-.48h-2zm1.26 2.62h1.66v-.51h-1.66zm1.66.39h-1.66v.52h1.66zm1.16 1.8-.31.46a11.7 11.7 0 0 0 -2.21-.85l.26-.39a13.6 13.6 0 0 1 2.27.81z"/><path d="m124.2 205.44v.56h-7.08v-.55zm0-4.77h-.62v-.92h-5.8v.91h-.63v-1.5h3.22a6.42 6.42 0 0 0 -.29-.64l.7-.11a5.41 5.41 0 0 1 .27.75h3.15zm-.69-.21v.54h-5.66v-.53zm-.36 1.19v3.07h-4.93v-3.07zm-.61 1.28v-.74h-3.7v.74zm0 .5h-3.7v.75h3.7z"/><path d="m129.08 203c-.1-.17-.2-.31-.3-.45l.57-.08a4 4 0 0 1 .34.53h3.16v.51h-3.79a5.44 5.44 0 0 1 -1.36 1v1.09c.67-.13 1.3-.27 1.88-.44l.08.5c-.72.19-1.6.36-2.63.53l-.1-.45c.15 0 .23-.13.23-.24v-.73q-.69.28-1.53.54l-.28-.49a8.19 8.19 0 0 0 3.07-1.27h-3v-.55zm-2.9-3.17-.5-.15a3.06 3.06 0 0 0 .45-1.28l.49.06a3.4 3.4 0 0 1 -.09.46h1v-.53h.56v.61h1.54v.48h-1.54v.52h1.81v.47h-1.81v.53h1.6v1c0 .28-.21.43-.62.43h-.51l-.11-.41h.46c.16 0 .25-.07.25-.2v-.4h-1.07v1.16h-.56v-1.16h-1v1.06h-.53v-1.48h1.52v-.49h-2v-.51h2v-.57h-1.1a2.86 2.86 0 0 1 -.24.43zm6 4.31a4.8 4.8 0 0 1 -1.08.84 7.15 7.15 0 0 0 2 .72l-.32.47a5.16 5.16 0 0 1 -3.35-2.14l.41-.24a3.13 3.13 0 0 0 .87.91 4.37 4.37 0 0 0 1.11-.9zm-1.28-5.29v2.49h-.56v-2.49zm-.09 3.61-.12-.55h.94c.21 0 .32-.09.32-.27v-3.3h.56v3.43c0 .44-.22.66-.68.66z"/><path d="m133.9 202.45-.2-.64a9.22 9.22 0 0 0 2-3.43l.57.27a11 11 0 0 1 -.85 1.87v5.69h-.63v-4.78a9.66 9.66 0 0 1 -.89 1.02zm2.27-.09-.44-.52a10.47 10.47 0 0 0 1.85-3.48l.61.13c-.14.39-.27.77-.41 1.12h3.67v.6h-2.85v1.4h2.48v.6h-2.48v1.43h2.53v.59h-2.53v2h-.6v-6h-.46a10.08 10.08 0 0 1 -1.37 2.13z"/><path d="m142.75 202-.53-.15a9.6 9.6 0 0 0 .54-2.84h.54a9.93 9.93 0 0 1 -.11 1.11h.6v-1.76h.59v1.76h.72v.6h-.72v2c.24-.11.46-.22.68-.34v.58l-.68.34v2.8h-.59v-2.55c-.44.17-.88.33-1.34.48l-.14-.6a10.58 10.58 0 0 0 1.48-.46v-2.29h-.7a10.31 10.31 0 0 1 -.34 1.32zm4-3.47c-.1.44-.2.85-.32 1.23h3.3c0 2.84 0 4.59-.13 5.25a1.2 1.2 0 0 1 -1.37 1.12h-.64l-.15-.55h.7a.83.83 0 0 0 .89-.82c.06-.48.1-1.95.11-4.42h-.57a14.65 14.65 0 0 1 -.78 3.37 7.09 7.09 0 0 1 -1.74 2.38l-.37-.48a6.53 6.53 0 0 0 1.59-2.14 12.21 12.21 0 0 0 .74-3.13h-.66a6.89 6.89 0 0 1 -1.94 4l-.41-.34a6.14 6.14 0 0 0 1.8-3.58h-.59a5.43 5.43 0 0 1 -.77 1.34l-.45-.38a6.69 6.69 0 0 0 1.17-2.93z"/><path d="m58.29 219.14a.62.62 0 0 1 -.44 1.06.62.62 0 0 1 0-1.24.6.6 0 0 1 .44.18z"/><path d="m69.92 216.19v.6h-3.25v2.27h2.84v.59h-2.84v2.88h3.42v.6h-7.47v-.6h3.38v-2.88h-2.78v-.59h2.78v-2.27h-3.19v-.6zm-.42 5.61-.49.35a15.06 15.06 0 0 0 -1.24-1.78l.48-.29a13.82 13.82 0 0 1 1.25 1.72z"/><path d="m78.2 217.14v6.19h-.61v-.57h-5.48v.56h-.61v-6.2h.61v5.06h2.43v-6.43h.63v6.43h2.42v-5z"/><path d="m86.89 218.22h-.63v-1.14h-5.81v1.14h-.63v-1.74h3.24a6 6 0 0 0 -.47-.78l.66-.1a7.22 7.22 0 0 1 .43.88h3.21zm-1.21 1.78h-4.08v.89h4.47v2.57h-.61v-.34h-3.86v.35h-.6v-5.58h4.69zm-.6-.53v-1h-3.48v1zm.38 3.12v-1.17h-3.86v1.17z"/><path d="m88.75 221.3a9.31 9.31 0 0 1 -.31 2.07l-.5-.14a9.28 9.28 0 0 0 .33-2zm1.91-.59-.46.12c0-.15-.06-.3-.1-.44a11.19 11.19 0 0 1 -1.93.42l-.16-.53a.61.61 0 0 0 .26-.15 8.58 8.58 0 0 0 1-1.51l-1.16.19-.15-.54a.74.74 0 0 0 .25-.22 13.32 13.32 0 0 0 1-2.4l.55.22a12.59 12.59 0 0 1 -1.16 2.38c.32 0 .63-.09.95-.15l.51-1 .53.2a17.33 17.33 0 0 1 -1.81 2.94c.4-.07.8-.15 1.19-.25-.07-.29-.16-.56-.24-.83l.44-.14a13.83 13.83 0 0 1 .49 1.69zm-.79 2.29-.5.11a16.35 16.35 0 0 0 -.29-1.75l.44-.1c.13.49.25 1.07.35 1.74zm1-.53-.45.2a10.39 10.39 0 0 0 -.45-1.5l.4-.14a13.48 13.48 0 0 1 .46 1.4zm2.84.94-.15-.56h1c.19 0 .29-.11.29-.33v-5.92h-3.33v6.83h-.52v-7.37h4.47v6.58c0 .48-.23.73-.67.73zm.49-6.41a6 6 0 0 1 -.37 1.18h.7v.53h-2.68v-.53h1.52a6.55 6.55 0 0 0 .32-1.25zm-1.9 4.43v-1.13h-.36v-.53h1.06a8 8 0 0 0 -.31-.76l.53-.09c.09.26.18.54.27.85h.93v.53h-1.6v1q0 .21.24.21h1.28v.5h-1.44a.54.54 0 0 1 -.6-.57zm.7-3.43-.42.18a7 7 0 0 0 -.48-1l.44-.15a7.49 7.49 0 0 1 .46.97z"/><path d="m99 219.76-.74.42v2.54a.62.62 0 0 1 -.68.71h-.69l-.13-.58h.6s.3-.11.3-.32v-2.11c-.32.14-.65.27-1 .39l-.15-.58a8.06 8.06 0 0 0 1.13-.41v-2h-1.07v-.59h1.08v-1.55h.6v1.55h.75v.59h-.74v1.74c.25-.13.5-.27.74-.42zm4.93-.68v4.42h-.57v-.5h-3.47v.41h-.56v-4.1a6 6 0 0 0 1.41-.54l.35.48a8.06 8.06 0 0 1 -1.2.44v1h1v.53h-1v1.19h1.46v-4.28h-2.09v-.56h2.09v-1h-1.85v-.56h4.32v.56h-1.9v1h2.31v.56h-2.31v4.28h1.43v-1.2h-1v-.53h1v-1.12h-1v-.54z"/><path d="m112.34 223.5h-.57v-.33h-5.77v.36h-.57v-7.48h7zm-.57-.84v-6.09h-5.77v6.09zm-1.14-5.66v1.31h-1.54l-.13.41h2.45v.43h-5.09v-.43h2.1l.13-.41h-1.45v-1.31zm.38 2.54v2.66h-4.28v-2.66zm-.52.38h-3.25v1.89h3.25zm-.39-2.55h-2.47v.63h2.47zm-.18 2.94v1.12h-2.1v-1.12zm-.45.28h-1.21v.55h1.21z"/><path d="m58.29 236.43a.63.63 0 0 1 .18.45.58.58 0 0 1 -.18.43.6.6 0 0 1 -.44.18.58.58 0 0 1 -.43-.18.56.56 0 0 1 -.19-.43.6.6 0 0 1 .19-.45.61.61 0 0 1 .43-.17.64.64 0 0 1 .44.17z"/><path d="m63.6 238.69-.21-.27a10.56 10.56 0 0 1 -.54 2.33l-.39-.41a13.3 13.3 0 0 0 .54-3.94v-2.93a14.9 14.9 0 0 0 3.16-.37l.28.49a17.55 17.55 0 0 1 -2.9.33v.5h2.84v1.58h-2.87v.42q0 .91-.09 1.71a7.71 7.71 0 0 0 .87-2l.48.1c-.07.21-.13.41-.2.61h.73a4.46 4.46 0 0 0 -.23-.62l.49-.09a5.35 5.35 0 0 1 .24.71h.8v.47h-.79v.57h.65v.46h-.65v.6h.67v.46h-.67v.6h.84v.48h-2.15v.32h-.5v-2.71a5.41 5.41 0 0 1 -.4.6zm2.19-3.18v-.63h-2.28v.63zm-.46 1.83h-.83v.57h.83zm0 1h-.83v.6h.83zm0 1.62v-.56h-.83v.6zm2.92-.38a5 5 0 0 1 -1.25 1.17l-.33-.42a5.48 5.48 0 0 0 1.18-1.06zm-.25-4.88a5.43 5.43 0 0 0 .18-.82h-1.46v-.54h3.47v.54h-1.46a7 7 0 0 1 -.17.82h1.36v4.48h-2.92v-4.48zm1.35 1.3v-.81h-1.79v.81zm0 1.34v-.84h-1.79v.84zm0 .51h-1.79v.76h1.79zm1 2.47-.39.38a8.12 8.12 0 0 0 -1.22-1.15l.37-.36a8.7 8.7 0 0 1 1.2 1.17z"/><path d="m74.38 234.49-.39.56h3.13v.49a4.71 4.71 0 0 1 -1.5 1.29 10.84 10.84 0 0 0 3.11.67l-.14.55a9.83 9.83 0 0 1 -3.61-.91 15.37 15.37 0 0 1 -3.8 1.08l-.23-.55a17.07 17.07 0 0 0 3.41-.85 8.75 8.75 0 0 1 -1.2-.87 8.18 8.18 0 0 1 -1.06.8l-.39-.48a6.21 6.21 0 0 0 2.07-1.91zm3.92.75h-.62v-1.06h-5.68v1.06h-.6v-1.61h3.11a5.58 5.58 0 0 0 -.31-.6l.67-.1c.1.21.2.44.3.7h3.13zm-1 5.57h-.59v-.36h-3.61v.36h-.59v-2.66h4.84zm-.59-.92v-1.19h-3.61v1.19zm-.37-4.32h-2.8a7.11 7.11 0 0 0 1.47.95 5 5 0 0 0 1.38-.95z"/><path d="m80.89 238.78a6.11 6.11 0 0 1 -.83 1.76l-.53-.33a4.76 4.76 0 0 0 .76-1.55zm-.83-4.78v-.53h2.94a3.19 3.19 0 0 0 -.25-.49l.66-.11c.08.18.18.38.26.6h3v.53h-1.41l-.33.67h2.07v.53h-7.33v-.53h2l-.27-.67zm6 1.71v2.51h-5.43v-2.51zm-.59 1v-.54h-4.24v.54zm0 .45h-4.24v.57h4.25zm-3 3.43c-.57 0-.85-.26-.85-.79v-1.12h.62v1c0 .24.14.37.41.37h1.79a.52.52 0 0 0 .38-.11c.1-.08.17-.34.2-.77l.58.19a1.72 1.72 0 0 1 -.35 1.08 1.27 1.27 0 0 1 -.7.16zm1.85-5.94.33-.67h-2.58l.27.67zm0 4.67-.51.36a5.72 5.72 0 0 0 -.83-1l.52-.33a6.82 6.82 0 0 1 .77 1.03zm3 .69-.51.36a11.47 11.47 0 0 0 -1.09-1.54l.5-.31a12.89 12.89 0 0 1 1 1.55z"/><path d="m94.62 233.32v4.68h-1.62v1.7c0 .24.12.36.38.36h1.12a.58.58 0 0 0 .44-.14 2.25 2.25 0 0 0 .22-1.07l.57.18a2.58 2.58 0 0 1 -.36 1.4 1.21 1.21 0 0 1 -.76.21h-1.39c-.53 0-.79-.27-.79-.82v-1.82h-1.24a2.66 2.66 0 0 1 -.71 1.82 4.62 4.62 0 0 1 -2.17 1l-.33-.51a4.32 4.32 0 0 0 2-.9 2.28 2.28 0 0 0 .62-1.41h-1.51v-4.63zm-.62 1.34v-.81h-4.3v.81zm0 1.34v-.81h-4.3v.81zm0 .53h-4.3v.88h4.3z"/><path d="m100.25 233v1h2.75v.6h-2.76v1.27h3.88v.6h-3.88v.86a26.77 26.77 0 0 1 3 1.58l-.34.51c-1.08-.65-2-1.15-2.7-1.5v2.79h-.63v-4.24h-3v-.6h3.05v-2.87z"/><path d="m58.29 252.43a.63.63 0 0 1 .18.45.58.58 0 0 1 -.18.43.6.6 0 0 1 -.44.18.58.58 0 0 1 -.43-.18.56.56 0 0 1 -.19-.43.6.6 0 0 1 .19-.45.61.61 0 0 1 .43-.17.64.64 0 0 1 .44.17z"/><path d="m65.88 250.49-.39.56h3.13v.49a4.71 4.71 0 0 1 -1.5 1.29 10.84 10.84 0 0 0 3.11.67l-.14.55a9.83 9.83 0 0 1 -3.61-.91 15.37 15.37 0 0 1 -3.8 1.08l-.23-.55a17.07 17.07 0 0 0 3.41-.85 8.75 8.75 0 0 1 -1.2-.87 8.18 8.18 0 0 1 -1.06.8l-.39-.48a6.21 6.21 0 0 0 2.07-1.91zm3.92.75h-.62v-1.06h-5.66v1.06h-.62v-1.61h3.1a5.58 5.58 0 0 0 -.31-.6l.67-.1c.1.21.2.44.3.7h3.14zm-1 5.57h-.59v-.36h-3.61v.36h-.6v-2.66h4.84zm-.59-.92v-1.19h-3.61v1.19zm-.37-4.32h-2.84a7.11 7.11 0 0 0 1.47.95 5 5 0 0 0 1.42-.95z"/><path d="m74.78 253.62c-.1-.17-.2-.32-.3-.46l.58-.08a3.52 3.52 0 0 1 .33.54h3.16v.51h-3.79a5.71 5.71 0 0 1 -1.36 1v1.08a18 18 0 0 0 1.88-.44l.08.5c-.72.19-1.59.37-2.62.54l-.11-.45c.15-.05.23-.14.23-.25v-.73a15.47 15.47 0 0 1 -1.52.55l-.29-.5a8.2 8.2 0 0 0 3.07-1.26h-3v-.51zm-2.89-3.17-.5-.16a3.15 3.15 0 0 0 .44-1.27l.49.06c0 .15 0 .3-.08.46h1v-.54h.56v.53h1.54v.47h-1.59v.57h1.81v.48h-1.81v.48h1.6v1c0 .28-.21.42-.61.42h-.51l-.12-.41h.46c.17 0 .25-.07.25-.19v-.35h-1.07v1.15h-.56v-1.15h-1v1h-.51v-1.48h1.51v-.48h-2v-.48h2v-.56h-1.1c-.09.16-.09.31-.2.45zm6 4.3a5.41 5.41 0 0 1 -1.08.85 7.28 7.28 0 0 0 2 .71l-.32.48a5.2 5.2 0 0 1 -3.35-2.15l.42-.23a3.52 3.52 0 0 0 .86.91 4.89 4.89 0 0 0 1.12-.91zm-1.29-5.28v2.53h-.6v-2.48zm-.09 3.6-.12-.54h.94q.33 0 .33-.27v-3.26h.56v3.44c0 .43-.23.65-.69.65z"/><path d="m82.61 249.2a9.12 9.12 0 0 1 -1.13 2v5.61h-.61v-4.81a12.54 12.54 0 0 1 -1.23 1.18l-.2-.64a9.35 9.35 0 0 0 2.6-3.55zm4.23 2.8-2.77.16v3.46c0 .27.12.4.4.4h1.42a.54.54 0 0 0 .47-.21 4.35 4.35 0 0 0 .19-1.47l.57.19a4.44 4.44 0 0 1 -.31 1.77 1 1 0 0 1 -.82.31h-1.67a.78.78 0 0 1 -.86-.9v-6.71h.61v2.59l2.77-.16z"/><path d="m89.27 255a9.12 9.12 0 0 1 -.78 1.68l-.49-.25a10.43 10.43 0 0 0 .78-1.67zm1.43-5.67v5.14h-2.42v-5.14zm-.6 1.57v-1h-1.23v1zm0 1.49v-1h-1.23v1zm0 .5h-1.23v1h1.23zm.92 3.35-.45.33a12.22 12.22 0 0 0 -.88-1.54l.45-.28a11.34 11.34 0 0 1 .86 1.49zm1.73-6.17h1.08a5.51 5.51 0 0 0 .36-1.13l.57.08a4.33 4.33 0 0 1 -.36 1h1v2.98h-4.26v-2.88h1a5.92 5.92 0 0 0 -.45-1l.59-.11a10.79 10.79 0 0 1 .47 1.06zm2.4 6.72h-.56v-.36h-2.51v.36h-.57v-3.29h3.64zm-2.15-6.19h-1.32v1.83h1.32zm-.25 1.4-.4.11c-.1-.39-.22-.75-.35-1.11l.39-.13a10.09 10.09 0 0 1 .36 1.13zm1.84 2.68v-.68h-2.51v.7zm0 1.2v-.72h-2.51v.72zm.31-5.32h-1.36v1.83h1.36zm-.33.38a5.19 5.19 0 0 1 -.4 1.19l-.4-.14a6.29 6.29 0 0 0 .41-1.15z"/><path d="m99.87 256.66h-.6v-.43h-1.79v.43h-.6v-3.66h3zm-.6-1v-2.09h-1.79v2.09zm3.42-6.3v2.78h-4.69v-2.78zm-.61.58h-3.46v1.62h3.46zm1.74 6.73h-.61v-.43h-1.86v.43h-.6v-3.67h3.07zm-.61-1v-2.09h-1.86v2.09z"/><path d="m112.42 248.91a7.75 7.75 0 0 0 -.8 1.76 6.63 6.63 0 0 0 -.38 2.21 6.72 6.72 0 0 0 .38 2.21 8.09 8.09 0 0 0 .8 1.75h-.59a7.37 7.37 0 0 1 -.88-1.75 6.82 6.82 0 0 1 0-4.43 7.18 7.18 0 0 1 .88-1.75z"/><path d="m120.4 249.33v2.93h-2.74v.68h2.88v.54h-2.88v.71h3.34v.56h-7.36v-.56h3.38v-.71h-2.88v-.54h2.88v-.68h-2.73v-2.93zm-5.4 5.91a5.84 5.84 0 0 1 -.73 1.55l-.56-.2a5.82 5.82 0 0 0 .76-1.5zm2-5.38h-2.16v1.88h2.16zm-.57 1.49-.5.13a8 8 0 0 0 -.56-1.19l.49-.16a6.9 6.9 0 0 1 .64 1.22zm.43 5.3-.6.14a9.26 9.26 0 0 0 -.42-1.49l.54-.12q.33.68.55 1.47zm2.88-6.79h-2.18v1.88h2.18zm-.94 6.77-.58.14a7.79 7.79 0 0 0 -.61-1.51l.55-.11a9.43 9.43 0 0 1 .71 1.48zm.35-6.41a5 5 0 0 1 -.58 1.25l-.5-.17a5 5 0 0 0 .57-1.21zm1.76 6.23-.48.34a14.25 14.25 0 0 0 -1-1.46l.46-.29a9.94 9.94 0 0 1 1.11 1.41z"/><path d="m123.66 255.16a7.43 7.43 0 0 1 -1.08 1.66l-.49-.36a6.13 6.13 0 0 0 1.08-1.54zm1.92-1c0 .38-.24.57-.7.57h-.79l-.14-.52h.76q.3 0 .3-.27v-.53q-.77.19-1.74.39l-.14-.49c.68-.12 1.3-.26 1.88-.42v-1.22h-1.88v.43a14.39 14.39 0 0 1 1.64.23l-.17.41q-.72-.15-1.47-.24v.36a3.22 3.22 0 0 1 -.57 2l-.45-.39a2.6 2.6 0 0 0 .46-1.54v-1.73h3zm.45-3.49-.45.31c-.08-.14-.17-.28-.26-.41q-1.25.18-3 .27l-.15-.46a.56.56 0 0 0 .25-.14 4.86 4.86 0 0 0 1.11-1.3l.57.18a5 5 0 0 1 -1.07 1.23c.63 0 1.29-.1 2-.2-.15-.2-.31-.4-.48-.59l.45-.28a9.56 9.56 0 0 1 1 1.36zm-.57 6-.59.13a10.88 10.88 0 0 0 -.41-1.64l.54-.16a15.36 15.36 0 0 1 .46 1.67zm1.91 0-.59.14a9.08 9.08 0 0 0 -.6-1.7l.58-.13a15.78 15.78 0 0 1 .61 1.69zm-.43-7.66v.79l2.42-.14v.51l-2.42.15v.53c0 .21.08.32.23.32h2.39v.53h-2.56c-.44 0-.66-.23-.66-.71v-2zm.12 5.6a.62.62 0 0 1 -.7-.71v-1.9h.58v.51l2.43-.14v.52l-2.43.13v.79c0 .17.09.26.29.26h1.21a.75.75 0 0 0 .41-.1c.1-.08.16-.32.2-.71l.55.17c-.06.57-.18.92-.35 1a1.27 1.27 0 0 1 -.7.16zm2.54 1.89-.48.35a12.24 12.24 0 0 0 -1.18-1.68l.48-.29a14.12 14.12 0 0 1 1.18 1.62z"/><path d="m132.24 249c-.09.58-.17 1.11-.26 1.61h1.44v.39a9.52 9.52 0 0 1 -.81 3.57 12.45 12.45 0 0 1 1.09 1.07l-.41.47c-.26-.31-.59-.65-1-1a6.62 6.62 0 0 1 -1.49 1.75l-.4-.48a5.79 5.79 0 0 0 1.47-1.68q-.56-.51-1.2-1.05.31-1.09.57-2.4h-.78v-.58h.89c.08-.54.17-1.09.24-1.67zm.61 2.19h-1c-.19.89-.37 1.63-.56 2.22.32.25.61.49.86.71a8.41 8.41 0 0 0 .7-2.92zm2.71 2.63v-1h.6v1h1.66v.58h-1.66v1.6h2.05v.58h-4.67v-.58h2v-1.55h-1.62v-.58zm0-3.83v-1h.6v1h1.63v.59h-1.63v1.25h2v.59h-4.46v-.59h1.86v-1.25h-1.56v-.58z"/><path d="m140.74 249c-.09.58-.17 1.11-.26 1.61h1.44v.39a9.52 9.52 0 0 1 -.81 3.57 12.45 12.45 0 0 1 1.09 1.07l-.41.47c-.26-.31-.59-.65-1-1a6.62 6.62 0 0 1 -1.49 1.75l-.4-.48a5.79 5.79 0 0 0 1.47-1.68q-.56-.51-1.2-1.05.31-1.09.57-2.4h-.74v-.58h.89c.08-.54.17-1.09.24-1.67zm.61 2.19h-1c-.19.89-.37 1.63-.56 2.22.32.25.61.49.86.71a8.41 8.41 0 0 0 .7-2.92zm2.71 2.63v-1h.6v1h1.66v.58h-1.66v1.6h2.05v.58h-4.71v-.58h2v-1.55h-1.62v-.58zm0-3.83v-1h.6v1h1.63v.59h-1.63v1.25h2v.59h-4.46v-.59h1.86v-1.25h-1.56v-.58z"/><path d="m151.67 252.68a8.09 8.09 0 0 1 .73.88l-.43.35a7.89 7.89 0 0 0 -.72-.87 8 8 0 0 0 -.94-.85l.38-.36a6.67 6.67 0 0 1 .98.85z"/><path d="m156.29 254.35-.34-.5a12.83 12.83 0 0 0 3.62-1.59v-1.52h-2.57v1.16h-.58v-1.63h3.18v-.51h-2.83v-.5h6.23v.5h-2.82v.51h3.18v1.63h-.58v-1.16h-2.6v1.55a10.43 10.43 0 0 0 3.58 1.55l-.34.51a12.49 12.49 0 0 1 -2.23-.88v.3h-2.66v-.32a16.29 16.29 0 0 1 -2.24.9zm2.78-2.13a7.63 7.63 0 0 1 -1.81.33l-.11-.4a7.33 7.33 0 0 0 1.8-.29zm0-.92-.13.36a13.86 13.86 0 0 0 -1.63-.26l.18-.36a13 13 0 0 1 1.57.26zm.79 4.33a9.36 9.36 0 0 0 1.39-.88h-3.78v-.5h4.6v.43a9.54 9.54 0 0 1 -1.63 1.18 12.24 12.24 0 0 1 1.21.53l-.32.48a18.14 18.14 0 0 0 -3.34-1.29l.3-.45c.54.15 1.06.31 1.56.5zm0-3c-.36.25-.73.48-1.12.7h2.17a6.6 6.6 0 0 1 -1.07-.7zm2.67-.46-.16.38a13.74 13.74 0 0 0 -1.74-.35l.18-.34a15.4 15.4 0 0 1 1.7.31zm-1.86-.88a8 8 0 0 0 1.55-.33l.15.36a8.31 8.31 0 0 1 -1.63.34z"/><path d="m165.06 251.59v-.41l-.32.39-.33-.46a10.94 10.94 0 0 0 1.41-2h.42c.51.53 1 1.09 1.49 1.68l-.38.42a19.45 19.45 0 0 0 -1.26-1.51 12.73 12.73 0 0 1 -.92 1.38h1.91v.55h-.72v.95h1.08v.56h-1.08v2.55l1.23-.33v.59a25.5 25.5 0 0 1 -2.94.67l-.15-.59c.44-.06.86-.13 1.29-.22v-2.71h-1.08v-.56h1.08v-.95zm.4 3.63-.45.11a15.44 15.44 0 0 0 -.44-1.66l.47-.16a16.49 16.49 0 0 1 .42 1.71zm2-1.64a8 8 0 0 1 -.45 1.53l-.44-.17a9 9 0 0 0 .42-1.49zm4.42-3.36-2.49.44a2.1 2.1 0 0 0 .18.4c.07.12.15.22.22.32a5.09 5.09 0 0 0 1.24-.88l.41.3a5.5 5.5 0 0 1 -1.28 1 1.73 1.73 0 0 0 .21.17 1.51 1.51 0 0 0 .77.3c.16 0 .31-.26.46-.73l.49.32c-.26.64-.55 1-.89 1a1.93 1.93 0 0 1 -1-.35 3 3 0 0 1 -.51-.41 11.9 11.9 0 0 1 -1.83.6l-.23-.5a10 10 0 0 0 1.7-.53 1.37 1.37 0 0 1 -.15-.21 4 4 0 0 1 -.31-.65l-1 .17-.08-.53.89-.15c-.1-.34-.2-.73-.29-1.16l.61-.14a9 9 0 0 0 .27 1.13l2.58-.45zm.09 3.67-2.41.5a3 3 0 0 0 .16.43 2.3 2.3 0 0 0 .2.35 5.62 5.62 0 0 0 1.26-1l.41.31a5.82 5.82 0 0 1 -1.35 1.14l.22.21a1.26 1.26 0 0 0 .69.32c.19 0 .37-.34.54-1l.48.32c-.28.81-.6 1.22-1 1.22a1.62 1.62 0 0 1 -1-.38 2.4 2.4 0 0 1 -.46-.44 9.36 9.36 0 0 1 -1.85.69l-.22-.51a11 11 0 0 0 1.74-.62c0-.09-.11-.17-.15-.26a4.84 4.84 0 0 1 -.28-.67l-1.24.26-.08-.54 1.17-.25c-.1-.39-.2-.83-.28-1.32l.57-.06c.08.48.17.91.25 1.26l2.48-.52zm-1.26-4.24-.39.28a6.45 6.45 0 0 0 -.74-.69l.4-.25a7.6 7.6 0 0 1 .77.66zm-.07 3.72-.37.26a6.33 6.33 0 0 0 -.69-.77l.37-.24a5.5 5.5 0 0 1 .73.75z"/><path d="m175.71 249.05c-.12.29-.26.58-.39.85h4.74a36.1 36.1 0 0 1 -.13 4 .88.88 0 0 1 -1 .81c-.11 0-.28 0-.54 0l-.14-.55h.59c.28 0 .44-.17.49-.51s.08-1.39.1-3.16h-4.43a9.43 9.43 0 0 1 -1.43 1.83l-.43-.51a8.21 8.21 0 0 0 2-2.9zm2.27 5.11h-3.06v1.57c0 .24.14.37.41.37h4.06a.43.43 0 0 0 .4-.26 3.64 3.64 0 0 0 .17-1l.57.19a6.14 6.14 0 0 1 -.18 1.12.78.78 0 0 1 -.78.52h-4.47c-.53 0-.8-.24-.8-.72v-4.37h3.7zm-.61-.56v-1.46h-2.45v1.46z"/><path d="m185.67 252.68a8.09 8.09 0 0 1 .73.88l-.43.35a7.89 7.89 0 0 0 -.72-.87 8 8 0 0 0 -.94-.85l.38-.36a6.67 6.67 0 0 1 .98.85z"/><path d="m192.44 249.87v5.46h3.56v.61h-4.19v-6.07z"/><path d="m202 250v-1h.63v1h3.2v.59h-3.2v.77c0 .4-.05.79-.1 1.14a5.38 5.38 0 0 0 3.71 3.67l-.35.58a5.76 5.76 0 0 1 -3.56-3.31 4.84 4.84 0 0 1 -.67 1.45 5.62 5.62 0 0 1 -2.88 1.91l-.35-.53a5.38 5.38 0 0 0 2.8-1.84 5.9 5.9 0 0 0 .77-3.07v-.77h-3.2v-.59zm-3 4.4-.4-.49a5.56 5.56 0 0 0 1.47-2.85l.58.1a8 8 0 0 1 -.35 1.22c.35.33.71.68 1.08 1.08l-.38.54a13 13 0 0 0 -.92-1.13 5.16 5.16 0 0 1 -1.08 1.52zm4.7-.39-.41-.5a4.92 4.92 0 0 0 1.15-2.45l.6.1a9 9 0 0 1 -.28 1c.42.38.85.81 1.28 1.27l-.38.58a15.8 15.8 0 0 0 -1.11-1.31 5 5 0 0 1 -.85 1.3z"/><path d="m211.17 252.68a8.09 8.09 0 0 1 .73.88l-.43.35a7.89 7.89 0 0 0 -.72-.87 8 8 0 0 0 -.94-.85l.38-.36a6.67 6.67 0 0 1 .98.85z"/><path d="m219.17 250.43a6.62 6.62 0 0 0 -.85-1.28l.61-.22a7.51 7.51 0 0 1 .88 1.5h3.25v.57h-1.33a8.52 8.52 0 0 1 -1.88 3.37 11.17 11.17 0 0 0 3.4 1.9l-.33.51a11.39 11.39 0 0 1 -3.49-2 8.79 8.79 0 0 1 -3.62 2l-.32-.53a8.47 8.47 0 0 0 3.52-1.82 7.72 7.72 0 0 1 -2-3.42h-1.31v-.61zm.26 3.6a7.61 7.61 0 0 0 1.67-3h-3.54a7.12 7.12 0 0 0 1.87 2.97z"/><path d="m230.4 254.53h1.23v.56h-2.57a13 13 0 0 1 2.39 1.17l-.34.52a12.12 12.12 0 0 0 -2.45-1.26l.29-.43h-2.38l.44.39a9.26 9.26 0 0 1 -2.39 1.31l-.37-.48a9.87 9.87 0 0 0 2.3-1.22h-2.47v-.56h1.22v-5.21h5.1zm-.62-3.86v-.77h-3.85v.77zm0 1.28v-.79h-3.85v.84zm0 1.28v-.78h-3.85v.78zm0 1.3v-.8h-3.85v.8z"/><path d="m236.67 252.68a8.09 8.09 0 0 1 .73.88l-.43.35a7.89 7.89 0 0 0 -.72-.87 8 8 0 0 0 -.94-.85l.38-.36a6.67 6.67 0 0 1 .98.85z"/><path d="m241.24 256.71-.13-.6h.68a.29.29 0 0 0 .32-.32v-2.08c-.32.13-.66.25-1 .35l-.14-.61a7.8 7.8 0 0 0 1.13-.36v-1.92h-1v-.59h1v-1.58h.63v1.6h.86v.59h-.86v1.66c.24-.12.49-.24.73-.38v.62l-.73.37v2.54a.65.65 0 0 1 -.73.72zm7.28-3.88v.55h-2.12v1h1.78v.55h-1.78v1.07a8.49 8.49 0 0 0 1.21.07h1.14l-.17.6h-.93a5.8 5.8 0 0 1 -2.3-.33 2.3 2.3 0 0 1 -.87-1 5.07 5.07 0 0 1 -.85 1.45l-.45-.39a4.56 4.56 0 0 0 1.07-2.64l.54.06a4.34 4.34 0 0 1 -.12.89 2.09 2.09 0 0 0 .94 1.09l.2.08v-2.48h-2.15v-.55zm-.56-3.54v3h-3.7v-3zm-.59 1.24v-.74h-2.52v.74zm0 .48h-2.52v.73h2.52z"/><path d="m253.13 253.1a7.6 7.6 0 0 0 -.37-.81l.63-.1c.12.26.24.57.36.91h3.25v.55h-3.79a5.56 5.56 0 0 1 -1.27 1v1.49c.63-.16 1.25-.33 1.86-.53l.11.56a24.47 24.47 0 0 1 -2.52.64l-.22-.51a.27.27 0 0 0 .17-.25v-1.05a11.71 11.71 0 0 1 -1.61.65l-.33-.54a7.43 7.43 0 0 0 3.08-1.45h-2.81v-.55zm-3.41-1.66-.19-.61a5.64 5.64 0 0 0 2.06-1.91l.52.25a5.28 5.28 0 0 1 -.85 1.11v2.43h-.6v-1.92a8.2 8.2 0 0 1 -.94.65zm7.15-1-2.57.44a2 2 0 0 0 .3.46 1.69 1.69 0 0 0 1.3.75.33.33 0 0 0 .27-.16 3.7 3.7 0 0 0 .22-.85l.57.25a3.67 3.67 0 0 1 -.38 1.08.65.65 0 0 1 -.53.26 2.31 2.31 0 0 1 -1.75-.84 3.86 3.86 0 0 1 -.57-.84l-1.84.31-.09-.57 1.69-.29a9.82 9.82 0 0 1 -.44-1.41l.62-.05a7.26 7.26 0 0 0 .38 1.36l2.73-.47zm-2.09 4.56a4.75 4.75 0 0 0 1.49-1.13l.44.44a4.68 4.68 0 0 1 -1.43 1.05 10.23 10.23 0 0 0 2 .95l-.4.48a7 7 0 0 1 -3.47-2.53l.46-.25a4.89 4.89 0 0 0 .91.99zm1.12-5.34-.39.38a5.24 5.24 0 0 0 -1-.68l.37-.37a7.38 7.38 0 0 1 1.02.62z"/><path d="m258.88 248.91a8 8 0 0 1 .88 1.75 6.82 6.82 0 0 1 0 4.43 8.2 8.2 0 0 1 -.88 1.75h-.6a8.64 8.64 0 0 0 .81-1.75 7 7 0 0 0 .38-2.21 6.89 6.89 0 0 0 -.38-2.21 8.25 8.25 0 0 0 -.81-1.76z"/><path d="m58.29 268.43a.63.63 0 0 1 .18.45.58.58 0 0 1 -.18.43.6.6 0 0 1 -.44.18.58.58 0 0 1 -.43-.18.56.56 0 0 1 -.19-.43.6.6 0 0 1 .19-.45.61.61 0 0 1 .43-.17.64.64 0 0 1 .44.17z"/><path d="m63.06 267.17-.52-.34a5.41 5.41 0 0 0 1.12-1.83l.6.12c-.07.18-.14.37-.22.55h2.28v.54h-1.39a7.4 7.4 0 0 1 .55.92l-.55.2a8.29 8.29 0 0 0 -.64-1.12h-.52a5.4 5.4 0 0 1 -.71.96zm3.44 5.24-.56.26c-.09-.22-.17-.43-.26-.61-.71.2-1.57.39-2.59.59l-.15-.56a.22.22 0 0 0 .17-.2v-4.39h3.21v2.91h-2.6v1.53c.58-.11 1.15-.24 1.72-.4-.12-.25-.25-.49-.38-.71l.56-.18a11.12 11.12 0 0 1 .88 1.76zm-.79-4.4h-2v.7h2zm-2 1.9h2v-.69h-2zm3.08-2.71-.51-.33a5.64 5.64 0 0 0 1-1.89l.57.12c-.06.19-.12.37-.17.54h2.49v.54h-1.58a7.07 7.07 0 0 1 .53.92l-.54.2a8.45 8.45 0 0 0 -.64-1.12h-.52a5.65 5.65 0 0 1 -.62 1.02zm1.55 4.8-.15-.59h.8c.17 0 .25-.09.25-.26v-3.13h-1.57v4.7h-.6v-5.22h2.78v3.84a.6.6 0 0 1 -.67.68z"/><path d="m72.17 268.82a9.32 9.32 0 0 1 -.78 4l-.45-.4a8.67 8.67 0 0 0 .64-3.57v-3.33h3.19c-.09-.16-.17-.3-.26-.44l.62-.1c.09.16.17.34.27.54h3.17v.48h-2.23v.48h1.92v1.36h-6.09v.42h6.42v.3c-.07.31-.15.61-.25.92l-.52-.15a4.05 4.05 0 0 0 .22-.62h-5.87zm1.43 1.92a3.53 3.53 0 0 0 .57-.44.5.5 0 0 1 -.46-.52v-.78h.56v.7c0 .13.07.2.24.2h1.41a.4.4 0 0 0 .27-.08c.07-.06.11-.24.13-.54l.52.16c0 .43-.13.69-.26.77a.93.93 0 0 1 -.55.13h-1.24l-.32.35h3.24v.31a4.26 4.26 0 0 1 -1.42.95 12.93 12.93 0 0 0 2.47.24l-.22.51a11.23 11.23 0 0 1 -3.14-.43 14.12 14.12 0 0 1 -3.15.46l-.23-.5a18.12 18.12 0 0 0 2.6-.27 4.55 4.55 0 0 1 -1.07-.68 7.06 7.06 0 0 1 -1 .48l-.27-.47c.35-.12.67-.24.94-.36a2.87 2.87 0 0 1 -.34-.44l.46-.12a1.81 1.81 0 0 0 .26.37zm-1.43-4.74v.48h1.58v-.48zm0 1.44h1.58v-.55h-1.58zm1.21 1.74a3.73 3.73 0 0 1 -.72 1.23l-.44-.28a2.81 2.81 0 0 0 .67-1.05zm3.62 1.91h-3a5.57 5.57 0 0 0 1.45.69 4.74 4.74 0 0 0 1.55-.69zm-2.67-5.09v.48h1.44v-.48zm0 1.44h1.44v-.55h-1.44zm1.55 1.93-.24.36a4.4 4.4 0 0 0 -1-.61l.21-.32a5.36 5.36 0 0 1 1.03.57zm.46-1.93h1.36v-.55h-1.36zm.43 1.89.34-.33a10.45 10.45 0 0 1 1.21 1.05l-.36.36a8.43 8.43 0 0 0 -1.19-1.08z"/><path d="m79.65 270.28-.19-.65a8 8 0 0 0 2.34-2.84h-2.13v-.61h1.33a8.6 8.6 0 0 0 -.47-1.08l.61-.17a8 8 0 0 1 .43 1.16l-.24.09h1.13v.54a7 7 0 0 1 -1 1.78 8.18 8.18 0 0 1 1.33 1l-.35.53a6.76 6.76 0 0 0 -1-.89v3.63h-.62v-3.52c-.39.35-.76.69-1.17 1.03zm6.92-4.93v3.52h-.83v3a.2.2 0 0 0 .23.22h.35a.27.27 0 0 0 .23-.11 3.61 3.61 0 0 0 .16-1.3l.56.18a4.18 4.18 0 0 1 -.25 1.56.64.64 0 0 1 -.57.23h-.67a.63.63 0 0 1 -.49-.18.61.61 0 0 1 -.17-.46v-3.13h-.78v.2a4.92 4.92 0 0 1 -1.73 3.7l-.51-.45a4.22 4.22 0 0 0 1.62-3.25v-.2h-.72v-3.52zm-.62.59h-2.35v2.33h2.4z"/><path d="m90.13 265v.57h1.63a4.75 4.75 0 0 1 -.24 2 .92.92 0 0 1 -.8.32h-.54l-.18-.59.57.05c.24 0 .4-.08.46-.21a4.42 4.42 0 0 0 .11-1h-1.06a3 3 0 0 1 -1.63 2.16l-.45-.4a2.49 2.49 0 0 0 1.47-1.76h-1.12v-.54h1.19v-.6zm1.06 7.06a10.66 10.66 0 0 1 -2.84.79l-.26-.45a10.56 10.56 0 0 0 2.79-.75zm3.44-3.85v3.43h-5.42v-3.44zm-.62 1v-.54h-4.19v.54zm0 .92v-.49h-4.19v.49zm0 .43h-4.19v.56h4.18zm1.16-5.15v2.26h-2.79v-2.26zm.42 6.93-.21.49a20.17 20.17 0 0 0 -2.9-.74l.21-.4a18.86 18.86 0 0 1 2.9.67zm-1-6.39h-1.59v1.18h1.6z"/><path d="m103.84 272.79h-.57v-.33h-5.81v.36h-.57v-7.48h7zm-.57-.84v-6.09h-5.81v6.14zm-1.14-5.64v1.32h-1.54l-.13.41h2.45v.42h-5.09v-.46h2.1l.13-.41h-1.45v-1.32zm.38 2.54v2.66h-4.28v-2.66zm-.52.38h-3.25v1.89h3.26zm-.39-2.55h-2.47v.58h2.47zm-.18 2.94v1.13h-2.1v-1.13zm-.45.29h-1.21v.54h1.24z"/></g></svg>