<svg viewBox="0 0 793.64 495.88" xmlns="http://www.w3.org/2000/svg"><path d="m0 0h793.64v495.88h-793.64z" fill="#fff"/><path d="m127.55 60.8s1.64-18 13.42-17.89c0 0 13.81.73 14.35 10 0 0 5.64 15-7.91 18.74l-10.67 2.61z" fill="#150201"/><path d="m77.31 69.66s6.17-26.79-18.31-23.53c0 0-7.86.93-8.87 8.93 0 0-7 17.46 19.32 22.72z" fill="#150201"/><path d="m64.83 52.79s3.89 2.93 6.92 9.55l-10.14 7.86s-6.24-4.51-5.88-8.36 1.71-10.84 9.1-9.05z" fill="#403a39"/><path d="m132.18 57.64s4.47-9 10.77-6.82 5.26 16.53-8.13 15.08z" fill="#403a39"/><path d="m49 156.82c-25.09-22.82-13.16-54.51 12.52-92.42 6.35-9.36 59.78-29 82-1.69 12.35 15.14 22.31 32.27 23.75 40.93 2 12.13 5.56 34.36-10.1 48.51-1.76 1.6-56.58 49.52-108.17 4.67z" fill="#150201"/><path d="m125.92 101.46c1 4.11-.52 8-3.46 8.75s-6.15-2-7.17-6.09.53-8 3.46-8.75 6.16 2 7.17 6.09z" fill="#fff"/><path d="m123.11 101.58a3.21 3.21 0 1 1 -3.89-2.34 3.22 3.22 0 0 1 3.89 2.34z" fill="#150201"/><path d="m70.49 106.52c-1.24 4-4.59 6.6-7.48 5.71s-4.24-4.88-3-8.92 4.59-6.6 7.49-5.71 4.22 4.88 2.99 8.92z" fill="#fff"/><path d="m67.81 105.2a3.24 3.24 0 1 1 -2.15-4.06 3.25 3.25 0 0 1 2.15 4.06z" fill="#150201"/><path d="m91.58 105.32s24.15-1.06 24.41 17.23c0 0-3.63 15.74-23.67 14.69 0 0-23.7-3.57-20.59-19 0 0 4.65-12.53 19.85-12.92z" fill="#fff"/><path d="m84.89 111.29c-1.07.64-2.13 2.21-1.8 3.19s4.18 4.75 6.3 4.75 8.27-3.11 9.17-3.93.49-4.58-.49-4.83-5.17 1.41-8.43 1.07c-2.37-.25-4.34-.49-4.75-.25z" fill="#150201"/><path d="m85.12 111.81c-.93.51-1.87 1.77-1.58 2.55s3.85 4.18 5.72 4.18 6.93-2.43 7.72-3.09.41-3.92-.43-3.86a35.39 35.39 0 0 1 -7.17.5c-2.09-.2-3.9-.48-4.26-.28z" fill="#29201f"/><path d="m85.36 112.32c-.81.39-1.62 1.33-1.37 1.92s3.51 3.6 5.13 3.6 5.6-1.74 6.28-2.23.33-3.19-.38-2.91c-1.43.56-3.42.14-5.9-.07a27.71 27.71 0 0 0 -3.76-.31z" fill="#403a39"/><path d="m86.06 200.4c-3.53-.12 1.15 26.12 2.18 28.54-1.7 0-3.57.85-3.52 2.6a12.2 12.2 0 0 0 6-.76c2.52-1.46.93-3.3 2.06-5.78a16.72 16.72 0 0 1 10.56-8.53c2.34-.6 4.17.13 4.87-.23a7.77 7.77 0 0 0 3.65-10.6c-3.41-7.41-19.49-5.02-25.8-5.24z" fill="#150201"/><path d="m130.82 205a45.59 45.59 0 0 1 -.48 6.07 80.15 80.15 0 0 1 -1.44 8.26c-.87 4-1.48 8.88-3.41 12.61 1.62.08 3.33 1 3.16 2.7a11.58 11.58 0 0 1 -5.61-1.12c-2.29-1.55-.64-3.19-1.53-5.61-1.39-3.71-6-8.07-9.55-10a18.18 18.18 0 0 0 -7.83-1.85c-2.78-.07.08-.47.42-2.85.08-.59-.39-1-.34-1.58.14-1.23-.09-2.13.57-3.33 3-5.35 9.57-3.16 14.37-4.46 2.79-.76 9.65-6.55 11.35-1.25a8.83 8.83 0 0 1 .32 2.41z" fill="#150201"/><path d="m138.09 191.62c2.43 1.08 4.25 5.45 2.75 7.77a1.26 1.26 0 0 1 -.4.35c-.18 1-.73 2-1.58 1.92a4.44 4.44 0 0 1 -1.1-.24c-.58 1.1-1.82 2.25-3.23 1.25a2.22 2.22 0 0 1 -.72-.85c-.81.5-1.76.7-2.23.09a5.33 5.33 0 0 1 -.65-1.26 2.38 2.38 0 0 1 -.3-.18c.01-.26 1.07-7.67 7.46-8.85z" fill="#150201"/><path d="m80.49 195.46c-2.35.68-4.62 4.42-3.57 6.73a1.49 1.49 0 0 0 .31.37c0 .94.4 1.89 1.18 2a4.12 4.12 0 0 0 1-.08c.38 1.08 2.1 2.46 3 1.63a3.84 3.84 0 0 0 .59-.76c.66.57 1.5.87 2 .37a4.05 4.05 0 0 0 .76-1.06c.11 0 .08-1.53.18-1.57a7.71 7.71 0 0 0 -5.45-7.63z" fill="#150201"/><path d="m90.84 168.87c-.86.26-14.56 11.28-14.16 31.1 0 1.82 3.29 7.67 7.4 4.54.9-.68.29-1.13.29-1.13a5.65 5.65 0 0 1 -.68-1.89c-.02-.67-1.51-12.88 7.15-32.62z" fill="#150201"/><path d="m77.05 201.59c1 2.33 3.82 5.38 7 2.92.9-.68.29-1.13.29-1.13a5.65 5.65 0 0 1 -.68-1.89c0-.66-2.13-11.79 6.27-31.2-3.08 3.71-11.93 16.31-9.73 31.14.13.98-1.31 1.57-3.15.16z" fill="#150201"/><path d="m124.44 168.56c.85.43 9.78 7.07 16 25.44.66 1.92-3.31 7.65-8.09 6.39-2.47-.64-7.91-31.83-7.91-31.83z" fill="#150201"/><path d="m91.07 167.18c-.6 1.65-11.9 20.71-8.19 35.18.83 3.21 5.38 13.15 21.77 13.42 4.61.08 9.7-1.76 13.64-3.75 8.83-4.45 14.71-6.57 13.88-17.39-.55-7.29-3.33-14.35-5.61-21.15a23.32 23.32 0 0 0 -2.78-6c-20.63 10.85-32.71-.31-32.71-.31z" fill="#150201"/><g fill="#fff"><path d="m121.22 180.39c-3 2.74-15.42 10.27-21.28 7a39.32 39.32 0 0 1 -7-5.4c.93 3.13 1.74 8 8.55 11.62 2 1.09 4.8.78 13.81-4.94 2.38-1.76 5.92-8.28 5.92-8.28z"/><path d="m134.81 197.73a1.33 1.33 0 0 0 1.84.29 1.31 1.31 0 0 0 .91-1.06 1.11 1.11 0 0 0 -.95-1.11c-1.15-.27-2.61.75-1.8 1.88z"/><path d="m132.41 198a.5.5 0 0 0 .51.67 1.26 1.26 0 0 0 .9-.54.52.52 0 0 0 .06-.13.55.55 0 0 0 .09-.28.56.56 0 0 0 -.79-.44 1.25 1.25 0 0 0 -.77.72z"/><path d="m133.58 200.19a.52.52 0 0 0 .78.37 1.25 1.25 0 0 0 .54-.87.76.76 0 0 0 0-.15.45.45 0 0 0 0-.28.57.57 0 0 0 -.91-.06 1.19 1.19 0 0 0 -.41.99z"/><path d="m135.88 200.52a.13.13 0 0 0 .05.06.27.27 0 0 0 .24.15.63.63 0 0 0 .8-.54c0-.07 0-.12 0-.18a.71.71 0 0 0 -.09-.31c0-.08-.08-.19-.17-.19a.5.5 0 0 0 -.62 0c-.27.2-.53.76-.21 1.01z"/><path d="m137.59 198.49a.52.52 0 0 0 0 .63.48.48 0 0 0 .1.15h.09.06.08l.17.09a.51.51 0 0 0 .42 0 .47.47 0 0 0 .37-.22.4.4 0 0 0 0-.48.89.89 0 0 0 -1.29-.17z"/><path d="m138.92 196.56a.54.54 0 0 0 -.46.44.39.39 0 0 0 -.05.18.2.2 0 0 1 0 .09s0 0 0 .05 0 .06 0 .09l.06.19a.48.48 0 0 0 .31.28.5.5 0 0 0 .43.09.41.41 0 0 0 .34-.35c.24-.39-.14-1.09-.63-1.06z"/><path d="m80.32 199.41a1.3 1.3 0 0 0 1.55 1 1.43 1.43 0 0 0 1.33-.6 1.12 1.12 0 0 0 -.38-1.44c-.93-.68-2.73-.37-2.5 1.04z"/><path d="m78 201.17a.49.49 0 0 0 .17.83 1.35 1.35 0 0 0 1.06-.12l.12-.09a.5.5 0 0 0 .21-.22.56.56 0 0 0 -.51-.74 1.39 1.39 0 0 0 -1.05.34z"/><path d="m77.77 198.87a.49.49 0 0 0 .17.83 1.35 1.35 0 0 0 1.06-.12l.12-.09a.45.45 0 0 0 .2-.23c.17-.35-.14-.68-.51-.73a1.35 1.35 0 0 0 -1.04.34z"/><path d="m80 202.42a.07.07 0 0 0 0 .06.21.21 0 0 0 .16.24c.21.3.82.16 1-.16a.29.29 0 0 0 0-.2.18.18 0 0 0 0-.24.18.18 0 0 0 -.11-.21.41.41 0 0 0 -.53-.3c-.16.05-.66.46-.52.81z"/><path d="m82.5 201.48a.62.62 0 0 0 -.57.34.34.34 0 0 0 -.07.17s0 .07 0 .1 0 0 0 .06v.09a.67.67 0 0 0 0 .2.53.53 0 0 0 .25.34.49.49 0 0 0 .41.19.45.45 0 0 0 .41-.26.86.86 0 0 0 -.43-1.23z"/><path d="m84 200.16a.58.58 0 0 0 -.58.31.34.34 0 0 0 -.08.17s0 .06 0 .09v.15a.41.41 0 0 0 0 .19.52.52 0 0 0 .22.36.54.54 0 0 0 .41.2.42.42 0 0 0 .42-.25.84.84 0 0 0 -.39-1.22z"/><path d="m119.81 101.1a1.09 1.09 0 0 1 -.79 1.33 1.1 1.1 0 1 1 -.54-2.13 1.09 1.09 0 0 1 1.33.8z"/><path d="m64.94 102.73a1.09 1.09 0 0 1 -.8 1.32 1.1 1.1 0 1 1 .8-1.32z"/></g><path d="m85.38 123.41c2.55 4.8 7.28 8.42 13.59-.57.49-.7 0-1.23-.62-.93a15.49 15.49 0 0 1 -12.24.65c-.57-.22-1.11.21-.73.85z" fill="#150405"/><path d="m305.41 60.8s1.64-18 13.42-17.89c0 0 13.81.73 14.36 10 0 0 5.64 15-7.91 18.74l-10.68 2.58z" fill="#150201"/><path d="m255.17 69.66s6.17-26.79-18.31-23.53c0 0-7.85.93-8.86 8.93 0 0-7 17.46 19.32 22.72z" fill="#150201"/><path d="m242.69 52.79s3.9 2.93 6.92 9.55l-10.13 7.86s-6.24-4.51-5.88-8.36 1.7-10.84 9.09-9.05z" fill="#403a39"/><path d="m310 57.64s4.47-9 10.77-6.82 5.26 16.53-8.13 15.08z" fill="#403a39"/><path d="m226.85 156.82c-25.08-22.82-13.15-54.51 12.54-92.42 6.34-9.36 59.78-29 82-1.69 12.35 15.14 22.3 32.27 23.75 40.93 2 12.13 5.56 34.36-10.11 48.51-1.76 1.6-56.58 49.52-108.18 4.67z" fill="#150201"/><path d="m303.79 101.46c1 4.11-.53 8-3.46 8.75s-6.15-2-7.17-6.09.52-8 3.46-8.75 6.15 2 7.17 6.09z" fill="#fff"/><path d="m301 101.58a3.22 3.22 0 1 1 -3.9-2.34 3.23 3.23 0 0 1 3.9 2.34z" fill="#150201"/><path d="m248.35 106.52c-1.23 4-4.58 6.6-7.48 5.71s-4.24-4.88-3-8.92 4.59-6.6 7.49-5.71 4.23 4.88 2.99 8.92z" fill="#fff"/><path d="m245.67 105.2a3.24 3.24 0 1 1 -2.15-4.06 3.23 3.23 0 0 1 2.15 4.06z" fill="#150201"/><path d="m269.44 105.32s24.16-1.06 24.41 17.23c0 0-3.63 15.74-23.66 14.69 0 0-23.7-3.57-20.6-19a21.59 21.59 0 0 1 19.85-12.92z" fill="#fff"/><path d="m262.76 111.29c-1.07.64-2.13 2.21-1.81 3.19s4.18 4.75 6.31 4.75 8.27-3.11 9.17-3.93.49-4.58-.49-4.83-5.18 1.41-8.44 1.07c-2.37-.25-4.34-.49-4.74-.25z" fill="#150201"/><path d="m263 111.81c-.94.51-1.87 1.77-1.59 2.55s3.85 4.18 5.72 4.18 6.93-2.43 7.73-3.09.4-3.92-.44-3.86a35.33 35.33 0 0 1 -7.17.5c-2.09-.2-3.9-.48-4.25-.28z" fill="#29201f"/><path d="m263.22 112.32c-.81.39-1.61 1.33-1.37 1.92s3.52 3.6 5.13 3.6 5.6-1.74 6.29-2.23.32-3.19-.38-2.91c-1.43.56-3.43.14-5.91-.07a27.61 27.61 0 0 0 -3.76-.31z" fill="#403a39"/><path d="m268.74 187.56c-1.93-.06.63 14.25 1.19 15.56-.93 0-1.95.46-1.92 1.42a6.79 6.79 0 0 0 3.26-.41c1.37-.8.5-1.8 1.12-3.16a9.14 9.14 0 0 1 5.76-4.65c1.27-.32 2.27.08 2.65-.12a4.24 4.24 0 0 0 2-5.78c-1.8-4.04-10.62-2.74-14.06-2.86z" fill="#150201"/><path d="m293.14 190.08a25.14 25.14 0 0 1 -.26 3.31 43.2 43.2 0 0 1 -.78 4.5c-.48 2.19-.82 4.84-1.86 6.88.88 0 1.81.56 1.72 1.46a6.16 6.16 0 0 1 -3.06-.61c-1.25-.84-.35-1.73-.84-3.05-.75-2-3.24-4.4-5.2-5.46a9.81 9.81 0 0 0 -4.27-1c-1.52 0 0-.26.23-1.56 0-.32-.21-.57-.18-.86a4.13 4.13 0 0 1 .3-1.82c1.61-2.91 5.22-1.72 7.84-2.43 1.52-.41 5.26-3.57 6.19-.68a5.24 5.24 0 0 1 .17 1.32z" fill="#150201"/><path d="m297.1 182.78c1.32.59 2.32 3 1.5 4.23a1.07 1.07 0 0 1 -.22.2c-.1.55-.4 1.07-.86 1a2.23 2.23 0 0 1 -.6-.13c-.32.6-1 1.23-1.76.68a1.2 1.2 0 0 1 -.4-.46c-.44.27-.95.38-1.21.05a2.63 2.63 0 0 1 -.35-.69 1 1 0 0 1 -.17-.1c-.03-.1.59-4.14 4.07-4.78z" fill="#150201"/><path d="m265.7 184.87c-1.28.37-2.51 2.41-1.94 3.66a.78.78 0 0 0 .16.21c0 .51.23 1 .65 1.06a2.18 2.18 0 0 0 .56 0c.21.58 1.14 1.34 1.61.88a1.94 1.94 0 0 0 .32-.41c.36.31.82.48 1.1.2a2 2 0 0 0 .41-.57c.06 0 .05-.84.11-.86a4.22 4.22 0 0 0 -2.98-4.17z" fill="#150201"/><path d="m271.35 170.38c-.47.14-7.94 6.14-7.72 17 0 1 1.79 4.18 4 2.48.49-.38.16-.62.16-.62a3 3 0 0 1 -.37-1c.02-.45-.8-7.11 3.93-17.86z" fill="#150201"/><path d="m263.83 188.22c.54 1.26 2.08 2.92 3.83 1.59.49-.38.16-.62.16-.62a3 3 0 0 1 -.37-1c0-.36-1.17-6.43 3.42-17-1.7 2-6.53 8.89-5.33 17 .08.47-.71.81-1.71.03z" fill="#150201"/><path d="m289.66 170.21c.47.23 5.33 3.85 8.72 13.86.36 1.05-1.8 4.17-4.41 3.49-1.34-.35-4.31-17.35-4.31-17.35z" fill="#150201"/><path d="m271.47 169.45c-.32.91-6.49 11.29-4.46 19.18.45 1.75 2.93 7.17 11.86 7.32a17 17 0 0 0 7.44-2c4.81-2.42 8-3.58 7.57-9.48-.3-4-1.82-7.82-3.06-11.53a12.72 12.72 0 0 0 -1.52-3.25c-11.24 5.85-17.83-.24-17.83-.24z" fill="#150201"/><path d="m287.91 176.66c-1.62 1.49-8.41 5.6-11.6 3.8a21.23 21.23 0 0 1 -3.85-3c.51 1.71 1 4.36 4.66 6.34 1.12.6 2.62.43 7.53-2.69 1.35-.9 3.26-4.45 3.26-4.45z" fill="#fff"/><path d="m295.32 186.11a.72.72 0 0 0 1 .16.71.71 0 0 0 .5-.58.62.62 0 0 0 -.52-.61c-.63-.14-1.42.41-.98 1.03z" fill="#fff"/><path d="m294 186.25a.27.27 0 0 0 .28.36.66.66 0 0 0 .48-.29v-.07a.3.3 0 0 0 .05-.16.31.31 0 0 0 -.43-.24.67.67 0 0 0 -.38.4z" fill="#fff"/><path d="m294.65 187.45a.28.28 0 0 0 .42.2.66.66 0 0 0 .29-.48.09.09 0 0 0 0-.07.29.29 0 0 0 0-.16.31.31 0 0 0 -.49 0 .61.61 0 0 0 -.22.51z" fill="#fff"/><path d="m295.9 187.63a.16.16 0 0 0 .14.08c.17.09.43-.1.43-.29 0 0 0-.06 0-.1a.32.32 0 0 0 -.05-.17s0-.1-.09-.1a.28.28 0 0 0 -.34 0c-.12.14-.26.44-.09.58z" fill="#fff"/><path d="m296.83 186.52a.3.3 0 0 0 0 .34.24.24 0 0 0 .06.09l.1.06a.37.37 0 0 0 .23 0 .31.31 0 0 0 .2-.13.21.21 0 0 0 0-.26.48.48 0 0 0 -.59-.1z" fill="#fff"/><path d="m297.56 185.47c-.13 0-.22.12-.26.24a.25.25 0 0 0 0 .1.07.07 0 0 1 0 .05 0 0 0 0 1 0 0 .07.07 0 0 1 0 0v.1a.28.28 0 0 0 .17.15.28.28 0 0 0 .23.05.22.22 0 0 0 .19-.19.46.46 0 0 0 -.33-.5z" fill="#fff"/><path d="m265.61 187a.72.72 0 0 0 .85.57.76.76 0 0 0 .72-.33.61.61 0 0 0 -.21-.78c-.5-.37-1.48-.19-1.36.54z" fill="#fff"/><path d="m264.36 188a.26.26 0 0 0 .09.45.74.74 0 0 0 .58-.07l.06-.05a.34.34 0 0 0 .12-.12.3.3 0 0 0 -.28-.4.72.72 0 0 0 -.57.19z" fill="#fff"/><path d="m264.22 186.73a.26.26 0 0 0 .09.45.73.73 0 0 0 .58-.06l.06-.05a.25.25 0 0 0 .12-.13c.09-.19-.08-.37-.28-.4a.74.74 0 0 0 -.57.19z" fill="#fff"/><path d="m265.46 188.66a0 0 0 0 0 0 0 .13.13 0 0 0 .08.14c.12.16.45.08.53-.09a.17.17 0 0 0 0-.11.1.1 0 0 0 0-.13.12.12 0 0 0 -.07-.12.21.21 0 0 0 -.28-.16c-.09.06-.36.28-.26.47z" fill="#fff"/><path d="m266.8 188.16a.32.32 0 0 0 -.31.18.19.19 0 0 0 0 .09.11.11 0 0 0 0 0v.08a.45.45 0 0 0 0 .11.26.26 0 0 0 .13.18.24.24 0 0 0 .22.1.23.23 0 0 0 .23-.14c.11-.14-.01-.56-.27-.6z" fill="#fff"/><path d="m267.64 187.43a.35.35 0 0 0 -.32.17.19.19 0 0 0 0 .09.13.13 0 0 0 0 .06v.08a.37.37 0 0 0 0 .11.35.35 0 0 0 .13.19.28.28 0 0 0 .22.11.25.25 0 0 0 .23-.13.47.47 0 0 0 -.26-.68z" fill="#fff"/><path d="m297.68 101.1a1.1 1.1 0 1 1 -1.33-.8 1.1 1.1 0 0 1 1.33.8z" fill="#fff"/><path d="m242.8 102.73a1.1 1.1 0 1 1 -1.33-.81 1.08 1.08 0 0 1 1.33.81z" fill="#fff"/><path d="m263.24 123.41c2.55 4.8 7.29 8.42 13.6-.57.49-.7 0-1.23-.63-.93a15.49 15.49 0 0 1 -12.24.65c-.57-.22-1.07.21-.73.85z" fill="#150405"/><path d="m525.31 60.8s1.64-18 13.41-17.89c0 0 13.82.73 14.36 10 0 0 5.64 15-7.91 18.74l-10.67 2.58z" fill="#150201"/><path d="m475.06 69.66s6.17-26.79-18.31-23.53c0 0-7.85.93-8.86 8.93 0 0-7 17.46 19.32 22.72z" fill="#150201"/><path d="m462.58 52.79s3.9 2.93 6.92 9.55l-10.13 7.86s-6.24-4.51-5.88-8.36 1.7-10.84 9.09-9.05z" fill="#403a39"/><path d="m529.94 57.64s4.46-9 10.77-6.82 5.29 16.53-8.14 15.08z" fill="#403a39"/><path d="m446.75 156.82c-25.09-22.82-13.16-54.51 12.53-92.42 6.35-9.36 59.78-29 82-1.69 12.36 15.14 22.31 32.29 23.72 40.93 2 12.13 5.56 34.36-10.1 48.51-1.73 1.6-56.56 49.52-108.15 4.67z" fill="#150201"/><path d="m523.68 101.46c1 4.11-.53 8-3.46 8.75s-6.15-2-7.17-6.09.53-8 3.46-8.75 6.15 2 7.17 6.09z" fill="#fff"/><path d="m520.87 101.58a3.21 3.21 0 1 1 -3.87-2.34 3.22 3.22 0 0 1 3.87 2.34z" fill="#150201"/><path d="m468.25 106.52c-1.24 4-4.59 6.6-7.49 5.71s-4.24-4.88-3-8.92 4.59-6.6 7.49-5.71 4.23 4.88 3 8.92z" fill="#fff"/><path d="m465.57 105.2a3.24 3.24 0 1 1 -2.16-4.06 3.25 3.25 0 0 1 2.16 4.06z" fill="#150201"/><path d="m489.34 105.32s24.15-1.06 24.4 17.23c0 0-3.63 15.74-23.66 14.69 0 0-23.7-3.57-20.59-19 0 0 4.65-12.53 19.85-12.92z" fill="#fff"/><path d="m482.65 111.29c-1.07.64-2.13 2.21-1.81 3.19s4.19 4.75 6.31 4.75 8.27-3.11 9.17-3.93.49-4.58-.49-4.83-5.17 1.41-8.43 1.07c-2.4-.25-4.34-.49-4.75-.25z" fill="#150201"/><path d="m482.88 111.81c-.94.51-1.87 1.77-1.58 2.55s3.84 4.18 5.71 4.18 6.94-2.43 7.73-3.09.41-3.92-.43-3.86a35.39 35.39 0 0 1 -7.17.5c-2.09-.2-3.9-.48-4.26-.28z" fill="#29201f"/><path d="m483.11 112.32c-.8.39-1.61 1.33-1.36 1.92s3.51 3.6 5.13 3.6 5.6-1.74 6.28-2.23.33-3.19-.38-2.91c-1.43.56-3.43.14-5.9-.07a27.71 27.71 0 0 0 -3.77-.31z" fill="#403a39"/><path d="m484.39 193.41c-2.53-.09.83 19.48 1.57 21.29-1.22 0-2.56.63-2.53 1.94a8.55 8.55 0 0 0 4.29-.57c1.81-1.09.67-2.46 1.48-4.31a12.15 12.15 0 0 1 7.58-6.37c1.68-.44 3 .1 3.5-.17a5.89 5.89 0 0 0 2.62-7.9c-2.43-5.53-13.97-3.75-18.51-3.91z" fill="#150201"/><path d="m516.53 196.85a33.87 33.87 0 0 1 -.34 4.52 60.88 60.88 0 0 1 -1 6.16c-.63 3-1.07 6.63-2.45 9.41 1.16.07 2.38.78 2.26 2a7.94 7.94 0 0 1 -4-.83c-1.65-1.15-.46-2.38-1.11-4.19-1-2.76-4.27-6-6.85-7.47a12.77 12.77 0 0 0 -5.62-1.38c-2-.05.06-.35.3-2.13.06-.43-.28-.77-.24-1.17a5.68 5.68 0 0 1 .41-2.49c2.11-4 6.87-2.35 10.31-3.33 2-.56 6.93-4.88 8.15-.92a6.87 6.87 0 0 1 .18 1.82z" fill="#150201"/><path d="m521.75 186.86c1.74.81 3 4.07 2 5.8a1.24 1.24 0 0 1 -.29.26c-.13.75-.53 1.47-1.13 1.43a2.9 2.9 0 0 1 -.79-.18c-.42.82-1.31 1.68-2.32.93a1.62 1.62 0 0 1 -.52-.63c-.58.38-1.26.52-1.6.07a3.93 3.93 0 0 1 -.47-.94l-.21-.13c-.02-.21.75-5.73 5.33-6.61z" fill="#150201"/><path d="m480.4 189.72c-1.69.51-3.32 3.3-2.57 5a1.79 1.79 0 0 0 .22.28c0 .7.3 1.41.85 1.45a2.36 2.36 0 0 0 .74-.06c.27.81 1.51 1.84 2.12 1.22a2.84 2.84 0 0 0 .43-.57c.47.42 1.07.65 1.45.28a3.33 3.33 0 0 0 .54-.79c.08 0 .06-1.15.13-1.18a5.77 5.77 0 0 0 -3.91-5.63z" fill="#150201"/><path d="m487.83 169.89c-.62.19-10.45 8.41-10.16 23.19 0 1.36 2.36 5.73 5.3 3.4.65-.52.21-.85.21-.85a4.56 4.56 0 0 1 -.49-1.41c-.01-.5-1.08-9.61 5.14-24.33z" fill="#150201"/><path d="m477.93 194.3c.71 1.73 2.74 4 5 2.18.65-.52.21-.85.21-.85a4.56 4.56 0 0 1 -.49-1.41c0-.49-1.53-8.8 4.51-23.27-2.23 2.79-8.6 12.16-7 23.23.12.73-.91 1.17-2.23.12z" fill="#150201"/><path d="m512 169.66c.61.32 7 5.27 11.48 19 .48 1.44-2.37 5.71-5.81 4.77-1.82-.51-5.67-23.77-5.67-23.77z" fill="#150201"/><path d="m488 168.63c-.43 1.23-8.55 15.44-5.88 26.24.59 2.39 3.85 9.81 15.62 10 3.31.06 7-1.32 9.8-2.8 6.33-3.31 10.56-4.9 10-13-.39-5.44-2.39-10.7-4-15.78a18.06 18.06 0 0 0 -2-4.45c-14.87 8.16-23.54-.21-23.54-.21z" fill="#150201"/><path d="m509.64 178.48c-2.13 2.05-11.07 7.67-15.28 5.21a28.63 28.63 0 0 1 -5.06-4c.67 2.34 1.25 6 6.14 8.67 1.47.81 3.45.58 9.92-3.69 1.74-1.33 4.28-6.19 4.28-6.19z" fill="#fff"/><path d="m519.4 191.42a.91.91 0 0 0 1.31.21 1 1 0 0 0 .66-.79.82.82 0 0 0 -.68-.83c-.83-.2-1.86.56-1.29 1.41z" fill="#fff"/><path d="m517.67 191.6a.37.37 0 0 0 .37.5.91.91 0 0 0 .64-.4.31.31 0 0 0 .05-.1.36.36 0 0 0 .06-.2.4.4 0 0 0 -.56-.33.89.89 0 0 0 -.56.53z" fill="#fff"/><path d="m518.51 193.25a.37.37 0 0 0 .56.27.89.89 0 0 0 .39-.65v-.1a.57.57 0 0 0 0-.22.41.41 0 0 0 -.66 0 .93.93 0 0 0 -.29.7z" fill="#fff"/><path d="m520.16 193.49s0 0 0 0a.18.18 0 0 0 .17.11c.23.13.57-.14.57-.4 0-.05 0-.08 0-.13s0-.2-.07-.23 0-.14-.12-.15a.37.37 0 0 0 -.45 0c-.14.2-.32.62-.1.8z" fill="#fff"/><path d="m521.39 192a.42.42 0 0 0 0 .47.26.26 0 0 0 .08.11s0 0 .06 0a.05.05 0 0 0 0 0l.13.07a.63.63 0 0 0 .57-.19.3.3 0 0 0 0-.35c-.04-.22-.61-.39-.84-.11z" fill="#fff"/><path d="m522.35 190.54a.54.54 0 0 0 -.37.46.64.64 0 0 1 0 .07.08.08 0 0 0 0 0 .64.64 0 0 1 0 .07v.13a.4.4 0 0 0 .23.21.34.34 0 0 0 .3.07.31.31 0 0 0 .25-.26c.24-.29-.06-.77-.41-.75z" fill="#fff"/><path d="m480.28 192.67a.94.94 0 0 0 1.11.78 1 1 0 0 0 .95-.45.85.85 0 0 0 -.27-1.07c-.67-.54-1.96-.3-1.79.74z" fill="#fff"/><path d="m478.62 194a.37.37 0 0 0 .13.62.93.93 0 0 0 .76-.09.27.27 0 0 0 .08-.07.33.33 0 0 0 .15-.16.41.41 0 0 0 -.37-.55 1 1 0 0 0 -.75.25z" fill="#fff"/><path d="m478.44 192.27a.36.36 0 0 0 .13.61.92.92 0 0 0 .76-.08l.08-.07a.35.35 0 0 0 .15-.17.41.41 0 0 0 -.37-.55 1 1 0 0 0 -.75.26z" fill="#fff"/><path d="m480.08 194.91a.09.09 0 0 0 0 .05.16.16 0 0 0 .11.18c.15.22.59.11.7-.12a.27.27 0 0 0 0-.15.16.16 0 0 0 0-.18.15.15 0 0 0 -.09-.16.28.28 0 0 0 -.37-.22c-.13.04-.49.34-.35.6z" fill="#fff"/><path d="m481.84 194.22a.43.43 0 0 0 -.41.25.33.33 0 0 0 -.05.12.22.22 0 0 0 0 .08v.11a.66.66 0 0 0 0 .14.36.36 0 0 0 .17.26.39.39 0 0 0 .3.14.3.3 0 0 0 .29-.2.63.63 0 0 0 -.3-.9z" fill="#fff"/><path d="m483 193.23a.41.41 0 0 0 -.42.23.34.34 0 0 0 -.06.12.22.22 0 0 0 0 .08v.11a.61.61 0 0 0 0 .14.44.44 0 0 0 .17.27.33.33 0 0 0 .29.14.28.28 0 0 0 .3-.18c.15-.26.01-.84-.28-.91z" fill="#fff"/><path d="m517.57 101.1a1.09 1.09 0 0 1 -.8 1.33 1.1 1.1 0 1 1 .8-1.33z" fill="#fff"/><path d="m462.69 102.73a1.09 1.09 0 0 1 -.79 1.32 1.1 1.1 0 1 1 -.54-2.13 1.09 1.09 0 0 1 1.33.81z" fill="#fff"/><path d="m483.14 123.41c2.55 4.8 7.28 8.42 13.59-.57.49-.7 0-1.23-.63-.93a15.47 15.47 0 0 1 -12.23.65c-.58-.22-1.08.21-.73.85z" fill="#150405"/><path d="m581.62 42.91v130.62" fill="none" stroke="#231815" stroke-miterlimit="10"/><path d="m581.62 174.11v99.26" fill="none" stroke="#231815" stroke-miterlimit="10"/><path d="m539.78 43.65h2" fill="none" stroke="#363736" stroke-width=".33"/><path d="m545.85 43.65h54.88" fill="none" stroke="#363736" stroke-dasharray="4.07 4.07" stroke-width=".33"/><path d="m602.77 43.65h2" fill="none" stroke="#363736" stroke-width=".33"/><path d="m539.78 215.09h2" fill="none" stroke="#363736" stroke-width=".33"/><path d="m545.85 215.09h54.88" fill="none" stroke="#363736" stroke-dasharray="4.07 4.07" stroke-width=".33"/><path d="m602.77 215.09h2" fill="none" stroke="#363736" stroke-width=".33"/><path d="m539.78 273.37h2" fill="none" stroke="#363736" stroke-width=".33"/><path d="m545.85 273.37h54.88" fill="none" stroke="#363736" stroke-dasharray="4.07 4.07" stroke-width=".33"/><path d="m602.77 273.37h2" fill="none" stroke="#363736" stroke-width=".33"/><path d="m601.68 113.94c.21-.45.39-.86.54-1.25s.27-.8.39-1.25l.39.18a1.46 1.46 0 0 0 .35.1q.12 0 .12.09s0 .1-.12.15a.47.47 0 0 0 -.14.12 2.57 2.57 0 0 0 -.2.3c-.07.14-.17.32-.28.55s-.25.54-.41.91l.77-.16.75-.17a1.7 1.7 0 0 0 -.07.34 2.3 2.3 0 0 0 0 .37l-1 .14-1.26.2-1.27.22-1.1.22a2.12 2.12 0 0 0 0-.42 1 1 0 0 0 -.14-.38c.47 0 .93 0 1.38-.1zm1.83-6.85h-.43-.44-.54-1.39-.56-.49-.45v-.81h.45.49.56 1.39.54.44.43zm-.09 4.16h-.38-.41-2.19-.83c0-.2 0-.42 0-.66s0-.51 0-.83 0-.59 0-.82 0-.45 0-.67l.9.07h2.13.4.38v.69.8s0 .59 0 .83-.01.4 0 .59zm-2.73 2.51a3.45 3.45 0 0 0 -.19-.46c-.07-.16-.15-.31-.23-.47s-.17-.3-.26-.45a3.77 3.77 0 0 0 -.26-.39l.58-.34c.16.25.34.54.52.87s.33.64.46.93zm2-4.86h-2.38v1.75h2.38zm3.12 5.6a.68.68 0 0 0 -.29.07 1 1 0 0 0 -.28.17l-.47.39-.39.3-.4.27-.48.31-.13-.17-.13-.12-.14-.1-.19-.12a6.7 6.7 0 0 0 1.21-.65 6.24 6.24 0 0 0 1.14-1l.3.23a1 1 0 0 0 .22.14c.13 0 .19.12.18.19a.13.13 0 0 1 -.1.09zm.19-7.5h-1.2-.85v-.73l.54.06h.61.71 1.72.67.55l.52-.06v.73c-.32 0-.69 0-1.13-.07s-.93 0-1.47 0c0 .15-.08.27-.11.37a2 2 0 0 1 -.08.26 1.52 1.52 0 0 1 -.09.25c0 .09-.08.2-.13.34h.74.69.59.38q0 .19 0 .48v.72 3.19.67s0 .4 0 .53h-.32-.42-.55-1.66-.61-.42-.31c0-.16 0-.35 0-.55s0-.43 0-.65v-3.19c0-.22 0-.45 0-.67s0-.4 0-.53l.53.06h.81a5.93 5.93 0 0 0 .29-1.21zm1.85 1.73h-2.84v1.15h2.84zm0 1.67h-2.84v1.09h2.84zm0 1.63h-2.84v1.07h2.84zm1.13 4-.55-.56-.43-.47-.52-.39c-.17-.12-.37-.25-.58-.37l.47-.41.58.39.52.36a5.93 5.93 0 0 1 .51.4l.56.47z" fill="#383736"/><path d="m611.42 107.92h-.83a2.73 2.73 0 0 1 .87-1.55 2.5 2.5 0 0 1 3.19.07 1.93 1.93 0 0 1 .69 1.49 1.85 1.85 0 0 1 -1.05 1.67 2.41 2.41 0 0 1 1.11.89 2.25 2.25 0 0 1 .39 1.28 2.51 2.51 0 0 1 -.79 1.86 2.73 2.73 0 0 1 -2 .78 2.6 2.6 0 0 1 -1.76-.61 3.08 3.08 0 0 1 -.92-1.78h.8a2.31 2.31 0 0 0 .66 1.2 1.87 1.87 0 0 0 1.27.39 1.93 1.93 0 0 0 1.38-.52 1.71 1.71 0 0 0 .55-1.3 1.5 1.5 0 0 0 -.61-1.25 3 3 0 0 0 -1.79-.49v-.75a2.25 2.25 0 0 0 1.37-.39 1.14 1.14 0 0 0 .53-1 1.26 1.26 0 0 0 -.42-1 1.52 1.52 0 0 0 -1-.38 1.42 1.42 0 0 0 -1 .33 2.59 2.59 0 0 0 -.64 1.06z" fill="#383736"/><path d="m616.78 106h1l2 3.19 2-3.19h.94l-2.44 4 2.6 4.21h-1l-2.13-3.42-2.12 3.42h-1l2.61-4.21z" fill="#383736"/><path d="m602.93 237.49a3.62 3.62 0 0 0 .32-.67 4 4 0 0 0 .17-.68 2.3 2.3 0 0 0 .42.12l.36.09a.18.18 0 0 1 .16.14.15.15 0 0 1 -.11.17.68.68 0 0 0 -.28.24 5.59 5.59 0 0 0 -.4.59h2.77.47a1.86 1.86 0 0 0 .36 0 2.47 2.47 0 0 0 .29-.06c0 .23-.07.43-.09.59s0 .37 0 .61v3a7 7 0 0 0 1.07-1.24l.36.28.28.21c.09.06.14.13.12.2a.15.15 0 0 1 -.14.13.7.7 0 0 0 -.23.08 1.5 1.5 0 0 0 -.34.21c-.13.09-.29.22-.47.37l-.65.56v3.11a1.71 1.71 0 0 1 -.08.54.7.7 0 0 1 -.31.4 2.32 2.32 0 0 1 -.72.24 8.39 8.39 0 0 1 -1.26.08 1.48 1.48 0 0 0 -.11-.51 1.35 1.35 0 0 0 -.31-.43 11.18 11.18 0 0 0 1.13.07 1.87 1.87 0 0 0 .61-.08.4.4 0 0 0 .26-.25 2 2 0 0 0 .05-.48v-2.12a14.67 14.67 0 0 1 -1.35.85c-.52.29-1.08.58-1.68.86s-1.23.56-1.88.82-1.29.51-1.93.72a3.13 3.13 0 0 0 -.2-.41 2.49 2.49 0 0 0 -.32-.43 13.89 13.89 0 0 0 1.73-.41 17.93 17.93 0 0 0 1.74-.61q.85-.36 1.65-.78a15.66 15.66 0 0 0 1.5-.9h-4.23c-.31 0-.59 0-.83 0s-.49 0-.76.07v-.7a6 6 0 0 0 .64.07h.62v-3.58a8.43 8.43 0 0 0 -.07-1.2 4.86 4.86 0 0 0 .65.09q.39.03 1.02.03zm3.68 1.53v-1h-4.55v1zm-4.55.45v1.07h4.55v-1.07zm0 1.57v1.11h4.55v-1.15z" fill="#383736"/><path d="m611.15 238c0-.27 0-.48 0-.64a3.06 3.06 0 0 0 -.06-.45 6.11 6.11 0 0 0 .73.06q.45 0 .93 0h1 .33.29a3.13 3.13 0 0 0 0 .43v.66 1.92a1.83 1.83 0 0 0 .34 0h.24v1.34h-.53v-.82h-3.34v1h-.56v-1.5h.3.36zm.66 8.58h-.64c0-.27 0-.49.05-.67s0-.39 0-.62v-2.8c0-.6 0-1 0-1.27h.56 1 1 .31.23v.24s0 .22 0 .34 0 .24 0 .36v3.43a1.25 1.25 0 0 1 -.06.42.47.47 0 0 1 -.19.27 1.07 1.07 0 0 1 -.4.16c-.17 0-.39 0-.66.07a1.76 1.76 0 0 0 0-.41.73.73 0 0 0 -.19-.34l.52.1a.57.57 0 0 0 .28 0 .23.23 0 0 0 .13-.17 1.62 1.62 0 0 0 0-.35v-.85h-1.88zm2-9.12h-2v2.47h.72v-1.6h1.33zm-.08 5.18v-.86h-1.88v.86zm-1.88.44v.9h1.88v-.9zm2-3.15v-1.15h-.85v1.15zm2.73 5.77c-.09-.16-.18-.32-.3-.5a7.1 7.1 0 0 0 -.43-.58l.57-.28c.13.2.26.43.4.67l.36.69h.9l.32-.49.21-.36a1.64 1.64 0 0 0 .16-.28l.13-.29a1.64 1.64 0 0 0 .62.33c.11 0 .17.07.17.14s-.07.11-.21.13h-.12a.64.64 0 0 0 -.15.12 1.82 1.82 0 0 0 -.23.24l-.32.42h1.19 1v.62h-.57-.64-3.64c-.45 0-.86 0-1.22.06v-.62l1 .06zm4-3.91h-.42-.58-.81-1.17-1.44c-.41 0-.8 0-1.16.06v-.61c.37 0 .77.05 1.17.06s.89 0 1.43 0h1.86s.8 0 1-.06zm-3.87-4.21c0-.32 0-.57 0-.74a2 2 0 0 0 0-.45 2.39 2.39 0 0 0 .75.08h.16s0 .08-.07.14a.49.49 0 0 0 -.12.13.43.43 0 0 0 -.06.17 1.45 1.45 0 0 0 0 .25v.38h.91v-.46a2.91 2.91 0 0 0 0-.31 2 2 0 0 1 0-.22 1.55 1.55 0 0 0 0-.21c.16 0 .31.06.43.08a1.8 1.8 0 0 0 .33 0h.16s0 .08-.08.14a.6.6 0 0 0 -.17.31 3.17 3.17 0 0 0 -.05.63h.93.31.32a5.69 5.69 0 0 0 0 .7v1.67.45a2.06 2.06 0 0 0 0 .39h-.41-4.25-.45c0-.11 0-.24 0-.4s0-.3 0-.43v-1.67c0-.14 0-.26 0-.37s0-.22 0-.33h.31.33.9zm1.15 4.7h1.75.46v.47s0 .37 0 .55 0 .36 0 .55 0 .33 0 .45h-.31-4-.41c0-.06 0-.12 0-.18a1.12 1.12 0 0 0 0-.2 1.84 1.84 0 0 0 0-.26v-.37c0-.18 0-.36 0-.55s0-.35 0-.47h.42 2.09zm-1.23-4.28h-1v.9h1zm0 1.31h-1v.95h1zm2.75 3.4h-3.48v1.07h3.48zm-2.2-3.81h.91v-.9h-.91zm0 1.36h.91v-.95h-.91zm1.46-1.36h1v-.9h-1zm0 1.36h1v-.95h-1z" fill="#383736"/><path d="m621.86 236.75h.95l2 3.18 2-3.18h.94l-2.43 4 2.59 4.21h-1l-2.13-3.43-2.13 3.43h-.95l2.6-4.21z" fill="#383736"/><path d="m46.83 14.45-.22.34-.28.4q-.15.21-.3.39l-.28.32-.46-.3c.14-.13.26-.24.36-.35a2.55 2.55 0 0 0 .27-.32 3 3 0 0 0 .23-.35c.07-.12.15-.26.23-.42zm2.39-.95h1.87l1.4-.05v.55h-.7-.81-.95-2.25-.94-.8-.7v-.54h.67.76.89 1.05v-.89h-1.47-1.12v-.5h1.11 1.48v-.8h-1.5-.58-.51v-.32c0-.1 0-.2 0-.32s0-.22 0-.35v-.42c0-.33 0-.6 0-.81s0-.44-.05-.66h.55 4.64.56v.66s0 .49 0 .81v.43.34s0 .21 0 .32v.31h-.52-2.08v.8h1.49 1.12v.5h-1.12-1.49zm-.51-4.45h-2v2h2zm-.78 1.74a7.22 7.22 0 0 0 -.4-.72 3.52 3.52 0 0 0 -.41-.51l.4-.28a6.26 6.26 0 0 1 .46.59c.14.2.28.44.43.7zm.31 4.92a6.93 6.93 0 0 0 -.24-.71 2.55 2.55 0 0 0 -.37-.61l.44-.21q.16.26.36.6a7.29 7.29 0 0 1 .34.69zm1-4.69h2.1v-2h-2.1zm.92 4.58c-.06-.13-.11-.23-.15-.33l-.17-.27a2 2 0 0 0 -.18-.25c-.06-.09-.15-.19-.24-.31l.41-.25c.16.2.3.4.44.6s.25.4.35.58zm.77-6a1.1 1.1 0 0 0 -.16.15l-.2.23-.27.35c-.1.15-.22.32-.35.53l-.43-.25a5.2 5.2 0 0 0 .48-.67c.15-.22.29-.44.42-.67zm1.28 6.21a3.37 3.37 0 0 0 -.21-.34 2.86 2.86 0 0 0 -.22-.3c-.07-.1-.17-.21-.27-.33l-.37-.4.36-.3c.26.25.48.48.67.7s.36.41.51.61z" fill="#383736"/><path d="m55.07 14.29c0 .12-.1.26-.17.4s-.13.29-.2.43-.14.28-.21.4-.14.22-.19.29l-.56-.2a7.48 7.48 0 0 0 .5-.69 2.75 2.75 0 0 0 .34-.78zm1.75-4.62-.23-.26-.24-.23.32-.3.32.33.25.27.23.27.25.33-.37.29-.13-.19-.13-.18-2.26.15h-.48a1.39 1.39 0 0 0 -.33.06 1.23 1.23 0 0 0 -.17-.53h.41l.44-.41a3.91 3.91 0 0 0 .35-.27c.11-.12.21-.24.31-.37l.29-.42a1.62 1.62 0 0 0 .47.3c.12.06.12.1 0 .15l-.17.1-.23.18c-.1.09-.22.19-.36.33l-.52.5zm-2.06 4.18h-.56c0-.17 0-.32 0-.45s0-.25 0-.36 0-.2 0-.3a2.71 2.71 0 0 0 0-.29v-1.1c0-.2 0-.36 0-.48a1.34 1.34 0 0 0 -.05-.35h.29.4 1.23.41.41.35a2.5 2.5 0 0 0 -.06.38 3 3 0 0 0 0 .45v1.82a1.49 1.49 0 0 1 0 .33.48.48 0 0 1 -.17.21 1 1 0 0 1 -.37.11 3.37 3.37 0 0 1 -.61 0 1.78 1.78 0 0 0 0-.26.87.87 0 0 0 -.15-.25 3.23 3.23 0 0 0 .49 0 .65.65 0 0 0 .27-.05.18.18 0 0 0 .12-.15.78.78 0 0 0 0-.24v-.28h-2zm2-2.37v-.48h-2v.52zm-2 .34v.49h2v-.49zm1.64 4q-.07-.37-.18-.75a6.56 6.56 0 0 0 -.24-.71l.47-.11c0 .09.07.19.12.32l.12.4c0 .15.08.28.11.42s.06.25.08.35zm1.82-.17c0-.11-.07-.24-.12-.38s-.1-.27-.16-.39-.11-.25-.16-.36l-.15-.25.43-.18a6.18 6.18 0 0 1 .3.58c.11.21.23.48.37.81zm.2-3.53a11.28 11.28 0 0 0 1.22-.34 3.1 3.1 0 0 0 .73-.36 1.64 1.64 0 0 0 .14.22 1.15 1.15 0 0 0 .14.17c.08.07.11.13.09.19s-.08.07-.2 0h-.19l-.35.06-.61.14-1 .25v.45a.69.69 0 0 0 0 .22.29.29 0 0 0 .12.13.9.9 0 0 0 .28.06h.51a5.31 5.31 0 0 0 .67 0 .9.9 0 0 0 .38-.12.55.55 0 0 0 .19-.26 4.38 4.38 0 0 0 .11-.43.7.7 0 0 0 .23.2.8.8 0 0 0 .26.09 2.35 2.35 0 0 1 -.23.52.75.75 0 0 1 -.31.3 1.41 1.41 0 0 1 -.52.13h-.84a7.2 7.2 0 0 1 -.75 0 .74.74 0 0 1 -.41-.12.41.41 0 0 1 -.17-.28 3.75 3.75 0 0 1 0-.54v-1c0-.15 0-.28 0-.38s0-.22 0-.35a2.27 2.27 0 0 0 .63.08c.08 0 .13 0 .14.06s0 .1-.1.15a.61.61 0 0 0 -.14.44zm0-2.65.68-.16.49-.15a2 2 0 0 0 .41-.16l.3-.17a1.49 1.49 0 0 0 .14.24 1 1 0 0 0 .16.18c.07.07.1.13.08.17s-.08.06-.18 0h-.22-.34l-.58.12-.9.21v.24a.69.69 0 0 0 0 .22.24.24 0 0 0 .12.14.72.72 0 0 0 .28.08h.5a4.51 4.51 0 0 0 .58 0 .85.85 0 0 0 .36-.12.52.52 0 0 0 .2-.24 1.73 1.73 0 0 0 .12-.4.58.58 0 0 0 .19.19.71.71 0 0 0 .28.09c-.09.18-.17.34-.24.46a.77.77 0 0 1 -.3.27 1.57 1.57 0 0 1 -.47.13 7.48 7.48 0 0 1 -.75 0h-.75a.83.83 0 0 1 -.41-.12.43.43 0 0 1 -.17-.29 3.54 3.54 0 0 1 0-.52v-.8c0-.15 0-.27 0-.37s0-.21 0-.34a1 1 0 0 0 .28.05h.33.13s0 .08-.09.14a.32.32 0 0 0 -.11.19 1.19 1.19 0 0 0 0 .29zm2 6.26a8.62 8.62 0 0 0 -.51-.79 8.2 8.2 0 0 0 -.6-.75l.38-.25q.28.3.6.69c.2.27.4.54.59.82z" fill="#383736"/><path d="m64.88 10.73h.56.32v.58h-.32-.56-1.36v3.48l1-.41c.34-.14.66-.29 1-.44a2.16 2.16 0 0 0 0 .28c0 .07 0 .16.06.25l-.88.35c-.29.12-.57.23-.83.35l-.73.34c-.22.11-.42.21-.57.3a2.31 2.31 0 0 0 -.32-.6l.36-.11.37-.12v-5.66c0-.22 0-.4 0-.56s0-.3 0-.43l.37.06h.31q.15 0 .15.06s0 .08-.11.12a.26.26 0 0 0 -.11.14 1 1 0 0 0 0 .29v1.71zm2 .46.73-.32a5.92 5.92 0 0 0 .56-.27c.16-.08.31-.17.44-.25l.39-.25a3.4 3.4 0 0 0 .2.31 1.44 1.44 0 0 0 .19.22c.07.06.09.11.08.14s-.08.05-.17 0a.69.69 0 0 0 -.18 0 2.44 2.44 0 0 0 -.37.11l-.7.26-1.15.47v2.83a2.28 2.28 0 0 0 0 .31.27.27 0 0 0 .1.25.75.75 0 0 0 .31.07 4.29 4.29 0 0 0 .56 0 3.09 3.09 0 0 0 .58 0 .66.66 0 0 0 .35-.15.64.64 0 0 0 .17-.34 2.16 2.16 0 0 0 .06-.57 1.1 1.1 0 0 0 .3.21.9.9 0 0 0 .33.09 2.77 2.77 0 0 1 -.19.66 1 1 0 0 1 -.31.39 1.11 1.11 0 0 1 -.5.19 5.41 5.41 0 0 1 -.77.05c-.36 0-.64 0-.85 0a1.28 1.28 0 0 1 -.48-.12.42.42 0 0 1 -.2-.28 3.08 3.08 0 0 1 0-.51v-5.57c0-.24 0-.43 0-.58s0-.26 0-.36l.37.05h.27c.07 0 .11 0 .11.06s0 .07-.1.12a.26.26 0 0 0 -.1.18 1.51 1.51 0 0 0 0 .32z" fill="#383736"/><path d="m71.84 10.69-.33.63q-.17.3-.36.6a.75.75 0 0 0 -.24-.21l-.26-.1a5.93 5.93 0 0 0 .54-.78c.17-.28.33-.58.48-.89a9.9 9.9 0 0 0 .38-.94c.11-.32.2-.63.28-.94a1 1 0 0 0 .25.12 1 1 0 0 0 .26.05c.1 0 .15 0 .16.06s0 .07-.09.12a.32.32 0 0 0 -.09.08 1.18 1.18 0 0 0 -.11.18c0 .08-.09.19-.15.34a6.17 6.17 0 0 0 -.24.57v6.28h-.57c0-.24 0-.5.07-.78s0-.57 0-.87zm2.08-1.41h-.52a4.77 4.77 0 0 0 -.5 0v-.48h.37.36 1.73.37.38v.54h-.38-.36-1a6.72 6.72 0 0 1 -.28 1.46h1 .33.35c-.06.48-.12.92-.19 1.3a9.67 9.67 0 0 1 -.24 1 5.19 5.19 0 0 1 -.33.82 4.1 4.1 0 0 1 -.45.69 4.89 4.89 0 0 1 -.59.62c-.22.2-.48.4-.76.62a.66.66 0 0 0 -.2-.25.65.65 0 0 0 -.3-.13 5.39 5.39 0 0 0 1.14-.82 3.74 3.74 0 0 0 .78-1.07c-.19-.19-.38-.37-.58-.54a5.86 5.86 0 0 0 -.6-.45l.29-.39a11.14 11.14 0 0 1 1.08.94 9 9 0 0 0 .26-.87c.07-.32.12-.66.17-1h-1.25a6.28 6.28 0 0 1 -.37.79 6.41 6.41 0 0 1 -.51.77.82.82 0 0 0 -.48-.29 4.59 4.59 0 0 0 .49-.6 3.73 3.73 0 0 0 .38-.68 5.79 5.79 0 0 0 .26-.83 10.32 10.32 0 0 0 .15-1.15zm4.29-.74a.23.23 0 0 0 -.11.23v6.23a1.37 1.37 0 0 1 0 .39.47.47 0 0 1 -.21.26 1.48 1.48 0 0 1 -.49.16 7.34 7.34 0 0 1 -.87.09 1.15 1.15 0 0 0 0-.2.41.41 0 0 0 0-.16.91.91 0 0 0 -.07-.14.79.79 0 0 0 -.13-.14 5.45 5.45 0 0 0 .76 0 1.11 1.11 0 0 0 .41-.05.24.24 0 0 0 .18-.14.69.69 0 0 0 0-.22v-5.16c0-.3 0-.58 0-.83a4.55 4.55 0 0 0 0-.56l.3.06h.29c.08 0 .13 0 .14.06a.1.1 0 0 1 -.2.12zm-1.27 1.46a.26.26 0 0 0 -.09.23v2.5.35.37.34h-.59c0-.11 0-.22 0-.34s0-.25 0-.37 0-.24 0-.35v-1.81c0-.21 0-.42 0-.64s0-.37 0-.49l.31.06a1.34 1.34 0 0 0 .28 0h.12s.03.15-.03.15z" fill="#383736"/><path d="m81.79 9.45h-1.33-1v-.52h.47.52 5.32c.38 0 .72 0 1-.05v.58h-1-2.12c-.06.11-.11.23-.17.34a3.24 3.24 0 0 1 -.17.32v4.43.65s0 .41.06.62h-.67c0-.22 0-.43.06-.62s0-.41 0-.65v-3.55a7.34 7.34 0 0 1 -.56.69 7.06 7.06 0 0 1 -.68.65c-.25.21-.53.42-.84.64l-1 .67a.83.83 0 0 0 -.2-.3 1.48 1.48 0 0 0 -.29-.24c.51-.26 1-.52 1.37-.78a9.66 9.66 0 0 0 1.07-.82 5.47 5.47 0 0 0 .82-.93 6.36 6.36 0 0 0 .63-1.08zm4.45 4.21a16.65 16.65 0 0 0 -1.1-1.25 15.71 15.71 0 0 0 -1.31-1.2l.42-.4c.54.46 1 .88 1.4 1.28s.75.78 1.06 1.14z" fill="#383736"/><path d="m89 11-.47.65c-.17.22-.31.41-.44.55a1.24 1.24 0 0 0 -.23-.23.7.7 0 0 0 -.3-.13l.36-.31.32-.35c.11-.14.22-.29.33-.46l.39-.62c.12-.18.22-.36.31-.52s.17-.33.24-.48.12-.32.17-.47.1-.32.15-.5a1.77 1.77 0 0 0 .29.16 1.07 1.07 0 0 0 .27.08.17.17 0 0 1 .15.09c0 .05 0 .09-.1.12a.35.35 0 0 0 -.1.08 1 1 0 0 0 -.15.21l-.25.45-.41.8v5.69h-.63c0-.23 0-.51.07-.81s0-.61 0-.92zm4.12.75h.78.63.48.4v.59h-.41-.49-.62-.77v2.61h.75.57.45.37v.59c-.13 0-.27 0-.41 0h-.49-.64-1.72-.62-.45c-.13 0-.26 0-.38 0v-.59h.35.42.55.75v-2.79h-.78-.62-.49-.41v-.59h.4.48.62.8v-2.04l-.85.08-.85.06a.62.62 0 0 0 0-.28.8.8 0 0 0 -.16-.25 14.35 14.35 0 0 0 2.1-.07 6.37 6.37 0 0 0 1.73-.41 2.73 2.73 0 0 0 .13.25l.15.2c.08.07.11.14.09.18s-.09.06-.18 0a.82.82 0 0 0 -.28 0 3.24 3.24 0 0 0 -.44.07h-.34c-.15 0-.33.05-.53.07z" fill="#383736"/><path d="m100.65 10.28a5.09 5.09 0 0 0 .34-.53 1.85 1.85 0 0 0 .17-.46h-3.26-.44-.51v-.41a4.68 4.68 0 0 0 .55 0h.64 1.65a2.62 2.62 0 0 0 -.23-.32c-.09-.1-.2-.23-.35-.37l.43-.19c.15.19.28.37.38.51l.28.46h1.51.6a5.07 5.07 0 0 0 .55 0v.48h-.79c-.27 0-.58 0-.94 0l.26.15a1 1 0 0 0 .25.08c.05 0 .07 0 .07.06s0 .06-.07.08a.59.59 0 0 0 -.25.18c-.08.09-.19.23-.34.43h1.55.53.47v.47h-.51-.7-5.06-.71-.5v-.47h.47.57 1.29a1.41 1.41 0 0 0 -.21-.31c-.08-.1-.19-.22-.34-.38l.36-.25.22.26.17.22.16.21a3 3 0 0 0 .18.25zm-2.89 3.65-.27.51c-.08.16-.16.3-.24.43a2.45 2.45 0 0 1 -.24.38c-.08.13-.17.25-.26.37l-.51-.27a6.87 6.87 0 0 0 .6-.79 4.39 4.39 0 0 0 .46-.86zm4.72-.55h-.4-4.23-.4a1.46 1.46 0 0 0 .06-.23c0-.11 0-.21 0-.32v-1.28c0-.1 0-.22 0-.33a1.3 1.3 0 0 0 -.06-.25h.4 4.24.39a.82.82 0 0 0 -.06.25v.33 1.28.32a.83.83 0 0 0 .06.23zm-.58-1.38v-.62h-3.9v.62zm-3.9.37v.63h3.89v-.6zm4.18 2.17a4.26 4.26 0 0 1 -.16.57.87.87 0 0 1 -.18.32.69.69 0 0 1 -.28.15 1.89 1.89 0 0 1 -.41.06c-.42 0-.79 0-1.14 0s-.66 0-1 0a3.18 3.18 0 0 1 -.44-.05.49.49 0 0 1 -.23-.11.3.3 0 0 1 -.1-.21 1.67 1.67 0 0 1 0-.34v-.8c0-.13 0-.23 0-.3v-.19h.29.27.14s0 .09-.07.14a.77.77 0 0 0 -.09.13.78.78 0 0 0 0 .16v.72a.31.31 0 0 0 .12.24.55.55 0 0 0 .33.12h.51.4.36.36a1.78 1.78 0 0 0 .39-.06.36.36 0 0 0 .22-.13.61.61 0 0 0 .12-.28 2.47 2.47 0 0 0 .07-.49 1.46 1.46 0 0 0 .27.17 1.16 1.16 0 0 0 .26.18zm-1.74.22c-.06-.1-.12-.2-.18-.28l-.2-.25c-.07-.07-.14-.15-.23-.23l-.27-.24.35-.31.52.51c.15.15.29.31.45.48zm2.84.53a7.13 7.13 0 0 0 -.55-.71 6.65 6.65 0 0 0 -.76-.71l.35-.35c.35.3.62.56.83.78a7.82 7.82 0 0 1 .56.65z" fill="#383736"/><path d="m105.51 12.08a4.2 4.2 0 0 1 -.32 1.41l-.45-.1a1.8 1.8 0 0 0 .27-.61 4.82 4.82 0 0 0 .14-.74zm-.41-2.2c.11-.15.2-.3.29-.42l.23-.38.2-.37.2-.42a1.4 1.4 0 0 0 .43.21c.07 0 .1 0 .1.08s0 .06-.11.07a.42.42 0 0 0 -.19.17l-.36.51-.42.56h.88a2.68 2.68 0 0 0 .25-.37 2.18 2.18 0 0 0 .15-.33.76.76 0 0 0 .23.17 1.23 1.23 0 0 0 .26.12v-.43a2.36 2.36 0 0 0 .29 0h.31.59a4.2 4.2 0 0 0 -.24-.38c-.08-.11-.18-.24-.29-.37l.46-.26.26.49.23.52h.56a2.82 2.82 0 0 0 .43 0v.44a4.15 4.15 0 0 0 -.54-.05h-1.5a4.34 4.34 0 0 0 -.53.05s0 .07-.09.1a.3.3 0 0 0 -.14.08.7.7 0 0 0 -.14.15c-.3.36-.54.64-.74.86l-.51.58h.6.42a2.18 2.18 0 0 0 -.24-.42l.31-.14c.12.17.23.35.34.54a4.88 4.88 0 0 1 .25.53l-.36.18-.06-.19-.09-.22-1.15.11a4.31 4.31 0 0 0 -.69.17.79.79 0 0 0 -.06-.22.71.71 0 0 0 -.11-.21h.38l.26-.28a2.85 2.85 0 0 0 .23-.26l.22-.27.25-.31h-.57a3.55 3.55 0 0 0 -.66.1.73.73 0 0 0 0-.2.72.72 0 0 0 -.1-.22h.33zm1.77 3.12a3.32 3.32 0 0 0 -.14-.49c-.07-.16-.16-.33-.25-.51l.31-.13a4.27 4.27 0 0 1 .27.51 3.39 3.39 0 0 1 .17.51 1 1 0 0 0 .17.18 1.83 1.83 0 0 0 .22.13c.07 0 .1.07.09.1s-.06.06-.14.07h-.11l-.18.1h3.84.18.18v.47h-.19-1c-.22.21-.44.41-.65.58a4.28 4.28 0 0 1 -.68.46 6.55 6.55 0 0 0 1.49.28 13 13 0 0 0 1.67 0 .63.63 0 0 0 -.18.24 1.26 1.26 0 0 0 0 .32 19 19 0 0 1 -2-.26 8.25 8.25 0 0 1 -1.42-.38 7.81 7.81 0 0 1 -1.53.46 16.89 16.89 0 0 1 -1.87.26.89.89 0 0 0 -.11-.3.8.8 0 0 0 -.19-.23h1c.31 0 .59 0 .84-.07l.68-.13.61-.19a3.61 3.61 0 0 1 -.68-.44 6.18 6.18 0 0 1 -.61-.55q-.31.22-.69.45c-.26.16-.5.29-.74.41a.91.91 0 0 0 -.15-.23 1.19 1.19 0 0 0 -.28-.21 6.78 6.78 0 0 0 .85-.33 6.6 6.6 0 0 0 .94-.55 3.55 3.55 0 0 0 .35-.27 1.93 1.93 0 0 0 .27-.3zm-.88.15a2.27 2.27 0 0 0 0-.52 3.58 3.58 0 0 0 -.14-.54l.34-.08a5.12 5.12 0 0 1 .15.56 3.24 3.24 0 0 1 .07.52zm1.13.73a5.49 5.49 0 0 0 .57.44 4.88 4.88 0 0 0 .74.42 5 5 0 0 0 1.31-.86zm2.38-.88h-1.88-.2c0-.13 0-.26 0-.37s0-.24 0-.35 0-.24 0-.36 0-.24 0-.38h.2 1.67a1.77 1.77 0 0 0 .21 0v.74.35c-.01.11-.01.23 0 .37zm0-1.88h-.43-1.24-.4v-.42a2.67 2.67 0 0 0 .42 0h.61.61.43zm0-.87h-.43-1.17-.43v-.4h.21 1.6.22zm-.4 1.7h-1.21v.68h1.21zm1.19.06v.33s0 .25-.08.38-.07.24-.1.34a2.22 2.22 0 0 1 -.11.25l-.42-.16a1.44 1.44 0 0 0 .13-.23 2.24 2.24 0 0 0 .11-.31 3.38 3.38 0 0 0 .08-.34c0-.12 0-.23 0-.34zm-.29-2.17a3 3 0 0 0 .22-.28l.21-.3.24-.38.29-.51.2.15a.71.71 0 0 0 .19.08.14.14 0 0 1 .1.08s0 .07-.11.08a.67.67 0 0 0 -.12.06.79.79 0 0 0 -.13.13c-.15.19-.28.37-.41.52l-.31.38h.85l.21-.29.17-.28.2.14a.91.91 0 0 0 .22.11s.08.05.07.08 0 .07-.12.09a.26.26 0 0 0 -.13.06l-.09.08c-.27.32-.52.6-.74.84s-.42.44-.58.59c.4 0 .77 0 1.1-.07a2.14 2.14 0 0 0 -.28-.39l.31-.19c.11.14.23.3.36.49a3.06 3.06 0 0 1 .32.52l-.38.2a1.39 1.39 0 0 0 -.17-.35l-1.06.12-.48.06-.34.08a1.55 1.55 0 0 0 0-.21 1.33 1.33 0 0 0 -.1-.23h.29l.29-.31.26-.27c.08-.08.15-.17.22-.25l.23-.27h-.37-.41a1.9 1.9 0 0 0 -.36.09 1.4 1.4 0 0 0 -.06-.24c0-.09-.06-.16-.09-.23zm.8 3.27a2.69 2.69 0 0 0 0-.55 3.16 3.16 0 0 0 -.14-.55l.35-.07a5.12 5.12 0 0 1 .15.56 3.45 3.45 0 0 1 .07.55zm1-.12a3.59 3.59 0 0 0 -.14-.48 4.51 4.51 0 0 0 -.26-.57l.32-.16a4.25 4.25 0 0 1 .29.55 2.43 2.43 0 0 1 .18.49z" fill="#383736"/><path d="m114.33 9.17h-.49a2.72 2.72 0 0 0 -.42 0v-.49l.88.05h1.17 1.18c.35 0 .64 0 .87-.05v.55l-.44-.05h-.51v2.42h.65.25.28v.57h-.26-.26-.3-.36v2.21.72s0 .48.06.74h-.63c0-.26.05-.5.06-.73s0-.48 0-.73v-2.33h-1.24a10 10 0 0 1 -.06 1.13 6.84 6.84 0 0 1 -.18 1 5.81 5.81 0 0 1 -.3.86 5 5 0 0 1 -.43.78 1 1 0 0 0 -.25-.2.92.92 0 0 0 -.34-.12 2.94 2.94 0 0 0 .8-1.38 8.18 8.18 0 0 0 .26-2h-.65-.53v-.57h.26.27.29.36zm.5 0v2.43h1.24v-2.44zm5.84 3.91q.14 0 .12.12s-.05.08-.13.11a.56.56 0 0 0 -.23.16l-.39.41a5.54 5.54 0 0 1 -1.18 1 7.45 7.45 0 0 1 -1.52.77.91.91 0 0 0 -.17-.23 1.23 1.23 0 0 0 -.29-.24 5.83 5.83 0 0 0 2.11-1 4.11 4.11 0 0 0 1.22-1.52 1.36 1.36 0 0 0 .24.24.8.8 0 0 0 .22.17zm-.26-4.36a.81.81 0 0 0 -.28.14 1.54 1.54 0 0 0 -.31.27 5.63 5.63 0 0 1 -.4.43l-.4.38a4.82 4.82 0 0 1 -.43.36l-.49.37a1.34 1.34 0 0 0 -.2-.21 2.35 2.35 0 0 0 -.29-.16 4.55 4.55 0 0 0 1.44-1 4.73 4.73 0 0 0 .85-1.18 1.64 1.64 0 0 0 .25.23 1.75 1.75 0 0 0 .27.16c.08 0 .12.09.11.14s-.04.05-.12.06zm.1 2.42a.57.57 0 0 0 -.25.1 2.59 2.59 0 0 0 -.33.26l-.52.48-.43.36c-.13.1-.27.21-.41.3l-.49.32a1.33 1.33 0 0 0 -.47-.4c.32-.16.6-.31.85-.46a4.21 4.21 0 0 0 .65-.48 5 5 0 0 0 .51-.52 4.78 4.78 0 0 0 .41-.59 3 3 0 0 0 .24.25 1.34 1.34 0 0 0 .26.19c.06.05.09.09.08.12s-.04.05-.1.06z" fill="#383736"/><path d="m35.39 3.39-16.66 16.66" fill="none" stroke="#e60012" stroke-linecap="round" stroke-linejoin="round" stroke-width="1.45"/><path d="m18.73 3.39 16.66 16.66" fill="none" stroke="#e60012" stroke-linecap="round" stroke-linejoin="round" stroke-width="1.45"/><path d="m18.21 2.75h17.74v17.74h-17.74z" fill="none" stroke="#363736" stroke-width=".25"/><path d="m413.85 2.51h17.74v17.74h-17.74z" fill="none" stroke="#363736" stroke-width=".25"/><path d="m438.07 14.21-.22.34c-.08.13-.18.26-.28.4l-.3.39a3 3 0 0 1 -.28.31l-.46-.3.37-.34a3.92 3.92 0 0 0 .27-.33c.08-.1.15-.22.23-.34s.14-.26.22-.42zm2.4-1h1.87l1.4-.05v.53h-.71-.8-4.14-.8-.71v-.53h.68.76 1.98v-.9h-1.48c-.41 0-.78 0-1.12 0v-.49h1.12 1.48v-.8h-2.08-.52c0-.1 0-.21 0-.31s0-.21 0-.32 0-.23 0-.35v-.18c0-.32 0-.59 0-.81s0-.44-.05-.66h.56 4.64.55v.67s0 .49 0 .8v.44.34s0 .21 0 .31 0 .21 0 .32h-.52-.58-1.54v.78h1.54 1.12v.49c-.34 0-.71 0-1.12 0h-1.49zm-.47-4.41h-2v2h2zm-.78 1.74a6.81 6.81 0 0 0 -.41-.71 4.44 4.44 0 0 0 -.4-.52l.4-.27a6.55 6.55 0 0 1 .45.59c.14.2.28.43.43.69zm.3 4.93a4.12 4.12 0 0 0 -.24-.67 2.48 2.48 0 0 0 -.37-.61l.43-.21a4.92 4.92 0 0 1 .37.6 7.33 7.33 0 0 1 .34.69zm1-4.7h2.1v-2h-2.1zm.92 4.58-.16-.32a1.71 1.71 0 0 0 -.14-.27 2 2 0 0 0 -.18-.26l-.25-.3.42-.26c.15.2.3.4.43.61a4.63 4.63 0 0 1 .35.57zm.76-6-.16.15-.19.23-.27.36-.36.53-.42-.26a6.1 6.1 0 0 0 .52-.62 5.43 5.43 0 0 0 .42-.68zm1.28 6.22c-.07-.13-.14-.24-.2-.34l-.22-.3-.28-.33c-.1-.12-.23-.25-.37-.4l.37-.3c.25.25.48.48.67.69s.35.42.5.62z" fill="#383736"/><path d="m446.32 14.05c-.05.12-.1.26-.17.4s-.13.29-.2.43-.15.27-.22.39a2.28 2.28 0 0 1 -.19.3l-.55-.21a5.41 5.41 0 0 0 .49-.69 2.75 2.75 0 0 0 .34-.78zm1.75-4.63-.24-.25a1.75 1.75 0 0 0 -.24-.23l.32-.31.33.33.25.28.22.27c.08.09.16.2.26.33l-.38.29-.12-.19c0-.06-.09-.12-.13-.19l-2.26.16h-.49l-.33.07a1.11 1.11 0 0 0 -.17-.54h.42l.44-.41.35-.37a3.37 3.37 0 0 0 .3-.36c.09-.13.19-.27.29-.43a1.86 1.86 0 0 0 .48.31c.11 0 .11.1 0 .14l-.17.1-.24.19-.35.32-.52.51zm-2.07 4.18h-.56c0-.17 0-.32.05-.45s0-.24 0-.35 0-.2 0-.3v-1.4c0-.19 0-.35 0-.48a2.14 2.14 0 0 0 -.06-.35h.3.39.44 1.21.4.35a2.71 2.71 0 0 0 -.06.38v.45 1.82a1.06 1.06 0 0 1 0 .33.35.35 0 0 1 -.17.21.76.76 0 0 1 -.36.12 5.11 5.11 0 0 1 -.62 0 .93.93 0 0 0 0-.25.84.84 0 0 0 -.14-.26 3.28 3.28 0 0 0 .48 0 .55.55 0 0 0 .28-.06.24.24 0 0 0 .12-.14.9.9 0 0 0 0-.25v-.28h-2zm2-2.37v-.52h-2v.52zm-2 .34v.5h2v-.5zm1.63 4a6.91 6.91 0 0 0 -.17-.76 6.37 6.37 0 0 0 -.24-.7l.46-.11a2.2 2.2 0 0 1 .12.32 3.76 3.76 0 0 1 .13.4c0 .14.08.28.11.42s.06.25.08.35zm1.83-.17c0-.12-.08-.25-.12-.38s-.1-.27-.16-.4-.11-.24-.17-.35a1.09 1.09 0 0 0 -.15-.25l.44-.18.3.57.36.81zm.19-3.54a9.36 9.36 0 0 0 1.22-.34 2.62 2.62 0 0 0 .73-.35 1.91 1.91 0 0 0 .14.21l.15.18c.07.07.1.13.08.18s-.08.07-.19.06h-.2l-.34.06-.61.14-1 .25v.45a.58.58 0 0 0 0 .21.24.24 0 0 0 .13.13.78.78 0 0 0 .28.06 3.56 3.56 0 0 0 .51 0 5.94 5.94 0 0 0 .67 0 .84.84 0 0 0 .37-.13.52.52 0 0 0 .2-.26 4 4 0 0 0 .1-.43.79.79 0 0 0 .24.21.73.73 0 0 0 .25.08 2.49 2.49 0 0 1 -.22.53.77.77 0 0 1 -.32.3 1.37 1.37 0 0 1 -.52.12q-.31 0-.84 0h-.75a.77.77 0 0 1 -.41-.12.47.47 0 0 1 -.17-.29 3.6 3.6 0 0 1 0-.53v-1c0-.14 0-.27 0-.38s0-.22 0-.34a2.59 2.59 0 0 0 .63.08c.08 0 .12 0 .13.06s0 .09-.09.15a.55.55 0 0 0 -.15.43zm0-2.65.67-.15.49-.15.37-.15a3.14 3.14 0 0 0 .31-.18 1.41 1.41 0 0 0 .13.24l.16.19c.08.07.11.12.09.16s-.08.06-.19 0h-.21a1.77 1.77 0 0 0 -.35 0l-.57.11-.9.22v.3a.71.71 0 0 0 0 .23.19.19 0 0 0 .11.14.88.88 0 0 0 .28.07 3.56 3.56 0 0 0 .51 0 4.24 4.24 0 0 0 .57 0 .85.85 0 0 0 .36-.12.55.55 0 0 0 .21-.24 2 2 0 0 0 .11-.4.46.46 0 0 0 .2.19.66.66 0 0 0 .27.09 2.76 2.76 0 0 1 -.24.46.75.75 0 0 1 -.29.27 1.19 1.19 0 0 1 -.47.13 7.25 7.25 0 0 1 -.76 0 7.48 7.48 0 0 1 -.75 0 .8.8 0 0 1 -.4-.11.46.46 0 0 1 -.17-.29 2.53 2.53 0 0 1 0-.53v-.86c0-.14 0-.26 0-.36a2.24 2.24 0 0 0 0-.34 1 1 0 0 0 .29 0h.32.14s0 .08-.1.14a.4.4 0 0 0 -.11.18 1.23 1.23 0 0 0 0 .29zm2 6.27a8.69 8.69 0 0 0 -.51-.8 6.86 6.86 0 0 0 -.6-.74l.37-.26c.19.2.39.43.6.7s.4.54.59.82z" fill="#383736"/><path d="m456.12 10.48h.57.31v.52h-.31-1.92v3.48l1-.41c.34-.14.67-.29 1-.44a2 2 0 0 0 0 .27c0 .08 0 .16.07.25l-.88.35-.83.36-.73.34-.58.3a2.34 2.34 0 0 0 -.31-.61l.35-.1.38-.13v-5.59c0-.21 0-.4 0-.55s0-.3 0-.43a3.06 3.06 0 0 0 .36.05h.32c.09 0 .14 0 .15.07s0 .08-.12.12a.23.23 0 0 0 -.11.14 1.11 1.11 0 0 0 0 .29v1.7zm2 .46c.28-.11.53-.21.73-.31l.57-.27c.16-.09.31-.17.43-.25l.37-.25.21.31a1.3 1.3 0 0 0 .18.21c.07.07.1.11.08.15s-.07 0-.16 0h-.18l-.38.11-.7.27-1.15.47v2.82a1.33 1.33 0 0 0 0 .32.23.23 0 0 0 .13.17.68.68 0 0 0 .3.08h.56a3.09 3.09 0 0 0 .58 0 .76.76 0 0 0 .35-.15.65.65 0 0 0 .18-.34 3.84 3.84 0 0 0 .06-.58 1 1 0 0 0 .63.31 3.33 3.33 0 0 1 -.19.66 1 1 0 0 1 -.32.39 1.34 1.34 0 0 1 -.5.19 5.35 5.35 0 0 1 -.76 0h-.86a1.18 1.18 0 0 1 -.47-.12.41.41 0 0 1 -.2-.28 2.39 2.39 0 0 1 0-.51v-5.46c0-.24 0-.43 0-.58a1.9 1.9 0 0 0 0-.37l.37.05h.32.12s0 .08-.11.12a.31.31 0 0 0 -.1.19 1.48 1.48 0 0 0 0 .31z" fill="#383736"/><path d="m463.09 10.44c-.11.23-.22.44-.33.64s-.23.4-.36.59a.85.85 0 0 0 -.24-.2.93.93 0 0 0 -.26-.1 5.93 5.93 0 0 0 .54-.78 9.42 9.42 0 0 0 .47-.89 8.55 8.55 0 0 0 .38-.95c.11-.32.21-.64.28-.94a1.23 1.23 0 0 0 .26.12l.26.05q.15 0 .15.06s0 .07-.08.12a.22.22 0 0 0 -.09.08.71.71 0 0 0 -.11.17c0 .09-.1.2-.16.34l-.24.58v6.28h-.56c0-.24.05-.5.07-.78s0-.57 0-.88zm2.07-1.44h-.51-.51v-.45h.38.36 1.73.36.38v.55h-.38-.35-1a7.11 7.11 0 0 1 -.28 1.46h1.36.35c-.05.49-.12.92-.18 1.3a8.19 8.19 0 0 1 -.25 1 4.68 4.68 0 0 1 -.33.82 4.05 4.05 0 0 1 -.44.69 5 5 0 0 1 -.6.62c-.22.19-.47.4-.76.62a.7.7 0 0 0 -.19-.26 1 1 0 0 0 -.31-.13 5.74 5.74 0 0 0 1.14-.81 3.88 3.88 0 0 0 .78-1.07 7.33 7.33 0 0 0 -.57-.55 5 5 0 0 0 -.61-.45l.29-.39a12.77 12.77 0 0 1 1.09.94 6 6 0 0 0 .25-.87 8.85 8.85 0 0 0 .17-1h-1.33a6.48 6.48 0 0 1 -.38.8 5.24 5.24 0 0 1 -.5.76.85.85 0 0 0 -.49-.28 6.62 6.62 0 0 0 .5-.6 3.78 3.78 0 0 0 .37-.69 5.63 5.63 0 0 0 .27-.82c.09-.42.14-.77.19-1.19zm4.29-.74a.25.25 0 0 0 -.11.23v6.19a1.41 1.41 0 0 1 0 .39.48.48 0 0 1 -.22.25 1.38 1.38 0 0 1 -.49.17c-.21 0-.5.07-.86.09 0-.08 0-.15 0-.21v-.15a.64.64 0 0 0 -.08-.14.79.79 0 0 0 -.12-.15h.75a1.45 1.45 0 0 0 .42 0 .25.25 0 0 0 .17-.14.51.51 0 0 0 0-.22v-5.12c0-.3 0-.58 0-.84s0-.44-.05-.56l.3.06h.28c.08 0 .13 0 .14.07s-.06.09-.13.12zm-1.26 1.48a.24.24 0 0 0 -.1.23v2.2.29s0 .23 0 .36 0 .24 0 .37 0 .23 0 .33h-.58c0-.1 0-.21 0-.33s0-.25 0-.37 0-.25 0-.36 0-.21 0-.29v-1.49c0-.22 0-.43 0-.64s0-.38 0-.49l.31.06h.27.13s.03.13-.03.17z" fill="#383736"/><path d="m471.92 12.07-.47.54-.6.62a1.31 1.31 0 0 0 -.24-.23l-.25-.15a4.88 4.88 0 0 0 .8-.64 5.92 5.92 0 0 0 .69-.8c.2-.29.36-.52.46-.7a2.51 2.51 0 0 0 .21-.51l.25.2a.64.64 0 0 0 .23.12c.09 0 .15.06.15.11s0 .1-.13.14a1.33 1.33 0 0 0 -.22.19 3.73 3.73 0 0 0 -.37.43v4.25h-.61c0-.12 0-.24.05-.34v-.32c0-.11 0-.22 0-.34s0-.27 0-.43zm.29-3.15h1.06.67.37.18v.56h-.17-.27-1.13a2.67 2.67 0 0 1 .31.36c.09.13.19.27.28.42l-.5.21a4 4 0 0 0 -.24-.51 2.28 2.28 0 0 0 -.38-.48h-.39c-.17.27-.33.5-.49.71a7.26 7.26 0 0 1 -.55.63 1 1 0 0 0 -.2-.2 1.17 1.17 0 0 0 -.27-.15 4.84 4.84 0 0 0 1-1 5.25 5.25 0 0 0 .71-1.42 1.87 1.87 0 0 0 .28.16 1.36 1.36 0 0 0 .28.08c.08 0 .12.05.12.08s-.05.08-.15.13h-.08a.93.93 0 0 0 -.1.1l-.12.18a2.91 2.91 0 0 0 -.22.14zm4.47 2.47h.84.29a1.09 1.09 0 0 0 .26 0v.56h-.55-.84v2.83a1.16 1.16 0 0 1 -.06.4.55.55 0 0 1 -.22.27 1.86 1.86 0 0 1 -.48.18 6.31 6.31 0 0 1 -.82.1 1 1 0 0 0 -.11-.35.91.91 0 0 0 -.22-.32 6.31 6.31 0 0 0 .74.06 1.24 1.24 0 0 0 .42 0 .27.27 0 0 0 .17-.18 1.16 1.16 0 0 0 0-.35v-2.6h-2.49-.38-.34v-.55a7 7 0 0 0 .71.06h2.5c0-.17 0-.32 0-.43s0-.21 0-.28a1.91 1.91 0 0 1 0-.2v-.17l.36.08a1.51 1.51 0 0 0 .3 0h.13s0 .06-.06.11a.42.42 0 0 0 -.12.35zm-2.78.7.35.29.4.37.4.4.38.38-.43.41a2.55 2.55 0 0 0 -.3-.39c-.11-.13-.24-.27-.37-.4l-.4-.37-.4-.32zm1.37-2.77a6.54 6.54 0 0 1 -.36.57c-.14.2-.29.4-.47.61a1.11 1.11 0 0 0 -.52-.26 6.72 6.72 0 0 0 .85-1 5.31 5.31 0 0 0 .66-1.35 1.15 1.15 0 0 0 .54.22c.08 0 .12 0 .13.08s0 .07-.1.11a.71.71 0 0 0 -.22.2 2.89 2.89 0 0 0 -.29.43h1.09.75.48.27v.55h-.18-.28-1.05l.32.37a3.44 3.44 0 0 1 .28.36l-.47.26-.12-.23a1.35 1.35 0 0 0 -.14-.22 2 2 0 0 0 -.18-.25l-.26-.45z" fill="#383736"/><path d="m482.69 8.82a9.66 9.66 0 0 1 -.64.91 6.91 6.91 0 0 1 -.75.78 8.63 8.63 0 0 1 -.92.72c-.34.23-.73.46-1.17.7a1.37 1.37 0 0 0 -.17-.28.71.71 0 0 0 -.27-.18 6.26 6.26 0 0 0 .73-.33 8.46 8.46 0 0 0 .8-.48 6.26 6.26 0 0 0 .76-.6 4.61 4.61 0 0 0 .65-.68l.32-.44c.09-.14.17-.27.24-.4a3.08 3.08 0 0 0 .16-.38 2.4 2.4 0 0 0 .12-.38l.31.15.22.08c.1 0 .15.05.16.09s0 .08-.12.11 0 0-.06 0a1.45 1.45 0 0 0 -.13.18 5.65 5.65 0 0 0 .69.86 5.59 5.59 0 0 0 .86.77l.56.38a5 5 0 0 0 .49.28c.16.07.33.14.51.2a5.6 5.6 0 0 0 .63.17 1.07 1.07 0 0 0 -.23.25 2.53 2.53 0 0 0 -.14.35l-.6-.26-.58-.31c-.19-.11-.37-.23-.53-.34a4.41 4.41 0 0 1 -.45-.35l-.42-.39c-.12-.12-.24-.25-.35-.38a4.12 4.12 0 0 1 -.33-.4zm-1.86 6.76h-.56q0-.21 0-.39c0-.12 0-.25 0-.39v-1.89a1.32 1.32 0 0 0 -.06-.45h4.84a2.15 2.15 0 0 0 0 .45v1.82.39a2.9 2.9 0 0 0 0 .38h-.55v-.5h-3.73zm1.88-4.5h1.29.41.43v.56h-.43-2.8-.39-.42v-.64h.42.4.48zm1.85 1.83h-3.73v1.7h3.73z" fill="#383736"/><path d="m489.31 9.82v.79s0 .49 0 .71h.47.46.37.24v.54h-.24-.38-.46-.48v.49s0 .27 0 .41a9.23 9.23 0 0 1 1 .61c.3.22.54.42.74.59l-.38.41a5 5 0 0 0 -.65-.65 6.16 6.16 0 0 0 -.78-.56 4.28 4.28 0 0 1 -.51 1.06 6.54 6.54 0 0 1 -.85 1 2.41 2.41 0 0 0 -.2-.22.9.9 0 0 0 -.26-.13 4 4 0 0 0 1-1 2.74 2.74 0 0 0 .43-1.09 4.32 4.32 0 0 0 .06-.47c0-.14 0-.28.05-.42h-.91a4.92 4.92 0 0 0 -.57 0v-.54h.24.36.43.46c0-.22 0-.46 0-.73s0-.52 0-.77h-.78-.47v-.5l.49.05h.75c0-.23 0-.43 0-.6s0-.3 0-.42 0-.2 0-.28v-.18a1.17 1.17 0 0 0 .06.08h.41q.1 0 .12.06s0 .09-.09.13a.59.59 0 0 0 -.11.3 2.75 2.75 0 0 0 0 .62v.27h.78.3a1 1 0 0 0 .21 0v.53h-.5zm3 2.9a3.75 3.75 0 0 1 -.13 1 2.32 2.32 0 0 1 -.36.78 2.62 2.62 0 0 1 -.66.62 6.72 6.72 0 0 1 -1 .55.82.82 0 0 0 -.16-.22l-.33-.21a2.93 2.93 0 0 0 1.64-.89 2.32 2.32 0 0 0 .51-1.64h-.45-.34a2.22 2.22 0 0 0 0-.41c0-.18 0-.35 0-.53v-2.53c0-.18 0-.35 0-.52a1.48 1.48 0 0 0 0-.36h.25.29 2.25.34.28a2.67 2.67 0 0 0 0 .36v.52 2.61.5s0 .31 0 .44h-.39-.57v1.72a1.87 1.87 0 0 0 0 .27.24.24 0 0 0 .21.23h.25.36a.43.43 0 0 0 .23-.09.52.52 0 0 0 .14-.22 3.46 3.46 0 0 0 .08-.4 1 1 0 0 0 .44.33 5.08 5.08 0 0 1 -.2.47.52.52 0 0 1 -.2.25.57.57 0 0 1 -.31.1 3.49 3.49 0 0 1 -.51 0 3 3 0 0 1 -.47 0 .7.7 0 0 1 -.3-.11.36.36 0 0 1 -.15-.21 1.15 1.15 0 0 1 -.05-.36v-2zm1.63-3.88h-2.35v.91h2.35zm0 1.29h-2.35v.92h2.35zm0 1.29h-2.35v.92h2.35z" fill="#383736"/><path d="m497.32 9.06-.51.65a5.22 5.22 0 0 1 -.46.48 1.43 1.43 0 0 0 -.52-.32 4.51 4.51 0 0 0 .59-.47 4.92 4.92 0 0 0 .5-.54 4.2 4.2 0 0 0 .38-.55 3 3 0 0 0 .22-.5l.23.15.21.09c.08 0 .13.07.14.13s0 .09-.1.11a.42.42 0 0 0 -.17.1 2 2 0 0 0 -.22.27h1.07.65a2.59 2.59 0 0 0 .48-.06v.53h-.48-1a5.42 5.42 0 0 1 .59.66l-.41.27c-.1-.18-.2-.35-.31-.51a2.48 2.48 0 0 0 -.36-.42zm.6 1.86h-.94l-.69.05v-.51c.21 0 .44 0 .69.06h.93c0-.11 0-.21 0-.3s0-.17 0-.24l.32.07h.28c.08 0 .12 0 .13.06s0 .07-.07.12a.34.34 0 0 0 -.11.27h.91c.24 0 .48 0 .69-.06v.56l-.69-.05h-.91v.47h.87.54a1 1 0 0 0 -.05.25v.35.98a1.88 1.88 0 0 0 0 .34 1.3 1.3 0 0 0 0 .26 4.06 4.06 0 0 0 -.54 0h-.87v.51h1l.73-.05v.52h-.73-1v.61s0 .42 0 .59h-.6q0-.24 0-.57t0-.63h-1.13q-.44 0-.81.06v-.64h.39.43 1.12v-.51h-.86a3.64 3.64 0 0 0 -.52 0c0-.06 0-.15 0-.26s0-.22 0-.34v-.89c0-.12 0-.23 0-.34s0-.2 0-.26h.52.86zm0 .81h-.92v.58h.88zm0 .9h-.92v.62h.88zm.48-.32h.87v-.58h-.87zm0 .94h.87v-.62h-.87zm2.33-4.19c-.13.19-.28.37-.42.55l-.39.46a.89.89 0 0 0 -.25-.16 1.82 1.82 0 0 0 -.3-.11 3.65 3.65 0 0 0 .5-.4 3.57 3.57 0 0 0 .45-.51 5.49 5.49 0 0 0 .35-.54 2.85 2.85 0 0 0 .22-.53l.26.09.24.08a.17.17 0 0 1 .13.1c0 .05 0 .09-.1.12a.46.46 0 0 0 -.2.13 3.11 3.11 0 0 0 -.22.32h1.31.65a2.59 2.59 0 0 0 .48-.06v.53h-.48-1.33l.32.36a4.2 4.2 0 0 1 .3.38l-.43.25a3 3 0 0 0 -.32-.53 3.39 3.39 0 0 0 -.39-.46zm-.26 2.4c0-.21 0-.43 0-.65s0-.41-.06-.56a1.47 1.47 0 0 0 .27 0h.28.32.9.33.27a1.47 1.47 0 0 0 .27 0l-.16 2.29a2.07 2.07 0 0 1 -.05.4.47.47 0 0 1 -.16.25.88.88 0 0 1 -.35.16 4.29 4.29 0 0 1 -.61.11 1 1 0 0 0 -.08-.3 2 2 0 0 0 -.22-.29 4.5 4.5 0 0 0 .5.07.78.78 0 0 0 .3 0 .26.26 0 0 0 .16-.15 1.11 1.11 0 0 0 .05-.24l.12-1.77h-1.55v3.53a1.72 1.72 0 0 0 0 .26.26.26 0 0 0 .07.16.35.35 0 0 0 .16.09 1 1 0 0 0 .27 0h.5l.51-.06a1 1 0 0 0 .28-.07.33.33 0 0 0 .19-.14 1.16 1.16 0 0 0 .11-.27 2 2 0 0 0 .09-.45c.08.11.15.19.22.27l.23.2a3.33 3.33 0 0 1 -.16.43 1.52 1.52 0 0 1 -.19.28.76.76 0 0 1 -.26.16 1.63 1.63 0 0 1 -.38.09 3.37 3.37 0 0 1 -.66.06h-.65a2.22 2.22 0 0 1 -.44-.06.49.49 0 0 1 -.37-.42 2.64 2.64 0 0 1 0-.45z" fill="#383736"/><path d="m422.52 4.36a6.91 6.91 0 1 1 -6.91 6.91 6.92 6.92 0 0 1 6.91-6.91m0-2.07a9 9 0 1 0 9 9 9 9 0 0 0 -9-9z" fill="#e60012"/><path d="m59.91 164.15h94.56v75.28h-94.56z" fill="none" stroke="#e60012" stroke-linecap="round" stroke-linejoin="round" stroke-width="1.06"/><path d="m238.26 163.26h81.62v54.26h-81.62z" fill="none" stroke="#e60012" stroke-linecap="round" stroke-linejoin="round" stroke-width=".83"/></svg>