<svg viewBox="0 0 773.62 227.63" xmlns="http://www.w3.org/2000/svg" xmlns:xlink="http://www.w3.org/1999/xlink"><clipPath id="a"><path d="m571.83 175.17h75.74v35.85h-75.74z"/></clipPath><clipPath id="b"><path d="m585.41 134.77h13.88v5.83h-13.88z"/></clipPath><clipPath id="c"><path d="m581.77 130.17h17.58v6.51h-17.58z"/></clipPath><clipPath id="d"><path d="m587.48 132.11a8.37 8.37 0 0 1 7.44-1.66 4.57 4.57 0 0 1 .77.32l-6.23 5.61a3.9 3.9 0 0 0 .42 0 7.42 7.42 0 0 0 .82 0c.46 0 .83-.07.84-.07l.42-.06.42-.09.41-.1a7.07 7.07 0 0 0 .82-.26 6.94 6.94 0 0 0 .77-.33 6.81 6.81 0 0 0 .71-.39l.32-.21.33-.25a5.77 5.77 0 0 0 .57-.55c.06-.06.13-.15.18-.21s.19-.27.26-.39a2.56 2.56 0 0 0 .25-.47v-.1a3.06 3.06 0 0 1 -1.06 1.82 8.4 8.4 0 0 1 -7.44 1.65c-2.34-.72-2.79-2.65-1-4.29"/></clipPath><clipPath id="e"><path d="m581.7 129.11h17.58v7.86h-17.58z"/></clipPath><clipPath id="f"><path d="m596.73 134.63a10.12 10.12 0 0 1 -9 2c-2.82-.88-3.37-3.2-1.23-5.18a10.12 10.12 0 0 1 9-2c2.82.88 3.37 3.2 1.23 5.18m-1.73-4.71a8.77 8.77 0 0 0 -7.8 1.74c-1.86 1.72-1.38 3.74 1.07 4.5a8.77 8.77 0 0 0 7.8-1.74c1.86-1.72 1.38-3.74-1.07-4.5"/></clipPath><clipPath id="g"><path d="m591.73 134.06h7.98v5.69h-7.98z"/></clipPath><path d="m0 0h773.62v227.63h-773.62z" fill="#fff"/><text fill="#595757" font-family="PingFangTC-Regular-B5pc-H, PingFang TC" font-size="8.5" transform="translate(0 31.73)">・<tspan font-family="DFHeiStd-W5, DFHeiStd W5-B5pc-H" x="8.5" y="0">個性溫和</tspan><tspan x="0" y="16">・</tspan><tspan font-family="DFHeiStd-W5, DFHeiStd W5-B5pc-H" x="8.5" y="16">有點偶像包袱 (少有誇張的表情)</tspan><tspan x="0" y="32">・</tspan><tspan font-family="DFHeiStd-W5, DFHeiStd W5-B5pc-H" x="8.5" y="32">喜歡跳舞</tspan></text><g clip-path="url(#a)"><path d="m627.43 177c18.47 4.31 25.52 15 15.73 23.94s-32.71 12.63-51.18 8.32-25.52-15-15.74-23.94 32.76-12.67 51.19-8.32" fill="#ccc"/></g><path d="m644.62 119.47c11.59-8 18.07-16.59 20.61-33.66 1.86-12.45-1.76-26.34-11.31-39.79-1.24-1.76-14.33-16.18-14.13-16.54a15 15 0 1 0 -27.16-12.48 59.57 59.57 0 0 0 -8.79-.16c-4.12 0-2.84.35-4.27-.15-4.77-1.67-3.68-1.44-6.07.31-.41.3 1.12-2.27.52-1.88-.42.28.09-.16-.86-.62s-3.72 2.87-4.77 4.43c-1.17 1.74.6-1.68-2.48 1a21.89 21.89 0 0 1 -2.77 1.59h.28a36.74 36.74 0 0 0 -3.64 1.92c-1.69 1-3.67 2.11-5.61 3.31a14.61 14.61 0 0 0 -11.82-4.6 15 15 0 0 0 -13.52 16.25 15.19 15.19 0 0 0 9.35 12.88 92.11 92.11 0 0 0 -5.18 21.82c-1.33 12.17-.1 25 5.9 35.65 6.41 11.35 26.07 16.64 37.24 20.54 0 0 2.15-.89 2.12-.85l30.74 7.56c-.16-.51 15.18-16.2 15.63-16.51" fill="#fff"/><path d="m634 87.48a5.16 5.16 0 0 1 -.79-.06s-3.48-.86-4-2.55c-.05-.15-2.13-7.3-2.13-7.3a1 1 0 1 1 1.92-.57c1.66 5.69 2 7 2.11 7.25a6.31 6.31 0 0 0 2.45 1.2 3.76 3.76 0 0 0 2.65-.73 2.84 2.84 0 0 0 1.22-1.72 1 1 0 1 1 2 .31 4.73 4.73 0 0 1 -2 3 5.93 5.93 0 0 1 -3.43 1.17z" fill="#231815"/><path d="m624.89 90.2a4.08 4.08 0 0 1 -3.55-2.1 1 1 0 0 1 .28-1.37 1 1 0 0 1 1.38.27c.91 1.39 2 1.53 4.15.56 1.6-.7 2.05-3.13 2.05-3.15a1 1 0 0 1 1.15-.81 1 1 0 0 1 .8 1.14c0 .15-.62 3.49-3.2 4.63a7.69 7.69 0 0 1 -3.06.83z" fill="#231815"/><path d="m613.9 71.57a3.52 3.52 0 1 1 -4-3 3.52 3.52 0 0 1 4 3" fill="#140508"/><path d="m611.51 70.42a1.19 1.19 0 1 1 -1.68-.16 1.19 1.19 0 0 1 1.68.16" fill="#fff"/><path d="m642.24 63.07a3.52 3.52 0 1 1 -4-3 3.52 3.52 0 0 1 4 3" fill="#140508"/><path d="m639.85 61.92a1.19 1.19 0 0 1 -1.85 1.52 1.2 1.2 0 0 1 .16-1.69 1.18 1.18 0 0 1 1.68.17" fill="#fff"/><path d="m631 79.57a5 5 0 0 0 2.49-1.74 2.41 2.41 0 0 0 -1.16-3.77c-2-.51-4.51.83-6.35 1.42a12.35 12.35 0 0 0 -3.87 1.94c-1.55 1.07.69 3.59 1.94 4a8.82 8.82 0 0 0 9.34-3.35c1.67-2.34.64-4.73-2.4-4" fill="#231815"/><g fill="#fff"><path d="m596 108c-.64 2.33-13.28 28.79-5.66 48.65 2.14 5.58 9.56 8.47 29.39 10 6.28.49 13.34-2.11 19.46-2.9 12.53-1.61 19-6.46 16.78-23.52-1.27-9.84-6.66-20.55-10.57-29.41a31 31 0 0 0 -4.51-7.64c-27 18-44.89 4.79-44.89 4.79"/><path d="m606.25 149.89c-22.84 7.32-18.78 26.66-17.74 33.21.15 1 4.9-.27 7.71-2.21 19.24-13.32 31.35-10.92 30.19-37.6"/><path d="m592.54 159.3c-.92 1.29-2.15 2.37-3.2 3.57-4.73 5.42-4.28 13.44-8.92 18.82-2 2.36-5.35 3.39-7.55 5.61a7.55 7.55 0 0 0 -1.38 2c-.32.88-.35 1.1 0 1.47a1.67 1.67 0 0 0 2.21.1c.2-.16.41-.31.62-.45a13.36 13.36 0 0 1 1.81-1 6.26 6.26 0 0 1 2.87-.48c1.45.07 2.39 1.35 4 .57 1.23-.62.89-2.07 1.68-2.91a12.22 12.22 0 0 1 3.76-2.4 30.05 30.05 0 0 1 6.06-2.66"/><path d="m647.91 140.16c19.19 14.25-2 34.72-6 40.47-.58.84.67-.43-6.59-4.68-12.2-7.13-30.28-38.2-20.82-50.47"/><path d="m654.78 152.74c2.52 4.13-.32 9-.67 10.32-1.78 6.6-8.7 14.32-9 21.28-.13 3 1.68 5.82 1.77 8.85a6.89 6.89 0 0 1 -.39 2.38c-.39.88-.52 1.07-1.05 1.16a1.58 1.58 0 0 1 -1.79-1.24 6 6 0 0 0 -.16-.71 11.55 11.55 0 0 0 -.66-1.87 5.41 5.41 0 0 0 -1.87-2.08c-1.18-.8-2.84-.35-3.48-1.89-.51-1.22.8-2.15.81-3.27a10.44 10.44 0 0 0 -1.17-4.11c-.79-1.94-6.31-9.23-7.59-10.94"/><path d="m602.93 118c-.87 1-3.79 3.54-4 4.82-1.54 9-6.55 10.42-9.29 18.91a4.82 4.82 0 0 0 -.33 2.27c.1.64.45 1.21.55 1.84s-12.09.05-12.5-1.89c-1.41-6.62 1.06-10.06 3.45-16.29 2.57-6.68 4.75-8.82 6.84-15.68"/></g><path d="m599.62 148.75q-.2-7.29-.4-14.57a3.88 3.88 0 0 1 -1.45 2.84 11.25 11.25 0 0 1 -10 2.22 3.9 3.9 0 0 1 -2.62-2q2.8 6.72 5.62 13.45a2.48 2.48 0 0 0 1.65 1.28 7.06 7.06 0 0 0 6.26-1.4 2.38 2.38 0 0 0 .91-1.78" fill="#bf976c"/><g clip-path="url(#b)"><path d="m587.77 139.3a11.36 11.36 0 0 0 10.05-2.24 4.32 4.32 0 0 0 1.41-2.29l.06 1.94a6.64 6.64 0 0 1 -.94 1.1 12.14 12.14 0 0 1 -10.74 2.39 5.72 5.72 0 0 1 -1.45-.66l-.75-1.78a4.48 4.48 0 0 0 2.36 1.54" fill="#c9c9c9"/></g><path d="m598.92 132.2c-.15 0-.36-.22-.57-.43 1.22 1.24 1.06 3-.67 4.64a11.36 11.36 0 0 1 -10 2.24c-2.32-.73-3.27-2.33-2.66-4-.1.28-.19.58-.34.63-.66 1.8.36 3.5 2.84 4.28a12.14 12.14 0 0 0 10.74-2.39c1.84-1.71 2-3.63.71-5" fill="#79726c"/><path d="m599.12 133.1c0-.07 0-.16 0-.23a2.38 2.38 0 0 0 -.05-.26 3 3 0 0 0 -.14-.42 2.84 2.84 0 0 0 -.53-.83c-.12-.12-.28-.28-.41-.39a3.37 3.37 0 0 0 -.45-.32 5.2 5.2 0 0 0 -.46-.25l-.37-.17-.52-.18a.13.13 0 0 0 -.12 0 3.83 3.83 0 0 1 2.59 2c.44 1.09.05 2.41-1.24 3.62a11.05 11.05 0 0 1 -9.79 2.18c-1.76-.55-2.71-1.62-2.76-2.84a3.79 3.79 0 0 1 1.42-2.81 11 11 0 0 1 9.78-2.18.13.13 0 0 1 .12 0l-.45-.13-.54-.11c-.29-.05-.7-.1-1-.12a10.29 10.29 0 0 0 -1.1 0 9 9 0 0 0 -1.11.09 10.31 10.31 0 0 0 -1.1.19c-.36.08-.72.18-1.07.29s-.69.24-1 .38-.67.31-.95.46c-.1.06-.49.27-.9.56a7.46 7.46 0 0 0 -.78.64 5.08 5.08 0 0 0 -.61.65 3.15 3.15 0 0 0 -.22.29c-.08.11-.17.27-.24.39a2.29 2.29 0 0 0 -.14.27c0 .12-.12.29-.16.42l-.07.25c0 .13-.05.32-.06.46a3.42 3.42 0 0 0 0 .45 2 2 0 0 0 0 .24 2.12 2.12 0 0 0 .14.46 4 4 0 0 0 2.69 2.13 11.46 11.46 0 0 0 10.13-2.28 3.88 3.88 0 0 0 1.47-2.94" fill="#84807a"/><path d="m587.31 131.79a8.62 8.62 0 0 1 7.63-1.69 2.78 2.78 0 0 1 2.11 1.88v.18a2.77 2.77 0 0 0 -2.11-1.89 8.64 8.64 0 0 0 -7.62 1.7 2.73 2.73 0 0 0 -1.06 2.51v-.17a2.74 2.74 0 0 1 1.06-2.52" fill="#484541"/><path d="m596 134.74-.31.27-.31.23-.31.2a6.82 6.82 0 0 1 -.69.38c-.4.19-.75.32-.75.32l-.8.25a8.17 8.17 0 0 1 -.81.18 7.41 7.41 0 0 1 -.83.11 8.25 8.25 0 0 1 -.83 0h-.36-.41l-.38-.06-.41-.08-.33-.1a2.58 2.58 0 0 1 -.39-.14 2.43 2.43 0 0 1 -.4-.18 2.48 2.48 0 0 1 -.42-.26l-.3-.25a1.14 1.14 0 0 1 -.15-.16l-.11-.13c-.06-.09-.14-.2-.19-.29a2.29 2.29 0 0 1 -.1-.23c0-.09-.07-.21-.09-.3a2.73 2.73 0 0 1 1.06-2.51 8.64 8.64 0 0 1 7.62-1.7.2.2 0 0 1 -.05.18 8.37 8.37 0 0 0 -7.44 1.66c-1.77 1.64-1.32 3.57 1 4.29a8.4 8.4 0 0 0 7.44-1.65c1.77-1.65 1.31-3.57-1-4.3a.2.2 0 0 0 .05-.18 2.77 2.77 0 0 1 2.11 1.89 1.85 1.85 0 0 1 0 .23v.16s0 .18 0 .25a2.58 2.58 0 0 1 -.17.64 2.81 2.81 0 0 1 -.37.66 4 4 0 0 1 -.57.64" fill="#87807c"/><path d="m594.92 130.45a8.37 8.37 0 0 0 -7.44 1.66c-1.77 1.64-1.32 3.56 1 4.29a8.4 8.4 0 0 0 7.44-1.65c1.77-1.65 1.31-3.57-1-4.3" fill="#716b66"/><path d="m587.61 137.92a11.05 11.05 0 0 0 9.79-2.18c1.3-1.21 1.68-2.53 1.24-3.62a3.83 3.83 0 0 0 -2.59-2 11 11 0 0 0 -9.78 2.18 3.79 3.79 0 0 0 -1.42 2.81c0 1.22 1 2.29 2.76 2.84m-2.54-3.06c0-.1 0-.24 0-.34v-.18c0-.08 0-.2.07-.29a2 2 0 0 1 .12-.31 4.12 4.12 0 0 1 .76-1.14c.1-.11.23-.25.34-.35l.32-.27c.12-.1.28-.23.41-.32a9.23 9.23 0 0 1 .84-.52c.26-.14.62-.31.89-.43a11.84 11.84 0 0 1 1.52-.53l.52-.12.52-.11a8.46 8.46 0 0 1 1-.13 10.38 10.38 0 0 1 1 0c.38 0 .41 0 1 .06l.47.07.47.1.5.13.35.12.62.28a4.07 4.07 0 0 1 .57.37 3 3 0 0 1 .55.54 1.57 1.57 0 0 1 .2.3v.07a1.76 1.76 0 0 1 .09.2c.43 1.05.06 2.33-1.2 3.49a10.64 10.64 0 0 1 -9.42 2.1c-1.7-.53-2.61-1.56-2.66-2.74" fill="#6b6661"/><path d="m586.1 134.23a2.84 2.84 0 0 0 2.16 1.93 8.77 8.77 0 0 0 7.8-1.74 2.75 2.75 0 0 0 1.09-2.57 2.84 2.84 0 0 0 -2.16-1.93 8.77 8.77 0 0 0 -7.8 1.74 2.77 2.77 0 0 0 -1.09 2.57m.15.08a2.74 2.74 0 0 1 1.06-2.52 8.62 8.62 0 0 1 7.63-1.69 2.78 2.78 0 0 1 2.11 1.88 2.85 2.85 0 0 1 0 .29.6.6 0 0 1 0 .19 1.94 1.94 0 0 1 0 .24c0 .1-.06.23-.09.33a2.56 2.56 0 0 1 -.22.48c-.07.12-.18.27-.26.39s-.12.15-.18.21a5.77 5.77 0 0 1 -.57.55l-.33.25-.32.21a6.81 6.81 0 0 1 -.71.39 6.94 6.94 0 0 1 -.77.33 7.07 7.07 0 0 1 -.82.26l-.41.1-.42.09-.42.06s-.38.05-.84.07a7.42 7.42 0 0 1 -.82 0 5.81 5.81 0 0 1 -.81-.09 5.55 5.55 0 0 1 -.75-.18l-.31-.15-.37-.16a3.21 3.21 0 0 1 -.53-.32 2.48 2.48 0 0 1 -.3-.25 2.24 2.24 0 0 1 -.31-.38 1.75 1.75 0 0 1 -.16-.28s0-.09-.05-.13l-.06-.21" fill="#87807c"/><path d="m599.14 133.48c0-.13 0-.26 0-.39a3.9 3.9 0 0 1 -1.47 2.95 11.46 11.46 0 0 1 -10.14 2.26 3.93 3.93 0 0 1 -2.69-2.14c0 .12.09.25.14.37a3.94 3.94 0 0 0 2.67 2.12 11.36 11.36 0 0 0 10-2.24 3.83 3.83 0 0 0 1.46-2.93" fill="#4d4946"/><path d="m598.1 131.39c.42 1 .06 2.29-1.18 3.44a10.46 10.46 0 0 1 -9.26 2.06c-1.67-.52-2.57-1.53-2.62-2.69a2.44 2.44 0 0 1 0-.27c0-.09 0-.21 0-.3a3 3 0 0 1 .16-.57l.1-.22c.06-.12.15-.27.22-.38a4.39 4.39 0 0 1 .37-.51l.22-.25.32-.31c.19-.16.45-.36.65-.51l.42-.28.41-.24.42-.21.45-.21.46-.18a9.75 9.75 0 0 1 1-.3 9 9 0 0 1 1-.22l.51-.08.5-.06h.5.51a4.78 4.78 0 0 1 .53 0c.27 0 .63.06.9.11l.51.1.4.11a.11.11 0 0 0 -.1 0 10.12 10.12 0 0 0 -9 2c-2.14 2-1.59 4.3 1.23 5.18a10.12 10.12 0 0 0 9-2c2.14-2 1.59-4.3-1.23-5.18a.11.11 0 0 1 .1 0l.66.25.31.15.26.15.38.27c.11.09.25.23.35.33a2.52 2.52 0 0 1 .21.25 1.32 1.32 0 0 1 .16.25 2.06 2.06 0 0 1 .17.33" fill="#87807c"/><path d="m596.73 134.63a10.12 10.12 0 0 1 -9 2c-2.82-.88-3.37-3.2-1.23-5.18a10.12 10.12 0 0 1 9-2c2.82.88 3.37 3.2 1.23 5.18m-1.73-4.71a8.77 8.77 0 0 0 -7.8 1.74c-1.86 1.72-1.38 3.74 1.07 4.5a8.77 8.77 0 0 0 7.8-1.74c1.86-1.72 1.38-3.74-1.07-4.5" fill="#716b66"/><path d="m598.35 132-.25-.61c.42 1 .06 2.29-1.17 3.44a10.48 10.48 0 0 1 -9.27 2.06c-1.67-.52-2.57-1.54-2.62-2.69v.66c0 1.17 1 2.2 2.66 2.74a10.64 10.64 0 0 0 9.42-2.1c1.26-1.17 1.63-2.44 1.2-3.5" fill="#4d4946"/><path d="m592 136.29-.42.06s-.38.05-.84.07a7.42 7.42 0 0 1 -.82 0 3.9 3.9 0 0 1 -.42 0l6.38-5.74a2.45 2.45 0 0 1 1.22 1.41 1.64 1.64 0 0 1 0 .22.6.6 0 0 1 0 .19 1.94 1.94 0 0 1 0 .24c0 .1-.06.23-.09.33a2.56 2.56 0 0 1 -.22.48c-.07.12-.18.27-.26.39s-.12.15-.18.21a5.77 5.77 0 0 1 -.57.55l-.33.25-.32.21a6.81 6.81 0 0 1 -.71.39 6.94 6.94 0 0 1 -.77.33 7.07 7.07 0 0 1 -.82.26l-.41.1-.42.09" fill="#55514c"/><path d="m596.05 135.06h.08a4.62 4.62 0 0 0 .41-.34 5.42 5.42 0 0 0 .41-.43.2.2 0 1 0 -.3-.26l-.39.39a4 4 0 0 1 -.38.32.22.22 0 0 0 0 .29.2.2 0 0 0 .2.07" fill="#383838"/><g clip-path="url(#c)"><g clip-path="url(#d)"><path d="m589.69 123.04h1.73v17.56h-1.73z" fill="#504f4f" transform="matrix(.00855201 -.99996343 .99996343 .00855201 453.67 721.23)"/></g></g><g clip-path="url(#e)"><g clip-path="url(#f)"><path d="m589.62 123.46h1.73v17.56h-1.73z" fill="#504f4f" transform="matrix(.00855201 -.99996343 .99996343 .00855201 453.15 721.57)"/></g></g><g clip-path="url(#g)"><path d="m591.73 139.75a11.24 11.24 0 0 0 1.62-.26 12.37 12.37 0 0 0 3.37-1.32 7 7 0 0 0 2.58-2.52 3.57 3.57 0 0 0 .37-1.13 2.61 2.61 0 0 0 0-.46 3.18 3.18 0 0 1 -.46 1.56 7 7 0 0 1 -2.58 2.44 12.13 12.13 0 0 1 -3.33 1.36 13.41 13.41 0 0 1 -1.6.33" fill="#848485"/></g><path d="m587.28 141.89s3.83-.13 4.52-.3 1.08-.49 1.65-.64 1.32 0 1.49.6-.47 1.38-.17 2 1.2.45 1.89.5c1.82.14 2.76 2.53 2.05 4.21a5.32 5.32 0 0 1 -4.16 3.29c-6.82.63-15.09 2.38-17.19-7.55" fill="#fff"/><path d="m634.92 109.12c1.23.43 5 1.29 5.83 2.3 5.67 7.14 10.75 6 17.23 12.12a5 5 0 0 1 1.39 1.83c.21.6.19 1.27.39 1.88s10.63-5.77 10.06-7.67c-2-6.48-5.77-8.32-10.87-12.62-5.46-4.63-8.4-5.46-13.53-10.46" fill="#fff"/><path d="m651.23 138.17-.91-23a3.1 3.1 0 0 1 1.2-2.78l5.49-2.56a.7.7 0 0 1 .44-.07l1.31.21a.64.64 0 0 0 -.44.07l-5.49 2.56a3.07 3.07 0 0 0 -1.19 2.78l.9 23c0 1 .42 1.59.92 1.67l-1.31-.21c-.5-.08-.89-.72-.92-1.67" fill="#4e4d4d"/><path d="m652.83 112.6a3.07 3.07 0 0 0 -1.19 2.78l.9 23c0 1.21.66 1.93 1.36 1.6l5.49-2.56a3.09 3.09 0 0 0 1.19-2.79l-.9-23c0-1.2-.65-1.92-1.36-1.59z" fill="#333"/><path d="m660.1 122.51s-3.41 1.73-4.1 1.91-1.18.08-1.75.23-1.14.66-1 1.24 1.08 1 1.1 1.67-.83 1-1.41 1.35c-1.52 1-1.2 3.54.22 4.67a5.36 5.36 0 0 0 5.23.89c6.28-2.73 14.38-5.17 11.45-14.89" fill="#fff"/><path d="m645.23 197.22a2.29 2.29 0 0 1 -1.33-.41 1.81 1.81 0 0 1 -.74-1.24c0-.22-.09-.45-.15-.66a10.73 10.73 0 0 0 -.63-1.79 4.86 4.86 0 0 0 -1.72-1.89 3.61 3.61 0 0 0 -1.3-.48 2.87 2.87 0 0 1 -2.35-1.63 2.62 2.62 0 0 1 .37-2.33 2.8 2.8 0 0 0 .41-1.12 8.27 8.27 0 0 0 -.89-3.34l-.24-.58c-.3-.73-1.56-2.82-5.9-8.66a50.65 50.65 0 0 1 -5.65-6.13 26.47 26.47 0 0 1 -5.44.21c-2.78 2.41-6.29 4.3-10.34 6.49a130 130 0 0 0 -12.79 7.63 17.15 17.15 0 0 1 -6.41 2.57l-2.13 1.05a9.87 9.87 0 0 0 -3 2 2.63 2.63 0 0 0 -.48 1.07 2.72 2.72 0 0 1 -1.34 1.94 3.08 3.08 0 0 1 -2.86-.13 3.76 3.76 0 0 0 -1.33-.39 5.79 5.79 0 0 0 -2.65.44 11.92 11.92 0 0 0 -1.75 1 6 6 0 0 0 -.58.41 2.14 2.14 0 0 1 -2.87-.15c-.54-.59-.41-1.05-.08-2a8.22 8.22 0 0 1 1.49-2.18 18.89 18.89 0 0 1 3.68-2.67 15.76 15.76 0 0 0 3.84-2.92c2.25-2.59 3.25-5.78 4.32-9.16s2.16-6.85 4.61-9.65c.34-.4.71-.78 1.07-1.16a22 22 0 0 1 1.29-2.05 9 9 0 0 1 -1.47-2.52 33.53 33.53 0 0 1 -1.31-4.3c-4.92.17-10.06-.82-11.68-8.44-1.16-5.48.29-8.9 2.12-13.23.44-1 .9-2.14 1.37-3.34.36-1 .74-1.87 1.16-2.8-7.88-3-18.58-7.87-23-15.74-6.85-12.13-7-26.24-6-35.93a92.61 92.61 0 0 1 5-21.51 15.8 15.8 0 0 1 -5.65-24.46 15 15 0 0 1 22.32-1c1-.59 1.93-1.14 2.85-1.68s1.68-1 2.44-1.43 1.34-.79 2.06-1.15h-.19l1.51-.79a25 25 0 0 0 2.69-1.53c1.15-1 1.79-1.3 2.28-1.11a.64.64 0 0 1 .2.11c.63-.93 3.7-5.24 5.29-4.47a1.72 1.72 0 0 1 .71.54.56.56 0 0 1 .38.12c.22.2.23.44.09.83 1-.78 1.5-.62 4.43.41l.91.32a1.39 1.39 0 0 0 .9.15c.42 0 1.2-.1 3.05-.08a61.07 61.07 0 0 1 8.47.13 15.48 15.48 0 1 1 28 13c.71 1 4.74 5.59 7.73 9s5.7 6.48 6.25 7.26c9.4 13.23 13.34 27.12 11.4 40.14-1.25 8.4-3.46 14.86-6.93 20.31l.48.4c1 .83 1.92 1.56 2.8 2.26 3.69 2.92 6.6 5.22 8.22 10.59l-.46.14.46-.14c2.76 9.14-4.06 12.22-9.25 14.42v.75a3.51 3.51 0 0 1 -1.46 3.25l-3.29 1.53c0 .27.09.54.12.82a33.79 33.79 0 0 1 -.22 12.18 17 17 0 0 1 0 3.35 14 14 0 0 1 -1.33 6.57 7.7 7.7 0 0 0 -.33.88 42.89 42.89 0 0 1 -4.16 8.91c-2.3 4.1-4.67 8.35-4.85 12.26a13.75 13.75 0 0 0 .86 4.53 15.93 15.93 0 0 1 .91 4.29 7.51 7.51 0 0 1 -.43 2.59c-.39.87-.61 1.3-1.41 1.43zm-19.7-31.28.17.21a51.5 51.5 0 0 0 5.77 6.3c3.64 4.88 5.61 7.78 6.08 8.93l.24.57a9.35 9.35 0 0 1 1 3.72 3.44 3.44 0 0 1 -.52 1.57c-.33.63-.53 1-.33 1.51.29.7.8.85 1.68 1.06a5 5 0 0 1 1.63.62 6 6 0 0 1 2 2.27 12.8 12.8 0 0 1 .69 2 6.6 6.6 0 0 1 .17.77.88.88 0 0 0 .35.61 1.32 1.32 0 0 0 .88.22c.29 0 .33-.05.69-.87a6.38 6.38 0 0 0 .35-2.18 15.4 15.4 0 0 0 -.86-4 14.26 14.26 0 0 1 -.91-4.87c.19-4.13 2.62-8.48 5-12.68a42 42 0 0 0 4.07-8.69 10 10 0 0 1 .37-1 13.37 13.37 0 0 0 1.27-6.2 17.55 17.55 0 0 0 0-3.34v-.09-.08a32.68 32.68 0 0 0 .23-11.91c0-.3-.09-.59-.14-.89l-.1-.62 4-1.83a2.74 2.74 0 0 0 .91-2.34l-.05-1.42.3-.13c6.33-2.67 11.38-5.53 9-13.38-1.53-5.08-4.2-7.19-7.9-10.12-.89-.7-1.83-1.44-2.82-2.28l-.8-.66-.34-.28.24-.36c3.53-5.4 5.76-11.84 7-20.28 1.9-12.77-2-26.41-11.23-39.45-.53-.73-3.28-3.86-6.2-7.18-8.24-9.36-8.21-9.41-8-9.86a14.53 14.53 0 1 0 -26.28-12.11l-.13.35h-.37a60.08 60.08 0 0 0 -8.73-.16c-1.83 0-2.58.05-3 .08a2.2 2.2 0 0 1 -1.31-.2l-.91-.32c-3-1-3-1-3.89-.26-.26.21-.57.46-1 .77l-.3.22-.36-.22c-.33-.28-.18-.6.18-1.39.06-.12.13-.27.19-.41h-.06l-.1-.31c0-.05-.05-.16-.39-.32s-2.48 1.75-4.16 4.26c-.32.47-.55.82-.95.72a.57.57 0 0 1 -.41-.53 6.28 6.28 0 0 0 -1.21.88 9.11 9.11 0 0 1 -1.38.87h.49l-1.71.79a34.56 34.56 0 0 0 -3.63 1.81l-2.45 1.44c-1 .6-2.1 1.22-3.16 1.87l-.34.2-.26-.28a14.16 14.16 0 0 0 -11.44-4.45 14 14 0 0 0 -9.72 5.08 14.84 14.84 0 0 0 5.7 23.14l.43.17-.16.44a91.33 91.33 0 0 0 -5.13 21.71c-1 9.56-.89 23.45 5.84 35.36 4.38 7.76 15.23 12.56 23 15.5l.48.18-.22.47c-.48 1.06-.92 2.11-1.35 3.21s-.93 2.32-1.37 3.36c-1.84 4.34-3.17 7.47-2.06 12.66 1.5 7.11 6.22 7.88 11.08 7.67h.4l.09.39a32.73 32.73 0 0 0 1.37 4.56 8.11 8.11 0 0 0 1.54 2.52l.26.29-.23.31a21 21 0 0 0 -1.48 2.31l-.07.1c-.37.39-.74.77-1.09 1.17-2.31 2.65-3.38 6-4.41 9.31s-2.14 6.76-4.51 9.5a16.42 16.42 0 0 1 -4.07 3.11 18.18 18.18 0 0 0 -3.5 2.53 7.1 7.1 0 0 0 -1.26 1.83c-.29.78-.27.81-.12 1a1.2 1.2 0 0 0 1.56.05 7.24 7.24 0 0 1 .66-.47 13.6 13.6 0 0 1 1.88-1.06 6.57 6.57 0 0 1 3.09-.52 4.88 4.88 0 0 1 1.66.46 2.14 2.14 0 0 0 2.05.16c.51-.25.65-.68.84-1.34a3.45 3.45 0 0 1 .71-1.47 10.6 10.6 0 0 1 3.3-2.2l2.29-1.14a16.09 16.09 0 0 0 6.08-2.42 128.18 128.18 0 0 1 12.87-7.68c4.08-2.2 7.6-4.11 10.32-6.5l.15-.14h.46a26.09 26.09 0 0 0 5.51-.24z" fill="#231815"/></svg>