<svg viewBox="0 0 773.62 227.63" xmlns="http://www.w3.org/2000/svg" xmlns:xlink="http://www.w3.org/1999/xlink"><clipPath id="a"><path d="m533.43 165.24h51.85v29.49h-51.85z"/></clipPath><clipPath id="b"><path d="m582.78 179.52h62.8v41.57h-62.8z"/></clipPath><clipPath id="c"><path d="m621.68 170.94h49.51v28.15h-49.51z"/></clipPath><path d="m0 0h773.62v227.63h-773.62z" fill="#fff"/><text fill="#595757" font-family="PingFangTC-Regular-B5pc-H, PingFang TC" font-size="8.5" transform="translate(0 45.95)">・<tspan font-family="DFHeiStd-W5, DFHeiStd W5-B5pc-H" x="8.5" y="0">個性樂觀</tspan><tspan x="0" y="16">・</tspan><tspan font-family="DFHeiStd-W5, DFHeiStd W5-B5pc-H" x="8.5" y="16">有點自戀 (容易露出滿意的表情)</tspan><tspan x="0" y="32">・</tspan><tspan font-family="DFHeiStd-W5, DFHeiStd W5-B5pc-H" x="8.5" y="32">喜歡跳舞</tspan><tspan x="0" y="48">・</tspan><tspan font-family="DFHeiStd-W5, DFHeiStd W5-B5pc-H" x="8.5" y="48">喜歡購物</tspan></text><path d="m548 147.78h-.09a.56.56 0 0 1 -.46-.63s.63-4.13 1.85-8.83c2.8-10.76 6.23-15.78 10.21-14.93 5.48 1.17 6.21 13.65 6.23 14.18a.54.54 0 0 1 -.52.58.53.53 0 0 1 -.57-.52c-.18-3.38-1.5-12.34-5.37-13.17-3.19-.69-6.37 4.34-8.91 14.14-1.21 4.64-1.82 8.67-1.83 8.71a.55.55 0 0 1 -.54.47" fill="#e4e3e3"/><g clip-path="url(#a)"><path d="m545.57 189.21-12.14-4.31 33.83-19.66 5.88 5.51 12.14 4.31-33.83 19.66z" fill="#d6d6d6"/></g><path d="m580.15 137.4-28.39 16.5-5.04-4.72-8.16-2.9 28.39-16.5 5.04 4.71z" fill="#d3a65e"/><path d="m551.76 153.9 19.65-11.43-3.41-3.2-19.66 11.43z" fill="#9c7c46"/><path d="m546.72 149.18-.1 37.11-8.17-2.9.11-37.11z" fill="#eab46b"/><path d="m551.76 153.9-.11 37.11-5.1-4.75.1-37.11z" fill="#b18b56"/><path d="m580.15 137.4-.1 37.1-28.4 16.51.11-37.11z" fill="#eab46b"/><path d="m559.64 152.39c.65-.37 1.17-.07 1.17.67a2.53 2.53 0 0 1 -1.16 2c-.64.37-1.17.07-1.17-.67a2.6 2.6 0 0 1 1.16-2" fill="#86735b"/><path d="m576.81 143c.65-.37 1.17-.07 1.17.67a2.53 2.53 0 0 1 -1.16 2c-.65.37-1.17.07-1.17-.67a2.6 2.6 0 0 1 1.16-2" fill="#86735b"/><path d="m559.69 154h-.14a.55.55 0 0 1 -.39-.67 16 16 0 0 0 -.2-8.09c-.34-1-.71-2-1.1-3-2.29-6.21-4.88-13.25-2.4-16.58 1-1.39 2.86-2 5.42-1.87 4.82.3 8.53 7.3 11.52 12.92.33.62.65 1.23 1 1.8a19.35 19.35 0 0 0 3.88 4.95.55.55 0 1 1 -.71.83 19.78 19.78 0 0 1 -4.17-5.29c-.32-.57-.64-1.18-1-1.8-2.86-5.38-6.41-12.09-10.62-12.34-2.19-.13-3.66.33-4.47 1.42-2.12 2.86.36 9.6 2.55 15.55.39 1.05.77 2.08 1.11 3.06a16.74 16.74 0 0 1 .22 8.72.55.55 0 0 1 -.53.41" fill="#e4e3e3"/><g clip-path="url(#b)"><path d="m583.32 190.65c-3.18 10.16 8.06 22.72 25.11 28.06s33.44 1.41 36.62-8.75-8.05-22.73-25.11-28.06-33.44-1.42-36.62 8.75" fill="#e4e3e3"/></g><g fill="#150505"><path d="m630.63 117.66c1.13.35 4.69 1 5.41 1.92 5.06 6.62 12.65 9.3 18.53 14.91a4.1 4.1 0 0 1 1.23 1.7c.18.57.13 1.22.3 1.8s.72 1.1 1.31.9 6.51-11.84 5.91-13.62c-1.51-4.56-4.47-6.73-9.11-10.64-5-4.19-8.49-5.21-13.14-9.8"/><path d="m605.83 178.53c.64 1.44 7.61 12.41 7.18 13.91-.49 1.06-1.4 2.54-.45 3.61.59.65 1.45 1 1.92 1.75a11.13 11.13 0 0 1 .74 2.46c.29.82 1.17 1.58 1.92 1.18 1.18-.62.27-3.2.47-4.3.47-2.73 1.42-5.29 1.86-8 .62-3.85 4.51-13.78 5.13-17.63"/><path d="m651.49 151.23c-1 11.32-18.42 28.43-26.62 30.66a22.69 22.69 0 0 1 -3.63.55 2.77 2.77 0 0 1 -1.46-.12c-.74-.36-4.72-.75-5-1.38-3.86-9.65-3.42-7.15-3.34-16 .07-6.78-2.68-10.76-2.42-13.47a6.81 6.81 0 0 1 1.13-2.87c1.76-2.83 5.05-5.58 9.26-5.13"/><path d="m613.73 183.27c.12 1.58 4.19 7.38 3.62 8.83-.59 1-1.64 2.4-.79 3.55.51.7 1.34 1.15 1.74 1.93a10.93 10.93 0 0 1 .5 2.52c.21.84 1 1.69 1.8 1.36 1.23-.51.58-3.16.87-4.23.74-2.68 1.93-5.13 2.63-7.82 1-3.78 6.76-9 7.75-12.75"/><path d="m633.44 146.76c3.9 11-4.82 32.44-11.42 37a18.46 18.46 0 0 1 -3.1 1.6 2.57 2.57 0 0 1 -1.39.32c-.84-.12-4.66.69-5.17.17-7.67-8-6.2-5.77-9.9-14.18-2.84-6.46-8.53-10.14-9.46-12.79a6.85 6.85 0 0 1 -.18-3.05c.41-3.21 3.73-6.07 7.8-6.9"/><path d="m595.87 107.4c-.56 2.21-8.47 25.26-8.47 41 0 13.14 7.3 21.91 32.59 19.9a181.3 181.3 0 0 0 18.55-2.13c9.23-1.76 19.22-10.6 14.26-28.61a178.22 178.22 0 0 0 -10.11-26.56 30.38 30.38 0 0 0 -4.4-7.34c-23.71 8.67-42.42 3.71-42.42 3.71"/><path d="m561.07 26.51a9.42 9.42 0 0 0 -.46 4.66 6.82 6.82 0 0 0 2.72 3.89c4.85 3.56 10.68 2.18 13.1-3.69a6.62 6.62 0 0 0 .57-2.8 8.24 8.24 0 0 0 -1.78-4.29 10 10 0 0 0 -3.74-3.4c-3-1.39-7 .71-9.1 2.9a5.93 5.93 0 0 0 -1.24 2.48z"/><path d="m615.36 10.52a7 7 0 0 0 -.7 2.56c-.25 3.76 4.49 7.18 7.77 8.18 2.6.78 5.75.29 7.43-1.84a7 7 0 0 0 1.14-2.42c1.17-4-.39-9.88-4.59-11.53s-9.13 1-11.09 5"/><path d="m636.55 19.24c-12.81-7.48-27.2-10.73-42.37-5.33-3.12 1.11-6.26 1.87-9.29 3.28a58.08 58.08 0 0 0 -16.14 11.15 46.43 46.43 0 0 0 -5.65 6.77c-4.12 6-6.1 9.81-7.55 17.24a101.28 101.28 0 0 0 -1.91 23.33c.51 12.64 8 28.62 18.19 36.71 5.49 4.38 12.91 6.66 19.49 8.24 36.75 8.86 83.71-14.56 74.95-56.92-3-14.7-17-37-29.72-44.47"/><path d="m588.73 14.31a1.55 1.55 0 0 1 -.4.53c.37-.26-1.17-.29-1.22-.28-.69.12-1.23 1.17-1.72 1.6-1.28 1.11-2.55 1.83-2.66 3.74 0-.45 9-.51 9.61-.63a26.68 26.68 0 0 0 12.35-5.81c.36-.31.76-.76.58-1.21s-.64-.49-1-.53a54.25 54.25 0 0 1 -6.63-1.1c-2-.5-2.43.07-4 1.35-.38.32.92-2.3.35-1.87-.39.31.08-.17-.9-.52s-3.45 3.12-4.36 4.73"/><path d="m591.21 133.39c-1.06-.62-4-2.84-5.2-2.75-8.51.66-15.79-3.2-24.09-3.83a4.32 4.32 0 0 0 -2.14.22c-.56.25-2.54.73-3.09 1a1.18 1.18 0 0 1 -1.59-.38c-.29-.67 1.81-1.58 1.41-2.18s-1.27-.27-2-.21c-1.85.17-3.13-2.23-2.65-4.17a7.44 7.44 0 0 1 3.74-4.3c5.53-3.26 12.14-3.36 18.31-2.52 6.61.9 13.06 2.38 19.74 2.77"/></g><path d="m624.94 55.93c-9.65 2.44-23.53 10.91-20.11 22.84 2.42 8.43 13.67 11.94 21.38 11.12a33.65 33.65 0 0 0 7-1.59c8.33-2.82 19.42-11.13 16.9-21.44s-16.23-13.19-25.17-10.93" fill="#fff"/><path d="m619.73 64.58c1.51-1 9.6-4.43 11.44-4.59s.82 3.95.1 5c-1.57 2.36-4.78 4.13-7.64 3.23-1.27-.4-5.48-2.63-3.9-3.68" fill="#231815"/><path d="m624.63 75.82a10.29 10.29 0 0 0 11.13-4.42c.58-.91-.87-1.75-1.44-.84a8.62 8.62 0 0 1 -9.25 3.65.83.83 0 0 0 -.44 1.61" fill="#140509"/><path d="m630.2 74.71a42.62 42.62 0 0 0 -5-11.34l.76-.47a43.56 43.56 0 0 1 5 11.57z" fill="#231815"/><path d="m632.64 47.53c1.46 2 3.8 2.76 5.23 1.71s1.41-3.51 0-5.51-3.87-2.73-5.29-1.73-1.4 3.51.06 5.51" fill="#fff"/><path d="m601.1 55.53c.15 2.47 1.7 4.38 3.47 4.28s3.09-2.2 2.94-4.67-1.71-4.38-3.48-4.27-3.08 2.19-2.93 4.66" fill="#fff"/><path d="m633.53 47.32a7.57 7.57 0 0 0 2.7-.55 3 3 0 0 0 1.59-1.66.45.45 0 0 0 -.31-.55.47.47 0 0 0 -.56.32 2.22 2.22 0 0 1 -1.23 1.12 6.79 6.79 0 0 1 -2.19.4.46.46 0 0 0 -.45.45.45.45 0 0 0 .45.45" fill="#231815"/><path d="m601.84 56.37a6.55 6.55 0 0 0 5-.69.45.45 0 0 0 -.45-.77 5.62 5.62 0 0 1 -4.28.61.44.44 0 0 0 -.24.85" fill="#231815"/><path d="m559.69 154h-.14a.55.55 0 0 1 -.39-.67 16 16 0 0 0 -.2-8.09c-.34-1-.71-2-1.1-3-2.29-6.21-4.49-13-3-16 .61-1.21 2.26-1 1.45.11-2.12 2.86.36 9.6 2.55 15.55.39 1.05.77 2.08 1.11 3.06a16.74 16.74 0 0 1 .22 8.72.55.55 0 0 1 -.53.41" fill="#e4e3e3"/><path d="m648.17 130.93a15 15 0 0 1 -3.76 1.82c-.65 0-1.33-.17-2-.13s-1.36.49-1.3 1.17 1.08 1.35 1 2.12-1.07.91-1.76 1.2c-1.84.79-1.81 3.73-.36 5.32s3.7 2.08 5.75 2.16c6.91.25 25.15-1.09 17.55-19.32" fill="#150505"/><path d="m657.29 154.27a.52.52 0 0 1 -.51-.45s-.6-3.89-1.75-8.32c-2.43-9.36-5.45-14.16-8.51-13.49-3.69.79-4.95 9.34-5.12 12.57a.51.51 0 0 1 -.55.49.52.52 0 0 1 -.5-.55c0-.5.72-12.42 5.95-13.54 3.8-.8 7.08 4 9.75 14.26 1.16 4.49 1.76 8.39 1.76 8.43a.53.53 0 0 1 -.44.6z" fill="#e4e3e3"/><g clip-path="url(#c)"><path d="m659.59 193.82 11.59-4.11-32.3-18.77-5.61 5.26-11.59 4.12 32.3 18.77z" fill="#d6d6d6"/></g><path d="m626.57 144.35 27.11 15.76 4.81-4.51 7.8-2.77-27.12-15.75-4.8 4.5z" fill="#d3a65e"/><path d="m653.68 160.11-18.76-10.91 3.26-3.05 18.77 10.9z" fill="#9c7c46"/><path d="m658.49 155.6.1 35.43 7.8-2.77-.1-35.43z" fill="#eab46b"/><path d="m653.68 160.11.11 35.43 4.87-4.54-.1-35.42z" fill="#b18b56"/><path d="m626.57 144.35.1 35.43 27.11 15.76-.1-35.43z" fill="#eab46b"/><path d="m646.16 158.67c-.62-.35-1.12-.07-1.12.64a2.43 2.43 0 0 0 1.11 1.93c.61.35 1.12.07 1.12-.64a2.48 2.48 0 0 0 -1.11-1.93" fill="#86735b"/><path d="m629.76 149.71c-.61-.36-1.11-.07-1.12.64a2.43 2.43 0 0 0 1.12 1.92c.61.36 1.11.07 1.11-.63a2.41 2.41 0 0 0 -1.11-1.93" fill="#86735b"/><path d="m646.11 160.21a.51.51 0 0 1 -.5-.39 16 16 0 0 1 .2-8.33c.33-.94.69-1.92 1.06-2.92 2.09-5.68 4.46-12.12 2.44-14.84-.78-1-2.17-1.49-4.27-1.36-4 .24-7.41 6.64-10.14 11.78-.32.59-.62 1.17-.92 1.72a19.06 19.06 0 0 1 -4 5 .52.52 0 0 1 -.74-.06.53.53 0 0 1 .06-.74 18.47 18.47 0 0 0 3.71-4.72l.91-1.71c2.86-5.38 6.41-12.06 11-12.34 2.44-.15 4.18.45 5.17 1.78 2.36 3.18-.11 9.9-2.29 15.83-.37 1-.73 2-1.06 2.91a15.24 15.24 0 0 0 -.18 7.71.52.52 0 0 1 -.37.64h-.14" fill="#e4e3e3"/><path d="m645.79 133.33a37.8 37.8 0 0 1 -6.19 2.67c-.66.05-1.33-.17-2-.12s-1.36.49-1.31 1.16 1.08 1.35 1 2.13-1.06.91-1.75 1.2c-1.84.78-1.81 3.73-.36 5.32s17.87-.52 19.4-1.89" fill="#150505"/><path d="m646.11 160.21a.51.51 0 0 1 -.5-.39 16 16 0 0 1 .2-8.33c.33-.94.69-1.92 1.06-2.92 2.09-5.68 4.46-12.12 2.44-14.84-.78-1-.15-2 .84-.63 2.36 3.18-.11 9.9-2.29 15.83-.37 1-.73 2-1.06 2.91a15.24 15.24 0 0 0 -.18 7.71.52.52 0 0 1 -.37.64h-.14" fill="#e4e3e3"/></svg>