<svg viewBox="0 0 777.93 490.27" xmlns="http://www.w3.org/2000/svg"><path d="m0 0h777.93v490.27h-777.93z" fill="#fff"/><g fill="#383736"><path d="m145.19 107.9a1.85 1.85 0 0 0 0-.23c0-.08 0-.16 0-.24s0-.15 0-.21a1.37 1.37 0 0 1 0-.16h.33.26.14s0 .07-.1.12 0 0-.05 0a.39.39 0 0 0 0 .13 1.18 1.18 0 0 0 0 .22v.36 1.36.42s0 .3 0 .43h-.56c0-.1 0-.21 0-.34s0-.25 0-.36l-.74.13-.61.12-.51.13-.47.12a2.11 2.11 0 0 0 -.1-.3 1.53 1.53 0 0 0 -.16-.26 10.21 10.21 0 0 0 1.12-.09q.63-.08 1.47-.24v-.81h-2a2.68 2.68 0 0 0 -.33 0v-.51h.33 2zm-.8 6.87h-.58c0-.16 0-.31 0-.44v-.36c0-.11 0-.22 0-.32a2.81 2.81 0 0 0 0-.29v-2.08c0-.19 0-.35 0-.48a2.94 2.94 0 0 0 0-.35h1.17 3.07 1.1c0 .13 0 .26-.05.39a3 3 0 0 0 0 .44v2.72a1 1 0 0 1 -.06.37.39.39 0 0 1 -.24.23 1.73 1.73 0 0 1 -.54.14c-.23 0-.55 0-1 0a.77.77 0 0 0 -.18-.63c.32 0 .58.08.77.09a1.39 1.39 0 0 0 .44 0 .31.31 0 0 0 .2-.13.51.51 0 0 0 .05-.22v-.65h-4.2zm4.2-3.1v-.77h-4.2v.77zm-4.2.38v.73h4.2v-.73zm3.13-3.83c.24-.07.46-.13.65-.2l.5-.17a3 3 0 0 0 .4-.17 1.49 1.49 0 0 0 .3-.18 1.71 1.71 0 0 0 .38.45c.07 0 .09.09.07.13s-.08 0-.18 0a.47.47 0 0 0 -.17 0l-.34.07-.61.16-1 .29v.41a1.42 1.42 0 0 0 0 .33.4.4 0 0 0 .15.19.89.89 0 0 0 .34.08 4.81 4.81 0 0 0 .59 0 4.51 4.51 0 0 0 .58 0 .63.63 0 0 0 .33-.14.53.53 0 0 0 .17-.28 3.42 3.42 0 0 0 .07-.47 1 1 0 0 0 .51.34 4.45 4.45 0 0 1 -.2.52.82.82 0 0 1 -.27.31 1 1 0 0 1 -.45.14 5.26 5.26 0 0 1 -.76 0 6.49 6.49 0 0 1 -.86 0 1.09 1.09 0 0 1 -.48-.14.45.45 0 0 1 -.2-.3 2.39 2.39 0 0 1 0-.51v-1.08c0-.24 0-.42 0-.57s0-.26 0-.36h.34a1.71 1.71 0 0 0 .32 0c.17 0 .19.06 0 .17a.33.33 0 0 0 -.16.28z"/><path d="m154.68 110.45c-.06-.06-.11-.12-.17-.17l-.24-.2.4-.28.16.18a1.53 1.53 0 0 1 .13.16l.12.14.13.17h2.17.75.63v.55h-.65-.76-1-2.71-1-.79-.69v-.55h.66.76.94zm-1.2 3.09a.41.41 0 0 0 -.2.06c-.07 0-.18.1-.31.19a4.39 4.39 0 0 1 -.6.38c-.21.12-.47.26-.76.4l-.17-.27a.87.87 0 0 0 -.22-.2c.25-.08.46-.17.65-.25l.52-.26a4.61 4.61 0 0 0 .43-.29 4.18 4.18 0 0 0 .42-.34 1.93 1.93 0 0 0 .13.21.7.7 0 0 0 .14.16c.07.06.11.11.1.15s-.05.06-.13.06zm4-3.74q-.9 0-2.61 0h-1.5-1.09c0-.14 0-.31 0-.52s0-.4 0-.59 0-.4 0-.62 0-.4 0-.53h1.1 3 1.11v.59s0 .37 0 .56 0 .39 0 .59 0 .39.01.52zm-2.17 4.34a1.56 1.56 0 0 1 0 .35.33.33 0 0 1 -.17.2 1.4 1.4 0 0 1 -.4.11c-.18 0-.42 0-.73 0a.75.75 0 0 0 -.08-.31 1 1 0 0 0 -.2-.29 5.36 5.36 0 0 0 .59 0 1.42 1.42 0 0 0 .33 0 .24.24 0 0 0 .14-.12.6.6 0 0 0 0-.2v-1.18h-1.4-1a2.47 2.47 0 0 0 0-.36c0-.1 0-.25 0-.44v-.25a1.15 1.15 0 0 0 0-.19c0-.06 0-.12 0-.18s0-.11 0-.18h1.06 2.92 1.07a1.28 1.28 0 0 0 0 .19v.18.19.34.44s0 .23 0 .36h-.9-1.2zm1.69-6.14h-4.12v.56h4.12zm-4.12 1.42h4.12v-.52h-4.12zm4.08 2.26h-4v.72h4zm1.21 2.76a9.8 9.8 0 0 0 -1-.56c-.33-.16-.67-.31-1-.46l.26-.44 1.13.51 1 .49z"/><path d="m160.74 109.7-.31.3-.36.35a1 1 0 0 0 -.23-.23 1.13 1.13 0 0 0 -.29-.13 7.22 7.22 0 0 0 1.47-1.3 7.68 7.68 0 0 0 1.15-1.78 1.49 1.49 0 0 0 .24.18 1.26 1.26 0 0 0 .26.12c.09 0 .14.07.14.12s-.05.08-.15.12a.71.71 0 0 0 -.24.18 4 4 0 0 0 -.32.44h2.53.44.4.29l-1.56 1.74h1.35a6.57 6.57 0 0 0 .73 0v.61.66.7a4.24 4.24 0 0 0 0 .57h-.2-.32-4.47v1.27a1 1 0 0 0 0 .26.27.27 0 0 0 .13.17.65.65 0 0 0 .25.11h.43.87.89.85.73a3.85 3.85 0 0 0 .6-.09.79.79 0 0 0 .37-.17.89.89 0 0 0 .21-.34 4.46 4.46 0 0 0 .11-.57.68.68 0 0 0 .25.21.75.75 0 0 0 .3.09 4.19 4.19 0 0 1 -.22.68.86.86 0 0 1 -.65.58 4.3 4.3 0 0 1 -.61.07h-.42-.63-2.65a5.37 5.37 0 0 1 -.74-.08 1 1 0 0 1 -.42-.15.44.44 0 0 1 -.17-.27 1.62 1.62 0 0 1 0-.41v-2.87c.02-.37 0-.72-.03-1.14zm1.06-1.21-.22.29-.22.27-.27.29-.33.33h.3.5 2l1.1-1.24zm-.49 1.66v1.61h2v-1.61zm4.41 1.61v-1.61h-1.86v1.61z"/><path d="m170.76 108.38h-1.32-1v-.59h.47.52.61 4.71q.57 0 1-.06v.59h-1-1.32-.79l-.17.34a3.24 3.24 0 0 1 -.17.32v4.44.65s0 .4.06.62h-.67c0-.22 0-.43 0-.63s0-.41 0-.64v-3.6a6.36 6.36 0 0 1 -.56.7 7 7 0 0 1 -.68.64 8.39 8.39 0 0 1 -.84.64c-.31.21-.65.44-1 .68a1 1 0 0 0 -.19-.31 2 2 0 0 0 -.3-.24c.51-.26 1-.52 1.37-.78a7.72 7.72 0 0 0 1.07-.82 6 6 0 0 0 .83-.92 6.73 6.73 0 0 0 .62-1.09zm4.45 4.22c-.35-.45-.72-.86-1.1-1.26a17.21 17.21 0 0 0 -1.3-1.19l.41-.4c.54.45 1 .88 1.41 1.27s.74.78 1.05 1.14z"/><path d="m179.27 112a1.9 1.9 0 0 1 -.06.5.86.86 0 0 1 -.22.38 1.09 1.09 0 0 1 -.42.27 2.89 2.89 0 0 1 -.65.17 1.09 1.09 0 0 0 -.09-.33 1.29 1.29 0 0 0 -.16-.31 1.5 1.5 0 0 0 .86-.14.65.65 0 0 0 .25-.58 1.8 1.8 0 0 0 -.05-.37 3.46 3.46 0 0 0 -.17-.43 2.93 2.93 0 0 0 -.3-.45 2.82 2.82 0 0 0 -.41-.44c.18-.43.33-.84.46-1.23s.24-.74.32-1.08h-1.27v5.65.45s0 .26 0 .37 0 .23 0 .37h-.64c0-.15 0-.29.05-.43s0-.28 0-.42 0-.29 0-.45 0-.33 0-.52v-4.35a2.72 2.72 0 0 0 0-.28c0-.1 0-.2 0-.3a2.83 2.83 0 0 0 0-.29 2.29 2.29 0 0 1 0-.25h.62 1.27.57c-.06.24-.13.47-.2.71s-.15.47-.22.71l-.24.68c-.08.22-.15.43-.23.61a2.22 2.22 0 0 1 .38.37 2.6 2.6 0 0 1 .28.45 2.22 2.22 0 0 1 .18.49 2.8 2.8 0 0 1 .09.47zm2.45 1.16a1.81 1.81 0 0 0 0 .25 1.68 1.68 0 0 0 .08.24l-1.53.75a2 2 0 0 0 -.29.16 2.38 2.38 0 0 0 -.33.25 1.11 1.11 0 0 0 -.16-.24 1.84 1.84 0 0 0 -.25-.23 2.71 2.71 0 0 0 .46-.18v-5.72c0-.18 0-.34 0-.48s0-.28 0-.43h.31.44.51 1.04.52.44.32a1.13 1.13 0 0 0 0 .18 1.15 1.15 0 0 1 0 .18v.23 1.88.56s0 .33 0 .51a1.09 1.09 0 0 0 -.26 0h-.33-1.17a3.48 3.48 0 0 0 .21.69 5.2 5.2 0 0 0 .32.62c.21-.14.39-.26.52-.36l.37-.27.3-.26.31-.31a1.56 1.56 0 0 0 .4.46c.06 0 .08.08.06.11s-.06 0-.13 0h-.15a1.23 1.23 0 0 0 -.26.13l-.46.28-.71.49a3.47 3.47 0 0 0 .39.44 2.64 2.64 0 0 0 .41.34 4.92 4.92 0 0 0 .45.28l.54.26a1.74 1.74 0 0 0 -.29.25.86.86 0 0 0 -.2.28 5.92 5.92 0 0 1 -.94-.71 7.87 7.87 0 0 1 -.66-.79 4 4 0 0 1 -.26-.4c-.09-.16-.18-.32-.26-.5s-.15-.36-.22-.55-.11-.37-.15-.54h-.85v2.92zm-1.5-5.1v1.09h2.54v-1.09zm0 1.49v1h2.54v-1z"/><path d="m145.18 118.34c.1-.17.18-.32.25-.46s.12-.25.17-.35.09-.2.12-.28a1.27 1.27 0 0 0 .07-.24l.33.16a2.31 2.31 0 0 0 .34.1c.08 0 .12 0 .12.08s-.05.08-.15.1h-.09a.9.9 0 0 0 -.14.14 2.42 2.42 0 0 0 -.2.26c-.08.11-.18.26-.29.44h3 .42.31v.33.34 4.78.34s0 .2 0 .28a1.91 1.91 0 0 1 0 .2h-.58v-.76h-4.86v.85h-.56q0-.19 0-.54c0-.23 0-.5 0-.82v-4.29c0-.12 0-.24 0-.35s0-.23 0-.32a6.4 6.4 0 0 0 .64 0zm3.67 2.48v-2h-4.85v2zm-4.83.44v2.08h4.83v-2.08z"/><path d="m155.09 118v-.36a2 2 0 0 0 0-.26c0-.08 0-.15 0-.21s0-.12 0-.18a2.18 2.18 0 0 0 .62 0h.11s0 .07-.06.11a.43.43 0 0 0 0 .07.24.24 0 0 0 0 .12v.23s0 .24 0 .4h2.05a5.64 5.64 0 0 0 .9-.06v.55h-.28-.44-5.25v1.71s0 .94 0 1.32a8.8 8.8 0 0 1 -.1 1 5.91 5.91 0 0 1 -.17.82 5.44 5.44 0 0 1 -.26.71c-.11.23-.23.47-.37.72a1.22 1.22 0 0 0 -.26-.16 1.31 1.31 0 0 0 -.34-.12 3.91 3.91 0 0 0 .4-.6 3.45 3.45 0 0 0 .31-.7 6 6 0 0 0 .22-.88 10.41 10.41 0 0 0 .11-1.11c0-.42 0-.89 0-1.42s0-1.13-.09-1.81a3.88 3.88 0 0 0 .42 0h.75.93zm1.41 6.46h-.25-3.12-.25v-.46h.27 3.09.26zm-.87-2.18a1 1 0 0 0 0 .26.51.51 0 0 0 .09.22c-.66.21-1.2.41-1.62.57a6.75 6.75 0 0 0 -.9.42.94.94 0 0 0 -.09-.31 2 2 0 0 0 -.2-.26h.23l.22-.06v-2.62c0-.25 0-.5 0-.73a3.51 3.51 0 0 0 0-.54h.75.87l.91-.08c.3 0 .58-.06.85-.09l.69-.12a2.32 2.32 0 0 0 .47-.13 2.08 2.08 0 0 0 .13.3 1.51 1.51 0 0 0 .18.26c.06.06.07.11 0 .14s-.08 0-.17 0a1.22 1.22 0 0 0 -.35 0 4.51 4.51 0 0 0 -.61 0l-.44.06h-.4v.77s.05.53.09.78h1.28c.33 0 .58 0 .76-.05v.51h-.74-1.22c0 .2.09.39.15.59a4.75 4.75 0 0 0 .2.54c.07.17.15.32.22.46a1.77 1.77 0 0 0 .24.32 4 4 0 0 0 .49.44c.12.09.22.13.29.1s.13-.12.17-.27a3.93 3.93 0 0 0 .08-.66 1.47 1.47 0 0 0 .27.25.56.56 0 0 0 .29.1 3.53 3.53 0 0 1 -.26.78.87.87 0 0 1 -.3.38.43.43 0 0 1 -.37 0 1.52 1.52 0 0 1 -.45-.26 4.09 4.09 0 0 1 -.56-.53 2.64 2.64 0 0 1 -.41-.6 4.44 4.44 0 0 1 -.3-.73q-.12-.4-.24-.93h-2.1v1.44zm.24-1.19c0-.23-.07-.49-.09-.75s0-.51-.05-.75l-.92.07c-.3 0-.62 0-1 0v1.4z"/><path d="m162.78 121.31h-2-.6-.4v-.52a4.81 4.81 0 0 0 .52 0h.83 1.07 1.24 2.47s1 0 1.18-.07v.51c-.25 0-.7 0-1.35 0h-2.46l-.28.77h1.1.9.75.65a1.88 1.88 0 0 0 -.06.31v.32 1.59a1.49 1.49 0 0 1 0 .33.33.33 0 0 1 -.18.19 1.09 1.09 0 0 1 -.39.1h-.67a.87.87 0 0 0 0-.3.59.59 0 0 0 -.17-.25 4.34 4.34 0 0 0 .53 0 1.15 1.15 0 0 0 .3 0 .26.26 0 0 0 .13-.12.5.5 0 0 0 0-.19v-1.6h-1.27v1.24.4s0 .22 0 .32h-.62c0-.18 0-.43 0-.74v-1.22h-1.25v1.22.77h-.53c0-.12 0-.24 0-.36s0-.25 0-.39 0-.33 0-.52v-.72h-1.12v2.44h-.56c0-.13 0-.25 0-.36s0-.22 0-.35v-1.58c0-.12 0-.23 0-.33a2.51 2.51 0 0 0 0-.27h.81 1zm.35-3.38h-1.55-1.17v-.48h.53 4.91.53v.55h-.51-.59-1.65v.58h3.13v1.42h-.51v-1.1h-2.62v.85.48s0 .28 0 .44h-.56c0-.16 0-.31 0-.45s0-.29 0-.46v-.86h-2.6v1.1h-.47v-1.53h1.1 2zm-2.13 1.78v-.38h.31 1 .4v.38h-.4-1zm0 .78v-.4h1.69v.4h-.4-1zm3.14-.77v-.38h1.72v.38zm0 .76v-.37h1.72v.37z"/><path d="m169.45 120a6.23 6.23 0 0 0 -.65 0 3.14 3.14 0 0 0 -.48.06v-.58l.48.07h.65c0-.32 0-.62 0-.91s0-.52 0-.74 0-.39 0-.54 0-.24 0-.3a1.06 1.06 0 0 0 .31 0h.34q.14 0 .15.06s0 .08-.12.13a.39.39 0 0 0 -.08.1.31.31 0 0 0 0 .13v2a4 4 0 0 0 .87-.08v.58a6.1 6.1 0 0 0 -.87-.07v2.76c.33-.11.67-.25 1-.39a.86.86 0 0 0 0 .28 1.08 1.08 0 0 0 .05.27l-.64.17-.61.19-.63.22-.7.27a1 1 0 0 0 -.09-.31.93.93 0 0 0 -.2-.3c.25 0 .48-.07.7-.12l.62-.14zm4.35-1.63c.2-.28.37-.54.49-.75a5.24 5.24 0 0 0 .32-.62 1.33 1.33 0 0 0 .24.19l.29.13c.07 0 .11.06.11.11s0 .07-.1.08a.75.75 0 0 0 -.13.06.67.67 0 0 0 -.17.12 3.22 3.22 0 0 0 -.23.25c-.09.11-.21.25-.34.43h.8.68v.29s0 .23 0 .35 0 .26 0 .39 0 .27 0 .39v.76s0 .43 0 .58h-.46-.51-2.2-.62-.5-.47c0-.17 0-.36 0-.6s0-.48 0-.74v-.38c0-.14 0-.27 0-.39s0-.25 0-.36 0-.21 0-.29h.43.36 2zm-1.8 6.35h-.56c0-.11 0-.24 0-.39s0-.29 0-.43v-1.39c0-.18 0-.36 0-.53a2 2 0 0 0 0-.41h.32.4 2.45a5.55 5.55 0 0 0 .77-.06 3.32 3.32 0 0 0 0 .43v.51 1.27.45s0 .31 0 .44h-.56v-.41h-2.82zm1.14-6h-1.61v1.91h1.61zm-.58-.42a3.31 3.31 0 0 0 -.46-.51 4.56 4.56 0 0 0 -.55-.4l.32-.36a5.15 5.15 0 0 1 .56.43c.17.16.34.32.5.5zm-.05 2a4.47 4.47 0 0 0 -.35-.58 2.92 2.92 0 0 0 -.43-.48l.36-.28a5.89 5.89 0 0 1 .44.53 5.06 5.06 0 0 1 .38.56zm2.31 2.4v-.73h-2.82v.73zm-2.82.38v.75h2.82v-.75zm1.61-2.49h1.62v-1.91h-1.62zm1.34-1.47c.08 0 .13.05.13.08s0 .08-.12.11a.26.26 0 0 0 -.1.07 1.23 1.23 0 0 0 -.15.16l-.22.31-.33.51-.39-.19a3.4 3.4 0 0 0 .43-.61 3.16 3.16 0 0 0 .3-.67.82.82 0 0 0 .22.16.68.68 0 0 0 .28.16z"/><path d="m179.12 119.23c0 .66 0 1.25-.1 1.79a8.92 8.92 0 0 1 -.28 1.47 5 5 0 0 1 -.52 1.2 4.64 4.64 0 0 1 -.79 1 .69.69 0 0 0 -.24-.22 1.51 1.51 0 0 0 -.35-.1 3.41 3.41 0 0 0 .83-.77 3.47 3.47 0 0 0 .54-1 6.78 6.78 0 0 0 .3-1.43 17.41 17.41 0 0 0 .1-1.89h-.87-.3-.26v-.58h.27 1.16c0-.25 0-.46 0-.64s0-.32 0-.44 0-.23 0-.31 0-.16-.06-.23a2 2 0 0 0 .69.07c.08 0 .13 0 .14.06s0 .1-.07.16a.37.37 0 0 0 -.07.12.69.69 0 0 0 0 .2v.38.63h1.4.32l-.15 4.11a5.18 5.18 0 0 1 -.07.81.85.85 0 0 1 -.21.48.89.89 0 0 1 -.44.24 7 7 0 0 1 -.77.11.88.88 0 0 0 0-.17.61.61 0 0 0 0-.13.5.5 0 0 0 -.08-.14l-.13-.17a6.68 6.68 0 0 0 .67 0 .74.74 0 0 0 .38-.14.6.6 0 0 0 .16-.36 5.08 5.08 0 0 0 0-.65l.12-3.47zm2.79 5.22h-.55c0-.14 0-.27 0-.37s0-.2 0-.29v-.26c0-.08 0-.18 0-.28v-4.18c0-.17 0-.31 0-.42a2.61 2.61 0 0 0 0-.31h.71.65.64.67a2 2 0 0 0 0 .29v.44 4 .59s0 .39.05.63h-.54v-.68h-1.6zm1.6-5.61h-1.6v4.38h1.6z"/><path d="m186.8 123.39-.22.34-.28.4-.3.39-.28.31-.46-.3c.14-.12.26-.24.36-.34a2.73 2.73 0 0 0 .28-.33c.07-.1.15-.22.22-.34s.15-.26.23-.42zm2.39-1h1.87 1.41v.53h-.71-.81-4.14-.8-.7v-.53h.68.76 1.93v-.89h-1.47-1.12v-.49h1.12 1.47v-.8h-1.5-.58-.51v-.31c0-.1 0-.21 0-.32s0-.23 0-.35v-.23c0-.32 0-.59 0-.81s0-.44 0-.66h.55 4.65.55v.66s0 .5 0 .81v.44.34s0 .21 0 .31v.31h-.52-.59-1.54v.8h1.49 1.12v.49h-1.12-1.49zm-.51-4.45h-2v2h2zm-.78 1.74a4.86 4.86 0 0 0 -.4-.71 3.74 3.74 0 0 0 -.4-.52l.39-.27a6.15 6.15 0 0 1 .46.58c.14.21.28.44.43.7zm.31 4.92a5.84 5.84 0 0 0 -.21-.6 2.83 2.83 0 0 0 -.37-.61l.43-.21a6.75 6.75 0 0 1 .36.6 4.4 4.4 0 0 1 .34.69zm1-4.69h2.1v-2h-2.1zm.92 4.58-.15-.32a1.73 1.73 0 0 0 -.15-.27c-.05-.09-.11-.17-.17-.26s-.15-.19-.25-.3l.42-.26c.15.2.29.4.43.61a6.31 6.31 0 0 1 .35.57zm.77-6-.16.15-.2.23-.26.36c-.11.14-.22.32-.36.53l-.43-.26a5.12 5.12 0 0 0 .53-.62c.15-.22.29-.45.42-.68zm1.28 6.21q-.1-.18-.21-.33c-.06-.1-.14-.2-.21-.3s-.18-.21-.28-.33l-.37-.4.37-.3q.38.38.66.69c.19.21.36.42.51.62z"/><path d="m193.92 119.43c.2-.34.39-.7.58-1.09s.36-.8.53-1.24a1.34 1.34 0 0 0 .54.25c.09 0 .14.06.14.09s0 .08-.13.12a.39.39 0 0 0 -.11.09 2.09 2.09 0 0 0 -.19.28c-.09.13-.21.32-.36.56l-.56.94h.52.54c.14-.23.26-.43.35-.6s.16-.31.21-.42a1.27 1.27 0 0 0 .51.31c.09 0 .14.06.14.11s0 .08-.13.11a.28.28 0 0 0 -.14.1 2.48 2.48 0 0 0 -.3.34c-.14.17-.33.43-.58.76s-.58.78-1 1.35l.6-.06.55-.07c0-.1-.09-.19-.13-.29a2.8 2.8 0 0 0 -.14-.25l.39-.19c.06.09.11.2.18.33l.19.38c.07.13.13.26.19.39s.11.25.15.35l-.46.19-.09-.26-.12-.28-1.12.16-.56.1a1.73 1.73 0 0 0 -.4.12 1.79 1.79 0 0 0 -.09-.32 1.42 1.42 0 0 0 -.12-.25h.4l.31-.39.33-.44.33-.45c.11-.15.2-.29.29-.43-.3 0-.58.06-.84.09a5 5 0 0 0 -.59.12.89.89 0 0 0 -.06-.31 1.13 1.13 0 0 0 -.13-.27h.37zm.53 3.22c0 .28-.11.55-.18.8s-.16.52-.26.8l-.5-.13a4.44 4.44 0 0 0 .29-.73 4.3 4.3 0 0 0 .19-.84zm.56 1.28c0-.15 0-.29 0-.4a2.88 2.88 0 0 0 -.05-.33c0-.1 0-.2-.08-.31a2.77 2.77 0 0 0 -.09-.33l.36-.11c.08.21.14.42.2.63s.1.46.15.73zm1-.2a5.56 5.56 0 0 0 -.52-1.39l.39-.16c.12.24.22.47.31.7s.17.46.24.7zm2.13-2.23a6.68 6.68 0 0 1 -.2.92 4.39 4.39 0 0 1 -.29.77 3.64 3.64 0 0 1 -.45.68 5.37 5.37 0 0 1 -.63.64 1.55 1.55 0 0 0 -.21-.23 1.06 1.06 0 0 0 -.32-.16 3.45 3.45 0 0 0 1.08-.92 3 3 0 0 0 .54-1.25h-.69l-.43.06v-.55a1.26 1.26 0 0 0 .32 0 3.63 3.63 0 0 0 .5 0h.44a2.11 2.11 0 0 0 .37.04zm-.2-3.61a2.35 2.35 0 0 0 .18-.45 2.63 2.63 0 0 0 .1-.37 1.4 1.4 0 0 0 .59.17c.06 0 .09 0 .08.06s0 .07-.09.1a.88.88 0 0 0 -.15.14 2.46 2.46 0 0 0 -.24.35h2.07.19a3.69 3.69 0 0 0 -.06.69v1.42.35a1.86 1.86 0 0 0 0 .33h-.33-3.28-.29a3 3 0 0 0 .08-.69v-1.5a3.54 3.54 0 0 0 -.06-.69h.47zm2.15 1.21v-.8h-2.75v.8zm-2.75.4v.76h2.75v-.76zm2.08 2.84a6.32 6.32 0 0 0 .69-.74 5.76 5.76 0 0 0 .43-.67 1.44 1.44 0 0 0 .5.34c.08 0 .11.06.11.11s-.06.07-.15.1l-.15.07a2.35 2.35 0 0 0 -.24.17l-.39.33-.6.55a4.37 4.37 0 0 0 .78.77 4.17 4.17 0 0 0 .95.52 1.25 1.25 0 0 0 -.27.23 1 1 0 0 0 -.16.28 5.86 5.86 0 0 1 -1.08-.89 4.36 4.36 0 0 1 -.87-1.25v1.82a1 1 0 0 1 0 .32.44.44 0 0 1 -.18.21.9.9 0 0 1 -.35.11 4.42 4.42 0 0 1 -.59 0 .9.9 0 0 0 -.23-.63l.45.08a.82.82 0 0 0 .28 0 .22.22 0 0 0 .13-.12.67.67 0 0 0 0-.23v-2c0-.14 0-.28 0-.41s0-.25 0-.36 0-.19 0-.24h.32.2c.09 0 .14 0 .16.05s0 .07-.07.11a.23.23 0 0 0 -.09.12 1.51 1.51 0 0 0 0 .38 5.18 5.18 0 0 0 .45.87z"/><path d="m204 118.07c.59 0 1.06 0 1.41-.08v.53a12.62 12.62 0 0 0 -1.41-.07v.65h.92.19a1.85 1.85 0 0 0 0 .25v.34.3a3.52 3.52 0 0 0 .45-.3 4.49 4.49 0 0 0 .4-.37c.13-.14.26-.29.39-.46s.26-.37.4-.59a3.9 3.9 0 0 0 .22-.36 2.3 2.3 0 0 0 .15-.32c0-.1.06-.2.08-.29a2.91 2.91 0 0 0 0-.31l.32.1h.27c.1 0 .15.06.14.11s-.05.08-.13.11a.24.24 0 0 0 -.09.06.68.68 0 0 0 -.12.17 10.4 10.4 0 0 0 1.16 1.4 5 5 0 0 0 1.24.93.91.91 0 0 0 -.23.17 1.05 1.05 0 0 0 -.21.27l-.37-.33c-.13-.11-.25-.23-.37-.35v.4a3.71 3.71 0 0 0 -.53-.06h-1.58a4.15 4.15 0 0 0 -.59.06v-.39a3.24 3.24 0 0 1 -.36.38q-.19.19-.39.36a.86.86 0 0 0 -.14-.18.64.64 0 0 0 -.22-.14v1.34a1.87 1.87 0 0 0 0 .34v.26h-.19-.81v.78h.69a4.34 4.34 0 0 0 .53 0v.55a4.34 4.34 0 0 0 -.53 0c-.19 0-.42 0-.69 0v.42.58s0 .39.06.62h-.59c0-.23 0-.43 0-.62s0-.38 0-.58v-.42h-.88a5.63 5.63 0 0 0 -.63.06v-.55a5.59 5.59 0 0 0 .64.06h.87v-.9h-1-.2a1.61 1.61 0 0 0 0-.26c0-.11 0-.22 0-.34v-1.76c0-.11 0-.22 0-.34a1.47 1.47 0 0 0 0-.25h.2 1v-.65a12.21 12.21 0 0 0 -1.41.07v-.47c.34 0 .81.07 1.41.08 0-.24 0-.45 0-.63s0-.31 0-.39h.3.23.14s0 .07-.09.13a.22.22 0 0 0 -.08.09.44.44 0 0 0 0 .19zm-.46 1.41h-.68v.83h.68zm0 1.2h-.68v.88h.68zm.46-.37h.63v-.83h-.63zm0 1.25h.63v-.88h-.63zm2.12 3.2h-.51c0-.21 0-.41 0-.58s0-.36 0-.56v-2.27c0-.17 0-.31 0-.4a2.48 2.48 0 0 0 0-.27h.42.43 2.15.39.4v.31s0 .23 0 .39v2.43a2.05 2.05 0 0 1 0 .47.55.55 0 0 1 -.16.29.59.59 0 0 1 -.32.13 2.7 2.7 0 0 1 -.54 0 .68.68 0 0 0 0-.29 1.07 1.07 0 0 0 -.18-.28 2.6 2.6 0 0 0 .42 0 .43.43 0 0 0 .24 0 .31.31 0 0 0 .11-.16.94.94 0 0 0 0-.26v-1.17h-.63c0 .39 0 .81.07 1.26h-.59c0-.45.06-.87.07-1.26h-.62c0 .39 0 .81.08 1.27h-.59c0-.46.06-.88.07-1.27h-.64zm0-3.63v1.08h.64v-1.08zm1.25-3.18c-.15.27-.31.53-.49.8s-.38.51-.59.76h1.22.66.51c-.22-.22-.43-.46-.65-.72zm-.17 3.18v1.08h.62v-1.08zm1.7 0h-.63v1.08h.63z"/><path d="m214.65 117.85a2.69 2.69 0 0 0 -.22-.28c-.09-.09-.2-.18-.33-.29l.49-.31a4.18 4.18 0 0 1 .62.88h2.37.53.27v.48h-.28-.49-5.87c0 .88.06 1.66.06 2.33s0 1.27-.05 1.78a8 8 0 0 1 -.21 1.35 5.1 5.1 0 0 1 -.39 1 .84.84 0 0 0 -.29-.13 1 1 0 0 0 -.36 0 3.61 3.61 0 0 0 .33-.5 3 3 0 0 0 .24-.64 5.45 5.45 0 0 0 .17-.86c0-.33.07-.72.08-1.17s0-1 0-1.56-.05-1.28-.1-2h.3.58 2.56zm-.78 4.7.79-.5h-2.11-.33v-.44h.67 2 .34.28v.43a.88.88 0 0 0 -.26 0 1.19 1.19 0 0 0 -.23.13l-.72.51v.32l.69-.11c.22 0 .44-.1.66-.17a1.18 1.18 0 0 0 0 .41l-.68.09-.65.1v.89a.68.68 0 0 1 0 .26.43.43 0 0 1 -.18.17 1.36 1.36 0 0 1 -.39.1c-.17 0-.4 0-.69.05a.87.87 0 0 0 0-.3.67.67 0 0 0 -.14-.26l.52.06h.31a.27.27 0 0 0 .16-.07.25.25 0 0 0 .05-.16v-.67l-.73.13-.79.15a1.84 1.84 0 0 0 -.07-.24 1.34 1.34 0 0 0 -.14-.25h.93l.8-.08zm1.84-2.84h-.39-.37-2-.36-.38v-.53h.38.38.43 1.6.36.36zm-.39 1.64h-.28-1.82-.57c0-.13 0-.24 0-.34s0-.21 0-.36v-.21c0-.06 0-.11 0-.16v-.16s0-.1 0-.17h.32 2.14.21v.33.89s0 .1 0 .18zm-.46-1h-1.72v.65h1.72zm-.79-1.1a2.94 2.94 0 0 0 -.36-.34l-.41-.31.28-.28a7.47 7.47 0 0 1 .79.6zm3.3 1.76a6.07 6.07 0 0 1 .44.44 2.26 2.26 0 0 1 .3.41 1.78 1.78 0 0 1 .18.43 2 2 0 0 1 .06.51 2.21 2.21 0 0 1 0 .48.82.82 0 0 1 -.14.36 1.24 1.24 0 0 1 -.34.28 2.9 2.9 0 0 1 -.59.23.65.65 0 0 0 -.11-.32 1.07 1.07 0 0 0 -.28-.33 1.18 1.18 0 0 0 .82-.17.71.71 0 0 0 .23-.56 1.43 1.43 0 0 0 -.28-.87 4.82 4.82 0 0 0 -.78-.83 8.29 8.29 0 0 0 .44-.73 8.71 8.71 0 0 0 .4-1h-1.16v5.58h-.56c0-.35 0-.69 0-1s0-.67 0-1v-2.7c0-.34 0-.6 0-.79s0-.35 0-.46h.3.26 1.18l.6-.05-.25.61-.23.52c-.08.16-.15.32-.23.47z"/></g><path d="m147.2 88.49h.72v4.33 1a1.4 1.4 0 0 0 .24.66 1.54 1.54 0 0 0 .57.5 1.84 1.84 0 0 0 .8.18 1.72 1.72 0 0 0 .74-.15 1.46 1.46 0 0 0 .54-.44 1.68 1.68 0 0 0 .31-.61 5.25 5.25 0 0 0 .08-1.15v-4.32h.8v4.33a4.84 4.84 0 0 1 -.22 1.67 2 2 0 0 1 -.77 1 2.23 2.23 0 0 1 -1.31.39 2.85 2.85 0 0 1 -1.08-.19 2.28 2.28 0 0 1 -.8-.55 1.9 1.9 0 0 1 -.44-.78 6.31 6.31 0 0 1 -.13-1.51z" fill="#363736"/><path d="m153.66 95.67v-7.36h.67v3a2.67 2.67 0 0 1 2.13-1 2.6 2.6 0 0 1 1.94.83 2.86 2.86 0 0 1 0 4 2.62 2.62 0 0 1 -1.94.83 2.55 2.55 0 0 1 -2.11-1.16v1zm.63-2.69a2.22 2.22 0 0 0 .61 1.57 2.06 2.06 0 0 0 3 0 2.13 2.13 0 0 0 .6-1.55 2.17 2.17 0 0 0 -.6-1.53 2 2 0 0 0 -1.5-.65 2 2 0 0 0 -1.5.61 2.11 2.11 0 0 0 -.61 1.57z" fill="#363736"/><path d="m164.9 94 .58.3a2.73 2.73 0 0 1 -2.54 1.6 2.6 2.6 0 0 1 -2-.82 2.91 2.91 0 0 1 0-4 2.57 2.57 0 0 1 1.94-.83 2.67 2.67 0 0 1 1.94.77 2.9 2.9 0 0 1 .81 2.1h-4.78a2.24 2.24 0 0 0 .61 1.55 1.87 1.87 0 0 0 1.39.58 2.15 2.15 0 0 0 2.05-1.25zm0-1.45a1.82 1.82 0 0 0 -.7-1.19 2 2 0 0 0 -1.29-.43 1.93 1.93 0 0 0 -2 1.62z" fill="#363736"/><path d="m172.22 90.36v5.31h-.67v-.91a2.63 2.63 0 0 1 -4.05.26 2.76 2.76 0 0 1 -.81-2 2.73 2.73 0 0 1 .81-2 2.63 2.63 0 0 1 1.94-.83 2.49 2.49 0 0 1 2.11 1.11v-1zm-.63 2.64a2.07 2.07 0 0 0 -.61-1.53 2.07 2.07 0 0 0 -3 0 2.2 2.2 0 0 0 0 3 2.07 2.07 0 0 0 3 0 2.08 2.08 0 0 0 .61-1.47z" fill="#363736"/><path d="m173.5 90.36h.7v.77a2.81 2.81 0 0 1 .55-.69.88.88 0 0 1 .59-.22 1.33 1.33 0 0 1 .65.18l-.36.58a.59.59 0 0 0 -.31-.09.79.79 0 0 0 -.58.32 2.08 2.08 0 0 0 -.41.83 8.94 8.94 0 0 0 -.13 1.83v1.8h-.7z" fill="#363736"/><path d="m179.52 89.64c.12-.2.21-.38.29-.53l.21-.42c.06-.13.1-.24.14-.33a1.72 1.72 0 0 0 .08-.28l.39.19a3.26 3.26 0 0 0 .4.11c.09 0 .13.05.13.1s0 .09-.17.12l-.11.06a1.17 1.17 0 0 0 -.16.16l-.24.31-.34.51h2.94.58.5.36v.39.4 5.22.41s0 .27 0 .4 0 .23 0 .33 0 .17 0 .23h-.69v-.9h-5.67v1h-.67c0-.15 0-.36 0-.63s0-.59 0-1v-5.13c0-.14 0-.28 0-.41a3.71 3.71 0 0 0 0-.38c.16 0 .41 0 .76.05zm4.31 2.92v-2.4h-5.67v2.4zm-5.67.52v2.45h5.67v-2.45z" fill="#363736"/><path d="m188.18 95.39a4.32 4.32 0 0 1 -.19.48l-.24.5c-.08.17-.17.32-.25.47a2.83 2.83 0 0 1 -.23.34l-.65-.24a8.14 8.14 0 0 0 .58-.81 3.06 3.06 0 0 0 .4-.92zm2.06-5.39q-.13-.17-.27-.3l-.29-.27.38-.36.38.39q.17.16.3.33a4 4 0 0 1 .26.32c.09.11.19.23.3.38l-.44.34-.15-.22a1.43 1.43 0 0 0 -.15-.22l-2.66.18c-.23 0-.42 0-.57 0a2.26 2.26 0 0 0 -.39.07 1.2 1.2 0 0 0 -.2-.63h.49l.52-.48c.15-.15.29-.29.41-.43a4.82 4.82 0 0 0 .36-.43c.11-.15.22-.32.34-.5a2 2 0 0 0 .56.36c.14.06.14.12 0 .17l-.2.12-.28.22c-.11.09-.25.22-.41.38l-.62.59zm-2.42 4.92h-.66c0-.2 0-.38.06-.53a3.17 3.17 0 0 0 0-.41c0-.13 0-.25 0-.36v-1.69c0-.23 0-.42 0-.56a1.84 1.84 0 0 0 -.07-.42h.35.46.51.94.49.47.41c0 .15 0 .3-.07.45s0 .32 0 .53v2.14a1.15 1.15 0 0 1 0 .39.48.48 0 0 1 -.2.25 1.23 1.23 0 0 1 -.42.13 4.81 4.81 0 0 1 -.73 0 .94.94 0 0 0 -.05-.3.78.78 0 0 0 -.17-.3 5.07 5.07 0 0 0 .57 0 .9.9 0 0 0 .33-.07.26.26 0 0 0 .14-.17 1.23 1.23 0 0 0 0-.29v-.33h-2.36zm2.36-2.79v-.61h-2.36v.61zm-2.36.4v.58h2.36v-.58zm1.92 4.68a8.82 8.82 0 0 0 -.2-.89 6.75 6.75 0 0 0 -.29-.83l.55-.13c0 .1.09.23.14.38a3.23 3.23 0 0 1 .15.47c0 .17.09.33.13.49s.07.3.09.41zm2.15-.2c0-.14-.08-.29-.14-.45s-.12-.31-.19-.46-.13-.29-.19-.42a1.31 1.31 0 0 0 -.18-.3l.51-.21c.12.2.24.43.36.68s.26.57.42 1zm.23-4.16a13.46 13.46 0 0 0 1.44-.4 3.53 3.53 0 0 0 .85-.42c.06.09.11.18.17.26s.11.14.17.2.12.15.1.22-.09.08-.23.06a1 1 0 0 0 -.23 0l-.41.07c-.18 0-.41.09-.71.16l-1.15.29v.53a.89.89 0 0 0 0 .26.29.29 0 0 0 .14.15 1.17 1.17 0 0 0 .33.07h.6a5.45 5.45 0 0 0 .79 0 1.07 1.07 0 0 0 .44-.15.53.53 0 0 0 .23-.3 4.94 4.94 0 0 0 .12-.51.89.89 0 0 0 .58.34 2.89 2.89 0 0 1 -.26.62.89.89 0 0 1 -.37.35 1.66 1.66 0 0 1 -.62.15q-.37 0-1 0h-.88a1.09 1.09 0 0 1 -.48-.14.56.56 0 0 1 -.2-.34 4.73 4.73 0 0 1 0-.63v-1.28c0-.17 0-.32 0-.44a3.15 3.15 0 0 0 0-.41 3.06 3.06 0 0 0 .74.09c.1 0 .15 0 .16.08s0 .1-.11.17a.7.7 0 0 0 -.17.51zm0-3.12.79-.18.58-.17.43-.18.36-.21a2 2 0 0 0 .16.28 1.51 1.51 0 0 0 .19.22c.09.08.12.15.1.2s-.09.06-.22 0h-.25a2.77 2.77 0 0 0 -.41 0l-.67.13-1.06.25v.28a1 1 0 0 0 0 .27.27.27 0 0 0 .14.16 1.1 1.1 0 0 0 .33.09h.59a6.13 6.13 0 0 0 .68 0 1 1 0 0 0 .42-.14.62.62 0 0 0 .24-.29 2 2 0 0 0 .14-.47.72.72 0 0 0 .23.23.92.92 0 0 0 .32.1 4.38 4.38 0 0 1 -.28.54.89.89 0 0 1 -.35.32 1.73 1.73 0 0 1 -.55.15 7.1 7.1 0 0 1 -.89 0h-.88a1.09 1.09 0 0 1 -.48-.14.56.56 0 0 1 -.2-.34 4.68 4.68 0 0 1 0-.62v-1c0-.17 0-.32 0-.43a3.37 3.37 0 0 0 0-.4l.34.06a2.39 2.39 0 0 0 .38 0c.1 0 .15 0 .16.05s0 .09-.11.16a.43.43 0 0 0 -.13.22 1.59 1.59 0 0 0 0 .34zm2.4 7.37a9 9 0 0 0 -.6-.93 8.48 8.48 0 0 0 -.71-.88l.44-.3a8.74 8.74 0 0 1 .71.82q.36.46.69 1z" fill="#363736"/><path d="m142.19 86.99h.84v11.26h-.84z" fill="#363736"/><path d="m426 107.9a1.85 1.85 0 0 0 0-.23c0-.08 0-.16 0-.24s0-.15 0-.21 0-.12 0-.16h.33.27.13s0 .07-.1.12a.1.1 0 0 0 0 0 .86.86 0 0 0 0 .13 1.18 1.18 0 0 0 0 .22v2.14.43h-.56c0-.1 0-.21 0-.34s0-.25 0-.36l-.74.13-.61.12-.51.13-.47.12a2.11 2.11 0 0 0 -.1-.3 1.53 1.53 0 0 0 -.16-.26 10 10 0 0 0 1.12-.09q.64-.08 1.47-.24v-.81h-2a2.88 2.88 0 0 0 -.33 0v-.51h.33 2zm-.8 6.87h-.58c0-.16 0-.31 0-.44s0-.25 0-.36 0-.22 0-.32a2.81 2.81 0 0 0 0-.29v-2.08c0-.19 0-.35 0-.48a2.94 2.94 0 0 0 -.05-.35h1.17 3.08 1.1a2.63 2.63 0 0 0 -.06.39v.44 2.72a1.32 1.32 0 0 1 0 .37.45.45 0 0 1 -.24.23 1.9 1.9 0 0 1 -.54.14c-.24 0-.56 0-1 0a.77.77 0 0 0 -.19-.63c.32 0 .58.08.77.09a1.46 1.46 0 0 0 .45 0 .34.34 0 0 0 .2-.13.51.51 0 0 0 0-.22v-.65h-4.2zm4.2-3.1v-.77h-4.2v.77zm-4.2.38v.73h4.2v-.73zm3.13-3.83c.24-.07.46-.13.65-.2l.51-.17a3.52 3.52 0 0 0 .39-.17 1.49 1.49 0 0 0 .3-.18 1.57 1.57 0 0 0 .39.45c.06 0 .08.09.06.13s-.08 0-.17 0a.48.48 0 0 0 -.17 0l-.34.07-.62.16-1 .29v.41a1 1 0 0 0 0 .33.33.33 0 0 0 .14.19.89.89 0 0 0 .34.08 5 5 0 0 0 .59 0 4.51 4.51 0 0 0 .58 0 .63.63 0 0 0 .33-.14.53.53 0 0 0 .17-.28 3.42 3.42 0 0 0 .07-.47 1 1 0 0 0 .51.34 3.17 3.17 0 0 1 -.2.52.68.68 0 0 1 -.27.31 1 1 0 0 1 -.45.14 5.17 5.17 0 0 1 -.76 0 6.58 6.58 0 0 1 -.86 0 1.09 1.09 0 0 1 -.48-.14.49.49 0 0 1 -.2-.3 2.39 2.39 0 0 1 0-.51v-1.08c0-.24 0-.42 0-.57a1.86 1.86 0 0 0 0-.36h.35a1.6 1.6 0 0 0 .31 0c.17 0 .19.06 0 .17a.33.33 0 0 0 -.16.28z" fill="#383736"/><path d="m435.47 110.45a1.37 1.37 0 0 0 -.17-.17l-.24-.2.4-.28.16.18.14.16a1.71 1.71 0 0 1 .11.14l.13.17h2.18.74.64v.55h-.66-.76-1-2.71-1-.8-.69v-.55h.66.76.94zm-1.2 3.09a.45.45 0 0 0 -.2.06c-.07 0-.18.1-.31.19a4.39 4.39 0 0 1 -.6.38c-.21.12-.47.26-.76.4a1.85 1.85 0 0 0 -.17-.27.87.87 0 0 0 -.22-.2 6.41 6.41 0 0 0 .65-.25l.52-.26a4.61 4.61 0 0 0 .43-.29 4.18 4.18 0 0 0 .39-.3l.13.21a1.07 1.07 0 0 0 .14.16c.08.06.11.11.1.15s-.02.02-.1.02zm4-3.74q-.9 0-2.61 0h-1.5-1.09c0-.14 0-.31 0-.52s0-.4 0-.59 0-.4 0-.62 0-.4 0-.53h1.1 3 1.11v.59s0 .37 0 .56 0 .39 0 .59 0 .39.01.52zm-2.17 4.34a1.56 1.56 0 0 1 0 .35.3.3 0 0 1 -.17.2 1.4 1.4 0 0 1 -.4.11c-.18 0-.42 0-.72 0a1.27 1.27 0 0 0 -.08-.31 1.26 1.26 0 0 0 -.2-.29 5 5 0 0 0 .58 0 1.42 1.42 0 0 0 .33 0 .22.22 0 0 0 .14-.12.6.6 0 0 0 0-.2v-1.18h-1.4-1a2.58 2.58 0 0 0 .05-.36v-.88a1.1 1.1 0 0 1 0-.18s0-.11 0-.18h1.06 2.92 1.07v.19 1 .36h-.9-1.2zm1.64-6.16h-4.12v.56h4.12zm-4.12 1.42h4.12v-.52h-4.12zm4.08 2.26h-4v.72h4zm1.21 2.76a8.92 8.92 0 0 0 -1-.56c-.33-.16-.67-.31-1-.46l.27-.44 1.12.51c.35.17.69.33 1 .49z" fill="#383736"/><path d="m441.53 109.7-.3.3-.36.35a1.24 1.24 0 0 0 -.23-.23 1.32 1.32 0 0 0 -.29-.13 7.17 7.17 0 0 0 1.46-1.3 7.37 7.37 0 0 0 1.15-1.78 1.49 1.49 0 0 0 .24.18 1.57 1.57 0 0 0 .26.12c.09 0 .14.07.14.12s-.05.08-.15.12a.69.69 0 0 0 -.23.18 2.9 2.9 0 0 0 -.33.44h2.53.44.4.29l-1.55 1.66h1.35a6.57 6.57 0 0 0 .73 0v.61s0 .41 0 .66 0 .47 0 .7 0 .43 0 .57h-.2-.32-4.46v1.27a1 1 0 0 0 0 .26.31.31 0 0 0 .13.17.7.7 0 0 0 .26.11 3.42 3.42 0 0 0 .43 0h.86q.45 0 .9 0h.85.72a3.85 3.85 0 0 0 .6-.09.79.79 0 0 0 .37-.17.89.89 0 0 0 .21-.34 4.46 4.46 0 0 0 .11-.57.68.68 0 0 0 .25.21.75.75 0 0 0 .3.09 4.33 4.33 0 0 1 -.21.68 1 1 0 0 1 -.27.39.89.89 0 0 1 -.39.19 4.13 4.13 0 0 1 -.61.07h-.41-.64-2.56a5.55 5.55 0 0 1 -.75-.08.93.93 0 0 1 -.41-.15.41.41 0 0 1 -.18-.27 1.62 1.62 0 0 1 0-.41v-2.87c-.08-.29-.1-.64-.13-1.06zm1.06-1.21-.22.29-.22.27-.26.29-.34.33h.31.49 2l1.1-1.24zm-.48 1.66v1.61h2v-1.61zm4.4 1.61v-1.61h-1.86v1.61z" fill="#383736"/><path d="m451.55 108.38h-1.32-1v-.59h.47.52.61 4.71q.57 0 1-.06v.59h-1-1.32-.79l-.16.34-.18.32v4.44.65s0 .4.06.62h-.67q0-.33.06-.63c0-.19 0-.41 0-.64v-3.6a5.37 5.37 0 0 1 -.56.7 7 7 0 0 1 -.68.64 9.52 9.52 0 0 1 -.83.64l-1 .68a.86.86 0 0 0 -.19-.31 2 2 0 0 0 -.3-.24 15.2 15.2 0 0 0 1.37-.78 7.72 7.72 0 0 0 1.07-.82 6 6 0 0 0 .83-.92 6.73 6.73 0 0 0 .62-1.09zm4.45 4.22a14.81 14.81 0 0 0 -1.1-1.26 15.47 15.47 0 0 0 -1.3-1.19l.41-.4c.54.45 1 .88 1.41 1.27s.75.78 1.05 1.14z" fill="#383736"/><path d="m460.07 112a1.55 1.55 0 0 1 -.07.5.86.86 0 0 1 -.22.38 1.13 1.13 0 0 1 -.41.27 3 3 0 0 1 -.65.17 2.34 2.34 0 0 0 -.09-.33 1.8 1.8 0 0 0 -.17-.31 1.48 1.48 0 0 0 .86-.14.65.65 0 0 0 .25-.58 1.8 1.8 0 0 0 -.05-.37 2.39 2.39 0 0 0 -.17-.43 2.93 2.93 0 0 0 -.3-.45 2.41 2.41 0 0 0 -.41-.44c.18-.43.34-.84.47-1.23s.23-.74.31-1.08h-1.27v5.65.45s0 .26 0 .37 0 .23 0 .37h-.63c0-.15 0-.29 0-.43s0-.28 0-.42 0-.29 0-.45v-5.15c0-.1 0-.2 0-.3a2.83 2.83 0 0 0 0-.29c0-.09 0-.17 0-.25h.62 1.27.58c-.07.24-.13.47-.21.71s-.15.47-.22.71l-.24.68c-.08.22-.15.43-.23.61a1.91 1.91 0 0 1 .38.37 2.11 2.11 0 0 1 .28.45 2.22 2.22 0 0 1 .18.49 2.1 2.1 0 0 1 .14.47zm2.44 1.16a1 1 0 0 0 0 .25.9.9 0 0 0 .07.24l-1.53.75a2.69 2.69 0 0 0 -.29.16 3.27 3.27 0 0 0 -.32.25 1.18 1.18 0 0 0 -.17-.24 1.39 1.39 0 0 0 -.25-.23 2.79 2.79 0 0 0 .47-.18v-5.72c0-.18 0-.34 0-.48a3.28 3.28 0 0 0 0-.43h.31.44.51 1.1.52.43.32a1.1 1.1 0 0 0 0 .18s0 .12 0 .18 0 .15 0 .23v1.88.56s0 .33 0 .51a1.24 1.24 0 0 0 -.27 0h-.32-1.17a2.92 2.92 0 0 0 .2.69 5.2 5.2 0 0 0 .32.62l.53-.36.37-.27.29-.26.31-.31a1.56 1.56 0 0 0 .4.46c.06 0 .08.08.07.11s-.07 0-.14 0h-.14a1.06 1.06 0 0 0 -.27.13l-.46.28-.71.49a3.47 3.47 0 0 0 .39.44 3.21 3.21 0 0 0 .41.34 4.92 4.92 0 0 0 .45.28l.54.26a2.26 2.26 0 0 0 -.29.25 1 1 0 0 0 -.2.28 5.92 5.92 0 0 1 -.94-.71 7.87 7.87 0 0 1 -.72-.81 4 4 0 0 1 -.26-.4c-.09-.16-.18-.32-.26-.5a5.2 5.2 0 0 1 -.21-.55 4.58 4.58 0 0 1 -.16-.54h-.88v2.92zm-1.5-5.1v1.09h2.54v-1.09zm0 1.49v1h2.54v-1z" fill="#383736"/><path d="m425.09 123.39-.22.34-.28.4-.3.39a3 3 0 0 1 -.28.31l-.46-.3.37-.34a3.92 3.92 0 0 0 .27-.33 2.84 2.84 0 0 0 .22-.34c.07-.12.15-.26.23-.42zm2.4-1h1.87 1.4v.53h-.71-.8-4.14-.8-.71v-.53h.68.76 1.96v-.89h-1.5-1.12v-.49h1.12 1.5v-.8h-1.51-.58-.51v-.31c0-.1 0-.21 0-.32s0-.23 0-.35v-.23c0-.32 0-.59 0-.81s0-.44-.05-.66h.56 4.64.55v.66s0 .5 0 .81v.44.34s0 .21 0 .31v.31h-.52-.59-1.53v.8h1.54 1.13v.49h-1.13-1.48zm-.49-4.39h-2v2h2zm-.79 1.74a4.86 4.86 0 0 0 -.4-.71 3.74 3.74 0 0 0 -.4-.52l.4-.27c.16.19.31.38.45.58s.28.44.43.7zm.31 4.92a4.38 4.38 0 0 0 -.24-.66 2.48 2.48 0 0 0 -.37-.61l.43-.21a6.59 6.59 0 0 1 .37.6 7.33 7.33 0 0 1 .34.69zm1-4.69h2.1v-2h-2.1zm.91 4.58a3.26 3.26 0 0 0 -.15-.32 1.71 1.71 0 0 0 -.14-.27 2 2 0 0 0 -.18-.26l-.25-.3.42-.26c.15.2.3.4.43.61a6.31 6.31 0 0 1 .35.57zm.77-6-.16.15-.19.23-.27.36-.36.53-.42-.26a6.1 6.1 0 0 0 .52-.62 6.92 6.92 0 0 0 .42-.68zm1.28 6.21q-.1-.18-.21-.33a2.73 2.73 0 0 0 -.21-.3 3.8 3.8 0 0 0 -.28-.33c-.1-.12-.23-.25-.37-.4l.37-.3q.38.38.66.69c.19.21.36.42.51.62z" fill="#383736"/><path d="m435.88 118v-.62a1.83 1.83 0 0 1 0-.21c0-.07 0-.12 0-.18a2.18 2.18 0 0 0 .62 0h.11s0 .07-.06.11a.43.43 0 0 0 0 .07.24.24 0 0 0 0 .12v.23s0 .24 0 .4h2.05a5.64 5.64 0 0 0 .9-.06v.55h-.28-.43-5.25v1.71 1.32a8.8 8.8 0 0 1 -.1 1 4.74 4.74 0 0 1 -.17.82 4.3 4.3 0 0 1 -.26.71c-.1.23-.23.47-.37.72a1.17 1.17 0 0 0 -.25-.16 1.65 1.65 0 0 0 -.34-.12 6.25 6.25 0 0 0 .4-.6 4.1 4.1 0 0 0 .31-.7 6 6 0 0 0 .21-.88 10.41 10.41 0 0 0 .11-1.11c0-.42 0-.89 0-1.42s0-1.13-.08-1.81a3.34 3.34 0 0 0 .41 0h.75.94zm1.42 6.46h-.26-3.11-.26v-.46h.27 3.06.27zm-.88-2.18a1 1 0 0 0 0 .26 1 1 0 0 0 .09.22c-.66.21-1.2.41-1.62.57a7.13 7.13 0 0 0 -.89.42.94.94 0 0 0 -.1-.31 1.88 1.88 0 0 0 -.19-.26h.22l.22-.06v-2.62c0-.25 0-.5 0-.73a5 5 0 0 0 0-.54h.75.87l.91-.08c.3 0 .58-.06.85-.09l.7-.12a2.2 2.2 0 0 0 .46-.13 2.08 2.08 0 0 0 .13.3 1.51 1.51 0 0 0 .18.26c.06.06.07.11.05.14s-.09 0-.17 0a1.36 1.36 0 0 0 -.36 0 4.51 4.51 0 0 0 -.61 0l-.44.06h-.4v.77s.05.53.09.78h1.28c.33 0 .58 0 .76-.05v.51h-.74-1.22c0 .2.1.39.16.59a3.4 3.4 0 0 0 .19.54 3.94 3.94 0 0 0 .23.46 2.44 2.44 0 0 0 .23.32 4 4 0 0 0 .49.44c.12.09.22.13.3.1a.35.35 0 0 0 .16-.27 3.1 3.1 0 0 0 .08-.66 1.47 1.47 0 0 0 .27.25.56.56 0 0 0 .29.1 3.53 3.53 0 0 1 -.26.78.87.87 0 0 1 -.3.38.43.43 0 0 1 -.37 0 1.52 1.52 0 0 1 -.45-.26 4.09 4.09 0 0 1 -.56-.53 3 3 0 0 1 -.41-.6 5.54 5.54 0 0 1 -.3-.73q-.12-.4-.24-.93h-2.1v1.44zm.24-1.19c0-.23-.06-.49-.09-.75s0-.51-.05-.75l-.92.07c-.3 0-.62 0-1 0v1.4z" fill="#383736"/><path d="m443.57 121.31h-2-.6-.4v-.52a4.81 4.81 0 0 0 .52 0h.83 1.07 1.24 2.47s1 0 1.18-.07v.51c-.25 0-.7 0-1.35 0h-2.46l-.33.69h1.1.89.75.65a1.88 1.88 0 0 0 -.06.31v.32 1.59a1.06 1.06 0 0 1 0 .33.33.33 0 0 1 -.18.19 1.09 1.09 0 0 1 -.39.1c-.16 0-.39 0-.66 0a.85.85 0 0 0 -.05-.3.59.59 0 0 0 -.17-.25 4.34 4.34 0 0 0 .53 0 1.15 1.15 0 0 0 .3 0 .26.26 0 0 0 .13-.12.5.5 0 0 0 0-.19v-1.6h-1.28v.7.54.4.32h-.54c0-.18 0-.43 0-.74s0-.72 0-1.22h-1.26v1.22.77h-.52c0-.12 0-.24 0-.36s0-.25 0-.39v-1.24h-.98v2.44h-.55c0-.13 0-.25 0-.36s0-.22 0-.35v-1.58a3.25 3.25 0 0 0 0-.33 2.48 2.48 0 0 0 0-.27h.8 1zm.36-3.38h-1.56-1.16v-.48h.52 4.91.53v.55h-.51-.59-1.64v.58h3.12v1.42h-.55v-1.1h-2.61v1.33.44h-.56q0-.24 0-.45c0-.14 0-.29 0-.46v-.86h-2.61v1.1h-.5v-1.53h1.1 2zm-2.18 1.78v-.38h.31 1 .4v.38h-.4-1zm0 .78v-.4h1.69v.4h-.4-1zm3.14-.77v-.38h1.72v.38zm0 .76v-.37h1.72v.37z" fill="#383736"/><path d="m450.24 120a6.33 6.33 0 0 0 -.65 0 3.14 3.14 0 0 0 -.48.06v-.58l.48.07h.65v-.91c0-.28 0-.52 0-.74s0-.39 0-.54 0-.24 0-.3a1.06 1.06 0 0 0 .31 0h.34q.14 0 .15.06s0 .08-.12.13a.39.39 0 0 0 -.08.1.31.31 0 0 0 0 .13v2a4 4 0 0 0 .87-.08v.58a6.1 6.1 0 0 0 -.87-.07v2.76c.34-.11.67-.25 1-.39a1.26 1.26 0 0 0 0 .28 1.08 1.08 0 0 0 .05.27l-.64.17-.6.19-.64.22-.7.27a1 1 0 0 0 -.09-.31.93.93 0 0 0 -.2-.3c.25 0 .48-.07.7-.12l.62-.14zm4.35-1.63c.21-.28.37-.54.5-.75s.22-.42.31-.62a1.1 1.1 0 0 0 .25.19 1.82 1.82 0 0 0 .28.13c.07 0 .11.06.11.11s0 .07-.1.08a.75.75 0 0 0 -.13.06.67.67 0 0 0 -.17.12 3.22 3.22 0 0 0 -.23.25c-.09.11-.21.25-.34.43h.8.69a1.23 1.23 0 0 0 0 .29v.35s0 .26 0 .39v.39.76a4 4 0 0 0 .05.58h-.47-.51-2.2-.62-.5-.47c0-.17 0-.36 0-.6s0-.48 0-.74 0-.25 0-.38 0-.27 0-.39 0-.25 0-.36 0-.21 0-.29h.43.37 2zm-1.8 6.35h-.56a3.63 3.63 0 0 0 0-.39c0-.15 0-.29 0-.43v-1.39c0-.18 0-.36 0-.53a2.85 2.85 0 0 0 0-.41h.32.41 2.44a5.55 5.55 0 0 0 .77-.06 3.73 3.73 0 0 0 0 .43v.51 1.27.45s0 .31 0 .44h-.56v-.41h-2.82zm1.14-6h-1.61v1.91h1.61zm-.58-.42a3.31 3.31 0 0 0 -.46-.51 3.89 3.89 0 0 0 -.55-.4l.32-.36a5.15 5.15 0 0 1 .56.43c.17.16.34.32.51.5zm-.05 2a4.47 4.47 0 0 0 -.35-.58 2.89 2.89 0 0 0 -.42-.48l.35-.28c.15.16.3.34.45.53a6.71 6.71 0 0 1 .37.56zm2.31 2.4v-.73h-2.82v.73zm-2.82.38v.75h2.82v-.75zm1.62-2.49h1.59v-1.91h-1.61zm1.33-1.47c.09 0 .13.05.13.08s0 .08-.12.11a.26.26 0 0 0 -.1.07 1.31 1.31 0 0 0 -.14.16l-.23.31-.33.51-.38-.19a4 4 0 0 0 .43-.61 3.75 3.75 0 0 0 .29-.67.82.82 0 0 0 .22.16.75.75 0 0 0 .23.16z" fill="#383736"/><path d="m459.91 119.23c0 .66 0 1.25-.1 1.79a8 8 0 0 1 -.28 1.47 5.42 5.42 0 0 1 -.51 1.2 5 5 0 0 1 -.8 1 .69.69 0 0 0 -.24-.22 1.56 1.56 0 0 0 -.34-.1 3.55 3.55 0 0 0 .82-.77 3.47 3.47 0 0 0 .54-1 6.78 6.78 0 0 0 .3-1.43 17.41 17.41 0 0 0 .1-1.89h-.87-.3-.26v-.58h.27 1.16c0-.25 0-.46 0-.64s0-.32 0-.44 0-.23 0-.31 0-.16-.05-.23a2 2 0 0 0 .68.07c.08 0 .13 0 .14.06s0 .1-.07.16a.37.37 0 0 0 -.07.12.77.77 0 0 0 0 .2 3.63 3.63 0 0 0 0 .38v.63h1.41.31l-.14 4.11a6.46 6.46 0 0 1 -.08.81.77.77 0 0 1 -.65.72 7 7 0 0 1 -.77.11.91.91 0 0 0 0-.17.65.65 0 0 0 0-.13.91.91 0 0 0 -.07-.14l-.14-.17h.68a.7.7 0 0 0 .37-.14.55.55 0 0 0 .16-.36 5.08 5.08 0 0 0 0-.65l.12-3.47zm2.79 5.22h-.55c0-.14 0-.27 0-.37s0-.2 0-.29v-.26a2.44 2.44 0 0 0 0-.28v-4.18c0-.17 0-.31 0-.42a2.72 2.72 0 0 0 0-.31h.7.65.64.68a1.12 1.12 0 0 0 0 .29v.44 4 .59s0 .39 0 .63h-.54v-.68h-1.6zm1.6-5.61h-1.6v4.38h1.6z" fill="#383736"/><path d="m468.47 118.34c.1-.17.18-.32.25-.46a3.62 3.62 0 0 0 .17-.35c.05-.11.09-.2.12-.28s.06-.16.08-.24a2.45 2.45 0 0 0 .33.16 2 2 0 0 0 .34.1c.07 0 .11 0 .11.08s-.05.08-.15.1h-.09a1.78 1.78 0 0 0 -.14.14l-.2.26c-.08.11-.18.26-.29.44h3 .42.31v.33.34 4.78.34s0 .2 0 .28 0 .15 0 .2h-.58v-.76h-4.82v.85h-.57q0-.19 0-.54c0-.23 0-.5 0-.82v-4.29c0-.12 0-.24 0-.35s0-.23 0-.32a6.4 6.4 0 0 0 .64 0zm3.67 2.48v-2h-4.82v2zm-4.82.44v2.08h4.82v-2.08z" fill="#383736"/><path d="m474.71 119.43c.2-.34.39-.7.58-1.09s.37-.8.54-1.24a1.24 1.24 0 0 0 .53.25c.09 0 .14.06.15.09s0 .08-.14.12l-.11.09-.19.28c-.09.13-.21.32-.35.56s-.34.55-.57.94h.52.54c.14-.23.26-.43.35-.6s.16-.31.21-.42a1.27 1.27 0 0 0 .51.31c.1 0 .14.06.14.11s0 .08-.12.11a.35.35 0 0 0 -.15.1 2.48 2.48 0 0 0 -.3.34c-.14.17-.33.43-.58.76l-1 1.35.6-.06.55-.07c-.05-.1-.09-.19-.13-.29s-.09-.18-.13-.25l.39-.19c.05.09.11.2.17.33s.13.25.2.38l.18.39c.06.13.11.25.15.35l-.46.19-.09-.26a2.14 2.14 0 0 0 -.12-.28l-1.12.16-.56.1a1.73 1.73 0 0 0 -.4.12 1.22 1.22 0 0 0 -.09-.32 1.42 1.42 0 0 0 -.12-.25h.4l.31-.39.34-.44.32-.45a4.65 4.65 0 0 0 .29-.43c-.3 0-.58.06-.84.09a5.42 5.42 0 0 0 -.59.12.89.89 0 0 0 -.06-.31 1.13 1.13 0 0 0 -.13-.27h.37zm.53 3.22c-.05.28-.11.55-.18.8s-.16.52-.26.8l-.5-.13a4.44 4.44 0 0 0 .29-.73 4.3 4.3 0 0 0 .19-.84zm.56 1.28c0-.15 0-.29-.05-.4a2.88 2.88 0 0 0 -.05-.33c0-.1-.05-.2-.07-.31s-.06-.21-.1-.33l.36-.11c.08.21.14.42.2.63a6.24 6.24 0 0 1 .15.73zm1-.2a4.06 4.06 0 0 0 -.22-.73 5 5 0 0 0 -.3-.66l.39-.16c.12.24.23.47.32.7a5.73 5.73 0 0 1 .23.7zm2.2-2.23a6.75 6.75 0 0 1 -.19.92 4.4 4.4 0 0 1 -.3.77 4.15 4.15 0 0 1 -.44.68 6.43 6.43 0 0 1 -.64.64 1.15 1.15 0 0 0 -.21-.23 1.06 1.06 0 0 0 -.32-.16 3.61 3.61 0 0 0 1.09-.92 3.16 3.16 0 0 0 .53-1.25h-.69l-.43.06v-.55a1.26 1.26 0 0 0 .32 0 3.7 3.7 0 0 0 .5 0h.45a2.11 2.11 0 0 0 .33.04zm-.19-3.61a3.15 3.15 0 0 0 .17-.45 2.63 2.63 0 0 0 .1-.37 1.4 1.4 0 0 0 .59.17c.06 0 .09 0 .08.06s0 .07-.08.1a.64.64 0 0 0 -.16.14 2.46 2.46 0 0 0 -.24.35h2.07.2a3.69 3.69 0 0 0 -.06.69v1.42.35a1.88 1.88 0 0 0 .05.33h-.34-3.28-.29a3 3 0 0 0 .08-.69v-1.5a3.54 3.54 0 0 0 -.06-.69h.47zm2.14 1.21v-.8h-2.75v.8zm-2.75.4v.76h2.75v-.76zm2.09 2.84a7.1 7.1 0 0 0 .68-.74 4.69 4.69 0 0 0 .43-.67 1.44 1.44 0 0 0 .5.34c.08 0 .12.06.11.11s-.06.07-.15.1l-.15.07-.23.17c-.11.08-.24.19-.4.33l-.6.55a4.37 4.37 0 0 0 .78.77 4 4 0 0 0 1 .52 1.11 1.11 0 0 0 -.28.23 1.28 1.28 0 0 0 -.16.28 6.21 6.21 0 0 1 -1.08-.89 4.15 4.15 0 0 1 -.86-1.25v1.82a1 1 0 0 1 -.05.32.44.44 0 0 1 -.18.21.9.9 0 0 1 -.35.11 4.42 4.42 0 0 1 -.59 0 .85.85 0 0 0 -.23-.63 4.08 4.08 0 0 0 .46.08.77.77 0 0 0 .27 0 .2.2 0 0 0 .13-.12.67.67 0 0 0 0-.23v-2c0-.14 0-.28 0-.41s0-.25 0-.36 0-.19 0-.24h.32.29c.09 0 .14 0 .16.05s0 .07-.07.11a.23.23 0 0 0 -.09.12 1.69 1.69 0 0 0 0 .38 4 4 0 0 0 .3.87z" fill="#383736"/><path d="m484.74 118.07c.59 0 1.06 0 1.41-.08v.53a12.62 12.62 0 0 0 -1.41-.07v.65h.92.2a.89.89 0 0 0 -.05.25v.34.3a4.27 4.27 0 0 0 .44-.3 4.49 4.49 0 0 0 .4-.37c.13-.14.26-.29.39-.46s.27-.37.41-.59l.21-.36a2.3 2.3 0 0 0 .15-.32c0-.1.06-.2.08-.29a1.55 1.55 0 0 0 0-.31l.32.1h.28c.09 0 .14.06.13.11s0 .08-.13.11l-.09.06a1.12 1.12 0 0 0 -.12.17 11.21 11.21 0 0 0 1.16 1.4 5 5 0 0 0 1.24.93.91.91 0 0 0 -.23.17.86.86 0 0 0 -.2.27c-.14-.11-.26-.22-.38-.33s-.25-.23-.36-.35v.4a4 4 0 0 0 -.51-.03h-1.51a4.32 4.32 0 0 0 -.59.06v-.39a3.24 3.24 0 0 1 -.36.38q-.19.19-.39.36a.86.86 0 0 0 -.14-.18.7.7 0 0 0 -.21-.14v1.34a1.88 1.88 0 0 0 0 .34 1.3 1.3 0 0 0 0 .26h-.2-.92v.78h.69a4.51 4.51 0 0 0 .54 0v.55a4.51 4.51 0 0 0 -.54 0c-.19 0-.42 0-.69 0v.42.58a4.82 4.82 0 0 0 .05.62h-.59c0-.23 0-.43 0-.62s0-.38 0-.58v-.42h-.88a5.63 5.63 0 0 0 -.63.06v-.55a5.82 5.82 0 0 0 .64.06h.87v-.93h-1-.2a1.61 1.61 0 0 0 0-.26c0-.11 0-.22 0-.34v-1.76c0-.11 0-.22 0-.34a1.47 1.47 0 0 0 0-.25h.2 1v-.65a12.35 12.35 0 0 0 -1.41.07v-.47c.34 0 .81.07 1.41.08a5.78 5.78 0 0 0 0-.63q0-.27 0-.39h.29.29.14s0 .07-.09.13a.22.22 0 0 0 -.08.09.44.44 0 0 0 0 .19zm-.46 1.41h-.68v.83h.68zm0 1.2h-.68v.88h.68zm.46-.37h.63v-.83h-.63zm0 1.25h.63v-.88h-.63zm2.12 3.2h-.51c0-.21 0-.41 0-.58s0-.36 0-.56v-2.27c0-.17 0-.31 0-.4a2.45 2.45 0 0 0 0-.27h.41.43 2.16.38.4v.31s0 .23 0 .39v2.43a2.05 2.05 0 0 1 0 .47.55.55 0 0 1 -.16.29.56.56 0 0 1 -.32.13 2.7 2.7 0 0 1 -.54 0 .68.68 0 0 0 0-.29.86.86 0 0 0 -.18-.28 2.6 2.6 0 0 0 .42 0 .43.43 0 0 0 .24 0 .26.26 0 0 0 .11-.16.88.88 0 0 0 0-.26v-1.17h-.7c0 .39 0 .81.08 1.26h-.6c0-.45.07-.87.08-1.26h-.56c0 .39 0 .81.07 1.27h-.59c0-.46.06-.88.07-1.27h-.64zm0-3.63v1.08h.64v-1.08zm1.25-3.18c-.15.27-.31.53-.49.8s-.38.51-.59.76h1.22.67.5a9.09 9.09 0 0 1 -.64-.72c-.22-.26-.44-.54-.67-.79zm-.16 3.18v1.08h.62v-1.08zm1.7 0h-.65v1.08h.64z" fill="#383736"/><path d="m495.44 117.85a1.79 1.79 0 0 0 -.22-.28c-.09-.09-.2-.18-.33-.29l.49-.31a3.84 3.84 0 0 1 .62.88h2.38.52.28v.48h-.29-.49-5.87c0 .88.06 1.66.07 2.33s0 1.27-.06 1.78a8 8 0 0 1 -.21 1.35 4.15 4.15 0 0 1 -.39 1 .79.79 0 0 0 -.28-.13 1 1 0 0 0 -.36 0 4.78 4.78 0 0 0 .32-.5 3 3 0 0 0 .25-.64 7 7 0 0 0 .16-.86c0-.33.07-.72.08-1.17s0-1 0-1.56-.05-1.28-.1-2h.31.57 2.56zm-.78 4.7.79-.5h-2.11-.33v-.44h.67 2 .34.28v.43a.77.77 0 0 0 -.25 0 .8.8 0 0 0 -.23.13l-.73.51v.32l.69-.11c.22 0 .44-.1.67-.17a1 1 0 0 0 0 .41l-.68.09-.65.1v.89a.68.68 0 0 1 0 .26.43.43 0 0 1 -.18.17 1.36 1.36 0 0 1 -.39.1c-.17 0-.4 0-.69.05a.87.87 0 0 0 0-.3.67.67 0 0 0 -.14-.26l.52.06h.31a.27.27 0 0 0 .16-.07.21.21 0 0 0 .05-.16v-.67l-.73.13-.79.15a1.84 1.84 0 0 0 -.07-.24 2.05 2.05 0 0 0 -.13-.25h.92l.8-.08zm1.84-2.84h-.38-.38-2-.37-.38v-.53h.38.38.44 1.62.36.36zm-.38 1.64h-.29-1.83-.57c0-.13 0-.24 0-.34s0-.21 0-.36v-.21a.81.81 0 0 0 0-.16v-.16s0-.1 0-.17h.32 2.14.22a2.06 2.06 0 0 0 0 .33v.89a1.76 1.76 0 0 0 .01.18zm-.47-1h-1.72v.65h1.72zm-.78-1.1a3 3 0 0 0 -.37-.34l-.41-.31.28-.28a7.47 7.47 0 0 1 .79.6zm3.29 1.76a6.07 6.07 0 0 1 .44.44 2.26 2.26 0 0 1 .3.41 1.78 1.78 0 0 1 .18.43 2 2 0 0 1 .06.51 3.23 3.23 0 0 1 0 .48 1 1 0 0 1 -.15.36 1.24 1.24 0 0 1 -.34.28 3 3 0 0 1 -.58.23.94.94 0 0 0 -.11-.32 1.28 1.28 0 0 0 -.29-.33 1.22 1.22 0 0 0 .83-.17.7.7 0 0 0 .22-.56 1.43 1.43 0 0 0 -.28-.87 4.82 4.82 0 0 0 -.78-.83 6.41 6.41 0 0 0 .44-.73 7.14 7.14 0 0 0 .4-1h-1.16v5.58h-.52c0-.35 0-.69 0-1s0-.67 0-1v-2.7c0-.34 0-.6 0-.79s0-.35 0-.46h.29.26 1.18l.6-.05-.25.61-.23.52c-.08.16-.15.32-.23.47z" fill="#383736"/><path d="m428 88.49h.72v4.33 1a1.45 1.45 0 0 0 .82 1.16 1.76 1.76 0 0 0 .79.18 1.79 1.79 0 0 0 .75-.15 1.64 1.64 0 0 0 .54-.44 1.83 1.83 0 0 0 .38-.57 5.09 5.09 0 0 0 .09-1.15v-4.36h.71v4.33a5.09 5.09 0 0 1 -.22 1.67 2.09 2.09 0 0 1 -.78 1 2.2 2.2 0 0 1 -1.3.39 2.85 2.85 0 0 1 -1.08-.19 2.2 2.2 0 0 1 -.8-.55 1.92 1.92 0 0 1 -.45-.78 6.45 6.45 0 0 1 -.12-1.51z" fill="#363736"/><path d="m434.46 95.67v-7.36h.67v3a2.67 2.67 0 0 1 2.13-1 2.58 2.58 0 0 1 1.93.83 2.85 2.85 0 0 1 0 4 2.63 2.63 0 0 1 -1.94.83 2.54 2.54 0 0 1 -2.11-1.16v1zm.63-2.69a2.18 2.18 0 0 0 .61 1.57 2 2 0 0 0 1.49.64 2 2 0 0 0 1.49-.65 2.14 2.14 0 0 0 .62-1.54 2.17 2.17 0 0 0 -.6-1.53 2 2 0 0 0 -1.5-.65 2 2 0 0 0 -1.51.61 2.1 2.1 0 0 0 -.6 1.57z" fill="#363736"/><path d="m445.7 94 .58.3a2.74 2.74 0 0 1 -2.54 1.6 2.6 2.6 0 0 1 -2-.82 2.93 2.93 0 0 1 0-4 2.59 2.59 0 0 1 1.94-.83 2.67 2.67 0 0 1 1.94.77 2.87 2.87 0 0 1 .82 2.1h-4.78a2.24 2.24 0 0 0 .6 1.55 1.89 1.89 0 0 0 1.4.58 2.16 2.16 0 0 0 2.04-1.25zm0-1.45a1.91 1.91 0 0 0 -.7-1.19 2.07 2.07 0 0 0 -1.29-.43 1.92 1.92 0 0 0 -2 1.62z" fill="#363736"/><path d="m453 90.36v5.31h-.67v-.91a2.64 2.64 0 0 1 -4.06.26 2.8 2.8 0 0 1 -.8-2 2.73 2.73 0 0 1 .81-2 2.62 2.62 0 0 1 1.94-.83 2.51 2.51 0 0 1 2.11 1.11v-1zm-.61 2.64a2.11 2.11 0 0 0 -.61-1.53 2 2 0 0 0 -1.5-.63 2 2 0 0 0 -1.49.65 2.2 2.2 0 0 0 0 3 2 2 0 0 0 1.48.64 2.06 2.06 0 0 0 1.49-.62 2.12 2.12 0 0 0 .63-1.51z" fill="#363736"/><path d="m454.3 90.36h.7v.77a2.8 2.8 0 0 1 .54-.69.9.9 0 0 1 .59-.22 1.37 1.37 0 0 1 .66.18l-.36.58a.61.61 0 0 0 -.31-.09.8.8 0 0 0 -.59.32 2 2 0 0 0 -.4.83 8.25 8.25 0 0 0 -.13 1.83v1.8h-.7z" fill="#363736"/><path d="m459.28 95.58c-.07.11-.15.25-.26.4s-.21.31-.33.47-.23.31-.35.46a4.44 4.44 0 0 1 -.33.37l-.54-.35c.16-.15.31-.28.43-.41s.22-.25.32-.38.18-.26.26-.4l.27-.5zm2.82-1.12h2.2q.9 0 1.65-.06v.6h-.84-.94-4.87-.94-.83v-.63h.79.9 1 1.24v-1h-1.74-1.31v-.58h1.31 1.74v-.79h-1.77-.68-.6v-.37c0-.12 0-.24 0-.37s0-.27 0-.42 0-.31 0-.5c0-.38 0-.7 0-1s0-.52-.05-.78h.65.74 4 .75.65v.78s0 .58 0 1v.51.41s0 .24 0 .36a2.4 2.4 0 0 0 0 .37h-.61-.69-1.75v1.01h1.75 1.32v.58h-1.32-1.75zm-.6-5.24h-2.4v2.32h2.4zm-.92 2a7.35 7.35 0 0 0 -.48-.84 5.14 5.14 0 0 0 -.47-.61l.47-.32a7 7 0 0 1 .53.69c.17.24.33.51.51.82zm.36 5.79a6.16 6.16 0 0 0 -.29-.78 2.86 2.86 0 0 0 -.43-.72l.51-.25c.13.19.27.43.43.71s.28.54.4.81zm1.16-5.52h2.47v-2.27h-2.47zm1.08 5.39-.18-.38c-.06-.11-.11-.22-.17-.32a2.73 2.73 0 0 0 -.21-.3c-.08-.11-.18-.23-.29-.36l.49-.3c.18.23.35.47.51.71s.29.47.41.68zm.9-7.11-.19.18-.23.27c-.09.11-.19.25-.31.42s-.26.37-.42.62l-.5-.3a6.94 6.94 0 0 0 .61-.73c.18-.26.35-.53.5-.8zm1.51 7.31c-.09-.15-.17-.28-.25-.39l-.25-.36c-.1-.12-.2-.25-.33-.38l-.43-.48.43-.35c.3.29.56.57.78.82s.42.49.6.72z" fill="#363736"/><path d="m469 95.39c-.06.15-.12.31-.2.48s-.15.33-.24.5a5.19 5.19 0 0 1 -.25.47c-.08.14-.16.25-.22.34l-.65-.24c.21-.27.4-.54.58-.81a3.66 3.66 0 0 0 .4-.92zm2-5.39-.28-.3-.28-.27.38-.36.38.39.29.33.27.32.3.38-.44.34a2.17 2.17 0 0 1 -.15-.22l-.15-.22-2.66.18c-.24 0-.43 0-.57 0a2 2 0 0 0 -.39.07 1.42 1.42 0 0 0 -.2-.63 4 4 0 0 0 .49 0l.51-.48.42-.43c.12-.14.24-.28.35-.43l.35-.5a1.9 1.9 0 0 0 .56.36c.13.06.13.12 0 .17l-.2.12a2 2 0 0 0 -.28.22c-.12.09-.25.22-.42.38l-.61.59zm-2.42 4.92h-.58c0-.2 0-.38.05-.53s0-.29 0-.41 0-.25 0-.36 0-.23 0-.35v-1.34c0-.23 0-.42 0-.56a2.65 2.65 0 0 0 -.05-.37h.34.47.51.94.48.48.41a2.34 2.34 0 0 0 -.07.45 4.19 4.19 0 0 0 0 .53v2.14a1.48 1.48 0 0 1 0 .39.53.53 0 0 1 -.2.25 1.22 1.22 0 0 1 -.43.13 4.67 4.67 0 0 1 -.72 0 2.34 2.34 0 0 0 -.05-.3 1.17 1.17 0 0 0 -.17-.3 5.07 5.07 0 0 0 .57 0 .84.84 0 0 0 .32-.07.28.28 0 0 0 .15-.17 1.23 1.23 0 0 0 0-.29v-.33h-2.36zm2.42-2.84v-.61h-2.36v.61zm-2.36.4v.58h2.36v-.58zm1.92 4.68a8.86 8.86 0 0 0 -.21-.89c-.08-.29-.18-.57-.28-.83l.55-.13c0 .1.08.23.14.38s.1.3.15.47.09.33.13.49.07.3.09.41zm2.15-.2q-.06-.21-.15-.45c-.05-.16-.12-.31-.18-.46l-.2-.42a1.87 1.87 0 0 0 -.17-.3l.51-.21c.11.2.23.43.35.68s.27.57.43 1zm.23-4.16a12.55 12.55 0 0 0 1.43-.4 3.83 3.83 0 0 0 .86-.42 2.26 2.26 0 0 0 .16.26l.18.2c.08.08.12.15.1.22s-.1.08-.23.06a.94.94 0 0 0 -.23 0l-.41.07-.72.16-1.14.29v.53a.93.93 0 0 0 0 .26.27.27 0 0 0 .15.15 1 1 0 0 0 .33.07h.6a5.39 5.39 0 0 0 .78 0 1.19 1.19 0 0 0 .45-.15.57.57 0 0 0 .22-.3 3.1 3.1 0 0 0 .13-.51.85.85 0 0 0 .27.24.87.87 0 0 0 .31.1 3.44 3.44 0 0 1 -.27.62.89.89 0 0 1 -.37.35 1.65 1.65 0 0 1 -.61.15q-.39 0-1 0h-.88a1 1 0 0 1 -.48-.14.48.48 0 0 1 -.2-.34 3.48 3.48 0 0 1 0-.63v-1.23c0-.17 0-.32 0-.44s0-.26 0-.41a3 3 0 0 0 .74.09c.09 0 .14 0 .16.08s0 .1-.11.17a.66.66 0 0 0 -.17.51zm0-3.12.79-.18.57-.17.44-.18.36-.21a1.33 1.33 0 0 0 .16.28 1.08 1.08 0 0 0 .19.22c.08.08.12.15.1.2s-.1.06-.22 0h-.26a2.67 2.67 0 0 0 -.4 0l-.68.13-1.05.25v.28a1 1 0 0 0 0 .27.24.24 0 0 0 .14.16 1 1 0 0 0 .32.09h.6a6.26 6.26 0 0 0 .68 0 1.15 1.15 0 0 0 .42-.14.76.76 0 0 0 .24-.29 2.69 2.69 0 0 0 .14-.47.63.63 0 0 0 .23.23.86.86 0 0 0 .32.1 4.28 4.28 0 0 1 -.29.54.87.87 0 0 1 -.34.32 1.81 1.81 0 0 1 -.55.15 7.31 7.31 0 0 1 -.89 0h-.88a1 1 0 0 1 -.48-.14.48.48 0 0 1 -.2-.34 3.42 3.42 0 0 1 0-.62v-1c0-.17 0-.32 0-.43s0-.25 0-.4l.33.06a2.52 2.52 0 0 0 .39 0c.09 0 .14 0 .16.05s0 .09-.11.16a.37.37 0 0 0 -.13.22 1.13 1.13 0 0 0 0 .34zm2.4 7.37c-.17-.29-.37-.6-.61-.93a8.46 8.46 0 0 0 -.7-.88l.44-.3a10.53 10.53 0 0 1 .7.82c.25.31.48.63.7 1z" fill="#363736"/><path d="m422.99 86.99h.84v11.26h-.84z" fill="#363736"/><path d="m305.4 321.63h-164.21v-189h164.21zm-163.68-.53h163.16v-187.94h-163.16z" fill="#231815"/><path d="m243.32 237.78c.91.64 3.87 2.23 4.31 3.26 3.07 7.24 9.11 11.8 13.09 18.39a4.32 4.32 0 0 1 .73 1.84c0 .55-.14 1.1-.1 1.66s.4 1.16.95 1.16 1.11-.82 1.74-.72.74.95 1 1.55c.64 1.58 3.05 1.74 4.35.63a6.22 6.22 0 0 0 1.75-4.66c.2-5.75-2.49-11.22-5.74-16-3.47-5.1-7.32-9.86-10.44-15.2" fill="#fff"/><path d="m216.53 226.24c-.83 1.94-11.95 22.65-11.3 41.48.77 22.58 10.88 20.39 22.06 13.54 4.39-2.69 10.44 4.79 15.44 4.59 17.58-.69 16.56-6.47 17.17-21.7.36-8.79-2.44-19-4.33-27.36a29.36 29.36 0 0 0 -2.57-7.39c-24 11.25-36.47-3.16-36.47-3.16z" fill="#fff"/><path d="m254.62 237.27c9-8.2 13.55-16.25 13.76-31.14.16-10.86-4.53-22.32-14.23-32.73-1.27-1.35-14.12-12.18-14-12.51a13 13 0 0 0 -14.75-17.59 12.91 12.91 0 0 0 -9.89 10 52.26 52.26 0 0 0 -7.53.88c-3.53.43-2.39.62-3.67.36-4.27-.88-3.31-.81-5.15 1-.32.31.69-2.07.22-1.66s.06-.16-.8-.44-2.85 2.88-3.57 4.34c-.8 1.62.32-1.51-2 1.12a19.56 19.56 0 0 1 -2.19 1.68h.24a33.17 33.17 0 0 0 -2.89 2.06c-1.32 1.07-2.89 2.23-4.42 3.47a12.6 12.6 0 0 0 -10.63-2.57 12.9 12.9 0 0 0 -9.7 15.46 13.12 13.12 0 0 0 9.47 9.94 79.69 79.69 0 0 0 -1.89 19.2c.26 10.55 2.79 21.4 9.14 29.8 6.78 9 24.2 11.24 34.2 13.29 0 0 1.73-1 1.71-1l27.12 2.92c-.17-.38 11.1-15.56 11.45-15.88z" fill="#fff"/><path d="m212.93 267.8c-8.32 17.56 6.63 26.7 11.51 30 .7.48 2.63-3 3-5.77 2.35-19 10.86-24.62-7.21-39.8" fill="#fff"/><path d="m253.09 267c13.33 15.56-6.46 29.94-10.45 34.3-.58.63.6-.27-4.6-5.16-8.74-8.2-18.84-38.24-9.58-47.38" fill="#fff"/><path d="m256.82 279.09c1.44 4-1.52 7.82-2 8.89-2.35 5.45-8.95 11.06-10.17 17.07-.54 2.63-5.8 1-5.64 0a10.09 10.09 0 0 0 -.35-3.76c-.37-1.83-3.76-9.08-4.54-10.78" fill="#fff"/><path d="m244.67 304.85c.08 1 .15 2.71.72 3.52s1.6 1.24 2.42 2.11a9.08 9.08 0 0 1 1.06 1.09 1.13 1.13 0 0 1 .21.81 1 1 0 0 1 -.57.71 1.84 1.84 0 0 1 -.93.16c-2-.11-3.38-1.91-5.42-1.95a11.36 11.36 0 0 1 -2 0 2.29 2.29 0 0 1 -1.6-1.24c-.53-1.09.11-1.79.44-2.79s-.13-1.77.16-2.67" fill="#fff"/><path d="m209.86 278.87c-1.39 4 1.6 7.8 2.07 8.86 2.41 5.43 9.08 11 10.36 17 .57 2.63 5.81 1 5.64 0a10.13 10.13 0 0 1 .31-3.77c.34-1.83 7.17-21.32 4.64-25" fill="#fff"/><path d="m222.3 304.49c-.07 1.05-.12 2.71-.69 3.53s-1.58 1.26-2.39 2.14a9.1 9.1 0 0 0 -1.05 1.1 1.18 1.18 0 0 0 -.2.81 1 1 0 0 0 .58.71 2 2 0 0 0 .93.14c2-.13 3.36-1.94 5.4-2a11.25 11.25 0 0 0 2 0 2.31 2.31 0 0 0 1.6-1.25c.51-1.11-.14-1.79-.48-2.79s.11-1.77-.18-2.67" fill="#fff"/><path d="m213.83 244.06c-1.61 3.88-2.6 8.07-4.76 11.67a74.72 74.72 0 0 0 -5.74 11.84 4.08 4.08 0 0 0 -.35 1.6c0 .57.32 1.1.4 1.66s-.18 1.27-.75 1.36-1.12-.5-1.68-.35-.61 1.2-.77 1.91c-.33 1.49-2.36 2-3.71 1.34a5.65 5.65 0 0 1 -2.49-3.66c-1.3-4.6-.3-9.56 1.41-14 2.57-6.68 6.09-12.94 8.48-19.7" fill="#fff"/><path d="m225.68 213.3s-3.09-.14-3.79-1.48l-3-5.83 1.51-.78 3 5.82a5.66 5.66 0 0 0 2.22.56 3.25 3.25 0 0 0 2.12-1.06 2.43 2.43 0 0 0 .75-1.65.85.85 0 1 1 1.7-.06 4 4 0 0 1 -1.22 2.89 4.87 4.87 0 0 1 -3.33 1.59z" fill="#231815"/><path d="m218.43 217.12a3.67 3.67 0 0 1 -2.67-1.25.84.84 0 0 1 0-1.2.85.85 0 0 1 1.21 0c1 1 1.9 1 3.6-.22 1.23-.86 1.21-3 1.21-3a.85.85 0 0 1 1.7 0c0 .13.06 3.06-1.93 4.46a5.77 5.77 0 0 1 -3.12 1.21z" fill="#231815"/><path d="m206.7 203.13a3 3 0 1 1 -3.89-1.83 3 3 0 0 1 3.89 1.83z" fill="#140508"/><path d="m204.49 202.56a1 1 0 1 1 -1.46.14 1 1 0 0 1 1.46-.14z" fill="#fff"/><path d="m229.25 191.18a3 3 0 1 1 -3.89-1.83 3 3 0 0 1 3.89 1.83z" fill="#140508"/><path d="m227 190.61a1 1 0 0 1 .14 1.44 1 1 0 1 1 -.14-1.44z" fill="#fff"/><path d="m222.49 207a4.36 4.36 0 0 0 1.81-1.9 2.08 2.08 0 0 0 -1.61-3c-1.77-.1-3.68 1.46-5.14 2.26a10.89 10.89 0 0 0 -3 2.3c-1.13 1.16 1.18 2.92 2.31 3a7.62 7.62 0 0 0 7.34-4.4c1-2.26-.25-4.11-2.7-3" fill="#231815"/><path d="m247.74 313.75h-.18a6.64 6.64 0 0 1 -2.86-1 5.63 5.63 0 0 0 -2.55-.92 6.18 6.18 0 0 0 -.73 0 5.26 5.26 0 0 1 -1.37 0 2.79 2.79 0 0 1 -2-1.51 2.71 2.71 0 0 1 .15-2.51c.09-.21.19-.42.27-.66a3.06 3.06 0 0 0 .05-1.14c0-.26 0-.54 0-.82v-.13a8.08 8.08 0 0 0 -.24-3l-.11-.55c-.14-.68-.86-2.7-3.5-8.49a40.8 40.8 0 0 1 -2.5-4c-.89 3.51-1.94 6.95-2.65 9.31-.42 1.37-.76 2.46-.82 2.79l-.1.55a8.06 8.06 0 0 0 -.21 3v.11.06a5.82 5.82 0 0 1 0 .83 3.07 3.07 0 0 0 .08 1.14 6.32 6.32 0 0 0 .27.65 2.7 2.7 0 0 1 .18 2.51 2.81 2.81 0 0 1 -1.94 1.53 4.94 4.94 0 0 1 -1.38 0 5.86 5.86 0 0 0 -.73 0 5.69 5.69 0 0 0 -2.54.95 6.55 6.55 0 0 1 -2.84 1.06 2.28 2.28 0 0 1 -1.17-.19 1.49 1.49 0 0 1 -.86-1.06 1.62 1.62 0 0 1 .27-1.18 4.42 4.42 0 0 1 .73-.81 4.21 4.21 0 0 0 .37-.36 8.55 8.55 0 0 1 1.17-1 4.38 4.38 0 0 0 1.18-1.09 7.19 7.19 0 0 0 .58-3c-.71-3.3-3.22-6.57-5.65-9.74a36.85 36.85 0 0 1 -4.65-7.05c-.08-.16-.22-.4-.39-.7a18.55 18.55 0 0 1 -1.38-2.71c-3.06-2.71-4.69-8.2-5-16.78 0-.73 0-1.48 0-2.25-.33.79-.63 1.53-.91 2.26a3.44 3.44 0 0 0 -.32 1.39 4 4 0 0 0 .18.78 4.59 4.59 0 0 1 .21.85 1.62 1.62 0 0 1 -1.16 1.91 1.86 1.86 0 0 1 -1.08-.22 1.12 1.12 0 0 0 -.54-.14c-.2.06-.26.43-.33.94a5.06 5.06 0 0 1 -.09.6 2.51 2.51 0 0 1 -1.45 1.72 3.53 3.53 0 0 1 -3 0 6 6 0 0 1 -2.74-4c-1.15-4.07-.67-8.89 1.43-14.35 1.14-3 2.49-5.92 3.81-8.76-9.6-2.52-15.65-5.77-19-10.22-7.26-9.61-9-21.67-9.24-30.09a80.06 80.06 0 0 1 1.82-18.91 13.72 13.72 0 0 1 -7.61-20.37 13 13 0 0 1 8.33-5.98 13.12 13.12 0 0 1 10.74 2.42c.73-.59 1.47-1.16 2.19-1.71l1.92-1.51c.44-.36.91-.71 1.39-1.06h-.16l1.44-1a22.16 22.16 0 0 0 2.1-1.61c.91-1 1.43-1.35 1.92-1.24h.12c.59-1.16 2.6-4.86 4.07-4.39a1.71 1.71 0 0 1 .68.37.5.5 0 0 1 .35.08.56.56 0 0 1 .25.54c.73-.63 1.31-.51 3.72 0l.82.17a1.34 1.34 0 0 0 .76 0 24.15 24.15 0 0 1 2.6-.43 54.93 54.93 0 0 1 7.2-.86 13.44 13.44 0 1 1 25.62 8c.8.85 4.7 4.24 7.6 6.77s5.62 4.88 6.18 5.48c9.57 10.26 14.54 21.7 14.37 33.08-.18 12.2-3.21 20.37-10.45 28.09 1.19 1.74 2.44 3.47 3.65 5.14s2.51 3.48 3.73 5.26c4.09 6 6 11.33 5.82 16.28-.08 2.31-.73 4-1.93 5a3.75 3.75 0 0 1 -3.23.74 2.67 2.67 0 0 1 -1.91-1.57l-.15-.44c-.15-.45-.27-.76-.45-.79s-.33.11-.54.26a2 2 0 0 1 -1.12.46 1.62 1.62 0 0 1 -1.45-1.63 4.61 4.61 0 0 1 0-.92 4.84 4.84 0 0 0 .05-.74 3.48 3.48 0 0 0 -.61-1.52 40.78 40.78 0 0 1 .06 4.39c0 1-.07 1.91-.1 2.81-.22 6.37-.39 11-2.44 14.11-.05.26-.11.51-.17.76a13.05 13.05 0 0 1 -2 5.62c-.18.3-.31.54-.39.7a36.82 36.82 0 0 1 -4.57 7.1c-2.38 3.17-4.83 6.45-5.54 9.78a7.22 7.22 0 0 0 .61 3 4.72 4.72 0 0 0 1.19 1.08 7.24 7.24 0 0 1 1.19 1 4.21 4.21 0 0 0 .37.36 4 4 0 0 1 .74.79 1.7 1.7 0 0 1 .29 1.18 1.52 1.52 0 0 1 -.85 1.07 2.22 2.22 0 0 1 -.94.28zm-5.66-2.95h.09a6.49 6.49 0 0 1 3 1 5.79 5.79 0 0 0 2.43.91 1.38 1.38 0 0 0 .68-.1.53.53 0 0 0 .3-.35.67.67 0 0 0 -.14-.45 3.23 3.23 0 0 0 -.57-.61c-.15-.14-.3-.27-.43-.41a6.42 6.42 0 0 0 -1-.86 5.41 5.41 0 0 1 -1.42-1.31 7.57 7.57 0 0 1 -.8-3.52v-.22c.74-3.58 3.28-7 5.74-10.25a36.51 36.51 0 0 0 4.46-6.89 7.68 7.68 0 0 1 .43-.81 12.13 12.13 0 0 0 1.87-5.22v-.13c.06-.27.12-.54.17-.81l.08-.19c1.95-2.88 2.11-7.41 2.33-13.67 0-.9.07-1.84.1-2.82a45.32 45.32 0 0 0 -.21-6.24l-.19-1.95 1.1 1.62c.36.52.71 1.06 1 1.61a3.66 3.66 0 0 1 .74 3 4.8 4.8 0 0 0 -.05.73c0 .33.23.7.46.7a1.29 1.29 0 0 0 .55-.28 1.69 1.69 0 0 1 1.27-.43c.8.13 1.05.9 1.24 1.47 0 .13.08.26.13.38a1.71 1.71 0 0 0 1.22 1 2.73 2.73 0 0 0 2.34-.52c1-.83 1.52-2.28 1.58-4.29.17-4.73-1.68-9.86-5.65-15.69-1.21-1.77-2.48-3.53-3.71-5.23s-2.63-3.64-3.89-5.5l-.23-.33.28-.29c7.25-7.61 10.28-15.64 10.45-27.72.16-11.12-4.71-22.31-14.1-32.38-.53-.56-3.24-2.92-6.1-5.41-8.18-7.11-8.17-7.14-8-7.63a12.45 12.45 0 1 0 -23.7-7.28l-.08.38h-.39a51.61 51.61 0 0 0 -7.46.87 21.14 21.14 0 0 0 -2.54.41 2.07 2.07 0 0 1 -1.18 0l-.82-.17c-2.6-.54-2.59-.54-3.27.2-.2.21-.44.46-.76.77l-.28.27-.38-.18c-.38-.23-.26-.59 0-1.31 0-.08 0-.18.08-.28l-.14-.29s0-.1-.32-.19-1.85 1.83-3 4.08c-.23.45-.41.8-.82.77a.53.53 0 0 1 -.44-.35 6.07 6.07 0 0 0 -.83.81 6.69 6.69 0 0 1 -.88.75h.48l-1.65 1a28.6 28.6 0 0 0 -2.84 2c-.61.49-1.26 1-1.94 1.52s-1.65 1.27-2.48 1.95l-.32.26-.31-.26a12.11 12.11 0 0 0 -10.15-2.44 12 12 0 0 0 -7.67 5.42 12.72 12.72 0 0 0 7.47 19l.47.12-.1.48a79.31 79.31 0 0 0 -1.9 19.12c.2 8.28 1.94 20.12 9 29.52 3.29 4.34 9.34 7.52 19 10l.58.15-.38.82c-1.34 2.91-2.74 5.93-3.91 9-2 5.25-2.49 9.87-1.4 13.72a5.1 5.1 0 0 0 2.24 3.35 2.45 2.45 0 0 0 2.1 0 1.55 1.55 0 0 0 .89-1 4.17 4.17 0 0 0 .08-.51c.08-.65.2-1.54 1-1.78a1.76 1.76 0 0 1 1.2.18 1 1 0 0 0 .53.15c.24 0 .37-.46.33-.79a4 4 0 0 0 -.17-.68 4.61 4.61 0 0 1 -.23-1 4.48 4.48 0 0 1 .39-1.81c.55-1.44 1.2-3 2-4.7l1.12-2.44-.17 2.68c-.11 1.7-.13 3.27-.08 4.78.28 8.26 1.87 13.68 4.73 16.13l.09.09v.11a16.15 16.15 0 0 0 1.35 2.68c.2.35.36.62.44.81a36.51 36.51 0 0 0 4.53 6.84c2.5 3.26 5.08 6.62 5.85 10.18v.07.07a7.58 7.58 0 0 1 -.76 3.61 5.17 5.17 0 0 1 -1.41 1.33 6.92 6.92 0 0 0 -1 .87c-.14.14-.28.28-.43.41a3.61 3.61 0 0 0 -.57.62.71.71 0 0 0 -.13.45.53.53 0 0 0 .3.35 1.45 1.45 0 0 0 .69.09 5.7 5.7 0 0 0 2.41-.93 6.49 6.49 0 0 1 3-1.08h.83a4.1 4.1 0 0 0 1.11 0 1.77 1.77 0 0 0 1.23-1 1.74 1.74 0 0 0 -.18-1.67 7.15 7.15 0 0 1 -.31-.74 3.83 3.83 0 0 1 -.12-1.52 5 5 0 0 0 0-.77v-.09a8.86 8.86 0 0 1 .23-3.3l.1-.54c.07-.38.38-1.39.84-2.91.8-2.63 2-6.6 3-10.51l.31-1.3.62 1.19a44.63 44.63 0 0 0 3.08 5.15c2.23 4.87 3.4 7.72 3.62 8.8l.11.54a9.15 9.15 0 0 1 .26 3.32v.08a4.82 4.82 0 0 0 0 .76 3.86 3.86 0 0 1 -.1 1.53c-.09.26-.2.51-.3.74-.28.64-.47 1.06-.17 1.68a1.76 1.76 0 0 0 1.25 1 3.68 3.68 0 0 0 1.1 0c.39-.1.63-.12.88-.12z" fill="#231815"/><path d="m421.25 132.9h163.69v188.47h-163.69z" fill="#231815"/><path d="m524.08 241.61c.88.52 3.71 1.76 4.14 2.69 3 6.51 8.79 10.28 12.64 16.11a3.54 3.54 0 0 1 .72 1.66c0 .51-.12 1-.08 1.55s.39 1.06.92 1 1-.85 1.64-.81.72.82 1 1.36c.63 1.43 2.92 1.39 4.15.25a6.28 6.28 0 0 0 1.62-4.5c.13-5.39-2.49-10.28-5.63-14.46-3.36-4.48-7.07-8.61-10.09-13.35" fill="#150505"/><path d="m499.53 292c.54 1.21 6.39 10.42 6 11.67-.41.9-1.17 2.14-.37 3 .48.55 1.21.86 1.6 1.48a9.3 9.3 0 0 1 .63 2.06c.24.69 1 1.33 1.61 1 1-.53.23-2.7.39-3.61.4-2.3 1.2-4.45 1.56-6.75.52-3.24 3.79-11.57 4.31-14.8" fill="#150505"/><path d="m537.87 269.07c-.85 9.51-15.47 23.87-22.36 25.74a17.68 17.68 0 0 1 -3 .47 2.43 2.43 0 0 1 -1.23-.1c-.62-.3-4-.63-4.17-1.16-3.24-8.1-2.87-6-2.8-13.43.05-5.7-2.25-9-2-11.32a5.65 5.65 0 0 1 1-2.4c1.47-2.38 4.23-4.68 7.77-4.31" fill="#150505"/><path d="m506.16 296c.11 1.32 3.52 6.19 3 7.41-.49.85-1.37 2-.66 3 .43.59 1.12 1 1.46 1.62a9.26 9.26 0 0 1 .42 2.12c.17.7.85 1.41 1.51 1.14 1-.43.49-2.66.73-3.56.62-2.24 1.62-4.3 2.21-6.56.82-3.17 5.68-7.54 6.51-10.71" fill="#150505"/><path d="m522.71 265.32c3.28 9.27-4 27.24-9.58 31.06a17.33 17.33 0 0 1 -2.61 1.35 2.22 2.22 0 0 1 -1.17.26c-.7-.1-3.91.58-4.33.14-6.45-6.72-5.21-4.84-8.32-11.9-2.39-5.43-7.16-8.51-7.94-10.74a5.55 5.55 0 0 1 -.15-2.56c.34-2.7 3.13-5.1 6.55-5.8" fill="#150505"/><path d="m491.17 232.28c-.47 1.85-7.12 21.21-7.12 34.44 0 11 6.14 18.4 27.37 16.71a153.28 153.28 0 0 0 15.58-1.78c7.75-1.48 16.13-8.9 12-24a150.73 150.73 0 0 0 -8.49-22.3 25.57 25.57 0 0 0 -3.69-6.16c-19.94 7.25-35.65 3.09-35.65 3.09z" fill="#150505"/><path d="m462 164.36a7.83 7.83 0 0 0 -.38 3.91 5.69 5.69 0 0 0 2.27 3.27c4.08 3 9 1.83 11-3.09a5.5 5.5 0 0 0 .47-2.36 6.79 6.79 0 0 0 -1.49-3.6 8.34 8.34 0 0 0 -3.14-2.85c-2.51-1.17-5.86.59-7.64 2.43a5 5 0 0 0 -1 2.08z" fill="#150505"/><path d="m507.53 150.94a5.8 5.8 0 0 0 -.59 2.15c-.21 3.15 3.78 6 6.53 6.86 2.18.66 4.83.24 6.24-1.54a5.83 5.83 0 0 0 1-2c1-3.35-.32-8.29-3.85-9.68s-7.68.84-9.33 4.21z" fill="#150505"/><path d="m525.32 158.26c-10.76-6.28-22.84-9-35.57-4.48-2.62.94-5.25 1.57-7.8 2.76a48.64 48.64 0 0 0 -13.55 9.36 38.49 38.49 0 0 0 -4.74 5.68c-3.47 5-5.13 8.24-6.34 14.48a85.12 85.12 0 0 0 -1.61 19.59c.43 10.61 6.75 24 15.28 30.82 4.61 3.67 10.83 5.58 16.36 6.92 30.86 7.44 70.28-12.23 62.92-47.79-2.55-12.35-14.27-31.11-24.95-37.34z" fill="#150505"/><path d="m485.18 154.12a1.43 1.43 0 0 1 -.35.45c.32-.22-1-.25-1-.24-.59.1-1 1-1.45 1.34-1.08.93-2.14 1.54-2.24 3.14 0-.38 7.55-.43 8.07-.52a22.34 22.34 0 0 0 10.37-4.89c.31-.26.64-.64.49-1s-.54-.41-.88-.45a45.09 45.09 0 0 1 -5.56-.92c-1.71-.41-2.05.06-3.32 1.13-.32.27.77-1.93.29-1.56-.33.25.07-.15-.75-.44s-2.91 2.61-3.67 3.96z" fill="#150505"/><path d="m487.25 254.09c-.88-.51-3.34-2.38-4.36-2.3-7.15.55-13.26-2.69-20.23-3.22a3.63 3.63 0 0 0 -1.79.19c-.47.21-.86.61-1.32.83a1 1 0 0 1 -1.33-.32c-.25-.56.23-1.33-.1-1.83s-1.06-.23-1.65-.18c-1.55.15-2.63-1.87-2.23-3.5a6.24 6.24 0 0 1 3.14-3.61c4.65-2.73 10.2-2.82 15.37-2.11 5.55.75 11 2 16.58 2.32" fill="#150505"/><path d="m487.22 254.15c-.21-.12-.52-.32-.87-.55-1.05-.7-2.62-1.75-3.4-1.75h-.06c-4.15.32-8-.66-11.79-1.6a49.21 49.21 0 0 0 -8.44-1.62 3.56 3.56 0 0 0 -1.76.18 3.39 3.39 0 0 0 -.65.41 5.32 5.32 0 0 1 -.67.42 1.34 1.34 0 0 1 -1 .06.79.79 0 0 1 -.45-.41 1.72 1.72 0 0 1 0-.93 1.3 1.3 0 0 0 -.06-.9c-.24-.36-.7-.28-1.19-.2l-.4.06a1.9 1.9 0 0 1 -1.63-.72 3.35 3.35 0 0 1 -.67-2.87 6.16 6.16 0 0 1 3.17-3.65c3.92-2.31 9-3 15.41-2.12 1.94.26 3.88.59 5.77.91a100.2 100.2 0 0 0 10.8 1.41v.14a103.16 103.16 0 0 1 -10.83-1.42c-1.88-.31-3.82-.64-5.76-.9-6.41-.88-11.43-.19-15.32 2.1a6.05 6.05 0 0 0 -3.11 3.57 3.18 3.18 0 0 0 .65 2.74 1.8 1.8 0 0 0 1.36.68h.14l.4-.06c.48-.08 1-.18 1.32.26a1.4 1.4 0 0 1 .08 1 1.62 1.62 0 0 0 0 .85.62.62 0 0 0 .37.34 1.16 1.16 0 0 0 .87-.06 4.37 4.37 0 0 0 .65-.4 2.83 2.83 0 0 1 2.5-.61 50.73 50.73 0 0 1 8.47 1.61c3.74.94 7.6 1.92 11.74 1.6h.14c.82 0 2.35 1 3.48 1.76.35.23.65.43.86.55z" fill="#fff"/><path d="m515.58 189.06c-8.11 2.05-19.76 9.16-16.89 19.18 2 7.08 11.48 10 17.95 9.33a27.66 27.66 0 0 0 5.88-1.33c7-2.37 16.3-9.34 14.19-18s-13.63-11.08-21.13-9.18z" fill="#fff"/><path d="m511.2 196.32c1.27-.84 8.06-3.71 9.61-3.85s.69 3.32.08 4.23c-1.32 2-4 3.47-6.42 2.71-1.06-.33-4.6-2.2-3.27-3.09z" fill="#231815"/><path d="m515.31 205.77a8.66 8.66 0 0 0 9.35-3.72c.49-.76-.73-1.47-1.21-.71a7.23 7.23 0 0 1 -7.76 3.07.71.71 0 0 0 -.38 1.36z" fill="#140509"/><path d="m520 204.83a35.76 35.76 0 0 0 -4.15-9.52l.63-.4a37 37 0 0 1 4.25 9.72z" fill="#231815"/><path d="m522 182c1.23 1.67 3.19 2.32 4.4 1.44s1.18-2.95-.05-4.63-3.2-2.32-4.4-1.44-1.13 2.96.05 4.63z" fill="#fff"/><path d="m495.56 188.73c.12 2.07 1.43 3.68 2.91 3.59s2.59-1.85 2.47-3.92-1.43-3.68-2.92-3.59-2.58 1.84-2.46 3.92z" fill="#fff"/><path d="m522.79 181.83a6.25 6.25 0 0 0 2.26-.46 2.54 2.54 0 0 0 1.34-1.39.38.38 0 0 0 -.26-.46.39.39 0 0 0 -.47.26 1.8 1.8 0 0 1 -1 1 5.71 5.71 0 0 1 -1.84.34.39.39 0 0 0 -.38.38.37.37 0 0 0 .38.37z" fill="#231815"/><path d="m496.18 189.43a5.5 5.5 0 0 0 4.18-.58.37.37 0 0 0 -.38-.64 4.82 4.82 0 0 1 -3.6.51.37.37 0 0 0 -.2.71z" fill="#231815"/><path d="m508.66 311.83a1.54 1.54 0 0 1 -.51-.1 2.25 2.25 0 0 1 -1.2-1.32 6.52 6.52 0 0 1 -.22-.87 3.41 3.41 0 0 0 -.36-1.09 3.05 3.05 0 0 0 -.78-.73 6.12 6.12 0 0 1 -.78-.68c-.92-1-.29-2.36.14-3.24l.15-.33c.08-.81-3.15-6.29-4.53-8.64-.44-.74-.82-1.39-1.09-1.87a18.91 18.91 0 0 1 -2.39-4.59c-.25-.56-.52-1.2-.85-1.94a19.38 19.38 0 0 0 -2.38-3.95c-6.93-2.45-10.31-7.61-10.31-15.76a72.16 72.16 0 0 1 1.54-13.43 5.24 5.24 0 0 0 -2.16-1c-4.23.33-8.15-.66-11.93-1.62a49.93 49.93 0 0 0 -8.37-1.6 3.26 3.26 0 0 0 -1.55.14 3.49 3.49 0 0 0 -.58.37 5.44 5.44 0 0 1 -.74.46 1.76 1.76 0 0 1 -1.31.07 1.18 1.18 0 0 1 -.69-.64 1.94 1.94 0 0 1 -.06-1.16 1.21 1.21 0 0 0 0-.6c-.08-.11-.38-.08-.76 0l-.43.06a2.38 2.38 0 0 1 -2-.87 3.82 3.82 0 0 1 -.76-3.25 6.58 6.58 0 0 1 3.37-3.92c3.7-2.18 8.36-2.95 14.21-2.35l-.66-.51c-8.37-6.67-15-20.08-15.47-31.19a85.24 85.24 0 0 1 1.63-19.68c1.22-6.25 2.92-9.55 6.24-14.41a6 6 0 0 1 -2-3.17 8.41 8.41 0 0 1 .39-4.16l.06-.21a5.47 5.47 0 0 1 1.16-2.29c1.71-1.76 5.31-3.88 8.21-2.53a7.5 7.5 0 0 1 2.43 1.87 50.72 50.72 0 0 1 7.14-4.35 9.42 9.42 0 0 1 1.13-1l.44-.38a3.24 3.24 0 0 0 .37-.42 2.4 2.4 0 0 1 1.31-1 3.12 3.12 0 0 1 1 0c.45-.8 2.76-4.72 4.27-4.19a1.71 1.71 0 0 1 .63.37.54.54 0 0 1 .35.1.57.57 0 0 1 .21.64 2.83 2.83 0 0 1 2.53-.25 42.35 42.35 0 0 0 4.91.83 37.74 37.74 0 0 1 9.2-.08l.24-.57c1.66-3.39 6.05-6 9.95-4.46 3.5 1.38 5 5.83 4.36 9.35 1.43.68 2.84 1.43 4.19 2.22 11.14 6.51 22.68 25.59 25.18 37.67 3.16 15.25-2 28.91-14.5 38.51 1.78 2.63 3.78 5.15 5.73 7.58 1.18 1.49 2.41 3 3.57 4.58 4 5.29 5.84 10.12 5.73 14.77a6.56 6.56 0 0 1 -1.78 4.85 3.81 3.81 0 0 1 -3.22.91 2.32 2.32 0 0 1 -1.73-1.32c0-.12-.1-.26-.15-.41-.13-.36-.24-.64-.38-.65a1.25 1.25 0 0 0 -.52.3 2 2 0 0 1 -1 .51 1.21 1.21 0 0 1 -.9-.29 1.71 1.71 0 0 1 -.57-1.18 4.17 4.17 0 0 1 0-.87 3.22 3.22 0 0 0 0-.68 3.28 3.28 0 0 0 -.63-1.43c-.13-.18-.25-.37-.39-.56 2.08 10.77-2.62 16.35-5.8 18.81a55.21 55.21 0 0 1 -13.19 13.52 37.31 37.31 0 0 1 -2.46 3.54c-1.37 1.81-2.79 3.69-3.18 5.19a36 36 0 0 1 -1.15 3.46c-.38 1-.76 2-1.05 3.11a4.78 4.78 0 0 0 -.06 1.08c0 1.06 0 2.38-1 2.8a1.31 1.31 0 0 1 -1.11 0 2.24 2.24 0 0 1 -1-1.19 1.51 1.51 0 0 1 -.75 1.21 1.24 1.24 0 0 1 -.58.1zm-25.66-60.54a6.57 6.57 0 0 1 3 1.34l.28.19-.06.33a72.16 72.16 0 0 0 -1.59 13.57c0 7.84 3.11 12.56 9.78 14.87l.14.05.1.12a20.51 20.51 0 0 1 2.59 4.26c.32.75.6 1.39.85 2a18.55 18.55 0 0 0 2.29 4.44l1.13 1.92c3.34 5.67 4.88 8.54 4.61 9.48l-.19.42c-.45.94-.74 1.64-.29 2.14a3.91 3.91 0 0 0 .64.55 3.79 3.79 0 0 1 1 1 3.89 3.89 0 0 1 .5 1.43 6.14 6.14 0 0 0 .18.74 1.23 1.23 0 0 0 .63.72.29.29 0 0 0 .27 0c.36-.19.26-1.17.18-1.89a4.9 4.9 0 0 1 0-1.36l.24-1.22.66.66a2.9 2.9 0 0 1 .61.78 4.17 4.17 0 0 1 .36 1.48 4.85 4.85 0 0 0 .11.75 1.25 1.25 0 0 0 .55.77.32.32 0 0 0 .28 0c.37-.16.36-1.15.35-1.87a5.67 5.67 0 0 1 .09-1.36c.3-1.1.7-2.16 1.08-3.19a34.16 34.16 0 0 0 1.13-3.37c.43-1.68 1.91-3.64 3.34-5.54a35.34 35.34 0 0 0 2.45-3.52l.06-.1.09-.07a54 54 0 0 0 13.15-13.47l.11-.12c3.2-2.44 8.1-8.29 5-20.08l-.6-2.25 1.47 1.8c.71.88 1.31 1.69 1.83 2.48a4.14 4.14 0 0 1 .8 1.9 4.29 4.29 0 0 1 -.05.88 4 4 0 0 0 0 .68.72.72 0 0 0 .22.49.19.19 0 0 0 .15.06 1.5 1.5 0 0 0 .53-.31 1.73 1.73 0 0 1 1.2-.51c.8.06 1.07.82 1.25 1.32a2.68 2.68 0 0 0 .13.34 1.33 1.33 0 0 0 1 .74 2.83 2.83 0 0 0 2.34-.66 5.69 5.69 0 0 0 1.46-4.14c.11-4.42-1.7-9.05-5.53-14.15-1.15-1.55-2.37-3.08-3.56-4.56-2.05-2.57-4.17-5.22-6-8l-.26-.39.38-.29c12.45-9.36 17.6-22.78 14.49-37.79-2.45-11.87-13.78-30.62-24.71-37-1.43-.84-2.93-1.63-4.46-2.35l-.36-.17.08-.38c.69-3.19-.62-7.4-3.67-8.59-3.39-1.34-7.22 1-8.68 4a5.85 5.85 0 0 0 -.32.82l-.12.4h-.42a37 37 0 0 0 -9.41 0h-.13a43.88 43.88 0 0 1 -5.08-.86c-1.31-.32-1.57-.09-2.56.75l-.61.52-.37-.2c-.36-.25-.23-.59 0-1.27 0-.07.06-.16.09-.25l-.12-.27c0-.07-.17-.13-.28-.17-.42 0-1.88 1.66-3.06 3.74 0 .08-.09.16-.14.24v.07l-.26.21-.12.1-.29-.41h-.44a.44.44 0 0 0 .23.34 3.9 3.9 0 0 0 -.78-.07c-.14 0-.43.39-.65.66a3.93 3.93 0 0 1 -.49.56l-.47.39a7.83 7.83 0 0 0 -1.06 1l-.16.13a48.84 48.84 0 0 0 -7.46 4.58l-.38.29-.3-.37a7.06 7.06 0 0 0 -2.39-2c-2.15-1-5.25.45-7.07 2.33a4.48 4.48 0 0 0 -.92 1.88l-.06.2a7.42 7.42 0 0 0 -.38 3.66 5.19 5.19 0 0 0 2 2.9l.38.29-.27.4-.5-.17.41.29c-3.42 5-5.05 8-6.26 14.28a84.4 84.4 0 0 0 -1.6 19.48c.44 10.85 6.93 23.94 15.09 30.45a24.44 24.44 0 0 0 2.37 1.63l2.05 1.26-3-.44c-6.32-.86-11.24-.19-15 2.05a5.64 5.64 0 0 0 -2.91 3.3 2.77 2.77 0 0 0 .55 2.36 1.36 1.36 0 0 0 1.14.53l.36-.06c.53-.08 1.33-.22 1.76.46a1.74 1.74 0 0 1 .15 1.29 1.43 1.43 0 0 0 0 .61.25.25 0 0 0 .13.11.8.8 0 0 0 .54-.05 3.59 3.59 0 0 0 .57-.36 4.33 4.33 0 0 1 .75-.47 4 4 0 0 1 2-.22 50 50 0 0 1 8.54 1.62c3.88 1 7.54 1.9 11.61 1.59z" fill="#fff"/></svg>