<svg viewBox="0 0 777.93 490.27" xmlns="http://www.w3.org/2000/svg"><path d="m0 0h777.93v490.27h-777.93z" fill="#fff"/><path d="m179.14 282.52c0-.15 0-.29 0-.4s0-.22 0-.31a4.71 4.71 0 0 0 .74-.06c.26 0 .5-.07.74-.12a5.92 5.92 0 0 0 .67-.18c.21-.08.39-.15.55-.23a1.46 1.46 0 0 0 .17.29 1 1 0 0 0 .17.2c.08.08.1.14.08.2s-.11.07-.25 0h-.23-.35a5.84 5.84 0 0 0 -.63.09l-1.1.17v1.5h1.5.42.34v.57h-.35-.42-1.49v2.53c.42-.19.81-.39 1.19-.6s.7-.4 1-.59a2.84 2.84 0 0 0 .06.29 1.38 1.38 0 0 0 .1.22l-2.15 1.18-.44.25a4.64 4.64 0 0 0 -.4.26 1 1 0 0 0 -.13-.29 1.14 1.14 0 0 0 -.23-.28l.24-.1.24-.1zm6.35-.77c0 .13 0 .27-.05.4s0 .28 0 .43v3.69a2 2 0 0 1 0 .39.48.48 0 0 1 -.2.25 1.14 1.14 0 0 1 -.42.14l-.76.09a1.3 1.3 0 0 0 -.06-.32 2 2 0 0 0 -.22-.36 2.67 2.67 0 0 0 .56.08.94.94 0 0 0 .36 0 .42.42 0 0 0 .19-.15.62.62 0 0 0 0-.25v-3.86h-1.8v6.51h-.6c0-.32 0-.63 0-.91s0-.56 0-.83v-4.43a5 5 0 0 0 -.06-.83c.18 0 .39 0 .63.06h1.73c.31-.06.52-.07.7-.1z" fill="#383736"/><path d="m191.51 283.39h-.2-.31-2.78a18.12 18.12 0 0 1 -.21 2.83 5.07 5.07 0 0 1 -.68 1.89 1.07 1.07 0 0 0 -.22-.15 1.59 1.59 0 0 0 -.33-.08 3.54 3.54 0 0 0 .35-.51 3.11 3.11 0 0 0 .26-.61 3.75 3.75 0 0 0 .18-.75c.05-.28.08-.61.11-1q.07-.9.06-1.8c0-.6 0-1.2-.07-1.81h.28a2.21 2.21 0 0 0 .39 0h1.25a14.87 14.87 0 0 0 1.92-.08 8.12 8.12 0 0 0 0 .9v.68s-.01.37 0 .49zm-.51-1.54h-2.78v1.07h2.78zm-.79 5.56v.67s0 .42.05.65h-.62c0-.24 0-.45.06-.65s0-.43 0-.67v-2.41h-.87v2.52h-.52a10.19 10.19 0 0 0 .08-1.33v-1.64a1.6 1.6 0 0 0 .23 0h.27.81c0-.14 0-.27 0-.37a2 2 0 0 0 0-.26c0-.08 0-.15 0-.21s0-.13 0-.2h.33.33.1s0 .05-.07.08a.29.29 0 0 0 -.11.11.21.21 0 0 0 0 .14v.63h.88.28a1 1 0 0 0 .24 0v2.26a.68.68 0 0 1 0 .26.29.29 0 0 1 -.13.18.85.85 0 0 1 -.3.12 4.34 4.34 0 0 1 -.53.08 1.11 1.11 0 0 0 -.18-.57 1.87 1.87 0 0 0 .37 0 .41.41 0 0 0 .21 0 .24.24 0 0 0 .1-.15 2.07 2.07 0 0 0 0-.29v-1.36h-.92zm2.63-5.16a.25.25 0 0 0 -.09.23v2.52.69s0 .46.05.66h-.61c0-.2 0-.41.05-.61s0-.46 0-.74v-1.86c0-.28 0-.52 0-.69a3.35 3.35 0 0 0 -.06-.44l.32.06h.29.12s-.01.14-.07.18zm1.45-1.07c-.08 0-.11.11-.11.23v6.35a2 2 0 0 1 -.05.46.43.43 0 0 1 -.19.28 1 1 0 0 1 -.44.14 5.7 5.7 0 0 1 -.8 0 .82.82 0 0 0 0-.33 1.1 1.1 0 0 0 -.17-.28c.26.05.46.07.62.09a.87.87 0 0 0 .35 0 .26.26 0 0 0 .16-.15.72.72 0 0 0 0-.28v-5.37c0-.31 0-.58 0-.84s0-.44 0-.56a1.72 1.72 0 0 0 .64.06.12.12 0 0 1 .14.06c-.07.06-.09.1-.15.14z" fill="#383736"/><path d="m196.65 284.5-.32-.31-.31-.27-.36-.24a4.6 4.6 0 0 0 -.45-.24l.31-.41.82.54c.24.18.48.36.69.54zm.76 1c-.12.28-.24.54-.35.78l-.33.73-.37.76c-.14.26-.29.57-.46.91a3.13 3.13 0 0 0 -.3-.2 2.53 2.53 0 0 0 -.29-.14 7.78 7.78 0 0 0 .95-1.46 6.7 6.7 0 0 0 .59-1.77 1.39 1.39 0 0 0 .22.21 2 2 0 0 0 .34.17zm-.34-2.77-.35-.33-.33-.28c-.11-.09-.23-.17-.35-.25l-.4-.25.32-.39.37.26.34.25.35.25.38.3zm2.63 4.66c.05 0 .07.06.07.08a.08.08 0 0 1 -.08 0 1.47 1.47 0 0 0 -.29.12 3 3 0 0 0 -.51.37l-.24.2-.28.2-.33.2-.41.23a.78.78 0 0 0 -.17-.26l-.28-.21a4.6 4.6 0 0 0 1.08-.48 4 4 0 0 0 1-.82l.28.21zm.58-5.46a3.55 3.55 0 0 0 -.57-.43 7.59 7.59 0 0 0 -.76-.39l.33-.34.37.19.32.18.32.2c.1.08.22.15.35.24l-.33.35h1.43.52l.46-.05v1.48h-.5v-1h-4.28v1.19h-.49v-1.64l.44.05h.5 1.89zm-.51 1.51h-.85l-.63.05v-.49h.3.33 2.33.33.3v.49l-.69-.05h-.91v.66h1.12l.89-.05a1.79 1.79 0 0 0 0 .23v.28s0 .23 0 .38v1.15.39s0 .2 0 .29 0 .18 0 .29l-1.06-.07h-1.28-.52-.56-.56-.52c0-.09 0-.17 0-.25s0-.16 0-.26 0-.23 0-.38 0-.36 0-.61 0-.4 0-.55 0-.29 0-.4 0-.21 0-.3v-.24l1 .05h1zm0 1.05h-1.42v.84h1.42zm0 1.22h-1.42v.88h1.42zm.51-.38h1.45v-.84h-1.45zm0 1.26h1.45v-.88h-1.45zm2.32 2.08a5.15 5.15 0 0 0 -.41-.32l-.42-.28c-.16-.1-.34-.19-.55-.3l-.74-.36.31-.37.67.34.52.29.47.28.5.31z" fill="#383736"/><path d="m204.87 283.61-.3.3-.36.35a1.24 1.24 0 0 0 -.21-.26 1.32 1.32 0 0 0 -.29-.13 7.43 7.43 0 0 0 1.46-1.29 7.64 7.64 0 0 0 1.15-1.79 1.49 1.49 0 0 0 .24.18 1.57 1.57 0 0 0 .26.12c.09 0 .14.07.14.12s-.05.09-.15.12a.69.69 0 0 0 -.23.18 2.9 2.9 0 0 0 -.33.44h2.53.44.4.29l-1.56 1.74h1.35a4.74 4.74 0 0 0 .73-.05v.61s0 .41 0 .66 0 .47 0 .7 0 .43 0 .57h-.2-.32-4.46v1.27a1 1 0 0 0 0 .26.31.31 0 0 0 .13.17.7.7 0 0 0 .26.11 3.42 3.42 0 0 0 .43.05h.86.9.85.72a5.91 5.91 0 0 0 .6-.08.91.91 0 0 0 .37-.18.89.89 0 0 0 .21-.34 3.2 3.2 0 0 0 .11-.57.68.68 0 0 0 .25.21.75.75 0 0 0 .3.09 4.33 4.33 0 0 1 -.21.68 1 1 0 0 1 -.27.39.89.89 0 0 1 -.39.19 4.13 4.13 0 0 1 -.61.07h-.41-.64-2.61a5.55 5.55 0 0 1 -.75-.08.93.93 0 0 1 -.41-.15.41.41 0 0 1 -.18-.27 1.62 1.62 0 0 1 0-.41v-2.86c-.04-.35-.06-.73-.09-1.12zm1.06-1.21-.22.29-.22.27-.26.29-.34.33h.31.49 2l1.1-1.24zm-.48 1.66v1.61h2v-1.61zm4.4 1.61v-1.61h-1.85v1.61z" fill="#383736"/><path d="m220.38 282.4-.48.37a2.65 2.65 0 0 0 -2.18-1.06 2.58 2.58 0 0 0 -1.87.77 2.61 2.61 0 0 0 0 3.72 2.63 2.63 0 0 0 1.92.75 2.72 2.72 0 0 0 2.15-1l.48.36a2.9 2.9 0 0 1 -1.14.91 3.75 3.75 0 0 1 -1.52.31 3.25 3.25 0 0 1 -2.38-.92 3.13 3.13 0 0 1 -.93-2.32 3.14 3.14 0 0 1 1.62-2.76 3.47 3.47 0 0 1 1.64-.41 3.62 3.62 0 0 1 1.57.33 2.86 2.86 0 0 1 1.12.95z" fill="#383736"/><path d="m223.19 287.53a1.69 1.69 0 0 1 -1.52-.82 5.65 5.65 0 0 1 0-4.78 1.7 1.7 0 0 1 1.51-.81 1.78 1.78 0 0 1 1.55.83 4.15 4.15 0 0 1 .57 2.37 4.1 4.1 0 0 1 -.58 2.38 1.78 1.78 0 0 1 -1.53.83zm0-5.83a1.19 1.19 0 0 0 -1.09.68 4 4 0 0 0 -.39 2c0 1.76.49 2.63 1.48 2.63a1.26 1.26 0 0 0 1.13-.69 3.9 3.9 0 0 0 .4-2 3.81 3.81 0 0 0 -.41-1.94 1.25 1.25 0 0 0 -1.11-.68z" fill="#383736"/><path d="m228.17 287.37.86-6.1h.1l2.48 5 2.46-5h.1l.87 6.1h-.6l-.6-4.37-2.15 4.37h-.16l-2.18-4.4-.6 4.4z" fill="#383736"/><path d="m237.83 287.53a1.7 1.7 0 0 1 -1.52-.82 5.65 5.65 0 0 1 0-4.78 1.71 1.71 0 0 1 1.51-.81 1.78 1.78 0 0 1 1.55.83 4.07 4.07 0 0 1 .58 2.37 4.18 4.18 0 0 1 -.58 2.38 1.81 1.81 0 0 1 -1.54.83zm0-5.83a1.2 1.2 0 0 0 -1.1.68 4 4 0 0 0 -.39 2c0 1.76.5 2.63 1.49 2.63a1.24 1.24 0 0 0 1.12-.69 3.89 3.89 0 0 0 .41-2 3.7 3.7 0 0 0 -.42-1.94 1.25 1.25 0 0 0 -1.09-.68z" fill="#383736"/><path d="m242.61 281.27h.7l1.56 2.52 1.54-2.52h.7l-1.94 3.19v2.91h-.59v-2.91z" fill="#383736"/><path d="m249.7 287.53a1.69 1.69 0 0 1 -1.52-.82 5.65 5.65 0 0 1 0-4.78 1.7 1.7 0 0 1 1.51-.81 1.78 1.78 0 0 1 1.55.83 4.15 4.15 0 0 1 .57 2.37 4.1 4.1 0 0 1 -.58 2.38 1.78 1.78 0 0 1 -1.53.83zm0-5.83a1.19 1.19 0 0 0 -1.09.68 4 4 0 0 0 -.39 2c0 1.76.49 2.63 1.48 2.63a1.26 1.26 0 0 0 1.13-.69 3.9 3.9 0 0 0 .4-2 3.71 3.71 0 0 0 -.41-1.94 1.25 1.25 0 0 0 -1.11-.68z" fill="#383736"/><path d="m255 281.27h.63v2.29l2.43-2.29h.82l-2.98 2.73 3.16 3.36h-.8l-2.68-2.84v2.84h-.58z" fill="#383736"/><path d="m261.55 287.53a1.69 1.69 0 0 1 -1.51-.82 5.65 5.65 0 0 1 0-4.78 1.69 1.69 0 0 1 1.51-.81 1.79 1.79 0 0 1 1.55.83 4.15 4.15 0 0 1 .57 2.37 4.1 4.1 0 0 1 -.58 2.38 1.79 1.79 0 0 1 -1.54.83zm0-5.83a1.2 1.2 0 0 0 -1.1.68 4 4 0 0 0 -.39 2c0 1.76.5 2.63 1.49 2.63a1.26 1.26 0 0 0 1.13-.69 3.9 3.9 0 0 0 .4-2 3.7 3.7 0 0 0 -.42-1.94 1.23 1.23 0 0 0 -1.09-.68z" fill="#383736"/><path d="m89.06 106.53h.72v4.33 1a1.66 1.66 0 0 0 .24.65 1.42 1.42 0 0 0 .58.5 1.78 1.78 0 0 0 1.54 0 1.61 1.61 0 0 0 .54-.43 1.7 1.7 0 0 0 .32-.58 4.93 4.93 0 0 0 .09-1.14v-4.33h.71v4.33a5.14 5.14 0 0 1 -.22 1.67 2.14 2.14 0 0 1 -.78 1 2.2 2.2 0 0 1 -1.3.39 2.85 2.85 0 0 1 -1.08-.2 2.18 2.18 0 0 1 -.8-.54 2.06 2.06 0 0 1 -.45-.78 6.45 6.45 0 0 1 -.12-1.51z" fill="#363736"/><path d="m95.52 113.71v-7.36h.67v3a2.67 2.67 0 0 1 2.13-1 2.57 2.57 0 0 1 1.93.82 2.86 2.86 0 0 1 0 4 2.63 2.63 0 0 1 -1.94.83 2.54 2.54 0 0 1 -2.11-1.16v1zm.63-2.69a2.18 2.18 0 0 0 .61 1.57 2 2 0 0 0 3 0 2.21 2.21 0 0 0 0-3 1.93 1.93 0 0 0 -1.5-.65 2 2 0 0 0 -1.51.61 2.07 2.07 0 0 0 -.6 1.45z" fill="#363736"/><path d="m106.76 112 .58.3a2.76 2.76 0 0 1 -2.54 1.6 2.61 2.61 0 0 1 -2-.83 2.92 2.92 0 0 1 0-4 2.55 2.55 0 0 1 1.94-.83 2.63 2.63 0 0 1 1.94.77 2.87 2.87 0 0 1 .82 2.1h-4.78a2.21 2.21 0 0 0 .6 1.54 1.9 1.9 0 0 0 1.4.59 2.17 2.17 0 0 0 2.04-1.24zm0-1.45a1.88 1.88 0 0 0 -.7-1.19 2.07 2.07 0 0 0 -1.29-.43 1.92 1.92 0 0 0 -2 1.62z" fill="#363736"/><path d="m114.08 108.4v5.31h-.67v-.91a2.69 2.69 0 0 1 -2.08 1.09 2.65 2.65 0 0 1 -2-.84 2.8 2.8 0 0 1 -.8-2 2.73 2.73 0 0 1 .81-2 2.61 2.61 0 0 1 1.94-.82 2.51 2.51 0 0 1 2.11 1.11v-1zm-.63 2.68a2.15 2.15 0 0 0 -.61-1.54 2 2 0 0 0 -1.5-.62 2 2 0 0 0 -1.49.64 2.14 2.14 0 0 0 -.61 1.53 2.1 2.1 0 0 0 .62 1.52 2 2 0 0 0 1.48.65 2.06 2.06 0 0 0 1.49-.62 2.15 2.15 0 0 0 .62-1.56z" fill="#363736"/><path d="m115.36 108.4h.7v.77a2.46 2.46 0 0 1 .54-.69.9.9 0 0 1 .59-.22 1.37 1.37 0 0 1 .66.18l-.36.58a.61.61 0 0 0 -.31-.09.77.77 0 0 0 -.59.32 2 2 0 0 0 -.4.82 8.42 8.42 0 0 0 -.13 1.84v1.8h-.7z" fill="#363736"/><path d="m121.38 107.68c.11-.2.21-.38.29-.54s.15-.3.2-.42a2.16 2.16 0 0 0 .14-.33 2.13 2.13 0 0 0 .09-.27 2.2 2.2 0 0 0 .39.18l.4.12c.08 0 .13 0 .13.1s-.06.08-.17.12a.3.3 0 0 0 -.11.06.52.52 0 0 0 -.16.15 3.43 3.43 0 0 0 -.24.31 5.27 5.27 0 0 0 -.34.52h3.51.5.37v.39s0 .26 0 .4v5.53.39s0 .23 0 .33a1.44 1.44 0 0 0 0 .24h-.69v-.9h-5.69v1h-.67q0-.24 0-.63c0-.27 0-.59 0-1v-5.03c0-.14 0-.28 0-.42s0-.26 0-.37h.75zm4.31 2.92v-2.4h-5.69v2.4zm-5.67.52v2.45h5.67v-2.45z" fill="#363736"/><path d="m130 113.43c-.06.14-.12.3-.2.47s-.15.34-.24.51a5 5 0 0 1 -.25.46c-.08.14-.16.26-.22.35l-.65-.24c.21-.27.4-.54.58-.81a3.82 3.82 0 0 0 .4-.92zm2.1-5.43-.28-.3a2.37 2.37 0 0 0 -.28-.27l.38-.36.38.39.29.32.27.32.3.39-.44.34a2.22 2.22 0 0 1 -.15-.23l-.15-.21-2.66.18c-.24 0-.43 0-.57 0a1.91 1.91 0 0 0 -.39.08 1.42 1.42 0 0 0 -.2-.63 4 4 0 0 0 .49 0l.51-.49q.22-.21.42-.42c.12-.14.24-.29.35-.44s.23-.31.35-.49a1.9 1.9 0 0 0 .56.36c.13.06.13.11 0 .17a.81.81 0 0 0 -.2.11 2 2 0 0 0 -.28.22l-.42.38-.61.6zm-2.42 4.92h-.68c0-.2 0-.38 0-.53s0-.3 0-.42 0-.24 0-.35 0-.23 0-.35v-1.27c0-.24 0-.43 0-.57a2.7 2.7 0 0 0 -.06-.41h.34.47.51.94.48.48.41a2.34 2.34 0 0 0 -.07.45 4.11 4.11 0 0 0 0 .53v2.14a1.35 1.35 0 0 1 -.05.38.49.49 0 0 1 -.2.25 1.2 1.2 0 0 1 -.43.14 6.42 6.42 0 0 1 -.72 0 1.86 1.86 0 0 0 -.05-.3 1.17 1.17 0 0 0 -.17-.3 4.67 4.67 0 0 0 .57 0 .67.67 0 0 0 .32-.06.27.27 0 0 0 .15-.18 1.14 1.14 0 0 0 0-.28v-.33h-2.36zm2.36-2.79v-.61h-2.36v.61zm-2.36.4v.58h2.32v-.58zm1.92 4.68a8.86 8.86 0 0 0 -.21-.89 8.06 8.06 0 0 0 -.28-.83l.55-.13.14.37q.07.23.15.48l.13.49c0 .16.07.29.09.41zm2.15-.2q-.06-.21-.15-.45c0-.16-.12-.32-.18-.47s-.13-.29-.2-.41a1.87 1.87 0 0 0 -.17-.3l.51-.21c.11.2.23.42.35.68s.27.57.43 1zm.23-4.16c.6-.14 1.08-.28 1.43-.4a3.83 3.83 0 0 0 .86-.42c0 .09.11.17.16.25a2 2 0 0 0 .18.21c.08.08.12.15.1.21s-.1.09-.23.07a.88.88 0 0 0 -.23 0l-.41.07-.72.17-1.14.29v.53a.85.85 0 0 0 0 .25.31.31 0 0 0 .15.15 1 1 0 0 0 .33.08h.6a7.36 7.36 0 0 0 .78 0 1.19 1.19 0 0 0 .45-.15.63.63 0 0 0 .22-.31 3.24 3.24 0 0 0 .13-.5 1.2 1.2 0 0 0 .27.24 1.12 1.12 0 0 0 .31.1 3.79 3.79 0 0 1 -.27.62.89.89 0 0 1 -.37.35 1.6 1.6 0 0 1 -.61.15q-.39 0-1 0c-.38 0-.67 0-.88 0a.91.91 0 0 1 -.48-.14.48.48 0 0 1 -.2-.34 3.42 3.42 0 0 1 0-.62v-1.22c0-.18 0-.33 0-.45s0-.26 0-.4a3 3 0 0 0 .74.09c.09 0 .14 0 .16.07s0 .11-.11.18a.63.63 0 0 0 -.17.51zm0-3.12.79-.19c.22-.06.41-.11.57-.17l.44-.18.36-.2a1.64 1.64 0 0 0 .16.28 1.44 1.44 0 0 0 .19.22c.08.08.12.14.1.19s-.1.07-.22.06h-.26a2.67 2.67 0 0 0 -.4 0l-.68.14-1.05.25v.28a1 1 0 0 0 0 .26.26.26 0 0 0 .14.17 1 1 0 0 0 .32.08 4.64 4.64 0 0 0 .6 0 5.92 5.92 0 0 0 .68 0 1 1 0 0 0 .42-.14.73.73 0 0 0 .24-.28 2.69 2.69 0 0 0 .14-.47.61.61 0 0 0 .23.22.87.87 0 0 0 .32.11 4.28 4.28 0 0 1 -.29.54 1 1 0 0 1 -.34.32 1.81 1.81 0 0 1 -.55.15c-.23 0-.53 0-.89 0s-.67 0-.88 0a.91.91 0 0 1 -.48-.14.48.48 0 0 1 -.2-.34 3.3 3.3 0 0 1 0-.61v-1c0-.18 0-.32 0-.43s0-.25 0-.4l.33.06h.39.16s0 .09-.11.17a.32.32 0 0 0 -.13.21 1.2 1.2 0 0 0 0 .35zm2.4 7.37a9.86 9.86 0 0 0 -.61-.94 8.28 8.28 0 0 0 -.7-.87l.44-.3a8.94 8.94 0 0 1 .7.82c.25.31.48.63.7 1z" fill="#363736"/><path d="m84.05 105.02h.84v11.26h-.84z" fill="#363736"/><path d="m561.73 280.53c0-.16 0-.29 0-.4a3 3 0 0 0 0-.32 6.59 6.59 0 0 0 .75-.05c.25 0 .5-.08.74-.13a5.74 5.74 0 0 0 .66-.18 4.15 4.15 0 0 0 .55-.23 2.28 2.28 0 0 0 .17.3l.17.2c.08.07.11.14.08.19s-.11.08-.25 0h-.22-.35l-.64.09-1.09.18v1.49h.89.6.42a2 2 0 0 0 .34 0v.57h-.35-.42-.6-.88v2.53c.41-.19.8-.39 1.18-.6s.7-.4 1-.59l.07.28a1.36 1.36 0 0 0 .09.23l-2.15 1.17-.43.25-.41.26a1.08 1.08 0 0 0 -.13-.29 1.67 1.67 0 0 0 -.22-.28l.23-.09.24-.1zm6.35-.78c0 .14 0 .27-.05.41s0 .27 0 .42v3.69a1.41 1.41 0 0 1 0 .39.4.4 0 0 1 -.19.25 1.41 1.41 0 0 1 -.43.15c-.19 0-.44.06-.76.08a1 1 0 0 0 -.06-.32 2 2 0 0 0 -.22-.35 5.34 5.34 0 0 0 .56.08.92.92 0 0 0 .36-.05.32.32 0 0 0 .19-.15.49.49 0 0 0 .06-.25v-3.85h-1.81v6.51h-.6c0-.33 0-.63.06-.91s0-.56 0-.84v-4.43a5 5 0 0 0 -.06-.83 5.18 5.18 0 0 0 .64.06h.88.84a5.2 5.2 0 0 0 .59-.06z" fill="#383736"/><path d="m574.11 281.39h-.21-3.09a18.32 18.32 0 0 1 -.21 2.83 5.25 5.25 0 0 1 -.67 1.89.65.65 0 0 0 -.23-.15.88.88 0 0 0 -.33-.08 3.54 3.54 0 0 0 .35-.51 3.39 3.39 0 0 0 .26-.61 3.86 3.86 0 0 0 .18-.76 7.92 7.92 0 0 0 .11-1c.05-.59.07-1.19.07-1.79s0-1.21-.07-1.81h.28.39 1.25a15.76 15.76 0 0 0 1.92-.07 6.25 6.25 0 0 0 -.05.9v.68a3.75 3.75 0 0 0 .05.48zm-.51-1.54h-2.79v1.07h2.79zm-.8 5.56v.67s0 .42.06.65h-.62c0-.23 0-.45.06-.65s0-.42 0-.67v-2.36h-.86v2.52h-.52a12.41 12.41 0 0 0 .07-1.34v-1.63h.23.27.81c0-.15 0-.27 0-.37s0-.19 0-.26 0-.15 0-.21 0-.13 0-.21h.33.34a.1.1 0 0 1 .09 0s0 .05-.07.07a.57.57 0 0 0 -.11.11.23.23 0 0 0 0 .14v.64h.89.27.24v2.25a1.12 1.12 0 0 1 0 .27.4.4 0 0 1 -.14.18.85.85 0 0 1 -.3.12c-.13 0-.31.05-.53.08a1.06 1.06 0 0 0 -.18-.57h.37a.33.33 0 0 0 .21 0 .24.24 0 0 0 .1-.15 1 1 0 0 0 0-.28v-1.43h-.93zm2.63-5.16a.26.26 0 0 0 -.09.23v2.52.68s0 .47 0 .67h-.6c0-.21 0-.41 0-.62s0-.45 0-.73v-1.87c0-.28 0-.51 0-.69a3.88 3.88 0 0 0 -.05-.44l.32.06a1.34 1.34 0 0 0 .28 0h.12s.09.15.02.19zm1.45-1.07a.23.23 0 0 0 -.11.23v6.35a2.71 2.71 0 0 1 0 .46.47.47 0 0 1 -.2.29 1 1 0 0 1 -.44.14 7.64 7.64 0 0 1 -.8 0 1 1 0 0 0 0-.33 1.23 1.23 0 0 0 -.17-.28l.61.08a.92.92 0 0 0 .36 0 .21.21 0 0 0 .15-.14.79.79 0 0 0 0-.28v-5.38c0-.3 0-.58 0-.83a4.35 4.35 0 0 0 -.05-.56 2.32 2.32 0 0 0 .64.06c.08 0 .13 0 .14.06a.1.1 0 0 1 -.13.13z" fill="#383736"/><path d="m579.24 282.51-.31-.31a3.82 3.82 0 0 0 -.32-.27 3.27 3.27 0 0 0 -.36-.25 4.36 4.36 0 0 0 -.44-.24l.3-.4a9.73 9.73 0 0 1 .82.54 7.82 7.82 0 0 1 .69.53zm.77 1-.36.79-.33.72-.37.76c-.13.27-.29.57-.46.91a2.9 2.9 0 0 0 -.29-.19 1.88 1.88 0 0 0 -.29-.14 8 8 0 0 0 1-1.47 7 7 0 0 0 .59-1.76 1.45 1.45 0 0 0 .22.21 1.5 1.5 0 0 0 .28.15zm-.35-2.77-.35-.33-.33-.28-.35-.25-.4-.24.32-.4.37.26.34.25.36.26.38.3zm2.63 4.67c.05 0 .08.05.07.07s0 0-.08.05a1.77 1.77 0 0 0 -.29.12 2.41 2.41 0 0 0 -.5.36l-.25.21-.28.19-.32.2-.41.23a1.17 1.17 0 0 0 -.18-.26 2.09 2.09 0 0 0 -.28-.2 4.87 4.87 0 0 0 1.09-.48 4.42 4.42 0 0 0 .94-.82l.28.2zm.58-5.47a3.24 3.24 0 0 0 -.57-.42 6.64 6.64 0 0 0 -.76-.39l.33-.34.37.19.32.18.32.2.36.23-.34.35h.79.64.52l.46-.05v1.48h-.5v-1h-4.28v1.2h-.53v-1.64h.44a3.63 3.63 0 0 0 .5 0h.74zm-.51 1.51h-.84-.64v-.45h.3.34 2.32.34.29v.48h-.69-.91v.67h1.12l.9-.05a2.08 2.08 0 0 0 0 .23v.28s0 .24 0 .38v1.15.39s0 .21 0 .29 0 .18 0 .29c-.33 0-.68 0-1.07-.06s-.81 0-1.28 0h-1.08-.56-.52c0-.09 0-.17 0-.24s0-.16 0-.27v-.38c0-.15 0-.35 0-.6s0-.4 0-.56 0-.28 0-.39a2.36 2.36 0 0 0 0-.3v-.25l1 .05h1zm0 1.05h-1.42v.84h1.42zm0 1.22h-1.42v.88h1.42zm.51-.38h1.45v-.84h-1.45zm0 1.26h1.45v-.88h-1.45zm2.32 2.08-.4-.32-.43-.28c-.16-.09-.34-.19-.55-.29l-.74-.37.31-.36.67.33.52.29.48.28.49.31z" fill="#383736"/><path d="m587.46 281.61-.3.3-.36.36a1.24 1.24 0 0 0 -.23-.23 1.31 1.31 0 0 0 -.29-.14 7.48 7.48 0 0 0 1.47-1.29 7.9 7.9 0 0 0 1.15-1.78 1.25 1.25 0 0 0 .24.18 1.17 1.17 0 0 0 .25.11c.1 0 .14.08.14.12s0 .09-.15.13a.69.69 0 0 0 -.23.18 4.91 4.91 0 0 0 -.33.43h3 .4a1.12 1.12 0 0 0 .29 0l-1.56 1.75h1.36a5.12 5.12 0 0 0 .72 0v.61 1.36q0 .35 0 .57h-.2-4.83v1.26a1 1 0 0 0 0 .26.46.46 0 0 0 .13.18.71.71 0 0 0 .26.1 2.11 2.11 0 0 0 .43.06h.86.9.85.72a4 4 0 0 0 .6-.08.85.85 0 0 0 .37-.18.62.62 0 0 0 .21-.34 2.91 2.91 0 0 0 .11-.56 1.16 1.16 0 0 0 .25.21.94.94 0 0 0 .31.08 6.4 6.4 0 0 1 -.22.69 1.11 1.11 0 0 1 -.26.38.79.79 0 0 1 -.4.19 4 4 0 0 1 -.6.08h-.42-2.81-.47a5.64 5.64 0 0 1 -.74-.07 1.05 1.05 0 0 1 -.42-.16.44.44 0 0 1 -.18-.26 2.3 2.3 0 0 1 0-.42v-2.86c.03-.45.01-.83-.02-1.22zm1.06-1.2-.21.28-.23.27c-.08.1-.17.19-.26.29l-.33.34h.3 2.5l1.11-1.24zm-.48 1.65v1.62h2v-1.62zm4.4 1.62v-1.62h-1.86v1.62z" fill="#383736"/><path d="m603 280.41-.47.36a2.7 2.7 0 0 0 -2.19-1 2.58 2.58 0 0 0 -1.87.76 2.51 2.51 0 0 0 -.79 1.88 2.48 2.48 0 0 0 .77 1.85 2.65 2.65 0 0 0 1.93.74 2.7 2.7 0 0 0 2.15-1l.47.37a3 3 0 0 1 -1.14.9 3.56 3.56 0 0 1 -1.52.31 3.21 3.21 0 0 1 -2.38-.92 3.14 3.14 0 0 1 -.92-2.32 3.07 3.07 0 0 1 .43-1.6 3 3 0 0 1 1.19-1.15 3.3 3.3 0 0 1 1.63-.42 3.58 3.58 0 0 1 1.57.33 2.8 2.8 0 0 1 1.14.91z" fill="#383736"/><path d="m605.78 285.53a1.71 1.71 0 0 1 -1.52-.81 5.68 5.68 0 0 1 0-4.79 1.7 1.7 0 0 1 1.51-.81 1.8 1.8 0 0 1 1.55.83 5.15 5.15 0 0 1 0 4.75 1.78 1.78 0 0 1 -1.54.83zm0-5.83a1.21 1.21 0 0 0 -1.1.68 4 4 0 0 0 -.39 2c0 1.76.49 2.64 1.49 2.64a1.24 1.24 0 0 0 1.12-.69 3.94 3.94 0 0 0 .41-2 3.72 3.72 0 0 0 -.42-1.95 1.27 1.27 0 0 0 -1.09-.68z" fill="#383736"/><path d="m610.76 285.38.87-6.1h.09l2.48 5 2.47-5h.09l.88 6.1h-.64l-.59-4.37-2.16 4.37h-.15l-2.19-4.4-.59 4.4z" fill="#383736"/><path d="m620.42 285.53a1.7 1.7 0 0 1 -1.51-.81 5.68 5.68 0 0 1 0-4.79 1.69 1.69 0 0 1 1.51-.81 1.81 1.81 0 0 1 1.58.88 4.18 4.18 0 0 1 .57 2.38 4.07 4.07 0 0 1 -.58 2.37 1.77 1.77 0 0 1 -1.57.78zm0-5.83a1.23 1.23 0 0 0 -1.1.68 4 4 0 0 0 -.39 2c0 1.76.5 2.64 1.49 2.64a1.26 1.26 0 0 0 1.13-.69 4 4 0 0 0 .4-2 3.72 3.72 0 0 0 -.42-1.95 1.26 1.26 0 0 0 -1.09-.68z" fill="#383736"/><path d="m625.2 279.28h.71l1.55 2.51 1.54-2.51h.71l-1.94 3.18v2.92h-.6v-2.92z" fill="#383736"/><path d="m632.29 285.53a1.72 1.72 0 0 1 -1.52-.81 5.68 5.68 0 0 1 0-4.79 1.71 1.71 0 0 1 1.51-.81 1.8 1.8 0 0 1 1.55.83 5.15 5.15 0 0 1 0 4.75 1.78 1.78 0 0 1 -1.54.83zm0-5.83a1.22 1.22 0 0 0 -1.1.68 4 4 0 0 0 -.39 2c0 1.76.5 2.64 1.49 2.64a1.24 1.24 0 0 0 1.12-.69 3.94 3.94 0 0 0 .41-2 3.72 3.72 0 0 0 -.42-1.95 1.27 1.27 0 0 0 -1.09-.68z" fill="#383736"/><path d="m637.54 279.28h.63v2.28l2.43-2.28h.83l-2.94 2.72 3.17 3.37h-.81l-2.68-2.85v2.85h-.63z" fill="#383736"/><path d="m643.4 279.28h1.2v6.1h-.6v-5.51h-1z" fill="#383736"/><path d="m648.86 285.53a1.71 1.71 0 0 1 -1.52-.81 5.68 5.68 0 0 1 0-4.79 1.7 1.7 0 0 1 1.51-.81 1.8 1.8 0 0 1 1.55.83 4.18 4.18 0 0 1 .57 2.38 4.07 4.07 0 0 1 -.58 2.37 1.75 1.75 0 0 1 -1.53.83zm0-5.83a1.21 1.21 0 0 0 -1.09.68 4 4 0 0 0 -.39 2c0 1.76.49 2.64 1.48 2.64a1.26 1.26 0 0 0 1.13-.69 4 4 0 0 0 .4-2 3.83 3.83 0 0 0 -.41-1.95 1.27 1.27 0 0 0 -1.11-.68z" fill="#383736"/><path d="m653.56 285.53a1.7 1.7 0 0 1 -1.51-.81 5.68 5.68 0 0 1 0-4.79 1.69 1.69 0 0 1 1.51-.81 1.8 1.8 0 0 1 1.55.83 4.18 4.18 0 0 1 .57 2.38 4.07 4.07 0 0 1 -.58 2.37 1.77 1.77 0 0 1 -1.54.83zm0-5.83a1.23 1.23 0 0 0 -1.1.68 4 4 0 0 0 -.39 2c0 1.76.5 2.64 1.49 2.64a1.26 1.26 0 0 0 1.13-.69 4 4 0 0 0 .4-2 3.72 3.72 0 0 0 -.42-1.95 1.25 1.25 0 0 0 -1.09-.68z" fill="#383736"/><path d="m452.08 106.53h.72v4.33a8.69 8.69 0 0 0 0 1 1.5 1.5 0 0 0 .23.65 1.42 1.42 0 0 0 .58.5 1.8 1.8 0 0 0 .79.19 1.73 1.73 0 0 0 .75-.16 1.61 1.61 0 0 0 .54-.43 1.72 1.72 0 0 0 .31-.61 5.78 5.78 0 0 0 .08-1.14v-4.33h.71v4.33a4.88 4.88 0 0 1 -.22 1.67 2.12 2.12 0 0 1 -.77 1 2.23 2.23 0 0 1 -1.31.39 2.85 2.85 0 0 1 -1.08-.2 2.18 2.18 0 0 1 -.8-.54 2 2 0 0 1 -.44-.78 5.81 5.81 0 0 1 -.13-1.51z" fill="#363736"/><path d="m458.54 113.71v-7.36h.67v3a2.67 2.67 0 0 1 2.13-1 2.61 2.61 0 0 1 1.94.82 2.88 2.88 0 0 1 0 4 2.63 2.63 0 0 1 -1.94.83 2.55 2.55 0 0 1 -2.11-1.16v1zm.63-2.69a2.18 2.18 0 0 0 .61 1.57 2.06 2.06 0 0 0 3 0 2.22 2.22 0 0 0 0-3 1.93 1.93 0 0 0 -1.5-.65 2 2 0 0 0 -1.5.61 2 2 0 0 0 -.61 1.45z" fill="#363736"/><path d="m469.78 112 .58.3a2.75 2.75 0 0 1 -2.54 1.6 2.61 2.61 0 0 1 -2-.83 2.9 2.9 0 0 1 0-4 2.54 2.54 0 0 1 1.94-.83 2.65 2.65 0 0 1 1.94.77 2.9 2.9 0 0 1 .81 2.1h-4.78a2.18 2.18 0 0 0 .61 1.54 1.87 1.87 0 0 0 1.39.59 2.17 2.17 0 0 0 2.05-1.24zm0-1.45a1.84 1.84 0 0 0 -.7-1.19 2 2 0 0 0 -1.29-.43 1.93 1.93 0 0 0 -2 1.62z" fill="#363736"/><path d="m477.1 108.4v5.31h-.67v-.91a2.69 2.69 0 0 1 -2.08 1.09 2.61 2.61 0 0 1 -2-.84 2.76 2.76 0 0 1 -.81-2 2.73 2.73 0 0 1 .81-2 2.62 2.62 0 0 1 1.94-.82 2.49 2.49 0 0 1 2.11 1.11v-1zm-.63 2.68a2.11 2.11 0 0 0 -.61-1.54 2.09 2.09 0 0 0 -3 0 2.2 2.2 0 0 0 0 3 2 2 0 0 0 1.49.65 2 2 0 0 0 1.48-.62 2.15 2.15 0 0 0 .64-1.49z" fill="#363736"/><path d="m478.38 108.4h.7v.77a2.47 2.47 0 0 1 .55-.69.87.87 0 0 1 .59-.22 1.36 1.36 0 0 1 .65.18l-.36.58a.59.59 0 0 0 -.31-.09.74.74 0 0 0 -.58.32 1.92 1.92 0 0 0 -.41.82 8.42 8.42 0 0 0 -.13 1.84v1.8h-.7z" fill="#363736"/><path d="m483.36 113.62-.25.4-.33.47-.36.46c-.12.14-.23.27-.33.37l-.54-.35c.17-.15.31-.29.43-.41s.23-.26.32-.38l.27-.41c.08-.14.17-.31.26-.49zm2.82-1.12h2.2l1.65-.06v.63h-.84-.94-1.11-2.66-1.1-.94-.83v-.63h.79.9 2.28v-1h-1.73l-1.32.05v-.58h1.31 1.74v-.94h-1.77-.68-.6c0-.13 0-.25 0-.37s0-.25 0-.38 0-.27 0-.41v-.5c0-.38 0-.7 0-1s0-.51-.06-.77h.65 5.46.65v.78s0 .57 0 1v.68.4s0 .25 0 .37v.37h-.61-.69-1.81v.86h1.75 1.32v.58l-1.32-.05h-1.75zm-.6-5.24h-2.4v2.32h2.4zm-.92 2a7.7 7.7 0 0 0 -.47-.85 6 6 0 0 0 -.48-.6l.47-.32q.29.33.54.69c.16.24.33.51.5.82zm.36 5.79a5 5 0 0 0 -.29-.79 3 3 0 0 0 -.43-.71l.51-.25a7.44 7.44 0 0 1 .43.7 8.79 8.79 0 0 1 .4.82zm1.16-5.52h2.47v-2.32h-2.47zm1.08 5.39-.18-.39a3.07 3.07 0 0 0 -.17-.31 2.82 2.82 0 0 0 -.21-.31l-.29-.35.49-.3c.18.23.35.47.51.71a6.46 6.46 0 0 1 .41.68zm.9-7.11a1.53 1.53 0 0 0 -.18.18 1.75 1.75 0 0 0 -.23.27 4.51 4.51 0 0 0 -.32.42c-.12.16-.26.37-.42.62l-.5-.3a7.15 7.15 0 0 0 .62-.74c.18-.26.34-.52.49-.79zm1.51 7.31-.24-.4c-.08-.12-.17-.23-.26-.35s-.2-.25-.32-.39l-.44-.47.43-.35c.3.29.56.56.79.81a9 9 0 0 1 .59.73z" fill="#363736"/><path d="m493.06 113.43c-.05.14-.12.3-.2.47s-.15.34-.23.51l-.25.46c-.09.14-.16.26-.23.35l-.65-.24c.21-.27.41-.54.58-.81a3.47 3.47 0 0 0 .4-.92zm2.06-5.44-.27-.3a2.44 2.44 0 0 0 -.29-.27l.38-.36c.15.14.27.27.38.39a4 4 0 0 1 .29.32 4.15 4.15 0 0 1 .27.32l.3.39-.44.34-.15-.23-.15-.21-2.66.18h-.57a1.91 1.91 0 0 0 -.39.08 1.3 1.3 0 0 0 -.2-.63h.49l.52-.49c.15-.14.28-.28.41-.42s.24-.29.36-.44l.34-.49a2 2 0 0 0 .56.36c.13.06.13.11 0 .17a.81.81 0 0 0 -.2.11 2.85 2.85 0 0 0 -.28.22l-.42.38-.61.6zm-2.42 4.92h-.7c0-.2 0-.38.06-.53s0-.3 0-.42 0-.24 0-.35v-1.61c0-.24 0-.43 0-.57a2.7 2.7 0 0 0 -.07-.41h.35.46.51.94.49.47.41a3.5 3.5 0 0 0 -.07.45v.53 2.14a1.35 1.35 0 0 1 -.05.38.44.44 0 0 1 -.2.25 1.21 1.21 0 0 1 -.42.14 6.78 6.78 0 0 1 -.73 0 1.17 1.17 0 0 0 0-.3.93.93 0 0 0 -.17-.3 4.67 4.67 0 0 0 .57 0 .75.75 0 0 0 .33-.06.28.28 0 0 0 .14-.18 1.14 1.14 0 0 0 0-.28v-.33h-2.32zm2.36-2.79v-.61h-2.36v.61zm-2.36.4v.58h2.36v-.58zm1.92 4.68a8.82 8.82 0 0 0 -.2-.89 8 8 0 0 0 -.29-.83l.55-.13c0 .1.09.22.14.37s.1.31.15.48.09.33.13.49.07.29.09.41zm2.15-.2c0-.14-.09-.29-.14-.45s-.12-.32-.19-.47l-.19-.41a2.92 2.92 0 0 0 -.18-.3l.51-.21c.11.2.23.42.36.68s.26.57.42 1zm.23-4.16c.6-.14 1.08-.28 1.44-.4a3.73 3.73 0 0 0 .85-.42 2.2 2.2 0 0 0 .17.25 1.2 1.2 0 0 0 .17.21c.09.08.12.15.1.21s-.1.09-.23.07a.88.88 0 0 0 -.23 0l-.41.07c-.18 0-.42.09-.71.17l-1.15.29v.53a.85.85 0 0 0 0 .25.36.36 0 0 0 .15.15 1 1 0 0 0 .33.08h.6a7.58 7.58 0 0 0 .79 0 1.13 1.13 0 0 0 .44-.15.65.65 0 0 0 .23-.31c0-.13.08-.3.12-.5a1.23 1.23 0 0 0 .28.24 1 1 0 0 0 .3.1 3.86 3.86 0 0 1 -.26.62 1 1 0 0 1 -.37.35 1.71 1.71 0 0 1 -.62.15q-.37 0-1 0c-.37 0-.67 0-.88 0a1 1 0 0 1 -.48-.14.52.52 0 0 1 -.2-.34 3.42 3.42 0 0 1 0-.62v-1.22c0-.18 0-.33 0-.45s0-.26 0-.4a3.06 3.06 0 0 0 .74.09c.09 0 .15 0 .16.07s0 .11-.11.18a.66.66 0 0 0 -.17.51zm0-3.12.79-.19c.22-.06.41-.11.58-.17l.43-.18a3.07 3.07 0 0 0 .36-.2 1.64 1.64 0 0 0 .16.28l.19.22c.09.08.12.14.1.19s-.09.07-.22.06h-.25a2.63 2.63 0 0 0 -.41 0l-.67.14-1.06.25v.28a1 1 0 0 0 0 .26.29.29 0 0 0 .14.17 1 1 0 0 0 .33.08 4.47 4.47 0 0 0 .59 0 5.77 5.77 0 0 0 .68 0 1 1 0 0 0 .42-.14.6.6 0 0 0 .24-.28 2.69 2.69 0 0 0 .14-.47.61.61 0 0 0 .23.22.94.94 0 0 0 .32.11 3.29 3.29 0 0 1 -.29.54.87.87 0 0 1 -.34.32 1.73 1.73 0 0 1 -.55.15c-.23 0-.52 0-.89 0s-.67 0-.88 0a1 1 0 0 1 -.48-.14.52.52 0 0 1 -.2-.34 3.3 3.3 0 0 1 0-.61v-1c0-.18 0-.32 0-.43s0-.25 0-.4l.34.06h.38.16s0 .09-.11.17a.36.36 0 0 0 -.13.21 1.2 1.2 0 0 0 0 .35zm2.4 7.37a9.86 9.86 0 0 0 -.61-.94 8.28 8.28 0 0 0 -.7-.87l.44-.3a8.94 8.94 0 0 1 .71.82q.36.47.69 1z" fill="#363736"/><path d="m447.07 105.02h.84v11.26h-.84z" fill="#363736"/><path d="m487.55 256c1 .74 4.26 2.6 4.65 3.75 2.73 8.07 9.25 13.31 13.11 20.71a4.12 4.12 0 0 1 .64 2c0 .61-.29 1.21-.31 1.82a1.16 1.16 0 0 0 1 1.31c.74 0 1.38-.85 2.1-.71s.76 1.06 1 1.73c.56 1.77 3.35 2 5 .88a7.24 7.24 0 0 0 2.6-5.05c.9-6.31-1.61-12.42-4.83-17.78-3.46-5.74-7.4-11.12-10.4-17.11" fill="#150505"/><path d="m444.87 282.81c-3.25 9.07 3.43 17.26 11.8 30.24.52.8 1.69.93 2.6 1.33a2.26 2.26 0 0 0 1.17.26c.7-.1 3.9.58 4.32.15 6.41-6.58 5.18-4.74 8.27-11.65 2.36-5.3 7.11-8.32 7.88-10.5a5.34 5.34 0 0 0 .15-2.51c-.35-2.64-3.13-5-6.53-5.68" fill="#150505"/><path d="m499.26 283.42c3.25 9.07-3.43 17.26-11.81 30.24-.51.8-1.69.93-2.6 1.33a2.24 2.24 0 0 1 -1.17.26c-.69-.09-3.9.58-4.32.15-6.41-6.57-5.18-4.74-8.26-11.65-2.37-5.3-7.12-8.32-7.89-10.5a5.33 5.33 0 0 1 -.14-2.51c.34-2.64 3.12-5 6.53-5.68" fill="#150505"/><path d="m453.87 304.61a9.77 9.77 0 0 0 -.41 1.59c-.51 2.73 1.34 6.22 1.61 9a14.8 14.8 0 0 0 .65 3.56 15.26 15.26 0 0 1 .62 4.13 6.59 6.59 0 0 1 -1.17 2.85c-.81.83-1.78 1-2.73 1.69a10 10 0 0 0 -1.23.9 1.18 1.18 0 0 0 -.34.77 1 1 0 0 0 .45.8 2 2 0 0 0 .89.3c2 .22 3.65-1.33 5.67-1a12.41 12.41 0 0 0 2 .36 2.33 2.33 0 0 0 1.79-1c.7-1 .18-1.79 0-2.83a5.34 5.34 0 0 1 .25-1.82c1.17-3.46 4.36-6.54 5.57-10 .67-1.9 1.36-3.8 2.11-5.68.3-.75.66-2.27 1.36-2.77z" fill="#150505"/><path d="m491.24 304.58c.73 2.1.09 4.41-.73 6.48-.75 1.91-2 3.71-2.44 5.72a46.2 46.2 0 0 1 -1.58 4.74 4.23 4.23 0 0 0 .33 3.64c.94 1.41 2.8 1.89 4 3.07a1.44 1.44 0 0 1 .5.85c.07.79-.91 1.26-1.7 1.22-1.68-.08-3.17-1.31-4.86-1.31-1.06 0-2.16.5-3.15.13a2 2 0 0 1 -1.21-1.43 6 6 0 0 1 .15-1.88c.64-4.62-3.89-8.27-5.16-12.43a56.89 56.89 0 0 0 -3.07-8.61z" fill="#150505"/><path d="m453 248.9c-.63 1.88-9.13 21.36-10.06 35-.77 11.37 5 21.5 27.93 21.25 5.42-.06 12.68-.71 17.86-1.31 8.44-1 17.28-9.61 13.87-25.49a151.6 151.6 0 0 0 -7.6-23.57 26.2 26.2 0 0 0 -3.54-6.6c-21.92 6.11-38.46.72-38.46.72z" fill="#150505"/><path d="m440 168.25a8.81 8.81 0 0 0 -1.37 4.06 6.36 6.36 0 0 0 1.55 4c3.47 4.21 8.82 4.22 12.13-.49a6 6 0 0 0 1.07-2.38 7.65 7.65 0 0 0 -.65-4.2 9.16 9.16 0 0 0 -2.53-3.82c-2.31-1.88-6.2-.85-8.5.64a5.43 5.43 0 0 0 -1.59 2z" fill="#150505"/><path d="m490.38 165.58a6.23 6.23 0 0 0 -1.14 2.14c-1 3.28 2.41 7.35 5 8.93 2.09 1.26 4.93 1.49 6.83-.05a6.41 6.41 0 0 0 1.51-1.87c1.85-3.3 1.72-8.88-1.58-11.25s-8.09-1.05-10.62 2.1z" fill="#150505"/><path d="m507 177.87c-9.56-9.4-21.37-15.36-35.64-13.78-2.94.32-5.82.33-8.74.94a50.89 50.89 0 0 0 -16.31 6.49 41.3 41.3 0 0 0 -6.3 4.83c-4.82 4.46-7.33 7.44-10.13 13.75a94 94 0 0 0 -6.49 20.38c-2.19 11.37 1 27.21 8.16 36.59 3.85 5.06 9.81 8.68 15.18 11.49 30 15.73 75.62 4.87 76.81-34.73.36-13.75-7.12-36.64-16.54-45.96z" fill="#150505"/><path d="m466.5 163.28a1.39 1.39 0 0 1 -.46.39c.38-.15-1-.51-1-.51-.62 0-1.31.78-1.82 1.05-1.34.72-2.6 1.09-3.09 2.77.12-.4 7.9 1.46 8.47 1.49a23.14 23.14 0 0 0 11.91-2.55c.39-.19.82-.51.76-.95s-.45-.57-.8-.7a46.39 46.39 0 0 1 -5.52-2.39c-1.66-.87-2.13-.45-3.71.36-.39.21 1.27-1.85.7-1.58-.41.18.1-.14-.68-.67s-3.64 2.01-4.76 3.29z" fill="#150505"/><path d="m454.76 258.24c-.88.64-3.78 2.23-4.06 3.24-2 7.1-7.68 11.62-10.76 18.11a3.24 3.24 0 0 0 -.45 1.8c.06.54.35 1.08.41 1.62a.93.93 0 0 1 -.82 1.14c-.69 0-1.34-.78-2-.67s-.64.93-.79 1.52c-.4 1.55-3 1.74-4.58.68a7.1 7.1 0 0 1 -2.75-4.52c-1.27-5.61.64-11 3.27-15.66 2.82-5 6.1-9.72 8.48-15" fill="#150505"/><path d="m474.24 204.06c-10.32 0-26.41 5-26 17.86.29 9.08 10.72 15.46 18.67 16.58a34.27 34.27 0 0 0 7.44.18s26.08-2.09 21.78-21.19c0 0-5.41-13.49-21.89-13.43z" fill="#fff"/><path d="m464.84 210.23c1.82-.47 10.91-1 12.76-.56s-.55 4.14-1.63 5c-2.34 1.77-6.09 2.4-8.58.54-1.1-.87-4.45-4.49-2.55-4.98z" fill="#231815"/><path d="m465.85 222.91a10.65 10.65 0 0 0 12.36-.58.85.85 0 0 0 0-1.18.85.85 0 0 0 -1.18 0 9 9 0 0 1 -10.34.33c-.89-.6-1.72.84-.84 1.43z" fill="#140509"/><path d="m472.52 223.79-.89-.06a43.89 43.89 0 0 0 -1-12.8l.87-.19a45.26 45.26 0 0 1 1.02 13.05z" fill="#231815"/><path d="m467.5 223.18a2.94 2.94 0 0 1 -1.91-1.16c-1.07.47 3.88 9.06 8.33 6.93 2.19-1 3.26-3.74 3.74-4.4s1.42-3.58.48-2.77c-1.24.13-2.83 2.24-3.91 1.92-.69-.2-1.33.11-2.15.06-1.69-.1-3.08-1.08-4.62-.76.45.85.42 1.78 1.41 2.52a4.59 4.59 0 0 0 3.66.66" fill="#140509"/><path d="m484.24 200.05c.87 2.41 3 3.86 4.71 3.23s2.42-3.09 1.54-5.5-3-3.85-4.71-3.22-2.41 3.09-1.54 5.49z" fill="#fff"/><path d="m450.54 198.88c-.57 2.5.42 4.86 2.22 5.26s3.7-1.29 4.27-3.79-.43-4.85-2.22-5.26-3.7 1.29-4.27 3.79z" fill="#fff"/><path d="m484.6 199.8a2.41 2.41 0 1 0 1.75-2.93 2.41 2.41 0 0 0 -1.75 2.93z" fill="#140508"/><path d="m485.8 198.44a.82.82 0 0 0 .54 1 .82.82 0 1 0 -.54-1z" fill="#fff"/><path d="m451 200.5a2.41 2.41 0 1 0 1.76-2.93 2.42 2.42 0 0 0 -1.76 2.93z" fill="#140508"/><path d="m452.22 199.14a.82.82 0 1 0 1-.54.82.82 0 0 0 -1 .54z" fill="#fff"/><path d="m291.21 258.43h30.93v30.93h-30.93z" fill="#fff" stroke="#231815" stroke-miterlimit="10"/><path d="m562.67 324.76c0-.15 0-.29 0-.4v-.32a4.73 4.73 0 0 0 .75-.05c.26 0 .5-.07.74-.12a5.9 5.9 0 0 0 .67-.19 4.84 4.84 0 0 0 .55-.22 1.81 1.81 0 0 0 .17.29 1 1 0 0 0 .17.2.19.19 0 0 1 .08.2c0 .05-.11.07-.25.05h-.23-.35l-.64.08-1.09.18v1.54h1.5.41.34v.57h-.34-.42-1.53v2.53c.42-.19.81-.39 1.18-.6s.71-.4 1-.59a2.84 2.84 0 0 0 .06.29.84.84 0 0 0 .1.22l-2.15 1.17-.44.26a3.07 3.07 0 0 0 -.4.26 1 1 0 0 0 -.13-.29 1.42 1.42 0 0 0 -.23-.28l.24-.1.24-.1zm6.33-.76a2.73 2.73 0 0 0 0 .4v.43 3.69a1.37 1.37 0 0 1 -.05.39.37.37 0 0 1 -.19.24 1.19 1.19 0 0 1 -.43.15 7.51 7.51 0 0 1 -.75.08.89.89 0 0 0 -.07-.31 1.87 1.87 0 0 0 -.21-.36 3.46 3.46 0 0 0 .55.08 1 1 0 0 0 .37 0 .38.38 0 0 0 .19-.16.57.57 0 0 0 0-.24v-3.86h-1.8v6.47h-.61c0-.32 0-.63.05-.91s0-.56 0-.83v-4.43a5 5 0 0 0 -.05-.83l.64.05h.89s.6 0 .84 0z" fill="#383736"/><path d="m575 325.63h-.2-.32-2.78a17.18 17.18 0 0 1 -.2 2.83 5.25 5.25 0 0 1 -.68 1.89 1.07 1.07 0 0 0 -.22-.15 1.59 1.59 0 0 0 -.33-.08 3.54 3.54 0 0 0 .35-.51 3.11 3.11 0 0 0 .26-.61 5.92 5.92 0 0 0 .18-.75c0-.28.08-.61.11-1 0-.59.07-1.19.06-1.79s0-1.2-.07-1.81h.28.39 1.25a14.87 14.87 0 0 0 1.92-.08 8.12 8.12 0 0 0 0 .9v.68s0 .36 0 .48zm-.51-1.54h-2.79v1.07h2.79zm-.8 5.56v.67s0 .42 0 .64h-.62c0-.23.05-.45.06-.65s0-.42 0-.66v-2.37h-.87v2.52h-.52a12.34 12.34 0 0 0 .08-1.34v-1.63h.23.27.34.47c0-.14 0-.27 0-.37s0-.19 0-.26 0-.15 0-.21a1.23 1.23 0 0 1 0-.2h.33.33q.09 0 .09 0s0 .05-.06.08a.36.36 0 0 0 -.11.1.27.27 0 0 0 0 .14v.64h.89.28.24v2.25a1 1 0 0 1 0 .27.38.38 0 0 1 -.13.18.83.83 0 0 1 -.31.12 4 4 0 0 1 -.53.08 1.06 1.06 0 0 0 -.18-.57h.37a.42.42 0 0 0 .22-.05.24.24 0 0 0 .1-.15 2.19 2.19 0 0 0 0-.29v-1.43h-.93zm2.64-5.16a.25.25 0 0 0 -.09.23v2.53.69s0 .46 0 .66h-.6c0-.2 0-.41 0-.62s0-.45 0-.73v-1.86a7 7 0 0 0 0-.7 2.31 2.31 0 0 0 0-.43l.32.06h.29.12s.06.13 0 .17zm1.44-1.07c-.07 0-.11.11-.11.23v6.35a2.05 2.05 0 0 1 0 .47.46.46 0 0 1 -.19.28 1 1 0 0 1 -.44.14 5.86 5.86 0 0 1 -.81 0 .67.67 0 0 0 0-.33 1 1 0 0 0 -.17-.28c.26 0 .46.07.62.08a.75.75 0 0 0 .35 0 .26.26 0 0 0 .16-.15 1 1 0 0 0 0-.28v-5.38c0-.3 0-.57 0-.83a5.09 5.09 0 0 0 0-.56 1.72 1.72 0 0 0 .64.06c.08 0 .12 0 .14.06s-.08.1-.15.14z" fill="#383736"/><path d="m580.18 326.74-.32-.31-.32-.27-.35-.25a4.67 4.67 0 0 0 -.45-.23l.31-.41.82.54.69.54zm.76 1c-.12.29-.24.55-.35.79s-.22.48-.34.72-.23.5-.37.76l-.45.91-.3-.19a2.53 2.53 0 0 0 -.29-.14 7.78 7.78 0 0 0 .95-1.46 7.22 7.22 0 0 0 .59-1.77 1.07 1.07 0 0 0 .22.21 2.12 2.12 0 0 0 .34.15zm-.35-2.77-.34-.32a4.09 4.09 0 0 0 -.33-.28 2.8 2.8 0 0 0 -.35-.25l-.4-.25.32-.39c.13.09.25.17.36.26l.35.24.35.26.38.3zm2.64 4.67s.07.05.07.08 0 0-.08 0a1.47 1.47 0 0 0 -.29.12 2.2 2.2 0 0 0 -.51.36 1.64 1.64 0 0 1 -.25.21 3.16 3.16 0 0 1 -.27.2l-.33.2-.41.23a.66.66 0 0 0 -.18-.26 1.54 1.54 0 0 0 -.28-.21 4.68 4.68 0 0 0 1.09-.48 4.2 4.2 0 0 0 1-.82l.28.21zm.58-5.46a3.55 3.55 0 0 0 -.57-.43 7.59 7.59 0 0 0 -.76-.39l.32-.34.37.19.33.18.32.2.35.24-.33.35h.79.63.53l.46-.05v1.48h-.51v-1h-4.27v1.2h-.47v-1.64l.44.05h.5 1.89zm-.51 1.51h-.85a5 5 0 0 0 -.63.05v-.49h.29.34 2.33.33.29v.49a5.79 5.79 0 0 0 -.68-.05h-.91v.66h1.12c.3 0 .6 0 .89-.06a1.94 1.94 0 0 0 0 .24v.27s0 .24 0 .39v1.14.4s0 .2 0 .28 0 .19 0 .29c-.32 0-.68-.05-1.06-.06h-1.28-.48-.56-.56-.52c0-.09 0-.18 0-.25a1.84 1.84 0 0 0 0-.26c0-.11 0-.23 0-.39v-1.14c0-.16 0-.29 0-.4s0-.21 0-.3v-.25c.29 0 .6 0 .95.06h1zm0 1h-1.42v.84h1.42zm0 1.23h-1.42v.87h1.42zm.51-.39h1.45v-.84h-1.45zm0 1.26h1.45v-.87h-1.45zm2.32 2.09c-.15-.12-.28-.23-.41-.32a2.91 2.91 0 0 0 -.43-.28 5.23 5.23 0 0 0 -.54-.3c-.2-.11-.45-.23-.74-.36l.31-.37.66.34c.19.1.37.19.53.29s.32.18.47.28l.5.31z" fill="#383736"/><path d="m588.4 325.85-.31.3-.36.35a1 1 0 0 0 -.23-.23.91.91 0 0 0 -.28-.13 7.44 7.44 0 0 0 1.46-1.3 7.9 7.9 0 0 0 1.15-1.78 1.49 1.49 0 0 0 .24.18l.26.12c.09 0 .14.07.14.11s-.05.09-.15.13a.71.71 0 0 0 -.24.18 4.78 4.78 0 0 0 -.32.43h2.53.44.4.29l-1.56 1.74h1.35a6.57 6.57 0 0 0 .73-.05v.61s0 .41 0 .66 0 .47 0 .7 0 .42 0 .57h-.2-.32-4.42v1.27a1 1 0 0 0 0 .26.3.3 0 0 0 .13.17.63.63 0 0 0 .26.11 3.47 3.47 0 0 0 .42.05h.87.89.85.73a3 3 0 0 0 .6-.08.79.79 0 0 0 .37-.17.89.89 0 0 0 .21-.34 4.46 4.46 0 0 0 .11-.57.68.68 0 0 0 .25.21.75.75 0 0 0 .3.09 3.62 3.62 0 0 1 -.22.68.86.86 0 0 1 -.65.58 4.13 4.13 0 0 1 -.61.07h-.41-.64-2.65a5.56 5.56 0 0 1 -.74-.08 1 1 0 0 1 -.42-.15.44.44 0 0 1 -.17-.27 1.62 1.62 0 0 1 0-.41v-2.87c-.03-.37-.05-.72-.08-1.14zm1.06-1.21a3.42 3.42 0 0 1 -.22.28l-.22.28-.27.29-.33.33h.3.5 2l1.1-1.24zm-.46 1.66v1.61h2v-1.61zm4.41 1.61v-1.61h-1.86v1.61z" fill="#383736"/><path d="m603.91 324.64-.48.36a2.67 2.67 0 0 0 -2.18-1.05 2.61 2.61 0 0 0 -1.88.77 2.51 2.51 0 0 0 -.78 1.87 2.43 2.43 0 0 0 .77 1.85 2.63 2.63 0 0 0 1.92.75 2.71 2.71 0 0 0 2.15-1l.48.37a2.79 2.79 0 0 1 -1.14.9 3.63 3.63 0 0 1 -1.52.31 3.24 3.24 0 0 1 -2.38-.91 3.31 3.31 0 0 1 -.5-3.93 3.06 3.06 0 0 1 1.19-1.15 3.44 3.44 0 0 1 1.64-.41 3.62 3.62 0 0 1 1.57.33 3 3 0 0 1 1.14.94z" fill="#383736"/><path d="m606.71 329.76a1.7 1.7 0 0 1 -1.51-.81 5.65 5.65 0 0 1 0-4.78 1.69 1.69 0 0 1 1.51-.81 1.8 1.8 0 0 1 1.55.82 4.21 4.21 0 0 1 .57 2.38 4.12 4.12 0 0 1 -.58 2.38 1.78 1.78 0 0 1 -1.54.82zm0-5.83a1.23 1.23 0 0 0 -1.1.68 4 4 0 0 0 -.39 2c0 1.75.5 2.63 1.49 2.63a1.26 1.26 0 0 0 1.13-.69 3.9 3.9 0 0 0 .4-2 3.77 3.77 0 0 0 -.42-1.95 1.25 1.25 0 0 0 -1.09-.67z" fill="#383736"/><path d="m611.69 329.61.87-6.1h.09l2.49 5 2.46-5h.1l.87 6.1h-.57l-.6-4.37-2.16 4.37h-.15l-2.18-4.4-.6 4.4z" fill="#383736"/><path d="m621.36 329.76a1.72 1.72 0 0 1 -1.52-.81 5.65 5.65 0 0 1 0-4.78 1.71 1.71 0 0 1 1.51-.81 1.79 1.79 0 0 1 1.55.82 5.17 5.17 0 0 1 0 4.76 1.8 1.8 0 0 1 -1.54.82zm0-5.83a1.22 1.22 0 0 0 -1.1.68 4 4 0 0 0 -.39 2c0 1.75.49 2.63 1.49 2.63a1.24 1.24 0 0 0 1.12-.69 3.89 3.89 0 0 0 .41-2 3.77 3.77 0 0 0 -.42-1.95 1.27 1.27 0 0 0 -1.09-.67z" fill="#383736"/><path d="m626.14 323.51h.7l1.56 2.49 1.54-2.52h.7l-1.94 3.19v2.91h-.59v-2.88z" fill="#383736"/><path d="m633.23 329.76a1.71 1.71 0 0 1 -1.52-.81 5.65 5.65 0 0 1 0-4.78 1.7 1.7 0 0 1 1.51-.81 1.79 1.79 0 0 1 1.55.82 4.21 4.21 0 0 1 .57 2.38 4.12 4.12 0 0 1 -.58 2.38 1.78 1.78 0 0 1 -1.53.82zm0-5.83a1.21 1.21 0 0 0 -1.09.68 3.92 3.92 0 0 0 -.4 2c0 1.75.5 2.63 1.49 2.63a1.26 1.26 0 0 0 1.13-.69 4.92 4.92 0 0 0 0-3.91 1.27 1.27 0 0 0 -1.12-.71z" fill="#383736"/><path d="m638.48 323.51h.63v2.29l2.43-2.29h.82l-2.93 2.74 3.16 3.36h-.81l-2.67-2.85v2.85h-.63z" fill="#383736"/><path d="m645.08 329.76a1.69 1.69 0 0 1 -1.51-.81 5.56 5.56 0 0 1 0-4.78 1.68 1.68 0 0 1 1.5-.81 1.78 1.78 0 0 1 1.55.82 5.17 5.17 0 0 1 0 4.76 1.8 1.8 0 0 1 -1.54.82zm0-5.83a1.22 1.22 0 0 0 -1.1.68 4 4 0 0 0 -.39 2c0 1.75.5 2.63 1.49 2.63a1.26 1.26 0 0 0 1.13-.69 4 4 0 0 0 .4-2 3.77 3.77 0 0 0 -.42-1.95 1.26 1.26 0 0 0 -1.09-.67z" fill="#383736"/><path d="m673.57 300.67h30.93v30.93h-30.93z" fill="#fff" stroke="#231815" stroke-miterlimit="10"/><path d="m673.57 258.43h30.93v30.93h-30.93z" fill="#231815"/><path d="m129.08 251c1 .68 4.11 2.37 4.58 3.46 3.25 7.67 9.65 12.5 13.87 19.48a4.49 4.49 0 0 1 .77 1.95c0 .59-.14 1.17-.11 1.76s.43 1.24 1 1.23 1.17-.86 1.84-.76.79 1 1 1.64c.69 1.68 3.24 1.85 4.62.68s1.79-3.13 1.86-4.94c.21-6.1-2.65-11.9-6.09-16.94-3.68-5.4-7.76-10.45-11.06-16.11" fill="#fff"/><path d="m97.7 233.86c-.84 1.94-12 22.72-11.18 41.7 1 22.75 11.24 20.61 22.56 13.8 4.45-2.67 10.68 4.9 15.76 4.74 17.89-.56 16.81-6.39 17.32-21.73.29-8.84-2.65-19.15-4.64-27.59a29.8 29.8 0 0 0 -2.63-7.46c-24.44 11.15-37.19-3.46-37.19-3.46z" fill="#fff"/><path d="m134.29 258.4c11.51-4.82 18.76-11.14 24.38-25.82 4.11-10.72 3.83-23.81-1.58-37.71-.71-1.81-8.94-17.29-8.7-17.56a14.14 14.14 0 0 0 3.37-7.32c1.11-7.53-3.8-14.49-11-15.57a13.1 13.1 0 0 0 -13 6.29 51.54 51.54 0 0 0 -7.46-1.9c-3.5-.87-2.5-.27-3.61-1-3.73-2.44-2.85-2-5.24-.94-.41.18 1.41-1.8.82-1.57-.41.16.11-.13-.6-.72s-3.76 1.8-5 3 .86-1.37-2.31.37a17.82 17.82 0 0 1 -2.69.86l.24.08a30.74 30.74 0 0 0 -3.49 1c-1.65.58-3.55 1.15-5.46 1.82a12.62 12.62 0 0 0 -9.14-6.47c-7.07-1.05-13.7 4.21-14.81 11.77a14 14 0 0 0 5.39 13.29 87.24 87.24 0 0 0 -8.81 18.4c-3.59 10.56-5.15 22.3-2.19 32.93 3.17 11.37 18.85 20.05 27.6 25.77 0 0 2-.36 2-.33l24.62 12.93c-.03-.52 16.22-11.42 16.67-11.6z" fill="#fff"/><path d="m94.5 275.35c-8.48 18.61 6.76 28.3 11.73 31.79.72.5 2.68-3.17 3-6.12 2.4-20.18 11.07-26.09-7.35-42.18" fill="#fff"/><path d="m135.43 274.5c13.59 16.49-6.58 31.73-10.64 36.35-.59.67.6-.28-4.7-5.46-8.91-8.7-19.2-40.53-9.76-50.22" fill="#fff"/><path d="m139.24 287.32c1.46 4.24-1.55 8.29-2 9.41-2.4 5.79-9.13 11.73-10.37 18.1-.55 2.79-5.91 1.08-5.74 0a10.92 10.92 0 0 0 -.37-4c-.36-1.93-3.82-9.62-4.62-11.42" fill="#fff"/><path d="m126.86 314.61c.07 1.12.15 2.88.73 3.74s1.63 1.31 2.47 2.24a9 9 0 0 1 1.07 1.15 1.21 1.21 0 0 1 .22.86 1.07 1.07 0 0 1 -.58.76 1.91 1.91 0 0 1 -1 .16c-2-.11-3.45-2-5.52-2.07a11.85 11.85 0 0 1 -2.06 0 2.37 2.37 0 0 1 -1.64-1.32c-.54-1.16.12-1.89.45-3 .3-.92-.12-1.87.16-2.82" fill="#fff"/><path d="m91.37 287.08c-1.42 4.26 1.64 8.27 2.12 9.4 2.45 5.75 9.24 11.61 10.55 18 .58 2.8 5.92 1 5.75 0a10.91 10.91 0 0 1 .32-4c.35-1.93 7.31-22.59 4.73-26.55" fill="#fff"/><path d="m104.05 314.23c-.07 1.12-.12 2.88-.7 3.74-.67 1-1.61 1.34-2.44 2.27a9.83 9.83 0 0 0 -1.07 1.17 1.25 1.25 0 0 0 -.21.86 1.09 1.09 0 0 0 .6.75 1.89 1.89 0 0 0 .94.15c2-.13 3.43-2.06 5.51-2.13a10.81 10.81 0 0 0 2 0 2.37 2.37 0 0 0 1.63-1.33c.52-1.17-.14-1.9-.49-3s.11-1.88-.18-2.83" fill="#fff"/><path d="m94.73 253.48c-2.49 3.7-4.4 7.84-7.41 11.12a79.22 79.22 0 0 0 -8.47 11.08 4.19 4.19 0 0 0 -.7 1.59c-.08.6.1 1.2.06 1.81s-.46 1.27-1.06 1.25-1.06-.76-1.67-.72c-.78.05-.89 1.12-1.21 1.83-.66 1.46-2.89 1.61-4.14.6a6 6 0 0 1 -1.81-4.33c-.38-5.06 1.71-10 4.44-14.27 4.08-6.39 9.06-12.15 13-18.66" fill="#fff"/><path d="m116.79 221.71a4.42 4.42 0 0 1 -1.8-.36s-2.77-1.49-2.82-3 0-.27-.22-6.66a.88.88 0 0 1 .84-.9.9.9 0 0 1 .9.84s.21 6.52.21 6.65a5.73 5.73 0 0 0 1.82 1.51 3.32 3.32 0 0 0 2.4 0 2.4 2.4 0 0 0 1.41-1.18.87.87 0 1 1 1.59.69 4.11 4.11 0 0 1 -2.38 2.11 5.6 5.6 0 0 1 -1.95.3z" fill="#231815"/><path d="m108.55 222a3.66 3.66 0 0 1 -3.77-2.69.87.87 0 0 1 1.65-.56c.46 1.38 1.32 1.73 3.39 1.38 1.51-.25 2.42-2.21 2.43-2.23a.87.87 0 0 1 1.58.71c0 .12-1.29 2.83-3.73 3.23a8.7 8.7 0 0 1 -1.55.16z" fill="#231815"/><path d="m102.08 203.71a3.09 3.09 0 1 1 -2.76-3.38 3.1 3.1 0 0 1 2.76 3.38z" fill="#140508"/><path d="m100.3 202.22a1 1 0 1 1 -1.39-.51 1 1 0 0 1 1.39.51z" fill="#fff"/><path d="m128 202.66a3.09 3.09 0 1 1 -2.76-3.38 3.09 3.09 0 0 1 2.76 3.38z" fill="#140508"/><path d="m126.18 201.17a1 1 0 0 1 -.5 1.38 1 1 0 0 1 -1.39-.49 1.06 1.06 0 0 1 .5-1.4 1 1 0 0 1 1.39.51z" fill="#fff"/><path d="m114.81 214.21a4.33 4.33 0 0 0 2.49-.94 2.1 2.1 0 0 0 -.16-3.44c-1.57-.87-4-.28-5.69-.18a10.88 10.88 0 0 0 -3.71.8c-1.55.57-.2 3.2.78 3.8a7.73 7.73 0 0 0 8.65-.81c1.93-1.62 1.57-3.88-1.17-3.91" fill="#231815"/><path d="m130 324h-.18a6.66 6.66 0 0 1 -2.92-1.09 5.54 5.54 0 0 0 -2.6-1 5.85 5.85 0 0 0 -.73 0 4.77 4.77 0 0 1 -1.41 0 2.86 2.86 0 0 1 -2-1.6 2.91 2.91 0 0 1 .16-2.62c.09-.22.19-.45.27-.7a3.28 3.28 0 0 0 .06-1.22 6.25 6.25 0 0 1 0-.87v-.17a8.89 8.89 0 0 0 -.24-3.24l-.12-.58c-.14-.73-.87-2.88-3.57-9a44.66 44.66 0 0 1 -2.55-4.29c-.91 3.73-2 7.39-2.71 9.9-.43 1.45-.77 2.6-.83 2.95l-.11.58a8.91 8.91 0 0 0 -.21 3.24v.11.06a6.39 6.39 0 0 1 0 .87 3.53 3.53 0 0 0 .08 1.23 6.38 6.38 0 0 0 .28.7 2.93 2.93 0 0 1 .18 2.62 2.85 2.85 0 0 1 -2 1.61 4.78 4.78 0 0 1 -1.41 0c-.24 0-.49 0-.73 0a5.56 5.56 0 0 0 -2.59 1 6.62 6.62 0 0 1 -2.9 1.12 2.27 2.27 0 0 1 -1.2-.2 1.59 1.59 0 0 1 -.87-1.11 1.7 1.7 0 0 1 .28-1.21 4.18 4.18 0 0 1 .74-.86 4.54 4.54 0 0 0 .38-.38 8 8 0 0 1 1.19-1.05 4.73 4.73 0 0 0 1.2-1.16 7.79 7.79 0 0 0 .6-3.21c-.73-3.53-3.29-7-5.77-10.35a39.44 39.44 0 0 1 -4.77-7.41c-.08-.18-.23-.43-.41-.75a17.71 17.71 0 0 1 -1.59-3.65c-3-2.83-4.59-8.29-4.94-16.69a53.82 53.82 0 0 1 .44-9.26 77.19 77.19 0 0 0 -7.22 9.68 3.63 3.63 0 0 0 -.63 1.39 3.5 3.5 0 0 0 0 .85 4.67 4.67 0 0 1 0 .92 1.7 1.7 0 0 1 -1.51 1.72h-.06a2.09 2.09 0 0 1 -1.07-.45c-.21-.15-.43-.29-.55-.27s-.37.38-.56.93c-.07.21-.14.41-.22.6a2.61 2.61 0 0 1 -1.85 1.45 3.68 3.68 0 0 1 -3.06-.66 6.35 6.35 0 0 1 -2-4.68c-.33-4.46 1.19-9.36 4.52-14.58 1.89-3 4-5.82 6-8.59.79-1.07 1.58-2.14 2.36-3.22-7.19-4.88-15.55-11.47-17.81-19.6-3.39-12.19-.68-24.8 2.19-33.22a87.42 87.42 0 0 1 8.63-18.11 14.43 14.43 0 0 1 -5.19-13.54 14.81 14.81 0 0 1 5.73-9.72 12.9 12.9 0 0 1 9.65-2.47 13.05 13.05 0 0 1 9.3 6.35c.9-.31 1.81-.6 2.68-.89s1.64-.53 2.39-.79c.58-.2 1.18-.39 1.8-.56l-.16-.05 1.64-.45a18.26 18.26 0 0 0 2.58-.82c1.21-.66 1.84-.81 2.26-.53a.44.44 0 0 1 .11.09c1-.94 4.24-3.88 5.47-2.86a1.69 1.69 0 0 1 .49.62.46.46 0 0 1 .3.19.57.57 0 0 1 0 .66c1-.38 1.44 0 3.57 1.35l.72.47c.4.26.4.26.7.3a24 24 0 0 1 2.63.54 50.59 50.59 0 0 1 7.13 1.8 13.55 13.55 0 0 1 13.31-6.19c7.43 1.11 12.54 8.35 11.39 16.13a14.78 14.78 0 0 1 -3.32 7.38c.42 1.09 2.9 5.93 4.75 9.52s3.55 6.92 3.86 7.73c5.34 13.68 5.89 26.85 1.59 38.06-3.07 8-6.74 13.81-11.52 18.14l1.33 1.84c1.31 1.81 2.66 3.68 4 5.56 4.33 6.36 6.35 12 6.17 17.23-.09 2.44-.77 4.23-2 5.31a4 4 0 0 1 -3.4.76 2.77 2.77 0 0 1 -2-1.63c-.06-.15-.11-.31-.17-.48-.15-.48-.28-.82-.49-.85s-.37.12-.6.28a2 2 0 0 1 -1.16.48 1.69 1.69 0 0 1 -1.51-1.7 5 5 0 0 1 .06-1 3.65 3.65 0 0 0 .05-.79 4 4 0 0 0 -.7-1.73 51.46 51.46 0 0 0 -4.54-6.19c.11 1.57.14 3 .1 4.37 0 1-.06 1.92-.09 2.83-.17 6.31-.3 10.9-2.25 14-.06.35-.14.69-.22 1a13.85 13.85 0 0 1 -2 5.89 7 7 0 0 0 -.39.76 39.63 39.63 0 0 1 -4.66 7.51c-2.43 3.37-4.94 6.85-5.66 10.39a8.05 8.05 0 0 0 .63 3.24 4.9 4.9 0 0 0 1.22 1.14 8 8 0 0 1 1.21 1c.11.13.24.25.37.38a4.12 4.12 0 0 1 .76.84 1.82 1.82 0 0 1 .29 1.22 1.57 1.57 0 0 1 -.86 1.11 2.15 2.15 0 0 1 -1.01.29zm-5.78-3h.09a6.5 6.5 0 0 1 3.07 1.11 5.74 5.74 0 0 0 2.47 1 1.29 1.29 0 0 0 .69-.11.61.61 0 0 0 .32-.39.78.78 0 0 0 -.15-.51 3.25 3.25 0 0 0 -.59-.65 4.47 4.47 0 0 1 -.43-.44 6.39 6.39 0 0 0 -1.07-.9 5.87 5.87 0 0 1 -1.44-1.39 8.32 8.32 0 0 1 -.81-3.71v-.22c.74-3.78 3.33-7.37 5.84-10.84a38.47 38.47 0 0 0 4.54-7.32c.09-.2.24-.49.44-.85a13.22 13.22 0 0 0 1.92-5.55c.09-.44.17-.8.23-1.17l.07-.18c1.86-2.9 2-7.39 2.15-13.6 0-.91.05-1.85.09-2.83a44.32 44.32 0 0 0 -.23-5.82l-.15-1.6 1 1.23a57.94 57.94 0 0 1 5.73 7.44 4.74 4.74 0 0 1 .85 2.17 5.22 5.22 0 0 1 -.06 1 5.27 5.27 0 0 0 -.05.78c0 .35.25.76.51.76a1.24 1.24 0 0 0 .6-.3 1.82 1.82 0 0 1 1.33-.45c.83.13 1.09.94 1.28 1.53l.15.41a1.82 1.82 0 0 0 1.31 1 2.94 2.94 0 0 0 2.51-.56c1.05-.89 1.61-2.42 1.69-4.57.17-5-1.79-10.46-6-16.64-1.27-1.87-2.62-3.73-3.92-5.53l-1.6-2.21-.26-.37.33-.3c4.82-4.25 8.5-10 11.59-18 4.2-11 3.65-23.9-1.59-37.35-.29-.76-2-4.1-3.82-7.63-5.15-10-5.12-10.06-4.79-10.44a13.69 13.69 0 0 0 3.26-7.07c1.07-7.24-3.66-14-10.55-15a12.61 12.61 0 0 0 -12.58 6.07l-.21.34-.37-.13a49.62 49.62 0 0 0 -7.39-1.89 23.14 23.14 0 0 0 -2.56-.53 2 2 0 0 1 -1.11-.46l-.72-.47c-2.26-1.48-2.26-1.48-3.17-1-.26.14-.58.31-1 .49l-.36.16-.3-.29c-.28-.35-.06-.64.42-1.28l.21-.28v-.33s0-.14-.24-.33c-.41-.13-2.43 1.14-4.3 3-.37.36-.67.65-1 .46a.54.54 0 0 1 -.29-.51 6.12 6.12 0 0 0 -1.08.5 7.9 7.9 0 0 1 -1.2.45l.45.14-1.84.4a29.14 29.14 0 0 0 -3.43 1c-.75.26-1.56.52-2.4.8s-2 .65-3 1l-.4.14-.2-.36a12.1 12.1 0 0 0 -8.79-6.22 11.94 11.94 0 0 0 -9.04 2.2 13.85 13.85 0 0 0 -5.33 9 13.38 13.38 0 0 0 5.16 12.9l.38.28-.25.39a86.38 86.38 0 0 0 -8.77 18.29c-2.82 8.29-5.5 20.68-2.18 32.63 2.22 8 10.7 14.52 17.83 19.33l.43.29-.3.41c-.88 1.23-1.77 2.44-2.66 3.65-2 2.76-4.13 5.61-6 8.54-3.22 5-4.69 9.73-4.37 14a5.43 5.43 0 0 0 1.63 4 2.63 2.63 0 0 0 2.2.47 1.64 1.64 0 0 0 1.16-.89c.07-.16.13-.33.19-.51.22-.65.53-1.55 1.44-1.61a1.84 1.84 0 0 1 1.19.44 1.33 1.33 0 0 0 .54.28c.29 0 .51-.42.54-.79a4.84 4.84 0 0 0 0-.75 4.4 4.4 0 0 1 0-1.09 4.52 4.52 0 0 1 .77-1.79 79.71 79.71 0 0 1 8.39-11l1.12-1.22-.25 1.64a54.19 54.19 0 0 0 -.73 10.65c.34 8.1 1.93 13.51 4.71 16.09l.11.09v.14a17.16 17.16 0 0 0 1.61 3.57 7.52 7.52 0 0 1 .45.85 39.07 39.07 0 0 0 4.63 7.26c2.54 3.44 5.17 7 6 10.77v.13a8.73 8.73 0 0 1 -.77 3.81 5.8 5.8 0 0 1 -1.44 1.41 6.41 6.41 0 0 0 -1 .92c-.13.15-.28.29-.43.44a3.47 3.47 0 0 0 -.58.65.75.75 0 0 0 -.14.52.54.54 0 0 0 .32.38 1.31 1.31 0 0 0 .69.1 5.71 5.71 0 0 0 2.46-1 6.46 6.46 0 0 1 3.06-1.14 7.94 7.94 0 0 1 .85 0 4.15 4.15 0 0 0 1.12 0 1.82 1.82 0 0 0 1.27-1 1.93 1.93 0 0 0 -.19-1.81 8.12 8.12 0 0 1 -.31-.79 4.14 4.14 0 0 1 -.12-1.59 5.61 5.61 0 0 0 0-.82v-.09a9.87 9.87 0 0 1 .23-3.49l.1-.58c.08-.4.39-1.46.86-3 .81-2.8 2-7 3-11.17l.32-1.35.62 1.24a47.75 47.75 0 0 0 3.15 5.47c2.27 5.15 3.46 8.17 3.67 9.31l.12.57a9.8 9.8 0 0 1 .26 3.52 6 6 0 0 0 0 .86 4.2 4.2 0 0 1 -.11 1.6c-.09.28-.2.54-.3.78a1.93 1.93 0 0 0 -.17 1.81 1.84 1.84 0 0 0 1.28 1 4.66 4.66 0 0 0 1.12 0 6.47 6.47 0 0 1 .77 0z" fill="#231815"/><g fill="#383736"><path d="m561.7 265.81h1.3a7.67 7.67 0 0 1 1.5.09 1.73 1.73 0 0 1 .64.31 1.51 1.51 0 0 1 .46.57 1.8 1.8 0 0 1 .16.75 1.65 1.65 0 0 1 -.36 1.09 1.54 1.54 0 0 1 -.91.53 8.61 8.61 0 0 1 -1.67.11h-.45v3h-.65zm.65.63v2.2h1.08a1.74 1.74 0 0 0 1.31-.32 1.08 1.08 0 0 0 .32-.79c0-.73-.52-1.09-1.57-1.09z"/><path d="m571.69 267.49v4.78h-.61v-.82a2.4 2.4 0 0 1 -1.87 1 2.36 2.36 0 0 1 -1.77-.75 2.47 2.47 0 0 1 -.73-1.79 2.43 2.43 0 0 1 .73-1.78 2.35 2.35 0 0 1 1.75-.74 2.23 2.23 0 0 1 1.89 1v-.87zm-.57 2.41a1.9 1.9 0 0 0 -.55-1.38 1.8 1.8 0 0 0 -1.34-.56 1.77 1.77 0 0 0 -1.35.58 2 2 0 0 0 0 2.74 1.79 1.79 0 0 0 1.34.59 1.83 1.83 0 0 0 1.33-.56 1.89 1.89 0 0 0 .57-1.41z"/><path d="m573.07 267.49h.62v.86a2.18 2.18 0 0 1 1.79-1 1.66 1.66 0 0 1 1 .29 1.56 1.56 0 0 1 .61.76 4.13 4.13 0 0 1 .18 1.39v2.46h-.61v-2.25a5.38 5.38 0 0 0 -.08-1.13 1.5 1.5 0 0 0 -.23-.51 1.11 1.11 0 0 0 -.4-.31 1.53 1.53 0 0 0 -1.27.06 1.87 1.87 0 0 0 -.57.48 1.55 1.55 0 0 0 -.31.63 6 6 0 0 0 -.09 1.3v1.76h-.62z"/><path d="m579.72 271.51c0 .17 0 .26.07.29a.66.66 0 0 0 .32.05h.37v.52a4 4 0 0 1 -.59.06.78.78 0 0 1 -.6-.2.9.9 0 0 1 -.19-.62v-3.61h-.84v-.52h.84v-1.84h.62v1.84h1v.52h-1z"/><path d="m581.39 269.91a2.51 2.51 0 0 1 .72-1.8 2.38 2.38 0 0 1 1.77-.74 2.34 2.34 0 0 1 1.76.74 2.51 2.51 0 0 1 .73 1.79 2.48 2.48 0 0 1 -.72 1.79 2.49 2.49 0 0 1 -3.54 0 2.48 2.48 0 0 1 -.72-1.78zm4.36 0a1.92 1.92 0 0 0 -.56-1.37 1.75 1.75 0 0 0 -1.31-.58 1.72 1.72 0 0 0 -1.31.58 2 2 0 0 0 0 2.74 1.74 1.74 0 0 0 1.32.56 1.77 1.77 0 0 0 1.33-.57 1.9 1.9 0 0 0 .53-1.35z"/><path d="m587.51 267.49h.62v.86a2.17 2.17 0 0 1 1.79-1 1.63 1.63 0 0 1 1 .29 1.58 1.58 0 0 1 .62.76 4.13 4.13 0 0 1 .18 1.39v2.46h-.62v-2.25a5.61 5.61 0 0 0 -.07-1.13 1.34 1.34 0 0 0 -.24-.51 1 1 0 0 0 -.4-.31 1.48 1.48 0 0 0 -.59-.11 1.55 1.55 0 0 0 -.68.17 1.85 1.85 0 0 0 -.88 1.11 7 7 0 0 0 -.08 1.3v1.76h-.62z"/><path d="m597 270.72.52.27a2.45 2.45 0 0 1 -2.28 1.44 2.35 2.35 0 0 1 -1.78-.74 2.61 2.61 0 0 1 0-3.58 2.29 2.29 0 0 1 1.75-.74 2.39 2.39 0 0 1 1.74.69 2.62 2.62 0 0 1 .74 1.89h-4.29a2 2 0 0 0 .55 1.39 1.69 1.69 0 0 0 1.25.53 2 2 0 0 0 1.8-1.15zm0-1.3a1.62 1.62 0 0 0 -.63-1.07 1.83 1.83 0 0 0 -1.16-.39 1.72 1.72 0 0 0 -1.76 1.46z"/><path d="m601.22 265.81h1.27a2.45 2.45 0 0 1 1.55.41 1.39 1.39 0 0 1 .53 1.17 1.53 1.53 0 0 1 -.22.78 1.47 1.47 0 0 1 -.61.57 2.11 2.11 0 0 1 1 .65 1.6 1.6 0 0 1 .35 1 1.7 1.7 0 0 1 -.59 1.32 2.17 2.17 0 0 1 -1.51.53h-1.78zm.64.63v2.07h.36a2.31 2.31 0 0 0 1.26-.27.93.93 0 0 0 .42-.85c0-.63-.43-.95-1.3-.95zm0 2.72v2.48h.8a2.85 2.85 0 0 0 1-.14 1.18 1.18 0 0 0 .53-.43 1 1 0 0 0 .21-.6 1.19 1.19 0 0 0 -.12-.54 1.1 1.1 0 0 0 -.34-.41 1.66 1.66 0 0 0 -.55-.27 5.21 5.21 0 0 0 -1.19-.09z"/><path d="m606.17 265.65h.62v6.62h-.62z"/><path d="m612.83 267.49v4.78h-.61v-.82a2.37 2.37 0 0 1 -3.65.23 2.5 2.5 0 0 1 -.72-1.79 2.43 2.43 0 0 1 .73-1.78 2.33 2.33 0 0 1 1.74-.74 2.25 2.25 0 0 1 1.9 1v-.87zm-.57 2.41a1.9 1.9 0 0 0 -.55-1.38 1.83 1.83 0 0 0 -1.35-.56 1.77 1.77 0 0 0 -1.34.58 2 2 0 0 0 0 2.74 1.78 1.78 0 0 0 1.33.59 1.84 1.84 0 0 0 1.34-.56 1.93 1.93 0 0 0 .57-1.41z"/><path d="m618.88 268.48-.48.31a2 2 0 0 0 -1.73-.84 2 2 0 0 0 -1.45.55 1.82 1.82 0 0 0 -.58 1.38 1.94 1.94 0 0 0 .57 1.4 2 2 0 0 0 1.46.59 2.13 2.13 0 0 0 1.73-.84l.48.32a2.28 2.28 0 0 1 -1 .8 3.08 3.08 0 0 1 -1.31.28 2.51 2.51 0 0 1 -1.85-.73 2.38 2.38 0 0 1 -.75-1.78 2.43 2.43 0 0 1 .76-1.8 2.61 2.61 0 0 1 1.93-.75 2.77 2.77 0 0 1 1.28.29 2.17 2.17 0 0 1 .94.82z"/><path d="m619.94 265.65h.63v3.77l2.2-1.93h.91l-2.63 2.28 2.78 2.5h-.83l-2.39-2.15v2.15h-.63z"/><path d="m179.89 322.76c0-.15 0-.28 0-.39a3 3 0 0 0 0-.32 6.59 6.59 0 0 0 .75-.05c.25 0 .5-.08.74-.13a5.74 5.74 0 0 0 .66-.18 4.15 4.15 0 0 0 .55-.23 1.59 1.59 0 0 0 .18.3 1.5 1.5 0 0 0 .16.2c.08.07.11.14.08.19s-.11.08-.25.05h-.22-.35l-.64.09-1.09.18v1.53h.89.6.42.34v.57h-.35-.41-.6-.89v2.53c.41-.19.81-.39 1.18-.6s.71-.41 1-.59l.07.28a.89.89 0 0 0 .1.23l-2.16 1.17-.43.25-.41.26a1.48 1.48 0 0 0 -.12-.29 2.6 2.6 0 0 0 -.23-.28l.23-.09.24-.1zm6.35-.77c0 .14 0 .27-.05.4s0 .28 0 .43v3.69a1.41 1.41 0 0 1 0 .39.4.4 0 0 1 -.19.25 1.2 1.2 0 0 1 -.43.14 5.48 5.48 0 0 1 -.76.09.76.76 0 0 0 -.06-.32 2 2 0 0 0 -.22-.35 5.34 5.34 0 0 0 .56.08.92.92 0 0 0 .36-.05.3.3 0 0 0 .19-.15.49.49 0 0 0 .06-.25v-3.86h-1.8v6.52h-.61c0-.33 0-.63.06-.92s0-.56 0-.83v-4.43a5 5 0 0 0 -.06-.83 5.18 5.18 0 0 0 .64.06h.88.84a5.2 5.2 0 0 0 .59-.05z"/><path d="m192.27 323.63h-.2-3.07a16.93 16.93 0 0 1 -.21 2.82 5.23 5.23 0 0 1 -.67 1.9.72.72 0 0 0 -.22-.15.89.89 0 0 0 -.34-.08 3.54 3.54 0 0 0 .35-.51 4.3 4.3 0 0 0 .27-.61 4.77 4.77 0 0 0 .17-.76c.05-.28.09-.6.12-1 0-.6.06-1.19.06-1.79s0-1.21-.07-1.82h.28.39.53.72a13.36 13.36 0 0 0 1.92-.08 6.48 6.48 0 0 0 -.05.91v.68a3.75 3.75 0 0 0 .02.49zm-.51-1.54h-2.76v1.07h2.79zm-.8 5.56v.67s0 .42.06.65h-.62c0-.23 0-.45.06-.65s0-.42 0-.67v-2.36h-.86v2.51h-.52a12.1 12.1 0 0 0 .07-1.33v-1.63h.23.27.81v-.37c0-.1 0-.19 0-.27s0-.14 0-.2a1.65 1.65 0 0 0 0-.21h.33.34s.08 0 .09 0 0 .05-.07.07a.57.57 0 0 0 -.11.11.23.23 0 0 0 0 .14v.64h1.16.24v2.25a1 1 0 0 1 0 .26.33.33 0 0 1 -.14.19 1.54 1.54 0 0 1 -.3.12c-.13 0-.31 0-.53.08a1.06 1.06 0 0 0 -.18-.57h.37a.33.33 0 0 0 .21-.05.24.24 0 0 0 .1-.15 1 1 0 0 0 0-.28v-1.43h-.97zm2.63-5.16a.26.26 0 0 0 -.09.23v2.53.69s0 .47 0 .67h-.5c0-.21 0-.41 0-.62s0-.45 0-.74v-1.86c0-.28 0-.51 0-.69a3.88 3.88 0 0 0 -.05-.44l.32.06a1.34 1.34 0 0 0 .28 0h.13s-.02.13-.09.17zm1.45-1.07a.25.25 0 0 0 -.11.23v6.35a2.71 2.71 0 0 1 0 .46.47.47 0 0 1 -.2.29 1 1 0 0 1 -.44.14 7.64 7.64 0 0 1 -.8 0 .78.78 0 0 0 0-.33 1.54 1.54 0 0 0 -.17-.29 5 5 0 0 0 .61.09.92.92 0 0 0 .36 0 .2.2 0 0 0 .15-.14.79.79 0 0 0 0-.28v-5.38c0-.3 0-.58 0-.83a4.76 4.76 0 0 0 0-.57 1.74 1.74 0 0 0 .64.06c.08 0 .13 0 .14.07s-.12.1-.22.13z"/><path d="m197.4 324.75-.31-.31a2.69 2.69 0 0 0 -.32-.27 3.27 3.27 0 0 0 -.36-.25 4.36 4.36 0 0 0 -.44-.24l.3-.41c.3.19.58.37.82.55a7.82 7.82 0 0 1 .69.53zm.77 1c-.13.28-.24.55-.35.79s-.23.48-.34.72-.24.49-.37.76-.29.57-.46.91a2.9 2.9 0 0 0 -.29-.19 1.53 1.53 0 0 0 -.29-.14 8.39 8.39 0 0 0 1-1.47 7 7 0 0 0 .59-1.76 1.45 1.45 0 0 0 .22.21 1.5 1.5 0 0 0 .29.15zm-.35-2.77-.34-.33-.34-.28a3.12 3.12 0 0 0 -.35-.25l-.4-.25.32-.39.37.26.34.25.36.26.38.3zm2.63 4.67c.06 0 .08.05.07.07s0 0-.07.05a1.47 1.47 0 0 0 -.3.12 2.41 2.41 0 0 0 -.5.36l-.25.21-.28.19a2 2 0 0 1 -.32.2l-.41.23a1.17 1.17 0 0 0 -.18-.26 1.46 1.46 0 0 0 -.28-.2 4.68 4.68 0 0 0 1.09-.48 4.22 4.22 0 0 0 .94-.83 3.09 3.09 0 0 0 .29.21 1.37 1.37 0 0 0 .2.11zm.58-5.47a3.24 3.24 0 0 0 -.57-.42c-.21-.13-.47-.26-.75-.4l.29-.36.37.2.32.18.32.2.36.23-.33.35h.78.64.52l.46-.05v1.48h-.44v-1h-4.28v1.2h-.49v-1.64h.44a3.68 3.68 0 0 0 .51 0h.73zm-.51 1.51h-.84-.64v-.48h.3.34 2.32.33.29v.48h-.68-.92v.67h1.12l.9-.05a.93.93 0 0 0 0 .23v.28s0 .24 0 .38v1.15.39s0 .21 0 .29a1.52 1.52 0 0 0 0 .29c-.33 0-.68 0-1.07-.06s-.81 0-1.28 0h-1.07-.57-.52c0-.09 0-.17 0-.24s0-.17 0-.27 0-.23 0-.38v-1.17c0-.15 0-.28 0-.4a2.33 2.33 0 0 0 0-.29v-.25l1 .05h1zm0 1.05h-1.42v.84h1.42zm0 1.22h-1.42v.88h1.42zm.51-.38h1.46v-.84h-1.49zm0 1.26h1.46v-.88h-1.49zm2.32 2.08-.4-.32-.43-.28-.52-.32-.74-.36.3-.36.67.33.53.29.47.28.49.31z"/><path d="m205.62 323.85q-.13.15-.3.3l-.36.36a1.24 1.24 0 0 0 -.23-.23 1.12 1.12 0 0 0 -.29-.14 7.48 7.48 0 0 0 1.47-1.29 8 8 0 0 0 1.15-1.79 1.33 1.33 0 0 0 .24.19 1.17 1.17 0 0 0 .25.11q.15.06.15.12s0 .09-.16.13a.69.69 0 0 0 -.23.18 4.91 4.91 0 0 0 -.33.43h3 .4a2.16 2.16 0 0 0 .3 0l-1.57 1.75h1.36a5.12 5.12 0 0 0 .72 0v.6.66.71s0 .42 0 .57h-.2-4.79v1.26a1 1 0 0 0 0 .26.46.46 0 0 0 .13.18.71.71 0 0 0 .26.1 2.11 2.11 0 0 0 .43.06h.86.9.85.72a3.65 3.65 0 0 0 .6-.08 1 1 0 0 0 .38-.18.67.67 0 0 0 .2-.34 2.3 2.3 0 0 0 .11-.56 1.16 1.16 0 0 0 .25.21.94.94 0 0 0 .31.08 6.4 6.4 0 0 1 -.22.69 1.11 1.11 0 0 1 -.26.38.88.88 0 0 1 -.4.19 4 4 0 0 1 -.6.08h-.42-2.8-.48a5.64 5.64 0 0 1 -.74-.07 1.05 1.05 0 0 1 -.42-.16.44.44 0 0 1 -.18-.26 2.3 2.3 0 0 1 0-.42v-2.86c-.01-.45-.02-.79-.06-1.22zm1.06-1.2-.21.28-.23.27a3.4 3.4 0 0 1 -.26.29l-.33.34h.3 2.5l1.11-1.24zm-.48 1.65v1.62h2v-1.62zm4.4 1.62v-1.62h-1.86v1.62z"/><path d="m221.13 322.65-.47.36a2.7 2.7 0 0 0 -2.19-1.05 2.58 2.58 0 0 0 -1.87.76 2.54 2.54 0 0 0 -.79 1.88 2.48 2.48 0 0 0 .77 1.85 2.66 2.66 0 0 0 1.93.74 2.7 2.7 0 0 0 2.15-1l.47.37a3 3 0 0 1 -1.13.9 3.64 3.64 0 0 1 -1.53.31 3.27 3.27 0 0 1 -2.38-.92 3.14 3.14 0 0 1 -.92-2.32 3.07 3.07 0 0 1 .43-1.6 3 3 0 0 1 1.19-1.15 3.3 3.3 0 0 1 1.63-.42 3.66 3.66 0 0 1 1.58.33 2.84 2.84 0 0 1 1.13.96z"/><path d="m223.94 327.77a1.72 1.72 0 0 1 -1.52-.81 5.68 5.68 0 0 1 0-4.79 1.71 1.71 0 0 1 1.51-.81 1.8 1.8 0 0 1 1.55.83 5.15 5.15 0 0 1 0 4.75 1.78 1.78 0 0 1 -1.54.83zm0-5.83a1.22 1.22 0 0 0 -1.1.68 4 4 0 0 0 -.39 2c0 1.76.49 2.64 1.49 2.64a1.24 1.24 0 0 0 1.12-.69 3.94 3.94 0 0 0 .41-2 3.72 3.72 0 0 0 -.42-1.95 1.27 1.27 0 0 0 -1.05-.68z"/><path d="m228.92 327.62.87-6.11h.09l2.48 5 2.47-5h.09l.88 6.11h-.61l-.59-4.37-2.16 4.37h-.15l-2.19-4.41-.59 4.41z"/><path d="m238.58 327.77a1.7 1.7 0 0 1 -1.51-.81 5.68 5.68 0 0 1 0-4.79 1.69 1.69 0 0 1 1.51-.81 1.81 1.81 0 0 1 1.55.83 4.18 4.18 0 0 1 .57 2.38 4.07 4.07 0 0 1 -.58 2.37 1.76 1.76 0 0 1 -1.54.83zm0-5.83a1.21 1.21 0 0 0 -1.09.68 3.88 3.88 0 0 0 -.4 2c0 1.76.5 2.64 1.49 2.64a1.26 1.26 0 0 0 1.13-.69 4 4 0 0 0 .4-2 3.83 3.83 0 0 0 -.41-1.95 1.27 1.27 0 0 0 -1.1-.68z"/><path d="m243.36 321.51h.71l1.55 2.52 1.54-2.52h.71l-1.94 3.19v2.92h-.6v-2.92z"/><path d="m250.45 327.77a1.72 1.72 0 0 1 -1.52-.81 5.68 5.68 0 0 1 0-4.79 1.71 1.71 0 0 1 1.51-.81 1.8 1.8 0 0 1 1.55.83 4.1 4.1 0 0 1 .58 2.38 4.14 4.14 0 0 1 -.58 2.37 1.78 1.78 0 0 1 -1.54.83zm0-5.83a1.22 1.22 0 0 0 -1.1.68 4 4 0 0 0 -.39 2c0 1.76.5 2.64 1.49 2.64a1.24 1.24 0 0 0 1.12-.69 3.94 3.94 0 0 0 .41-2 3.72 3.72 0 0 0 -.42-1.95 1.27 1.27 0 0 0 -1.09-.68z"/><path d="m255.7 321.51h.63v2.29l2.43-2.29h.83l-2.93 2.74 3.16 3.37h-.82l-2.68-2.85v2.85h-.63z"/><path d="m261.56 321.51h1.2v6.11h-.61v-5.51h-1z"/><path d="m267 327.77a1.71 1.71 0 0 1 -1.52-.81 5.68 5.68 0 0 1 0-4.79 1.7 1.7 0 0 1 1.51-.81 1.8 1.8 0 0 1 1.55.83 5.23 5.23 0 0 1 0 4.75 1.78 1.78 0 0 1 -1.54.83zm0-5.83a1.21 1.21 0 0 0 -1.09.68 4 4 0 0 0 -.39 2c0 1.76.49 2.64 1.48 2.64a1.25 1.25 0 0 0 1.13-.69 4 4 0 0 0 .4-2 3.83 3.83 0 0 0 -.41-1.95 1.27 1.27 0 0 0 -1.12-.68z"/><path d="m271.73 327.77a1.71 1.71 0 0 1 -1.52-.81 5.68 5.68 0 0 1 0-4.79 1.7 1.7 0 0 1 1.51-.81 1.8 1.8 0 0 1 1.55.83 4.18 4.18 0 0 1 .57 2.38 4.07 4.07 0 0 1 -.58 2.37 1.75 1.75 0 0 1 -1.53.83zm0-5.83a1.21 1.21 0 0 0 -1.09.68 4 4 0 0 0 -.39 2c0 1.76.49 2.64 1.48 2.64a1.26 1.26 0 0 0 1.13-.69 4 4 0 0 0 .4-2 3.83 3.83 0 0 0 -.41-1.95 1.27 1.27 0 0 0 -1.11-.68z"/></g><path d="m290.57 300.67h30.93v30.93h-30.93z" fill="#231815"/><path d="m179.86 308.05h1.29a7.54 7.54 0 0 1 1.49.09 1.73 1.73 0 0 1 .64.31 1.56 1.56 0 0 1 .46.56 1.73 1.73 0 0 1 .16.76 1.6 1.6 0 0 1 -.36 1.08 1.51 1.51 0 0 1 -.9.54 9.59 9.59 0 0 1 -1.67.11h-.46v3h-.65zm.65.63v2.2h1.09a1.76 1.76 0 0 0 1.3-.32 1.09 1.09 0 0 0 .33-.79c0-.73-.53-1.09-1.58-1.09z" fill="#383736"/><path d="m189.85 309.73v4.78h-.6v-.82a2.42 2.42 0 0 1 -1.88 1 2.36 2.36 0 0 1 -1.77-.75 2.47 2.47 0 0 1 -.73-1.79 2.43 2.43 0 0 1 .73-1.78 2.36 2.36 0 0 1 1.75-.75 2.27 2.27 0 0 1 1.9 1v-.87zm-.57 2.41a1.89 1.89 0 0 0 -.55-1.38 1.77 1.77 0 0 0 -1.34-.56 1.79 1.79 0 0 0 -1.35.58 1.94 1.94 0 0 0 -.55 1.37 1.9 1.9 0 0 0 .56 1.37 1.78 1.78 0 0 0 1.34.58 1.8 1.8 0 0 0 1.33-.55 1.89 1.89 0 0 0 .56-1.41z" fill="#383736"/><path d="m191.23 309.73h.63v.85a2.18 2.18 0 0 1 1.79-1 1.66 1.66 0 0 1 1 .3 1.56 1.56 0 0 1 .61.76 4.13 4.13 0 0 1 .18 1.39v2.46h-.61v-2.28a5.38 5.38 0 0 0 -.08-1.13 1.5 1.5 0 0 0 -.23-.51 1.11 1.11 0 0 0 -.4-.31 1.48 1.48 0 0 0 -.59-.11 1.52 1.52 0 0 0 -.68.17 1.74 1.74 0 0 0 -.57.48 1.68 1.68 0 0 0 -.31.63 6.12 6.12 0 0 0 -.08 1.3v1.76h-.63z" fill="#383736"/><path d="m197.89 313.75c0 .16 0 .26.06.29a.66.66 0 0 0 .32 0h.37v.52a4 4 0 0 1 -.59.06.82.82 0 0 1 -.6-.2.9.9 0 0 1 -.19-.62v-3.6h-.84v-.52h.84v-1.85h.63v1.85h1v.52h-1z" fill="#383736"/><path d="m199.55 312.15a2.48 2.48 0 0 1 .73-1.8 2.44 2.44 0 0 1 3.52 0 2.57 2.57 0 0 1 0 3.58 2.49 2.49 0 0 1 -3.54 0 2.48 2.48 0 0 1 -.71-1.78zm4.36 0a1.9 1.9 0 0 0 -.56-1.37 1.77 1.77 0 0 0 -2.62 0 2 2 0 0 0 0 2.74 1.84 1.84 0 0 0 2.65 0 1.86 1.86 0 0 0 .53-1.36z" fill="#383736"/><path d="m205.67 309.73h.62v.85a2.19 2.19 0 0 1 1.79-1 1.69 1.69 0 0 1 1 .3 1.62 1.62 0 0 1 .61.76 4.13 4.13 0 0 1 .18 1.39v2.46h-.62v-2.28a5.61 5.61 0 0 0 -.07-1.13 1.34 1.34 0 0 0 -.24-.51 1 1 0 0 0 -.4-.31 1.44 1.44 0 0 0 -.59-.11 1.55 1.55 0 0 0 -.68.17 1.61 1.61 0 0 0 -.56.48 1.71 1.71 0 0 0 -.32.63 6.9 6.9 0 0 0 -.08 1.3v1.76h-.62z" fill="#383736"/><path d="m215.18 313 .52.27a2.45 2.45 0 0 1 -2.28 1.44 2.36 2.36 0 0 1 -1.78-.74 2.64 2.64 0 0 1 0-3.58 2.3 2.3 0 0 1 1.75-.75 2.36 2.36 0 0 1 1.74.7 2.58 2.58 0 0 1 .74 1.89h-4.3a1.94 1.94 0 0 0 .54 1.39 1.68 1.68 0 0 0 1.25.52 1.94 1.94 0 0 0 1.82-1.14zm0-1.3a1.66 1.66 0 0 0 -.63-1.08 1.88 1.88 0 0 0 -1.16-.38 1.72 1.72 0 0 0 -1.76 1.46z" fill="#383736"/><path d="m219.38 308.05h1.28a2.44 2.44 0 0 1 1.54.41 1.39 1.39 0 0 1 .53 1.17 1.53 1.53 0 0 1 -.22.78 1.47 1.47 0 0 1 -.61.57 2 2 0 0 1 1 .65 1.6 1.6 0 0 1 .35 1 1.71 1.71 0 0 1 -.59 1.33 2.17 2.17 0 0 1 -1.51.53h-1.78zm.64.63v2.07h.37a2.36 2.36 0 0 0 1.26-.27 1 1 0 0 0 .41-.85c0-.63-.43-.95-1.3-.95zm0 2.71v2.49h.8a2.85 2.85 0 0 0 1-.14 1.18 1.18 0 0 0 .53-.43 1 1 0 0 0 .21-.6 1.19 1.19 0 0 0 -.46-1 1.57 1.57 0 0 0 -.55-.27 5.15 5.15 0 0 0 -1.19-.09z" fill="#383736"/><path d="m224.34 307.88h.66v6.63h-.61z" fill="#383736"/><path d="m231 309.73v4.78h-.61v-.82a2.37 2.37 0 0 1 -3.65.23 2.5 2.5 0 0 1 -.72-1.79 2.43 2.43 0 0 1 .73-1.78 2.36 2.36 0 0 1 1.75-.75 2.24 2.24 0 0 1 1.89 1v-.87zm-.57 2.41a1.89 1.89 0 0 0 -.55-1.38 1.87 1.87 0 0 0 -2.69 0 2 2 0 0 0 0 2.74 1.78 1.78 0 0 0 1.34.58 1.82 1.82 0 0 0 1.33-.55 1.93 1.93 0 0 0 .56-1.39z" fill="#383736"/><path d="m237 310.72-.48.31a2 2 0 0 0 -1.73-.84 2 2 0 0 0 -1.45.55 1.81 1.81 0 0 0 -.58 1.37 2 2 0 0 0 2 2 2.15 2.15 0 0 0 1.73-.83l.48.32a2.28 2.28 0 0 1 -1 .8 3.08 3.08 0 0 1 -1.31.28 2.51 2.51 0 0 1 -1.85-.73 2.37 2.37 0 0 1 -.74-1.78 2.45 2.45 0 0 1 .75-1.8 2.58 2.58 0 0 1 1.93-.76 2.77 2.77 0 0 1 1.28.3 2.17 2.17 0 0 1 .97.81z" fill="#383736"/><path d="m238.11 307.88h.62v3.78l2.2-1.93h.91l-2.63 2.27 2.78 2.5h-.87l-2.39-2.15v2.15h-.62z" fill="#383736"/></svg>