<svg viewBox="0 0 777.93 490.27" xmlns="http://www.w3.org/2000/svg" xmlns:xlink="http://www.w3.org/1999/xlink"><clipPath id="a"><path d="m314.63 148s1.41.69 4.4-.13a13 13 0 0 0 2.07-1.14l1.7 6.33s-4.73 8-6 8.2-10.29-.87-10.35-1.3-.39-6.5-.44-6.92 4-3.57 4.4-3.62 4.22-1.42 4.22-1.42z"/></clipPath><path d="m0 0h777.93v490.27h-777.93z" fill="#fff"/><g fill="#363736"><path d="m48 46.87h.72v4.33a8.69 8.69 0 0 0 0 1 1.4 1.4 0 0 0 .24.65 1.33 1.33 0 0 0 .57.5 1.69 1.69 0 0 0 .8.19 1.58 1.58 0 0 0 .74-.16 1.61 1.61 0 0 0 .54-.43 1.65 1.65 0 0 0 .31-.62 5.78 5.78 0 0 0 .08-1.14v-4.32h.71v4.33a4.88 4.88 0 0 1 -.22 1.67 2.05 2.05 0 0 1 -.77 1 2.23 2.23 0 0 1 -1.31.39 2.85 2.85 0 0 1 -1.08-.2 2.26 2.26 0 0 1 -.8-.54 2 2 0 0 1 -.44-.78 5.81 5.81 0 0 1 -.09-1.54z"/><path d="m54.47 54.05v-7.36h.67v3a2.67 2.67 0 0 1 2.13-1 2.59 2.59 0 0 1 1.94.82 2.88 2.88 0 0 1 0 4 2.63 2.63 0 0 1 -1.94.83 2.55 2.55 0 0 1 -2.11-1.16v1zm.63-2.69a2.22 2.22 0 0 0 .61 1.57 2.06 2.06 0 0 0 3 0 2.22 2.22 0 0 0 0-3.05 1.93 1.93 0 0 0 -1.5-.65 2 2 0 0 0 -1.5.61 2 2 0 0 0 -.61 1.52z"/><path d="m65.71 52.33.58.3a2.75 2.75 0 0 1 -2.54 1.6 2.61 2.61 0 0 1 -2-.83 2.9 2.9 0 0 1 0-4 2.54 2.54 0 0 1 1.94-.83 2.65 2.65 0 0 1 1.94.77 2.9 2.9 0 0 1 .81 2.1h-4.75a2.18 2.18 0 0 0 .61 1.56 1.88 1.88 0 0 0 1.39.59 2.17 2.17 0 0 0 2.02-1.26zm0-1.45a1.8 1.8 0 0 0 -.7-1.19 2 2 0 0 0 -1.29-.43 1.93 1.93 0 0 0 -2 1.62z"/><path d="m73 48.74v5.31h-.67v-.91a2.69 2.69 0 0 1 -2.08 1.09 2.61 2.61 0 0 1 -2-.84 2.84 2.84 0 0 1 0-4 2.62 2.62 0 0 1 1.94-.82 2.49 2.49 0 0 1 2.11 1.11v-1zm-.63 2.68a2.11 2.11 0 0 0 -.61-1.54 2.09 2.09 0 0 0 -3 0 2.18 2.18 0 0 0 -.61 1.53 2.14 2.14 0 0 0 .66 1.59 2 2 0 0 0 1.49.65 2 2 0 0 0 1.48-.65 2.15 2.15 0 0 0 .62-1.58z"/><path d="m74.31 48.74h.69v.77a2.47 2.47 0 0 1 .55-.69.87.87 0 0 1 .59-.22 1.36 1.36 0 0 1 .65.18l-.36.58a.59.59 0 0 0 -.31-.09.74.74 0 0 0 -.58.32 2 2 0 0 0 -.41.82 9.12 9.12 0 0 0 -.13 1.84v1.8h-.7z"/><path d="m80.33 48c.11-.2.21-.38.29-.54l.21-.42.14-.33c0-.09.06-.19.08-.27a3.12 3.12 0 0 0 .39.18 3.19 3.19 0 0 0 .4.12c.09 0 .13.05.13.1s-.06.08-.17.12l-.11.06a1 1 0 0 0 -.16.15l-.24.31c-.09.13-.21.3-.34.52h3.52.5.36v.39.4 5.21.41s0 .27 0 .39 0 .24 0 .33 0 .18 0 .24h-.69v-.9h-5.64v1h-.7c0-.16 0-.37 0-.63s0-.59 0-1v-5.1c0-.14 0-.28 0-.42s0-.26 0-.37h.76zm4.31 2.92v-2.4h-5.64v2.4zm-5.64.54v2.45h5.67v-2.45z"/><path d="m89 53.77c0 .14-.12.3-.19.47l-.24.51-.25.46a3.56 3.56 0 0 1 -.23.35l-.65-.24a8.14 8.14 0 0 0 .58-.81 3.47 3.47 0 0 0 .4-.92zm2.06-5.44q-.14-.16-.27-.3a2.44 2.44 0 0 0 -.29-.27l.38-.36a4.51 4.51 0 0 1 .38.39l.3.32c.09.11.18.21.26.32l.3.39-.44.34-.15-.23c0-.07-.1-.14-.15-.21l-2.66.18h-.57a1.91 1.91 0 0 0 -.39.08 1.2 1.2 0 0 0 -.2-.63h.49l.52-.49c.15-.14.28-.28.41-.42a4.94 4.94 0 0 0 .36-.44l.34-.49a2 2 0 0 0 .56.36c.13.06.13.11 0 .17a.81.81 0 0 0 -.2.11l-.28.22-.41.38-.62.6zm-2.42 4.92h-.64c0-.2 0-.38.06-.53s0-.29 0-.42 0-.24 0-.35v-1.64c0-.24 0-.42 0-.57a2.7 2.7 0 0 0 -.07-.41h.35.46.51.94.49.47.41c0 .15 0 .3-.07.45s0 .32 0 .53v2.14a1.35 1.35 0 0 1 -.05.38.41.41 0 0 1 -.2.25 1 1 0 0 1 -.42.14 6.78 6.78 0 0 1 -.73 0 .85.85 0 0 0 0-.3.78.78 0 0 0 -.17-.3 3.25 3.25 0 0 0 .57 0 .75.75 0 0 0 .33-.06.28.28 0 0 0 .14-.18 1.09 1.09 0 0 0 0-.28v-.33h-2.39zm2.36-2.79v-.61h-2.37v.61zm-2.36.4v.58h2.36v-.58zm1.92 4.68a8.82 8.82 0 0 0 -.2-.89 8 8 0 0 0 -.29-.83l.55-.13c0 .1.09.22.14.37s.1.31.15.48.09.33.13.49.07.29.09.41zm2.15-.2c0-.14-.09-.29-.14-.45s-.12-.32-.19-.47-.13-.29-.19-.41a1.81 1.81 0 0 0 -.18-.3l.51-.21c.12.2.23.42.36.68s.26.57.42 1zm.23-4.16c.6-.14 1.08-.28 1.44-.4a3.73 3.73 0 0 0 .85-.42 1.56 1.56 0 0 0 .17.25 1.2 1.2 0 0 0 .17.21c.09.08.12.15.1.21s-.09.09-.23.07h-.24l-.41.07c-.18 0-.42.09-.71.17l-1.15.29v.53a.6.6 0 0 0 0 .25.23.23 0 0 0 .14.15 1.06 1.06 0 0 0 .33.08h.6a7.42 7.42 0 0 0 .79 0 1.13 1.13 0 0 0 .44-.15.65.65 0 0 0 .23-.31c0-.13.08-.3.12-.5a1.23 1.23 0 0 0 .28.24 1 1 0 0 0 .3.1 3.86 3.86 0 0 1 -.26.62 1 1 0 0 1 -.37.35 1.71 1.71 0 0 1 -.62.15q-.37 0-1 0c-.37 0-.66 0-.88 0a.88.88 0 0 1 -.43-.14.49.49 0 0 1 -.2-.34 4.68 4.68 0 0 1 0-.62v-1.25c0-.18 0-.32 0-.45s0-.26 0-.4a3.06 3.06 0 0 0 .74.09c.1 0 .15 0 .16.07s0 .11-.11.18a.66.66 0 0 0 -.17.51zm0-3.12.79-.19a5.13 5.13 0 0 0 .58-.17 2.14 2.14 0 0 0 .43-.18 3.07 3.07 0 0 0 .36-.2 2.79 2.79 0 0 0 .16.28l.19.22c.09.08.12.14.1.19s-.09.07-.22.06h-.23-.41l-.67.14-1.02.29v.28a1 1 0 0 0 0 .22.29.29 0 0 0 .14.17.79.79 0 0 0 .33.08 4.47 4.47 0 0 0 .59 0 4.2 4.2 0 0 0 .68 0 .9.9 0 0 0 .42-.14.6.6 0 0 0 .24-.28 2.69 2.69 0 0 0 .14-.47.54.54 0 0 0 .23.22.94.94 0 0 0 .32.11 4.38 4.38 0 0 1 -.28.54 1 1 0 0 1 -.35.32 1.73 1.73 0 0 1 -.55.15c-.23 0-.52 0-.89 0s-.67 0-.88 0a.88.88 0 0 1 -.48-.14.53.53 0 0 1 -.2-.34 3.3 3.3 0 0 1 0-.61v-1c0-.18 0-.32 0-.43a3.18 3.18 0 0 0 0-.4l.34.06h.38.16s0 .09-.11.17a.4.4 0 0 0 -.13.21 1.69 1.69 0 0 0 0 .35zm2.4 7.37c-.17-.3-.37-.61-.6-.94a9.8 9.8 0 0 0 -.71-.87l.44-.3a8.94 8.94 0 0 1 .71.82q.36.47.69 1z"/><path d="m43 45.37h.84v11.26h-.84z"/><path d="m48 261.58h.72v4.33a8.47 8.47 0 0 0 0 1 1.4 1.4 0 0 0 .24.66 1.33 1.33 0 0 0 .57.5 1.8 1.8 0 0 0 .8.18 1.72 1.72 0 0 0 .74-.15 1.52 1.52 0 0 0 .54-.44 1.61 1.61 0 0 0 .31-.61 5.9 5.9 0 0 0 .08-1.15v-4.33h.71v4.33a4.8 4.8 0 0 1 -.22 1.67 2 2 0 0 1 -.77 1 2.23 2.23 0 0 1 -1.31.39 2.85 2.85 0 0 1 -1.08-.19 2.16 2.16 0 0 1 -.8-.55 1.9 1.9 0 0 1 -.44-.78 5.76 5.76 0 0 1 -.13-1.51z"/><path d="m54.47 268.76v-7.36h.67v3a2.67 2.67 0 0 1 2.13-1.05 2.6 2.6 0 0 1 1.94.83 2.86 2.86 0 0 1 0 4 2.6 2.6 0 0 1 -1.94.83 2.52 2.52 0 0 1 -2.11-1.16v1zm.63-2.69a2.21 2.21 0 0 0 .61 1.57 2.06 2.06 0 0 0 3 0 2.13 2.13 0 0 0 .61-1.52 2.21 2.21 0 0 0 -.6-1.53 2 2 0 0 0 -1.5-.65 2 2 0 0 0 -1.5.61 2.07 2.07 0 0 0 -.62 1.52z"/><path d="m65.71 267 .58.3a2.73 2.73 0 0 1 -2.54 1.6 2.6 2.6 0 0 1 -2-.82 2.91 2.91 0 0 1 0-4 2.57 2.57 0 0 1 1.94-.83 2.69 2.69 0 0 1 1.94.77 2.94 2.94 0 0 1 .81 2.1h-4.75a2.2 2.2 0 0 0 .61 1.55 1.87 1.87 0 0 0 1.39.58 2.16 2.16 0 0 0 2.02-1.25zm0-1.45a1.85 1.85 0 0 0 -.7-1.19 2.09 2.09 0 0 0 -1.29-.43 1.93 1.93 0 0 0 -2 1.62z"/><path d="m73 263.45v5.31h-.67v-.91a2.66 2.66 0 0 1 -2.08 1.09 2.6 2.6 0 0 1 -2-.83 2.76 2.76 0 0 1 -.81-2 2.73 2.73 0 0 1 .81-2 2.63 2.63 0 0 1 1.94-.83 2.49 2.49 0 0 1 2.11 1.11v-1zm-.63 2.68a2.1 2.1 0 0 0 -.61-1.53 2.07 2.07 0 0 0 -3 0 2.17 2.17 0 0 0 -.61 1.52 2.15 2.15 0 0 0 .62 1.53 2.07 2.07 0 0 0 3 0 2.12 2.12 0 0 0 .63-1.52z"/><path d="m74.31 263.45h.69v.77a2.81 2.81 0 0 1 .55-.69.92.92 0 0 1 .59-.22 1.36 1.36 0 0 1 .65.18l-.36.58a.59.59 0 0 0 -.31-.09.77.77 0 0 0 -.58.32 2 2 0 0 0 -.41.83 9.08 9.08 0 0 0 -.13 1.87v1.8h-.7z"/><path d="m79.29 268.67a4.1 4.1 0 0 1 -.25.4l-.33.47c-.12.16-.24.32-.36.46a4.44 4.44 0 0 1 -.33.37l-.54-.35a4.31 4.31 0 0 0 .43-.41 2.8 2.8 0 0 0 .32-.38 4 4 0 0 0 .27-.4c.08-.14.17-.31.26-.5zm2.82-1.12h2.2s1.16 0 1.65-.06v.63h-.83-.95-4.87-.94-.83v-.63h.8.89 1 1.24v-.99h-1.73-1.32v-.5h1.31 1.74v-.94h-1.73-.68-.6c0-.12 0-.25 0-.37s0-.24 0-.37 0-.27 0-.42v-.5c0-.38 0-.7 0-.95s0-.52-.06-.78h.65.75 4 .74.65v.78s0 .58 0 .95v.51s0 .29 0 .41 0 .24 0 .36v.37h-.61-.69-1.78v.95h1.75 1.32v.58h-1.32-1.75zm-.6-5.24h-2.4v2.32h2.4zm-.92 2.05a7.45 7.45 0 0 0 -.47-.84 5 5 0 0 0 -.48-.61l.47-.32a7.12 7.12 0 0 1 .54.69c.16.24.33.52.5.82zm.36 5.79a6.09 6.09 0 0 0 -.28-.78 3.31 3.31 0 0 0 -.44-.72l.51-.25a7 7 0 0 1 .43.71 6.74 6.74 0 0 1 .4.81zm1.16-5.52h2.47v-2.32h-2.47zm1.08 5.37c-.06-.14-.12-.27-.18-.38a3.24 3.24 0 0 0 -.17-.32 2.73 2.73 0 0 0 -.21-.3l-.29-.36.49-.3c.18.24.35.47.51.71a7.68 7.68 0 0 1 .41.68zm.9-7.11-.18.18c-.07.07-.14.16-.23.27l-.32.42-.42.62-.5-.3a6.14 6.14 0 0 0 .62-.73 6.59 6.59 0 0 0 .49-.8zm1.51 7.31-.24-.39-.26-.36c-.09-.12-.2-.25-.32-.38l-.44-.48.43-.35c.3.3.56.57.79.82s.42.49.59.72z"/><path d="m89 268.48c0 .15-.12.31-.19.48l-.24.5c-.09.17-.17.33-.25.47a3.26 3.26 0 0 1 -.23.34l-.65-.24a6.34 6.34 0 0 0 .58-.81 3.33 3.33 0 0 0 .4-.92zm2.05-5.48-.27-.3-.29-.27.38-.36.38.39c.11.12.21.22.3.33a4 4 0 0 1 .26.32l.3.38-.44.34-.15-.22c0-.07-.1-.14-.15-.22l-2.66.18-.57.05a3.08 3.08 0 0 0 -.39.07 1.27 1.27 0 0 0 -.2-.63h.49l.52-.48c.15-.14.28-.29.41-.43a4.82 4.82 0 0 0 .36-.43c.11-.15.22-.32.34-.5a2 2 0 0 0 .56.36c.13.06.13.12 0 .17l-.2.12a2.85 2.85 0 0 0 -.28.22c-.11.1-.25.22-.41.38l-.62.59zm-2.42 5h-.63c0-.2 0-.37.06-.53s0-.29 0-.41 0-.24 0-.36v-1.7c0-.23 0-.42 0-.56a3.07 3.07 0 0 0 -.06-.44h.35.46.51.94.49.47.41c0 .16 0 .31-.07.45s0 .33 0 .53v2.14a1.37 1.37 0 0 1 -.05.39.44.44 0 0 1 -.2.25 1 1 0 0 1 -.42.13 4.9 4.9 0 0 1 -.73 0 .93.93 0 0 0 -.22-.6 3.45 3.45 0 0 0 .57.05.74.74 0 0 0 .33-.07.26.26 0 0 0 .14-.17 1.17 1.17 0 0 0 0-.29v-.33h-2.35zm2.37-2.83v-.61h-2.37v.61zm-2.36.4v.58h2.36v-.58zm1.92 4.68c0-.3-.12-.59-.2-.89s-.18-.57-.29-.83l.55-.13c0 .1.09.23.14.38s.1.31.15.47.09.33.13.49.07.3.09.41zm2.15-.2c0-.14-.09-.29-.14-.45s-.12-.31-.19-.46-.13-.29-.19-.42a3.38 3.38 0 0 0 -.18-.3l.51-.21c.12.2.23.43.36.68s.26.57.42.95zm.23-4.16a13.46 13.46 0 0 0 1.44-.4 3.06 3.06 0 0 0 .85-.42 1.67 1.67 0 0 0 .17.26 1.12 1.12 0 0 0 .17.2c.09.08.12.16.1.22s-.09.08-.23.06h-.24l-.41.07-.71.16-1.15.29v.53a.62.62 0 0 0 0 .26.29.29 0 0 0 .14.15.86.86 0 0 0 .33.07 5.08 5.08 0 0 0 .6 0 5.45 5.45 0 0 0 .79 0 .88.88 0 0 0 .44-.15.58.58 0 0 0 .23-.3 4.94 4.94 0 0 0 .12-.51.88.88 0 0 0 .28.24.63.63 0 0 0 .3.1 3.5 3.5 0 0 1 -.26.62.89.89 0 0 1 -.37.35 1.71 1.71 0 0 1 -.62.15q-.37 0-1 0c-.37 0-.66 0-.88 0a1 1 0 0 1 -.48-.14.52.52 0 0 1 -.2-.34 4.73 4.73 0 0 1 0-.63v-1.23c0-.17 0-.32 0-.44s0-.26 0-.41a3.06 3.06 0 0 0 .74.09c.1 0 .15 0 .16.08s0 .11-.11.17a.7.7 0 0 0 -.17.51zm0-3.12c.31-.06.57-.13.79-.18l.58-.17.43-.18a2.12 2.12 0 0 0 .36-.21 1.56 1.56 0 0 0 .16.28 1.11 1.11 0 0 0 .19.22c.09.08.12.15.1.2s-.09.07-.22 0h-.23a2.63 2.63 0 0 0 -.41.05l-.69.22-1.06.25v.28a1 1 0 0 0 0 .27.27.27 0 0 0 .14.16 1 1 0 0 0 .33.09 4.81 4.81 0 0 0 .59 0 6.13 6.13 0 0 0 .68 0 1 1 0 0 0 .42-.14.62.62 0 0 0 .24-.29 2.45 2.45 0 0 0 .14-.47.57.57 0 0 0 .23.23.92.92 0 0 0 .32.1 4.38 4.38 0 0 1 -.28.54.89.89 0 0 1 -.35.32 1.33 1.33 0 0 1 -.55.15 7.21 7.21 0 0 1 -.89 0h-.88a1.09 1.09 0 0 1 -.48-.14.56.56 0 0 1 -.2-.34 3.42 3.42 0 0 1 0-.62v-1c0-.17 0-.31 0-.43a3.58 3.58 0 0 0 0-.4 1.06 1.06 0 0 0 .34.06h.38c.09 0 .15 0 .16.05s0 .09-.11.16a.43.43 0 0 0 -.17.17 1.67 1.67 0 0 0 0 .34zm2.4 7.37q-.26-.43-.6-.93c-.24-.33-.48-.62-.71-.88l.44-.3c.23.24.46.51.71.82s.47.64.69 1z"/><path d="m43 260.08h.84v11.26h-.84z"/></g><path d="m135.3 144c1.64-13-2.3-25.32-9.48-35.91s-17.3-18.62-31.13-20c-2.85-.28-5.59-.86-8.48-.87a49.68 49.68 0 0 0 -16.72 2.78 39.82 39.82 0 0 0 -6.91 3.23c-5.44 3.19-8.39 5.47-12.26 10.78a88.45 88.45 0 0 0 -10.1 17.7c-4.27 10.16-4.28 25.57.67 35.75 2.67 5.49 7.62 10.06 12.18 13.77" fill="#fff"/><path d="m52.94 171.35c-4.25-3.46-9.47-8.15-12.24-13.84-4.82-9.92-5.11-25.36-.67-35.92a88.63 88.63 0 0 1 10.12-17.74c3.92-5.38 7-7.69 12.32-10.84a40.53 40.53 0 0 1 7-3.25 50.21 50.21 0 0 1 16.53-2.76h.23a42.67 42.67 0 0 1 5.61.52c.94.12 1.91.26 2.89.36 12.56 1.26 23.09 8 31.28 20.1 7.76 11.45 11 23.91 9.51 36.05h-.41c1.53-12-1.74-24.41-9.44-35.77-8.12-12-18.55-18.67-31-19.92-1-.1-2-.23-2.9-.36a41.92 41.92 0 0 0 -5.55-.52h-.22a49.78 49.78 0 0 0 -16.42 2.76 40.76 40.76 0 0 0 -6.88 3.22c-5.3 3.12-8.32 5.4-12.19 10.73a88.28 88.28 0 0 0 -10.08 17.65c-4.4 10.46-4.11 25.76.66 35.58 2.71 5.54 7.91 10.2 12.11 13.6z" fill="#fff"/><path d="m82.22 86a1.25 1.25 0 0 1 -.45.32c.35-.11-.84-.51-.88-.51-.57-.07-1.24.62-1.72.83-1.27.56-5 1.9-5.59 3.37.13-.35 9.75.66 10.26.72 3.73.45 8.46.75 11.91-.72.36-.16 3.86 0 3.83-.43s-4.36-1.76-4.67-1.9a43 43 0 0 1 -4.91-2.48c-1.47-.87-1.92-.53-3.41.11-.37.16 1.27-1.58.72-1.37-.38.14.11-.11-.57-.63s-3.43 1.61-4.52 2.69z" fill="#fff"/><path d="m89.18 91.27a45 45 0 0 1 -5.36-.37c-1.51-.18-9.55-1-10.12-.76l-.06-.14-.25-.09c.51-1.33 3.31-2.49 5-3.18l.69-.29a3 3 0 0 0 .51-.31 2.19 2.19 0 0 1 1.32-.54 3.09 3.09 0 0 1 1 .42l.17-.16.16.14-.15-.15s3.69-3.49 4.8-2.66a1.13 1.13 0 0 1 .46.57.23.23 0 0 1 .26.09c.15.19 0 .42-.49 1a2.67 2.67 0 0 1 3 .15 42.84 42.84 0 0 0 4.88 2.46l.7.25c3.65 1.28 4.06 1.55 4.08 1.82a.25.25 0 0 1 -.07.21c-.19.22-.84.28-2.57.34a9.38 9.38 0 0 0 -1.31.09 17.16 17.16 0 0 1 -6.65 1.11zm-14.92-1.58c.69 0 2 .08 4.33.28s5 .49 5.27.52c3.7.43 8.37.75 11.81-.72a6.86 6.86 0 0 1 1.45-.11 18 18 0 0 0 2.1-.15c-.66-.36-2.87-1.14-3.66-1.42l-.73-.26a42.73 42.73 0 0 1 -4.93-2.45c-1.24-.74-1.65-.56-2.84 0l-.38.16a.22.22 0 0 1 -.29-.06c-.13-.17 0-.32.38-.84l.32-.43a.26.26 0 0 1 -.11-.23c0-.07 0-.21-.33-.44-.47-.36-2.64 1.09-4.26 2.63l-.17-.17.13.16a1.47 1.47 0 0 1 -.52.36l-.12-.4a.17.17 0 0 0 -.08.11.16.16 0 0 0 0 .13 3.38 3.38 0 0 0 -.82-.35c-.29 0-.67.24-1 .48a4.49 4.49 0 0 1 -.57.34l-.7.3c-1.37.56-3.79 1.56-4.58 2.61z" fill="#fff"/><path d="m118.72 171.2a41.48 41.48 0 0 0 11.12-11.7 38.18 38.18 0 0 0 5.39-15c0-.17.05-.34.07-.51 1.64-13-2.3-25.32-9.48-35.91a57.94 57.94 0 0 0 -3.95-5.18 9.25 9.25 0 0 0 2.64-7.52 9.42 9.42 0 0 0 -10.21-8.23 8.9 8.9 0 0 0 -7.4 4.18 38.38 38.38 0 0 0 -10-3c-1-.35-1.88-.66-2-.72a43 43 0 0 1 -4.9-2.41c-1.47-.87-1.92-.53-3.41.11-.37.16 1.27-1.58.72-1.37-.38.14.11-.11-.57-.63s-3.43 1.61-4.52 2.69a1.25 1.25 0 0 1 -.45.32c.35-.11-.84-.51-.88-.51-.57-.07-1.24.62-1.72.83a36.78 36.78 0 0 0 -3.8 1.75 46.06 46.06 0 0 0 -5.88 1.61 39.42 39.42 0 0 0 -6.56 3 10.16 10.16 0 1 0 -14.55 13.78 85.58 85.58 0 0 0 -8.16 14.88c-4.27 10.16-4.28 25.57.67 35.75 2.67 5.49 7.62 10.06 12.18 13.77a47.68 47.68 0 0 0 23 9.7c14.05 2.12 30.55-.98 42.65-9.68z" fill="#fff"/><path d="m84.82 182.05a58.68 58.68 0 0 1 -8.81-.66 48.24 48.24 0 0 1 -23.26-9.82c-4.26-3.47-9.52-8.19-12.31-13.93-4.86-10-5.15-25.53-.68-36.17a86.91 86.91 0 0 1 7.94-14.57 10.66 10.66 0 1 1 15.37-14.55 41.38 41.38 0 0 1 6.26-2.87 47.85 47.85 0 0 1 5.86-1.6 26.92 26.92 0 0 1 3.1-1.45l.67-.28a4.25 4.25 0 0 0 .46-.29 2.4 2.4 0 0 1 1.58-.59 3.4 3.4 0 0 1 .91.34c.66-.63 4-3.62 5.19-2.7a1.72 1.72 0 0 1 .48.53.48.48 0 0 1 .3.2.54.54 0 0 1 0 .63 2.84 2.84 0 0 1 2.41.5 40.74 40.74 0 0 0 4.86 2.41 6.91 6.91 0 0 0 .69.25l1.29.46a39.07 39.07 0 0 1 9.61 2.8 9.54 9.54 0 0 1 7.56-4 9.94 9.94 0 0 1 10.7 8.64 9.77 9.77 0 0 1 -2.47 7.59 56.74 56.74 0 0 1 3.69 4.88c7.8 11.5 11.11 24 9.56 36.25l-.06.52a38.88 38.88 0 0 1 -5.46 15.2 42.28 42.28 0 0 1 -11.26 11.84c-9.32 6.7-21.84 10.44-34.18 10.44zm-30.31-93.05a9.07 9.07 0 0 0 -1 .06 9.65 9.65 0 0 0 -4.79 17.31.5.5 0 0 1 .11.68 86.73 86.73 0 0 0 -8.11 14.79c-4.37 10.4-4.09 25.59.66 35.34 2.7 5.57 7.86 10.19 12 13.6a47.33 47.33 0 0 0 22.78 9.6c14.7 2.24 30.9-1.44 42.27-9.61a41.07 41.07 0 0 0 11-11.55 38 38 0 0 0 5.32-14.81l.06-.51c1.52-12-1.73-24.26-9.4-35.56a57.49 57.49 0 0 0 -3.91-5.14.49.49 0 0 1 0-.67 8.76 8.76 0 0 0 2.5-7.12 8.92 8.92 0 0 0 -9.67-7.78 8.34 8.34 0 0 0 -7 3.93.5.5 0 0 1 -.64.2 38.38 38.38 0 0 0 -9.85-2.93l-1.37-.47-.77-.28a44.08 44.08 0 0 1 -5-2.47c-1.11-.66-1.39-.54-2.57 0l-.38.17a.56.56 0 0 1 -.64-.15c-.27-.34-.06-.63.38-1.19l.18-.25a.75.75 0 0 1 -.07-.23s0-.1-.2-.24c-.42-.1-2.36 1.17-3.89 2.61a1.78 1.78 0 0 1 -.64.44.5.5 0 0 1 -.62-.31c-.18-.08-.44-.17-.53-.2a4.31 4.31 0 0 0 -.78.44 4.37 4.37 0 0 1 -.62.37l-.7.29a27.15 27.15 0 0 0 -3 1.43l-.15.06a44.85 44.85 0 0 0 -5.81 1.59 39.09 39.09 0 0 0 -6.48 3 .52.52 0 0 1 -.67-.15 9.63 9.63 0 0 0 -8-4.29z" fill="#221714"/><path d="m84.39 140.74a4.15 4.15 0 0 1 -2.38-.8 2 2 0 0 1 0-3.25c1.45-.88 3.77-.41 5.36-.38a15.64 15.64 0 0 1 4.48.36c1.48.47-.64 3.27-1.55 3.87a7.28 7.28 0 0 1 -8.18-.44c-1.88-1.46-1.63-3.6 1-3.74" fill="#211512"/><path d="m83.32 150.87a5.24 5.24 0 0 1 -1.5-.22 3.9 3.9 0 0 1 -2.4-1.83.82.82 0 1 1 1.46-.76 2.35 2.35 0 0 0 1.41 1 3.08 3.08 0 0 0 2.26-.13 5 5 0 0 0 1.61-1.6c0-.06-.27-6.22-.27-6.22l1.65-.07c.26 6.29.26 6.29.26 6.32.06 1.41-2.42 3-2.45 3a4.23 4.23 0 0 1 -2.03.51z" fill="#211512"/><path d="m91 150.6a9.1 9.1 0 0 1 -1-.06c-2.33-.21-3.68-2.67-3.74-2.78a.82.82 0 0 1 .33-1.12.84.84 0 0 1 1.12.33s1 1.8 2.44 1.93c2 .18 2.75-.21 3.09-1.53a.83.83 0 0 1 1.6.41 3.57 3.57 0 0 1 -3.84 2.82z" fill="#211512"/><path d="m82.62 149.78a2.12 2.12 0 0 0 .14.31 4.87 4.87 0 0 0 6.65 2.26 4.43 4.43 0 0 0 1.9-1.67 7.41 7.41 0 0 0 .81-1.55 7.34 7.34 0 0 1 -3.12-.13 9.65 9.65 0 0 0 -2.1-.56c-1.56 0-3 .86-4.36 1.21.44.77.44 1.64 1.38 2.29a4.33 4.33 0 0 0 3.42.49" fill="#211512"/><path d="m75.51 131.88a3.18 3.18 0 1 1 -2.42-3.8 3.18 3.18 0 0 1 2.42 3.8z" fill="#140509"/><path d="m73.87 130.13a1.08 1.08 0 1 1 -1.36-.68 1.07 1.07 0 0 1 1.36.68z" fill="#fff"/><path d="m103.16 131a3.18 3.18 0 1 1 -2.36-3.83 3.19 3.19 0 0 1 2.36 3.83z" fill="#140509"/><path d="m101.55 129.25a1.07 1.07 0 0 1 -.7 1.35 1.08 1.08 0 1 1 .7-1.35z" fill="#fff"/><path d="m251.79 145c1.64-13-2.3-25.32-9.49-35.91s-17.29-18.62-31.13-20c-2.85-.28-5.58-.86-8.47-.87a49.64 49.64 0 0 0 -16.7 2.78 39.48 39.48 0 0 0 -6.91 3.23c-5.44 3.19-8.39 5.47-12.26 10.78a88.45 88.45 0 0 0 -10.1 17.7c-4.27 10.16-4.28 25.57.66 35.75 2.68 5.49 7.63 10.06 12.19 13.77" fill="#fff"/><path d="m169.43 172.35c-4.25-3.46-9.47-8.15-12.24-13.84-4.82-9.92-5.11-25.36-.67-35.92a88.14 88.14 0 0 1 10.12-17.74c3.92-5.38 7-7.69 12.32-10.84a40.79 40.79 0 0 1 6.95-3.25 50.32 50.32 0 0 1 16.56-2.76h.23a42.36 42.36 0 0 1 5.6.52c.95.12 1.92.26 2.89.36 12.57 1.27 23.1 8 31.29 20.1 7.76 11.44 11.05 23.91 9.51 36.05h-.41c1.53-12-1.74-24.41-9.45-35.77-8.11-12-18.54-18.67-31-19.92-1-.1-2-.23-2.9-.36a41.92 41.92 0 0 0 -5.55-.52h-.23a49.69 49.69 0 0 0 -16.42 2.76 40 40 0 0 0 -6.88 3.22c-5.3 3.12-8.32 5.4-12.19 10.73a87.32 87.32 0 0 0 -10.08 17.65c-4.4 10.46-4.11 25.76.66 35.58 2.73 5.62 7.92 10.27 12.13 13.7z" fill="#fff"/><path d="m198.7 87a1.3 1.3 0 0 1 -.44.32c.35-.11-.84-.51-.88-.51-.57-.07-1.24.62-1.73.83-1.26.56-5 1.9-5.58 3.37.13-.35 9.74.66 10.26.72 3.73.45 8.46.75 11.91-.72.36-.16 3.86 0 3.83-.43s-4.36-1.76-4.67-1.9a42.2 42.2 0 0 1 -4.9-2.44c-1.47-.87-1.92-.53-3.41.11-.37.16 1.26-1.58.72-1.37-.38.14.11-.11-.58-.63s-3.43 1.57-4.53 2.65z" fill="#fff"/><path d="m205.66 92.27a45.27 45.27 0 0 1 -5.36-.37c-1.5-.18-9.54-1-10.11-.76l-.06-.15-.25-.09c.52-1.33 3.32-2.49 5-3.18l.69-.29a3 3 0 0 0 .51-.31 2.11 2.11 0 0 1 1.32-.54 3.18 3.18 0 0 1 1 .42l.17-.16.15.14-.14-.15s3.69-3.49 4.8-2.66a1.19 1.19 0 0 1 .46.57.23.23 0 0 1 .26.09c.14.19 0 .42-.49 1a2.67 2.67 0 0 1 3 .15 42.84 42.84 0 0 0 4.89 2.43l.69.25c3.66 1.28 4.07 1.55 4.09 1.82a.28.28 0 0 1 -.07.21c-.2.22-.84.28-2.57.34a9.25 9.25 0 0 0 -1.31.09 17.21 17.21 0 0 1 -6.67 1.15zm-14.91-1.58c.69 0 2 .08 4.32.28s5 .49 5.28.52c3.69.43 8.37.75 11.81-.72a6.86 6.86 0 0 1 1.45-.11 18 18 0 0 0 2.1-.15c-.66-.36-2.88-1.14-3.67-1.42l-.72-.26a42.73 42.73 0 0 1 -4.93-2.45c-1.25-.74-1.65-.56-2.84 0l-.38.16a.24.24 0 0 1 -.3-.06c-.13-.17 0-.32.39-.84l.32-.43a.28.28 0 0 1 -.12-.23c0-.07 0-.21-.32-.44-.49-.36-2.64 1.1-4.26 2.63l-.18-.17.14.16a1.57 1.57 0 0 1 -.52.36l-.12-.4a.14.14 0 0 0 -.08.11.16.16 0 0 0 0 .13 3.38 3.38 0 0 0 -.82-.35c-.3 0-.67.24-1 .48a4.49 4.49 0 0 1 -.57.34l-.7.3c-1.37.56-3.79 1.56-4.58 2.61z" fill="#fff"/><path d="m235.21 172.2a41.62 41.62 0 0 0 11.12-11.7 38.18 38.18 0 0 0 5.39-15c0-.17.05-.34.07-.51 1.64-13-2.3-25.32-9.49-35.91a57.84 57.84 0 0 0 -3.94-5.18 9.28 9.28 0 0 0 2.64-7.52 9.42 9.42 0 0 0 -10.21-8.23 8.88 8.88 0 0 0 -7.4 4.18 38.5 38.5 0 0 0 -10-3c-1-.35-1.88-.66-2-.72a42.2 42.2 0 0 1 -4.9-2.44c-1.47-.87-1.92-.53-3.41.11-.37.16 1.26-1.58.72-1.37-.38.14.11-.11-.58-.63s-3.42 1.64-4.52 2.72a1.3 1.3 0 0 1 -.44.32c.35-.11-.84-.51-.88-.51-.57-.07-1.24.62-1.73.83a36.78 36.78 0 0 0 -3.79 1.75 46.06 46.06 0 0 0 -5.86 1.61 39.42 39.42 0 0 0 -6.58 3 10.16 10.16 0 1 0 -14.55 13.78 85.58 85.58 0 0 0 -8.16 14.88c-4.27 10.16-4.28 25.57.66 35.75 2.68 5.49 7.63 10.06 12.19 13.77a47.68 47.68 0 0 0 23 9.7c14.04 2.12 30.55-.98 42.65-9.68z" fill="#fff"/><path d="m201.31 183.05a58.81 58.81 0 0 1 -8.82-.66 48.24 48.24 0 0 1 -23.25-9.82c-4.27-3.47-9.52-8.19-12.31-13.93-4.86-10-5.15-25.53-.68-36.17a86.19 86.19 0 0 1 7.94-14.57 10.66 10.66 0 1 1 15.37-14.55 40.42 40.42 0 0 1 6.26-2.87 47.65 47.65 0 0 1 5.85-1.6 27.81 27.81 0 0 1 3.11-1.45l.67-.28a4.25 4.25 0 0 0 .46-.29 2.4 2.4 0 0 1 1.53-.59 3.53 3.53 0 0 1 .91.34c.66-.63 3.93-3.64 5.18-2.7a1.77 1.77 0 0 1 .49.53.55.55 0 0 1 .32.83 2.84 2.84 0 0 1 2.41.5 40.58 40.58 0 0 0 4.85 2.41l.69.25 1.3.46a39.19 39.19 0 0 1 9.61 2.8 9.52 9.52 0 0 1 7.56-4 9.92 9.92 0 0 1 10.73 8.67 9.72 9.72 0 0 1 -2.46 7.59 60 60 0 0 1 3.69 4.88c7.8 11.5 11.11 24 9.56 36.25l-.07.52a38.93 38.93 0 0 1 -5.45 15.2 42.42 42.42 0 0 1 -11.26 11.84c-9.33 6.67-21.85 10.41-34.19 10.41zm-30.31-93.05a8.89 8.89 0 0 0 -1 .06 9.65 9.65 0 0 0 -4.79 17.31.5.5 0 0 1 .11.68 85.74 85.74 0 0 0 -8.11 14.79c-4.37 10.4-4.09 25.59.65 35.34 2.71 5.57 7.87 10.19 12.05 13.6a47.29 47.29 0 0 0 22.77 9.6c14.71 2.24 30.91-1.44 42.28-9.61a41.22 41.22 0 0 0 11-11.55 38 38 0 0 0 5.31-14.81l.07-.51c1.52-12-1.73-24.26-9.4-35.56a59 59 0 0 0 -3.91-5.14.49.49 0 0 1 0-.67 8.76 8.76 0 0 0 2.5-7.12 8.94 8.94 0 0 0 -9.67-7.78 8.37 8.37 0 0 0 -7 3.93.48.48 0 0 1 -.63.2 38.38 38.38 0 0 0 -9.85-2.93l-1.38-.46-.76-.27a44.08 44.08 0 0 1 -5-2.47c-1.12-.66-1.4-.54-2.57 0l-.38.17a.58.58 0 0 1 -.65-.15c-.27-.34 0-.63.38-1.19l.19-.25a.75.75 0 0 1 -.07-.23s0-.1-.21-.24c-.45-.11-2.36 1.17-3.88 2.61a1.78 1.78 0 0 1 -.64.44.51.51 0 0 1 -.62-.31 5.71 5.71 0 0 0 -.54-.2 3.76 3.76 0 0 0 -.77.44 5 5 0 0 1 -.62.37l-.7.29a27.15 27.15 0 0 0 -3 1.43l-.15.06a44.85 44.85 0 0 0 -5.81 1.59 39.56 39.56 0 0 0 -6.49 3 .49.49 0 0 1 -.66-.15 9.65 9.65 0 0 0 -8.05-4.31z" fill="#221714"/><path d="m207.78 151.8a4.44 4.44 0 0 1 -1.87-.38s-2.9-1.56-2.95-3.16c0-.12-.23-7-.23-7a.91.91 0 0 1 .88-.94.91.91 0 0 1 .9.88c.23 7 .23 7 .23 7a6.41 6.41 0 0 0 1.9 1.54 3.46 3.46 0 0 0 2.51 0 2.57 2.57 0 0 0 1.48-1.24.9.9 0 1 1 1.66.72 4.29 4.29 0 0 1 -2.49 2.21 5.68 5.68 0 0 1 -2.02.37z" fill="#231815"/><path d="m199.17 152.13a3.78 3.78 0 0 1 -3.94-2.8.91.91 0 0 1 1.72-.58c.49 1.44 1.38 1.8 3.55 1.44 1.58-.26 2.53-2.31 2.54-2.33a.9.9 0 1 1 1.65.74c-.05.12-1.35 3-3.9 3.38a9.57 9.57 0 0 1 -1.62.15z" fill="#231815"/><path d="m192.4 133a3.23 3.23 0 1 1 -2.89-3.53 3.22 3.22 0 0 1 2.89 3.53" fill="#140508"/><path d="m190.54 131.41a1.09 1.09 0 0 1 -2 .93 1.09 1.09 0 1 1 2-.93" fill="#fff"/><path d="m219.47 131.88a3.23 3.23 0 1 1 -2.89-3.54 3.23 3.23 0 0 1 2.89 3.54" fill="#140508"/><path d="m217.61 130.31a1.08 1.08 0 0 1 -.52 1.45 1.09 1.09 0 1 1 -.93-2 1.08 1.08 0 0 1 1.45.52" fill="#fff"/><path d="m205.72 144a4.55 4.55 0 0 0 2.6-1 2.2 2.2 0 0 0 -.17-3.6c-1.64-.91-4.19-.29-6-.19a11.41 11.41 0 0 0 -3.88.85c-1.62.59-.21 3.34.82 4a8.06 8.06 0 0 0 9-.84c2-1.7 1.65-4.06-1.21-4.09" fill="#231815"/><path d="m483.17 145c1.65-13-2.3-25.32-9.48-35.91s-17.29-18.62-31.13-20c-2.85-.28-5.58-.86-8.47-.87a49.64 49.64 0 0 0 -16.72 2.78 39.92 39.92 0 0 0 -6.92 3.23c-5.43 3.19-8.39 5.47-12.26 10.78a88.45 88.45 0 0 0 -10.1 17.7c-4.26 10.16-4.28 25.57.67 35.75 2.67 5.49 7.63 10.06 12.18 13.77" fill="#fff"/><path d="m400.81 172.35c-4.24-3.46-9.47-8.15-12.23-13.84-4.83-9.92-5.12-25.36-.68-35.92a88.69 88.69 0 0 1 10.1-17.74c3.91-5.38 7-7.69 12.32-10.84a40.44 40.44 0 0 1 6.95-3.25 50.26 50.26 0 0 1 16.58-2.76h.24a42.52 42.52 0 0 1 5.6.52c.94.12 1.92.26 2.89.36 12.57 1.26 23.09 8 31.28 20.1 7.77 11.45 11.06 23.91 9.52 36.05h-.41c1.52-12-1.74-24.41-9.45-35.77-8.12-12-18.54-18.67-31-19.92-1-.1-2-.23-2.91-.36a41.93 41.93 0 0 0 -5.54-.52h-.24a49.67 49.67 0 0 0 -16.41 2.76 40.4 40.4 0 0 0 -6.88 3.22c-5.31 3.12-8.33 5.4-12.2 10.73a88.28 88.28 0 0 0 -10.08 17.65c-4.39 10.46-4.11 25.76.67 35.58 2.73 5.62 7.91 10.27 12.12 13.7z" fill="#fff"/><path d="m430.09 87a1.25 1.25 0 0 1 -.45.32c.36-.11-.84-.51-.87-.51-.58-.07-1.25.62-1.73.83-1.26.56-5 1.9-5.58 3.37.13-.35 9.74.66 10.25.72 3.73.45 8.46.75 11.91-.72.36-.16 3.87 0 3.83-.43s-4.35-1.76-4.66-1.9a42.35 42.35 0 0 1 -4.91-2.44c-1.47-.87-1.92-.53-3.4.11-.38.16 1.26-1.58.72-1.37-.38.14.1-.11-.58-.63s-3.44 1.57-4.53 2.65z" fill="#fff"/><path d="m437.05 92.27a45.27 45.27 0 0 1 -5.36-.37c-1.5-.18-9.55-1-10.12-.76l-.05-.15-.26-.09c.52-1.33 3.32-2.49 5-3.18l.69-.29a3 3 0 0 0 .5-.31 2.16 2.16 0 0 1 1.33-.54 3.07 3.07 0 0 1 1 .42l.18-.16.15.14-.14-.15s3.69-3.49 4.8-2.66a1.15 1.15 0 0 1 .45.57.25.25 0 0 1 .27.09c.14.19 0 .42-.5 1a2.67 2.67 0 0 1 3 .15 43.51 43.51 0 0 0 4.88 2.43l.7.25c3.66 1.28 4.07 1.55 4.09 1.82a.28.28 0 0 1 -.07.21c-.2.22-.85.28-2.58.34a9.38 9.38 0 0 0 -1.31.09 17.16 17.16 0 0 1 -6.65 1.15zm-14.92-1.58c.7 0 2 .08 4.33.28s5 .49 5.28.52c3.69.43 8.37.75 11.8-.72a7.1 7.1 0 0 1 1.46-.11 18.15 18.15 0 0 0 2.1-.15c-.67-.36-2.88-1.14-3.67-1.42l-.72-.26a41.93 41.93 0 0 1 -4.93-2.45c-1.25-.74-1.65-.56-2.84 0l-.38.16a.24.24 0 0 1 -.3-.06c-.13-.17 0-.32.38-.84.1-.12.23-.29.33-.43a.26.26 0 0 1 -.11-.23c0-.07 0-.21-.32-.44-.48-.37-2.65 1.09-4.27 2.63l-.14-.15.13.16a1.53 1.53 0 0 1 -.51.36l-.13-.4a.17.17 0 0 0 -.07.11.16.16 0 0 0 0 .13 3.3 3.3 0 0 0 -.81-.35c-.29 0-.68.24-1 .48a4.49 4.49 0 0 1 -.57.34l-.71.3c-1.36.56-3.79 1.56-4.57 2.61z" fill="#fff"/><path d="m466.6 172.2a41.76 41.76 0 0 0 11.12-11.7 38.34 38.34 0 0 0 5.39-15l.06-.51c1.65-13-2.3-25.32-9.48-35.91a57.94 57.94 0 0 0 -3.95-5.18 9.25 9.25 0 0 0 2.64-7.52 9.4 9.4 0 0 0 -10.2-8.23 8.87 8.87 0 0 0 -7.4 4.18 38.5 38.5 0 0 0 -10-3c-1-.35-1.89-.66-2-.72a42.35 42.35 0 0 1 -4.91-2.44c-1.47-.87-1.92-.53-3.4.11-.38.16 1.26-1.58.72-1.37-.38.14.1-.11-.58-.63s-3.44 1.61-4.53 2.65a1.25 1.25 0 0 1 -.45.32c.36-.11-.84-.51-.87-.51-.58-.07-1.25.62-1.73.83a37.78 37.78 0 0 0 -3.8 1.75 45.47 45.47 0 0 0 -5.86 1.68 39.52 39.52 0 0 0 -6.57 3 10.16 10.16 0 1 0 -14.55 13.78 86.92 86.92 0 0 0 -8.16 14.88c-4.26 10.16-4.28 25.57.67 35.75 2.67 5.49 7.63 10.06 12.18 13.77a47.76 47.76 0 0 0 23 9.7c14.06 2.12 30.55-.98 42.66-9.68z" fill="#fff"/><path d="m432.7 183.05a58.81 58.81 0 0 1 -8.82-.66 48.24 48.24 0 0 1 -23.25-9.82c-4.27-3.47-9.52-8.19-12.32-13.93-4.85-10-5.14-25.53-.68-36.17a86.27 86.27 0 0 1 7.95-14.57 10.66 10.66 0 1 1 15.42-14.55 40.76 40.76 0 0 1 6.25-2.87 48.35 48.35 0 0 1 5.86-1.6 27 27 0 0 1 3.11-1.45l.67-.28c.14-.07.29-.18.46-.29a2.4 2.4 0 0 1 1.52-.59 3.41 3.41 0 0 1 .92.34c.66-.63 3.95-3.63 5.18-2.7a1.6 1.6 0 0 1 .48.53.48.48 0 0 1 .3.2.56.56 0 0 1 0 .63 2.84 2.84 0 0 1 2.41.5 40.58 40.58 0 0 0 4.84 2.41l.69.25 1.3.46a39 39 0 0 1 9.6 2.8 9.54 9.54 0 0 1 7.57-4 9.93 9.93 0 0 1 10.73 8.67 9.76 9.76 0 0 1 -2.46 7.59c1.3 1.55 2.54 3.2 3.69 4.88 7.8 11.5 11.11 24 9.56 36.25l-.07.52a38.94 38.94 0 0 1 -5.46 15.2 42.24 42.24 0 0 1 -11.25 11.84c-9.34 6.67-21.9 10.41-34.2 10.41zm-30.32-93.05a9.2 9.2 0 0 0 -1 .06 9.65 9.65 0 0 0 -4.79 17.31.49.49 0 0 1 .12.68 86.5 86.5 0 0 0 -8.12 14.79c-4.36 10.4-4.08 25.59.66 35.34 2.71 5.57 7.86 10.19 12.05 13.6a47.29 47.29 0 0 0 22.7 9.62c14.71 2.24 30.91-1.44 42.27-9.61a41.07 41.07 0 0 0 11-11.55 37.87 37.87 0 0 0 5.32-14.81l.07-.51c1.51-12-1.74-24.26-9.4-35.56a57.59 57.59 0 0 0 -3.92-5.14.5.5 0 0 1 0-.67 8.76 8.76 0 0 0 2.5-7.12 9 9 0 0 0 -9.68-7.78 8.36 8.36 0 0 0 -7 3.93.5.5 0 0 1 -.64.2 38.43 38.43 0 0 0 -9.84-2.93l-1.38-.48-.76-.27a43.25 43.25 0 0 1 -5-2.47c-1.12-.66-1.4-.54-2.58 0l-.38.17a.57.57 0 0 1 -.64-.15c-.27-.34 0-.63.38-1.19l.19-.25a.55.55 0 0 1 -.07-.23s0-.1-.21-.24c-.41-.09-2.36 1.17-3.88 2.61a1.87 1.87 0 0 1 -.64.44.51.51 0 0 1 -.62-.31c-.18-.08-.43-.17-.53-.2a4 4 0 0 0 -.78.44 3.88 3.88 0 0 1 -.62.37l-.69.29a27.24 27.24 0 0 0 -3.06 1.43.35.35 0 0 1 -.14.06 44.4 44.4 0 0 0 -5.81 1.59 39.56 39.56 0 0 0 -6.49 3 .49.49 0 0 1 -.66-.15 9.67 9.67 0 0 0 -7.93-4.31z" fill="#221714"/><path d="m439.17 151.8a4.48 4.48 0 0 1 -1.88-.38s-2.89-1.56-3-3.16c0-.12-.22-7-.22-7a.91.91 0 0 1 .87-.94.94.94 0 0 1 .94.88c.23 7 .23 7 .23 7a6.48 6.48 0 0 0 1.89 1.54 3.48 3.48 0 0 0 2.52 0 2.58 2.58 0 0 0 1.47-1.24.91.91 0 0 1 1.2-.47.9.9 0 0 1 .47 1.19 4.28 4.28 0 0 1 -2.5 2.21 5.66 5.66 0 0 1 -1.99.37z" fill="#231815"/><path d="m423.78 133a3.23 3.23 0 1 1 -2.88-3.53 3.21 3.21 0 0 1 2.88 3.53" fill="#140508"/><path d="m421.93 131.41a1.09 1.09 0 0 1 -.53 1.45 1.08 1.08 0 0 1 -1.45-.52 1.09 1.09 0 1 1 2-.93" fill="#fff"/><path d="m450.86 131.88a3.23 3.23 0 1 1 -2.89-3.54 3.23 3.23 0 0 1 2.89 3.54" fill="#140508"/><path d="m449 130.31a1.09 1.09 0 1 1 -1.46-.52 1.09 1.09 0 0 1 1.46.52" fill="#fff"/><path d="m437.11 144a4.58 4.58 0 0 0 2.6-1 2.2 2.2 0 0 0 -.17-3.6c-1.64-.91-4.19-.29-6-.19a11.36 11.36 0 0 0 -3.88.85c-1.62.59-.21 3.34.81 4a8.08 8.08 0 0 0 9.05-.84c2-1.7 1.64-4.06-1.22-4.09" fill="#231815"/><path d="m430.56 152.13a3.77 3.77 0 0 1 -3.94-2.8.91.91 0 0 1 .57-1.15.89.89 0 0 1 1.14.57c.49 1.44 1.38 1.8 3.55 1.44 1.58-.27 2.52-2.31 2.53-2.33a.92.92 0 0 1 1.12-.49.9.9 0 0 1 .59 1.07 4.84 4.84 0 0 1 -4 3.54 9.55 9.55 0 0 1 -1.56.15z" fill="#231815"/><path d="m437.44 149.89c-.73-.36-1.51-.88-2.28-.63a3.36 3.36 0 0 0 -.65.34 32.67 32.67 0 0 1 -3.1 1.45c-1 .3.12 4.78.32 5.4.5 1.54 1.92 3.73 3.78 3.73s3.25-2.19 3.77-3.72a22.8 22.8 0 0 0 .87-3.76 2.75 2.75 0 0 0 0-.95c-.15-1.02-1.9-1.45-2.71-1.86z" fill="#231815"/><path d="m435.45 158.15a10 10 0 0 0 -2.65.34 3.58 3.58 0 0 0 2.71 1.69 3.53 3.53 0 0 0 2.68-1.67 10.15 10.15 0 0 0 -2.74-.36z" fill="#e60012"/><path d="m366.11 145c1.65-13-2.3-25.32-9.48-35.91s-17.29-18.62-31.13-20c-2.85-.28-5.58-.86-8.47-.87a49.64 49.64 0 0 0 -16.72 2.78 39.92 39.92 0 0 0 -6.92 3.23c-5.39 3.15-8.39 5.43-12.26 10.77a88.45 88.45 0 0 0 -10.1 17.7c-4.26 10.16-4.28 25.57.67 35.75 2.67 5.49 7.63 10.06 12.18 13.77" fill="#fff"/><path d="m283.75 172.35c-4.24-3.46-9.47-8.15-12.24-13.84-4.82-9.92-5.11-25.36-.67-35.92a88.69 88.69 0 0 1 10.16-17.74c3.91-5.38 7-7.69 12.32-10.84a40.79 40.79 0 0 1 6.95-3.25 50.26 50.26 0 0 1 16.52-2.76h.21a42.52 42.52 0 0 1 5.6.52c.94.12 1.92.26 2.89.36 12.57 1.27 23.09 8 31.28 20.1 7.77 11.44 11.06 23.91 9.52 36.05h-.41c1.52-12-1.75-24.41-9.45-35.77-8.12-12-18.54-18.67-31-19.92-1-.1-2-.23-2.91-.36a41.93 41.93 0 0 0 -5.54-.52h-.24a49.67 49.67 0 0 0 -16.41 2.76 39.65 39.65 0 0 0 -6.88 3.22c-5.31 3.12-8.33 5.4-12.2 10.73a88.28 88.28 0 0 0 -10.08 17.65c-4.39 10.46-4.11 25.76.67 35.58 2.78 5.6 7.96 10.2 12.16 13.6z" fill="#fff"/><path d="m313 87a1.25 1.25 0 0 1 -.45.32c.36-.11-.84-.51-.87-.51-.58-.07-1.25.62-1.73.83-1.27.56-5 1.9-5.58 3.37.13-.35 9.74.66 10.25.72 3.73.45 8.46.75 11.91-.72.36-.16 3.87 0 3.83-.43s-4.35-1.76-4.66-1.9a42.35 42.35 0 0 1 -4.91-2.44c-1.47-.87-1.92-.53-3.4.11-.38.16 1.26-1.58.72-1.37-.38.14.1-.11-.58-.63s-3.41 1.57-4.53 2.65z" fill="#fff"/><path d="m320 92.27a45.12 45.12 0 0 1 -5.36-.37c-1.5-.18-9.55-1-10.12-.76l-.05-.15-.26-.09c.52-1.33 3.32-2.49 5-3.18l.69-.29a3 3 0 0 0 .5-.31 2.14 2.14 0 0 1 1.33-.54 3.07 3.07 0 0 1 1 .42l.18-.16s3.69-3.49 4.79-2.66a1.13 1.13 0 0 1 .46.57.25.25 0 0 1 .27.09c.14.19 0 .42-.5 1a2.67 2.67 0 0 1 3 .15 43.51 43.51 0 0 0 4.88 2.43l.7.25c3.65 1.28 4.07 1.55 4.09 1.82a.28.28 0 0 1 -.07.21c-.2.22-.85.28-2.58.34a9.38 9.38 0 0 0 -1.31.09 17.16 17.16 0 0 1 -6.64 1.14zm-14.92-1.58c.7 0 2 .08 4.33.28s5 .49 5.28.52c3.69.43 8.37.75 11.8-.72a7 7 0 0 1 1.46-.11 18.15 18.15 0 0 0 2.1-.15c-.67-.36-2.88-1.14-3.67-1.42l-.72-.26a41.17 41.17 0 0 1 -4.93-2.45c-1.25-.74-1.65-.56-2.84 0l-.38.16a.24.24 0 0 1 -.3-.06c-.13-.17 0-.32.38-.84.1-.12.23-.29.33-.43a.26.26 0 0 1 -.11-.23c0-.07 0-.21-.33-.44-.47-.36-2.64 1.09-4.26 2.63l-.22-.17.14.16a1.57 1.57 0 0 1 -.52.36l-.13-.4a.14.14 0 0 0 -.07.11.16.16 0 0 0 0 .13 3.3 3.3 0 0 0 -.81-.35c-.29 0-.68.24-1 .48a5.31 5.31 0 0 1 -.57.34l-.71.3c-1.36.56-3.79 1.56-4.57 2.61zm8.1-3.58-.18-.11.14.15z" fill="#fff"/><path d="m349.54 172.2a41.76 41.76 0 0 0 11.12-11.7 38.34 38.34 0 0 0 5.39-15l.06-.51c1.65-13-2.3-25.32-9.48-35.91a57.94 57.94 0 0 0 -3.95-5.18 9.25 9.25 0 0 0 2.64-7.52 9.4 9.4 0 0 0 -10.2-8.23 8.87 8.87 0 0 0 -7.4 4.18 38.5 38.5 0 0 0 -10-3c-1-.35-1.89-.66-2-.72a42.35 42.35 0 0 1 -4.91-2.44c-1.47-.87-1.92-.53-3.4.11-.38.16 1.26-1.58.72-1.37-.38.14.1-.11-.58-.63s-3.43 1.64-4.55 2.72a1.25 1.25 0 0 1 -.45.32c.36-.11-.84-.51-.87-.51-.58-.07-1.25.62-1.73.83a37.78 37.78 0 0 0 -3.8 1.75 45.47 45.47 0 0 0 -5.84 1.61 39.15 39.15 0 0 0 -6.57 3 10.16 10.16 0 1 0 -14.55 13.78 86.92 86.92 0 0 0 -8.19 14.89c-4.26 10.16-4.28 25.57.67 35.75 2.67 5.49 7.63 10.06 12.18 13.77a47.76 47.76 0 0 0 23 9.7c14.08 2.11 30.58-.99 42.69-9.69z" fill="#fff"/><path d="m315.64 183.05a58.81 58.81 0 0 1 -8.82-.66 48.24 48.24 0 0 1 -23.25-9.82c-4.27-3.47-9.53-8.19-12.32-13.93-4.85-10-5.14-25.53-.68-36.17a86.27 86.27 0 0 1 7.95-14.57 10.66 10.66 0 1 1 15.37-14.55 40.76 40.76 0 0 1 6.25-2.87 48.35 48.35 0 0 1 5.86-1.6 27 27 0 0 1 3.11-1.45l.67-.28c.14-.07.29-.18.46-.29a2.38 2.38 0 0 1 1.52-.59 3.62 3.62 0 0 1 .92.33c.65-.62 3.94-3.62 5.18-2.69a1.6 1.6 0 0 1 .48.53.48.48 0 0 1 .3.2.56.56 0 0 1 0 .63 2.84 2.84 0 0 1 2.41.5 40.58 40.58 0 0 0 4.85 2.41c.07 0 .33.12.69.25l1.3.46a39 39 0 0 1 9.6 2.8 9.54 9.54 0 0 1 7.56-4 9.93 9.93 0 0 1 10.74 8.67 9.76 9.76 0 0 1 -2.46 7.59 59.91 59.91 0 0 1 3.67 4.85c7.81 11.5 11.12 24 9.57 36.25l-.07.52a38.94 38.94 0 0 1 -5.46 15.2 42.24 42.24 0 0 1 -11.25 11.84c-9.29 6.7-21.79 10.44-34.15 10.44zm-30.32-93.05a9.2 9.2 0 0 0 -1 .06 9.65 9.65 0 0 0 -4.79 17.31.49.49 0 0 1 .12.68 86.5 86.5 0 0 0 -8.12 14.79c-4.36 10.4-4.08 25.59.66 35.34 2.71 5.57 7.86 10.19 12.05 13.6a47.29 47.29 0 0 0 22.76 9.62c14.71 2.24 30.9-1.44 42.27-9.61a41.07 41.07 0 0 0 11-11.55 37.87 37.87 0 0 0 5.32-14.81l.07-.51c1.51-12-1.74-24.26-9.4-35.56a59.07 59.07 0 0 0 -3.92-5.14.5.5 0 0 1 0-.67 8.76 8.76 0 0 0 2.5-7.12 9 9 0 0 0 -9.68-7.78 8.36 8.36 0 0 0 -7 3.93.5.5 0 0 1 -.64.2 38.43 38.43 0 0 0 -9.84-2.93l-1.38-.48-.76-.27a43.25 43.25 0 0 1 -5-2.47c-1.12-.66-1.4-.54-2.58 0l-.38.17a.57.57 0 0 1 -.64-.15c-.27-.34-.05-.63.38-1.19l.19-.25a.55.55 0 0 1 -.07-.23s0-.1-.21-.24c-.43-.11-2.36 1.17-3.89 2.61a1.62 1.62 0 0 1 -.64.44.51.51 0 0 1 -.62-.31c-.18-.08-.43-.17-.53-.2a4 4 0 0 0 -.78.44 3.88 3.88 0 0 1 -.62.37l-.69.29a27.24 27.24 0 0 0 -3.06 1.43.35.35 0 0 1 -.14.06 44.4 44.4 0 0 0 -5.81 1.59 39.56 39.56 0 0 0 -6.49 3 .49.49 0 0 1 -.66-.15 9.67 9.67 0 0 0 -7.98-4.31z" fill="#221714"/><path d="m314.42 140.52a5.14 5.14 0 0 1 -3-.71 2.42 2.42 0 0 1 -.33-4c1.7-1.23 4.63-.92 6.61-1.07a13 13 0 0 1 4.45 0c1.89.42.7 4-.35 4.81a9.16 9.16 0 0 1 -10.2.38c-2.5-1.57-2.42-4.21.77-4.67" fill="#221714"/><path d="m317.1 148.2c0-.66 0-1.27-.06-1.86a25.49 25.49 0 0 0 -1.35-8.87l.86-.3a26.72 26.72 0 0 1 1.4 9.15c0 .58 0 1.19.05 1.85z" fill="#221714"/><path d="m327.84 128.83a3.37 3.37 0 1 0 2.77-3.83 3.34 3.34 0 0 0 -2.77 3.83z" fill="#140509"/><path d="m329.89 128.79a1.12 1.12 0 0 0 .64 1.46 1.16 1.16 0 0 0 1.48-.64 1.13 1.13 0 0 0 -.64-1.46 1.14 1.14 0 0 0 -1.48.64z" fill="#fff"/><path d="m299.57 129.54a3.37 3.37 0 1 0 2.78-3.84 3.36 3.36 0 0 0 -2.78 3.84z" fill="#140509"/><path d="m302 129.45a1.11 1.11 0 0 0 .65 1.45 1.15 1.15 0 0 0 1.48-.63 1.13 1.13 0 0 0 -.64-1.46 1.15 1.15 0 0 0 -1.49.64z" fill="#fff"/><path d="m319.06 146.7c-.32.14-.65.27-1 .38-.14 0-.29.09-.44.12h-.21-.16a6.12 6.12 0 0 1 -1.95-.21.51.51 0 1 0 -.27 1 7 7 0 0 0 2.27.24 7.55 7.55 0 0 0 2.27-.69.53.53 0 0 0 .18-.71.52.52 0 0 0 -.7-.18z" fill="#14050a"/><path d="m304.4 150.35a4.47 4.47 0 0 0 2.21-3.61 4.88 4.88 0 0 0 -2.33-3.7c-.27-.19-.53.26-.26.45a4.33 4.33 0 0 1 2.07 3.25 3.89 3.89 0 0 1 -1.95 3.16c-.27.19 0 .64.26.45z" fill="#14050a"/><path d="m331.07 148.5a3.94 3.94 0 0 1 -3-2.29 4.38 4.38 0 0 1 .82-3.79c.19-.27-.26-.53-.44-.26a4.78 4.78 0 0 0 -.85 4.26 4.48 4.48 0 0 0 3.31 2.58.26.26 0 0 0 .13-.5z" fill="#14050a"/><g clip-path="url(#a)"><path d="m318.82 155.28a.59.59 0 0 1 -.6.61h-1.58a.6.6 0 0 1 -.61-.59l-.11-22.3a.61.61 0 0 1 .61-.61l1.58.49a.59.59 0 0 1 .61.59z" fill="#d59826"/><path d="m316.64 155.31-.12-22.28 1.5.46h.09l.12 21.8-.01.01z" fill="#ebc149"/><path d="m318.11 133.49.05 8.49c-.91-1.12-1.49-4.67-1.38-8.87l1.24.38z" fill="#ece16d"/></g><path d="m322.55 146.84-.17.32a.13.13 0 0 0 0 .12s.05.05.08.06a1.08 1.08 0 0 0 .43.1.48.48 0 1 0 -.19-.94" fill="#d59826"/><path d="m312.72 146.91a2 2 0 0 0 -1.18.39c.34.18 1.62.65 1.67.27" fill="#ebc149"/><path d="m321.78 147.9a2.25 2.25 0 0 0 -1.22.4c.35.19 1.68.68 1.73.29" fill="#ebc149"/><path d="m276 366.26c4.81 38.52 59.78 49.05 86.73 27.12 4.83-3.93 10.07-8.76 12.92-14.52 5.26-10.66 5.31-26.72.84-37.23a89.37 89.37 0 0 0 -10.6-18.27c-4.06-5.48-7.18-7.81-12.9-11.05a42.18 42.18 0 0 0 -7.29-3.27 52.76 52.76 0 0 0 -17.7-2.64c-3 .06-5.94.7-8.95 1-14.62 1.66-25.25 10.06-32.95 21.3s-11.81 24.06-10.1 37.56z" fill="#140508"/><path d="m302.94 305a8.89 8.89 0 0 0 -2.63 3.37 6.47 6.47 0 0 0 .1 4.34c1.86 5.12 6.89 6.91 11.57 3.57a6.4 6.4 0 0 0 1.81-1.89 7.77 7.77 0 0 0 .79-4.18 9.29 9.29 0 0 0 -1.11-4.45c-1.55-2.54-5.55-2.87-8.2-2.23a5.6 5.6 0 0 0 -2.15 1.31z" fill="#140508"/><path d="m355.52 311.51a6.38 6.38 0 0 0 -1.91 1.47c-2.26 2.59-.85 7.71.89 10.25 1.37 2 3.85 3.41 6.21 2.8a6.36 6.36 0 0 0 2.14-1.08c3-2.25 5.22-7.39 3.2-10.92s-6.93-4.34-10.53-2.52z" fill="#140508"/><path d="m330.26 305.69a1.08 1.08 0 0 1 -.47.29c.36-.08-.81-.6-.85-.61-.57-.12-1.31.53-1.81.71-1.33.46-2.52.62-3.19 2.09.16-.35 7.08 2.49 7.59 2.6a21.35 21.35 0 0 0 11.27-.61c.38-.13.82-.36.81-.76s-.34-.59-.64-.76a44.19 44.19 0 0 1 -4.77-3c-1.42-1-1.9-.73-3.45-.21-.39.13 1.4-1.52.84-1.35-.4.11.11-.11-.54-.71s-3.6 1.35-4.79 2.32z" fill="#140508"/><path d="m376.47 341.63a89.37 89.37 0 0 0 -10.6-18.27c-.24-.33-.48-.64-.71-.94 1.63-2.53 2.33-5.87.89-8.39-2-3.52-6.93-4.34-10.53-2.52a6.49 6.49 0 0 0 -1.71 1.28l-.84-.48a42.18 42.18 0 0 0 -7.29-3.27c-1.32-.44-2.66-.82-4-1.15a39.43 39.43 0 0 1 -3.47-2.25c-1.42-1-1.9-.73-3.45-.21-.39.13 1.4-1.52.84-1.35-.4.11.11-.11-.54-.71s-3.6 1.35-4.79 2.32a1.08 1.08 0 0 1 -.47.29c.36-.08-.81-.6-.85-.61-.57-.12-1.31.53-1.81.71s-1 .3-1.41.47c-2.22.22-4.39.64-6.64.89a46.63 46.63 0 0 0 -4.73.81 7.34 7.34 0 0 0 -.88-2.45c-1.55-2.54-5.55-2.87-8.2-2.23a5.6 5.6 0 0 0 -2.15 1.31l-.18.16a8.89 8.89 0 0 0 -2.63 3.37 6.47 6.47 0 0 0 .1 4.34 10.2 10.2 0 0 0 .52 1.16 53 53 0 0 0 -14.8 14.83c-7.62 11.13-11.84 24-10.15 37.52 4.81 38.52 59.78 49.05 86.73 27.12 4.83-3.93 10.07-8.76 12.92-14.52 5.25-10.67 5.3-26.72.83-37.23z" fill="#140508"/><path d="m327.82 404.82a64.34 64.34 0 0 1 -23.82-4.52 49 49 0 0 1 -18.74-12.93 38.79 38.79 0 0 1 -9.4-21.09c-1.58-12.6 1.94-25.61 10.17-37.62a53.33 53.33 0 0 1 14.73-14.8 9.21 9.21 0 0 1 -.46-1.06 6.48 6.48 0 0 1 -.1-4.44 9 9 0 0 1 2.67-3.43l.18-.15a5.51 5.51 0 0 1 2.21-1.35c4.45-1.08 7.43.78 8.35 2.29a7.29 7.29 0 0 1 .87 2.36 44.41 44.41 0 0 1 4.61-.78c1-.12 2.05-.27 3-.42 1.17-.17 2.38-.35 3.58-.47.26-.11.53-.19.82-.28l.57-.19a2.86 2.86 0 0 0 .55-.28 2.14 2.14 0 0 1 1.34-.43 3.25 3.25 0 0 1 .95.54 2.07 2.07 0 0 0 .25-.19s4-3.22 5-2.31a1.06 1.06 0 0 1 .41.67c.14 0 .22 0 .25.07s-.05.36-.57.95l-.2.22h.06c1.26-.43 1.84-.63 3.19.37a38.39 38.39 0 0 0 3.44 2.23c1.39.34 2.74.73 4 1.15a41.38 41.38 0 0 1 7.32 3.28l.75.42a6.61 6.61 0 0 1 1.67-1.23c3.47-1.76 8.6-1.14 10.72 2.57 1.3 2.28 1 5.59-.85 8.46.22.28.44.56.66.86a89.56 89.56 0 0 1 10.61 18.3c4.64 10.92 4.28 27-.84 37.36-2.94 5.95-8.47 10.91-13 14.56-9.1 7.4-21.85 11.31-34.95 11.31zm-20.1-101.39a10.62 10.62 0 0 0 -2.42.28 5.39 5.39 0 0 0 -2.08 1.28l-.18.16a8.56 8.56 0 0 0 -2.59 3.31 6.2 6.2 0 0 0 .1 4.24 8.41 8.41 0 0 0 .51 1.14l.06.12-.12.04a53 53 0 0 0 -14.76 14.79c-8.19 11.95-11.69 24.9-10.13 37.43a38.57 38.57 0 0 0 9.33 20.93 48.67 48.67 0 0 0 18.65 12.85c19.8 8 43.87 5.17 58.53-6.76 4.47-3.64 10-8.57 12.88-14.47 5.09-10.31 5.45-26.26.84-37.11a90 90 0 0 0 -10.58-18.25l-.71-.94-.07-.08.06-.08c1.8-2.8 2.15-6 .89-8.24-2-3.58-7-4.16-10.34-2.46a6.29 6.29 0 0 0 -1.68 1.25l-.07.08-.1-.05-.84-.48a41.55 41.55 0 0 0 -7.27-3.26c-1.25-.42-2.6-.81-4-1.15a40.79 40.79 0 0 1 -3.48-2.26c-1.23-.91-1.7-.75-2.93-.33l-.39.14a.18.18 0 0 1 -.22-.06c-.09-.14 0-.26.44-.74.13-.15.33-.37.44-.52a.14.14 0 0 1 -.12 0 .2.2 0 0 1 -.07-.18c0-.09 0-.26-.31-.55-.55-.5-3 1-4.61 2.32a1.17 1.17 0 0 1 -.53.32l-.06-.28a.1.1 0 0 0 0 .06.16.16 0 0 0 0 .07 3.46 3.46 0 0 0 -.82-.46 1.94 1.94 0 0 0 -1.13.4 3.66 3.66 0 0 1 -.59.3l-.58.19c-.29.09-.56.18-.82.28-1.2.12-2.41.3-3.58.48-1 .14-2 .3-3.06.42a42.35 42.35 0 0 0 -4.72.8h-.14v-.15a7.34 7.34 0 0 0 -.86-2.41c-1.18-1.67-3.49-2.41-5.77-2.41z" fill="#fff"/><path d="m328.1 350.89c-9.13-.83-23.82 2.34-24.62 13.95-.56 8.2 8.08 14.79 15 16.45a29.47 29.47 0 0 0 6.56.76c8.16.1 20.32-3.62 21.36-13.41s-9.91-16.98-18.3-17.75z" fill="#fff"/><path d="m319 358.23c1.7-.27 10 0 11.65.58s-.87 3.68-1.92 4.33c-2.29 1.39-5.75 1.64-7.85-.25-.94-.84-3.67-4.38-1.88-4.66z" fill="#211512"/><path d="m323.57 371a40.52 40.52 0 0 1 1.06-11.79l.78.19a39.92 39.92 0 0 0 -1 11.55z" fill="#211512"/><path d="m128.85 328.68c-7.23-10.85-17.3-18.94-31.26-20.47-2.88-.32-5.63-.92-8.55-1a50.1 50.1 0 0 0 -16.9 2.65 40.67 40.67 0 0 0 -7 3.21c-5.51 3.17-8.52 5.44-12.47 10.78a89 89 0 0 0 -10.35 17.77c-4.4 10.22-4.54 25.78.37 36.1 2.65 5.57 7.61 10.23 12.18 14 25.51 21.12 78.19 10.62 83.25-26.75 1.76-13.06-2.12-25.54-9.27-36.29zm-38.18-22.43a1.26 1.26 0 0 1 -.48.26c.36-.07-.79-.61-.82-.62-.57-.13-1.32.48-1.83.63-1.34.41-2.54.53-3.26 1.93.17-.34 6.94 2.62 7.45 2.74a22 22 0 0 0 11.24-.25c.37-.11.82-.32.83-.71s-.31-.59-.6-.76a43 43 0 0 1 -4.63-3c-1.36-1.05-1.86-.76-3.42-.3-.4.11 1.46-1.43.89-1.29-.4.1.11-.1-.51-.7s-3.64 1.16-4.86 2.07z" fill="#221714"/><path d="m115.52 307.2a6.73 6.73 0 0 1 2.41 2.33 4.89 4.89 0 0 1 .32 3.39c-1 4.2-4.83 6.15-8.87 4.07a4.88 4.88 0 0 1 -1.61-1.27 5.88 5.88 0 0 1 -1-3.17 7.17 7.17 0 0 1 .46-3.59c1-2.15 4.15-2.85 6.32-2.64a4.19 4.19 0 0 1 1.83.78z" fill="#221714"/><path d="m79.5 304.3a6.73 6.73 0 0 1 2.41 2.33 4.86 4.86 0 0 1 .32 3.38c-1 4.2-4.83 6.16-8.87 4.07a4.64 4.64 0 0 1 -1.61-1.27 5.83 5.83 0 0 1 -1-3.17 7.13 7.13 0 0 1 .47-3.58c1-2.16 4.14-2.86 6.31-2.65a4.31 4.31 0 0 1 1.83.78z" fill="#221714"/><path d="m249.36 332.59c-6.52-11.44-16.13-20.32-30.16-22.91-2.9-.53-5.64-1.35-8.6-1.6a51.39 51.39 0 0 0 -17.33 1.39 41.13 41.13 0 0 0 -7.34 2.69c-5.83 2.77-9 4.82-13.45 9.88a89.53 89.53 0 0 0 -11.81 17.07c-5.22 9.93-6.52 25.54-2.32 36.27 2.28 5.79 7 10.84 11.31 15 24.34 23.1 78.48 16.53 86.34-20.61 2.81-13.03-.19-25.85-6.64-37.18z" fill="#221714"/><path d="m234 307.8a8.46 8.46 0 0 1 2.27 3.46 6.28 6.28 0 0 1 -.47 4.21c-2.23 4.86-7.25 6.26-11.52 2.7a5.9 5.9 0 0 1 -1.58-2 7.47 7.47 0 0 1 -.42-4.12 9.18 9.18 0 0 1 1.45-4.25c1.71-2.37 5.62-2.42 8.14-1.62a5.15 5.15 0 0 1 2 1.42z" fill="#221714"/><path d="m178.85 311.59a5.85 5.85 0 0 1 1.73 1.56c2 2.66.18 7.55-1.72 9.91-1.51 1.86-4 3.05-6.26 2.3a6 6 0 0 1 -2-1.19c-2.76-2.39-4.44-7.54-2.19-10.84s7.1-3.76 10.44-1.74z" fill="#221714"/><path d="m201.72 307.68a1.21 1.21 0 0 1 -.45.32c.35-.1-.82-.54-.85-.55-.56-.08-1.25.6-1.73.8-1.27.53-2.43.76-3 2.24.14-.36 7 2 7.5 2.05a20.84 20.84 0 0 0 10.93-1.29c.36-.14.78-.4.76-.79s-.36-.55-.66-.7a41.93 41.93 0 0 1 -4.77-2.62c-1.43-.93-1.88-.59-3.37 0-.37.15 1.3-1.56.76-1.37-.38.13.1-.11-.56-.65s-3.45 1.54-4.56 2.56z" fill="#221714"/><path d="m203.16 346.57c-10.11.22-25.79 5.45-25.11 18.05.48 8.9 10.83 14.93 18.65 15.87a32.91 32.91 0 0 0 7.29 0s25.54-2.59 20.92-21.22c0 .01-5.58-13.06-21.75-12.7z" fill="#fff"/><path d="m194.08 352.81c1.77-.49 10.67-1.24 12.5-.82s-.45 4.08-1.5 4.9c-2.26 1.79-5.92 2.49-8.4.71-1.1-.79-4.46-4.27-2.6-4.79z" fill="#221714"/><path d="m195.32 365.22a10.47 10.47 0 0 0 12.11-.81c.81-.67-.35-1.82-1.16-1.16a8.77 8.77 0 0 1 -10.13.56c-.88-.57-1.7.84-.82 1.41z" fill="#14050a"/><path d="m201.89 366-.87-.05a43.17 43.17 0 0 0 -1.21-12.52l.84-.21a44.27 44.27 0 0 1 1.24 12.78z" fill="#221714"/><path d="m197 365.46a2.87 2.87 0 0 1 -1.9-1.1c-1 .48 4 8.8 8.32 6.61 2.11-1.06 3.11-3.72 3.57-4.38s1.31-3.55.41-2.73c-1.22.16-2.73 2.25-3.79 2-.69-.19-1.31.13-2.12.1-1.65-.07-3-1-4.53-.65.45.82.44 1.74 1.43 2.45a4.53 4.53 0 0 0 3.6.56" fill="#14050a"/><path d="m212.89 342.43c.9 2.35 3 3.72 4.68 3.07s2.31-3.08 1.4-5.43-3-3.71-4.69-3.06-2.28 3.08-1.39 5.42z" fill="#fff"/><path d="m179.82 342c-.5 2.46.52 4.75 2.28 5.11s3.61-1.34 4.11-3.81-.52-4.75-2.28-5.11-3.6 1.34-4.11 3.81z" fill="#fff"/><path d="m213.23 342.18a2.36 2.36 0 1 0 1.66-2.91 2.36 2.36 0 0 0 -1.66 2.91z" fill="#140509"/><path d="m214.38 340.82a.8.8 0 1 0 1-.56.81.81 0 0 0 -1 .56z" fill="#fff"/><path d="m180.32 343.56a2.36 2.36 0 1 0 1.66-2.9 2.37 2.37 0 0 0 -1.66 2.9z" fill="#140509"/><path d="m181.47 342.21a.8.8 0 1 0 1-.56.81.81 0 0 0 -1 .56z" fill="#fff"/><path d="m91.62 347.26c-9.63-.86-25.07 2.46-25.76 14.5-.48 8.5 8.71 15.32 16 17a31.67 31.67 0 0 0 6.93.78s24.53.23 22.1-18c.04.08-3.89-12.92-19.27-14.28z" fill="#fff"/><path d="m82.33 352.23c1.74-.29 10.27-.06 12 .54s-.86 3.82-1.94 4.49c-2.33 1.46-5.88 1.74-8-.21-1.05-.86-3.88-4.52-2.06-4.82z" fill="#221714"/><path d="m82.13 364.06a10 10 0 0 0 11.55.64c.82-.54.06-1.85-.76-1.31a8.41 8.41 0 0 1 -9.71-.41.8.8 0 0 0 -1.08 0 .78.78 0 0 0 0 1.08z" fill="#14050a"/><path d="m88.35 365.53-.79-.13a41.76 41.76 0 0 0 .17-12l.8-.1a42.29 42.29 0 0 1 -.18 12.23z" fill="#221714"/><path d="m101.29 344.35c.62 2.33 2.46 3.85 4.13 3.41s2.51-2.69 1.9-5-2.47-3.84-4.14-3.4-2.51 2.64-1.89 4.99z" fill="#fff"/><path d="m69.93 340.44c-.74 2.29 0 4.57 1.63 5.1s3.57-.89 4.3-3.18 0-4.57-1.63-5.1-3.56.9-4.3 3.18z" fill="#fff"/><path d="m102.22 344.47c1.48.45 3.36.86 4.55-.44.35-.39-.22-1-.58-.58-1 1.07-2.57.59-3.75.23a.41.41 0 0 0 -.22.79z" fill="#221714"/><path d="m70.36 341.47a6.3 6.3 0 0 0 4.72 1.09.41.41 0 0 0 .29-.49.43.43 0 0 0 -.5-.29 5.5 5.5 0 0 1 -4.1-1 .4.4 0 0 0 -.41.69z" fill="#221714"/><ellipse cx="417.36" cy="137.73" fill="#f3aeba" rx="4.59" ry="2.17"/><ellipse cx="451.47" cy="136.4" fill="#f3aeba" rx="4.59" ry="2.17"/><path d="m327 367.51a14.34 14.34 0 0 1 -5.19-.32 4.43 4.43 0 0 0 -2.4-.22c-2.41.83-.75 5-.16 6.34.67 1.5 2.57 3.65 5 3.65 4 0 5.52-4.4 6.06-6.62.16-.67.48-2.51-.33-3s-1.88.03-2.98.17z" fill="#231815"/><path d="m324.2 375a18.48 18.48 0 0 0 -3.55.33 4.78 4.78 0 0 0 7.22 0 18 18 0 0 0 -3.67-.33z" fill="#e60012"/><path d="m339.31 347.51c.74 2.4 2.73 3.92 4.46 3.39s2.51-2.91 1.77-5.32-2.74-3.91-4.46-3.38-2.51 2.91-1.77 5.31z" fill="#fff"/><path d="m306.36 344.72c-.68 2.42.18 4.78 1.91 5.26s3.69-1.08 4.37-3.5-.18-4.78-1.92-5.26-3.72 1.08-4.36 3.5z" fill="#fff"/><path d="m340.17 346.94a2.37 2.37 0 1 0 1.86-2.78 2.36 2.36 0 0 0 -1.86 2.78z" fill="#140509"/><path d="m342.47 345.37a.8.8 0 1 0 1-.48.81.81 0 0 0 -1 .48z" fill="#fff"/><path d="m307.25 345.83a2.36 2.36 0 1 0 1.86-2.78 2.36 2.36 0 0 0 -1.86 2.78z" fill="#140509"/><path d="m309.55 344.38a.81.81 0 0 0 .49 1 .8.8 0 0 0 .54-1.51.81.81 0 0 0 -1.03.51z" fill="#fff"/></svg>