<svg xmlns="http://www.w3.org/2000/svg" viewBox="0 0 840.65 491.42"><defs><style>.cls-1,.cls-24{fill:#fff;}.cls-2{font-size:10px;}.cls-14,.cls-2,.cls-3{fill:#363736;}.cls-10,.cls-14,.cls-15,.cls-2,.cls-5{font-family:DFHeiStd-W5, DFHeiStd W5-B5pc-H;}.cls-17,.cls-4,.cls-5,.cls-7,.cls-8{fill:#040000;}.cls-5,.cls-7,.cls-8{font-size:26.62px;}.cls-6,.cls-8{letter-spacing:0.05em;}.cls-7,.cls-8{font-family:DFYuanStd-W5, DFYuanStd W5-B5pc-H;}.cls-9{letter-spacing:0em;}.cls-10,.cls-12{font-size:11.41px;letter-spacing:0.05em;}.cls-10,.cls-12,.cls-13{fill:#666767;}.cls-11{letter-spacing:0em;}.cls-12{font-family:DFYuanStd-W7, DFYuanStd W7-B5pc-H;}.cls-14{font-size:9px;}.cls-15{font-size:8.5px;fill:#383736;}.cls-16{fill:none;stroke:#333;stroke-miterlimit:10;stroke-width:0.31px;}.cls-17,.cls-19,.cls-24,.cls-26{font-size:15.66px;font-family:PingFangTC-Regular-B5pc-H, PingFang TC;}.cls-18{letter-spacing:0.05em;}.cls-19{fill:#17a196;}.cls-20{fill:#f5e054;}.cls-21{fill:#81afde;}.cls-22{fill:#cbe7e6;}.cls-23{fill:#36b1a8;}.cls-25{fill:#fbf3be;}.cls-26,.cls-29{fill:#4e4d4d;}.cls-27{fill:#f8eb94;}.cls-28{fill:#b1ceec;}.cls-30{fill:#0e9790;}</style></defs><g id="圖層_2" data-name="圖層 2"><g id="圖層_1-2" data-name="圖層 1"><rect class="cls-1" width="840.65" height="491.42"/><text class="cls-2" transform="translate(240.14 14.56)">名稱標準字型</text><rect class="cls-3" x="236.03" y="5.28" width="0.84" height="11.26"/><text class="cls-2" transform="translate(240.14 230.05)">名稱字體色系</text><rect class="cls-3" x="236.03" y="220.77" width="0.84" height="11.26"/><path class="cls-4" d="M264.19,35.28v1.87H254v7.11h8.89v1.86H254v9h10.71V57H241.35V55.15h10.7v-9h-8.84V44.26h8.84V37.15H241.93V35.28Zm-1.3,17.58L261.34,54a42.41,42.41,0,0,0-3.86-5.57l1.49-.93A41.64,41.64,0,0,1,262.89,52.86Zm28.59-14.6V57.65h-1.92V55.86H272.39v1.76h-1.92V38.19h1.92V54H280V33.9h2V54h7.59V38.26Zm12-1.78V48.22a6.16,6.16,0,0,0,1.26,4.24,6.52,6.52,0,0,0,8.3,0,6.21,6.21,0,0,0,1.28-4.24V36.48h2.16V48.2a7.93,7.93,0,0,1-1.87,5.64,7.73,7.73,0,0,1-5.72,2,7.58,7.58,0,0,1-5.67-2,7.87,7.87,0,0,1-1.92-5.69V36.48Zm30.46,0a6.42,6.42,0,0,1,4.2,1.28,4.32,4.32,0,0,1,1.52,3.51,4.6,4.6,0,0,1-.85,2.77,5.1,5.1,0,0,1-2.32,1.52,4.8,4.8,0,0,1,2.91,1.54,4.54,4.54,0,0,1,1.06,3.09,4.72,4.72,0,0,1-2,4.16,8.29,8.29,0,0,1-4.61,1.14h-8.44v-19Zm-6.31,8.31h5.78a4.84,4.84,0,0,0,3-.83,3,3,0,0,0,1.07-2.47,2.84,2.84,0,0,0-1-2.4,5,5,0,0,0-3-.77h-5.8Zm0,8.86h6.07a6.07,6.07,0,0,0,3.17-.74,3,3,0,0,0,1.41-2.74,3.17,3.17,0,0,0-1.23-2.72,5.44,5.44,0,0,0-3.35-.85h-6.07Zm27.58-10.06a9.57,9.57,0,0,1,1.6,5.62H346a6,6,0,0,0,1.25,3.59,3.93,3.93,0,0,0,3.09,1.28,4.25,4.25,0,0,0,2.74-.85,4.82,4.82,0,0,0,1.39-2.16h2.13a6.23,6.23,0,0,1-1.86,3.25,6.43,6.43,0,0,1-4.4,1.54,6.15,6.15,0,0,1-4.74-1.94,7.53,7.53,0,0,1-1.81-5.32,7.52,7.52,0,0,1,1.73-5.09,5.79,5.79,0,0,1,4.74-2.16A5.89,5.89,0,0,1,355.26,43.59Zm-7.91.75a5.23,5.23,0,0,0-1.3,3.22h8.6c-.27-3-1.74-4.42-4.34-4.42A3.86,3.86,0,0,0,347.35,44.34ZM371,42.9a5.46,5.46,0,0,1,1.23,3.75v8.84h-2V53.17a6.35,6.35,0,0,1-2.1,1.84,7,7,0,0,1-3.44.85,5,5,0,0,1-3.3-1,3.49,3.49,0,0,1-1.28-2.77A3.89,3.89,0,0,1,362,48.52a8.83,8.83,0,0,1,4.8-1.18l3.3-.05v-.72q0-3.47-3.6-3.46a4.42,4.42,0,0,0-2.47.61,3,3,0,0,0-1.39,2l-2.1-.16a4.72,4.72,0,0,1,2.13-3.22,7.29,7.29,0,0,1,4-1A5.61,5.61,0,0,1,371,42.9Zm-4.07,6q-4.64.08-4.63,3.06a1.89,1.89,0,0,0,.77,1.57,3.36,3.36,0,0,0,2.08.62,5.22,5.22,0,0,0,3.46-1.28,3.71,3.71,0,0,0,1.49-2.85V48.89Zm17.86-7.27V43.8a7,7,0,0,0-2.05-.29,3.24,3.24,0,0,0-2.69,1.41A5,5,0,0,0,379,48.2v7.29h-2.1V41.73H379v2.39a4.92,4.92,0,0,1,1.44-1.89,3.85,3.85,0,0,1,2.5-.88A4.94,4.94,0,0,1,384.83,41.67Z"/><text class="cls-5" transform="translate(239.72 103.76)"><tspan class="cls-6">玉山ＵBea</tspan><tspan x="138.61" y="0">r</tspan></text><text class="cls-7" transform="translate(239.72 151.02)"><tspan class="cls-6">玉</tspan><tspan x="27.95" y="0">山</tspan></text><text class="cls-8" transform="translate(295.62 151.66)">ＵBea<tspan class="cls-9" x="82.71" y="0">r</tspan></text><text class="cls-10" transform="translate(464.29 101.99)">華康黑<tspan class="cls-11" x="35.94" y="0">體</tspan></text><text class="cls-12" transform="translate(464.29 151.44)">華康圓<tspan class="cls-11" x="35.94" y="0">體</tspan></text><path class="cls-13" d="M480.15,48.56v.83h1.39v.67h-1.39v1h1.66v.71H480v2.3h-.7v-2.3H477v-.71h.8v-2h.68v2h.94V48.56Zm-.62-1.72v-.78h.79v.78h1.37v.73h-1.37v.79h-.79v-.79h-2.46v-.73Zm-.74,5.7a8.68,8.68,0,0,1-1.13,2l-.58-.41a8.4,8.4,0,0,0,1.11-1.87Zm2.94.16a5.86,5.86,0,0,1-4.23,3.77l-.4-.66a5.42,5.42,0,0,0,4-3.47ZM484,55.21a7.58,7.58,0,0,1-1.88,1.33l-.43-.56a7.19,7.19,0,0,0,1.81-1.23Zm-.19-5.13a4.44,4.44,0,0,0,.21-.71h-2v-.68h4.84v.68h-2.06a6.57,6.57,0,0,1-.23.71h2v4.65h-4.22V50.08Zm-.19-3.24v-.78h.79v.78h2.48v.73h-2.48v.79h-.79v-.79h-1.37v-.73Zm2.18,4.59v-.75H483v.75Zm0,1.32V52H483v.76Zm0,.56H483v.79h2.78ZM487,56.05l-.48.49a9.23,9.23,0,0,0-1.7-1.32l.45-.44A11.43,11.43,0,0,1,487,56.05Zm6.88-8.27a8,8,0,0,0-.83-1.45l.77-.29a9.38,9.38,0,0,1,.89,1.74H499v.78h-6l-.11,2v0h4.74a25.86,25.86,0,0,1-.26,4.35,1.7,1.7,0,0,1-1.69,1.5c-.37,0-.81,0-1.31,0l-.25-.74,1.48,0c.58,0,.93-.43,1.07-1.23.07-.48.1-1.52.13-3.1h-4A7.74,7.74,0,0,1,492,53.9a9.49,9.49,0,0,1-2.34,2.69L489,56a8.75,8.75,0,0,0,2.41-2.86,8.34,8.34,0,0,0,.67-2.94c0-.72.05-1.27.07-1.66H489v-.78Zm10.8,1.77h.44v1.81h-.57v4.36c0,.49-.29.74-.84.74H503l-.19-.66.76,0a.31.31,0,0,0,.35-.34v-1a14.34,14.34,0,0,1-1.49.41l-.18-.63a15,15,0,0,0,1.67-.43V51.67H502.2v.75a14,14,0,0,1,1.49.33l-.22.55A9.44,9.44,0,0,0,502.2,53v.88a4.58,4.58,0,0,1-.75,2.67l-.55-.5a3.63,3.63,0,0,0,.62-2.11V51.39h-.58V49.55h.44v-3h3.33ZM504.47,51v-.87h-2.85V51Zm-1.73-1.49V48H504v-.89h-2v2.41Zm1.29,0v-.94h-.74v.94Zm6.48,2.75v2.15h-.72l-.28,1h1.61v.7h-6v-.7h1.75l-.32-1h-.7V52.3ZM511,51v.67h-5.68V51Zm-4-4.05v-.82h.71v.82h.87v-.82h.7v.82h1.41v3.45h-5.07V46.94Zm.15,1.48v-.87h-.89v.87Zm0,.53h-.89v.87h.89Zm2.61,3.94h-3.24v.93h3.24Zm-1,2.61.28-1h-1.79l.32,1Zm-1-7.08h.87v-.87h-.87Zm.87.53h-.87v.87h.87Zm.56-.53h.92v-.87h-.92Zm.92.53h-.92v.87h.92Z"/><text class="cls-14" transform="translate(242.11 179.2)">※UB字母大寫（U左右字距留空隙，大於其他字距）</text><text class="cls-15" transform="translate(240.59 340.3)">黑</text><text class="cls-15" transform="translate(240.59 353.25)">C0 M0 Y0 Ｋ100</text><text class="cls-15" transform="translate(240.59 366.19)">#000000</text><text class="cls-15" transform="translate(240.59 379.13)">建議搭配淺底色</text><text class="cls-15" transform="translate(240.59 392.08)">凸顯名稱</text><text class="cls-15" transform="translate(665.48 339.94)">企業綠</text><text class="cls-15" transform="translate(665.48 352.89)">C100 M0 Y50 K0</text><text class="cls-15" transform="translate(665.48 365.83)">#009e96</text><text class="cls-15" transform="translate(665.48 378.77)">建議搭配白底色</text><text class="cls-15" transform="translate(665.48 391.72)">企業形象 清新氛圍</text><rect class="cls-1" x="240.59" y="249.77" width="112.83" height="73.37"/><rect class="cls-16" x="240.59" y="249.77" width="112.83" height="73.37"/><text class="cls-17" transform="translate(253.9 291.37)"><tspan class="cls-18">玉山ＵBea</tspan><tspan x="79.7" y="0">r</tspan></text><rect class="cls-1" x="665.49" y="249.42" width="112.83" height="73.37"/><rect class="cls-16" x="665.49" y="249.42" width="112.83" height="73.37"/><text class="cls-19" transform="translate(678.8 291.02)"><tspan class="cls-18">玉山ＵBea</tspan><tspan x="79.7" y="0">r</tspan></text><text class="cls-15" transform="translate(263.02 427.89)">其他底色搭配參考</text><rect class="cls-20" x="240.54" y="400.97" width="37.61" height="14.89"/><rect class="cls-21" x="278.15" y="400.97" width="37.61" height="14.89"/><rect class="cls-22" x="315.76" y="400.97" width="37.61" height="14.89"/><text class="cls-15" transform="translate(382.76 340.3)">白</text><text class="cls-15" transform="translate(382.76 353.25)">C0 M0 Y0 K0</text><text class="cls-15" transform="translate(382.76 366.19)">#FFFFFF</text><text class="cls-15" transform="translate(382.76 379.13)">建議搭配深底色</text><text class="cls-15" transform="translate(382.76 392.08)">凸顯名稱</text><rect class="cls-23" x="382.16" y="249.77" width="112.83" height="73.37"/><text class="cls-24" transform="translate(396.08 293.17)"><tspan class="cls-18">玉山ＵBea</tspan><tspan x="79.7" y="0">r</tspan></text><text class="cls-15" transform="translate(405.19 427.89)">其他底色搭配參考</text><rect class="cls-13" x="382.71" y="400.97" width="37.61" height="14.89"/><rect class="cls-21" x="420.32" y="400.97" width="37.61" height="14.89"/><rect class="cls-4" x="457.93" y="400.97" width="37.61" height="14.89"/><text class="cls-15" transform="translate(687.94 427.54)">其他底色搭配參考</text><rect class="cls-25" x="665.46" y="400.62" width="37.61" height="14.89"/><rect class="cls-25" x="703.07" y="400.62" width="37.61" height="14.89"/><rect class="cls-25" x="740.68" y="400.62" width="37.61" height="14.89"/><text class="cls-15" transform="translate(523.91 339.96)">灰</text><text class="cls-15" transform="translate(523.91 352.9)">C0 M0 Y0 Ｋ70</text><text class="cls-15" transform="translate(523.91 365.84)">#4d4d4d</text><text class="cls-15" transform="translate(523.91 378.79)">建議搭配淺底色</text><text class="cls-15" transform="translate(523.91 391.73)">柔和氛圍</text><rect class="cls-22" x="523.91" y="249.42" width="112.83" height="73.37"/><text class="cls-26" transform="translate(537.23 291.02)"><tspan class="cls-18">玉山ＵBea</tspan><tspan x="79.7" y="0">r</tspan></text><text class="cls-15" transform="translate(546.37 427.54)">其他底色搭配參考</text><rect class="cls-27" x="523.89" y="400.62" width="37.61" height="14.89"/><rect class="cls-1" x="561.5" y="400.62" width="37.61" height="14.89"/><rect class="cls-28" x="599.11" y="400.62" width="37.61" height="14.89"/><path class="cls-4" d="M254.31,405.36l-4.89,5.77c-.63.74.16,1.95,1.08,1.4l9.57-5.67-1.22-1.22-4,5.68c-.55.77.49,1.62,1.22,1.22l10.78-5.81-1.08-1.41q-2.28,1.9-4.57,3.8c-.88.74.39,2,1.27,1.27l4.56-3.8c.81-.67-.22-1.87-1.08-1.41L255.18,411l1.22,1.22,4-5.68c.53-.75-.49-1.65-1.22-1.22L249.6,411l1.08,1.4c1.63-1.92,3.26-3.85,4.9-5.77.74-.87-.52-2.14-1.27-1.26"/><path class="cls-4" d="M292.71,405.36l-4.89,5.77c-.63.74.16,1.95,1.08,1.4l9.57-5.67-1.22-1.22-4,5.68c-.55.77.49,1.62,1.22,1.22l10.78-5.81-1.08-1.41q-2.28,1.9-4.57,3.8c-.88.74.39,2,1.27,1.27l4.56-3.8c.81-.67-.22-1.87-1.08-1.41L293.58,411l1.22,1.22,4-5.68c.53-.75-.49-1.65-1.22-1.22L288,411l1.08,1.4c1.63-1.92,3.26-3.85,4.9-5.77.74-.87-.52-2.14-1.27-1.26"/><path class="cls-4" d="M331.11,405.36l-4.89,5.77c-.63.74.16,1.95,1.08,1.4l9.57-5.67-1.22-1.22-4,5.68c-.55.77.49,1.62,1.22,1.22l10.78-5.81-1.08-1.41q-2.28,1.9-4.57,3.8c-.88.74.39,2,1.27,1.27l4.56-3.8c.81-.67-.22-1.87-1.08-1.41L332,411c.4.41.81.82,1.22,1.22l4-5.68c.53-.75-.49-1.65-1.22-1.22L326.4,411l1.08,1.4c1.63-1.92,3.26-3.85,4.9-5.77.74-.87-.52-2.14-1.27-1.26"/><path class="cls-29" d="M537.64,404.66l-4.9,5.77c-.62.74.16,1.95,1.09,1.4l9.57-5.67-1.22-1.22-4,5.68c-.54.77.49,1.62,1.22,1.22L550.19,406l-1.08-1.4-4.57,3.8c-.88.74.38,2,1.26,1.26l4.57-3.79c.8-.67-.22-1.87-1.08-1.41L538.5,410.3l1.22,1.22q2-2.83,4-5.68c.53-.75-.49-1.65-1.22-1.22l-9.58,5.67,1.09,1.4,4.89-5.77c.74-.87-.52-2.14-1.26-1.26"/><path class="cls-29" d="M576,404.66l-4.9,5.77c-.62.74.16,1.95,1.09,1.4l9.57-5.67-1.22-1.22-4,5.68c-.54.77.49,1.62,1.22,1.22L588.59,406l-1.08-1.4-4.57,3.8c-.88.74.38,2,1.26,1.26l4.57-3.79c.8-.67-.22-1.87-1.08-1.41L576.9,410.3l1.22,1.22q2-2.83,4-5.68c.53-.75-.49-1.65-1.22-1.22l-9.58,5.67,1.09,1.4,4.89-5.77c.74-.87-.52-2.14-1.26-1.26"/><path class="cls-29" d="M614.44,404.66l-4.9,5.77c-.62.74.16,1.95,1.09,1.4l9.57-5.67c-.41-.4-.82-.81-1.22-1.22l-4,5.68c-.54.77.49,1.62,1.22,1.22L627,406l-1.08-1.4-4.57,3.8c-.88.74.38,2,1.26,1.26l4.57-3.79c.8-.67-.22-1.87-1.08-1.41L615.3,410.3l1.22,1.22q2-2.83,4-5.68c.53-.75-.49-1.65-1.22-1.22l-9.58,5.67,1.09,1.4,4.89-5.77c.74-.87-.52-2.14-1.26-1.26"/><path class="cls-1" d="M397.71,405.36l-4.89,5.77c-.63.74.16,1.95,1.08,1.4l9.57-5.67-1.22-1.22-4,5.68c-.55.77.49,1.62,1.22,1.22l10.78-5.81-1.08-1.41q-2.28,1.9-4.57,3.8c-.88.74.39,2,1.27,1.27l4.56-3.8c.81-.67-.22-1.87-1.08-1.41L398.58,411l1.22,1.22,4-5.68c.53-.75-.49-1.65-1.22-1.22L393,411l1.08,1.4c1.63-1.92,3.26-3.85,4.9-5.77.74-.87-.52-2.14-1.27-1.26"/><path class="cls-1" d="M436.11,405.36l-4.89,5.77c-.63.74.16,1.95,1.08,1.4l9.57-5.67-1.22-1.22-4,5.68c-.55.77.49,1.62,1.22,1.22l10.78-5.81-1.08-1.41q-2.28,1.9-4.57,3.8c-.88.74.39,2,1.27,1.27l4.56-3.8c.81-.67-.22-1.87-1.08-1.41L437,411c.4.41.81.82,1.22,1.22l4-5.68c.53-.75-.49-1.65-1.22-1.22L431.4,411l1.08,1.4c1.63-1.92,3.26-3.85,4.9-5.77.74-.87-.52-2.14-1.27-1.26"/><path class="cls-30" d="M719.44,405.26l-4.9,5.77c-.62.74.16,2,1.09,1.4l9.57-5.67c-.41-.4-.82-.81-1.22-1.22l-4,5.68c-.54.77.49,1.62,1.22,1.22L732,406.62l-1.08-1.4-4.57,3.8c-.88.74.38,2,1.26,1.26l4.57-3.79c.8-.67-.22-1.87-1.08-1.41L720.3,410.9l1.22,1.22q2-2.83,4-5.68c.53-.75-.49-1.65-1.22-1.22l-9.58,5.67,1.09,1.4,4.89-5.77c.74-.87-.52-2.14-1.26-1.26"/><path class="cls-1" d="M474.51,405.36l-4.89,5.77c-.63.74.16,1.95,1.08,1.4l9.57-5.67-1.22-1.22-4,5.68c-.55.77.49,1.62,1.22,1.22l10.78-5.81L486,405.32q-2.28,1.9-4.57,3.8c-.88.74.39,2,1.27,1.27l4.56-3.8c.81-.67-.22-1.87-1.08-1.41L475.38,411c.4.41.81.82,1.22,1.22l4-5.68c.53-.75-.49-1.65-1.22-1.22L469.8,411l1.08,1.4c1.63-1.92,3.26-3.85,4.9-5.77.74-.87-.52-2.14-1.27-1.26"/></g></g></svg>