<svg viewBox="0 0 777.93 490.27" xmlns="http://www.w3.org/2000/svg"><path d="m0 0h777.93v490.27h-777.93z" fill="#fff"/><path d="m108.1 115.84h.72v4.33a8.58 8.58 0 0 0 0 1 1.47 1.47 0 0 0 .81 1.16 1.8 1.8 0 0 0 .8.18 1.72 1.72 0 0 0 .74-.15 1.64 1.64 0 0 0 .54-.44 1.68 1.68 0 0 0 .31-.61 6 6 0 0 0 .08-1.15v-4.33h.71v4.33a4.84 4.84 0 0 1 -.22 1.67 2.07 2.07 0 0 1 -.77 1 2.23 2.23 0 0 1 -1.31.39 2.85 2.85 0 0 1 -1.08-.19 2.08 2.08 0 0 1 -.8-.55 1.9 1.9 0 0 1 -.44-.78 5.76 5.76 0 0 1 -.13-1.51z" fill="#363736"/><path d="m114.56 123v-7.36h.67v3a2.67 2.67 0 0 1 2.13-1.05 2.6 2.6 0 0 1 1.94.83 2.86 2.86 0 0 1 0 4 2.6 2.6 0 0 1 -1.94.83 2.52 2.52 0 0 1 -2.11-1.16v1zm.63-2.69a2.16 2.16 0 0 0 .61 1.57 2 2 0 0 0 1.49.64 2 2 0 0 0 1.5-.65 2.13 2.13 0 0 0 .61-1.52 2.19 2.19 0 0 0 -.6-1.53 2 2 0 0 0 -1.5-.65 2 2 0 0 0 -1.5.61 2.07 2.07 0 0 0 -.61 1.55z" fill="#363736"/><path d="m125.8 121.3.58.3a2.73 2.73 0 0 1 -2.54 1.6 2.6 2.6 0 0 1 -2-.82 2.8 2.8 0 0 1 -.78-2 2.77 2.77 0 0 1 .79-2 2.57 2.57 0 0 1 1.94-.83 2.69 2.69 0 0 1 1.94.77 2.94 2.94 0 0 1 .81 2.1h-4.78a2.2 2.2 0 0 0 .61 1.55 1.86 1.86 0 0 0 1.39.58 2.16 2.16 0 0 0 2.04-1.25zm0-1.45a1.89 1.89 0 0 0 -.7-1.19 2.09 2.09 0 0 0 -1.29-.43 1.93 1.93 0 0 0 -2 1.62z" fill="#363736"/><path d="m133.12 117.71v5.29h-.67v-.91a2.63 2.63 0 0 1 -4 .26 2.76 2.76 0 0 1 -.81-2 2.73 2.73 0 0 1 .81-2 2.63 2.63 0 0 1 1.94-.83 2.49 2.49 0 0 1 2.11 1.11v-1zm-.63 2.68a2.07 2.07 0 0 0 -.61-1.53 2.07 2.07 0 0 0 -3 0 2.2 2.2 0 0 0 0 3.05 2 2 0 0 0 1.49.64 2 2 0 0 0 1.48-.62 2.12 2.12 0 0 0 .64-1.54z" fill="#363736"/><path d="m134.4 117.71h.7v.77a2.81 2.81 0 0 1 .55-.69.92.92 0 0 1 .59-.22 1.36 1.36 0 0 1 .65.18l-.36.58a.59.59 0 0 0 -.31-.09.77.77 0 0 0 -.58.32 2 2 0 0 0 -.41.83 8.31 8.31 0 0 0 -.13 1.83v1.78h-.7z" fill="#363736"/><path d="m140.42 117 .29-.53.21-.42c.05-.13.1-.24.14-.33s.06-.19.08-.28l.39.19a2.83 2.83 0 0 0 .4.11c.09 0 .13 0 .13.1s-.06.09-.17.12l-.11.06a1.17 1.17 0 0 0 -.16.16 2.42 2.42 0 0 0 -.24.31c-.09.13-.21.3-.34.51h2.96.58.5a1.73 1.73 0 0 0 .36 0q0 .21 0 .39v.4 5.22.41s0 .27 0 .4 0 .23 0 .33 0 .17 0 .23h-.69v-.9h-5.67v1h-.67c0-.15 0-.36 0-.63s0-.59 0-1v-5.09c0-.14 0-.28 0-.41s0-.27 0-.38h.76s.75.03 1.25.03zm4.31 2.92v-2.4h-5.67v2.4zm-5.67.52v2.45h5.67v-2.45z" fill="#363736"/><path d="m149.08 122.74c-.05.15-.12.31-.19.48l-.24.5-.25.47a3.26 3.26 0 0 1 -.23.34l-.65-.24a8.63 8.63 0 0 0 .58-.81 3.33 3.33 0 0 0 .4-.92zm2.06-5.44-.27-.3-.29-.27.38-.36.38.39c.11.12.21.22.3.33s.17.21.26.32l.3.38-.44.34-.15-.22-.15-.22-2.66.18h-.57a2 2 0 0 0 -.39.07 1.38 1.38 0 0 0 -.2-.63h.49l.52-.48.41-.43a4.82 4.82 0 0 0 .36-.43c.11-.15.22-.32.34-.5a2 2 0 0 0 .56.36c.13.06.13.12 0 .17l-.2.12a2.85 2.85 0 0 0 -.28.22c-.11.09-.25.22-.41.38s-.37.35-.62.59zm-2.42 4.92h-.66c0-.2 0-.37.06-.53s0-.29 0-.41 0-.25 0-.36v-1.64c0-.23 0-.42 0-.56a2.83 2.83 0 0 0 -.07-.42h.35.46.51.94.49.47.41a3.79 3.79 0 0 0 -.07.45v.53 2.14a1.48 1.48 0 0 1 0 .39.48.48 0 0 1 -.2.25 1.23 1.23 0 0 1 -.42.13 4.9 4.9 0 0 1 -.73 0 1.34 1.34 0 0 0 0-.3 1.05 1.05 0 0 0 -.17-.3 5.07 5.07 0 0 0 .57.05.9.9 0 0 0 .33-.07.29.29 0 0 0 .14-.17 1.17 1.17 0 0 0 0-.29v-.33h-2.36zm2.36-2.79v-.61h-2.36v.61zm-2.36.4v.58h2.36v-.58zm1.92 4.68a8.82 8.82 0 0 0 -.2-.89c-.09-.29-.18-.57-.29-.83l.55-.13c0 .1.09.23.14.38l.15.47c0 .17.09.33.13.49s.07.3.09.41zm2.15-.2c0-.14-.09-.29-.14-.45s-.12-.31-.19-.46l-.19-.42-.18-.3.51-.21.36.68c.12.26.26.57.42.95zm.23-4.16a13.46 13.46 0 0 0 1.44-.4 3.06 3.06 0 0 0 .85-.42 1.67 1.67 0 0 0 .17.26 1.63 1.63 0 0 0 .17.2c.09.08.12.15.1.22s-.1.08-.23.06h-.23l-.41.07c-.18 0-.42.09-.71.16l-1.15.29v.53a.65.65 0 0 0 0 .26.29.29 0 0 0 .14.15 1 1 0 0 0 .33.07 5.08 5.08 0 0 0 .6 0 5.54 5.54 0 0 0 .79 0 .88.88 0 0 0 .44-.15.58.58 0 0 0 .23-.3 4.94 4.94 0 0 0 .12-.51.88.88 0 0 0 .28.24.63.63 0 0 0 .3.1 3.5 3.5 0 0 1 -.26.62 1 1 0 0 1 -.37.35 1.71 1.71 0 0 1 -.62.15q-.37 0-1 0h-.88a1.09 1.09 0 0 1 -.48-.14.52.52 0 0 1 -.2-.34 3.48 3.48 0 0 1 0-.63v-1.22c0-.17 0-.32 0-.44s0-.26 0-.41a3.06 3.06 0 0 0 .74.09c.09 0 .15 0 .16.08s0 .11-.11.17a.7.7 0 0 0 -.17.51zm0-3.12c.31-.06.57-.13.79-.18l.58-.17.43-.18.36-.21a1.12 1.12 0 0 0 .16.28 1.51 1.51 0 0 0 .19.22c.09.08.12.15.1.2s-.09.07-.22.05a1 1 0 0 0 -.25 0 2.63 2.63 0 0 0 -.41 0l-.67.13-1.06.25v.28a1 1 0 0 0 0 .27.27.27 0 0 0 .14.16 1 1 0 0 0 .33.09h.59a6.13 6.13 0 0 0 .68 0 1.15 1.15 0 0 0 .42-.14.62.62 0 0 0 .24-.29 2.45 2.45 0 0 0 .14-.47.63.63 0 0 0 .23.23.92.92 0 0 0 .32.1 4.38 4.38 0 0 1 -.28.54.89.89 0 0 1 -.35.32 1.33 1.33 0 0 1 -.55.15 7.21 7.21 0 0 1 -.89 0h-.88a1.09 1.09 0 0 1 -.48-.14.52.52 0 0 1 -.2-.34 3.42 3.42 0 0 1 0-.62v-1c0-.17 0-.31 0-.43s0-.24 0-.4a1.06 1.06 0 0 0 .34.06h.38.16s0 .09-.11.16a.43.43 0 0 0 -.13.22 1.13 1.13 0 0 0 0 .34zm2.4 7.37q-.25-.44-.6-.93c-.24-.33-.48-.62-.71-.88l.44-.3c.23.24.46.51.71.82s.47.63.69 1z" fill="#363736"/><path d="m103.09 114.34h.84v11.26h-.84z" fill="#363736"/><path d="m443 115.84h.72v4.33 1a1.4 1.4 0 0 0 .24.66 1.5 1.5 0 0 0 .58.5 1.76 1.76 0 0 0 .79.18 1.79 1.79 0 0 0 .75-.15 1.64 1.64 0 0 0 .54-.44 1.83 1.83 0 0 0 .3-.61 5.09 5.09 0 0 0 .09-1.15v-4.33h.71v4.33a5.09 5.09 0 0 1 -.22 1.67 2.09 2.09 0 0 1 -.78 1 2.2 2.2 0 0 1 -1.3.39 2.85 2.85 0 0 1 -1.08-.19 2.08 2.08 0 0 1 -.8-.55 1.82 1.82 0 0 1 -.45-.78 6.39 6.39 0 0 1 -.12-1.51z" fill="#363736"/><path d="m449.44 123v-7.36h.67v3a2.67 2.67 0 0 1 2.13-1.05 2.58 2.58 0 0 1 1.93.83 2.85 2.85 0 0 1 0 4 2.6 2.6 0 0 1 -1.94.83 2.51 2.51 0 0 1 -2.11-1.16v1zm.63-2.69a2.16 2.16 0 0 0 .61 1.57 2 2 0 0 0 1.49.64 2 2 0 0 0 1.49-.65 2.14 2.14 0 0 0 .62-1.52 2.19 2.19 0 0 0 -.6-1.53 2 2 0 0 0 -1.5-.65 2.07 2.07 0 0 0 -1.51.61 2.1 2.1 0 0 0 -.6 1.55z" fill="#363736"/><path d="m460.68 121.3.58.3a2.74 2.74 0 0 1 -2.54 1.6 2.6 2.6 0 0 1 -2-.82 2.93 2.93 0 0 1 0-4 2.57 2.57 0 0 1 1.94-.83 2.67 2.67 0 0 1 1.94.77 2.94 2.94 0 0 1 .82 2.1h-4.78a2.24 2.24 0 0 0 .6 1.55 1.88 1.88 0 0 0 1.4.58 2.16 2.16 0 0 0 2.04-1.25zm0-1.45a1.94 1.94 0 0 0 -.7-1.19 2.13 2.13 0 0 0 -1.29-.43 1.92 1.92 0 0 0 -2 1.62z" fill="#363736"/><path d="m468 117.71v5.29h-.67v-.91a2.64 2.64 0 0 1 -4.06.26 2.76 2.76 0 0 1 -.8-2 2.73 2.73 0 0 1 .81-2 2.62 2.62 0 0 1 1.94-.83 2.51 2.51 0 0 1 2.11 1.11v-1zm-.63 2.68a2.11 2.11 0 0 0 -.61-1.53 2 2 0 0 0 -1.5-.63 2 2 0 0 0 -1.49.65 2.13 2.13 0 0 0 -.61 1.52 2.11 2.11 0 0 0 .62 1.53 2 2 0 0 0 1.48.64 2.06 2.06 0 0 0 1.49-.62 2.12 2.12 0 0 0 .62-1.56z" fill="#363736"/><path d="m469.28 117.71h.7v.77a2.58 2.58 0 0 1 .54-.69.94.94 0 0 1 .59-.22 1.37 1.37 0 0 1 .66.18l-.36.58a.61.61 0 0 0 -.31-.09.79.79 0 0 0 -.59.32 2 2 0 0 0 -.4.83 8.31 8.31 0 0 0 -.13 1.83v1.78h-.7z" fill="#363736"/><path d="m474.26 122.93c-.07.12-.16.25-.26.4s-.21.31-.33.47l-.35.46a4.44 4.44 0 0 1 -.33.37l-.54-.35a5.77 5.77 0 0 0 .43-.41c.12-.13.22-.25.32-.38s.18-.26.26-.4l.27-.5zm2.82-1.12h2.2s1.15 0 1.65-.06v.63h-.84-.94-4.87-.94-.83v-.63h.79.9 1 1.24v-1h-1.74-1.31v-.58l1.31.05h1.74v-.94h-1.77-.68-.6v-.37c0-.12 0-.24 0-.37s0-.27 0-.42 0-.31 0-.5c0-.38 0-.7 0-1s0-.52-.05-.78h.65.74 4 .75.65c0 .26 0 .52-.05.78s0 .58 0 1v.51.41s0 .24 0 .36a2.4 2.4 0 0 0 0 .37h-.61-.69-1.81v.94h1.75l1.32-.05v.58h-1.32-1.75zm-.6-5.24h-2.4v2.32h2.4zm-.92 2.05a7.35 7.35 0 0 0 -.48-.84 5.14 5.14 0 0 0 -.47-.61l.47-.32a7 7 0 0 1 .53.69c.16.24.33.52.51.82zm.36 5.79a6.16 6.16 0 0 0 -.29-.78 3.43 3.43 0 0 0 -.43-.72l.51-.25c.13.2.27.43.43.71s.28.54.4.81zm1.16-5.52h2.47v-2.32h-2.47zm1.08 5.39-.18-.38c-.06-.11-.11-.22-.17-.32a2.73 2.73 0 0 0 -.21-.3c-.08-.11-.18-.22-.29-.36l.49-.3c.18.24.35.47.51.71s.29.47.41.68zm.9-7.11c-.06.06-.13.11-.19.18l-.23.27-.31.42c-.12.17-.26.37-.42.62l-.5-.3a6.94 6.94 0 0 0 .61-.73 8.24 8.24 0 0 0 .5-.8zm1.51 7.31c-.09-.15-.17-.28-.25-.39l-.25-.36-.33-.38-.43-.48.43-.35c.3.3.56.57.78.82s.42.49.6.72z" fill="#363736"/><path d="m484 122.74c-.06.15-.12.31-.2.48l-.24.5c-.08.17-.17.32-.25.47a3.42 3.42 0 0 1 -.22.34l-.65-.24c.21-.26.4-.54.58-.81a3.66 3.66 0 0 0 .4-.92zm2-5.44-.28-.3-.28-.27.38-.36.38.39.29.33.27.32c.08.11.18.24.3.38l-.44.34a2.17 2.17 0 0 1 -.15-.22l-.15-.22-2.66.18h-.57a2 2 0 0 0 -.39.07 1.51 1.51 0 0 0 -.2-.63 4 4 0 0 0 .49 0l.51-.48.42-.43c.12-.14.24-.28.35-.43l.35-.5a1.9 1.9 0 0 0 .56.36c.13.06.13.12 0 .17l-.2.12a2 2 0 0 0 -.28.22 4.23 4.23 0 0 0 -.42.38l-.61.59zm-2.42 4.92h-.66c0-.2 0-.37.05-.53s0-.29 0-.41 0-.25 0-.36 0-.23 0-.35v-1.29c0-.23 0-.42 0-.56a2.83 2.83 0 0 0 -.06-.42 2.27 2.27 0 0 0 .34 0h.47.51.94.48.48.41a2.46 2.46 0 0 0 -.07.45 4.19 4.19 0 0 0 0 .53v2.14a1.48 1.48 0 0 1 -.05.39.53.53 0 0 1 -.2.25 1.29 1.29 0 0 1 -.43.13 4.67 4.67 0 0 1 -.72 0 2.34 2.34 0 0 0 -.05-.3 1.37 1.37 0 0 0 -.17-.3 5.07 5.07 0 0 0 .57.05.84.84 0 0 0 .32-.07.28.28 0 0 0 .15-.17 1.17 1.17 0 0 0 0-.29v-.33h-2.29zm2.36-2.79v-.61h-2.34v.61zm-2.36.4v.58h2.42v-.58zm1.92 4.68c-.06-.3-.13-.6-.21-.89s-.18-.57-.28-.83l.55-.13c0 .1.08.23.14.38l.15.47c0 .17.09.33.13.49s.07.3.09.41zm2.15-.2q-.06-.21-.15-.45l-.18-.46-.2-.42c-.06-.12-.12-.22-.17-.3l.51-.21c.11.2.23.43.35.68s.27.57.43.95zm.23-4.16a13.18 13.18 0 0 0 1.43-.4 3.13 3.13 0 0 0 .86-.42 1.64 1.64 0 0 0 .16.26l.18.2c.08.08.12.15.1.22s-.1.08-.23.06h-.23l-.41.07c-.18 0-.42.09-.72.16l-1.14.29v.53a.93.93 0 0 0 0 .26.27.27 0 0 0 .15.15 1 1 0 0 0 .33.07 4.9 4.9 0 0 0 .6 0 5.39 5.39 0 0 0 .78 0 .92.92 0 0 0 .45-.15.57.57 0 0 0 .22-.3 4.62 4.62 0 0 0 .13-.51.76.76 0 0 0 .27.24.71.71 0 0 0 .31.1 3.44 3.44 0 0 1 -.27.62.89.89 0 0 1 -.37.35 1.65 1.65 0 0 1 -.61.15q-.39 0-1 0h-.88a1 1 0 0 1 -.48-.14.48.48 0 0 1 -.2-.34 3.48 3.48 0 0 1 0-.63v-1.22c0-.17 0-.32 0-.44s0-.26 0-.41a3 3 0 0 0 .74.09c.09 0 .14 0 .16.08s0 .11-.11.17a.66.66 0 0 0 -.17.51zm0-3.12.79-.18.57-.17.44-.18.36-.21a1.12 1.12 0 0 0 .16.28 1.08 1.08 0 0 0 .19.22c.08.08.12.15.1.2s-.1.07-.22.05a1.13 1.13 0 0 0 -.26 0 2.53 2.53 0 0 0 -.4 0l-.68.13-1.05.25v.28a1 1 0 0 0 0 .27.24.24 0 0 0 .14.16 1 1 0 0 0 .32.09h.6a6.26 6.26 0 0 0 .68 0 1.15 1.15 0 0 0 .42-.14.76.76 0 0 0 .24-.29 2.45 2.45 0 0 0 .14-.47.63.63 0 0 0 .23.23.86.86 0 0 0 .32.1 4.28 4.28 0 0 1 -.29.54.87.87 0 0 1 -.34.32 1.38 1.38 0 0 1 -.55.15 7.31 7.31 0 0 1 -.89 0h-.88a1 1 0 0 1 -.48-.14.48.48 0 0 1 -.2-.34 3.42 3.42 0 0 1 0-.62v-1c0-.17 0-.31 0-.43s0-.24 0-.4a1.05 1.05 0 0 0 .33.06h.39.16s0 .09-.11.16a.37.37 0 0 0 -.13.22 1.13 1.13 0 0 0 0 .34zm2.4 7.37c-.17-.29-.37-.6-.61-.93s-.47-.62-.7-.88l.44-.3c.22.24.46.51.7.82s.48.63.7 1z" fill="#363736"/><path d="m437.97 114.34h.84v11.26h-.84z" fill="#363736"/><path d="m550.61 267.32c1 .74 4.26 2.6 4.65 3.75 2.73 8.07 9.24 13.32 13.11 20.72a4.22 4.22 0 0 1 .64 2c0 .61-.29 1.2-.31 1.81a1.17 1.17 0 0 0 1 1.32c.74 0 1.38-.85 2.1-.72s.76 1.07 1 1.74c.56 1.76 3.35 2 5 .87a7.15 7.15 0 0 0 2.59-5.05c.91-6.31-1.6-12.42-4.83-17.77-3.45-5.74-7.39-11.12-10.39-17.11" fill="#150505"/><path d="m507.93 294.12c-3.25 9.08 3.43 17.26 11.8 30.25.52.79 1.69.93 2.6 1.32a2.27 2.27 0 0 0 1.17.27c.69-.1 3.9.57 4.32.14 6.41-6.57 5.18-4.73 8.26-11.64 2.37-5.31 7.12-8.32 7.89-10.5a5.35 5.35 0 0 0 .15-2.51c-.35-2.64-3.13-5-6.53-5.69" fill="#150505"/><path d="m562.31 294.73c3.25 9.08-3.42 17.26-11.8 30.25-.51.79-1.69.93-2.6 1.32a2.24 2.24 0 0 1 -1.17.27c-.69-.1-3.9.58-4.32.14-6.41-6.57-5.18-4.73-8.26-11.64-2.37-5.31-7.12-8.32-7.89-10.5a5.34 5.34 0 0 1 -.14-2.51c.34-2.64 3.12-5 6.53-5.69" fill="#150505"/><path d="m516.93 315.92a9.89 9.89 0 0 0 -.41 1.6c-.51 2.73 1.34 6.22 1.6 9a15.42 15.42 0 0 0 .66 3.56 15.59 15.59 0 0 1 .62 4.13 6.59 6.59 0 0 1 -1.17 2.85c-.81.82-1.78 1-2.73 1.69a8.44 8.44 0 0 0 -1.23.9 1.18 1.18 0 0 0 -.34.77 1 1 0 0 0 .45.79 1.75 1.75 0 0 0 .89.3c2 .23 3.65-1.32 5.67-1a11.4 11.4 0 0 0 2 .36 2.29 2.29 0 0 0 1.79-.95c.7-1 .18-1.79 0-2.83a5.19 5.19 0 0 1 .25-1.83c1.17-3.46 4.36-6.53 5.57-10 .67-1.9 1.36-3.81 2.11-5.68.3-.75.66-2.27 1.36-2.78z" fill="#150505"/><path d="m554.3 315.89c.73 2.1.09 4.42-.73 6.48s-2 3.72-2.45 5.72a45.35 45.35 0 0 1 -1.57 4.74 4.28 4.28 0 0 0 .32 3.65c.94 1.41 2.81 1.88 4 3.07a1.44 1.44 0 0 1 .5.85c.07.79-.91 1.25-1.7 1.21-1.68-.08-3.17-1.31-4.86-1.3-1.06 0-2.16.5-3.16.12a1.94 1.94 0 0 1 -1.2-1.43 5.92 5.92 0 0 1 .15-1.87c.64-4.63-3.89-8.27-5.16-12.43a56.93 56.93 0 0 0 -3.08-8.61z" fill="#150505"/><path d="m516 260.22c-.63 1.87-9.13 21.35-10.06 35-.78 11.37 5 21.5 27.93 21.25 5.42-.06 12.68-.7 17.86-1.31 8.44-1 17.28-9.6 13.87-25.48a151.26 151.26 0 0 0 -7.56-23.57 26.06 26.06 0 0 0 -3.54-6.61c-21.9 6.1-38.5.72-38.5.72z" fill="#150505"/><path d="m503 179.57a8.92 8.92 0 0 0 -1.36 4.05 6.38 6.38 0 0 0 1.55 4c3.47 4.2 8.82 4.22 12.13-.49a6.18 6.18 0 0 0 1.07-2.38 7.65 7.65 0 0 0 -.65-4.2 9.16 9.16 0 0 0 -2.53-3.82c-2.31-1.88-6.21-.86-8.5.63a5.43 5.43 0 0 0 -1.59 2z" fill="#150505"/><path d="m553.44 176.9a6.18 6.18 0 0 0 -1.14 2.1c-1 3.29 2.4 7.36 5 8.94 2.09 1.25 4.93 1.48 6.83-.05a6.41 6.41 0 0 0 1.51-1.87c1.85-3.31 1.72-8.89-1.58-11.25s-8.06-1.03-10.62 2.13z" fill="#150505"/><path d="m570 189.19c-9.56-9.41-21.37-15.37-35.64-13.79-2.94.33-5.82.33-8.74.95a50.89 50.89 0 0 0 -16.31 6.49 41.88 41.88 0 0 0 -6.31 4.83c-4.82 4.46-7.32 7.44-10.12 13.75a94.56 94.56 0 0 0 -6.5 20.38c-2.18 11.37 1 27.21 8.17 36.59 3.85 5.06 9.8 8.67 15.18 11.49 30 15.73 75.62 4.87 76.81-34.74.46-13.75-7.06-36.64-16.54-45.95z" fill="#150505"/><path d="m529.56 174.59a1.39 1.39 0 0 1 -.46.39c.37-.14-1-.51-1-.51-.62 0-1.31.79-1.82 1.06-1.34.71-2.6 1.09-3.09 2.77.12-.4 7.9 1.46 8.47 1.49a23.27 23.27 0 0 0 11.91-2.55c.38-.2.82-.52.76-1s-.45-.57-.8-.7a46.39 46.39 0 0 1 -5.53-2.34c-1.66-.88-2.13-.46-3.71.36-.4.2 1.27-1.86.7-1.59-.41.19.1-.13-.68-.66s-3.63 2.05-4.75 3.28z" fill="#150505"/><path d="m517.81 269.56c-.87.63-3.77 2.22-4 3.23-2 7.1-7.68 11.63-10.76 18.11a3.28 3.28 0 0 0 -.45 1.81c.06.54.35 1.07.41 1.61a.93.93 0 0 1 -.82 1.15c-.69 0-1.34-.78-2-.67s-.64.93-.79 1.51c-.4 1.56-3 1.75-4.58.69a7.12 7.12 0 0 1 -2.75-4.53c-1.27-5.6.64-11 3.27-15.66 2.82-5 6.1-9.71 8.48-15" fill="#150505"/><path d="m537.3 215.38c-10.32 0-26.41 5-26 17.85.29 9.09 10.72 15.46 18.67 16.59a33.65 33.65 0 0 0 7.44.17s26.08-2.09 21.78-21.19c0 0-5.41-13.44-21.89-13.42z" fill="#fff"/><path d="m527.9 221.54c1.82-.46 10.91-1 12.76-.56s-.55 4.14-1.63 5c-2.34 1.77-6.09 2.41-8.58.54-1.1-.87-4.45-4.52-2.55-4.98z" fill="#231815"/><path d="m528.91 234.23a10.66 10.66 0 0 0 12.36-.59.83.83 0 0 0 0-1.17.85.85 0 0 0 -1.18 0 9 9 0 0 1 -10.34.32c-.89-.6-1.72.85-.84 1.44z" fill="#140509"/><path d="m535.58 235.11-.89-.07a43.85 43.85 0 0 0 -1-12.79l.87-.19a45.26 45.26 0 0 1 1.02 13.05z" fill="#231815"/><path d="m530.56 234.5a3 3 0 0 1 -1.91-1.16c-1.07.46 3.88 9 8.33 6.92 2.18-1 3.26-3.73 3.74-4.39s1.42-3.59.48-2.78c-1.24.14-2.83 2.24-3.91 1.93-.69-.21-1.34.1-2.16 0-1.68-.1-3.07-1.07-4.61-.75.45.84.42 1.78 1.41 2.52a4.59 4.59 0 0 0 3.66.66" fill="#140509"/><path d="m547.3 211.37c.87 2.41 3 3.85 4.71 3.22s2.42-3.09 1.54-5.5-3-3.85-4.71-3.22-2.42 3.13-1.54 5.5z" fill="#fff"/><path d="m513.6 210.2c-.57 2.5.42 4.85 2.22 5.26s3.7-1.29 4.27-3.79-.43-4.86-2.22-5.26-3.7 1.29-4.27 3.79z" fill="#fff"/><path d="m547.65 211.12a2.41 2.41 0 1 0 1.76-2.93 2.42 2.42 0 0 0 -1.76 2.93z" fill="#140508"/><path d="m548.86 209.76a.81.81 0 1 0 1-.55.82.82 0 0 0 -1 .55z" fill="#fff"/><path d="m514.07 211.82a2.41 2.41 0 1 0 1.76-2.93 2.42 2.42 0 0 0 -1.76 2.93z" fill="#140508"/><path d="m515.28 210.46a.81.81 0 1 0 1-.55.82.82 0 0 0 -1 .55z" fill="#fff"/><path d="m215 267.65c1 .68 4.11 2.36 4.58 3.45 3.25 7.67 9.65 12.5 13.87 19.49a4.4 4.4 0 0 1 .77 2c0 .58-.14 1.17-.11 1.75s.43 1.24 1 1.24 1.17-.87 1.84-.76.79 1 1 1.63c.69 1.68 3.24 1.85 4.62.68s1.79-3.13 1.86-4.94c.21-6.1-2.65-11.9-6.09-16.94-3.68-5.4-7.76-10.45-11.06-16.11" fill="#fff"/><path d="m183.57 250.49c-.84 1.94-12 22.73-11.18 41.7 1 22.75 11.24 20.62 22.56 13.8 4.45-2.67 10.68 4.91 15.76 4.75 17.89-.57 16.81-6.4 17.32-21.73.29-8.85-2.65-19.16-4.64-27.6a29.8 29.8 0 0 0 -2.63-7.46c-24.44 11.15-37.19-3.46-37.19-3.46z" fill="#fff"/><path d="m220.16 275c11.51-4.82 18.76-11.13 24.38-25.82 4.11-10.72 3.83-23.81-1.58-37.71-.71-1.81-8.94-17.28-8.7-17.56a14.14 14.14 0 0 0 3.37-7.32c1.11-7.52-3.8-14.49-11-15.56a13.07 13.07 0 0 0 -13 6.29 50.28 50.28 0 0 0 -7.46-1.91c-3.5-.87-2.5-.27-3.61-1-3.73-2.44-2.85-2-5.24-.94-.41.19 1.41-1.79.82-1.57-.41.16.12-.13-.6-.72s-3.76 1.8-5 3 .86-1.37-2.31.37a18.7 18.7 0 0 1 -2.69.87l.24.07a30.74 30.74 0 0 0 -3.49 1c-1.65.58-3.55 1.15-5.46 1.82a12.62 12.62 0 0 0 -9.14-6.47c-7.07-1-13.7 4.22-14.81 11.77a14 14 0 0 0 5.35 13.35 86.93 86.93 0 0 0 -8.81 18.39c-3.6 10.57-5.15 22.26-2.19 32.93 3.17 11.39 18.85 20.06 27.59 25.78 0 0 2-.37 2-.34l24.65 12.89c-.01-.5 16.24-11.39 16.69-11.61z" fill="#fff"/><path d="m180.37 292c-8.48 18.62 6.76 28.3 11.73 31.79.72.51 2.68-3.17 3-6.12 2.4-20.18 11.07-26.09-7.35-42.18" fill="#fff"/><path d="m221.3 291.14c13.59 16.48-6.58 31.72-10.64 36.35-.59.67.6-.29-4.7-5.47-8.91-8.69-19.2-40.53-9.76-50.22" fill="#fff"/><path d="m225.11 304c1.46 4.24-1.55 8.29-2 9.42-2.4 5.78-9.13 11.72-10.37 18.09-.55 2.79-5.91 1.08-5.74.05a10.88 10.88 0 0 0 -.37-4c-.36-1.94-3.82-9.63-4.62-11.43" fill="#fff"/><path d="m212.73 331.25c.07 1.11.15 2.87.73 3.73s1.63 1.32 2.47 2.24a9 9 0 0 1 1.07 1.15 1.23 1.23 0 0 1 .22.87 1.06 1.06 0 0 1 -.58.75 1.91 1.91 0 0 1 -.95.16c-2-.11-3.45-2-5.52-2.06a12.9 12.9 0 0 1 -2.06 0 2.36 2.36 0 0 1 -1.64-1.31c-.54-1.17.12-1.9.46-3s-.13-1.88.15-2.83" fill="#fff"/><path d="m177.24 303.72c-1.42 4.26 1.64 8.26 2.12 9.39 2.45 5.75 9.24 11.62 10.55 18 .58 2.79 5.92 1 5.75 0a10.93 10.93 0 0 1 .32-4c.35-1.93 7.31-22.59 4.73-26.54" fill="#fff"/><path d="m189.92 330.87c-.07 1.11-.12 2.87-.7 3.74s-1.61 1.33-2.44 2.27a9 9 0 0 0 -1.07 1.16 1.23 1.23 0 0 0 -.2.87 1 1 0 0 0 .59.74 1.69 1.69 0 0 0 .94.15c2-.13 3.43-2.06 5.51-2.12a11.7 11.7 0 0 0 2 0 2.35 2.35 0 0 0 1.63-1.33c.52-1.17-.14-1.89-.49-3s.11-1.88-.18-2.83" fill="#fff"/><path d="m180.6 270.12c-2.49 3.69-4.4 7.83-7.41 11.11a79.8 79.8 0 0 0 -8.47 11.08 4.19 4.19 0 0 0 -.7 1.59c-.08.6.1 1.21.06 1.81s-.46 1.29-1.08 1.29-1.06-.76-1.67-.72c-.78.06-.89 1.12-1.21 1.83-.66 1.47-2.89 1.61-4.14.6a6 6 0 0 1 -1.81-4.33c-.38-5.06 1.71-10 4.44-14.27 4.08-6.39 9.06-12.15 13-18.66" fill="#fff"/><path d="m202.66 238.35a4.39 4.39 0 0 1 -1.8-.37s-2.77-1.49-2.82-3c0-.12-.22-6.66-.22-6.66a.86.86 0 0 1 .84-.89.88.88 0 0 1 .9.83c.22 6.66.22 6.67.22 6.69a5.92 5.92 0 0 0 1.81 1.47 3.27 3.27 0 0 0 2.4 0 2.4 2.4 0 0 0 1.41-1.18.87.87 0 0 1 1.59.69 4.08 4.08 0 0 1 -2.38 2.11 5.61 5.61 0 0 1 -1.95.31z" fill="#231815"/><path d="m194.42 238.67a3.66 3.66 0 0 1 -3.77-2.69.87.87 0 0 1 1.65-.55c.46 1.37 1.32 1.72 3.39 1.37 1.51-.25 2.42-2.21 2.43-2.23a.87.87 0 0 1 1.58.71c0 .12-1.29 2.83-3.73 3.23a8.7 8.7 0 0 1 -1.55.16z" fill="#231815"/><path d="m188 220.35a3.09 3.09 0 1 1 -2.76-3.39 3.1 3.1 0 0 1 2.76 3.39z" fill="#140508"/><path d="m186.17 218.85a1 1 0 0 1 -1.89.89 1 1 0 1 1 1.89-.89z" fill="#fff"/><path d="m213.83 219.3a3.09 3.09 0 1 1 -2.76-3.39 3.09 3.09 0 0 1 2.76 3.39z" fill="#140508"/><path d="m212.05 217.8a1 1 0 0 1 -.5 1.39 1 1 0 0 1 -.89-1.89 1 1 0 0 1 1.39.5z" fill="#fff"/><path d="m200.68 230.84a4.33 4.33 0 0 0 2.49-.94 2.1 2.1 0 0 0 -.16-3.44c-1.57-.87-4-.28-5.69-.18a10.66 10.66 0 0 0 -3.71.81c-1.55.56-.2 3.19.78 3.79a7.72 7.72 0 0 0 8.65-.81c1.93-1.62 1.57-3.87-1.17-3.91" fill="#231815"/><path d="m215.85 340.66h-.19a6.67 6.67 0 0 1 -2.91-1.09 5.53 5.53 0 0 0 -2.6-1 4.46 4.46 0 0 0 -.73 0 4.77 4.77 0 0 1 -1.41 0 2.85 2.85 0 0 1 -2-1.59 2.9 2.9 0 0 1 .16-2.62c.09-.23.19-.46.27-.7a3.33 3.33 0 0 0 .06-1.23 6.43 6.43 0 0 1 0-.88v-.17a8.86 8.86 0 0 0 -.24-3.23l-.12-.58a69.65 69.65 0 0 0 -3.57-9 44.66 44.66 0 0 1 -2.57-4.27c-.91 3.73-2 7.39-2.71 9.89-.43 1.46-.77 2.61-.83 3l-.11.58a9 9 0 0 0 -.21 3.25v.1.05a6.35 6.35 0 0 1 0 .88 3.53 3.53 0 0 0 .08 1.23 6.38 6.38 0 0 0 .28.7 2.93 2.93 0 0 1 .18 2.62 2.85 2.85 0 0 1 -2 1.61 4.8 4.8 0 0 1 -1.41 0 4.46 4.46 0 0 0 -.73 0 5.54 5.54 0 0 0 -2.59 1 6.62 6.62 0 0 1 -2.9 1.12 2.21 2.21 0 0 1 -1.2-.2 1.59 1.59 0 0 1 -.85-1.13 1.7 1.7 0 0 1 .28-1.21 4.39 4.39 0 0 1 .74-.85l.38-.38a7.56 7.56 0 0 1 1.19-1.06 4.56 4.56 0 0 0 1.2-1.16 7.81 7.81 0 0 0 .6-3.22c-.73-3.52-3.29-7-5.77-10.34a39.44 39.44 0 0 1 -4.73-7.47c-.08-.17-.23-.43-.41-.75a17.71 17.71 0 0 1 -1.66-3.65c-3-2.83-4.59-8.29-4.94-16.69a53.91 53.91 0 0 1 .44-9.26 78.19 78.19 0 0 0 -7.18 9.63 3.63 3.63 0 0 0 -.63 1.39 3.59 3.59 0 0 0 0 .86 4.54 4.54 0 0 1 0 .91 1.71 1.71 0 0 1 -1.57 1.72 2.09 2.09 0 0 1 -1.07-.45c-.21-.14-.41-.29-.55-.27s-.37.38-.56.93c-.07.21-.14.42-.22.6a2.65 2.65 0 0 1 -1.85 1.46 3.69 3.69 0 0 1 -3.06-.67 6.37 6.37 0 0 1 -2-4.68c-.33-4.46 1.19-9.36 4.52-14.58 1.89-2.95 4-5.82 6-8.59.79-1.07 1.58-2.14 2.35-3.22-7.18-4.87-15.54-11.46-17.8-19.6-3.39-12.19-.68-24.8 2.2-33.22a86.88 86.88 0 0 1 8.62-18.11 14.43 14.43 0 0 1 -5.19-13.54 14.83 14.83 0 0 1 5.73-9.72 12.9 12.9 0 0 1 9.65-2.47 13.07 13.07 0 0 1 9.3 6.36c.91-.32 1.82-.62 2.69-.9s1.63-.53 2.38-.79c.58-.2 1.18-.39 1.8-.56l-.15-.05 1.63-.45a22.39 22.39 0 0 0 2.58-.82c1.21-.66 1.84-.81 2.26-.53l.11.09c1-.94 4.24-3.87 5.47-2.86a1.78 1.78 0 0 1 .49.62.46.46 0 0 1 .3.19.57.57 0 0 1 0 .66c.95-.38 1.44 0 3.57 1.35l.71.47c.41.26.41.26.71.3a24.52 24.52 0 0 1 2.63.54 52.36 52.36 0 0 1 7.13 1.8 13.57 13.57 0 0 1 13.31-6.19c7.43 1.11 12.54 8.35 11.39 16.13a14.78 14.78 0 0 1 -3.32 7.38c.42 1.09 2.91 5.94 4.76 9.54s3.54 6.9 3.85 7.71c5.34 13.68 5.89 26.85 1.59 38.07-3.07 8-6.74 13.8-11.52 18.13l1.31 1.8c1.31 1.82 2.67 3.7 4 5.6 4.33 6.36 6.35 12 6.17 17.24-.09 2.43-.77 4.22-2 5.3a4 4 0 0 1 -3.4.77 2.8 2.8 0 0 1 -2-1.64c-.06-.15-.11-.31-.16-.47-.16-.48-.29-.83-.5-.86s-.37.13-.6.29a2.11 2.11 0 0 1 -1.16.48 1.7 1.7 0 0 1 -1.51-1.71 5.11 5.11 0 0 1 .06-1 3.48 3.48 0 0 0 0-.78 4.09 4.09 0 0 0 -.7-1.73 52.27 52.27 0 0 0 -4.54-6.19c.11 1.57.14 3 .1 4.37 0 1-.06 1.92-.09 2.83-.17 6.31-.3 10.9-2.25 14-.06.35-.14.7-.22 1a13.85 13.85 0 0 1 -2 5.89 7 7 0 0 0 -.39.76 40 40 0 0 1 -4.66 7.52c-2.43 3.36-4.94 6.84-5.66 10.38a8.05 8.05 0 0 0 .63 3.24 5.13 5.13 0 0 0 1.22 1.15 7.37 7.37 0 0 1 1.21 1 4.54 4.54 0 0 0 .38.38 4.72 4.72 0 0 1 .75.84 1.82 1.82 0 0 1 .29 1.22 1.57 1.57 0 0 1 -.86 1.11 2.18 2.18 0 0 1 -.95.34zm-5.76-3.08h.09a6.39 6.39 0 0 1 3.07 1.1 5.74 5.74 0 0 0 2.47 1 1.29 1.29 0 0 0 .69-.11.58.58 0 0 0 .32-.39.78.78 0 0 0 -.15-.51 3.22 3.22 0 0 0 -.58-.67c-.15-.14-.3-.28-.44-.43a6.85 6.85 0 0 0 -1.05-.91 5.73 5.73 0 0 1 -1.45-1.39 8.32 8.32 0 0 1 -.81-3.71v-.22c.74-3.78 3.33-7.37 5.84-10.84a38.73 38.73 0 0 0 4.54-7.31c.09-.21.25-.5.45-.86a13.42 13.42 0 0 0 1.91-5.55c.09-.44.17-.8.23-1.16l.07-.19c1.86-2.89 2-7.39 2.15-13.6 0-.91.05-1.85.09-2.83a44.32 44.32 0 0 0 -.23-5.82l-.15-1.6 1 1.23a58.94 58.94 0 0 1 5.65 7.53 4.88 4.88 0 0 1 .84 2.17 5.22 5.22 0 0 1 -.06 1 5.36 5.36 0 0 0 -.05.78c0 .35.25.77.51.77a1.38 1.38 0 0 0 .6-.31 1.85 1.85 0 0 1 1.32-.45c.84.13 1.1.94 1.3 1.54a3.73 3.73 0 0 0 .14.4 1.86 1.86 0 0 0 1.31 1.05 3 3 0 0 0 2.51-.56c1.05-.89 1.61-2.43 1.69-4.58.17-5-1.79-10.46-6-16.64-1.28-1.88-2.64-3.76-3.95-5.57-.53-.72-1.05-1.44-1.57-2.17l-.26-.37.33-.3c4.82-4.25 8.5-10 11.59-18 4.2-11 3.65-23.9-1.59-37.35-.29-.76-2-4.09-3.81-7.61-5.16-10-5.13-10.08-4.79-10.46a13.69 13.69 0 0 0 3.25-7.06c1.07-7.24-3.67-14-10.55-15a12.61 12.61 0 0 0 -12.52 6.06l-.21.34-.38-.13a51.21 51.21 0 0 0 -7.39-1.89 23.64 23.64 0 0 0 -2.56-.53 1.89 1.89 0 0 1 -1.11-.46l-.72-.47c-2.26-1.48-2.26-1.48-3.17-1-.26.13-.58.3-1 .49l-.36.15-.3-.29c-.27-.35-.06-.64.42-1.28l.21-.28v-.33s0-.13-.24-.33c-.42-.14-2.43 1.14-4.3 3-.37.36-.66.65-1.05.47a.56.56 0 0 1 -.29-.52 7 7 0 0 0 -1.08.5 7.9 7.9 0 0 1 -1.2.45l.45.14-1.84.4a28.61 28.61 0 0 0 -3.43 1c-.75.26-1.55.52-2.39.79s-2 .66-3.06 1l-.4.14-.2-.37a12.13 12.13 0 0 0 -8.79-6.22 11.89 11.89 0 0 0 -8.91 2.29 13.81 13.81 0 0 0 -5.33 9 13.38 13.38 0 0 0 5.16 12.87l.38.28-.25.39a86.61 86.61 0 0 0 -8.77 18.29c-2.82 8.29-5.5 20.69-2.18 32.63 2.22 8 10.7 14.53 17.83 19.33l.43.29-.3.42q-1.32 1.83-2.66 3.64c-2 2.76-4.13 5.61-6 8.54-3.21 5-4.68 9.73-4.36 14a5.43 5.43 0 0 0 1.63 4 2.63 2.63 0 0 0 2.2.47 1.62 1.62 0 0 0 1.16-.89c.07-.16.13-.33.19-.51.22-.65.53-1.54 1.44-1.61a1.85 1.85 0 0 1 1.19.44 1.33 1.33 0 0 0 .54.28c.27 0 .5-.42.53-.79a5 5 0 0 0 0-.75 3.66 3.66 0 0 1 .76-2.87 79.39 79.39 0 0 1 8.39-11l1.12-1.22-.25 1.64a55 55 0 0 0 -.67 10.71c.34 8.1 1.93 13.52 4.72 16.09l.1.1v.13a16.39 16.39 0 0 0 1.62 3.57c.2.36.36.65.45.85a38.48 38.48 0 0 0 4.62 7.26c2.54 3.45 5.17 7 6 10.78v.13a8.71 8.71 0 0 1 -.77 3.8 5.94 5.94 0 0 1 -1.43 1.41 6.08 6.08 0 0 0 -1.06.92c-.13.15-.28.29-.43.44a3.47 3.47 0 0 0 -.58.65.75.75 0 0 0 -.14.52.54.54 0 0 0 .32.38 1.23 1.23 0 0 0 .69.1 5.69 5.69 0 0 0 2.46-1 6.46 6.46 0 0 1 3.06-1.14 8 8 0 0 1 .85 0 4.18 4.18 0 0 0 1.12 0 1.86 1.86 0 0 0 1.27-1.05 1.93 1.93 0 0 0 -.19-1.81c-.11-.25-.22-.51-.31-.78a4.21 4.21 0 0 1 -.12-1.6 5.61 5.61 0 0 0 0-.82v-.09a9.85 9.85 0 0 1 .23-3.49l.11-.57c.07-.41.38-1.47.85-3.07.81-2.79 2-7 3-11.15l.31-1.36.62 1.25a48.21 48.21 0 0 0 3.14 5.46c2.28 5.16 3.47 8.18 3.68 9.31l.12.57a9.8 9.8 0 0 1 .26 3.52v.05a5.79 5.79 0 0 0 0 .84 4.2 4.2 0 0 1 -.11 1.6c-.09.28-.2.54-.3.79a1.93 1.93 0 0 0 -.17 1.81 1.85 1.85 0 0 0 1.28 1 4.19 4.19 0 0 0 1.12 0c.27-.11.53-.14.78-.14z" fill="#231815"/><g fill="#383736"><path d="m446.14 316.69h-2.3-.67-.43v-.5q.35 0 1 .06h1.52 2.3 1.52q.67 0 1-.06v.5h-.44-.69-2.35v.57h.95.67a2.68 2.68 0 0 0 .44 0h.29v.38.31s0 .19 0 .29v.34.64s0 .44.06.7h-.3-.5-2.91-.77c-.21 0-.37 0-.49 0h-.28c0-.27 0-.5 0-.7s0-.42 0-.64 0-.47 0-.66 0-.42 0-.66a6 6 0 0 0 .84.06h1.54zm-.91 3.11.17.2a1.15 1.15 0 0 0 .2.15q.12.06.12.15c0 .06-.05.07-.16.06a.51.51 0 0 0 -.17 0l-.33.14-.66.31-1.15.58a1.35 1.35 0 0 0 -.19-.28 1 1 0 0 0 -.27-.18 10.35 10.35 0 0 0 1.46-.54 4.87 4.87 0 0 0 .98-.59zm2.79-5.27h.92c.28 0 .49 0 .64-.05v.52c-.15 0-.36 0-.64-.05h-.92v1h-.22-2.8-.22v-1h-.92a6.16 6.16 0 0 0 -.63.05v-.55l.63.06h.92c0-.26 0-.47 0-.62a2.11 2.11 0 0 0 0-.33 1.78 1.78 0 0 0 .62.05s.07 0 .08 0 0 .07-.07.11a.23.23 0 0 0 -.1.22v.53h2.35v-.38c0-.1 0-.18 0-.24s0-.12 0-.16a.5.5 0 0 0 0-.12h.31.3s.05 0 .07 0 0 .07-.06.11a.28.28 0 0 0 -.08.12.49.49 0 0 0 0 .15zm-1.88 3.09h-1.88v.67h1.88zm0 1h-1.88v.74h1.88zm-.94-3.73v.6h2.35v-.6zm1.44 3.36h1.83v-.67h-1.83zm0 1.11h1.83v-.74h-1.83zm2.86 1.93a10.33 10.33 0 0 0 -1-.63c-.35-.19-.73-.37-1.15-.55l.24-.35.6.28.55.26.53.27.53.27z"/><path d="m454.77 316.77h-.94-.72v-.41c-.22.14-.46.3-.73.46s-.57.34-.91.52a.92.92 0 0 0 -.16-.29 1 1 0 0 0 -.3-.22c.32-.12.62-.24.91-.38a6.24 6.24 0 0 0 .81-.44 7.4 7.4 0 0 0 .72-.53 8.13 8.13 0 0 0 .65-.66 6.73 6.73 0 0 0 .54-.72 2.14 2.14 0 0 0 .28-.7 2 2 0 0 0 .3.23 1 1 0 0 0 .27.1c.05 0 .08 0 .08.08s0 .06-.1.08l-.1.06-.1.09c.31.36.59.66.86.92a7.44 7.44 0 0 0 .82.7 7.94 7.94 0 0 0 .87.55 9 9 0 0 0 1 .47 1 1 0 0 0 -.21.19 1.37 1.37 0 0 0 -.17.28c-.3-.15-.56-.29-.79-.43s-.45-.27-.65-.41v.46h-.74-1v1.13h.79.66.58.51v.56a4.24 4.24 0 0 0 -.51 0h-.58-1.41v2.27h1.52 1a7 7 0 0 0 .71-.06v.56h-.68-4.76-.75-.68v-.58a7 7 0 0 0 .71.06h1 1.48v-2.27h-1.52-.59a4.58 4.58 0 0 0 -.53 0v-.56h.53.59.7.82zm-1.07 3.56a6.91 6.91 0 0 0 -.5-.68 6.37 6.37 0 0 0 -.6-.66l.34-.3.32.32.33.34.3.35c.09.11.18.21.25.31zm-.48-4h.38 3 .37a4.66 4.66 0 0 1 -.49-.39c-.16-.13-.31-.27-.47-.42s-.31-.32-.46-.5l-.52-.58-.37.53a6.12 6.12 0 0 1 -.41.48 4.83 4.83 0 0 1 -.46.44 7.07 7.07 0 0 1 -.57.42zm4.29 2.64c.07 0 .1.06.09.1s-.05.08-.13.1a.34.34 0 0 0 -.11.05 1.49 1.49 0 0 0 -.17.15c-.08.08-.18.2-.31.35l-.52.62-.43-.28a3.27 3.27 0 0 0 .33-.32 4.16 4.16 0 0 0 .32-.39 4.56 4.56 0 0 0 .27-.39 3.26 3.26 0 0 0 .16-.34 1.46 1.46 0 0 0 .25.21 2 2 0 0 0 .25.17z"/><path d="m462.34 316.24h.56.31v.58h-.31-1.9v3.48l1-.41c.34-.14.66-.29 1-.44a1.06 1.06 0 0 0 0 .27 1.29 1.29 0 0 0 .06.25l-.88.35-.83.36-.73.34-.58.3a2.07 2.07 0 0 0 -.31-.61l.36-.1.37-.13v-5.55c0-.21 0-.4 0-.55s0-.3 0-.43a3.06 3.06 0 0 0 .36.05h.32c.1 0 .14 0 .15.07s0 .08-.12.12a.24.24 0 0 0 -.1.14 1 1 0 0 0 0 .29v1.71zm2 .45c.27-.11.52-.21.73-.31l.56-.27.44-.25.37-.25a3.4 3.4 0 0 0 .2.31.78.78 0 0 0 .19.21c.06.07.09.11.07.15s-.07 0-.16 0h-.18l-.38.12c-.17.05-.4.14-.7.26l-1.14.47v2.87a1.42 1.42 0 0 0 0 .32.27.27 0 0 0 .13.18.73.73 0 0 0 .3.07h.57a3 3 0 0 0 .57 0 .67.67 0 0 0 .35-.15.59.59 0 0 0 .18-.34 3.84 3.84 0 0 0 .06-.58 1.15 1.15 0 0 0 .3.22.9.9 0 0 0 .33.09 3.33 3.33 0 0 1 -.19.66.89.89 0 0 1 -.32.39 1.19 1.19 0 0 1 -.5.19 5.35 5.35 0 0 1 -.76 0h-.86a1.23 1.23 0 0 1 -.47-.12.45.45 0 0 1 -.2-.28 2.39 2.39 0 0 1 0-.51v-5.5c0-.24 0-.43 0-.58s0-.27 0-.36h.37.31c.08 0 .12 0 .12.05s0 .08-.11.12a.3.3 0 0 0 -.09.19 1.51 1.51 0 0 0 0 .32z"/><path d="m469.3 316.19c-.11.23-.22.44-.33.64s-.23.4-.36.6a.75.75 0 0 0 -.24-.21.93.93 0 0 0 -.26-.1 5.93 5.93 0 0 0 .54-.78 8.34 8.34 0 0 0 .47-.89 8.62 8.62 0 0 0 .39-.95 9.68 9.68 0 0 0 .27-.94 1.23 1.23 0 0 0 .26.12l.26.05q.15 0 .15.06s0 .07-.08.12a.22.22 0 0 0 -.09.08.63.63 0 0 0 -.11.18c0 .08-.1.19-.16.34l-.24.57v6.28h-.57c0-.24.06-.5.07-.78s0-.57 0-.88zm2.07-1.4h-.51l-.51.05v-.54h.38.36 1.73.36.39v.54h-.39-.35-1a6.5 6.5 0 0 1 -.28 1.46h1.37.34c0 .49-.11.92-.18 1.3a10.53 10.53 0 0 1 -.24 1 5.18 5.18 0 0 1 -.34.82 3.52 3.52 0 0 1 -.44.69 5.67 5.67 0 0 1 -.59.62l-.76.62a.84.84 0 0 0 -.2-.26 1 1 0 0 0 -.31-.13 5.36 5.36 0 0 0 1.14-.81 3.72 3.72 0 0 0 .79-1.07c-.19-.19-.38-.38-.58-.55a5 5 0 0 0 -.55-.53l.29-.39a11.37 11.37 0 0 1 1.09.95 6.56 6.56 0 0 0 .25-.88c.07-.31.13-.65.18-1h-1.34a6.48 6.48 0 0 1 -.38.8 5.94 5.94 0 0 1 -.5.77.81.81 0 0 0 -.49-.29 5.3 5.3 0 0 0 .5-.6 3.78 3.78 0 0 0 .37-.69 4.64 4.64 0 0 0 .27-.82 8.19 8.19 0 0 0 .13-1.06zm4.29-.74a.25.25 0 0 0 -.11.23v6.19a1.41 1.41 0 0 1 0 .39.41.41 0 0 1 -.22.25 1.39 1.39 0 0 1 -.48.17 7.34 7.34 0 0 1 -.87.09 1.34 1.34 0 0 0 0-.21.8.8 0 0 0 0-.15.39.39 0 0 0 -.08-.14.79.79 0 0 0 -.12-.15h.75a1.4 1.4 0 0 0 .42-.05.25.25 0 0 0 .17-.14.51.51 0 0 0 0-.22v-5.11c0-.3 0-.58 0-.84s0-.44-.05-.56l.3.06h.29c.08 0 .12 0 .14.07s-.07.07-.14.12zm-1.26 1.48a.27.27 0 0 0 -.1.23v2.24.29s0 .23 0 .36 0 .24 0 .37 0 .23 0 .33h-.58c0-.1 0-.21 0-.33s0-.25 0-.37 0-.25 0-.36 0-.2 0-.29v-1.53c0-.21 0-.43 0-.64s0-.38-.05-.49l.31.06h.28.12s.08.09.02.13z"/><path d="m444.53 336.15c.16-.34.29-.65.4-.94a8.49 8.49 0 0 0 .3-.93l.29.13a1 1 0 0 0 .26.08c.06 0 .08 0 .09.07s0 .07-.09.11a.22.22 0 0 0 -.11.09 2 2 0 0 0 -.15.22l-.2.41c-.09.18-.19.4-.31.68l.57-.12.56-.13a2 2 0 0 0 -.05.26 2.72 2.72 0 0 0 0 .28c-.21 0-.46.05-.76.1l-.94.15-1 .17c-.31.05-.58.11-.81.16 0-.1 0-.2 0-.31a.83.83 0 0 0 -.11-.29c.35 0 .7 0 1-.08zm1.37-5.15h-.33-.33-1.86-.36-.33v-.6h.33.36.43 1 .4.33.33zm-.07 3.11h-.29-1.94c-.21 0-.42 0-.62 0 0-.15 0-.32 0-.5s0-.38 0-.61 0-.45 0-.62 0-.33 0-.5h.67 1.6.29.29v.51 1.23c-.02.21-.01.38 0 .52zm-2 1.87c0-.11-.09-.22-.14-.34a3.78 3.78 0 0 0 -.17-.35l-.2-.34a2.11 2.11 0 0 0 -.2-.29l.44-.25c.12.18.25.4.39.65s.25.48.34.69zm1.53-3.63h-1.78v1.31h1.78zm2.33 4.18a.63.63 0 0 0 -.21.05l-.22.13-.35.29a2.92 2.92 0 0 1 -.29.23 2.23 2.23 0 0 1 -.3.2l-.36.23-.09-.12-.1-.09-.1-.08-.15-.09a4.93 4.93 0 0 0 .91-.48 4.63 4.63 0 0 0 .85-.78l.22.18a.62.62 0 0 0 .17.1c.1 0 .14.09.13.15s-.08.11-.15.11zm.13-5.6h-.89-.64v-.54h.41.45.53 1.29.5.41.38v.61l-.84-.06h-1.09c0 .12-.06.21-.08.28l-.06.19-.07.19-.1.25h.5.51.44.29a3.16 3.16 0 0 0 0 .35v.54 2.39.5a3.84 3.84 0 0 0 0 .39h-.24-.31-2.11-.31-.23c0-.12 0-.26 0-.41s0-.32 0-.48v-2.39c0-.17 0-.33 0-.5a3.53 3.53 0 0 0 0-.39h.39.6a4.26 4.26 0 0 0 .23-.85zm1.39 1.29h-2.12v.86h2.12zm0 1.25h-2.12v.82h2.12zm0 1.22h-2.12v.8h2.12zm.84 3-.41-.41a3.88 3.88 0 0 0 -.38-.34 4 4 0 0 0 -.39-.29 3.55 3.55 0 0 0 -.43-.28l.34-.31.44.29c.14.09.26.19.39.28s.25.18.38.29l.42.35z"/><path d="m452.26 330.24h1.19v6.1h-.6v-5.51h-1z"/><path d="m456.17 335.94a.51.51 0 0 1 .87-.36.5.5 0 0 1 .15.37.51.51 0 0 1 -.87.36.53.53 0 0 1 -.15-.37z"/><path d="m458.87 331.65h-.62a2 2 0 0 1 .65-1.16 1.75 1.75 0 0 1 1.17-.4 1.78 1.78 0 0 1 1.21.45 1.46 1.46 0 0 1 .51 1.12 1.4 1.4 0 0 1 -.78 1.25 1.73 1.73 0 0 1 1.12 1.61 1.86 1.86 0 0 1 -.59 1.39 2 2 0 0 1 -1.49.58 2 2 0 0 1 -1.32-.45 2.36 2.36 0 0 1 -.69-1.33h.6a1.77 1.77 0 0 0 .5.9 1.41 1.41 0 0 0 .94.29 1.45 1.45 0 0 0 1-.39 1.28 1.28 0 0 0 .42-1 1.09 1.09 0 0 0 -.46-.93 2.19 2.19 0 0 0 -1.33-.37v-.56a1.71 1.71 0 0 0 1-.29.86.86 0 0 0 .39-.72.9.9 0 0 0 -.31-.71 1.13 1.13 0 0 0 -.77-.29 1.07 1.07 0 0 0 -.73.24 2 2 0 0 0 -.42.77z"/><path d="m467.05 333h-.88v-.9h.88zm0 3.3a1.2 1.2 0 0 1 -.88 1.34v-.38a.61.61 0 0 0 .38-.26 1.27 1.27 0 0 0 .11-.63h-.49v-.9h.88z"/><path d="m474.24 330.79a3.06 3.06 0 0 0 .23-.5 2.44 2.44 0 0 0 .13-.5l.31.09.27.06c.07 0 .11.05.12.11s0 .09-.08.12a.56.56 0 0 0 -.21.18 3.84 3.84 0 0 0 -.3.44h2.07.36.26.22c0 .17-.06.31-.07.44s0 .27 0 .45v2.22a4.37 4.37 0 0 0 .8-.92l.27.21.21.15c.07.05.1.1.09.16a.1.1 0 0 1 -.1.09l-.18.06a1.66 1.66 0 0 0 -.25.16l-.39.19-.49.42v2.33a1.22 1.22 0 0 1 0 .4.58.58 0 0 1 -.24.3 1.43 1.43 0 0 1 -.53.17 5.91 5.91 0 0 1 -.94.06 1.27 1.27 0 0 0 -.08-.37 1.07 1.07 0 0 0 -.24-.32c.36 0 .64.05.84.05a1.3 1.3 0 0 0 .46-.06.26.26 0 0 0 .19-.19 1.16 1.16 0 0 0 0-.35v-1.56c-.28.2-.62.41-1 .63s-.81.44-1.26.65-.92.41-1.41.61-1 .38-1.44.54a2.22 2.22 0 0 0 -.14-.31 2.6 2.6 0 0 0 -.25-.32 12.6 12.6 0 0 0 1.32-.31c.43-.13.87-.29 1.29-.46s.84-.37 1.23-.58a11.22 11.22 0 0 0 1.13-.67h-3.17a5.72 5.72 0 0 0 -.61 0c-.18 0-.37 0-.58.05v-.52l.48.05h.47v-2.64a7.28 7.28 0 0 0 -.05-.89 4.68 4.68 0 0 0 .49.06zm2.74 1.15v-.75h-3.4v.75zm-3.4.33v.8h3.42v-.8zm0 1.17v.84h3.42v-.84z"/><path d="m480.37 331.16c0-.19 0-.35 0-.47a1.86 1.86 0 0 0 -.05-.34h.55.7 1 .23v.33s0 .27 0 .48v1.44h.2.18v1h-.39v-.6h-2.5v.73h-.42v-1.12h.22.27zm.5 6.41h-.48c0-.19 0-.36 0-.5s0-.29 0-.46v-2.09c0-.45 0-.77 0-.95a3.53 3.53 0 0 0 .42 0h1.73.17v.18s0 .16 0 .25 0 .19 0 .28 0 .17 0 .24v2.31a1.39 1.39 0 0 1 0 .32.38.38 0 0 1 -.15.2.85.85 0 0 1 -.3.12 4.41 4.41 0 0 1 -.49 0 1.42 1.42 0 0 0 0-.3.6.6 0 0 0 -.14-.26 1.83 1.83 0 0 0 .38.07.41.41 0 0 0 .21 0 .18.18 0 0 0 .1-.12 1.72 1.72 0 0 0 0-.26v-.6h-1.4zm1.46-6.8h-1.53v1.84h.53v-1.2h1zm-.06 3.86v-.63h-1.4v.64zm-1.4.33v.68h1.4v-.64zm1.46-2.35v-.86h-.6v.86zm2 4.31c-.06-.12-.14-.24-.22-.37a5 5 0 0 0 -.33-.44l.43-.21c.1.15.19.32.3.51l.27.51h.67a3.74 3.74 0 0 0 .24-.37c.06-.1.11-.19.16-.26a1.5 1.5 0 0 0 .11-.22 1 1 0 0 0 .1-.21 1.23 1.23 0 0 0 .47.24c.08 0 .12 0 .12.1s-.05.09-.15.11h-.09l-.12.08-.16.19a3.64 3.64 0 0 0 -.25.31h.9.7v.46h-.42-3.06c-.34 0-.65 0-.92 0v-.46h.73zm3-2.93h-.31-.44-2.5-.86v-.45h.88 2.45.78zm-2.89-3.14c0-.24 0-.42 0-.55a1.49 1.49 0 0 0 0-.33 2.05 2.05 0 0 0 .56.06q.11 0 .12 0s0 .06-.05.1a.43.43 0 0 0 -.09.1.33.33 0 0 0 0 .12 1 1 0 0 0 0 .19 2.27 2.27 0 0 0 0 .28h.68v-.34a1.55 1.55 0 0 0 0-.23c0-.06 0-.12 0-.17a.77.77 0 0 0 0-.15 2.09 2.09 0 0 0 .32.05h.25q.1 0 .12 0s0 .06-.06.1a.42.42 0 0 0 -.13.23 1.84 1.84 0 0 0 0 .47h.69.24.23a4.52 4.52 0 0 0 0 .51v1.59a2.07 2.07 0 0 0 0 .29h-3.81c0-.07 0-.17 0-.29v-1.85a1.93 1.93 0 0 1 0-.24h.23.24.68zm.86 3.51h1.7v.34s0 .28 0 .41 0 .27 0 .41 0 .25 0 .34h-3.53c0-.05 0-.09 0-.13s0-.1 0-.15a1.27 1.27 0 0 0 0-.2v-.28c0-.13 0-.26 0-.41s0-.25 0-.34h1.88zm-.86-3.19h-.73v.67h.73zm0 1h-.73v.71h.73zm2 2.54h-2.6v.8h2.6zm-1.64-2.85h.68v-.67h-.68zm0 1h.68v-.71h-.68zm1.09-1h.73v-.67h-.62zm0 1h.73v-.71h-.62z"/><path d="m489.53 330.24h1.2v6.1h-.61v-5.51h-1z"/><path d="m111.48 317.19h-2.31-.66-.44v-.5q.34 0 1 .06h1.52 2.3 1.52q.67 0 1-.06v.5h-.44-.69-2.28v.57h1.62.44.29v.24.31s0 .2 0 .29v.4.64s0 .44.06.7h-.31-.5-2.93-.77-.48-.29c0-.26 0-.5 0-.7s0-.41 0-.64 0-.46 0-.66 0-.42 0-.66a7.57 7.57 0 0 0 .84.07h1.55zm-.92 3.11.17.2a1.73 1.73 0 0 0 .2.15.21.21 0 0 1 .13.15c0 .06-.06.08-.17.06a.36.36 0 0 0 -.17 0 2.06 2.06 0 0 0 -.33.13l-.66.32-1.14.57a3.27 3.27 0 0 0 -.19-.28 1.13 1.13 0 0 0 -.28-.18 10 10 0 0 0 1.46-.53 4.88 4.88 0 0 0 .98-.59zm2.8-5.27h.92c.27 0 .48 0 .63-.05v.55c-.15 0-.36 0-.63-.05h-.92v1h-3.08-.21v-1h-.93c-.27 0-.48 0-.63.05v-.53l.63.06h.93c0-.26 0-.47 0-.61a2.36 2.36 0 0 0 0-.34 1.69 1.69 0 0 0 .61.06s.07 0 .08 0 0 .07-.07.11a.25.25 0 0 0 -.1.22v.5h2.35v-.38a1.63 1.63 0 0 0 0-.24c0-.07 0-.12 0-.16a.36.36 0 0 0 0-.11h.31.3a.05.05 0 0 1 .07 0s0 .07-.06.11a.28.28 0 0 0 -.08.12.62.62 0 0 0 0 .15zm-1.88 3.09h-1.89v.67h1.89zm0 1h-1.89v.74h1.89zm-1-3.73v.6h2.35v-.6zm1.44 3.36h1.84v-.67h-1.76zm0 1.11h1.84v-.74h-1.76zm2.86 1.93a8.32 8.32 0 0 0 -1-.63 11.24 11.24 0 0 0 -1.15-.54l.24-.36.6.28.55.27.53.26.53.27z"/><path d="m120.1 317.27h-.94-.72v-.41l-.72.46c-.27.17-.57.34-.91.52a1.1 1.1 0 0 0 -.17-.29 1 1 0 0 0 -.3-.22c.32-.12.63-.24.91-.37a7.76 7.76 0 0 0 .81-.45 7.4 7.4 0 0 0 .72-.53 8.13 8.13 0 0 0 .65-.66 7.9 7.9 0 0 0 .54-.71 2.47 2.47 0 0 0 .29-.71 1.25 1.25 0 0 0 .29.23 1 1 0 0 0 .27.1c.05 0 .08 0 .08.08s0 .07-.1.08l-.1.06a.43.43 0 0 0 -.09.1c.3.35.59.65.85.91a7.44 7.44 0 0 0 .82.7 6.68 6.68 0 0 0 .87.55 9 9 0 0 0 1 .47 1 1 0 0 0 -.21.19 1.37 1.37 0 0 0 -.17.28c-.29-.15-.56-.29-.79-.43s-.45-.27-.65-.4v.45h-.73-1v1.13h1.45.58a4.12 4.12 0 0 0 .51 0v.56c-.16 0-.33 0-.51 0h-.58-.66-.79v2.27h1.52 1c.25 0 .49 0 .7-.06v.56h-.68-4.75-.76-.68v-.73a7 7 0 0 0 .71.06h1 1.48v-2.27h-.82-.69-.6c-.18 0-.36 0-.53 0v-.56a4.58 4.58 0 0 0 .53 0h.6 1.51zm-1.1 3.56a6.74 6.74 0 0 0 -.49-.68 6.44 6.44 0 0 0 -.61-.66l.35-.3.32.32.32.34.3.35.26.31zm-.47-4h.37 3 .38a5 5 0 0 1 -.5-.38l-.47-.43-.46-.5c-.16-.17-.33-.37-.51-.58-.13.18-.25.36-.38.53s-.26.33-.4.48-.3.3-.47.44a5.19 5.19 0 0 1 -.53.42zm4.28 2.64c.07 0 .1.06.09.1s-.05.08-.13.1l-.1.05a1 1 0 0 0 -.18.16l-.31.34-.52.62-.43-.28a2.45 2.45 0 0 0 .33-.32 4.16 4.16 0 0 0 .32-.39 3 3 0 0 0 .27-.39 2 2 0 0 0 .16-.34 2 2 0 0 0 .25.21z"/><path d="m127.67 316.74h.56.31v.57a2.32 2.32 0 0 0 -.31 0h-.56-1.36v3.48l1-.41c.34-.14.66-.29 1-.44a1.06 1.06 0 0 0 0 .27 1.38 1.38 0 0 0 .06.26l-.88.34-.83.36-.73.34-.58.3a1.9 1.9 0 0 0 -.31-.6l.36-.11.37-.12v-5.56c0-.21 0-.4 0-.55s0-.3 0-.43a1.8 1.8 0 0 0 .37.05h.31q.15 0 .15.06s0 .08-.12.12a.24.24 0 0 0 -.1.14 1 1 0 0 0 0 .29v1.71zm2 .46.73-.32.56-.27.44-.25.37-.25a3.4 3.4 0 0 0 .2.31 1 1 0 0 0 .19.21c.07.07.09.11.08.15s-.08 0-.17 0h-.18l-.37.12c-.18.06-.41.14-.7.26l-1.15.47v2.82a2.33 2.33 0 0 0 0 .32.27.27 0 0 0 .13.18.75.75 0 0 0 .31.07h.56a3.09 3.09 0 0 0 .58 0 .67.67 0 0 0 .34-.15.59.59 0 0 0 .18-.34 2.24 2.24 0 0 0 .06-.58 1.15 1.15 0 0 0 .3.22.9.9 0 0 0 .33.09 2.77 2.77 0 0 1 -.19.66 1 1 0 0 1 -.31.39 1.29 1.29 0 0 1 -.51.19 5.35 5.35 0 0 1 -.76 0c-.36 0-.65 0-.86 0a1.28 1.28 0 0 1 -.47-.12.45.45 0 0 1 -.2-.28 3.29 3.29 0 0 1 0-.51v-5.5c0-.24 0-.43 0-.58s0-.27 0-.36h.37.32c.07 0 .11 0 .11.05s0 .08-.11.13-.07.08-.09.18a1.51 1.51 0 0 0 0 .32z"/><path d="m134.63 316.69c-.11.23-.22.44-.33.64s-.23.4-.36.6a.75.75 0 0 0 -.24-.21 1.17 1.17 0 0 0 -.26-.1 5.93 5.93 0 0 0 .54-.78c.17-.28.33-.58.48-.89s.27-.63.38-.95a9.68 9.68 0 0 0 .27-.94 1.23 1.23 0 0 0 .26.12 1.47 1.47 0 0 0 .26.05c.1 0 .15 0 .16.06s0 .07-.09.12a.22.22 0 0 0 -.09.08.82.82 0 0 0 -.11.18l-.16.34c-.06.14-.14.33-.23.57v6.28h-.57c0-.24.05-.5.07-.78s0-.57 0-.88zm2.07-1.4h-.51l-.51.05v-.54h.38.36 1.73.36.39v.54h-.39-.35-1a6.5 6.5 0 0 1 -.28 1.46h1.37.35c-.06.49-.12.92-.19 1.3a9.89 9.89 0 0 1 -.24 1 6.36 6.36 0 0 1 -.33.82 4.1 4.1 0 0 1 -.45.69 5.67 5.67 0 0 1 -.59.62c-.22.2-.48.4-.76.62a.71.71 0 0 0 -.2-.26.85.85 0 0 0 -.3-.12 6.42 6.42 0 0 0 1.14-.82 3.74 3.74 0 0 0 .78-1.07c-.19-.19-.38-.38-.58-.55a5.86 5.86 0 0 0 -.6-.45l.29-.39a12.9 12.9 0 0 1 1.08.95 6.85 6.85 0 0 0 .25-.87c.07-.32.13-.66.18-1h-1.34a6.4 6.4 0 0 1 -.37.8 7.32 7.32 0 0 1 -.51.77.82.82 0 0 0 -.48-.29 5.37 5.37 0 0 0 .49-.6 3.82 3.82 0 0 0 .38-.69 5.28 5.28 0 0 0 .26-.82 8.19 8.19 0 0 0 .19-1.15zm4.3-.74a.23.23 0 0 0 -.11.23v6.22a1.37 1.37 0 0 1 0 .39.42.42 0 0 1 -.21.25 1.46 1.46 0 0 1 -.49.17 7.34 7.34 0 0 1 -.87.09 1.15 1.15 0 0 0 0-.2.41.41 0 0 0 0-.16.61.61 0 0 0 -.07-.14 1.53 1.53 0 0 0 -.13-.15 5.74 5.74 0 0 0 .76 0 1.37 1.37 0 0 0 .41-.05.27.27 0 0 0 .18-.14.69.69 0 0 0 0-.22v-5.14c0-.3 0-.58 0-.83s0-.45 0-.56l.3.05a.71.71 0 0 0 .29 0c.08 0 .12 0 .14.07a.1.1 0 0 1 -.2.12zm-1.27 1.45a.26.26 0 0 0 -.09.23v2.49.36.37a3.25 3.25 0 0 0 0 .33h-.59c0-.1 0-.21 0-.33s0-.25 0-.37 0-.25 0-.36 0-.2 0-.29v-1.53c0-.21 0-.43 0-.64s0-.38-.05-.49l.31.06h.28.12s.08.17.02.17z"/><path d="m109.86 336.65c.16-.34.29-.65.4-.93a9.47 9.47 0 0 0 .3-.94l.29.13a1 1 0 0 0 .26.08c.06 0 .09 0 .09.07s0 .07-.09.11a.39.39 0 0 0 -.11.09 1.21 1.21 0 0 0 -.14.22c-.06.1-.13.24-.21.41s-.19.4-.31.68l.57-.11.57-.14a.75.75 0 0 0 0 .26 1.31 1.31 0 0 0 0 .28l-.76.1-.94.15-1 .17c-.31.05-.58.11-.81.16a1.71 1.71 0 0 0 0-.31.83.83 0 0 0 -.11-.29l1-.07zm1.37-5.12h-.32-.34-.39-1-.43-.36-.33v-.6a3.11 3.11 0 0 0 .33 0h.36.43 1 .39.34.32zm-.07 3.11h-.28-1.95c-.21 0-.42 0-.62 0 0-.15 0-.32 0-.5s0-.38 0-.61 0-.44 0-.61 0-.34 0-.51a6.77 6.77 0 0 0 .68 0h1.59.29.29v.51s0 .37 0 .61 0 .44 0 .62-.01.34 0 .49zm-2 1.87a3.07 3.07 0 0 0 -.14-.34 3.78 3.78 0 0 0 -.17-.35l-.19-.34-.2-.29.43-.25c.12.19.26.4.39.65a6.24 6.24 0 0 1 .34.69zm1.53-3.63h-1.77v1.31h1.77zm2.33 4.18a.63.63 0 0 0 -.21.05 1.07 1.07 0 0 0 -.21.13l-.36.29a2.92 2.92 0 0 1 -.29.23l-.29.2-.36.23-.1-.12a.28.28 0 0 0 -.1-.09l-.1-.08-.15-.09a4.63 4.63 0 0 0 .91-.48 4.33 4.33 0 0 0 .85-.78l.22.18.17.1c.1 0 .14.09.14.15s-.09.08-.14.08zm.14-5.6h-.9-.63v-.46h.4.45.53 1.29.5.41.39v.54l-.85-.06h-1.09c0 .12-.06.21-.08.28s0 .14-.06.19a1.46 1.46 0 0 1 -.07.19l-.1.25h.5.51.45.28a3.16 3.16 0 0 0 0 .35v.54 2.39.5a3.68 3.68 0 0 0 0 .39h-.24-2.73-.23c0-.12 0-.25 0-.41v-3.37c0-.16 0-.3 0-.39h.4.59a3.78 3.78 0 0 0 .24-.93zm1.38 1.29h-2.12v.86h2.12zm0 1.25h-2.12v.82h2.12zm0 1.22h-2.12v.8h2.12zm.84 3c-.14-.15-.28-.29-.41-.41s-.25-.24-.38-.34l-.38-.29a4.73 4.73 0 0 0 -.44-.28l.35-.3.44.28.38.28.38.29.42.35z"/><path d="m117.59 330.74h1.2v6.1h-.61v-5.51h-1z"/><path d="m121.5 336.44a.51.51 0 0 1 .87-.36.5.5 0 0 1 .15.37.51.51 0 0 1 -.87.36.51.51 0 0 1 -.15-.37z"/><path d="m124.2 332.15h-.62a2 2 0 0 1 .65-1.16 1.86 1.86 0 0 1 2.38.06 1.42 1.42 0 0 1 .51 1.11 1.4 1.4 0 0 1 -.78 1.25 1.78 1.78 0 0 1 .83.66 1.64 1.64 0 0 1 .29.95 1.85 1.85 0 0 1 -.59 1.39 2 2 0 0 1 -1.49.58 1.91 1.91 0 0 1 -1.31-.45 2.24 2.24 0 0 1 -.69-1.33h.62a1.77 1.77 0 0 0 .5.9 1.61 1.61 0 0 0 2-.1 1.26 1.26 0 0 0 .42-1 1.11 1.11 0 0 0 -.46-.93 2.17 2.17 0 0 0 -1.33-.37v-.56a1.69 1.69 0 0 0 1-.29.85.85 0 0 0 .4-.72.93.93 0 0 0 -.32-.71 1.12 1.12 0 0 0 -.77-.29 1.09 1.09 0 0 0 -.73.24 2 2 0 0 0 -.51.77z"/><path d="m132.26 333.38h-.8v-.81h.8zm0 3.46h-.8v-.84h.8z"/><path d="m139.57 331.29a2.26 2.26 0 0 0 .24-.5 3.06 3.06 0 0 0 .12-.5l.31.09.27.06c.08 0 .12.05.13.11a.12.12 0 0 1 -.09.12.56.56 0 0 0 -.21.18c-.07.08-.16.23-.3.44h2.43.26.22c0 .17 0 .31-.07.44s0 .27 0 .45v2.23a5.46 5.46 0 0 0 .8-.93l.26.21.21.16q.12.06.09.15a.09.09 0 0 1 -.1.09l-.18.06-.25.16-.35.27-.48.42v2.33a1.2 1.2 0 0 1 -.06.4.53.53 0 0 1 -.24.3 1.42 1.42 0 0 1 -.53.18 5.91 5.91 0 0 1 -.94.06 1.27 1.27 0 0 0 -.08-.38.92.92 0 0 0 -.24-.32c.36 0 .64.05.85.05a1.28 1.28 0 0 0 .45-.06.29.29 0 0 0 .2-.19 1.69 1.69 0 0 0 0-.35v-1.56a10.36 10.36 0 0 1 -1 .63c-.39.22-.81.44-1.26.65s-.92.42-1.4.61-1 .38-1.44.54c-.05-.11-.1-.22-.15-.31a3.78 3.78 0 0 0 -.24-.32 13 13 0 0 0 1.31-.31c.44-.13.87-.29 1.29-.46s.84-.37 1.24-.58a12.28 12.28 0 0 0 1.12-.67h-3.16a5.82 5.82 0 0 0 -.62 0c-.18 0-.37 0-.57.05v-.52l.48.05h.46v-2.72a7.4 7.4 0 0 0 -.05-.89 3.12 3.12 0 0 0 .49.06zm2.74 1.15v-.75h-3.4v.75zm-3.4.33v.8h3.4v-.8zm0 1.17v.84h3.4v-.84z"/><path d="m145.71 331.67c0-.2 0-.36 0-.48s0-.23 0-.34h.54.7.77.25.22v.33 1.92h.25.18v1h-.39v-.61h-2.5v.73h-.42v-1.12h.22.28zm.49 6.4h-.48c0-.19 0-.36 0-.5s0-.29 0-.46v-2.11c0-.45 0-.77 0-.95h.42 1.73.18v.18s0 .16 0 .25 0 .19 0 .28v2.56a1.23 1.23 0 0 1 0 .31.38.38 0 0 1 -.15.2.71.71 0 0 1 -.29.12h-.5a1.42 1.42 0 0 0 0-.3.6.6 0 0 0 -.14-.26 1.83 1.83 0 0 0 .38.07.37.37 0 0 0 .22 0 .16.16 0 0 0 .09-.12 1.72 1.72 0 0 0 0-.26v-.64h-1.4zm1.46-6.8h-1.53v1.84h.54v-1.2h1zm-.06 3.86v-.64h-1.4v.64zm-1.4.34v.67h1.4v-.67zm1.46-2.36v-.86h-.6v.86zm2 4.31a3 3 0 0 0 -.22-.37 4.31 4.31 0 0 0 -.32-.44l.42-.21a5.75 5.75 0 0 1 .3.51l.27.51h.67a3.74 3.74 0 0 0 .24-.37l.16-.26a1.64 1.64 0 0 0 .12-.22l.1-.21a1.08 1.08 0 0 0 .46.24c.08 0 .12.06.13.11s-.05.08-.16.1h-.09l-.12.08-.16.19a3.43 3.43 0 0 0 -.24.31h.89.7v.46h-.42-3.12c-.34 0-.65 0-.92 0v-.46h.73zm3-2.92h-.31-.44-2.49l-.87.05v-.45h.88 1.07 1.38.78zm-2.89-3.15c0-.24 0-.42 0-.55a1.57 1.57 0 0 0 0-.33 2.09 2.09 0 0 0 .56.06h.13s0 .06-.06.1a.39.39 0 0 0 -.08.1.34.34 0 0 0 -.06.12v.19a2.27 2.27 0 0 0 0 .28h.68v-.32a1.55 1.55 0 0 0 0-.23.88.88 0 0 0 0-.17.77.77 0 0 0 0-.15 1.39 1.39 0 0 0 .32.05h.25q.1 0 .12 0s0 .06-.06.1a.47.47 0 0 0 -.13.23 1.84 1.84 0 0 0 0 .47h.7.23.23v.52 1.59a2 2 0 0 0 0 .28h-3.6-.33c0-.08 0-.18 0-.3v-1.85c0-.08 0-.16 0-.24h.23.25.67zm.86 3.51h1.65v.34.8.34h-3.53c0-.05 0-.09 0-.13s0-.09 0-.15v-.48c0-.13 0-.26 0-.41s0-.25 0-.34h1.88zm-.86-3.19h-.73v.68h.73zm0 1h-.73v.72h.73zm2 2.54h-2.6v.8h2.6zm-1.64-2.84h.68v-.68h-.68zm0 1h.68v-.72h-.68zm1.09-1h.78v-.68h-.73zm0 1h.78v-.72h-.73z"/><path d="m154.86 330.74h1.2v6.1h-.6v-5.51h-1z"/></g><path d="m271.23 168.97h.75v97.56h-.75z" fill="#231815"/><path d="m271.23 266.96h.75v74.15h-.75z" fill="#231815"/><path d="m240.34 169.52h1.5" fill="none" stroke="#363736" stroke-width=".25"/><path d="m244.88 169.52h41" fill="none" stroke="#363736" stroke-dasharray="3.04 3.04" stroke-width=".25"/><path d="m287.4 169.52h1.5" fill="none" stroke="#363736" stroke-width=".25"/><path d="m240.34 266.5h1.5v.25h-1.5z" fill="#363736"/><path d="m284.36 266.75h-3v-.25h3zm-6.07 0h-3v-.25h3zm-6.08 0h-3v-.25h3zm-6.07 0h-3v-.25h3zm-6.07 0h-3v-.25h3zm-6.08 0h-3v-.25h3zm-6.07 0h-3v-.25h3z" fill="#363736"/><path d="m287.4 266.5h1.5v.25h-1.5z" fill="#363736"/><path d="m240.34 340.99h1.5v.25h-1.5z" fill="#363736"/><path d="m284.36 341.24h-3v-.24h3zm-6.07 0h-3v-.24h3zm-6.08 0h-3v-.24h3zm-6.07 0h-3v-.24h3zm-6.07 0h-3v-.24h3zm-6.08 0h-3v-.24h3zm-6.07 0h-3v-.24h3z" fill="#363736"/><path d="m287.4 340.99h1.5v.25h-1.5z" fill="#363736"/><path d="m286.59 222c.15-.33.29-.64.4-.93s.2-.6.29-.94l.29.14a1.08 1.08 0 0 0 .27.07c.05 0 .08 0 .08.07s0 .07-.08.11a.26.26 0 0 0 -.11.1 1.33 1.33 0 0 0 -.15.22c-.06.1-.13.24-.21.41l-.31.68.58-.12.56-.13a1 1 0 0 0 -.05.25 1.41 1.41 0 0 0 0 .29c-.21 0-.47 0-.77.1l-.94.15-.95.16-.82.16a1.8 1.8 0 0 0 0-.31.77.77 0 0 0 -.1-.28c.35 0 .69 0 1-.08s.68-.05 1.02-.12zm1.36-5.11h-.32-.33-.4-1-.42-.37-.33v-.61h.33.37 1.86.33.32zm-.06 3.11h-.29-.3-1.64-.62c0-.16 0-.32 0-.5s0-.38 0-.62 0-.44 0-.61 0-.34 0-.5l.67.05h1.59.3.29v.51.6s0 .44 0 .62-.01.32 0 .45zm-2 1.87c0-.11-.09-.22-.14-.34l-.18-.36c-.06-.11-.12-.22-.19-.33a1.64 1.64 0 0 0 -.2-.29l.43-.26c.13.19.26.41.4.65s.24.48.34.7zm1.53-3.63h-1.82v1.31h1.78zm2.33 4.18a.63.63 0 0 0 -.22.05.74.74 0 0 0 -.21.13l-.35.29-.29.23-.3.2-.36.23a1.47 1.47 0 0 0 -.1-.13l-.09-.09-.11-.07-.14-.09a4.71 4.71 0 0 0 .91-.49 4.89 4.89 0 0 0 .85-.77l.22.18.17.1c.1 0 .14.09.13.14a.1.1 0 0 1 -.15.11zm.13-5.6q-.49 0-.9 0c-.26 0-.48 0-.63 0v-.55h.41.45 2.31.41.39v.55q-.34 0-.84-.06h-1.1c0 .11-.06.2-.08.28l-.06.19c0 .06 0 .12-.07.19s-.05.15-.09.25h1 .44.29q0 .15 0 .36v3.42.4h-.24-.31-2.12-.31-.22c0-.12 0-.26 0-.42s0-.31 0-.48v-2.38c0-.17 0-.33 0-.5a3.9 3.9 0 0 0 0-.4 2.9 2.9 0 0 0 .39 0h.6a4.26 4.26 0 0 0 .24-.83zm1.39 1.29h-2.17v.89h2.13zm0 1.25h-2.17v.82h2.13zm0 1.21h-2.17v.8h2.13zm.84 3-.41-.42-.38-.33-.39-.3c-.13-.09-.28-.18-.44-.27l.35-.31.44.29.39.27c.12.09.25.19.37.3l.43.35z" fill="#383736"/><path d="m294.31 216.11h1.2v6.11h-.6v-5.51h-1z" fill="#383736"/><path d="m298.22 221.82a.46.46 0 0 1 .16-.36.49.49 0 0 1 .36-.15.47.47 0 0 1 .35.15.49.49 0 0 1 .15.36.5.5 0 0 1 -.15.37.52.52 0 0 1 -.87-.37z" fill="#383736"/><path d="m300.93 217.53h-.62a2 2 0 0 1 .65-1.16 1.85 1.85 0 0 1 2.38 0 1.45 1.45 0 0 1 .51 1.11 1.39 1.39 0 0 1 -.78 1.25 1.88 1.88 0 0 1 .83.66 1.74 1.74 0 0 1 .29 1 1.9 1.9 0 0 1 -.59 1.39 2 2 0 0 1 -1.49.58 1.94 1.94 0 0 1 -1.32-.45 2.27 2.27 0 0 1 -.69-1.33h.6a1.69 1.69 0 0 0 .49.89 1.39 1.39 0 0 0 .95.3 1.45 1.45 0 0 0 1-.39 1.3 1.3 0 0 0 .42-1 1.12 1.12 0 0 0 -.46-.93 2.2 2.2 0 0 0 -1.34-.37v-.57a1.74 1.74 0 0 0 1-.28.89.89 0 0 0 .39-.72.9.9 0 0 0 -.32-.72 1.11 1.11 0 0 0 -.77-.28 1 1 0 0 0 -.72.24 1.82 1.82 0 0 0 -.41.78z" fill="#383736"/><path d="m288.19 301.13a3 3 0 0 0 .23-.49 2.37 2.37 0 0 0 .13-.51l.31.09.27.06c.07 0 .11.05.12.11s0 .09-.08.12a.84.84 0 0 0 -.21.18 5.06 5.06 0 0 0 -.3.44h2.43.26.22c0 .17-.06.31-.07.44s0 .27 0 .45v2.23a4.69 4.69 0 0 0 .8-.93l.27.21.21.16a.14.14 0 0 1 .09.15.09.09 0 0 1 -.1.09l-.18.06-.25.16-.35.28-.49.41v2.33a1.22 1.22 0 0 1 -.05.4.58.58 0 0 1 -.24.3 1.42 1.42 0 0 1 -.53.18 5.91 5.91 0 0 1 -.94.06 1.27 1.27 0 0 0 -.08-.38 1.07 1.07 0 0 0 -.24-.32c.36 0 .64.05.84.05a1.3 1.3 0 0 0 .46-.06.28.28 0 0 0 .19-.19 1.16 1.16 0 0 0 0-.35v-1.56a8.1 8.1 0 0 1 -1 .63c-.38.22-.8.44-1.25.65s-.92.42-1.41.61-1 .38-1.44.54a1.93 1.93 0 0 0 -.39-.63 12.6 12.6 0 0 0 1.32-.31 12.4 12.4 0 0 0 1.29-.46c.43-.18.84-.37 1.23-.58a11.22 11.22 0 0 0 1.13-.67h-3.17-.61l-.58.05v-.52l.48.05h.47v-2.68a7.4 7.4 0 0 0 -.05-.89 3 3 0 0 0 .49.06c.2-.02.45-.02.77-.02zm2.74 1.15v-.75h-3.4v.75zm-3.4.33v.8h3.4v-.8zm0 1.17v.84h3.4v-.84z" fill="#383736"/><path d="m294.32 301.51c0-.2 0-.36 0-.48a1.86 1.86 0 0 0 -.05-.34l.55.05h.69.78.25.22v.33s0 .27 0 .49v1.43h.24.18v1h-.39v-.61h-2.5v.62h-.42v-1.12h.22.27zm.5 6.41h-.48c0-.2 0-.37 0-.51s0-.29 0-.46v-2.09c0-.45 0-.77 0-.95a3.53 3.53 0 0 0 .42 0h1.73.17s0 .11 0 .18 0 .16 0 .26 0 .18 0 .27 0 .17 0 .24v2.32a1.3 1.3 0 0 1 0 .31.45.45 0 0 1 -.15.21.86.86 0 0 1 -.3.11 4.41 4.41 0 0 1 -.49.05 1.42 1.42 0 0 0 0-.3.54.54 0 0 0 -.15-.26l.39.08a.4.4 0 0 0 .21 0 .18.18 0 0 0 .1-.12 1.72 1.72 0 0 0 0-.26v-.64h-1.4zm1.46-6.81h-1.53v1.89h.53v-1.2h1zm-.06 3.86v-.64h-1.4v.67zm-1.4.34v.69h1.4v-.67zm1.46-2.36v-.86h-.61v.91zm2 4.31c-.06-.12-.14-.24-.22-.37s-.2-.28-.33-.44l.43-.21c.1.15.19.32.3.51l.27.51h.67q.15-.21.24-.36a2.76 2.76 0 0 1 .16-.27 2.21 2.21 0 0 0 .11-.21 1.47 1.47 0 0 0 .1-.22 1.27 1.27 0 0 0 .47.25c.08 0 .12.05.12.1s-.05.08-.15.1h-.09l-.12.08-.16.19-.25.31h.9.7v.46h-.42-.48-2.64c-.34 0-.65 0-.92 0v-.46h.73c.3.03.46.03.62.03zm3-2.92h-.31-.44-2.5-.86v-.45h.88 1.06 1.39.78zm-2.89-3.15c0-.24 0-.42 0-.55a1.57 1.57 0 0 0 0-.33 2.05 2.05 0 0 0 .56.06q.1 0 .12 0s0 .06-.05.1a.43.43 0 0 0 -.09.1.33.33 0 0 0 -.05.12 1.11 1.11 0 0 0 0 .19 2.35 2.35 0 0 0 0 .28h.68v-.34a1.62 1.62 0 0 0 0-.23c0-.06 0-.12 0-.17a.77.77 0 0 0 0-.15l.32.06h.12q.09 0 .12 0s0 .06-.06.1a.47.47 0 0 0 -.13.23 1.84 1.84 0 0 0 0 .47h.93.23a4.61 4.61 0 0 0 0 .52v1.59a2.19 2.19 0 0 0 0 .29h-.3-3.19-.34c0-.08 0-.18 0-.3v-1.84c0-.09 0-.17 0-.25h.24.92zm.86 3.51h1.65v.35s0 .27 0 .4 0 .28 0 .42 0 .25 0 .33h-3.5s0-.09 0-.13 0-.09 0-.15a1.21 1.21 0 0 0 0-.2v-.28c0-.13 0-.26 0-.4s0-.26 0-.35h1.88zm-.86-3.18h-.73v.67h.73zm0 1h-.73v.72h.73zm2.05 2.54h-2.6v.8h2.6zm-1.64-2.84h.68v-.67h-.68zm0 1h.68v-.72h-.68zm1.09-1h.73v-.67h-.73zm0 1h.73v-.72h-.73z" fill="#383736"/><path d="m303.48 300.58h1.2v6.1h-.61v-5.5h-1z" fill="#383736"/><path d="m609.88 168.97h.75v97.56h-.75z" fill="#231815"/><path d="m609.88 266.96h.75v74.15h-.75z" fill="#231815"/><path d="m578.99 169.52h1.5" fill="none" stroke="#363736" stroke-width=".25"/><path d="m583.53 169.52h40.99" fill="none" stroke="#363736" stroke-dasharray="3.04 3.04" stroke-width=".25"/><path d="m626.04 169.52h1.5" fill="none" stroke="#363736" stroke-width=".25"/><path d="m578.99 266.5h1.5v.25h-1.5z" fill="#363736"/><path d="m623 266.75h-3v-.25h3zm-6.08 0h-3v-.25h3zm-6.07 0h-3v-.25h3zm-6.08 0h-3v-.25h3zm-6.07 0h-3v-.25h3zm-6.07 0h-3v-.25h3zm-6.07 0h-3v-.25h3z" fill="#363736"/><path d="m626.04 266.5h1.5v.25h-1.5z" fill="#363736"/><path d="m578.99 340.99h1.5v.25h-1.5z" fill="#363736"/><path d="m623 341.24h-3v-.24h3zm-6.08 0h-3v-.24h3zm-6.07 0h-3v-.24h3zm-6.08 0h-3v-.24h3zm-6.07 0h-3v-.24h3zm-6.07 0h-3v-.24h3zm-6.07 0h-3v-.24h3z" fill="#363736"/><path d="m626.04 340.99h1.5v.25h-1.5z" fill="#363736"/><path d="m625.23 222c.16-.33.29-.64.4-.93a8.7 8.7 0 0 0 .3-.94l.29.14a1 1 0 0 0 .26.07c.06 0 .09 0 .09.07s0 .07-.09.11a.47.47 0 0 0 -.11.1.93.93 0 0 0 -.14.22c-.06.1-.13.24-.21.41s-.19.4-.31.68l.57-.12.57-.13a.7.7 0 0 0 -.05.25.94.94 0 0 0 0 .29c-.21 0-.47 0-.77.1l-.94.15-1 .16-.82.16a1.8 1.8 0 0 0 0-.31.78.78 0 0 0 -.11-.28c.35 0 .7 0 1-.08s.74-.05 1.07-.12zm1.37-5.11h-.32-.33-.4-1-.42-.37-.33v-.61h.33.37 1.87.33.32zm-.07 3.11h-.28-.31-1.64-.61c0-.16 0-.32 0-.5s0-.38 0-.62 0-.44 0-.61 0-.34 0-.5l.67.05h1.64.29.29v.51s0 .37 0 .6 0 .44 0 .62-.06.32-.05.45zm-2 1.87a3.07 3.07 0 0 0 -.14-.34c-.05-.12-.11-.24-.17-.36l-.19-.33a2.43 2.43 0 0 0 -.2-.29l.43-.26a7.44 7.44 0 0 1 .39.65 6.33 6.33 0 0 1 .34.7zm1.53-3.63h-1.77v1.31h1.71zm2.33 4.18a.63.63 0 0 0 -.21.05.74.74 0 0 0 -.21.13l-.36.29-.28.23-.3.2-.36.23-.1-.13-.09-.09-.11-.07-.15-.09a4.19 4.19 0 0 0 .91-.49 4.26 4.26 0 0 0 .85-.77l.22.18a1.12 1.12 0 0 0 .18.1c.09 0 .14.09.13.14a.1.1 0 0 1 -.16.11zm.14-5.6q-.5 0-.9 0c-.27 0-.48 0-.63 0v-.55h.4.45 2.32.41.39v.55c-.23 0-.52 0-.84-.06h-1.1c0 .11-.06.2-.08.28l-.06.19c0 .06 0 .12-.07.19s-.06.15-.1.25h1 .44.29a3.25 3.25 0 0 0 0 .36v.54 2.38.5a3.47 3.47 0 0 0 0 .4h-.25-.31-2.11-.31-.23q0-.18 0-.42c0-.15 0-.31 0-.48v-2.38c0-.17 0-.33 0-.5s0-.3 0-.4h.4.6a4.26 4.26 0 0 0 .25-.83zm1.38 1.29h-2.12v.89h2.12zm0 1.25h-2.12v.82h2.12zm0 1.21h-2.12v.8h2.12zm.85 3q-.22-.24-.42-.42a3.9 3.9 0 0 0 -.38-.33c-.12-.11-.25-.2-.38-.3l-.44-.27.35-.31.44.29.38.27c.13.09.25.19.38.3l.42.35z" fill="#383736"/><path d="m633 216.11h1.2v6.11h-.61v-5.51h-1z" fill="#383736"/><path d="m636.87 221.82a.51.51 0 0 1 1 0 .5.5 0 0 1 -.15.37.49.49 0 0 1 -.36.15.46.46 0 0 1 -.36-.16.49.49 0 0 1 -.13-.36z" fill="#383736"/><path d="m639.57 217.53h-.57a2.07 2.07 0 0 1 .65-1.16 1.76 1.76 0 0 1 1.18-.41 1.72 1.72 0 0 1 1.2.46 1.46 1.46 0 0 1 .52 1.11 1.4 1.4 0 0 1 -.79 1.25 1.78 1.78 0 0 1 .83.66 1.68 1.68 0 0 1 .3 1 1.9 1.9 0 0 1 -.59 1.39 2.06 2.06 0 0 1 -1.5.58 1.91 1.91 0 0 1 -1.31-.45 2.27 2.27 0 0 1 -.69-1.33h.59a1.77 1.77 0 0 0 .5.89 1.37 1.37 0 0 0 .95.3 1.45 1.45 0 0 0 1-.39 1.32 1.32 0 0 0 .41-1 1.09 1.09 0 0 0 -.46-.93 2.17 2.17 0 0 0 -1.33-.37v-.57a1.69 1.69 0 0 0 1-.28.87.87 0 0 0 .4-.72.93.93 0 0 0 -.32-.72 1.11 1.11 0 0 0 -.77-.28 1.09 1.09 0 0 0 -.73.24 1.93 1.93 0 0 0 -.47.73z" fill="#383736"/><path d="m626.83 301.13a2.43 2.43 0 0 0 .24-.49 4.71 4.71 0 0 0 .13-.51l.31.09.27.06c.07 0 .11.05.12.11s0 .09-.08.12a.7.7 0 0 0 -.21.18 5.06 5.06 0 0 0 -.3.44h2.42.27.22a2.82 2.82 0 0 0 -.07.44v.45 2.23a5 5 0 0 0 .8-.93l.27.21.21.16a.14.14 0 0 1 .09.15.1.1 0 0 1 -.1.09l-.18.06-.25.16a3.27 3.27 0 0 0 -.35.28l-.49.41v2.33a1.56 1.56 0 0 1 0 .4.58.58 0 0 1 -.24.3 1.41 1.41 0 0 1 -.54.18 5.82 5.82 0 0 1 -.94.06 1.27 1.27 0 0 0 -.08-.38 1 1 0 0 0 -.23-.32c.36 0 .64.05.84.05a1.34 1.34 0 0 0 .46-.06.28.28 0 0 0 .19-.19 1.16 1.16 0 0 0 0-.35v-1.56a8.1 8.1 0 0 1 -1 .63c-.39.22-.81.44-1.26.65s-.91.42-1.4.61-1 .38-1.44.54a3 3 0 0 0 -.15-.31 1.76 1.76 0 0 0 -.24-.32 12.42 12.42 0 0 0 1.31-.31 12.57 12.57 0 0 0 1.3-.46c.42-.18.83-.37 1.23-.58a11.05 11.05 0 0 0 1.04-.75h-3.16-.61l-.58.05v-.52l.48.05h.46v-2.68a5.78 5.78 0 0 0 0-.89 3.12 3.12 0 0 0 .49.06c.18.06.44.06.75.06zm2.75 1.15v-.75h-3.4v.75zm-3.4.33v.8h3.4v-.8zm0 1.17v.84h3.4v-.84z" fill="#383736"/><path d="m633 301.51c0-.2 0-.36 0-.48s0-.23-.05-.34c.14 0 .32 0 .55.05h.69.78.24.22v.33s0 .27 0 .49v1.43h.26.17v1h-.39v-.61h-2.5v.62h-.41v-1.12h.22.22zm.49 6.41h-.49c0-.2 0-.37 0-.51s0-.29 0-.46v-2.09c0-.45 0-.77 0-.95h.43 1.73.17a1.41 1.41 0 0 1 0 .18v.26s0 .18 0 .27v2.56a.9.9 0 0 1 0 .31.38.38 0 0 1 -.14.21.86.86 0 0 1 -.3.11 4.64 4.64 0 0 1 -.5.05 1 1 0 0 0 0-.3.51.51 0 0 0 -.14-.26 3.38 3.38 0 0 0 .39.08.42.42 0 0 0 .21 0 .14.14 0 0 0 .09-.12.93.93 0 0 0 0-.26v-.64h-1.41zm1.47-6.81h-1.56v1.89h.53v-1.2h1zm-.06 3.86v-.64h-1.41v.67zm-1.41.34v.69h1.41v-.67zm1.47-2.36v-.86h-.61v.91zm2 4.31c-.07-.12-.14-.24-.23-.37a4.31 4.31 0 0 0 -.32-.44l.43-.21c.09.15.19.32.29.51s.2.35.28.51h.67l.23-.36.17-.27.11-.21.1-.22a1.27 1.27 0 0 0 .47.25c.08 0 .12.05.12.1s0 .08-.16.1h-.09a.33.33 0 0 0 -.11.08l-.17.19-.24.31h.89.71v.46h-.43-.47-2.65c-.34 0-.64 0-.91 0v-.46h.72c.24.03.44.03.63.03zm3-2.92h-.32-.44-2.49-.87v-.45h.88 1.07 1.39.78zm-2.89-3.15c0-.24 0-.42 0-.55a2.71 2.71 0 0 0 0-.33 2 2 0 0 0 .56.06q.1 0 .12 0s0 .06-.05.1a.28.28 0 0 0 -.09.1.33.33 0 0 0 0 .12v.19.28h.67v-.57c0-.06 0-.12 0-.17a.8.8 0 0 0 0-.15l.33.06h.24q.11 0 .12 0s0 .06-.06.1a.46.46 0 0 0 -.12.23 1.75 1.75 0 0 0 -.05.47h.93.24a4.67 4.67 0 0 0 0 .52v1.25.34a2.19 2.19 0 0 0 0 .29h-.3-3.18-.34a2.63 2.63 0 0 0 0-.3c0-.12 0-.23 0-.32v-1.25a2.1 2.1 0 0 0 0-.27 2 2 0 0 0 0-.25h.24.92zm.86 3.51h1.64a3 3 0 0 0 0 .35v.4s0 .28 0 .42a2.63 2.63 0 0 0 0 .33h-3.52s0-.09 0-.13a.61.61 0 0 0 0-.15 1.21 1.21 0 0 0 0-.2v-.28c0-.13 0-.26 0-.4s0-.26 0-.35h1.88zm-.86-3.18h-.73v.67h.73zm0 1h-.73v.72h.73zm2 2.54h-2.61v.8h2.61zm-1.64-2.84h.67v-.67h-.67zm0 1h.67v-.72h-.67zm1.08-1h.73v-.67h-.73zm0 1h.73v-.72h-.73z" fill="#383736"/><path d="m642.12 300.58h1.2v6.1h-.6v-5.5h-1z" fill="#383736"/></svg>