<svg viewBox="0 0 777.93 490.27" xmlns="http://www.w3.org/2000/svg"><path d="m0 0h777.93v490.27h-777.93z" fill="#fff"/><path d="m84.4 102.83c-1.65-13 2.3-25.32 9.48-35.91s17.29-18.61 31.13-20c2.85-.29 5.58-.86 8.47-.88a49.88 49.88 0 0 1 16.72 2.76 40 40 0 0 1 6.92 3.2c5.43 3.19 8.39 5.46 12.26 10.78a88.1 88.1 0 0 1 10.1 17.69c4.26 10.16 4.28 25.58-.67 35.75-2.67 5.5-7.63 10.07-12.18 13.77" fill="#fff"/><path d="m166.76 130.19-.26-.32c4.21-3.42 9.39-8.08 12.12-13.7 4.78-9.81 5.06-25.11.67-35.58a88.84 88.84 0 0 0 -10.08-17.65c-3.88-5.32-6.89-7.61-12.2-10.72a39.65 39.65 0 0 0 -6.88-3.22 49.67 49.67 0 0 0 -16.41-2.76h-.24a41.93 41.93 0 0 0 -5.54.51c-1 .13-1.93.27-2.91.37-12.44 1.25-22.86 8-31 19.92-7.7 11.36-11 23.73-9.45 35.77h-.41c-1.54-12.14 1.76-24.61 9.52-36 8.21-12.07 18.73-18.81 31.31-20.11 1-.09 2-.23 2.89-.36a42.52 42.52 0 0 1 5.6-.52h.24a50 50 0 0 1 16.55 2.79 39.37 39.37 0 0 1 6.95 3.25c5.36 3.14 8.41 5.45 12.32 10.84a88.9 88.9 0 0 1 10.13 17.73c4.44 10.57 4.15 26-.67 35.92-2.78 5.7-8.01 10.39-12.25 13.84z" fill="#fff"/><path d="m137.48 44.81a1.38 1.38 0 0 0 .45.32c-.36-.12.84-.51.87-.52.58-.06 1.25.63 1.73.84 1.27.56 5 1.9 5.58 3.37-.13-.35-9.74.66-10.25.72-3.73.44-8.46.74-11.91-.73-.36-.15-3.87 0-3.83-.43s4.35-1.76 4.66-1.89a44 44 0 0 0 4.91-2.44c1.47-.87 1.92-.53 3.4.11.38.16-1.26-1.58-.72-1.37.38.14-.1-.12.58-.63s3.44 1.61 4.53 2.65z" fill="#fff"/><path d="m130.52 50.11a17.24 17.24 0 0 1 -6.66-1.11 11.65 11.65 0 0 0 -1.3-.08c-1.73-.06-2.38-.12-2.58-.35a.27.27 0 0 1 -.07-.21c0-.26.43-.53 4.09-1.81l.7-.25a43.51 43.51 0 0 0 4.88-2.43 2.65 2.65 0 0 1 3-.15c-.48-.63-.64-.85-.5-1a.25.25 0 0 1 .27-.09 1.12 1.12 0 0 1 .45-.58c1.11-.82 4.77 2.63 4.8 2.67a1.29 1.29 0 0 0 .18.16 3.22 3.22 0 0 1 1-.41 2.12 2.12 0 0 1 1.33.54 3 3 0 0 0 .5.31l.69.29c1.68.69 4.48 1.85 5 3.17l-.2.08-.1.14c-.58-.2-8.62.59-10.12.77a47.4 47.4 0 0 1 -5.36.34zm-10.05-1.76a16.17 16.17 0 0 0 2.1.15 6 6 0 0 1 1.46.12c3.43 1.47 8.11 1.15 11.8.71.26 0 2.8-.3 5.28-.51 2.73-.24 4-.29 4.61-.28-.78-1-3.21-2-4.57-2.61l-.7-.29a3.72 3.72 0 0 1 -.58-.35 1.92 1.92 0 0 0 -1-.47 3.49 3.49 0 0 0 -.79.34.14.14 0 0 0 0-.13.14.14 0 0 0 -.07-.1l-.13.39a1.37 1.37 0 0 1 -.51-.35c-1.62-1.54-3.8-3-4.27-2.63-.3.23-.31.37-.32.44a.25.25 0 0 1 -.11.22c.1.15.23.32.33.44.39.52.51.67.38.84a.25.25 0 0 1 -.3.06l-.37-.17c-1.2-.52-1.6-.69-2.85 0a41.93 41.93 0 0 1 -4.93 2.45l-.72.26c-.86.34-3.07 1.12-3.74 1.47z" fill="#fff"/><path d="m101 130.05a41.9 41.9 0 0 1 -11.12-11.7 38.34 38.34 0 0 1 -5.39-15l-.06-.52c-1.65-13 2.3-25.32 9.48-35.91a59.41 59.41 0 0 1 4-5.18 9.23 9.23 0 0 1 -2.64-7.51 9.39 9.39 0 0 1 10.12-8.23 8.86 8.86 0 0 1 7.4 4.17 38.49 38.49 0 0 1 10-3c1-.36 1.89-.66 2-.72a44 44 0 0 0 4.91-2.44c1.47-.87 1.92-.53 3.4.11.38.16-1.26-1.58-.72-1.37.38.14-.1-.12.58-.63s3.44 1.61 4.53 2.65a1.38 1.38 0 0 0 .45.32c-.36-.12.84-.51.87-.52.58-.06 1.25.63 1.73.84a37.33 37.33 0 0 1 3.8 1.74 48.93 48.93 0 0 1 5.87 1.61 40.8 40.8 0 0 1 6.57 3.05 10.16 10.16 0 1 1 14.55 13.79 86.46 86.46 0 0 1 8.16 14.87c4.26 10.16 4.28 25.58-.67 35.75-2.67 5.5-7.63 10.07-12.18 13.77a47.77 47.77 0 0 1 -23 9.71c-14.06 2.18-30.56-.96-42.64-9.65z" fill="#fff"/><path d="m134.87 140.89c-12.34 0-24.85-3.73-34.19-10.44a42.2 42.2 0 0 1 -11.25-11.83 38.94 38.94 0 0 1 -5.43-15.2l-.07-.52c-1.54-12.22 1.76-24.75 9.56-36.26 1.15-1.68 2.39-3.32 3.69-4.88a9.75 9.75 0 0 1 -2.46-7.59 9.93 9.93 0 0 1 10.74-8.67 9.58 9.58 0 0 1 7.56 4 39 39 0 0 1 9.7-2.83l1.21-.44.68-.24a41.35 41.35 0 0 0 4.85-2.41 2.84 2.84 0 0 1 2.41-.5.57.57 0 0 1 0-.64.61.61 0 0 1 .3-.2 1.7 1.7 0 0 1 .48-.52c1.24-.94 4.53 2.07 5.17 2.68a3.32 3.32 0 0 1 .91-.33 2.33 2.33 0 0 1 1.53.59 3.55 3.55 0 0 0 .46.28l.68.29a27.53 27.53 0 0 1 3.1 1.44 47 47 0 0 1 5.86 1.61 39.82 39.82 0 0 1 6.25 2.87 10.66 10.66 0 1 1 15.39 14.59 86.73 86.73 0 0 1 7.95 14.58c4.46 10.63 4.17 26.18-.68 36.16-2.8 5.75-8 10.47-12.32 13.94a48.24 48.24 0 0 1 -23.25 9.82 58.81 58.81 0 0 1 -8.83.65zm-30.18-94.41a8.9 8.9 0 0 0 -9 7.8 8.74 8.74 0 0 0 2.5 7.11.52.52 0 0 1 0 .68 59.4 59.4 0 0 0 -3.92 5.13c-7.66 11.3-10.91 23.6-9.4 35.57l.07.51a37.77 37.77 0 0 0 5.32 14.8 41 41 0 0 0 11 11.56c11.37 8.17 27.57 11.85 42.27 9.61a47.29 47.29 0 0 0 22.77-9.6c4.19-3.41 9.34-8 12.05-13.61 4.74-9.75 5-24.94.66-35.33a85.75 85.75 0 0 0 -8.12-14.79.49.49 0 0 1 .12-.68 9.66 9.66 0 1 0 -13.84-13.11.49.49 0 0 1 -.66.16 39.25 39.25 0 0 0 -6.49-3 46.51 46.51 0 0 0 -5.81-1.59h-.14a24.88 24.88 0 0 0 -3.07-1.5l-.69-.29a5 5 0 0 1 -.62-.38 2 2 0 0 0 -.85-.42l-.46.19a.49.49 0 0 1 -.62.3 1.58 1.58 0 0 1 -.62-.42c-1.54-1.46-3.47-2.75-3.92-2.61a.55.55 0 0 0 -.19.2.63.63 0 0 1 -.03.23l.19.25c.43.57.65.85.38 1.2a.59.59 0 0 1 -.64.15l-.38-.17c-1.18-.51-1.46-.63-2.58 0a43.25 43.25 0 0 1 -4.97 2.57l-.74.27c-.37.12-.83.28-1.31.46a38.45 38.45 0 0 0 -9.93 3 .49.49 0 0 1 -.64-.21 8.37 8.37 0 0 0 -7-3.92c-.25-.12-.47-.12-.69-.12z" fill="#221714"/><path d="m135.31 99.59a4.17 4.17 0 0 0 2.38-.8 2 2 0 0 0 0-3.26c-1.44-.87-3.77-.41-5.36-.38a16.32 16.32 0 0 0 -4.47.36c-1.48.48.64 3.27 1.54 3.87a7.28 7.28 0 0 0 8.19-.44c1.88-1.46 1.63-3.6-1-3.73" fill="#211512"/><path d="m136.37 109.71a4.23 4.23 0 0 1 -2-.48s-2.5-1.6-2.44-3l.26-6.28a.81.81 0 0 1 .86-.79.83.83 0 0 1 .79.86s-.26 6.16-.27 6.27a5.66 5.66 0 0 0 1.6 1.55 3.13 3.13 0 0 0 2.26.12 2.22 2.22 0 0 0 1.41-1 .83.83 0 0 1 1.46.77 3.84 3.84 0 0 1 -2.39 1.82 5.26 5.26 0 0 1 -1.54.16z" fill="#211512"/><path d="m128.7 109.45a3.56 3.56 0 0 1 -3.83-2.82.83.83 0 1 1 1.6-.41c.34 1.32 1.12 1.7 3.09 1.53 1.43-.13 2.43-1.91 2.44-1.93a.81.81 0 0 1 1.11-.33.84.84 0 0 1 .34 1.12c-.06.1-1.42 2.57-3.74 2.78-.27.02-.62.06-1.01.06z" fill="#211512"/><path d="m137.08 108.63c0 .1-.09.21-.14.31a4.87 4.87 0 0 1 -6.66 2.25 4.38 4.38 0 0 1 -1.89-1.66 7.94 7.94 0 0 1 -.81-1.55 7.5 7.5 0 0 0 3.08-.16 9 9 0 0 1 2.09-.57c1.57 0 2.95.87 4.37 1.21-.44.77-.45 1.64-1.39 2.3a4.27 4.27 0 0 1 -3.42.48" fill="#211512"/><path d="m144.18 90.72a3.18 3.18 0 1 0 2.42-3.79 3.2 3.2 0 0 0 -2.42 3.79z" fill="#140509"/><path d="m145.82 89a1.08 1.08 0 0 0 2.05.68 1.08 1.08 0 0 0 -2.05-.68z" fill="#fff"/><path d="m116.53 89.87a3.18 3.18 0 1 0 2.36-3.87 3.18 3.18 0 0 0 -2.36 3.87z" fill="#140509"/><path d="m118.15 88.1a1.08 1.08 0 1 0 1.35-.71 1.07 1.07 0 0 0 -1.35.71z" fill="#fff"/><path d="m297 255.47c1.64-13-2.3-25.32-9.48-35.91s-17.3-18.62-31.13-20c-2.85-.29-5.59-.87-8.48-.88a49.68 49.68 0 0 0 -16.72 2.77 40.57 40.57 0 0 0 -6.91 3.23c-5.44 3.2-8.39 5.47-12.26 10.79a88.1 88.1 0 0 0 -10.1 17.69c-4.27 10.16-4.28 25.57.67 35.75 2.67 5.5 7.62 10.06 12.18 13.77" fill="#fff"/><path d="m214.6 282.83c-4.25-3.45-9.47-8.14-12.24-13.84-4.82-9.91-5.11-25.36-.67-35.92a88.42 88.42 0 0 1 10.12-17.74c3.92-5.38 7-7.69 12.32-10.83a40.59 40.59 0 0 1 7-3.26 50.8 50.8 0 0 1 16.78-2.78 42.36 42.36 0 0 1 5.6.52c.94.13 1.92.26 2.9.36 12.57 1.27 23.09 8 31.28 20.1 7.76 11.45 11.05 23.91 9.51 36.06l-.41-.06c1.53-12-1.74-24.4-9.45-35.76-8.11-12-18.53-18.67-31-19.93-1-.1-2-.23-2.91-.36a41.62 41.62 0 0 0 -5.54-.51h-.24a49.93 49.93 0 0 0 -16.41 2.75 40.76 40.76 0 0 0 -6.88 3.22c-5.3 3.12-8.32 5.4-12.19 10.73a88.28 88.28 0 0 0 -10.08 17.65c-4.4 10.47-4.11 25.76.66 35.58 2.74 5.62 7.92 10.27 12.13 13.7z" fill="#fff"/><path d="m243.88 197.44a1.25 1.25 0 0 1 -.45.32c.35-.11-.84-.51-.88-.51-.57-.07-1.24.62-1.72.84-1.27.55-5 1.9-5.59 3.36.13-.35 9.75.67 10.26.73 3.73.44 8.46.74 11.91-.73.36-.16 3.86 0 3.83-.43s-4.36-1.76-4.67-1.9a43 43 0 0 1 -4.9-2.44c-1.47-.87-1.92-.52-3.41.11-.37.16 1.27-1.57.72-1.37-.38.15.11-.11-.57-.62s-3.41 1.61-4.53 2.64z" fill="#fff"/><path d="m250.83 202.75a45 45 0 0 1 -5.35-.37c-1.4-.16-9.55-1-10.12-.76l-.06-.14-.25-.1c.51-1.33 3.32-2.48 5-3.18l.68-.28a5.38 5.38 0 0 0 .51-.31 2.21 2.21 0 0 1 1.32-.55 3.47 3.47 0 0 1 1 .42l.17-.16.16.14-.15-.15s3.7-3.49 4.8-2.66a1.1 1.1 0 0 1 .46.58.25.25 0 0 1 .26.08c.15.2 0 .42-.49 1.05a2.63 2.63 0 0 1 3 .15 41.26 41.26 0 0 0 4.89 2.42c.06 0 .33.13.69.25 3.66 1.29 4.07 1.55 4.1 1.82a.28.28 0 0 1 -.08.21c-.19.22-.84.28-2.57.34a11.32 11.32 0 0 0 -1.31.09 17.21 17.21 0 0 1 -6.66 1.11zm-14.91-1.58c.69 0 2 .08 4.33.28s5 .49 5.27.52c3.7.44 8.37.75 11.81-.71a5.87 5.87 0 0 1 1.45-.12 18 18 0 0 0 2.1-.15c-.66-.36-2.88-1.14-3.66-1.41l-.73-.26a44.4 44.4 0 0 1 -4.93-2.46c-1.24-.74-1.65-.56-2.84 0l-.38.16a.21.21 0 0 1 -.29-.06c-.13-.16 0-.32.38-.83l.32-.44a.25.25 0 0 1 -.11-.22c0-.08 0-.22-.33-.45-.47-.36-2.64 1.1-4.26 2.63l-.14-.15.12.17a1.46 1.46 0 0 1 -.5.35l-.12-.39s-.06 0-.08.1a.16.16 0 0 0 0 .13 4 4 0 0 0 -.81-.35 2.24 2.24 0 0 0 -1 .48 3.66 3.66 0 0 1 -.57.35l-.7.29c-1.36.56-3.79 1.56-4.58 2.61z" fill="#fff"/><path d="m280.38 282.68a41.58 41.58 0 0 0 11.12-11.68 38.22 38.22 0 0 0 5.39-15c0-.17.05-.34.07-.51 1.64-13-2.3-25.32-9.48-35.91a59.41 59.41 0 0 0 -4-5.18 9.24 9.24 0 0 0 2.64-7.52 9.4 9.4 0 0 0 -10.12-8.24 8.89 8.89 0 0 0 -7.4 4.17 38.77 38.77 0 0 0 -10-3c-1-.35-1.88-.66-2-.72a43 43 0 0 1 -4.9-2.44c-1.47-.87-1.92-.52-3.41.11-.37.16 1.27-1.57.72-1.37-.38.15.11-.11-.57-.62s-3.44 1.61-4.53 2.64a1.25 1.25 0 0 1 -.45.32c.35-.11-.84-.51-.88-.51-.57-.07-1.24.62-1.72.84a36.36 36.36 0 0 0 -3.8 1.74 47.77 47.77 0 0 0 -5.88 1.61 39.42 39.42 0 0 0 -6.56 3.05 10.16 10.16 0 1 0 -14.62 13.81 85.58 85.58 0 0 0 -8.16 14.88c-4.27 10.16-4.28 25.57.67 35.75 2.67 5.5 7.62 10.06 12.18 13.77a47.79 47.79 0 0 0 23 9.71c14.09 2.14 30.59-1 42.69-9.7z" fill="#fff"/><path d="m246.48 293.53a58.68 58.68 0 0 1 -8.81-.66 48.23 48.23 0 0 1 -23.26-9.81c-4.26-3.47-9.52-8.2-12.31-13.94-4.86-10-5.15-25.53-.68-36.16a87 87 0 0 1 7.94-14.58 10.66 10.66 0 1 1 15.37-14.55 40.34 40.34 0 0 1 6.27-2.83 45.56 45.56 0 0 1 5.86-1.61 28.72 28.72 0 0 1 3.1-1.45l.67-.28a2.46 2.46 0 0 0 .46-.29 2.46 2.46 0 0 1 1.53-.59 3.67 3.67 0 0 1 .91.34c.65-.62 3.92-3.63 5.18-2.69a1.52 1.52 0 0 1 .48.53.46.46 0 0 1 .3.19.54.54 0 0 1 0 .63 2.87 2.87 0 0 1 2.41.5 43 43 0 0 0 4.85 2.42l.68.24 1.31.46a38.79 38.79 0 0 1 9.61 2.81 9.55 9.55 0 0 1 7.56-4 9.92 9.92 0 0 1 10.74 8.67 9.73 9.73 0 0 1 -2.47 7.59 60 60 0 0 1 3.69 4.88c7.8 11.5 11.11 24 9.56 36.25l-.06.52a38.88 38.88 0 0 1 -5.46 15.2 42.14 42.14 0 0 1 -11.26 11.84c-9.31 6.63-21.83 10.37-34.17 10.37zm-30.31-93a9.07 9.07 0 0 0 -1 .06 9.67 9.67 0 0 0 -8.58 10.64 9.57 9.57 0 0 0 3.79 6.67.5.5 0 0 1 .11.68 86.42 86.42 0 0 0 -8.11 14.79c-4.37 10.4-4.09 25.59.66 35.34 2.7 5.57 7.86 10.19 12 13.6a47.33 47.33 0 0 0 22.78 9.6c14.7 2.24 30.9-1.43 42.27-9.6a41.24 41.24 0 0 0 11-11.56 38 38 0 0 0 5.32-14.81l.06-.5c1.52-12-1.73-24.27-9.4-35.57a60.51 60.51 0 0 0 -3.91-5.14.49.49 0 0 1 0-.67 8.75 8.75 0 0 0 2.5-7.11 8.91 8.91 0 0 0 -9.67-7.78 8.33 8.33 0 0 0 -7 3.92.51.51 0 0 1 -.64.21 37.72 37.72 0 0 0 -9.85-2.93l-1.4-.49c-.38-.14-.66-.23-.73-.27a42.62 42.62 0 0 1 -5-2.47c-1.11-.66-1.39-.54-2.57 0l-.38.16a.56.56 0 0 1 -.64-.15c-.27-.34-.06-.63.38-1.19l.18-.25a.68.68 0 0 1 -.07-.23s0-.1-.2-.23c-.43-.11-2.36 1.16-3.89 2.6a1.78 1.78 0 0 1 -.64.44.48.48 0 0 1 -.62-.31l-.53-.2c-.16 0-.51.25-.78.44a4.37 4.37 0 0 1 -.62.37l-.7.3a27 27 0 0 0 -3.05 1.42.47.47 0 0 1 -.15.06 46.51 46.51 0 0 0 -5.81 1.59 39.92 39.92 0 0 0 -6.48 3 .5.5 0 0 1 -.67-.15 9.63 9.63 0 0 0 -7.96-4.31z" fill="#221714"/><path d="m246.05 252.22a4.08 4.08 0 0 1 -2.38-.8 2 2 0 0 1 0-3.25c1.45-.87 3.77-.41 5.36-.38a16 16 0 0 1 4.48.36c1.48.48-.64 3.27-1.55 3.87a7.26 7.26 0 0 1 -8.18-.44c-1.88-1.46-1.63-3.6.95-3.74" fill="#211512"/><path d="m237.17 243.36a3.18 3.18 0 1 1 -2.42-3.8 3.18 3.18 0 0 1 2.42 3.8z" fill="#140509"/><path d="m235.53 241.61a1.08 1.08 0 0 1 -2 .69 1.08 1.08 0 1 1 2-.69z" fill="#fff"/><path d="m264.82 242.51a3.18 3.18 0 1 1 -2.36-3.84 3.19 3.19 0 0 1 2.36 3.84z" fill="#140509"/><path d="m263.21 240.73a1.07 1.07 0 0 1 -.7 1.35 1.08 1.08 0 1 1 .7-1.35z" fill="#fff"/><path d="m197.43 105.05c5.06 37.38 57.74 47.87 83.26 26.75 4.56-3.78 9.52-8.43 12.18-14 4.9-10.31 4.76-25.87.36-36.09a88.79 88.79 0 0 0 -10.35-17.78c-3.95-5.34-6.95-7.6-12.47-10.78a40.33 40.33 0 0 0 -7-3.21 50.35 50.35 0 0 0 -16.9-2.65c-2.92 0-5.67.65-8.55 1-14 1.53-24 9.62-31.25 20.48s-11.05 23.17-9.28 36.28zm42.57-60.87c-.62.59-.11.79-.5.69-.57-.13 1.28 1.41.88 1.29-1.56-.46-2-.75-3.42.31a44.41 44.41 0 0 1 -4.62 3c-.3.17-.62.41-.61.75s.46.6.84.71a21.86 21.86 0 0 0 11.24.25c.5-.12 7.27-3.07 7.44-2.74-.72-1.4-1.92-1.52-3.26-1.93-.51-.15-1.26-.76-1.83-.62 0 0-1.18.55-.81.62a1.32 1.32 0 0 1 -.49-.27c-1.21-.87-4.17-2.72-4.86-2.06z" fill="#221714"/><path d="m220 47.24a6.73 6.73 0 0 0 -2.41 2.33 4.86 4.86 0 0 0 -.32 3.38c1 4.2 4.83 6.16 8.87 4.07a4.55 4.55 0 0 0 1.61-1.27 5.75 5.75 0 0 0 1-3.17 7.13 7.13 0 0 0 -.46-3.58c-1-2.16-4.15-2.86-6.32-2.65a4.31 4.31 0 0 0 -1.83.78z" fill="#221714"/><path d="m256 44.33a6.73 6.73 0 0 0 -2.41 2.33 4.89 4.89 0 0 0 -.32 3.39c1 4.2 4.83 6.15 8.87 4.07a4.88 4.88 0 0 0 1.61-1.27 5.88 5.88 0 0 0 1-3.17 7.17 7.17 0 0 0 -.47-3.59c-1-2.15-4.14-2.85-6.31-2.64a4.19 4.19 0 0 0 -1.83.78z" fill="#221714"/><path d="m243.92 87.29c9.63-.85 25.07 2.46 25.76 14.5.49 8.5-8.71 15.33-16 17a31.67 31.67 0 0 1 -6.93.78s-24.52.23-22.1-18c-.04.08 3.88-12.92 19.27-14.28z" fill="#fff"/><path d="m253.21 92.26c-1.74-.28-10.27-.05-12 .55s.86 3.81 1.94 4.49c2.33 1.46 5.88 1.74 8.05-.21 1-.87 3.8-4.53 2.01-4.83z" fill="#221714"/><path d="m252.34 103a8.44 8.44 0 0 1 -9.72.4c-.81-.54-1.57.78-.76 1.31a10 10 0 0 0 11.55-.64.76.76 0 0 0 -1.07-1.07z" fill="#14050a"/><path d="m247.19 105.56a42.64 42.64 0 0 1 -.19-12.26l.8.11a41.7 41.7 0 0 0 .17 12z" fill="#221714"/><path d="m234.25 84.39c-.61 2.32-2.46 3.84-4.13 3.4s-2.51-2.68-1.89-5 2.46-3.84 4.13-3.4 2.51 2.68 1.89 5z" fill="#fff"/><path d="m265.61 80.48c.74 2.28 0 4.57-1.63 5.1s-3.56-.9-4.3-3.19 0-4.56 1.63-5.09 3.56.89 4.3 3.18z" fill="#fff"/><path d="m233.11 83.72c-1.19.36-2.79.84-3.76-.23-.35-.39-.93.19-.57.57 1.19 1.31 3.07.89 4.54.44.5-.15.29-.94-.21-.78z" fill="#221714"/><path d="m264.78 80.81a5.54 5.54 0 0 1 -4.11 1 .4.4 0 0 0 -.49.28.39.39 0 0 0 .28.49 6.33 6.33 0 0 0 4.72-1.08.42.42 0 0 0 .15-.55.4.4 0 0 0 -.55-.15z" fill="#221714"/><path d="m84.25 16c.16-.34.3-.65.4-.93a9.47 9.47 0 0 0 .3-.94l.29.13a1.08 1.08 0 0 0 .26.08c.06 0 .09 0 .09.07s0 .07-.09.11a.39.39 0 0 0 -.11.09 2.22 2.22 0 0 0 -.14.22c-.06.1-.13.24-.21.41s-.19.4-.31.68l.57-.11.57-.14a.75.75 0 0 0 -.05.26 1.34 1.34 0 0 0 0 .28l-.77.1-.94.15-1 .17c-.32 0-.59.11-.82.16a1.71 1.71 0 0 0 0-.31.68.68 0 0 0 -.11-.29l1-.07zm1.37-5.12h-.32-.33-.4-1-.42-.37-.33v-.6h.33.37.42 1 .4.33.32zm-.07 3.12h-.28-2a5.93 5.93 0 0 0 -.61 0c0-.15 0-.32 0-.5s0-.38 0-.61 0-.44 0-.61 0-.34 0-.51a6.34 6.34 0 0 0 .67 0h1.67.3.28v.51s0 .37 0 .61 0 .44 0 .62-.04.37-.03.49zm-2 1.87a3.07 3.07 0 0 0 -.14-.34 3.78 3.78 0 0 0 -.17-.35c-.06-.12-.13-.23-.19-.34s-.13-.2-.2-.29l.43-.25a6.19 6.19 0 0 1 .39.65 6.24 6.24 0 0 1 .34.69zm1.45-3.6h-1.73v1.31h1.73zm2.33 4.18a.63.63 0 0 0 -.21.05 1.07 1.07 0 0 0 -.21.13l-.35.29c-.1.09-.2.16-.29.23l-.3.2-.36.23-.1-.12a.38.38 0 0 0 -.09-.09l-.11-.08-.14-.09a4.85 4.85 0 0 0 .9-.48 4.67 4.67 0 0 0 .86-.78 1.09 1.09 0 0 0 .22.18.62.62 0 0 0 .17.1c.09 0 .14.09.13.15s-.01.08-.08.08zm.14-5.6h-.9-.63v-.54h.4.45.53 1.29.5.41.39v.54l-.84-.06h-1.1c0 .12-.06.21-.08.28s0 .14-.06.19a1.46 1.46 0 0 1 -.07.19c0 .07-.06.15-.1.25h.51.51.44.29v.35s0 .32 0 .54v2.41.5s0 .29 0 .39h-.25-.3-2.08-.31-.23c0-.12 0-.26 0-.41s0-.32 0-.48v-2.44c0-.16 0-.33 0-.5s0-.3 0-.39h.4.6a4.26 4.26 0 0 0 .27-.82zm1.39 1.29h-2.09v.86h2.13zm0 1.25h-2.09v.82h2.13zm0 1.22h-2.09v.8h2.13zm.84 3-.42-.41a3.81 3.81 0 0 0 -.37-.34l-.39-.29a3.7 3.7 0 0 0 -.44-.28l.35-.3.44.28.38.28.38.29.42.35z" fill="#383736"/><path d="m92.06 10.87h-.76c-.19 0-.36 0-.53.06v-.57l.58.07h.82.83.3.27v.57l-.44-.06h-.56v5.47a1.42 1.42 0 0 1 0 .39.46.46 0 0 1 -.19.25 1.4 1.4 0 0 1 -.42.17 7.06 7.06 0 0 1 -.74.1 1.23 1.23 0 0 0 0-.35 1 1 0 0 0 -.17-.34 5.86 5.86 0 0 0 .61.05 1 1 0 0 0 .33 0 .2.2 0 0 0 .15-.13.81.81 0 0 0 0-.25zm3.44 5.56a.32.32 0 0 0 -.2 0 1.07 1.07 0 0 0 -.22.14 3.48 3.48 0 0 1 -.31.2l-.44.25-.51.26-.5.23-.08-.13a.76.76 0 0 0 -.08-.11l-.11-.1-.14-.14a4.07 4.07 0 0 0 1.1-.37 4.3 4.3 0 0 0 1.11-.76 2.53 2.53 0 0 0 .2.22 1 1 0 0 0 .19.12.11.11 0 0 1 0 .1s.02.09-.01.09zm0-5.55h-1.37-.32v-.53h.39.45 2.7.47.4v.65h-.38-.44-1.35a1.59 1.59 0 0 0 -.07.2 1.42 1.42 0 0 0 -.07.22l-.06.27c0 .09 0 .21-.08.34h1.37.42.3a2.41 2.41 0 0 0 0 .31v2.66.89h-.26-.35-2.61-.35-.25c0-.07 0-.18 0-.32s0-.33 0-.57v-2.27c0-.16 0-.33 0-.5s0-.3 0-.39h.18.23.33.5a3.65 3.65 0 0 0 .17-.55 3.41 3.41 0 0 0 .09-.41zm1.8 1.43h-2.73v.81h2.77zm0 1.18h-2.73v.82h2.77zm0 1.22h-2.73v.77h2.77zm.88 2.78-.41-.34a5.29 5.29 0 0 0 -.84-.53l-.56-.27.28-.4.51.28.45.26.43.26.46.3z" fill="#383736"/><path d="m102.78 16.19v-5.72c0-.12 0-.22 0-.31a.66.66 0 0 0 0-.21.75.75 0 0 0 0-.16l.35.05h.37c.07 0 .1 0 .11.05s0 .07-.07.11a.23.23 0 0 0 -.11.22v6h2.22v-3.58c0-.2 0-.36 0-.51a2.7 2.7 0 0 0 -.06-.41h.2.15.3.16s0 .07-.1.13a.17.17 0 0 0 -.07.1.59.59 0 0 0 0 .17v4.41.42s0 .26 0 .37h-.62c0-.11 0-.24 0-.38s0-.27 0-.39h-5v.77h-.61a.86.86 0 0 0 0-.16 1.15 1.15 0 0 0 0-.19c0-.08 0-.17 0-.27v-4.11c0-.15 0-.31 0-.49s0-.32 0-.42l.33.05h.29c.15 0 .22 0 .23.09s0 .12-.18.21a.35.35 0 0 0 -.08.27v3.87z" fill="#383736"/><path d="m109 10.88h-.49a2.42 2.42 0 0 0 -.41 0v-.56c.23 0 .52 0 .87.06h2.35c.35 0 .64 0 .87-.06v.56a2.67 2.67 0 0 0 -.44 0 4.18 4.18 0 0 0 -.51 0v2.42h.65.25.28v.57h-.26-.26-.66v2.13.72s0 .49.06.74h-.66c0-.25 0-.5.06-.73s0-.48 0-.73v-2.25h-1.23c0 .41 0 .79-.07 1.13a6.84 6.84 0 0 1 -.18 1 5.44 5.44 0 0 1 -.3.86 5.55 5.55 0 0 1 -.43.79 1 1 0 0 0 -.25-.21 1.35 1.35 0 0 0 -.34-.12 2.86 2.86 0 0 0 .8-1.38 8.12 8.12 0 0 0 .26-2.05h-.65-.53v-.57h.27.95zm.51 0v2.42h1.23v-2.43zm5.84 3.91c.08 0 .12.06.11.11s0 .08-.13.11a.8.8 0 0 0 -.23.16c-.09.09-.22.23-.38.42a6.17 6.17 0 0 1 -1.19 1 7.7 7.7 0 0 1 -1.52.76.91.91 0 0 0 -.17-.23 1.59 1.59 0 0 0 -.29-.24 5.56 5.56 0 0 0 2.12-1 4.1 4.1 0 0 0 1.21-1.52 1.09 1.09 0 0 0 .24.24.89.89 0 0 0 .24.18zm-.27-4.36a.62.62 0 0 0 -.28.13 1.58 1.58 0 0 0 -.3.28l-.41.43-.4.38-.43.36c-.15.12-.31.24-.49.36a1 1 0 0 0 -.2-.2 1.11 1.11 0 0 0 -.29-.16 5.09 5.09 0 0 0 1.45-1 5.15 5.15 0 0 0 .84-1.18 2.53 2.53 0 0 0 .26.23 3 3 0 0 0 .26.16c.08 0 .12.09.12.13s-.04.06-.12.07zm.1 2.41a.73.73 0 0 0 -.25.1 2.83 2.83 0 0 0 -.33.27l-.52.47-.43.36a3.91 3.91 0 0 1 -.41.3l-.49.32a1.66 1.66 0 0 0 -.46-.4 8.13 8.13 0 0 0 .84-.46 4.32 4.32 0 0 0 .66-.48 5 5 0 0 0 .51-.52 4.07 4.07 0 0 0 .4-.59 3.28 3.28 0 0 0 .25.26 2 2 0 0 0 .25.19q.09.06.09.12s-.03.05-.1.05z" fill="#383736"/><path d="m117.38 15.47c0 .11 0 .24-.09.38a4.43 4.43 0 0 1 -.14.44l-.18.44-.2.42-.52-.19a2.82 2.82 0 0 0 .27-.4c.07-.14.14-.26.19-.39a2.64 2.64 0 0 0 .12-.4c0-.13.07-.28.1-.43zm-.7-3.09a9.65 9.65 0 0 0 .73-1.24c.23-.45.45-.92.66-1.39a1.59 1.59 0 0 0 .31.17 1.24 1.24 0 0 0 .26.1c.1 0 .16.07.15.12s-.07.1-.2.17a.36.36 0 0 0 -.12.11c0 .06-.13.17-.23.32s-.24.35-.4.61-.38.6-.63 1h1.2c.13-.2.25-.38.35-.55a2.15 2.15 0 0 0 .24-.48c.09.06.17.13.27.19l.23.13c.09 0 .14.08.14.13s-.06.09-.16.12-.07 0-.13.09-.17.18-.31.35l-.59.71-1 1.21.85-.1.7-.15-.16-.21-.19-.25.39-.28.22.29q.1.13.21.3l.22.34.24.42-.46.25-.11-.24a1.24 1.24 0 0 0 -.1-.2l-1.63.26-.43.08-.6.14a.92.92 0 0 0 0-.29 1.24 1.24 0 0 0 -.13-.3h.21.21c.15-.17.34-.4.56-.68s.45-.58.68-.9l-.94.08-.31.05-.27.08a1.69 1.69 0 0 0 -.1-.27 1.06 1.06 0 0 0 -.16-.23h.18zm1.58 4.29c0-.12-.05-.23-.07-.32l-.09-.26c0-.09-.07-.17-.11-.26l-.17-.3.42-.18.16.27c0 .08.1.16.14.24s.08.17.12.27.08.2.12.31zm1.95-4.59h-.25-.22v-.6c.26 0 .56.05.88.06h1.23 1.22.48.41v.6h-.37-.41a7.71 7.71 0 0 1 -.29 1.75 6.84 6.84 0 0 1 -.79 1.73 5.13 5.13 0 0 0 1 .88 3.93 3.93 0 0 0 1 .47.69.69 0 0 0 -.3.22 1.63 1.63 0 0 0 -.21.34 5.31 5.31 0 0 1 -.46-.31c-.15-.11-.31-.24-.46-.37a5.92 5.92 0 0 1 -.45-.41c-.15-.14-.28-.27-.41-.41a6 6 0 0 1 -1 .85 9.84 9.84 0 0 1 -1.47.88 1.22 1.22 0 0 0 -.43-.5 7.49 7.49 0 0 0 1.37-.66 5.26 5.26 0 0 0 1.18-1 6.3 6.3 0 0 1 -.69-1.47 13.17 13.17 0 0 1 -.56-2.05zm-.63 4.23c-.06-.14-.12-.25-.16-.34a2.8 2.8 0 0 0 -.14-.25 1.07 1.07 0 0 0 -.15-.22l-.2-.24.35-.25.24.29a1.88 1.88 0 0 1 .18.24c.06.08.11.16.16.24l.16.28zm1.13-4.25a8.92 8.92 0 0 0 .21.94c.09.32.19.63.29.91s.2.53.3.75.19.37.25.48a3.26 3.26 0 0 0 .33-.59 6.36 6.36 0 0 0 .27-.74c.07-.27.13-.55.18-.85a8.85 8.85 0 0 0 .1-.9h-1zm1.07-.62a6.84 6.84 0 0 0 -.47-.75 3.94 3.94 0 0 0 -.59-.65l.38-.33q.33.31.6.63c.17.22.36.47.55.76z" fill="#383736"/><path d="m126.94 13.84h.77.12v.49h-.12-.77v1.68l.4-.11.31-.08.28-.08.32-.08a1.12 1.12 0 0 0 0 .24.64.64 0 0 0 .05.23c-.24.05-.51.12-.83.21l-1 .27-.9.26-.64.21a1.33 1.33 0 0 0 -.08-.33 1.07 1.07 0 0 0 -.19-.28h.34.34v-1.9c0-.19 0-.38 0-.56a3.54 3.54 0 0 0 -.06-.45h.32.28.1s0 0 0 .08a.36.36 0 0 0 -.08.12 1 1 0 0 0 0 .16v2.26l.21-.06h.16.15.17v-3.4h-.65-.49c0-.14 0-.33 0-.57s0-.45 0-.68 0-.43 0-.65 0-.4 0-.54h.56.74.73.56v.31s0 .2 0 .29v.59.67s0 .42 0 .58h-.41-.55zm.45-3.12h-1.54v1.57h1.54zm2.89 1.91a3.54 3.54 0 0 0 .53-.68 5.87 5.87 0 0 0 .43-.87h-2c-.14.26-.28.49-.4.68l-.4.57a1 1 0 0 0 -.2-.18 1.35 1.35 0 0 0 -.24-.15 4.54 4.54 0 0 0 .82-1.07 3.62 3.62 0 0 0 .42-1.22 1.4 1.4 0 0 0 .27.11l.32.08c.08 0 .12 0 .13.09s0 .09-.13.12a.44.44 0 0 0 -.12.12 2.94 2.94 0 0 0 -.24.41h1 .88a3.35 3.35 0 0 0 .62-.08 15 15 0 0 1 -.71 1.36 5.6 5.6 0 0 1 -.71 1 4.93 4.93 0 0 0 .91.48 9.08 9.08 0 0 0 1.11.36 1.29 1.29 0 0 0 -.2.25 1 1 0 0 0 -.13.28 12.56 12.56 0 0 1 -1.15-.56 5.78 5.78 0 0 1 -.82-.52 4.2 4.2 0 0 1 -.92.61 9.44 9.44 0 0 1 -1.23.5.44.44 0 0 0 -.09-.26 1 1 0 0 0 -.23-.19 5.64 5.64 0 0 0 1.2-.39 4 4 0 0 0 .92-.55c-.16-.14-.31-.29-.47-.46s-.33-.35-.51-.57l.33-.25c.16.21.32.39.47.56s.38.28.54.42zm-1.09 4.86h-.55c0-.14 0-.27 0-.38s0-.24 0-.38v-2a1.93 1.93 0 0 0 0-.26.69.69 0 0 0 0-.2h3.13a.88.88 0 0 0 0 .17 2.11 2.11 0 0 0 0 .29v2 .39s0 .24 0 .38h-.55v-.66h-2.06zm2.06-2.79h-2.06v1.65h2.06z" fill="#383736"/><path d="m136 11.15h-1.32c-.39 0-.73 0-1 .05v-.59h.47.52 5.32q.57 0 1-.06v.59c-.3 0-.64 0-1-.05h-1.32-.79l-.17.34a3.24 3.24 0 0 1 -.17.32v4.44.65s0 .4.06.62h-.67c0-.23 0-.43.06-.63s0-.41 0-.64v-3.6a5.37 5.37 0 0 1 -.56.7 8.48 8.48 0 0 1 -.68.64 10.22 10.22 0 0 1 -.84.64c-.31.21-.65.44-1 .68a.86.86 0 0 0 -.19-.31 2 2 0 0 0 -.3-.24c.51-.26 1-.52 1.37-.78a7.72 7.72 0 0 0 1.07-.82 6 6 0 0 0 .83-.92 6.73 6.73 0 0 0 .62-1.09zm4.45 4.22a15 15 0 0 0 -1.1-1.26 17.21 17.21 0 0 0 -1.3-1.19l.41-.4c.54.45 1 .88 1.41 1.27s.74.78 1 1.14z" fill="#383736"/><path d="m143.38 10.89h-.84-.38-.29v-.58h.31.56.71.79 2.93.77.69.53.29v.69h-.26-.36-.41-.42v5.5a2.11 2.11 0 0 1 0 .5.56.56 0 0 1 -.24.31 1.39 1.39 0 0 1 -.52.16 6.78 6.78 0 0 1 -.92.07.9.9 0 0 0 0-.36 1.31 1.31 0 0 0 -.21-.33 6 6 0 0 0 .72.08 1.05 1.05 0 0 0 .43-.05.4.4 0 0 0 .22-.2.74.74 0 0 0 .07-.34v-5.45zm.15 4.9h-.59a3.87 3.87 0 0 0 .05-.56c0-.17 0-.36 0-.55v-2c0-.16 0-.28 0-.38v-.29h.23 2.66.21a2.17 2.17 0 0 0 0 .26v2.3.56a5.28 5.28 0 0 0 0 .55h-.57v-.68h-2zm2-3.32h-2v2.12h2z" fill="#383736"/><path d="m152.77 11.64h.8a4.22 4.22 0 0 0 .6 0v.56h-.6c-.25 0-.51 0-.8 0v.66q.38.29.72.6c.24.21.49.45.76.73l-.44.37a6.65 6.65 0 0 0 -.51-.65 5.71 5.71 0 0 0 -.53-.56v2.65.74s0 .54.07.81h-.67c0-.13 0-.26 0-.38v-.36c0-.12 0-.25 0-.38v-3.22a9.36 9.36 0 0 1 -.6 1.4 7.35 7.35 0 0 1 -.75 1.17 1.18 1.18 0 0 0 -.25-.25.89.89 0 0 0 -.29-.15 5 5 0 0 0 .57-.62 7.66 7.66 0 0 0 .54-.78 9.64 9.64 0 0 0 .45-.91 5.75 5.75 0 0 0 .33-1h-.45-.44-.38-.28v-.56a4.22 4.22 0 0 0 .6 0h1v-.61c0-.2 0-.37 0-.52s0-.26 0-.35a2.45 2.45 0 0 1 0-.27 1.65 1.65 0 0 0 .32.08h.31q.3 0 .06.21a.56.56 0 0 0 -.15.29zm2.23 5.91h-.57c0-.2 0-.39.05-.57s0-.38 0-.59v-4.72c0-.33 0-.58 0-.76s0-.32 0-.45l.61.06h1.15 1.16a5.15 5.15 0 0 0 .58-.06v.54s0 .45 0 .67v4.66.61s0 .38 0 .52h-.56v-.73h-2.42zm2.37-5.11v-1.44h-2.37v1.49zm-2.37.4v1.5h2.37v-1.5zm0 3.46h2.37v-1.56h-2.37z" fill="#383736"/><path d="m160.73 13c0 .45 0 .88-.07 1.27a7.42 7.42 0 0 1 -.21 1.12 6.56 6.56 0 0 1 -.35 1 8.51 8.51 0 0 1 -.53 1 1.32 1.32 0 0 0 -.57-.39 4.13 4.13 0 0 0 1-1.77 8.94 8.94 0 0 0 .28-2.34v-.64c0-.21 0-.42 0-.62s0-.4 0-.58 0-.36 0-.51h2s1.07 0 1.5-.06a8.58 8.58 0 0 0 1.1-.14 3.13 3.13 0 0 0 .74-.22 2 2 0 0 0 .41.61c.08.07.1.13.08.17s-.08 0-.18 0a2.23 2.23 0 0 0 -.45 0 6.53 6.53 0 0 0 -.81 0l-1.1.07-1.09.06h-.94-.64v1.42h3 1.84a8.59 8.59 0 0 1 -.83 1.92 6.1 6.1 0 0 1 -1.13 1.42 4.67 4.67 0 0 0 1.32.66 7.17 7.17 0 0 0 1.46.32.9.9 0 0 0 -.23.27 1.57 1.57 0 0 0 -.19.39 11.61 11.61 0 0 1 -1.55-.54 6.39 6.39 0 0 1 -1.22-.74 8.68 8.68 0 0 1 -1.12.74 11.6 11.6 0 0 1 -1.32.6 1.18 1.18 0 0 0 -.19-.32.89.89 0 0 0 -.3-.22 9.84 9.84 0 0 0 1.39-.47 6.16 6.16 0 0 0 1.16-.66 4 4 0 0 1 -.46-.59 6.82 6.82 0 0 1 -.42-.7q-.19-.37-.36-.78a8.39 8.39 0 0 1 -.29-.79zm1.07 0a5.65 5.65 0 0 0 .24.73 5.42 5.42 0 0 0 .32.69 7.36 7.36 0 0 0 .4.62 5.27 5.27 0 0 0 .45.48 5.55 5.55 0 0 0 1.59-2.52z" fill="#383736"/><path d="m171.6 13.84a1.2 1.2 0 0 1 -.88 1.34v-.38a.61.61 0 0 0 .38-.26 1.39 1.39 0 0 0 .11-.63h-.49v-.91h.88z" fill="#383736"/><path d="m179 11.62h-.29-.38-.44-.44c-.29 0-.57 0-.84 0a5.1 5.1 0 0 0 -.66 0v-.52h.66.84.88.38.29zm-.2 1.1h-.55-1.76-.25v-.49h.58 1.42.56zm-.07 1.11h-.55-.69-.7-.55v-.51a4 4 0 0 0 .55 0h.7.67a4.45 4.45 0 0 0 .57 0zm-1.92 3.59h-.55v-.55c0-.18 0-.34 0-.48v-1.13a7.94 7.94 0 0 0 0-.86h.54.68.71.52a2.73 2.73 0 0 0 0 .32v.55 1.09.43s0 .3 0 .4h-.53v-.55h-1.39zm.59-6.4-.2-.31a2.13 2.13 0 0 0 -.16-.25l-.18-.2-.22-.22.4-.29.2.23.16.2.17.25c.07.09.15.2.24.34zm.8 3.85h-1.39v1.35h1.39zm2.71-3.79h-1-.36-.36v-.53h.36.36 1c0-.14 0-.3 0-.45s0-.27 0-.35h.3.34.12s0 .07-.06.11a.42.42 0 0 0 -.12.33v.28h1 .34.35v.53h-.35-.34-1v.63h1.2.33v.46h-.33-.33-.87v.61h1.1.46.48v.47h-.5-.48-2.54-.46-.49v-.47h.44.42 1.06v-.61h-.85-.7v-.46h.7.85zm-.91 6.47h-.57c0-.23 0-.44.06-.65s0-.4 0-.57v-2.33c0-.17 0-.31 0-.43h.41 2.58.41v.52s0 .33 0 .48v2.23a.88.88 0 0 1 -.06.35.41.41 0 0 1 -.2.19 1.14 1.14 0 0 1 -.38.08 5 5 0 0 1 -.59 0 2.36 2.36 0 0 0 0-.28.88.88 0 0 0 -.11-.29l.45.08a.56.56 0 0 0 .26 0 .19.19 0 0 0 .12-.11.49.49 0 0 0 0-.2v-.6h-2.38zm2.32-3.49h-2.32v.59h2.32zm0 1h-2.32v.63h2.32z" fill="#383736"/><path d="m185.17 11a4.83 4.83 0 0 0 0-.62 6.73 6.73 0 0 0 1.29-.12 4.26 4.26 0 0 0 1.04-.26l.19.25a1.8 1.8 0 0 0 .2.18c.06.06.08.1.06.13s-.06.05-.14.05h-.37l-.51.07h-.31l-.34.05h-.34-.29v1.94l.78-.34.71-.36-.26-.35a3.45 3.45 0 0 0 -.23-.28l.35-.26.33.42c.11.13.2.26.29.38l.27.38c.09.13.18.26.27.41l-.42.26-.17-.3-.19-.3c-.18.07-.38.17-.59.27s-.43.21-.64.32l-.6.32-.47.27a1.89 1.89 0 0 0 -.11-.25 1 1 0 0 0 -.21-.25l.24-.01.21-.08zm.86 6.51h-.54v-.25c0-.07 0-.15 0-.22v-.24c0-.1 0-.21 0-.35v-1.89a5.83 5.83 0 0 0 -.05-.79l1.12.05h3.44c.47 0 .84 0 1.13-.05a4.29 4.29 0 0 0 0 .79v1.82.6a3.87 3.87 0 0 0 .05.49h-.55v-.47h-4.63zm2-2.32v-1h-2v1zm-2 .38v1h2v-1zm3.26-4.77h-.74-.51v-.49h.26 2.6.65l-.2 2a2.82 2.82 0 0 1 -.12.56.75.75 0 0 1 -.22.34 1 1 0 0 1 -.42.19 4.85 4.85 0 0 1 -.7.09.72.72 0 0 0 0-.28 1.24 1.24 0 0 0 -.2-.28 4.54 4.54 0 0 0 .61 0 .66.66 0 0 0 .35-.1.45.45 0 0 0 .17-.25 1.74 1.74 0 0 0 .08-.41l.15-1.47h-1.25a6.17 6.17 0 0 1 -.13 1 2.59 2.59 0 0 1 -.77 1.36 5.47 5.47 0 0 1 -.74.6.57.57 0 0 0 -.12-.23.75.75 0 0 0 -.28-.21 3.6 3.6 0 0 0 .71-.43 2.45 2.45 0 0 0 .48-.54 2.35 2.35 0 0 0 .27-.67 4.28 4.28 0 0 0 .07-.75zm1.34 4.39v-1h-2.1v1zm-2.1.38v1h2.1v-1z" fill="#383736"/><path d="m197.33 12a5.09 5.09 0 0 0 .34-.53 1.79 1.79 0 0 0 .17-.45h-3.26-.43-.52v-.47h.55 2.29a2.75 2.75 0 0 0 -.23-.33l-.35-.37.43-.28c.16.2.28.37.38.52s.19.3.28.46h2.11.55v.47h-.79-.93a1 1 0 0 0 .26.15.62.62 0 0 0 .24.08c.05 0 .07 0 .07.07s0 0-.07.07a.59.59 0 0 0 -.25.18c-.08.09-.19.23-.34.43h2.08.47v.48h-.51-.7-1-3-1-.71-.5v-.48h.47.57.63.65a2.11 2.11 0 0 0 -.21-.31l-.33-.38.35-.24a2.35 2.35 0 0 1 .22.26l.17.21.17.22.17.24zm-2.89 3.66-.27.51-.24.43c-.07.13-.15.26-.23.38l-.27.37-.51-.27a9.92 9.92 0 0 0 .61-.79 5.37 5.37 0 0 0 .45-.86zm4.73-.56h-.41-.47-3.29-.49-.4a.74.74 0 0 0 .06-.23c0-.1 0-.21 0-.32v-1.29c0-.11 0-.22 0-.34a.91.91 0 0 0 -.06-.25h.4 4.24.4a.85.85 0 0 0 -.07.25v.34 1.27.32a.7.7 0 0 0 .09.23zm-.59-1.37v-.62h-3.89v.62zm-3.89.36v.61h3.89v-.61zm4.19 2.18a3.51 3.51 0 0 1 -.17.56.87.87 0 0 1 -.18.32.63.63 0 0 1 -.27.16l-.42.06c-.41 0-.79 0-1.14 0s-.66 0-.95 0a3.39 3.39 0 0 1 -.44-.05.45.45 0 0 1 -.23-.11.35.35 0 0 1 -.08-.21 1.57 1.57 0 0 1 0-.33v-.8c0-.14 0-.24 0-.31a.84.84 0 0 0 0-.18h.29a1.38 1.38 0 0 0 .28 0h.13s0 .09-.07.14a.51.51 0 0 0 -.09.13.63.63 0 0 0 0 .16v.71a.32.32 0 0 0 .12.25.62.62 0 0 0 .33.12h.51.76.37l.38-.06a.41.41 0 0 0 .22-.13.66.66 0 0 0 .13-.28 4.36 4.36 0 0 0 .06-.49l.28.17a1.51 1.51 0 0 0 .18.15zm-1.75.21-.18-.28-.2-.24-.22-.23-.28-.24.35-.32.53.52c.14.14.28.3.44.48zm2.87.52a6.14 6.14 0 0 0 -.55-.71 6.72 6.72 0 0 0 -.76-.72l.35-.35c.35.31.63.57.84.79a8.1 8.1 0 0 1 .56.65z" fill="#383736"/><path d="m202.38 15.47c0 .11 0 .24-.09.38a4.43 4.43 0 0 1 -.14.44l-.18.44-.2.42-.52-.19a2.82 2.82 0 0 0 .27-.4c.07-.14.14-.26.19-.39a2.64 2.64 0 0 0 .12-.4c0-.13.07-.28.1-.43zm-.7-3.09a9.65 9.65 0 0 0 .73-1.24c.23-.45.45-.92.66-1.39a1.59 1.59 0 0 0 .31.17 1.24 1.24 0 0 0 .26.1c.1 0 .16.07.15.12s-.07.1-.2.17a.36.36 0 0 0 -.12.11c-.05.06-.13.17-.23.32s-.24.35-.4.61-.38.6-.63 1h1.2c.13-.2.25-.38.35-.55a2.15 2.15 0 0 0 .24-.48c.09.06.17.13.27.19l.23.13c.09 0 .14.08.14.13s-.06.09-.16.12-.07 0-.13.09-.17.18-.31.35l-.59.71-.95 1.21.85-.1.65-.15-.16-.21-.19-.25.39-.28.22.29.21.3.22.34.24.42-.46.25-.11-.24a1.24 1.24 0 0 0 -.1-.2l-1.63.26-.43.08-.6.14a.92.92 0 0 0 0-.29 1.24 1.24 0 0 0 -.13-.3h.21.21c.15-.17.34-.4.56-.68s.45-.58.68-.9l-.94.08-.31.05-.27.08a1.69 1.69 0 0 0 -.1-.27 1.06 1.06 0 0 0 -.16-.23h.18zm1.58 4.29c0-.12 0-.23-.07-.32l-.09-.26c0-.09-.07-.17-.11-.26l-.17-.3.42-.18.16.27c0 .08.1.16.14.24s.08.17.12.27.08.2.12.31zm2-4.59h-.25-.22v-.6c.26 0 .56.05.88.06h1.23 1.22.48.41v.6h-.37-.41a7.71 7.71 0 0 1 -.29 1.75 6.84 6.84 0 0 1 -.79 1.73 5.13 5.13 0 0 0 1 .88 3.93 3.93 0 0 0 1 .47.69.69 0 0 0 -.3.22 1.63 1.63 0 0 0 -.21.34 5.31 5.31 0 0 1 -.46-.31c-.15-.11-.31-.24-.46-.37a5.92 5.92 0 0 1 -.45-.41c-.15-.14-.28-.27-.41-.41a6 6 0 0 1 -1 .85 9.84 9.84 0 0 1 -1.47.88 1.22 1.22 0 0 0 -.43-.5 7.49 7.49 0 0 0 1.37-.66 5.26 5.26 0 0 0 1.18-1 6.3 6.3 0 0 1 -.69-1.47 13.17 13.17 0 0 1 -.61-2.05zm-.63 4.23c-.06-.14-.12-.25-.16-.34a2.8 2.8 0 0 0 -.14-.25 1.07 1.07 0 0 0 -.15-.22l-.2-.24.35-.25.24.29a1.88 1.88 0 0 1 .18.24l.16.24c0 .08.1.17.16.28zm1.13-4.25a8.92 8.92 0 0 0 .21.94c.09.32.19.63.29.91s.2.53.3.75.19.37.25.48a3.26 3.26 0 0 0 .33-.59 6.36 6.36 0 0 0 .27-.74c.07-.27.13-.55.18-.85a8.85 8.85 0 0 0 .1-.9h-1zm1.07-.62a6.84 6.84 0 0 0 -.47-.75 3.94 3.94 0 0 0 -.59-.65l.38-.33q.33.31.6.63c.17.22.36.47.55.76z" fill="#383736"/><path d="m211.94 13.84h.77.12v.49h-.12-.77v1.68l.4-.11.31-.08.28-.08.32-.08a1.12 1.12 0 0 0 0 .24.64.64 0 0 0 .05.23c-.24.05-.51.12-.83.21l-1 .27-.9.26-.64.21a1.33 1.33 0 0 0 -.08-.33 1.07 1.07 0 0 0 -.19-.28h.34.34v-1.9c0-.19 0-.38 0-.56a3.54 3.54 0 0 0 -.06-.45h.32.28.1s0 0 0 .08a.36.36 0 0 0 -.08.12 1 1 0 0 0 0 .16v2.26l.21-.06h.16.15.17v-3.4h-.65-.49c0-.14 0-.33 0-.57s0-.45 0-.68 0-.43 0-.65 0-.4 0-.54h.56.74.73.56v.31s0 .2 0 .29v.59.67s0 .42 0 .58h-.41-.55zm.45-3.12h-1.54v1.57h1.54zm2.89 1.91a3.54 3.54 0 0 0 .53-.68 5.87 5.87 0 0 0 .43-.87h-2c-.14.26-.28.49-.4.68l-.4.57a1 1 0 0 0 -.2-.18 1.35 1.35 0 0 0 -.24-.15 4.54 4.54 0 0 0 .82-1.07 3.62 3.62 0 0 0 .42-1.22 1.4 1.4 0 0 0 .27.11l.32.08c.08 0 .12 0 .13.09s0 .09-.13.12a.44.44 0 0 0 -.12.12 2.94 2.94 0 0 0 -.24.41h1 .88a3.35 3.35 0 0 0 .62-.08 15 15 0 0 1 -.71 1.36 5.6 5.6 0 0 1 -.71 1 4.93 4.93 0 0 0 .91.48 9.08 9.08 0 0 0 1.11.36 1.29 1.29 0 0 0 -.2.25 1 1 0 0 0 -.13.28 12.56 12.56 0 0 1 -1.15-.56 5.78 5.78 0 0 1 -.82-.52 4.2 4.2 0 0 1 -.92.61 9.44 9.44 0 0 1 -1.23.5.44.44 0 0 0 -.09-.26 1 1 0 0 0 -.23-.19 5.64 5.64 0 0 0 1.2-.39 4 4 0 0 0 .92-.55c-.16-.14-.31-.29-.47-.46s-.33-.35-.51-.57l.33-.25c.16.21.32.39.47.56s.38.28.54.42zm-1.09 4.86h-.55c0-.14 0-.27 0-.38s0-.24 0-.38v-2a1.93 1.93 0 0 0 0-.26.69.69 0 0 0 0-.2h3.13a.88.88 0 0 0 0 .17 2.11 2.11 0 0 0 0 .29v2 .39s0 .24 0 .38h-.55v-.66h-2.06zm2.06-2.79h-2.06v1.65h2.06z" fill="#383736"/><path d="m219.24 16.88h-.51c0-.06 0-.12 0-.18a1.11 1.11 0 0 1 0-.17c0-.07 0-.14 0-.23v-1.52c0-.22 0-.39 0-.52s0-.24 0-.32a1.72 1.72 0 0 0 .27.06h.25s.06 0 .07 0 0 .05 0 .08-.06.08-.06.11a.61.61 0 0 0 0 .15v1.66h.74v-2.53h-1a6.71 6.71 0 0 0 -.73.06v-.53a7.18 7.18 0 0 0 .73 0h1v-1.39h-.6c-.08.18-.17.37-.27.55l-.32.59a.82.82 0 0 0 -.49-.27 3.56 3.56 0 0 0 .38-.51 5.33 5.33 0 0 0 .33-.63 6.85 6.85 0 0 0 .26-.68 6.14 6.14 0 0 0 .17-.68l.24.09h.22c.19 0 .21.09.07.21a1.29 1.29 0 0 0 -.15.24 4.71 4.71 0 0 0 -.27.62h1.43.54v.51h-.52-.59v1.35h.79.6v.59c-.18 0-.38 0-.6-.06h-.79v2.47h.63v-1.21c0-.22 0-.41 0-.55s0-.27 0-.36a2.08 2.08 0 0 0 .3 0h.23.1s0 0 0 .09a.37.37 0 0 0 -.09.29v1.64.43s0 .28 0 .41h-.49v-.33h-1.85zm4.22-2.63a6.18 6.18 0 0 1 -.22 1.06 3.49 3.49 0 0 1 -.37.86 3.55 3.55 0 0 1 -.56.73 5.66 5.66 0 0 1 -.81.67 1.11 1.11 0 0 0 -.21-.22 1.38 1.38 0 0 0 -.3-.15 5.54 5.54 0 0 0 .82-.53 2.81 2.81 0 0 0 .57-.63 3.1 3.1 0 0 0 .36-.78 6 6 0 0 0 .21-1h-.77a2.72 2.72 0 0 0 -.46.06v-.58h.23.26.79c0-.3.05-.62.07-1s0-.66 0-1h-.74-.48v-.52a3.83 3.83 0 0 0 .49.06h.74c0-.24 0-.49 0-.76s0-.55-.05-.82l.32.06h.33c.08 0 .12 0 .13.05s0 .09-.1.16 0 0-.05.1a1.07 1.07 0 0 0 0 .24q0 .15 0 .39v.59h1.15l.5-.05-.12 2.39a3.62 3.62 0 0 0 .46 0 2.62 2.62 0 0 0 .43-.06v.58h-.4-.44-1.23a4.8 4.8 0 0 0 .79 1.85 4.1 4.1 0 0 0 1.2 1 1 1 0 0 0 -.3.19 1.2 1.2 0 0 0 -.2.3 4.9 4.9 0 0 1 -1.21-1.31 6.09 6.09 0 0 1 -.8-1.94zm.13-2.32v.47s0 .35 0 .53v.5.41h1.11l.1-1.91z" fill="#383736"/><path d="m228.48 17.32h-.59c0-.14 0-.28 0-.4s0-.27 0-.41v-5.17a2.1 2.1 0 0 0 0-.27v-.19h.38.47 3.82.46.37a1.1 1.1 0 0 0 0 .18v5.4.39a3 3 0 0 0 0 .39h-.58v-.91h-4.37zm4.37-6h-4.37v4.53h4.37z" fill="#383736"/><path d="m238.25 11a8 8 0 0 0 .42-.73 3.28 3.28 0 0 0 .23-.64 3.74 3.74 0 0 0 .67.19c.09 0 .14.06.15.1s-.05.08-.15.12a.42.42 0 0 0 -.12.08.8.8 0 0 0 -.16.16l-.23.29-.3.43h2.1.67.47l.37-.06v.26.3s0 .26 0 .42v4.69a.82.82 0 0 1 -.05.33.41.41 0 0 1 -.22.23 1.73 1.73 0 0 1 -.54.14q-.36 0-1 .06a.7.7 0 0 0 0-.35.91.91 0 0 0 -.22-.33c.35.05.62.08.83.09a1.43 1.43 0 0 0 .45 0 .36.36 0 0 0 .2-.15 1 1 0 0 0 0-.27v-4.94h-5.19v5.92h-.63c0-.17 0-.33 0-.49v-.47c0-.15 0-.32 0-.5v-3.4c0-.35 0-.66 0-.91s0-.49 0-.68l.22.06h.25.33 1.49zm2.52 4.4h-.65-1.87-.31-.27v-.31c0-.09 0-.19 0-.3s0-.22 0-.35v-1c0-.14 0-.27 0-.38a2.48 2.48 0 0 0 0-.29c0-.08 0-.17 0-.25h.63 1.87.32.28q0 .24 0 .6v.83.48.35s0 .21 0 .3a2.45 2.45 0 0 0 0 .32zm-.54-2.4h-2v2h2z" fill="#383736"/><path d="m246.75 11.78h-1.58-.95v-.57h.42.54.74 1c.1-.33.17-.64.23-.91s.08-.52.11-.73a1.16 1.16 0 0 0 .39.19 1.35 1.35 0 0 0 .33 0c.08 0 .12 0 .13.09a.27.27 0 0 1 -.12.19.4.4 0 0 0 -.13.15c0 .08-.09.17-.14.27a3.45 3.45 0 0 0 -.14.34c0 .13-.09.25-.13.37h3.36.61v.57h-.6-.81-2.69a8.45 8.45 0 0 1 -.28.85 6.51 6.51 0 0 1 -.4.85h3.86a.61.61 0 0 0 0 .15v2.66.39a2.9 2.9 0 0 0 0 .38h-.59v-.52h-3.37v.67h-.54c0-.14 0-.27 0-.38s0-.24 0-.38v-2a10.72 10.72 0 0 1 -1.39 1.59.61.61 0 0 0 -.27-.23 1.83 1.83 0 0 0 -.41-.12 6 6 0 0 0 1.74-1.65 8.2 8.2 0 0 0 1.08-2.22zm3.15 2.14h-3.37v2.2h3.37z" fill="#383736"/><path d="m72.57 5.09-16.66 16.66" fill="none" stroke="#e60012" stroke-linecap="round" stroke-linejoin="round" stroke-width="1.45"/><path d="m55.91 5.09 16.66 16.66" fill="none" stroke="#e60012" stroke-linecap="round" stroke-linejoin="round" stroke-width="1.45"/><path d="m55.39 4.46h17.74v17.74h-17.74z" fill="none" stroke="#363736" stroke-width=".25"/><path d="m390 10.13h.62v3.68.86a1.15 1.15 0 0 0 .2.55 1.29 1.29 0 0 0 .49.43 1.54 1.54 0 0 0 .67.16 1.59 1.59 0 0 0 .64-.13 1.5 1.5 0 0 0 .46-.37 1.54 1.54 0 0 0 .26-.53 5.1 5.1 0 0 0 .07-1v-3.65h.6v3.68a4 4 0 0 1 -.19 1.42 1.72 1.72 0 0 1 -.65.82 1.91 1.91 0 0 1 -1.11.33 2.43 2.43 0 0 1 -.92-.16 2 2 0 0 1 -.68-.46 1.67 1.67 0 0 1 -.38-.67 5.2 5.2 0 0 1 -.11-1.28z" fill="#383736"/><path d="m395.45 16.23v-6.23h.55v2.51a2.27 2.27 0 0 1 1.81-.89 2.19 2.19 0 0 1 1.64.7 2.36 2.36 0 0 1 .68 1.69 2.33 2.33 0 0 1 -.69 1.69 2.22 2.22 0 0 1 -1.65.7 2.14 2.14 0 0 1 -1.79-1v.83zm.55-2.23a1.84 1.84 0 0 0 .52 1.33 1.7 1.7 0 0 0 1.27.54 1.67 1.67 0 0 0 1.27-.55 1.89 1.89 0 0 0 0-2.59 1.67 1.67 0 0 0 -1.28-.55 1.7 1.7 0 0 0 -1.27.52 1.73 1.73 0 0 0 -.51 1.3z" fill="#383736"/><path d="m405 14.77.49.26a2.33 2.33 0 0 1 -2.16 1.35 2.2 2.2 0 0 1 -1.68-.7 2.48 2.48 0 0 1 0-3.37 2.17 2.17 0 0 1 1.65-.71 2.27 2.27 0 0 1 1.65.65 2.47 2.47 0 0 1 .7 1.79h-4.07a1.88 1.88 0 0 0 .52 1.31 1.59 1.59 0 0 0 1.18.5 1.84 1.84 0 0 0 1.72-1.08zm0-1.23a1.57 1.57 0 0 0 -.6-1 1.69 1.69 0 0 0 -1.09-.37 1.64 1.64 0 0 0 -1.67 1.38z" fill="#383736"/><path d="m411.23 11.72v4.51h-.57v-.77a2.25 2.25 0 0 1 -3.45.22 2.4 2.4 0 0 1 -.68-1.7 2.32 2.32 0 0 1 .69-1.68 2.22 2.22 0 0 1 1.65-.7 2.11 2.11 0 0 1 1.79.94v-.82zm-.53 2.28a1.84 1.84 0 0 0 -.52-1.31 1.73 1.73 0 0 0 -1.27-.53 1.66 1.66 0 0 0 -1.27.55 1.87 1.87 0 0 0 0 2.59 1.71 1.71 0 0 0 1.27.55 1.72 1.72 0 0 0 1.26-.53 1.79 1.79 0 0 0 .53-1.32z" fill="#383736"/><path d="m412.32 11.72h.59v.65a2.3 2.3 0 0 1 .47-.58.75.75 0 0 1 .5-.19 1.21 1.21 0 0 1 .56.15l-.31.5a.44.44 0 0 0 -.26-.08.67.67 0 0 0 -.5.27 1.64 1.64 0 0 0 -.34.7 6.78 6.78 0 0 0 -.12 1.56v1.53h-.59z" fill="#383736"/><path d="m416.37 13.51-.36-.32-.31-.25-.34-.25-.44-.29.31-.4.43.29.36.26.33.25.37.3zm.64 1c-.12.28-.24.54-.34.78s-.21.46-.31.7l-.29.72c-.11.25-.21.53-.33.83a1.7 1.7 0 0 0 -.31-.21 1.94 1.94 0 0 0 -.36-.11 10.08 10.08 0 0 0 .88-1.56 10.21 10.21 0 0 0 .5-1.47 1.05 1.05 0 0 0 .55.31zm0-2.94a2.61 2.61 0 0 0 -.31-.28l-.31-.26-.38-.28-.47-.3.27-.46.84.59c.23.16.46.34.7.52zm2.7 4.77-.54.37a6.28 6.28 0 0 1 -.58.31c-.21.09-.43.19-.67.28s-.51.19-.8.28a1.47 1.47 0 0 0 -.16-.28 1.17 1.17 0 0 0 -.25-.25c.29-.06.56-.12.81-.19s.47-.14.68-.22.41-.18.6-.28a3.77 3.77 0 0 0 .54-.34 4.9 4.9 0 0 1 -.76-.91 6.92 6.92 0 0 1 -.54-1h-.3-.31v-.51h1 2.35 1a5.48 5.48 0 0 1 -.69 1.34 5.7 5.7 0 0 1 -.94 1.06c.19.13.37.25.55.35a3.32 3.32 0 0 0 .54.25 5.76 5.76 0 0 0 .59.18c.21.05.44.1.69.14a1.44 1.44 0 0 0 -.25.29 1 1 0 0 0 -.13.28 7.4 7.4 0 0 1 -1.32-.53 6.18 6.18 0 0 1 -1.08-.63zm-1-5.18c-.08.23-.17.43-.25.62l-.26.53a5.5 5.5 0 0 1 -.28.48c-.1.16-.21.32-.33.49a1.31 1.31 0 0 0 -.26-.19 1.32 1.32 0 0 0 -.3-.1 7.44 7.44 0 0 0 .56-.7 4.23 4.23 0 0 0 .41-.68 4.51 4.51 0 0 0 .3-.78 9.06 9.06 0 0 0 .22-1 2.22 2.22 0 0 0 .62.2c.09 0 .13 0 .13.08s0 .09-.13.14a1 1 0 0 0 -.27.45h2.18.65l-.07.34v.35l-.09 1a1.06 1.06 0 0 1 -.08.35.51.51 0 0 1 -.21.25 1 1 0 0 1 -.4.15 3.65 3.65 0 0 1 -.65.05.78.78 0 0 0 0-.31 1 1 0 0 0 -.19-.32 3.72 3.72 0 0 0 .55.07 1 1 0 0 0 .31 0 .19.19 0 0 0 .14-.12.85.85 0 0 0 .06-.22l.11-1.17zm1 4.57a5.1 5.1 0 0 0 .77-.77 3.2 3.2 0 0 0 .51-.87h-2.46a3.94 3.94 0 0 0 .23.46 2.91 2.91 0 0 0 .24.45 3.7 3.7 0 0 0 .7.76z" fill="#383736"/><path d="m426.22 11.34h-.75-.62-.56-.58v-.55h.61.59 1.5a4.77 4.77 0 0 0 .2-.57c.07-.2.13-.44.2-.71l.27.11.3.06c.09 0 .14 0 .15.1s0 .11-.11.17l-.06.05a1.05 1.05 0 0 0 -.08.13c0 .06-.08.14-.13.25s-.12.24-.2.41h2.49.52.49.52v.55h-.83-.86-2.53l-.26.54a4.3 4.3 0 0 1 -.32.56h3.6.36a.72.72 0 0 0 0 .17v.25a2.64 2.64 0 0 0 0 .28 2.26 2.26 0 0 0 0 .25v3.32a1.51 1.51 0 0 1 0 .39.42.42 0 0 1 -.17.25 1 1 0 0 1 -.39.14c-.17 0-.4.05-.69.07a1 1 0 0 0 0-.32 1.18 1.18 0 0 0 -.18-.31 3.92 3.92 0 0 0 .51.05.8.8 0 0 0 .3 0 .22.22 0 0 0 .14-.14 1 1 0 0 0 0-.27v-.97h-3.65v2h-.58c0-.23 0-.45 0-.66s0-.39 0-.56v-3a7.54 7.54 0 0 1 -.69.7 10 10 0 0 1 -.88.73.55.55 0 0 0 -.13-.25.81.81 0 0 0 -.32-.21 9.47 9.47 0 0 0 .9-.64 7 7 0 0 0 .75-.68 8 8 0 0 0 .62-.79 8.44 8.44 0 0 0 .55-.9zm3.3 2.51v-1h-3.52v1zm-3.54.4v.95h3.54v-.95z" fill="#383736"/><path d="m438.77 12.17h-5.29v1.73a10.14 10.14 0 0 1 -.15 1.34 8.28 8.28 0 0 1 -.3 1.12 9.16 9.16 0 0 1 -.46 1 1.9 1.9 0 0 0 -.28-.17 1.35 1.35 0 0 0 -.34-.07 4.58 4.58 0 0 0 .44-.7 4.44 4.44 0 0 0 .31-.8 6.24 6.24 0 0 0 .2-1c0-.34.07-.72.09-1.13 0-.2 0-.43 0-.69v-.8c0-.28 0-.57 0-.87s0-.59 0-.88h.3.53 4.18.51.3v.39s0 .31 0 .56v.54c-.06.15-.05.26-.04.43zm-.55-1.46h-4.74v1h4.74zm-2.44 2.56-.73.09-.83.08a1.25 1.25 0 0 0 -.07-.26 1.48 1.48 0 0 0 -.16-.25c.6 0 1.11 0 1.52-.06s.75-.07 1-.12a4.78 4.78 0 0 0 .73-.19c.21-.07.41-.16.62-.25l.11.22.17.19c.12.13.11.18 0 .16h-.14-.17-.23l-.32.07-.47.1-.55.1v.85c.56-.05 1-.09 1.4-.14a6.66 6.66 0 0 0 .81-.12v.56h-.23-.34-.61l-1 .07v.79c.69 0 1.26-.06 1.72-.1a8.77 8.77 0 0 0 .93-.13v.57a6.92 6.92 0 0 0 -.88 0c-.42 0-1 0-1.76.07v.91a.78.78 0 0 0 0 .22.36.36 0 0 0 .17.15 1 1 0 0 0 .37.1 5.67 5.67 0 0 0 .65 0 4 4 0 0 0 .65 0 .82.82 0 0 0 .39-.13.58.58 0 0 0 .23-.26 2.48 2.48 0 0 0 .13-.43.65.65 0 0 0 .26.22.6.6 0 0 0 .3.05 2.2 2.2 0 0 1 -.24.53.92.92 0 0 1 -.33.32 1.61 1.61 0 0 1 -.51.16 5.15 5.15 0 0 1 -.76.05 6.33 6.33 0 0 1 -1-.06 1.66 1.66 0 0 1 -.56-.15.52.52 0 0 1 -.25-.28 1.25 1.25 0 0 1 -.06-.42v-.95l-1.2.07-1 .07-.08-.51h1 1.28v-.76l-.87.06-.65.06-.06-.45h.25.32.43.58z" fill="#383736"/><path d="m441.35 13.79v2.12a2.58 2.58 0 0 0 0 .32.41.41 0 0 0 .1.21.62.62 0 0 0 .23.12 2.65 2.65 0 0 0 .4.06h.72.95 1.07 1.11a2.46 2.46 0 0 0 .45-.06.66.66 0 0 0 .29-.17.86.86 0 0 0 .17-.36 3.5 3.5 0 0 0 .09-.6.84.84 0 0 0 .3.22 1.46 1.46 0 0 0 .37.12 5.05 5.05 0 0 1 -.22.66 1 1 0 0 1 -.28.4 1.19 1.19 0 0 1 -.47.2 4.4 4.4 0 0 1 -.75.08h-.91-1.07-1.06-.86a2.42 2.42 0 0 1 -.63-.09.77.77 0 0 1 -.35-.18.54.54 0 0 1 -.15-.3 2.63 2.63 0 0 1 0-.43v-4.49c0-.08 0-.18 0-.28s0-.22 0-.33 0-.21 0-.3 0-.18 0-.24h.27.49 4.32.52.31v.24s0 .21 0 .31 0 .22 0 .32v2.21.32s0 .21 0 .31 0 .17 0 .24h-.57v-.61zm2.13-2.79h-2.13v2.37h2.13zm.52 2.37h2.12v-2.37h-2.12z" fill="#383736"/><path d="m379.86 5.09-16.66 16.66" fill="none" stroke="#e60012" stroke-linecap="round" stroke-linejoin="round" stroke-width="1.45"/><path d="m363.2 5.09 16.66 16.66" fill="none" stroke="#e60012" stroke-linecap="round" stroke-linejoin="round" stroke-width="1.45"/><path d="m362.68 4.46h17.74v17.74h-17.74z" fill="none" stroke="#363736" stroke-width=".25"/><g fill="#383736"><path d="m82.67 168.75h.61v3.68a6.2 6.2 0 0 0 0 .86 1.21 1.21 0 0 0 .69 1 1.41 1.41 0 0 0 .67.16 1.44 1.44 0 0 0 .64-.13 1.37 1.37 0 0 0 .46-.37 1.39 1.39 0 0 0 .25-.52 4.38 4.38 0 0 0 .08-1v-3.68h.6v3.68a4 4 0 0 1 -.19 1.42 1.75 1.75 0 0 1 -.66.83 1.86 1.86 0 0 1 -1.1.33 2.43 2.43 0 0 1 -.92-.17 1.82 1.82 0 0 1 -.68-.46 1.67 1.67 0 0 1 -.38-.67 5.2 5.2 0 0 1 -.11-1.28z"/><path d="m88.16 174.85v-6.25h.57v2.51a2.3 2.3 0 0 1 1.81-.89 2.19 2.19 0 0 1 1.65.7 2.45 2.45 0 0 1 0 3.38 2.23 2.23 0 0 1 -1.65.71 2.15 2.15 0 0 1 -1.8-1v.83zm.54-2.28a1.84 1.84 0 0 0 .52 1.33 1.69 1.69 0 0 0 1.26.55 1.67 1.67 0 0 0 1.27-.56 1.81 1.81 0 0 0 .53-1.29 1.85 1.85 0 0 0 -.51-1.3 1.67 1.67 0 0 0 -1.28-.55 1.73 1.73 0 0 0 -1.28.52 1.77 1.77 0 0 0 -.51 1.3z"/><path d="m97.72 173.39.49.26a2.34 2.34 0 0 1 -2.16 1.35 2.23 2.23 0 0 1 -1.68-.7 2.49 2.49 0 0 1 0-3.38 2.2 2.2 0 0 1 1.65-.71 2.24 2.24 0 0 1 1.65.66 2.4 2.4 0 0 1 .69 1.78h-4.06a1.88 1.88 0 0 0 .52 1.31 1.56 1.56 0 0 0 1.18.5 1.84 1.84 0 0 0 1.72-1.07zm0-1.23a1.57 1.57 0 0 0 -.6-1 1.69 1.69 0 0 0 -1.09-.37 1.64 1.64 0 0 0 -1.67 1.38z"/><path d="m103.94 170.34v4.51h-.57v-.77a2.24 2.24 0 0 1 -3.45.22 2.39 2.39 0 0 1 -.68-1.69 2.33 2.33 0 0 1 .69-1.69 2.22 2.22 0 0 1 1.65-.7 2.15 2.15 0 0 1 1.79.94v-.82zm-.54 2.28a1.83 1.83 0 0 0 -.51-1.31 1.74 1.74 0 0 0 -1.28-.53 1.71 1.71 0 0 0 -1.27.55 1.85 1.85 0 0 0 -.51 1.3 1.78 1.78 0 0 0 .52 1.29 1.67 1.67 0 0 0 1.26.55 1.69 1.69 0 0 0 1.27-.53 1.79 1.79 0 0 0 .52-1.32z"/><path d="m105 170.34h.59v.66a2.3 2.3 0 0 1 .47-.58.73.73 0 0 1 .5-.19 1.14 1.14 0 0 1 .55.15l-.3.5a.53.53 0 0 0 -.27-.08.65.65 0 0 0 -.49.27 1.77 1.77 0 0 0 -.35.7 7.62 7.62 0 0 0 -.11 1.56v1.53h-.59z"/><path d="m110.14 169.73c.1-.17.18-.32.25-.46l.18-.35.11-.28a1.35 1.35 0 0 0 .08-.24 2.45 2.45 0 0 0 .33.16 2 2 0 0 0 .34.1c.07 0 .11 0 .11.08s-.05.08-.15.1l-.09.06a.72.72 0 0 0 -.14.13l-.2.26c-.08.11-.18.26-.29.44h3 .42.31v.33.34 4.44.35.33.28s0 .15 0 .2h-.58v-.76h-4.82v.76h-.57q0-.19 0-.54c0-.22 0-.5 0-.82v-4.33c0-.12 0-.24 0-.35s0-.22 0-.32a6.4 6.4 0 0 0 .64 0zm3.67 2.48v-2h-4.81v2zm-4.82.44v2.09h4.82v-2.09z"/><path d="m117.51 174.62-.17.4c-.07.14-.13.29-.2.43s-.15.27-.22.39a2.28 2.28 0 0 1 -.19.3l-.55-.21a5.41 5.41 0 0 0 .49-.69 2.75 2.75 0 0 0 .34-.78zm1.75-4.63-.24-.25a2.61 2.61 0 0 0 -.24-.23l.32-.31.33.33.25.28.22.27c.08.09.16.2.26.33l-.38.29-.12-.19c0-.06-.09-.12-.13-.19l-2.26.16h-.49l-.33.07a1.11 1.11 0 0 0 -.17-.54 3 3 0 0 0 .42 0l.44-.41.35-.37a3.37 3.37 0 0 0 .3-.36c.09-.13.19-.27.29-.43a1.86 1.86 0 0 0 .48.31c.11.05.11.1 0 .14l-.17.1-.24.19-.35.32-.52.51zm-2.06 4.18h-.56c0-.17 0-.32 0-.45s0-.24 0-.35 0-.2 0-.3v-1.4c0-.19 0-.35 0-.47a2.08 2.08 0 0 0 -.06-.36h.3.39.44 1.29.4.35a2.71 2.71 0 0 0 -.06.38v.45 1.82a1.06 1.06 0 0 1 0 .33.35.35 0 0 1 -.17.21.8.8 0 0 1 -.36.12 5.11 5.11 0 0 1 -.62 0 .93.93 0 0 0 0-.25.84.84 0 0 0 -.14-.26 3.28 3.28 0 0 0 .48 0 .7.7 0 0 0 .28-.05.29.29 0 0 0 .12-.15.9.9 0 0 0 0-.25v-.19h-2zm2-2.37v-.52h-2v.52zm-2 .34v.5h2v-.5zm1.63 4a6.91 6.91 0 0 0 -.17-.76 5.27 5.27 0 0 0 -.25-.7l.47-.11a2.2 2.2 0 0 1 .12.32 3.76 3.76 0 0 1 .13.4c0 .14.08.28.11.42s.06.25.08.35zm1.83-.17-.12-.38c-.05-.14-.1-.27-.16-.4s-.11-.24-.17-.35a1.09 1.09 0 0 0 -.15-.25l.44-.18.3.57.36.81zm.19-3.54a9.36 9.36 0 0 0 1.22-.34 2.62 2.62 0 0 0 .73-.35 1.91 1.91 0 0 0 .14.21l.15.18c.07.07.1.13.08.18s-.08.07-.19.06h-.2l-.34.06-.61.14-1 .25v.45a.58.58 0 0 0 0 .21.24.24 0 0 0 .13.13 1 1 0 0 0 .28.07h.51a5.94 5.94 0 0 0 .67 0 .84.84 0 0 0 .37-.13.46.46 0 0 0 .19-.26 2.4 2.4 0 0 0 .11-.43.9.9 0 0 0 .23.21.87.87 0 0 0 .26.08 2.49 2.49 0 0 1 -.22.53.77.77 0 0 1 -.32.3 1.37 1.37 0 0 1 -.52.12q-.31 0-.84 0h-.75a.74.74 0 0 1 -.41-.12.47.47 0 0 1 -.17-.29 3.6 3.6 0 0 1 0-.53v-1c0-.14 0-.27 0-.38s0-.21 0-.34a2.59 2.59 0 0 0 .63.08c.08 0 .12 0 .13.06s0 .09-.09.15a.55.55 0 0 0 -.15.43zm0-2.65.67-.15.49-.15.37-.15a3.14 3.14 0 0 0 .31-.18 1.41 1.41 0 0 0 .13.24l.16.19c.08.07.1.12.09.16s-.08.06-.19.05a1.46 1.46 0 0 0 -.21 0 1.77 1.77 0 0 0 -.35 0l-.57.11-.9.22v.23a1.3 1.3 0 0 0 0 .23.24.24 0 0 0 .12.14.88.88 0 0 0 .28.07 3.56 3.56 0 0 0 .51 0 4.34 4.34 0 0 0 .57 0 .85.85 0 0 0 .36-.12.55.55 0 0 0 .21-.24 2 2 0 0 0 .11-.4.46.46 0 0 0 .2.19.66.66 0 0 0 .27.09 2.76 2.76 0 0 1 -.24.46.82.82 0 0 1 -.29.27 1.19 1.19 0 0 1 -.47.13 7.25 7.25 0 0 1 -.76 0h-.75a.9.9 0 0 1 -.4-.12.46.46 0 0 1 -.17-.29 2.47 2.47 0 0 1 0-.53v-.85c0-.15 0-.27 0-.37a2.24 2.24 0 0 0 0-.34 1 1 0 0 0 .28.05h.32.14s0 .08-.1.14a.4.4 0 0 0 -.11.18 1.26 1.26 0 0 0 0 .3zm2 6.27a8.69 8.69 0 0 0 -.51-.8c-.21-.28-.41-.53-.6-.74l.37-.26c.19.2.39.43.6.7s.4.54.59.82z"/><path d="m127.43 170h-1.37-.56-.58v-.56h.61.59 1.5a5.36 5.36 0 0 0 .2-.57c.07-.2.13-.44.2-.71l.27.11.3.06c.09 0 .14 0 .15.1s0 .11-.12.17l-.05.06a.48.48 0 0 0 -.08.12 1.84 1.84 0 0 0 -.13.25c-.06.1-.12.24-.2.41h3 .49.52v.56h-.83-.86-2.48l-.26.55a4.94 4.94 0 0 1 -.32.55h3.58.36s0 .1 0 .18a2.5 2.5 0 0 1 0 .25 2.45 2.45 0 0 0 0 .27 2.36 2.36 0 0 0 0 .25v3.32a1.41 1.41 0 0 1 0 .39.42.42 0 0 1 -.17.25 1 1 0 0 1 -.39.14c-.17 0-.4.05-.69.07a1.23 1.23 0 0 0 0-.31 1.36 1.36 0 0 0 -.18-.32 3.62 3.62 0 0 0 .51.05.84.84 0 0 0 .3 0 .26.26 0 0 0 .14-.15 1 1 0 0 0 0-.27v-.88h-3.54v2h-.58c0-.23 0-.45 0-.65s0-.39 0-.56v-3a6.48 6.48 0 0 1 -.69.7c-.25.24-.55.48-.88.74a.58.58 0 0 0 -.13-.26.77.77 0 0 0 -.32-.2c.33-.22.63-.43.9-.65a6 6 0 0 0 1.37-1.47 7.64 7.64 0 0 0 .42-.99zm3.3 2.51v-1h-3.54v1zm-3.54.4v.95h3.54v-.95z"/><path d="m137 171.83a5.16 5.16 0 0 1 -.4 1.06 6.83 6.83 0 0 1 -.72 1.09 9.42 9.42 0 0 1 -1 1.08 9.61 9.61 0 0 1 -1.35 1 .7.7 0 0 0 -.17-.28 1 1 0 0 0 -.3-.2 7.24 7.24 0 0 0 1.37-.83 6.21 6.21 0 0 0 1.1-1.07 5.92 5.92 0 0 0 .76-1.28 4.79 4.79 0 0 0 .35-1.47c0-.26 0-.48.06-.67s0-.35 0-.51a4.21 4.21 0 0 0 0-.5c0-.17 0-.37-.07-.61a2.55 2.55 0 0 0 .72.07.11.11 0 0 1 .12.07.14.14 0 0 1 -.07.13s-.06.07-.07.14 0 .15 0 .26 0 .19 0 .32v.41.46s0 .31 0 .46a8.74 8.74 0 0 0 .36.92c.15.3.32.59.49.87a7.64 7.64 0 0 0 .58.79 8.4 8.4 0 0 0 .62.69l.51.47.41.34.37.24.4.19a1.37 1.37 0 0 0 -.51.53 4.56 4.56 0 0 1 -.42-.31c-.13-.1-.27-.21-.4-.33s-.27-.25-.4-.39l-.44-.46a9.84 9.84 0 0 1 -1-1.33 8.53 8.53 0 0 1 -.9-1.35z"/><path d="m145.72 174.68v.93s0 .47.06.67h-.71c0-.2 0-.43 0-.67s0-.56 0-.93v-1.34h-2.31v.74h-.59c0-.18 0-.37 0-.57s0-.39 0-.57v-2c0-.15 0-.3 0-.47s0-.3 0-.4c.21 0 .56.05 1 .06h1.86v-.61c0-.21 0-.42 0-.62a4.37 4.37 0 0 0 -.06-.56l.39.07h.31c.09 0 .15 0 .16.07s0 .09-.12.14a.25.25 0 0 0 -.08.12 1 1 0 0 0 0 .21v1.16h1.82c.46 0 .8 0 1-.06a1.15 1.15 0 0 0 0 .21 2.53 2.53 0 0 0 0 .28v.29a2.54 2.54 0 0 0 0 .26v1.73.6a5.53 5.53 0 0 0 0 .61h-.45v-.67h-2.25zm-.56-4.14h-2.31v2.36h2.31zm.56 2.36h2.28v-2.36h-2.25z"/><path d="m154.35 172.47a1.19 1.19 0 0 1 -.88 1.33v-.37a.62.62 0 0 0 .38-.27 1.39 1.39 0 0 0 .11-.63h-.49v-.9h.88z"/><path d="m162.45 171.83a5.16 5.16 0 0 1 -.4 1.06 6.83 6.83 0 0 1 -.72 1.09 9.42 9.42 0 0 1 -1 1.08 9.61 9.61 0 0 1 -1.35 1 .7.7 0 0 0 -.17-.28 1 1 0 0 0 -.3-.2 7.24 7.24 0 0 0 1.37-.83 6.21 6.21 0 0 0 1.1-1.07 5.92 5.92 0 0 0 .76-1.28 4.79 4.79 0 0 0 .35-1.47c0-.26 0-.48.06-.67s0-.35 0-.51a4.21 4.21 0 0 0 0-.5c0-.17 0-.37-.07-.61a2.55 2.55 0 0 0 .72.07.11.11 0 0 1 .12.07.14.14 0 0 1 -.07.13s-.06.07-.07.14 0 .15 0 .26 0 .19 0 .32v.41.46s0 .31 0 .46a8.74 8.74 0 0 0 .36.92c.15.3.32.59.49.87a7.64 7.64 0 0 0 .58.79 8.4 8.4 0 0 0 .62.69l.51.47.41.34.37.24.4.19a1.37 1.37 0 0 0 -.51.53 4.56 4.56 0 0 1 -.42-.31c-.13-.1-.27-.21-.4-.33s-.27-.25-.4-.39l-.44-.46a9.84 9.84 0 0 1 -1-1.33 8.53 8.53 0 0 1 -.9-1.35z"/><path d="m171.22 174.68v.93s0 .47.06.67h-.71c0-.2 0-.43 0-.67s0-.56 0-.93v-1.34h-2.31v.74h-.59c0-.18 0-.37 0-.57s0-.39 0-.57v-2c0-.15 0-.3 0-.47s0-.3 0-.4c.21 0 .56.05 1 .06h1.86v-.61c0-.21 0-.42 0-.62a4.37 4.37 0 0 0 -.06-.56l.39.07h.31c.09 0 .15 0 .16.07s0 .09-.12.14a.25.25 0 0 0 -.08.12 1 1 0 0 0 0 .21v1.16h1.82c.46 0 .8 0 1-.06a1.15 1.15 0 0 0 0 .21 2.53 2.53 0 0 0 0 .28v.29a2.54 2.54 0 0 0 0 .26v1.73.6a5.53 5.53 0 0 0 0 .61h-.59v-.67h-2.25zm-.56-4.14h-2.31v2.36h2.31zm.56 2.36h2.25v-2.36h-2.25z"/><path d="m177.62 172.47h.74.37v.49h-.15-1v1.73l1.14-.32a1 1 0 0 0 0 .46l-.72.17-.85.25-.78.25-.62.23a1.21 1.21 0 0 0 -.18-.62 2.46 2.46 0 0 0 .43-.11v-1.9a4.7 4.7 0 0 0 0-.54 2.94 2.94 0 0 0 -.05-.46h.32.29s.09 0 .1 0 0 .05-.05.08a.14.14 0 0 0 -.08.09.5.5 0 0 0 0 .19v2.36l.64-.17v-3.27h-.64-.49c0-.17 0-.36 0-.58s0-.44 0-.66 0-.44 0-.65 0-.41 0-.55h.54.74.72.53v.32a2.72 2.72 0 0 0 0 .28v.46.31s0 .44 0 .66 0 .42 0 .58h-.39-.52zm.41-2.95h-1.48v1.58h1.45zm3.23 4.2.53-.35a4.15 4.15 0 0 0 .36-.28 3.74 3.74 0 0 0 .29-.25l.3-.31a2.12 2.12 0 0 0 .21.27 1.7 1.7 0 0 0 .2.19c.06 0 .09.09.07.13s-.06 0-.14 0h-.14a1.8 1.8 0 0 0 -.26.14 4.8 4.8 0 0 0 -.45.28l-.71.48a3.47 3.47 0 0 0 .39.44 3.19 3.19 0 0 0 .4.33 3.35 3.35 0 0 0 .45.27l.54.26a1.81 1.81 0 0 0 -.3.25 1.08 1.08 0 0 0 -.21.28 5 5 0 0 1 -.48-.32 4.16 4.16 0 0 1 -.39-.32c-.13-.12-.25-.25-.38-.39l-.39-.48a4.62 4.62 0 0 1 -.27-.4 5.39 5.39 0 0 1 -.25-.48c-.08-.18-.16-.35-.23-.54s-.12-.36-.16-.53h-.68v2.88l.31-.14.3-.14.3-.16.35-.2v.26a.9.9 0 0 0 .07.22c-.18.08-.35.15-.5.23s-.31.15-.46.23l-.44.25-.48.28a2.61 2.61 0 0 0 -.12-.28 2.22 2.22 0 0 0 -.17-.24h.15l.15-.06v-5.67c0-.18 0-.34 0-.48a3.15 3.15 0 0 0 0-.43h.33.43.51.55q.57 0 1 0a4.91 4.91 0 0 0 .7-.06 3.11 3.11 0 0 0 0 .43v.48 1.59.56s0 .33 0 .51a2.4 2.4 0 0 0 -.28 0h-.34-.48-.71a2.84 2.84 0 0 0 .2.68 3.84 3.84 0 0 0 .33.59zm-1.7-4.25v1.13h2.44v-1.13zm0 1.53v1.05h2.44v-1.05z"/><path d="m183.7 170.34h.6l1.38 3.43 1.45-3.43h.1l1.45 3.43 1.4-3.43h.61l-2 4.67h-.11l-1.44-3.39-1.4 3.38h-.12z"/><path d="m193.5 171.39h-.91a6.46 6.46 0 0 1 -.28 1.35 5 5 0 0 1 -.57 1.16 1.66 1.66 0 0 0 -.63-.25c.14-.14.25-.28.36-.41a3 3 0 0 0 .27-.47 3.14 3.14 0 0 0 .19-.59 5.29 5.29 0 0 0 .1-.79c0-.31 0-.66 0-1.07s0-.87 0-1.41h.62.84 1 1 1.71 1.29v.55h-.55-.71-4.63v.84s0 .5 0 .75h5 .54.35v.51h-.36-.54-2.09a2.8 2.8 0 0 0 .4.57 2.92 2.92 0 0 0 .49.42l.27-.21.24-.2.21-.24.24-.28a1.66 1.66 0 0 0 .27.23 1.34 1.34 0 0 0 .24.12c.06 0 .09.06.08.1s-.05.06-.14.07h-.14a.88.88 0 0 0 -.21.09 2.12 2.12 0 0 0 -.29.18l-.43.31a3.5 3.5 0 0 0 .88.3 8.66 8.66 0 0 0 1.21.15 1.81 1.81 0 0 0 -.17.29 1.4 1.4 0 0 0 -.09.29 8.24 8.24 0 0 1 -1.29-.3 4.58 4.58 0 0 1 -1-.44 3 3 0 0 1 -.71-.62 4.26 4.26 0 0 1 -.56-.86h-1v1.42l1.33-.49a1.22 1.22 0 0 0 0 .27.51.51 0 0 0 .05.22l-.72.24-.53.19-.4.16a2.09 2.09 0 0 0 -.3.14c0-.1-.08-.18-.12-.26a2.44 2.44 0 0 0 -.16-.23h.2.2zm-.51 4.85h-.56a5.92 5.92 0 0 0 0-.84v-1.62c0-.05 0-.11 0-.18h.45 4.43.43a1.55 1.55 0 0 0 0 .17v1.59.41a3 3 0 0 0 0 .41h-.58v-.52h-4.16zm4.2-2.18h-4.19v1.17h4.2zm1-3.57h-.49-.54-.63-.78c-.59 0-1.1 0-1.51 0s-.79 0-1.11.06v-.55l1.11.05h2.92.54.49z"/><path d="m207.21 172.13h-.81-.71-.85-3.56-.77-.78v-.61h.77.79 4.4.47.49.56z"/><path d="m209.92 170.25h.67.51v.53l-.51-.05h-.67v.56l.71.59.51.44-.44.34c-.11-.16-.23-.31-.34-.44l-.44-.44v3 .74s0 .55.06.82h-.62c0-.27 0-.54.06-.82s0-.52 0-.74v-2.85c-.15.44-.3.85-.47 1.25a9.94 9.94 0 0 1 -.47 1 1.13 1.13 0 0 0 -.24-.21.71.71 0 0 0 -.28-.1 2.87 2.87 0 0 0 .39-.58c.15-.25.29-.53.43-.82s.27-.59.38-.88a7.71 7.71 0 0 0 .26-.76h-.69l-.54.05v-.53a5.06 5.06 0 0 0 .53 0h.7c0-.47 0-.85 0-1.12s0-.5 0-.66a1.65 1.65 0 0 0 .32.06h.31.14s0 .09-.09.17a.61.61 0 0 0 -.09.23 1.51 1.51 0 0 0 0 .32zm.93 5.74a.41.41 0 0 0 -.13-.22 1.3 1.3 0 0 0 -.33-.15 6.49 6.49 0 0 0 .67-.28 2.69 2.69 0 0 0 .5-.32 2.4 2.4 0 0 0 .39-.39 2.8 2.8 0 0 0 .3-.48h-.41-.61a3.07 3.07 0 0 0 -.36.05v-.5a4.73 4.73 0 0 0 .95.08h.38.29.24.2c-.08.18-.15.35-.24.51a4.34 4.34 0 0 1 -.23.4 4.18 4.18 0 0 1 -.29.38c-.1.1-.2.21-.32.31s-.26.2-.42.31zm2.85-6.34.27-.27.27-.3c.08-.11.16-.21.23-.32a2.25 2.25 0 0 0 .16-.3.9.9 0 0 0 .24.16.72.72 0 0 0 .2.09c.09 0 .13.07.13.13s-.06.11-.17.12a1.59 1.59 0 0 0 -.27.16 6.65 6.65 0 0 0 -.56.52h.82l.65-.05v.52c-.24 0-.53-.05-.88-.06s-.73 0-1.14 0v.6h1 .4.4v.35h-.4-.4-1v.67h1.23s.73 0 1-.06v.53l-1-.06h-1.34-1.3l-1.05.06v-.53c.26 0 .55.05.89.06h1.09v-.67h-.51-.4-.36-.35v-.51h.35.36.4.51v-.49c-.37 0-.74 0-1.11 0s-.67 0-.9.06v-.52h.45.53 1.55zm-.89-.07a3.44 3.44 0 0 0 -.41-.35 4.4 4.4 0 0 0 -.58-.3l.26-.39c.23.12.42.24.59.35a5.55 5.55 0 0 1 .46.35zm.86 3.23a3.93 3.93 0 0 0 -.41-.26c-.13-.06-.3-.12-.5-.19l.2-.33a2.77 2.77 0 0 1 .54.21 4.06 4.06 0 0 1 .52.29l-.23.36v.29s0 .25 0 .38l.11.2a6.75 6.75 0 0 0 .77-.44 2.33 2.33 0 0 0 .49-.44l.19.2.19.18s.07.08.06.12a.1.1 0 0 1 -.12.05h-.09l-.2.09-.4.19-.68.35a4.73 4.73 0 0 0 .79.84 3.79 3.79 0 0 0 1.12.67 1 1 0 0 0 -.26.2 1.34 1.34 0 0 0 -.17.27 6.25 6.25 0 0 1 -.54-.4 4.29 4.29 0 0 1 -.49-.46 3.7 3.7 0 0 1 -.42-.48 4.85 4.85 0 0 1 -.35-.48v1.18a1.66 1.66 0 0 1 0 .42.45.45 0 0 1 -.18.25 1.16 1.16 0 0 1 -.41.13 6.49 6.49 0 0 1 -.71 0 .7.7 0 0 0 0-.32.81.81 0 0 0 -.15-.31c.22 0 .39.07.52.09a1 1 0 0 0 .32 0 .22.22 0 0 0 .15-.11.56.56 0 0 0 0-.21v-2.1h-.91-.51v-.49h.45.53.43c.09.09.23.07.35.06z"/><path d="m217.88 171.55h-.7a5.18 5.18 0 0 0 -.54.06v-.54h.58.78v-2c0-.16 0-.3 0-.41a2 2 0 0 0 -.06-.34h.34.3q.1 0 .12 0s0 .07-.09.11-.1.2-.1.44v2.13h.74.56v.54c-.16 0-.35 0-.56-.06h-.74v.14c.27.26.5.49.69.7s.37.43.55.65l-.47.39a8.93 8.93 0 0 0 -.77-1.19v2.42.7s0 .51.07.76h-.68c0-.25.05-.51.06-.76s0-.49 0-.7v-2.17a8.58 8.58 0 0 1 -.42 1 10.38 10.38 0 0 1 -.55.94 1 1 0 0 0 -.23-.17l-.27-.12a3.52 3.52 0 0 0 .36-.43 6 6 0 0 0 .38-.62c.12-.23.24-.48.35-.74a6.35 6.35 0 0 0 .3-.73zm-.52-.93a4.55 4.55 0 0 0 -.29-.59 5.19 5.19 0 0 0 -.4-.57l.38-.26.18.24c.07.09.13.19.2.3l.19.32.17.32zm2.43-1.3q.09 0 .09.09s0 .07-.11.1-.12.11-.23.3-.26.47-.46.89a.92.92 0 0 0 -.19-.13.71.71 0 0 0 -.21-.08 5.49 5.49 0 0 0 .38-.71 4.91 4.91 0 0 0 .24-.74 2 2 0 0 0 .49.28zm.45.86c0-.09 0-.19 0-.31s0-.23 0-.35 0-.22 0-.32 0-.19 0-.25a5.36 5.36 0 0 0 .67.06h2.09.41.27v.24a2.66 2.66 0 0 0 0 .3v.35 5.52h.41.42v.56h-.34-.47-.71-2.11-.76-.52-.36v-.56h.51.58zm2.82.95v-1.69h-2.3v1.69zm-2.3.43v1.64h2.3v-1.64zm0 2.05v1.76h2.3v-1.76z"/><path d="m229.42 172.47a1.2 1.2 0 0 1 -.89 1.33v-.37a.62.62 0 0 0 .38-.27 1.25 1.25 0 0 0 .12-.63h-.5v-.9h.89z"/><path d="m236 171.39h-.91a6.46 6.46 0 0 1 -.28 1.35 5 5 0 0 1 -.57 1.16 1.66 1.66 0 0 0 -.63-.25c.14-.14.25-.28.36-.41a3 3 0 0 0 .27-.47 3.14 3.14 0 0 0 .19-.59 5.29 5.29 0 0 0 .1-.79c0-.31 0-.66 0-1.07s0-.87 0-1.41h.62.85 1 1 1.71 1.29v.55h-.55-.71-4.64v.84s0 .5 0 .75h5 .54.35v.51h-.36-.54-2.09a2.8 2.8 0 0 0 .4.57 2.92 2.92 0 0 0 .49.42l.27-.21.24-.2.21-.24.24-.28a1.66 1.66 0 0 0 .27.23 1.34 1.34 0 0 0 .24.12c.06 0 .09.06.08.1s-.05.06-.14.07h-.14a.88.88 0 0 0 -.21.09 2.12 2.12 0 0 0 -.29.18l-.43.31a3.5 3.5 0 0 0 .88.3 8.66 8.66 0 0 0 1.21.15 1.81 1.81 0 0 0 -.17.29 1.4 1.4 0 0 0 -.09.29 8.24 8.24 0 0 1 -1.29-.3 4.58 4.58 0 0 1 -1-.44 3 3 0 0 1 -.71-.62 4.26 4.26 0 0 1 -.56-.86h-1.08v1.42l1.33-.49a1.22 1.22 0 0 0 0 .27.51.51 0 0 0 .05.22l-.72.24-.53.19-.4.16a2.09 2.09 0 0 0 -.3.14c0-.1-.08-.18-.12-.26a2.44 2.44 0 0 0 -.16-.23h.2.2zm-.51 4.85h-.56a5.92 5.92 0 0 0 0-.84v-1.62c0-.05 0-.11 0-.18h.45 4.43.43a1.55 1.55 0 0 0 0 .17v1.59.41a3 3 0 0 0 0 .41h-.58v-.52h-4.2zm4.2-2.18h-4.2v1.17h4.2zm1-3.57h-.49-.54-.63-.78c-.59 0-1.1 0-1.51 0s-.79 0-1.11.06v-.55l1.11.05h2.92.54.49z"/><path d="m243.33 169.5h-.5l-.41.05v-.55l.88.05h2.35c.35 0 .64 0 .87-.05v.55l-.44-.05h-.51v2.43h.65.25.28v.57h-.26-.26-.66v2.21.72s0 .49.06.74h-.63c0-.25 0-.49.06-.73s0-.47 0-.73v-2.21h-1.24a10 10 0 0 1 -.07 1.14 8.46 8.46 0 0 1 -.17 1 5.44 5.44 0 0 1 -.3.86 5.55 5.55 0 0 1 -.43.79 1.27 1.27 0 0 0 -.25-.21 1.13 1.13 0 0 0 -.34-.11 2.92 2.92 0 0 0 .8-1.39 8.12 8.12 0 0 0 .26-2h-.65-.53v-.57h.26.92zm.5 0v2.43h1.24v-2.43zm5.84 3.91c.09 0 .12.07.12.11s-.06.08-.14.11a.68.68 0 0 0 -.22.17 4.14 4.14 0 0 0 -.39.41 5.83 5.83 0 0 1 -1.18 1 7.44 7.44 0 0 1 -1.52.76 1.7 1.7 0 0 0 -.17-.23 2 2 0 0 0 -.29-.24 5.51 5.51 0 0 0 2.11-1 4 4 0 0 0 1.21-1.5 1.1 1.1 0 0 0 .25.24.85.85 0 0 0 .22.16zm-.26-4.36a.76.76 0 0 0 -.28.13 2 2 0 0 0 -.31.28c-.13.15-.27.29-.4.43l-.41.38a5.44 5.44 0 0 1 -.43.36c-.14.12-.31.24-.48.37a1 1 0 0 0 -.2-.21 1 1 0 0 0 -.3-.16 4.79 4.79 0 0 0 2.3-2.19 2.51 2.51 0 0 0 .25.23l.27.16c.08 0 .11.09.11.13s-.04.04-.12.04zm.1 2.41a.77.77 0 0 0 -.25.11 1.62 1.62 0 0 0 -.34.26c-.19.19-.37.34-.52.48s-.28.24-.42.35-.27.21-.41.3l-.49.32a1.57 1.57 0 0 0 -.47-.4 7.39 7.39 0 0 0 .85-.46 4.76 4.76 0 0 0 .65-.48 4.3 4.3 0 0 0 .92-1.11 2.15 2.15 0 0 0 .24.26l.26.19c.06 0 .09.08.08.12s-.04.05-.1.05z"/><path d="m256.78 171.56h.46.32l-.4 1.4h.7.22.19c0 .26-.08.59-.12 1s-.1.84-.16 1.38a1.83 1.83 0 0 1 -.14.52.63.63 0 0 1 -.28.28 1.2 1.2 0 0 1 -.49.13h-.79a.64.64 0 0 0 0-.31 1.64 1.64 0 0 0 -.18-.34l.64.1a.88.88 0 0 0 .39 0 .35.35 0 0 0 .21-.16 1 1 0 0 0 .11-.3c0-.1.05-.23.07-.38s.05-.31.07-.48 0-.33 0-.49 0-.32 0-.46h-4.6a8.4 8.4 0 0 1 -.7 1.24 13.83 13.83 0 0 1 -1 1.23.77.77 0 0 0 -.26-.22 2.22 2.22 0 0 0 -.36-.11 6.51 6.51 0 0 0 .84-.82 5.76 5.76 0 0 0 .72-1 9.37 9.37 0 0 0 .61-1.34 15 15 0 0 0 .52-1.78h-.91-.65-.47-.37v-.53a5.78 5.78 0 0 0 .78 0h1.71c.06-.25.12-.52.17-.8s.1-.58.15-.89a1.69 1.69 0 0 0 .27.13 1.25 1.25 0 0 0 .31.07c.13 0 .2 0 .21.08s0 .11-.15.19a.39.39 0 0 0 -.08.1.67.67 0 0 0 -.09.19 2.14 2.14 0 0 0 -.12.34c-.05.15-.1.35-.17.59h2.82.43zm-4.24-1.48a4.39 4.39 0 0 0 -.41-.53 4.21 4.21 0 0 0 -.43-.42l.31-.35c.19.17.36.33.5.48a6.87 6.87 0 0 1 .44.53zm1 4q-.06.21-.12.39c0 .12-.09.24-.14.36a3.76 3.76 0 0 1 -.16.37q-.09.19-.21.42l-.46-.2.2-.34.18-.31.15-.37q.08-.19.15-.45zm3.46-2.08h-3.54c0 .17-.09.33-.14.49l-.18.47h3.55zm-.72-.4.36-1.05h-2.78c0 .15-.09.31-.14.48s-.1.36-.15.57zm-2 3.85a3.06 3.06 0 0 0 -.05-.32c0-.1 0-.2-.08-.3s-.07-.19-.11-.29l-.16-.34.41-.16.15.31c0 .1.07.19.11.28l.12.3q.06.17.12.36zm1.24-.24a5.58 5.58 0 0 0 -.18-.58 6.07 6.07 0 0 0 -.34-.67l.35-.15.19.31.15.29c.05.09.09.19.14.29l.13.33zm1.12-.24a3.14 3.14 0 0 0 -.3-.61 5.12 5.12 0 0 0 -.4-.55l.35-.23.22.31.19.27.17.27c.05.09.12.2.18.32z"/><path d="m259.12 168.75h.63l1.25 4.55 1.75-4.55h.12l1.74 4.55 1.26-4.55h.63l-1.77 6.25h-.12l-1.81-4.77-1.8 4.77h-.11z"/><path d="m268.49 169.5h-.49l-.41.05v-.55l.88.05h2.35c.35 0 .64 0 .87-.05v.55l-.44-.05h-.51v2.43h.65.25.28v.57h-.26-.26-.66v2.21.72s0 .49.06.74h-.65c0-.25.05-.49.06-.73s0-.47 0-.73v-2.21h-1.21a10 10 0 0 1 -.07 1.14 8.46 8.46 0 0 1 -.17 1 5.44 5.44 0 0 1 -.3.86 5.55 5.55 0 0 1 -.43.79 1.27 1.27 0 0 0 -.25-.21 1.13 1.13 0 0 0 -.34-.11 2.92 2.92 0 0 0 .8-1.39 8.12 8.12 0 0 0 .26-2h-.65-.53v-.57h.26.92zm.5 0v2.43h1.24v-2.43zm5.84 3.91c.09 0 .12.07.12.11s-.06.08-.13.11a.61.61 0 0 0 -.23.17 4.14 4.14 0 0 0 -.39.41 5.83 5.83 0 0 1 -1.18 1 7.44 7.44 0 0 1 -1.52.76 1.7 1.7 0 0 0 -.17-.23 2 2 0 0 0 -.29-.24 5.51 5.51 0 0 0 2.11-1 4 4 0 0 0 1.21-1.52 1.1 1.1 0 0 0 .25.24.85.85 0 0 0 .22.18zm-.26-4.36a.76.76 0 0 0 -.28.13 2 2 0 0 0 -.31.28c-.13.15-.27.29-.4.43l-.41.38a5.44 5.44 0 0 1 -.43.36c-.14.12-.31.24-.48.37a1 1 0 0 0 -.2-.21 1 1 0 0 0 -.3-.16 4.79 4.79 0 0 0 2.3-2.19 2.51 2.51 0 0 0 .25.23l.27.16c.08 0 .11.09.11.13s-.04.04-.12.04zm.1 2.41a.77.77 0 0 0 -.25.11 1.62 1.62 0 0 0 -.34.26c-.19.19-.37.34-.51.48l-.43.35c-.14.11-.27.21-.41.3l-.49.32a1.57 1.57 0 0 0 -.47-.4 7.39 7.39 0 0 0 .85-.46 4.76 4.76 0 0 0 .65-.48 4.3 4.3 0 0 0 .92-1.11 2.15 2.15 0 0 0 .24.26l.26.19c.06 0 .09.08.08.12s-.04.05-.1.05z"/></g><path d="m72.57 163.71-16.66 16.66" fill="none" stroke="#e60012" stroke-linecap="round" stroke-linejoin="round" stroke-width="1.45"/><path d="m55.91 163.71 16.66 16.66" fill="none" stroke="#e60012" stroke-linecap="round" stroke-linejoin="round" stroke-width="1.45"/><path d="m55.39 163.08h17.74v17.74h-17.74z" fill="none" stroke="#363736" stroke-width=".25"/><path d="m133.87 60.59c-10.3 0-18.68-7.19-18.68-16s8.38-16 18.68-16 18.68 7.19 18.68 16-8.38 16-18.68 16zm0-30.59c-9.5 0-17.23 6.53-17.23 14.57s7.73 14.58 17.23 14.58 17.24-6.54 17.24-14.58-7.74-14.57-17.24-14.57z" fill="#e60012"/><path d="m243.61 60.59c-10.3 0-18.68-7.19-18.68-16s8.38-16 18.68-16 18.68 7.19 18.68 16-8.38 16-18.68 16zm0-30.59c-9.5 0-17.23 6.53-17.23 14.57s7.73 14.58 17.23 14.58 17.23-6.54 17.23-14.58-7.73-14.57-17.23-14.57z" fill="#e60012"/><path d="m185.11 255.2c1.64-13-2.3-25.32-9.48-35.91s-17.3-18.62-31.14-20c-2.84-.28-5.58-.86-8.47-.87a49.68 49.68 0 0 0 -16.72 2.77 40.57 40.57 0 0 0 -6.91 3.23c-5.44 3.19-8.39 5.47-12.26 10.78a88.45 88.45 0 0 0 -10.13 17.68c-4.27 10.16-4.28 25.57.67 35.75 2.67 5.5 7.62 10.06 12.18 13.77" fill="#fff"/><path d="m102.75 282.56c-4.25-3.45-9.47-8.15-12.24-13.84-4.82-9.92-5.11-25.36-.67-35.92a88.63 88.63 0 0 1 10.16-17.74c3.92-5.38 7-7.69 12.32-10.84a40.53 40.53 0 0 1 7-3.25 50.15 50.15 0 0 1 16.54-2.78h.14a44.13 44.13 0 0 1 5.6.51c.94.13 1.92.27 2.9.37 12.56 1.27 23.09 8 31.28 20.1 7.76 11.45 11 23.91 9.52 36.06l-.42-.06c1.53-12-1.74-24.41-9.45-35.76-8.11-12-18.54-18.67-31-19.93-1-.1-2-.23-2.91-.36a40 40 0 0 0 -5.54-.51 49.3 49.3 0 0 0 -16.65 2.75 40.76 40.76 0 0 0 -6.88 3.22c-5.3 3.12-8.32 5.4-12.19 10.73a88.28 88.28 0 0 0 -10.04 17.69c-4.4 10.46-4.11 25.76.66 35.58 2.74 5.62 7.92 10.27 12.13 13.7z" fill="#fff"/><path d="m132 197.17a1.25 1.25 0 0 1 -.45.32c.35-.11-.84-.51-.88-.51-.57-.07-1.24.62-1.72.83-1.27.56-5 1.91-5.59 3.37.13-.35 9.75.66 10.26.73 3.73.44 8.46.74 11.91-.73.36-.16 3.86 0 3.83-.43s-4.36-1.76-4.67-1.9a42.2 42.2 0 0 1 -4.9-2.44c-1.47-.87-1.92-.52-3.41.11-.37.16 1.27-1.57.72-1.37-.38.14.11-.11-.57-.63s-3.41 1.61-4.53 2.65z" fill="#fff"/><path d="m139 202.48a45 45 0 0 1 -5.36-.37c-1.39-.16-9.55-1-10.12-.76l-.06-.15-.25-.09c.52-1.33 3.32-2.49 5-3.18l.68-.29a3 3 0 0 0 .51-.31 2.17 2.17 0 0 1 1.32-.54 3.47 3.47 0 0 1 1 .42l.18-.17s3.71-3.48 4.8-2.66a1.13 1.13 0 0 1 .46.57.23.23 0 0 1 .26.09c.15.19 0 .42-.49 1a2.65 2.65 0 0 1 3 .14 39.78 39.78 0 0 0 4.89 2.43l.7.25c3.65 1.29 4.06 1.55 4.08 1.82a.28.28 0 0 1 -.07.21c-.2.22-.84.28-2.57.34a9.38 9.38 0 0 0 -1.31.09 17.19 17.19 0 0 1 -6.65 1.16zm-14.92-1.58c.69 0 2 .08 4.33.28s5 .49 5.27.52c3.7.44 8.37.75 11.81-.71a5.87 5.87 0 0 1 1.45-.12 18 18 0 0 0 2.1-.15c-.66-.36-2.87-1.14-3.66-1.41l-.73-.27a42.73 42.73 0 0 1 -4.93-2.45c-1.24-.74-1.65-.56-2.84 0l-.38.16a.21.21 0 0 1 -.29-.06c-.13-.16 0-.32.38-.83l.32-.44a.31.31 0 0 1 -.12-.22c0-.08 0-.22-.32-.45-.48-.36-2.64 1.09-4.26 2.63l-.14-.15.14.15a1.5 1.5 0 0 1 -.52.37l-.12-.4a.17.17 0 0 0 -.08.11.16.16 0 0 0 0 .13 3.38 3.38 0 0 0 -.82-.35 2.11 2.11 0 0 0 -1 .48 4.49 4.49 0 0 1 -.57.34l-.7.3c-1.36.56-3.79 1.56-4.58 2.61z" fill="#fff"/><path d="m168.53 282.41a41.58 41.58 0 0 0 11.12-11.69 38.28 38.28 0 0 0 5.39-15c0-.17.05-.34.07-.51 1.64-13-2.3-25.32-9.48-35.91a57.94 57.94 0 0 0 -3.95-5.18 9.24 9.24 0 0 0 2.64-7.52 9.4 9.4 0 0 0 -10.21-8.22 8.87 8.87 0 0 0 -7.4 4.17 38.38 38.38 0 0 0 -10-3c-1-.35-1.88-.66-2-.72a42.2 42.2 0 0 1 -4.9-2.44c-1.47-.87-1.92-.52-3.41.11-.37.16 1.27-1.57.72-1.37-.38.14.11-.11-.57-.63s-3.44 1.61-4.53 2.65a1.25 1.25 0 0 1 -.45.32c.35-.11-.84-.51-.88-.51-.57-.07-1.24.62-1.72.83a36.78 36.78 0 0 0 -3.8 1.75 47.77 47.77 0 0 0 -5.88 1.61 39.42 39.42 0 0 0 -6.56 3.05 10.16 10.16 0 1 0 -14.54 13.8 85.58 85.58 0 0 0 -8.19 14.88c-4.27 10.16-4.28 25.57.67 35.75 2.67 5.5 7.62 10.06 12.18 13.77a47.79 47.79 0 0 0 23 9.71c14.08 2.14 30.58-1 42.68-9.7z" fill="#fff"/><path d="m134.63 293.26a58.68 58.68 0 0 1 -8.81-.66 48.32 48.32 0 0 1 -23.26-9.81c-4.26-3.48-9.52-8.2-12.31-13.94-4.86-10-5.15-25.53-.68-36.17a86.91 86.91 0 0 1 7.94-14.57 10.66 10.66 0 1 1 15.37-14.55 40.34 40.34 0 0 1 6.26-2.86 46 46 0 0 1 5.86-1.61 26.92 26.92 0 0 1 3.1-1.45l.67-.28a2.46 2.46 0 0 0 .46-.29 2.46 2.46 0 0 1 1.53-.59 3.67 3.67 0 0 1 .91.34c.65-.61 3.93-3.62 5.18-2.69a1.63 1.63 0 0 1 .48.54.49.49 0 0 1 .3.19.54.54 0 0 1 0 .63 2.87 2.87 0 0 1 2.41.5 43 43 0 0 0 4.85 2.42l.68.24 1.31.46a39.19 39.19 0 0 1 9.61 2.8 9.54 9.54 0 0 1 7.56-4 9.94 9.94 0 0 1 10.74 8.67 9.77 9.77 0 0 1 -2.47 7.59 58.34 58.34 0 0 1 3.68 4.83c7.8 11.5 11.11 24 9.57 36.25l-.07.52a38.88 38.88 0 0 1 -5.46 15.2 42.28 42.28 0 0 1 -11.26 11.84c-9.29 6.71-21.78 10.45-34.15 10.45zm-30.31-93a8.94 8.94 0 0 0 -1 .06 9.67 9.67 0 0 0 -8.58 10.64 9.57 9.57 0 0 0 3.79 6.67.5.5 0 0 1 .11.68 86.73 86.73 0 0 0 -8.11 14.79c-4.37 10.4-4.09 25.59.66 35.34 2.7 5.57 7.86 10.19 12 13.6a47.33 47.33 0 0 0 22.78 9.6c14.7 2.24 30.9-1.44 42.27-9.61a41.07 41.07 0 0 0 11-11.55 38 38 0 0 0 5.32-14.81l.06-.51c1.52-12-1.73-24.26-9.4-35.56a57.49 57.49 0 0 0 -3.91-5.14.49.49 0 0 1 0-.67 8.75 8.75 0 0 0 2.5-7.11 8.92 8.92 0 0 0 -9.67-7.79 8.34 8.34 0 0 0 -7 3.93.5.5 0 0 1 -.64.2 38.21 38.21 0 0 0 -9.85-2.92l-1.39-.49-.74-.27a42.62 42.62 0 0 1 -5-2.47c-1.12-.66-1.4-.54-2.57 0l-.38.16a.58.58 0 0 1 -.65-.15c-.26-.34-.05-.63.38-1.19a2.71 2.71 0 0 0 .19-.25.75.75 0 0 1 -.07-.23s0-.1-.2-.24c-.44-.11-2.37 1.17-3.89 2.61a1.78 1.78 0 0 1 -.64.44.5.5 0 0 1 -.62-.31c-.18-.08-.43-.17-.53-.2a2.67 2.67 0 0 0 -.77.44 4.37 4.37 0 0 1 -.62.37l-.7.29a29 29 0 0 0 -3 1.43l-.15.06a44.85 44.85 0 0 0 -5.81 1.59 39.09 39.09 0 0 0 -6.48 3 .5.5 0 0 1 -.67-.15 9.63 9.63 0 0 0 -8.02-4.31z" fill="#221714"/><path d="m134.2 252a4.08 4.08 0 0 1 -2.38-.8 2 2 0 0 1 0-3.25c1.45-.88 3.77-.41 5.36-.38a15.64 15.64 0 0 1 4.48.36c1.48.47-.64 3.27-1.55 3.87a7.28 7.28 0 0 1 -8.18-.44c-1.88-1.46-1.63-3.6 1-3.74" fill="#211512"/><path d="m133.13 262.08a5.24 5.24 0 0 1 -1.5-.22 3.92 3.92 0 0 1 -2.4-1.82.84.84 0 0 1 .35-1.12.82.82 0 0 1 1.11.35 2.35 2.35 0 0 0 1.41 1 3.08 3.08 0 0 0 2.26-.13 5.08 5.08 0 0 0 1.61-1.59.79.79 0 0 1 .78-.83.83.83 0 0 1 .86.81c.06 1.46-2.42 3-2.45 3a4.23 4.23 0 0 1 -2.03.55z" fill="#211512"/><path d="m140.75 261.8c-.32 0-.64 0-.95-.05-2.33-.21-3.68-2.67-3.74-2.78a.81.81 0 0 1 .33-1.11.82.82 0 0 1 1.12.33s1 1.79 2.44 1.92c2 .18 2.75-.2 3.09-1.53a.83.83 0 0 1 1.6.41 3.55 3.55 0 0 1 -3.89 2.81z" fill="#211512"/><path d="m132.43 261a2.22 2.22 0 0 0 .14.32 4.87 4.87 0 0 0 6.65 2.25 4.37 4.37 0 0 0 1.9-1.67 7.41 7.41 0 0 0 .81-1.55 7.34 7.34 0 0 1 -3.08-.16 9.8 9.8 0 0 0 -2.1-.56c-1.56 0-2.95.86-4.36 1.21.43.77.44 1.64 1.38 2.29a4.29 4.29 0 0 0 3.42.49" fill="#211512"/><path d="m125.32 243.09a3.18 3.18 0 1 1 -2.42-3.8 3.18 3.18 0 0 1 2.42 3.8z" fill="#140509"/><path d="m123.68 241.34a1.08 1.08 0 1 1 -1.36-.68 1.07 1.07 0 0 1 1.36.68z" fill="#fff"/><path d="m153 242.23a3.18 3.18 0 1 1 -2.36-3.83 3.19 3.19 0 0 1 2.36 3.83z" fill="#140509"/><path d="m151.36 240.46a1.07 1.07 0 0 1 -.7 1.35 1.08 1.08 0 1 1 .7-1.35z" fill="#fff"/><path d="m136.53 271.75c-10.3 0-18.68-7.18-18.68-16s8.38-16 18.68-16 18.68 7.18 18.68 16-8.38 16-18.68 16zm0-30.59c-9.5 0-17.23 6.54-17.23 14.58s7.73 14.57 17.23 14.57 17.24-6.54 17.24-14.57-7.77-14.58-17.24-14.58z" fill="#e60012"/><path d="m248.27 274c-10.3 0-18.68-7.19-18.68-16s8.38-16 18.68-16 18.73 7.12 18.73 16-8.43 16-18.73 16zm0-30.59c-9.51 0-17.24 6.54-17.24 14.57s7.73 14.58 17.24 14.58 17.23-6.56 17.23-14.56-7.73-14.62-17.23-14.62z" fill="#e60012"/><path d="m82.67 318.2h.61v3.68a6.2 6.2 0 0 0 0 .86 1.09 1.09 0 0 0 .2.56 1.13 1.13 0 0 0 .49.42 1.41 1.41 0 0 0 .67.16 1.44 1.44 0 0 0 .64-.13 1.37 1.37 0 0 0 .46-.37 1.32 1.32 0 0 0 .25-.52 4.32 4.32 0 0 0 .08-1v-3.66h.6v3.68a4 4 0 0 1 -.19 1.42 1.71 1.71 0 0 1 -.66.83 1.86 1.86 0 0 1 -1.1.33 2.43 2.43 0 0 1 -.92-.17 1.82 1.82 0 0 1 -.68-.46 1.7 1.7 0 0 1 -.38-.66 5.3 5.3 0 0 1 -.11-1.29z" fill="#383736"/><path d="m88.16 324.31v-6.26h.57v2.52a2.28 2.28 0 0 1 1.81-.9 2.23 2.23 0 0 1 1.65.7 2.45 2.45 0 0 1 0 3.38 2.23 2.23 0 0 1 -1.65.71 2.15 2.15 0 0 1 -1.8-1v.84zm.54-2.31a1.82 1.82 0 0 0 .52 1.33 1.65 1.65 0 0 0 1.26.55 1.69 1.69 0 0 0 1.27-.55 1.83 1.83 0 0 0 .53-1.3 1.85 1.85 0 0 0 -.51-1.3 1.67 1.67 0 0 0 -1.28-.55 1.73 1.73 0 0 0 -1.28.52 1.79 1.79 0 0 0 -.51 1.3z" fill="#383736"/><path d="m97.72 322.84.49.26a2.33 2.33 0 0 1 -2.16 1.36 2.2 2.2 0 0 1 -1.68-.7 2.49 2.49 0 0 1 0-3.38 2.2 2.2 0 0 1 1.65-.71 2.24 2.24 0 0 1 1.65.66 2.4 2.4 0 0 1 .69 1.78h-4.06a1.9 1.9 0 0 0 .52 1.32 1.59 1.59 0 0 0 1.18.49 1.84 1.84 0 0 0 1.72-1.08zm0-1.23a1.57 1.57 0 0 0 -.6-1 1.74 1.74 0 0 0 -1.09-.36 1.63 1.63 0 0 0 -1.67 1.37z" fill="#383736"/><path d="m103.94 319.79v4.52h-.57v-.78a2.24 2.24 0 0 1 -3.45.22 2.37 2.37 0 0 1 -.68-1.69 2.33 2.33 0 0 1 .69-1.69 2.26 2.26 0 0 1 1.65-.7 2.13 2.13 0 0 1 1.79.95v-.83zm-.54 2.28a1.8 1.8 0 0 0 -.51-1.3 1.79 1.79 0 0 0 -2.55 0 1.85 1.85 0 0 0 -.51 1.3 1.82 1.82 0 0 0 .52 1.3 1.69 1.69 0 0 0 1.26.54 1.72 1.72 0 0 0 1.27-.52 1.81 1.81 0 0 0 .52-1.32z" fill="#383736"/><path d="m105 319.79h.59v.66a2.37 2.37 0 0 1 .47-.59.78.78 0 0 1 .5-.19 1.05 1.05 0 0 1 .55.16l-.3.49a.53.53 0 0 0 -.27-.08.63.63 0 0 0 -.49.28 1.71 1.71 0 0 0 -.35.7 7.48 7.48 0 0 0 -.11 1.56v1.53h-.59z" fill="#383736"/><path d="m109.26 324.23-.22.34c-.08.13-.18.26-.28.4l-.3.39a2.22 2.22 0 0 1 -.28.31l-.46-.29c.14-.13.27-.24.37-.35l.27-.32c.08-.11.15-.23.22-.35s.15-.26.23-.42zm2.4-1h1.87l1.4-.05v.53h-.71-.8-4.14-.8-.71v-.53h.68.76 1.94v-.89h-1.48-1.12v-.5h1.12 1.48v-.79h-1.51-.57-.52a1.82 1.82 0 0 0 0-.32c0-.1 0-.21 0-.32s0-.23 0-.35v-.43c0-.32 0-.59 0-.81s0-.43 0-.65h.56 4.64.55v.66s0 .49 0 .8v.44.34s0 .21 0 .31 0 .21 0 .32h-.52-.58-1.54v1.01h1.49 1.12v.5h-1.12-1.49zm-.51-4.46h-2v2h2zm-.79 1.75a5.65 5.65 0 0 0 -.4-.72 5.47 5.47 0 0 0 -.4-.52l.4-.27a6.55 6.55 0 0 1 .45.59 8 8 0 0 1 .43.7zm.31 4.92a4.49 4.49 0 0 0 -.24-.67 2.68 2.68 0 0 0 -.37-.61l.43-.21a4.92 4.92 0 0 1 .37.6c.13.23.24.47.34.69zm1-4.69h2.1v-2h-2.1zm.91 4.58a2.63 2.63 0 0 0 -.15-.33c0-.09-.09-.18-.14-.27a3.1 3.1 0 0 0 -.18-.26c-.07-.08-.15-.19-.25-.3l.42-.25c.15.19.3.4.43.6a6.39 6.39 0 0 1 .35.58zm.77-6.05-.16.16a1.78 1.78 0 0 0 -.19.23 4.4 4.4 0 0 0 -.27.35l-.36.53-.42-.25a6.21 6.21 0 0 0 .52-.63 4.79 4.79 0 0 0 .42-.68zm1.28 6.22c-.07-.13-.14-.24-.2-.34l-.22-.3-.28-.33-.37-.4.37-.3c.25.25.48.48.67.69s.35.42.5.62z" fill="#383736"/><path d="m117.51 324.07-.17.4c-.07.15-.13.29-.2.43s-.15.27-.22.4a2.09 2.09 0 0 1 -.19.29l-.55-.2a7.32 7.32 0 0 0 .49-.69 3 3 0 0 0 .34-.79zm1.75-4.63-.24-.25a2.61 2.61 0 0 0 -.24-.23l.32-.31.33.34.25.27.22.27.26.33-.38.29-.12-.19-.13-.18-2.26.15h-.49a1.61 1.61 0 0 0 -.33.06 1.15 1.15 0 0 0 -.17-.54h.42l.44-.41.35-.36c.11-.12.21-.25.3-.37l.29-.42a1.81 1.81 0 0 0 .48.3q.16.08 0 .15l-.17.09-.24.19-.35.33-.52.5zm-2.06 4.19h-.56c0-.17 0-.32 0-.45s0-.25 0-.36 0-.2 0-.3v-1.39c0-.2 0-.36 0-.48a2.25 2.25 0 0 0 -.06-.36 1.26 1.26 0 0 0 .3 0h.39 1.23.42.4a1.83 1.83 0 0 0 .35 0 2.63 2.63 0 0 0 -.06.39v.45 1.87a1 1 0 0 1 0 .32.4.4 0 0 1 -.17.22 1 1 0 0 1 -.36.11 5.11 5.11 0 0 1 -.62 0 .93.93 0 0 0 0-.25 1 1 0 0 0 -.14-.26 2.3 2.3 0 0 0 .48 0 .7.7 0 0 0 .28-.05.29.29 0 0 0 .12-.15.88.88 0 0 0 0-.24v-.28h-2zm2-2.38v-.51h-2v.51zm-2 .34v.5h2v-.5zm1.63 4a6.74 6.74 0 0 0 -.17-.75 4.94 4.94 0 0 0 -.25-.71l.47-.11a2.2 2.2 0 0 1 .12.32c0 .13.09.26.13.4s.08.28.11.42.06.25.08.35zm1.83-.17c0-.12-.08-.24-.12-.38s-.1-.27-.16-.4-.11-.24-.17-.35a1.09 1.09 0 0 0 -.15-.25l.44-.18.3.58c.1.21.22.48.36.8zm.19-3.53c.51-.12.92-.24 1.22-.34a2.91 2.91 0 0 0 .73-.36l.14.22.15.17c.07.07.1.13.08.18s-.08.08-.19.06h-.2l-.34.06-.61.14-1 .25v.45a.69.69 0 0 0 0 .22.26.26 0 0 0 .13.12.75.75 0 0 0 .28.07h.51a5.94 5.94 0 0 0 .67 0 .74.74 0 0 0 .37-.13.46.46 0 0 0 .19-.26 2.51 2.51 0 0 0 .11-.42.85.85 0 0 0 .23.2.87.87 0 0 0 .26.08 2.49 2.49 0 0 1 -.22.53.77.77 0 0 1 -.32.3 1.36 1.36 0 0 1 -.52.13h-.84a7.2 7.2 0 0 1 -.75 0 .74.74 0 0 1 -.41-.12.45.45 0 0 1 -.17-.29 3.51 3.51 0 0 1 0-.53v-1c0-.14 0-.27 0-.37s0-.22 0-.35a2.59 2.59 0 0 0 .63.08c.08 0 .12 0 .13.06s0 .09-.09.15a.56.56 0 0 0 -.15.43zm0-2.66.67-.15.49-.15a2.59 2.59 0 0 0 .37-.15 3.07 3.07 0 0 0 .31-.17 1.86 1.86 0 0 0 .13.23 1.12 1.12 0 0 0 .16.19c.08.07.1.12.09.17s-.08.05-.19 0h-.21a3.12 3.12 0 0 0 -.35 0c-.15 0-.34.06-.57.12l-.9.21v.24a1.27 1.27 0 0 0 0 .22.24.24 0 0 0 .12.14.67.67 0 0 0 .28.07 3.3 3.3 0 0 0 .51 0 4.34 4.34 0 0 0 .57 0 .85.85 0 0 0 .36-.12.58.58 0 0 0 .21-.25 2 2 0 0 0 .11-.4.55.55 0 0 0 .2.2.86.86 0 0 0 .27.09 3.22 3.22 0 0 1 -.24.46 1.06 1.06 0 0 1 -.29.27 1.4 1.4 0 0 1 -.47.12 5.26 5.26 0 0 1 -.76 0h-.75a.9.9 0 0 1 -.4-.12.43.43 0 0 1 -.17-.29 2.43 2.43 0 0 1 0-.52v-.86c0-.15 0-.27 0-.37a2.35 2.35 0 0 0 0-.34 1 1 0 0 0 .28.05h.32.14s0 .08-.1.14a.4.4 0 0 0 -.11.18 1.32 1.32 0 0 0 0 .3zm2 6.27a8.69 8.69 0 0 0 -.51-.8c-.21-.28-.41-.52-.6-.74l.37-.25a9 9 0 0 1 .6.69c.21.27.4.54.59.82z" fill="#383736"/><path d="m127.43 319.41h-.75-.62-.56-.58v-.55h.61.59.67.83a5.36 5.36 0 0 0 .2-.57c.07-.2.13-.44.2-.71a1.53 1.53 0 0 0 .27.11 1.59 1.59 0 0 0 .3.06c.09 0 .14.05.15.1s0 .12-.12.17l-.05.06-.08.12a2.73 2.73 0 0 0 -.13.25c-.06.11-.12.24-.2.41h3 .49.52v.55h-.83-.86-2.48l-.26.55a6.22 6.22 0 0 1 -.32.56h3 .55.36s0 .1 0 .18a2.5 2.5 0 0 1 0 .25 2.45 2.45 0 0 0 0 .27 2.36 2.36 0 0 0 0 .25v3.32a1.41 1.41 0 0 1 0 .39.39.39 0 0 1 -.17.25.89.89 0 0 1 -.39.14c-.17 0-.4.05-.69.07a1.23 1.23 0 0 0 0-.31 1.59 1.59 0 0 0 -.18-.32l.51.06a.8.8 0 0 0 .3 0 .26.26 0 0 0 .14-.15 1 1 0 0 0 0-.27v-.88h-3.54v2h-.58c0-.23 0-.45 0-.65s0-.39 0-.56v-3a7.59 7.59 0 0 1 -.69.71c-.25.23-.55.47-.88.73a.58.58 0 0 0 -.13-.26.77.77 0 0 0 -.32-.2c.33-.22.63-.43.9-.64a7.05 7.05 0 0 0 .75-.69 6.18 6.18 0 0 0 .62-.79 7.64 7.64 0 0 0 .45-1.01zm3.3 2.52v-1h-3.54v1zm-3.54.4v.94h3.54v-.94z" fill="#383736"/><path d="m137 321.28a5.16 5.16 0 0 1 -.4 1.06 7.37 7.37 0 0 1 -.72 1.1 10.25 10.25 0 0 1 -1 1.07 9.61 9.61 0 0 1 -1.35 1 .78.78 0 0 0 -.17-.28 1 1 0 0 0 -.3-.2 7.24 7.24 0 0 0 1.37-.83 6.21 6.21 0 0 0 1.1-1.07 5.69 5.69 0 0 0 .76-1.28 4.79 4.79 0 0 0 .35-1.47c0-.26 0-.48.06-.67s0-.35 0-.51a4 4 0 0 0 0-.49c0-.17 0-.38-.07-.62a2.55 2.55 0 0 0 .72.07.11.11 0 0 1 .12.07s0 .09-.07.13a.19.19 0 0 0 -.07.14q0 .09 0 .27v.31.41.46s0 .31 0 .47a8.59 8.59 0 0 0 .36.91c.15.3.32.59.49.87a7.64 7.64 0 0 0 .58.79 7 7 0 0 0 .62.69c.19.19.36.34.51.47a3.67 3.67 0 0 0 .41.34 3.28 3.28 0 0 0 .37.24l.4.19a1.34 1.34 0 0 0 -.51.54c-.15-.11-.29-.21-.42-.32s-.27-.21-.4-.33-.27-.25-.4-.39l-.44-.46a9.84 9.84 0 0 1 -1-1.33 8.53 8.53 0 0 1 -.9-1.35z" fill="#383736"/><path d="m145.72 324.14v.92s0 .47.06.67h-.71c0-.2 0-.43 0-.67s0-.56 0-.92v-1.35h-2.31v.74h-.59c0-.18 0-.37 0-.57s0-.39 0-.57v-2c0-.14 0-.3 0-.46s0-.3 0-.41a9.81 9.81 0 0 0 1 .06q.72 0 1.86 0v-.58c0-.21 0-.42 0-.62a4.21 4.21 0 0 0 -.06-.55l.39.06a1.84 1.84 0 0 0 .31 0c.09 0 .15 0 .16.07s0 .09-.12.14a.25.25 0 0 0 -.08.12 1.09 1.09 0 0 0 0 .22v1.15h1.82a9.91 9.91 0 0 0 1-.06 1.18 1.18 0 0 0 0 .22 2.26 2.26 0 0 0 0 .27v.29a2.54 2.54 0 0 0 0 .26v1.73.6a5.53 5.53 0 0 0 0 .61h-.45v-.67h-2.25zm-.56-4.14h-2.31v2.35h2.31zm.56 2.35h2.28v-2.35h-2.25z" fill="#383736"/><path d="m154.35 321.92a1.19 1.19 0 0 1 -.88 1.33v-.37a.58.58 0 0 0 .38-.27 1.34 1.34 0 0 0 .15-.61h-.49v-.91h.88z" fill="#383736"/><path d="m159.61 322.5v.88a5.6 5.6 0 0 1 -.1.76 4.83 4.83 0 0 1 -.17.68 4.37 4.37 0 0 1 -.27.64 1.63 1.63 0 0 0 -.25-.1 1.32 1.32 0 0 0 -.3 0 3.32 3.32 0 0 0 .35-.67 4.18 4.18 0 0 0 .19-.74 9.05 9.05 0 0 0 .07-1c0-.4 0-.89 0-1.49v-2.62c0-.17 0-.32 0-.43h.24 1.32.48a1.85 1.85 0 0 0 0 .23 1.77 1.77 0 0 0 0 .23v1.7a5 5 0 0 0 1.41-1.09 5.32 5.32 0 0 0 1-1.55 1.2 1.2 0 0 0 .51.16c.07 0 .11 0 .11.08a.21.21 0 0 1 -.11.14h-.06a7.44 7.44 0 0 0 .58.73 4.48 4.48 0 0 0 .6.56 6 6 0 0 0 .63.44 6.89 6.89 0 0 0 .66.34 1.21 1.21 0 0 0 -.2.26 2.43 2.43 0 0 0 -.15.26l-.54-.39-.49-.4v.46h-.24-2-.24v-.48h.24 2 .23a6.09 6.09 0 0 1 -.68-.66 7.81 7.81 0 0 1 -.62-.81 6.65 6.65 0 0 1 -.41.62 5.08 5.08 0 0 1 -.47.57c-.18.19-.37.38-.58.57s-.45.39-.71.59a.86.86 0 0 0 -.15-.2.84.84 0 0 0 -.22-.17v4a1 1 0 0 1 0 .31.52.52 0 0 1 -.18.21 1.31 1.31 0 0 1 -.38.12 3.93 3.93 0 0 1 -.66 0 1.39 1.39 0 0 0 0-.32 1.71 1.71 0 0 0 -.15-.31 3.89 3.89 0 0 0 .53.09.52.52 0 0 0 .29 0 .19.19 0 0 0 .12-.15 1.91 1.91 0 0 0 0-.28v-1.77zm1-2.21v-1.43h-1v1.43zm-1 .41v1.38h1v-1.38zm2.92 3.17a5.85 5.85 0 0 1 -.44.87 5.69 5.69 0 0 1 -.5.71.88.88 0 0 0 -.51-.29 3.47 3.47 0 0 0 .44-.39 2.25 2.25 0 0 0 .35-.45 2.84 2.84 0 0 0 .28-.55q.12-.31.24-.72h-.39-.26c0-.12 0-.27 0-.45v-1c0-.18 0-.33 0-.45h.12 1.24.32v.45s0 .35 0 .52 0 .35 0 .52 0 .32 0 .44h-.28-.38a1 1 0 0 1 -.05.25 2.17 2.17 0 0 1 -.07.24l.57.37c.18.13.36.27.52.41l-.34.39a2.39 2.39 0 0 0 -.38-.43 4.72 4.72 0 0 0 -.48-.44zm.46-2.31h-.77v1.13h.78zm1.66 2.51a5.21 5.21 0 0 1 -.37.75 7.9 7.9 0 0 1 -.54.78.81.81 0 0 0 -.19-.18.92.92 0 0 0 -.28-.14 3.61 3.61 0 0 0 .44-.43 2.21 2.21 0 0 0 .33-.47 3.2 3.2 0 0 0 .26-.56 6.49 6.49 0 0 0 .22-.73h-.34-.24c0-.12 0-.27 0-.46s0-.36 0-.53 0-.35 0-.54 0-.34 0-.46h.38 1a2.89 2.89 0 0 0 .37 0v.46 1.07.46h-.33-.44c0 .1 0 .2-.05.3s-.06.21-.08.31c.24.2.5.42.75.67s.49.47.7.69l-.4.37a2.86 2.86 0 0 0 -.21-.29l-.3-.35-.34-.37zm.56-2.51h-.81v1.15h.81z" fill="#383736"/><path d="m171 320.65h1.4.84.47.29v.56h-.28-2.72v3.54h2.28.69.67v.57h-.48-.44-4.79-.85-.81v-.57h.73.72.79.93v-5.49c0-.29 0-.51 0-.66a3.63 3.63 0 0 0 0-.39 2.87 2.87 0 0 0 .72.08h.13s0 .07-.08.11-.16.2-.16.42z" fill="#383736"/><path d="m178.43 319.41h-.75-.62-.56-.58v-.55h.61.59.67.83a5.36 5.36 0 0 0 .2-.57c.07-.2.13-.44.2-.71a1.53 1.53 0 0 0 .27.11 1.59 1.59 0 0 0 .3.06c.09 0 .14.05.15.1s0 .12-.12.17l-.05.06-.08.12a2.73 2.73 0 0 0 -.13.25c-.06.11-.12.24-.2.41h3 .49.52v.55h-.83-.86-2.48l-.26.55a6.22 6.22 0 0 1 -.32.56h3 .55.36s0 .1 0 .18a2.5 2.5 0 0 1 0 .25 2.45 2.45 0 0 0 0 .27 2.36 2.36 0 0 0 0 .25v3.32a1.41 1.41 0 0 1 0 .39.39.39 0 0 1 -.17.25.89.89 0 0 1 -.39.14c-.17 0-.4.05-.69.07a1.23 1.23 0 0 0 0-.31 1.59 1.59 0 0 0 -.18-.32l.51.06a.8.8 0 0 0 .3 0 .26.26 0 0 0 .14-.15 1 1 0 0 0 0-.27v-.88h-3.54v2h-.58c0-.23 0-.45 0-.65s0-.39 0-.56v-3a7.59 7.59 0 0 1 -.69.71c-.25.23-.55.47-.88.73a.58.58 0 0 0 -.13-.26.77.77 0 0 0 -.32-.2c.33-.22.63-.43.9-.64a7.05 7.05 0 0 0 .75-.69 6.18 6.18 0 0 0 .62-.79 7.64 7.64 0 0 0 .45-1.01zm3.3 2.52v-1h-3.54v1zm-3.54.4v.94h3.54v-.94z" fill="#383736"/><path d="m186.64 319.18c.1-.17.18-.32.25-.45l.18-.36.11-.28a1.13 1.13 0 0 0 .08-.24 1.64 1.64 0 0 0 .33.16 2 2 0 0 0 .34.1c.07 0 .11.05.11.09s0 .07-.15.1a.2.2 0 0 0 -.09.05.72.72 0 0 0 -.14.13l-.2.26c-.08.11-.18.26-.29.44h2.5.49.42.31v.33s0 .22 0 .34v4.44.35.33.28s0 .15 0 .2h-.58v-.76h-4.82v.85h-.57q0-.19 0-.54c0-.22 0-.5 0-.82v-4.33c0-.12 0-.23 0-.35s0-.22 0-.32a6.4 6.4 0 0 0 .64 0zm3.67 2.48v-2h-4.82v2zm-4.82.44v2.09h4.82v-2.09z" fill="#383736"/><path d="m193.7 320.54-.3.3-.36.36a1 1 0 0 0 -.23-.23 1 1 0 0 0 -.29-.14 7.43 7.43 0 0 0 1.46-1.29 8 8 0 0 0 1.16-1.79 1.77 1.77 0 0 0 .23.19 1.56 1.56 0 0 0 .26.11c.1 0 .14.07.14.12s-.05.09-.15.13a.5.5 0 0 0 -.23.18 3.5 3.5 0 0 0 -.33.43h2.53.44.4.29l-1.56 1.74h1.35.73v.6s0 .41 0 .66 0 .47 0 .71 0 .42 0 .57h-.2-4.78v1.27a1 1 0 0 0 0 .26.31.31 0 0 0 .13.17.7.7 0 0 0 .26.11 3.17 3.17 0 0 0 .43.06h.86.9.85.72a4 4 0 0 0 .6-.08.91.91 0 0 0 .37-.18.66.66 0 0 0 .21-.34 2.88 2.88 0 0 0 .11-.57.84.84 0 0 0 .25.22 1 1 0 0 0 .3.08 4.9 4.9 0 0 1 -.21.69 1 1 0 0 1 -.27.38.8.8 0 0 1 -.39.19 5.77 5.77 0 0 1 -.61.08h-.41-.63-2.65c-.31 0-.56 0-.75-.07a1.06 1.06 0 0 1 -.41-.16.41.41 0 0 1 -.18-.27 1.58 1.58 0 0 1 0-.41v-2.86c.01-.45-.01-.76-.04-1.22zm1.06-1.21a2.21 2.21 0 0 1 -.22.29l-.22.27-.26.29-.33.34h.3.49 2l1.1-1.24zm-.48 1.66v1.62h2v-1.61zm4.4 1.62v-1.61h-1.86v1.62z" fill="#383736"/><path d="m202.28 320.49c-.21 0-.41 0-.59 0l-.54.05v-.54l.51.06h.62c0-.6 0-1.05 0-1.35s0-.51 0-.62a1.4 1.4 0 0 0 .34.05h.33.11s0 .06-.08.09a.24.24 0 0 0 -.08.09.2.2 0 0 0 0 .13v1.55h.53l.44-.06v.57l-.45-.05a4.1 4.1 0 0 0 -.52 0v2.68l.5-.17.5-.19a.77.77 0 0 0 0 .25.62.62 0 0 0 0 .23c-.2.05-.42.12-.65.2l-.69.24-.65.27c-.21.09-.39.17-.54.25a1.15 1.15 0 0 0 -.08-.29.91.91 0 0 0 -.17-.28 5.34 5.34 0 0 0 .57-.12l.68-.21zm2.93-1.62c.06-.15.11-.31.16-.47s.07-.33.1-.5l.35.12.31.08c.05 0 .07 0 .08.06s0 .06-.08.09-.28.26-.45.62h.89.67.48.31a2.91 2.91 0 0 0 -.05.4v.48 1.54.48a2.35 2.35 0 0 0 .05.37h-2.23a5.67 5.67 0 0 1 -.26 1.06 4.06 4.06 0 0 1 -.43.89 4.77 4.77 0 0 1 -.66.79 9.61 9.61 0 0 1 -.92.8 1.13 1.13 0 0 0 -.22-.27.65.65 0 0 0 -.27-.17 4.6 4.6 0 0 0 1.62-1.35 3.8 3.8 0 0 0 .69-1.75h-.9v.55h-.53c0-.13 0-.26.05-.41s0-.3 0-.45v-2.07c0-.21 0-.37 0-.5a2.65 2.65 0 0 0 -.05-.38 4.34 4.34 0 0 0 .52 0c.22-.02.48-.01.77-.01zm.54 1.41v-1h-1.3v1zm-1.3.37v1h1.3v-1zm1.48 1.69a1.25 1.25 0 0 0 .3.05.56.56 0 0 0 .26 0h.12s0 .06 0 .1a.46.46 0 0 0 -.12.23 2.46 2.46 0 0 0 0 .46v1.33a.63.63 0 0 0 0 .16.13.13 0 0 0 .1.1.59.59 0 0 0 .24.06h.95a.67.67 0 0 0 .28-.07.35.35 0 0 0 .17-.17 1.2 1.2 0 0 0 .09-.3 1.5 1.5 0 0 0 .5.26 1.61 1.61 0 0 1 -.17.37.54.54 0 0 1 -.25.22 1.23 1.23 0 0 1 -.43.11 5.94 5.94 0 0 1 -.67 0h-.7a1.09 1.09 0 0 1 -.39-.1.29.29 0 0 1 -.21-.15 1.49 1.49 0 0 1 0-.33v-1.78a1.62 1.62 0 0 0 0-.23c0-.06 0-.12 0-.17zm1.57-2.06v-1h-1.3v1zm-1.3.37v1h1.3v-1zm1.74 3.08-.13-.33c-.05-.1-.1-.2-.15-.28l.34-.12c.1.21.2.42.28.61s.15.39.21.58l-.39.17a1.06 1.06 0 0 0 0-.14.56.56 0 0 0 0-.15l-.71.12a1.26 1.26 0 0 0 -.28.07 1.73 1.73 0 0 0 -.32.11l-.08-.25a1.88 1.88 0 0 0 -.16-.25h.24a7 7 0 0 0 .34-.77 4.45 4.45 0 0 0 .24-.78l.24.12.27.09c.07 0 .11 0 .11.07s0 .07-.1.1l-.09.05a1.16 1.16 0 0 0 -.13.15l-.19.34-.3.59z" fill="#383736"/><path d="m72.57 313.16-16.66 16.66" fill="none" stroke="#e60012" stroke-linecap="round" stroke-linejoin="round" stroke-width="1.45"/><path d="m55.91 313.16 16.66 16.66" fill="none" stroke="#e60012" stroke-linecap="round" stroke-linejoin="round" stroke-width="1.45"/><path d="m55.39 312.53h17.74v17.74h-17.74z" fill="none" stroke="#363736" stroke-width=".25"/><path d="m179.75 375.42c-6.52-11.43-16.12-20.32-30.16-22.9-2.89-.53-5.63-1.35-8.59-1.61a51.64 51.64 0 0 0 -17.33 1.39 41.27 41.27 0 0 0 -7.35 2.7c-5.82 2.77-9 4.82-13.44 9.88a89.08 89.08 0 0 0 -11.81 17.12c-5.22 9.93-6.53 25.54-2.32 36.27 2.27 5.79 7 10.83 11.3 15 24.29 23.13 78.48 16.55 86.39-20.59 2.77-13.1-.23-25.92-6.69-37.26z" fill="#221714"/><path d="m164.42 350.64a8.42 8.42 0 0 1 2.27 3.45 6.26 6.26 0 0 1 -.47 4.21c-2.22 4.86-7.22 6.27-11.52 2.7a5.93 5.93 0 0 1 -1.59-2 7.57 7.57 0 0 1 -.41-4.12 9 9 0 0 1 1.45-4.25c1.71-2.37 5.62-2.43 8.13-1.62a5.11 5.11 0 0 1 2 1.42z" fill="#221714"/><path d="m109.24 354.42a6.18 6.18 0 0 1 1.76 1.58c2 2.67.17 7.56-1.73 9.91-1.5 1.87-4 3.05-6.26 2.3a5.92 5.92 0 0 1 -2-1.19c-2.76-2.38-4.44-7.53-2.19-10.83s7.09-3.78 10.42-1.77z" fill="#221714"/><path d="m132.12 350.52a1.26 1.26 0 0 1 -.45.31c.35-.1-.82-.54-.86-.54-.56-.09-1.24.59-1.72.8-1.27.53-2.43.76-3 2.23.14-.35 7 2 7.49 2.06a21.1 21.1 0 0 0 10.94-1.29c.36-.15.77-.4.75-.8s-.36-.55-.66-.69a42.81 42.81 0 0 1 -4.77-2.62c-1.42-.93-1.88-.6-3.36 0-.38.15 1.29-1.57.75-1.37-.38.13.11-.12-.55-.66s-3.45 1.55-4.56 2.57z" fill="#221714"/><path d="m136.89 390.73c-10.12.23-25.79 5.46-25.12 18.06.48 8.89 10.83 14.93 18.65 15.87a33.52 33.52 0 0 0 7.29 0s25.54-2.59 20.92-21.23c0 .01-5.58-13.06-21.74-12.7z" fill="#fff"/><path d="m127.8 397c1.78-.5 10.67-1.25 12.5-.82s-.45 4.07-1.5 4.9c-2.26 1.78-5.91 2.48-8.4.71-1.1-.79-4.46-4.29-2.6-4.79z" fill="#221714"/><path d="m129 409.39a10.45 10.45 0 0 0 12.11-.82c.81-.67-.35-1.82-1.16-1.15a8.79 8.79 0 0 1 -10.12.56c-.89-.57-1.71.84-.83 1.41z" fill="#14050a"/><path d="m130.68 409.62a2.87 2.87 0 0 1 -1.9-1.1c-1 .48 4 8.8 8.32 6.62 2.11-1.07 3.11-3.73 3.57-4.39s1.31-3.54.41-2.73c-1.22.16-2.73 2.26-3.79 2-.69-.18-1.31.13-2.11.1-1.66-.06-3-1-4.54-.64.45.82.44 1.74 1.43 2.44a4.49 4.49 0 0 0 3.6.57" fill="#14050a"/><path d="m146.61 386.6c.91 2.34 3 3.71 4.68 3.06s2.31-3.08 1.4-5.42-3-3.72-4.69-3.06-2.3 3.08-1.39 5.42z" fill="#fff"/><path d="m113.54 386.15c-.5 2.46.52 4.75 2.29 5.11s3.6-1.34 4.11-3.8-.52-4.75-2.29-5.11-3.6 1.34-4.11 3.8z" fill="#fff"/><path d="m147 386.34a2.36 2.36 0 1 0 1.66-2.9 2.37 2.37 0 0 0 -1.66 2.9z" fill="#140509"/><path d="m148.1 385a.8.8 0 1 0 1-.56.82.82 0 0 0 -1 .56z" fill="#fff"/><path d="m114 387.73a2.36 2.36 0 1 0 1.66-2.91 2.36 2.36 0 0 0 -1.66 2.91z" fill="#140509"/><path d="m115.2 386.37a.8.8 0 1 0 1-.55.8.8 0 0 0 -1 .55z" fill="#fff"/><path d="m134.88 422.73c-10.3 0-18.68-7.19-18.68-16s8.38-16 18.68-16 18.68 7.19 18.68 16-8.38 16-18.68 16zm0-30.6c-9.51 0-17.24 6.54-17.24 14.58s7.73 14.57 17.24 14.57 17.23-6.54 17.23-14.57-7.73-14.58-17.23-14.58z" fill="#e60012"/><path d="m242.75 260.76a10.42 10.42 0 0 0 12.1-.81c.81-.67-.35-1.82-1.15-1.15a8.81 8.81 0 0 1 -10.13.56c-.89-.57-1.71.84-.82 1.4z" fill="#14050a"/><path d="m244.38 261a2.94 2.94 0 0 1 -1.9-1.1c-1 .48 4 8.8 8.32 6.62 2.12-1.07 3.11-3.73 3.57-4.39s1.32-3.54.41-2.73c-1.21.16-2.72 2.26-3.79 2-.68-.19-1.31.13-2.11.1-1.66-.06-3-1-4.54-.64.45.82.45 1.74 1.43 2.44a4.5 4.5 0 0 0 3.6.57" fill="#14050a"/><path d="m511.56 106.06a6.2 6.2 0 0 0 -4.81-1c-5.24.67-9.84 3.75-13.77 7.33 4.38-7.41 5.92-15.1 4-26.49-1.71-10.36-8.12-20.46-19.14-28.7-1.43-1.08-15.5-9.19-15.43-9.52a12.52 12.52 0 1 0 -24.75-3 51.93 51.93 0 0 0 -7 2.12c-3.27 1-2.16 1-3.42 1-4.22-.11-3.29-.2-4.74 1.79-.25.35.31-2.08-.07-1.61s0-.16-.84-.28-2.22 3.22-2.65 4.73c-.49 1.68 0-1.48-1.72 1.41a17 17 0 0 1 -1.8 2l.23-.05a29.06 29.06 0 0 0 -2.4 2.45c-1.08 1.24-2.37 2.61-3.61 4.06a12.18 12.18 0 0 0 -10.55-.64 12.47 12.47 0 0 0 -6.55 16.34 12.65 12.65 0 0 0 10.71 7.84 76.34 76.34 0 0 0 1.47 18.64c2 10 6.31 19.88 13.78 26.79l.2.15a19.38 19.38 0 0 0 -9.85 2.14 5.56 5.56 0 0 0 -2.94 3.22c-.37 1.45.63 3.27 2.12 3.25.73 0 1.67-.33 2 .3s-.16 1.16 0 1.69a1.14 1.14 0 0 0 1.47.4c.52-.2 1-.58 1.5-.75a3.8 3.8 0 0 1 1.61 0 72.9 72.9 0 0 1 12.65 2.8c3.41 1.08 7 1.22 10.61 1.66a46.07 46.07 0 0 0 -1.27 7 4.87 4.87 0 0 0 .22 9.73 4.75 4.75 0 0 0 .53 0c.08.17.15.33.24.5q-.61.21-1.23.45c-5.49 2.22-8.47 8.54-13.88 10.75-2.38 1-5.09.41-7.51 1.21a6 6 0 0 0 -1.77 1c-.59.54-.7.69-.62 1.11a1.28 1.28 0 0 0 1.49 1c.2 0 .41-.06.61-.08a9.3 9.3 0 0 1 1.67 0 4.52 4.52 0 0 1 2.17.8c1 .65 1.1 2 2.5 2.06 1.1 0 1.46-1.22 2.35-1.54a9.1 9.1 0 0 1 3.58-.3h1.38a12.19 12.19 0 0 0 5.37.66c13.37-1.65 20.95 1.33 27.89-4.41h.19a46.83 46.83 0 0 0 3.29 6.65 72.26 72.26 0 0 1 2.9 8.65 9.94 9.94 0 0 1 .11 3.72c-.23 1-1.42 1.46-1.27 2.6.2 1.44 1.58 1.41 2.33 2.34a5 5 0 0 1 1.05 2.16 10.89 10.89 0 0 1 .15 1.72v.64a1.31 1.31 0 0 0 1.14 1.42c.43 0 .57-.09 1-.75a6.35 6.35 0 0 0 .76-1.94c.52-2.58-.35-5.31.35-7.87 1.59-5.82 8.44-10.9 11.1-16.1.39-.78 2.35-3.07 2.7-5.91a15.63 15.63 0 0 0 .61-2.81 31.06 31.06 0 0 0 2.52-10.2c.83-7.77-.79-16.85-2.08-24.68l.2.21c.48-1 1.55-4.12 2.48-4.71 6.54-4.12 10-10.72 15.78-15.62a4.13 4.13 0 0 1 1.67-1c.54-.12 1.1 0 1.63-.16s1.07-.58 1-1.11-1-1-1-1.58.8-.87 1.34-1.2c1.53-1.03 1.3-3.39.02-4.48z" fill="#fff"/><path d="m471.64 206.34h-.16a1.81 1.81 0 0 1 -1.6-2 5.72 5.72 0 0 0 0-.59 11.34 11.34 0 0 0 -.14-1.64 4.39 4.39 0 0 0 -.95-1.94 3.18 3.18 0 0 0 -.89-.66 2.52 2.52 0 0 1 -1.54-1.92 2.45 2.45 0 0 1 .75-2 2.37 2.37 0 0 0 .52-.83 8 8 0 0 0 0-3l-.08-.55c-.08-.67-.65-2.69-2.87-8.53a44.66 44.66 0 0 1 -3.08-6.16c-4.56 3.56-9.31 3.59-15.82 3.62a94.56 94.56 0 0 0 -11.94.6 12.82 12.82 0 0 1 -5.53-.66h-1.83a7.31 7.31 0 0 0 -2.86.29 2.33 2.33 0 0 0 -.74.6 2.19 2.19 0 0 1 -3.83-.36 2.85 2.85 0 0 0 -.72-.81 4.1 4.1 0 0 0 -1.95-.72 8.49 8.49 0 0 0 -1.58 0 5.17 5.17 0 0 0 -.55.07 1.68 1.68 0 0 1 -1.3-.23 2 2 0 0 1 -.78-1.14c-.14-.7.17-1 .77-1.58a6.46 6.46 0 0 1 1.95-1.07 14.06 14.06 0 0 1 3.67-.55 12.18 12.18 0 0 0 3.81-.65c2.59-1.06 4.59-3.08 6.71-5.23s4.29-4.34 7.12-5.5a5.37 5.37 0 0 1 0-10.65 45.58 45.58 0 0 1 1.1-6.11l-2-.21a41.21 41.21 0 0 1 -8.12-1.4 72.07 72.07 0 0 0 -12.55-2.78 3.27 3.27 0 0 0 -1.4 0 3.87 3.87 0 0 0 -.71.35 4.92 4.92 0 0 1 -.76.39 1.61 1.61 0 0 1 -2.11-.68 2 2 0 0 1 0-1.09 1 1 0 0 0 0-.54c-.1-.18-.47-.15-1-.1-.2 0-.41.05-.6.05a2.45 2.45 0 0 1 -2-1 3.46 3.46 0 0 1 -.63-2.87 5.91 5.91 0 0 1 3.17-3.53 19 19 0 0 1 8.82-2.2c-8-7.85-11.6-18.61-13.19-26.35a77.08 77.08 0 0 1 -1.5-18.29 13.29 13.29 0 0 1 -10.72-18.01 12.61 12.61 0 0 1 17.54-6.54c.6-.69 1.2-1.36 1.78-2s1.09-1.2 1.57-1.76q.53-.6 1.11-1.2h-.15l1.24-1.26a22.27 22.27 0 0 0 1.72-1.88c.69-1.13 1.18-1.58 1.62-1.52h.11c.37-1.23 1.65-5.12 3.14-4.88a1.76 1.76 0 0 1 .7.24.54.54 0 0 1 .36 0 .53.53 0 0 1 .33.45c.59-.71 1.17-.69 3.53-.63h.81c.45 0 .45 0 .72-.1a25.55 25.55 0 0 1 2.41-.85 51.58 51.58 0 0 1 6.68-2 13 13 0 1 1 25.78 3.28c.92.68 5.19 3.23 8.37 5.13s6.18 3.68 6.82 4.16c10.86 8.13 17.54 18.16 19.33 29 1.61 9.8.78 17.27-2.79 24.43 4.1-3.31 8-5.17 12-5.67 2.26-.29 4 .08 5.19 1.08a3.7 3.7 0 0 1 1.23 3 2.67 2.67 0 0 1 -1.22 2.11l-.41.22c-.41.21-.69.37-.69.55s.16.3.34.48a2 2 0 0 1 .62 1 1.61 1.61 0 0 1 -1.36 1.69 4.73 4.73 0 0 1 -.9.09 4 4 0 0 0 -.72.07 3.63 3.63 0 0 0 -1.46.9 56.7 56.7 0 0 0 -6.39 6.7c-2.75 3.21-5.59 6.53-9.45 9-.58.36-1.41 2.38-1.86 3.46-.17.43-.32.79-.44 1l-.06.12.1.61c1.26 7.57 2.68 16.14 1.89 23.58a31.68 31.68 0 0 1 -2.54 10.29 16.28 16.28 0 0 1 -.61 2.81 12.62 12.62 0 0 1 -2.31 5.31c-.19.29-.35.51-.43.67a36.92 36.92 0 0 1 -4.95 6.68c-2.57 3-5.22 6.07-6.11 9.33a13 13 0 0 0 -.21 4 15.38 15.38 0 0 1 -.13 3.83 7.26 7.26 0 0 1 -.84 2.13c-.49.71-.76 1.05-1.37 1.05zm-10.14-31 .7.09.11.27a45.34 45.34 0 0 0 3.25 6.58 62.16 62.16 0 0 1 3 8.84l.07.54a8.82 8.82 0 0 1 0 3.36 3.09 3.09 0 0 1 -.72 1.25c-.36.45-.59.75-.53 1.17.09.62.42.83 1.05 1.19a4.32 4.32 0 0 1 1.17.9 5.47 5.47 0 0 1 1.15 2.38 11.68 11.68 0 0 1 .16 1.81v.69a.82.82 0 0 0 .69.88c.16 0 .18 0 .58-.54a6.11 6.11 0 0 0 .68-1.74 14.26 14.26 0 0 0 .11-3.59 13.69 13.69 0 0 1 .25-4.32c.95-3.48 3.67-6.65 6.31-9.72a36 36 0 0 0 4.82-6.48c.09-.18.27-.45.48-.77a12 12 0 0 0 2.18-5 16 16 0 0 0 .6-2.8l.05-.16a30.47 30.47 0 0 0 2.47-10c.78-7.3-.63-15.8-1.87-23.31l-.47-2.82.8.83.13-.32c.76-1.86 1.46-3.44 2.24-3.93 3.74-2.36 6.4-5.47 9.23-8.77a59.43 59.43 0 0 1 6.5-6.82 4.63 4.63 0 0 1 1.88-1.1 4.16 4.16 0 0 1 .91-.1 4.09 4.09 0 0 0 .72-.07c.31-.07.63-.32.59-.54a1.13 1.13 0 0 0 -.35-.48 1.69 1.69 0 0 1 -.62-1.17c0-.81.71-1.18 1.23-1.45a3.9 3.9 0 0 0 .35-.19 1.69 1.69 0 0 0 .74-1.33 2.74 2.74 0 0 0 -.87-2.19 5.65 5.65 0 0 0 -4.42-.85c-4.38.56-8.8 2.92-13.5 7.2l-2.49 2.24 1.69-2.86c4.54-7.7 5.73-15.52 4-26.16s-8.29-20.42-18.94-28.38c-.6-.45-3.57-2.23-6.73-4.11-9-5.38-9-5.4-8.89-5.92a12 12 0 1 0 -23.76-2.87v.39l-.38.08a50.36 50.36 0 0 0 -6.95 2.1 23.46 23.46 0 0 0 -2.35.82 1.92 1.92 0 0 1 -1.13.18h-.81c-2.55-.06-2.54-.07-3.06.74-.15.24-.33.52-.58.87l-.23.31-.41-.11c-.41-.16-.36-.53-.27-1.26 0-.07 0-.17 0-.26l-.18-.26s-.06-.08-.32-.12-1.45 2.07-2.11 4.38c-.13.46-.25.85-.66.88a.51.51 0 0 1 -.49-.25 7.9 7.9 0 0 0 -.63.9 4.76 4.76 0 0 1 -.67.82l.46-.11-1.46 1.33a29.52 29.52 0 0 0 -2.36 2.4c-.49.57-1 1.17-1.59 1.78s-1.35 1.5-2 2.28l-.26.31-.36-.2a11.7 11.7 0 0 0 -10.12-.6 11.56 11.56 0 0 0 -6.37 6.45 12.27 12.27 0 0 0 10.34 16.78h.48v.48a76.38 76.38 0 0 0 1.47 18.52c1.6 7.83 5.27 18.8 13.63 26.52l.19.15 1 .9h-1.35a18.74 18.74 0 0 0 -9.6 2.08 5 5 0 0 0 -2.69 2.9 2.41 2.41 0 0 0 .45 2 1.52 1.52 0 0 0 1.16.62 4.38 4.38 0 0 0 .5 0c.64-.07 1.53-.17 2 .6a1.75 1.75 0 0 1 .1 1.2 1.12 1.12 0 0 0 0 .54c.08.21.52.24.82.13a5 5 0 0 0 .61-.32 4.62 4.62 0 0 1 .92-.45 4.22 4.22 0 0 1 1.83 0 74.33 74.33 0 0 1 12.67 2.8 39.09 39.09 0 0 0 7.91 1.36c.87.09 1.75.18 2.61.29l.57.07-.14.55a45.46 45.46 0 0 0 -1.26 6.92v.43h-.43a4.37 4.37 0 0 0 .19 8.73 1.55 1.55 0 0 0 .31 0l.52-.06.15.33c.1.21.16.34.23.47l.29.52-.56.19c-.41.14-.82.29-1.21.45-2.67 1.07-4.79 3.22-6.84 5.3s-4.26 4.31-7 5.45a13.15 13.15 0 0 1 -4.13.72 13 13 0 0 0 -3.41.5 5.55 5.55 0 0 0 -1.59.85c-.5.47-.5.49-.47.66a.78.78 0 0 0 .9.58c.21 0 .45-.07.66-.09a10.42 10.42 0 0 1 1.76 0 5.09 5.09 0 0 1 2.41.89 3.65 3.65 0 0 1 1 1.06c.41.59.65.89 1.24.91.41 0 .66-.24 1.05-.65a3.05 3.05 0 0 1 1.12-.86 8 8 0 0 1 3.23-.34l2.1.07a11.77 11.77 0 0 0 5.11.63 94.93 94.93 0 0 1 12.06-.61c6.48 0 11.17-.05 15.57-3.7z" fill="#231815"/><path d="m461.43 96.55a3.35 3.35 0 0 1 -1.81-.5.77.77 0 1 1 .84-1.29 2.18 2.18 0 0 0 1.63.17 2.93 2.93 0 0 0 1.8-1.16 4.75 4.75 0 0 0 .58-2l-3.12-5a.77.77 0 0 1 .25-1.06.76.76 0 0 1 1.06.24l3.14 5c.72 1.16-.57 3.61-.59 3.64a4.43 4.43 0 0 1 -2.77 1.86 5.11 5.11 0 0 1 -1.01.1z" fill="#221714"/><path d="m467.62 92.86a6.1 6.1 0 0 1 -2.88-.85.78.78 0 0 1 -.25-1.07.77.77 0 0 1 1.06-.24s1.66 1 2.91.44c1.7-.77 2.17-1.45 1.83-2.7a.77.77 0 1 1 1.49-.4c.79 2.94-1.64 4-2.68 4.51a3.61 3.61 0 0 1 -1.48.31z" fill="#221714"/><path d="m466 75.12a2.75 2.75 0 1 0 .36-3.88 2.74 2.74 0 0 0 -.36 3.88" fill="#140509"/><path d="m466.61 73.13a.93.93 0 1 0 .78-1.06.92.92 0 0 0 -.78 1.06" fill="#fff"/><path d="m446.35 87.17a2.75 2.75 0 1 0 .36-3.87 2.75 2.75 0 0 0 -.36 3.87" fill="#140509"/><path d="m446.92 85.18a.93.93 0 1 0 .78-1.06.92.92 0 0 0 -.78 1.06" fill="#fff"/><path d="m461.81 89.21a4 4 0 0 1 -2.31.53 1.88 1.88 0 0 1 -1.59-2.63c.74-1.42 2.83-2.19 4.13-3a9.62 9.62 0 0 1 3.14-1.23c1.43-.35 1.73 2.26 1.3 3.19a6.87 6.87 0 0 1 -6.8 3.69c-2.23-.24-3.09-2.09-1.08-3.47" fill="#221714"/><path d="m570.71 122c-2.5-4.32-4.32-9.1-7.43-13a88.3 88.3 0 0 1 -8.61-13 4.65 4.65 0 0 1 -.66-1.82c0-.68.2-1.35.2-2s-.41-1.46-1.08-1.48-1.24.77-1.93.67c-.86-.12-.91-1.31-1.21-2.13-.62-1.69-3.1-2-4.57-1a6.67 6.67 0 0 0 -2.36 4.7c-.81 5.62 1.14 11.3 3.86 16.29 4.08 7.4 9.19 14.22 13.08 21.77" fill="#040000"/><path d="m559.91 131.07c-2.09-4.1-4.6-8-7-11.86-2-3.23-4.18-6.58-6-10-3.28-6-4.58-11.5-3.88-16.35.33-2.27 1.13-3.87 2.4-4.76a3.63 3.63 0 0 1 3-.44 2.44 2.44 0 0 1 1.65 1.48c.08.2.14.43.2.64.18.7.35 1.35 1 1.44a1.56 1.56 0 0 0 .93-.32 1.92 1.92 0 0 1 1-.36c.72 0 1.17.83 1.17 1.57a4.83 4.83 0 0 1 -.11.94 4.84 4.84 0 0 0 -.09 1.07 4.53 4.53 0 0 0 .65 1.79 88.69 88.69 0 0 0 8.6 13 47.78 47.78 0 0 1 5 8.45c.77 1.51 1.56 3.08 2.41 4.56l-.15.08c-.85-1.48-1.65-3-2.41-4.56a48.74 48.74 0 0 0 -5-8.43 87.68 87.68 0 0 1 -8.68-13.01 4.58 4.58 0 0 1 -.68-1.86 5.06 5.06 0 0 1 .08-1.14 4.88 4.88 0 0 0 .1-.92c0-.66-.38-1.38-1-1.39a1.77 1.77 0 0 0 -.86.33 1.67 1.67 0 0 1 -1 .34c-.71-.1-.9-.84-1.09-1.56-.06-.22-.12-.44-.19-.63a2.3 2.3 0 0 0 -1.54-1.38 3.43 3.43 0 0 0 -2.9.43c-1.23.85-2 2.42-2.33 4.64-.69 4.81.61 10.27 3.86 16.24 1.86 3.42 4 6.76 6 10 2.42 3.82 4.93 7.77 7 11.87z" fill="#fff"/><path d="m605.41 121c-6.87-5.13-24.44-7.56-31.86-2.11-7.64 2.77-12.47 3.79-17.78 9.72-4.77 5.39-9.67 16.71-8.91 23.39a21.09 21.09 0 0 0 2.75 9.06l-.56.25.64-.13a1.74 1.74 0 0 0 .11.18c-3.83 1.17-7.73 2.91-10.21 5.52a5.4 5.4 0 0 0 -1.66 4c.27 4.08 6.3 7.14 9.65 9a24.4 24.4 0 0 0 4.19 1.78c3.49 2.19 9.07 1.61 12.7 3.64 2.82 1.57 5.83 2.58 8.66 4.1 1.13.61 2.82 3.18 4.25 2.64.91-.35.85-1.62.32-2.43a12.68 12.68 0 0 1 -1.7-2.36 2.71 2.71 0 0 1 -.15-.74 44.32 44.32 0 0 0 4.56 5.34c1.26 2.83 2.56 5.65 3.8 8.49 1 2.33 2.45 4.38 3.51 6.68.42.93.21 3.42 1.4 3.7.76.18 1.36-.7 1.42-1.49a10.81 10.81 0 0 1 .09-2.35c.25-.75.93-1.28 1.3-2 .59-1.16-.56-2.26-1.23-3.09-.62-1 .24-5.2.45-7.32v-.05c3.32-9 2.88-6.59 3.22-15.18a31.15 31.15 0 0 1 .84-6 9.43 9.43 0 0 0 5.26-5.68c.72-2.43.24-6.23-.39-8.58-1.79-6.59.28-15.35 1.65-17.27 2.69-3.75 6.2-5.76 8-9.84s-.9-8.27-4.3-10.81m-33.22 61.17c-1.21-.5-3.15-3.82-4.6-6.13a27.08 27.08 0 0 1 -.53-3.82l.83.23a66.72 66.72 0 0 0 5.2 9.94z" fill="#040000"/><path d="m620.62 46.12a6.38 6.38 0 0 1 .29 2.46 4.46 4.46 0 0 1 -.45 1.62c1.65.33 3.37.78 5.34 1.35a43.58 43.58 0 0 1 7.63 3c1.54.79 4.28.91 5.75 1.86.19.07.38.15.58.21.52.18 1.52.12 1.91.58 0 0 .64 1.2.29 1a1.52 1.52 0 0 0 .57.07c1.58 0 5.18.17 5.34 1.16s-.4.75 0 .91c.56.22-1.94.42-1.54.56 1.59.56 2.18.61 2.66 2.36.18.66.38 1.3.59 1.92 2 2.2 2.29 5.4 4.1 7.73.77 1 1.48 2 2.14 3a7.76 7.76 0 0 1 2.71-1.28c3-.69 6.08 2 7.51 4.43a5.52 5.52 0 0 1 .57 2.52v.24a9.21 9.21 0 0 1 -.59 4.36 6.59 6.59 0 0 1 -3.26 3c-.37.16-.74.3-1.1.42a53.54 53.54 0 0 1 0 22.75c-2.71 13.59-9.16 25.92-20.3 34.37-31.76 24.07-78.9-8.79-82.1-44.32-.58-6.36-.79-13.68 1.41-19.9 4.06-11.51 15.83-23 26.76-27.31a90.61 90.61 0 0 1 18.11-4.87v-.05c-.53-3.85 2.78-9.44 7-9.44 4.89 0 6.93 1.23 8.16 5.19" fill="#040000"/><path d="m599.25 140.76c1 .65 3.61 2.94 4.76 2.93 8.11-.1 14.77 4 22.6 5.11a4.07 4.07 0 0 0 2-.07c.54-.21 1-.63 1.55-.84a1.11 1.11 0 0 1 1.48.45c.24.65-.37 1.48 0 2.08s1.19.33 1.85.31c1.77 0 2.83 2.32 2.26 4.13a7 7 0 0 1 -3.75 3.84c-5.45 2.75-11.72 2.44-17.51 1.26-6.21-1.26-12.24-3.05-18.55-3.84" fill="#040000"/><path d="m622.2 160.89a39.19 39.19 0 0 1 -7.77-.85c-2.16-.44-4.34-.95-6.44-1.45a116.08 116.08 0 0 0 -12.1-2.39v-.16a116.48 116.48 0 0 1 12.12 2.4c2.1.49 4.27 1 6.43 1.44 7.19 1.46 12.9 1.05 17.47-1.25a6.87 6.87 0 0 0 3.77-3.8 3.67 3.67 0 0 0 -.53-3.15 2 2 0 0 0 -1.6-.87h-.06-.44c-.56.05-1.19.12-1.48-.4a1.59 1.59 0 0 1 0-1.12 1.67 1.67 0 0 0 0-1 .66.66 0 0 0 -.39-.41 1.28 1.28 0 0 0 -1 0 4.28 4.28 0 0 0 -.76.41 5.15 5.15 0 0 1 -.8.43 4.16 4.16 0 0 1 -2.08.08 56.82 56.82 0 0 1 -9.44-2.45c-4.07-1.31-8.28-2.66-12.87-2.66h-.23c-.91 0-2.62-1.31-3.87-2.26-.37-.28-.7-.53-.92-.68l.08-.13c.23.15.56.4.93.69 1.17.88 2.92 2.22 3.78 2.22h.3c4.6 0 8.82 1.36 12.91 2.67a56.71 56.71 0 0 0 9.41 2.44 4 4 0 0 0 2-.07 4.66 4.66 0 0 0 .76-.41 4 4 0 0 1 .79-.42 1.42 1.42 0 0 1 1.11 0 .83.83 0 0 1 .47.5 1.85 1.85 0 0 1 0 1 1.42 1.42 0 0 0 0 1c.23.42.76.37 1.32.31h.46.06a2.15 2.15 0 0 1 1.72.93 3.81 3.81 0 0 1 .56 3.29 7 7 0 0 1 -3.85 3.89 21.37 21.37 0 0 1 -9.82 2.23z" fill="#fff"/><path d="m603.08 79.73c6.83 5.46 15.2 17.67 9 27-4.39 6.57-14.24 5.78-20 2.4a27.61 27.61 0 0 1 -5-3.8c-5.7-5.34-11.92-16.45-6.9-24.64s16.62-6 23-.94" fill="#fff"/><path d="m604.6 89.11c-.88-1.4-6.21-7.19-7.6-8s-1.81 3.19-1.57 4.4c.53 2.61 2.52 5.27 5 5.46 1.11.08 5.07-.43 4.14-1.9" fill="#231815"/><path d="m597.5 95.78c-3.18-.42-5.53-3.47-6.07-6.5a.74.74 0 0 0 -.91-.52.75.75 0 0 0 -.52.91 9.21 9.21 0 0 0 7.5 7.6.76.76 0 0 0 .75-.75.77.77 0 0 0 -.75-.74" fill="#231815"/><path d="m593.43 94.37-.66-.42a38.22 38.22 0 0 1 7.38-8.43l.52.6a37.88 37.88 0 0 0 -7.24 8.25z" fill="#231815"/><path d="m599.6 70.39c-1.71 1.29-3.77 1.21-4.62-.19s-.14-3.57 1.57-4.85 3.77-1.21 4.61.19.14 3.56-1.56 4.85" fill="#fff"/><path d="m622.33 87.76c-.8 2.14-2.56 3.32-3.93 2.65s-1.83-3-1-5.08 2.56-3.32 3.93-2.65 1.83 2.94 1 5.08" fill="#fff"/><path d="m599.28 69.18a6.08 6.08 0 0 1 -1.65-1.07 2.28 2.28 0 0 1 -.69-1.51.4.4 0 0 0 -.4-.39.41.41 0 0 0 -.4.39 3.05 3.05 0 0 0 .87 2 6.46 6.46 0 0 0 1.86 1.27.42.42 0 0 0 .55-.15.4.4 0 0 0 -.14-.54" fill="#231815"/><path d="m621.53 87.45a4.65 4.65 0 0 1 -3.14-1.89.41.41 0 0 0 -.54-.14.4.4 0 0 0 -.14.54 5.51 5.51 0 0 0 3.82 2.28.4.4 0 1 0 0-.79" fill="#231815"/><circle cx="599.67" cy="167.29" fill="#040000" r="4.88"/><path d="m600.56 182.08c-10.3 0-18.68-7.19-18.68-16s8.38-16 18.68-16 18.68 7.19 18.68 16-8.38 16-18.68 16zm0-30.59c-9.5 0-17.23 6.53-17.23 14.57s7.73 14.57 17.23 14.57 17.24-6.53 17.24-14.57-7.74-14.57-17.24-14.57z" fill="#e60012"/><path d="m433.49 176c-10.3 0-18.68-7.18-18.68-16s8.38-16 18.68-16 18.68 7.19 18.68 16-8.38 16-18.68 16zm0-30.59c-9.5 0-17.24 6.54-17.24 14.57s7.74 14.58 17.24 14.58 17.23-6.56 17.23-14.56-7.72-14.6-17.23-14.6z" fill="#e60012"/></svg>