<svg viewBox="0 0 121.26 26.14" xmlns="http://www.w3.org/2000/svg"><g fill="#55a689" opacity=".5"><path d="m50.31 4.88-12.04 20.85h24.08z"/><path d="m59.45 11.33-8.32 14.4h16.64z"/><path d="m19 17.2h2.53v-2.53h1.47v2.53h2.54v1.52h-2.54v2.53h-1.49v-2.53h-2.51z"/><path d="m80.48 17.2h2.52v-2.53h1.51v2.53h2.54v1.52h-2.53v2.53h-1.52v-2.53h-2.52z"/><path d="m0 3.13a3 3 0 0 1 .92-2.21 3 3 0 0 1 2.21-.92 3 3 0 0 1 2.22.92 3 3 0 0 1 .92 2.21 3 3 0 0 1 -.92 2.22 3 3 0 0 1 -2.22.92 3 3 0 0 1 -2.21-.92 3 3 0 0 1 -.92-2.22zm.43 5.51h5.4v17.5h-5.4z"/><path d="m121.26 14.67-10.73-10.75-3.81 3.81 4.28 4.27h-11.23v5.39h11.23l-4.24 4.24 3.81 3.81z"/></g></svg>