<svg viewBox="0 0 537.44 117.25" xmlns="http://www.w3.org/2000/svg"><g fill="none" stroke="#9f9f9f" stroke-linecap="round" stroke-miterlimit="10"><path d="m318.55.2v.5" stroke-width=".4"/><path d="m318.55 1.71v114.31" stroke-dasharray="1.01 1.01" stroke-width=".4"/><path d="m318.55 116.53v.5" stroke-width=".4"/><path d="m352.79 38.38v.55" stroke-width=".44"/><path d="m352.79 40.02v75.91" stroke-dasharray="1.09 1.09" stroke-width=".44"/><path d="m352.79 116.48v.55" stroke-width=".44"/><path d="m359.63 38.38v.55" stroke-width=".44"/><path d="m359.63 40.02v75.91" stroke-dasharray="1.09 1.09" stroke-width=".44"/><path d="m359.63 116.48v.55" stroke-width=".44"/><path d="m291.2.2v.5" stroke-width=".4"/><path d="m291.2 1.71v114.31" stroke-dasharray="1.01 1.01" stroke-width=".4"/><path d="m291.2 116.53v.5" stroke-width=".4"/><path d="m516.88.2v.5" stroke-width=".4"/><path d="m516.88 1.71v114.31" stroke-dasharray="1.01 1.01" stroke-width=".4"/><path d="m516.88 116.53v.5" stroke-width=".4"/><path d="m489.54.2v.5" stroke-width=".4"/><path d="m489.54 1.71v114.31" stroke-dasharray="1.01 1.01" stroke-width=".4"/><path d="m489.54 116.53v.5" stroke-width=".4"/><path d="m27.14 38.38h.5" stroke-width=".4"/><path d="m28.64 38.38h507.6" stroke-dasharray="1 1" stroke-width=".4"/><path d="m536.74 38.38h.5" stroke-width=".4"/><path d="m27.14 76.01h.5" stroke-width=".4"/><path d="m28.64 76.01h507.6" stroke-dasharray="1 1" stroke-width=".4"/><path d="m536.74 76.01h.5" stroke-width=".4"/><circle cx="356.21" cy="79.43" r="3.42" stroke-dasharray="1" stroke-width=".4"/></g><path d="m354.47 89.13h.84l.9 1.41 1-1.41h.78l-1.32 1.93 1.33 2.07h-.85l-1-1.53-1 1.53h-.8l1.41-2.07z" fill="#55a689"/><circle cx="304.88" cy="56.15" r="13.67" style="fill:none;stroke-linecap:round;stroke-miterlimit:10;stroke:#9f9f9f;stroke-width:.4;stroke-dasharray:1"/><path d="m304.42 56.82h-.5v.93h-.61v-.93h-1.68v-.64l1.68-2.36h.61v2.49h.5zm-2.3-.51h1.19v-1.72z" fill="#55a689"/><path d="m304.69 53.75h.83l.91 1.41.95-1.41h.78l-1.32 1.92 1.42 2.08h-.86l-1-1.53-1 1.53h-.8l1.4-2.08z" fill="#55a689"/><circle cx="277.53" cy="56.15" r="13.67" style="fill:none;stroke-linecap:round;stroke-miterlimit:10;stroke:#9f9f9f;stroke-width:.4;stroke-dasharray:1"/><path d="m277.07 56.82h-.5v.93h-.57v-.93h-1.68v-.64l1.68-2.36h.6v2.49h.5zm-2.29-.51h1.22v-1.72z" fill="#55a689"/><path d="m277.34 53.75h.84l.91 1.41.94-1.41h.79l-1.33 1.92 1.42 2.08h-.85l-1-1.53-1 1.53h-.8l1.42-2.08z" fill="#55a689"/><circle cx="503.21" cy="56.15" r="13.67" style="fill:none;stroke-linecap:round;stroke-miterlimit:10;stroke:#9f9f9f;stroke-width:.4;stroke-dasharray:1"/><path d="m502.75 56.82h-.5v.93h-.61v-.93h-1.64v-.64l1.68-2.36h.61v2.49h.5zm-2.3-.51h1.19v-1.72z" fill="#55a689"/><path d="m503 53.75h.83l.91 1.41.95-1.41h.78l-1.32 1.92 1.42 2.08h-.85l-1-1.53-1 1.53h-.81l1.42-2.08z" fill="#55a689"/><path d="m239.49 42.28a43.67 43.67 0 0 1 -10.19 9.8l-2.67-5.53a34.79 34.79 0 0 0 8-7.57c1.6 1.08 3.19 2.22 4.84 3.3" fill="#0d958d"/><path d="m241.37 39.95h20.95v5.63h-20.95z" fill="#0d958d"/><path d="m263.86 51.62v5.47h-5.58l-.11 15.65a4.18 4.18 0 0 1 -2.28 2.79c-2.57 1.09-5.81.69-8.66.69l-2.23-5.7 6.84-.11a1.34 1.34 0 0 0 .62-.74l.05-12.52-13.07-.15c-.06-1.37.05-2.79-.12-4a21.79 21.79 0 0 1 -1.88 2.84v20.72h-5.7c-.05-4.5.07-9-.05-13.55-1 .74-1.88 1.65-2.79 2.45l-2.56-6.15a35.84 35.84 0 0 0 9-10.65l4.05 2.9z" fill="#0d958d"/><path d="m212 69.14c-.46.11-.23-.4-.63-.4-.12-.4-.51-.52-.79-.8-.12-.39-.58-.39-.51-1 .16-.06 0-.57.39-.34v-.17a10.91 10.91 0 0 0 1.31-.85c.12-.17.4-.17.46-.4.05-.06.16 0 .28-.06v-.12c.06-.12.23-.06.28-.06v-.17c.06-.12.18 0 .23-.06v-.11c.06-.12.23-.06.29-.06v-.17c.11-.11.23-.06.34-.06v-.17c0-.05.11 0 .17-.05v-.09c.06-.11.17-.06.23-.06v-.44c-.46-.12-.23-.8-.74-.91-.18 0 .05-.34-.23-.23-.23-.23-.17-.57-.46-.68-.11-.17-.17-.46-.34-.57s-.23-.57-.51-.63a2.11 2.11 0 0 0 -.85-1.19c-.11.11-.18.28-.4.23 0 0 .06.16-.06.16-.68.29-1.14 1.08-1.88 1.37-.23.35-.62.46-1 .69-.52.17-.46-.29-.64-.46-.11-.74-.73-1.76 0-2.28h5.69v-19.41h-18.06l-.11 5.8c-2.56-1.37-4.55-4.09-5.92-6.49h-5.07a27.2 27.2 0 0 1 -7.06 8.38c.63 2 1.31 4.09 2.11 6.09l1.48-.91c.28.28.11.85.17 1.25h2.9c-.06.46 0 1-.06 1.43h-5.68v5l5.74.11-.07 9.23-1 .45-4.84.4.29 5.7c4.89-.69 9.73-1.6 14.46-2.62.91.39.4 1.65.57 2.5a2.47 2.47 0 0 0 1.59 0c.86.12 1.08-.51 1.94-.29.23-.45 1.08 0 1.37-.34a24.26 24.26 0 0 0 3.12-.62 10.17 10.17 0 0 0 1.94-.46c.63-.17 1.54 0 2-.51v-3.64l.29-.17a1 1 0 0 1 .57.85c.34.11.4.57.74.74.17 0-.06.4.23.28 0 .57.68.4.68 1 .52.12.52.75 1 .86.17.45.57.57.85.85.06.46.63.34.63.8a4 4 0 0 1 1.14.8c.4-.06.22.11.62 0a8.89 8.89 0 0 0 .69-1.2c.22-.17.34-.52.56-.63s.29-.34.29-.62c.29 0 .29-.34.4-.51a7.76 7.76 0 0 0 .8-1.26c.23 0 .23-.28.39-.51v-.33a9.18 9.18 0 0 1 -2.32-1.86m-26-23.57a10 10 0 0 1 2.45 3l-4.44.06a20.91 20.91 0 0 1 2-3m8.48 24.53h-1.25c-.06-.74 0-1.48-.06-2.16-.22.06-.28-.23-.34-.34.57-1.88.8-3.82 1.19-5.69a30 30 0 0 0 -4.15-1l-1.2 5.81.12.28 3.18.74a14.91 14.91 0 0 1 -3.69.75v-8.24h5.29l.06-5.12-5.24-.12v-1.25c1.19-.11 2.45-.06 3.7-.06a13.8 13.8 0 0 0 .12-2.16c.28-.29.56.22.85.22.62-.79.91-1.82 1.42-2.61zm5.81-24.65.28-.23h6.15c.28.46.12 1.2.17 1.82l-.17.12h-6.15c-.57-.23-.17-1.14-.28-1.71m-.3 23.63v-9.85c.35-.29 1.54-.52 1.43.39a32.84 32.84 0 0 0 2.33 8.49 17.15 17.15 0 0 1 -3.76 1m.44-15.17a3.07 3.07 0 0 1 -.06-1.88h6.27c.4.4.17 1.2.22 1.77a62.42 62.42 0 0 1 -6.43.11" fill="#0d958d"/><path d="m178.52 69.25c.91-.17 1.82-.4 2.73-.57.35-.17.91-.12 1-.46.05-2.33-.51-4.55-.63-6.71-.56-.4-1.26 0-1.88.05-.79.18-1.54.4-2.33.57l.39 7.12.18.11c.22 0 .46.12.51-.11" fill="#0d958d"/><path d="m52.9 45.86a27.15 27.15 0 0 1 -7.08 29.92 27.84 27.84 0 0 1 -27.2 5.67 27 27 0 0 1 -4.3-49.52c8.5-4.88 21.24-4.08 29 1.81a27.57 27.57 0 0 1 9.58 12.12" fill="#0d958d"/><path d="m26 41.33c1-.28 2.21-1 3.18-.28.68 1 2.55 1.36 2 2.78a19.16 19.16 0 0 0 3.28 3.45c.29.06.4-.11.51-.28l-.34-.17c.4-.34 1.36.23 2-.11a1.55 1.55 0 0 1 1.24.5 9.29 9.29 0 0 0 .74 1.48l.23-.11a11 11 0 0 0 .8 1.41c2 .68 3 3.12 4.82 4.14a29.64 29.64 0 0 0 7.14 4.25c-.11.34.28.34.45.45v.06a1.67 1.67 0 0 0 -1.13-.23c.34.51 1.19.28 1.36.85h-.91c0 .17.23.17.34.23-.45-.17-.91.17-1.19-.4a39.21 39.21 0 0 1 -5.21-2.94l-.06.05a23.81 23.81 0 0 0 4.59 3c.51.29 1.25.46 1.53 1-.17.06-.45.06-.51.29l-.4-.23c-.11.06 0 .18-.05.23l.28.23a24.89 24.89 0 0 1 -5.83-3.4c-.85-.57-1.7-1-2.55-1.64-.12 0-.29-.06-.34.11 1 .74 2 1.19 2.94 1.87a16.1 16.1 0 0 1 -5.27-3.8c-.62-.62-1.53-1.93-2.6-1.7-.4.23-1 .17-1.48.4-.33 0-.62-.4-1-.12-.28.63-1.19.12-1.36.8-.56.23-1.59 0-1.76.73l.06.29c-1.13.5-2.66.34-3.45 1.42-.23.22-.68-.06-.91.22.06-.11-.06-.22-.17-.22-.29-.12-.46.16-.69.22-.16-.28.23-.34.18-.51-.51-.22-.74.45-1.14.68.06-.45.57-.51.74-.9-.28-.17-.51.11-.74.16.12 0 .35-.45 0-.45.29-.45.91-.28 1.08-.79h-.4c.45-.34 1-.74 1.36-1.08-.17 0-.51-.45-.8-.06 0-.05.12-.11.06-.16-.23-.23-.51.16-.79.16 0 .06.06-.16-.11-.22h-.18c.18-.12.4-.4.63-.57l-.17-.15a27.93 27.93 0 0 1 2.6-1.47l.17-.17a.58.58 0 0 0 -.91 0c.74-.06.06-.86.79-1a2.33 2.33 0 0 1 1.13-1.36c-.74-.68-1-1.93-1.86-2.32-.06-.51-.57 0-.63-.51-1-.06-2.21.45-2.89-.45a4.24 4.24 0 0 0 -1.7.01 5.51 5.51 0 0 0 -.9 1.41 5.37 5.37 0 0 0 -1 1.42 4.55 4.55 0 0 1 -2 1.81v-.11c-.62.85-2 .51-2.78 1.42l-.06-.23a.48.48 0 0 0 -.56.34v.12c-.4-.12-.68.34-.85.56-1 1-2.55 1-3.57 1.87-.12.06.05 0 0-.06-1.87.4-2.78 1.81-4 3.18a8.33 8.33 0 0 1 -1.36 1.36c.11.45-.57.62-.8.85.23-.4.74-.74.8-1.19-.46.23-.57.74-1.08 1-.29-.22.28-.4.11-.62l-.68.51.63-.85c-.35 0-.69.62-1.08.68-.12.17-.28.17-.51.17v-.14a10.48 10.48 0 0 0 1-.91c-.39-.22-.85.29-1.13.23-.11-.06-.06-.34-.34-.23.28-.22.57-.39.68-.73-.23-.06-.51.11-.74.23.06-.29.63-.46.46-.91-.74-.12-.63.62-1.25.79.62-.85 1.53-1.36 2.15-2.26l-.06-.06a16.56 16.56 0 0 1 4.02-2.95c1.19-.68 2.78-1 3.63-2.16a7.59 7.59 0 0 0 .9-1.3c.17.06.23-.11.29-.22a5.31 5.31 0 0 1 2.78-.85c.45-.45 1.3-.17 1.64-.8 1.19-1.41 1.64-3.17 2.66-4.58.34-.46.73-1.2 1.42-1.36a27.23 27.23 0 0 1 4.92.9" fill="#fff"/><path d="m38.68 48.07-.23-.73.23.63z" fill="#fff"/><path d="m39.08 49.21c-.23-.05-.17-.23-.29-.4a.74.74 0 0 1 .29.4" fill="#fff"/><path d="m12.05 49.6c-.17-.34.28-.44.45-.73a1.15 1.15 0 0 1 -.45.73" fill="#109a86"/><path d="m17.49 49.72v-.06h.17z" fill="#109a86"/><path d="m16.3 50.06c-.11.11-.17.28-.34.22 0-.17.23-.33.34-.22" fill="#109a86"/><path d="m27.18 51c-.28.23-.86.4-.91.74-.51-.06-.85.45-1.25.45.06-.45.74-.17.8-.62l.45-.34.05.17c.18-.17.75-.06.58-.51z" fill="#fff"/><path d="m25.37 51.36a.92.92 0 0 1 -.63.46c.11-.29.34-.29.63-.46" fill="#fff"/><path d="m13.69 52c.12.17-.11 0-.17.11.06 0 .12-.11.17-.11" fill="#109a86"/><path d="m26.44 52.33h.17v.17h-.17z" fill="#fff"/><path d="m26.21 52.72c0 .11-.11.11-.17.23h-.16c-.06-.17.11-.23.22-.28s.06 0 .11 0" fill="#fff"/><path d="m27.29 53.8c-.05.22-.34.22-.45.28s.06-.11.06-.23c.17.06.22-.11.39-.05" fill="#fff"/><path d="m27.41 54.14c-.06.23-.46.23-.69.4 0-.23.29-.35.46-.46.06.06.23 0 .23.06" fill="#109a86"/><path d="m41 54.71c.23.11.34.39.52.56l-.18.17a4.07 4.07 0 0 1 -.85-1.3c.17.17.28.45.51.57" fill="#109a86"/><path d="m49.16 57.71c-.17.11-.39-.12-.56-.17z" fill="#fff"/><path d="m50.75 58.56c-.46-.29-1.08-.29-1.41-.62a3 3 0 0 1 1.41.62" fill="#fff"/><path d="m45.77 58.5-.69-.51.45.23z" fill="#fff"/><path d="m50.58 60.2.06-.11.16.11z" fill="#fff"/><path d="m50.35 60.48h-.22v-.11c0 .05.16.05.22.11" fill="#fff"/><path d="m148.84 67.6h8.26v-24.04h5.93v32.01h-5.93v-2.16l-22.73-.06-.06 2.06h-6.1v-32.14h6.1v24.33l8.37-.06v-29.51h6.16z" fill="#0d958d"/><path d="m112.02 44.68-13.44.03-.11.11v8.19l12.65.13v5.79h-12.71l-.06 10.32 15.33.06v5.92h-36.74v-5.87l15.27-.05v-10.31l-12.54-.07v-5.85h12.54v-8.42l-13.4-.13v-5.81h33.22z" fill="#0d958d"/><path d="m108.28 62.19a3.87 3.87 0 0 1 .45 2.91 3.65 3.65 0 0 1 -6.32 1.36 3.63 3.63 0 1 1 5.87-4.27" fill="#0d958d"/><path d="m291.2 39.03v36.31" style="fill:none;stroke-linecap:round;stroke-miterlimit:10;stroke:#54565a;stroke-width:2;opacity:.2"/><path d="m435.47 38.5v2.43a1.38 1.38 0 0 1 .24-.41 1.64 1.64 0 0 1 .35-.29 1.54 1.54 0 0 1 .42-.17 1.88 1.88 0 0 1 .52-.06 1.83 1.83 0 0 1 .84.18 1.69 1.69 0 0 1 .6.49 2.05 2.05 0 0 1 .35.71 3.14 3.14 0 0 1 0 1.72 2.05 2.05 0 0 1 -.35.71 1.56 1.56 0 0 1 -.6.48 1.83 1.83 0 0 1 -.84.18 1.78 1.78 0 0 1 -.92-.24 1.36 1.36 0 0 1 -.59-.68v.81h-.49v-5.86zm2.79 3.09a1.6 1.6 0 0 0 -.26-.59 1.33 1.33 0 0 0 -.43-.42 1.23 1.23 0 0 0 -.63-.16 1.46 1.46 0 0 0 -.69.16 1.43 1.43 0 0 0 -.46.42 1.6 1.6 0 0 0 -.25.58 2.68 2.68 0 0 0 0 1.3 1.6 1.6 0 0 0 .25.58 1.3 1.3 0 0 0 .46.41 1.35 1.35 0 0 0 .75.13 1.14 1.14 0 0 0 .63-.16 1.21 1.21 0 0 0 .43-.41 1.6 1.6 0 0 0 .25-.58 2.68 2.68 0 0 0 0-1.3z" fill="#54565a"/><path d="m439.73 40.12 1.4 3.61 1.3-3.61h.57l-1.89 4.88c-.08.18-.15.33-.21.44a1.09 1.09 0 0 1 -.22.28.69.69 0 0 1 -.28.15 1.49 1.49 0 0 1 -.4 0h-.25a.4.4 0 0 1 -.15 0v-.43h.18.22a.79.79 0 0 0 .29 0 .64.64 0 0 0 .19-.13.77.77 0 0 0 .14-.21l.12-.27.18-.48-1.69-4.22z" fill="#54565a"/><path d="m449.88 38.5v.5h-3.49v2.12h3.27v.48h-3.27v2.31h3.53v.48h-4.08v-5.89z" fill="#54565a"/><path d="m450.91 43.49h.69v.87h-.69z" fill="#54565a"/><path d="m453.38 43.18a1.24 1.24 0 0 0 .41.49 1.87 1.87 0 0 0 .61.26 3.7 3.7 0 0 0 .76.07 2.34 2.34 0 0 0 .5-.06 2.21 2.21 0 0 0 .5-.21 1.26 1.26 0 0 0 .39-.37 1 1 0 0 0 .16-.55.74.74 0 0 0 -.12-.42 1 1 0 0 0 -.28-.31 1.79 1.79 0 0 0 -.39-.2l-.42-.12-1.3-.32a4.2 4.2 0 0 1 -.5-.17 1.29 1.29 0 0 1 -.42-.26 1.18 1.18 0 0 1 -.29-.4 1.32 1.32 0 0 1 -.12-.59 1.77 1.77 0 0 1 .09-.5 1.33 1.33 0 0 1 .3-.54 1.84 1.84 0 0 1 .62-.43 2.48 2.48 0 0 1 1-.17 2.82 2.82 0 0 1 .83.11 2 2 0 0 1 .69.35 1.68 1.68 0 0 1 .65 1.36h-.56a1.35 1.35 0 0 0 -.15-.59 1.31 1.31 0 0 0 -.35-.42 1.57 1.57 0 0 0 -.5-.25 2 2 0 0 0 -.6-.09 2.44 2.44 0 0 0 -.55.06 1.34 1.34 0 0 0 -.47.2 1.07 1.07 0 0 0 -.45.91 1 1 0 0 0 .07.35.73.73 0 0 0 .2.26.88.88 0 0 0 .28.17 1.69 1.69 0 0 0 .34.11l1.43.35a4.94 4.94 0 0 1 .58.2 1.84 1.84 0 0 1 .49.3 1.13 1.13 0 0 1 .32.43 1.43 1.43 0 0 1 .12.62 1.38 1.38 0 0 1 0 .26 1 1 0 0 1 -.1.35 1.63 1.63 0 0 1 -.22.37 1.2 1.2 0 0 1 -.39.34 2.58 2.58 0 0 1 -.62.25 3.81 3.81 0 0 1 -.89.09 3.71 3.71 0 0 1 -1-.12 2.18 2.18 0 0 1 -.75-.36 1.66 1.66 0 0 1 -.48-.63 2.07 2.07 0 0 1 -.14-.93h.55a1.68 1.68 0 0 0 .17.75z" fill="#54565a"/><path d="m458.65 38.5v3.62a3.12 3.12 0 0 0 .11.87 1.44 1.44 0 0 0 .34.58 1.36 1.36 0 0 0 .54.33 2.37 2.37 0 0 0 .72.1 2.3 2.3 0 0 0 .73-.1 1.33 1.33 0 0 0 .55-.33 1.43 1.43 0 0 0 .36-.57 2.77 2.77 0 0 0 .12-.87v-3.63h.55v3.75a3 3 0 0 1 -.12.85 1.9 1.9 0 0 1 -.4.71 1.79 1.79 0 0 1 -.71.48 2.74 2.74 0 0 1 -1.05.18 2.64 2.64 0 0 1 -1-.18 1.72 1.72 0 0 1 -.71-.48 1.77 1.77 0 0 1 -.4-.71 2.65 2.65 0 0 1 -.13-.85v-3.75z" fill="#54565a"/><path d="m464.38 38.5 3.42 5v-5h.56v5.86h-.62l-3.42-5v5h-.56v-5.86z" fill="#54565a"/><path d="m474.3 38.5a3.29 3.29 0 0 1 .71.07 1.46 1.46 0 0 1 .6.24 1.24 1.24 0 0 1 .41.44 1.29 1.29 0 0 1 .16.68 1.33 1.33 0 0 1 -.07.45 1.39 1.39 0 0 1 -.21.4 1.47 1.47 0 0 1 -.32.29 1.22 1.22 0 0 1 -.42.18 1.42 1.42 0 0 1 .91.47 1.44 1.44 0 0 1 .33 1v.32a2 2 0 0 1 -.1.36 1.68 1.68 0 0 1 -.21.36 1.35 1.35 0 0 1 -.38.32 2.34 2.34 0 0 1 -.57.22 3.26 3.26 0 0 1 -.82.09h-2.48v-5.89zm0 2.57a1.93 1.93 0 0 0 .58-.08 1.13 1.13 0 0 0 .41-.21.93.93 0 0 0 .25-.32.85.85 0 0 0 .08-.39c0-.73-.44-1.1-1.32-1.1h-1.92v2.1zm0 2.81a3.61 3.61 0 0 0 .59-.05 1.27 1.27 0 0 0 .49-.2.87.87 0 0 0 .34-.37 1.29 1.29 0 0 0 .12-.59 1 1 0 0 0 -.39-.84 2 2 0 0 0 -1.15-.29h-1.92v2.34z" fill="#54565a"/><path d="m477.3 40.78a1.2 1.2 0 0 1 .36-.44 1.54 1.54 0 0 1 .53-.26 2.8 2.8 0 0 1 .67-.08 3.53 3.53 0 0 1 .56 0 1.59 1.59 0 0 1 .5.2 1.06 1.06 0 0 1 .36.42 1.54 1.54 0 0 1 .14.69v2.25c0 .21.1.31.3.31a.43.43 0 0 0 .17 0v.43h-.16-.18a.68.68 0 0 1 -.31-.06.4.4 0 0 1 -.19-.15.52.52 0 0 1 -.08-.23 1.42 1.42 0 0 1 0-.3 3.76 3.76 0 0 1 -.28.36 1.58 1.58 0 0 1 -.32.27 1.67 1.67 0 0 1 -.41.16 2.09 2.09 0 0 1 -.53.06 2 2 0 0 1 -.56-.07 1.35 1.35 0 0 1 -.45-.22 1 1 0 0 1 -.3-.39 1.18 1.18 0 0 1 -.11-.55 1.07 1.07 0 0 1 .19-.69 1.21 1.21 0 0 1 .53-.38 2.88 2.88 0 0 1 .73-.19l.82-.1h.29a.53.53 0 0 0 .2-.09.37.37 0 0 0 .13-.17.72.72 0 0 0 0-.28.94.94 0 0 0 -.08-.43.67.67 0 0 0 -.24-.26 1 1 0 0 0 -.35-.14 3 3 0 0 0 -.43 0 1.3 1.3 0 0 0 -.81.24 1 1 0 0 0 -.33.75h-.51a1.72 1.72 0 0 1 .15-.66zm2.59 1.22a.27.27 0 0 1 -.19.13l-.25.06-.67.1a3.58 3.58 0 0 0 -.64.14 1.25 1.25 0 0 0 -.47.26.62.62 0 0 0 -.19.48.82.82 0 0 0 .08.35.86.86 0 0 0 .21.26 1 1 0 0 0 .31.17 1.34 1.34 0 0 0 .35 0 1.77 1.77 0 0 0 .57.05 1.4 1.4 0 0 0 .48-.26 1.23 1.23 0 0 0 .32-.42 1.38 1.38 0 0 0 .11-.55v-.77z" fill="#54565a"/><path d="m482 40.12v.73a1.26 1.26 0 0 1 .53-.62 1.56 1.56 0 0 1 .82-.23 2.28 2.28 0 0 1 .75.11 1.13 1.13 0 0 1 .73.84 2.84 2.84 0 0 1 .07.68v2.73h-.51v-2.65a2.65 2.65 0 0 0 -.05-.5 1.08 1.08 0 0 0 -.17-.41 1 1 0 0 0 -.34-.27 1.3 1.3 0 0 0 -.52-.1 1.2 1.2 0 0 0 -.55.12 1.12 1.12 0 0 0 -.41.3 1.38 1.38 0 0 0 -.26.46 1.81 1.81 0 0 0 -.11.58v2.47h-.51v-4.24z" fill="#54565a"/><path d="m486.38 38.5v3.67l2.34-2.05h.69l-1.8 1.57 1.93 2.67h-.65l-1.68-2.31-.83.7v1.61h-.52v-5.86z" fill="#54565a"/><rect fill="#00a4ef" height="6.84" rx="1.37" width="15.04" x="373.32" y="52.73"/><path d="m429.72 62.3a12 12 0 0 0 -17.11-10.8 1.36 1.36 0 0 0 -1.35-1.16h-4.1a1.37 1.37 0 0 0 -1.37 1.37v22.9a1.36 1.36 0 0 0 1.37 1.39h4.1a1.36 1.36 0 0 0 1.37-1.36v-12.34a5.13 5.13 0 1 1 10.25 0v12.34a1.37 1.37 0 0 0 1.37 1.36h4.1a1.37 1.37 0 0 0 1.37-1.37z" fill="#ffc517"/><path d="m476.72 50.34a12.82 12.82 0 1 0 12.82 12.82 12.83 12.83 0 0 0 -12.82-12.82zm0 18.8a6 6 0 1 1 6-6 6 6 0 0 1 -6 6z" fill="#ed4848"/><rect fill="#00c08b" height="25.64" rx="1.37" width="6.84" x="393.83" y="50.34"/><path d="m459.11 50.34h-4.11a1.36 1.36 0 0 0 -1.36 1.37v1.2a12.82 12.82 0 1 0 0 20.49v6a6.23 6.23 0 0 1 -12.35 1.12 1.37 1.37 0 0 0 -1.29-1.13h-4.14a1.36 1.36 0 0 0 -1.36 1.53 13.06 13.06 0 0 0 26-1.53v-27.68a1.37 1.37 0 0 0 -1.39-1.37zm-13.11 18.8a6 6 0 1 1 6-6 6 6 0 0 1 -6 6z" fill="#f90"/><path d="m383.58 38.38h-19.12a1.37 1.37 0 0 0 -1.37 1.36v34.87a1.36 1.36 0 0 0 1.34 1.39h4.11a1.36 1.36 0 0 0 1.36-1.36v-29.43h20.51a6.83 6.83 0 0 0 -6.83-6.83z" fill="#00a4ef"/><circle cx="356.21" cy="72.43" fill="#00c08b" r="3.42"/><path d="m398.46 39.22a1.37 1.37 0 0 0 -2.37 0l-2.19 3.78a1.37 1.37 0 0 0 1.19 2h4.37a1.36 1.36 0 0 0 1.18-2z" fill="#00c08b"/><path d="m334.05 45.18a15.4 15.4 0 1 0 12.88 23.66 1.36 1.36 0 0 0 -1.14-2.11h-5.38a1.36 1.36 0 0 0 -.9.34 8.55 8.55 0 0 1 -13.67-3.76h22.07a1.38 1.38 0 0 0 1.36-1.24 16.46 16.46 0 0 0 .07-1.73 15.45 15.45 0 0 0 -15.29-15.16zm-8.21 12.66a8.55 8.55 0 0 1 16.21 0z" fill="#00c08b"/></svg>