<svg viewBox="0 0 342.82 163.12" xmlns="http://www.w3.org/2000/svg"><path d="m211.81 49.43v3.12a1.58 1.58 0 0 1 .3-.52 2 2 0 0 1 .45-.37 2 2 0 0 1 .54-.23 2.44 2.44 0 0 1 .59-.07 2.39 2.39 0 0 1 1.08.23 2.16 2.16 0 0 1 .77.63 2.72 2.72 0 0 1 .45.92 3.9 3.9 0 0 1 .15 1.1 4 4 0 0 1 -.15 1.1 2.82 2.82 0 0 1 -.45.92 2.13 2.13 0 0 1 -.77.62 2.39 2.39 0 0 1 -1.08.23 2.33 2.33 0 0 1 -1.18-.31 1.77 1.77 0 0 1 -.76-.88v1h-.61v-7.49zm3.59 4a2.37 2.37 0 0 0 -.32-.74 1.77 1.77 0 0 0 -.55-.54 1.63 1.63 0 0 0 -.82-.2 1.89 1.89 0 0 0 -.89.2 1.8 1.8 0 0 0 -.59.54 2 2 0 0 0 -.32.74 3.58 3.58 0 0 0 0 1.68 2.13 2.13 0 0 0 .32.74 1.73 1.73 0 0 0 1.48.74 1.54 1.54 0 0 0 .82-.21 1.74 1.74 0 0 0 .55-.53 2.59 2.59 0 0 0 .32-.74 3.58 3.58 0 0 0 0-1.68z" fill="#54565a"/><path d="m217.29 51.52 1.79 4.64 1.68-4.64h.66l-2.36 6.26c-.1.23-.19.42-.27.58a1.3 1.3 0 0 1 -.28.35 1 1 0 0 1 -.36.19 1.9 1.9 0 0 1 -.52.06h-.32-.19v-.56h.23.22a1 1 0 0 0 .37-.06.81.81 0 0 0 .24-.17 1 1 0 0 0 .18-.27c0-.11.11-.22.16-.35l.23-.61-2.17-5.42z" fill="#54565a"/><path d="m230.33 49.43v.57h-4.48v2.72h4.2v.61h-4.2v3h4.54v.67h-5.26v-7.57z" fill="#54565a"/><path d="m231.65 55.84h.89v1.16h-.89z" fill="#54565a"/><path d="m234.83 55.45a1.61 1.61 0 0 0 .53.62 2 2 0 0 0 .78.33 4.31 4.31 0 0 0 1 .1 2.62 2.62 0 0 0 .65-.08 2.42 2.42 0 0 0 .64-.27 1.6 1.6 0 0 0 .5-.47 1.18 1.18 0 0 0 .21-.7 1 1 0 0 0 -.15-.55 1.06 1.06 0 0 0 -.37-.39 2 2 0 0 0 -.5-.26 4 4 0 0 0 -.53-.16l-1.68-.42a3.69 3.69 0 0 1 -.64-.21 1.63 1.63 0 0 1 -.54-.33 1.66 1.66 0 0 1 -.38-.52 1.82 1.82 0 0 1 -.14-.75 2.38 2.38 0 0 1 .11-.64 1.81 1.81 0 0 1 .39-.7 2.31 2.31 0 0 1 .8-.55 3.2 3.2 0 0 1 1.29-.23 3.74 3.74 0 0 1 1.07.15 2.65 2.65 0 0 1 .89.44 2.15 2.15 0 0 1 .83 1.75h-.72a1.73 1.73 0 0 0 -.19-.75 1.61 1.61 0 0 0 -.46-.54 2.15 2.15 0 0 0 -.64-.33 2.74 2.74 0 0 0 -.76-.11 3.38 3.38 0 0 0 -.72.08 1.9 1.9 0 0 0 -.6.25 1.3 1.3 0 0 0 -.41.46 1.41 1.41 0 0 0 -.16.71 1.08 1.08 0 0 0 .09.46.9.9 0 0 0 .25.33 1.09 1.09 0 0 0 .36.22 2.83 2.83 0 0 0 .44.14l1.83.45a5.65 5.65 0 0 1 .76.26 2.58 2.58 0 0 1 .62.38 1.62 1.62 0 0 1 .42.55 1.94 1.94 0 0 1 .15.8v.33a1.72 1.72 0 0 1 -.13.45 2 2 0 0 1 -.29.48 1.81 1.81 0 0 1 -.5.44 3 3 0 0 1 -.8.31 4.16 4.16 0 0 1 -1.14.13 4.81 4.81 0 0 1 -1.23-.16 2.66 2.66 0 0 1 -1-.47 2.09 2.09 0 0 1 -.62-.81 2.74 2.74 0 0 1 -.18-1.19h.72a2.16 2.16 0 0 0 .15.97z" fill="#54565a"/><path d="m241.6 49.43v4.66a3.55 3.55 0 0 0 .15 1.11 1.83 1.83 0 0 0 .43.75 1.66 1.66 0 0 0 .7.42 2.94 2.94 0 0 0 .93.13 3.05 3.05 0 0 0 .94-.13 1.63 1.63 0 0 0 .69-.42 1.84 1.84 0 0 0 .44-.75 3.9 3.9 0 0 0 .14-1.11v-4.66h.72v4.82a3.66 3.66 0 0 1 -.16 1.1 2.35 2.35 0 0 1 -.52.91 2.49 2.49 0 0 1 -.91.62 3.54 3.54 0 0 1 -1.34.23 3.57 3.57 0 0 1 -1.34-.23 2.45 2.45 0 0 1 -.9-.62 2.35 2.35 0 0 1 -.52-.91 3.66 3.66 0 0 1 -.16-1.1v-4.82z" fill="#54565a"/><path d="m249 49.43 4.38 6.37v-6.37h.72v7.57h-.8l-4.39-6.37v6.37h-.72v-7.57z" fill="#54565a"/><path d="m261.72 49.43a4.63 4.63 0 0 1 .92.09 2.38 2.38 0 0 1 .77.3 1.62 1.62 0 0 1 .73 1.45 1.65 1.65 0 0 1 -.1.58 1.7 1.7 0 0 1 -.68.89 1.32 1.32 0 0 1 -.53.22 1.77 1.77 0 0 1 1.16.6 1.82 1.82 0 0 1 .43 1.24 3 3 0 0 1 0 .4 2.17 2.17 0 0 1 -.12.47 2.33 2.33 0 0 1 -.28.47 1.6 1.6 0 0 1 -.48.4 3 3 0 0 1 -.74.29 4.51 4.51 0 0 1 -1 .11h-3.18v-7.51zm0 3.3a2.39 2.39 0 0 0 .75-.1 1.76 1.76 0 0 0 .53-.27 1.24 1.24 0 0 0 .32-.41 1.21 1.21 0 0 0 .1-.5c0-.94-.56-1.41-1.7-1.41h-2.46v2.69zm0 3.62a4.56 4.56 0 0 0 .76-.07 1.9 1.9 0 0 0 .64-.25 1.33 1.33 0 0 0 .43-.48 1.67 1.67 0 0 0 .16-.75 1.23 1.23 0 0 0 -.52-1.09 2.46 2.46 0 0 0 -1.47-.37h-2.46v3z" fill="#54565a"/><path d="m265.58 52.36a1.73 1.73 0 0 1 .46-.57 2 2 0 0 1 .68-.33 3.35 3.35 0 0 1 .87-.1 3.42 3.42 0 0 1 .71.07 1.62 1.62 0 0 1 .65.26 1.34 1.34 0 0 1 .46.53 1.9 1.9 0 0 1 .18.89v2.89a.35.35 0 0 0 .39.4.46.46 0 0 0 .21 0v.56h-.2-.23a.94.94 0 0 1 -.41-.07.5.5 0 0 1 -.23-.2.68.68 0 0 1 -.12-.3c0-.11 0-.24 0-.38a4.52 4.52 0 0 1 -.37.47 1.65 1.65 0 0 1 -.41.34 2 2 0 0 1 -.51.21 2.87 2.87 0 0 1 -.7.08 2.71 2.71 0 0 1 -.71-.09 1.67 1.67 0 0 1 -.58-.29 1.46 1.46 0 0 1 -.39-.49 1.74 1.74 0 0 1 -.14-.72 1.47 1.47 0 0 1 .25-.89 1.77 1.77 0 0 1 .67-.49 3.7 3.7 0 0 1 .94-.23l1.06-.14.37-.05a.62.62 0 0 0 .26-.11.48.48 0 0 0 .17-.22.88.88 0 0 0 .06-.35 1.16 1.16 0 0 0 -.12-.56.83.83 0 0 0 -.3-.34 1.11 1.11 0 0 0 -.45-.17 2.54 2.54 0 0 0 -.56 0 1.68 1.68 0 0 0 -1 .3 1.15 1.15 0 0 0 -.42 1h-.67a2.25 2.25 0 0 1 .13-.91zm3.32 1.64a.34.34 0 0 1 -.24.17l-.31.08-.87.13a5.62 5.62 0 0 0 -.82.17 1.69 1.69 0 0 0 -.61.33.79.79 0 0 0 -.23.62.93.93 0 0 0 .1.45 1.06 1.06 0 0 0 .26.34 1.47 1.47 0 0 0 .39.21 1.44 1.44 0 0 0 .46.08 2.28 2.28 0 0 0 .73-.12 1.77 1.77 0 0 0 .6-.34 1.54 1.54 0 0 0 .41-.53 1.66 1.66 0 0 0 .16-.72v-.87z" fill="#54565a"/><path d="m271.57 51.52v.94a1.6 1.6 0 0 1 .68-.8 2 2 0 0 1 1.06-.3 2.69 2.69 0 0 1 1 .15 1.49 1.49 0 0 1 .61.41 1.47 1.47 0 0 1 .33.66 3.87 3.87 0 0 1 .1.88v3.54h-.67v-3.4a3.34 3.34 0 0 0 -.06-.65 1.43 1.43 0 0 0 -.22-.52 1.15 1.15 0 0 0 -.4-.43 1.64 1.64 0 0 0 -.67-.12 1.76 1.76 0 0 0 -.71.14 1.74 1.74 0 0 0 -.53.39 1.9 1.9 0 0 0 -.34.59 2.55 2.55 0 0 0 -.13.74v3.26h-.66v-5.48z" fill="#54565a"/><path d="m277.25 49.43v4.72l3-2.63h.89l-2.32 2 2.49 3.48h-.84l-2.15-3-1.07.89v2.11h-.67v-7.57z" fill="#54565a"/><g fill="none" stroke="#9f9f9f" stroke-linecap="round" stroke-miterlimit="10"><path d="m61.52.2v.5" stroke-width=".4"/><path d="m61.52 1.7v160.22" stroke-dasharray="1 1" stroke-width=".4"/><path d="m61.52 162.42v.5" stroke-width=".4"/><path d="m105.53 49.27v.55" stroke-width=".44"/><path d="m105.53 50.92v98.35" stroke-dasharray="1.1 1.1" stroke-width=".44"/><path d="m105.53 149.82v.55" stroke-width=".44"/><path d="m114.32 49.27v.55" stroke-width=".44"/><path d="m114.32 50.92v98.35" stroke-dasharray="1.1 1.1" stroke-width=".44"/><path d="m114.32 149.82v.55" stroke-width=".44"/><path d="m26.37.2v.5" stroke-width=".4"/><path d="m26.37 1.7v160.22" stroke-dasharray="1 1" stroke-width=".4"/><path d="m26.37 162.42v.5" stroke-width=".4"/><path d="m316.46.2v.5" stroke-width=".4"/><path d="m316.46 1.7v160.22" stroke-dasharray="1 1" stroke-width=".4"/><path d="m316.46 162.42v.5" stroke-width=".4"/><path d="m281.31.2v.5" stroke-width=".4"/><path d="m281.31 1.7v160.22" stroke-dasharray="1 1" stroke-width=".4"/><path d="m281.31 162.42v.5" stroke-width=".4"/><path d="m.2 49.27h.5" stroke-width=".4"/><path d="m1.7 49.27h339.92" stroke-dasharray="1 1" stroke-width=".4"/><path d="m342.12 49.27h.5" stroke-width=".4"/><path d="m.2 14.12h.5" stroke-width=".4"/><path d="m1.7 14.12h339.92" stroke-dasharray="1 1" stroke-width=".4"/><path d="m342.12 14.12h.5" stroke-width=".4"/><path d="m.2 150.37h.5" stroke-width=".4"/><path d="m1.7 150.37h339.92" stroke-dasharray="1 1" stroke-width=".4"/><path d="m342.12 150.37h.5" stroke-width=".4"/><path d="m.2 97.65h.5" stroke-width=".4"/><path d="m1.7 97.65h339.92" stroke-dasharray="1 1" stroke-width=".4"/><path d="m342.12 97.65h.5" stroke-width=".4"/><circle cx="109.92" cy="102.04" r="4.39" stroke-dasharray="1" stroke-width=".4"/></g><path d="m107.69 114.51h1.07l1.17 1.82 1.22-1.82h1l-1.7 2.48 1.82 2.67h-1.1l-1.28-2-1.3 2h-1l1.82-2.67z" fill="#55a689"/><path d="m167.32 122.29a.8.8 0 0 0 -.22-.5.73.73 0 0 0 -.51-.19.93.93 0 0 0 -.39.08.84.84 0 0 0 -.27.22 1 1 0 0 0 -.18.32 2.26 2.26 0 0 0 -.11.37 2.71 2.71 0 0 0 -.06.38v.36a1.08 1.08 0 0 1 .45-.45 1.52 1.52 0 0 1 .63-.14 1.57 1.57 0 0 1 .67.13 1.41 1.41 0 0 1 .51.35 1.59 1.59 0 0 1 .31.54 2.09 2.09 0 0 1 .11.67 1.91 1.91 0 0 1 -.12.68 1.82 1.82 0 0 1 -.34.55 1.7 1.7 0 0 1 -.54.36 1.65 1.65 0 0 1 -.68.13 1.78 1.78 0 0 1 -.91-.21 1.37 1.37 0 0 1 -.56-.56 2.26 2.26 0 0 1 -.29-.83 6.76 6.76 0 0 1 -.08-1 4.09 4.09 0 0 1 .1-.91 2.57 2.57 0 0 1 .32-.84 1.72 1.72 0 0 1 .59-.61 1.58 1.58 0 0 1 .89-.24 1.52 1.52 0 0 1 .57.1 1.47 1.47 0 0 1 .47.28 1.44 1.44 0 0 1 .34.43 1.32 1.32 0 0 1 .14.56zm-.79 3.19a.8.8 0 0 0 .39-.09.9.9 0 0 0 .44-.57 1.34 1.34 0 0 0 .06-.4 1.21 1.21 0 0 0 -.06-.38.85.85 0 0 0 -.16-.33.89.89 0 0 0 -.28-.23.9.9 0 0 0 -1.07.22 1 1 0 0 0 -.17.33 1.27 1.27 0 0 0 -.06.39 1.29 1.29 0 0 0 .06.4 1.2 1.2 0 0 0 .17.34 1 1 0 0 0 .29.23.8.8 0 0 0 .39.09z" fill="#55a689"/><path d="m168.58 120.92h1.08l1.16 1.81 1.22-1.81h1l-1.7 2.48 1.82 2.66h-1.1l-1.28-2-1.3 2h-1l1.82-2.66z" fill="#55a689"/><circle cx="43.94" cy="72.12" r="17.57" style="fill:none;stroke:#9f9f9f;stroke-linecap:round;stroke-miterlimit:10;stroke-width:.4;stroke-dasharray:1"/><path d="m43.36 73h-.65v1.19h-.78v-1.19h-2.16v-.82l2.16-3h.78v3.2h.65zm-3-.65h1.53v-2.24z" fill="#55a689"/><path d="m43.7 69h1.07l1.17 1.81 1.22-1.81h1l-1.7 2.48 1.82 2.66h-1.1l-1.28-2-1.3 2h-1l1.82-2.66z" fill="#55a689"/><circle cx="298.88" cy="72.12" r="17.57" style="fill:none;stroke:#9f9f9f;stroke-linecap:round;stroke-miterlimit:10;stroke-width:.4;stroke-dasharray:1"/><path d="m298.29 73h-.65v1.19h-.77v-1.19h-2.16v-.82l2.16-3h.77v3.2h.65zm-3-.65h1.53v-2.24z" fill="#55a689"/><path d="m298.64 69h1.07l1.17 1.81 1.21-1.81h1l-1.7 2.48 1.82 2.66h-1.09l-1.28-2-1.31 2h-1l1.82-2.66z" fill="#55a689"/><circle cx="168.82" cy="31.7" r="17.57" style="fill:none;stroke:#9f9f9f;stroke-linecap:round;stroke-miterlimit:10;stroke-width:.4;stroke-dasharray:1"/><path d="m168.24 32.55h-.65v1.2h-.78v-1.2h-2.16v-.81l2.16-3h.78v3.2h.65zm-3-.64h1.53v-2.22z" fill="#55a689"/><path d="m168.58 28.61h1.08l1.16 1.81 1.18-1.81h1l-1.7 2.47 1.82 2.67h-1.1l-1.28-2-1.3 2h-1l1.82-2.67z" fill="#55a689"/><circle cx="168.82" cy="124.01" r="26.36" style="fill:none;stroke:#9f9f9f;stroke-linecap:round;stroke-miterlimit:10;stroke-width:.4;stroke-dasharray:1"/><path d="m211.77 49.43v3.12a1.58 1.58 0 0 1 .3-.52 2 2 0 0 1 .45-.37 2.06 2.06 0 0 1 .55-.23 2.32 2.32 0 0 1 .59-.07 2.45 2.45 0 0 1 1.08.23 2.11 2.11 0 0 1 .76.63 2.59 2.59 0 0 1 .45.91 4.15 4.15 0 0 1 0 2.21 2.63 2.63 0 0 1 -.45.92 2.19 2.19 0 0 1 -.76.62 2.45 2.45 0 0 1 -1.08.22 2.34 2.34 0 0 1 -1.19-.3 1.75 1.75 0 0 1 -.75-.88v1h-.62v-7.49zm3.59 4a2.3 2.3 0 0 0 -.32-.75 1.86 1.86 0 0 0 -.55-.53 1.62 1.62 0 0 0 -.81-.2 1.83 1.83 0 0 0 -.89.2 1.93 1.93 0 0 0 -.6.53 2.1 2.1 0 0 0 -.32.75 3.44 3.44 0 0 0 -.1.84 3.31 3.31 0 0 0 .1.83 2.1 2.1 0 0 0 .32.75 1.81 1.81 0 0 0 .6.53 1.72 1.72 0 0 0 .89.21 1.53 1.53 0 0 0 .81-.21 1.74 1.74 0 0 0 .55-.53 2.3 2.3 0 0 0 .32-.75 3.85 3.85 0 0 0 .1-.83 4 4 0 0 0 -.1-.87z" fill="#54565a"/><path d="m217.25 51.52 1.75 4.63 1.68-4.63h.66l-2.34 6.26q-.15.34-.27.57a1.55 1.55 0 0 1 -.28.36.89.89 0 0 1 -.36.19 1.9 1.9 0 0 1 -.52.06h-.31a.6.6 0 0 1 -.2 0v-.56h.23a.82.82 0 0 0 .22 0 1 1 0 0 0 .37-.06.72.72 0 0 0 .25-.18.73.73 0 0 0 .17-.27c.05-.1.11-.22.16-.34l.24-.61-2.18-5.42z" fill="#54565a"/><path d="m230.29 49.43v.57h-4.48v2.72h4.19v.61h-4.2v3h4.53v.67h-5.25v-7.57z" fill="#54565a"/><path d="m231.61 55.84h.88v1.16h-.88z" fill="#54565a"/><path d="m234.79 55.45a1.59 1.59 0 0 0 .52.62 2 2 0 0 0 .79.33 4.25 4.25 0 0 0 1 .1 3 3 0 0 0 .64-.08 2.48 2.48 0 0 0 .65-.27 1.6 1.6 0 0 0 .5-.47 1.26 1.26 0 0 0 .2-.71 1 1 0 0 0 -.14-.54 1.26 1.26 0 0 0 -.37-.39 1.83 1.83 0 0 0 -.5-.26 5.6 5.6 0 0 0 -.54-.17l-1.67-.41a3.43 3.43 0 0 1 -.64-.21 1.64 1.64 0 0 1 -.55-.34 1.59 1.59 0 0 1 -.37-.51 1.86 1.86 0 0 1 -.14-.75 2.33 2.33 0 0 1 .1-.64 1.84 1.84 0 0 1 .4-.7 2.27 2.27 0 0 1 .79-.55 3.22 3.22 0 0 1 1.3-.23 3.79 3.79 0 0 1 1.07.15 2.6 2.6 0 0 1 .88.44 2.27 2.27 0 0 1 .61.73 2.22 2.22 0 0 1 .22 1h-.71a1.73 1.73 0 0 0 -.2-.75 1.48 1.48 0 0 0 -.45-.54 2.28 2.28 0 0 0 -.64-.33 2.81 2.81 0 0 0 -.77-.11 3.36 3.36 0 0 0 -.77.14 1.81 1.81 0 0 0 -.6.25 1.43 1.43 0 0 0 -.42.46 1.52 1.52 0 0 0 -.16.71 1.08 1.08 0 0 0 .09.46 1 1 0 0 0 .25.33 1.25 1.25 0 0 0 .37.22 2.71 2.71 0 0 0 .43.14l1.84.45a5.51 5.51 0 0 1 .75.26 2.39 2.39 0 0 1 .62.38 1.62 1.62 0 0 1 .42.55 1.74 1.74 0 0 1 .16.79 2.47 2.47 0 0 1 0 .34 1.72 1.72 0 0 1 -.13.45 2 2 0 0 1 -.28.48 1.73 1.73 0 0 1 -.51.44 2.89 2.89 0 0 1 -.83.29 4.75 4.75 0 0 1 -1.14.12 4.82 4.82 0 0 1 -1.23-.15 2.58 2.58 0 0 1 -1-.47 2 2 0 0 1 -.62-.81 2.6 2.6 0 0 1 -.18-1.19h.71a2 2 0 0 0 .25.95z" fill="#54565a"/><path d="m241.56 49.43v4.66a3.59 3.59 0 0 0 .15 1.11 1.83 1.83 0 0 0 .43.75 1.74 1.74 0 0 0 .69.42 3.43 3.43 0 0 0 1.87 0 1.77 1.77 0 0 0 .7-.42 1.83 1.83 0 0 0 .43-.75 3.59 3.59 0 0 0 .15-1.11v-4.66h.71v4.82a3.66 3.66 0 0 1 -.16 1.1 2.41 2.41 0 0 1 -1.42 1.53 3.6 3.6 0 0 1 -1.35.22 3.53 3.53 0 0 1 -1.33-.22 2.49 2.49 0 0 1 -.91-.62 2.33 2.33 0 0 1 -.51-.91 3.67 3.67 0 0 1 -.17-1.1v-4.82z" fill="#54565a"/><path d="m248.93 49.43 4.38 6.37v-6.37h.72v7.57h-.8l-4.39-6.37v6.37h-.71v-7.57z" fill="#54565a"/><path d="m261.67 49.43a4.63 4.63 0 0 1 .92.09 2.24 2.24 0 0 1 .76.3 1.73 1.73 0 0 1 .54.57 1.82 1.82 0 0 1 .2.88 1.65 1.65 0 0 1 -.1.58 1.62 1.62 0 0 1 -.27.5 1.52 1.52 0 0 1 -.41.39 1.56 1.56 0 0 1 -.53.22 1.77 1.77 0 0 1 1.16.6 1.8 1.8 0 0 1 .43 1.24 3 3 0 0 1 0 .4 1.75 1.75 0 0 1 -.13.47 1.84 1.84 0 0 1 -.27.46 1.63 1.63 0 0 1 -.48.41 3 3 0 0 1 -.74.29 4.51 4.51 0 0 1 -1.05.11h-3.18v-7.51zm0 3.3a2.39 2.39 0 0 0 .75-.1 1.57 1.57 0 0 0 .53-.28 1.11 1.11 0 0 0 .32-.4 1.21 1.21 0 0 0 .1-.5c0-.94-.56-1.41-1.7-1.41h-2.46v2.69zm0 3.61a4.59 4.59 0 0 0 .76-.06 1.9 1.9 0 0 0 .64-.25 1.33 1.33 0 0 0 .43-.48 1.67 1.67 0 0 0 .16-.75 1.28 1.28 0 0 0 -.52-1.1 2.53 2.53 0 0 0 -1.47-.36h-2.46v3z" fill="#54565a"/><path d="m265.53 52.36a1.61 1.61 0 0 1 .46-.57 1.88 1.88 0 0 1 .68-.33 3.33 3.33 0 0 1 .86-.1 3.51 3.51 0 0 1 .72.07 1.52 1.52 0 0 1 .64.26 1.36 1.36 0 0 1 .47.53 1.9 1.9 0 0 1 .18.89v2.89a.35.35 0 0 0 .39.4.65.65 0 0 0 .21 0v.55h-.21-.22a1.12 1.12 0 0 1 -.41-.07.59.59 0 0 1 -.24-.2.82.82 0 0 1 -.11-.3c0-.11 0-.24 0-.38-.12.17-.25.33-.37.47a1.78 1.78 0 0 1 -.93.55 2.77 2.77 0 0 1 -.69.07 2.71 2.71 0 0 1 -.71-.09 1.65 1.65 0 0 1 -.58-.28 1.5 1.5 0 0 1 -.39-.5 1.7 1.7 0 0 1 -.14-.71 1.41 1.41 0 0 1 .25-.89 1.6 1.6 0 0 1 .67-.49 4.17 4.17 0 0 1 .94-.24l1.06-.13.37-.05a.68.68 0 0 0 .26-.11.54.54 0 0 0 .17-.22 1.39 1.39 0 0 0 -.06-.91.83.83 0 0 0 -.3-.34 1.27 1.27 0 0 0 -.5-.13 3.16 3.16 0 0 0 -.55 0 1.66 1.66 0 0 0 -1 .3 1.15 1.15 0 0 0 -.42 1h-.67a2.25 2.25 0 0 1 .17-.94zm3.32 1.64a.34.34 0 0 1 -.24.17l-.32.08-.87.13a4.62 4.62 0 0 0 -.81.17 1.69 1.69 0 0 0 -.61.33.8.8 0 0 0 -.24.62 1.06 1.06 0 0 0 .1.45 1.27 1.27 0 0 0 .27.34 1.47 1.47 0 0 0 .39.21 1.44 1.44 0 0 0 .46.08 2.18 2.18 0 0 0 .72-.12 1.72 1.72 0 0 0 .61-.34 1.58 1.58 0 0 0 .41-.54 1.64 1.64 0 0 0 .15-.71v-.87z" fill="#54565a"/><path d="m271.52 51.52v.93a1.58 1.58 0 0 1 .68-.79 2 2 0 0 1 1.06-.3 2.59 2.59 0 0 1 1 .15 1.38 1.38 0 0 1 .62.41 1.58 1.58 0 0 1 .33.66 3.91 3.91 0 0 1 .09.88v3.54h-.66v-3.4a3.34 3.34 0 0 0 -.06-.65 1.45 1.45 0 0 0 -.23-.52 1 1 0 0 0 -.42-.35 1.67 1.67 0 0 0 -.67-.12 1.58 1.58 0 0 0 -.71.14 1.38 1.38 0 0 0 -.53.39 1.63 1.63 0 0 0 -.34.59 2.55 2.55 0 0 0 -.13.74v3.18h-.66v-5.48z" fill="#54565a"/><path d="m277.19 49.43v4.72l3-2.63h.88l-2.32 2 2.5 3.48h-.83l-2.15-3-1.08.9v2.1h-.66v-7.57z" fill="#54565a"/><rect fill="#00a4ef" height="8.79" rx="1.76" width="19.33" x="131.9" y="67.72"/><path d="m204.38 80a15.39 15.39 0 0 0 -15.38-15.36 15.23 15.23 0 0 0 -6.61 1.5 1.76 1.76 0 0 0 -1.74-1.5h-5.27a1.76 1.76 0 0 0 -1.76 1.76v29.43a1.76 1.76 0 0 0 1.76 1.76h5.27a1.76 1.76 0 0 0 1.76-1.76v-15.83a6.59 6.59 0 0 1 13.18 0v15.88a1.75 1.75 0 0 0 1.75 1.75h5.27a1.75 1.75 0 0 0 1.76-1.75v-15.88z" fill="#ffc517"/><path d="m264.78 64.64a16.48 16.48 0 1 0 16.47 16.48 16.49 16.49 0 0 0 -16.47-16.48zm0 24.16a7.69 7.69 0 1 1 7.68-7.68 7.69 7.69 0 0 1 -7.68 7.68z" fill="#ed4848"/><rect fill="#00c08b" height="32.94" rx="1.76" width="8.79" x="158.26" y="64.64"/><path d="m242.16 64.64h-5.27a1.76 1.76 0 0 0 -1.76 1.76v1.6a16.47 16.47 0 1 0 0 26.34v7.66a8 8 0 0 1 -15.87 1.43 1.75 1.75 0 0 0 -1.73-1.43h-5.33a1.76 1.76 0 0 0 -1.74 2 16.78 16.78 0 0 0 33.45-2v-35.6a1.75 1.75 0 0 0 -1.75-1.76zm-16.91 24.16a7.69 7.69 0 1 1 7.68-7.68 7.69 7.69 0 0 1 -7.68 7.68z" fill="#f90"/><path d="m145.08 49.27h-24.56a1.76 1.76 0 0 0 -1.76 1.73v44.8a1.75 1.75 0 0 0 1.75 1.76h5.27a1.76 1.76 0 0 0 1.76-1.76v-37.74h26.36a8.79 8.79 0 0 0 -8.82-8.79z" fill="#00a4ef"/><circle cx="109.91" cy="93.03" fill="#00c08b" r="4.39"/><path d="m164.21 50.35a1.76 1.76 0 0 0 -3 0l-2.81 4.87a1.75 1.75 0 0 0 1.52 2.63h5.62a1.76 1.76 0 0 0 1.46-2.63z" fill="#00c08b"/><path d="m81.44 58a19.78 19.78 0 1 0 16.56 30.42 1.75 1.75 0 0 0 -1.47-2.71h-6.92a1.85 1.85 0 0 0 -1.16.43 10.89 10.89 0 0 1 -7.15 2.66 11 11 0 0 1 -10.42-7.49h28.36a1.75 1.75 0 0 0 1.76-1.59 20.39 20.39 0 0 0 .09-2.22 19.84 19.84 0 0 0 -19.65-19.5zm-10.56 16.29a11 11 0 0 1 20.84 0z" fill="#00c08b"/></svg>