<svg viewBox="0 0 321.64 71.33" xmlns="http://www.w3.org/2000/svg"><path d="m123.38 4.69h47.43v2.27l4.46-2.58-4.46-2.58v2.27h-47.43z" fill="#66af95"/><path d="m80.5 4.07h-50.18v-2.27l-4.46 2.58 4.46 2.58v-2.27h50.18z" fill="#66af95"/><path d="m94 6.38v-4.57h-1.69v-.61a4.23 4.23 0 0 0 .63-.05 2 2 0 0 0 .56-.15 1.34 1.34 0 0 0 .42-.37 1.38 1.38 0 0 0 .23-.63h.58v6.38z" fill="#55a689"/><path d="m98.19.78-.34 1.84a1.18 1.18 0 0 1 .53-.35 2.16 2.16 0 0 1 .65-.11 2.32 2.32 0 0 1 .8.13 1.72 1.72 0 0 1 .66.41 2 2 0 0 1 .44.69 2.53 2.53 0 0 1 .17 1 2.33 2.33 0 0 1 -.14.78 2.16 2.16 0 0 1 -.42.68 1.92 1.92 0 0 1 -.7.47 2.48 2.48 0 0 1 -1 .18 2.54 2.54 0 0 1 -.78-.12 2.09 2.09 0 0 1 -.6-.38 1.75 1.75 0 0 1 -.46-.56 1.79 1.79 0 0 1 -.17-.78h.76a1.43 1.43 0 0 0 .13.46 1.22 1.22 0 0 0 .27.37 1.44 1.44 0 0 0 .42.24 1.48 1.48 0 0 0 .53.08 1.44 1.44 0 0 0 .51-.09 1.27 1.27 0 0 0 .44-.28 1.62 1.62 0 0 0 .31-.44 1.9 1.9 0 0 0 .11-.66 1.58 1.58 0 0 0 -.11-.58 1.29 1.29 0 0 0 -.29-.46 1.31 1.31 0 0 0 -.46-.3 1.54 1.54 0 0 0 -.58-.11 1.37 1.37 0 0 0 -.68.17 1.93 1.93 0 0 0 -.51.44h-.66l.59-3.39h3.15v.67z" fill="#55a689"/><path d="m101.93 2.52c0-.25 0-.5.09-.74a3.59 3.59 0 0 1 .21-.68 1.7 1.7 0 0 1 .37-.57 1.79 1.79 0 0 1 .59-.39 2.65 2.65 0 0 1 1.7 0 1.79 1.79 0 0 1 .59.39 1.7 1.7 0 0 1 .37.57 3.59 3.59 0 0 1 .21.68c0 .24.07.49.09.74s0 .49 0 .73 0 .48 0 .73-.05.5-.09.74a3.83 3.83 0 0 1 -.21.68 1.76 1.76 0 0 1 -.37.56 1.67 1.67 0 0 1 -.58.38 2.68 2.68 0 0 1 -1.71 0 1.62 1.62 0 0 1 -.59-.34 1.76 1.76 0 0 1 -.37-.56 3.83 3.83 0 0 1 -.21-.68c0-.24-.07-.49-.09-.74s0-.5 0-.73-.01-.52 0-.77zm.82 1.53a3.2 3.2 0 0 0 .14.83 1.57 1.57 0 0 0 .39.66 1.2 1.2 0 0 0 1.52 0 1.57 1.57 0 0 0 .39-.66 3.2 3.2 0 0 0 .14-.83c0-.3 0-.57 0-.81v-.52a3.43 3.43 0 0 0 0-.56 3.47 3.47 0 0 0 -.11-.56 1.38 1.38 0 0 0 -.23-.47 1.06 1.06 0 0 0 -.37-.33 1.23 1.23 0 0 0 -1.1 0 1.06 1.06 0 0 0 -.37.33 1.38 1.38 0 0 0 -.23.47 3.47 3.47 0 0 0 -.11.56 3.43 3.43 0 0 0 0 .56v.52c-.08.24-.08.51-.06.81z" fill="#55a689"/><path d="m107.91 1.73v.63a1.08 1.08 0 0 1 .59-.56 2.18 2.18 0 0 1 .89-.18 2.1 2.1 0 0 1 .94.2 2 2 0 0 1 .67.53 2.4 2.4 0 0 1 .4.78 3.24 3.24 0 0 1 .14.94 3.12 3.12 0 0 1 -.14.93 2 2 0 0 1 -.39.77 1.81 1.81 0 0 1 -.67.52 2.09 2.09 0 0 1 -.93.19 1.82 1.82 0 0 1 -.38 0 2.17 2.17 0 0 1 -.42-.11 1.87 1.87 0 0 1 -.39-.22 1.3 1.3 0 0 1 -.31-.35v2.35h-.76v-6.42zm2.75 1.65a1.64 1.64 0 0 0 -.26-.55 1.3 1.3 0 0 0 -.45-.39 1.32 1.32 0 0 0 -.64-.15 1.34 1.34 0 0 0 -.66.16 1.21 1.21 0 0 0 -.44.4 1.5 1.5 0 0 0 -.25.56 2.74 2.74 0 0 0 -.08.64 2.84 2.84 0 0 0 .08.66 1.7 1.7 0 0 0 .26.56 1.33 1.33 0 0 0 .45.4 1.59 1.59 0 0 0 .68.14 1.34 1.34 0 0 0 .66-.15 1.27 1.27 0 0 0 .43-.4 1.76 1.76 0 0 0 .23-.58 3 3 0 0 0 .08-.67 2.28 2.28 0 0 0 -.09-.63z" fill="#55a689"/><path d="m112.09 1.73h1l1.11 1.63 1.16-1.63h.92l-1.6 2.14 1.8 2.51h-1l-1.3-1.92-1.29 1.92h-.89l1.75-2.45z" fill="#55a689"/><path d="m9.54 58.72v8.05h-2.32l2.64 4.56 2.63-4.56h-2.32v-8.05z" fill="#66af95"/><path d="m10.17 33.54v-8.61h2.32l-2.63-4.56-2.64 4.56h2.32v8.61z" fill="#66af95"/><path d="m4.38 45.65v.67h-.86v1.5h-.72v-1.5h-2.8v-.74l2.91-4.14h.61v4.21zm-1.58-3.13-2.14 3.13h2.14z" fill="#55a689"/><path d="m8.42 43.33a10.49 10.49 0 0 0 -.75 1.41 9.34 9.34 0 0 0 -.53 1.54 8.55 8.55 0 0 0 -.26 1.54h-.88a7.57 7.57 0 0 1 .27-1.58 9 9 0 0 1 .54-1.48 9.32 9.32 0 0 1 .77-1.34 9.71 9.71 0 0 1 .94-1.16h-3.32v-.72h4.13v.66a7.61 7.61 0 0 0 -.91 1.13z" fill="#55a689"/><path d="m11.12 43.16v.63a1.21 1.21 0 0 1 .6-.56 2.3 2.3 0 0 1 1.83 0 1.83 1.83 0 0 1 .66.54 2.22 2.22 0 0 1 .4.78 3.12 3.12 0 0 1 .14.93 3.24 3.24 0 0 1 -.13.94 2.26 2.26 0 0 1 -.4.77 1.89 1.89 0 0 1 -.66.52 2.27 2.27 0 0 1 -.93.19 2.87 2.87 0 0 1 -.39 0 1.66 1.66 0 0 1 -.42-.12 1.92 1.92 0 0 1 -.39-.22 1.45 1.45 0 0 1 -.31-.34v2.39h-.76v-6.45zm2.75 1.65a1.55 1.55 0 0 0 -.26-.55 1.31 1.31 0 0 0 -.45-.39 1.44 1.44 0 0 0 -.64-.14 1.34 1.34 0 0 0 -.66.15 1.31 1.31 0 0 0 -.44.4 1.83 1.83 0 0 0 -.25.57 2.7 2.7 0 0 0 -.07.63 2.51 2.51 0 0 0 .08.67 1.68 1.68 0 0 0 .25.56 1.35 1.35 0 0 0 .46.39 1.41 1.41 0 0 0 .67.15 1.36 1.36 0 0 0 .67-.15 1.37 1.37 0 0 0 .42-.41 1.81 1.81 0 0 0 .24-.57 3.71 3.71 0 0 0 .07-.67 2.3 2.3 0 0 0 -.09-.64z" fill="#55a689"/><path d="m15.3 43.16h1l1.12 1.63 1.16-1.63h.92l-1.63 2.14 1.8 2.52h-1l-1.27-1.93-1.3 1.93h-.93l1.75-2.45z" fill="#55a689"/><g fill="#54565a"><path d="m128.42 21.05v2.13a1.1 1.1 0 0 1 .2-.35 1.3 1.3 0 0 1 .31-.26 1.2 1.2 0 0 1 .37-.15 1.44 1.44 0 0 1 .41-.05 1.54 1.54 0 0 1 .73.16 1.46 1.46 0 0 1 .56.47 1.84 1.84 0 0 1 .3.63 2.67 2.67 0 0 1 .11.75 2.56 2.56 0 0 1 -.11.75 1.84 1.84 0 0 1 -.3.63 1.46 1.46 0 0 1 -.53.42 1.7 1.7 0 0 1 -1.54-.05 1.22 1.22 0 0 1 -.52-.6v.71h-.41v-5.19zm2.45 2.71a1.45 1.45 0 0 0 -.21-.51 1.19 1.19 0 0 0 -.38-.36 1.07 1.07 0 0 0 -.55-.14 1.25 1.25 0 0 0 -.61.14 1.19 1.19 0 0 0 -.41.36 1.68 1.68 0 0 0 -.22.51 2.36 2.36 0 0 0 0 1.14 1.68 1.68 0 0 0 .22.51 1.33 1.33 0 0 0 .41.37 1.25 1.25 0 0 0 .61.14 1.07 1.07 0 0 0 .55-.14 1.34 1.34 0 0 0 .38-.37 1.45 1.45 0 0 0 .21-.51 2.36 2.36 0 0 0 0-1.14z"/><path d="m132.17 22.48 1.22 3.16 1.14-3.16h.47l-1.62 4.27a3.79 3.79 0 0 1 -.18.39.86.86 0 0 1 -.19.25.66.66 0 0 1 -.25.13 1.61 1.61 0 0 1 -.35 0h-.22-.13v-.38h.16.15a.62.62 0 0 0 .25 0 .66.66 0 0 0 .17-.12.57.57 0 0 0 .12-.18l.11-.24.16-.42-1.49-3.69z"/><path d="m141.07 21.05v.42h-3.07v1.85h2.86v.42h-2.86v2h3.09v.42h-3.58v-5.11z"/><path d="m142 25.43h.6v.76h-.6z"/><path d="m144.14 25.16a1.06 1.06 0 0 0 .36.42 1.34 1.34 0 0 0 .53.23 2.84 2.84 0 0 0 .66.07 1.72 1.72 0 0 0 .44-.06 1.77 1.77 0 0 0 .45-.18 1.19 1.19 0 0 0 .34-.33.81.81 0 0 0 .13-.47.76.76 0 0 0 -.09-.38 1 1 0 0 0 -.25-.26 1.16 1.16 0 0 0 -.35-.18 2.47 2.47 0 0 0 -.36-.11l-1.15-.28a3.12 3.12 0 0 1 -.43-.15 1 1 0 0 1 -.37-.23 1 1 0 0 1 -.26-.35 1.29 1.29 0 0 1 -.1-.51 1.58 1.58 0 0 1 .08-.44 1 1 0 0 1 .27-.47 1.49 1.49 0 0 1 .54-.38 2 2 0 0 1 .88-.16 2.86 2.86 0 0 1 .73.1 1.85 1.85 0 0 1 .61.31 1.43 1.43 0 0 1 .41.5 1.49 1.49 0 0 1 .15.69h-.49a1 1 0 0 0 -.13-.51 1.12 1.12 0 0 0 -.31-.37 1.21 1.21 0 0 0 -.44-.22 1.77 1.77 0 0 0 -.52-.08 2.44 2.44 0 0 0 -.48.05 1.19 1.19 0 0 0 -.41.18.86.86 0 0 0 -.29.31 1 1 0 0 0 -.11.48.79.79 0 0 0 .06.32.92.92 0 0 0 .17.22 1.28 1.28 0 0 0 .25.15l.3.1 1.25.31a2.64 2.64 0 0 1 .52.17 1.75 1.75 0 0 1 .42.26 1.1 1.1 0 0 1 .29.38 1.27 1.27 0 0 1 .1.54 2.11 2.11 0 0 1 0 .23 1.14 1.14 0 0 1 -.09.3 1.86 1.86 0 0 1 -.19.33 1.31 1.31 0 0 1 -.35.3 2.25 2.25 0 0 1 -.54.22 3.53 3.53 0 0 1 -.78.08 3.72 3.72 0 0 1 -.84-.1 1.85 1.85 0 0 1 -.66-.32 1.41 1.41 0 0 1 -.43-.56 1.85 1.85 0 0 1 -.12-.81h.46a1.35 1.35 0 0 0 .14.66z"/><path d="m148.76 21.05v3.18a2.41 2.41 0 0 0 .1.76 1.28 1.28 0 0 0 .3.51 1.13 1.13 0 0 0 .47.29 2.08 2.08 0 0 0 .63.09 2.17 2.17 0 0 0 .65-.09 1.2 1.2 0 0 0 .47-.29 1.28 1.28 0 0 0 .3-.51 2.75 2.75 0 0 0 .1-.76v-3.18h.49v3.29a2.36 2.36 0 0 1 -.12.75 1.52 1.52 0 0 1 -.35.62 1.62 1.62 0 0 1 -.62.42 2.7 2.7 0 0 1 -1.83 0 1.58 1.58 0 0 1 -.61-.42 1.54 1.54 0 0 1 -.36-.62 2.67 2.67 0 0 1 -.11-.75v-3.29z"/><path d="m153.79 21.05 3 4.35v-4.35h.49v5.14h-.55l-3-4.35v4.35h-.49v-5.14z"/><path d="m162.49 21.05a3.11 3.11 0 0 1 .62.06 1.47 1.47 0 0 1 .53.21 1.12 1.12 0 0 1 .36.39 1.21 1.21 0 0 1 .14.6 1 1 0 0 1 -.07.39 1.12 1.12 0 0 1 -.46.61 1.14 1.14 0 0 1 -.36.15 1.19 1.19 0 0 1 .79.4 1.24 1.24 0 0 1 .29.85 1.47 1.47 0 0 1 0 .28 1.29 1.29 0 0 1 -.08.31 1.5 1.5 0 0 1 -.19.32 1 1 0 0 1 -.33.28 1.93 1.93 0 0 1 -.5.19 3 3 0 0 1 -.72.08h-2.17v-5.12zm0 2.25a1.53 1.53 0 0 0 .51-.07.87.87 0 0 0 .36-.18.74.74 0 0 0 .22-.28.77.77 0 0 0 .07-.34c0-.64-.39-1-1.16-1h-1.68v1.87zm0 2.47a2.19 2.19 0 0 0 .52-.05 1.16 1.16 0 0 0 .43-.16 1 1 0 0 0 .3-.33 1.15 1.15 0 0 0 .1-.52.84.84 0 0 0 -.34-.74 1.71 1.71 0 0 0 -1-.25h-1.68v2.05z"/><path d="m165.13 23.05a1 1 0 0 1 .31-.39 1.31 1.31 0 0 1 .46-.22 2.22 2.22 0 0 1 .59-.07 2.63 2.63 0 0 1 .49 0 1.24 1.24 0 0 1 .44.18 1 1 0 0 1 .32.36 1.35 1.35 0 0 1 .12.61v2c0 .19.09.28.27.28a.32.32 0 0 0 .14 0v.38h-.14-.13a.7.7 0 0 1 -.28-.05.3.3 0 0 1 -.16-.13.49.49 0 0 1 -.08-.21 2 2 0 0 1 0-.26 3 3 0 0 1 -.25.32 1.27 1.27 0 0 1 -.28.24 1.22 1.22 0 0 1 -.35.14 2.19 2.19 0 0 1 -.47.05 1.88 1.88 0 0 1 -.49-.06 1.16 1.16 0 0 1 -.4-.2.85.85 0 0 1 -.26-.33 1.07 1.07 0 0 1 -.1-.49 1 1 0 0 1 .17-.61 1.11 1.11 0 0 1 .46-.33 2.4 2.4 0 0 1 .64-.16l.72-.09h.26a.37.37 0 0 0 .18-.08.4.4 0 0 0 .11-.14.87.87 0 0 0 0-.25.86.86 0 0 0 -.08-.38.66.66 0 0 0 -.21-.23.77.77 0 0 0 -.31-.12 2.17 2.17 0 0 0 -.38 0 1.18 1.18 0 0 0 -.7.2.82.82 0 0 0 -.29.66h-.45a1.4 1.4 0 0 1 .13-.62zm2.26 1.11a.24.24 0 0 1 -.16.11l-.22.06-.59.09a2.92 2.92 0 0 0 -.56.11 1.07 1.07 0 0 0 -.41.23.54.54 0 0 0 -.17.42.74.74 0 0 0 .07.31.83.83 0 0 0 .19.23.93.93 0 0 0 .26.15 1.12 1.12 0 0 0 .31.05 1.69 1.69 0 0 0 .5-.08 1.36 1.36 0 0 0 .41-.23 1.13 1.13 0 0 0 .28-.37 1.1 1.1 0 0 0 .11-.49v-.59z"/><path d="m169.21 22.48v.64a1.07 1.07 0 0 1 .46-.55 1.39 1.39 0 0 1 .72-.2 1.83 1.83 0 0 1 .66.1 1.15 1.15 0 0 1 .42.28 1.06 1.06 0 0 1 .22.45 2.77 2.77 0 0 1 .06.6v2.39h-.45v-2.32a2.06 2.06 0 0 0 0-.44 1 1 0 0 0 -.15-.36.66.66 0 0 0 -.29-.23 1.08 1.08 0 0 0 -.46-.09 1.1 1.1 0 0 0 -.49.1 1 1 0 0 0 -.36.26 1.36 1.36 0 0 0 -.23.41 1.93 1.93 0 0 0 -.09.5v2.17h-.45v-3.71z"/><path d="m173.08 21.05v3.22l2.06-1.79h.61l-1.59 1.37 1.7 2.34h-.57l-1.47-2-.74.61v1.41h-.45v-5.16z"/></g><rect fill="#00a4ef" height="6" rx="1.2" width="13.19" x="73.9" y="33.54"/><path d="m123.38 41.93a10.51 10.51 0 0 0 -10.49-10.46 10.37 10.37 0 0 0 -4.52 1 1.19 1.19 0 0 0 -1.18-1h-3.6a1.2 1.2 0 0 0 -1.2 1.2v20.06a1.2 1.2 0 0 0 1.2 1.2h3.6a1.2 1.2 0 0 0 1.2-1.2v-10.8a4.5 4.5 0 1 1 9 0v10.83a1.2 1.2 0 0 0 1.2 1.2h3.6a1.2 1.2 0 0 0 1.2-1.2v-10.83z" fill="#ffc517"/><path d="m164.61 31.44a11.25 11.25 0 1 0 11.25 11.24 11.25 11.25 0 0 0 -11.25-11.24zm0 16.49a5.25 5.25 0 1 1 5.25-5.25 5.26 5.26 0 0 1 -5.25 5.25z" fill="#ed4848"/><rect fill="#00c08b" height="22.49" rx="1.2" width="6" x="91.9" y="31.44"/><path d="m149.17 31.44h-3.6a1.2 1.2 0 0 0 -1.2 1.2v1a11.25 11.25 0 1 0 0 18v5.26a5.46 5.46 0 0 1 -10.83 1 1.2 1.2 0 0 0 -1.18-1h-3.64a1.19 1.19 0 0 0 -1.19 1.33 11.46 11.46 0 0 0 22.84-1.33v-24.26a1.2 1.2 0 0 0 -1.2-1.2zm-11.55 16.49a5.25 5.25 0 1 1 5.25-5.25 5.25 5.25 0 0 1 -5.25 5.25z" fill="#f90"/><path d="m82.9 20.94h-16.77a1.2 1.2 0 0 0 -1.2 1.2v30.59a1.2 1.2 0 0 0 1.2 1.2h3.6a1.2 1.2 0 0 0 1.2-1.2v-25.79h18a6 6 0 0 0 -6.03-6z" fill="#00a4ef"/><circle cx="58.89" cy="50.81" fill="#00c08b" r="3"/><path d="m96 21.68a1.2 1.2 0 0 0 -2.08 0l-1.92 3.32a1.2 1.2 0 0 0 1 1.8h3.84a1.19 1.19 0 0 0 1-1.8z" fill="#00c08b"/><path d="m39.46 26.91a13.51 13.51 0 1 0 11.3 20.76 1.21 1.21 0 0 0 -1-1.86h-4.76a1.24 1.24 0 0 0 -.8.3 7.48 7.48 0 0 1 -12-3.29h19.41a1.2 1.2 0 0 0 1.19-1.09 12.71 12.71 0 0 0 .06-1.52 13.54 13.54 0 0 0 -13.4-13.3zm-7.21 11.09a7.5 7.5 0 0 1 14.22 0z" fill="#00c08b"/><rect fill="#00a4ef" height="3.64" rx=".73" width="8.01" x="259.72" y="42.48"/><path d="m289.77 47.58a6.38 6.38 0 0 0 -6.38-6.35 6.29 6.29 0 0 0 -2.74.62.72.72 0 0 0 -.72-.62h-2.18a.73.73 0 0 0 -.73.73v12.2a.73.73 0 0 0 .73.73h2.18a.73.73 0 0 0 .73-.73v-6.58a2.74 2.74 0 0 1 5.47 0v6.58a.73.73 0 0 0 .73.73h2.14a.73.73 0 0 0 .73-.73v-6.58z" fill="#ffc517"/><path d="m314.81 41.21a6.83 6.83 0 1 0 6.83 6.79 6.84 6.84 0 0 0 -6.83-6.79zm0 10a3.19 3.19 0 1 1 3.19-3.21 3.19 3.19 0 0 1 -3.19 3.23z" fill="#ed4848"/><rect fill="#00c08b" height="13.66" rx=".73" width="3.64" x="270.65" y="41.21"/><path d="m305.43 41.21h-2.18a.73.73 0 0 0 -.73.73v.64a6.83 6.83 0 1 0 0 10.92v3.19a3.32 3.32 0 0 1 -6.58.59.73.73 0 0 0 -.72-.59h-2.22a.73.73 0 0 0 -.72.81 7 7 0 0 0 13.87-.81v-14.75a.72.72 0 0 0 -.72-.73zm-7 10a3.19 3.19 0 1 1 3.18-3.21 3.19 3.19 0 0 1 -3.19 3.23z" fill="#f90"/><path d="m265.18 34.83h-10.18a.73.73 0 0 0 -.73.73v18.58a.73.73 0 0 0 .73.73h2.19a.73.73 0 0 0 .73-.73v-15.66h10.92a3.64 3.64 0 0 0 -3.66-3.65z" fill="#00a4ef"/><circle cx="250.6" cy="52.98" fill="#00c08b" r="1.82"/><path d="m273.11 35.28a.73.73 0 0 0 -1.26 0l-1.16 2a.73.73 0 0 0 .63 1.09h2.33a.73.73 0 0 0 .63-1.09z" fill="#00c08b"/><path d="m238.79 38.46a8.21 8.21 0 1 0 6.87 12.61.73.73 0 0 0 -.61-1.13h-2.87a.79.79 0 0 0 -.48.18 4.51 4.51 0 0 1 -3 1.1 4.58 4.58 0 0 1 -4.33-3.1h11.76a.74.74 0 0 0 .73-.66c0-.3 0-.61 0-.92a8.24 8.24 0 0 0 -8.07-8.08zm-4.38 6.75a4.56 4.56 0 0 1 8.65 0z" fill="#00c08b"/></svg>