<svg viewBox="0 0 119.06 71.22" xmlns="http://www.w3.org/2000/svg"><path d="m85.92 4.7h28.58v2.31l4.56-2.63-4.56-2.63v2.31h-28.58z" fill="#66af95"/><path d="m33.13 4.06h-28.57v-2.31l-4.56 2.63 4.56 2.63v-2.31h28.57z" fill="#66af95"/><path d="m50.23 4.21v.68h-.86v1.49h-.72v-1.49h-2.8v-.74l2.91-4.15h.61v4.21zm-1.58-3.12-2.14 3.12h2.14z" fill="#55a689"/><path d="m51.1 1.36a1.8 1.8 0 0 1 .39-.72 1.69 1.69 0 0 1 .66-.47 2.29 2.29 0 0 1 .9-.17 2.54 2.54 0 0 1 .78.12 1.93 1.93 0 0 1 .63.35 1.75 1.75 0 0 1 .43.57 2 2 0 0 1 .16.8 2.08 2.08 0 0 1 -.13.74 2.24 2.24 0 0 1 -.35.58 2.81 2.81 0 0 1 -.5.47c-.18.13-.37.27-.57.39l-.6.36a5.67 5.67 0 0 0 -.54.37 2.12 2.12 0 0 0 -.42.43 1.1 1.1 0 0 0 -.23.53h3.29v.67h-4.18a3.25 3.25 0 0 1 .2-1 2.45 2.45 0 0 1 .4-.69 2.76 2.76 0 0 1 .58-.5 5.89 5.89 0 0 1 .64-.42l.71-.46a3.83 3.83 0 0 0 .51-.43 1.57 1.57 0 0 0 .3-.47 1.5 1.5 0 0 0 .11-.58 1.25 1.25 0 0 0 -.1-.48 1.22 1.22 0 0 0 -.3-.35 1.09 1.09 0 0 0 -.39-.23 1.28 1.28 0 0 0 -.48-.1 1.15 1.15 0 0 0 -.57.14 1.26 1.26 0 0 0 -.39.37 1.46 1.46 0 0 0 -.22.51 1.85 1.85 0 0 0 -.06.57h-.76a2.38 2.38 0 0 1 .1-.9z" fill="#55a689"/><path d="m59.4 1.73v.68a1.69 1.69 0 0 1 1.5-.79 1.73 1.73 0 0 1 .79.18 1 1 0 0 1 .49.61 1.57 1.57 0 0 1 .62-.58 1.69 1.69 0 0 1 .84-.21 2.47 2.47 0 0 1 .63.08 1.48 1.48 0 0 1 .49.23 1.1 1.1 0 0 1 .31.42 1.46 1.46 0 0 1 .12.62v3.41h-.77v-3a2.73 2.73 0 0 0 0-.41.84.84 0 0 0 -.14-.32.64.64 0 0 0 -.28-.27 1 1 0 0 0 -.46-.09 1.19 1.19 0 0 0 -.89.33 1.17 1.17 0 0 0 -.32.86v2.9h-.77v-3a1.73 1.73 0 0 0 0-.41.82.82 0 0 0 -.14-.33.56.56 0 0 0 -.26-.22 1.06 1.06 0 0 0 -.43-.08 1.15 1.15 0 0 0 -.57.14 1.39 1.39 0 0 0 -.39.32 1.44 1.44 0 0 0 -.22.4 1.16 1.16 0 0 0 -.06.33v2.9h-.77v-4.7z" fill="#55a689"/><path d="m67.08 1.73v.68a1.69 1.69 0 0 1 1.5-.79 1.66 1.66 0 0 1 .78.18 1 1 0 0 1 .5.61 1.54 1.54 0 0 1 .61-.58 1.76 1.76 0 0 1 .85-.21 2.47 2.47 0 0 1 .68.08 1.48 1.48 0 0 1 .49.23 1.1 1.1 0 0 1 .31.42 1.46 1.46 0 0 1 .11.62v3.41h-.76v-3a1.84 1.84 0 0 0 0-.41.83.83 0 0 0 -.15-.37.62.62 0 0 0 -.28-.22 1 1 0 0 0 -.45-.09 1.18 1.18 0 0 0 -.89.33 1.14 1.14 0 0 0 -.33.86v2.9h-.76v-3a2.48 2.48 0 0 0 0-.41 1 1 0 0 0 -.14-.33.64.64 0 0 0 -.27-.22 1 1 0 0 0 -.43-.08 1.15 1.15 0 0 0 -.57.14 1.35 1.35 0 0 0 -.38.32 1.44 1.44 0 0 0 -.22.4 1.22 1.22 0 0 0 -.07.33v2.9h-.76v-4.7z" fill="#55a689"/><g fill="#54565a"><path d="m81.41 33.65v1.69a.85.85 0 0 1 .16-.28.82.82 0 0 1 .25-.2 1.08 1.08 0 0 1 .29-.13 1.87 1.87 0 0 1 .32 0 1.35 1.35 0 0 1 .59.13 1.23 1.23 0 0 1 .41.34 1.56 1.56 0 0 1 .25.5 2.21 2.21 0 0 1 .08.59 2.35 2.35 0 0 1 -.08.6 1.67 1.67 0 0 1 -.25.5 1.2 1.2 0 0 1 -.41.33 1.22 1.22 0 0 1 -.59.13 1.25 1.25 0 0 1 -.64-.17.94.94 0 0 1 -.41-.47v.56h-.33v-4.12zm1.94 2.15a1 1 0 0 0 -.17-.4.92.92 0 0 0 -.3-.29.78.78 0 0 0 -.44-.11.91.91 0 0 0 -.8.4 1.22 1.22 0 0 0 -.18.4 2.3 2.3 0 0 0 0 .45 2.4 2.4 0 0 0 0 .46 1.32 1.32 0 0 0 .18.4.91.91 0 0 0 .8.4.87.87 0 0 0 .44-.11 1 1 0 0 0 .3-.29 1.1 1.1 0 0 0 .17-.4 1.82 1.82 0 0 0 .06-.46 1.74 1.74 0 0 0 -.06-.45z"/><path d="m84.38 34.78 1 2.51.91-2.51h.36l-1.28 3.39a3.06 3.06 0 0 1 -.15.31 1.15 1.15 0 0 1 -.15.2.63.63 0 0 1 -.2.1 1 1 0 0 1 -.28 0h-.17-.1v-.3h.12.12a.4.4 0 0 0 .2 0 .3.3 0 0 0 .13-.09.56.56 0 0 0 .1-.15s.06-.12.09-.18l.12-.34-1.2-2.94z"/><path d="m91.44 33.65v.35h-2.44v1.47h2.27v.33h-2.27v1.61h2.45v.34h-2.82v-4.1z"/><path d="m92.16 37.12h.48v.61h-.48z"/><path d="m93.88 36.91a1 1 0 0 0 .29.34 1.33 1.33 0 0 0 .42.18 2.89 2.89 0 0 0 .53 0 1.53 1.53 0 0 0 .7-.19.84.84 0 0 0 .27-.26.66.66 0 0 0 .11-.38.55.55 0 0 0 -.08-.29.7.7 0 0 0 -.2-.22 1.71 1.71 0 0 0 -.27-.14l-.29-.08-.91-.23-.35-.11a1.19 1.19 0 0 1 -.29-.18.8.8 0 0 1 -.2-.28.86.86 0 0 1 -.08-.41 1.28 1.28 0 0 1 .06-.35 1 1 0 0 1 .21-.31 1.29 1.29 0 0 1 .43-.29 1.59 1.59 0 0 1 .7-.13 2.14 2.14 0 0 1 .58.08 1.8 1.8 0 0 1 .48.24 1.16 1.16 0 0 1 .33.4 1.2 1.2 0 0 1 .12.55h-.39a.89.89 0 0 0 -.1-.41 1 1 0 0 0 -.25-.29 1 1 0 0 0 -.35-.18 1.4 1.4 0 0 0 -.41-.06 1.74 1.74 0 0 0 -.39 0 .83.83 0 0 0 -.32.13.92.92 0 0 0 -.23.25.86.86 0 0 0 -.08.38.49.49 0 0 0 .08.33.46.46 0 0 0 .13.18.67.67 0 0 0 .2.12l.23.08 1 .24.41.14a1.55 1.55 0 0 1 .33.21.76.76 0 0 1 .23.3.94.94 0 0 1 .08.43 1.36 1.36 0 0 1 0 .18.73.73 0 0 1 -.07.24 1.16 1.16 0 0 1 -.15.26 1 1 0 0 1 -.28.24 1.43 1.43 0 0 1 -.43.17 2.63 2.63 0 0 1 -.61.07 2.36 2.36 0 0 1 -.67-.09 1.45 1.45 0 0 1 -.53-.25 1.22 1.22 0 0 1 -.37-.52 1.44 1.44 0 0 1 -.1-.65h.39a1.07 1.07 0 0 0 .09.56z"/><path d="m97.55 33.65v2.52a2.15 2.15 0 0 0 .08.61 1 1 0 0 0 .23.4.93.93 0 0 0 .38.23 1.59 1.59 0 0 0 .5.07 1.61 1.61 0 0 0 .51-.07.87.87 0 0 0 .38-.23 1 1 0 0 0 .23-.4 1.84 1.84 0 0 0 .08-.61v-2.52h.39v2.61a2 2 0 0 1 -.09.6 1.33 1.33 0 0 1 -.28.49 1.25 1.25 0 0 1 -.49.33 1.77 1.77 0 0 1 -.73.13 1.75 1.75 0 0 1 -.72-.13 1.27 1.27 0 0 1 -.77-.82 2 2 0 0 1 -.09-.6v-2.61z"/><path d="m101.54 33.65 2.38 3.45v-3.45h.39v4.08h-.44l-2.37-3.45v3.45h-.39v-4.08z"/><path d="m108.45 33.65a2 2 0 0 1 .49.05 1.11 1.11 0 0 1 .42.16.86.86 0 0 1 .29.31 1 1 0 0 1 .11.48.85.85 0 0 1 -.06.31.87.87 0 0 1 -.14.27 1.1 1.1 0 0 1 -.22.21.81.81 0 0 1 -.29.12 1 1 0 0 1 .63.33 1 1 0 0 1 .23.67v.22a.86.86 0 0 1 -.07.25 1 1 0 0 1 -.14.25.92.92 0 0 1 -.26.22 1.85 1.85 0 0 1 -.4.16 2.37 2.37 0 0 1 -.57.06h-1.73v-4.07zm0 1.79a1.2 1.2 0 0 0 .4-.06.67.67 0 0 0 .29-.15.52.52 0 0 0 .17-.22.6.6 0 0 0 .06-.27c0-.51-.31-.76-.92-.76h-1.34v1.46zm0 2a2.73 2.73 0 0 0 .41 0 .94.94 0 0 0 .34-.14.67.67 0 0 0 .24-.26.92.92 0 0 0 .08-.4.7.7 0 0 0 -.27-.6 1.41 1.41 0 0 0 -.8-.19h-1.34v1.62z"/><path d="m110.54 35.24a.76.76 0 0 1 .25-.31 1 1 0 0 1 .37-.18 1.65 1.65 0 0 1 .46-.06 2.58 2.58 0 0 1 .39 0 1 1 0 0 1 .35.14.79.79 0 0 1 .25.29 1 1 0 0 1 .1.48v1.57a.19.19 0 0 0 .21.21.2.2 0 0 0 .11 0v.3h-.11-.12a.67.67 0 0 1 -.22 0 .35.35 0 0 1 -.13-.11.38.38 0 0 1 -.06-.16 1.34 1.34 0 0 1 0-.21 2.94 2.94 0 0 1 -.2.26 1.24 1.24 0 0 1 -.22.18 1.39 1.39 0 0 1 -.28.12 2 2 0 0 1 -.38 0 1.58 1.58 0 0 1 -.38-.05.88.88 0 0 1 -.32-.16.71.71 0 0 1 -.21-.27.86.86 0 0 1 -.08-.38.74.74 0 0 1 .14-.48.82.82 0 0 1 .36-.27 2.37 2.37 0 0 1 .51-.13l.58-.07h.2a.35.35 0 0 0 .14-.06.24.24 0 0 0 .09-.11.56.56 0 0 0 0-.2.67.67 0 0 0 -.06-.3.42.42 0 0 0 -.17-.18.64.64 0 0 0 -.24-.1 1.51 1.51 0 0 0 -.3 0 .89.89 0 0 0 -.56.16.63.63 0 0 0 -.23.52h-.36a1.14 1.14 0 0 1 .12-.44zm1.8.88a.22.22 0 0 1 -.13.09h-.17l-.48.07a2.63 2.63 0 0 0 -.44.09.88.88 0 0 0 -.33.18.46.46 0 0 0 -.13.34.48.48 0 0 0 .06.24.49.49 0 0 0 .14.18.94.94 0 0 0 .22.12.67.67 0 0 0 .24 0 1.34 1.34 0 0 0 .4-.06 1.13 1.13 0 0 0 .32-.19.82.82 0 0 0 .23-.29.93.93 0 0 0 .08-.39v-.46z"/><path d="m113.78 34.78v.51a.82.82 0 0 1 .37-.43 1.09 1.09 0 0 1 .58-.17 1.52 1.52 0 0 1 .51.08.8.8 0 0 1 .52.59 2.19 2.19 0 0 1 0 .47v1.9h-.36v-1.84a1.25 1.25 0 0 0 0-.35.69.69 0 0 0 -.12-.29.55.55 0 0 0 -.23-.19 1.12 1.12 0 0 0 -.75 0 .83.83 0 0 0 -.28.21 1.13 1.13 0 0 0 -.19.32 1.76 1.76 0 0 0 -.07.41v1.72h-.36v-2.94z"/><path d="m116.86 33.65v2.56l1.63-1.43h.51l-1.26 1.09 1.35 1.86h-.46l-1.16-1.61-.58.49v1.12h-.36v-4.08z"/></g><rect fill="#00a4ef" height="4.76" rx=".95" width="10.47" x="38.14" y="43.56"/><path d="m77.41 50.22a8.34 8.34 0 0 0 -11.92-7.5.94.94 0 0 0 -.94-.81h-2.85a1 1 0 0 0 -1 1v15.88a.94.94 0 0 0 1 1h2.85a1 1 0 0 0 1-1v-8.57a3.57 3.57 0 0 1 7.14 0v8.59a1 1 0 0 0 .95 1h2.85a1 1 0 0 0 1-1v-8.59z" fill="#ffc517"/><path d="m110.13 41.89a8.93 8.93 0 1 0 8.93 8.93 8.94 8.94 0 0 0 -8.93-8.93zm0 13.09a4.17 4.17 0 1 1 4.17-4.16 4.16 4.16 0 0 1 -4.17 4.18z" fill="#ed4848"/><rect fill="#00c08b" height="17.85" rx=".95" width="4.76" x="52.42" y="41.89"/><path d="m97.87 41.89h-2.87a1 1 0 0 0 -1 1v.84a8.93 8.93 0 1 0 0 14.27v4.17a4.33 4.33 0 0 1 -8.6.78 1 1 0 0 0 -.94-.78h-2.82a1 1 0 0 0 -.94 1.06 9.1 9.1 0 0 0 18.13-1.06v-19.33a1 1 0 0 0 -.96-.95zm-9.16 13.11a4.17 4.17 0 1 1 4.17-4.16 4.16 4.16 0 0 1 -4.17 4.16z" fill="#f90"/><path d="m45.28 33.56h-13.28a1 1 0 0 0 -.95.95v24.28a.94.94 0 0 0 .95 1h2.8a1 1 0 0 0 1-1v-20.47h14.2a4.76 4.76 0 0 0 -4.72-4.76z" fill="#00a4ef"/><circle cx="26.22" cy="57.27" fill="#00c08b" r="2.38"/><path d="m55.64 34.15a1 1 0 0 0 -1.65 0l-1.52 2.63a1 1 0 0 0 .82 1.43h3.05a1 1 0 0 0 .82-1.43z" fill="#00c08b"/><path d="m10.8 38.3a10.72 10.72 0 1 0 9 16.47 1 1 0 0 0 -.8-1.47h-3.78a.94.94 0 0 0 -.62.24 6 6 0 0 1 -9.53-2.62h15.37a1 1 0 0 0 .95-.86 11.91 11.91 0 0 0 .05-1.2 10.76 10.76 0 0 0 -10.64-10.56zm-5.73 8.82a6 6 0 0 1 11.3 0z" fill="#00c08b"/></svg>