<svg viewBox="0 0 435.09 432.45" xmlns="http://www.w3.org/2000/svg" xmlns:xlink="http://www.w3.org/1999/xlink"><clipPath id="a"><path d="m354.12 305.18a10.29 10.29 0 1 1 10.29-10.28 10.29 10.29 0 0 1 -10.29 10.28zm0-20.06a9.78 9.78 0 1 0 9.78 9.78 9.79 9.79 0 0 0 -9.78-9.78z"/></clipPath><clipPath id="b"><path d="m355.14 292.76a1.17 1.17 0 0 0 -2 0l-1.91 3.24a1.17 1.17 0 0 0 1 1.76h3.77a1.17 1.17 0 0 0 1-1.76z"/></clipPath><path d="m.5 20.22h399.43v35.54h-399.43z" fill="#595757" opacity=".1"/><path d="m.5 376.66h399.43v55.28h-399.43z" fill="#595757" opacity=".1"/><path d="m400.43 432.45h-400.43v-412.73h400.43zm-399.43-1h398.43v-410.73h-398.43z" fill="#595757"/><path d="m230.42 37.4c.07-.29.13-.59.19-.89h.51c-.06.3-.13.58-.19.85h1.07v.47a7.13 7.13 0 0 1 -.31 1.46 4.61 4.61 0 0 1 -.3.63c.23.19.45.39.67.59l-.3.42a8.18 8.18 0 0 0 -.66-.61 4.89 4.89 0 0 1 -1.13.91l-.36-.38a5.36 5.36 0 0 0 1.1-.84q-.44-.31-1-.66a11.47 11.47 0 0 0 .55-1.52h-.67v-.43zm-.08 1.81c.23.15.45.3.66.46l.05-.07a4.17 4.17 0 0 0 .49-1.73h-.73a11.67 11.67 0 0 1 -.47 1.34zm3.92 1.9h-.49v-.42h-1.05v.44h-.49v-4h2zm-.49-.89v-2.63h-1.05v2.63z" fill="#595757"/><path d="m236.21 36.66c-.11.33-.22.63-.33.88v3.68h-.46v-2.85c-.15.21-.3.43-.47.64l-.16-.57a6.22 6.22 0 0 0 .53-.84 4.9 4.9 0 0 0 .46-1.13zm3.34.14v.44h-.4v3.47a.5.5 0 0 1 -.13.39.64.64 0 0 1 -.42.12h-.6l-.1-.51a5 5 0 0 0 .61 0c.13 0 .2 0 .2-.13v-3.34h-2.41v-.44zm-1.46 1.07v2.13h-1.72v-2.13zm-.45.45h-.83v1.23h.83z" fill="#595757"/><path d="m240.85 37.37v-.88h.48v.88h1.08c0 1.8 0 2.87-.07 3.2a.76.76 0 0 1 -.19.51.87.87 0 0 1 -.59.16h-.41l-.08-.53a2.63 2.63 0 0 0 .49 0c.16 0 .26-.11.28-.32s0-1.12.06-2.58h-.58a8.15 8.15 0 0 1 -.19 1.65 5.6 5.6 0 0 1 -.77 1.76l-.4-.37a4.43 4.43 0 0 0 .7-1.53 6.67 6.67 0 0 0 .18-1.51h-.84v-.46zm3.79 3.87h-.49v-.37h-1v.39h-.49v-4.12h2zm-.49-.84v-2.8h-1v2.8z" fill="#595757"/><path d="m247.35 37.2h-1.35v-.47h1.9a5.22 5.22 0 0 0 .65 2.36 5.91 5.91 0 0 0 1.45 1.64l-.34.53a6.68 6.68 0 0 1 -1.57-1.87 5.57 5.57 0 0 1 -.46-1.09 5.8 5.8 0 0 1 -.55 1.35 6.47 6.47 0 0 1 -1.49 1.59l-.35-.49a5.44 5.44 0 0 0 1.45-1.54 7.48 7.48 0 0 0 .72-1.8c-.03-.07-.04-.14-.06-.21z" fill="#595757"/><path d="m258.19 36.55a2.1 2.1 0 0 1 -.4.63h.83c-.06-.09-.11-.18-.16-.27l.35-.2a9.32 9.32 0 0 1 .54.83l-.4.28c0-.09-.09-.18-.14-.28-.4.06-1 .11-1.85.16l-.06-.45h.38a2.22 2.22 0 0 0 .41-.71zm-.19 3.82a4.34 4.34 0 0 1 -.57.9l-.43-.27a5.12 5.12 0 0 0 .59-.81zm1.15-.76a.45.45 0 0 1 -.15.39.41.41 0 0 1 -.3.11h-.42l-.1-.43h.36c.1 0 .14-.06.14-.18v-.08h-1.07v.71h-.45v-2.32h2zm-.45-1.15v-.26h-1.07v.26zm0 .61v-.27h-1.07v.27zm.37 2.08-.53.05c0-.35-.08-.64-.12-.9l.44-.06c.06.28.14.58.19.91zm2.39-4.15a9.06 9.06 0 0 1 -1.48.38v.22q0 .15.18.15h.67a.33.33 0 0 0 .19 0s.07-.17.1-.42l.44.14c0 .37-.11.57-.21.64a.84.84 0 0 1 -.46.09h-.89a.45.45 0 0 1 -.34-.11.39.39 0 0 1 -.13-.31v-1.27h.47v.49a10.19 10.19 0 0 0 1.32-.33zm0 1.78a7.23 7.23 0 0 1 -1.48.44v.25c0 .1.06.14.18.14h.67a.35.35 0 0 0 .2 0c.05 0 .09-.19.11-.47l.44.15c0 .38-.12.6-.22.66a.69.69 0 0 1 -.47.11h-.89a.5.5 0 0 1 -.34-.11.41.41 0 0 1 -.13-.32v-1.31h.47v.47a9 9 0 0 0 1.32-.37zm-1.15 2.33h-.55a7.13 7.13 0 0 0 -.23-.89l.45-.06a8.71 8.71 0 0 1 .33.95zm1.31-.08-.44.21a6.28 6.28 0 0 0 -.59-1l.44-.14a5 5 0 0 1 .59.9z" fill="#595757"/><path d="m264.34 36.7v3.92a.54.54 0 0 1 -.15.42.61.61 0 0 1 -.44.13h-.3l-.1-.5h.3c.14 0 .2-.08.2-.23v-.83h-.85l-.06.5a6.33 6.33 0 0 1 -.39 1.16l-.43-.36a3 3 0 0 0 .35-1 6.76 6.76 0 0 0 .08-.95v-2.26h1.84zm-.49 2.49v-.81h-.85v.81zm0-1.26v-.77h-.85v.77zm2.78-1.25v3.94a.49.49 0 0 1 -.57.55h-.46l-.1-.5h.48c.12 0 .18-.08.19-.23v-.83h-1v.53a6.47 6.47 0 0 1 -.29 1.13l-.43-.36a4 4 0 0 0 .25-.92c0-.34.05-.64.05-.92v-2.39h1.95zm-.46 1.25v-.79h-1v.79zm0 1.26v-.81h-1v.81z" fill="#595757"/><path d="m268.82 37.12.06-.61h.49c0 .22-.05.42-.07.61h2.7v.51h-2.73c0 .23-.08.45-.12.64h2.37v.37a3.13 3.13 0 0 1 -.77 1.42l-.06.06a5.22 5.22 0 0 0 1.38.67l-.29.48a5.87 5.87 0 0 1 -1.47-.82 8 8 0 0 1 -1.63.81l-.27-.51a5.07 5.07 0 0 0 1.52-.63 3.12 3.12 0 0 1 -.83-1.39h-.1c-.07.23-.13.44-.19.62a5.22 5.22 0 0 1 -1.17 1.81l-.33-.42a5.42 5.42 0 0 0 1.05-1.63 8.94 8.94 0 0 0 .37-1.47h-1.38v-.51zm1.45 2.69a2.57 2.57 0 0 0 .67-1.09h-1.38a2.56 2.56 0 0 0 .71 1.09z" fill="#595757"/><path d="m273.71 37.73v.34a7 7 0 0 1 -.59.91h.55v.31a5 5 0 0 1 -.24.87 1.61 1.61 0 0 0 .8.43 8.16 8.16 0 0 0 1.71.12h1.29l-.12.42a18.47 18.47 0 0 1 -3-.13 1.81 1.81 0 0 1 -.81-.46 7.61 7.61 0 0 1 -.48.74l-.32-.35a3.71 3.71 0 0 0 .49-.73 3.3 3.3 0 0 0 .28-.77h-.63v-.43a5.53 5.53 0 0 0 .6-.88h-.71v-.42zm-.12-.51-.35.35a5.12 5.12 0 0 0 -.5-.75l.32-.31a6.21 6.21 0 0 1 .53.71zm1.38-.71a2.85 2.85 0 0 1 -.12.31h.62v1.32a6.14 6.14 0 0 0 .63-1.63l.41.08-.19.61h.88v.43h-.2a4.71 4.71 0 0 1 -.33 1.68s0 0 0 0a4 4 0 0 0 .56.78l-.33.32a5.36 5.36 0 0 1 -.47-.7 3.15 3.15 0 0 1 -.67.7l-.22-.36a2.6 2.6 0 0 0 .7-.75 1.21 1.21 0 0 1 -.11-.3 3.16 3.16 0 0 1 -.19-.82c-.08.14-.14.26-.21.37l-.27-.33h-.59a2.47 2.47 0 0 0 .1.29h.65v.36h-1.06v.29h1q0 1-.21 1.11c-.07.09-.31.12-.72.12l-.08-.44a1.47 1.47 0 0 0 .33 0 .29.29 0 0 0 .17 0 1 1 0 0 0 .07-.44h-.66a2.19 2.19 0 0 1 -.07.23 1.79 1.79 0 0 1 -.37.66l-.28-.34a1.92 1.92 0 0 0 .28-.53 4.61 4.61 0 0 0 .13-.65h-.41v-.36h.81l-.12-.29h-.51v-1.41h.51a2.29 2.29 0 0 0 .12-.37zm.09.87v-.24h-.76v.24zm0 .29h-.76v.33h.76zm1.36 1.19a5 5 0 0 0 .18-1.23h-.39a5.19 5.19 0 0 0 .21 1.23z" fill="#595757"/><path d="m278.81 37.08h.74v.43h-1.92v-.43h.71a4.14 4.14 0 0 0 -.19-.53l.49-.06c.05.18.11.37.17.59zm-.56 4.16h-.46v-1.87h1.54v1.8h-.47v-.3h-.61zm1.06-3.39v.4h-1.5v-.4zm0 .75v.4h-1.5v-.4zm-.45 1.19h-.61v.65h.61zm1.84-2.93v-.37h.49v.37h1.12v.38h-1.12v.25h1v.36h-1v.28h1.22v.39h-2.9v-.39h1.19v-.28h-1v-.36h1v-.25h-1.09v-.38zm1.4 3.93a.45.45 0 0 1 -.12.34.41.41 0 0 1 -.3.11h-.59l-.08-.41h.51c.09 0 .14-.07.14-.18v-.23h-1.5v.82h-.45v-2.5h2.39zm-.44-1.36v-.28h-1.5v.28zm0 .67v-.33h-1.5v.33z" fill="#595757"/><path d="m285.52 36.82h1.94v.87h-.46v-.51h-.87v.2h.69v.31h-.69v.2h.87v.29h-.89v.2h1.4v.34h-1.17a1.73 1.73 0 0 0 .4.21 4.72 4.72 0 0 0 .89.28l-.19.38-.52-.18v1.21h-.92c.49.06 1 .13 1.52.23l-.15.39a12.24 12.24 0 0 0 -1.68-.29l.16-.33h-1.36l.21.29a5.77 5.77 0 0 1 -.72.2c-.24 0-.55.1-.92.15l-.23-.39c.37 0 .69-.08 1-.12a3.56 3.56 0 0 0 .62-.13h-.94v-1.2c-.15.06-.31.12-.48.17l-.22-.36a4.9 4.9 0 0 0 .94-.34l.3-.17h-1.1v-.34h1.34v-.2h-.83v-.29h.83v-.2h-.63v-.31h.63v-.2h-.81v.51h-.48v-.87h2a1.78 1.78 0 0 0 -.17-.27l.53-.08c.05.11.1.22.16.35zm-1.59 2.59h2.56v-.18h-2.52zm0 .24v.21h2.56v-.21zm0 .45v.22h2.56v-.22zm2.1-1.18a1.29 1.29 0 0 1 -.21-.2h-1.23a1.33 1.33 0 0 1 -.22.2zm-.36-1.74h-.95v.2h.95zm0 .51h-.95v.2h.95zm0 .69v-.2h-.95v.2z" fill="#595757"/><path d="m295.84 36.55a2.35 2.35 0 0 1 -.41.63h.83l-.16-.27.35-.2c.23.32.41.6.55.83l-.41.28c0-.09-.09-.18-.13-.28-.4.06-1 .11-1.86.16l-.06-.45h.38a2.05 2.05 0 0 0 .41-.71zm-.22 3.82a4 4 0 0 1 -.57.9l-.41-.28a4.56 4.56 0 0 0 .59-.81zm1.15-.76a.49.49 0 0 1 -.12.36.41.41 0 0 1 -.3.11h-.43l-.1-.43h.37c.09 0 .14-.06.14-.18v-.08h-1.08v.71h-.44v-2.29h2zm-.44-1.15v-.26h-1.08v.26zm0 .61v-.27h-1.08v.27zm.36 2.08-.52.05c0-.35-.08-.64-.12-.9l.44-.06c.07.28.14.58.2.91zm2.41-4.15a8.8 8.8 0 0 1 -1.48.38v.22q0 .15.18.15h.67a.31.31 0 0 0 .19 0s.08-.17.1-.42l.45.14c0 .37-.12.57-.22.64a.82.82 0 0 1 -.45.09h-.92a.44.44 0 0 1 -.33-.11.39.39 0 0 1 -.13-.31v-1.27h.46v.49a10.19 10.19 0 0 0 1.32-.33zm0 1.78a7 7 0 0 1 -1.48.44v.25c0 .1.06.14.18.14h.67a.39.39 0 0 0 .21 0c.05 0 .08-.19.1-.47l.45.15c-.05.38-.12.6-.22.66a.72.72 0 0 1 -.47.11h-.92a.49.49 0 0 1 -.33-.11.41.41 0 0 1 -.13-.32v-1.31h.46v.47a9 9 0 0 0 1.32-.37zm-1.1 2.33h-.55a7.24 7.24 0 0 0 -.22-.89l.44-.06a8.71 8.71 0 0 1 .33.95zm1.32-.08-.45.21a6.28 6.28 0 0 0 -.59-1l.45-.14a6.36 6.36 0 0 1 .54.9z" fill="#595757"/><path d="m304.38 36.92q-.39.06-.81.09l.28.09a3.3 3.3 0 0 1 -.28.5h.83v1h-.47v-.6h-3.67v.55h-.47v-1h1l-.26-.34.33-.12h-.86l-.12-.41a36.58 36.58 0 0 0 4.25-.2zm-2.84 1.26v.54c0 .1 0 .15.18.15h.79a.45.45 0 0 0 .23 0c.05 0 .09-.14.12-.33l.44.14c-.05.29-.12.46-.23.51a1.13 1.13 0 0 1 -.5.08h-.63a2.15 2.15 0 0 1 -.23.28h1.9v.37a3.86 3.86 0 0 1 -.85.67 10 10 0 0 0 1.64.28l-.23.44a9.68 9.68 0 0 1 -1.94-.47 10.8 10.8 0 0 1 -2.19.51l-.18-.46a10 10 0 0 0 1.81-.31 3.23 3.23 0 0 1 -.66-.49 4.24 4.24 0 0 1 -.77.37l-.24-.46a5.1 5.1 0 0 0 1-.46 1.88 1.88 0 0 0 .45-.37.31.31 0 0 1 -.2-.09.33.33 0 0 1 -.13-.28v-.66zm-.55.28a2.83 2.83 0 0 1 -.28.52 1.62 1.62 0 0 1 -.39.43l-.32-.31a2.66 2.66 0 0 0 .38-.36 2.35 2.35 0 0 0 .23-.45zm1.12-.86c-.08-.12-.17-.25-.29-.4l.25-.09h-1.05a2.56 2.56 0 0 1 .28.46zm.09 2.74a2.26 2.26 0 0 0 .73-.44h-1.49a3.29 3.29 0 0 0 .76.44zm.52-1.84-.31.3a3.94 3.94 0 0 0 -.57-.44l.28-.27a5.19 5.19 0 0 1 .6.41zm.37-.9a5 5 0 0 0 .28-.57l-1.08.07c.1.15.2.32.3.5zm1.24 1.59-.4.28a10.28 10.28 0 0 0 -.69-1l.35-.21c.31.38.56.68.74.93z" fill="#595757"/><path d="m305.57 37.42v-.93h.49v.93h.57v.45h-.57v1c.18-.09.35-.2.53-.31v.53a4.63 4.63 0 0 1 -.53.29v1.33a.5.5 0 0 1 -.13.39.6.6 0 0 1 -.42.12h-.4l-.1-.51a1.78 1.78 0 0 0 .36 0c.13 0 .2 0 .2-.13v-1a5 5 0 0 1 -.58.2l-.07-.54a3.29 3.29 0 0 0 .65-.17v-1.2h-.57v-.45zm3.93 3.71h-.44v-.22h-1.82v.22h-.45v-3.53h1.14v-1.19h.44v1.19h1.13zm-1.57-2.13v-1h-.69v1zm0 1.54v-1.15h-.69v1.11zm.44-1.54h.69v-1h-.69zm.69 1.54v-1.15h-.69v1.11z" fill="#595757"/><path d="m317 37.79v.92h1.43v.48h-1.43v1.5h-.51v-3.39h2v.49z" fill="#595757"/><path d="m321.42 40.69-.37-.86h-1.4l-.36.86h-.54l1.38-3.38h.44l1.43 3.38zm-1.07-2.64-.5 1.3h1z" fill="#595757"/><path d="m324.33 40.67h-.22a1.77 1.77 0 0 1 -.35 0 1.36 1.36 0 0 1 -1.16-.53 1.93 1.93 0 0 1 -.36-1.21 2 2 0 0 1 .36-1.23 1.53 1.53 0 0 1 2.33 0 2 2 0 0 1 .37 1.3 1.9 1.9 0 0 1 -.36 1.2h.48v.5zm.2-2.55a.92.92 0 0 0 -1.53 0 1.5 1.5 0 0 0 -.23.88 1.56 1.56 0 0 0 .23.87.93.93 0 0 0 1.53 0 1.49 1.49 0 0 0 .24-.87 1.55 1.55 0 0 0 -.24-.88z" fill="#595757"/><path d="m229.42 43.28h20.4v1h-20.4z" fill="#595757"/><rect fill="#0d958d" height="14.37" rx="7.18" width="45.65" x="341.05" y="31.35"/><path d="m352.41 37.42c-.11 2.34-.19 3.14-.39 3.39a.45.45 0 0 1 -.36.21 2.88 2.88 0 0 1 -.59 0 1.21 1.21 0 0 0 -.12-.41h.53a.21.21 0 0 0 .19-.09c.15-.18.25-.92.33-2.95h-.76a6.18 6.18 0 0 1 -.94 3.53 1 1 0 0 0 -.32-.26 5.72 5.72 0 0 0 .87-3.27h-.75v-.39h.76c0-.33 0-.66 0-1h.4v1h1.16zm2.26-.52v4.1h-.42v-.35h-1v.39h-.4v-4.14zm-.42 3.4v-3h-1v3z" fill="#fff"/><path d="m358.12 36.55a4.63 4.63 0 0 0 2.24 4.26 1.68 1.68 0 0 0 -.32.33 4.65 4.65 0 0 1 -2.15-3 4.82 4.82 0 0 1 -2.15 3 2.3 2.3 0 0 0 -.37-.32 4.36 4.36 0 0 0 2.19-3.22h.24a6.37 6.37 0 0 1 -.07-.7h-1.33v-.4z" fill="#fff"/><path d="m363.59 36.34-.08.1a5.31 5.31 0 0 0 2.28 1.12 1.89 1.89 0 0 0 -.25.31 6.3 6.3 0 0 1 -1.33-.54v.17h-1.87v-.15a7.69 7.69 0 0 1 -1.32.56 1.66 1.66 0 0 0 -.23-.31 4.65 4.65 0 0 0 2.44-1.39zm-2.13 1.42h3.61v1.37h-3.61zm.32 1.62h3v1.75h-.4v-.13h-2.24v.18h-.39zm0-.53h1.27v-.85h-1.27zm.61-.75a2.25 2.25 0 0 1 .32.61l-.3.12a2.43 2.43 0 0 0 -.31-.63zm-.25 1.57v.33h2.24v-.36zm2.24 1v-.37h-2.24v.37zm-.38-3.46a4.41 4.41 0 0 1 -.71-.54 4.2 4.2 0 0 1 -.7.54zm.71.83h-1.29v.81h1.29zm-.94.69a4.22 4.22 0 0 0 .3-.65l.34.11a6.88 6.88 0 0 1 -.37.64z" fill="#fff"/><path d="m367.82 40.27.36.23a7 7 0 0 1 -1.68.66 2.78 2.78 0 0 0 -.3-.29 5.94 5.94 0 0 0 1.59-.6h-1v-2.27h3.8v2.32zm2.56-2.62h-3.38v-1.21h3.37zm-3.2 1h3v-.38h-3zm0 .66h3v-.37h-3zm0 .68h3v-.39h-3zm2.82-3.23h-2.56v.56h2.56zm-.51 3.52a17.17 17.17 0 0 1 1.69.6l-.34.29a13.06 13.06 0 0 0 -1.7-.63z" fill="#fff"/><path d="m377.58 38.45-2.05-1.19a.57.57 0 0 0 -.86.5v2.37a.57.57 0 0 0 .86.5l2.05-1.19a.57.57 0 0 0 0-.99z" fill="#fff"/><path d="m13.73 27.22h106.77v23.32h-106.77z" fill="#fff"/><g fill="#595757"><path d="m53.12 43.05v-7.88h1.11v6.83h4.12v1z"/><path d="m65 42a3 3 0 0 1 -2.52 1.19 3 3 0 0 1 -2.48-1.19 5.07 5.07 0 0 1 0-5.68 3 3 0 0 1 2.52-1.2 3.06 3.06 0 0 1 2.48 1.15 5.07 5.07 0 0 1 0 5.73zm-.89-5a2 2 0 0 0 -1.63-.8 2 2 0 0 0 -1.64.8 3.48 3.48 0 0 0 -.62 2.16 3.44 3.44 0 0 0 .63 2.17 2 2 0 0 0 3.26 0 4.09 4.09 0 0 0 0-4.33z"/><path d="m72.55 37.36a2.35 2.35 0 0 0 -2.12-1.22 2.18 2.18 0 0 0 -1.73.76 3.45 3.45 0 0 0 -.7 2.35 3 3 0 0 0 .73 2.08 2 2 0 0 0 1.58.74 1.86 1.86 0 0 0 1.33-.52 2.32 2.32 0 0 0 .69-1.81h-2v-1h3.12v4.35h-1.15v-.79a2.73 2.73 0 0 1 -2 .87 3.15 3.15 0 0 1 -2.41-1 4 4 0 0 1 -1-2.84 4.38 4.38 0 0 1 1-3.07 3.29 3.29 0 0 1 2.58-1.11 3.51 3.51 0 0 1 3.16 1.87z"/><path d="m80.47 42a3 3 0 0 1 -2.47 1.14 3 3 0 0 1 -2.57-1.14 5 5 0 0 1 0-5.68 3 3 0 0 1 2.57-1.25 3.07 3.07 0 0 1 2.52 1.2 5.07 5.07 0 0 1 0 5.68zm-.89-5a2 2 0 0 0 -1.63-.8 2 2 0 0 0 -1.64.8 3.48 3.48 0 0 0 -.62 2.16 3.44 3.44 0 0 0 .63 2.17 2 2 0 0 0 3.26 0 4.09 4.09 0 0 0 0-4.33z"/><path d="m181.13 402.63v2.3h3.36v1h-3.36v3.53h-1.13v-7.86h5v1z"/><path d="m191.83 408.39a3.26 3.26 0 0 1 -5 0 5.07 5.07 0 0 1 0-5.68 3.25 3.25 0 0 1 5 0 5 5 0 0 1 0 5.68zm-.89-5a2.07 2.07 0 0 0 -3.27 0 3.48 3.48 0 0 0 -.61 2.16 3.41 3.41 0 0 0 .62 2.17 2 2 0 0 0 3.26 0 4 4 0 0 0 0-4.33z"/><path d="m199.58 408.39a3.26 3.26 0 0 1 -5 0 5.07 5.07 0 0 1 0-5.68 3.25 3.25 0 0 1 5 0 5 5 0 0 1 0 5.68zm-.89-5a2.07 2.07 0 0 0 -3.27 0 3.48 3.48 0 0 0 -.61 2.16 3.41 3.41 0 0 0 .62 2.17 2 2 0 0 0 3.26 0 4 4 0 0 0 0-4.33z"/><path d="m204.84 402.64v6.85h-1.1v-6.85h-2.56v-1h6.21v1z"/><path d="m208.36 409.49v-7.88h5v1h-3.87v2.3h3.43v1h-3.43v2.49h3.87v1z"/><path d="m219.62 409.49-1.82-3.41h-2.17v3.41h-1.11v-7.88h3.36a3.17 3.17 0 0 1 2 .56 2 2 0 0 1 .78 1.67 2.07 2.07 0 0 1 -1.65 2.08l1.9 3.57zm-1.76-6.85h-2.23v2.41h2.23a1.91 1.91 0 0 0 1.27-.37 1.07 1.07 0 0 0 .36-.84c0-.79-.55-1.2-1.63-1.2z"/><path d="m.54 13.1h399.03v.2h-399.03z"/><path d="m.33 11.9h.4v2.6h-.4z"/><path d="m399.37 11.9h.4v2.6h-.4z"/><path d="m196.66 5.64v-4.64h-1.33v-.34a2.67 2.67 0 0 0 .95-.13.86.86 0 0 0 .46-.46h.32v5.57z"/><path d="m201.88 4.26v1.39h-.42v-1.39h-2.46v-.47l2.47-3.72h.41v3.82h.82v.37zm-.42-3.44-2 3.07h2z"/><path d="m206.55 4.26v1.39h-.41v-1.39h-2.44v-.47l2.44-3.72h.41v3.82h.83v.37zm-.41-3.44-2 3.07h2z"/><path d="m211.63 5a1.55 1.55 0 0 1 -1.42.75 1.53 1.53 0 0 1 -1.41-.75 4.27 4.27 0 0 1 -.4-2.1 4.31 4.31 0 0 1 .4-2.11 1.53 1.53 0 0 1 1.41-.79 1.55 1.55 0 0 1 1.42.75 4.31 4.31 0 0 1 .4 2.11 4.27 4.27 0 0 1 -.4 2.14zm-.37-4a1.16 1.16 0 0 0 -1-.57 1.14 1.14 0 0 0 -1 .57 3.76 3.76 0 0 0 -.37 1.92 3.69 3.69 0 0 0 .37 1.91 1.12 1.12 0 0 0 1 .57 1.18 1.18 0 0 0 1.07-.59 3.83 3.83 0 0 0 .35-1.89 3.86 3.86 0 0 0 -.42-1.98z"/><path d="m216 5.24a1.57 1.57 0 0 1 -1.2.5 1.81 1.81 0 0 1 -1.53-.92v1.9h-.4v-4.84h.4v.85a1.81 1.81 0 0 1 1.49-.91 1.67 1.67 0 0 1 1.29.53 2 2 0 0 1 .48 1.39 2 2 0 0 1 -.53 1.5zm-.24-2.63a1.26 1.26 0 0 0 -1-.43 1.34 1.34 0 0 0 -1 .47 1.8 1.8 0 0 0 -.41 1.2 1.46 1.46 0 0 0 .47 1.15 1.4 1.4 0 0 0 1 .4 1.17 1.17 0 0 0 .9-.38 1.72 1.72 0 0 0 .42-1.24 1.72 1.72 0 0 0 -.36-1.17z"/><path d="m220.23 5.65-1.42-1.76-1.42 1.76h-.5l1.68-2.1-1.32-1.66h.5l1.05 1.31 1-1.31h.52l-1.32 1.66 1.68 2.1z"/><path d="m416.56 42.74a2.35 2.35 0 0 1 -2.65 0 1.43 1.43 0 0 1 -.48-1.15 1.55 1.55 0 0 1 .32-1 1.91 1.91 0 0 1 .82-.61 1.31 1.31 0 0 1 -.94-1.23 1.2 1.2 0 0 1 .43-1 1.7 1.7 0 0 1 1.16-.36 1.74 1.74 0 0 1 1.17.36 1.22 1.22 0 0 1 .42 1 1.14 1.14 0 0 1 -.25.71 1.63 1.63 0 0 1 -.68.52 1.92 1.92 0 0 1 .83.62 1.55 1.55 0 0 1 .31 1 1.5 1.5 0 0 1 -.46 1.14zm-.34-2.18a1.43 1.43 0 0 0 -1-.36 1.37 1.37 0 0 0 -1 .35 1.3 1.3 0 0 0 -.39 1 1.15 1.15 0 0 0 .33.85 1.69 1.69 0 0 0 2.11 0 1.18 1.18 0 0 0 .31-.85 1.33 1.33 0 0 0 -.36-.99zm-1-2.75q-1.17 0-1.17 1a.89.89 0 0 0 .35.73 1.26 1.26 0 0 0 .83.28 1.25 1.25 0 0 0 .83-.28.94.94 0 0 0 .34-.73c0-.66-.4-1-1.18-1z"/><path d="m421.31 42.39a1.54 1.54 0 0 1 -1.41.75 1.52 1.52 0 0 1 -1.41-.75 4.3 4.3 0 0 1 -.41-2.11 4.35 4.35 0 0 1 .41-2.11 1.53 1.53 0 0 1 1.41-.75 1.56 1.56 0 0 1 1.41.75 4.35 4.35 0 0 1 .41 2.11 4.3 4.3 0 0 1 -.41 2.11zm-.37-4a1.24 1.24 0 0 0 -2.09 0 3.86 3.86 0 0 0 -.36 1.91 3.81 3.81 0 0 0 .36 1.91 1.11 1.11 0 0 0 1 .57 1.16 1.16 0 0 0 1.06-.58 3.9 3.9 0 0 0 .35-1.9 3.85 3.85 0 0 0 -.32-1.93z"/><path d="m425.7 42.67a1.59 1.59 0 0 1 -1.19.49 1.76 1.76 0 0 1 -1.53-.92v1.91h-.4v-4.85h.4v.85a1.81 1.81 0 0 1 1.48-.91 1.63 1.63 0 0 1 1.29.54 2 2 0 0 1 .48 1.38 2.07 2.07 0 0 1 -.53 1.51zm-.23-2.67a1.26 1.26 0 0 0 -1-.42 1.31 1.31 0 0 0 -1 .47 1.71 1.71 0 0 0 -.41 1.19 1.5 1.5 0 0 0 1.49 1.52 1.23 1.23 0 0 0 .9-.38 2.06 2.06 0 0 0 .06-2.38z"/><path d="m429.91 43.08-1.42-1.76-1.42 1.76h-.5l1.68-2.1-1.32-1.67h.51l1 1.32 1-1.32h.53l-1.24 1.69 1.68 2.1z"/><path d="m406.47 20.42h.2v35.14h-.2z"/><path d="m405.26 20.22h2.63v.4h-2.63z"/><path d="m405.27 55.36h2.6v.4h-2.6z"/><path d="m416.44 409.15a1.84 1.84 0 0 1 -1.26.43 1.52 1.52 0 0 1 -1.67-1.18l.4-.13a1.15 1.15 0 0 0 1.27.94 1.38 1.38 0 0 0 1-.34 1 1 0 0 0 .37-.8 1.18 1.18 0 0 0 -.35-.87 1.29 1.29 0 0 0 -.9-.35h-.61v-.38h.52a1.05 1.05 0 0 0 .78-.39 1.13 1.13 0 0 0 .38-.79 1 1 0 0 0 -.29-.76 1.18 1.18 0 0 0 -.83-.28 1 1 0 0 0 -1.11.9l-.4-.13a1.49 1.49 0 0 1 1.51-1.15 1.6 1.6 0 0 1 1.12.38 1.39 1.39 0 0 1 .41 1 1.46 1.46 0 0 1 -1 1.3 1.49 1.49 0 0 1 1.19 1.48 1.38 1.38 0 0 1 -.53 1.12z"/><path d="m420.37 409.51v-4.61h-1.37v-.37a2.55 2.55 0 0 0 .94-.14.82.82 0 0 0 .47-.46h.32v5.58z"/><path d="m425.88 406.29a7.39 7.39 0 0 1 -.95 1 4.41 4.41 0 0 0 -1.4 1.9h2.73v.36h-3.36a4.18 4.18 0 0 1 .64-1.35 7.73 7.73 0 0 1 1.11-1.17 6.73 6.73 0 0 0 .91-.93 1.4 1.4 0 0 0 .31-.83.9.9 0 0 0 -.34-.7 1.5 1.5 0 0 0 -1-.3c-.75 0-1.17.46-1.28 1.36l-.39-.15a1.79 1.79 0 0 1 .52-1.15 1.59 1.59 0 0 1 1.15-.43 2.06 2.06 0 0 1 1.27.37 1.21 1.21 0 0 1 .47 1 1.75 1.75 0 0 1 -.39 1.02z"/><path d="m430.38 409.11a1.6 1.6 0 0 1 -1.2.49 1.81 1.81 0 0 1 -1.53-.92v1.91h-.4v-4.85h.4v.85a1.84 1.84 0 0 1 1.49-.91 1.64 1.64 0 0 1 1.29.54 2 2 0 0 1 .48 1.38 2.07 2.07 0 0 1 -.53 1.51zm-.24-2.64a1.26 1.26 0 0 0 -1-.42 1.31 1.31 0 0 0 -1 .47 1.76 1.76 0 0 0 -.41 1.19 1.52 1.52 0 0 0 1.49 1.52 1.19 1.19 0 0 0 .9-.39 2 2 0 0 0 .06-2.37z"/><path d="m434.59 409.52-1.42-1.76-1.42 1.76h-.5l1.68-2.1-1.33-1.67h.51l1.05 1.32 1-1.32h.53l-1.32 1.67 1.68 2.1z"/><path d="m310.75 345.3v2.46h-.92v1.24h1.06v.34h-1.06v1.87c.44-.15.85-.29 1.22-.45l.07.3a24.29 24.29 0 0 1 -3.29 1.13l-.13-.36.56-.16v-3h.37v2.9c.29-.08.57-.16.83-.25v-3.58h-1.06v-2.44zm-.33 2.13v-1.8h-1.69v1.8zm4.88-2v.33h-3.3v1.59h2.7v2.7h-2.7v1.82h3.46v.34h-4.82v-.34h1v-6.07h-.64v-.33zm-1 4.25v-2h-2.3v2z"/><path d="m317.2 346.43v1.86h2.35v-1.82h.33v2.12h-1.39v.7h1.69v2.65c0 .33-.18.5-.53.5a6.31 6.31 0 0 1 -.9-.07v-.37a4.2 4.2 0 0 0 .9.1c.13 0 .2-.1.2-.3v-2.19h-1.36v1.08l.68-.06a5 5 0 0 0 -.25-.46l.3-.13a5.14 5.14 0 0 1 .56 1.29l-.33.11c0-.17-.09-.34-.14-.49-.6.08-1.26.14-2 .19l-.06-.37c.32 0 .62 0 .89-.06v-1.1h-1.14v3h-.33v-3h-.46v-.33h.46v-.44h.33v.44h1.17v-.7h-1.29v-2.16zm1.37-.73h1.81v.3h-4.08v-.33h1.88a2.55 2.55 0 0 0 -.46-.59l.3-.24a2.45 2.45 0 0 1 .55.86zm.75.77a3.74 3.74 0 0 1 -.61.74c.22.2.44.4.65.62l-.24.26a6.68 6.68 0 0 0 -.64-.66 6.28 6.28 0 0 1 -.88.69l-.21-.26a5.84 5.84 0 0 0 .85-.65c-.24-.21-.49-.4-.74-.58l.19-.23a9 9 0 0 1 .78.6 3.62 3.62 0 0 0 .61-.74zm2.26-1.57c-.11.43-.23.84-.37 1.25v.21h2.66v.34h-1.23v1.35h1.16v.34h-1.16v1.42h1.16v.34h-1.16v1.46h1.36v.33h-2.82v.7h-.37v-5.64a8.06 8.06 0 0 1 -.66 1.22l-.15-.22a8 8 0 0 0 .81-1.54 8.64 8.64 0 0 0 .52-1.65zm.69 1.8h-1.06v1.35h1.06zm0 1.69h-1.06v1.42h1.06zm0 3.22v-1.46h-1.06v1.46zm.57-5.54-.33.23a5 5 0 0 0 -.57-1.13l.31-.2a6.06 6.06 0 0 1 .59 1.1z"/><path d="m327.85 351.26a1.51 1.51 0 0 1 -1.15.52 1.93 1.93 0 0 1 -1.59-.9v.84h-.4v-5.57h.4v2.56a1.93 1.93 0 0 1 1.54-.85 1.58 1.58 0 0 1 1.25.59 2.11 2.11 0 0 1 .47 1.37 2 2 0 0 1 -.52 1.44zm-.26-2.54a1.22 1.22 0 0 0 -1-.5 1.25 1.25 0 0 0 -1 .51 1.74 1.74 0 0 0 -.42 1.16 1.45 1.45 0 0 0 .45 1.14 1.44 1.44 0 0 0 1 .38 1.18 1.18 0 0 0 .93-.44 1.7 1.7 0 0 0 .39-1.15 1.74 1.74 0 0 0 -.35-1.1z"/><path d="m332.16 351.29a1.93 1.93 0 0 1 -1.35.5 1.89 1.89 0 0 1 -1.35-.5 1.8 1.8 0 0 1 -.58-1.42 2 2 0 0 1 .52-1.42 2 2 0 0 1 2.81 0 2 2 0 0 1 .53 1.42 1.87 1.87 0 0 1 -.58 1.42zm-.26-2.58a1.53 1.53 0 0 0 -2.19 0 1.69 1.69 0 0 0 -.42 1.16 1.5 1.5 0 0 0 .44 1.12 1.45 1.45 0 0 0 1.08.43 1.48 1.48 0 0 0 1.08-.43 1.53 1.53 0 0 0 .43-1.12 1.74 1.74 0 0 0 -.42-1.16z"/><path d="m336.48 351.73v-.9a1.71 1.71 0 0 1 -1.57 1 1.5 1.5 0 0 1 -1.15-.52 2 2 0 0 1 -.51-1.44 2.1 2.1 0 0 1 .46-1.37 1.56 1.56 0 0 1 1.25-.59 1.83 1.83 0 0 1 1.52.92v-2.63h.39v5.57zm-.45-3a1.28 1.28 0 0 0 -1-.5 1.2 1.2 0 0 0 -1 .5 1.87 1.87 0 0 0 0 2.26 1.17 1.17 0 0 0 .92.43 1.39 1.39 0 0 0 1-.43 1.46 1.46 0 0 0 .44-1.09 1.87 1.87 0 0 0 -.39-1.17z"/><path d="m339 352a1.26 1.26 0 0 1 -.5.63 1.92 1.92 0 0 1 -.76.16v-.37a1.33 1.33 0 0 0 .58-.12 1 1 0 0 0 .3-.43l.14-.36-1.47-3.51h.42l1.22 3 1.24-3h.42z"/><path d="m345.7 345.73h3v.37h-6.34v2.64a8.52 8.52 0 0 1 -.27 2.16 7.93 7.93 0 0 1 -.72 1.71l-.33-.2a8 8 0 0 0 .72-1.81 9.07 9.07 0 0 0 .2-1.87v-3h3.26a8.49 8.49 0 0 0 -.66-.69l.33-.21a8 8 0 0 1 .81.9zm2.28 1.14c-.62.11-1.25.2-1.93.28a8.24 8.24 0 0 0 .11 1.41h2.15v.36h-2.09a3.53 3.53 0 0 0 .29.9 3.57 3.57 0 0 0 1 1.37 1 1 0 0 0 .59.32c.05 0 .12-.08.2-.26a4.06 4.06 0 0 0 .22-1.07l.37.17a2.93 2.93 0 0 1 -.41 1.34.5.5 0 0 1 -.38.22 1.35 1.35 0 0 1 -.8-.31 3.61 3.61 0 0 1 -1.07-1.46 5.16 5.16 0 0 1 -.38-1.22h-2.07v1.94a14 14 0 0 0 1.95-.68l.07.36a24.52 24.52 0 0 1 -3 1l-.2-.37c.29-.07.57-.13.83-.21v-4a37.53 37.53 0 0 0 4.28-.49zm-.93 5v.36h-4.35v-.36zm-1.39-4.72c-.62.07-1.25.12-1.9.15v1.22h2a9.63 9.63 0 0 1 -.1-1.33z"/><path d="m351.43 348.19h.6a5.83 5.83 0 0 0 .37-.7 7.49 7.49 0 0 0 .35-.92l.37.13a8.28 8.28 0 0 1 -.34.88 3.82 3.82 0 0 1 -.32.61h1.54v.37h-4.38v-.37h1.38c-.18-.47-.38-.92-.6-1.36l.26-.2a11.94 11.94 0 0 1 .77 1.56zm2.39-2.19v.36h-4v-.36zm-.6 6.34h-.4v-.53h-2.16v.73h-.4v-3.15h3zm-.4-.89v-1.7h-2.16v1.7zm-.7-5.78-.33.23a4.5 4.5 0 0 0 -.66-.9l.3-.19a3.58 3.58 0 0 1 .69.86zm3.74 2.22a4.53 4.53 0 0 1 .94 1.16 2.61 2.61 0 0 1 .34 1.2c0 .69-.42 1-1.2 1a3.25 3.25 0 0 1 -.76-.13l-.06-.4a2.61 2.61 0 0 0 .82.16c.52 0 .78-.22.8-.66a2.23 2.23 0 0 0 -.28-1 4.07 4.07 0 0 0 -1-1.21l1.16-2.44h-1.89v7.08h-.4v-7.45h2.85z"/><path d="m318.65 361.71v-4.61h-1.32v-.37a2.38 2.38 0 0 0 .94-.14.85.85 0 0 0 .47-.46h.31v5.58z"/><path d="m324.26 361.18a1.72 1.72 0 0 1 -1.37.61c-1.26 0-1.89-.92-1.89-2.77s.63-2.94 1.89-2.94a1.58 1.58 0 0 1 1.57 1l-.41.15a1.2 1.2 0 0 0 -1.16-.76c-.9 0-1.39.83-1.48 2.5a2.25 2.25 0 0 1 1.53-.71 1.79 1.79 0 0 1 1.34.5 1.88 1.88 0 0 1 0 2.44zm-.26-2.18a1.34 1.34 0 0 0 -1-.37 1.78 1.78 0 0 0 -.86.25 2.15 2.15 0 0 0 -.67.54c.06 1.34.56 2 1.48 2a1.3 1.3 0 0 0 1.05-.47 1.47 1.47 0 0 0 .36-1 1.41 1.41 0 0 0 -.36-.95z"/><path d="m327.75 358.68a1.33 1.33 0 0 1 -1.87 0 1.55 1.55 0 0 1 -.34-1.09 1.7 1.7 0 0 1 .34-1.1 1.17 1.17 0 0 1 .95-.42 1.14 1.14 0 0 1 .93.42 1.7 1.7 0 0 1 .35 1.1 1.5 1.5 0 0 1 -.36 1.09zm-1.61 3.09-.28-.28 5.4-5.41.28.28zm.69-5.35a.8.8 0 0 0 -.67.33 1.37 1.37 0 0 0 -.26.85 1.24 1.24 0 0 0 .25.82.85.85 0 0 0 .68.31.8.8 0 0 0 .69-.33 1.27 1.27 0 0 0 .23-.8c0-.79-.31-1.18-.92-1.18zm4.67 5a1.25 1.25 0 0 1 -.93.38 1.22 1.22 0 0 1 -.95-.38 1.54 1.54 0 0 1 -.34-1.08 1.68 1.68 0 0 1 .35-1.11 1.13 1.13 0 0 1 .94-.42 1.17 1.17 0 0 1 .94.42 1.73 1.73 0 0 1 .35 1.11 1.53 1.53 0 0 1 -.36 1.06zm-.93-2.27a.8.8 0 0 0 -.67.33 1.38 1.38 0 0 0 -.26.86 1.18 1.18 0 0 0 .25.8.8.8 0 0 0 .68.32.79.79 0 0 0 .69-.33 1.24 1.24 0 0 0 .23-.79c0-.81-.31-1.21-.92-1.21z"/><path d="m336.88 355.6h3.39v.4h-7.65v-.36h3.76a7 7 0 0 0 -.38-.64l.33-.2a5.19 5.19 0 0 1 .55.8zm2.88 6.28c0 .44-.29.66-.89.66h-.83v-.4a7.92 7.92 0 0 0 .87.07c.33 0 .5-.13.5-.37v-2.84h-5.88v3.62h-.4v-4h6.67zm-1.29-5.41v1.62h-4.05v-1.62zm-.36 1.29v-1h-3.33v1zm-.07 4h-.37v-.33h-2.52v.57h-.37v-2.28h3.22zm-.37-.67v-1.09h-2.52v1.09z"/><path d="m345.53 355.77h3.13v.33h-6.4v2.64a9 9 0 0 1 -.26 2.16 8.16 8.16 0 0 1 -.67 1.71l-.3-.2a8.29 8.29 0 0 0 .67-1.8 9.8 9.8 0 0 0 .19-1.87v-3h3.18a7.45 7.45 0 0 0 -.46-.77l.31-.19a6.33 6.33 0 0 1 .61.99zm2.14 3.75v.2a3.67 3.67 0 0 1 -1 1.28 3.56 3.56 0 0 1 -.62.46 9.25 9.25 0 0 0 2.78.79l-.1.36a8 8 0 0 1 -3-.94c-.24.12-.49.24-.75.34a10.29 10.29 0 0 1 -2.73.6l-.1-.36a10.52 10.52 0 0 0 2.57-.54 5.5 5.5 0 0 0 .65-.26 5 5 0 0 1 -1.43-1.6h-.94v-.33zm-3.52-2.39v-.77h.37v.77h2.15v-.77h.33v.77h1.59v.33h-1.59v1.36h-2.89v-1.36h-1.6v-.33zm1.56 4.12a4.8 4.8 0 0 0 .62-.42 3.3 3.3 0 0 0 .85-1h-2.86a4.88 4.88 0 0 0 1.39 1.42zm-1.19-2.76h2.15v-1h-2.15z"/><path d="m406.47 376.87h.2v54.88h-.2z"/><path d="m405.26 376.66h2.63v.4h-2.63z"/><path d="m405.27 431.55h2.6v.4h-2.6z"/><path d="m379.14 297a1.7 1.7 0 0 1 -1.25.5 1.59 1.59 0 0 1 -1.6-1.05l.4-.17a1.23 1.23 0 0 0 1.2.85 1.27 1.27 0 0 0 .95-.4 2 2 0 0 0 .09-2.34 1.06 1.06 0 0 0 -.86-.37 1.24 1.24 0 0 0 -1.14.71h-.39v-2.87h2.88v.36h-2.49v2a1.3 1.3 0 0 1 1.14-.58 1.52 1.52 0 0 1 1.18.49 2.05 2.05 0 0 1 .43 1.38 2.08 2.08 0 0 1 -.54 1.49z"/><path d="m384.06 296.85a1.74 1.74 0 0 1 -1.37.6c-1.27 0-1.9-.92-1.9-2.76s.63-2.95 1.9-2.95a1.59 1.59 0 0 1 1.57 1l-.42.15a1.2 1.2 0 0 0 -1.15-.76c-.9 0-1.4.84-1.48 2.5a2.2 2.2 0 0 1 1.53-.7 1.76 1.76 0 0 1 1.33.5 1.72 1.72 0 0 1 .45 1.21 1.84 1.84 0 0 1 -.46 1.21zm-.32-2.2a1.36 1.36 0 0 0 -1-.37 1.8 1.8 0 0 0 -.85.26 2 2 0 0 0 -.67.53c.06 1.34.55 2 1.48 2a1.33 1.33 0 0 0 1-.47 1.48 1.48 0 0 0 .37-1 1.37 1.37 0 0 0 -.33-.95z"/><path d="m388.46 297a1.57 1.57 0 0 1 -1.2.5 1.81 1.81 0 0 1 -1.53-.92v1.9h-.4v-4.84h.4v.85a1.84 1.84 0 0 1 1.49-.91 1.67 1.67 0 0 1 1.29.53 2 2 0 0 1 .48 1.39 2 2 0 0 1 -.53 1.5zm-.24-2.63a1.26 1.26 0 0 0 -1-.42 1.33 1.33 0 0 0 -1 .46 1.8 1.8 0 0 0 -.41 1.2 1.46 1.46 0 0 0 .49 1.11 1.4 1.4 0 0 0 1 .4 1.17 1.17 0 0 0 .9-.38 1.77 1.77 0 0 0 .42-1.24 1.72 1.72 0 0 0 -.4-1.16z"/><path d="m392.67 297.38-1.42-1.76-1.42 1.76h-.5l1.68-2.1-1.33-1.66h.51l1.05 1.31 1.05-1.31h.52l-1.32 1.66 1.68 2.1z"/><path d="m348.82 321.06a1.7 1.7 0 0 1 -1.25.5 1.59 1.59 0 0 1 -1.6-1.05l.4-.17a1.22 1.22 0 0 0 1.2.85 1.27 1.27 0 0 0 .95-.4 2 2 0 0 0 .09-2.34 1.06 1.06 0 0 0 -.86-.37 1.24 1.24 0 0 0 -1.14.71h-.4v-2.87h2.89v.36h-2.49v2a1.3 1.3 0 0 1 1.14-.58 1.52 1.52 0 0 1 1.18.49 2.11 2.11 0 0 1 .43 1.38 2.08 2.08 0 0 1 -.54 1.49z"/><path d="m353.74 321a1.74 1.74 0 0 1 -1.37.6c-1.27 0-1.9-.92-1.9-2.76s.63-2.95 1.9-2.95a1.59 1.59 0 0 1 1.57 1l-.42.15a1.2 1.2 0 0 0 -1.15-.76c-.9 0-1.4.83-1.48 2.5a2.2 2.2 0 0 1 1.53-.7 1.76 1.76 0 0 1 1.33.5 1.72 1.72 0 0 1 .45 1.21 1.84 1.84 0 0 1 -.46 1.21zm-.32-2.2a1.38 1.38 0 0 0 -1-.37 1.77 1.77 0 0 0 -.85.25 2.2 2.2 0 0 0 -.67.54c.06 1.34.55 2 1.48 2a1.33 1.33 0 0 0 1-.47 1.48 1.48 0 0 0 .37-1 1.37 1.37 0 0 0 -.33-.99z"/><path d="m358.14 321.08a1.57 1.57 0 0 1 -1.2.5 1.81 1.81 0 0 1 -1.53-.92v1.9h-.41v-4.84h.4v.85a1.81 1.81 0 0 1 1.49-.91 1.67 1.67 0 0 1 1.29.53 2.06 2.06 0 0 1 .48 1.39 2 2 0 0 1 -.52 1.5zm-.24-2.63a1.26 1.26 0 0 0 -1-.43 1.34 1.34 0 0 0 -1 .47 1.8 1.8 0 0 0 -.41 1.2 1.46 1.46 0 0 0 .49 1.11 1.4 1.4 0 0 0 1 .4 1.17 1.17 0 0 0 .9-.38 1.77 1.77 0 0 0 .42-1.24 1.72 1.72 0 0 0 -.4-1.13z"/><path d="m362.35 321.49-1.42-1.76-1.42 1.76h-.51l1.68-2.1-1.33-1.66h.51l1.05 1.31 1-1.31h.53l-1.32 1.66 1.68 2.1z"/><path d="m369.22 285.32h.2v19.15h-.2z"/><path d="m368.01 285.12h2.63v.4h-2.63z"/><path d="m368.02 304.27h2.6v.4h-2.6z"/><path d="m369.23 305.38h.2v126.36h-.2z"/><path d="m368.01 431.54h2.63v.4h-2.63z"/><path d="m368.02 305.18h2.6v.4h-2.6z"/><path d="m.5 55.26h399.43v1h-399.43z"/><path d="m.5 376.16h399.43v1h-399.43z"/></g><circle cx="354.08" cy="294.76" fill="#fff" r="9.91"/><path d="m349.45 275.81h-1.39v-.48h3.35v.48h-1.41v4.08h-.58z" fill="#070002"/><path d="m351.8 277.59c0-1.46.8-2.35 1.95-2.35s1.95.89 1.95 2.35-.81 2.38-1.95 2.38-1.95-.91-1.95-2.38zm3.3 0c0-1.14-.54-1.85-1.35-1.85s-1.36.71-1.36 1.85.53 1.88 1.36 1.88 1.35-.74 1.35-1.88z" fill="#070002"/><path d="m356.68 275.33h1.32c1 0 1.72.34 1.72 1.34s-.69 1.41-1.68 1.41h-.76v1.81h-.58zm1.26 2.28c.8 0 1.18-.29 1.18-.94s-.4-.88-1.2-.88h-.66v1.82z" fill="#070002"/><g clip-path="url(#a)"><path d="m358.45 297.11-3-3a1.89 1.89 0 0 0 -2.6 0l-3 3-.7-.71 3-3a2.84 2.84 0 0 1 4 0l3 3z" fill="#060001"/><path d="m343.84 282.88h4.12v22.87h-4.12z" fill="#00c08b"/><path d="m347.95 282.88h4.12v22.87h-4.12z" fill="#2398d6"/><path d="m352.07 282.88h4.12v22.87h-4.12z" fill="#f4be24"/><path d="m356.18 282.88h4.12v22.87h-4.12z" fill="#f29418"/><path d="m360.29 282.88h4.12v22.87h-4.12z" fill="#df4847"/></g><g clip-path="url(#b)"><path d="m351.07 289.69h1.22v11.66h-1.22z" fill="#00c08b"/><path d="m352.29 289.69h1.22v11.66h-1.22z" fill="#2398d6"/><path d="m353.51 289.69h1.22v11.66h-1.22z" fill="#f4be24"/><path d="m354.74 289.69h1.22v11.66h-1.22z" fill="#f29418"/><path d="m355.96 289.69h1.22v11.66h-1.22z" fill="#df4847"/></g><path d="m344.55 309.5h19.15v.2h-19.15z" fill="#595757"/><path d="m344.35 308.29h.4v2.63h-.4z" fill="#595757"/><path d="m363.5 308.3h.4v2.6h-.4z" fill="#595757"/></svg>