<svg viewBox="0 0 33.79 50.12" xmlns="http://www.w3.org/2000/svg" xmlns:xlink="http://www.w3.org/1999/xlink"><clipPath id="a"><path d="m16.89 49.19a16.89 16.89 0 1 1 16.9-16.89 16.91 16.91 0 0 1 -16.9 16.89zm0-32.95a16.06 16.06 0 1 0 16.11 16.06 16.07 16.07 0 0 0 -16.11-16.06z"/></clipPath><clipPath id="b"><path d="m18.56 28.78a1.93 1.93 0 0 0 -3.34 0l-3.08 5.35a1.92 1.92 0 0 0 1.67 2.87h6.19a1.93 1.93 0 0 0 1.67-2.89z"/></clipPath><circle cx="16.82" cy="32.07" fill="#fff" r="16.28"/><g fill="#070002"><path d="m9.21.94h-2.27v-.8h5.5v.8h-2.28v6.71h-.95z"/><path d="m13.07 3.87c0-2.41 1.32-3.87 3.21-3.87s3.2 1.46 3.2 3.87-1.32 3.91-3.2 3.91-3.21-1.5-3.21-3.91zm5.44 0c0-1.88-.89-3-2.23-3s-2.28 1.13-2.28 3 .92 3.13 2.28 3.13 2.23-1.26 2.23-3.13z"/><path d="m21.1.14h2.14c1.69 0 2.81.57 2.81 2.2s-1.12 2.33-2.76 2.33h-1.24v3h-.95zm2.07 3.76c1.32 0 1.94-.48 1.94-1.56s-.66-1.43-2-1.43h-1.06v3z"/></g><g clip-path="url(#a)"><path d="m9.56 35.7-.71-.7 5-5a4.34 4.34 0 0 1 6.15 0l5 5-.71.71-5-5a3.34 3.34 0 0 0 -4.72 0z" fill="#060001"/><path d="m0 12.56h6.76v37.56h-6.76z" fill="#00c08b"/><path d="m6.76 12.56h6.76v37.56h-6.76z" fill="#2398d6"/><path d="m13.52 12.56h6.76v37.56h-6.76z" fill="#f4be24"/><path d="m20.28 12.56h6.76v37.56h-6.76z" fill="#f29418"/><path d="m27.03 12.56h6.76v37.56h-6.76z" fill="#df4847"/></g><g clip-path="url(#b)"><path d="m11.87 23.75h2.01v19.15h-2.01z" fill="#00c08b"/><path d="m13.88 23.75h2.01v19.15h-2.01z" fill="#2398d6"/><path d="m15.89 23.75h2.01v19.15h-2.01z" fill="#f4be24"/><path d="m17.9 23.75h2.01v19.15h-2.01z" fill="#f29418"/><path d="m19.9 23.75h2.01v19.15h-2.01z" fill="#df4847"/></g></svg>