<svg viewBox="0 0 404.37 295.27" xmlns="http://www.w3.org/2000/svg"><path d="m0 15.26h126.36v126.36h-126.36z" fill="#4ebff5"/><path d="m138.34 15.26h126.36v126.36h-126.36z" fill="#4ed3ae"/><path d="m278 15.26h126.36v126.36h-126.36z" fill="#ffcb2f"/><g fill="#fff"><path d="m37.74 23.91a.42.42 0 0 0 .16.19.55.55 0 0 0 .26.06.46.46 0 0 0 .23-.05.4.4 0 0 0 .16-.13.85.85 0 0 0 .1-.19 1 1 0 0 0 0-.24.85.85 0 0 0 0-.23.93.93 0 0 0 -.1-.2.4.4 0 0 0 -.16-.13.46.46 0 0 0 -.23 0h-.16l-.12.05a.34.34 0 0 0 -.09.08.41.41 0 0 0 -.07.11v-.66h-.14v1.6h.13zm0-.54a.46.46 0 0 1 .07-.16.37.37 0 0 1 .32-.15.33.33 0 0 1 .17 0 .43.43 0 0 1 .12.11.44.44 0 0 1 .06.16.56.56 0 0 1 0 .36.44.44 0 0 1 -.06.16.43.43 0 0 1 -.12.11.34.34 0 0 1 -.17.05.36.36 0 0 1 -.13-.01.36.36 0 0 1 -.13-.11.46.46 0 0 1 -.07-.16.82.82 0 0 1 0-.36z"/><path d="m39.18 24.26v.07.06h-.18v.12h.22.08l.06-.08.06-.12.38-1.31h-.14l-.36 1-.38-1h-.15l.46 1.16z"/><path d="m41.71 24h-.97v-.63h.9v-.13h-.9v-.58h.96v-.14h-1.11v1.61h1.12z"/><path d="m41.98 23.89h.19v.24h-.19z"/><path d="m43.42 24a.59.59 0 0 1 -.14.06h-.13a.68.68 0 0 1 -.21 0 .37.37 0 0 1 -.28-.2.44.44 0 0 1 0-.21h-.15a.68.68 0 0 0 0 .26.37.37 0 0 0 .13.17.51.51 0 0 0 .21.1 1.09 1.09 0 0 0 .26 0h.24a.54.54 0 0 0 .17-.07.35.35 0 0 0 .11-.09.3.3 0 0 0 .06-.11.16.16 0 0 0 0-.09.56.56 0 0 1 0-.07.39.39 0 0 0 0-.17.27.27 0 0 0 -.09-.12.57.57 0 0 0 -.13-.08l-.16-.06-.39-.09h-.1a.18.18 0 0 1 -.07-.05.2.2 0 0 1 -.06-.07.3.3 0 0 1 0-.1.33.33 0 0 1 0-.15.28.28 0 0 1 .09-.1l.13-.05h.15a.45.45 0 0 1 .16 0 .27.27 0 0 1 .14.07.24.24 0 0 1 .09.11.43.43 0 0 1 .05.16h.15a.54.54 0 0 0 -.05-.22.37.37 0 0 0 -.13-.15.57.57 0 0 0 -.19-.1.83.83 0 0 0 -.22 0 .7.7 0 0 0 -.28.05.43.43 0 0 0 -.17.12.38.38 0 0 0 -.09.15.69.69 0 0 0 0 .13.35.35 0 0 0 0 .16.31.31 0 0 0 .08.11.36.36 0 0 0 .12.08h.13l.36.09h.12l.1.06a.2.2 0 0 1 .08.08.21.21 0 0 1 0 .12.24.24 0 0 1 0 .15.36.36 0 0 1 -.09.12z"/><path d="m45.05 23.52a.88.88 0 0 1 0 .24.44.44 0 0 1 -.1.16.42.42 0 0 1 -.14.09.65.65 0 0 1 -.2 0 .62.62 0 0 1 -.2 0 .38.38 0 0 1 -.15-.09.42.42 0 0 1 -.09-.16.88.88 0 0 1 0-.24v-1h-.17v1a.64.64 0 0 0 0 .24.45.45 0 0 0 .11.19.43.43 0 0 0 .19.13.63.63 0 0 0 .29.05.61.61 0 0 0 .28-.05.46.46 0 0 0 .2-.13.59.59 0 0 0 .11-.19.93.93 0 0 0 0-.24v-1h-.15z"/><path d="m45.66 22.77.94 1.36h.17v-1.61h-.15v1.36h-.01l-.93-1.36h-.17v1.61h.15z"/><path d="m48.62 24.11.16-.06a.45.45 0 0 0 .1-.09.27.27 0 0 0 .06-.1v-.1-.09a.39.39 0 0 0 -.09-.26.4.4 0 0 0 -.25-.13.43.43 0 0 0 .12-.05.3.3 0 0 0 .08-.08.24.24 0 0 0 .06-.11.25.25 0 0 0 0-.12.36.36 0 0 0 0-.19.43.43 0 0 0 -.11-.12l-.17-.07h-.87v1.6h.68zm-.75-1.45h.53q.36 0 .36.3a.36.36 0 0 1 0 .1.31.31 0 0 1 -.07.09l-.11.06h-.16-.53zm0 .7h.53a.54.54 0 0 1 .31.08.27.27 0 0 1 .11.23.38.38 0 0 1 0 .16.32.32 0 0 1 -.1.1.26.26 0 0 1 -.13.06h-.69z"/><path d="m49.89 23.42h-.06-.08-.22a.83.83 0 0 0 -.2.05.33.33 0 0 0 -.15.11.31.31 0 0 0 0 .19.4.4 0 0 0 0 .15.27.27 0 0 0 .08.1.31.31 0 0 0 .13.06.34.34 0 0 0 .15 0h.14a.43.43 0 0 0 .12 0 .27.27 0 0 0 .08-.07l.08-.1s.04.09.04.09a.14.14 0 0 0 0 .07h.05.18v-.07c-.06 0-.08 0-.08-.08v-.62a.49.49 0 0 0 0-.19.27.27 0 0 0 -.1-.11.35.35 0 0 0 -.25 0h-.15a.58.58 0 0 0 -.19 0 .37.37 0 0 0 -.14.07.29.29 0 0 0 -.1.12.48.48 0 0 0 0 .18h.14a.23.23 0 0 1 .09-.21.38.38 0 0 1 .22-.06h.12a.24.24 0 0 1 .09 0 .27.27 0 0 1 .07.08.2.2 0 0 1 0 .11.17.17 0 0 1 0 .08zm0 .08v.18a.33.33 0 0 1 0 .15.27.27 0 0 1 -.09.12.51.51 0 0 1 -.28.1h-.1l-.07-.05a.2.2 0 0 1 -.06-.07.29.29 0 0 1 0-.09.22.22 0 0 1 0-.14.4.4 0 0 1 .13-.07h.17.19.07a.09.09 0 0 0 0 0z"/><path d="m50.5 23.45a.37.37 0 0 1 0-.15.33.33 0 0 1 .07-.13.28.28 0 0 1 .11-.08.4.4 0 0 1 .15 0h.15l.09.08a.36.36 0 0 1 0 .11.59.59 0 0 1 0 .14v.72h.14v-.75a1 1 0 0 0 0-.18.31.31 0 0 0 -.07-.14.3.3 0 0 0 -.13-.09.66.66 0 0 0 -.21 0 .43.43 0 0 0 -.22.06.35.35 0 0 0 -.15.17v-.21h-.14v1.16h.14z"/><path d="m51.71 23.69.23-.19.46.63h.18l-.53-.73.49-.43h-.19l-.64.56v-1.01h-.14v1.61h.14z"/><rect height="1.87" rx=".37" width="4.12" x="20.71" y="26.43"/><path d="m36.17 29a3.28 3.28 0 0 0 -3.28-3.27 3.35 3.35 0 0 0 -1.41.32.38.38 0 0 0 -.37-.32h-1.11a.38.38 0 0 0 -.38.38v6.28a.38.38 0 0 0 .38.37h1.12a.38.38 0 0 0 .38-.37v-3.34a1.41 1.41 0 0 1 2.81 0v3.39a.38.38 0 0 0 .37.37h1.12a.38.38 0 0 0 .37-.37v-3.39z"/><path d="m49.06 25.77a3.52 3.52 0 1 0 3.51 3.52 3.53 3.53 0 0 0 -3.51-3.52zm0 5.16a1.64 1.64 0 1 1 1.64-1.64 1.65 1.65 0 0 1 -1.64 1.64z"/><rect height="7.03" rx=".37" width="1.87" x="26.33" y="25.77"/><path d="m44.23 25.77h-1.12a.38.38 0 0 0 -.38.38v.33a3.44 3.44 0 0 0 -2.11-.71 3.52 3.52 0 1 0 2.11 6.33v1.64a1.7 1.7 0 0 1 -3.38.3.38.38 0 0 0 -.37-.3h-1.14a.37.37 0 0 0 -.37.42 3.58 3.58 0 0 0 7.14-.42v-7.59a.38.38 0 0 0 -.38-.38zm-3.61 5.16a1.64 1.64 0 1 1 1.64-1.64 1.65 1.65 0 0 1 -1.64 1.64z"/><path d="m23.52 22.49h-5.24a.38.38 0 0 0 -.38.38v9.56a.38.38 0 0 0 .38.37h1.12a.38.38 0 0 0 .38-.37v-8.06h5.62a1.88 1.88 0 0 0 -1.88-1.88z"/><circle cx="16.01" cy="31.83" r=".94"/><path d="m27.6 22.72a.38.38 0 0 0 -.65 0l-.6 1a.38.38 0 0 0 .33.56h1.19a.38.38 0 0 0 .33-.56z"/><path d="m9.94 24.36a4.22 4.22 0 1 0 3.53 6.49.37.37 0 0 0 -.31-.58h-1.48a.34.34 0 0 0 -.24.09 2.39 2.39 0 0 1 -1.53.57 2.34 2.34 0 0 1 -2.22-1.6h6.05a.38.38 0 0 0 .37-.34 3.7 3.7 0 0 0 0-.47 4.23 4.23 0 0 0 -4.17-4.16zm-2.25 3.47a2.34 2.34 0 0 1 4.44 0z"/><path d="m176.49 23.91a.37.37 0 0 0 .16.19.51.51 0 0 0 .25.06.41.41 0 0 0 .23-.05.34.34 0 0 0 .16-.13.44.44 0 0 0 .1-.19 1 1 0 0 0 0-.24.85.85 0 0 0 0-.23.47.47 0 0 0 -.1-.2.34.34 0 0 0 -.16-.13.41.41 0 0 0 -.23 0h-.13l-.11.05a.39.39 0 0 0 -.1.08.24.24 0 0 0 -.06.11v-.66h-.14v1.6h.13zm0-.54a.77.77 0 0 1 .07-.16.69.69 0 0 1 .13-.11.36.36 0 0 1 .19 0 .29.29 0 0 1 .17 0 .43.43 0 0 1 .12.11.77.77 0 0 1 .07.16.82.82 0 0 1 0 .36.77.77 0 0 1 -.07.16.43.43 0 0 1 -.12.11.29.29 0 0 1 -.17.05.36.36 0 0 1 -.19-.05.69.69 0 0 1 -.13-.11.77.77 0 0 1 -.07-.16.82.82 0 0 1 0-.36z"/><path d="m177.94 24.26a.25.25 0 0 0 0 .07v.06h-.05-.17v.12h.22.07l.06-.08.06-.12.5-1.34h-.14l-.36 1-.38-1h-.15l.47 1.16z"/><path d="m180.47 24h-.97v-.63h.89v-.13h-.89v-.58h.96v-.14h-1.11v1.61h1.12z"/><path d="m180.74 23.89h.19v.24h-.19z"/><path d="m182.18 24h-.18-.14a.75.75 0 0 1 -.21 0 .29.29 0 0 1 -.16-.07.24.24 0 0 1 -.11-.13.44.44 0 0 1 0-.21h-.16a.68.68 0 0 0 0 .26.39.39 0 0 0 .14.17.42.42 0 0 0 .2.1 1.12 1.12 0 0 0 .27 0h.24l.17-.07.11-.09.06-.11a.29.29 0 0 0 0-.09.23.23 0 0 0 0-.07.4.4 0 0 0 0-.17.27.27 0 0 0 -.09-.12l-.14-.08-.16-.06-.39-.09h-.09l-.08-.05a.18.18 0 0 1 -.05-.07.3.3 0 0 1 0-.1.33.33 0 0 1 0-.15.43.43 0 0 1 .09-.1l.13-.05h.15a.41.41 0 0 1 .16 0 .23.23 0 0 1 .14.07.36.36 0 0 1 .1.11.42.42 0 0 1 0 .16h.15a.54.54 0 0 0 0-.22.64.64 0 0 0 -.13-.15.69.69 0 0 0 -.19-.1.91.91 0 0 0 -.23 0 .74.74 0 0 0 -.28.05.43.43 0 0 0 -.17.12.28.28 0 0 0 -.08.15.32.32 0 0 0 0 .13.35.35 0 0 0 0 .16.23.23 0 0 0 .08.11l.11.08h.14l.36.09h.11l.11.06.08.08a.21.21 0 0 1 0 .12.25.25 0 0 1 -.05.15.32.32 0 0 1 -.01.18z"/><path d="m183.8 23.52a.88.88 0 0 1 0 .24.42.42 0 0 1 -.09.16.38.38 0 0 1 -.15.09 1 1 0 0 1 -.4 0 .38.38 0 0 1 -.15-.09.42.42 0 0 1 -.09-.16.88.88 0 0 1 0-.24v-1h-.15v1a.93.93 0 0 0 0 .24.45.45 0 0 0 .11.19.46.46 0 0 0 .2.13.59.59 0 0 0 .28.05.65.65 0 0 0 .29-.05.43.43 0 0 0 .19-.13.45.45 0 0 0 .11-.19.93.93 0 0 0 0-.24v-1h-.16z"/><path d="m184.41 22.77h.01l.93 1.36h.18v-1.61h-.16v1.36l-.94-1.36h-.17v1.61h.15z"/><path d="m187.38 24.11.15-.06a.53.53 0 0 0 .11-.09.47.47 0 0 0 .05-.1.19.19 0 0 0 0-.1.28.28 0 0 0 0-.09.39.39 0 0 0 -.09-.26.47.47 0 0 0 -.25-.13l.11-.05a.34.34 0 0 0 .09-.08l.06-.11a.5.5 0 0 0 0-.12.36.36 0 0 0 0-.19.25.25 0 0 0 -.11-.12l-.16-.07h-.88v1.6h.68zm-.75-1.45h.52q.36 0 .36.3a.18.18 0 0 1 0 .1s0 .06-.07.09l-.11.06h-.16-.52zm0 .7h.52a.58.58 0 0 1 .32.08.26.26 0 0 1 .1.23.38.38 0 0 1 0 .16.22.22 0 0 1 -.09.1.35.35 0 0 1 -.14.06h-.68z"/><path d="m188.64 23.42a.08.08 0 0 1 -.06 0h-.07-.23l-.2.05a.26.26 0 0 0 -.14.11.25.25 0 0 0 -.06.19.4.4 0 0 0 0 .15.22.22 0 0 0 .09.1.23.23 0 0 0 .12.06.39.39 0 0 0 .15 0h.15.11l.09-.07a.86.86 0 0 0 .07-.1.19.19 0 0 0 0 .08.14.14 0 0 0 0 .07h.05.29v-.06h-.05a.07.07 0 0 1 -.08-.08v-.62a.36.36 0 0 0 0-.19.22.22 0 0 0 -.1-.11.31.31 0 0 0 -.13-.06h-.16a.52.52 0 0 0 -.18 0 .35.35 0 0 0 -.15.07.27.27 0 0 0 -.09.12.48.48 0 0 0 0 .18h.14a.29.29 0 0 1 .09-.21.38.38 0 0 1 .22-.06h.12a.29.29 0 0 1 .1 0 .16.16 0 0 1 .06.08.2.2 0 0 1 0 .11s0 .06 0 .08a.1.1 0 0 1 -.15.11zm.05.08v.18a.33.33 0 0 1 0 .15.62.62 0 0 1 -.09.12l-.13.07a.41.41 0 0 1 -.16 0h-.09l-.12-.02a.18.18 0 0 1 0-.07.16.16 0 0 1 0-.09.18.18 0 0 1 .06-.14.35.35 0 0 1 .12-.07h.18.18.07a.06.06 0 0 0 .05 0z"/><path d="m189.25 23.45a.37.37 0 0 1 0-.15.54.54 0 0 1 .07-.13.25.25 0 0 1 .12-.08.33.33 0 0 1 .15 0h.14a.24.24 0 0 1 .09.08.37.37 0 0 1 .05.11.61.61 0 0 1 0 .14v.72h.14v-.75a.52.52 0 0 0 0-.18.23.23 0 0 0 -.07-.14.25.25 0 0 0 -.13-.09.56.56 0 0 0 -.2 0 .46.46 0 0 0 -.23.06.29.29 0 0 0 -.14.17v-.21h-.14v1.16h.14z"/><path d="m190.46 23.69.23-.19.46.63h.18l-.53-.73.49-.43h-.18l-.65.56v-1.01h-.14v1.61h.14z"/><rect height="1.87" rx=".37" width="4.12" x="159.46" y="26.43"/><path d="m174.93 29a3.28 3.28 0 0 0 -4.69-2.95.38.38 0 0 0 -.37-.32h-1.13a.37.37 0 0 0 -.37.38v6.28a.37.37 0 0 0 .37.37h1.13a.38.38 0 0 0 .37-.37v-3.34a1.41 1.41 0 0 1 2.81 0v3.39a.38.38 0 0 0 .38.37h1.12a.38.38 0 0 0 .38-.37v-3.39z"/><path d="m187.81 25.77a3.52 3.52 0 1 0 3.52 3.52 3.52 3.52 0 0 0 -3.52-3.52zm0 5.16a1.64 1.64 0 1 1 1.64-1.64 1.65 1.65 0 0 1 -1.64 1.64z"/><rect height="7.03" rx=".37" width="1.87" x="165.08" y="25.77"/><path d="m183 25.77h-1.13a.38.38 0 0 0 -.37.38v.33a3.46 3.46 0 0 0 -2.11-.71 3.52 3.52 0 1 0 2.11 6.33v1.64a1.71 1.71 0 0 1 -3.39.3.38.38 0 0 0 -.37-.3h-1.14a.38.38 0 0 0 -.38.42 3.58 3.58 0 0 0 7.14-.42v-7.59a.38.38 0 0 0 -.36-.38zm-3.61 5.16a1.64 1.64 0 1 1 1.61-1.64 1.64 1.64 0 0 1 -1.62 1.64z"/><path d="m162.27 22.49h-5.27a.37.37 0 0 0 -.37.38v9.56a.38.38 0 0 0 .37.37h1.13a.37.37 0 0 0 .37-.37v-8.06h5.63a1.88 1.88 0 0 0 -1.86-1.88z"/><circle cx="154.77" cy="31.83" r=".94"/><path d="m166.35 22.72a.37.37 0 0 0 -.64 0l-.6 1a.37.37 0 0 0 .32.56h1.2a.37.37 0 0 0 .32-.56z"/><path d="m148.69 24.36a4.22 4.22 0 1 0 3.54 6.49.38.38 0 0 0 -.32-.58h-1.47a.38.38 0 0 0 -.25.09 2.34 2.34 0 0 1 -3.75-1h6.05a.38.38 0 0 0 .38-.34 3.69 3.69 0 0 0 0-.47 4.22 4.22 0 0 0 -4.18-4.19zm-2.25 3.47a2.35 2.35 0 0 1 4.45 0z"/><path d="m316.34 23.91a.37.37 0 0 0 .16.19.51.51 0 0 0 .25.06.41.41 0 0 0 .23-.05.43.43 0 0 0 .17-.13.56.56 0 0 0 .09-.19 1 1 0 0 0 0-.24.85.85 0 0 0 0-.23.61.61 0 0 0 -.09-.2.43.43 0 0 0 -.15-.12.41.41 0 0 0 -.23 0h-.12a.43.43 0 0 0 -.12.05.32.32 0 0 0 -.16.19v-.66h-.14v1.6h.13zm0-.54a.33.33 0 0 1 .07-.16.43.43 0 0 1 .12-.11.38.38 0 0 1 .19 0 .34.34 0 0 1 .18 0 .57.57 0 0 1 .11.11.46.46 0 0 1 .07.16.82.82 0 0 1 0 .36.46.46 0 0 1 -.07.16.57.57 0 0 1 -.11.11.35.35 0 0 1 -.18.05.38.38 0 0 1 -.19-.05.43.43 0 0 1 -.12-.11.33.33 0 0 1 -.07-.16.56.56 0 0 1 0-.36z"/><path d="m317.79 24.26v.07.06h-.06-.17v.12h.22.07a.16.16 0 0 0 .06-.08.67.67 0 0 0 .06-.12l.51-1.34h-.15l-.35 1-.39-1h-.15l.47 1.16z"/><path d="m320.32 24h-.97v-.63h.9v-.13h-.9v-.58h.96v-.14h-1.11v1.61h1.12z"/><path d="m320.59 23.89h.19v.24h-.19z"/><path d="m322 24a.59.59 0 0 1 -.14.06h-.14a.65.65 0 0 1 -.2 0 .33.33 0 0 1 -.17-.07.24.24 0 0 1 -.11-.13.44.44 0 0 1 0-.21h-.15a.53.53 0 0 0 0 .26.37.37 0 0 0 .13.17.42.42 0 0 0 .2.1 1.18 1.18 0 0 0 .27 0h.24l.17-.07a.53.53 0 0 0 .11-.09l.06-.11v-.09-.07a.4.4 0 0 0 0-.17.27.27 0 0 0 -.09-.12.57.57 0 0 0 -.13-.08l-.16-.06-.4-.09h-.09l-.08-.05a.18.18 0 0 1 -.05-.07.3.3 0 0 1 0-.1.33.33 0 0 1 0-.15l.09-.1.13-.05h.15a.47.47 0 0 1 .17 0 .24.24 0 0 1 .13.07.27.27 0 0 1 .1.11.29.29 0 0 1 0 .16h.16a.54.54 0 0 0 0-.22.64.64 0 0 0 -.13-.15.69.69 0 0 0 -.19-.1.85.85 0 0 0 -.23 0 .78.78 0 0 0 -.28.05.4.4 0 0 0 -.16.12.29.29 0 0 0 -.09.15.69.69 0 0 0 0 .13.35.35 0 0 0 0 .16.31.31 0 0 0 .08.11l.11.08h.14l.36.09h.11l.11.06a.3.3 0 0 1 .08.08.21.21 0 0 1 0 .12.33.33 0 0 1 0 .15.52.52 0 0 1 -.11.12z"/><path d="m323.65 23.52a.88.88 0 0 1 0 .24.42.42 0 0 1 -.09.16.38.38 0 0 1 -.15.09.62.62 0 0 1 -.2 0 .65.65 0 0 1 -.2 0 .42.42 0 0 1 -.14-.09.44.44 0 0 1 -.1-.16.88.88 0 0 1 0-.24v-1h-.15v1a.93.93 0 0 0 0 .24.59.59 0 0 0 .11.19.46.46 0 0 0 .2.13.61.61 0 0 0 .28.05.65.65 0 0 0 .29-.05.43.43 0 0 0 .19-.13.45.45 0 0 0 .11-.19.64.64 0 0 0 0-.24v-1h-.16z"/><path d="m324.27 22.77.94 1.36h.17v-1.61h-.15v1.36h-.01l-.94-1.36h-.17v1.61h.16z"/><path d="m327.23 24.11.16-.06.1-.09.06-.1a.36.36 0 0 0 0-.1.28.28 0 0 0 0-.09.39.39 0 0 0 -.09-.26.43.43 0 0 0 -.25-.13l.11-.05a.36.36 0 0 0 .15-.19.5.5 0 0 0 0-.12.49.49 0 0 0 0-.19.34.34 0 0 0 -.12-.12.59.59 0 0 0 -.16-.07h-.88v1.6h.69zm-.75-1.45h.52c.25 0 .37.1.37.3a.19.19 0 0 1 0 .1.18.18 0 0 1 -.06.09l-.12.06h-.16-.52zm0 .7h.52a.56.56 0 0 1 .32.08.31.31 0 0 1 .07.39.22.22 0 0 1 -.09.1.31.31 0 0 1 -.13.06h-.69z"/><path d="m328.49 23.42h-.05-.08-.23l-.2.05a.3.3 0 0 0 -.14.11.26.26 0 0 0 -.05.19.4.4 0 0 0 0 .15.2.2 0 0 0 .08.1.27.27 0 0 0 .12.06.39.39 0 0 0 .15 0h.15.11l.09-.07.08-.1a.19.19 0 0 0 0 .08.14.14 0 0 0 0 .07h.05.18v-.06c-.06 0-.09 0-.09-.08v-.62a.36.36 0 0 0 0-.19.18.18 0 0 0 -.1-.11.31.31 0 0 0 -.13-.06h-.16a.55.55 0 0 0 -.18 0 .31.31 0 0 0 -.14.07.23.23 0 0 0 -.1.12.48.48 0 0 0 -.05.18h.15a.23.23 0 0 1 .09-.21.36.36 0 0 1 .22-.06h.11a.29.29 0 0 1 .1 0 .27.27 0 0 1 .07.08.36.36 0 0 1 0 .11.17.17 0 0 1 0 .08.1.1 0 0 1 -.05.11zm.05.08v.18a.33.33 0 0 1 0 .15.27.27 0 0 1 -.09.12l-.13.07a.4.4 0 0 1 -.15 0h-.1l-.07-.02a.13.13 0 0 1 -.06-.07.15.15 0 0 1 0-.09.17.17 0 0 1 .05-.14.32.32 0 0 1 .13-.07h.17.19.06a.09.09 0 0 0 .06 0z"/><path d="m329.1 23.45c0-.05 0-.11 0-.15a.35.35 0 0 1 .08-.13.23.23 0 0 1 .11-.08.33.33 0 0 1 .15 0h.14a.24.24 0 0 1 .09.08.22.22 0 0 1 .05.11.61.61 0 0 1 0 .14v.72h.15v-.75a1 1 0 0 0 0-.18.46.46 0 0 0 -.07-.14.34.34 0 0 0 -.14-.09.56.56 0 0 0 -.2 0 .46.46 0 0 0 -.23.06.33.33 0 0 0 -.14.17v-.21h-.09v1.16h.14z"/><path d="m330.31 23.69.24-.19.45.63h.18l-.53-.73.5-.43h-.19l-.65.56v-1.01h-.14v1.61h.14z"/><rect height="1.87" rx=".37" width="4.12" x="299.31" y="26.43"/><path d="m314.78 29a3.28 3.28 0 0 0 -4.69-2.95.38.38 0 0 0 -.37-.32h-1.13a.38.38 0 0 0 -.37.38v6.28a.38.38 0 0 0 .37.37h1.13a.38.38 0 0 0 .37-.37v-3.34a1.41 1.41 0 0 1 2.81 0v3.39a.38.38 0 0 0 .38.37h1.12a.38.38 0 0 0 .38-.37v-3.39z"/><path d="m327.67 25.77a3.52 3.52 0 1 0 3.51 3.52 3.53 3.53 0 0 0 -3.51-3.52zm0 5.16a1.64 1.64 0 1 1 1.64-1.64 1.64 1.64 0 0 1 -1.64 1.64z"/><rect height="7.03" rx=".37" width="1.87" x="304.94" y="25.77"/><path d="m322.84 25.77h-1.13a.38.38 0 0 0 -.37.38v.33a3.46 3.46 0 0 0 -2.11-.71 3.52 3.52 0 1 0 2.11 6.33v1.64a1.71 1.71 0 0 1 -3.34.26.37.37 0 0 0 -.37-.3h-1.13a.37.37 0 0 0 -.37.42 3.58 3.58 0 0 0 7.13-.42v-7.55a.37.37 0 0 0 -.42-.38zm-3.61 5.16a1.64 1.64 0 1 1 1.64-1.64 1.65 1.65 0 0 1 -1.64 1.64z"/><path d="m302.13 22.49h-5.25a.38.38 0 0 0 -.37.38v9.56a.38.38 0 0 0 .38.37h1.11a.38.38 0 0 0 .38-.37v-8.06h5.62a1.88 1.88 0 0 0 -1.87-1.88z"/><circle cx="294.62" cy="31.83" r=".94"/><path d="m306.21 22.72a.38.38 0 0 0 -.65 0l-.6 1a.37.37 0 0 0 .32.56h1.2a.38.38 0 0 0 .33-.56z"/><path d="m288.55 24.36a4.22 4.22 0 1 0 3.53 6.49.38.38 0 0 0 -.32-.58h-1.47a.38.38 0 0 0 -.25.09 2.34 2.34 0 0 1 -3.75-1h6a.38.38 0 0 0 .38-.34c0-.16 0-.31 0-.47a4.24 4.24 0 0 0 -4.12-4.19zm-2.26 3.47a2.35 2.35 0 0 1 4.45 0z"/></g><path d="m90.49 130h-1.29l-.23 2h1.15l-.05.44h-1.15l-.22 1.85h-.44l.21-1.85h-1.53l-.21 1.85h-.44l.21-1.85h-1.28v-.44h1.29l.23-2h-1.1v-.44h1.15l.22-1.85h.44l-.21 1.85h1.53l.21-1.85h.44l-.21 1.85h1.28zm-3.26 0-.23 2h1.53l.23-2z" fill="#040000"/><path d="m94.57 132.61v1.64h-.49v-1.64h-2.86v-.55l2.87-4.37h.48v4.49h1v.43zm-.49-4-2.38 3.6h2.38z" fill="#040000"/><path d="m96.91 132a2.34 2.34 0 0 0 .46 1.39 1.23 1.23 0 0 0 1 .49 1.58 1.58 0 0 0 1.4-.86l.45.22a2.1 2.1 0 0 1 -1.85 1.07 1.75 1.75 0 0 1 -1.45-.66 2.59 2.59 0 0 1 -.51-1.68 2.27 2.27 0 0 1 .6-1.68 1.87 1.87 0 0 1 1.39-.56 1.85 1.85 0 0 1 1.34.54 2.09 2.09 0 0 1 .57 1.52v.21zm2.38-1.48a1.31 1.31 0 0 0 -.87-.37c-.76 0-1.26.49-1.5 1.42h2.92a2.11 2.11 0 0 0 -.55-1.03z" fill="#040000"/><path d="m104.72 133.71a1.78 1.78 0 0 1 -1.35.61 2.26 2.26 0 0 1 -1.87-1.06v1h-.5v-6.54h.47v3a2.29 2.29 0 0 1 1.81-1 1.86 1.86 0 0 1 1.47.7 2.43 2.43 0 0 1 .55 1.6 2.38 2.38 0 0 1 -.58 1.69zm-.3-3a1.51 1.51 0 0 0 -2.38 0 2 2 0 0 0 -.49 1.36 1.67 1.67 0 0 0 1.75 1.79 1.39 1.39 0 0 0 1.09-.52 2 2 0 0 0 .46-1.35 2.07 2.07 0 0 0 -.43-1.27z" fill="#040000"/><path d="m107.45 130.25v4h-.45v-4h-1v-.42h1v-1a1 1 0 0 1 1.14-1.14h.77v.44h-.59a1 1 0 0 0 -.66.17.78.78 0 0 0 -.19.59v.94h1.44v.42z" fill="#040000"/><path d="m110.86 130.25v4h-.47v-4h-1v-.42h1v-1a1 1 0 0 1 1.14-1.14h.77v.44h-.59a1 1 0 0 0 -.66.17.78.78 0 0 0 -.19.59v.94h1.44v.42z" fill="#040000"/><path d="m116.56 133.74a2 2 0 0 1 -1.47.59 1.87 1.87 0 0 1 -1.88-1.24l.47-.19a1.44 1.44 0 0 0 1.41 1 1.48 1.48 0 0 0 1.12-.48 2 2 0 0 0 .5-1.43 2.05 2.05 0 0 0 -.39-1.32 1.27 1.27 0 0 0 -1-.43 1.47 1.47 0 0 0 -1.35.84h-.46v-3.38h3.4v.43h-2.91v2.35a1.54 1.54 0 0 1 1.35-.68 1.77 1.77 0 0 1 1.38.58 2.75 2.75 0 0 1 -.13 3.36z" fill="#040000"/><path d="m231.48 130h-1.28l-.23 2h1.14l-.05.44h-1.14l-.22 1.85h-.44l.21-1.85h-1.53l-.21 1.85h-.44l.21-1.85h-1.28l.05-.44h1.29l.23-2h-1.15l.05-.44h1.15l.22-1.85h.44l-.21 1.85h1.53l.21-1.85h.44l-.21 1.85h1.27zm-3.25 0-.23 2h1.53l.23-2z" fill="#040000"/><path d="m235.57 132.61v1.64h-.49v-1.64h-2.86v-.55l2.87-4.37h.48v4.49h1v.43zm-.49-4-2.38 3.6h2.38z" fill="#040000"/><path d="m237.91 132a2.34 2.34 0 0 0 .46 1.39 1.23 1.23 0 0 0 1 .49 1.58 1.58 0 0 0 1.4-.86l.44.22a2.08 2.08 0 0 1 -1.84 1.07 1.75 1.75 0 0 1 -1.45-.66 2.59 2.59 0 0 1 -.51-1.68 2.27 2.27 0 0 1 .6-1.68 2 2 0 0 1 2.73 0 2.08 2.08 0 0 1 .56 1.52v.19zm2.38-1.48a1.31 1.31 0 0 0 -.87-.37c-.76 0-1.26.49-1.5 1.42h2.92a2.11 2.11 0 0 0 -.55-1.03z" fill="#040000"/><path d="m245.73 134.26v-1.06a2 2 0 0 1 -1.84 1.13 1.75 1.75 0 0 1 -1.35-.61 2.34 2.34 0 0 1 -.61-1.69 2.44 2.44 0 0 1 .55-1.61 1.85 1.85 0 0 1 1.47-.69 2.09 2.09 0 0 1 1 .28 2 2 0 0 1 .8.79v-3.08h.46v6.54zm-.54-3.52a1.48 1.48 0 0 0 -2.35 0 2 2 0 0 0 -.43 1.29 2 2 0 0 0 .45 1.36 1.4 1.4 0 0 0 1.09.51 1.6 1.6 0 0 0 1.19-.51 1.72 1.72 0 0 0 .52-1.28 2.09 2.09 0 0 0 -.47-1.37z" fill="#040000"/><path d="m250.77 133.82a2.16 2.16 0 0 1 -1.48.51 1.79 1.79 0 0 1 -2-1.39l.47-.16a1.37 1.37 0 0 0 1.5 1.11 1.64 1.64 0 0 0 1.14-.4 1.21 1.21 0 0 0 .43-.94 1.35 1.35 0 0 0 -.42-1 1.43 1.43 0 0 0 -1.05-.41h-.71v-.45h.61a1.24 1.24 0 0 0 .92-.46 1.34 1.34 0 0 0 .43-.92 1.26 1.26 0 0 0 -.33-.9 1.4 1.4 0 0 0 -1-.33 1.23 1.23 0 0 0 -1.3 1.06l-.47-.15a1.78 1.78 0 0 1 .57-.94 1.8 1.8 0 0 1 1.2-.41 1.83 1.83 0 0 1 1.31.45 1.6 1.6 0 0 1 .48 1.22 1.73 1.73 0 0 1 -1.16 1.53 1.72 1.72 0 0 1 1.39 1.73 1.64 1.64 0 0 1 -.53 1.25z" fill="#040000"/><path d="m255.82 134.24a2.24 2.24 0 0 1 -.07-.55v-.43a2.62 2.62 0 0 1 -2 1.07 1.57 1.57 0 0 1 -1-.31 1 1 0 0 1 -.4-.8 1.28 1.28 0 0 1 .78-1.21 6.66 6.66 0 0 1 2.56-.45c-.08-.93-.51-1.39-1.32-1.39a1.36 1.36 0 0 0 -1.19.59l-.5-.22a1.88 1.88 0 0 1 1.69-.8 1.64 1.64 0 0 1 1.81 1.87v2.08a1.84 1.84 0 0 0 .07.55zm-1.93-2.05c-.68.2-1 .54-1 1a.57.57 0 0 0 .26.46 1 1 0 0 0 .66.21 1.82 1.82 0 0 0 1.3-.52 2.29 2.29 0 0 0 .64-1.37 7.48 7.48 0 0 0 -1.86.22z" fill="#040000"/><path d="m257.48 132a2.34 2.34 0 0 0 .46 1.39 1.23 1.23 0 0 0 1 .49 1.55 1.55 0 0 0 1.39-.86l.46.22a2.1 2.1 0 0 1 -1.85 1.07 1.75 1.75 0 0 1 -1.45-.66 2.59 2.59 0 0 1 -.49-1.65 2.27 2.27 0 0 1 .6-1.68 1.87 1.87 0 0 1 1.39-.56 1.81 1.81 0 0 1 1.33.54 2.09 2.09 0 0 1 .57 1.52v.18zm2.37-1.48a1.27 1.27 0 0 0 -.86-.37c-.76 0-1.26.49-1.5 1.42h2.91a2 2 0 0 0 -.55-1.03z" fill="#040000"/><path d="m373.17 130h-1.29l-.23 2h1.15l-.05.44h-1.15l-.22 1.85h-.44l.21-1.85h-1.53l-.21 1.85h-.41l.21-1.85h-1.31l.05-.44h1.29l.23-2h-1.15l.05-.44h1.15l.22-1.85h.44l-.21 1.85h1.53l.21-1.85h.44l-.21 1.85h1.28zm-3.26 0-.23 2h1.53l.23-2z" fill="#040000"/><path d="m375.13 130.25v4h-.47v-4h-1.05v-.42h1.05v-1a1 1 0 0 1 1.14-1.14h.77v.44h-.57a1 1 0 0 0 -.66.17.78.78 0 0 0 -.19.59v.94h1.44v.42z" fill="#040000"/><path d="m378.54 130.25v4h-.47v-4h-1.07v-.42h1.05v-1a1 1 0 0 1 1.14-1.14h.81v.44h-.59a1 1 0 0 0 -.66.17.78.78 0 0 0 -.19.59v.94h1.44v.42z" fill="#040000"/><path d="m382.47 134.32a1.87 1.87 0 0 1 -1.45-.64 2.28 2.28 0 0 1 -.59-1.64 2.36 2.36 0 0 1 .59-1.68 1.91 1.91 0 0 1 1.46-.62 1.94 1.94 0 0 1 1.76 1l-.45.18a1.46 1.46 0 0 0 -1.31-.72 1.38 1.38 0 0 0 -1.09.49 2 2 0 0 0 -.48 1.38 1.85 1.85 0 0 0 .47 1.33 1.41 1.41 0 0 0 1.09.52 1.51 1.51 0 0 0 1.37-1l.46.19a2 2 0 0 1 -1.83 1.21z" fill="#040000"/><path d="m388.69 133.71a1.78 1.78 0 0 1 -1.35.61 2.26 2.26 0 0 1 -1.87-1.06v1h-.47v-6.54h.47v3a2.29 2.29 0 0 1 1.81-1 1.86 1.86 0 0 1 1.47.7 2.43 2.43 0 0 1 .55 1.6 2.38 2.38 0 0 1 -.61 1.69zm-.3-3a1.51 1.51 0 0 0 -2.38 0 2 2 0 0 0 -.49 1.36 1.67 1.67 0 0 0 1.75 1.79 1.39 1.39 0 0 0 1.09-.52 2 2 0 0 0 .46-1.35 2.07 2.07 0 0 0 -.43-1.27z" fill="#040000"/><path d="m393.89 130.46a9.43 9.43 0 0 1 -1.12 1.14 5.17 5.17 0 0 0 -1.65 2.23h3.22v.43h-4a4.66 4.66 0 0 1 .76-1.59 8.86 8.86 0 0 1 1.3-1.38 8.6 8.6 0 0 0 1.07-1.08 1.63 1.63 0 0 0 .36-1 1 1 0 0 0 -.39-.82 1.78 1.78 0 0 0 -1.17-.36c-.88 0-1.38.54-1.5 1.6l-.47-.18a2.19 2.19 0 0 1 .62-1.35 1.86 1.86 0 0 1 1.35-.5 2.42 2.42 0 0 1 1.49.43 1.42 1.42 0 0 1 .56 1.18 2.09 2.09 0 0 1 -.43 1.25z" fill="#040000"/><path d="m396.92 130.25v4h-.47v-4h-1.05v-.42h1.05v-1a1 1 0 0 1 1.14-1.14h.77v.44h-.59a1 1 0 0 0 -.66.17.78.78 0 0 0 -.19.59v.94h1.44v.42z" fill="#040000"/><path d="m138.34 168.91h126.36v126.36h-126.36z" fill="#f27e7f"/><path d="m176.07 177.56a.38.38 0 0 0 .16.19.51.51 0 0 0 .48 0 .58.58 0 0 0 .17-.14.56.56 0 0 0 .09-.19.93.93 0 0 0 0-.24.85.85 0 0 0 0-.23.61.61 0 0 0 -.09-.2.55.55 0 0 0 -.17-.13.52.52 0 0 0 -.23 0 .25.25 0 0 0 -.12 0h-.12l-.1.08a.6.6 0 0 0 -.06.11v-.66h-.15v1.6h.13zm0-.54a.3.3 0 0 1 .07-.15.34.34 0 0 1 .12-.12.38.38 0 0 1 .19 0 .34.34 0 0 1 .18 0 .43.43 0 0 1 .11.12.41.41 0 0 1 .07.15.82.82 0 0 1 0 .36.46.46 0 0 1 -.07.16.29.29 0 0 1 -.11.11.35.35 0 0 1 -.18 0 .38.38 0 0 1 -.19 0 .25.25 0 0 1 -.12-.11.33.33 0 0 1 -.07-.16.82.82 0 0 1 0-.36z" fill="#fff"/><path d="m177.52 177.91a.43.43 0 0 1 0 .07.16.16 0 0 1 0 .06h-.06-.17v.12h.22.07a.16.16 0 0 0 .06-.08.67.67 0 0 0 .06-.12l.51-1.34h-.21l-.36 1-.38-1h-.16l.47 1.16z" fill="#fff"/><path d="m180.05 177.65h-.97v-.63h.9v-.13h-.9v-.58h.96v-.13h-1.11v1.6h1.12z" fill="#fff"/><path d="m180.32 177.55h.19v.24h-.19z" fill="#fff"/><path d="m181.76 177.61a.35.35 0 0 1 -.14.06h-.14-.2l-.17-.07a.38.38 0 0 1 -.11-.14.4.4 0 0 1 0-.2h-.15a.51.51 0 0 0 0 .25.37.37 0 0 0 .13.17.42.42 0 0 0 .2.1 1.17 1.17 0 0 0 .27 0 .88.88 0 0 0 .24 0 .54.54 0 0 0 .17-.07.53.53 0 0 0 .11-.09.37.37 0 0 0 .06-.1v-.1-.07a.43.43 0 0 0 0-.17.27.27 0 0 0 -.09-.12.57.57 0 0 0 -.13-.08l-.16-.05-.4-.1h-.09l-.08-.05a.18.18 0 0 1 -.05-.07.3.3 0 0 1 0-.1.24.24 0 0 1 0-.15.24.24 0 0 1 .08-.09.31.31 0 0 1 .13-.06h.15a.47.47 0 0 1 .17 0 .33.33 0 0 1 .13.07.35.35 0 0 1 .1.11.29.29 0 0 1 0 .16h.21a.46.46 0 0 0 0-.21.42.42 0 0 0 -.13-.16.66.66 0 0 0 -.19-.09.59.59 0 0 0 -.23 0 .68.68 0 0 0 -.27.05.37.37 0 0 0 -.17.12.4.4 0 0 0 -.09.15.78.78 0 0 0 0 .14.41.41 0 0 0 0 .16.44.44 0 0 0 .08.11.41.41 0 0 0 .11.07h.14l.36.09h.11.11a.3.3 0 0 1 .08.08.27.27 0 0 1 0 .12.33.33 0 0 1 0 .15.35.35 0 0 1 -.15.18z" fill="#fff"/><path d="m183.38 177.17a.83.83 0 0 1 0 .24.42.42 0 0 1 -.09.16.38.38 0 0 1 -.15.09.6.6 0 0 1 -.2 0 .64.64 0 0 1 -.2 0 .42.42 0 0 1 -.14-.09.44.44 0 0 1 -.1-.16.83.83 0 0 1 0-.24v-1h-.15v1a.85.85 0 0 0 0 .23.64.64 0 0 0 .11.2.77.77 0 0 0 .2.13.78.78 0 0 0 .28 0 .84.84 0 0 0 .29 0 .7.7 0 0 0 .19-.13.49.49 0 0 0 .11-.2.59.59 0 0 0 0-.23v-1h-.16z" fill="#fff"/><path d="m184 176.43.94 1.35h.17v-1.6h-.15v1.36h-.01l-.94-1.36h-.17v1.6h.16z" fill="#fff"/><path d="m187 177.76.16-.06a.43.43 0 0 0 .1-.09l.06-.1a.3.3 0 0 0 0-.1.25.25 0 0 0 0-.08.4.4 0 0 0 -.09-.27.37.37 0 0 0 -.25-.12.22.22 0 0 0 .11-.05.36.36 0 0 0 .15-.19.5.5 0 0 0 0-.12.38.38 0 0 0 0-.19.34.34 0 0 0 -.12-.12.38.38 0 0 0 -.16-.06.65.65 0 0 0 -.2 0h-.67v1.6h.67a.79.79 0 0 0 .24-.05zm-.75-1.45h.52c.25 0 .37.1.37.3a.23.23 0 0 1 0 .11.16.16 0 0 1 -.06.08.23.23 0 0 1 -.12.06h-.16-.52zm0 .7h.52a.56.56 0 0 1 .32.08.27.27 0 0 1 .11.23.25.25 0 0 1 0 .16.24.24 0 0 1 -.09.11h-.13-.69z" fill="#fff"/><path d="m188.22 177.07h-.05-.08-.23l-.2.05a.38.38 0 0 0 -.14.11.27.27 0 0 0 -.05.19.33.33 0 0 0 0 .15.28.28 0 0 0 .08.11l.12.06h.15.15l.11-.05a.28.28 0 0 0 .09-.07l.08-.1a.19.19 0 0 0 0 .08.14.14 0 0 0 0 .07.1.1 0 0 0 .05 0h.18v-.12c-.06 0-.09 0-.09-.08v-.47a.38.38 0 0 0 0-.19.24.24 0 0 0 -.09-.11.42.42 0 0 0 -.14-.06h-.16-.19a.61.61 0 0 0 -.14.07.23.23 0 0 0 -.1.12.48.48 0 0 0 -.05.18h.15a.25.25 0 0 1 .09-.21.36.36 0 0 1 .22-.06h.12.09a.16.16 0 0 1 .07.07.37.37 0 0 1 0 .12.15.15 0 0 1 0 .07.1.1 0 0 1 -.04.07zm.05.08v.18a.41.41 0 0 1 0 .16.31.31 0 0 1 -.09.11.33.33 0 0 1 -.13.07.4.4 0 0 1 -.15 0h-.1-.08a.16.16 0 0 1 -.06-.08s0-.05 0-.09a.14.14 0 0 1 0-.13.23.23 0 0 1 .13-.07h.17.19.06a.09.09 0 0 0 .06 0z" fill="#fff"/><path d="m188.84 177.11a.78.78 0 0 1 0-.16.35.35 0 0 1 .08-.13.31.31 0 0 1 .11-.08.33.33 0 0 1 .15 0 .29.29 0 0 1 .14 0 .16.16 0 0 1 .09.07.22.22 0 0 1 0 .11.61.61 0 0 1 0 .14v.72h.15v-.78a1.11 1.11 0 0 0 0-.19.61.61 0 0 0 -.07-.14.34.34 0 0 0 -.14-.09.56.56 0 0 0 -.2 0 .46.46 0 0 0 -.23.06.38.38 0 0 0 -.14.17v-.2h-.15v1.16h.15z" fill="#fff"/><path d="m190.05 177.34.23-.19.45.63h.18l-.53-.73.5-.43h-.19l-.64.57v-1.01h-.15v1.6h.15z" fill="#fff"/><rect fill="#fff" height="1.87" rx=".37" width="4.12" x="159.04" y="180.08"/><path d="m174.51 182.7a3.28 3.28 0 0 0 -4.69-3 .38.38 0 0 0 -.37-.32h-1.13a.38.38 0 0 0 -.37.38v6.28a.37.37 0 0 0 .37.37h1.13a.37.37 0 0 0 .37-.37v-3.37a1.41 1.41 0 0 1 2.81 0v3.39a.37.37 0 0 0 .38.37h1.12a.37.37 0 0 0 .38-.37v-3.38z" fill="#fff"/><path d="m187.4 179.42a3.52 3.52 0 1 0 3.51 3.52 3.53 3.53 0 0 0 -3.51-3.52zm0 5.16a1.64 1.64 0 1 1 1.64-1.64 1.64 1.64 0 0 1 -1.64 1.64z" fill="#fff"/><rect fill="#fff" height="7.03" rx=".37" width="1.87" x="164.67" y="179.42"/><path d="m182.57 179.42h-1.13a.38.38 0 0 0 -.37.38v.33a3.51 3.51 0 1 0 0 5.62v1.64a1.71 1.71 0 0 1 -3.39.31.37.37 0 0 0 -.36-.31h-1.14a.37.37 0 0 0 -.37.42 3.58 3.58 0 0 0 7.13-.42v-7.59a.37.37 0 0 0 -.37-.38zm-3.57 5.16a1.64 1.64 0 1 1 1.64-1.64 1.65 1.65 0 0 1 -1.64 1.64z" fill="#fff"/><path d="m161.86 176.14h-5.25a.38.38 0 0 0 -.37.38v9.56a.37.37 0 0 0 .38.37h1.12a.37.37 0 0 0 .38-.37v-8.08h5.62a1.88 1.88 0 0 0 -1.88-1.86z" fill="#fff"/><circle cx="154.35" cy="185.48" fill="#fff" r=".94"/><path d="m165.94 176.37a.38.38 0 0 0 -.65 0l-.6 1a.38.38 0 0 0 .32.57h1.2a.38.38 0 0 0 .33-.57z" fill="#fff"/><path d="m148.28 178a4.22 4.22 0 1 0 3.53 6.49.38.38 0 0 0 -.32-.58h-1.49a.38.38 0 0 0 -.25.09 2.34 2.34 0 0 1 -3.75-1h6a.38.38 0 0 0 .38-.34c0-.15 0-.31 0-.47a4.24 4.24 0 0 0 -4.1-4.19zm-2.28 3.48a2.35 2.35 0 0 1 4.45 0z" fill="#fff"/><path d="m228.82 283.62h-1.28l-.23 2h1.14v.44h-1.14l-.22 1.85h-.44l.21-1.85h-1.53l-.21 1.85h-.44l.21-1.85h-1.28l.05-.44h1.29l.23-2h-1.18l.05-.44h1.15l.22-1.85h.44l-.21 1.85h1.53l.21-1.85h.44l-.21 1.85h1.27zm-3.25 0-.23 2h1.53l.23-2z" fill="#040000"/><path d="m230.79 283.91v4h-.47v-4h-1v-.43h1v-1a1 1 0 0 1 1.14-1.14h.77v.44h-.59a1 1 0 0 0 -.66.17.78.78 0 0 0 -.19.59v.94h1.44v.43z" fill="#040000"/><path d="m236.66 284.11a9.9 9.9 0 0 1 -1.11 1.15 5.17 5.17 0 0 0 -1.65 2.23h3.21v.43h-4a4.66 4.66 0 0 1 .76-1.59 8.86 8.86 0 0 1 1.3-1.38 7.15 7.15 0 0 0 1.06-1.09 1.63 1.63 0 0 0 .36-1 1 1 0 0 0 -.38-.82 1.78 1.78 0 0 0 -1.17-.36c-.88 0-1.38.54-1.5 1.6l-.47-.18a2.19 2.19 0 0 1 .62-1.35 1.86 1.86 0 0 1 1.35-.5 2.37 2.37 0 0 1 1.48.43 1.42 1.42 0 0 1 .56 1.18 2 2 0 0 1 -.42 1.25z" fill="#040000"/><path d="m241 284.7a11.52 11.52 0 0 0 -.33 3.21h-.51a10.69 10.69 0 0 1 .36-3.13 8 8 0 0 1 1.86-3h-4v-.44h4.49v.52a7.19 7.19 0 0 0 -1.87 2.84z" fill="#040000"/><path d="m244.16 285.68a2.34 2.34 0 0 0 .46 1.39 1.23 1.23 0 0 0 1 .49 1.58 1.58 0 0 0 1.4-.86l.44.22a2.08 2.08 0 0 1 -1.84 1.07 1.75 1.75 0 0 1 -1.45-.66 2.59 2.59 0 0 1 -.51-1.68 2.31 2.31 0 0 1 .6-1.69 1.87 1.87 0 0 1 1.39-.56 1.83 1.83 0 0 1 1.35.6 2.08 2.08 0 0 1 .56 1.52v.21zm2.38-1.48a1.26 1.26 0 0 0 -.87-.37c-.76 0-1.26.48-1.5 1.42h2.92a2.11 2.11 0 0 0 -.55-1.05z" fill="#040000"/><path d="m251 284.7a11.52 11.52 0 0 0 -.33 3.21h-.51a10.69 10.69 0 0 1 .36-3.13 8 8 0 0 1 1.86-3h-4v-.44h4.49v.52a7.19 7.19 0 0 0 -1.87 2.84z" fill="#040000"/><path d="m255.2 283.91v4h-.47v-4h-1v-.43h1v-1a1 1 0 0 1 1.14-1.14h.77v.44h-.59a1 1 0 0 0 -.66.17.78.78 0 0 0 -.19.59v.94h1.44v.43z" fill="#040000"/><path d="m141.34 154c-.3 1-.58 1.78-.86 2.47v6.53h-.48v-5.55a19.19 19.19 0 0 1 -1 1.8l-.35-.27a18.28 18.28 0 0 0 1.26-2.4 19.27 19.27 0 0 0 1-2.79zm6.56 1.33v.39h-6.75v-.39zm-.71 1.41v.39h-5.26v-.39zm0 1.56v.39h-5.26v-.39zm-.19 4.7h-.47v-.7h-3.95v.7h-.46v-3.2h4.88zm-.47-1.09v-1.72h-3.95v1.72zm-1.49-7-.39.27a5.55 5.55 0 0 0 -1-1.21l.35-.23a5.25 5.25 0 0 1 1.08 1.2z" fill="#040000"/><path d="m156.88 154.31v7.82c0 .46-.25.7-.74.7a6.65 6.65 0 0 1 -1.29-.16v-.5a5.4 5.4 0 0 0 1.33.19q.27 0 .27-.39v-2.38h-2.85v3h-.47v-3h-2.77q-.09.67-.24 1.32a9.78 9.78 0 0 1 -.85 2.19l-.39-.23a11 11 0 0 0 .86-2.31 12.21 12.21 0 0 0 .24-2.4v-3.85h6.94zm-3.79 4.81v-2.07h-2.68v1.09 1zm0-2.5v-1.88h-2.68v1.88zm.47 0h2.85v-1.88h-2.85zm0 2.5h2.85v-2.07h-2.85z" fill="#040000"/><path d="m163.05 153.84v1.57h3.83v.47h-3.83v1.6h4.81v.52h-4.81v.92a42.6 42.6 0 0 1 4.22 1.73l-.27.35a40.71 40.71 0 0 0 -3.95-1.59v3.59h-.51v-5h-3.78v-.47h3.78v-3.64z" fill="#040000"/><path d="m281.71 154.39v2.81h-1v1.88h1.17v.39h-1.17v2.15c.46-.16.9-.33 1.33-.51v.35a21.34 21.34 0 0 1 -3.64 1.29l-.11-.43.62-.16v-3.82h.43v3.66l.9-.28v-4.52h-1.24v-2.81zm-.43 2.42v-2h-1.88v2zm2.56-1.52a9.5 9.5 0 0 0 .52-1.48l.39.11a12.19 12.19 0 0 1 -.46 1.37h3v.39h-2a7.46 7.46 0 0 0 2.31 2.32l-.31.36a7.74 7.74 0 0 1 -2.4-2.7h-.78a7.28 7.28 0 0 1 -.51.88 8.3 8.3 0 0 1 -1.78 1.89l-.35-.31a7.54 7.54 0 0 0 1.81-1.85 7 7 0 0 0 .37-.61h-1.71v-.39zm3.22 3.28v.43h-3l-.58 1.13h3.06a6.12 6.12 0 0 1 -.51 2.49.92.92 0 0 1 -.74.29 8.35 8.35 0 0 1 -1.6-.2v-.43a9.61 9.61 0 0 0 1.6.2.46.46 0 0 0 .41-.21 5.21 5.21 0 0 0 .29-1.74h-3.16l.73-1.53h-1.46v-.39zm-1.21-1.4v.39h-2.66v-.39z" fill="#040000"/><path d="m297.41 157.91h-7.58v2.09a5.1 5.1 0 0 1 -.29 1.7 5.41 5.41 0 0 1 -.76 1.34l-.39-.23a4.5 4.5 0 0 0 1-2.91v-2.36h8.05zm-4-3.24h3.59v.39h-8.05v-.39h4a2.54 2.54 0 0 0 -.56-.51l.35-.28a2.49 2.49 0 0 1 .65.79zm-1.57 3.71a7.14 7.14 0 0 1 -.24.74h2v-1h.4v1h2.77v.43h-2.77v1.09h2.42v.43h-2.42v1.25h3.52v.43h-7.52v-.43h3.55v-1.25h-2.11v-.43h2.11v-1.09h-2.15a7.44 7.44 0 0 1 -1 1.56l-.35-.23a7.82 7.82 0 0 0 1.36-2.7zm1.52-2.33a11.77 11.77 0 0 0 1.88-.92l.39.24a9.6 9.6 0 0 1 -1.7.89c.66.26 1.3.52 1.9.79l-.35.39c-.7-.34-1.41-.65-2.15-.94l-.15.06a18.18 18.18 0 0 1 -2.74.8l-.12-.43a19.64 19.64 0 0 0 2.42-.65c-.68-.24-1.39-.47-2.11-.68l.28-.35c.83.25 1.65.52 2.43.8z" fill="#040000"/><path d="m302.33 163h-.47v-.7h-2.38v.7h-.48v-4.45h3.32zm-.47-1.13v-2.87h-2.38v2.89zm3.56-7.54v3.24h-4.89v-3.24zm-.47 2.82v-2.39h-3.95v2.39zm1.91 5.85h-.47v-.7h-2.5v.7h-.47v-4.45h3.44zm-.47-1.13v-2.87h-2.5v2.89z" fill="#040000"/><path d="m315.57 157.94a6.63 6.63 0 0 1 -.74 2.5 8.23 8.23 0 0 0 1.22.77l-.23.4a7.31 7.31 0 0 1 -1.28-.75 3.15 3.15 0 0 1 -2.41 1.16 2.55 2.55 0 0 1 -1.69-.52 1.84 1.84 0 0 1 -.66-1.51 1.79 1.79 0 0 1 .46-1.17 5.51 5.51 0 0 1 1.17-1 3.6 3.6 0 0 1 -.78-1.77 1.38 1.38 0 0 1 .48-1.12 1.84 1.84 0 0 1 1.19-.37 1.43 1.43 0 0 1 1 2.47 6.33 6.33 0 0 1 -1.19.92 17.23 17.23 0 0 0 2.33 2.18 6.65 6.65 0 0 0 .64-2.21h-1v-.42h2.11v.42zm-3.87.28c-.95.59-1.42 1.18-1.42 1.77a1.46 1.46 0 0 0 .46 1.14 1.89 1.89 0 0 0 1.39.47 2.8 2.8 0 0 0 2-1 16.06 16.06 0 0 1 -2.43-2.38zm.54-3.22a1 1 0 0 0 -1.11 1.07 3.07 3.07 0 0 0 .69 1.52 6.19 6.19 0 0 0 1-.73 1.17 1.17 0 0 0 .42-.83.9.9 0 0 0 -1-1.03z" fill="#040000"/><path d="m322.92 154a6.42 6.42 0 0 1 -.64.94h3.1v.43a6.65 6.65 0 0 1 -2.35 2.45 15.39 15.39 0 0 1 -4.1 1.77l-.19-.47a16.89 16.89 0 0 0 3.51-1.38 6.55 6.55 0 0 0 -1.21-1.2l.39-.27a6.39 6.39 0 0 1 1.27 1.21l.23-.15a5.54 5.54 0 0 0 1.86-2h-2.88a5.71 5.71 0 0 1 -.66.58 8.75 8.75 0 0 1 -2.28 1.22l-.23-.43a8.49 8.49 0 0 0 2.17-1.14 6 6 0 0 0 1.54-1.79zm2 3.21a8.68 8.68 0 0 1 -.7 1h3v.43a7.49 7.49 0 0 1 -2.87 2.61 21 21 0 0 1 -5 1.88l-.19-.47a22.37 22.37 0 0 0 4.44-1.52 7 7 0 0 0 -1-1.09l.39-.28a7.29 7.29 0 0 1 1 1.13 1.82 1.82 0 0 0 .27-.15 6.3 6.3 0 0 0 2.31-2.11h-2.82a6.1 6.1 0 0 1 -.93.79 11.1 11.1 0 0 1 -2.76 1.36l-.23-.43a10.73 10.73 0 0 0 2.65-1.28 7.29 7.29 0 0 0 1.88-2z" fill="#040000"/><path d="m331.35 154.43v2.7h-1.79l-.39 1.75h2.07a9.87 9.87 0 0 1 -.69 3.53.8.8 0 0 1 -.72.42 5.91 5.91 0 0 1 -1.21-.12v-.51a5.7 5.7 0 0 0 1.25.2c.2 0 .35-.15.46-.43a10.67 10.67 0 0 0 .44-2.7h-2.07l.55-2.53h1.71v-1.92h-2.14v-.39zm5.59.2h-4v1h3.59v.37h-3.59v1.06h3.63v.39h-3.63v1.09h4.57v.39h-3a6.08 6.08 0 0 0 .74 1.67 4.77 4.77 0 0 0 .73-.42 4.72 4.72 0 0 0 .82-.66l.36.27a6.24 6.24 0 0 1 -.88.75 4.62 4.62 0 0 1 -.75.45.62.62 0 0 0 .09.12 4.87 4.87 0 0 0 2 1.46l-.23.46a5.25 5.25 0 0 1 -2.05-1.54 7.08 7.08 0 0 1 -1.29-2.56h-1.25v3.14c.62-.2 1.21-.41 1.76-.64v.35a19.68 19.68 0 0 1 -3.25 1.18l-.11-.43c.39-.1.77-.21 1.13-.32v-3.28h-1v-.39h1.1v-4.29h4.45z" fill="#040000"/><path d="m341.08 156.23a10.61 10.61 0 0 1 -1.58 2.42h1.62a9.17 9.17 0 0 1 -.89 2.47 6 6 0 0 0 1.84.84 12.51 12.51 0 0 0 3.13.28c1 0 1.79 0 2.4-.07l-.07.42c-.62 0-1.4.08-2.33.08a12.42 12.42 0 0 1 -3.27-.3 7.72 7.72 0 0 1 -1.9-.9 5.43 5.43 0 0 1 -1.41 1.55l-.23-.35a5.48 5.48 0 0 0 1.35-1.56 8 8 0 0 0 .83-2.07h-1.42l-.3.31-.31-.19a11.55 11.55 0 0 0 1.92-2.54h-2v-.39zm-.7-.67-.39.28a7.12 7.12 0 0 0 -1-1.64l.35-.24a7.77 7.77 0 0 1 1.04 1.6zm3.63-.78v-1h.43v1h2.73v.39h-2.73v.83h2.27v3.24h-2.27v.86h3v.39h-3v1.51h-.44v-1.45h-2.85v-.39h2.85v-.86h-2.1v-3.3h2.1v-.86h-2.69v-.39zm0 2.66v-1h-1.68v1zm0 1.44v-1h-1.68v1zm.43-1.44h1.84v-1h-1.84zm0 1.44h1.84v-1h-1.84z" fill="#040000"/><path d="m349.44 160.25a16.93 16.93 0 0 1 -.66 2.66l-.39-.2a16 16 0 0 0 .62-2.58zm1.13-6.17a9.41 9.41 0 0 1 -.59 1.45 9.71 9.71 0 0 1 -.6 1.09c.44 0 .88-.05 1.32-.1.18-.35.35-.69.5-1l.43.15a12.68 12.68 0 0 1 -1.06 2 10.42 10.42 0 0 1 -1.1 1.47 16.41 16.41 0 0 0 1.75-.21 7.68 7.68 0 0 0 -.45-.86l.31-.2a11 11 0 0 1 .94 2l-.39.16c-.08-.24-.16-.46-.25-.68a23.08 23.08 0 0 1 -2.68.33l-.12-.43h.34a13.27 13.27 0 0 0 1.24-1.66l.33-.54a18.3 18.3 0 0 1 -1.83.15l-.12-.39h.39a10.84 10.84 0 0 0 .7-1.25 11.7 11.7 0 0 0 .59-1.48zm-.11 8.44h-.39a21 21 0 0 0 -.12-2.39h.35a18.56 18.56 0 0 1 .16 2.39zm1.48-.59-.39.12a8 8 0 0 0 -.63-1.92l.36-.15a9.31 9.31 0 0 1 .66 1.95zm2.23.16a15.18 15.18 0 0 1 -2.62.9l-.2-.36a13.71 13.71 0 0 0 2.58-.86zm.11-7.62v-.66h.43v.66h2.82v.35h-2.82v.63h2.29v.35h-4.81v-.35h2.11v-.63h-2.65v-.35zm2.93 1.84v1.56h-5.31v-1.56zm-3.71 1.21v-.86h-1.21v.86zm3.21.86v3.28h-4.34v-3.28zm-.39 1v-.62h-3.56v.62zm0 .94v-.59h-3.56v.59zm0 1v-.67h-3.56v.67zm-2.43-3.79h1.21v-.86h-1.21zm3.75 5.11-.27.36a17.25 17.25 0 0 0 -2.5-.9l.23-.32a18.4 18.4 0 0 1 2.54.85zm-2.14-5.11h1.32v-.86h-1.32z" fill="#040000"/><path d="m367 163h-.43v-.58h-7.17v.58h-.4v-8.86h8zm-.43-1v-7.5h-7.17v7.5zm-1.6-6.92v1.64h-1.76v.55h3.12v.39h-6.71v-.39h3.16v-.55h-1.78v-1.64zm.54 3.13v3.2h-5.11v-3.2zm-.43 2.81v-2.42h-4.25v2.42zm-.54-4.69v-.86h-3.13v.86zm-.43 2.7v1.44h-2.31v-1.44zm-.39 1.09v-.74h-1.53v.74z" fill="#040000"/><path d="m377.37 155.72v.47h-1.85a7.94 7.94 0 0 1 -1.11 2.73 9.28 9.28 0 0 1 -1 1.23 6.86 6.86 0 0 0 .84.67 13.18 13.18 0 0 0 3.37 1.7l-.31.5a13.37 13.37 0 0 1 -3.47-1.82 6 6 0 0 1 -.81-.67 10.4 10.4 0 0 1 -1.05.86 12.17 12.17 0 0 1 -3.34 1.6l-.27-.43a11.32 11.32 0 0 0 3.21-1.5 9.4 9.4 0 0 0 1.09-.89 7.06 7.06 0 0 1 -.94-1.18 9 9 0 0 1 -1.19-2.8h-1.94v-.47zm-5.15 3.05a7.55 7.55 0 0 0 .84 1 8.77 8.77 0 0 0 .85-1.06 7.53 7.53 0 0 0 1.07-2.55h-3.91a8.25 8.25 0 0 0 1.15 2.61zm1.28-3.48-.43.31a6.29 6.29 0 0 0 -1.05-1.44l.39-.28a7 7 0 0 1 1.09 1.41z" fill="#040000"/><path d="m3.24.35a12.72 12.72 0 0 1 -.57 1.65h2.83a11.26 11.26 0 0 1 -1.61 4.77 6.92 6.92 0 0 1 -3.07 2.48l-.2-.42a6.06 6.06 0 0 0 2.86-2.36l.23-.36a10.41 10.41 0 0 0 -1.71-1.7l.27-.35a11.78 11.78 0 0 1 1.73 1.57 11.59 11.59 0 0 0 .92-3.13h-2.46l-.3.6a9.38 9.38 0 0 1 -1.46 2.13l-.35-.35a12 12 0 0 0 1.48-2.21 13.13 13.13 0 0 0 .94-2.48zm3.67-.12v2.88a26.13 26.13 0 0 1 2.66 2.32l-.32.43a20.7 20.7 0 0 0 -2.34-2.13v5.6h-.47v-9.1z" fill="#040000"/><path d="m19.41 1.05h-7.89v7.31h8v.43h-8v.57h-.47v-8.74h8.36zm-6 3.09-.27.35a9.43 9.43 0 0 0 -1.37-1.13l.23-.31a7.41 7.41 0 0 1 1.43 1.09zm.08 1.33a11.45 11.45 0 0 1 -1.31 2.73l-.39-.27a9.82 9.82 0 0 0 1.37-2.7zm.35-3.09-.27.35a9.09 9.09 0 0 0 -1.37-1.09l.24-.31a7.64 7.64 0 0 1 1.42 1.05zm1.49-1c-.18.52-.35 1-.51 1.37h4.28v.39h-2v1h1.75v.39h-1.78v1h1.75v.39h-1.75v1.08h2.22v.39h-4.45v.74h-.43v-4.48a14.29 14.29 0 0 1 -.74 1.23l-.32-.23a11.09 11.09 0 0 0 .89-1.57 11.07 11.07 0 0 0 .68-1.83zm1.29 1.79h-1.8v1h1.8zm0 1.37h-1.8v1h1.8zm0 2.5v-1.1h-1.8v1.06zm.78-4.65-.4.27a5.74 5.74 0 0 0 -.78-1.18l.35-.23a5.72 5.72 0 0 1 .85 1.13z" fill="#040000"/><path d="m142 .23a7.67 7.67 0 0 1 -1.13 1.46v1.83h-.43v-1.42a11.72 11.72 0 0 1 -1.44 1.18l-.27-.35a11.81 11.81 0 0 0 1.73-1.4 8.86 8.86 0 0 0 1.27-1.53zm.62 8a15.38 15.38 0 0 1 -3.31 1.12l-.12-.35a15.6 15.6 0 0 0 3.2-1zm3.59-4.53v4h-5.77v-4zm-.38 1.3v-.86h-4.92v.86zm0 1.17v-.82h-4.92v.82zm0 1.17v-.82h-4.92v.82zm1.83-5.78-3.14.37s0 .05 0 .05a4.48 4.48 0 0 0 1.5 1.15 2.57 2.57 0 0 0 1.09.31q.12 0 .18-.18a3.57 3.57 0 0 0 .17-1.07l.43.15a3 3 0 0 1 -.3 1.29.6.6 0 0 1 -.48.24 2.83 2.83 0 0 1 -1.24-.34 4.8 4.8 0 0 1 -1.68-1.31 1.3 1.3 0 0 1 -.18-.23l-2.36.28v-.4l2.15-.25a4.59 4.59 0 0 1 -.52-1.43h.43a3.34 3.34 0 0 0 .53 1.38l3.37-.4zm-.16 7.37-.19.47a23.44 23.44 0 0 0 -3.28-1l.19-.35a31.08 31.08 0 0 1 3.28.88zm-1.17-8-.27.35a7.6 7.6 0 0 0 -1.25-.74l.19-.35a7.25 7.25 0 0 1 1.33.71z" fill="#040000"/><path d="m150.33 6.37a10.47 10.47 0 0 1 -1.25 2.11l-.35-.28a7.52 7.52 0 0 0 1.25-2zm.74-5v-1.21h.43v1.17h2.18v.39h-2.18v1.09h1.79v.39h-4v-.39h1.8v-1.09h-2.19v-.39zm2.49 4v.33h-2.1v2.62c0 .53-.24.81-.7.81a2 2 0 0 1 -.82-.16v-.43a2.05 2.05 0 0 0 .86.21c.2 0 .31-.17.31-.47v-2.58h-2.19v-.39zm-.51-1.37v.39h-3.62v-.39zm.16 3.48-.39.27a7.22 7.22 0 0 0 -.74-1.36l.35-.24a7.26 7.26 0 0 1 .78 1.35zm2.34-4.3c0 .36 0 .71-.07 1a9.48 9.48 0 0 0 .84 2.82 6 6 0 0 0 1.61 2l-.31.39a6.07 6.07 0 0 1 -1.55-1.91 8.42 8.42 0 0 1 -.76-2.24 8.57 8.57 0 0 1 -.59 1.76 5.92 5.92 0 0 1 -2.25 2.44l-.2-.39a5.7 5.7 0 0 0 2-2.31 8.82 8.82 0 0 0 .76-3.5zm-.55-2.87a11.13 11.13 0 0 1 -.33 1.8h3.06a7.38 7.38 0 0 1 -.73 2.11l-.47-.22a5.13 5.13 0 0 0 .58-1.48h-2.59a8.18 8.18 0 0 1 -.8 1.68l-.32-.27a7.21 7.21 0 0 0 .78-1.67 9.54 9.54 0 0 0 .4-2z" fill="#040000"/><path d="m280.19 6.37c.08-.19.16-.39.23-.59l.43.12c-.06.17-.11.33-.17.47h3.37v.39h-1.19a3.49 3.49 0 0 1 -.73 1.24c.41.15.83.31 1.26.5l-.2.41c-.5-.22-1-.43-1.44-.58a5.79 5.79 0 0 1 -3.21 1l-.12-.4a5.53 5.53 0 0 0 2.84-.75c-.46-.15-.9-.28-1.33-.38-.12.18-.24.36-.37.52l-.35-.32a7.16 7.16 0 0 0 .8-1.25h-1.62v-.38zm.89-5.55v-.66h.43v.66h1.91v1.18h.79v.39h-.79v1.1h-1.91v.61h2v1.56h-4.45v-1.56h2v-.66h-1.83v-1.1h-.83v-.34h.83v-1.18zm0 4.45v-.78h-1.6v.78zm0-3.32v-.74h-1.41v.79zm0 1.1v-.71h-1.41v.71zm1.3 3.71h-1.87c-.12.24-.23.47-.35.67.5.12 1 .26 1.52.43a3 3 0 0 0 .7-1.1zm-.87-4.76h1.49v-.79h-1.49zm0 1.1h1.49v-.76h-1.49zm0 2.22h1.56v-.83h-1.56zm3.83-4.97a19.45 19.45 0 0 1 -.44 2.07h2.47v.39h-.49a11.31 11.31 0 0 1 -.94 3.87l-.13.24a7 7 0 0 0 1.68 2.08l-.32.39a7.7 7.7 0 0 1 -1.62-2 6.23 6.23 0 0 1 -2 2l-.28-.39a5.78 5.78 0 0 0 2-2.1 13.17 13.17 0 0 1 -.86-2.93c-.16.45-.32.86-.48 1.22l-.35-.32a15.15 15.15 0 0 0 .78-2.23 16.73 16.73 0 0 0 .51-2.38zm.22 6.06a11 11 0 0 0 .85-3.6h-1.62a.26.26 0 0 0 0 .11l-.09.3a12.78 12.78 0 0 0 .86 3.19z" fill="#040000"/><path d="m291.28.35a23.78 23.78 0 0 1 -1 2.34v6.64h-.47v-5.77a16.33 16.33 0 0 1 -1.13 1.71l-.33-.27a16.13 16.13 0 0 0 1.39-2.22 15.45 15.45 0 0 0 1.07-2.59zm6.32 8.09v.47h-6.79v-.47zm-.27-6v.43h-6.25v-.45zm-3.79 5.2-.47.19a26.17 26.17 0 0 0 -1-3.83l.35-.23a29.06 29.06 0 0 1 1.12 3.85zm1.29-5.71-.43.32a7.28 7.28 0 0 0 -1.17-1.74l.39-.28a8 8 0 0 1 1.21 1.68zm1.49 1.92a22.18 22.18 0 0 1 -1.1 3.94l-.43-.23a23.48 23.48 0 0 0 1.06-3.87z" fill="#040000"/><path d="m301.9 4.88h.94v-4.29h4.1v.41h-3.67v1h3.24v.39h-3.24v1.01h3.28v.39h-3.28v1.09h4.22v.39h-2.84a6 6 0 0 0 .67 1.67 5.74 5.74 0 0 0 .69-.43 4.76 4.76 0 0 0 .77-.69l.36.27a5.71 5.71 0 0 1 -.83.77c-.28.2-.52.37-.73.49a.58.58 0 0 0 .11.15 4.48 4.48 0 0 0 1.88 1.5l-.24.43a5 5 0 0 1 -1.9-1.55 7.36 7.36 0 0 1 -1.21-2.58h-1.15v3.12a13.82 13.82 0 0 0 1.76-.65v.39a31.29 31.29 0 0 1 -3.2 1.09l-.2-.38c.42-.11.81-.21 1.17-.32v-3.28h-.74v1.14c0 .47-.2.7-.58.7a3.74 3.74 0 0 1 -.55 0v-.47a2 2 0 0 0 .55.08q.15 0 .15-.39v-3.75h-.9v6.78h-.43v-6.78h-.82v4.65h-.43v-5h1.25v-1.88h.43v1.84h1.33z" fill="#040000"/><path d="m310.14 5.74a5.22 5.22 0 0 1 -.36 1.91 5.5 5.5 0 0 1 -1.08 1.68l-.35-.33a5 5 0 0 0 1-1.46 4.71 4.71 0 0 0 .36-1.81v-4.6a25.05 25.05 0 0 0 6.65-.94l.27.43a26.18 26.18 0 0 1 -6.45.93v1.22h6.33v2.82h-6.33zm0-.58h5.86v-2h-5.82z" fill="#040000"/><path d="m325.57 4.29a6.63 6.63 0 0 1 -.74 2.5 8.23 8.23 0 0 0 1.22.77l-.23.4a7.31 7.31 0 0 1 -1.28-.75 3.15 3.15 0 0 1 -2.41 1.16 2.55 2.55 0 0 1 -1.69-.52 1.84 1.84 0 0 1 -.66-1.51 1.79 1.79 0 0 1 .46-1.17 5.51 5.51 0 0 1 1.17-1 3.6 3.6 0 0 1 -.78-1.77 1.38 1.38 0 0 1 .48-1.12 1.84 1.84 0 0 1 1.19-.35 1.47 1.47 0 0 1 1 .4 1.46 1.46 0 0 1 .4 1 1.48 1.48 0 0 1 -.45 1 6.33 6.33 0 0 1 -1.19.92 17.23 17.23 0 0 0 2.33 2.18 6.65 6.65 0 0 0 .64-2.21h-1v-.35h2.11v.42zm-3.87.28c-.95.59-1.42 1.18-1.42 1.77a1.46 1.46 0 0 0 .46 1.14 1.89 1.89 0 0 0 1.39.47 2.8 2.8 0 0 0 2-1 16.06 16.06 0 0 1 -2.43-2.38zm.54-3.22a1 1 0 0 0 -1.11 1.07 3.07 3.07 0 0 0 .69 1.52 6.19 6.19 0 0 0 1-.73 1.17 1.17 0 0 0 .42-.83.9.9 0 0 0 -1-1.03z" fill="#040000"/><path d="m331.63 2.58a9.62 9.62 0 0 1 -1.13 1.57v5.21h-.5v-4.72a15.59 15.59 0 0 1 -1.41 1.22l-.27-.39a11.73 11.73 0 0 0 1.68-1.47 8.83 8.83 0 0 0 1.24-1.66zm-.28-2.15a7.22 7.22 0 0 1 -1.13 1.38 11.4 11.4 0 0 1 -1.56 1.24l-.27-.39a9.37 9.37 0 0 0 1.5-1.2 7.47 7.47 0 0 0 1.11-1.3zm6.18 2.81v.43h-2v4.57c0 .64-.3 1-.89 1a5.42 5.42 0 0 1 -1.37-.16v-.51a5.17 5.17 0 0 0 1.41.21c.28 0 .43-.2.43-.55v-4.56h-3.29v-.43zm-.53-2.54v.43h-4.61v-.43z" fill="#040000"/><path d="m343.39.66c-.64.16-1.31.29-2 .41v.84h2.5v.39h-2.5v.7h2v2.94h-2v.78h2.11v.39h-2.11v.89c.82-.09 1.56-.21 2.23-.35v.39c-1.55.3-3.27.54-5.16.75l-.08-.43c.91-.08 1.76-.19 2.54-.29v-1h-2.3v-.35h2.38v-.78h-2v-2.94h2v-.7h-2.5v-.39h2.5v-.77c-.68.12-1.39.22-2.11.3l-.19-.39a38.9 38.9 0 0 0 4.49-.74zm-2.39 3.6v-.86h-1.52v.86zm0 1.29v-.9h-1.52v.9zm.43-1.29h1.53v-.86h-1.53zm0 1.29h1.53v-.9h-1.53zm3.75-2.89v-2.47h.47v2.47h1.64a37.55 37.55 0 0 1 -.37 5.34 1.46 1.46 0 0 1 -.38.84 1 1 0 0 1 -.65.22 4.58 4.58 0 0 1 -1.18-.18v-.43a5.35 5.35 0 0 0 1.22.18.44.44 0 0 0 .37-.16 1.76 1.76 0 0 0 .25-.76c.16-1.43.25-3 .27-4.61h-1.22a11.57 11.57 0 0 1 -.66 4 5.77 5.77 0 0 1 -1.71 2.32l-.23-.42a5.44 5.44 0 0 0 1.57-2.23 11.42 11.42 0 0 0 .6-3.73h-1.47v-.38z" fill="#040000"/><path d="m351 .35c-.08.2-.17.38-.25.54a9.59 9.59 0 0 1 1.54 1.45l-.27.35a10.35 10.35 0 0 0 -1.45-1.44 9.87 9.87 0 0 1 -1.1 1.75h2.47v.39h-1.17v1.3h1.52v.39h-1.52v2.92c.58-.12 1.12-.26 1.64-.41v.39a31.3 31.3 0 0 1 -3.79.94l-.16-.47c.64-.11 1.26-.22 1.84-.36v-3h-1.6v-.4h1.64v-1.33h-1v-.2a8.05 8.05 0 0 1 -.62.67l-.31-.28a10.15 10.15 0 0 0 2.24-3.32zm-1.13 7.15-.43.16a9.55 9.55 0 0 0 -.59-1.76l.32-.24a12.8 12.8 0 0 1 .7 1.84zm2.38-1.72a5.31 5.31 0 0 1 -.74 1.8l-.35-.24a5.89 5.89 0 0 0 .7-1.75zm4.34-.86h-1.8a7.79 7.79 0 0 0 .55 1.65 5.85 5.85 0 0 0 1.56-1.26l.24.31a7 7 0 0 1 -1.62 1.38 4.23 4.23 0 0 0 .25.42 4.38 4.38 0 0 0 1.76 1.58l-.24.43a4.81 4.81 0 0 1 -1.79-1.67 8.55 8.55 0 0 1 -1.13-2.81h-1v3.38a10.11 10.11 0 0 0 1.63-.83l.07.47a21.35 21.35 0 0 1 -2.85 1.32l-.22-.46.9-.33v-7.64h3.67zm-.43-2.26v-1.41h-2.81v1.41zm0 1.87v-1.48h-2.81v1.48z" fill="#040000"/><path d="m361.63 2.58a9.62 9.62 0 0 1 -1.13 1.57v5.21h-.5v-4.72a15.59 15.59 0 0 1 -1.41 1.22l-.27-.39a11.73 11.73 0 0 0 1.68-1.47 8.83 8.83 0 0 0 1.24-1.66zm-.28-2.15a7.22 7.22 0 0 1 -1.13 1.38 11.4 11.4 0 0 1 -1.56 1.24l-.27-.39a9.37 9.37 0 0 0 1.5-1.2 7.47 7.47 0 0 0 1.11-1.3zm6.18 2.81v.43h-2v4.57c0 .64-.3 1-.89 1a5.42 5.42 0 0 1 -1.37-.16v-.51a5.17 5.17 0 0 0 1.41.21c.28 0 .43-.2.43-.55v-4.56h-3.29v-.43zm-.53-2.54v.43h-4.61v-.43z" fill="#040000"/><path d="m0 168.91h126.36v126.36h-126.36z" fill="#ffae33"/><path d="m37.74 177.56a.38.38 0 0 0 .16.19.56.56 0 0 0 .26.07.59.59 0 0 0 .23 0 .54.54 0 0 0 .16-.14.85.85 0 0 0 .1-.19.93.93 0 0 0 0-.24.85.85 0 0 0 0-.23.93.93 0 0 0 -.1-.2.51.51 0 0 0 -.16-.13.59.59 0 0 0 -.23 0 .27.27 0 0 0 -.13 0h-.12a.73.73 0 0 0 -.09.08l-.07.11v-.66h-.14v1.6h.13zm0-.54a.41.41 0 0 1 .07-.15.3.3 0 0 1 .13-.12.36.36 0 0 1 .19 0 .33.33 0 0 1 .17 0 .34.34 0 0 1 .12.12.39.39 0 0 1 .06.15.55.55 0 0 1 0 .36.44.44 0 0 1 -.06.16.25.25 0 0 1 -.12.11.34.34 0 0 1 -.17 0 .36.36 0 0 1 -.19 0 .24.24 0 0 1 -.13-.11.46.46 0 0 1 -.07-.16.82.82 0 0 1 0-.36z" fill="#fff"/><path d="m39.18 177.91v.07a.15.15 0 0 1 0 .06h-.18v.12h.22a.2.2 0 0 0 .08 0l.06-.08s0-.07.06-.12l.5-1.34h-.14l-.36 1-.38-1h-.15l.46 1.16z" fill="#fff"/><path d="m41.71 177.65h-.97v-.63h.9v-.13h-.9v-.58h.96v-.13h-1.11v1.6h1.12z" fill="#fff"/><path d="m41.98 177.55h.19v.24h-.19z" fill="#fff"/><path d="m43.42 177.61a.35.35 0 0 1 -.14.06h-.13-.21l-.17-.07a.53.53 0 0 1 -.11-.14.4.4 0 0 1 0-.2h-.15a.66.66 0 0 0 0 .25.37.37 0 0 0 .13.17.51.51 0 0 0 .21.1 1.09 1.09 0 0 0 .26 0 .78.78 0 0 0 .24 0 .54.54 0 0 0 .17-.07.35.35 0 0 0 .11-.09.37.37 0 0 0 .06-.1.22.22 0 0 0 0-.1s0-.05 0-.07a.43.43 0 0 0 0-.17.27.27 0 0 0 -.09-.12.57.57 0 0 0 -.13-.08l-.16-.05-.39-.1h-.1a.18.18 0 0 1 -.07-.05.2.2 0 0 1 -.06-.07.3.3 0 0 1 0-.1.33.33 0 0 1 0-.15.2.2 0 0 1 .09-.09.26.26 0 0 1 .13-.06h.15a.45.45 0 0 1 .16 0 .37.37 0 0 1 .14.07.31.31 0 0 1 .09.11.43.43 0 0 1 .05.16h.15a.46.46 0 0 0 -.05-.21.34.34 0 0 0 -.13-.16.56.56 0 0 0 -.19-.09.57.57 0 0 0 -.22 0 .7.7 0 0 0 -.28.05.43.43 0 0 0 -.17.12.6.6 0 0 0 -.09.15.78.78 0 0 0 0 .14.41.41 0 0 0 0 .16.44.44 0 0 0 .08.11.35.35 0 0 0 .12.07h.13l.36.09h.12.1a.2.2 0 0 1 .08.08.27.27 0 0 1 0 .12.24.24 0 0 1 0 .15.27.27 0 0 1 -.09.18z" fill="#fff"/><path d="m45.05 177.17a.83.83 0 0 1 0 .24.44.44 0 0 1 -.1.16.42.42 0 0 1 -.14.09.64.64 0 0 1 -.2 0 .6.6 0 0 1 -.2 0 .38.38 0 0 1 -.15-.09.42.42 0 0 1 -.09-.16.83.83 0 0 1 0-.24v-1h-.17v1a.59.59 0 0 0 0 .23.49.49 0 0 0 .11.2.7.7 0 0 0 .19.13.79.79 0 0 0 .29 0 .78.78 0 0 0 .28 0 .77.77 0 0 0 .2-.13.64.64 0 0 0 .11-.2.85.85 0 0 0 0-.23v-1h-.15z" fill="#fff"/><path d="m45.66 176.43.94 1.35h.17v-1.6h-.15v1.36h-.01l-.93-1.36h-.17v1.6h.15z" fill="#fff"/><path d="m48.62 177.76.16-.06s.08 0 .1-.09a.21.21 0 0 0 .06-.1v-.1-.08a.4.4 0 0 0 -.09-.27.35.35 0 0 0 -.25-.12.26.26 0 0 0 .12-.05.3.3 0 0 0 .08-.08.24.24 0 0 0 .06-.11.25.25 0 0 0 0-.12.38.38 0 0 0 0-.19.43.43 0 0 0 -.11-.12.49.49 0 0 0 -.17-.06.62.62 0 0 0 -.19 0h-.68v1.6h.68a.75.75 0 0 0 .23-.05zm-.75-1.45h.53q.36 0 .36.3a.43.43 0 0 1 0 .11.27.27 0 0 1 -.07.08.24.24 0 0 1 -.11.06h-.16-.53zm0 .7h.53a.54.54 0 0 1 .31.08.27.27 0 0 1 .11.23.35.35 0 0 1 0 .16.36.36 0 0 1 -.1.11h-.13-.69z" fill="#fff"/><path d="m49.89 177.07h-.06-.08-.22a.83.83 0 0 0 -.2.05.42.42 0 0 0 -.15.11.39.39 0 0 0 0 .34.44.44 0 0 0 .08.11l.13.06h.15.14a.43.43 0 0 0 .12-.05.18.18 0 0 0 .08-.07l.08-.1s0 .06 0 .08a.14.14 0 0 0 0 .07h.05.18v-.12c-.06 0-.08 0-.08-.08v-.47a.53.53 0 0 0 0-.19.36.36 0 0 0 -.1-.11.35.35 0 0 0 -.14-.06h-.15-.19l-.14.07a.29.29 0 0 0 -.1.12.48.48 0 0 0 0 .18h.14a.25.25 0 0 1 .09-.21.38.38 0 0 1 .22-.06h.12a.25.25 0 0 1 .09 0 .16.16 0 0 1 .07.07.22.22 0 0 1 0 .12.15.15 0 0 1 0 .07zm0 .08v.18a.41.41 0 0 1 0 .16.31.31 0 0 1 -.09.11.27.27 0 0 1 -.13.07.4.4 0 0 1 -.15 0h-.1a.2.2 0 0 1 -.08 0 .24.24 0 0 1 -.06-.08.2.2 0 0 1 0-.09.17.17 0 0 1 0-.13.27.27 0 0 1 .13-.07h.17.19.07a.1.1 0 0 0 0 0z" fill="#fff"/><path d="m50.5 177.11a.41.41 0 0 1 0-.16.33.33 0 0 1 .07-.13l.11-.08a.4.4 0 0 1 .15 0 .33.33 0 0 1 .15 0 .28.28 0 0 1 .09.07.36.36 0 0 1 0 .11.59.59 0 0 1 0 .14v.72h.14v-.78a1.11 1.11 0 0 0 0-.19.37.37 0 0 0 -.07-.14.3.3 0 0 0 -.13-.09.66.66 0 0 0 -.21 0 .43.43 0 0 0 -.22.06.4.4 0 0 0 -.15.17v-.2h-.14v1.16h.14z" fill="#fff"/><path d="m51.71 177.34.23-.19.46.63h.18l-.53-.73.49-.43h-.19l-.64.57v-1.01h-.14v1.6h.14z" fill="#fff"/><rect fill="#fff" height="1.87" rx=".37" width="4.12" x="20.71" y="180.08"/><path d="m36.17 182.7a3.28 3.28 0 0 0 -3.28-3.28 3.35 3.35 0 0 0 -1.41.32.38.38 0 0 0 -.37-.32h-1.11a.38.38 0 0 0 -.38.38v6.28a.37.37 0 0 0 .38.37h1.12a.37.37 0 0 0 .38-.37v-3.37a1.41 1.41 0 0 1 2.81 0v3.39a.37.37 0 0 0 .37.37h1.12a.37.37 0 0 0 .37-.37v-3.38z" fill="#fff"/><path d="m49.06 179.42a3.52 3.52 0 1 0 3.51 3.52 3.53 3.53 0 0 0 -3.51-3.52zm0 5.16a1.64 1.64 0 1 1 1.64-1.64 1.65 1.65 0 0 1 -1.64 1.64z" fill="#fff"/><rect fill="#fff" height="7.03" rx=".37" width="1.87" x="26.33" y="179.42"/><path d="m44.23 179.42h-1.12a.38.38 0 0 0 -.38.38v.33a3.51 3.51 0 1 0 0 5.62v1.64a1.7 1.7 0 0 1 -3.38.31.38.38 0 0 0 -.37-.31h-1.14a.38.38 0 0 0 -.37.42 3.58 3.58 0 0 0 7.14-.42v-7.59a.38.38 0 0 0 -.38-.38zm-3.61 5.16a1.64 1.64 0 1 1 1.64-1.64 1.65 1.65 0 0 1 -1.64 1.64z" fill="#fff"/><path d="m23.52 176.14h-5.24a.38.38 0 0 0 -.38.38v9.56a.37.37 0 0 0 .38.37h1.12a.37.37 0 0 0 .38-.37v-8.08h5.62a1.88 1.88 0 0 0 -1.88-1.86z" fill="#fff"/><circle cx="16.01" cy="185.48" fill="#fff" r=".94"/><path d="m27.6 176.37a.38.38 0 0 0 -.65 0l-.6 1a.38.38 0 0 0 .33.57h1.19a.38.38 0 0 0 .33-.57z" fill="#fff"/><path d="m9.94 178a4.22 4.22 0 1 0 3.53 6.49.38.38 0 0 0 -.31-.58h-1.48a.34.34 0 0 0 -.24.09 2.39 2.39 0 0 1 -1.53.57 2.34 2.34 0 0 1 -2.22-1.57h6.05a.38.38 0 0 0 .37-.34 3.62 3.62 0 0 0 0-.47 4.24 4.24 0 0 0 -4.17-4.19zm-2.25 3.47a2.34 2.34 0 0 1 4.44 0z" fill="#fff"/><path d="m90.49 283.62h-1.29l-.23 2h1.15l-.05.44h-1.15l-.22 1.85h-.44l.21-1.85h-1.53l-.21 1.85h-.44l.21-1.91h-1.28v-.44h1.29l.23-2h-1.1v-.44h1.15l.22-1.85h.44l-.21 1.85h1.53l.21-1.85h.44l-.21 1.85h1.28zm-3.26 0-.23 2h1.53l.23-2z" fill="#040000"/><path d="m92.45 283.91v4h-.45v-4h-1v-.43h1v-1a1 1 0 0 1 1.14-1.14h.77v.44h-.61a1 1 0 0 0 -.66.17.78.78 0 0 0 -.19.59v.94h1.44v.43z" fill="#040000"/><path d="m95.86 283.91v4h-.47v-4h-1v-.43h1v-1a1 1 0 0 1 1.14-1.14h.77v.44h-.59a1 1 0 0 0 -.66.17.78.78 0 0 0 -.19.59v.94h1.44v.43z" fill="#040000"/><path d="m101.19 287.9a1.88 1.88 0 0 1 -.08-.55v-.43a2.62 2.62 0 0 1 -2 1.07 1.57 1.57 0 0 1 -1-.31 1 1 0 0 1 -.4-.8 1.28 1.28 0 0 1 .78-1.21 6.68 6.68 0 0 1 2.57-.45c-.08-.93-.52-1.4-1.33-1.4a1.35 1.35 0 0 0 -1.19.6l-.5-.22a1.86 1.86 0 0 1 1.69-.81 1.64 1.64 0 0 1 1.81 1.88v2.08a1.88 1.88 0 0 0 .08.55zm-1.94-2c-.68.2-1 .54-1 1a.57.57 0 0 0 .26.46 1 1 0 0 0 .66.21 1.82 1.82 0 0 0 1.3-.52 2.23 2.23 0 0 0 .64-1.37 7.48 7.48 0 0 0 -1.86.17z" fill="#040000"/><path d="m102.84 285.68a2.34 2.34 0 0 0 .46 1.39 1.23 1.23 0 0 0 1 .49 1.58 1.58 0 0 0 1.4-.86l.45.22a2.1 2.1 0 0 1 -1.85 1.07 1.75 1.75 0 0 1 -1.45-.66 2.59 2.59 0 0 1 -.51-1.68 2.31 2.31 0 0 1 .66-1.65 1.87 1.87 0 0 1 1.39-.56 1.82 1.82 0 0 1 1.34.55 2.09 2.09 0 0 1 .57 1.52v.21zm2.38-1.48a1.26 1.26 0 0 0 -.87-.37c-.76 0-1.26.48-1.5 1.42h2.92a2.11 2.11 0 0 0 -.55-1.05z" fill="#040000"/><path d="m110.74 287.48a2.16 2.16 0 0 1 -1.48.51 1.79 1.79 0 0 1 -2-1.39l.47-.16a1.37 1.37 0 0 0 1.5 1.11 1.64 1.64 0 0 0 1.14-.4 1.22 1.22 0 0 0 .44-.94 1.39 1.39 0 0 0 -.42-1 1.46 1.46 0 0 0 -1.06-.42h-.71v-.44h.61a1.28 1.28 0 0 0 .92-.46 1.35 1.35 0 0 0 .44-.93 1.22 1.22 0 0 0 -.34-.9 1.38 1.38 0 0 0 -1-.33 1.23 1.23 0 0 0 -1.3 1.06l-.47-.15a1.78 1.78 0 0 1 .57-.94 1.8 1.8 0 0 1 1.2-.41 1.85 1.85 0 0 1 1.32.45 1.6 1.6 0 0 1 .48 1.22 1.72 1.72 0 0 1 -1.17 1.53 1.74 1.74 0 0 1 1.4 1.74 1.62 1.62 0 0 1 -.54 1.25z" fill="#040000"/><path d="m116.24 287.48a2.16 2.16 0 0 1 -1.48.51 1.79 1.79 0 0 1 -2-1.39l.47-.16a1.37 1.37 0 0 0 1.5 1.11 1.64 1.64 0 0 0 1.14-.4 1.22 1.22 0 0 0 .44-.94 1.39 1.39 0 0 0 -.42-1 1.46 1.46 0 0 0 -1.06-.42h-.71v-.44h.61a1.28 1.28 0 0 0 .92-.46 1.35 1.35 0 0 0 .44-.93 1.22 1.22 0 0 0 -.34-.9 1.38 1.38 0 0 0 -1-.33 1.23 1.23 0 0 0 -1.3 1.06l-.47-.15a1.78 1.78 0 0 1 .57-.94 1.8 1.8 0 0 1 1.2-.41 1.85 1.85 0 0 1 1.32.45 1.6 1.6 0 0 1 .48 1.22 1.72 1.72 0 0 1 -1.17 1.53 1.74 1.74 0 0 1 1.4 1.74 1.62 1.62 0 0 1 -.54 1.25z" fill="#040000"/><path d="m3.67 154.82v.39h-1.33v2.19h1.13v.39h-1.13v2.64c.47-.16.9-.32 1.29-.49l.08.39a22.74 22.74 0 0 1 -3.13 1.17l-.19-.5c.54-.15 1-.3 1.52-.46v-2.78h-1.29v-.39h1.29v-2.19h-1.41v-.39zm5.11-.47v4.65h-2.18v1.33h2.18v.39h-2.18v1.52h2.93v.39h-6.64v-.39h3.28v-1.52h-2.17v-.39h2.17v-1.33h-2.07v-4.61zm-2.61 2.15v-1.76h-1.64v1.76zm0 2.07v-1.68h-1.64v1.68zm.43-2.07h1.75v-1.76h-1.75zm0 2.07h1.75v-1.68h-1.75z" fill="#040000"/><path d="m12.26 160.84a8.73 8.73 0 0 1 -1.44 2.07l-.36-.32a7.59 7.59 0 0 0 1.41-2zm1.88-6.49v5.9h-3.09v-5.9zm-.43 1.84v-1.45h-2.23v1.45zm0 1.8v-1.41h-2.23v1.42zm0 1.87v-1.48h-2.23v1.48zm.74 2.54-.39.27a7.73 7.73 0 0 0 -1.25-1.79l.35-.24a8.47 8.47 0 0 1 1.29 1.76zm3.16-6.13v-2.46h.39v2.46h1.53v.39h-1.53v5.47c0 .46-.26.7-.78.7a6.34 6.34 0 0 1 -1.41-.16v-.43a5.5 5.5 0 0 0 1.44.2c.23 0 .35-.13.35-.39v-5.39h-.17a12.55 12.55 0 0 1 -.91 2.22 11.17 11.17 0 0 1 -1.81 2.46l-.31-.31a10.68 10.68 0 0 0 1.66-2.27 11.42 11.42 0 0 0 .9-2.1h-2.32v-.39z" fill="#040000"/><path d="m278.01 168.9h126.36v126.36h-126.36z" fill="#f0eee2"/><path d="m371.16 282.94h-1.29l-.23 2h1.15l-.05.44h-1.15l-.22 1.85h-.44l.21-1.85h-1.53l-.21 1.85h-.4l.21-1.85h-1.28l.05-.44h1.29l.23-2h-1.15l.05-.44h1.15l.22-1.85h.44l-.21 1.85h1.53l.21-1.85h.44l-.21 1.85h1.28zm-3.26 0-.23 2h1.53l.23-2z" fill="#040000"/><path d="m373.12 283.23v4h-.47v-4h-1v-.43h1v-1a1 1 0 0 1 1.14-1.14h.77v.44h-.56a1 1 0 0 0 -.66.17.78.78 0 0 0 -.19.59v.94h1.44v.43z" fill="#040000"/><path d="m379.12 286.42a1.8 1.8 0 0 1 -1.66.88 1.78 1.78 0 0 1 -1.66-.88 5 5 0 0 1 -.48-2.48 5.06 5.06 0 0 1 .48-2.48 1.8 1.8 0 0 1 1.66-.88 1.82 1.82 0 0 1 1.66.88 5.06 5.06 0 0 1 .48 2.48 5 5 0 0 1 -.48 2.48zm-.43-4.73a1.35 1.35 0 0 0 -1.23-.67 1.33 1.33 0 0 0 -1.23.67 4.44 4.44 0 0 0 -.43 2.25 4.39 4.39 0 0 0 .43 2.25 1.31 1.31 0 0 0 1.23.67 1.37 1.37 0 0 0 1.25-.69 6.18 6.18 0 0 0 0-4.48z" fill="#040000"/><path d="m381 285a2.34 2.34 0 0 0 .46 1.39 1.23 1.23 0 0 0 1 .49 1.58 1.58 0 0 0 1.4-.86l.45.22a2.1 2.1 0 0 1 -1.85 1.07 1.75 1.75 0 0 1 -1.45-.66 2.59 2.59 0 0 1 -.51-1.68 2.31 2.31 0 0 1 .6-1.69 1.87 1.87 0 0 1 1.39-.56 1.82 1.82 0 0 1 1.34.55 2.09 2.09 0 0 1 .57 1.52v.21zm2.38-1.48a1.26 1.26 0 0 0 -.87-.37c-.76 0-1.26.48-1.5 1.42h2.92a2.11 2.11 0 0 0 -.56-1.05z" fill="#040000"/><path d="m385.49 285a2.34 2.34 0 0 0 .46 1.39 1.23 1.23 0 0 0 1 .49 1.58 1.58 0 0 0 1.4-.86l.45.22a2.1 2.1 0 0 1 -1.85 1.07 1.75 1.75 0 0 1 -1.45-.66 2.59 2.59 0 0 1 -.5-1.65 2.31 2.31 0 0 1 .6-1.69 1.87 1.87 0 0 1 1.39-.56 1.82 1.82 0 0 1 1.34.55 2.09 2.09 0 0 1 .57 1.52v.18zm2.38-1.48a1.26 1.26 0 0 0 -.87-.37c-.76 0-1.26.48-1.5 1.42h2.92a2.11 2.11 0 0 0 -.55-1.05z" fill="#040000"/><path d="m390 285a2.34 2.34 0 0 0 .46 1.39 1.23 1.23 0 0 0 1 .49 1.58 1.58 0 0 0 1.4-.86l.45.22a2.1 2.1 0 0 1 -1.85 1.07 1.75 1.75 0 0 1 -1.45-.66 2.59 2.59 0 0 1 -.51-1.68 2.31 2.31 0 0 1 .6-1.69 1.87 1.87 0 0 1 1.39-.56 1.82 1.82 0 0 1 1.34.55 2.09 2.09 0 0 1 .57 1.52v.21zm2.38-1.48a1.26 1.26 0 0 0 -.87-.37c-.76 0-1.26.48-1.5 1.42h2.92a2.11 2.11 0 0 0 -.56-1.05z" fill="#040000"/><path d="m398 283.43a9.35 9.35 0 0 1 -1.12 1.15 5.17 5.17 0 0 0 -1.65 2.23h3.22v.43h-4a4.66 4.66 0 0 1 .76-1.59 8.86 8.86 0 0 1 1.3-1.38 7.9 7.9 0 0 0 1.07-1.09 1.63 1.63 0 0 0 .36-1 1 1 0 0 0 -.39-.82 1.78 1.78 0 0 0 -1.17-.36c-.88 0-1.38.54-1.5 1.6l-.47-.18a2.19 2.19 0 0 1 .62-1.35 1.86 1.86 0 0 1 1.35-.5 2.42 2.42 0 0 1 1.49.43 1.42 1.42 0 0 1 .56 1.18 2.09 2.09 0 0 1 -.43 1.25z" fill="#040000"/><path d="m316.36 176.21v.67a.2.2 0 0 1 .06-.11.25.25 0 0 1 .1-.08.22.22 0 0 1 .11-.05h.13a.56.56 0 0 1 .23 0 .43.43 0 0 1 .16.14.44.44 0 0 1 .1.19.93.93 0 0 1 0 .24.85.85 0 0 1 0 .23.47.47 0 0 1 -.1.2.51.51 0 0 1 -.16.13.56.56 0 0 1 -.23 0 .41.41 0 0 1 -.25-.07.37.37 0 0 1 -.17-.18v.22h-.13v-1.61zm.77.85a.77.77 0 0 0 -.07-.16.25.25 0 0 0 -.12-.11.31.31 0 0 0 -.17 0 .36.36 0 0 0 -.19 0 .28.28 0 0 0 -.13.11.77.77 0 0 0 -.07.16.82.82 0 0 0 0 .36.69.69 0 0 0 .07.15.37.37 0 0 0 .13.12.36.36 0 0 0 .19 0 .31.31 0 0 0 .17 0 .34.34 0 0 0 .12-.12.69.69 0 0 0 .07-.15.82.82 0 0 0 0-.36z" fill="#54565a"/><path d="m317.53 176.66.38 1 .36-1h.14l-.5 1.33-.06.13-.06.07h-.08-.22v-.12h.1.08a.29.29 0 0 0 .09-.09v-.08-.13l-.46-1.15z" fill="#54565a"/><path d="m320.31 176.21v.13h-.95v.58h.89v.13h-.89v.64h1v.13h-1.16v-1.61z" fill="#54565a"/><path d="m320.59 177.58h.19v.24h-.19z" fill="#54565a"/><path d="m321.27 177.5a.37.37 0 0 0 .12.13.59.59 0 0 0 .16.07h.21.14a.42.42 0 0 0 .14-.06.32.32 0 0 0 .1-.1.24.24 0 0 0 0-.15.2.2 0 0 0 0-.11.31.31 0 0 0 -.07-.09l-.11-.05h-.12l-.35-.08-.14-.05-.12-.07a.44.44 0 0 1 -.08-.11.38.38 0 0 1 0-.16.39.39 0 0 1 0-.14.37.37 0 0 1 .08-.15.56.56 0 0 1 .17-.11.59.59 0 0 1 .28 0 .78.78 0 0 1 .22 0 .47.47 0 0 1 .32.25.38.38 0 0 1 0 .22h-.15a.34.34 0 0 0 0-.16.4.4 0 0 0 -.1-.12l-.14-.07h-.16-.15a.52.52 0 0 0 -.13.06.22.22 0 0 0 -.09.1.33.33 0 0 0 0 .15.13.13 0 0 0 0 .09.22.22 0 0 0 .05.08h.08.09l.39.1.16.05.14.08.09.12a.47.47 0 0 1 0 .17.2.2 0 0 1 0 .07.36.36 0 0 1 0 .1.61.61 0 0 1 -.07.1.32.32 0 0 1 -.1.1.85.85 0 0 1 -.17.06.9.9 0 0 1 -.25 0 1.09 1.09 0 0 1 -.26 0 1 1 0 0 1 -.21-.1.59.59 0 0 1 -.13-.18.62.62 0 0 1 0-.25h.16a.47.47 0 0 0 0 .21z" fill="#54565a"/><path d="m322.72 176.21v1a.75.75 0 0 0 0 .23.35.35 0 0 0 .09.16.38.38 0 0 0 .15.09.6.6 0 0 0 .2 0 .64.64 0 0 0 .2 0 .38.38 0 0 0 .15-.09.35.35 0 0 0 .09-.16.75.75 0 0 0 0-.23v-1h.15v1a.85.85 0 0 1 0 .23.49.49 0 0 1 -.11.2.58.58 0 0 1 -.2.13.74.74 0 0 1 -.28 0 .84.84 0 0 1 -.29 0 .53.53 0 0 1 -.19-.13.49.49 0 0 1 -.11-.2.85.85 0 0 1 0-.23v-1z" fill="#54565a"/><path d="m324.29 176.21.94 1.36v-1.36h.15v1.61h-.17l-.93-1.36v1.36h-.15v-1.61z" fill="#54565a"/><path d="m327 176.21h.19a.33.33 0 0 1 .17.07.32.32 0 0 1 .11.12.35.35 0 0 1 0 .18.28.28 0 0 1 0 .13.54.54 0 0 1 -.05.11l-.09.08a.21.21 0 0 1 -.11 0 .32.32 0 0 1 .24.13.35.35 0 0 1 .1.26s0 0 0 .09a.54.54 0 0 1 0 .1.37.37 0 0 1 -.06.1.27.27 0 0 1 -.1.08.34.34 0 0 1 -.16.06.69.69 0 0 1 -.22 0h-.68v-1.61zm0 .7a.41.41 0 0 0 .16 0h.11l.07-.09a.36.36 0 0 0 0-.11q0-.3-.36-.3h-.53v.57zm0 .78h.16.14a.28.28 0 0 0 .09-.1.41.41 0 0 0 0-.16.26.26 0 0 0 -.11-.24.53.53 0 0 0 -.31-.07h-.53v.64z" fill="#54565a"/><path d="m327.83 176.84a.64.64 0 0 1 .1-.13.52.52 0 0 1 .15-.07h.18.15l.14.05a.4.4 0 0 1 .1.12.34.34 0 0 1 0 .19v.61c0 .06 0 .09.08.09h.05v.12h-.1-.08a.1.1 0 0 1 -.05 0s0 0 0-.06v-.09a.43.43 0 0 1 -.07.1l-.09.08h-.11-.15-.15a.31.31 0 0 1 -.13-.06.31.31 0 0 1 -.08-.11.33.33 0 0 1 0-.15.29.29 0 0 1 .06-.19.3.3 0 0 1 .14-.1.59.59 0 0 1 .2-.05h.22.08.06s0 0 0 0a.19.19 0 0 0 0-.08.21.21 0 0 0 0-.12.13.13 0 0 0 -.06-.07h-.1-.12a.32.32 0 0 0 -.22.07.29.29 0 0 0 -.09.2h-.14a.71.71 0 0 1 .03-.35zm.71.34a.07.07 0 0 1 -.05 0h-.07-.18-.18l-.13.07a.19.19 0 0 0 -.05.13.3.3 0 0 0 0 .1l.06.07.08.05h.1.16a.35.35 0 0 0 .13-.08.44.44 0 0 0 .08-.11.26.26 0 0 0 0-.15v-.19z" fill="#54565a"/><path d="m329.11 176.66v.2a.29.29 0 0 1 .14-.17.37.37 0 0 1 .23-.07.56.56 0 0 1 .2 0 .3.3 0 0 1 .13.09.37.37 0 0 1 .07.14.58.58 0 0 1 0 .19v.75h-.14v-.73a.66.66 0 0 0 0-.14.37.37 0 0 0 -.05-.11.22.22 0 0 0 -.09-.07.32.32 0 0 0 -.14 0 .41.41 0 0 0 -.16 0 .31.31 0 0 0 -.11.09.35.35 0 0 0 -.07.12.41.41 0 0 0 0 .16v.68h-.12v-1.16z" fill="#54565a"/><path d="m330.32 176.21v1l.64-.56h.19l-.49.43.53.73h-.19l-.46-.64-.23.2v.44h-.14v-1.61z" fill="#54565a"/><rect fill="#00a4ef" height="1.87" rx=".37" width="4.12" x="299.32" y="180.11"/><path d="m314.78 182.74a3.27 3.27 0 0 0 -3.28-3.27 3.2 3.2 0 0 0 -1.41.32.37.37 0 0 0 -.37-.32h-1.12a.38.38 0 0 0 -.38.37v6.28a.38.38 0 0 0 .38.38h1.12a.38.38 0 0 0 .38-.38v-3.37a1.41 1.41 0 1 1 2.81 0v3.38a.38.38 0 0 0 .37.38h1.13a.37.37 0 0 0 .37-.38v-3.38z" fill="#ffc517"/><path d="m327.67 179.46a3.52 3.52 0 1 0 3.52 3.51 3.51 3.51 0 0 0 -3.52-3.51zm0 5.15a1.64 1.64 0 1 1 1.64-1.64 1.64 1.64 0 0 1 -1.64 1.64z" fill="#ed4848"/><rect fill="#00c08b" height="7.03" rx=".37" width="1.87" x="304.94" y="179.46"/><path d="m322.85 179.46h-1.13a.37.37 0 0 0 -.37.37v.33a3.52 3.52 0 1 0 0 5.62v1.64a1.71 1.71 0 0 1 -3.39.31.38.38 0 0 0 -.37-.31h-1.14a.38.38 0 0 0 -.37.42 3.58 3.58 0 0 0 7.14-.42v-7.59a.38.38 0 0 0 -.37-.37zm-3.61 5.15a1.64 1.64 0 1 1 1.64-1.64 1.63 1.63 0 0 1 -1.64 1.64z" fill="#f90"/><path d="m302.13 176.18h-5.24a.37.37 0 0 0 -.38.37v9.56a.38.38 0 0 0 .37.38h1.12a.38.38 0 0 0 .37-.38v-8.06h5.63a1.88 1.88 0 0 0 -1.87-1.87z" fill="#00a4ef"/><circle cx="294.63" cy="185.51" fill="#00c08b" r=".94"/><path d="m306.21 176.41a.38.38 0 0 0 -.65 0l-.6 1a.38.38 0 0 0 .33.56h1.2a.37.37 0 0 0 .32-.56z" fill="#00c08b"/><path d="m288.55 178a4.23 4.23 0 1 0 3.53 6.49.37.37 0 0 0 -.31-.58h-1.47a.37.37 0 0 0 -.25.1 2.35 2.35 0 0 1 -3.75-1h6.05a.37.37 0 0 0 .37-.34 2.43 2.43 0 0 0 0-.47 4.24 4.24 0 0 0 -4.17-4.2zm-2.25 3.47a2.35 2.35 0 0 1 4.45 0z" fill="#00c08b"/></svg>