<?xml version="1.0" encoding="utf-8"?>
<!-- Generator: Adobe Illustrator 25.2.1, SVG Export Plug-In . SVG Version: 6.00 Build 0)  -->
<svg version="1.1" id="圖層_1" xmlns="http://www.w3.org/2000/svg" xmlns:xlink="http://www.w3.org/1999/xlink" x="0px" y="0px"
	 viewBox="0 0 243.9 111.4" style="enable-background:new 0 0 243.9 111.4;" xml:space="preserve">
<style type="text/css">
	.st0{fill:#00A19B;}
	.st1{fill:none;stroke:#D32432;stroke-miterlimit:10;}
	.st2{fill:#D32432;}
	.st3{fill:none;stroke:#00A19B;stroke-miterlimit:10;}
	.st4{fill:none;stroke:#3CBAAD;stroke-miterlimit:10;}
	.st5{fill:#007A7A;}
	.st6{fill:#ACACAC;}
	.st7{fill:#639896;}
	.st8{fill:#FFFFFF;}
	.st9{fill:#3CBAAD;}
	.st10{clip-path:url(#SVGID_2_);fill:#00A19B;}
	.st11{clip-path:url(#SVGID_4_);fill:#ACACAC;}
	.st12{clip-path:url(#SVGID_6_);}
</style>
<g>
	<g>
		<path class="st2" d="M106.9,90.8v8.6h-1V92c-0.5,0.6-1.2,0.9-2,1.2v-1c0.4-0.1,0.8-0.3,1.2-0.5c0.4-0.3,0.7-0.6,1-0.9H106.9z"/>
		<path class="st2" d="M115.6,91.9c0.5,0.8,0.7,1.8,0.7,3.1c0,1.3-0.2,2.3-0.7,3.1c-0.5,0.9-1.3,1.4-2.3,1.4c-1,0-1.8-0.5-2.3-1.4
			c-0.5-0.8-0.7-1.8-0.7-3.1c0-1.3,0.2-2.3,0.7-3.1c0.5-0.9,1.3-1.4,2.3-1.4C114.3,90.6,115.1,91,115.6,91.9z M111.6,92.7
			c-0.2,0.6-0.4,1.4-0.4,2.4c0,1,0.1,1.8,0.4,2.4c0.3,0.8,0.9,1.2,1.7,1.2s1.3-0.4,1.7-1.2c0.2-0.6,0.4-1.4,0.4-2.4
			c0-1-0.1-1.8-0.4-2.4c-0.3-0.8-0.9-1.2-1.7-1.2S112,91.8,111.6,92.7z"/>
		<path class="st2" d="M124.3,91.9c0.5,0.8,0.7,1.8,0.7,3.1c0,1.3-0.2,2.3-0.7,3.1c-0.5,0.9-1.3,1.4-2.3,1.4c-1,0-1.8-0.5-2.3-1.4
			c-0.5-0.8-0.7-1.8-0.7-3.1c0-1.3,0.2-2.3,0.7-3.1c0.5-0.9,1.3-1.4,2.3-1.4C123,90.6,123.8,91,124.3,91.9z M120.3,92.7
			c-0.2,0.6-0.4,1.4-0.4,2.4c0,1,0.1,1.8,0.4,2.4c0.3,0.8,0.9,1.2,1.7,1.2s1.3-0.4,1.7-1.2c0.2-0.6,0.4-1.4,0.4-2.4
			c0-1-0.1-1.8-0.4-2.4c-0.3-0.8-0.9-1.2-1.7-1.2S120.7,91.8,120.3,92.7z"/>
		<path class="st2" d="M132.9,93.9c0.5,0.6,0.7,1.4,0.7,2.3c0,0.9-0.2,1.7-0.7,2.3c-0.5,0.6-1.2,1-2.1,1s-1.6-0.4-2.1-1.3v3.5h-1
			v-8.6h0.9v1c0.4-0.8,1.1-1.2,2.1-1.2C131.7,92.9,132.4,93.3,132.9,93.9z M129.2,94.5c-0.3,0.4-0.5,1-0.5,1.7v0.1
			c0,0.7,0.2,1.3,0.5,1.7c0.3,0.4,0.8,0.7,1.4,0.7c0.7,0,1.2-0.2,1.5-0.7c0.3-0.4,0.5-1,0.5-1.8c0-0.7-0.2-1.3-0.4-1.8
			c-0.3-0.5-0.9-0.7-1.5-0.7C130.1,93.7,129.6,94,129.2,94.5z"/>
		<path class="st2" d="M137.1,93.1l1.6,2.2l1.6-2.2h1.1l-2.2,2.9l2.5,3.3h-1.1l-1.8-2.6l-1.9,2.6h-1.1l2.5-3.3l-2.2-2.9H137.1z"/>
	</g>
	<g>
		<g>
			<line class="st1" x1="79" y1="79.6" x2="167" y2="79.6"/>
			<g>
				<path class="st2" d="M73,79.6c2.8,1.1,6.4,2.9,8.5,4.8l-1.7-4.8l1.7-4.8C79.4,76.7,75.8,78.5,73,79.6z"/>
			</g>
			<g>
				<path class="st2" d="M173,79.6c-2.8,1.1-6.4,2.9-8.5,4.8l1.7-4.8l-1.7-4.8C166.6,76.7,170.2,78.5,173,79.6z"/>
			</g>
		</g>
	</g>
	<g>
		<path class="st2" d="M20.1,42.5v5.8h1.4v0.8h-1.4V51h-0.9v-1.9h-4.3v-0.9l4.3-5.7H20.1z M15.7,48.3h3.5v-4.5h0L15.7,48.3z"/>
		<path class="st2" d="M29.2,43.7c0.5,0.8,0.7,1.8,0.7,3.1c0,1.3-0.2,2.3-0.7,3.1c-0.5,0.9-1.3,1.4-2.3,1.4c-1,0-1.8-0.5-2.3-1.4
			c-0.5-0.8-0.7-1.8-0.7-3.1c0-1.3,0.2-2.3,0.7-3.1c0.5-0.9,1.3-1.4,2.3-1.4C27.9,42.3,28.6,42.7,29.2,43.7z M25.2,44.4
			c-0.2,0.6-0.4,1.4-0.4,2.4c0,1,0.1,1.8,0.4,2.4c0.3,0.8,0.9,1.2,1.7,1.2s1.3-0.4,1.7-1.2c0.2-0.6,0.4-1.4,0.4-2.4
			c0-1-0.1-1.8-0.4-2.4c-0.3-0.8-0.9-1.2-1.7-1.2S25.5,43.6,25.2,44.4z"/>
		<path class="st2" d="M37.8,45.7c0.5,0.6,0.7,1.4,0.7,2.3c0,0.9-0.2,1.7-0.7,2.3c-0.5,0.6-1.2,1-2.1,1s-1.6-0.4-2.1-1.3v3.5h-1
			v-8.6h0.9v1c0.4-0.8,1.1-1.2,2.1-1.2C36.5,44.7,37.2,45,37.8,45.7z M34.1,46.2c-0.3,0.4-0.5,1-0.5,1.7V48c0,0.7,0.2,1.3,0.5,1.7
			c0.3,0.4,0.8,0.7,1.4,0.7c0.7,0,1.2-0.2,1.5-0.7c0.3-0.4,0.5-1,0.5-1.8c0-0.7-0.2-1.3-0.4-1.8c-0.3-0.5-0.9-0.7-1.5-0.7
			C34.9,45.5,34.4,45.7,34.1,46.2z"/>
		<path class="st2" d="M41.9,44.8l1.6,2.2l1.6-2.2h1.1l-2.2,2.9l2.5,3.3h-1.1l-1.8-2.6L41.7,51h-1.1l2.5-3.3l-2.2-2.9H41.9z"/>
	</g>
	<g>
		<g>
			<line class="st1" x1="59.3" y1="26.1" x2="59.3" y2="59.1"/>
			<g>
				<path class="st2" d="M59.3,20.1c-1.1,2.8-2.9,6.4-4.8,8.5l4.8-1.7l4.8,1.7C62.1,26.5,60.3,22.9,59.3,20.1z"/>
			</g>
			<g>
				<path class="st2" d="M59.3,65.1c-1.1-2.8-2.9-6.4-4.8-8.5l4.8,1.7l4.8-1.7C62.1,58.7,60.3,62.3,59.3,65.1z"/>
			</g>
		</g>
	</g>
	<path class="st3" d="M169,64.8H77c-2.2,0-4-1.8-4-4v-32c0-2.2,1.8-4,4-4h92c2.2,0,4,1.8,4,4v32C173,63,171.2,64.8,169,64.8z"/>
	<g>
		<path class="st0" d="M98.3,41.5c0,0,0,0.6,0,0.9c-0.2,6.8-0.5,9.3-1,10c-0.4,0.6-0.7,0.8-1.2,0.8c-0.4,0.1-1.1,0.1-1.8,0.1
			c0-0.6-0.2-1.4-0.5-2c0.6,0,1.1,0.1,1.4,0.1c0.2,0,0.4-0.1,0.6-0.3c0.4-0.5,0.6-2.4,0.8-7.7h-1.6c-0.2,4-0.8,7.7-2.7,10.3
			c-0.3-0.5-1-1.1-1.5-1.4c1.7-2.2,2.2-5.4,2.3-8.9H91v-1.9h1.9c0-0.9,0-1.9,0-2.8h1.9c0,0.9,0,1.9,0,2.8L98.3,41.5z M105,40.5v12.7
			h-2v-1h-2.1v1.1H99V40.5H105z M103.1,50.4v-8h-2.1v8H103.1z"/>
		<path class="st0" d="M117.4,39.6c0,3,0.4,8.9,6.3,12.3c-0.4,0.3-1.2,1.2-1.5,1.7c-3.3-2-5-5-5.9-7.9c-1.2,3.6-3.1,6.2-5.9,7.9
			c-0.4-0.4-1.2-1.2-1.7-1.6c3.3-1.7,5.2-4.8,6.1-9l1,0.2c-0.1-0.6-0.2-1.2-0.2-1.7h-3.7v-1.9H117.4z"/>
		<path class="st0" d="M141.1,40.9v3.9h-1.9v-2.2h-10v2.2h-1.8v-3.9h2.2c-0.2-0.5-0.6-1-0.9-1.4l1.7-0.7c0.5,0.5,1,1.2,1.2,1.7
			l-0.9,0.4h2.5v-2.2h2v2.2h2.5l-0.9-0.3c0.4-0.5,0.9-1.2,1.2-1.7l2,0.6c-0.5,0.6-0.9,1.1-1.3,1.5H141.1z M140.2,51.2
			c0,0.9-0.2,1.3-0.8,1.6c-0.6,0.3-1.5,0.3-2.6,0.3c-0.1-0.5-0.4-1.2-0.6-1.7c0.7,0,1.6,0,1.8,0c0.2,0,0.3-0.1,0.3-0.2v-1.6h-2.9v4
			h-2v-4h-3V53h-1.9v-5h4.9v-1h-3.4v-3.7h8.5V47h-3.1v1h4.8V51.2z M131.8,45.6h4.8v-1h-4.8V45.6z"/>
		<path class="st0" d="M158.6,51.4c0,1-0.2,1.5-0.9,1.8c-0.7,0.3-1.6,0.4-3.1,0.3c-0.1-0.5-0.4-1.3-0.6-1.8c0.9,0,2,0,2.2,0
			c0.3,0,0.4-0.1,0.4-0.4V49h-3.4v4.5h-1.9V49h-3.3c-0.3,1.7-0.9,3.5-2,4.8c-0.3-0.4-1.1-1-1.5-1.2c1.7-1.9,1.9-4.8,1.9-7v-5.7h12.1
			V51.4z M151.4,47.2v-2h-3v0.3c0,0.5,0,1.1,0,1.7H151.4z M148.4,41.6v1.9h3v-1.9H148.4z M156.7,41.6h-3.4v1.9h3.4V41.6z
			 M156.7,47.2v-2h-3.4v2H156.7z"/>
	</g>
</g>
</svg>
