<svg xmlns="http://www.w3.org/2000/svg" xmlns:xlink="http://www.w3.org/1999/xlink" viewBox="0 0 201.46 345.26"><defs><style>.cls-1{fill:none;}.cls-2{fill:#d32432;}.cls-3{fill:#1c1c1c;}.cls-4{fill:#ef7800;}.cls-5{fill:#fff;}.cls-6{fill:#00a19b;}.cls-7{clip-path:url(#clip-path);}.cls-8{fill:url(#linear-gradient);}.cls-9{fill:url(#linear-gradient-2);}.cls-10{fill:#3fb1ea;}.cls-11{fill:url(#linear-gradient-3);}.cls-12{fill:url(#linear-gradient-4);}.cls-13{fill:#a0eae4;}.cls-14{fill:url(#linear-gradient-5);}.cls-15{fill:url(#linear-gradient-6);}.cls-16{fill:url(#linear-gradient-7);}.cls-17{fill:#595963;}.cls-18{fill:#79798c;}.cls-19{fill:#0055b2;}.cls-20{fill:#f0f8ff;}</style><clipPath id="clip-path"><circle class="cls-1" cx="102.6" cy="193.26" r="45"/></clipPath><linearGradient id="linear-gradient" x1="155.16" y1="138.52" x2="52.09" y2="244.94" gradientUnits="userSpaceOnUse"><stop offset="0.12" stop-color="#97cf9e"/><stop offset="0.54" stop-color="#28aea7"/></linearGradient><linearGradient id="linear-gradient-2" x1="-859.73" y1="1393.52" x2="-879.97" y2="1345.73" gradientTransform="translate(613.09 -1324.62) rotate(-15.09)" gradientUnits="userSpaceOnUse"><stop offset="0" stop-color="#e1f1f9"/><stop offset="0.29" stop-color="#f8fbff"/><stop offset="1" stop-color="#a6d4f4"/></linearGradient><linearGradient id="linear-gradient-3" x1="957.65" y1="175.62" x2="988.11" y2="218.55" gradientTransform="translate(-902.96 70.34) rotate(-3.25)" gradientUnits="userSpaceOnUse"><stop offset="0" stop-color="#e1f1f9"/><stop offset="0.22" stop-color="#f8fbff"/><stop offset="1" stop-color="#a6d4f4"/></linearGradient><linearGradient id="linear-gradient-4" x1="1117.01" y1="-57.54" x2="1117.01" y2="22.14" gradientTransform="translate(-1014.65 207.39) rotate(2.77)" gradientUnits="userSpaceOnUse"><stop offset="0.19" stop-color="#f8fbff"/><stop offset="0.83" stop-color="#a6d4f4"/></linearGradient><linearGradient id="linear-gradient-5" x1="836.28" y1="158.75" x2="836.28" y2="220.99" gradientTransform="translate(-732)" xlink:href="#linear-gradient-2"/><linearGradient id="linear-gradient-6" x1="836.23" y1="183.28" x2="837.63" y2="166.2" gradientTransform="translate(-732)" gradientUnits="userSpaceOnUse"><stop offset="0" stop-color="#51a3e5"/><stop offset="0.51" stop-color="#c0e4ff"/><stop offset="1" stop-color="#51a3e5"/></linearGradient><linearGradient id="linear-gradient-7" x1="836.37" y1="182.39" x2="837.49" y2="166.96" gradientTransform="translate(-732)" gradientUnits="userSpaceOnUse"><stop offset="0" stop-color="#4888bc"/><stop offset="0.51" stop-color="#61a2f3"/><stop offset="1" stop-color="#4888bc"/></linearGradient></defs><g id="圖層_2" data-name="圖層 2"><g id="圖層_1-2" data-name="圖層 1"><path class="cls-2" d="M5.23,86.54A5.36,5.36,0,0,1,6,89.61,6.3,6.3,0,0,1,5.18,93a2.63,2.63,0,0,1-2.3,1.34A2.46,2.46,0,0,1,.14,92h1a1.61,1.61,0,0,0,1.77,1.46,1.78,1.78,0,0,0,1.58-1A4.63,4.63,0,0,0,5,90.07c0-.06,0-.17,0-.31H5a2.57,2.57,0,0,1-.93,1,2.44,2.44,0,0,1-1.33.37,2.61,2.61,0,0,1-2-.81,3.13,3.13,0,0,1,.09-4.12,2.74,2.74,0,0,1,2.07-.84A2.68,2.68,0,0,1,5.23,86.54Zm-3.73.27A2.15,2.15,0,0,0,1,88.33a2,2,0,0,0,.53,1.45,1.84,1.84,0,0,0,1.41.57,1.94,1.94,0,0,0,1.41-.58,2.07,2.07,0,0,0,.55-1.46,2.13,2.13,0,0,0-.53-1.48,1.81,1.81,0,0,0-1.43-.61A1.8,1.8,0,0,0,1.5,86.81Z"/><path class="cls-2" d="M14,86.75a7.38,7.38,0,0,1,0,6.19,2.52,2.52,0,0,1-2.31,1.35,2.51,2.51,0,0,1-2.32-1.35,7.38,7.38,0,0,1,0-6.19,2.5,2.5,0,0,1,2.32-1.36A2.51,2.51,0,0,1,14,86.75Zm-4,.72a6.27,6.27,0,0,0-.36,2.37A6.44,6.44,0,0,0,10,92.22a1.73,1.73,0,0,0,3.31,0,6.42,6.42,0,0,0,.37-2.38,6.25,6.25,0,0,0-.37-2.37,1.72,1.72,0,0,0-3.31,0Z"/><path class="cls-2" d="M22.6,88.75A3.6,3.6,0,0,1,23.31,91a3.69,3.69,0,0,1-.69,2.27,2.49,2.49,0,0,1-2.08,1A2.24,2.24,0,0,1,18.49,93v3.5h-1V87.92h.9v1a2.21,2.21,0,0,1,2.06-1.19A2.51,2.51,0,0,1,22.6,88.75Zm-3.68.53a2.87,2.87,0,0,0-.46,1.7v.12A2.65,2.65,0,0,0,19,92.84a1.64,1.64,0,0,0,1.36.66,1.79,1.79,0,0,0,1.52-.7A3,3,0,0,0,22.33,91a3.19,3.19,0,0,0-.44-1.75,1.74,1.74,0,0,0-1.52-.74A1.66,1.66,0,0,0,18.92,89.28Z"/><path class="cls-2" d="M26.77,87.92l1.61,2.21L30,87.92H31.1l-2.19,2.92,2.45,3.28H30.23l-1.85-2.58-1.86,2.58H25.38l2.46-3.28-2.2-2.92Z"/><path class="cls-3" d="M175.39,82.44V91h-1V83.64a4.59,4.59,0,0,1-2,1.18v-1a4.55,4.55,0,0,0,1.2-.51,4.47,4.47,0,0,0,1-.88Z"/><path class="cls-3" d="M184.63,84.57h-1a1.63,1.63,0,0,0-1.78-1.47,1.76,1.76,0,0,0-1.58,1,4.56,4.56,0,0,0-.56,2.4s0,.15,0,.31h.05a2.3,2.3,0,0,1,.92-1,2.38,2.38,0,0,1,1.33-.37,2.59,2.59,0,0,1,2,.79,3.14,3.14,0,0,1-.07,4.13,2.79,2.79,0,0,1-2.08.84A2.67,2.67,0,0,1,179.53,90a5.37,5.37,0,0,1-.74-3.06,6.15,6.15,0,0,1,.8-3.33,2.61,2.61,0,0,1,2.31-1.34A2.46,2.46,0,0,1,184.63,84.57Zm-4.17,2.23a2,2,0,0,0-.55,1.46,2.08,2.08,0,0,0,.52,1.48,2,2,0,0,0,2.83,0,2.21,2.21,0,0,0,.54-1.52,2,2,0,0,0-.52-1.45,1.83,1.83,0,0,0-1.42-.57A1.85,1.85,0,0,0,180.46,86.8Z"/><path class="cls-3" d="M192.7,85.63a4.09,4.09,0,0,1,0,4.56,2.49,2.49,0,0,1-2.08,1,2.24,2.24,0,0,1-2-1.29v3.5h-1V84.81h.9v1a2.2,2.2,0,0,1,2.06-1.19A2.53,2.53,0,0,1,192.7,85.63Zm-3.69.53a2.87,2.87,0,0,0-.46,1.7V88a2.65,2.65,0,0,0,.52,1.74,1.62,1.62,0,0,0,1.36.66,1.81,1.81,0,0,0,1.52-.69,3,3,0,0,0,.47-1.77,3.21,3.21,0,0,0-.44-1.75,1.74,1.74,0,0,0-1.52-.74A1.66,1.66,0,0,0,189,86.16Z"/><path class="cls-3" d="M196.86,84.81l1.61,2.2,1.59-2.2h1.13L199,87.72,201.46,91h-1.14l-1.85-2.58L196.61,91h-1.14l2.46-3.29-2.2-2.91Z"/><path class="cls-3" d="M130.24,135.8v8.57h-1V137a4.59,4.59,0,0,1-2,1.18v-1a4.55,4.55,0,0,0,1.2-.51,4.72,4.72,0,0,0,1-.88Z"/><path class="cls-3" d="M139.48,137.93h-1a1.63,1.63,0,0,0-1.78-1.47,1.75,1.75,0,0,0-1.58,1,4.56,4.56,0,0,0-.56,2.4s0,.15,0,.31h.05a2.25,2.25,0,0,1,.92-1,2.38,2.38,0,0,1,1.33-.37,2.59,2.59,0,0,1,2,.79,3.14,3.14,0,0,1-.07,4.13,2.79,2.79,0,0,1-2.08.84,2.67,2.67,0,0,1-2.35-1.16,5.37,5.37,0,0,1-.74-3.06,6.13,6.13,0,0,1,.8-3.33,2.61,2.61,0,0,1,2.31-1.35A2.46,2.46,0,0,1,139.48,137.93Zm-4.17,2.23a2,2,0,0,0-.56,1.46,2.08,2.08,0,0,0,.53,1.48,2,2,0,0,0,2.83,0,2.21,2.21,0,0,0,.54-1.52,2,2,0,0,0-.53-1.46,1.82,1.82,0,0,0-1.41-.56A1.85,1.85,0,0,0,135.31,140.16Z"/><path class="cls-3" d="M147.54,139a3.6,3.6,0,0,1,.71,2.29,3.69,3.69,0,0,1-.69,2.27,2.49,2.49,0,0,1-2.08,1,2.24,2.24,0,0,1-2-1.29v3.5h-1v-8.57h.9v1a2.19,2.19,0,0,1,2.06-1.19A2.5,2.5,0,0,1,147.54,139Zm-3.68.53a2.87,2.87,0,0,0-.47,1.7v.12a2.66,2.66,0,0,0,.53,1.74,1.62,1.62,0,0,0,1.36.66,1.81,1.81,0,0,0,1.52-.69,3,3,0,0,0,.47-1.77,3.1,3.1,0,0,0-.45-1.75,1.71,1.71,0,0,0-1.51-.74A1.66,1.66,0,0,0,143.86,139.52Z"/><path class="cls-3" d="M151.71,138.17l1.61,2.2,1.59-2.2H156l-2.19,2.91,2.45,3.29h-1.13l-1.85-2.58-1.86,2.58h-1.14l2.46-3.29-2.2-2.91Z"/><rect class="cls-2" x="43.64" y="46.72" width="1" height="77.93"/><path class="cls-2" d="M44.14,40.69a30.34,30.34,0,0,1-4.76,8.55l4.76-1.72,4.75,1.72A30.31,30.31,0,0,1,44.14,40.69Z"/><path class="cls-2" d="M44.14,130.69a30.34,30.34,0,0,0-4.76-8.55l4.76,1.72,4.75-1.72A30.31,30.31,0,0,0,44.14,130.69Z"/><path class="cls-2" d="M93.18,1.15a5.36,5.36,0,0,1,.75,3.07,6.3,6.3,0,0,1-.8,3.34,2.67,2.67,0,0,1-2.3,1.34,2.46,2.46,0,0,1-2.74-2.29h1a1.62,1.62,0,0,0,1.78,1.46,1.79,1.79,0,0,0,1.58-1A4.73,4.73,0,0,0,93,4.68c0-.06,0-.17,0-.31h0a2.45,2.45,0,0,1-2.25,1.4,2.59,2.59,0,0,1-2-.82,2.78,2.78,0,0,1-.73-2,2.83,2.83,0,0,1,.81-2.1A2.77,2.77,0,0,1,90.84,0,2.65,2.65,0,0,1,93.18,1.15Zm-3.73.27a2.14,2.14,0,0,0-.53,1.52,2,2,0,0,0,.53,1.45A1.82,1.82,0,0,0,90.86,5a1.91,1.91,0,0,0,1.4-.57,2.1,2.1,0,0,0,.56-1.47,2.09,2.09,0,0,0-.53-1.47A1.81,1.81,0,0,0,90.86.83,1.79,1.79,0,0,0,89.45,1.42Z"/><path class="cls-2" d="M102,1.36a6.05,6.05,0,0,1,.68,3.09A6.05,6.05,0,0,1,102,7.54,2.55,2.55,0,0,1,99.63,8.9a2.5,2.5,0,0,1-2.31-1.36,6,6,0,0,1-.69-3.09,6,6,0,0,1,.69-3.09A2.46,2.46,0,0,1,99.63,0,2.51,2.51,0,0,1,102,1.36Zm-4,.72a6.27,6.27,0,0,0-.36,2.37A6.35,6.35,0,0,0,98,6.82a1.72,1.72,0,0,0,3.31,0,6.32,6.32,0,0,0,.37-2.37,6.25,6.25,0,0,0-.37-2.37,1.72,1.72,0,0,0-3.31,0Z"/><path class="cls-2" d="M110.55,3.36a3.58,3.58,0,0,1,.71,2.29,3.63,3.63,0,0,1-.7,2.27,2.48,2.48,0,0,1-2.07,1,2.23,2.23,0,0,1-2-1.3v3.51h-1V2.53h.9v1a2.2,2.2,0,0,1,2.06-1.19A2.51,2.51,0,0,1,110.55,3.36Zm-3.68.53a2.85,2.85,0,0,0-.47,1.7v.12a2.68,2.68,0,0,0,.53,1.74,1.64,1.64,0,0,0,1.36.66,1.79,1.79,0,0,0,1.52-.7,3,3,0,0,0,.47-1.76,3.1,3.1,0,0,0-.45-1.75,1.7,1.7,0,0,0-1.51-.75A1.65,1.65,0,0,0,106.87,3.89Z"/><path class="cls-2" d="M114.72,2.53l1.6,2.21,1.6-2.21h1.13l-2.2,2.92,2.46,3.28h-1.14l-1.85-2.58-1.85,2.58h-1.14l2.46-3.28-2.2-2.92Z"/><rect class="cls-2" x="63.64" y="27.71" width="77.93" height="1"/><path class="cls-2" d="M147.6,28.21a30.39,30.39,0,0,1-8.54-4.76l1.72,4.76L139.06,33A30.12,30.12,0,0,1,147.6,28.21Z"/><path class="cls-2" d="M57.6,28.21a30.45,30.45,0,0,0,8.55-4.76l-1.72,4.76L66.15,33A30.18,30.18,0,0,0,57.6,28.21Z"/><circle class="cls-4" cx="102.6" cy="85.69" r="45"/><path class="cls-5" d="M123.1,97.45h-41v-41h41Zm-40-1h39v-39h-39Z"/><path class="cls-5" d="M80.76,106.36V116H79.24v-.59h-5.7v.6H72.09v-9.64h3.07a12.39,12.39,0,0,0,.33-1.58l1.72.2c-.18.48-.37.94-.56,1.38Zm-7.22,1.36V109h5.7v-1.24Zm0,2.56v1.23h5.7v-1.23Zm5.7,3.8v-1.25h-5.7v1.25Z"/><path class="cls-5" d="M90.59,114.33a10.71,10.71,0,0,0,1.42.09c.64,0,2.61,0,3.43,0a4.91,4.91,0,0,0-.52,1.45h-3c-2.25,0-3.89-.37-5-2.11a6,6,0,0,1-1.61,2.3,6.8,6.8,0,0,0-1.16-.94c1.3-1,1.89-2.64,2.11-4.68l1.45.13A14.54,14.54,0,0,1,87.5,112a3.25,3.25,0,0,0,1.61,1.92v-4.06H86.55v-1.37h6.6v1.37H90.59v1.41h3.29v1.34H90.59Zm-4.46-5.25h-1.4v-3h4.45a8.8,8.8,0,0,0-.42-1l1.44-.39a7.4,7.4,0,0,1,.62,1.39H95v3H93.51v-1.66H86.13Z"/><path class="cls-5" d="M108,113.05a6.51,6.51,0,0,1-1.4,1.31,1.49,1.49,0,0,0,.9.34c.29,0,.36-.21.42-.88a3.08,3.08,0,0,0,1,.55c-.19,1.34-.58,1.63-1.53,1.63a2.83,2.83,0,0,1-2.05-.92,14.06,14.06,0,0,1-2.44.92,6.47,6.47,0,0,0-.69-1.13,13.77,13.77,0,0,0,2.41-.75,6.4,6.4,0,0,1-.6-1.43h-2.34v.45l1.8-.09v1l-1.79.14v.61c0,.64-.13.92-.58,1.07a6.11,6.11,0,0,1-2,.18,5,5,0,0,0-.41-1.09,12.35,12.35,0,0,0,1.35,0c.18,0,.24-.05.24-.2v-.48l-2.3.17-.11-1.1,2.41-.1v-.53H98v-1h2.37v-.48c-.63.06-1.28.09-1.87.1a3.6,3.6,0,0,0-.3-.85,29.23,29.23,0,0,0,4.23-.49H98v-1.08h4.59v-.44H99.19v-1h3.41V107h-4v-1h2.13a4.67,4.67,0,0,0-.46-.72l1.25-.4a3.78,3.78,0,0,1,.73,1.12h2.41a7.38,7.38,0,0,0,.53-1.16l1.58.3c-.22.32-.43.62-.62.86h2.07v1h-4.11v.43h3.48v1h-3.48v.44h4.64v1.08h-2.37a8.37,8.37,0,0,1,1.89,1l-.64.71h1.18v1H107Zm-4.21-1.4a15.12,15.12,0,0,1-.19-1.56H105a9.63,9.63,0,0,0,.2,1.56h2a7.68,7.68,0,0,0-1.75-.94l.75-.78H102.6l.77.8c-.49.11-1.05.21-1.65.29v.63Zm1.71,1a5.49,5.49,0,0,0,.37.77,4.69,4.69,0,0,0,.87-.77Z"/><path class="cls-5" d="M121.17,110.85a7.2,7.2,0,0,1-1.08,2.57,23,23,0,0,1,2.25,1.4L121.4,116a22,22,0,0,0-2.27-1.53,8.6,8.6,0,0,1-3.68,1.6,4.78,4.78,0,0,0-.69-1.32,7.56,7.56,0,0,0,3-1c-.71-.39-1.44-.76-2.08-1.09a19,19,0,0,0,.85-1.74h-1.24l.1.69-1.3.39v2.58c0,.68-.14,1-.53,1.24a3.73,3.73,0,0,1-1.79.26,5,5,0,0,0-.41-1.29c.47,0,1,0,1.12,0s.23-.06.23-.23v-2.18l-1.31.37-.3-1.37c.46-.09,1-.24,1.61-.39V108.4h-1.43v-1.34h1.43v-2.24h1.38v2.24h1.12v1.34h-1.12v2.17l.93-.27v-.72h2a15,15,0,0,0,.55-1.78l1.46.2c-.14.51-.31,1-.5,1.58h1.26c0-.25.05-.5.06-.77l1.57,0c0,.25-.06.5-.08.74h1.09v1.27Zm-4.37-2.11h-1.33V106.2h2.6c-.08-.41-.19-.85-.28-1.22l1.45-.22c.13.44.27,1,.37,1.44h2.67v2.53h-1.39v-1.28H116.8Zm1.32,2.11c-.19.46-.37.88-.55,1.26l1.25.63a5.29,5.29,0,0,0,.83-1.89Z"/><path class="cls-5" d="M136,114.31v1.35h-6.7v-.88c-1.44.32-3,.63-4.1.9l-.27-1.29,1.68-.27v-3H125v-1.21h1.52V109h-.83v-.54c-.19.18-.39.36-.58.51a9.73,9.73,0,0,0-.5-1.46,8.27,8.27,0,0,0,2.37-2.78l1,.48-.22.43a11.06,11.06,0,0,1,2,1.45l-.6,1.16-.37-.36V109h-1.08v.87h1.46v1.21h-1.46v2.81l1.46-.28.05.69h1.27c.12-1,.25-2.09.36-3.28h-1.15v-1.35H131c.09-1,.17-2,.22-2.87h-1.2v-1.35h5c0,1.3-.06,2.78-.11,4.22h.94V111h-1c0,1.2-.1,2.33-.16,3.28ZM126,111.54a13.7,13.7,0,0,1,.43,2l-.91.26a13.53,13.53,0,0,0-.39-2.07Zm2.74-3.72a13.52,13.52,0,0,0-1.53-1.14,12.33,12.33,0,0,1-.88,1.14Zm-.86,5.62a15.69,15.69,0,0,0,.42-2l1,.27c-.23.71-.44,1.5-.63,2ZM132.2,111c-.11,1.2-.24,2.34-.35,3.28h1.54c.08-1,.15-2.09.21-3.28Zm.37-4.22c-.07.91-.16,1.88-.24,2.87h1.33c0-1,.06-1.94.08-2.87Z"/><circle class="cls-6" cx="102.6" cy="300.26" r="45"/><path class="cls-5" d="M92.52,314.23H90v-1.48h6.79v1.48H94.3v7.4H92.52Z"/><path class="cls-5" d="M98.94,317.15c0-2.89,1.62-4.57,4-4.57s4,1.69,4,4.57-1.62,4.65-4,4.65S98.94,320,98.94,317.15Zm6.13,0c0-1.9-.84-3-2.16-3s-2.16,1.14-2.16,3,.84,3.11,2.16,3.11S105.07,319.05,105.07,317.15Z"/><path class="cls-5" d="M110.13,312.75H113c2,0,3.48.69,3.48,2.78s-1.52,2.94-3.43,2.94H111.9v3.16h-1.77Zm2.84,4.32c1.22,0,1.81-.52,1.81-1.54s-.65-1.37-1.87-1.37h-1v2.91Z"/><path class="cls-5" d="M90.14,72.84a.7.7,0,0,1,.76-.71.69.69,0,0,1,.75.71.71.71,0,0,1-.75.71A.72.72,0,0,1,90.14,72.84Zm.21,2h1.09V81.4H90.35Z"/><path class="cls-5" d="M94.65,78.15a3.18,3.18,0,0,1,3.15-3.43,2.75,2.75,0,0,1,1.9.77l-.56.73a1.91,1.91,0,0,0-1.31-.58c-1.17,0-2,1-2,2.51s.82,2.5,2,2.5A2.28,2.28,0,0,0,99.34,80l.47.73a3.09,3.09,0,0,1-2.1.83C96,81.56,94.65,80.31,94.65,78.15Z"/><path class="cls-5" d="M102,78.15a3,3,0,1,1,3,3.41A3.13,3.13,0,0,1,102,78.15Zm4.92,0c0-1.5-.77-2.51-1.89-2.51s-1.89,1-1.89,2.51.76,2.5,1.89,2.5S106.89,79.65,106.89,78.15Z"/><path class="cls-5" d="M111.24,74.89h.9l.09.94h0a3.12,3.12,0,0,1,2.18-1.11c1.37,0,2,.89,2,2.56V81.4h-1.09v-4c0-1.22-.37-1.74-1.23-1.74-.68,0-1.13.34-1.79,1V81.4h-1.09Z"/><g class="cls-7"><rect class="cls-8" x="52.06" y="143.17" width="100.17" height="100.17"/><path class="cls-9" d="M142.48,245.1h0a5.35,5.35,0,0,1-7.21-1.21l-20.36-26.65a7.58,7.58,0,0,1,1.83-10.9h0a7.58,7.58,0,0,1,10.76,2.55L144.17,238A5.35,5.35,0,0,1,142.48,245.1Z"/><path class="cls-10" d="M139.53,246.56a5.9,5.9,0,0,1-4.71-2.33l-20.36-26.64a8.14,8.14,0,1,1,13.53-9l16.67,29.09a5.94,5.94,0,0,1-1.87,7.87A5.83,5.83,0,0,1,139.53,246.56Zm-18.62-40.92a7,7,0,0,0-5.55,11.26l20.35,26.65a4.82,4.82,0,0,0,6.46,1.08h0a4.8,4.8,0,0,0,1.5-6.37L127,209.17a7,7,0,0,0-4.47-3.34A7.55,7.55,0,0,0,120.91,205.64Z"/><path class="cls-11" d="M63.6,191.52h0a5.32,5.32,0,0,1,7.25.43A137.36,137.36,0,0,0,80,204.13c5.59,6.63,14.57,12.9,13.79,11.9A7.51,7.51,0,0,1,93.12,227h0c-3.34,2.78-8.48,5.35-11,1.84,0,0-6.85-9.45-11.22-15.5a96.44,96.44,0,0,1-8.16-14.59A5.3,5.3,0,0,1,63.6,191.52Z"/><path class="cls-10" d="M85.49,231a4.92,4.92,0,0,1-.67,0,4.38,4.38,0,0,1-3.11-1.85c-.07-.1-6.91-9.52-11.22-15.51A96.17,96.17,0,0,1,62.3,199a5.79,5.79,0,0,1,1-7.8h0a5.8,5.8,0,0,1,7.89.46l0,.07a139.34,139.34,0,0,0,9.08,12.14,66.46,66.46,0,0,0,13.55,11.85.44.44,0,0,0-.48.65l.71-.62a8,8,0,0,1-.68,11.62C92.35,228.23,88.77,231,85.49,231ZM67,190.77a4.83,4.83,0,0,0-3.1,1.12h0a4.84,4.84,0,0,0-.81,6.56l0,0,0,0A95.67,95.67,0,0,0,71.25,213c4.32,6,11.15,15.41,11.22,15.5A3.43,3.43,0,0,0,84.93,230c2.07.26,5-1,7.89-3.4a7,7,0,0,0,.81-10,7.3,7.3,0,0,1-1.63-1c-1-.71-2.27-1.67-3.53-2.69a68.43,68.43,0,0,1-8.87-8.49,138.54,138.54,0,0,1-9.12-12.19A4.86,4.86,0,0,0,67,190.77Z"/><path class="cls-12" d="M79.14,212.87c-.9-5.75,4.75-10.55,11.21-9.52a125.18,125.18,0,0,0,13.3,1.39,123.25,123.25,0,0,0,13.6-.12c6.47-.41,11.66,4.78,10.35,10.39l-7.15,25.77c-1.53,6.51-7.85,11.23-15.38,11.49-1.07,0-2.18,0-3.31,0s-2.1-.15-3.1-.28c-7.35-.95-13.12-6.14-14.14-12.64Z"/><path class="cls-10" d="M103.63,252.87c-.64,0-1.27,0-1.9-.05-1,0-2.09-.14-3.15-.28C91,251.56,85,246.18,84,239.44L78.58,213a8.37,8.37,0,0,1,2.47-7.29,10.85,10.85,0,0,1,9.39-2.87,119.91,119.91,0,0,0,26.77,1.27,11,11,0,0,1,9.07,3.69,8.43,8.43,0,0,1,1.87,7.39v0L121,240.92c-1.58,6.74-8.12,11.64-15.9,11.92Zm-23.94-40.1,5.39,26.49c1,6.24,6.59,11.25,13.65,12.16,1,.13,2,.22,3.06.27s2.16.06,3.26,0c7.27-.26,13.38-4.8,14.85-11.06v0l7.15-25.76a7.2,7.2,0,0,0-1.63-6.39,9.82,9.82,0,0,0-8.14-3.29,120.52,120.52,0,0,1-27-1.29,9.76,9.76,0,0,0-8.42,2.56A7.23,7.23,0,0,0,79.69,212.77Z"/><path class="cls-6" d="M110.09,214.64a7.68,7.68,0,0,1-9.59,10.08,7.69,7.69,0,0,1-1.21-14,7.69,7.69,0,0,1,10.8,3.94Z"/><path class="cls-13" d="M102.9,225.86a8.2,8.2,0,0,1-2.64-.43A8.43,8.43,0,0,1,98.93,210a8.43,8.43,0,0,1,11.86,4.32h0a8.42,8.42,0,0,1-7.89,11.49Zm0-15.31a6.44,6.44,0,0,0-3.22.8A6.93,6.93,0,0,0,100.74,224,6.92,6.92,0,0,0,107,211.83l0,0A6.76,6.76,0,0,0,102.89,210.55Z"/><path class="cls-13" d="M102.9,226a8.45,8.45,0,0,1-8.45-8.07A8.47,8.47,0,0,1,98.88,210a8.53,8.53,0,0,1,12,4.36h0a8.52,8.52,0,0,1-8,11.62Zm0-15.3a6.34,6.34,0,0,0-3.17.78h0a6.83,6.83,0,0,0,1.07,12.47,6.82,6.82,0,0,0,6.16-12l0,0A6.74,6.74,0,0,0,102.89,210.65Z"/><path class="cls-5" d="M102.73,214.4c.24-.07.55-.26.79-.07s.64.34.51.71a4.89,4.89,0,0,0,.82.88c.07,0,.1,0,.12-.07l-.08,0c.1-.09.34.06.49,0a.38.38,0,0,1,.31.13,2.25,2.25,0,0,0,.19.38l.05,0a2.47,2.47,0,0,0,.19.36c.51.17.75.8,1.2,1.06a7.13,7.13,0,0,0,1.77,1c0,.09.08.09.12.11v0a.42.42,0,0,0-.28-.06c.08.13.29.07.33.22H109s0,0,.08.06-.22,0-.29-.11a8.73,8.73,0,0,1-1.3-.64h0a5.1,5.1,0,0,0,1.15.66c.12.08.31.12.38.25s-.11,0-.13.07l-.1-.05s0,0,0,.05l.07.06a5.45,5.45,0,0,1-1.45-.76c-.22-.14-.43-.26-.64-.42,0,0-.07,0-.08,0,.24.19.49.3.73.48a4,4,0,0,1-1.31-1c-.16-.16-.38-.5-.65-.44-.1.06-.26,0-.37.1s-.15-.1-.24,0-.29,0-.34.21-.39,0-.43.18v.08c-.28.13-.66.08-.86.36-.06.06-.17,0-.23.06s0-.06,0-.06-.11,0-.17.06.06-.09,0-.13-.18.11-.28.17c0-.11.14-.13.18-.23s-.12,0-.18,0,.09-.11,0-.11c.07-.12.23-.08.27-.21h-.11l.34-.27s-.13-.12-.2,0,0,0,0,0-.13,0-.2,0,0,0,0-.05h-.05c.05,0,.1-.11.16-.15l0,0a6,6,0,0,1,.64-.38l0,0a.15.15,0,0,0-.23,0c.19,0,0-.22.2-.25a.62.62,0,0,1,.28-.35c-.18-.17-.25-.49-.46-.59,0-.13-.14,0-.16-.13-.25,0-.55.11-.72-.12a1,1,0,0,0-.42,0,1.38,1.38,0,0,0-.23.36,1.36,1.36,0,0,0-.25.36,1.11,1.11,0,0,1-.51.47v0c-.15.22-.49.13-.69.36v-.06a.13.13,0,0,0-.15.09v0c-.1,0-.17.09-.21.15-.24.26-.63.26-.89.47,0,0,0,0,0,0-.46.1-.69.46-1,.81a1.61,1.61,0,0,1-.34.35c0,.12-.14.16-.19.22,0-.1.18-.19.19-.31-.11.06-.14.19-.27.25s.08-.1,0-.16l-.17.13.16-.22c-.09,0-.17.16-.27.18s-.07,0-.13,0h0l.24-.24c-.1-.05-.21.08-.28.06s0-.08-.08-.06a.42.42,0,0,0,.17-.18c-.06,0-.13,0-.19.05s.16-.11.12-.23c-.19,0-.16.16-.31.21.15-.22.38-.35.53-.59h0a3.78,3.78,0,0,1,1-.75c.29-.18.69-.27.9-.56a2.44,2.44,0,0,0,.23-.33s.05,0,.07-.06a1.28,1.28,0,0,1,.69-.22c.11-.11.32,0,.41-.2.29-.36.41-.81.66-1.17.09-.12.18-.31.35-.35A6.08,6.08,0,0,1,102.73,214.4Z"/><path class="cls-10" d="M64.24,202.34h-.09a.57.57,0,0,1-.46-.66A8.19,8.19,0,0,1,74,196.16a.58.58,0,0,1,.3.75.56.56,0,0,1-.74.29,7.11,7.11,0,0,0-8.72,4.67A.57.57,0,0,1,64.24,202.34Z"/><path class="cls-10" d="M134.82,241.36a6.09,6.09,0,0,1-1.86-.26.56.56,0,0,1-.34-.72.56.56,0,0,1,.71-.35,7.1,7.1,0,0,0,8.37-5.28.57.57,0,1,1,1.13.11,7.61,7.61,0,0,1-3.94,5.37A8.09,8.09,0,0,1,134.82,241.36Z"/><path class="cls-10" d="M105,233.13H104c-13.29-.3-21.3-6.93-22.77-8.26A.57.57,0,1,1,82,224c1.42,1.28,9.15,7.68,22,8a34.57,34.57,0,0,0,19.56-5.18.56.56,0,0,1,.78.16.55.55,0,0,1-.15.78A35,35,0,0,1,105,233.13Z"/><path class="cls-14" d="M134.87,187.25a14.65,14.65,0,0,1-13.14,15.16,101.8,101.8,0,0,1-19.51.24,96,96,0,0,1-18-3.58,14.68,14.68,0,0,1-10.14-17.34l0-.13a29.41,29.41,0,0,1,31.4-22.72l2.71.25a29.42,29.42,0,0,1,26.67,28.12Z"/><path class="cls-10" d="M110.44,203.58q-4.29,0-8.27-.37A94.67,94.67,0,0,1,84,199.61a15.28,15.28,0,0,1-10.53-18l0-.14a30,30,0,0,1,32-23.16l2.7.26a30,30,0,0,1,27.18,28.66h0A15.24,15.24,0,0,1,121.78,203,111.63,111.63,0,0,1,110.44,203.58Zm-7.67-44.26a28.83,28.83,0,0,0-28.13,22.4l0,.14a14.13,14.13,0,0,0,9.75,16.66,93.25,93.25,0,0,0,17.92,3.56,99.68,99.68,0,0,0,19.39-.23,14.12,14.12,0,0,0,12.64-14.57h0a28.88,28.88,0,0,0-26.16-27.59l-2.71-.25Q104.1,159.32,102.77,159.32Z"/><path class="cls-15" d="M118.57,183.11a134.39,134.39,0,0,0-28.53-2A5.53,5.53,0,0,1,84.13,175l.09-1.27a7.44,7.44,0,0,1,6.88-6.83,135.89,135.89,0,0,1,28.53,2.25,7.52,7.52,0,0,1,5.92,7.7l-.1,1.24C125.19,181.56,122.12,183.73,118.57,183.11Z"/><path class="cls-16" d="M118.49,183.35a5.58,5.58,0,0,1-.57-.08,135.4,135.4,0,0,0-27.27-1.93,6.58,6.58,0,0,1-5-1.91,6.42,6.42,0,0,1-1.74-5.08,8.47,8.47,0,0,1,7.85-7.78A134.82,134.82,0,0,1,119,168.73a8.15,8.15,0,0,1,5,3.16,8.31,8.31,0,0,1,1.75,5.61,6.18,6.18,0,0,1-2.52,4.65A6.86,6.86,0,0,1,118.49,183.35ZM91.2,167.17a7.86,7.86,0,0,0-6.74,7.14A5.91,5.91,0,0,0,86.07,179a6.06,6.06,0,0,0,4.62,1.77A134.74,134.74,0,0,1,118,182.72a6.41,6.41,0,0,0,4.92-1.05,5.72,5.72,0,0,0,2.33-4.3,7.65,7.65,0,0,0-1.62-5.17,7.54,7.54,0,0,0-4.62-2.91,134.8,134.8,0,0,0-27.27-2.15Z"/><path class="cls-17" d="M135.17,178.42h-2.64c0-12.06-10.77-21.39-25.65-22.18a34.07,34.07,0,0,0-18.08,3.64,21.57,21.57,0,0,0-10.54,12.46l-2.51-.8a24.16,24.16,0,0,1,11.78-14,36.62,36.62,0,0,1,19.49-4c7.91.42,15.09,3.16,20.22,7.71A22.72,22.72,0,0,1,135.17,178.42Z"/><path class="cls-17" d="M68.55,172.65c1.55-3.52,3.58-6.13,5.09-5.65v0l.14.07,3,1.38-5.86,13.23-3-1.37-.14-.07h0c-1.35-.85-.81-4,.75-7.56Z"/><path class="cls-18" d="M72,174.08c2.1-4.64,4.61-8.19,6.21-7.76v0l.14.06,3.1,1.4-7.88,17.48-3.1-1.4-.15-.06v0c-1.38-.91-.43-5,1.66-9.68Z"/><circle class="cls-19" cx="96.25" cy="173.94" r="4.14"/><circle class="cls-20" cx="98" cy="172.69" r="1.55"/><circle class="cls-19" cx="113.24" cy="175.08" r="4.14"/><circle class="cls-20" cx="114.99" cy="173.83" r="1.63"/><path class="cls-5" d="M114.32,189.28c-.3,4-5.23,7-11,6.53s-10.22-4.07-9.92-8.11,5-1.5,10.76-1.06S114.63,185.24,114.32,189.28Z"/><path class="cls-10" d="M104.43,196.41c-.39,0-.78,0-1.17,0-6.08-.46-10.77-4.36-10.44-8.71a2.88,2.88,0,0,1,1-2.2c1.22-.93,3.23-.55,5.78-.07a38.41,38.41,0,0,0,4.57.68,39.1,39.1,0,0,0,4.59,0c2.47-.1,4.42-.18,5.45.88a2.93,2.93,0,0,1,.67,2.36C114.58,193.38,110,196.41,104.43,196.41ZM95.91,186a2.26,2.26,0,0,0-1.39.34,1.83,1.83,0,0,0-.57,1.39c-.28,3.72,3.93,7.08,9.4,7.49s10.13-2.28,10.41-6h0a1.88,1.88,0,0,0-.35-1.49c-.68-.7-2.49-.63-4.59-.54a41.52,41.52,0,0,1-4.73,0,41.65,41.65,0,0,1-4.69-.7A21.13,21.13,0,0,0,95.91,186Z"/><path class="cls-17" d="M136.23,186l-1.46,0c-.1,7.34-3,10.67-9,11.14l-8.9-.32c-.25-1-1.72-1.82-3.52-2-2.06-.18-3.24.62-3.34,1.74s.91,2.14,3,2.33a5.2,5.2,0,0,0,3.2-.62c3.13.06,7.1.13,9.84.07,9-.49,10.23-8,10.25-12.38Z"/><path class="cls-17" d="M141.08,180c-.61-3.69-1.79-6.67-3.17-6.64h0l-2.93.47,2.26,13.88,2.94-.48v0c1.32-.41,1.51-3.51.91-7.2Z"/><path class="cls-18" d="M137.66,180.33c-.8-4.89-2.15-8.86-3.55-8.89v0l-3,.48,3,18.38,2.94-.48v0c1.31-.47,1.35-4.55.55-9.44Z"/></g><rect class="cls-3" x="102.1" y="131.47" width="1" height="1.5"/><path class="cls-3" d="M103.1,143.37h-1v-2.6h1Zm0-5.2h-1v-2.6h1Z"/><rect class="cls-3" x="102.1" y="145.97" width="1" height="1.5"/><rect class="cls-3" x="102.1" y="238.76" width="1" height="1.5"/><path class="cls-3" d="M103.1,250.66h-1v-2.6h1Zm0-5.2h-1v-2.6h1Z"/><rect class="cls-3" x="102.1" y="253.26" width="1" height="1.5"/><rect class="cls-3" x="150.07" y="87.42" width="1.5" height="1"/><path class="cls-3" d="M162,88.42h-2.6v-1H162Zm-5.2,0h-2.6v-1h2.6Z"/><rect class="cls-3" x="164.57" y="87.42" width="1.5" height="1"/><path class="cls-5" d="M120.59,300.73a2.45,2.45,0,0,1-1.76-.73L102.6,283.78,86.38,300a2.5,2.5,0,1,1-3.53-3.54l18-18a2.49,2.49,0,0,1,3.53,0l18,18a2.5,2.5,0,0,1-1.77,4.27Z"/></g></g></svg>