<svg xmlns="http://www.w3.org/2000/svg" viewBox="0 0 200 65"><defs><style>.cls-1{fill:#3cbaad;}.cls-2{fill:#fff;}</style></defs><g id="圖層_2" data-name="圖層 2"><g id="圖層_1-2" data-name="圖層 1"><rect class="cls-1" width="200" height="65" rx="4"/><path class="cls-2" d="M56.78,29.09h2.37v4.66h4.48V29.09H66V40.93H63.63V35.81H59.15v5.12H56.78Z"/><path class="cls-2" d="M70.14,36.47a4.32,4.32,0,1,1,8.61,0,4.32,4.32,0,1,1-8.61,0Zm6.21,0c0-1.7-.69-2.8-1.91-2.8s-1.9,1.1-1.9,2.8.69,2.77,1.9,2.77S76.35,38.15,76.35,36.47Z"/><path class="cls-2" d="M81.54,32h2.37l1.32,4.47c.22.88.48,1.81.72,2.72H86c.22-.91.48-1.84.72-2.72L88.06,32h2.26l-3,9H84.6Z"/><path class="cls-2" d="M93.11,36.47a4.39,4.39,0,0,1,4.18-4.72c2.47,0,3.75,1.81,3.75,4.29a4,4,0,0,1-.12,1.07H95.4a2.35,2.35,0,0,0,2.48,2.24,3.69,3.69,0,0,0,2-.62l.8,1.44a5.73,5.73,0,0,1-3.14,1A4.35,4.35,0,0,1,93.11,36.47ZM99,35.56c0-1.22-.55-2-1.7-2a2,2,0,0,0-1.95,2Z"/><path class="cls-2" d="M105,32h1.92l.16,1.59h.06a3.11,3.11,0,0,1,2.55-1.81,2.52,2.52,0,0,1,1,.19l-.41,2a3,3,0,0,0-.93-.14c-.7,0-1.55.46-2.06,1.76v5.34H105Z"/><path class="cls-2" d="M117.93,36a16.43,16.43,0,0,1-3.09,5,14.9,14.9,0,0,0-1.78-1.19,11.14,11.14,0,0,0,2.82-4.4Zm3.7-1.75v8.1h-2v-8.1h-6v-1.9h14.23v1.9Zm4.75-3.94H115.1V28.39h11.28Zm-.93,5a20.76,20.76,0,0,1,2.69,4.77l-2,.9a20.09,20.09,0,0,0-2.51-4.88Z"/><path class="cls-2" d="M131.34,41a7.91,7.91,0,0,0,2-2.72l1.59.7a10,10,0,0,1-2,3Zm14.29-8.66H131.78V30.87h3.35a6,6,0,0,0-.32-.88l1.2-.24h-3.44V28.27h5.18a7.31,7.31,0,0,0-.27-.75l1.86-.34a7,7,0,0,1,.46,1.09h5v1.48H141.5l1.28.22c-.19.32-.35.62-.51.9h3.36ZM143.9,37.8H139a11.49,11.49,0,0,1,1.68,1.05L139.52,40A11.15,11.15,0,0,0,137,38.44l.66-.64h-4.07V32.92H143.9Zm-3.71,2.83c.59,0,.69-.18.77-1.3a5.6,5.6,0,0,0,1.61.6c-.21,1.77-.72,2.22-2.21,2.22h-2.57c-2,0-2.52-.46-2.52-2V38.5h1.86v1.67c0,.41.13.46.85.46ZM142,34.1h-6.62v.69H142Zm0,1.81h-6.62v.69H142Zm-5.41-6.16a6.9,6.9,0,0,1,.45,1.12h3.27c.16-.37.33-.79.44-1.12Zm7.25,8.38a12.41,12.41,0,0,1,2,2.84l-1.65.73a11.89,11.89,0,0,0-1.84-2.89Z"/></g></g></svg>