<svg xmlns="http://www.w3.org/2000/svg" viewBox="0 0 201 66"><defs><style>.cls-1{fill:none;stroke:#3cbaad;stroke-miterlimit:10;}.cls-2{fill:#3cbaad;}</style></defs><g id="圖層_2" data-name="圖層 2"><g id="圖層_1-2" data-name="圖層 1"><rect class="cls-1" x="0.5" y="0.5" width="200" height="65" rx="4"/><path class="cls-2" d="M53.52,29.59h2.37v4.66h4.48V29.59h2.35V41.43H60.37V36.31H55.89v5.12H53.52Z"/><path class="cls-2" d="M67,35.46c0-3.85,2.16-6.09,5.29-6.09s5.3,2.25,5.3,6.09-2.16,6.2-5.3,6.2S67,39.31,67,35.46Zm8.18,0c0-2.54-1.12-4.06-2.89-4.06s-2.88,1.52-2.88,4.06,1.12,4.15,2.88,4.15S75.22,38,75.22,35.46Z"/><path class="cls-2" d="M80.22,29.59H82.7l1.57,5.76c.37,1.31.61,2.5,1,3.83h.08c.37-1.33.64-2.52,1-3.83l1.54-5.76h2.4L86.65,41.43H83.84Z"/><path class="cls-2" d="M93.64,29.59h7.27v2H96V34.3h4.17v2H96v3.17h5.08v2H93.64Z"/><path class="cls-2" d="M111.94,41.43,109.5,37h-1.65v4.48h-2.37V29.59h4.13c2.49,0,4.45.86,4.45,3.59a3.37,3.37,0,0,1-2.25,3.4l2.77,4.85Zm-4.09-6.35h1.54c1.52,0,2.35-.64,2.35-1.9s-.83-1.72-2.35-1.72h-1.54Z"/><path class="cls-2" d="M122.19,36.46a16.43,16.43,0,0,1-3.09,5,14.9,14.9,0,0,0-1.78-1.19,11.14,11.14,0,0,0,2.82-4.4Zm3.7-1.75v8.1h-2v-8.1h-6v-1.9h14.23v1.9Zm4.75-3.94H119.36V28.89h11.28Zm-.93,5a20.76,20.76,0,0,1,2.69,4.77l-2,.9a20.09,20.09,0,0,0-2.51-4.88Z"/><path class="cls-2" d="M135.6,41.5a7.91,7.91,0,0,0,2-2.72l1.59.7a10,10,0,0,1-2,3Zm14.29-8.66H136V31.37h3.35a6,6,0,0,0-.32-.88l1.2-.24h-3.44V28.77H142c-.08-.25-.17-.52-.27-.75l1.86-.33a6.49,6.49,0,0,1,.46,1.08h5v1.48h-3.28l1.28.22c-.19.32-.35.62-.51.9h3.36Zm-1.73,5.46h-4.9a11.49,11.49,0,0,1,1.68,1.05l-1.16,1.17a11.15,11.15,0,0,0-2.52-1.58l.66-.64h-4.07V33.42h10.31Zm-3.71,2.83c.59,0,.69-.18.77-1.3a5.6,5.6,0,0,0,1.61.6c-.21,1.77-.72,2.22-2.21,2.22h-2.57c-2,0-2.52-.46-2.52-2V39h1.86v1.67c0,.41.13.46.85.46Zm1.82-6.53h-6.62v.69h6.62Zm0,1.81h-6.62v.69h6.62Zm-5.41-6.16a6.9,6.9,0,0,1,.45,1.12h3.27c.16-.37.33-.79.44-1.12Zm7.25,8.38a12.41,12.41,0,0,1,2,2.84l-1.65.73a11.89,11.89,0,0,0-1.84-2.89Z"/></g></g></svg>