<svg xmlns="http://www.w3.org/2000/svg" xmlns:xlink="http://www.w3.org/1999/xlink" viewBox="0 0 203.84 431"><defs><style>.cls-1,.cls-22,.cls-23,.cls-25,.cls-26,.cls-27,.cls-3{fill:none;}.cls-2{fill:#d32432;}.cls-3{stroke:#d32432;}.cls-22,.cls-23,.cls-25,.cls-26,.cls-3{stroke-miterlimit:10;}.cls-4{fill:#ef7800;}.cls-5{fill:#fff;}.cls-6{fill:#00a19b;}.cls-7{clip-path:url(#clip-path);}.cls-8{fill:url(#linear-gradient);}.cls-9{fill:url(#linear-gradient-2);}.cls-10{fill:#3fb1ea;}.cls-11{fill:url(#linear-gradient-3);}.cls-12{fill:url(#linear-gradient-4);}.cls-13{fill:#009d9a;}.cls-14{fill:#a0eae4;}.cls-15{fill:url(#linear-gradient-5);}.cls-16{fill:url(#linear-gradient-6);}.cls-17{fill:url(#linear-gradient-7);}.cls-18{fill:#595963;}.cls-19{fill:#79798c;}.cls-20{fill:#0055b2;}.cls-21{fill:#f0f8ff;}.cls-22,.cls-23,.cls-25{stroke:#1c1c1c;}.cls-23{stroke-dasharray:2.6 2.6;}.cls-24{fill:#1c1c1c;}.cls-25{stroke-dasharray:2.77 2.77;}.cls-26,.cls-27{stroke:#fff;}.cls-27{stroke-linecap:round;stroke-linejoin:round;stroke-width:3px;}</style><clipPath id="clip-path"><circle class="cls-1" cx="102.6" cy="284.15" r="30"/></clipPath><linearGradient id="linear-gradient" x1="137.64" y1="247.65" x2="68.93" y2="318.61" gradientUnits="userSpaceOnUse"><stop offset="0.12" stop-color="#97cf9e"/><stop offset="0.54" stop-color="#28aea7"/></linearGradient><linearGradient id="linear-gradient-2" x1="-864.96" y1="1464.68" x2="-878.45" y2="1432.83" gradientTransform="translate(585.24 -1320.93) rotate(-15.09)" gradientUnits="userSpaceOnUse"><stop offset="0" stop-color="#e1f1f9"/><stop offset="0.29" stop-color="#f8fbff"/><stop offset="1" stop-color="#a6d4f4"/></linearGradient><linearGradient id="linear-gradient-3" x1="971.67" y1="267.92" x2="991.98" y2="296.54" gradientTransform="translate(-909.03 70.51) rotate(-3.25)" gradientUnits="userSpaceOnUse"><stop offset="0" stop-color="#e1f1f9"/><stop offset="0.22" stop-color="#f8fbff"/><stop offset="1" stop-color="#a6d4f4"/></linearGradient><linearGradient id="linear-gradient-4" x1="1115.65" y1="29.84" x2="1115.65" y2="82.96" gradientTransform="translate(-1009.47 207.52) rotate(2.77)" gradientUnits="userSpaceOnUse"><stop offset="0.19" stop-color="#f8fbff"/><stop offset="0.83" stop-color="#a6d4f4"/></linearGradient><linearGradient id="linear-gradient-5" x1="835.72" y1="261.14" x2="835.72" y2="302.64" gradientTransform="translate(-732)" xlink:href="#linear-gradient-2"/><linearGradient id="linear-gradient-6" x1="835.69" y1="277.5" x2="836.62" y2="266.11" gradientTransform="translate(-732)" gradientUnits="userSpaceOnUse"><stop offset="0" stop-color="#51a3e5"/><stop offset="0.51" stop-color="#c0e4ff"/><stop offset="1" stop-color="#51a3e5"/></linearGradient><linearGradient id="linear-gradient-7" x1="835.78" y1="276.9" x2="836.53" y2="266.62" gradientTransform="translate(-732)" gradientUnits="userSpaceOnUse"><stop offset="0" stop-color="#4888bc"/><stop offset="0.51" stop-color="#61a2f3"/><stop offset="1" stop-color="#4888bc"/></linearGradient></defs><g id="圖層_2" data-name="圖層 2"><g id="圖層_1-2" data-name="圖層 1"><path class="cls-2" d="M5.84,362.65h-1a1.63,1.63,0,0,0-1.78-1.46,1.75,1.75,0,0,0-1.58,1,4.59,4.59,0,0,0-.56,2.4c0,.05,0,.16,0,.31H1a2.3,2.3,0,0,1,.92-1,2.38,2.38,0,0,1,1.33-.37,2.59,2.59,0,0,1,2,.79,3.15,3.15,0,0,1-.07,4.14,2.83,2.83,0,0,1-2.08.84A2.69,2.69,0,0,1,.74,368.1,5.41,5.41,0,0,1,0,365a6.16,6.16,0,0,1,.8-3.34,2.6,2.6,0,0,1,2.31-1.34A2.46,2.46,0,0,1,5.84,362.65Zm-4.17,2.23a2,2,0,0,0-.55,1.46,2.06,2.06,0,0,0,.52,1.48,1.8,1.8,0,0,0,1.43.61,1.81,1.81,0,0,0,1.4-.59A2.19,2.19,0,0,0,5,366.32a2,2,0,0,0-.52-1.45,1.85,1.85,0,0,0-1.42-.56A1.88,1.88,0,0,0,1.67,364.88Z"/><path class="cls-2" d="M14,361.71a7.38,7.38,0,0,1,0,6.19,2.53,2.53,0,0,1-2.31,1.36,2.51,2.51,0,0,1-2.32-1.36,7.38,7.38,0,0,1,0-6.19,2.49,2.49,0,0,1,2.32-1.35A2.5,2.5,0,0,1,14,361.71Zm-4,.72a8,8,0,0,0,0,4.75,1.72,1.72,0,0,0,3.31,0,7.81,7.81,0,0,0,0-4.75,1.73,1.73,0,0,0-3.31,0Z"/><path class="cls-2" d="M22.6,363.72a3.58,3.58,0,0,1,.71,2.29,3.69,3.69,0,0,1-.69,2.27,2.52,2.52,0,0,1-2.08,1,2.23,2.23,0,0,1-2.05-1.3v3.51h-1v-8.58h.9v1a2.21,2.21,0,0,1,2.06-1.19A2.51,2.51,0,0,1,22.6,363.72Zm-3.68.53a2.85,2.85,0,0,0-.46,1.7v.12a2.67,2.67,0,0,0,.52,1.74,1.64,1.64,0,0,0,1.36.66,1.79,1.79,0,0,0,1.52-.7,3,3,0,0,0,.47-1.76,3.19,3.19,0,0,0-.44-1.75,1.72,1.72,0,0,0-1.52-.75A1.65,1.65,0,0,0,18.92,364.25Z"/><path class="cls-2" d="M26.77,362.89l1.61,2.21L30,362.89H31.1l-2.19,2.91,2.45,3.29H30.23l-1.85-2.58-1.86,2.58H25.38l2.46-3.29-2.2-2.91Z"/><path class="cls-2" d="M93.79,422.18h-1A1.63,1.63,0,0,0,91,420.72a1.74,1.74,0,0,0-1.58,1,4.49,4.49,0,0,0-.57,2.4,2.24,2.24,0,0,0,0,.31h0a2.48,2.48,0,0,1,2.26-1.4,2.66,2.66,0,0,1,2,.79,3.15,3.15,0,0,1-.07,4.14,2.84,2.84,0,0,1-2.08.84,2.69,2.69,0,0,1-2.35-1.16,5.37,5.37,0,0,1-.74-3.06,6.13,6.13,0,0,1,.8-3.33,2.57,2.57,0,0,1,2.3-1.35A2.47,2.47,0,0,1,93.79,422.18Zm-4.18,2.23a2.27,2.27,0,0,0,0,2.94A1.8,1.8,0,0,0,91,428a1.85,1.85,0,0,0,1.4-.58,2.24,2.24,0,0,0,.54-1.53,2,2,0,0,0-.53-1.45,1.85,1.85,0,0,0-1.41-.56A1.9,1.9,0,0,0,89.61,424.41Z"/><path class="cls-2" d="M102,421.25a7.38,7.38,0,0,1,0,6.19,2.55,2.55,0,0,1-2.32,1.35,2.51,2.51,0,0,1-2.31-1.35,7.29,7.29,0,0,1,0-6.19,2.46,2.46,0,0,1,2.31-1.36A2.51,2.51,0,0,1,102,421.25ZM98,422a6.27,6.27,0,0,0-.36,2.37,6.44,6.44,0,0,0,.36,2.38,1.73,1.73,0,0,0,3.31,0,6.42,6.42,0,0,0,.37-2.38,6.25,6.25,0,0,0-.37-2.37A1.72,1.72,0,0,0,98,422Z"/><path class="cls-2" d="M110.55,423.25a4,4,0,0,1,0,4.56,2.46,2.46,0,0,1-2.07,1,2.24,2.24,0,0,1-2-1.29V431h-1v-8.58h.9v1a2.19,2.19,0,0,1,2.06-1.19A2.51,2.51,0,0,1,110.55,423.25Zm-3.68.53a2.87,2.87,0,0,0-.47,1.7v.12a2.66,2.66,0,0,0,.53,1.74,1.64,1.64,0,0,0,1.36.66,1.79,1.79,0,0,0,1.52-.7,3,3,0,0,0,.47-1.76,3.1,3.1,0,0,0-.45-1.75,1.72,1.72,0,0,0-1.51-.74A1.66,1.66,0,0,0,106.87,423.78Z"/><path class="cls-2" d="M114.72,422.42l1.6,2.21,1.6-2.21h1.13l-2.2,2.92,2.46,3.28h-1.14L116.32,426l-1.85,2.58h-1.14l2.46-3.28-2.2-2.92Z"/><line class="cls-3" x1="44.14" y1="337.39" x2="44.14" y2="385.32"/><path class="cls-2" d="M44.14,331.35a30.2,30.2,0,0,1-4.76,8.55l4.76-1.72,4.75,1.72A30.18,30.18,0,0,1,44.14,331.35Z"/><path class="cls-2" d="M44.14,391.35a30.15,30.15,0,0,0-4.76-8.54l4.76,1.72,4.75-1.72A30.12,30.12,0,0,0,44.14,391.35Z"/><line class="cls-3" x1="126.57" y1="407.79" x2="78.64" y2="407.79"/><path class="cls-2" d="M132.6,407.79a30.15,30.15,0,0,1-8.54-4.76l1.72,4.76-1.72,4.75A30.12,30.12,0,0,1,132.6,407.79Z"/><path class="cls-2" d="M72.6,407.79A30.2,30.2,0,0,0,81.15,403l-1.72,4.76,1.72,4.75A30.18,30.18,0,0,0,72.6,407.79Z"/><path class="cls-2" d="M93.18,108.15a5.36,5.36,0,0,1,.75,3.07,6.36,6.36,0,0,1-.8,3.33,2.66,2.66,0,0,1-2.31,1.35,2.46,2.46,0,0,1-2.73-2.3h1a1.62,1.62,0,0,0,1.78,1.47,1.8,1.8,0,0,0,1.58-1,4.71,4.71,0,0,0,.56-2.4c0-.06,0-.16,0-.31h0a2.45,2.45,0,0,1-2.25,1.4,2.58,2.58,0,0,1-2-.81,3.13,3.13,0,0,1,.08-4.11,2.74,2.74,0,0,1,2.08-.84A2.65,2.65,0,0,1,93.18,108.15Zm-3.73.26a2.17,2.17,0,0,0-.53,1.52,2,2,0,0,0,.53,1.46,1.82,1.82,0,0,0,1.41.56,1.88,1.88,0,0,0,1.4-.58,2.06,2.06,0,0,0,.56-1.46,2.09,2.09,0,0,0-.53-1.47,2,2,0,0,0-2.84,0Z"/><path class="cls-2" d="M102,108.35a7.38,7.38,0,0,1,0,6.19,2.55,2.55,0,0,1-2.32,1.36,2.5,2.5,0,0,1-2.31-1.36,7.29,7.29,0,0,1,0-6.19A2.47,2.47,0,0,1,99.63,107,2.52,2.52,0,0,1,102,108.35Zm-4,.72a8,8,0,0,0,0,4.75,1.71,1.71,0,0,0,1.65,1.24,1.73,1.73,0,0,0,1.66-1.24,7.81,7.81,0,0,0,0-4.75,1.71,1.71,0,0,0-1.66-1.23A1.69,1.69,0,0,0,98,109.07Z"/><path class="cls-2" d="M110.55,110.35a4,4,0,0,1,0,4.56,2.47,2.47,0,0,1-2.07,1,2.25,2.25,0,0,1-2-1.3v3.5h-1v-8.57h.9v1a2.18,2.18,0,0,1,2.06-1.19A2.5,2.5,0,0,1,110.55,110.35Zm-3.68.53a2.87,2.87,0,0,0-.47,1.7v.12a2.66,2.66,0,0,0,.53,1.74,1.6,1.6,0,0,0,1.35.66,1.82,1.82,0,0,0,1.53-.69,3,3,0,0,0,.46-1.77,3.13,3.13,0,0,0-.44-1.75,1.72,1.72,0,0,0-1.51-.74A1.65,1.65,0,0,0,106.87,110.88Z"/><path class="cls-2" d="M114.72,109.53l1.6,2.2,1.6-2.2h1.13l-2.2,2.91,2.46,3.29h-1.14l-1.85-2.58-1.85,2.58h-1.14l2.45-3.29-2.19-2.91Z"/><circle class="cls-4" cx="102.6" cy="192.69" r="45"/><path class="cls-5" d="M90.11,177.34V191.8H87.82v-.88H79.27v.9H77.09V177.34H81.7a20.28,20.28,0,0,0,.49-2.36l2.59.29c-.27.72-.56,1.42-.85,2.07Zm-10.84,2v1.86h8.55v-1.86Zm0,3.84v1.85h8.55v-1.85Zm8.55,5.7v-1.87H79.27v1.87Z"/><path class="cls-5" d="M104.85,189.31a15.78,15.78,0,0,0,2.12.13c1,0,3.93,0,5.15,0a7.33,7.33,0,0,0-.77,2.18h-4.48c-3.37,0-5.84-.56-7.48-3.17A9,9,0,0,1,97,191.87a9.86,9.86,0,0,0-1.75-1.42c2-1.46,2.85-4,3.17-7l2.18.2c-.09.76-.23,1.5-.38,2.18a4.9,4.9,0,0,0,2.42,2.88v-6.1H98.78v-2.05h9.9v2.05h-3.83v2.12h4.93v2h-4.93Zm-6.7-7.88H96v-4.51h6.68a13,13,0,0,0-.63-1.49l2.16-.59a11.61,11.61,0,0,1,.94,2.08h6.25v4.51h-2.22v-2.49H98.15Z"/><path class="cls-5" d="M131,187.39a9.92,9.92,0,0,1-2.11,2,2.16,2.16,0,0,0,1.35.52c.43,0,.54-.32.63-1.33a4.5,4.5,0,0,0,1.57.83c-.29,2-.88,2.45-2.31,2.45a4.27,4.27,0,0,1-3.08-1.39,21.44,21.44,0,0,1-3.65,1.39,10.21,10.21,0,0,0-1-1.7,20,20,0,0,0,3.61-1.13,10.43,10.43,0,0,1-.9-2.14h-3.51v.68l2.7-.14v1.44l-2.69.21V190c0,1-.19,1.37-.86,1.6a9.09,9.09,0,0,1-3,.27,6.82,6.82,0,0,0-.62-1.64,17.86,17.86,0,0,0,2,0c.27,0,.36-.07.36-.3v-.72l-3.46.25-.16-1.64,3.62-.16v-.79h-3.57v-1.57h3.57v-.72c-1,.09-1.93.14-2.81.16a5.93,5.93,0,0,0-.45-1.28,43.79,43.79,0,0,0,6.34-.74H116v-1.62h6.88v-.66h-5.12v-1.48h5.12v-.65h-6.07v-1.58H120a7.37,7.37,0,0,0-.69-1.08l1.88-.6a5.61,5.61,0,0,1,1.09,1.68h3.62a11,11,0,0,0,.8-1.73l2.37.45c-.32.47-.65.92-.93,1.28h3.11v1.58H125v.65h5.23v1.48H125v.66h7v1.62h-3.56a12.59,12.59,0,0,1,2.84,1.52l-.95,1.06h1.76v1.57h-2.7Zm-6.32-2.11a17.2,17.2,0,0,1-.29-2.34h2a14.22,14.22,0,0,0,.31,2.34h3a11.77,11.77,0,0,0-2.63-1.41l1.12-1.17h-5.33l1.17,1.21c-.74.16-1.59.31-2.49.43v.94Zm2.56,1.57a7.2,7.2,0,0,0,.55,1.15,6.77,6.77,0,0,0,1.32-1.15Z"/><path class="cls-5" d="M100.09,205.69a10.68,10.68,0,0,1-1.62,3.85,35.2,35.2,0,0,1,3.38,2.11l-1.42,1.73a32.86,32.86,0,0,0-3.4-2.29,12.72,12.72,0,0,1-5.53,2.4,7.08,7.08,0,0,0-1-2A11.31,11.31,0,0,0,95,209.94c-1.06-.59-2.16-1.15-3.11-1.64.41-.72.84-1.64,1.28-2.61H91.3l.16,1-2,.59v3.87c0,1-.2,1.55-.79,1.86a5.62,5.62,0,0,1-2.68.39,7,7,0,0,0-.62-1.94c.71,0,1.44,0,1.68,0s.34-.09.34-.34v-3.27l-2,.55L85,206.41c.68-.14,1.51-.36,2.41-.59V202H85.29v-2h2.14v-3.37H89.5V200h1.69v2H89.5v3.26l1.41-.4v-1.08h3a25.53,25.53,0,0,0,.83-2.68l2.19.31q-.31,1.16-.75,2.37h1.89c0-.38.07-.75.09-1.15l2.36,0c0,.37-.09.75-.13,1.11h1.64v1.91Zm-6.55-3.17h-2V198.7h3.9c-.12-.61-.28-1.27-.43-1.83l2.18-.33c.2.67.41,1.48.56,2.16h4v3.8H99.67v-1.92H93.54Zm2,3.17c-.29.69-.56,1.31-.83,1.89.59.31,1.24.61,1.87.94a7.82,7.82,0,0,0,1.24-2.83Z"/><path class="cls-5" d="M122.27,210.88v2H112.2v-1.33c-2.16.48-4.43.95-6.16,1.35l-.39-1.93,2.52-.41v-4.54h-2.29v-1.82h2.29v-1.31h-1.24v-.81c-.29.27-.6.54-.89.77a14.6,14.6,0,0,0-.74-2.2,12.3,12.3,0,0,0,3.55-4.17l1.57.72-.33.65a17.36,17.36,0,0,1,3,2.17l-.9,1.75-.56-.54v1.66H110v1.31h2.19v1.82H110v4.21l2.19-.41.08,1h1.91c.18-1.43.37-3.14.54-4.92H113v-2h1.92c.13-1.46.26-2.94.33-4.31h-1.8v-2H121c0,2-.09,4.18-.16,6.34h1.4v2h-1.48c-.07,1.8-.16,3.49-.25,4.92Zm-15-4.16a19.8,19.8,0,0,1,.65,3.08l-1.37.39a18.64,18.64,0,0,0-.58-3.11Zm4.12-5.59a20.51,20.51,0,0,0-2.3-1.71,18.4,18.4,0,0,1-1.31,1.71Zm-1.29,8.45a27.67,27.67,0,0,0,.63-3l1.49.41c-.34,1.06-.65,2.25-.93,3Zm6.48-3.62c-.16,1.8-.36,3.51-.52,4.92h2.3c.13-1.43.24-3.14.33-4.92Zm.56-6.34c-.11,1.37-.24,2.83-.36,4.31h2c0-1.44.09-2.92.12-4.31Z"/><circle class="cls-6" cx="102.6" cy="361.35" r="30"/><g class="cls-7"><rect class="cls-8" x="68.91" y="250.76" width="66.78" height="66.78"/><path class="cls-9" d="M129.19,318.71h0a3.56,3.56,0,0,1-4.81-.81l-13.57-17.76a5.05,5.05,0,0,1,1.22-7.27h0a5.05,5.05,0,0,1,7.17,1.7L130.31,314A3.56,3.56,0,0,1,129.19,318.71Z"/><path class="cls-10" d="M127.22,319.68a4,4,0,0,1-3.14-1.55l-13.57-17.76a5.43,5.43,0,1,1,9-6l11.11,19.39A4,4,0,0,1,129.4,319,3.89,3.89,0,0,1,127.22,319.68ZM114.81,292.4a4.68,4.68,0,0,0-3.7,7.51l13.57,17.76a3.2,3.2,0,0,0,4.3.73h0a3.19,3.19,0,0,0,1-4.25l-11.11-19.4a4.62,4.62,0,0,0-3-2.22A5.15,5.15,0,0,0,114.81,292.4Z"/><path class="cls-11" d="M76.6,283h0a3.54,3.54,0,0,1,4.83.28,92.3,92.3,0,0,0,6.08,8.13c3.72,4.42,9.71,8.6,9.19,7.93a5,5,0,0,1-.42,7.29h0c-2.22,1.85-5.65,3.57-7.35,1.23,0,0-4.57-6.3-7.48-10.34A63.56,63.56,0,0,1,76,287.79,3.54,3.54,0,0,1,76.6,283Z"/><path class="cls-10" d="M91.19,309.3a3.15,3.15,0,0,1-.44,0A2.93,2.93,0,0,1,88.67,308c0-.06-4.6-6.34-7.48-10.33A66.07,66.07,0,0,1,75.73,288a3.88,3.88,0,0,1,.67-5.2h0a3.87,3.87,0,0,1,5.26.31l0,0a92.9,92.9,0,0,0,6.06,8.09,44.63,44.63,0,0,0,9,7.91.27.27,0,0,0-.3.11.31.31,0,0,0,0,.32l.47-.42a5.31,5.31,0,0,1-.45,7.75C95.77,307.46,93.38,309.3,91.19,309.3ZM78.87,282.49a3.23,3.23,0,0,0-2.07.74h0a3.24,3.24,0,0,0-.54,4.38l0,0v0a64.9,64.9,0,0,0,5.41,9.67c2.88,4,7.44,10.27,7.48,10.34a2.33,2.33,0,0,0,1.64,1c1.38.17,3.35-.68,5.26-2.27a4.69,4.69,0,0,0,.54-6.68,4.49,4.49,0,0,1-1.08-.65c-.68-.48-1.52-1.11-2.36-1.79a46.33,46.33,0,0,1-5.91-5.66,91.4,91.4,0,0,1-6.08-8.13A3.23,3.23,0,0,0,78.87,282.49Z"/><path class="cls-12" d="M87,297.22c-.6-3.83,3.17-7,7.48-6.35a82.58,82.58,0,0,0,8.86.93,81.43,81.43,0,0,0,9.07-.08c4.31-.27,7.77,3.19,6.89,6.93l-4.76,17.18c-1,4.34-5.23,7.48-10.25,7.66-.72,0-1.46,0-2.21,0s-1.4-.1-2.07-.19c-4.9-.63-8.74-4.09-9.42-8.42Z"/><path class="cls-10" d="M103.29,323.89c-.43,0-.85,0-1.27,0-.69,0-1.39-.1-2.1-.19-5-.65-9-4.24-9.74-8.73l-3.59-17.66a5.59,5.59,0,0,1,1.64-4.86,7.25,7.25,0,0,1,6.27-1.92,82.25,82.25,0,0,0,8.82.92,80,80,0,0,0,9-.07,7.3,7.3,0,0,1,6,2.46,5.6,5.6,0,0,1,1.24,4.93h0l-4.77,17.17c-1,4.5-5.41,7.77-10.6,7.95Zm-16-26.74,3.59,17.66c.65,4.17,4.4,7.5,9.1,8.11.68.09,1.37.15,2,.18s1.44,0,2.17,0c4.85-.18,8.92-3.21,9.9-7.38h0l4.76-17.17a4.79,4.79,0,0,0-1.08-4.26,6.58,6.58,0,0,0-5.43-2.2,84.16,84.16,0,0,1-9.11.08,81.28,81.28,0,0,1-8.9-.94A6.53,6.53,0,0,0,88.76,293,4.8,4.8,0,0,0,87.33,297.15Z"/><path class="cls-13" d="M107.6,298.4a5.13,5.13,0,0,1-6.4,6.72,5.12,5.12,0,0,1-.8-9.35,5.2,5.2,0,0,1,5.41.34A5.3,5.3,0,0,1,107.6,298.4Z"/><path class="cls-14" d="M102.8,305.88a5.61,5.61,0,0,1-2.64-10.55,5.73,5.73,0,0,1,5.94.38,5.63,5.63,0,0,1,2,2.5h0a5.61,5.61,0,0,1-5.26,7.66Zm0-10.2a4.28,4.28,0,0,0-2.15.53,4.61,4.61,0,0,0,.71,8.43,4.61,4.61,0,0,0,4.16-8.11l0,0A4.51,4.51,0,0,0,102.8,295.68Z"/><path class="cls-14" d="M102.8,306a5.45,5.45,0,0,1-1.78-.3,5.68,5.68,0,0,1-.9-10.37,5.7,5.7,0,0,1,8,2.91h0A5.68,5.68,0,0,1,102.8,306Zm0-10.21a4.3,4.3,0,0,0-2.12.52h0a4.55,4.55,0,0,0,.71,8.31,4.55,4.55,0,0,0,5.69-6,4.61,4.61,0,0,0-1.58-2l0,0A4.5,4.5,0,0,0,102.8,295.74Z"/><path class="cls-5" d="M102.69,298.24c.16-.05.37-.17.53-.05s.42.24.33.48a3.41,3.41,0,0,0,.55.59.06.06,0,0,0,.08-.05l-.05,0c.06-.06.22,0,.33,0a.24.24,0,0,1,.2.09,1.49,1.49,0,0,0,.13.25l0,0a1.36,1.36,0,0,0,.13.24c.34.12.5.53.8.71a4.38,4.38,0,0,0,1.18.65c0,.06,0,.06.08.08h0a.27.27,0,0,0-.19,0c.06.09.2.05.22.14h-.15s0,0,.06,0-.15,0-.2-.06a6.9,6.9,0,0,1-.86-.43h0a3.37,3.37,0,0,0,.76.43c.08.05.21.08.25.17s-.07,0-.08.05l-.07,0s0,0,0,0l0,0a3.93,3.93,0,0,1-1-.51c-.14-.1-.28-.17-.42-.28s0,0-.06,0c.16.12.33.2.49.32a2.68,2.68,0,0,1-.87-.65c-.11-.11-.26-.33-.44-.29s-.17,0-.24.07-.1-.07-.16,0-.2,0-.23.13-.26,0-.29.13v.05c-.19.08-.44.06-.57.24s-.12,0-.15,0,0,0,0,0-.08,0-.11,0,0-.06,0-.09-.12.08-.18.12.09-.09.12-.16-.09,0-.12,0,0-.08,0-.08.15,0,.17-.13h-.07l.22-.19s-.08-.07-.13,0,0,0,0,0-.08,0-.13,0,0,0,0,0h0l.11-.1,0,0a4.64,4.64,0,0,1,.42-.25l0,0a.09.09,0,0,0-.15,0c.12,0,0-.15.13-.17a.39.39,0,0,1,.19-.23c-.12-.11-.17-.33-.31-.39s-.1,0-.1-.09c-.17,0-.37.08-.48-.08a.71.71,0,0,0-.29,0,1.58,1.58,0,0,0-.15.24,1.21,1.21,0,0,0-.17.25.69.69,0,0,1-.33.3h0c-.11.14-.33.08-.47.24v0a.08.08,0,0,0-.09.06v0c-.07,0-.11.05-.14.09s-.42.18-.59.32,0,0,0,0c-.31.07-.46.31-.67.54a1.31,1.31,0,0,1-.23.24c0,.07-.09.1-.13.14s.12-.12.13-.2-.09.12-.18.16.05-.06,0-.1l-.11.08.1-.14s-.11.11-.17.11,0,0-.09,0h0A1,1,0,0,0,99,301c-.07,0-.14.05-.19,0s0-.06,0,0,.09-.07.11-.13a.17.17,0,0,0-.12,0c0-.05.1-.08.07-.15s-.1.1-.21.13c.11-.14.26-.23.36-.38h0a2.63,2.63,0,0,1,.69-.51c.2-.11.46-.17.6-.36a1.5,1.5,0,0,0,.15-.23s0,0,0,0a.92.92,0,0,1,.46-.14c.08-.08.22,0,.27-.14a7.68,7.68,0,0,0,.44-.78c.06-.08.13-.2.24-.23A4.4,4.4,0,0,1,102.69,298.24Z"/><path class="cls-10" d="M77,290.21H77a.37.37,0,0,1-.31-.43,5,5,0,0,1,2.87-3.39,5,5,0,0,1,4-.29.37.37,0,0,1,.2.49.39.39,0,0,1-.5.2,4.72,4.72,0,0,0-5.81,3.11A.38.38,0,0,1,77,290.21Z"/><path class="cls-10" d="M124.08,316.21a3.86,3.86,0,0,1-1.24-.17.38.38,0,0,1,.25-.71,4.73,4.73,0,0,0,5.58-3.52.37.37,0,0,1,.41-.34.38.38,0,0,1,.34.41,5,5,0,0,1-2.63,3.58A5.33,5.33,0,0,1,124.08,316.21Z"/><path class="cls-10" d="M104.17,310.73h-.63a24,24,0,0,1-15.17-5.5.38.38,0,1,1,.5-.56,24.41,24.41,0,0,0,27.73,1.86.37.37,0,0,1,.42.62A23.34,23.34,0,0,1,104.17,310.73Z"/><path class="cls-15" d="M124.11,280.15a9.76,9.76,0,0,1-8.76,10.1,67.79,67.79,0,0,1-13,.16,63.74,63.74,0,0,1-12-2.39,9.79,9.79,0,0,1-6.77-11.56l0-.09a19.6,19.6,0,0,1,20.93-15.14l1.8.16a19.62,19.62,0,0,1,17.78,18.75Z"/><path class="cls-10" d="M107.83,291c-1.91,0-3.75-.08-5.51-.25a63.2,63.2,0,0,1-12.09-2.4,10.17,10.17,0,0,1-7-12l0-.09a20,20,0,0,1,21.34-15.44l1.8.17a20,20,0,0,1,18.12,19.11h0a10.17,10.17,0,0,1-9.1,10.5C112.78,290.89,110.25,291,107.83,291Zm-5.12-29.51A19.24,19.24,0,0,0,84,276.46l0,.09a9.43,9.43,0,0,0,6.5,11.11,61.88,61.88,0,0,0,12,2.37,66.9,66.9,0,0,0,12.92-.15,9.43,9.43,0,0,0,8.43-9.72h0a19.24,19.24,0,0,0-17.44-18.39l-1.8-.17C103.9,261.55,103.31,261.52,102.71,261.52Z"/><path class="cls-16" d="M113.25,277.38a89.59,89.59,0,0,0-19-1.35A3.69,3.69,0,0,1,90.29,272l.06-.84a5,5,0,0,1,4.59-4.55,89.75,89.75,0,0,1,19,1.5,5,5,0,0,1,3.94,5.13l-.06.83A3.73,3.73,0,0,1,113.25,277.38Z"/><path class="cls-17" d="M113.19,277.54l-.37-.05a89.8,89.8,0,0,0-18.18-1.29,4.39,4.39,0,0,1-3.34-1.27,4.27,4.27,0,0,1-1.17-3.38,5.64,5.64,0,0,1,5.24-5.19,89.86,89.86,0,0,1,18.18,1.44,5.43,5.43,0,0,1,3.34,2.11,5.49,5.49,0,0,1,1.16,3.73,4.08,4.08,0,0,1-1.68,3.1A4.55,4.55,0,0,1,113.19,277.54ZM95,266.76a5.23,5.23,0,0,0-4.49,4.76,4,4,0,0,0,1.07,3.13,4.06,4.06,0,0,0,3.08,1.17,90.43,90.43,0,0,1,18.18,1.3,4.27,4.27,0,0,0,3.29-.7,3.81,3.81,0,0,0,1.55-2.86,5.07,5.07,0,0,0-1.08-3.45,5,5,0,0,0-3.08-1.94,89.86,89.86,0,0,0-18.18-1.44C95.23,266.74,95.11,266.74,95,266.76Z"/><path class="cls-18" d="M124.31,274.26h-1.76c0-8-7.18-14.25-17.1-14.78a22.68,22.68,0,0,0-12,2.43,14.37,14.37,0,0,0-7,8.3l-1.67-.53a16.07,16.07,0,0,1,7.86-9.31,24.37,24.37,0,0,1,13-2.65A22,22,0,0,1,119,262.86,15.11,15.11,0,0,1,124.31,274.26Z"/><path class="cls-18" d="M79.9,270.41c1-2.35,2.39-4.09,3.4-3.77h0l.09,0,2,.92-3.9,8.83-2-.92-.09,0h0c-.9-.57-.54-2.69.5-5Z"/><path class="cls-19" d="M82.17,271.36c1.4-3.09,3.07-5.46,4.13-5.17v0l.1.05,2.06.93L83.22,278.8l-2.07-.93-.09,0h0c-.92-.61-.29-3.36,1.11-6.46Z"/><circle class="cls-20" cx="98.37" cy="271.27" r="2.76"/><circle class="cls-21" cx="99.54" cy="270.43" r="1.03"/><circle class="cls-20" cx="109.69" cy="272.03" r="2.76"/><circle class="cls-21" cx="110.86" cy="271.2" r="1.09"/><path class="cls-5" d="M110.42,281.5c-.21,2.69-3.49,4.64-7.35,4.35s-6.81-2.71-6.61-5.4,3.31-1,7.17-.72S110.62,278.8,110.42,281.5Z"/><path class="cls-10" d="M103.82,286.25l-.78,0c-4.05-.3-7.18-2.91-7-5.8a1.89,1.89,0,0,1,.68-1.47c.81-.62,2.15-.37,3.85,0a28,28,0,0,0,3,.45,26.16,26.16,0,0,0,3.07,0c1.64-.07,2.94-.12,3.63.59a1.94,1.94,0,0,1,.44,1.57C110.59,284.23,107.53,286.25,103.82,286.25Zm-5.68-6.93a1.51,1.51,0,0,0-.93.23,1.24,1.24,0,0,0-.38.92c-.18,2.49,2.63,4.73,6.27,5s6.75-1.52,6.94-4h0a1.26,1.26,0,0,0-.23-1c-.45-.46-1.66-.41-3.06-.36a25.41,25.41,0,0,1-3.15,0,28.57,28.57,0,0,1-3.13-.46A13.91,13.91,0,0,0,98.14,279.32Z"/><path class="cls-18" d="M125,279.31l-1,0c-.07,4.89-2,7.11-6,7.42l-5.93-.21c-.17-.66-1.15-1.22-2.35-1.32-1.37-.13-2.16.4-2.23,1.15s.61,1.43,2,1.56a3.51,3.51,0,0,0,2.13-.42c2.09.05,4.73.09,6.56.05,6-.33,6.82-5.32,6.83-8.26Z"/><path class="cls-18" d="M128.25,275.28c-.4-2.46-1.19-4.44-2.11-4.42h0l-2,.32,1.51,9.24,2-.32h0c.88-.28,1-2.35.6-4.81Z"/><path class="cls-19" d="M126,275.53c-.54-3.26-1.44-5.91-2.37-5.93v0l-2,.32,2,12.25,2-.32h0c.87-.31.9-3,.37-6.29Z"/></g><line class="cls-22" x1="102.6" y1="238.47" x2="102.6" y2="239.97"/><line class="cls-23" x1="102.6" y1="242.57" x2="102.6" y2="251.67"/><line class="cls-22" x1="102.6" y1="252.97" x2="102.6" y2="254.47"/><line class="cls-22" x1="102.6" y1="314.15" x2="102.6" y2="315.65"/><line class="cls-23" x1="102.6" y1="318.25" x2="102.6" y2="327.35"/><line class="cls-22" x1="102.6" y1="328.65" x2="102.6" y2="330.15"/><path class="cls-24" d="M177.54,279.13a2.12,2.12,0,0,1,.74,1.7,1.86,1.86,0,0,1-1.4,1.92,2.32,2.32,0,0,1,1.15.73,1.87,1.87,0,0,1,.43,1.26,2.46,2.46,0,0,1-.81,1.91,3.49,3.49,0,0,1-4.15.13,3,3,0,0,1-1-2.2h1a2,2,0,0,0,.68,1.54,2.06,2.06,0,0,0,1.34.44A2.09,2.09,0,0,0,177,286a1.72,1.72,0,0,0,.52-1.26,1.5,1.5,0,0,0-.5-1.2,2.07,2.07,0,0,0-1.4-.42h-.69v-.77h.66a2,2,0,0,0,1.31-.38,1.62,1.62,0,0,0,0-2.23,1.86,1.86,0,0,0-1.31-.42,1.83,1.83,0,0,0-1.34.45,2,2,0,0,0-.59,1.33h-1a2.81,2.81,0,0,1,.91-1.94,2.77,2.77,0,0,1,2-.7A3,3,0,0,1,177.54,279.13Z"/><path class="cls-24" d="M187,280.79h-1a1.63,1.63,0,0,0-1.78-1.46,1.75,1.75,0,0,0-1.58,1,4.54,4.54,0,0,0-.56,2.4s0,.15,0,.31h.05a2.25,2.25,0,0,1,.92-1,2.31,2.31,0,0,1,1.33-.38,2.6,2.6,0,0,1,2,.8,2.85,2.85,0,0,1,.74,2,2.89,2.89,0,0,1-.81,2.1,2.79,2.79,0,0,1-2.08.84,2.67,2.67,0,0,1-2.35-1.16,5.37,5.37,0,0,1-.74-3.06,6.13,6.13,0,0,1,.8-3.33,2.6,2.6,0,0,1,2.3-1.35A2.47,2.47,0,0,1,187,280.79ZM182.85,283a2,2,0,0,0-.56,1.46,2,2,0,0,0,.53,1.47,1.8,1.8,0,0,0,1.43.62,1.86,1.86,0,0,0,1.4-.59,2.22,2.22,0,0,0,.54-1.53,2,2,0,0,0-.53-1.45,2,2,0,0,0-2.81,0Z"/><path class="cls-24" d="M195.08,281.86a3.6,3.6,0,0,1,.71,2.29,3.69,3.69,0,0,1-.69,2.27,2.49,2.49,0,0,1-2.08,1,2.24,2.24,0,0,1-2.05-1.29v3.5h-1V281h.9v1a2.2,2.2,0,0,1,2.06-1.18A2.5,2.5,0,0,1,195.08,281.86Zm-3.68.53a2.87,2.87,0,0,0-.47,1.7v.12a2.66,2.66,0,0,0,.53,1.74,1.64,1.64,0,0,0,1.36.66,1.81,1.81,0,0,0,1.52-.69,3,3,0,0,0,.47-1.77,3.1,3.1,0,0,0-.45-1.75,1.71,1.71,0,0,0-1.51-.74A1.66,1.66,0,0,0,191.4,282.39Z"/><path class="cls-24" d="M199.25,281l1.61,2.2,1.59-2.2h1.13l-2.2,2.91,2.46,3.29H202.7l-1.84-2.58L199,287.24h-1.14l2.46-3.29-2.2-2.91Z"/><line class="cls-22" x1="132.6" y1="284.15" x2="134.1" y2="284.15"/><line class="cls-25" x1="136.87" y1="284.15" x2="163.19" y2="284.15"/><line class="cls-22" x1="164.57" y1="284.15" x2="166.07" y2="284.15"/><path class="cls-2" d="M5.23,86.54A5.36,5.36,0,0,1,6,89.61,6.3,6.3,0,0,1,5.18,93a2.63,2.63,0,0,1-2.3,1.34A2.46,2.46,0,0,1,.14,92h1a1.61,1.61,0,0,0,1.77,1.46,1.78,1.78,0,0,0,1.58-1A4.63,4.63,0,0,0,5,90.07c0-.06,0-.17,0-.31H5a2.57,2.57,0,0,1-.93,1,2.44,2.44,0,0,1-1.33.37,2.61,2.61,0,0,1-2-.81,3.13,3.13,0,0,1,.09-4.12,2.74,2.74,0,0,1,2.07-.84A2.68,2.68,0,0,1,5.23,86.54Zm-3.73.27A2.15,2.15,0,0,0,1,88.33a2,2,0,0,0,.53,1.45,1.84,1.84,0,0,0,1.41.57,1.94,1.94,0,0,0,1.41-.58,2.07,2.07,0,0,0,.55-1.46,2.13,2.13,0,0,0-.53-1.48,1.81,1.81,0,0,0-1.43-.61A1.8,1.8,0,0,0,1.5,86.81Z"/><path class="cls-2" d="M14,86.75a7.38,7.38,0,0,1,0,6.19,2.52,2.52,0,0,1-2.31,1.35,2.51,2.51,0,0,1-2.32-1.35,7.38,7.38,0,0,1,0-6.19,2.5,2.5,0,0,1,2.32-1.36A2.51,2.51,0,0,1,14,86.75Zm-4,.72a6.27,6.27,0,0,0-.36,2.37A6.44,6.44,0,0,0,10,92.22a1.73,1.73,0,0,0,3.31,0,6.42,6.42,0,0,0,.37-2.38,6.25,6.25,0,0,0-.37-2.37,1.72,1.72,0,0,0-3.31,0Z"/><path class="cls-2" d="M22.6,88.75A3.6,3.6,0,0,1,23.31,91a3.69,3.69,0,0,1-.69,2.27,2.49,2.49,0,0,1-2.08,1A2.24,2.24,0,0,1,18.49,93v3.5h-1V87.92h.9v1a2.21,2.21,0,0,1,2.06-1.19A2.51,2.51,0,0,1,22.6,88.75Zm-3.68.53a2.87,2.87,0,0,0-.46,1.7v.12A2.65,2.65,0,0,0,19,92.84a1.64,1.64,0,0,0,1.36.66,1.79,1.79,0,0,0,1.52-.7A3,3,0,0,0,22.33,91a3.19,3.19,0,0,0-.44-1.75,1.74,1.74,0,0,0-1.52-.74A1.66,1.66,0,0,0,18.92,89.28Z"/><path class="cls-2" d="M26.77,87.92l1.61,2.21L30,87.92H31.1l-2.19,2.92,2.45,3.28H30.23l-1.85-2.58-1.86,2.58H25.38l2.46-3.28-2.2-2.92Z"/><path class="cls-24" d="M175.39,82.44V91h-1V83.64a4.59,4.59,0,0,1-2,1.18v-1a4.55,4.55,0,0,0,1.2-.51,4.47,4.47,0,0,0,1-.88Z"/><path class="cls-24" d="M184.63,84.57h-1a1.63,1.63,0,0,0-1.78-1.47,1.76,1.76,0,0,0-1.58,1,4.56,4.56,0,0,0-.56,2.4s0,.15,0,.31h.05a2.3,2.3,0,0,1,.92-1,2.38,2.38,0,0,1,1.33-.37,2.59,2.59,0,0,1,2,.79,3.14,3.14,0,0,1-.07,4.13,2.79,2.79,0,0,1-2.08.84A2.67,2.67,0,0,1,179.53,90a5.37,5.37,0,0,1-.74-3.06,6.15,6.15,0,0,1,.8-3.33,2.61,2.61,0,0,1,2.31-1.34A2.46,2.46,0,0,1,184.63,84.57Zm-4.17,2.23a2,2,0,0,0-.55,1.46,2.08,2.08,0,0,0,.52,1.48,2,2,0,0,0,2.83,0,2.21,2.21,0,0,0,.54-1.52,2,2,0,0,0-.52-1.45,1.83,1.83,0,0,0-1.42-.57A1.85,1.85,0,0,0,180.46,86.8Z"/><path class="cls-24" d="M192.7,85.63a4.09,4.09,0,0,1,0,4.56,2.49,2.49,0,0,1-2.08,1,2.24,2.24,0,0,1-2-1.29v3.5h-1V84.81h.9v1a2.2,2.2,0,0,1,2.06-1.19A2.53,2.53,0,0,1,192.7,85.63Zm-3.69.53a2.87,2.87,0,0,0-.46,1.7V88a2.65,2.65,0,0,0,.52,1.74,1.62,1.62,0,0,0,1.36.66,1.81,1.81,0,0,0,1.52-.69,3,3,0,0,0,.47-1.77,3.21,3.21,0,0,0-.44-1.75,1.74,1.74,0,0,0-1.52-.74A1.66,1.66,0,0,0,189,86.16Z"/><path class="cls-24" d="M196.86,84.81l1.61,2.2,1.59-2.2h1.13L199,87.72,201.46,91h-1.14l-1.85-2.58L196.61,91h-1.14l2.46-3.29-2.2-2.91Z"/><line class="cls-3" x1="44.14" y1="46.72" x2="44.14" y2="124.65"/><path class="cls-2" d="M44.14,40.69a30.34,30.34,0,0,1-4.76,8.55l4.76-1.72,4.75,1.72A30.31,30.31,0,0,1,44.14,40.69Z"/><path class="cls-2" d="M44.14,130.69a30.34,30.34,0,0,0-4.76-8.55l4.76,1.72,4.75-1.72A30.31,30.31,0,0,0,44.14,130.69Z"/><path class="cls-2" d="M93.18,1.15a5.36,5.36,0,0,1,.75,3.07,6.4,6.4,0,0,1-.8,3.34A2.67,2.67,0,0,1,90.82,8.9a2.46,2.46,0,0,1-2.73-2.29h1a1.62,1.62,0,0,0,1.78,1.46,1.79,1.79,0,0,0,1.58-1A4.73,4.73,0,0,0,93,4.68c0-.06,0-.17,0-.31h0a2.45,2.45,0,0,1-2.25,1.4,2.59,2.59,0,0,1-2-.82,2.78,2.78,0,0,1-.73-2,2.83,2.83,0,0,1,.81-2.1A2.77,2.77,0,0,1,90.84,0,2.65,2.65,0,0,1,93.18,1.15Zm-3.73.27a2.14,2.14,0,0,0-.53,1.52,2,2,0,0,0,.53,1.45A1.82,1.82,0,0,0,90.86,5a1.91,1.91,0,0,0,1.4-.57,2.1,2.1,0,0,0,.56-1.47,2.09,2.09,0,0,0-.53-1.47A1.81,1.81,0,0,0,90.86.83,1.79,1.79,0,0,0,89.45,1.42Z"/><path class="cls-2" d="M102,1.36a6.05,6.05,0,0,1,.68,3.09A6.05,6.05,0,0,1,102,7.54,2.55,2.55,0,0,1,99.63,8.9a2.5,2.5,0,0,1-2.31-1.36,6,6,0,0,1-.69-3.09,6,6,0,0,1,.69-3.09A2.46,2.46,0,0,1,99.63,0,2.51,2.51,0,0,1,102,1.36Zm-4,.72a6.27,6.27,0,0,0-.36,2.37A6.35,6.35,0,0,0,98,6.82a1.71,1.71,0,0,0,1.65,1.24,1.73,1.73,0,0,0,1.66-1.24,6.32,6.32,0,0,0,.37-2.37,6.25,6.25,0,0,0-.37-2.37A1.72,1.72,0,0,0,99.63.84,1.7,1.7,0,0,0,98,2.08Z"/><path class="cls-2" d="M110.55,3.36a3.58,3.58,0,0,1,.71,2.29,3.63,3.63,0,0,1-.7,2.27,2.48,2.48,0,0,1-2.07,1,2.23,2.23,0,0,1-2-1.3v3.51h-1V2.53h.9v1a2.19,2.19,0,0,1,2.06-1.19A2.51,2.51,0,0,1,110.55,3.36Zm-3.68.53a2.85,2.85,0,0,0-.47,1.7v.12a2.68,2.68,0,0,0,.53,1.74,1.64,1.64,0,0,0,1.35.66,1.8,1.8,0,0,0,1.53-.7,3,3,0,0,0,.47-1.76,3.1,3.1,0,0,0-.45-1.75,1.7,1.7,0,0,0-1.51-.75A1.65,1.65,0,0,0,106.87,3.89Z"/><path class="cls-2" d="M114.72,2.53l1.6,2.21,1.6-2.21h1.13l-2.2,2.92,2.46,3.28h-1.14l-1.85-2.58-1.85,2.58h-1.14l2.45-3.28-2.19-2.92Z"/><line class="cls-3" x1="141.57" y1="28.21" x2="63.64" y2="28.21"/><path class="cls-2" d="M147.6,28.21a30.39,30.39,0,0,1-8.54-4.76l1.72,4.76L139.06,33A30.12,30.12,0,0,1,147.6,28.21Z"/><path class="cls-2" d="M57.6,28.21a30.45,30.45,0,0,0,8.55-4.76l-1.72,4.76L66.15,33A30.18,30.18,0,0,0,57.6,28.21Z"/><circle class="cls-4" cx="102.6" cy="85.69" r="45"/><rect class="cls-26" x="87.6" y="61.95" width="30" height="30"/><path class="cls-5" d="M91.89,73.68a.65.65,0,0,1,1.3,0,.65.65,0,0,1-1.3,0Zm.18,1.76H93V81h-.93Z"/><path class="cls-5" d="M95.77,78.25a2.73,2.73,0,0,1,2.7-3,2.4,2.4,0,0,1,1.64.66l-.48.63a1.63,1.63,0,0,0-1.13-.51c-1,0-1.75.88-1.75,2.17s.7,2.14,1.73,2.14a2,2,0,0,0,1.32-.55l.41.63a2.71,2.71,0,0,1-1.81.71A2.63,2.63,0,0,1,95.77,78.25Z"/><path class="cls-5" d="M102.06,78.25a2.62,2.62,0,1,1,2.6,2.93A2.69,2.69,0,0,1,102.06,78.25Zm4.23,0c0-1.29-.66-2.17-1.63-2.17S103,77,103,78.25s.65,2.14,1.62,2.14S106.29,79.54,106.29,78.25Z"/><path class="cls-5" d="M110,75.44h.77l.08.81h0a2.69,2.69,0,0,1,1.88-1c1.18,0,1.71.76,1.71,2.2V81h-.93V77.62c0-1.05-.32-1.5-1.07-1.5A2.12,2.12,0,0,0,111,77V81H110Z"/><line class="cls-22" x1="102.6" y1="131.47" x2="102.6" y2="132.97"/><line class="cls-23" x1="102.6" y1="135.57" x2="102.6" y2="144.67"/><line class="cls-22" x1="102.6" y1="145.97" x2="102.6" y2="147.47"/><line class="cls-22" x1="150.07" y1="87.92" x2="151.57" y2="87.92"/><line class="cls-23" x1="154.17" y1="87.92" x2="163.27" y2="87.92"/><line class="cls-22" x1="164.57" y1="87.92" x2="166.07" y2="87.92"/><polyline class="cls-27" points="91.5 366.21 102.6 355.1 113.71 366.21"/><path class="cls-5" d="M80.76,98.38V108H79.24v-.59h-5.7v.6H72.09V98.38h3.07a12.25,12.25,0,0,0,.33-1.57l1.72.19c-.18.48-.37,1-.56,1.38Zm-7.22,1.37V101h5.7V99.75Zm0,2.55v1.24h5.7V102.3Zm5.7,3.8v-1.24h-5.7v1.24Z"/><path class="cls-5" d="M90.59,106.36a10.76,10.76,0,0,0,1.42.08c.64,0,2.61,0,3.43,0a4.71,4.71,0,0,0-.52,1.45h-3c-2.24,0-3.89-.37-5-2.11a6.15,6.15,0,0,1-1.61,2.3,6.84,6.84,0,0,0-1.16-1c1.3-1,1.9-2.64,2.11-4.68l1.45.14c-.06.5-.15,1-.25,1.45a3.28,3.28,0,0,0,1.61,1.92v-4.07H86.55V100.5h6.6v1.37H90.59v1.42h3.29v1.34H90.59Zm-4.46-5.26h-1.4v-3h4.45a8.65,8.65,0,0,0-.42-1l1.44-.4a7.4,7.4,0,0,1,.62,1.39H95v3H93.51V99.45H86.13Z"/><path class="cls-5" d="M108,105.07a6.27,6.27,0,0,1-1.4,1.31,1.44,1.44,0,0,0,.9.35c.29,0,.36-.22.42-.89a2.91,2.91,0,0,0,1,.55c-.19,1.34-.58,1.63-1.53,1.63a2.8,2.8,0,0,1-2.05-.92,14.06,14.06,0,0,1-2.44.92,6,6,0,0,0-.69-1.12,13.28,13.28,0,0,0,2.41-.76,6.4,6.4,0,0,1-.6-1.43h-2.34v.46l1.8-.1v1l-1.79.15v.61c0,.63-.13.91-.58,1.06a6.11,6.11,0,0,1-2,.18,4.51,4.51,0,0,0-.41-1.09,13,13,0,0,0,1.35,0c.18,0,.24,0,.24-.21v-.48l-2.3.17L98,105.35l2.41-.11v-.53H98v-1h2.37v-.48c-.63.06-1.28.1-1.87.11a3.6,3.6,0,0,0-.3-.85,30.58,30.58,0,0,0,4.23-.5H98v-1.08h4.59v-.44H99.19v-1h3.41V99h-4V98h2.13a5.88,5.88,0,0,0-.46-.72l1.25-.4A3.91,3.91,0,0,1,102.2,98h2.41a7.73,7.73,0,0,0,.53-1.15l1.58.3c-.21.31-.43.61-.62.85h2.07V99h-4.11v.43h3.48v1h-3.48v.44h4.64V102h-2.37a9,9,0,0,1,1.89,1l-.64.71h1.18v1H107Zm-4.21-1.4a14.79,14.79,0,0,1-.19-1.56H105a9.49,9.49,0,0,0,.2,1.56h2a7.68,7.68,0,0,0-1.75-.94l.75-.78H102.6l.78.81c-.5.11-1.06.2-1.66.29v.62Zm1.71,1a5,5,0,0,0,.37.77,4.42,4.42,0,0,0,.88-.77Z"/><path class="cls-5" d="M121.17,102.88a7.14,7.14,0,0,1-1.08,2.56,24.91,24.91,0,0,1,2.25,1.41L121.4,108a21,21,0,0,0-2.27-1.52,8.6,8.6,0,0,1-3.68,1.59,4.92,4.92,0,0,0-.69-1.32,7.57,7.57,0,0,0,3-1c-.71-.4-1.44-.77-2.08-1.09a16.71,16.71,0,0,0,.85-1.74h-1.24l.1.68-1.3.4v2.58c0,.68-.14,1-.53,1.23a3.73,3.73,0,0,1-1.79.26,5,5,0,0,0-.41-1.29c.47,0,1,0,1.12,0s.23-.06.23-.22v-2.19l-1.31.37-.3-1.36c.46-.1,1-.24,1.61-.4v-2.54h-1.43V99.09h1.43V96.84h1.38v2.25h1.12v1.33h-1.12v2.17l.93-.26v-.72h2a14.59,14.59,0,0,0,.55-1.79l1.46.2c-.14.52-.31,1-.5,1.59h1.26c0-.26.05-.51.06-.77l1.57,0c0,.25-.06.51-.08.75h1.09v1.27Zm-4.37-2.11h-1.33V98.22h2.6c-.08-.4-.19-.85-.28-1.22l1.45-.22c.13.45.27,1,.37,1.44h2.67v2.53h-1.39V99.47H116.8Zm1.32,2.11c-.19.45-.37.87-.55,1.26.4.2.83.4,1.25.62a5.24,5.24,0,0,0,.83-1.88Z"/><path class="cls-5" d="M136,106.33v1.36h-6.7v-.89c-1.44.32-3,.63-4.1.9l-.27-1.28,1.68-.28v-3H125v-1.21h1.52V101h-.83v-.54c-.19.18-.39.36-.58.52a9.46,9.46,0,0,0-.5-1.47A8.18,8.18,0,0,0,127,96.76l1,.48c-.07.14-.14.29-.22.43a11.58,11.58,0,0,1,2,1.45l-.6,1.17-.37-.36V101h-1.08v.88h1.46v1.21h-1.46v2.8l1.46-.27.05.68h1.27c.12-1,.25-2.08.36-3.27h-1.15V101.7H131c.09-1,.17-2,.22-2.86h-1.2V97.48h5c0,1.31-.06,2.78-.11,4.22h.94v1.36h-1c0,1.2-.1,2.32-.16,3.27ZM126,103.56a13.7,13.7,0,0,1,.43,2l-.91.27a13.43,13.43,0,0,0-.39-2.08Zm2.74-3.72a13.52,13.52,0,0,0-1.53-1.14,10.81,10.81,0,0,1-.88,1.14Zm-.86,5.63a15.84,15.84,0,0,0,.42-2l1,.28c-.23.7-.44,1.5-.63,2Zm4.32-2.41c-.11,1.2-.24,2.34-.35,3.27h1.54c.08-1,.15-2.08.21-3.27Zm.37-4.22c-.07.91-.16,1.88-.24,2.86h1.33c0-1,.06-1.94.09-2.86Z"/></g></g></svg>