<svg width="560" height="258" viewBox="0 0 560 258" fill="none" xmlns="http://www.w3.org/2000/svg">
<rect width="560" height="258" fill="white"/>
<path d="M109.912 29.336V32.36C109.912 33.432 110.184 33.72 111.336 33.72H112.968C113.832 33.72 114.136 33.352 114.248 31.896C113.944 31.832 113.512 31.688 113.272 31.512C113.24 32.6 113.16 32.744 112.84 32.744H111.48C111.08 32.744 111.016 32.68 111.016 32.344V29.336H112.936V30.968H114.024V28.312H104.28V31.24H105.336V29.336H107.288C107.144 31.672 106.632 32.792 104.04 33.432C104.248 33.624 104.552 34.04 104.632 34.296C107.576 33.528 108.216 32.088 108.392 29.336H109.912ZM103.928 29.544C103.336 28.984 102.104 28.248 101.112 27.816L100.424 28.664C101.432 29.144 102.632 29.928 103.208 30.504L103.928 29.544ZM103.208 33.496C102.584 33.016 101.304 32.424 100.296 32.088L99.688 33.016C100.712 33.4 101.96 34.024 102.584 34.536L103.208 33.496ZM102.76 36.264C101.96 38.056 100.872 40.104 100.104 41.304L101.128 42.04C101.96 40.568 102.936 38.632 103.672 36.968L102.76 36.264ZM114.136 36.76V35.688H109.544V33.896H108.376V35.688H104.056V36.76H107.64C106.616 38.408 104.936 39.88 103.288 40.632C103.512 40.856 103.864 41.256 104.04 41.544C105.656 40.696 107.288 39.176 108.376 37.448V42.2H109.544V37.256C110.552 38.952 112.056 40.584 113.544 41.416C113.72 41.128 114.104 40.68 114.392 40.472C112.888 39.752 111.304 38.28 110.328 36.76H114.136ZM123.976 29.72C123.624 30.344 123.192 31.032 122.76 31.56H118.36C118.952 30.968 119.48 30.344 119.944 29.72H123.976ZM127.464 35.544H123.4V32.648H127.464V35.544ZM118.424 32.648H122.216V35.544H118.424V32.648ZM120.52 40.936C118.76 40.936 118.424 40.696 118.424 39.704V36.616H127.464V37.336H128.664V31.56H124.152C124.712 30.808 125.256 29.928 125.656 29.128L124.856 28.616L124.632 28.696H120.68C120.872 28.392 121.064 28.104 121.24 27.816L119.928 27.56C119.08 29.16 117.48 31.128 115.304 32.616C115.592 32.792 115.992 33.176 116.168 33.448C116.536 33.176 116.904 32.904 117.24 32.6V39.688C117.24 41.592 118.024 42.04 120.6 42.04H126.808C129.16 42.04 129.656 41.352 129.928 39.016C129.56 38.936 129.064 38.776 128.744 38.568C128.552 40.504 128.312 40.936 126.776 40.936H120.52ZM135.672 33.512H136.84V27.608H135.672V29H131.672V29.96H135.672V31.4C133.992 31.688 132.408 31.928 131.288 32.104L131.464 33.128C132.664 32.888 134.152 32.632 135.672 32.328V33.512ZM134.744 38.6V37.176H142.088V38.6H134.744ZM142.088 34.952V36.296H134.744V34.952H142.088ZM143.288 34.024H133.56V42.232H134.744V39.48H142.088V40.888C142.088 41.112 141.992 41.192 141.736 41.208C141.496 41.224 140.568 41.224 139.624 41.176C139.784 41.48 139.976 41.912 140.024 42.248C141.304 42.248 142.12 42.232 142.616 42.056C143.112 41.88 143.288 41.576 143.288 40.904V34.024ZM141.176 32.328C140.456 32.328 140.344 32.248 140.344 31.816V30.568C141.848 30.216 143.544 29.704 144.792 29.192L143.944 28.328C143.08 28.76 141.672 29.256 140.344 29.624V27.608H139.16V31.816C139.16 33.032 139.528 33.368 141.048 33.368H143.752C144.936 33.368 145.288 32.952 145.416 31.4C145.096 31.32 144.616 31.16 144.344 30.984C144.296 32.136 144.184 32.328 143.64 32.328H141.176ZM149.992 30.792H158.056V31.816H149.992V30.792ZM149.992 29H158.056V30.008H149.992V29ZM161.032 33.624H154.6V32.632H159.224V28.184H148.856V32.632H153.416V33.624H147V34.6H161.032V33.624ZM150.712 39.128C149.768 39.88 148.184 40.616 146.808 41.096C147.064 41.288 147.464 41.72 147.672 41.96C149.032 41.384 150.712 40.472 151.8 39.56L150.712 39.128ZM150.36 36.312H157.736V37.896H150.36V36.312ZM158.92 38.776V35.432H149.224V38.776H153.448V41.048C153.448 41.224 153.4 41.272 153.176 41.288C152.936 41.288 152.168 41.288 151.352 41.256C151.496 41.544 151.656 41.928 151.704 42.216C152.84 42.216 153.576 42.216 154.024 42.056C154.488 41.928 154.632 41.656 154.632 41.08V38.776H158.92ZM156.072 39.768C157.528 40.344 159.32 41.256 160.232 41.912L161.048 41.176C160.088 40.504 158.264 39.64 156.84 39.096L156.072 39.768Z" fill="black"/>
<rect x="14" y="57" width="234" height="175" fill="#C7C7C7"/>
<g clip-path="url(#clip0_2_6449)">
<path d="M228.306 156.66L243.077 141.5L228.306 126.34" stroke="white" stroke-width="2" stroke-linecap="round" stroke-linejoin="round"/>
</g>
<g clip-path="url(#clip1_2_6449)">
<path d="M33.6944 127.34L18.923 142.5L33.6944 157.66" stroke="white" stroke-width="2" stroke-linecap="round" stroke-linejoin="round"/>
</g>
<circle cx="86" cy="214" r="7" fill="#00A19B"/>
<circle cx="116" cy="214" r="7" fill="white"/>
<circle cx="146" cy="214" r="7" fill="white"/>
<circle cx="176" cy="214" r="7" fill="white"/>
<path d="M379.96 28.496C379.384 27.92 378.152 27.2 377.176 26.768L376.52 27.616C377.512 28.096 378.696 28.864 379.272 29.44L379.96 28.496ZM379.16 32.64C378.552 32.112 377.304 31.44 376.328 31.024L375.656 31.904C376.68 32.352 377.896 33.072 378.472 33.632L379.16 32.64ZM377.144 40.992C377.992 39.504 378.968 37.536 379.72 35.872L378.824 35.136C378.008 36.944 376.904 39.024 376.12 40.24L377.144 40.992ZM387.384 36.528C386.872 37.184 386.184 37.744 385.352 38.24C384.968 37.744 384.648 37.152 384.376 36.512L390.28 36.096L390.2 35.088L384.008 35.504C383.8 34.832 383.64 34.096 383.544 33.328H382.472C383.384 33.04 384.296 32.704 385.144 32.288C386.12 33.12 387.336 33.632 388.808 33.696C389.56 33.728 389.992 33.184 390.296 31.728C390.008 31.632 389.624 31.408 389.368 31.184C389.256 32.176 389.048 32.592 388.696 32.576C387.768 32.544 386.936 32.224 386.216 31.712C386.968 31.264 387.624 30.736 388.136 30.144L387.112 29.744C386.68 30.224 386.12 30.656 385.448 31.024C385.064 30.624 384.728 30.16 384.44 29.616L389.896 29.232L389.816 28.256L387.752 28.4L388.424 27.68C387.88 27.312 386.856 26.848 386.024 26.592L385.368 27.232C386.184 27.488 387.224 28 387.752 28.4L383.992 28.656C383.736 28.032 383.544 27.344 383.416 26.624H382.28C382.424 27.36 382.616 28.064 382.856 28.736L380.248 28.912L380.312 29.92L383.256 29.712C383.576 30.384 383.96 31.008 384.408 31.536C383.08 32.128 381.512 32.56 380.008 32.832C380.216 33.072 380.536 33.584 380.648 33.824C381.224 33.68 381.8 33.536 382.376 33.36C382.488 34.128 382.648 34.864 382.856 35.584L380.088 35.76L380.168 36.8L383.176 36.592C383.48 37.408 383.848 38.144 384.312 38.784C382.936 39.424 381.336 39.888 379.736 40.208C379.96 40.448 380.28 40.976 380.408 41.232C381.976 40.848 383.576 40.32 385 39.616C385.96 40.576 387.192 41.184 388.76 41.248C389.608 41.264 390.072 40.608 390.376 38.864C390.104 38.752 389.672 38.528 389.432 38.304C389.288 39.568 389.064 40.128 388.632 40.096C387.656 40.048 386.792 39.664 386.072 39.024C387.016 38.432 387.848 37.76 388.456 36.96L387.384 36.528ZM388.152 34.528C387.576 34.144 386.52 33.648 385.656 33.376L384.952 34.016C385.8 34.288 386.872 34.832 387.432 35.248L388.152 34.528ZM400.296 28.72C399.944 29.344 399.512 30.032 399.08 30.56H394.68C395.272 29.968 395.8 29.344 396.264 28.72H400.296ZM403.784 34.544H399.72V31.648H403.784V34.544ZM394.744 31.648H398.536V34.544H394.744V31.648ZM396.84 39.936C395.08 39.936 394.744 39.696 394.744 38.704V35.616H403.784V36.336H404.984V30.56H400.472C401.032 29.808 401.576 28.928 401.976 28.128L401.176 27.616L400.952 27.696H397C397.192 27.392 397.384 27.104 397.56 26.816L396.248 26.56C395.4 28.16 393.8 30.128 391.624 31.616C391.912 31.792 392.312 32.176 392.488 32.448C392.856 32.176 393.224 31.904 393.56 31.6V38.688C393.56 40.592 394.344 41.04 396.92 41.04H403.128C405.48 41.04 405.976 40.352 406.248 38.016C405.88 37.936 405.384 37.776 405.064 37.568C404.872 39.504 404.632 39.936 403.096 39.936H396.84ZM411.992 32.512H413.16V26.608H411.992V28H407.992V28.96H411.992V30.4C410.312 30.688 408.728 30.928 407.608 31.104L407.784 32.128C408.984 31.888 410.472 31.632 411.992 31.328V32.512ZM411.064 37.6V36.176H418.408V37.6H411.064ZM418.408 33.952V35.296H411.064V33.952H418.408ZM419.608 33.024H409.88V41.232H411.064V38.48H418.408V39.888C418.408 40.112 418.312 40.192 418.056 40.208C417.816 40.224 416.888 40.224 415.944 40.176C416.104 40.48 416.296 40.912 416.344 41.248C417.624 41.248 418.44 41.232 418.936 41.056C419.432 40.88 419.608 40.576 419.608 39.904V33.024ZM417.496 31.328C416.776 31.328 416.664 31.248 416.664 30.816V29.568C418.168 29.216 419.864 28.704 421.112 28.192L420.264 27.328C419.4 27.76 417.992 28.256 416.664 28.624V26.608H415.48V30.816C415.48 32.032 415.848 32.368 417.368 32.368H420.072C421.256 32.368 421.608 31.952 421.736 30.4C421.416 30.32 420.936 30.16 420.664 29.984C420.616 31.136 420.504 31.328 419.96 31.328H417.496ZM426.312 29.792H434.376V30.816H426.312V29.792ZM426.312 28H434.376V29.008H426.312V28ZM437.352 32.624H430.92V31.632H435.544V27.184H425.176V31.632H429.736V32.624H423.32V33.6H437.352V32.624ZM427.032 38.128C426.088 38.88 424.504 39.616 423.128 40.096C423.384 40.288 423.784 40.72 423.992 40.96C425.352 40.384 427.032 39.472 428.12 38.56L427.032 38.128ZM426.68 35.312H434.056V36.896H426.68V35.312ZM435.24 37.776V34.432H425.544V37.776H429.768V40.048C429.768 40.224 429.72 40.272 429.496 40.288C429.256 40.288 428.488 40.288 427.672 40.256C427.816 40.544 427.976 40.928 428.024 41.216C429.16 41.216 429.896 41.216 430.344 41.056C430.808 40.928 430.952 40.656 430.952 40.08V37.776H435.24ZM432.392 38.768C433.848 39.344 435.64 40.256 436.552 40.912L437.368 40.176C436.408 39.504 434.584 38.64 433.16 38.096L432.392 38.768Z" fill="black"/>
<g clip-path="url(#clip2_2_6449)">
<path d="M529.306 155.66L544.077 140.5L529.306 125.34" stroke="#00A19B" stroke-width="2" stroke-linecap="round" stroke-linejoin="round"/>
</g>
<g clip-path="url(#clip3_2_6449)">
<path d="M529.306 155.66L544.077 140.5L529.306 125.34" stroke="#00A19B" stroke-width="2" stroke-linecap="round" stroke-linejoin="round"/>
</g>
<g clip-path="url(#clip4_2_6449)">
<path d="M284.694 125.34L269.923 140.5L284.694 155.66" stroke="#00A19B" stroke-width="2" stroke-linecap="round" stroke-linejoin="round"/>
</g>
<g clip-path="url(#clip5_2_6449)">
<path d="M284.694 125.34L269.923 140.5L284.694 155.66" stroke="#00A19B" stroke-width="2" stroke-linecap="round" stroke-linejoin="round"/>
</g>
<rect x="290.5" y="57.5" width="233" height="174" fill="white" stroke="#D9D9D9"/>
<rect x="290.5" y="57.5" width="233" height="174" fill="white" stroke="#D9D9D9"/>
<circle cx="362" cy="213" r="7" fill="#00A19B"/>
<circle cx="392" cy="213" r="6.5" fill="white" stroke="#D9D9D9"/>
<circle cx="422" cy="213" r="6.5" fill="white" stroke="#D9D9D9"/>
<circle cx="452" cy="213" r="6.5" fill="white" stroke="#D9D9D9"/>
<circle cx="362" cy="213" r="7" fill="#00A19B"/>
<circle cx="392" cy="213" r="6.5" fill="white" stroke="#D9D9D9"/>
<circle cx="422" cy="213" r="6.5" fill="white" stroke="#D9D9D9"/>
<circle cx="452" cy="213" r="6.5" fill="white" stroke="#D9D9D9"/>
<defs>
<clipPath id="clip0_2_6449">
<rect width="17" height="33" fill="white" transform="translate(227 125)"/>
</clipPath>
<clipPath id="clip1_2_6449">
<rect width="17" height="33" fill="white" transform="translate(35 159) rotate(-180)"/>
</clipPath>
<clipPath id="clip2_2_6449">
<rect width="17" height="33" fill="white" transform="translate(528 124)"/>
</clipPath>
<clipPath id="clip3_2_6449">
<rect width="17" height="33" fill="white" transform="translate(528 124)"/>
</clipPath>
<clipPath id="clip4_2_6449">
<rect width="17" height="33" fill="white" transform="translate(286 157) rotate(-180)"/>
</clipPath>
<clipPath id="clip5_2_6449">
<rect width="17" height="33" fill="white" transform="translate(286 157) rotate(-180)"/>
</clipPath>
</defs>
</svg>
