<svg width="300" height="154" viewBox="0 0 300 154" fill="none" xmlns="http://www.w3.org/2000/svg">
<path d="M4 0.5H296C297.933 0.5 299.5 2.067 299.5 4V51.5H0.5V4C0.5 2.067 2.067 0.5 4 0.5Z" fill="white" stroke="#D9D9D9"/>
<path d="M62.3926 31.6156H68.457V32.9955H60.6963V20.1986H62.3926V31.6156ZM71.8936 32.9955H70.2676V23.4857H71.8936V32.9955ZM70.1357 20.9633C70.1357 20.6996 70.2148 20.4769 70.373 20.2953C70.5371 20.1136 70.7773 20.0228 71.0938 20.0228C71.4102 20.0228 71.6504 20.1136 71.8145 20.2953C71.9785 20.4769 72.0605 20.6996 72.0605 20.9633C72.0605 21.2269 71.9785 21.4467 71.8145 21.6224C71.6504 21.7982 71.4102 21.8861 71.0938 21.8861C70.7773 21.8861 70.5371 21.7982 70.373 21.6224C70.2148 21.4467 70.1357 21.2269 70.1357 20.9633ZM80.041 30.473C80.041 30.0336 79.874 29.6937 79.54 29.4535C79.2119 29.2074 78.6348 28.9965 77.8086 28.8207C76.9883 28.6449 76.335 28.434 75.8486 28.1879C75.3682 27.9418 75.0107 27.6488 74.7764 27.309C74.5479 26.9691 74.4336 26.5648 74.4336 26.0961C74.4336 25.3168 74.7617 24.6576 75.418 24.1185C76.0801 23.5795 76.9238 23.3099 77.9492 23.3099C79.0273 23.3099 79.9004 23.5883 80.5684 24.1449C81.2422 24.7015 81.5791 25.4135 81.5791 26.2806H79.9443C79.9443 25.8353 79.7539 25.4515 79.373 25.1293C78.998 24.807 78.5234 24.6459 77.9492 24.6459C77.3574 24.6459 76.8945 24.7748 76.5605 25.0326C76.2266 25.2904 76.0596 25.6273 76.0596 26.0433C76.0596 26.4359 76.2148 26.7318 76.5254 26.931C76.8359 27.1302 77.3955 27.3207 78.2041 27.5023C79.0186 27.684 79.6777 27.9008 80.1816 28.1527C80.6855 28.4047 81.0576 28.7094 81.2979 29.0668C81.5439 29.4183 81.667 29.849 81.667 30.3588C81.667 31.2084 81.3271 31.891 80.6475 32.4066C79.9678 32.9164 79.0859 33.1713 78.002 33.1713C77.2402 33.1713 76.5664 33.0365 75.9805 32.767C75.3945 32.4974 74.9346 32.1224 74.6006 31.642C74.2725 31.1556 74.1084 30.6312 74.1084 30.0687H75.7344C75.7637 30.6136 75.9805 31.0472 76.3848 31.3695C76.7949 31.6859 77.334 31.8441 78.002 31.8441C78.6172 31.8441 79.1094 31.7211 79.4785 31.475C79.8535 31.223 80.041 30.889 80.041 30.473ZM85.9912 21.183V23.4857H87.7666V24.7426H85.9912V30.64C85.9912 31.0209 86.0703 31.308 86.2285 31.5013C86.3867 31.6888 86.6562 31.7826 87.0371 31.7826C87.2246 31.7826 87.4824 31.7474 87.8105 31.6771V32.9955C87.3828 33.1127 86.9668 33.1713 86.5625 33.1713C85.8359 33.1713 85.2881 32.9515 84.9189 32.5121C84.5498 32.0726 84.3652 31.4486 84.3652 30.64V24.7426H82.6338V23.4857H84.3652V21.183H85.9912ZM96.2041 32.9955H94.5166V20.1986H96.2041V32.9955ZM101.249 21.183V23.4857H103.024V24.7426H101.249V30.64C101.249 31.0209 101.328 31.308 101.486 31.5013C101.645 31.6888 101.914 31.7826 102.295 31.7826C102.482 31.7826 102.74 31.7474 103.068 31.6771V32.9955C102.641 33.1127 102.225 33.1713 101.82 33.1713C101.094 33.1713 100.546 32.9515 100.177 32.5121C99.8076 32.0726 99.623 31.4486 99.623 30.64V24.7426H97.8916V23.4857H99.623V21.183H101.249ZM108.878 33.1713C107.589 33.1713 106.54 32.7494 105.731 31.9056C104.923 31.056 104.519 29.9222 104.519 28.5043V28.2054C104.519 27.2621 104.697 26.4213 105.055 25.683C105.418 24.9388 105.922 24.3588 106.566 23.9427C107.217 23.5209 107.92 23.3099 108.676 23.3099C109.912 23.3099 110.873 23.7172 111.559 24.5316C112.244 25.3461 112.587 26.5121 112.587 28.0297V28.7064H106.145C106.168 29.6439 106.44 30.4027 106.962 30.9828C107.489 31.557 108.157 31.8441 108.966 31.8441C109.54 31.8441 110.026 31.7269 110.425 31.4926C110.823 31.2582 111.172 30.9476 111.471 30.5609L112.464 31.3344C111.667 32.559 110.472 33.1713 108.878 33.1713ZM108.676 24.6459C108.02 24.6459 107.469 24.8861 107.023 25.3666C106.578 25.8412 106.303 26.5092 106.197 27.3705H110.961V27.2474C110.914 26.4213 110.691 25.7826 110.293 25.3314C109.895 24.8744 109.355 24.6459 108.676 24.6459ZM116.006 23.4857L116.05 24.5404C116.747 23.7201 117.688 23.3099 118.871 23.3099C120.201 23.3099 121.106 23.8197 121.587 24.8392C121.903 24.3822 122.313 24.0131 122.817 23.7318C123.327 23.4506 123.928 23.3099 124.619 23.3099C126.705 23.3099 127.766 24.4144 127.801 26.6234V32.9955H126.175V26.7201C126.175 26.0404 126.02 25.5336 125.709 25.1996C125.398 24.8597 124.877 24.6898 124.145 24.6898C123.541 24.6898 123.04 24.8715 122.642 25.2347C122.243 25.5922 122.012 26.0756 121.947 26.6849V32.9955H120.312V26.764C120.312 25.3812 119.636 24.6898 118.282 24.6898C117.216 24.6898 116.486 25.1439 116.094 26.0521V32.9955H114.468V23.4857H116.006Z" fill="black"/>
<rect x="0.5" y="51.25" width="299" height="51" fill="white" stroke="#D9D9D9"/>
<path d="M62.3926 82.3656H68.457V83.7455H60.6963V70.9486H62.3926V82.3656ZM71.8936 83.7455H70.2676V74.2357H71.8936V83.7455ZM70.1357 71.7133C70.1357 71.4496 70.2148 71.2269 70.373 71.0453C70.5371 70.8636 70.7773 70.7728 71.0938 70.7728C71.4102 70.7728 71.6504 70.8636 71.8145 71.0453C71.9785 71.2269 72.0605 71.4496 72.0605 71.7133C72.0605 71.9769 71.9785 72.1967 71.8145 72.3724C71.6504 72.5482 71.4102 72.6361 71.0938 72.6361C70.7773 72.6361 70.5371 72.5482 70.373 72.3724C70.2148 72.1967 70.1357 71.9769 70.1357 71.7133ZM80.041 81.223C80.041 80.7836 79.874 80.4437 79.54 80.2035C79.2119 79.9574 78.6348 79.7465 77.8086 79.5707C76.9883 79.3949 76.335 79.184 75.8486 78.9379C75.3682 78.6918 75.0107 78.3988 74.7764 78.059C74.5479 77.7191 74.4336 77.3148 74.4336 76.8461C74.4336 76.0668 74.7617 75.4076 75.418 74.8685C76.0801 74.3295 76.9238 74.0599 77.9492 74.0599C79.0273 74.0599 79.9004 74.3383 80.5684 74.8949C81.2422 75.4515 81.5791 76.1635 81.5791 77.0306H79.9443C79.9443 76.5853 79.7539 76.2015 79.373 75.8793C78.998 75.557 78.5234 75.3959 77.9492 75.3959C77.3574 75.3959 76.8945 75.5248 76.5605 75.7826C76.2266 76.0404 76.0596 76.3773 76.0596 76.7933C76.0596 77.1859 76.2148 77.4818 76.5254 77.681C76.8359 77.8802 77.3955 78.0707 78.2041 78.2523C79.0186 78.434 79.6777 78.6508 80.1816 78.9027C80.6855 79.1547 81.0576 79.4594 81.2979 79.8168C81.5439 80.1683 81.667 80.599 81.667 81.1088C81.667 81.9584 81.3271 82.641 80.6475 83.1566C79.9678 83.6664 79.0859 83.9213 78.002 83.9213C77.2402 83.9213 76.5664 83.7865 75.9805 83.517C75.3945 83.2474 74.9346 82.8724 74.6006 82.392C74.2725 81.9056 74.1084 81.3812 74.1084 80.8187H75.7344C75.7637 81.3636 75.9805 81.7972 76.3848 82.1195C76.7949 82.4359 77.334 82.5941 78.002 82.5941C78.6172 82.5941 79.1094 82.4711 79.4785 82.225C79.8535 81.973 80.041 81.639 80.041 81.223ZM85.9912 71.933V74.2357H87.7666V75.4926H85.9912V81.39C85.9912 81.7709 86.0703 82.058 86.2285 82.2513C86.3867 82.4388 86.6562 82.5326 87.0371 82.5326C87.2246 82.5326 87.4824 82.4974 87.8105 82.4271V83.7455C87.3828 83.8627 86.9668 83.9213 86.5625 83.9213C85.8359 83.9213 85.2881 83.7015 84.9189 83.2621C84.5498 82.8226 84.3652 82.1986 84.3652 81.39V75.4926H82.6338V74.2357H84.3652V71.933H85.9912ZM96.2041 83.7455H94.5166V70.9486H96.2041V83.7455ZM101.249 71.933V74.2357H103.024V75.4926H101.249V81.39C101.249 81.7709 101.328 82.058 101.486 82.2513C101.645 82.4388 101.914 82.5326 102.295 82.5326C102.482 82.5326 102.74 82.4974 103.068 82.4271V83.7455C102.641 83.8627 102.225 83.9213 101.82 83.9213C101.094 83.9213 100.546 83.7015 100.177 83.2621C99.8076 82.8226 99.623 82.1986 99.623 81.39V75.4926H97.8916V74.2357H99.623V71.933H101.249ZM108.878 83.9213C107.589 83.9213 106.54 83.4994 105.731 82.6556C104.923 81.806 104.519 80.6722 104.519 79.2543V78.9554C104.519 78.0121 104.697 77.1713 105.055 76.433C105.418 75.6888 105.922 75.1088 106.566 74.6927C107.217 74.2709 107.92 74.0599 108.676 74.0599C109.912 74.0599 110.873 74.4672 111.559 75.2816C112.244 76.0961 112.587 77.2621 112.587 78.7797V79.4564H106.145C106.168 80.3939 106.44 81.1527 106.962 81.7328C107.489 82.307 108.157 82.5941 108.966 82.5941C109.54 82.5941 110.026 82.4769 110.425 82.2426C110.823 82.0082 111.172 81.6976 111.471 81.3109L112.464 82.0844C111.667 83.309 110.472 83.9213 108.878 83.9213ZM108.676 75.3959C108.02 75.3959 107.469 75.6361 107.023 76.1166C106.578 76.5912 106.303 77.2592 106.197 78.1205H110.961V77.9974C110.914 77.1713 110.691 76.5326 110.293 76.0814C109.895 75.6244 109.355 75.3959 108.676 75.3959ZM116.006 74.2357L116.05 75.2904C116.747 74.4701 117.688 74.0599 118.871 74.0599C120.201 74.0599 121.106 74.5697 121.587 75.5892C121.903 75.1322 122.313 74.7631 122.817 74.4818C123.327 74.2006 123.928 74.0599 124.619 74.0599C126.705 74.0599 127.766 75.1644 127.801 77.3734V83.7455H126.175V77.4701C126.175 76.7904 126.02 76.2836 125.709 75.9496C125.398 75.6097 124.877 75.4398 124.145 75.4398C123.541 75.4398 123.04 75.6215 122.642 75.9847C122.243 76.3422 122.012 76.8256 121.947 77.4349V83.7455H120.312V77.514C120.312 76.1312 119.636 75.4398 118.282 75.4398C117.216 75.4398 116.486 75.8939 116.094 76.8021V83.7455H114.468V74.2357H116.006Z" fill="black"/>
<rect x="0.5" y="102" width="299" height="51" fill="white" stroke="#D9D9D9"/>
<path d="M62.3926 133.116H68.457V134.495H60.6963V121.699H62.3926V133.116ZM71.8936 134.495H70.2676V124.986H71.8936V134.495ZM70.1357 122.463C70.1357 122.2 70.2148 121.977 70.373 121.795C70.5371 121.614 70.7773 121.523 71.0938 121.523C71.4102 121.523 71.6504 121.614 71.8145 121.795C71.9785 121.977 72.0605 122.2 72.0605 122.463C72.0605 122.727 71.9785 122.947 71.8145 123.122C71.6504 123.298 71.4102 123.386 71.0938 123.386C70.7773 123.386 70.5371 123.298 70.373 123.122C70.2148 122.947 70.1357 122.727 70.1357 122.463ZM80.041 131.973C80.041 131.534 79.874 131.194 79.54 130.953C79.2119 130.707 78.6348 130.496 77.8086 130.321C76.9883 130.145 76.335 129.934 75.8486 129.688C75.3682 129.442 75.0107 129.149 74.7764 128.809C74.5479 128.469 74.4336 128.065 74.4336 127.596C74.4336 126.817 74.7617 126.158 75.418 125.619C76.0801 125.079 76.9238 124.81 77.9492 124.81C79.0273 124.81 79.9004 125.088 80.5684 125.645C81.2422 126.202 81.5791 126.913 81.5791 127.781H79.9443C79.9443 127.335 79.7539 126.952 79.373 126.629C78.998 126.307 78.5234 126.146 77.9492 126.146C77.3574 126.146 76.8945 126.275 76.5605 126.533C76.2266 126.79 76.0596 127.127 76.0596 127.543C76.0596 127.936 76.2148 128.232 76.5254 128.431C76.8359 128.63 77.3955 128.821 78.2041 129.002C79.0186 129.184 79.6777 129.401 80.1816 129.653C80.6855 129.905 81.0576 130.209 81.2979 130.567C81.5439 130.918 81.667 131.349 81.667 131.859C81.667 132.708 81.3271 133.391 80.6475 133.907C79.9678 134.416 79.0859 134.671 78.002 134.671C77.2402 134.671 76.5664 134.536 75.9805 134.267C75.3945 133.997 74.9346 133.622 74.6006 133.142C74.2725 132.656 74.1084 132.131 74.1084 131.569H75.7344C75.7637 132.114 75.9805 132.547 76.3848 132.87C76.7949 133.186 77.334 133.344 78.002 133.344C78.6172 133.344 79.1094 133.221 79.4785 132.975C79.8535 132.723 80.041 132.389 80.041 131.973ZM85.9912 122.683V124.986H87.7666V126.243H85.9912V132.14C85.9912 132.521 86.0703 132.808 86.2285 133.001C86.3867 133.189 86.6562 133.283 87.0371 133.283C87.2246 133.283 87.4824 133.247 87.8105 133.177V134.495C87.3828 134.613 86.9668 134.671 86.5625 134.671C85.8359 134.671 85.2881 134.452 84.9189 134.012C84.5498 133.573 84.3652 132.949 84.3652 132.14V126.243H82.6338V124.986H84.3652V122.683H85.9912ZM96.2041 134.495H94.5166V121.699H96.2041V134.495ZM101.249 122.683V124.986H103.024V126.243H101.249V132.14C101.249 132.521 101.328 132.808 101.486 133.001C101.645 133.189 101.914 133.283 102.295 133.283C102.482 133.283 102.74 133.247 103.068 133.177V134.495C102.641 134.613 102.225 134.671 101.82 134.671C101.094 134.671 100.546 134.452 100.177 134.012C99.8076 133.573 99.623 132.949 99.623 132.14V126.243H97.8916V124.986H99.623V122.683H101.249ZM108.878 134.671C107.589 134.671 106.54 134.249 105.731 133.406C104.923 132.556 104.519 131.422 104.519 130.004V129.705C104.519 128.762 104.697 127.921 105.055 127.183C105.418 126.439 105.922 125.859 106.566 125.443C107.217 125.021 107.92 124.81 108.676 124.81C109.912 124.81 110.873 125.217 111.559 126.032C112.244 126.846 112.587 128.012 112.587 129.53V130.206H106.145C106.168 131.144 106.44 131.903 106.962 132.483C107.489 133.057 108.157 133.344 108.966 133.344C109.54 133.344 110.026 133.227 110.425 132.993C110.823 132.758 111.172 132.448 111.471 132.061L112.464 132.834C111.667 134.059 110.472 134.671 108.878 134.671ZM108.676 126.146C108.02 126.146 107.469 126.386 107.023 126.867C106.578 127.341 106.303 128.009 106.197 128.87H110.961V128.747C110.914 127.921 110.691 127.283 110.293 126.831C109.895 126.374 109.355 126.146 108.676 126.146ZM116.006 124.986L116.05 126.04C116.747 125.22 117.688 124.81 118.871 124.81C120.201 124.81 121.106 125.32 121.587 126.339C121.903 125.882 122.313 125.513 122.817 125.232C123.327 124.951 123.928 124.81 124.619 124.81C126.705 124.81 127.766 125.914 127.801 128.123V134.495H126.175V128.22C126.175 127.54 126.02 127.034 125.709 126.7C125.398 126.36 124.877 126.19 124.145 126.19C123.541 126.19 123.04 126.371 122.642 126.735C122.243 127.092 122.012 127.576 121.947 128.185V134.495H120.312V128.264C120.312 126.881 119.636 126.19 118.282 126.19C117.216 126.19 116.486 126.644 116.094 127.552V134.495H114.468V124.986H116.006Z" fill="black"/>
<rect x="20.5" y="16.5" width="19" height="19" rx="3.5" fill="#00A19B" stroke="#00A19B"/>
<path d="M26 26L29 29L35 23" stroke="white" stroke-width="3" stroke-linecap="round" stroke-linejoin="round"/>
<rect x="20.5" y="67.5" width="19" height="19" rx="3.5" fill="#00A19B" stroke="#00A19B"/>
<path d="M26 77L29 80L35 74" stroke="white" stroke-width="3" stroke-linecap="round" stroke-linejoin="round"/>
<rect x="20.5" y="117.5" width="19" height="19" rx="3.5" fill="#00A19B" stroke="#00A19B"/>
<path d="M26 127L29 130L35 124" stroke="white" stroke-width="3" stroke-linecap="round" stroke-linejoin="round"/>
</svg>
