<svg width="160" height="60" viewBox="0 0 160 60" fill="none" xmlns="http://www.w3.org/2000/svg">
<path d="M50.8984 12.9395C50.7402 14.293 50.2393 15.3389 49.3955 16.0771C48.5576 16.8096 47.4414 17.1758 46.0469 17.1758C44.5352 17.1758 43.3223 16.6338 42.4082 15.5498C41.5 14.4658 41.0459 13.0156 41.0459 11.1992V9.96875C41.0459 8.7793 41.2568 7.7334 41.6787 6.83105C42.1064 5.92871 42.71 5.2373 43.4893 4.75684C44.2686 4.27051 45.1709 4.02734 46.1963 4.02734C47.5557 4.02734 48.6455 4.4082 49.4658 5.16992C50.2861 5.92578 50.7637 6.97461 50.8984 8.31641H49.2021C49.0557 7.29688 48.7363 6.55859 48.2441 6.10156C47.7578 5.64453 47.0752 5.41602 46.1963 5.41602C45.1182 5.41602 44.2715 5.81445 43.6562 6.61133C43.0469 7.4082 42.7422 8.54199 42.7422 10.0127V11.252C42.7422 12.6406 43.0322 13.7451 43.6123 14.5654C44.1924 15.3857 45.0039 15.7959 46.0469 15.7959C46.9844 15.7959 47.7021 15.585 48.2002 15.1631C48.7041 14.7354 49.0381 13.9941 49.2021 12.9395H50.8984ZM54.5811 8.6416C55.3018 7.75684 56.2393 7.31445 57.3936 7.31445C59.4033 7.31445 60.417 8.44824 60.4346 10.7158V17H58.8086V10.707C58.8027 10.0215 58.6445 9.51465 58.334 9.18652C58.0293 8.8584 57.5518 8.69434 56.9014 8.69434C56.374 8.69434 55.9111 8.83496 55.5127 9.11621C55.1143 9.39746 54.8037 9.7666 54.5811 10.2236V17H52.9551V3.5H54.5811V8.6416ZM66.8154 17.1758C65.5264 17.1758 64.4775 16.7539 63.6689 15.9102C62.8604 15.0605 62.4561 13.9268 62.4561 12.5088V12.21C62.4561 11.2666 62.6348 10.4258 62.9922 9.6875C63.3555 8.94336 63.8594 8.36328 64.5039 7.94727C65.1543 7.52539 65.8574 7.31445 66.6133 7.31445C67.8496 7.31445 68.8105 7.72168 69.4961 8.53613C70.1816 9.35059 70.5244 10.5166 70.5244 12.0342V12.7109H64.082C64.1055 13.6484 64.3779 14.4072 64.8994 14.9873C65.4268 15.5615 66.0947 15.8486 66.9033 15.8486C67.4775 15.8486 67.9639 15.7314 68.3623 15.4971C68.7607 15.2627 69.1094 14.9521 69.4082 14.5654L70.4014 15.3389C69.6045 16.5635 68.4092 17.1758 66.8154 17.1758ZM66.6133 8.65039C65.957 8.65039 65.4062 8.89062 64.9609 9.37109C64.5156 9.8457 64.2402 10.5137 64.1348 11.375H68.8984V11.252C68.8516 10.4258 68.6289 9.78711 68.2305 9.33594C67.832 8.87891 67.293 8.65039 66.6133 8.65039ZM76.2285 15.8486C76.8086 15.8486 77.3154 15.6729 77.749 15.3213C78.1826 14.9697 78.4229 14.5303 78.4697 14.0029H80.0078C79.9785 14.5479 79.791 15.0664 79.4453 15.5586C79.0996 16.0508 78.6367 16.4434 78.0566 16.7363C77.4824 17.0293 76.873 17.1758 76.2285 17.1758C74.9336 17.1758 73.9023 16.7451 73.1348 15.8838C72.373 15.0166 71.9922 13.833 71.9922 12.333V12.0605C71.9922 11.1348 72.1621 10.3115 72.502 9.59082C72.8418 8.87012 73.3281 8.31055 73.9609 7.91211C74.5996 7.51367 75.3525 7.31445 76.2197 7.31445C77.2861 7.31445 78.1709 7.63379 78.874 8.27246C79.583 8.91113 79.9609 9.74023 80.0078 10.7598H78.4697C78.4229 10.1445 78.1885 9.64062 77.7666 9.24805C77.3506 8.84961 76.835 8.65039 76.2197 8.65039C75.3936 8.65039 74.752 8.94922 74.2949 9.54688C73.8438 10.1387 73.6182 10.9971 73.6182 12.1221V12.4297C73.6182 13.5254 73.8438 14.3691 74.2949 14.9609C74.7461 15.5527 75.3906 15.8486 76.2285 15.8486ZM84.4902 12.5967L83.4707 13.6602V17H81.8447V3.5H83.4707V11.665L84.3408 10.6191L87.3027 7.49023H89.2803L85.5801 11.4629L89.7109 17H87.8037L84.4902 12.5967ZM99.0098 12.3506C99.0098 13.8037 98.6758 14.9727 98.0078 15.8574C97.3398 16.7363 96.4434 17.1758 95.3184 17.1758C94.1172 17.1758 93.1885 16.751 92.5322 15.9014L92.4531 17H90.959V3.5H92.585V8.53613C93.2412 7.72168 94.1465 7.31445 95.3008 7.31445C96.4551 7.31445 97.3604 7.75098 98.0166 8.62402C98.6787 9.49707 99.0098 10.6924 99.0098 12.21V12.3506ZM97.3838 12.166C97.3838 11.0586 97.1699 10.2031 96.7422 9.59961C96.3145 8.99609 95.6992 8.69434 94.8965 8.69434C93.8242 8.69434 93.0537 9.19238 92.585 10.1885V14.3018C93.083 15.2979 93.8594 15.7959 94.9141 15.7959C95.6934 15.7959 96.2998 15.4941 96.7334 14.8906C97.167 14.2871 97.3838 13.3789 97.3838 12.166ZM100.636 12.1572C100.636 11.2256 100.817 10.3877 101.181 9.64355C101.55 8.89941 102.06 8.3252 102.71 7.9209C103.366 7.5166 104.113 7.31445 104.951 7.31445C106.246 7.31445 107.292 7.7627 108.089 8.65918C108.892 9.55566 109.293 10.748 109.293 12.2363V12.3506C109.293 13.2764 109.114 14.1084 108.757 14.8467C108.405 15.5791 107.898 16.1504 107.236 16.5605C106.58 16.9707 105.824 17.1758 104.969 17.1758C103.68 17.1758 102.634 16.7275 101.831 15.8311C101.034 14.9346 100.636 13.748 100.636 12.2715V12.1572ZM102.271 12.3506C102.271 13.4053 102.514 14.252 103 14.8906C103.492 15.5293 104.148 15.8486 104.969 15.8486C105.795 15.8486 106.451 15.5264 106.938 14.8818C107.424 14.2314 107.667 13.3232 107.667 12.1572C107.667 11.1143 107.418 10.2705 106.92 9.62598C106.428 8.97559 105.771 8.65039 104.951 8.65039C104.148 8.65039 103.501 8.96973 103.009 9.6084C102.517 10.2471 102.271 11.1611 102.271 12.3506ZM114.329 10.9619L116.438 7.49023H118.337L115.226 12.1924L118.434 17H116.553L114.355 13.4404L112.158 17H110.269L113.477 12.1924L110.365 7.49023H112.246L114.329 10.9619ZM126.599 17H124.911V4.20312H126.599V17ZM131.644 5.1875V7.49023H133.419V8.74707H131.644V14.6445C131.644 15.0254 131.723 15.3125 131.881 15.5059C132.039 15.6934 132.309 15.7871 132.689 15.7871C132.877 15.7871 133.135 15.752 133.463 15.6816V17C133.035 17.1172 132.619 17.1758 132.215 17.1758C131.488 17.1758 130.94 16.9561 130.571 16.5166C130.202 16.0771 130.018 15.4531 130.018 14.6445V8.74707H128.286V7.49023H130.018V5.1875H131.644ZM139.272 17.1758C137.983 17.1758 136.935 16.7539 136.126 15.9102C135.317 15.0605 134.913 13.9268 134.913 12.5088V12.21C134.913 11.2666 135.092 10.4258 135.449 9.6875C135.812 8.94336 136.316 8.36328 136.961 7.94727C137.611 7.52539 138.314 7.31445 139.07 7.31445C140.307 7.31445 141.268 7.72168 141.953 8.53613C142.639 9.35059 142.981 10.5166 142.981 12.0342V12.7109H136.539C136.562 13.6484 136.835 14.4072 137.356 14.9873C137.884 15.5615 138.552 15.8486 139.36 15.8486C139.935 15.8486 140.421 15.7314 140.819 15.4971C141.218 15.2627 141.566 14.9521 141.865 14.5654L142.858 15.3389C142.062 16.5635 140.866 17.1758 139.272 17.1758ZM139.07 8.65039C138.414 8.65039 137.863 8.89062 137.418 9.37109C136.973 9.8457 136.697 10.5137 136.592 11.375H141.355V11.252C141.309 10.4258 141.086 9.78711 140.688 9.33594C140.289 8.87891 139.75 8.65039 139.07 8.65039ZM146.4 7.49023L146.444 8.54492C147.142 7.72461 148.082 7.31445 149.266 7.31445C150.596 7.31445 151.501 7.82422 151.981 8.84375C152.298 8.38672 152.708 8.01758 153.212 7.73633C153.722 7.45508 154.322 7.31445 155.014 7.31445C157.1 7.31445 158.16 8.41895 158.195 10.6279V17H156.569V10.7246C156.569 10.0449 156.414 9.53809 156.104 9.2041C155.793 8.86426 155.271 8.69434 154.539 8.69434C153.936 8.69434 153.435 8.87598 153.036 9.23926C152.638 9.59668 152.406 10.0801 152.342 10.6895V17H150.707V10.7686C150.707 9.38574 150.03 8.69434 148.677 8.69434C147.61 8.69434 146.881 9.14844 146.488 10.0566V17H144.862V7.49023H146.4Z" fill="black"/>
<rect x="0.5" y="1.5" width="19" height="19" rx="3.5" fill="white" stroke="#00A19B"/>
<path d="M50.8984 51.9395C50.7402 53.293 50.2393 54.3389 49.3955 55.0771C48.5576 55.8096 47.4414 56.1758 46.0469 56.1758C44.5352 56.1758 43.3223 55.6338 42.4082 54.5498C41.5 53.4658 41.0459 52.0156 41.0459 50.1992V48.9688C41.0459 47.7793 41.2568 46.7334 41.6787 45.8311C42.1064 44.9287 42.71 44.2373 43.4893 43.7568C44.2686 43.2705 45.1709 43.0273 46.1963 43.0273C47.5557 43.0273 48.6455 43.4082 49.4658 44.1699C50.2861 44.9258 50.7637 45.9746 50.8984 47.3164H49.2021C49.0557 46.2969 48.7363 45.5586 48.2441 45.1016C47.7578 44.6445 47.0752 44.416 46.1963 44.416C45.1182 44.416 44.2715 44.8145 43.6562 45.6113C43.0469 46.4082 42.7422 47.542 42.7422 49.0127V50.252C42.7422 51.6406 43.0322 52.7451 43.6123 53.5654C44.1924 54.3857 45.0039 54.7959 46.0469 54.7959C46.9844 54.7959 47.7021 54.585 48.2002 54.1631C48.7041 53.7354 49.0381 52.9941 49.2021 51.9395H50.8984ZM54.5811 47.6416C55.3018 46.7568 56.2393 46.3145 57.3936 46.3145C59.4033 46.3145 60.417 47.4482 60.4346 49.7158V56H58.8086V49.707C58.8027 49.0215 58.6445 48.5146 58.334 48.1865C58.0293 47.8584 57.5518 47.6943 56.9014 47.6943C56.374 47.6943 55.9111 47.835 55.5127 48.1162C55.1143 48.3975 54.8037 48.7666 54.5811 49.2236V56H52.9551V42.5H54.5811V47.6416ZM66.8154 56.1758C65.5264 56.1758 64.4775 55.7539 63.6689 54.9102C62.8604 54.0605 62.4561 52.9268 62.4561 51.5088V51.21C62.4561 50.2666 62.6348 49.4258 62.9922 48.6875C63.3555 47.9434 63.8594 47.3633 64.5039 46.9473C65.1543 46.5254 65.8574 46.3145 66.6133 46.3145C67.8496 46.3145 68.8105 46.7217 69.4961 47.5361C70.1816 48.3506 70.5244 49.5166 70.5244 51.0342V51.7109H64.082C64.1055 52.6484 64.3779 53.4072 64.8994 53.9873C65.4268 54.5615 66.0947 54.8486 66.9033 54.8486C67.4775 54.8486 67.9639 54.7314 68.3623 54.4971C68.7607 54.2627 69.1094 53.9521 69.4082 53.5654L70.4014 54.3389C69.6045 55.5635 68.4092 56.1758 66.8154 56.1758ZM66.6133 47.6504C65.957 47.6504 65.4062 47.8906 64.9609 48.3711C64.5156 48.8457 64.2402 49.5137 64.1348 50.375H68.8984V50.252C68.8516 49.4258 68.6289 48.7871 68.2305 48.3359C67.832 47.8789 67.293 47.6504 66.6133 47.6504ZM76.2285 54.8486C76.8086 54.8486 77.3154 54.6729 77.749 54.3213C78.1826 53.9697 78.4229 53.5303 78.4697 53.0029H80.0078C79.9785 53.5479 79.791 54.0664 79.4453 54.5586C79.0996 55.0508 78.6367 55.4434 78.0566 55.7363C77.4824 56.0293 76.873 56.1758 76.2285 56.1758C74.9336 56.1758 73.9023 55.7451 73.1348 54.8838C72.373 54.0166 71.9922 52.833 71.9922 51.333V51.0605C71.9922 50.1348 72.1621 49.3115 72.502 48.5908C72.8418 47.8701 73.3281 47.3105 73.9609 46.9121C74.5996 46.5137 75.3525 46.3145 76.2197 46.3145C77.2861 46.3145 78.1709 46.6338 78.874 47.2725C79.583 47.9111 79.9609 48.7402 80.0078 49.7598H78.4697C78.4229 49.1445 78.1885 48.6406 77.7666 48.248C77.3506 47.8496 76.835 47.6504 76.2197 47.6504C75.3936 47.6504 74.752 47.9492 74.2949 48.5469C73.8438 49.1387 73.6182 49.9971 73.6182 51.1221V51.4297C73.6182 52.5254 73.8438 53.3691 74.2949 53.9609C74.7461 54.5527 75.3906 54.8486 76.2285 54.8486ZM84.4902 51.5967L83.4707 52.6602V56H81.8447V42.5H83.4707V50.665L84.3408 49.6191L87.3027 46.4902H89.2803L85.5801 50.4629L89.7109 56H87.8037L84.4902 51.5967ZM99.0098 51.3506C99.0098 52.8037 98.6758 53.9727 98.0078 54.8574C97.3398 55.7363 96.4434 56.1758 95.3184 56.1758C94.1172 56.1758 93.1885 55.751 92.5322 54.9014L92.4531 56H90.959V42.5H92.585V47.5361C93.2412 46.7217 94.1465 46.3145 95.3008 46.3145C96.4551 46.3145 97.3604 46.751 98.0166 47.624C98.6787 48.4971 99.0098 49.6924 99.0098 51.21V51.3506ZM97.3838 51.166C97.3838 50.0586 97.1699 49.2031 96.7422 48.5996C96.3145 47.9961 95.6992 47.6943 94.8965 47.6943C93.8242 47.6943 93.0537 48.1924 92.585 49.1885V53.3018C93.083 54.2979 93.8594 54.7959 94.9141 54.7959C95.6934 54.7959 96.2998 54.4941 96.7334 53.8906C97.167 53.2871 97.3838 52.3789 97.3838 51.166ZM100.636 51.1572C100.636 50.2256 100.817 49.3877 101.181 48.6436C101.55 47.8994 102.06 47.3252 102.71 46.9209C103.366 46.5166 104.113 46.3145 104.951 46.3145C106.246 46.3145 107.292 46.7627 108.089 47.6592C108.892 48.5557 109.293 49.748 109.293 51.2363V51.3506C109.293 52.2764 109.114 53.1084 108.757 53.8467C108.405 54.5791 107.898 55.1504 107.236 55.5605C106.58 55.9707 105.824 56.1758 104.969 56.1758C103.68 56.1758 102.634 55.7275 101.831 54.8311C101.034 53.9346 100.636 52.748 100.636 51.2715V51.1572ZM102.271 51.3506C102.271 52.4053 102.514 53.252 103 53.8906C103.492 54.5293 104.148 54.8486 104.969 54.8486C105.795 54.8486 106.451 54.5264 106.938 53.8818C107.424 53.2314 107.667 52.3232 107.667 51.1572C107.667 50.1143 107.418 49.2705 106.92 48.626C106.428 47.9756 105.771 47.6504 104.951 47.6504C104.148 47.6504 103.501 47.9697 103.009 48.6084C102.517 49.2471 102.271 50.1611 102.271 51.3506ZM114.329 49.9619L116.438 46.4902H118.337L115.226 51.1924L118.434 56H116.553L114.355 52.4404L112.158 56H110.269L113.477 51.1924L110.365 46.4902H112.246L114.329 49.9619ZM126.599 56H124.911V43.2031H126.599V56ZM131.644 44.1875V46.4902H133.419V47.7471H131.644V53.6445C131.644 54.0254 131.723 54.3125 131.881 54.5059C132.039 54.6934 132.309 54.7871 132.689 54.7871C132.877 54.7871 133.135 54.752 133.463 54.6816V56C133.035 56.1172 132.619 56.1758 132.215 56.1758C131.488 56.1758 130.94 55.9561 130.571 55.5166C130.202 55.0771 130.018 54.4531 130.018 53.6445V47.7471H128.286V46.4902H130.018V44.1875H131.644ZM139.272 56.1758C137.983 56.1758 136.935 55.7539 136.126 54.9102C135.317 54.0605 134.913 52.9268 134.913 51.5088V51.21C134.913 50.2666 135.092 49.4258 135.449 48.6875C135.812 47.9434 136.316 47.3633 136.961 46.9473C137.611 46.5254 138.314 46.3145 139.07 46.3145C140.307 46.3145 141.268 46.7217 141.953 47.5361C142.639 48.3506 142.981 49.5166 142.981 51.0342V51.7109H136.539C136.562 52.6484 136.835 53.4072 137.356 53.9873C137.884 54.5615 138.552 54.8486 139.36 54.8486C139.935 54.8486 140.421 54.7314 140.819 54.4971C141.218 54.2627 141.566 53.9521 141.865 53.5654L142.858 54.3389C142.062 55.5635 140.866 56.1758 139.272 56.1758ZM139.07 47.6504C138.414 47.6504 137.863 47.8906 137.418 48.3711C136.973 48.8457 136.697 49.5137 136.592 50.375H141.355V50.252C141.309 49.4258 141.086 48.7871 140.688 48.3359C140.289 47.8789 139.75 47.6504 139.07 47.6504ZM146.4 46.4902L146.444 47.5449C147.142 46.7246 148.082 46.3145 149.266 46.3145C150.596 46.3145 151.501 46.8242 151.981 47.8438C152.298 47.3867 152.708 47.0176 153.212 46.7363C153.722 46.4551 154.322 46.3145 155.014 46.3145C157.1 46.3145 158.16 47.4189 158.195 49.6279V56H156.569V49.7246C156.569 49.0449 156.414 48.5381 156.104 48.2041C155.793 47.8643 155.271 47.6943 154.539 47.6943C153.936 47.6943 153.435 47.876 153.036 48.2393C152.638 48.5967 152.406 49.0801 152.342 49.6895V56H150.707V49.7686C150.707 48.3857 150.03 47.6943 148.677 47.6943C147.61 47.6943 146.881 48.1484 146.488 49.0566V56H144.862V46.4902H146.4Z" fill="black"/>
<rect x="0.5" y="40.5" width="19" height="19" rx="3.5" fill="white" stroke="#00A19B"/>
<rect x="0.5" y="1.5" width="19" height="19" rx="3.5" fill="white" stroke="#ACACAC"/>
<rect x="0.5" y="40.3577" width="19" height="19" rx="3.5" fill="#ACACAC" stroke="#ACACAC"/>
<path d="M6 49.8577L9 52.8577L15 46.8577" stroke="white" stroke-width="3" stroke-linecap="round" stroke-linejoin="round"/>
</svg>
