<svg xmlns="http://www.w3.org/2000/svg" viewBox="0 0 352.89 183.65"><defs><style>.cls-1,.cls-2{fill:#fff;}.cls-1{stroke:#d9d9d9;}.cls-2{stroke:#00a19b;}.cls-3{fill:#d32432;}.cls-4{fill:none;stroke:#d32432;stroke-miterlimit:10;}</style></defs><g id="圖層_2" data-name="圖層 2"><g id="圖層_1-2" data-name="圖層 1"><path class="cls-1" d="M56.89.5h292a3.5,3.5,0,0,1,3.5,3.5V51.5h-299V4A3.5,3.5,0,0,1,56.89.5Z"/><path d="M115.29,31.62h6.06V33h-7.76V20.2h1.7Zm9.5,1.38h-1.63V23.49h1.63ZM123,21a1,1,0,0,1,.24-.66A.89.89,0,0,1,124,20a.91.91,0,0,1,.72.28A1,1,0,0,1,125,21a.92.92,0,0,1-.24.66.94.94,0,0,1-.72.27.91.91,0,0,1-.72-.27A.92.92,0,0,1,123,21Zm9.91,9.51a1.18,1.18,0,0,0-.51-1,4.77,4.77,0,0,0-1.73-.63,8.86,8.86,0,0,1-2-.63,2.91,2.91,0,0,1-1.07-.88,2.12,2.12,0,0,1-.34-1.21,2.49,2.49,0,0,1,1-2,3.88,3.88,0,0,1,2.53-.81,4,4,0,0,1,2.62.83,2.64,2.64,0,0,1,1,2.14h-1.63a1.47,1.47,0,0,0-.57-1.15,2.13,2.13,0,0,0-1.43-.48,2.23,2.23,0,0,0-1.39.38,1.24,1.24,0,0,0-.5,1,1,1,0,0,0,.47.89,5.65,5.65,0,0,0,1.68.57,9,9,0,0,1,2,.65,2.8,2.8,0,0,1,1.11.92,2.16,2.16,0,0,1,.37,1.29,2.45,2.45,0,0,1-1,2,4.28,4.28,0,0,1-2.64.76,4.81,4.81,0,0,1-2-.4,3.43,3.43,0,0,1-1.38-1.13,2.8,2.8,0,0,1-.49-1.57h1.63a1.69,1.69,0,0,0,.65,1.3,2.56,2.56,0,0,0,1.62.47,2.67,2.67,0,0,0,1.47-.36A1.17,1.17,0,0,0,132.94,30.47Zm5.95-9.29v2.31h1.77v1.25h-1.77v5.9a1.32,1.32,0,0,0,.23.86,1,1,0,0,0,.81.28,3.76,3.76,0,0,0,.77-.1V33a4.93,4.93,0,0,1-1.24.17,2,2,0,0,1-1.65-.66,2.82,2.82,0,0,1-.55-1.87v-5.9h-1.73V23.49h1.73V21.18ZM149.1,33h-1.69V20.2h1.69Zm5-11.82v2.31h1.78v1.25h-1.78v5.9a1.32,1.32,0,0,0,.24.86,1,1,0,0,0,.81.28,3.84,3.84,0,0,0,.77-.1V33a5,5,0,0,1-1.25.17,2,2,0,0,1-1.64-.66,2.82,2.82,0,0,1-.55-1.87v-5.9h-1.73V23.49h1.73V21.18Zm7.63,12a4.14,4.14,0,0,1-3.14-1.26,4.75,4.75,0,0,1-1.22-3.41v-.29a5.7,5.7,0,0,1,.54-2.53,4.28,4.28,0,0,1,1.51-1.74,3.81,3.81,0,0,1,2.11-.63,3.56,3.56,0,0,1,2.88,1.22,5.28,5.28,0,0,1,1,3.5v.68H159a3.35,3.35,0,0,0,.82,2.27,2.56,2.56,0,0,0,2,.86,2.8,2.8,0,0,0,1.46-.35,3.56,3.56,0,0,0,1.05-.93l1,.77A4,4,0,0,1,161.77,33.17Zm-.2-8.52a2.15,2.15,0,0,0-1.65.72,3.44,3.44,0,0,0-.83,2h4.77v-.12a3.09,3.09,0,0,0-.67-1.92A2,2,0,0,0,161.57,24.65Zm7.33-1.16,0,1.05a3.53,3.53,0,0,1,2.83-1.23,2.71,2.71,0,0,1,2.71,1.53,3.51,3.51,0,0,1,3-1.53q3.13,0,3.19,3.31V33h-1.63V26.72a2.16,2.16,0,0,0-.47-1.52,2,2,0,0,0-1.56-.51,2.14,2.14,0,0,0-1.5.54,2.23,2.23,0,0,0-.7,1.45V33h-1.63V26.76a1.81,1.81,0,0,0-2-2.07A2.17,2.17,0,0,0,169,26.05v7h-1.63V23.49Z"/><rect class="cls-2" x="73.13" y="16.5" width="18.74" height="19" rx="3.5"/><rect class="cls-1" x="53.39" y="51.25" width="299" height="51"/><path d="M115.29,82.37h6.06v1.38h-7.76V71h1.7Zm9.5,1.38h-1.63V74.24h1.63Zm-1.76-12a1,1,0,0,1,.24-.66.89.89,0,0,1,.72-.28.91.91,0,0,1,.72.28,1,1,0,0,1,.24.66.92.92,0,0,1-.24.66.94.94,0,0,1-.72.27.91.91,0,0,1-.72-.27A.92.92,0,0,1,123,71.71Zm9.91,9.51a1.18,1.18,0,0,0-.51-1,4.77,4.77,0,0,0-1.73-.63,8.86,8.86,0,0,1-2-.63,2.91,2.91,0,0,1-1.07-.88,2.12,2.12,0,0,1-.34-1.21,2.49,2.49,0,0,1,1-2,3.88,3.88,0,0,1,2.53-.81,4,4,0,0,1,2.62.83,2.64,2.64,0,0,1,1,2.14h-1.63a1.47,1.47,0,0,0-.57-1.15,2.13,2.13,0,0,0-1.43-.48,2.23,2.23,0,0,0-1.39.38,1.24,1.24,0,0,0-.5,1,1,1,0,0,0,.47.89,5.65,5.65,0,0,0,1.68.57,9,9,0,0,1,2,.65,2.8,2.8,0,0,1,1.11.92,2.16,2.16,0,0,1,.37,1.29,2.45,2.45,0,0,1-1,2,4.28,4.28,0,0,1-2.64.76,4.81,4.81,0,0,1-2-.4,3.43,3.43,0,0,1-1.38-1.13,2.8,2.8,0,0,1-.49-1.57h1.63a1.69,1.69,0,0,0,.65,1.3,2.56,2.56,0,0,0,1.62.47,2.58,2.58,0,0,0,1.47-.37A1.14,1.14,0,0,0,132.94,81.22Zm5.95-9.29v2.31h1.77v1.25h-1.77v5.9a1.32,1.32,0,0,0,.23.86,1,1,0,0,0,.81.28,3.76,3.76,0,0,0,.77-.1v1.32a4.93,4.93,0,0,1-1.24.17,2,2,0,0,1-1.65-.66,2.82,2.82,0,0,1-.55-1.87v-5.9h-1.73V74.24h1.73V71.93ZM149.1,83.75h-1.69V71h1.69Zm5-11.82v2.31h1.78v1.25h-1.78v5.9a1.32,1.32,0,0,0,.24.86,1,1,0,0,0,.81.28,3.84,3.84,0,0,0,.77-.1v1.32a5,5,0,0,1-1.25.17,2,2,0,0,1-1.64-.66,2.82,2.82,0,0,1-.55-1.87v-5.9h-1.73V74.24h1.73V71.93Zm7.63,12a4.14,4.14,0,0,1-3.14-1.26,4.75,4.75,0,0,1-1.22-3.41V79a5.7,5.7,0,0,1,.54-2.53,4.28,4.28,0,0,1,1.51-1.74,3.81,3.81,0,0,1,2.11-.63,3.56,3.56,0,0,1,2.88,1.22,5.28,5.28,0,0,1,1,3.5v.68H159a3.35,3.35,0,0,0,.82,2.27,2.56,2.56,0,0,0,2,.86,2.8,2.8,0,0,0,1.46-.35,3.56,3.56,0,0,0,1.05-.93l1,.77A4,4,0,0,1,161.77,83.92Zm-.2-8.52a2.15,2.15,0,0,0-1.65.72,3.44,3.44,0,0,0-.83,2h4.77V78a3.09,3.09,0,0,0-.67-1.92A2,2,0,0,0,161.57,75.4Zm7.33-1.16,0,1.05a3.53,3.53,0,0,1,2.83-1.23,2.71,2.71,0,0,1,2.71,1.53,3.51,3.51,0,0,1,3-1.53q3.13,0,3.19,3.31v6.38h-1.63V77.47A2.16,2.16,0,0,0,178.6,76a2,2,0,0,0-1.56-.51,2.14,2.14,0,0,0-1.5.54,2.23,2.23,0,0,0-.7,1.45v6.32h-1.63V77.51a1.81,1.81,0,0,0-2-2.07A2.17,2.17,0,0,0,169,76.8v7h-1.63V74.24Z"/><rect class="cls-2" x="73.13" y="67.25" width="18.74" height="19" rx="3.5"/><rect class="cls-1" x="53.39" y="102" width="299" height="51"/><path d="M115.29,133.12h6.06v1.37h-7.76V121.7h1.7Zm9.5,1.37h-1.63V125h1.63Zm-1.76-12a1,1,0,0,1,.24-.67.91.91,0,0,1,.72-.27.94.94,0,0,1,.72.27,1,1,0,0,1,.24.67.92.92,0,0,1-.24.66.94.94,0,0,1-.72.27.91.91,0,0,1-.72-.27A.92.92,0,0,1,123,122.46Zm9.91,9.51a1.18,1.18,0,0,0-.51-1,4.77,4.77,0,0,0-1.73-.63,8.36,8.36,0,0,1-2-.63,2.91,2.91,0,0,1-1.07-.88,2.1,2.1,0,0,1-.34-1.21,2.49,2.49,0,0,1,1-2,3.88,3.88,0,0,1,2.53-.81,4,4,0,0,1,2.62.83,2.64,2.64,0,0,1,1,2.14h-1.63a1.45,1.45,0,0,0-.57-1.15,2.13,2.13,0,0,0-1.43-.48,2.29,2.29,0,0,0-1.39.38,1.24,1.24,0,0,0-.5,1,1,1,0,0,0,.47.89,5.65,5.65,0,0,0,1.68.57,9,9,0,0,1,2,.65,2.8,2.8,0,0,1,1.11.92,2.16,2.16,0,0,1,.37,1.29,2.45,2.45,0,0,1-1,2,4.28,4.28,0,0,1-2.64.76,4.81,4.81,0,0,1-2-.4,3.43,3.43,0,0,1-1.38-1.13,2.8,2.8,0,0,1-.49-1.57h1.63a1.69,1.69,0,0,0,.65,1.3,2.56,2.56,0,0,0,1.62.47,2.67,2.67,0,0,0,1.47-.36A1.17,1.17,0,0,0,132.94,132Zm5.95-9.29V125h1.77v1.25h-1.77v5.9a1.32,1.32,0,0,0,.23.86,1,1,0,0,0,.81.28,3.76,3.76,0,0,0,.77-.1v1.31a4.54,4.54,0,0,1-1.24.18,2,2,0,0,1-1.65-.66,2.82,2.82,0,0,1-.55-1.87v-5.9h-1.73V125h1.73v-2.31Zm10.21,11.81h-1.69V121.7h1.69Zm5-11.81V125h1.78v1.25h-1.78v5.9a1.32,1.32,0,0,0,.24.86,1,1,0,0,0,.81.28,3.84,3.84,0,0,0,.77-.1v1.31a4.55,4.55,0,0,1-1.25.18,2,2,0,0,1-1.64-.66,2.82,2.82,0,0,1-.55-1.87v-5.9h-1.73V125h1.73v-2.31Zm7.63,12a4.14,4.14,0,0,1-3.14-1.26,4.75,4.75,0,0,1-1.22-3.41v-.29a5.7,5.7,0,0,1,.54-2.53,4.28,4.28,0,0,1,1.51-1.74,3.81,3.81,0,0,1,2.11-.63,3.56,3.56,0,0,1,2.88,1.22,5.28,5.28,0,0,1,1,3.5v.68H159a3.35,3.35,0,0,0,.82,2.27,2.56,2.56,0,0,0,2,.86,2.8,2.8,0,0,0,1.46-.35,3.56,3.56,0,0,0,1.05-.93l1,.77A4,4,0,0,1,161.77,134.67Zm-.2-8.52a2.15,2.15,0,0,0-1.65.72,3.44,3.44,0,0,0-.83,2h4.77v-.12a3.09,3.09,0,0,0-.67-1.92A2,2,0,0,0,161.57,126.15ZM168.9,125l0,1.05a3.53,3.53,0,0,1,2.83-1.23,2.71,2.71,0,0,1,2.71,1.53,3.51,3.51,0,0,1,3-1.53q3.13,0,3.19,3.31v6.37h-1.63v-6.27a2.16,2.16,0,0,0-.47-1.52,2,2,0,0,0-1.56-.51,2.1,2.1,0,0,0-1.5.55,2.18,2.18,0,0,0-.7,1.44v6.31h-1.63v-6.23a1.81,1.81,0,0,0-2-2.07,2.17,2.17,0,0,0-2.19,1.36v6.94h-1.63V125Z"/><rect class="cls-2" x="73.13" y="118" width="18.74" height="19" rx="3.5"/><path class="cls-3" d="M52.07,172.71v8.57h-1v-7.37a4.61,4.61,0,0,1-2,1.18v-1a4.85,4.85,0,0,0,1.2-.51,5,5,0,0,0,1-.88Z"/><path class="cls-3" d="M61.31,174.84h-1a1.62,1.62,0,0,0-1.77-1.47,1.75,1.75,0,0,0-1.58,1,4.47,4.47,0,0,0-.57,2.4,2.41,2.41,0,0,0,0,.31h0a2.48,2.48,0,0,1,2.26-1.4,2.62,2.62,0,0,1,2,.79,3.13,3.13,0,0,1-.08,4.13,2.77,2.77,0,0,1-2.07.84,2.67,2.67,0,0,1-2.35-1.16,5.37,5.37,0,0,1-.74-3.06,6.13,6.13,0,0,1,.8-3.33,2.59,2.59,0,0,1,2.3-1.35A2.47,2.47,0,0,1,61.31,174.84Zm-4.18,2.23a2,2,0,0,0-.55,1.46,2,2,0,0,0,.53,1.47,1.8,1.8,0,0,0,1.43.62,1.86,1.86,0,0,0,1.4-.59,2.21,2.21,0,0,0,.54-1.52,2,2,0,0,0-.53-1.46,2,2,0,0,0-2.82,0Z"/><path class="cls-3" d="M69.37,175.9a4,4,0,0,1,0,4.56,2.47,2.47,0,0,1-2.07,1,2.24,2.24,0,0,1-2-1.29v3.5h-1v-8.57h.9v1a2.18,2.18,0,0,1,2.06-1.19A2.51,2.51,0,0,1,69.37,175.9Zm-3.68.53a2.87,2.87,0,0,0-.47,1.7v.12a2.66,2.66,0,0,0,.53,1.74,1.62,1.62,0,0,0,1.35.66,1.83,1.83,0,0,0,1.53-.69,3,3,0,0,0,.46-1.77,3.1,3.1,0,0,0-.44-1.75,1.72,1.72,0,0,0-1.51-.74A1.65,1.65,0,0,0,65.69,176.43Z"/><path class="cls-3" d="M73.54,175.08l1.6,2.2,1.6-2.2h1.13L75.67,178l2.46,3.29H77l-1.85-2.58-1.86,2.58H72.15L74.6,178l-2.19-2.91Z"/><path class="cls-3" d="M3,106.26v8.56H2v-7.37a4.46,4.46,0,0,1-2,1.18v-1a5.32,5.32,0,0,0,1.2-.52,4.93,4.93,0,0,0,1-.87Z"/><path class="cls-3" d="M12.24,108.38h-1a1.63,1.63,0,0,0-1.78-1.47,1.75,1.75,0,0,0-1.58,1,4.47,4.47,0,0,0-.57,2.4,2.24,2.24,0,0,0,0,.31h0a2.39,2.39,0,0,1,.93-1,2.35,2.35,0,0,1,1.33-.37,2.62,2.62,0,0,1,2,.79,3.14,3.14,0,0,1-.08,4.14,2.8,2.8,0,0,1-2.07.84,2.68,2.68,0,0,1-2.35-1.17,5.35,5.35,0,0,1-.74-3,6.16,6.16,0,0,1,.8-3.34,2.58,2.58,0,0,1,2.3-1.34A2.46,2.46,0,0,1,12.24,108.38Zm-4.18,2.23a2,2,0,0,0-.55,1.46A2.08,2.08,0,0,0,8,113.55a1.8,1.8,0,0,0,1.43.61,1.83,1.83,0,0,0,1.4-.59,2.21,2.21,0,0,0,.54-1.52,2,2,0,0,0-.53-1.45A1.82,1.82,0,0,0,9.47,110,1.89,1.89,0,0,0,8.06,110.61Z"/><path class="cls-3" d="M20.3,109.45a4,4,0,0,1,0,4.55,2.47,2.47,0,0,1-2.07,1,2.23,2.23,0,0,1-2-1.3v3.5h-1v-8.57h.9v1a2.19,2.19,0,0,1,2.06-1.19A2.48,2.48,0,0,1,20.3,109.45Zm-3.68.52a2.88,2.88,0,0,0-.47,1.71v.12a2.68,2.68,0,0,0,.53,1.74,1.61,1.61,0,0,0,1.35.65,1.79,1.79,0,0,0,1.53-.69,3,3,0,0,0,.46-1.76,3.14,3.14,0,0,0-.44-1.76,1.72,1.72,0,0,0-1.51-.74A1.65,1.65,0,0,0,16.62,110Z"/><path class="cls-3" d="M24.47,108.62l1.6,2.2,1.6-2.2H28.8l-2.2,2.91,2.46,3.29H27.92l-1.85-2.58-1.85,2.58H23.08l2.45-3.29-2.19-2.91Z"/><line class="cls-4" x1="59.43" y1="163.32" x2="68.43" y2="163.32"/><path class="cls-3" d="M53.39,163.32a30.18,30.18,0,0,1,8.55,4.75l-1.72-4.75,1.72-4.76A30,30,0,0,1,53.39,163.32Z"/><path class="cls-3" d="M74.47,163.32a30.31,30.31,0,0,0-8.55,4.75l1.72-4.75-1.72-4.76A30.1,30.1,0,0,0,74.47,163.32Z"/><line class="cls-4" x1="39.06" y1="107.98" x2="39.06" y2="116.98"/><path class="cls-3" d="M39.06,101.94a30.18,30.18,0,0,1-4.75,8.55l4.75-1.72,4.76,1.72A30.45,30.45,0,0,1,39.06,101.94Z"/><path class="cls-3" d="M39.06,123a30.31,30.31,0,0,0-4.75-8.55l4.75,1.72,4.76-1.72A30.59,30.59,0,0,0,39.06,123Z"/></g></g></svg>