<svg xmlns="http://www.w3.org/2000/svg" viewBox="0 0 158.1 49.93"><defs><style>.cls-1{fill:#d32432;}.cls-2,.cls-3{fill:none;}.cls-2{stroke:#d32432;stroke-miterlimit:10;}.cls-3{stroke:#00a19b;}</style></defs><g id="圖層_2" data-name="圖層 2"><g id="圖層_1-2" data-name="圖層 1"><path class="cls-1" d="M22.44,39.5a2.36,2.36,0,0,1,.76,1.81,2.88,2.88,0,0,1-.84,2,12,12,0,0,1-1.77,1.38,4.18,4.18,0,0,0-1.87,2h4.49v.87h-5.7a3,3,0,0,1,.85-2.12,9.88,9.88,0,0,1,1.86-1.53,11,11,0,0,0,1.34-1.06,2.27,2.27,0,0,0,.66-1.54,1.56,1.56,0,0,0-.47-1.21,1.85,1.85,0,0,0-1.31-.43,1.59,1.59,0,0,0-1.35.6A2.57,2.57,0,0,0,18.56,42h-1a3.23,3.23,0,0,1,.8-2.29,2.75,2.75,0,0,1,2.1-.86A2.89,2.89,0,0,1,22.44,39.5Z"/><path class="cls-1" d="M31.37,40.17a6,6,0,0,1,.69,3.1,6,6,0,0,1-.69,3.09,2.64,2.64,0,0,1-4.62,0,6,6,0,0,1-.69-3.09,6,6,0,0,1,.69-3.1,2.65,2.65,0,0,1,4.62,0Zm-4,.72A6.58,6.58,0,0,0,27,43.27a6.6,6.6,0,0,0,.36,2.37,1.73,1.73,0,0,0,1.66,1.24,1.71,1.71,0,0,0,1.65-1.24,6.14,6.14,0,0,0,.38-2.37,6.13,6.13,0,0,0-.38-2.38,1.7,1.7,0,0,0-1.65-1.23A1.72,1.72,0,0,0,27.4,40.89Z"/><path class="cls-1" d="M40,42.18a4,4,0,0,1,0,4.55,2.48,2.48,0,0,1-2.07,1,2.22,2.22,0,0,1-2.05-1.3v3.51h-1V41.35h.9v1a2.19,2.19,0,0,1,2.06-1.19A2.52,2.52,0,0,1,40,42.18Zm-3.68.53a2.78,2.78,0,0,0-.47,1.7v.12a2.68,2.68,0,0,0,.53,1.74,1.62,1.62,0,0,0,1.35.66,1.81,1.81,0,0,0,1.53-.7,3,3,0,0,0,.46-1.76,3.1,3.1,0,0,0-.44-1.75A1.7,1.7,0,0,0,37.75,42,1.63,1.63,0,0,0,36.3,42.71Z"/><path class="cls-1" d="M44.15,41.35l1.6,2.21,1.6-2.21h1.12l-2.19,2.91,2.46,3.29H47.6L45.75,45l-1.86,2.58H42.75l2.46-3.29L43,41.35Z"/><line class="cls-2" x1="27.65" y1="29.59" x2="36.65" y2="29.59"/><path class="cls-1" d="M21.61,29.59a30.2,30.2,0,0,1,8.55,4.76l-1.72-4.76,1.72-4.75A30.18,30.18,0,0,1,21.61,29.59Z"/><path class="cls-1" d="M42.69,29.59a30.34,30.34,0,0,0-8.55,4.76l1.72-4.76-1.72-4.75A30.31,30.31,0,0,0,42.69,29.59Z"/><path d="M50.9,11.9A4.81,4.81,0,0,1,49.4,15a5,5,0,0,1-3.3,1.1,4.38,4.38,0,0,1-3.6-1.6A5.92,5.92,0,0,1,41,10.2V9a7.45,7.45,0,0,1,.6-3.1,4.63,4.63,0,0,1,1.8-2.1A5.66,5.66,0,0,1,46.2,3a5,5,0,0,1,3.3,1.1,4.72,4.72,0,0,1,1.4,3.1H49.2a3.25,3.25,0,0,0-1-2.2,2.72,2.72,0,0,0-2-.7,2.91,2.91,0,0,0-2.5,1.2,5.4,5.4,0,0,0-1,3.5v1.2a5.39,5.39,0,0,0,.9,3.3A2.85,2.85,0,0,0,46,14.7a3.59,3.59,0,0,0,2.2-.6,3.77,3.77,0,0,0,1-2.2Zm3.7-4.3a3.41,3.41,0,0,1,2.8-1.3c2,0,3,1.1,3,3.4V16H58.8V9.7a2.07,2.07,0,0,0-.5-1.5,2,2,0,0,0-1.4-.5,2.3,2.3,0,0,0-1.4.4,3.13,3.13,0,0,0-.9,1.1V16H53V2.5h1.6Zm12.2,8.6a3.87,3.87,0,0,1-3.1-1.3,4.7,4.7,0,0,1-1.2-3.4v-.3A6.55,6.55,0,0,1,63,8.7,5,5,0,0,1,64.5,7a4.2,4.2,0,0,1,2.1-.6,3.7,3.7,0,0,1,2.9,1.2,5.22,5.22,0,0,1,1,3.5v.7H64.1a3.57,3.57,0,0,0,.8,2.3,2.52,2.52,0,0,0,2,.9,2.41,2.41,0,0,0,1.5-.4,2.84,2.84,0,0,0,1-.9l1,.8A4.2,4.2,0,0,1,66.8,16.2Zm-.2-8.5a2.19,2.19,0,0,0-1.7.7,3.67,3.67,0,0,0-.8,2h4.8v-.1a2.74,2.74,0,0,0-.7-1.9A1.86,1.86,0,0,0,66.6,7.7Zm9.6,7.1a2.46,2.46,0,0,0,1.5-.5,1.89,1.89,0,0,0,.7-1.3H80a2.66,2.66,0,0,1-.6,1.6A3.33,3.33,0,0,1,78,15.8a3.92,3.92,0,0,1-1.8.4,3.87,3.87,0,0,1-3.1-1.3A5.72,5.72,0,0,1,72,11.3V11a7,7,0,0,1,.5-2.5A3.53,3.53,0,0,1,74,6.8a4.14,4.14,0,0,1,2.3-.6,3.62,3.62,0,0,1,2.7,1,3.25,3.25,0,0,1,1.1,2.5H78.6a2.13,2.13,0,0,0-.7-1.5,2,2,0,0,0-1.5-.6,2.2,2.2,0,0,0-1.9.9,4,4,0,0,0-.7,2.6v.3a3.73,3.73,0,0,0,.7,2.5C74.7,14.6,75.4,14.8,76.2,14.8Zm8.3-3.2-1,1.1V16H81.9V2.5h1.6v8.2l.9-1,3-3.1h2l-3.7,4,4.1,5.5H87.9ZM99,11.4a5.4,5.4,0,0,1-1,3.5,3.23,3.23,0,0,1-2.7,1.3,3.29,3.29,0,0,1-2.8-1.3V16H91V2.5h1.6v5a3.42,3.42,0,0,1,2.7-1.2A3,3,0,0,1,98,7.6a5.7,5.7,0,0,1,1,3.6Zm-1.6-.2a4.76,4.76,0,0,0-.6-2.6A2,2,0,0,0,95,7.7a2.37,2.37,0,0,0-2.3,1.5v4.1A2.47,2.47,0,0,0,95,14.8a2,2,0,0,0,1.8-.9A4.91,4.91,0,0,0,97.4,11.2Zm3.2,0a6.55,6.55,0,0,1,.5-2.5A5,5,0,0,1,102.6,7a4.28,4.28,0,0,1,2.2-.6,3.87,3.87,0,0,1,3.1,1.3,5.22,5.22,0,0,1,1.2,3.6v.1a6.55,6.55,0,0,1-.5,2.5,5,5,0,0,1-1.5,1.7,4.38,4.38,0,0,1-2.3.6,3.87,3.87,0,0,1-3.1-1.3,5.22,5.22,0,0,1-1.2-3.6v-.1Zm1.7.2a3.73,3.73,0,0,0,.7,2.5,2.46,2.46,0,0,0,2,1,2.33,2.33,0,0,0,2-1,4.53,4.53,0,0,0,.7-2.7,3.9,3.9,0,0,0-.7-2.5,2.22,2.22,0,0,0-2-1,2.17,2.17,0,0,0-1.9,1A3.5,3.5,0,0,0,102.3,11.4Zm12-1.4,2.1-3.5h1.9l-3.1,4.7,3.2,4.8h-1.9l-2.2-3.6L112.1,16h-1.9l3.2-4.8-3.1-4.7h1.9Zm12.3,6h-1.7V3.2h1.7Zm5-11.8V6.5h1.8V7.8h-1.8v5.9a2,2,0,0,0,.2.9,1,1,0,0,0,.8.3,2.81,2.81,0,0,0,.8-.1V16a5,5,0,0,1-1.2.2,1.75,1.75,0,0,1-1.6-.7,2.71,2.71,0,0,1-.6-1.9V7.7h-1.7V6.5H130V4.2Zm7.7,12a3.87,3.87,0,0,1-3.1-1.3,4.7,4.7,0,0,1-1.2-3.4v-.3a6.55,6.55,0,0,1,.5-2.5A5,5,0,0,1,137,7a3.94,3.94,0,0,1,2.1-.6A3.7,3.7,0,0,1,142,7.6a5.22,5.22,0,0,1,1,3.5v.7h-6.4a3.57,3.57,0,0,0,.8,2.3,2.52,2.52,0,0,0,2,.9,2.41,2.41,0,0,0,1.5-.4,2.84,2.84,0,0,0,1-.9l1,.8A4.2,4.2,0,0,1,139.3,16.2Zm-.2-8.5a2.19,2.19,0,0,0-1.7.7,3.67,3.67,0,0,0-.8,2h4.8v-.1a2.74,2.74,0,0,0-.7-1.9A1.86,1.86,0,0,0,139.1,7.7Zm7.3-1.2V7.6a3.49,3.49,0,0,1,2.8-1.2,2.75,2.75,0,0,1,2.7,1.5,3.18,3.18,0,0,1,1.2-1.1,3.42,3.42,0,0,1,1.8-.4c2.1,0,3.1,1.1,3.2,3.3V16h-1.6V9.7a2.07,2.07,0,0,0-.5-1.5,2.17,2.17,0,0,0-1.6-.5,2.46,2.46,0,0,0-1.5.5,2.36,2.36,0,0,0-.7,1.5V16h-1.6V9.8a1.83,1.83,0,0,0-2-2.1,2.21,2.21,0,0,0-2.2,1.4V16h-1.6V6.5Z"/><path class="cls-3" d="M4,.5H16A3.54,3.54,0,0,1,19.5,4V16A3.54,3.54,0,0,1,16,19.5H4A3.54,3.54,0,0,1,.5,16V4A3.54,3.54,0,0,1,4,.5Z"/></g></g></svg>