<?xml version="1.0" encoding="utf-8"?>
<!-- Generator: Adobe Illustrator 25.2.1, SVG Export Plug-In . SVG Version: 6.00 Build 0)  -->
<svg version="1.1" id="圖層_1" xmlns="http://www.w3.org/2000/svg" xmlns:xlink="http://www.w3.org/1999/xlink" x="0px" y="0px"
	 viewBox="0 0 160 21" style="enable-background:new 0 0 160 21;" xml:space="preserve">
<style type="text/css">
	.st0{fill:#00A19B;stroke:#00A19B;}
	.st1{fill:none;stroke:#FFFFFF;stroke-width:3;stroke-linecap:round;stroke-linejoin:round;}
</style>
<path d="M50.9,12.9c-0.2,1.4-0.7,2.4-1.5,3.1c-0.8,0.7-2,1.1-3.3,1.1c-1.5,0-2.7-0.5-3.6-1.6C41.5,14.5,41,13,41,11.2V10
	c0-1.2,0.2-2.2,0.6-3.1c0.4-0.9,1-1.6,1.8-2.1C44.3,4.3,45.2,4,46.2,4c1.4,0,2.4,0.4,3.3,1.1c0.8,0.8,1.3,1.8,1.4,3.1h-1.7
	c-0.1-1-0.5-1.8-1-2.2c-0.5-0.5-1.2-0.7-2-0.7c-1.1,0-1.9,0.4-2.5,1.2C43,7.4,42.7,8.5,42.7,10v1.2c0,1.4,0.3,2.5,0.9,3.3
	s1.4,1.2,2.4,1.2c0.9,0,1.7-0.2,2.2-0.6c0.5-0.4,0.8-1.2,1-2.2H50.9z M54.6,8.6c0.7-0.9,1.7-1.3,2.8-1.3c2,0,3,1.1,3,3.4V17h-1.6
	v-6.3c0-0.7-0.2-1.2-0.5-1.5c-0.3-0.3-0.8-0.5-1.4-0.5c-0.5,0-1,0.1-1.4,0.4s-0.7,0.7-0.9,1.1V17H53V3.5h1.6V8.6z M66.8,17.2
	c-1.3,0-2.3-0.4-3.1-1.3c-0.8-0.8-1.2-2-1.2-3.4v-0.3c0-0.9,0.2-1.8,0.5-2.5c0.4-0.7,0.9-1.3,1.5-1.7c0.7-0.4,1.4-0.6,2.1-0.6
	c1.2,0,2.2,0.4,2.9,1.2c0.7,0.8,1,2,1,3.5v0.7h-6.4c0,0.9,0.3,1.7,0.8,2.3c0.5,0.6,1.2,0.9,2,0.9c0.6,0,1.1-0.1,1.5-0.4
	c0.4-0.2,0.7-0.5,1-0.9l1,0.8C69.6,16.6,68.4,17.2,66.8,17.2z M66.6,8.7c-0.7,0-1.2,0.2-1.7,0.7c-0.4,0.5-0.7,1.1-0.8,2h4.8v-0.1
	c0-0.8-0.3-1.5-0.7-1.9C67.8,8.9,67.3,8.7,66.6,8.7z M76.2,15.8c0.6,0,1.1-0.2,1.5-0.5c0.4-0.4,0.7-0.8,0.7-1.3H80
	c0,0.5-0.2,1.1-0.6,1.6c-0.3,0.5-0.8,0.9-1.4,1.2c-0.6,0.3-1.2,0.4-1.8,0.4c-1.3,0-2.3-0.4-3.1-1.3C72.4,15,72,13.8,72,12.3v-0.3
	c0-0.9,0.2-1.7,0.5-2.5c0.3-0.7,0.8-1.3,1.5-1.7c0.6-0.4,1.4-0.6,2.3-0.6c1.1,0,2,0.3,2.7,1c0.7,0.6,1.1,1.5,1.1,2.5h-1.5
	c0-0.6-0.3-1.1-0.7-1.5c-0.4-0.4-0.9-0.6-1.5-0.6c-0.8,0-1.5,0.3-1.9,0.9c-0.5,0.6-0.7,1.5-0.7,2.6v0.3c0,1.1,0.2,1.9,0.7,2.5
	C74.7,15.6,75.4,15.8,76.2,15.8z M84.5,12.6l-1,1.1V17h-1.6V3.5h1.6v8.2l0.9-1l3-3.1h2l-3.7,4l4.1,5.5h-1.9L84.5,12.6z M99,12.4
	c0,1.5-0.3,2.6-1,3.5c-0.7,0.9-1.6,1.3-2.7,1.3c-1.2,0-2.1-0.4-2.8-1.3L92.5,17H91V3.5h1.6v5c0.7-0.8,1.6-1.2,2.7-1.2
	c1.2,0,2.1,0.4,2.7,1.3c0.7,0.9,1,2.1,1,3.6V12.4z M97.4,12.2c0-1.1-0.2-2-0.6-2.6c-0.4-0.6-1-0.9-1.8-0.9c-1.1,0-1.8,0.5-2.3,1.5
	v4.1c0.5,1,1.3,1.5,2.3,1.5c0.8,0,1.4-0.3,1.8-0.9C97.2,14.3,97.4,13.4,97.4,12.2z M100.6,12.2c0-0.9,0.2-1.8,0.5-2.5
	c0.4-0.7,0.9-1.3,1.5-1.7c0.7-0.4,1.4-0.6,2.2-0.6c1.3,0,2.3,0.4,3.1,1.3c0.8,0.9,1.2,2.1,1.2,3.6v0.1c0,0.9-0.2,1.8-0.5,2.5
	c-0.4,0.7-0.9,1.3-1.5,1.7c-0.7,0.4-1.4,0.6-2.3,0.6c-1.3,0-2.3-0.4-3.1-1.3c-0.8-0.9-1.2-2.1-1.2-3.6V12.2z M102.3,12.4
	c0,1.1,0.2,1.9,0.7,2.5c0.5,0.6,1.1,1,2,1c0.8,0,1.5-0.3,2-1c0.5-0.7,0.7-1.6,0.7-2.7c0-1-0.2-1.9-0.7-2.5c-0.5-0.7-1.1-1-2-1
	c-0.8,0-1.4,0.3-1.9,1C102.5,10.2,102.3,11.2,102.3,12.4z M114.3,11l2.1-3.5h1.9l-3.1,4.7l3.2,4.8h-1.9l-2.2-3.6l-2.2,3.6h-1.9
	l3.2-4.8l-3.1-4.7h1.9L114.3,11z M126.6,17h-1.7V4.2h1.7V17z M131.6,5.2v2.3h1.8v1.3h-1.8v5.9c0,0.4,0.1,0.7,0.2,0.9
	c0.2,0.2,0.4,0.3,0.8,0.3c0.2,0,0.4,0,0.8-0.1V17c-0.4,0.1-0.8,0.2-1.2,0.2c-0.7,0-1.3-0.2-1.6-0.7c-0.4-0.4-0.6-1.1-0.6-1.9V8.7
	h-1.7V7.5h1.7V5.2H131.6z M139.3,17.2c-1.3,0-2.3-0.4-3.1-1.3c-0.8-0.8-1.2-2-1.2-3.4v-0.3c0-0.9,0.2-1.8,0.5-2.5
	c0.4-0.7,0.9-1.3,1.5-1.7c0.6-0.4,1.4-0.6,2.1-0.6c1.2,0,2.2,0.4,2.9,1.2c0.7,0.8,1,2,1,3.5v0.7h-6.4c0,0.9,0.3,1.7,0.8,2.3
	c0.5,0.6,1.2,0.9,2,0.9c0.6,0,1.1-0.1,1.5-0.4c0.4-0.2,0.7-0.5,1-0.9l1,0.8C142.1,16.6,140.9,17.2,139.3,17.2z M139.1,8.7
	c-0.7,0-1.2,0.2-1.7,0.7c-0.4,0.5-0.7,1.1-0.8,2h4.8v-0.1c0-0.8-0.3-1.5-0.7-1.9C140.3,8.9,139.8,8.7,139.1,8.7z M146.4,7.5l0,1.1
	c0.7-0.8,1.6-1.2,2.8-1.2c1.3,0,2.2,0.5,2.7,1.5c0.3-0.5,0.7-0.8,1.2-1.1c0.5-0.3,1.1-0.4,1.8-0.4c2.1,0,3.1,1.1,3.2,3.3V17h-1.6
	v-6.3c0-0.7-0.2-1.2-0.5-1.5c-0.3-0.3-0.8-0.5-1.6-0.5c-0.6,0-1.1,0.2-1.5,0.5c-0.4,0.4-0.6,0.8-0.7,1.5V17h-1.6v-6.2
	c0-1.4-0.7-2.1-2-2.1c-1.1,0-1.8,0.5-2.2,1.4V17h-1.6V7.5H146.4z"/>
<path class="st0" d="M4,1.5h12c1.9,0,3.5,1.6,3.5,3.5v12c0,1.9-1.6,3.5-3.5,3.5H4c-1.9,0-3.5-1.6-3.5-3.5V5C0.5,3.1,2.1,1.5,4,1.5z"
	/>
<path class="st1" d="M6,11l3,3l6-6"/>
</svg>
