<svg width="1191" height="81" viewBox="0 0 1191 81" fill="none" xmlns="http://www.w3.org/2000/svg">
<path d="M0 75H1191" stroke="#ACACAC" stroke-linejoin="round"/>
<path d="M24 72.5H114.5" stroke="#00A19B" stroke-width="4" stroke-linecap="round" stroke-linejoin="round"/>
<path d="M32.04 33.262V34.67C32.04 35.858 32.304 36.166 33.47 36.166H34.812C35.67 36.166 36.022 35.792 36.132 34.428C35.78 34.318 35.296 34.164 35.054 33.966C35.01 34.956 34.944 35.066 34.614 35.066H33.646C33.294 35.066 33.272 35.022 33.272 34.67V33.262H35.912V32.03H31.952V30.38H35.208V29.17H31.952V27.696H30.456V29.17H27.266V30.38H30.456V32.03H26.43V33.262H28.982C28.74 34.626 28.014 35.374 26.034 35.814C26.298 36.034 26.65 36.518 26.782 36.826C29.136 36.21 29.994 35.11 30.302 33.262H32.04ZM27.684 47.694C28.784 46.726 29.796 45.12 30.368 43.646L28.872 43.228C28.278 44.68 27.244 46.198 26.166 47.056L27.684 47.694ZM32.546 43.778C32.81 44.988 32.964 46.528 32.986 47.474L34.57 47.276C34.548 46.352 34.35 44.834 34.064 43.646L32.546 43.778ZM37.034 43.756C37.562 44.944 38.068 46.484 38.244 47.452L39.85 47.122C39.674 46.176 39.102 44.636 38.574 43.47L37.034 43.756ZM41.566 43.668C42.6 44.922 43.766 46.616 44.272 47.694L45.9 47.122C45.328 46.022 44.118 44.372 43.084 43.162L41.566 43.668ZM44.184 40.984C44.074 40.984 43.964 40.984 43.898 40.918C43.832 40.808 43.81 40.456 43.81 39.906V30.71H40.268C40.312 29.72 40.312 28.686 40.334 27.586H38.838C38.838 28.686 38.816 29.72 38.794 30.71H36.352V32.184H38.728C38.684 33.196 38.596 34.142 38.486 35.022C37.936 34.648 37.386 34.318 36.88 34.01L36.154 35.176C36.814 35.572 37.518 36.056 38.2 36.562C37.804 38.366 37.1 39.862 35.912 41.028L35.89 40.126C34.57 40.258 33.228 40.412 31.952 40.522V38.674H35.384V37.42H31.952V35.836H30.456V37.42H26.958V38.674H30.456V40.676C28.85 40.83 27.376 40.962 26.21 41.028L26.364 42.436C28.74 42.194 32.106 41.842 35.406 41.49L35.186 41.644C35.516 41.886 36.022 42.37 36.242 42.722C37.914 41.424 38.904 39.686 39.476 37.508C40.202 38.08 40.84 38.652 41.28 39.114L42.05 37.772C41.522 37.244 40.708 36.584 39.806 35.946C40.004 34.78 40.136 33.526 40.202 32.184H42.314V39.818C42.314 41.292 42.424 41.644 42.71 41.93C42.996 42.194 43.414 42.326 43.81 42.326H44.668C45.042 42.326 45.372 42.238 45.614 42.062C45.878 41.886 46.054 41.578 46.142 41.072C46.23 40.632 46.296 39.246 46.318 38.102C45.944 37.992 45.482 37.772 45.196 37.508C45.196 38.762 45.174 39.73 45.152 40.148C45.108 40.566 45.064 40.786 44.976 40.874C44.888 40.962 44.756 40.984 44.602 40.984H44.184ZM55.36 30.006V31.92H50.696V30.006H55.36ZM50.696 35.286V33.174H55.36V35.286H50.696ZM56.9 28.62H49.09V47.672H50.696V36.65H56.9V28.62ZM60.508 35.308V33.174H65.392V35.308H60.508ZM65.392 30.006V31.92H60.508V30.006H65.392ZM67.042 28.62H58.946V36.672H65.392V45.428C65.392 45.868 65.238 45.978 64.842 46C64.38 46.022 62.884 46.044 61.388 45.956C61.63 46.418 61.894 47.188 61.982 47.65C63.962 47.65 65.26 47.606 66.03 47.342C66.756 47.078 67.042 46.55 67.042 45.428V28.62ZM89.812 37.244V35.638H80.44V32.316H87.436V30.754H80.44V27.586H78.724V35.638H70.232V37.244H78.724V47.672H80.44V40.5C82.86 41.204 85.808 42.326 87.37 43.096L88.206 41.622C86.468 40.808 83.146 39.708 80.748 39.07L80.44 39.554V37.244H89.812ZM96.698 34.912H110.8V33.262H104.64V27.63H102.924V33.262H96.698V28.18H95.026V35.462C95.026 39.29 94.718 43.338 91.946 46.44C92.32 46.726 92.936 47.32 93.2 47.716C95.224 45.494 96.082 42.832 96.434 40.082H105.674V47.672H107.412V38.41H96.61C96.676 37.42 96.698 36.43 96.698 35.44V34.912Z" fill="#00A19B"/>
<path d="M136.59 74.7891H137.557V76.1543H136.59V78H134.896V76.1543H131.398L131.322 75.0879L134.879 69.4688H136.59V74.7891ZM133.01 74.7891H134.896V71.7773L134.785 71.9707L133.01 74.7891ZM145.248 74.8887C145.248 75.8652 145.025 76.6484 144.58 77.2383C144.139 77.8242 143.541 78.1172 142.787 78.1172C142.146 78.1172 141.629 77.8945 141.234 77.4492V80.4375H139.541V71.6602H141.111L141.17 72.2812C141.58 71.7891 142.115 71.543 142.775 71.543C143.557 71.543 144.164 71.832 144.598 72.4102C145.031 72.9883 145.248 73.7852 145.248 74.8008V74.8887ZM143.555 74.7656C143.555 74.1758 143.449 73.7207 143.238 73.4004C143.031 73.0801 142.729 72.9199 142.33 72.9199C141.799 72.9199 141.434 73.123 141.234 73.5293V76.125C141.441 76.543 141.811 76.752 142.342 76.752C143.15 76.752 143.555 76.0898 143.555 74.7656ZM149.623 73.5527L150.689 71.6602H152.5L150.695 74.7656L152.576 78H150.76L149.629 76.0078L148.504 78H146.682L148.562 74.7656L146.764 71.6602H148.58L149.623 73.5527Z" fill="#4D4D4D"/>
<path d="M122 67L119.113 72H124.887L122 67ZM122 79L124.887 74H119.113L122 79ZM121.5 71.5V74.5H122.5V71.5H121.5Z" fill="#E73525"/>
<path d="M166.77 39.224V34.626H170.906V39.224H166.77ZM172.534 41.732V34.626H175.944V33.064H172.534V27.982H170.906V33.064H166.77V27.718H165.164V33.064H161.072V28.18H159.4V33.064H156.122V34.626H159.4V47.672H161.072V46.066H175.196V44.482H161.072V34.626H165.164V41.842H166.77V40.764H170.906V41.732H172.534ZM183.886 41.314C183.886 42.964 183.49 45.098 179.662 46.506C180.014 46.836 180.542 47.408 180.784 47.826C185.03 46.11 185.536 43.47 185.536 41.38V40.038H183.886V41.314ZM182.126 33.328H187.164V35.704H182.126V33.328ZM182.126 29.698H187.164V32.03H182.126V29.698ZM193.852 32.03H188.77V29.698H193.852V32.03ZM193.852 35.704H188.77V33.328H193.852V35.704ZM195.524 37.09V28.312H180.52V37.09H184.898C183.226 38.806 180.586 40.28 178.056 41.006C178.43 41.336 178.892 41.93 179.156 42.348C182.038 41.336 185.074 39.4 186.878 37.09H189.298C190.134 38.19 191.256 39.18 192.466 40.038H190.838V47.65H192.51V40.06C193.896 41.006 195.436 41.776 196.998 42.26C197.218 41.842 197.702 41.204 198.076 40.874C195.458 40.192 192.862 38.784 191.212 37.09H195.524ZM219.812 37.244V35.638H210.44V32.316H217.436V30.754H210.44V27.586H208.724V35.638H200.232V37.244H208.724V47.672H210.44V40.5C212.86 41.204 215.808 42.326 217.37 43.096L218.206 41.622C216.468 40.808 213.146 39.708 210.748 39.07L210.44 39.554V37.244H219.812ZM222.901 47.3428H221.193L227.725 30.3594H229.422L222.901 47.3428ZM246.214 35.286H243.64V31.568H246.214V35.286ZM246.214 40.5H243.64V36.738H246.214V40.5ZM235.852 36.738H238.294V40.5H235.852V36.738ZM242.232 36.738V40.5H239.68V36.738H242.232ZM239.68 35.286V31.568H242.232V35.286H239.68ZM235.852 31.568H238.294V35.286H235.852V31.568ZM234.378 35.286H231.32V36.738H234.378V40.5H231.672V41.974H250.526V40.5H247.754V36.738H250.834V35.286H247.754V31.568H250.02V30.116H236.138C236.578 29.456 236.974 28.752 237.304 28.048L235.742 27.586C234.708 29.808 232.948 31.942 231.056 33.328C231.452 33.548 232.09 34.098 232.398 34.406C233.058 33.856 233.74 33.174 234.378 32.448V35.286ZM232.706 47.694C233.894 46.66 234.884 44.922 235.412 43.272L233.894 42.898C233.344 44.482 232.31 46.154 231.166 47.056L232.706 47.694ZM237.7 43.448C237.964 44.768 238.14 46.462 238.162 47.474L239.724 47.254C239.702 46.264 239.46 44.592 239.196 43.294L237.7 43.448ZM242.144 43.47C242.694 44.768 243.266 46.462 243.486 47.496L245.07 47.166C244.85 46.132 244.256 44.438 243.662 43.184L242.144 43.47ZM246.61 43.316C247.688 44.68 248.942 46.55 249.47 47.716L251.098 47.122C250.504 45.934 249.206 44.13 248.106 42.81L246.61 43.316ZM259.59 28.466L259.326 28.532H253.936V47.672H255.476V30.028H258.71C258.182 31.524 257.456 33.548 256.752 35.132C258.468 36.826 258.952 38.278 258.952 39.488C258.952 40.148 258.82 40.742 258.446 40.984C258.226 41.094 257.984 41.16 257.676 41.182C257.28 41.204 256.818 41.204 256.246 41.138C256.51 41.578 256.642 42.216 256.664 42.634C257.192 42.656 257.83 42.678 258.292 42.612C258.776 42.546 259.194 42.414 259.524 42.194C260.184 41.754 260.448 40.874 260.426 39.664C260.426 38.3 260.03 36.738 258.248 34.934C259.084 33.218 259.986 30.974 260.668 29.126L259.59 28.466ZM263.44 34.076H270.084V36.804H263.44V34.076ZM270.084 30.006V32.69H263.44V30.006H270.084ZM271.36 38.784C270.634 39.598 269.468 40.61 268.434 41.424C267.928 40.456 267.532 39.378 267.224 38.256H271.712V28.554H261.856V45.318C260.932 45.494 260.096 45.648 259.392 45.78L259.92 47.364C262.054 46.88 264.98 46.242 267.73 45.604L267.62 44.196C266.212 44.482 264.782 44.768 263.44 45.032V38.256H265.816C266.872 42.546 268.874 45.956 272.108 47.606C272.328 47.188 272.812 46.572 273.186 46.264C271.492 45.494 270.128 44.218 269.094 42.568C270.238 41.776 271.58 40.698 272.636 39.686L271.36 38.784ZM294.878 37.244V35.638H285.506V32.316H292.502V30.754H285.506V27.586H283.79V35.638H275.298V37.244H283.79V47.672H285.506V40.5C287.926 41.204 290.874 42.326 292.436 43.096L293.272 41.622C291.534 40.808 288.212 39.708 285.814 39.07L285.506 39.554V37.244H294.878Z" fill="black"/>
<path d="M346.856 43.91L343.424 44.57V38.146H346.702V36.716H343.424V34.406H346.13V32.998H339.97C341.224 31.678 342.148 30.292 342.83 29.104C344.106 30.27 345.514 31.898 346.24 32.932L347.34 31.678C346.482 30.534 344.744 28.796 343.314 27.608H341.862C341.07 29.346 339.64 31.568 337.572 33.24C337.88 33.46 338.364 33.966 338.606 34.296C338.914 34.032 339.222 33.746 339.508 33.46V34.406H341.994V36.716H338.408V38.146H341.994V44.834C340.52 45.098 339.178 45.362 338.122 45.538L338.496 47.012C340.806 46.55 343.996 45.934 346.966 45.296L346.856 43.91ZM338.848 39.686C339.31 40.984 339.684 42.656 339.75 43.778L340.982 43.426C340.872 42.348 340.476 40.676 339.992 39.4L338.848 39.686ZM345.14 43.514C345.536 42.48 346.042 40.874 346.46 39.532L345.184 39.136C344.964 40.324 344.458 42.084 344.106 43.14L345.14 43.514ZM349.386 33.856H355.436V36.452H349.386V33.856ZM355.436 29.984V32.426H349.386V29.984H355.436ZM356.756 38.806C356.052 39.554 354.93 40.5 353.94 41.248C353.5 40.192 353.148 39.07 352.862 37.882H356.998V28.51H347.846V45.472C347.164 45.626 346.548 45.758 345.998 45.868L346.46 47.43C348.484 46.968 351.124 46.308 353.61 45.648L353.456 44.152C352.07 44.482 350.684 44.812 349.386 45.12V37.882H351.388C352.356 42.37 354.182 45.956 357.372 47.716C357.614 47.298 358.098 46.66 358.45 46.352C356.8 45.56 355.524 44.196 354.556 42.48C355.612 41.776 356.888 40.808 357.878 39.906L356.756 38.806ZM379.306 28.928H368.57V30.468H379.306V28.928ZM364.896 27.586C363.796 29.148 361.684 31.128 359.858 32.36C360.144 32.668 360.584 33.306 360.826 33.658C362.784 32.272 365.028 30.138 366.458 28.202L364.896 27.586ZM365.798 32.272C364.28 34.758 361.904 37.288 359.638 38.894C359.968 39.224 360.54 39.928 360.782 40.258C361.596 39.62 362.432 38.828 363.268 37.97V47.738H364.896V36.166C365.798 35.088 366.634 33.966 367.316 32.844L365.798 32.272ZM379.944 34.934H367.624V36.496H374.972V45.56C374.972 45.934 374.84 46.022 374.422 46.044C374.004 46.066 372.552 46.066 370.99 46.022C371.232 46.484 371.452 47.166 371.518 47.606C373.674 47.606 374.906 47.606 375.654 47.364C376.38 47.1 376.622 46.594 376.622 45.582V36.496H379.944V34.934ZM401.812 37.244V35.638H392.44V32.316H399.436V30.754H392.44V27.586H390.724V35.638H382.232V37.244H390.724V47.672H392.44V40.5C394.86 41.204 397.808 42.326 399.37 43.096L400.206 41.622C398.468 40.808 395.146 39.708 392.748 39.07L392.44 39.554V37.244H401.812Z" fill="black"/>
<path d="M449.16 33.108H446.652V30.006H449.16V33.108ZM446.652 42.48V38.982H449.16V41.974L446.652 42.48ZM446.652 34.494H449.16V37.618H446.652V34.494ZM451.8 30.006V28.532H444.1V30.006H445.244V42.744L443.858 43.008L444.144 44.504C445.618 44.218 447.378 43.844 449.16 43.426V47.672H450.568V30.006H451.8ZM455.342 41.512C455.342 41.798 455.342 42.062 455.32 42.348H453.362V38.828H452.086V44.548H453.362V43.558H455.122C454.792 44.724 454.044 45.78 452.35 46.638C452.614 46.88 453.032 47.408 453.186 47.716C456.266 46.198 456.684 43.954 456.684 41.534V38.036H455.342V41.512ZM455.342 34.648C455.584 35.044 455.826 35.506 456.024 35.946L453.912 36.122C455.012 34.56 456.244 32.426 457.19 30.71L455.914 30.248C455.584 30.974 455.188 31.832 454.726 32.69C454.462 32.338 454.11 31.964 453.736 31.59C454.396 30.622 455.122 29.214 455.76 28.07L454.396 27.608C454.066 28.532 453.494 29.83 452.944 30.842C452.768 30.688 452.592 30.534 452.416 30.402L451.668 31.326C452.548 32.074 453.494 33.108 454.044 33.922C453.56 34.758 453.054 35.55 452.592 36.21L451.338 36.298L451.514 37.53C452.966 37.398 454.704 37.244 456.486 37.09C456.574 37.376 456.64 37.64 456.684 37.86L457.762 37.442C457.586 36.584 456.992 35.286 456.376 34.296L455.342 34.648ZM464.186 37.618C463.988 36.672 463.306 35.286 462.602 34.23L461.546 34.604C461.81 35 462.052 35.462 462.272 35.924L460.094 36.1C461.238 34.516 462.47 32.404 463.416 30.688L462.096 30.204C461.766 30.952 461.348 31.832 460.864 32.712C460.6 32.36 460.27 31.964 459.874 31.59C460.534 30.6 461.26 29.236 461.92 28.07L460.512 27.608C460.182 28.532 459.61 29.808 459.06 30.82C458.862 30.644 458.642 30.468 458.444 30.314L457.696 31.282C458.642 32.03 459.632 33.086 460.204 33.922C459.72 34.758 459.236 35.55 458.774 36.188L457.762 36.254L457.982 37.486C459.39 37.354 461.04 37.2 462.756 37.024C462.91 37.398 462.998 37.75 463.064 38.036L464.186 37.618ZM461.964 42.348H459.852V37.992H458.488V47.672H459.852V43.558H461.964V44.482H463.24V38.828H461.964V42.348ZM473.778 45.296V39.884H482.798V45.296H473.778ZM479.234 31.26C478.288 33.174 476.902 34.912 475.274 36.408C474.262 35.308 472.59 33.9 471.116 32.866C471.688 32.36 472.194 31.81 472.678 31.26H479.234ZM484.448 38.388H475.45C478.002 36.232 480.158 33.526 481.456 30.27L480.378 29.698L480.07 29.786H473.866C474.328 29.148 474.746 28.51 475.12 27.894L473.294 27.52C472.018 29.896 469.51 32.712 465.902 34.67C466.276 34.956 466.826 35.55 467.046 35.924C468.102 35.308 469.048 34.626 469.928 33.922C471.38 35 472.986 36.408 473.954 37.53C471.468 39.488 468.586 40.94 465.792 41.754C466.144 42.062 466.562 42.744 466.76 43.184C468.586 42.59 470.412 41.754 472.172 40.72V47.672H473.778V46.792H482.798V47.716H484.448V38.388ZM507.812 37.244V35.638H498.44V32.316H505.436V30.754H498.44V27.586H496.724V35.638H488.232V37.244H496.724V47.672H498.44V40.5C500.86 41.204 503.808 42.326 505.37 43.096L506.206 41.622C504.468 40.808 501.146 39.708 498.748 39.07L498.44 39.554V37.244H507.812Z" fill="black"/>
<path d="M565.874 31.876C565.368 31.37 564.356 30.776 563.498 30.38L562.728 31.194C563.586 31.568 564.598 32.25 565.082 32.734L565.874 31.876ZM560 40.764C557.536 41.204 555.094 41.644 553.422 41.908L553.642 43.14C555.446 42.81 557.778 42.348 560.066 41.908L560 40.764ZM558.086 38.828H555.556V36.628H558.086V38.828ZM554.412 35.594V39.862H559.274V35.594H554.412ZM564.18 35.22C563.806 36.716 563.256 38.08 562.552 39.268C562.178 37.86 561.914 36.1 561.738 34.208H566.424V32.976H561.628C561.584 32.206 561.54 31.436 561.496 30.644H560.088C560.132 31.436 560.198 32.206 560.264 32.976H553.642V34.208H560.374C560.616 36.694 560.99 38.96 561.584 40.72C560.66 41.864 559.56 42.832 558.262 43.58C558.548 43.822 559.032 44.35 559.23 44.614C560.308 43.91 561.276 43.074 562.134 42.084C562.728 43.25 563.476 44.02 564.422 44.218C565.566 44.658 566.314 43.778 566.6 41.38C566.292 41.248 565.808 40.918 565.544 40.654C565.39 42.062 565.17 43.008 564.862 42.92C564.136 42.81 563.542 42.062 563.08 40.896C564.136 39.378 564.972 37.574 565.522 35.506L564.18 35.22ZM552.432 45.252V30.094H567.524V45.252H552.432ZM550.87 28.598V47.738H552.432V46.726H567.524V47.738H569.13V28.598H550.87ZM576.192 38.256V35.286H582.022C582.088 36.298 582.22 37.31 582.418 38.256H576.192ZM588.424 30.248V33.746H576.192V30.248H588.424ZM591.68 39.796V38.256H584.09C583.892 37.31 583.738 36.32 583.672 35.286H590.074V28.752H574.542V45.406L572.254 45.692L572.628 47.386C575.4 46.968 579.404 46.374 583.166 45.802L583.1 44.218C580.768 44.548 578.326 44.9 576.192 45.186V39.796H582.77C584.024 44.372 586.576 47.672 589.59 47.65C591.196 47.65 591.878 46.814 592.142 43.58C591.68 43.448 591.086 43.14 590.69 42.81C590.58 45.142 590.338 46.044 589.678 46.066C587.654 46.088 585.608 43.536 584.486 39.796H591.68ZM613.724 32.008V30.512H606.156C606.486 29.676 606.794 28.796 607.036 27.916L605.452 27.586C604.748 30.204 603.494 32.668 601.888 34.274C602.284 34.516 602.944 35.022 603.23 35.308C604.044 34.406 604.814 33.284 605.452 32.008H613.724ZM602.24 35.528H598.06V32.646H602.988V31.15H599.468V27.63H597.906V31.15H594.078V32.646H596.608V35.66C596.608 38.894 596.322 43.184 593.704 46.748C594.1 47.012 594.65 47.43 594.914 47.738C597.378 44.35 597.95 40.434 598.038 37.002H600.722C600.568 43.206 600.414 45.362 600.062 45.89C599.886 46.132 599.71 46.198 599.38 46.198C599.05 46.198 598.236 46.176 597.334 46.088C597.576 46.484 597.73 47.122 597.752 47.562C598.676 47.606 599.578 47.606 600.106 47.54C600.656 47.496 601.03 47.342 601.36 46.858C601.932 46.11 602.064 43.624 602.24 36.254V35.528ZM613.02 36.43C612.228 37.288 610.996 38.344 609.896 39.202C609.588 38.102 609.324 36.936 609.126 35.726C610.622 35.022 611.986 34.252 612.954 33.504L611.788 32.646C609.83 34.164 605.672 35.792 602.592 36.474C602.966 36.804 603.384 37.42 603.582 37.816C603.956 37.706 604.352 37.596 604.77 37.464V47.672H606.332V36.914C606.816 36.738 607.322 36.54 607.806 36.32C608.62 41.336 610.182 45.472 613.174 47.606C613.416 47.188 613.922 46.55 614.296 46.286C612.492 45.12 611.216 43.074 610.314 40.566C611.546 39.686 613.064 38.52 614.186 37.442L613.02 36.43ZM632.974 39.29H635.944V37.926H632.974V37.068C633.898 36.21 634.932 35 635.636 33.878L634.734 33.218L634.448 33.306H629.322V34.56H633.502C633.128 35.088 632.688 35.638 632.248 36.1H631.544V37.926H628.596V39.29H631.544V43.008C631.544 43.206 631.478 43.272 631.214 43.272C630.972 43.294 630.136 43.294 629.234 43.272C629.432 43.668 629.652 44.24 629.718 44.658C630.95 44.658 631.786 44.636 632.292 44.394C632.842 44.174 632.974 43.756 632.974 43.03V39.29ZM626.55 35.638C626.44 40.808 626.286 42.634 625.956 43.074C625.824 43.294 625.67 43.316 625.428 43.316C625.142 43.316 624.548 43.316 623.888 43.25C624.086 43.624 624.24 44.218 624.262 44.614C624.944 44.636 625.626 44.636 626.066 44.592C626.55 44.548 626.88 44.372 627.21 43.976C627.672 43.316 627.826 41.204 627.98 34.956C627.98 34.758 628.002 34.296 628.002 34.296H624.46V31.964H628.398C628.178 32.294 627.958 32.602 627.716 32.866C628.046 33.064 628.662 33.504 628.882 33.746C629.41 33.086 629.916 32.272 630.334 31.37H635.834V29.984H630.906C631.17 29.28 631.39 28.554 631.566 27.828L630.136 27.52C629.828 29.038 629.278 30.512 628.552 31.7V30.578H625.56V27.608H624.064V30.578H621.072V31.964H623.096V35.22C623.096 37.772 622.854 41.116 620.786 43.58C621.138 43.8 621.578 44.24 621.842 44.526C624.042 41.974 624.438 38.476 624.46 35.638H626.55ZM620.478 31.876C619.95 30.776 618.63 29.214 617.42 28.114L616.122 28.928C617.31 30.072 618.608 31.656 619.114 32.778L620.478 31.876ZM620.126 36.21H616.056V37.75H618.608V43.448C617.684 44.35 616.672 45.296 615.814 45.956L616.672 47.474C617.684 46.506 618.608 45.582 619.488 44.614C620.874 46.352 622.898 47.144 625.802 47.254C628.332 47.342 633.15 47.298 635.658 47.188C635.746 46.726 635.988 46 636.186 45.648C633.48 45.824 628.288 45.89 625.78 45.78C623.184 45.67 621.204 44.922 620.126 43.272V36.21ZM657.812 37.244V35.638H648.44V32.316H655.436V30.754H648.44V27.586H646.724V35.638H638.232V37.244H646.724V47.672H648.44V40.5C650.86 41.204 653.808 42.326 655.37 43.096L656.206 41.622C654.468 40.808 651.146 39.708 648.748 39.07L648.44 39.554V37.244H657.812ZM660.901 47.3428H659.193L665.725 30.3594H667.422L660.901 47.3428ZM681.728 33.196H685.974C685.534 36.1 684.852 38.564 683.796 40.588C682.784 38.564 682.08 36.166 681.574 33.57L681.728 33.196ZM689.098 33.196V31.656H682.234C682.586 30.468 682.916 29.17 683.18 27.872L681.552 27.586C680.958 30.886 679.968 34.01 678.494 36.298V35.528H675.502V30.732H679.308V29.148H669.254V30.732H673.918V42.986L671.674 43.47V34.032H670.178V43.8L668.88 44.064L669.188 45.692C671.916 45.076 675.81 44.152 679.418 43.272L679.264 41.798L675.502 42.656V37.068H677.966L677.856 37.222C678.208 37.464 678.89 38.014 679.154 38.3C679.66 37.596 680.144 36.782 680.584 35.902C681.156 38.234 681.882 40.346 682.85 42.15C681.618 43.91 680.012 45.274 677.856 46.308C678.164 46.66 678.626 47.364 678.802 47.738C680.87 46.66 682.498 45.296 683.752 43.646C684.918 45.362 686.37 46.748 688.174 47.694C688.438 47.276 688.944 46.638 689.296 46.308C687.404 45.428 685.908 44.02 684.72 42.194C686.15 39.796 687.03 36.848 687.624 33.196H689.098ZM698.756 32.008C697.92 34.362 696.182 37.046 694.136 38.784C694.18 37.838 694.202 36.914 694.202 36.1V31.568H710.9V30.05H702.54V27.608H700.868V30.05H692.64V36.1C692.64 39.268 692.486 43.69 690.792 46.814C691.166 46.99 691.87 47.452 692.156 47.738C693.432 45.384 693.938 42.194 694.114 39.334C694.378 39.62 694.686 39.994 694.862 40.236C695.654 39.598 696.424 38.828 697.106 37.97V47.628H698.646V35.792C699.328 34.692 699.922 33.548 700.384 32.448L698.756 32.008ZM710.966 35.374H708.392V32.184H706.83V35.374H700.274V36.87H706.83V45.692C706.83 46.066 706.698 46.176 706.302 46.198C705.928 46.198 704.652 46.22 703.244 46.176C703.486 46.594 703.728 47.298 703.772 47.716C705.62 47.738 706.786 47.694 707.468 47.43C708.15 47.188 708.392 46.704 708.392 45.714V36.87H710.966V35.374ZM704.696 42.722C704.212 41.534 703.156 39.774 702.1 38.432L700.802 38.982C701.792 40.324 702.848 42.172 703.288 43.382L704.696 42.722ZM731.096 27.938C728.544 28.708 723.858 29.236 720.008 29.478C720.184 29.852 720.382 30.424 720.426 30.82C724.386 30.578 729.204 30.094 732.218 29.192L731.096 27.938ZM729.82 36.782C730.788 35.418 731.976 33.24 732.878 31.392L731.338 30.82C730.7 32.47 729.49 34.824 728.566 36.254L729.82 36.782ZM727.224 35.132C727.158 34.076 726.718 32.404 726.124 31.106L724.716 31.37C725.288 32.69 725.728 34.428 725.75 35.484L727.224 35.132ZM723.286 35.726C723.066 34.626 722.384 32.932 721.614 31.656L720.316 32.03C721.042 33.35 721.68 35.066 721.878 36.188L723.286 35.726ZM719.722 38.366L719.502 36.848C718.776 37.09 718.05 37.332 717.324 37.552V33.504H719.678V32.008H717.324V27.608H715.806V32.008H713.056V33.504H715.806V38.014C714.662 38.366 713.606 38.696 712.77 38.916L713.188 40.5L715.806 39.642V45.78C715.806 46.11 715.696 46.176 715.432 46.176C715.168 46.198 714.31 46.198 713.364 46.176C713.584 46.616 713.782 47.298 713.848 47.672C715.212 47.694 716.048 47.628 716.576 47.386C717.126 47.122 717.324 46.682 717.324 45.78V39.158L719.722 38.366ZM732.834 39.84V38.366H727.202V35.946H725.662V38.366H720.096V39.84H724.606C723.264 42.018 721.064 44.042 718.82 45.076C719.194 45.34 719.678 45.934 719.942 46.352C722.098 45.164 724.232 43.096 725.662 40.764V47.54H727.202V40.742C728.522 42.964 730.502 45.098 732.394 46.286C732.658 45.89 733.142 45.318 733.494 45.054C731.558 44.02 729.468 41.952 728.236 39.84H732.834ZM740.666 32.58H737.388V29.786H740.666V32.58ZM740.666 36.672H737.388V33.856H740.666V36.672ZM740.666 40.83H737.388V37.97H740.666V40.83ZM742.14 28.422H735.958V42.172H742.14V28.422ZM737.036 42.634C736.618 44.218 735.848 45.78 734.836 46.814C735.188 47.034 735.804 47.452 736.068 47.694C737.058 46.528 738.004 44.768 738.51 42.964L737.036 42.634ZM739.786 43.162C740.468 44.218 741.238 45.692 741.546 46.616L742.844 46C742.492 45.076 741.744 43.668 741.018 42.612L739.786 43.162ZM749.488 42.81V41.16H752.304V42.81H749.488ZM745.352 41.16H748.036V42.81H745.352V41.16ZM748.036 38.454V40.016H745.352V38.454H748.036ZM752.304 38.454V40.016H749.488V38.454H752.304ZM747.156 33.262H750.412V34.714H747.156V33.262ZM747.156 30.732H750.412V32.052H747.156V30.732ZM755.12 42.81H753.8V37.222H749.488V35.946H755.032V34.714H751.886V33.262H754.218V32.052H751.886V30.732H754.57V29.5H751.886V27.608H750.412V29.5H747.156V27.608H745.704V29.5H743.042V30.732H745.704V32.052H743.614V33.262H745.704V34.714H742.536V35.946H748.036V37.222H743.878V42.81H742.448V44.064H743.878V47.694H745.352V44.064H752.304V45.978C752.304 46.264 752.194 46.33 751.93 46.352C751.622 46.352 750.566 46.352 749.422 46.33C749.62 46.704 749.818 47.276 749.884 47.65C751.468 47.65 752.458 47.65 753.074 47.43C753.624 47.188 753.8 46.77 753.8 45.978V44.064H755.12V42.81ZM776.878 37.244V35.638H767.506V32.316H774.502V30.754H767.506V27.586H765.79V35.638H757.298V37.244H765.79V47.672H767.506V40.5C769.926 41.204 772.874 42.326 774.436 43.096L775.272 41.622C773.534 40.808 770.212 39.708 767.814 39.07L767.506 39.554V37.244H776.878Z" fill="black"/>
<rect x="927.5" y="7.5" width="127" height="53" rx="3.5" fill="white" stroke="#00A19B"/>
<path d="M978.746 30.78H983.564V32.782H979.67V41.604H981.166V34.19H983.564V43.65H985.06V34.19H987.634V39.866C987.634 40.064 987.59 40.152 987.348 40.152C987.106 40.152 986.512 40.152 985.698 40.13C985.896 40.548 986.072 41.12 986.116 41.538C987.238 41.538 988.052 41.538 988.536 41.296C989.064 41.032 989.174 40.614 989.174 39.866V32.782H985.06V30.78H989.922V29.394H978.746V30.78ZM976.524 34.058H972.762V31.638H976.524V34.058ZM977.052 38.414V41.032H972.762V38.414H977.052ZM982.53 25.258C982.794 24.818 983.014 24.334 983.212 23.872L981.65 23.498C981.21 24.598 980.528 25.698 979.714 26.6V25.258H973.95C974.192 24.818 974.412 24.356 974.588 23.894L973.07 23.498C972.41 25.192 971.222 26.886 969.902 28.03C970.298 28.228 970.936 28.668 971.244 28.91C971.882 28.294 972.542 27.502 973.114 26.622H974.06C974.412 27.238 974.764 27.942 974.962 28.492L974.148 28.338C973.95 28.888 973.598 29.68 973.246 30.318H971.222V43.562H972.762V42.352H977.052V43.21H978.548V37.072H972.762V35.4H978.086V30.318H974.896C975.182 29.812 975.49 29.24 975.798 28.668L975.688 28.646L976.546 28.404C976.392 27.92 976.062 27.238 975.688 26.622H979.692C979.23 27.128 978.746 27.59 978.218 27.986C978.592 28.184 979.318 28.558 979.626 28.8C980.33 28.206 981.012 27.458 981.65 26.622H983.388C983.982 27.392 984.598 28.294 984.862 28.932L986.336 28.426C986.094 27.92 985.654 27.238 985.17 26.622H989.922V25.258H982.53ZM1009.44 27.018H1005.21V29.306C1005.21 30.626 1005.67 30.956 1007.3 30.956H1010.25C1011.42 30.956 1011.83 30.56 1011.99 29.086C1011.59 28.998 1011.06 28.822 1010.78 28.624C1010.71 29.658 1010.6 29.79 1010.07 29.79H1007.46C1006.73 29.79 1006.6 29.702 1006.6 29.284V28.162H1010.89V24.444H1004.79V25.588H1009.44V27.018ZM1002.35 27.018H998.04V29.306C998.04 30.626 998.458 30.956 1000.09 30.956H1002.81C1003.94 30.956 1004.35 30.582 1004.51 29.152C1004.11 29.086 1003.58 28.91 1003.3 28.69C1003.23 29.658 1003.12 29.79 1002.59 29.79H1000.22C999.514 29.79 999.404 29.702 999.404 29.306V28.162H1003.74V24.444H997.644V25.588H1002.35V27.018ZM1002.7 34.08H1006.31V36.17H1002.7V34.08ZM1011.86 36.17H1007.87V34.08H1011.17V32.826H1007.87V31.242H1006.31V32.826H1002.7V31.242H1001.19V32.826H997.93V34.08H1001.19V36.17H997.226V37.446H1011.86V36.17ZM1011.53 40.372C1010.49 39.558 1008.69 38.502 1007.08 37.732L1005.92 38.458C1007.43 39.228 1009.02 40.262 1009.94 41.076L1011.53 40.372ZM1001.91 37.688C1000.94 38.568 999.316 39.404 997.82 39.998C998.172 40.218 998.766 40.746 999.03 41.032C1000.48 40.328 1002.24 39.25 1003.36 38.194L1001.91 37.688ZM996.808 27.766C996.192 26.666 994.74 25.148 993.442 24.114L992.188 24.95C993.464 26.028 994.872 27.59 995.444 28.69L996.808 27.766ZM996.302 32.21H992.078V33.75H994.784V39.426C993.816 40.35 992.738 41.274 991.814 41.956L992.672 43.474C993.728 42.506 994.718 41.582 995.642 40.614C997.006 42.352 999.008 43.144 1001.91 43.254C1004.4 43.342 1009.15 43.298 1011.64 43.188C1011.7 42.726 1011.97 42 1012.16 41.648C1009.48 41.824 1004.35 41.89 1001.87 41.78C999.294 41.67 997.336 40.922 996.302 39.272V32.21Z" fill="#00A19B"/>
<path d="M1085.84 26.138C1085.01 25.346 1083.27 24.378 1081.9 23.784L1081 24.972C1082.39 25.61 1084.08 26.666 1084.9 27.436L1085.84 26.138ZM1084.83 31.858C1083.95 31.132 1082.19 30.208 1080.8 29.658L1079.9 30.89C1081.33 31.484 1083.05 32.474 1083.91 33.222L1084.83 31.858ZM1081.95 43.364C1083.16 41.318 1084.61 38.568 1085.69 36.236L1084.46 35.224C1083.27 37.732 1081.66 40.614 1080.56 42.33L1081.95 43.364ZM1089.38 38.524V36.874H1096.84V38.524H1089.38ZM1096.84 34.102V35.708H1089.38V34.102H1096.84ZM1098.38 32.826H1087.87V43.628H1089.38V39.712H1096.84V41.824C1096.84 42.11 1096.73 42.198 1096.42 42.198C1096.12 42.22 1095.08 42.22 1093.96 42.198C1094.18 42.572 1094.4 43.188 1094.44 43.584C1096.01 43.584 1097 43.562 1097.61 43.342C1098.21 43.122 1098.38 42.682 1098.38 41.846V32.826ZM1093.63 30.34V28.8H1098.82V27.612H1093.63V26.226H1099.35V25.016H1093.63V23.586H1092V25.016H1086.57V26.226H1092V27.612H1087.1V28.8H1092V30.34H1085.84V31.594H1100.08V30.34H1093.63ZM1114.38 23.652C1113.19 25.874 1110.75 28.426 1108.22 29.922C1108.52 30.252 1108.9 30.802 1109.1 31.198C1111.56 29.636 1113.91 27.194 1115.17 25.126C1116.6 27.282 1119.11 29.658 1121.39 31.088C1121.61 30.648 1121.99 30.076 1122.3 29.724C1119.99 28.448 1117.43 26.072 1115.83 23.652H1114.38ZM1108.04 24.466L1107.78 24.532H1102.85V43.672H1104.3V26.028H1107.18C1106.72 27.524 1106.08 29.482 1105.44 31.088C1107.03 32.782 1107.4 34.256 1107.4 35.444C1107.4 36.082 1107.29 36.698 1106.96 36.94C1106.79 37.05 1106.54 37.116 1106.26 37.116C1105.93 37.16 1105.49 37.138 1104.98 37.094C1105.25 37.512 1105.38 38.128 1105.4 38.546C1105.91 38.568 1106.43 38.546 1106.87 38.502C1107.31 38.458 1107.71 38.326 1108.02 38.106C1108.61 37.688 1108.88 36.764 1108.88 35.598C1108.88 34.256 1108.5 32.672 1106.92 30.89C1107.64 29.152 1108.44 26.908 1109.1 25.104L1108.04 24.466ZM1111.01 36.698C1110.37 38.458 1109.29 40.196 1108.08 41.34C1108.41 41.56 1109.01 42.044 1109.27 42.308C1110.5 41.032 1111.71 39.03 1112.46 37.028L1111.01 36.698ZM1121.22 35.51V34.102H1115.96V31.374H1119.5V29.966H1111.05V31.374H1114.44V34.102H1109.58V35.51H1114.44V41.824C1114.44 42.088 1114.35 42.176 1114.07 42.176C1113.78 42.176 1112.88 42.198 1111.85 42.154C1112.07 42.572 1112.33 43.254 1112.4 43.672C1113.76 43.672 1114.66 43.65 1115.23 43.386C1115.81 43.144 1115.96 42.682 1115.96 41.824V35.51H1121.22ZM1117.59 37.248C1118.75 38.81 1120.03 40.9 1120.56 42.198L1121.9 41.472C1121.33 40.196 1120.03 38.15 1118.84 36.654L1117.59 37.248ZM1132.75 30.78H1137.56V32.782H1133.67V41.604H1135.17V34.19H1137.56V43.65H1139.06V34.19H1141.63V39.866C1141.63 40.064 1141.59 40.152 1141.35 40.152C1141.11 40.152 1140.51 40.152 1139.7 40.13C1139.9 40.548 1140.07 41.12 1140.12 41.538C1141.24 41.538 1142.05 41.538 1142.54 41.296C1143.06 41.032 1143.17 40.614 1143.17 39.866V32.782H1139.06V30.78H1143.92V29.394H1132.75V30.78ZM1130.52 34.058H1126.76V31.638H1130.52V34.058ZM1131.05 38.414V41.032H1126.76V38.414H1131.05ZM1136.53 25.258C1136.79 24.818 1137.01 24.334 1137.21 23.872L1135.65 23.498C1135.21 24.598 1134.53 25.698 1133.71 26.6V25.258H1127.95C1128.19 24.818 1128.41 24.356 1128.59 23.894L1127.07 23.498C1126.41 25.192 1125.22 26.886 1123.9 28.03C1124.3 28.228 1124.94 28.668 1125.24 28.91C1125.88 28.294 1126.54 27.502 1127.11 26.622H1128.06C1128.41 27.238 1128.76 27.942 1128.96 28.492L1128.15 28.338C1127.95 28.888 1127.6 29.68 1127.25 30.318H1125.22V43.562H1126.76V42.352H1131.05V43.21H1132.55V37.072H1126.76V35.4H1132.09V30.318H1128.9C1129.18 29.812 1129.49 29.24 1129.8 28.668L1129.69 28.646L1130.55 28.404C1130.39 27.92 1130.06 27.238 1129.69 26.622H1133.69C1133.23 27.128 1132.75 27.59 1132.22 27.986C1132.59 28.184 1133.32 28.558 1133.63 28.8C1134.33 28.206 1135.01 27.458 1135.65 26.622H1137.39C1137.98 27.392 1138.6 28.294 1138.86 28.932L1140.34 28.426C1140.09 27.92 1139.65 27.238 1139.17 26.622H1143.92V25.258H1136.53ZM1163.44 27.018H1159.21V29.306C1159.21 30.626 1159.67 30.956 1161.3 30.956H1164.25C1165.42 30.956 1165.83 30.56 1165.99 29.086C1165.59 28.998 1165.06 28.822 1164.78 28.624C1164.71 29.658 1164.6 29.79 1164.07 29.79H1161.46C1160.73 29.79 1160.6 29.702 1160.6 29.284V28.162H1164.89V24.444H1158.79V25.588H1163.44V27.018ZM1156.35 27.018H1152.04V29.306C1152.04 30.626 1152.46 30.956 1154.09 30.956H1156.81C1157.94 30.956 1158.35 30.582 1158.51 29.152C1158.11 29.086 1157.58 28.91 1157.3 28.69C1157.23 29.658 1157.12 29.79 1156.59 29.79H1154.22C1153.51 29.79 1153.4 29.702 1153.4 29.306V28.162H1157.74V24.444H1151.64V25.588H1156.35V27.018ZM1156.7 34.08H1160.31V36.17H1156.7V34.08ZM1165.86 36.17H1161.87V34.08H1165.17V32.826H1161.87V31.242H1160.31V32.826H1156.7V31.242H1155.19V32.826H1151.93V34.08H1155.19V36.17H1151.23V37.446H1165.86V36.17ZM1165.53 40.372C1164.49 39.558 1162.69 38.502 1161.08 37.732L1159.92 38.458C1161.43 39.228 1163.02 40.262 1163.94 41.076L1165.53 40.372ZM1155.91 37.688C1154.94 38.568 1153.32 39.404 1151.82 39.998C1152.17 40.218 1152.77 40.746 1153.03 41.032C1154.48 40.328 1156.24 39.25 1157.36 38.194L1155.91 37.688ZM1150.81 27.766C1150.19 26.666 1148.74 25.148 1147.44 24.114L1146.19 24.95C1147.46 26.028 1148.87 27.59 1149.44 28.69L1150.81 27.766ZM1150.3 32.21H1146.08V33.75H1148.78V39.426C1147.82 40.35 1146.74 41.274 1145.81 41.956L1146.67 43.474C1147.73 42.506 1148.72 41.582 1149.64 40.614C1151.01 42.352 1153.01 43.144 1155.91 43.254C1158.4 43.342 1163.15 43.298 1165.64 43.188C1165.7 42.726 1165.97 42 1166.16 41.648C1163.48 41.824 1158.35 41.89 1155.87 41.78C1153.29 41.67 1151.34 40.922 1150.3 39.272V32.21Z" fill="#4D4D4D"/>
<path d="M132.59 7.78906H133.557V9.1543H132.59V11H130.896V9.1543H127.398L127.322 8.08789L130.879 2.46875H132.59V7.78906ZM129.01 7.78906H130.896V4.77734L130.785 4.9707L129.01 7.78906ZM141.213 7.47266C141.213 8.65234 140.969 9.55469 140.48 10.1797C139.992 10.8047 139.277 11.1172 138.336 11.1172C137.406 11.1172 136.695 10.8105 136.203 10.1973C135.711 9.58398 135.459 8.70508 135.447 7.56055V5.99023C135.447 4.79883 135.693 3.89453 136.186 3.27734C136.682 2.66016 137.395 2.35156 138.324 2.35156C139.254 2.35156 139.965 2.6582 140.457 3.27148C140.949 3.88086 141.201 4.75781 141.213 5.90234V7.47266ZM139.52 5.75C139.52 5.04297 139.422 4.5293 139.227 4.20898C139.035 3.88477 138.734 3.72266 138.324 3.72266C137.926 3.72266 137.631 3.87695 137.439 4.18555C137.252 4.49023 137.152 4.96875 137.141 5.62109V7.69531C137.141 8.39062 137.234 8.9082 137.422 9.24805C137.613 9.58398 137.918 9.75195 138.336 9.75195C138.75 9.75195 139.049 9.58984 139.232 9.26562C139.416 8.94141 139.512 8.44531 139.52 7.77734V5.75Z" fill="#4D4D4D"/>
<path d="M238.428 67H232.58V65.8398L235.34 62.8984C235.719 62.4844 235.998 62.123 236.178 61.8145C236.361 61.5059 236.453 61.2129 236.453 60.9355C236.453 60.5566 236.357 60.2598 236.166 60.0449C235.975 59.8262 235.701 59.7168 235.346 59.7168C234.963 59.7168 234.66 59.8496 234.438 60.1152C234.219 60.377 234.109 60.7227 234.109 61.1523H232.41C232.41 60.6328 232.533 60.1582 232.779 59.7285C233.029 59.2988 233.381 58.9629 233.834 58.7207C234.287 58.4746 234.801 58.3516 235.375 58.3516C236.254 58.3516 236.936 58.5625 237.42 58.9844C237.908 59.4062 238.152 60.002 238.152 60.7715C238.152 61.1934 238.043 61.623 237.824 62.0605C237.605 62.498 237.23 63.0078 236.699 63.5898L234.76 65.6348H238.428V67ZM245.48 63.7891H246.447V65.1543H245.48V67H243.787V65.1543H240.289L240.213 64.0879L243.77 58.4688H245.48V63.7891ZM241.9 63.7891H243.787V60.7773L243.676 60.9707L241.9 63.7891Z" fill="#4D4D4D"/>
<path d="M10.4277 36H4.58008V34.8398L7.33984 31.8984C7.71875 31.4844 7.99805 31.123 8.17773 30.8145C8.36133 30.5059 8.45312 30.2129 8.45312 29.9355C8.45312 29.5566 8.35742 29.2598 8.16602 29.0449C7.97461 28.8262 7.70117 28.7168 7.3457 28.7168C6.96289 28.7168 6.66016 28.8496 6.4375 29.1152C6.21875 29.377 6.10938 29.7227 6.10938 30.1523H4.41016C4.41016 29.6328 4.5332 29.1582 4.7793 28.7285C5.0293 28.2988 5.38086 27.9629 5.83398 27.7207C6.28711 27.4746 6.80078 27.3516 7.375 27.3516C8.25391 27.3516 8.93555 27.5625 9.41992 27.9844C9.9082 28.4062 10.1523 29.002 10.1523 29.7715C10.1523 30.1934 10.043 30.623 9.82422 31.0605C9.60547 31.498 9.23047 32.0078 8.69922 32.5898L6.75977 34.6348H10.4277V36ZM17.4805 32.7891H18.4473V34.1543H17.4805V36H15.7871V34.1543H12.2891L12.2129 33.0879L15.7695 27.4688H17.4805V32.7891ZM13.9004 32.7891H15.7871V29.7773L15.6758 29.9707L13.9004 32.7891Z" fill="#4D4D4D"/>
<path d="M1177.43 19H1171.58V17.8398L1174.34 14.8984C1174.72 14.4844 1175 14.123 1175.18 13.8145C1175.36 13.5059 1175.45 13.2129 1175.45 12.9355C1175.45 12.5566 1175.36 12.2598 1175.17 12.0449C1174.97 11.8262 1174.7 11.7168 1174.35 11.7168C1173.96 11.7168 1173.66 11.8496 1173.44 12.1152C1173.22 12.377 1173.11 12.7227 1173.11 13.1523H1171.41C1171.41 12.6328 1171.53 12.1582 1171.78 11.7285C1172.03 11.2988 1172.38 10.9629 1172.83 10.7207C1173.29 10.4746 1173.8 10.3516 1174.38 10.3516C1175.25 10.3516 1175.94 10.5625 1176.42 10.9844C1176.91 11.4062 1177.15 12.002 1177.15 12.7715C1177.15 13.1934 1177.04 13.623 1176.82 14.0605C1176.61 14.498 1176.23 15.0078 1175.7 15.5898L1173.76 17.6348H1177.43V19ZM1184.48 15.7891H1185.45V17.1543H1184.48V19H1182.79V17.1543H1179.29L1179.21 16.0879L1182.77 10.4688H1184.48V15.7891ZM1180.9 15.7891H1182.79V12.7773L1182.68 12.9707L1180.9 15.7891Z" fill="#4D4D4D"/>
<path d="M1065.43 19H1059.58V17.8398L1062.34 14.8984C1062.72 14.4844 1063 14.123 1063.18 13.8145C1063.36 13.5059 1063.45 13.2129 1063.45 12.9355C1063.45 12.5566 1063.36 12.2598 1063.17 12.0449C1062.97 11.8262 1062.7 11.7168 1062.35 11.7168C1061.96 11.7168 1061.66 11.8496 1061.44 12.1152C1061.22 12.377 1061.11 12.7227 1061.11 13.1523H1059.41C1059.41 12.6328 1059.53 12.1582 1059.78 11.7285C1060.03 11.2988 1060.38 10.9629 1060.83 10.7207C1061.29 10.4746 1061.8 10.3516 1062.38 10.3516C1063.25 10.3516 1063.94 10.5625 1064.42 10.9844C1064.91 11.4062 1065.15 12.002 1065.15 12.7715C1065.15 13.1934 1065.04 13.623 1064.82 14.0605C1064.61 14.498 1064.23 15.0078 1063.7 15.5898L1061.76 17.6348H1065.43V19ZM1072.48 15.7891H1073.45V17.1543H1072.48V19H1070.79V17.1543H1067.29L1067.21 16.0879L1070.77 10.4688H1072.48V15.7891ZM1068.9 15.7891H1070.79V12.7773L1070.68 12.9707L1068.9 15.7891Z" fill="#4D4D4D"/>
<path d="M115 25L120 27.8868V22.1132L115 25ZM155 25L150 22.1132V27.8868L155 25ZM119.5 25.5L150.5 25.5V24.5L119.5 24.5V25.5Z" fill="#E73525"/>
<path d="M222 51L219.113 56L224.887 56L222 51ZM222 75L224.887 70L219.113 70L222 75ZM221.5 55.5L221.5 70.5L222.5 70.5L222.5 55.5L221.5 55.5Z" fill="#E73525"/>
<path d="M24 51L19 48.1132L19 53.8868L24 51ZM0 51L5 53.8867L5 48.1132L0 51ZM19.5 50.5L4.5 50.5L4.5 51.5L19.5 51.5L19.5 50.5Z" fill="#E73525"/>
<path d="M1191 34L1186 31.1132L1186 36.8868L1191 34ZM1167 34L1172 36.8867L1172 31.1132L1167 34ZM1186.5 33.5L1171.5 33.5L1171.5 34.5L1186.5 34.5L1186.5 33.5Z" fill="#E73525"/>
<path d="M1079 34L1074 31.1132L1074 36.8868L1079 34ZM1055 34L1060 36.8867L1060 31.1132L1055 34ZM1074.5 33.5L1059.5 33.5L1059.5 34.5L1074.5 34.5L1074.5 33.5Z" fill="#E73525"/>
</svg>
