<svg width="386" height="54" viewBox="0 0 386 54" fill="none" xmlns="http://www.w3.org/2000/svg">
<path d="M2 53H377" stroke="#ACACAC" stroke-linejoin="round"/>
<path d="M14 51H77" stroke="#00A19B" stroke-width="4" stroke-linecap="round" stroke-linejoin="round"/>
<path d="M19.12 25.736V26.76C19.12 27.624 19.312 27.848 20.16 27.848H21.136C21.76 27.848 22.016 27.576 22.096 26.584C21.84 26.504 21.488 26.392 21.312 26.248C21.28 26.968 21.232 27.048 20.992 27.048H20.288C20.032 27.048 20.016 27.016 20.016 26.76V25.736H21.936V24.84H19.056V23.64H21.424V22.76H19.056V21.688H17.968V22.76H15.648V23.64H17.968V24.84H15.04V25.736H16.896C16.72 26.728 16.192 27.272 14.752 27.592C14.944 27.752 15.2 28.104 15.296 28.328C17.008 27.88 17.632 27.08 17.856 25.736H19.12ZM15.952 36.232C16.752 35.528 17.488 34.36 17.904 33.288L16.816 32.984C16.384 34.04 15.632 35.144 14.848 35.768L15.952 36.232ZM19.488 33.384C19.68 34.264 19.792 35.384 19.808 36.072L20.96 35.928C20.944 35.256 20.8 34.152 20.592 33.288L19.488 33.384ZM22.752 33.368C23.136 34.232 23.504 35.352 23.632 36.056L24.8 35.816C24.672 35.128 24.256 34.008 23.872 33.16L22.752 33.368ZM26.048 33.304C26.8 34.216 27.648 35.448 28.016 36.232L29.2 35.816C28.784 35.016 27.904 33.816 27.152 32.936L26.048 33.304ZM27.952 31.352C27.872 31.352 27.792 31.352 27.744 31.304C27.696 31.224 27.68 30.968 27.68 30.568V23.88H25.104C25.136 23.16 25.136 22.408 25.152 21.608H24.064C24.064 22.408 24.048 23.16 24.032 23.88H22.256V24.952H23.984C23.952 25.688 23.888 26.376 23.808 27.016C23.408 26.744 23.008 26.504 22.64 26.28L22.112 27.128C22.592 27.416 23.104 27.768 23.6 28.136C23.312 29.448 22.8 30.536 21.936 31.384L21.92 30.728C20.96 30.824 19.984 30.936 19.056 31.016V29.672H21.552V28.76H19.056V27.608H17.968V28.76H15.424V29.672H17.968V31.128C16.8 31.24 15.728 31.336 14.88 31.384L14.992 32.408C16.72 32.232 19.168 31.976 21.568 31.72L21.408 31.832C21.648 32.008 22.016 32.36 22.176 32.616C23.392 31.672 24.112 30.408 24.528 28.824C25.056 29.24 25.52 29.656 25.84 29.992L26.4 29.016C26.016 28.632 25.424 28.152 24.768 27.688C24.912 26.84 25.008 25.928 25.056 24.952H26.592V30.504C26.592 31.576 26.672 31.832 26.88 32.04C27.088 32.232 27.392 32.328 27.68 32.328H28.304C28.576 32.328 28.816 32.264 28.992 32.136C29.184 32.008 29.312 31.784 29.376 31.416C29.44 31.096 29.488 30.088 29.504 29.256C29.232 29.176 28.896 29.016 28.688 28.824C28.688 29.736 28.672 30.44 28.656 30.744C28.624 31.048 28.592 31.208 28.528 31.272C28.464 31.336 28.368 31.352 28.256 31.352H27.952ZM36.08 23.368V24.76H32.688V23.368H36.08ZM32.688 27.208V25.672H36.08V27.208H32.688ZM37.2 22.36H31.52V36.216H32.688V28.2H37.2V22.36ZM39.824 27.224V25.672H43.376V27.224H39.824ZM43.376 23.368V24.76H39.824V23.368H43.376ZM44.576 22.36H38.688V28.216H43.376V34.584C43.376 34.904 43.264 34.984 42.976 35C42.64 35.016 41.552 35.032 40.464 34.968C40.64 35.304 40.832 35.864 40.896 36.2C42.336 36.2 43.28 36.168 43.84 35.976C44.368 35.784 44.576 35.4 44.576 34.584V22.36ZM61.136 28.632V27.464H54.32V25.048H59.408V23.912H54.32V21.608H53.072V27.464H46.896V28.632H53.072V36.216H54.32V31C56.08 31.512 58.224 32.328 59.36 32.888L59.968 31.816C58.704 31.224 56.288 30.424 54.544 29.96L54.32 30.312V28.632H61.136ZM66.144 26.936H76.4V25.736H71.92V21.64H70.672V25.736H66.144V22.04H64.928V27.336C64.928 30.12 64.704 33.064 62.688 35.32C62.96 35.528 63.408 35.96 63.6 36.248C65.072 34.632 65.696 32.696 65.952 30.696H72.672V36.216H73.936V29.48H66.08C66.128 28.76 66.144 28.04 66.144 27.32V26.936Z" fill="#00A19B"/>
<path d="M98.56 30.072V26.728H101.568V30.072H98.56ZM102.752 31.896V26.728H105.232V25.592H102.752V21.896H101.568V25.592H98.56V21.704H97.392V25.592H94.416V22.04H93.2V25.592H90.816V26.728H93.2V36.216H94.416V35.048H104.688V33.896H94.416V26.728H97.392V31.976H98.56V31.192H101.568V31.896H102.752ZM111.008 31.592C111.008 32.792 110.72 34.344 107.936 35.368C108.192 35.608 108.576 36.024 108.752 36.328C111.84 35.08 112.208 33.16 112.208 31.64V30.664H111.008V31.592ZM109.728 25.784H113.392V27.512H109.728V25.784ZM109.728 23.144H113.392V24.84H109.728V23.144ZM118.256 24.84H114.56V23.144H118.256V24.84ZM118.256 27.512H114.56V25.784H118.256V27.512ZM119.472 28.52V22.136H108.56V28.52H111.744C110.528 29.768 108.608 30.84 106.768 31.368C107.04 31.608 107.376 32.04 107.568 32.344C109.664 31.608 111.872 30.2 113.184 28.52H114.944C115.552 29.32 116.368 30.04 117.248 30.664H116.064V36.2H117.28V30.68C118.288 31.368 119.408 31.928 120.544 32.28C120.704 31.976 121.056 31.512 121.328 31.272C119.424 30.776 117.536 29.752 116.336 28.52H119.472ZM137.136 28.632V27.464H130.32V25.048H135.408V23.912H130.32V21.608H129.072V27.464H122.896V28.632H129.072V36.216H130.32V31C132.08 31.512 134.224 32.328 135.36 32.888L135.968 31.816C134.704 31.224 132.288 30.424 130.544 29.96L130.32 30.312V28.632H137.136ZM139.383 35.9766H138.141L142.891 23.625H144.125L139.383 35.9766ZM156.338 27.208H154.466V24.504H156.338V27.208ZM156.338 31H154.466V28.264H156.338V31ZM148.802 28.264H150.578V31H148.802V28.264ZM153.442 28.264V31H151.586V28.264H153.442ZM151.586 27.208V24.504H153.442V27.208H151.586ZM148.802 24.504H150.578V27.208H148.802V24.504ZM147.73 27.208H145.506V28.264H147.73V31H145.762V32.072H159.474V31H157.458V28.264H159.698V27.208H157.458V24.504H159.106V23.448H149.01C149.33 22.968 149.618 22.456 149.858 21.944L148.722 21.608C147.97 23.224 146.69 24.776 145.314 25.784C145.602 25.944 146.066 26.344 146.29 26.568C146.77 26.168 147.266 25.672 147.73 25.144V27.208ZM146.514 36.232C147.378 35.48 148.098 34.216 148.482 33.016L147.378 32.744C146.978 33.896 146.226 35.112 145.394 35.768L146.514 36.232ZM150.146 33.144C150.338 34.104 150.466 35.336 150.482 36.072L151.618 35.912C151.602 35.192 151.426 33.976 151.234 33.032L150.146 33.144ZM153.378 33.16C153.778 34.104 154.194 35.336 154.354 36.088L155.506 35.848C155.346 35.096 154.914 33.864 154.482 32.952L153.378 33.16ZM156.626 33.048C157.41 34.04 158.322 35.4 158.706 36.248L159.89 35.816C159.458 34.952 158.514 33.64 157.714 32.68L156.626 33.048ZM166.066 22.248L165.874 22.296H161.954V36.216H163.074V23.384H165.426C165.042 24.472 164.514 25.944 164.002 27.096C165.25 28.328 165.602 29.384 165.602 30.264C165.602 30.744 165.506 31.176 165.234 31.352C165.074 31.432 164.898 31.48 164.674 31.496C164.386 31.512 164.05 31.512 163.634 31.464C163.826 31.784 163.922 32.248 163.938 32.552C164.322 32.568 164.786 32.584 165.122 32.536C165.474 32.488 165.778 32.392 166.018 32.232C166.498 31.912 166.69 31.272 166.674 30.392C166.674 29.4 166.386 28.264 165.09 26.952C165.698 25.704 166.354 24.072 166.85 22.728L166.066 22.248ZM168.866 26.328H173.698V28.312H168.866V26.328ZM173.698 23.368V25.32H168.866V23.368H173.698ZM174.626 29.752C174.098 30.344 173.25 31.08 172.498 31.672C172.13 30.968 171.842 30.184 171.618 29.368H174.882V22.312H167.714V34.504C167.042 34.632 166.434 34.744 165.922 34.84L166.306 35.992C167.858 35.64 169.986 35.176 171.986 34.712L171.906 33.688C170.882 33.896 169.842 34.104 168.866 34.296V29.368H170.594C171.362 32.488 172.818 34.968 175.17 36.168C175.33 35.864 175.682 35.416 175.954 35.192C174.722 34.632 173.73 33.704 172.978 32.504C173.81 31.928 174.786 31.144 175.554 30.408L174.626 29.752ZM191.73 28.632V27.464H184.914V25.048H190.002V23.912H184.914V21.608H183.666V27.464H177.49V28.632H183.666V36.216H184.914V31C186.674 31.512 188.818 32.328 189.954 32.888L190.562 31.816C189.298 31.224 186.882 30.424 185.138 29.96L184.914 30.312V28.632H191.73Z" fill="black"/>
<path d="M212.168 33.48L209.672 33.96V29.288H212.056V28.248H209.672V26.568H211.64V25.544H207.16C208.072 24.584 208.744 23.576 209.24 22.712C210.168 23.56 211.192 24.744 211.72 25.496L212.52 24.584C211.896 23.752 210.632 22.488 209.592 21.624H208.536C207.96 22.888 206.92 24.504 205.416 25.72C205.64 25.88 205.992 26.248 206.168 26.488C206.392 26.296 206.616 26.088 206.824 25.88V26.568H208.632V28.248H206.024V29.288H208.632V34.152C207.56 34.344 206.584 34.536 205.816 34.664L206.088 35.736C207.768 35.4 210.088 34.952 212.248 34.488L212.168 33.48ZM206.344 30.408C206.68 31.352 206.952 32.568 207 33.384L207.896 33.128C207.816 32.344 207.528 31.128 207.176 30.2L206.344 30.408ZM210.92 33.192C211.208 32.44 211.576 31.272 211.88 30.296L210.952 30.008C210.792 30.872 210.424 32.152 210.168 32.92L210.92 33.192ZM214.008 26.168H218.408V28.056H214.008V26.168ZM218.408 23.352V25.128H214.008V23.352H218.408ZM219.368 29.768C218.856 30.312 218.04 31 217.32 31.544C217 30.776 216.744 29.96 216.536 29.096H219.544V22.28H212.888V34.616C212.392 34.728 211.944 34.824 211.544 34.904L211.88 36.04C213.352 35.704 215.272 35.224 217.08 34.744L216.968 33.656C215.96 33.896 214.952 34.136 214.008 34.36V29.096H215.464C216.168 32.36 217.496 34.968 219.816 36.248C219.992 35.944 220.344 35.48 220.6 35.256C219.4 34.68 218.472 33.688 217.768 32.44C218.536 31.928 219.464 31.224 220.184 30.568L219.368 29.768ZM235.768 22.584H227.96V23.704H235.768V22.584ZM225.288 21.608C224.488 22.744 222.952 24.184 221.624 25.08C221.832 25.304 222.152 25.768 222.328 26.024C223.752 25.016 225.384 23.464 226.424 22.056L225.288 21.608ZM225.944 25.016C224.84 26.824 223.112 28.664 221.464 29.832C221.704 30.072 222.12 30.584 222.296 30.824C222.888 30.36 223.496 29.784 224.104 29.16V36.264H225.288V27.848C225.944 27.064 226.552 26.248 227.048 25.432L225.944 25.016ZM236.232 26.952H227.272V28.088H232.616V34.68C232.616 34.952 232.52 35.016 232.216 35.032C231.912 35.048 230.856 35.048 229.72 35.016C229.896 35.352 230.056 35.848 230.104 36.168C231.672 36.168 232.568 36.168 233.112 35.992C233.64 35.8 233.816 35.432 233.816 34.696V28.088H236.232V26.952ZM252.136 28.632V27.464H245.32V25.048H250.408V23.912H245.32V21.608H244.072V27.464H237.896V28.632H244.072V36.216H245.32V31C247.08 31.512 249.224 32.328 250.36 32.888L250.968 31.816C249.704 31.224 247.288 30.424 245.544 29.96L245.32 30.312V28.632H252.136Z" fill="black"/>
<path d="M269.48 25.624H267.656V23.368H269.48V25.624ZM267.656 32.44V29.896H269.48V32.072L267.656 32.44ZM267.656 26.632H269.48V28.904H267.656V26.632ZM271.4 23.368V22.296H265.8V23.368H266.632V32.632L265.624 32.824L265.832 33.912C266.904 33.704 268.184 33.432 269.48 33.128V36.216H270.504V23.368H271.4ZM273.976 31.736C273.976 31.944 273.976 32.136 273.96 32.344H272.536V29.784H271.608V33.944H272.536V33.224H273.816C273.576 34.072 273.032 34.84 271.8 35.464C271.992 35.64 272.296 36.024 272.408 36.248C274.648 35.144 274.952 33.512 274.952 31.752V29.208H273.976V31.736ZM273.976 26.744C274.152 27.032 274.328 27.368 274.472 27.688L272.936 27.816C273.736 26.68 274.632 25.128 275.32 23.88L274.392 23.544C274.152 24.072 273.864 24.696 273.528 25.32C273.336 25.064 273.08 24.792 272.808 24.52C273.288 23.816 273.816 22.792 274.28 21.96L273.288 21.624C273.048 22.296 272.632 23.24 272.232 23.976C272.104 23.864 271.976 23.752 271.848 23.656L271.304 24.328C271.944 24.872 272.632 25.624 273.032 26.216C272.68 26.824 272.312 27.4 271.976 27.88L271.064 27.944L271.192 28.84C272.248 28.744 273.512 28.632 274.808 28.52C274.872 28.728 274.92 28.92 274.952 29.08L275.736 28.776C275.608 28.152 275.176 27.208 274.728 26.488L273.976 26.744ZM280.408 28.904C280.264 28.216 279.768 27.208 279.256 26.44L278.488 26.712C278.68 27 278.856 27.336 279.016 27.672L277.432 27.8C278.264 26.648 279.16 25.112 279.848 23.864L278.888 23.512C278.648 24.056 278.344 24.696 277.992 25.336C277.8 25.08 277.56 24.792 277.272 24.52C277.752 23.8 278.28 22.808 278.76 21.96L277.736 21.624C277.496 22.296 277.08 23.224 276.68 23.96C276.536 23.832 276.376 23.704 276.232 23.592L275.688 24.296C276.376 24.84 277.096 25.608 277.512 26.216C277.16 26.824 276.808 27.4 276.472 27.864L275.736 27.912L275.896 28.808C276.92 28.712 278.12 28.6 279.368 28.472C279.48 28.744 279.544 29 279.592 29.208L280.408 28.904ZM278.792 32.344H277.256V29.176H276.264V36.216H277.256V33.224H278.792V33.896H279.72V29.784H278.792V32.344ZM287.384 34.488V30.552H293.944V34.488H287.384ZM291.352 24.28C290.664 25.672 289.656 26.936 288.472 28.024C287.736 27.224 286.52 26.2 285.448 25.448C285.864 25.08 286.232 24.68 286.584 24.28H291.352ZM295.144 29.464H288.6C290.456 27.896 292.024 25.928 292.968 23.56L292.184 23.144L291.96 23.208H287.448C287.784 22.744 288.088 22.28 288.36 21.832L287.032 21.56C286.104 23.288 284.28 25.336 281.656 26.76C281.928 26.968 282.328 27.4 282.488 27.672C283.256 27.224 283.944 26.728 284.584 26.216C285.64 27 286.808 28.024 287.512 28.84C285.704 30.264 283.608 31.32 281.576 31.912C281.832 32.136 282.136 32.632 282.28 32.952C283.608 32.52 284.936 31.912 286.216 31.16V36.216H287.384V35.576H293.944V36.248H295.144V29.464ZM312.136 28.632V27.464H305.32V25.048H310.408V23.912H305.32V21.608H304.072V27.464H297.896V28.632H304.072V36.216H305.32V31C307.08 31.512 309.224 32.328 310.36 32.888L310.968 31.816C309.704 31.224 307.288 30.424 305.544 29.96L305.32 30.312V28.632H312.136Z" fill="black"/>
<rect x="89" width="231" height="51" fill="url(#paint0_linear_707_24)"/>
<rect x="305.5" y="0.5" width="59" height="47" rx="3.5" fill="white" stroke="#00A19B"/>
<path d="M326.088 21.84H329.592V23.296H326.76V29.712H327.848V24.32H329.592V31.2H330.68V24.32H332.552V28.448C332.552 28.592 332.52 28.656 332.344 28.656C332.168 28.656 331.736 28.656 331.144 28.64C331.288 28.944 331.416 29.36 331.448 29.664C332.264 29.664 332.856 29.664 333.208 29.488C333.592 29.296 333.672 28.992 333.672 28.448V23.296H330.68V21.84H334.216V20.832H326.088V21.84ZM324.472 24.224H321.736V22.464H324.472V24.224ZM324.856 27.392V29.296H321.736V27.392H324.856ZM328.84 17.824C329.032 17.504 329.192 17.152 329.336 16.816L328.2 16.544C327.88 17.344 327.384 18.144 326.792 18.8V17.824H322.6C322.776 17.504 322.936 17.168 323.064 16.832L321.96 16.544C321.48 17.776 320.616 19.008 319.656 19.84C319.944 19.984 320.408 20.304 320.632 20.48C321.096 20.032 321.576 19.456 321.992 18.816H322.68C322.936 19.264 323.192 19.776 323.336 20.176L322.744 20.064C322.6 20.464 322.344 21.04 322.088 21.504H320.616V31.136H321.736V30.256H324.856V30.88H325.944V26.416H321.736V25.2H325.608V21.504H323.288C323.496 21.136 323.72 20.72 323.944 20.304L323.864 20.288L324.488 20.112C324.376 19.76 324.136 19.264 323.864 18.816H326.776C326.44 19.184 326.088 19.52 325.704 19.808C325.976 19.952 326.504 20.224 326.728 20.4C327.24 19.968 327.736 19.424 328.2 18.816H329.464C329.896 19.376 330.344 20.032 330.536 20.496L331.608 20.128C331.432 19.76 331.112 19.264 330.76 18.816H334.216V17.824H328.84ZM348.408 19.104H345.336V20.768C345.336 21.728 345.672 21.968 346.856 21.968H349C349.848 21.968 350.152 21.68 350.264 20.608C349.976 20.544 349.592 20.416 349.384 20.272C349.336 21.024 349.256 21.12 348.872 21.12H346.968C346.44 21.12 346.344 21.056 346.344 20.752V19.936H349.464V17.232H345.032V18.064H348.408V19.104ZM343.256 19.104H340.12V20.768C340.12 21.728 340.424 21.968 341.608 21.968H343.592C344.408 21.968 344.712 21.696 344.824 20.656C344.536 20.608 344.152 20.48 343.944 20.32C343.896 21.024 343.816 21.12 343.432 21.12H341.704C341.192 21.12 341.112 21.056 341.112 20.768V19.936H344.264V17.232H339.832V18.064H343.256V19.104ZM343.512 24.24H346.136V25.76H343.512V24.24ZM350.168 25.76H347.272V24.24H349.672V23.328H347.272V22.176H346.136V23.328H343.512V22.176H342.408V23.328H340.04V24.24H342.408V25.76H339.528V26.688H350.168V25.76ZM349.928 28.816C349.176 28.224 347.864 27.456 346.696 26.896L345.848 27.424C346.952 27.984 348.104 28.736 348.776 29.328L349.928 28.816ZM342.936 26.864C342.232 27.504 341.048 28.112 339.96 28.544C340.216 28.704 340.648 29.088 340.84 29.296C341.896 28.784 343.176 28 343.992 27.232L342.936 26.864ZM339.224 19.648C338.776 18.848 337.72 17.744 336.776 16.992L335.864 17.6C336.792 18.384 337.816 19.52 338.232 20.32L339.224 19.648ZM338.856 22.88H335.784V24H337.752V28.128C337.048 28.8 336.264 29.472 335.592 29.968L336.216 31.072C336.984 30.368 337.704 29.696 338.376 28.992C339.368 30.256 340.824 30.832 342.936 30.912C344.744 30.976 348.2 30.944 350.008 30.864C350.056 30.528 350.248 30 350.392 29.744C348.44 29.872 344.712 29.92 342.904 29.84C341.032 29.76 339.608 29.216 338.856 28.016V22.88Z" fill="#00A19B"/>
<path d="M375.693 12H374V5.47266L371.979 6.09961V4.72266L375.512 3.45703H375.693V12ZM385.318 12H379.471V10.8398L382.23 7.89844C382.609 7.48438 382.889 7.12305 383.068 6.81445C383.252 6.50586 383.344 6.21289 383.344 5.93555C383.344 5.55664 383.248 5.25977 383.057 5.04492C382.865 4.82617 382.592 4.7168 382.236 4.7168C381.854 4.7168 381.551 4.84961 381.328 5.11523C381.109 5.37695 381 5.72266 381 6.15234H379.301C379.301 5.63281 379.424 5.1582 379.67 4.72852C379.92 4.29883 380.271 3.96289 380.725 3.7207C381.178 3.47461 381.691 3.35156 382.266 3.35156C383.145 3.35156 383.826 3.5625 384.311 3.98438C384.799 4.40625 385.043 5.00195 385.043 5.77148C385.043 6.19336 384.934 6.62305 384.715 7.06055C384.496 7.49805 384.121 8.00781 383.59 8.58984L381.65 10.6348H385.318V12Z" fill="#4D4D4D"/>
<path d="M4.69336 15H3V8.47266L0.978516 9.09961V7.72266L4.51172 6.45703H4.69336V15ZM14.3184 15H8.4707V13.8398L11.2305 10.8984C11.6094 10.4844 11.8887 10.123 12.0684 9.81445C12.252 9.50586 12.3438 9.21289 12.3438 8.93555C12.3438 8.55664 12.248 8.25977 12.0566 8.04492C11.8652 7.82617 11.5918 7.7168 11.2363 7.7168C10.8535 7.7168 10.5508 7.84961 10.3281 8.11523C10.1094 8.37695 10 8.72266 10 9.15234H8.30078C8.30078 8.63281 8.42383 8.1582 8.66992 7.72852C8.91992 7.29883 9.27148 6.96289 9.72461 6.7207C10.1777 6.47461 10.6914 6.35156 11.2656 6.35156C12.1445 6.35156 12.8262 6.5625 13.3105 6.98438C13.7988 7.40625 14.043 8.00195 14.043 8.77148C14.043 9.19336 13.9336 9.62305 13.7148 10.0605C13.4961 10.498 13.1211 11.0078 12.5898 11.5898L10.6504 13.6348H14.3184V15Z" fill="#4D4D4D"/>
<path d="M81.6934 15H80V8.47266L77.9785 9.09961V7.72266L81.5117 6.45703H81.6934V15ZM91.3184 15H85.4707V13.8398L88.2305 10.8984C88.6094 10.4844 88.8887 10.123 89.0684 9.81445C89.252 9.50586 89.3438 9.21289 89.3438 8.93555C89.3438 8.55664 89.248 8.25977 89.0566 8.04492C88.8652 7.82617 88.5918 7.7168 88.2363 7.7168C87.8535 7.7168 87.5508 7.84961 87.3281 8.11523C87.1094 8.37695 87 8.72266 87 9.15234H85.3008C85.3008 8.63281 85.4238 8.1582 85.6699 7.72852C85.9199 7.29883 86.2715 6.96289 86.7246 6.7207C87.1777 6.47461 87.6914 6.35156 88.2656 6.35156C89.1445 6.35156 89.8262 6.5625 90.3105 6.98438C90.7988 7.40625 91.043 8.00195 91.043 8.77148C91.043 9.19336 90.9336 9.62305 90.7148 10.0605C90.4961 10.498 90.1211 11.0078 89.5898 11.5898L87.6504 13.6348H91.3184V15Z" fill="#4D4D4D"/>
<path d="M365 26L370 28.8868V23.1132L365 26ZM377 26L372 23.1132V28.8868L377 26ZM369.5 26.5L372.5 26.5V25.5L369.5 25.5V26.5Z" fill="#E73525"/>
<path d="M2 26L7 28.8868L7 23.1132L2 26ZM14 26L9 23.1132V28.8868L14 26ZM6.5 26.5L9.5 26.5V25.5L6.5 25.5V26.5Z" fill="#E73525"/>
<path d="M79 26L84 28.8868V23.1132L79 26ZM91 26L86 23.1132V28.8868L91 26ZM83.5 26.5L86.5 26.5V25.5L83.5 25.5V26.5Z" fill="#E73525"/>
<defs>
<linearGradient id="paint0_linear_707_24" x1="320" y1="51" x2="204.5" y2="51" gradientUnits="userSpaceOnUse">
<stop offset="0.171875" stop-color="white"/>
<stop offset="1" stop-color="white" stop-opacity="0"/>
</linearGradient>
</defs>
</svg>
