<svg width="662" height="152" viewBox="0 0 662 152" fill="none" xmlns="http://www.w3.org/2000/svg">
<rect width="662" height="152" fill="#E7EDE7"/>
<path d="M289.375 83.8037H580.071" stroke="white" stroke-width="6.51786"/>
<rect x="43" y="46" width="273.75" height="73" rx="36.5" fill="#00A19B"/>
<path d="M104.067 96.6431V72.3157H100.218C98.3284 73.385 96.1541 74.7217 94.3005 76.0227V79.8901C96.0115 78.696 98.5422 77.1277 99.9502 76.3079H100.075V96.6431H104.067ZM126.292 82.4081H129.541V85.7296H126.292V82.4081ZM126.292 77.1886H129.541V80.4736H126.292V77.1886ZM134.651 80.4736H131.366V77.1886H134.651V80.4736ZM134.651 85.7296H131.366V82.4081H134.651V85.7296ZM131.658 87.7736H136.731V75.1446H131.658V72.3706H137.498V70.0346H131.658V66.0926H129.249V70.0346H123.701V72.3706H129.249V75.1446H124.248V87.7736H129.249V90.6936H123.263V93.1026H129.249V99.4536H131.658V93.1026H137.388V90.6936H131.658V87.7736ZM140.418 90.2191V87.1896H144.542V90.2191H140.418ZM144.542 82.4446V85.2551H140.418V82.4446H144.542ZM146.55 80.4006H138.41V99.3076H140.418V92.2631H144.542V97.0811C144.542 97.3366 144.469 97.4461 144.214 97.4461H142.389C142.608 97.9936 142.9 98.8696 142.936 99.3806C144.287 99.3806 145.163 99.3806 145.783 99.0156C146.367 98.6506 146.55 98.0666 146.55 97.0811V80.4006ZM151.988 75.4001H141.951V77.5901H151.988V75.4001ZM150.601 81.1671H148.594V93.9421H150.601V81.1671ZM153.485 96.7526C153.485 97.1541 153.339 97.2271 152.937 97.2636C152.536 97.3001 151.185 97.3001 149.689 97.2636C149.981 97.8476 150.273 98.7601 150.382 99.3076C152.499 99.3076 153.777 99.2711 154.653 98.9791C155.456 98.5776 155.711 97.9571 155.711 96.7891V79.8166H153.485V96.7526ZM145.674 66.2386C143.958 69.6696 140.491 73.6481 136.804 75.8016C137.242 76.4221 137.863 77.3711 138.155 78.0281C141.841 75.6921 145.163 71.9691 146.988 68.7571C149.032 72.0056 152.572 75.6191 155.93 77.7361C156.332 77.0061 156.916 75.9841 157.39 75.4001C153.996 73.5386 150.346 69.9251 148.083 66.2386H145.674ZM166.588 68.3191V71.0201H175.567C175.64 72.4071 175.786 74.0131 176.042 75.6921L174.436 75.4366C172.209 85.6566 167.72 92.9931 159.653 97.1906C160.383 97.6651 161.588 98.7966 162.099 99.3441C169.362 95.0736 173.961 88.4306 176.662 78.9771C178.305 85.8756 182.174 93.8691 191.153 99.3076C191.627 98.6506 192.722 97.4826 193.343 97.0446C179.035 88.5401 178.195 74.7796 178.195 68.3191H166.588ZM212.761 66.9686C212.104 68.6841 210.826 71.2391 209.914 72.8086L211.775 73.6481C212.797 72.1881 214.038 69.8886 215.17 67.9176L212.761 66.9686ZM201.336 72.5896C200.971 71.1296 199.84 68.8666 198.708 67.1511L196.737 68.0271C197.832 69.7426 198.927 72.0786 199.292 73.5751L201.336 72.5896ZM209.512 81.7146H201.592L203.526 81.0211C203.271 79.7071 202.468 77.6631 201.519 76.1666L199.402 76.8966C200.241 78.4296 201.044 80.4006 201.263 81.7146H197.723V84.0141H204.402V87.7371H198.635V90.0001H204.402V94.3071C201.409 94.7086 198.672 95.0371 196.482 95.2926L196.883 97.8476C201.519 97.2271 208.344 96.2781 214.695 95.3656L214.622 92.9566L206.921 93.9786V90.0001H212.907V87.7371H206.921V84.0141H213.673V81.7146H209.804C210.498 80.4371 211.374 78.5391 212.14 76.8236L209.695 76.0936C209.22 77.5901 208.344 79.7801 207.614 81.1671L209.512 81.7146ZM229.624 75.8381H225.755V66.3481H223.127V75.8381H214.987V73.8306H209.293V66.2751H207.03V73.8306H204.256V66.2751H202.03V73.8306H196.372V76.0936H214.586V78.3931H223.127V96.0956C223.127 96.7161 222.908 96.9351 222.287 96.9351C221.703 96.9716 219.696 96.9716 217.506 96.8986C217.907 97.5921 218.345 98.7601 218.491 99.4536C221.448 99.4536 223.2 99.3806 224.295 98.9791C225.317 98.5046 225.755 97.7381 225.755 96.0956V78.3931H229.624V75.8381ZM221.375 89.5256C220.973 87.2991 219.55 83.9046 218.017 81.2766L215.754 82.0796C217.25 84.7441 218.601 88.2116 218.966 90.4016L221.375 89.5256ZM239.661 75.5096H248.02V79.6706H239.661V75.5096ZM251.122 70.6551C250.538 71.6041 249.772 72.5896 249.005 73.3926H239.99C241.048 72.5166 241.997 71.5676 242.873 70.6551H251.122ZM259.481 79.6706H250.648V75.5096H259.481V79.6706ZM262.729 82.1891C260.795 83.7951 257.656 85.8391 255.064 87.2991C254.006 85.6201 253.166 83.7586 252.509 81.7511H262.145V73.3926H252.181C253.203 72.2246 254.188 70.8376 254.918 69.5966L253.093 68.4286L252.655 68.5746H244.662C245.209 67.9176 245.72 67.2241 246.195 66.5671L243.384 65.9831C241.45 68.9396 237.873 72.5166 233.164 75.1811C233.748 75.5461 234.588 76.3856 234.989 77.0061C235.719 76.5681 236.449 76.0936 237.143 75.6191V81.7511H246.158C242.581 83.4301 237.909 84.7806 233.748 85.5836C234.223 86.0581 234.88 87.1166 235.208 87.5911C237.982 86.8976 241.085 85.9851 243.968 84.8171C244.698 85.2916 245.355 85.8026 245.939 86.2771C242.873 88.2481 237.909 90.0001 233.931 90.8031C234.369 91.3141 235.099 92.1536 235.427 92.7376C239.296 91.7521 244.078 89.8176 247.363 87.6276C247.91 88.2116 248.385 88.8321 248.75 89.4161C245.1 92.4456 238.639 95.3656 233.274 96.6431C233.821 97.1906 234.515 98.1031 234.88 98.6871C239.807 97.2636 245.757 94.4896 249.772 91.3141C250.648 93.6866 250.246 95.7306 249.005 96.5701C248.312 97.0811 247.509 97.1541 246.669 97.1541C245.83 97.1541 244.625 97.1541 243.384 97.0081C243.822 97.6651 244.078 98.7601 244.151 99.4536C245.209 99.4901 246.304 99.5266 247.107 99.5266C248.531 99.4901 249.553 99.2711 250.721 98.5046C254.225 96.2051 253.75 88.8321 246.341 83.8316C247.691 83.2111 248.969 82.5541 250.1 81.8241C252.546 89.7811 257.145 95.5846 264.335 98.3221C264.664 97.5921 265.467 96.6066 266.051 96.0591C261.963 94.7451 258.678 92.2631 256.232 89.0146C258.97 87.6276 262.364 85.5836 264.883 83.7586L262.729 82.1891Z" fill="white"/>
<circle cx="384.535" cy="82.5001" r="26.0714" fill="white"/>
<circle cx="478.393" cy="82.5001" r="26.0714" fill="white"/>
<circle cx="572.25" cy="82.5001" r="26.0714" fill="white"/>
<path d="M379.828 77.3376V77.1238C379.828 75.0029 381.379 73.1494 383.91 73.1494C386.209 73.1494 387.902 74.6108 387.902 76.9099C387.902 78.9238 386.636 80.4744 385.157 82.0962L376.193 92.1123V94.6431H392.393V91.2747H381.753V91.1677L387.741 84.3062C390.326 81.4189 391.948 79.4407 391.948 76.5713C391.948 72.6682 388.811 69.8345 384.07 69.8345C378.991 69.8345 375.961 73.2029 375.961 77.1416V77.3376H379.828Z" fill="#00A19B"/>
<path d="M475.342 83.7358H477.909C480.992 83.7358 482.756 85.3755 482.792 87.728C482.81 90.0984 481.045 91.8628 477.927 91.8628C475.004 91.8628 473.453 90.1875 473.204 88.0845H469.443C469.568 91.9163 472.241 95.1421 477.82 95.1421C482.935 95.1421 486.909 92.1479 486.855 87.8528C486.784 83.9319 483.772 82.1497 481.616 81.9714V81.8467C483.469 81.5793 486.089 79.5476 486.018 76.0901C485.929 72.49 482.667 69.8345 477.962 69.8345C472.776 69.8345 470.067 73.1138 469.96 76.696H473.774C473.899 74.9851 475.128 73.0781 477.873 73.0781C480.368 73.0781 481.99 74.5752 482.008 76.6782C482.008 78.906 480.279 80.4744 477.766 80.4744H475.342V83.7358Z" fill="#00A19B"/>
<path d="M572.085 70.3157C568.627 75.5911 565.188 81.1338 562.247 86.5518V89.9023H574.045V94.6431H577.859V89.9023H580.925V86.5339H577.859V70.3157H572.085ZM566.043 86.5339V86.4805C568.396 82.1853 571.229 77.5872 573.921 73.5415H574.045V86.5339H566.043Z" fill="#00A19B"/>
<path d="M109.312 14.8174V15.9795H109.175C108.537 15.9893 108.022 16.1553 107.632 16.4775C107.244 16.7998 107.012 17.2474 106.934 17.8203C107.311 17.4362 107.788 17.2441 108.364 17.2441C108.983 17.2441 109.474 17.4655 109.839 17.9082C110.203 18.3509 110.386 18.9336 110.386 19.6562C110.386 20.1185 110.285 20.5368 110.083 20.9111C109.884 21.2855 109.601 21.5768 109.233 21.7852C108.869 21.9935 108.455 22.0977 107.993 22.0977C107.244 22.0977 106.639 21.8372 106.177 21.3164C105.718 20.7956 105.488 20.1006 105.488 19.2314V18.7236C105.488 17.9521 105.633 17.2718 105.923 16.6826C106.216 16.0902 106.634 15.6328 107.178 15.3105C107.725 14.985 108.358 14.8206 109.077 14.8174H109.312ZM107.935 18.377C107.707 18.377 107.5 18.4372 107.314 18.5576C107.129 18.6748 106.992 18.8311 106.904 19.0264V19.4561C106.904 19.9281 106.997 20.2975 107.183 20.5645C107.368 20.8281 107.629 20.96 107.964 20.96C108.267 20.96 108.511 20.8411 108.696 20.6035C108.885 20.3626 108.979 20.0518 108.979 19.6709C108.979 19.2835 108.885 18.971 108.696 18.7334C108.507 18.4958 108.254 18.377 107.935 18.377ZM116.04 19.4072C116.04 20.221 115.854 20.8737 115.483 21.3652C115.116 21.8535 114.618 22.0977 113.989 22.0977C113.455 22.0977 113.024 21.9121 112.695 21.541V24.0312H111.284V16.7168H112.593L112.642 17.2344C112.983 16.8242 113.429 16.6191 113.979 16.6191C114.631 16.6191 115.137 16.86 115.498 17.3418C115.859 17.8236 116.04 18.4876 116.04 19.334V19.4072ZM114.629 19.3047C114.629 18.8132 114.541 18.4339 114.365 18.167C114.193 17.9001 113.94 17.7666 113.608 17.7666C113.166 17.7666 112.861 17.9359 112.695 18.2744V20.4375C112.868 20.7858 113.175 20.96 113.618 20.96C114.292 20.96 114.629 20.4082 114.629 19.3047ZM118.853 18.2939L119.741 16.7168H121.25L119.746 19.3047L121.313 22H119.8L118.857 20.3398L117.92 22H116.401L117.969 19.3047L116.47 16.7168H117.983L118.853 18.2939Z" fill="#E73525"/>
<path d="M6.69336 53.5039L7.10352 49.8906H11.0879V51.0674H8.26074L8.08496 52.5957C8.42025 52.4167 8.77669 52.3271 9.1543 52.3271C9.83138 52.3271 10.362 52.5371 10.7461 52.957C11.1302 53.377 11.3223 53.9645 11.3223 54.7197C11.3223 55.1787 11.2246 55.5905 11.0293 55.9551C10.8372 56.3164 10.5605 56.598 10.1992 56.7998C9.83789 56.9984 9.41146 57.0977 8.91992 57.0977C8.49023 57.0977 8.09147 57.0114 7.72363 56.8389C7.35579 56.6631 7.06445 56.4173 6.84961 56.1016C6.63802 55.7858 6.52572 55.4261 6.5127 55.0225H7.90918C7.93848 55.3187 8.04102 55.5498 8.2168 55.7158C8.39583 55.8786 8.62858 55.96 8.91504 55.96C9.23405 55.96 9.47982 55.846 9.65234 55.6182C9.82487 55.387 9.91113 55.0615 9.91113 54.6416C9.91113 54.238 9.81185 53.9287 9.61328 53.7139C9.41471 53.499 9.13314 53.3916 8.76855 53.3916C8.43327 53.3916 8.16146 53.4795 7.95312 53.6553L7.81641 53.7822L6.69336 53.5039ZM17.04 54.4072C17.04 55.221 16.8545 55.8737 16.4834 56.3652C16.1156 56.8535 15.6175 57.0977 14.9893 57.0977C14.4554 57.0977 14.0241 56.9121 13.6953 56.541V59.0312H12.2842V51.7168H13.5928L13.6416 52.2344C13.9834 51.8242 14.4294 51.6191 14.9795 51.6191C15.6305 51.6191 16.1367 51.86 16.498 52.3418C16.8594 52.8236 17.04 53.4876 17.04 54.334V54.4072ZM15.6289 54.3047C15.6289 53.8132 15.541 53.4339 15.3652 53.167C15.1927 52.9001 14.9404 52.7666 14.6084 52.7666C14.1657 52.7666 13.8613 52.9359 13.6953 53.2744V55.4375C13.8678 55.7858 14.1755 55.96 14.6182 55.96C15.292 55.96 15.6289 55.4082 15.6289 54.3047ZM19.8525 53.2939L20.7412 51.7168H22.25L20.7461 54.3047L22.3135 57H20.7998L19.8574 55.3398L18.9199 57H17.4014L18.9688 54.3047L17.4697 51.7168H18.9834L19.8525 53.2939Z" fill="#E73525"/>
<path d="M617.919 82.8203H618.671C619.029 82.8203 619.294 82.7308 619.467 82.5518C619.639 82.3727 619.726 82.1351 619.726 81.8389C619.726 81.5524 619.639 81.3294 619.467 81.1699C619.298 81.0104 619.063 80.9307 618.764 80.9307C618.493 80.9307 618.267 81.0055 618.085 81.1553C617.903 81.3018 617.812 81.4938 617.812 81.7314H616.4C616.4 81.3604 616.5 81.0283 616.698 80.7354C616.9 80.4391 617.18 80.208 617.538 80.042C617.899 79.876 618.297 79.793 618.729 79.793C619.481 79.793 620.071 79.9736 620.497 80.335C620.924 80.693 621.137 81.1878 621.137 81.8193C621.137 82.1449 621.037 82.4443 620.839 82.7178C620.64 82.9912 620.38 83.2012 620.058 83.3477C620.458 83.4909 620.756 83.7057 620.951 83.9922C621.15 84.2786 621.249 84.6172 621.249 85.0078C621.249 85.6393 621.018 86.1455 620.556 86.5264C620.097 86.9072 619.488 87.0977 618.729 87.0977C618.02 87.0977 617.439 86.9105 616.986 86.5361C616.537 86.1618 616.312 85.667 616.312 85.0518H617.724C617.724 85.3187 617.823 85.5368 618.021 85.7061C618.223 85.8753 618.471 85.96 618.764 85.96C619.099 85.96 619.361 85.8721 619.55 85.6963C619.742 85.5173 619.838 85.2812 619.838 84.9883C619.838 84.2786 619.447 83.9238 618.666 83.9238H617.919V82.8203ZM627.04 84.4072C627.04 85.221 626.854 85.8737 626.483 86.3652C626.116 86.8535 625.618 87.0977 624.989 87.0977C624.455 87.0977 624.024 86.9121 623.695 86.541V89.0312H622.284V81.7168H623.593L623.642 82.2344C623.983 81.8242 624.429 81.6191 624.979 81.6191C625.631 81.6191 626.137 81.86 626.498 82.3418C626.859 82.8236 627.04 83.4876 627.04 84.334V84.4072ZM625.629 84.3047C625.629 83.8132 625.541 83.4339 625.365 83.167C625.193 82.9001 624.94 82.7666 624.608 82.7666C624.166 82.7666 623.861 82.9359 623.695 83.2744V85.4375C623.868 85.7858 624.175 85.96 624.618 85.96C625.292 85.96 625.629 85.4082 625.629 84.3047ZM629.853 83.2939L630.741 81.7168H632.25L630.746 84.3047L632.313 87H630.8L629.857 85.3398L628.92 87H627.401L628.969 84.3047L627.47 81.7168H628.983L629.853 83.2939Z" fill="#E73525"/>
<path d="M6.69336 111.504L7.10352 107.891H11.0879V109.067H8.26074L8.08496 110.596C8.42025 110.417 8.77669 110.327 9.1543 110.327C9.83138 110.327 10.362 110.537 10.7461 110.957C11.1302 111.377 11.3223 111.965 11.3223 112.72C11.3223 113.179 11.2246 113.59 11.0293 113.955C10.8372 114.316 10.5605 114.598 10.1992 114.8C9.83789 114.998 9.41146 115.098 8.91992 115.098C8.49023 115.098 8.09147 115.011 7.72363 114.839C7.35579 114.663 7.06445 114.417 6.84961 114.102C6.63802 113.786 6.52572 113.426 6.5127 113.022H7.90918C7.93848 113.319 8.04102 113.55 8.2168 113.716C8.39583 113.879 8.62858 113.96 8.91504 113.96C9.23405 113.96 9.47982 113.846 9.65234 113.618C9.82487 113.387 9.91113 113.062 9.91113 112.642C9.91113 112.238 9.81185 111.929 9.61328 111.714C9.41471 111.499 9.13314 111.392 8.76855 111.392C8.43327 111.392 8.16146 111.479 7.95312 111.655L7.81641 111.782L6.69336 111.504ZM17.04 112.407C17.04 113.221 16.8545 113.874 16.4834 114.365C16.1156 114.854 15.6175 115.098 14.9893 115.098C14.4554 115.098 14.0241 114.912 13.6953 114.541V117.031H12.2842V109.717H13.5928L13.6416 110.234C13.9834 109.824 14.4294 109.619 14.9795 109.619C15.6305 109.619 16.1367 109.86 16.498 110.342C16.8594 110.824 17.04 111.488 17.04 112.334V112.407ZM15.6289 112.305C15.6289 111.813 15.541 111.434 15.3652 111.167C15.1927 110.9 14.9404 110.767 14.6084 110.767C14.1657 110.767 13.8613 110.936 13.6953 111.274V113.438C13.8678 113.786 14.1755 113.96 14.6182 113.96C15.292 113.96 15.6289 113.408 15.6289 112.305ZM19.8525 111.294L20.7412 109.717H22.25L20.7461 112.305L22.3135 115H20.7998L19.8574 113.34L18.9199 115H17.4014L18.9688 112.305L17.4697 109.717H18.9834L19.8525 111.294Z" fill="#E73525"/>
<path d="M107 41L112 43.8868V38.1132L107 41ZM121 41L116 38.1132V43.8868L121 41ZM111.5 41.5H116.5V40.5H111.5V41.5Z" fill="#E73525"/>
<path d="M60.9111 31H59.5V25.5605L57.8154 26.083V24.9355L60.7598 23.8809H60.9111V31ZM67.4004 28.3242H68.2061V29.4619H67.4004V31H65.9893V29.4619H63.0742L63.0107 28.5732L65.9746 23.8906H67.4004V28.3242ZM64.417 28.3242H65.9893V25.8145L65.8965 25.9756L64.417 28.3242ZM73.7822 28.4072C73.7822 29.221 73.5967 29.8737 73.2256 30.3652C72.8577 30.8535 72.3597 31.0977 71.7314 31.0977C71.1976 31.0977 70.7663 30.9121 70.4375 30.541V33.0312H69.0264V25.7168H70.335L70.3838 26.2344C70.7256 25.8242 71.1715 25.6191 71.7217 25.6191C72.3727 25.6191 72.8789 25.86 73.2402 26.3418C73.6016 26.8236 73.7822 27.4876 73.7822 28.334V28.4072ZM72.3711 28.3047C72.3711 27.8132 72.2832 27.4339 72.1074 27.167C71.9349 26.9001 71.6826 26.7666 71.3506 26.7666C70.9079 26.7666 70.6035 26.9359 70.4375 27.2744V29.4375C70.61 29.7858 70.9176 29.96 71.3604 29.96C72.0342 29.96 72.3711 29.4082 72.3711 28.3047ZM76.5947 27.2939L77.4834 25.7168H78.9922L77.4883 28.3047L79.0557 31H77.542L76.5996 29.3398L75.6621 31H74.1436L75.7109 28.3047L74.2119 25.7168H75.7256L76.5947 27.2939Z" fill="#E73525"/>
<path d="M284.911 31H283.5V25.5605L281.815 26.083V24.9355L284.76 23.8809H284.911V31ZM291.4 28.3242H292.206V29.4619H291.4V31H289.989V29.4619H287.074L287.011 28.5732L289.975 23.8906H291.4V28.3242ZM288.417 28.3242H289.989V25.8145L289.896 25.9756L288.417 28.3242ZM297.782 28.4072C297.782 29.221 297.597 29.8737 297.226 30.3652C296.858 30.8535 296.36 31.0977 295.731 31.0977C295.198 31.0977 294.766 30.9121 294.438 30.541V33.0312H293.026V25.7168H294.335L294.384 26.2344C294.726 25.8242 295.172 25.6191 295.722 25.6191C296.373 25.6191 296.879 25.86 297.24 26.3418C297.602 26.8236 297.782 27.4876 297.782 28.334V28.4072ZM296.371 28.3047C296.371 27.8132 296.283 27.4339 296.107 27.167C295.935 26.9001 295.683 26.7666 295.351 26.7666C294.908 26.7666 294.604 26.9359 294.438 27.2744V29.4375C294.61 29.7858 294.918 29.96 295.36 29.96C296.034 29.96 296.371 29.4082 296.371 28.3047ZM300.595 27.2939L301.483 25.7168H302.992L301.488 28.3047L303.056 31H301.542L300.6 29.3398L299.662 31H298.144L299.711 28.3047L298.212 25.7168H299.726L300.595 27.2939Z" fill="#E73525"/>
<path d="M46 41L51 43.8868V38.1132L46 41ZM91 41L86 38.1132V43.8868L91 41ZM50.5 41.5H86.5V40.5H50.5V41.5Z" fill="#E73525"/>
<path d="M270 41L275 43.8868V38.1132L270 41ZM315 41L310 38.1132V43.8868L315 41ZM274.5 41.5H310.5V40.5H274.5V41.5Z" fill="#E73525"/>
<rect x="33" y="46" width="284" height="16" fill="#E73525" fill-opacity="0.22"/>
<rect x="33" y="103" width="284" height="16" fill="#E73525" fill-opacity="0.22"/>
<rect x="504" y="80" width="107" height="7" fill="#E73525" fill-opacity="0.22"/>
<line x1="105.5" y1="29" x2="105.5" y2="119" stroke="#E73525"/>
<line x1="122.5" y1="29" x2="122.5" y2="119" stroke="#E73525"/>
<line x1="43.5" y1="29" x2="43.5" y2="119" stroke="#E73525"/>
<line x1="92.5" y1="29" x2="92.5" y2="119" stroke="#E73525"/>
<line x1="267.5" y1="29" x2="267.5" y2="119" stroke="#E73525"/>
<line x1="316.5" y1="29" x2="316.5" y2="119" stroke="#E73525"/>
<path d="M378.356 31H373.483V30.0332L375.783 27.582C376.099 27.237 376.332 26.9359 376.481 26.6787C376.634 26.4215 376.711 26.1774 376.711 25.9463C376.711 25.6305 376.631 25.3831 376.472 25.2041C376.312 25.0218 376.084 24.9307 375.788 24.9307C375.469 24.9307 375.217 25.0413 375.031 25.2627C374.849 25.4808 374.758 25.7689 374.758 26.127H373.342C373.342 25.694 373.444 25.2985 373.649 24.9404C373.858 24.5824 374.151 24.3024 374.528 24.1006C374.906 23.8955 375.334 23.793 375.812 23.793C376.545 23.793 377.113 23.9688 377.517 24.3203C377.924 24.6719 378.127 25.1683 378.127 25.8096C378.127 26.1611 378.036 26.5192 377.854 26.8838C377.671 27.2484 377.359 27.6732 376.916 28.1582L375.3 29.8623H378.356V31ZM384.011 28.0605C384.011 29.0436 383.807 29.7956 383.4 30.3164C382.993 30.8372 382.398 31.0977 381.613 31.0977C380.839 31.0977 380.246 30.8421 379.836 30.3311C379.426 29.82 379.216 29.0876 379.206 28.1338V26.8252C379.206 25.8324 379.411 25.0788 379.821 24.5645C380.235 24.0501 380.829 23.793 381.604 23.793C382.378 23.793 382.971 24.0485 383.381 24.5596C383.791 25.0674 384.001 25.7982 384.011 26.752V28.0605ZM382.6 26.625C382.6 26.0358 382.518 25.6077 382.355 25.3408C382.196 25.0706 381.945 24.9355 381.604 24.9355C381.271 24.9355 381.026 25.0641 380.866 25.3213C380.71 25.5752 380.627 25.974 380.617 26.5176V28.2461C380.617 28.8255 380.695 29.2568 380.852 29.54C381.011 29.82 381.265 29.96 381.613 29.96C381.958 29.96 382.207 29.8249 382.36 29.5547C382.513 29.2845 382.593 28.8711 382.6 28.3145V26.625ZM389.782 28.4072C389.782 29.221 389.597 29.8737 389.226 30.3652C388.858 30.8535 388.36 31.0977 387.731 31.0977C387.198 31.0977 386.766 30.9121 386.438 30.541V33.0312H385.026V25.7168H386.335L386.384 26.2344C386.726 25.8242 387.172 25.6191 387.722 25.6191C388.373 25.6191 388.879 25.86 389.24 26.3418C389.602 26.8236 389.782 27.4876 389.782 28.334V28.4072ZM388.371 28.3047C388.371 27.8132 388.283 27.4339 388.107 27.167C387.935 26.9001 387.683 26.7666 387.351 26.7666C386.908 26.7666 386.604 26.9359 386.438 27.2744V29.4375C386.61 29.7858 386.918 29.96 387.36 29.96C388.034 29.96 388.371 29.4082 388.371 28.3047ZM392.595 27.2939L393.483 25.7168H394.992L393.488 28.3047L395.056 31H393.542L392.6 29.3398L391.662 31H390.144L391.711 28.3047L390.212 25.7168H391.726L392.595 27.2939Z" fill="#E73525"/>
<path d="M522.356 31H517.483V30.0332L519.783 27.582C520.099 27.237 520.332 26.9359 520.481 26.6787C520.634 26.4215 520.711 26.1774 520.711 25.9463C520.711 25.6305 520.631 25.3831 520.472 25.2041C520.312 25.0218 520.084 24.9307 519.788 24.9307C519.469 24.9307 519.217 25.0413 519.031 25.2627C518.849 25.4808 518.758 25.7689 518.758 26.127H517.342C517.342 25.694 517.444 25.2985 517.649 24.9404C517.858 24.5824 518.151 24.3024 518.528 24.1006C518.906 23.8955 519.334 23.793 519.812 23.793C520.545 23.793 521.113 23.9688 521.517 24.3203C521.924 24.6719 522.127 25.1683 522.127 25.8096C522.127 26.1611 522.036 26.5192 521.854 26.8838C521.671 27.2484 521.359 27.6732 520.916 28.1582L519.3 29.8623H522.356V31ZM525.296 27.2939L526.185 25.7168H527.693L526.189 28.3047L527.757 31H526.243L525.301 29.3398L524.363 31H522.845L524.412 28.3047L522.913 25.7168H524.427L525.296 27.2939ZM535.618 28.4072C535.618 29.221 535.433 29.8737 535.062 30.3652C534.694 30.8535 534.196 31.0977 533.567 31.0977C533.034 31.0977 532.602 30.9121 532.273 30.541V33.0312H530.862V25.7168H532.171L532.22 26.2344C532.562 25.8242 533.007 25.6191 533.558 25.6191C534.209 25.6191 534.715 25.86 535.076 26.3418C535.438 26.8236 535.618 27.4876 535.618 28.334V28.4072ZM534.207 28.3047C534.207 27.8132 534.119 27.4339 533.943 27.167C533.771 26.9001 533.519 26.7666 533.187 26.7666C532.744 26.7666 532.439 26.9359 532.273 27.2744V29.4375C532.446 29.7858 532.754 29.96 533.196 29.96C533.87 29.96 534.207 29.4082 534.207 28.3047ZM538.431 27.2939L539.319 25.7168H540.828L539.324 28.3047L540.892 31H539.378L538.436 29.3398L537.498 31H535.979L537.547 28.3047L536.048 25.7168H537.562L538.431 27.2939Z" fill="#E73525"/>
<path d="M360 41L365 43.8868V38.1132L360 41ZM405 41L400 38.1132V43.8868L405 41ZM364.5 41.5H400.5V40.5H364.5V41.5Z" fill="#E73525"/>
<path d="M505 41L510 43.8868L510 38.1132L505 41ZM546 41L541 38.1133L541 43.8868L546 41ZM509.5 41.5L541.5 41.5L541.5 40.5L509.5 40.5L509.5 41.5Z" fill="#E73525"/>
<line x1="357.5" y1="29" x2="357.5" y2="119" stroke="#E73525"/>
<line x1="546.5" y1="29" x2="546.5" y2="119" stroke="#E73525"/>
<line x1="504.5" y1="29" x2="504.5" y2="119" stroke="#E73525"/>
<line x1="410.5" y1="29" x2="410.5" y2="119" stroke="#E73525"/>
</svg>
