<svg enable-background="new 0 0 774.55 492.81" viewBox="0 0 774.55 492.81" xmlns="http://www.w3.org/2000/svg"><text fill="#595757" font-family="'Helvetica-Bold'" font-size="12" transform="translate(-.7374 -2.4565)">2-3-5</text><path d="m0 12.88h154.25v42.49h-154.25z" fill="none"/><text transform="translate(-.000063 20.1923)"><tspan fill="#595757" font-family="'DFHeiStd-W5-B5pc-H'" font-size="8.5" x="0" y="0">標示牌以簡潔現代化呈現。</tspan><tspan fill="#595757" font-family="'DFHeiStd-W5-B5pc-H'" font-size="8.5" x="0" y="16">分為固定式、活動式、L型等三款規格。</tspan></text><text fill="#1d8dc4" font-family="'Helvetica'" font-size="7" transform="translate(310.5781 29.8849)">30</text><text fill="#1d8dc4" font-family="'Helvetica'" font-size="7" transform="translate(228.5478 68.0753)">12</text><path d="m235.79 38.05h-7.24" fill="none" stroke="#00b1e0" stroke-miterlimit="10" stroke-width=".25"/><path d="m235.79 94.74h-7.24" fill="none" stroke="#00b1e0" stroke-miterlimit="10" stroke-width=".25"/><path d="m244.19 32.18v-7.24" fill="none" stroke="#00b1e0" stroke-miterlimit="10" stroke-width=".25"/><path d="m385.92 32.18v-7.24" fill="none" stroke="#00b1e0" stroke-miterlimit="10" stroke-width=".25"/><text fill="#1d8dc4" font-family="'Helvetica'" font-size="7" transform="translate(278.3764 202.7068)">15.5</text><text fill="#1d8dc4" font-family="'Helvetica'" font-size="7" transform="translate(227.7221 227.7054)">6.5</text><text transform="translate(253.7675 261.5586)"><tspan fill="#1d8dc4" font-family="'DFHeiStd-W5-B5pc-H'" font-size="7" x="0" y="0">文字：華康黑體</tspan><tspan fill="#1d8dc4" font-family="'Helvetica'" font-size="7" x="51.45" y="0">W7</tspan></text><path d="m235.79 210.02h-7.24" fill="none" stroke="#00b1e0" stroke-miterlimit="10" stroke-width=".25"/><path d="m235.79 243.41h-7.24" fill="none" stroke="#00b1e0" stroke-miterlimit="10" stroke-width=".25"/><path d="m247.05 205v-7.23" fill="none" stroke="#00b1e0" stroke-miterlimit="10" stroke-width=".25"/><path d="m326.66 205v-7.23" fill="none" stroke="#00b1e0" stroke-miterlimit="10" stroke-width=".25"/><text fill="#1d8dc4" font-family="'Helvetica'" font-size="7" transform="translate(305.59 346.4567)">24</text><text fill="#1d8dc4" font-family="'Helvetica'" font-size="7" transform="translate(222.5034 393.5385)">13.5</text><path d="m232.88 353.11h-7.24" fill="none" stroke="#00b1e0" stroke-miterlimit="10" stroke-width=".25"/><path d="m232.88 423.97h-7.24" fill="none" stroke="#00b1e0" stroke-miterlimit="10" stroke-width=".25"/><path d="m244.14 348.75v-7.23" fill="none" stroke="#00b1e0" stroke-miterlimit="10" stroke-width=".25"/><path d="m371.75 348.75v-7.23" fill="none" stroke="#00b1e0" stroke-miterlimit="10" stroke-width=".25"/><text fill="#1d8dc4" font-family="'Helvetica'" font-size="7" transform="translate(439.7119 174.5225)">15.5</text><text fill="#1d8dc4" font-family="'Helvetica'" font-size="7" transform="translate(387.0573 213.5912)">15.5</text><path d="m399.12 181.84h-7.24" fill="none" stroke="#00b1e0" stroke-miterlimit="10" stroke-width=".25"/><path d="m399.12 243.41h-7.24" fill="none" stroke="#00b1e0" stroke-miterlimit="10" stroke-width=".25"/><path d="m407.72 176.82v-7.24" fill="none" stroke="#00b1e0" stroke-miterlimit="10" stroke-width=".25"/><path d="m487.33 176.82v-7.24" fill="none" stroke="#00b1e0" stroke-miterlimit="10" stroke-width=".25"/><text fill="#383736" font-family="'DFHeiStd-W5-B5pc-H'" font-size="8.5" transform="translate(207.3349 8.0454)">櫃檯服務立牌（固定式）</text><text fill="#383736" font-family="'DFHeiStd-W5-B5pc-H'" font-size="8.5" transform="translate(207.3349 169.5806)">行員姓名牌（活動式）</text><text fill="#383736" font-family="'DFHeiStd-W5-B5pc-H'" font-size="8.5" transform="translate(207.3349 319.5249)">L型立牌（L型）</text><path d="m244.19 38.05h141.73v56.69h-141.73z" fill="none" stroke="#231815" stroke-miterlimit="10" stroke-width=".5"/><path d="m244.19 84.82h141.73v2.83h-141.73z" fill="#00a19b"/><path d="m267.81 90.01h9.45v11.81h-9.45z" fill="#c0c1c1"/><path d="m352.85 90.01h9.45v11.81h-9.45z" fill="#c0c1c1"/><text fill="#00a19b" font-family="'DFHeiStd-W7-B5pc-H'" font-size="26.6667" letter-spacing="2" transform="translate(257.8017 72.1284)">開戶專櫃</text><path d="m405.41 38.05h141.73v56.69h-141.73z" fill="none" stroke="#231815" stroke-miterlimit="10" stroke-width=".5"/><path d="m405.41 84.82h141.73v2.83h-141.73z" fill="#00a19b"/><path d="m429.03 90.01h9.45v11.81h-9.45z" fill="#c0c1c1"/><path d="m514.07 90.01h9.45v11.81h-9.45z" fill="#c0c1c1"/><text fill="#00a19b" font-family="'DFHeiStd-W7-B5pc-H'" font-size="26.6667" letter-spacing="2" transform="translate(419.0197 72.1284)">企業專櫃</text><path d="m566.77 38.05h141.73v56.69h-141.73z" fill="none" stroke="#231815" stroke-miterlimit="10" stroke-width=".5"/><path d="m590.39 90.01h9.45v11.81h-9.45z" fill="#c0c1c1"/><path d="m675.43 90.01h9.45v11.81h-9.45z" fill="#c0c1c1"/><path d="m594.76 49.57h9.44v2.56h-6.36v3.55h5.4v2.58h-5.4v4.11h6.59v2.58h-9.66v-15.38z" fill="#00a19b"/><path d="m607.33 49.57h3.14l4.47 8.19 1.54 3.33h.1c-.17-1.6-.4-3.64-.4-5.38v-6.13h2.91v15.38h-3.12l-4.45-8.23-1.56-3.3h-.1c.15 1.66.37 3.6.37 5.36v6.17h-2.91v-15.39z" fill="#00a19b"/><path d="m621.92 57.32c0-5.07 3.28-8.04 7.38-8.04 2.22 0 3.76.96 4.76 1.97l-1.64 1.95c-.75-.73-1.62-1.29-3.01-1.29-2.56 0-4.34 2-4.34 5.3 0 3.35 1.54 5.36 4.55 5.36.75 0 1.5-.21 1.93-.58v-3.03h-2.72v-2.51h5.47v6.94c-1.04 1.02-2.85 1.85-4.99 1.85-4.21 0-7.39-2.78-7.39-7.92z" fill="#00a19b"/><path d="m637.38 49.57h3.08v12.8h6.23v2.58h-9.31z" fill="#00a19b"/><path d="m649.16 49.57h3.08v15.38h-3.08z" fill="#00a19b"/><path d="m654.79 63 1.77-2.12c1.1 1.02 2.56 1.7 3.91 1.7 1.6 0 2.45-.69 2.45-1.77 0-1.14-.94-1.5-2.31-2.08l-2.06-.87c-1.56-.64-3.12-1.89-3.12-4.14 0-2.51 2.2-4.45 5.32-4.45 1.79 0 3.57.71 4.82 1.97l-1.56 1.93c-.98-.81-2-1.27-3.26-1.27-1.35 0-2.22.6-2.22 1.62 0 1.1 1.1 1.5 2.41 2.02l2.02.85c1.87.77 3.1 1.95 3.1 4.18 0 2.51-2.1 4.66-5.65 4.66-2.06.01-4.12-.8-5.62-2.23z" fill="#00a19b"/><path d="m668.57 49.57h3.08v6.05h5.82v-6.05h3.05v15.38h-3.05v-6.65h-5.82v6.65h-3.08z" fill="#00a19b"/><path d="m603.57 81.66 1.45-1.74c.91.84 2.1 1.4 3.21 1.4 1.32 0 2.02-.56 2.02-1.45 0-.94-.77-1.23-1.9-1.71l-1.69-.72c-1.28-.53-2.56-1.55-2.56-3.4 0-2.07 1.81-3.66 4.37-3.66 1.47 0 2.94.58 3.96 1.62l-1.28 1.59c-.8-.67-1.64-1.04-2.68-1.04-1.11 0-1.83.5-1.83 1.33 0 .91.91 1.23 1.98 1.66l1.66.7c1.54.63 2.55 1.61 2.55 3.43 0 2.07-1.73 3.83-4.65 3.83-1.68 0-3.38-.66-4.61-1.84z" fill="#00a19b"/><path d="m614.9 70.62h7.76v2.1h-5.23v2.92h4.44v2.12h-4.44v3.38h5.42v2.12h-7.94v-12.64z" fill="#00a19b"/><path d="m632.12 83.27-2.6-4.78h-1.76v4.78h-2.53v-12.65h4.41c2.65 0 4.75.92 4.75 3.83 0 1.9-.96 3.07-2.41 3.64l2.96 5.18zm-4.36-6.79h1.64c1.62 0 2.51-.68 2.51-2.03 0-1.37-.89-1.83-2.51-1.83h-1.64z" fill="#00a19b"/><path d="m634.92 70.62h2.65l1.67 6.15c.39 1.4.65 2.66 1.06 4.08h.09c.39-1.42.68-2.68 1.08-4.08l1.64-6.15h2.56l-3.88 12.64h-3.01z" fill="#00a19b"/><path d="m646.95 70.62h2.53v12.64h-2.53z" fill="#00a19b"/><path d="m651.78 77c0-4.17 2.68-6.61 5.88-6.61 1.61 0 2.89.77 3.71 1.62l-1.33 1.61c-.63-.61-1.37-1.06-2.32-1.06-1.91 0-3.35 1.64-3.35 4.36 0 2.75 1.3 4.41 3.3 4.41 1.08 0 1.93-.51 2.61-1.25l1.33 1.57c-1.04 1.21-2.39 1.86-4.03 1.86-3.2-.01-5.8-2.29-5.8-6.51z" fill="#00a19b"/><path d="m663.47 70.62h7.76v2.1h-5.23v2.92h4.44v2.12h-4.44v3.38h5.42v2.12h-7.94v-12.64z" fill="#00a19b"/><path d="m247.05 210.02h79.61v33.38h-79.61z" fill="none" stroke="#231815" stroke-miterlimit="10" stroke-width=".25"/><path d="m244.48 240.84h84.75v5.14h-84.75z" fill="none" stroke="#231815" stroke-miterlimit="10" stroke-width=".5"/><path d="m405.15 240.84h84.75v5.14h-84.75z" fill="none" stroke="#231815" stroke-miterlimit="10" stroke-width=".5"/><text fill="#00a19b" font-family="'DFHeiStd-W7-B5pc-H'" font-size="12.5231" transform="translate(264.0324 229.8481)">黃 玉 山</text><circle cx="249.16" cy="259.42" fill="#1d8dc4" r="1.59"/><path d="m407.72 181.78h79.61v61.63h-79.61z" fill="none" stroke="#231815" stroke-miterlimit="10" stroke-width=".25"/><circle cx="444.53" cy="191.66" fill="#00a19b" r="3.16"/><path d="m444.19 218.08c-4.55 0-8.24-3.69-8.24-8.24 0-2.96 1.57-5.55 3.92-7.01l-.12-2.22c-3.43 1.66-5.81 5.16-5.81 9.23 0 5.66 4.59 10.25 10.25 10.25 3.95 0 7.37-2.23 9.08-5.51l-1.01-1.97c-1.5 3.24-4.11 5.47-8.07 5.47z" fill="#00a19b"/><path d="m441.67 209.61s0-10.33 0-11.64 1.31-2.3 3-2.3c0 0 2.81 0 2.81 2.14s0 2.27 0 2.27l6.29.03s1.52-.07 1.55 1.32-1.5 1.39-1.5 1.39h-6.29v2.81s4.57.03 5.73.08c1.15.05 1.93-.13 2.84 1.71.91 1.85 4.47 8.53 4.47 8.53s.72 1.58-.96 2.43c-1.69.86-2.7-.67-2.7-.67l-4.15-8.16z" fill="#00a19b"/><path d="m463.11 221.96h-31.17c-1.23 0-2.24-1-2.24-2.24v-31.17c0-1.23 1-2.24 2.24-2.24h31.17c1.23 0 2.24 1 2.24 2.24v31.17c0 1.23-1 2.24-2.24 2.24zm-31.17-34.93c-.83 0-1.51.68-1.51 1.51v31.17c0 .83.68 1.51 1.51 1.51h31.17c.83 0 1.51-.68 1.51-1.51v-31.17c0-.83-.68-1.51-1.51-1.51z" fill="#00a19b"/><text fill="#00a19b" font-family="'DFHeiStd-W7-B5pc-H'" font-size="9.4217" transform="translate(413.0783 233.7416)">無障礙服務專櫃</text><path d="m244.19 353.11h127.56v70.87h-127.56z" fill="none" stroke="#231815" stroke-miterlimit="10" stroke-width=".5"/><path d="m274.94 373.47c0 .21-.1.33-.24.36-.14.02-.21.19-.21.48v2.98h1.86c.14 0 .29.05.41.1l.52.5c.05.14.1.29.1.43-.48.98-1.05 2.03-1.72 3.12-.26.43-.52.81-.79 1.17.57.86 1.07 1.48 1.48 1.86.6.64 1.34 1.24 2.22 1.77 0 .19-.05.31-.14.36-.24.24-.57.52-.95.86-.05 0-.12-.02-.17-.07-.5-.29-.98-.69-1.45-1.22-.33-.38-.72-.83-1.1-1.38v9.76c0 .19-.12.29-.36.29h-.93c-.26 0-.38-.1-.38-.29v-9.71c-.79.81-1.6 1.55-2.43 2.17-.17 0-.29-.05-.38-.17-.29-.24-.57-.48-.86-.67-.1-.02-.14-.1-.14-.19 0-.1.05-.17.17-.26.91-.57 1.77-1.26 2.58-2.12.64-.67 1.31-1.5 1.98-2.5.38-.52.88-1.29 1.48-2.29h-5.49c-.19 0-.29-.12-.29-.38v-.74c0-.24.1-.38.29-.38h2.79v-3.82c0-.19.12-.29.38-.29 1.17-.02 1.77.08 1.77.27zm3.69 7.8c.1.05.17.1.21.12v-.83c0-.24.12-.38.38-.38h4.84v-2.22h-5.32c-.19 0-.26-.12-.26-.38v-.74c0-.24.07-.38.26-.38h5.32v-2.98c0-.19.12-.29.38-.29 1.17 0 1.77.1 1.77.29 0 .21-.1.33-.24.36-.17.02-.24.19-.24.48v2.15h5.32c.19 0 .29.14.29.38v.74c0 .26-.1.38-.29.38h-5.32v2.22h4.75c.31 0 .48.14.48.38v12.74c0 .52-.31.93-.93 1.24-.57.24-1.34.38-2.24.48-.19 0-.29-.1-.31-.29-.02-.33-.19-.83-.52-1.5 0-.07.05-.1.17-.1 1.03 0 1.65-.07 1.84-.17.21-.14.33-.31.33-.6v-2.12h-3.55v3.65c0 .17-.12.26-.36.26h-.93c-.26 0-.38-.1-.38-.26v-3.65h-3.53v4.48c0 .19-.14.29-.38.29h-.93c-.26 0-.38-.1-.38-.29v-13.05c-.05.02-.07.02-.1.02-.17 0-.26.07-.29.17-.45.72-.91 1.26-1.34 1.65-.1.1-.19.12-.24.12-.1 0-.21-.05-.36-.14-.31-.14-.6-.29-.86-.41-.12-.05-.17-.07-.17-.1 0-.02 0-.07.05-.12.43-.33.74-.64.95-.93.31-.33.55-.69.69-1.05.05-.1.1-.14.17-.14zm5.44 3.19v-2.79h-3.53v2.79zm0 4.3v-2.79h-3.53v2.79zm1.67-4.3h3.55v-2.79h-3.55zm0 4.3h3.55v-2.79h-3.55zm3.72-14.53c.48.31.88.6 1.22.83 0 .02-.05.07-.12.17-.45.62-.69.93-.72.93-.52-.36-1.05-.69-1.62-1.03-.48-.26-.88-.45-1.17-.55 0-.07.21-.38.64-.95.07-.1.14-.17.19-.17.63.29 1.15.56 1.58.77z" fill="#00a19b"/><path d="m298.57 378.4v-3.63c0-.45-.05-.81-.1-1.05-.07-.17-.1-.31-.1-.45 0-.1.14-.17.45-.17l1.88.24c.17.1.26.17.26.21 0 .14-.1.21-.26.21-.33.14-.48.5-.48 1.1v3.53h1.77c.19 0 .29.14.29.38v.74c0 .26-.1.38-.29.38h-1.77v4.41c.62-.38 1.19-.76 1.77-1.17.02-.05.05-.07.1-.07.12 0 .19.1.19.26 0 .86-.05 1.31-.1 1.41-.67.52-1.34 1-1.96 1.46v6.92c0 1.12-.83 1.69-2.5 1.69h-1.41c-.14 0-.19-.14-.19-.41-.07-.31-.21-.67-.45-1.1 0-.14.05-.19.17-.19.62.12 1.19.19 1.69.19.67 0 1.03-.29 1.03-.83v-5.15c-.38.24-.76.48-1.12.69-.29.43-.5.64-.64.64-.17 0-.48-.67-.95-2.05.76-.29 1.67-.72 2.72-1.31v-5.39h-2.24c-.19 0-.29-.12-.29-.38v-.74c0-.24.1-.38.29-.38h2.24zm10.52-4.65c.31 0 .48.14.48.38v8.94c0 .38-.29.67-.86.88-.57.17-1.26.26-2.12.31-.19 0-.29-.07-.31-.24-.02-.31-.19-.79-.52-1.43 0-.02.05-.05.17-.05.98 0 1.55-.02 1.74-.12.19-.07.31-.19.31-.38v-2.34c-.19.19-.33.33-.45.45-.55.52-1.12.98-1.74 1.41-.74.48-1.45.88-2.17 1.22-.17 0-.29-.05-.36-.14-.29-.26-.55-.52-.81-.76-.05-.1-.05-.17-.05-.21.67-.26 1.24-.52 1.69-.76.62-.31 1.29-.76 2-1.34.43-.36 1.07-.98 1.88-1.88v-2.03c-.36.5-.67.91-.93 1.22-.43.48-.86.93-1.34 1.34-.57.45-1.12.83-1.65 1.12-.17 0-.29-.05-.36-.14-.29-.26-.55-.5-.79-.74-.05-.1-.07-.19-.07-.24.52-.24.95-.45 1.29-.69.48-.29 1-.72 1.53-1.26.24-.24.55-.62.93-1.1h-3.36c-.19 0-.29-.12-.29-.38v-.74c0-.19.1-.29.29-.29h5.87zm2.51 10.55c.12.1.19.19.19.26s-.07.12-.19.12c-.21.02-.33.07-.36.14-.19.29-.41.62-.64.95h4.94c.24 0 .36.1.36.29v8.47c0 .19-.12.29-.36.29h-.93c-.26 0-.38-.1-.38-.29v-.55h-8.3v.64c0 .19-.12.29-.36.29h-.93c-.26 0-.38-.1-.38-.29v-8.49c0-.24.12-.36.38-.36h4.01c.26-.29.48-.57.67-.88.24-.43.45-.86.62-1.26.02-.05.1-.1.19-.1zm2.62 4.81v-1.96h-8.3v1.96zm0 3.46v-2.05h-8.3v2.05zm2.34-18.91c.29 0 .45.1.45.29v9.11c0 .38-.29.69-.81.91-.52.17-1.17.26-1.98.31-.19 0-.29-.07-.31-.26-.02-.33-.19-.83-.52-1.5 0-.02.05-.05.14-.05.86 0 1.36-.02 1.53-.12.19-.07.29-.19.29-.38v-2.39c-.1.1-.17.19-.24.26-.52.52-1.07 1-1.65 1.43-.69.5-1.36.91-2.03 1.24-.17 0-.29-.05-.36-.14-.29-.26-.55-.52-.81-.76-.05-.1-.05-.17-.05-.21.64-.26 1.17-.52 1.57-.76.6-.33 1.22-.79 1.88-1.38.38-.33.95-.93 1.67-1.79v-1.62c-.31.41-.57.74-.81 1-.43.48-.91.93-1.38 1.31-.6.43-1.17.81-1.72 1.1-.17 0-.29-.02-.36-.12-.29-.29-.55-.52-.81-.76-.05-.1-.05-.17-.05-.21.52-.24.98-.48 1.34-.69.5-.29 1.03-.72 1.6-1.24.26-.26.6-.64 1.03-1.14h-2.93c-.19 0-.29-.12-.29-.38v-.74c0-.19.1-.29.29-.29h5.32z" fill="#00a19b"/><path d="m324.81 378.14v-4.87c0-.1.07-.17.26-.17 1.12 0 1.69.1 1.69.26 0 .19-.07.31-.19.31-.14.02-.19.17-.19.45v4.01h2.05c.19 0 .29.12.29.36v.74c0 .26-.1.38-.29.38h-1.74c.24.83.45 1.5.64 1.98.24.72.69 1.55 1.36 2.46.07.07.12.14.12.21 0 .05-.07.12-.17.19-.14.21-.36.43-.62.67-.1.12-.19.17-.24.17-.07 0-.14-.05-.21-.14-.45-.69-.83-1.48-1.17-2.39-.02-.02-.02-.05-.02-.07v11.74c0 .19-.12.29-.36.29h-.95c-.19 0-.26-.1-.26-.29v-9.85c-.19.67-.36 1.26-.52 1.84-.31.95-.67 1.86-1.07 2.7-.17 0-.29-.02-.36-.1-.31-.14-.62-.29-.93-.45-.14 0-.19-.02-.19-.1.55-1.07 1-2.12 1.36-3.15.33-.95.62-1.91.81-2.84.17-.62.36-1.57.55-2.86h-2.27c-.19 0-.26-.12-.26-.38v-.74c0-.24.07-.36.26-.36zm11.23 6.89c-.21-1.07-.36-2.12-.45-3.17-.19-2-.26-4.89-.26-8.68 0-.1.05-.17.19-.17l1.55.14c.14.05.21.12.21.21 0 .12-.1.21-.26.29-.14.12-.19.29-.19.48 0 4.39.19 7.63.6 9.78.05.41.12.79.19 1.12h3.65c-.45-.38-.88-.72-1.26-.98-.07-.05-.1-.1-.1-.14 0-.1 0-.17.05-.26l.52-.79c.1-.05.17-.07.26-.07 0 0 .05.02.12.05.48.33.95.72 1.48 1.19.05.05.07.1.07.14 0 .1-.02.19-.07.24l-.45.62h1.74c.12 0 .19.1.19.26v.76c0 .24-.07.36-.19.36h-5.72c.19.86.43 1.65.72 2.34.19.52.41.95.62 1.34.24-.24.43-.5.62-.79.41-.55.72-1.14.95-1.81.05-.1.14-.14.29-.14 1.19.43 1.79.72 1.79.83 0 .14-.07.24-.19.29-.24 0-.41.07-.5.19-.45.86-.98 1.62-1.57 2.29-.19.19-.36.38-.5.52.19.24.38.45.57.64.5.5.93.74 1.26.74.12 0 .24-.17.33-.45.12-.26.21-.81.31-1.62 0-.05.05-.07.1-.07.07 0 .14.05.24.12.24.12.45.26.67.41.19.12.31.19.31.21-.36 1.19-.64 1.98-.88 2.36-.17.24-.33.43-.48.55-.19.1-.38.17-.52.17-.57 0-1.17-.24-1.84-.67-.48-.43-.91-.88-1.29-1.36-.1.07-.17.12-.21.17-.93.62-2.05 1.19-3.36 1.72-.14.02-.26.05-.36.05-.19 0-.31-.1-.41-.24-.17-.24-.36-.45-.55-.6-.12-.07-.17-.17-.17-.29 0-.05.05-.07.14-.1.5-.12 1-.29 1.5-.5.81-.33 1.55-.74 2.19-1.22.12-.07.24-.17.33-.26 0 0-.02-.02-.02-.05-.64-1.26-1.19-2.77-1.62-4.51-.02-.1-.05-.17-.05-.26h-3.74c-.05.52-.12 1.05-.17 1.53 1 .83 1.91 1.74 2.77 2.72.1.07.14.14.14.24 0 .07-.05.12-.14.14-.48.52-.79.79-.88.79-.07 0-.14-.02-.19-.1-.72-.81-1.41-1.48-2.05-2.05-.14.57-.29 1.1-.45 1.53-.33.93-.93 1.98-1.74 3.17-.07.1-.12.14-.12.14-.14 0-.29-.12-.45-.33-.31-.29-.6-.55-.83-.81-.14-.05-.21-.12-.21-.17s0-.1.02-.12c.79-.79 1.36-1.6 1.74-2.46.26-.55.48-1.19.64-1.96.14-.62.26-1.36.36-2.27h-1.93c-.12 0-.17-.12-.17-.36v-.76c0-.17.05-.26.17-.26h6.94zm-2.38-11.04c.05.14.1.21.1.21 0 .12-.12.17-.33.17-.33 0-.52.07-.6.21-.57 1.12-1.12 2.15-1.65 3.05.29.33.55.69.83 1.05.57-1 1.07-1.88 1.45-2.7.93.79 1.41 1.22 1.41 1.29 0 .1-.07.14-.21.14-.24 0-.41.07-.45.17-.93 1.65-1.84 3.15-2.72 4.53.55-.05 1.17-.12 1.86-.21-.14-.36-.29-.72-.43-1.07 0-.07.31-.26.93-.57.29.67.55 1.29.74 1.84.17.52.31 1.05.45 1.62 0 .05-.38.19-1.1.38-.07-.36-.17-.81-.31-1.34l-3.79 1.14c-.38.38-.62.55-.67.55s-.17-.62-.36-1.86c0-.05.29-.12.91-.24.69-1.1 1.29-2.03 1.77-2.79-.57-.57-1.03-.98-1.31-1.22-.45-.36-.93-.69-1.45-.98 0-.12.26-.48.83-1.07.05-.1.12-.14.19-.14.14.14.31.31.5.48.29-.5.57-1 .81-1.48.48-.91.81-1.6 1-2.05zm8.56.1c.05.14.1.21.1.21 0 .12-.12.17-.33.17-.33 0-.52.07-.6.21-.62 1.03-1.19 1.96-1.72 2.81.24.31.48.62.74.93.07-.14.14-.26.24-.38.67-.95 1.22-1.84 1.67-2.62.93.81 1.41 1.24 1.41 1.31 0 .1-.07.12-.21.12-.29 0-.45.05-.5.14-1.05 1.55-2.05 2.96-3.03 4.25.62-.05 1.34-.1 2.12-.17-.1-.29-.21-.6-.33-.91 0-.07.33-.29 1.03-.64.26.67.48 1.29.67 1.84.17.5.31 1.05.45 1.62 0 .05-.41.17-1.22.36-.05-.36-.14-.81-.29-1.34-.02-.02-.02-.05-.02-.1l-3.98.98c-.38.38-.6.55-.64.55-.07 0-.19-.62-.38-1.86 0-.05.29-.1.88-.17.6-.79 1.12-1.5 1.57-2.15-.52-.52-.93-.88-1.22-1.12-.45-.33-.93-.67-1.43-.95 0-.1.26-.45.83-1.07.05-.07.12-.12.19-.12.17.14.33.31.52.48.31-.45.6-.91.86-1.36.48-.86.83-1.5 1.05-1.93z" fill="#00a19b"/><g fill="#9e9f9f"><path d="m269.69 401.95c0 .22-.04.43-.12.62s-.19.36-.33.5c-.17.17-.38.31-.62.39-.24.09-.54.13-.9.13h-.67v1.89h-.67v-5.07h1.37c.3 0 .56.03.77.08s.4.13.56.24c.19.13.34.29.45.48.1.2.16.44.16.74zm-.7.01c0-.17-.03-.33-.09-.46s-.15-.23-.28-.32c-.11-.07-.23-.12-.37-.15s-.32-.05-.53-.05h-.67v2.03h.57c.27 0 .49-.02.66-.07s.31-.13.42-.23c.11-.11.18-.22.23-.34.03-.12.06-.26.06-.41z"/><path d="m273.31 405.48h-.64v-.41c-.06.04-.13.09-.23.16s-.19.12-.28.17c-.11.05-.23.1-.37.13-.14.04-.3.05-.49.05-.34 0-.63-.11-.87-.34s-.36-.52-.36-.87c0-.29.06-.52.19-.7.12-.18.3-.32.53-.42s.51-.17.83-.21.67-.06 1.04-.08v-.1c0-.15-.03-.27-.08-.36-.05-.1-.12-.17-.22-.22-.09-.05-.2-.09-.33-.11s-.26-.03-.4-.03c-.17 0-.36.02-.56.07-.21.04-.42.11-.64.19h-.03v-.65c.12-.03.31-.07.54-.11.24-.04.47-.06.7-.06.27 0 .5.02.7.07.2.04.37.12.52.23.14.1.25.24.33.41.07.17.11.37.11.62v2.57zm-.64-.93v-1.06c-.2.01-.42.03-.69.05-.26.02-.47.06-.63.1-.18.05-.33.13-.45.24-.11.11-.17.26-.17.45 0 .22.07.38.2.49s.33.17.6.17c.22 0 .43-.04.62-.13.19-.08.36-.19.52-.31z"/><path d="m277.26 404.39c0 .35-.14.63-.43.85s-.68.33-1.18.33c-.28 0-.54-.03-.77-.1s-.43-.14-.59-.22v-.72h.03c.2.15.43.27.67.36.25.09.48.13.71.13.28 0 .5-.05.66-.14s.24-.23.24-.43c0-.15-.04-.26-.13-.34s-.25-.14-.5-.2c-.09-.02-.21-.04-.36-.07s-.28-.06-.4-.09c-.33-.09-.57-.22-.71-.39s-.21-.38-.21-.63c0-.16.03-.3.1-.44.06-.14.16-.26.29-.37s.29-.19.49-.25.42-.09.66-.09c.23 0 .46.03.69.08.23.06.43.12.58.2v.68h-.03c-.16-.12-.36-.22-.6-.3-.23-.08-.46-.12-.69-.12s-.43.04-.59.13-.24.22-.24.4c0 .16.05.27.15.35s.25.14.46.19c.12.03.25.05.4.08s.27.05.37.07c.3.07.53.18.69.35.16.2.24.42.24.7z"/><path d="m280.89 404.39c0 .35-.14.63-.43.85s-.68.33-1.18.33c-.28 0-.54-.03-.77-.1s-.43-.14-.59-.22v-.72h.03c.2.15.43.27.67.36.25.09.48.13.71.13.28 0 .5-.05.66-.14s.24-.23.24-.43c0-.15-.04-.26-.13-.34s-.25-.14-.5-.2c-.09-.02-.21-.04-.36-.07s-.28-.06-.4-.09c-.33-.09-.57-.22-.71-.39s-.21-.38-.21-.63c0-.16.03-.3.1-.44.06-.14.16-.26.29-.37s.29-.19.49-.25.42-.09.66-.09c.23 0 .46.03.69.08.23.06.43.12.58.2v.68h-.03c-.16-.12-.36-.22-.6-.3-.23-.08-.46-.12-.69-.12s-.43.04-.59.13-.24.22-.24.4c0 .16.05.27.15.35s.25.14.46.19c.12.03.25.05.4.08s.27.05.37.07c.3.07.53.18.69.35.16.2.24.42.24.7z"/><path d="m285.15 403.55c0 .32-.04.6-.13.86-.09.25-.21.47-.36.64-.16.18-.34.31-.53.4s-.4.13-.64.13c-.22 0-.4-.03-.56-.08s-.32-.12-.48-.21l-.04.18h-.6v-5.3h.64v1.89c.18-.15.37-.27.57-.36s.43-.14.68-.14c.45 0 .8.17 1.06.52.26.36.39.85.39 1.47zm-.66.02c0-.45-.07-.8-.22-1.03s-.39-.35-.73-.35c-.19 0-.37.04-.56.12s-.37.18-.53.31v2.18c.18.08.34.14.47.17s.28.05.44.05c.35 0 .63-.12.83-.35.2-.24.3-.6.3-1.1z"/><path d="m289.39 403.58c0 .62-.16 1.11-.48 1.47s-.74.54-1.28.54-.96-.18-1.28-.54-.47-.85-.47-1.47.16-1.11.47-1.47c.32-.36.74-.54 1.28-.54.53 0 .96.18 1.28.54.32.37.48.86.48 1.47zm-.66 0c0-.49-.1-.86-.29-1.1s-.46-.36-.8-.36c-.35 0-.62.12-.81.36s-.29.61-.29 1.1c0 .48.1.84.29 1.08.19.25.46.37.81.37.34 0 .61-.12.8-.37.19-.23.29-.59.29-1.08z"/><path d="m293.62 403.58c0 .62-.16 1.11-.48 1.47s-.74.54-1.28.54-.96-.18-1.28-.54-.47-.85-.47-1.47.16-1.11.47-1.47c.32-.36.74-.54 1.28-.54.53 0 .96.18 1.28.54.32.37.48.86.48 1.47zm-.66 0c0-.49-.1-.86-.29-1.1s-.46-.36-.8-.36c-.35 0-.62.12-.81.36s-.29.61-.29 1.1c0 .48.1.84.29 1.08.19.25.46.37.81.37.34 0 .61-.12.8-.37.19-.23.29-.59.29-1.08z"/><path d="m298.06 405.48h-.84l-1.52-1.66-.42.39v1.27h-.64v-5.3h.64v3.4l1.85-1.9h.81l-1.77 1.76z"/><path d="m304.57 405.48h-3.34v-5.07h3.34v.6h-2.67v1.39h2.67v.6h-2.67v1.88h2.67z"/><path d="m308.77 405.48h-.64v-2.16c0-.17-.01-.34-.03-.49s-.06-.27-.11-.36c-.06-.1-.14-.17-.25-.21-.11-.05-.25-.07-.42-.07s-.36.04-.55.13-.37.2-.55.33v2.84h-.64v-3.8h.64v.42c.2-.17.41-.29.62-.39.21-.09.43-.14.66-.14.41 0 .72.12.94.37s.32.6.32 1.07v2.46z"/><path d="m311.97 405.45c-.12.03-.25.06-.39.08s-.27.03-.38.03c-.39 0-.68-.1-.88-.31s-.3-.54-.3-1v-2.02h-.43v-.54h.43v-1.09h.64v1.09h1.32v.54h-1.32v1.73c0 .2 0 .36.01.47s.04.22.1.31c.05.09.12.16.21.2s.22.06.4.06c.1 0 .21-.02.33-.05.11-.03.2-.06.25-.08h.03v.58z"/><path d="m315.12 402.38h-.03c-.1-.02-.19-.04-.28-.05s-.2-.02-.32-.02c-.2 0-.39.04-.57.13s-.36.2-.53.34v2.7h-.64v-3.8h.64v.56c.25-.2.48-.35.67-.43.19-.09.39-.13.59-.13.11 0 .19 0 .24.01s.12.02.22.03v.66z"/><path d="m319.01 401.68-2.22 5.2h-.68l.71-1.59-1.51-3.62h.69l1.17 2.82 1.18-2.82h.66z"/><path d="m326.86 405.48h-.67v-4.37l-1.41 2.97h-.4l-1.4-2.97v4.37h-.63v-5.07h.92l1.35 2.82 1.31-2.82h.94v5.07z"/><path d="m331.13 405.48h-.64v-.41c-.06.04-.13.09-.23.16s-.19.12-.28.17c-.11.05-.23.1-.37.13-.14.04-.3.05-.49.05-.34 0-.63-.11-.87-.34s-.36-.52-.36-.87c0-.29.06-.52.19-.7s.3-.32.53-.42.51-.17.83-.21.67-.06 1.04-.08v-.1c0-.15-.03-.27-.08-.36-.05-.1-.12-.17-.22-.22-.09-.05-.2-.09-.33-.11s-.26-.03-.4-.03c-.17 0-.36.02-.56.07-.21.04-.42.11-.64.19h-.03v-.65c.12-.03.31-.07.54-.11.24-.04.47-.06.7-.06.27 0 .5.02.7.07.2.04.37.12.52.23.14.1.25.24.33.41.07.17.11.37.11.62v2.57zm-.64-.93v-1.06c-.2.01-.42.03-.69.05-.26.02-.47.06-.63.1-.18.05-.33.13-.45.24-.11.11-.17.26-.17.45 0 .22.07.38.2.49s.33.17.6.17c.22 0 .43-.04.62-.13.19-.08.36-.19.52-.31z"/><path d="m335.17 405.25c-.21.1-.42.18-.61.24s-.4.09-.61.09c-.27 0-.53-.04-.76-.12s-.43-.2-.59-.37c-.17-.16-.29-.37-.38-.62s-.14-.54-.14-.87c0-.62.17-1.11.51-1.46s.79-.53 1.35-.53c.22 0 .43.03.64.09s.4.14.58.22v.71h-.03c-.2-.15-.4-.27-.6-.35-.21-.08-.41-.12-.61-.12-.36 0-.65.12-.86.37-.21.24-.31.6-.31 1.07 0 .46.1.81.31 1.06s.49.37.87.37c.13 0 .26-.02.39-.05s.25-.08.36-.13c.09-.05.18-.1.26-.15s.15-.1.19-.14h.03v.69z"/><path d="m339.17 405.48h-.64v-2.16c0-.17-.01-.34-.03-.49s-.06-.27-.11-.36c-.06-.1-.14-.17-.25-.21-.11-.05-.25-.07-.42-.07s-.36.04-.55.13-.37.2-.55.33v2.84h-.64v-5.3h.64v1.92c.2-.17.41-.29.62-.39.21-.09.43-.14.66-.14.41 0 .72.12.94.37s.32.6.32 1.07v2.46z"/><path d="m341.09 401.05h-.72v-.66h.72zm-.04 4.43h-.64v-3.8h.64z"/><path d="m345.49 405.48h-.64v-2.16c0-.17-.01-.34-.03-.49s-.06-.27-.11-.36c-.06-.1-.14-.17-.25-.21-.11-.05-.25-.07-.42-.07s-.36.04-.55.13-.37.2-.55.33v2.84h-.64v-3.8h.64v.42c.2-.17.41-.29.62-.39.21-.09.43-.14.66-.14.41 0 .72.12.94.37s.32.6.32 1.07v2.46z"/><path d="m349.91 403.65h-2.8c0 .23.04.44.11.61s.17.32.29.43.26.19.42.25.34.08.54.08c.26 0 .52-.05.78-.15s.45-.2.56-.3h.03v.7c-.22.09-.44.17-.66.23s-.46.09-.71.09c-.63 0-1.12-.17-1.48-.51-.35-.34-.53-.83-.53-1.46 0-.62.17-1.12.51-1.48.34-.37.79-.55 1.34-.55.51 0 .91.15 1.19.45s.42.72.42 1.28v.33zm-.63-.49c0-.34-.09-.6-.25-.78-.17-.18-.42-.28-.76-.28s-.62.1-.82.3-.32.45-.35.75h2.18z"/></g></svg>