<svg viewBox="0 0 396.59 454.92" xmlns="http://www.w3.org/2000/svg"><g fill="#5e5e5e"><path d="m6.69 20.49c0 .08 0 .12-.08.13s-.09.07-.09.17v1.66h2c.06 0 .09.05.09.13v.27c0 .09 0 .13-.09.13h-2v1.79h3.22c.07 0 .11.05.11.14v.26c0 .09 0 .14-.11.14h-7.3c-.06 0-.1 0-.1-.14v-.26c0-.09 0-.14.1-.14h1.19v-2.92c0-.06.05-.09.14-.09q.63 0 .63.09c0 .08 0 .12-.08.13s-.08.06-.08.17v2.62h1.65v-4.28c0-.07.05-.1.14-.1.44 0 .66.03.66.1zm0-2.27s.08.08.08.11-.06.14-.16.14a.5.5 0 0 0 -.19 0 6.9 6.9 0 0 0 .69 1 4.82 4.82 0 0 0 .94.85 5.31 5.31 0 0 0 1.57.83c.07 0 .11 0 .11.07a.16.16 0 0 1 0 .11 2.91 2.91 0 0 0 -.36.32.14.14 0 0 1 -.08.07 5.08 5.08 0 0 1 -1.17-.6 5.6 5.6 0 0 1 -1.19-1 9.91 9.91 0 0 1 -.93-1.12 8.09 8.09 0 0 1 -.63.72 7.12 7.12 0 0 1 -.78.77 11.25 11.25 0 0 1 -.94.72 5.18 5.18 0 0 1 -.75.44.19.19 0 0 1 -.15-.08 1.66 1.66 0 0 0 -.28-.35c-.07 0-.1-.07-.1-.11a7.84 7.84 0 0 0 1.09-.55 8.6 8.6 0 0 0 1.2-.94 5.26 5.26 0 0 0 .65-.73 4.42 4.42 0 0 0 .61-.89c0-.07.1-.1.14-.1z"/><path d="m14.2 18.07c0 .07 0 .12-.09.12s-.08.07-.08.17v1.1h1.13v-1.46c0-.06 0-.1.13-.1.42 0 .63 0 .63.1s0 .12-.08.13-.09.07-.09.17v1.13h.71a3.93 3.93 0 0 0 .32-.53c.1-.26.19-.49.26-.7a.07.07 0 0 1 .07-.06l.53.27c.05 0 .08.07.08.09s0 .07-.09.07-.13 0-.14.09c-.1.23-.22.48-.38.77h1.13c.05 0 .07 0 .07.1v.27c0 .09 0 .13-.07.13h-1.84a9.24 9.24 0 0 1 -.31.89h1.49c.07 0 .1.06.1.14v.26c0 .1 0 .14-.1.14h-2.65v.66h2.25s.07 0 .07.1v.27c0 .08 0 .13-.07.13h-2.25v.66h3c.07 0 .1.05.1.14v.26c0 .09 0 .13-.1.13h-2.67a5.35 5.35 0 0 0 .76.45 7.47 7.47 0 0 0 1.21.47 7 7 0 0 0 1.18.28s0 .07-.09.1a2.07 2.07 0 0 0 -.32.36s-.07.07-.09.07a10.83 10.83 0 0 1 -1.45-.5 6.53 6.53 0 0 1 -1.1-.62 4.35 4.35 0 0 1 -.43-.32v1.54c0 .07-.06.1-.17.1h-.33c-.1 0-.14 0-.14-.1v-1.43a.85.85 0 0 1 -.21.14 6.31 6.31 0 0 1 -.88.54c-.34.16-.73.31-1.14.47a6.46 6.46 0 0 1 -.89.24s-.07 0-.11-.11-.18-.2-.28-.31a.24.24 0 0 1 -.07-.1q.84-.18 1.44-.36a7.8 7.8 0 0 0 1.19-.48 6.22 6.22 0 0 0 .59-.4h-2.69c-.07 0-.1 0-.1-.13v-.26c0-.09 0-.14.1-.14h3v-.66h-2.3s-.07-.05-.07-.13v-.27c0-.06 0-.1.07-.1h2.35v-.66h-2.68c-.07 0-.11 0-.11-.14v-.25c0-.08 0-.14.11-.14h1.56c-.15-.33-.3-.63-.43-.89h-1.83c-.05 0-.07 0-.07-.13v-.27c0-.06 0-.1.07-.1h1.41c0-.08-.08-.15-.11-.23a5.51 5.51 0 0 0 -.5-.76s.13-.12.42-.27a5.57 5.57 0 0 1 .51.75 4 4 0 0 1 .25.51h.54v-1.4c0-.07.05-.1.13-.1.44.03.64.03.64.1zm1.28 2.78c.09-.17.15-.33.21-.46a4.38 4.38 0 0 0 .14-.43h-2.5c.17.29.33.59.49.89z"/><path d="m23 18.32.69.48-.05.07-.23.33h3a.09.09 0 0 1 .1.1v.33c0 .09 0 .13-.1.13h-3v2.16h2.62c.07 0 .1 0 .1.1v.33c0 .09 0 .14-.1.14h-2.6v2.22h3.35c.07 0 .1 0 .1.1v.33c0 .08 0 .13-.1.13h-7.37c-.07 0-.1-.05-.1-.13v-.33c0-.07 0-.1.1-.1h3.38v-2.22h-2.72c-.07 0-.1 0-.1-.14v-.35c0-.07 0-.1.1-.1h2.72v-2.14h-3c-.07 0-.11 0-.11-.13v-.33c0-.07 0-.1.11-.1h3.51a7.4 7.4 0 0 0 -.81-.57 5 5 0 0 0 -.66-.33 1.64 1.64 0 0 1 .27-.38.12.12 0 0 1 .06-.05c.36.13.65.32.84.45z"/><path d="m30.77 18.12c.06.05.1.08.1.12a.11.11 0 0 1 -.1.12c-.12 0-.2 0-.23.11l-.08.16h2.66a.26.26 0 0 1 .16 0c.11.1.17.18.17.23l-1.27 1.29h2.21c.08 0 .12 0 .12.1v3.06c0 .06 0 .1-.12.1h-.34c-.09 0-.13 0-.13-.1v-.27h-4.62v1.36c0 .27.16.4.5.4h4.45a.43.43 0 0 0 .48-.33 3.45 3.45 0 0 0 .18-.77 1.46 1.46 0 0 0 .47.27.12.12 0 0 1 .1.13 2.91 2.91 0 0 1 -.29.9c-.09.23-.34.36-.74.36h-5c-.51 0-.76-.19-.76-.56v-4.2l-.43.28a.56.56 0 0 1 -.2 0l-.35-.15s-.05 0-.05 0a.06.06 0 0 1 .05-.06 6.2 6.2 0 0 0 1.25-1 5.92 5.92 0 0 0 .56-.7 5.74 5.74 0 0 0 .52-1 .11.11 0 0 1 .11-.07zm.62 2.07 1.06-1h-2.31a4.58 4.58 0 0 1 -.3.4c-.19.22-.38.44-.58.63zm-2.09 2.36h2.06v-1.82h-2.06zm2.66 0h2v-1.82h-1.96z"/><path d="m39.59 20v-1h1v1zm0 3.41v-1h1v1z"/><path d="m48.8 21.23h-1l-.18 1.53h.86v.53h-.88l-.18 1.48h-.61l.19-1.48h-.88l-.18 1.48h-.6l.18-1.48h-1v-.53h1l.18-1.53h-.87v-.54h.88l.29-1.48h.61l-.18 1.48h.88l.18-1.48h.6l-.18 1.48h1zm-2.47 0-.18 1.53h.85l.18-1.53z"/><path d="m51.36 24.85c-1.21 0-1.82-1-1.82-2.88a4.26 4.26 0 0 1 .4-2.08 1.72 1.72 0 0 1 2.84 0 4.38 4.38 0 0 1 .4 2.08c0 1.92-.61 2.88-1.82 2.88zm.91-4.67a1 1 0 0 0 -.91-.49 1 1 0 0 0 -.91.49 3.63 3.63 0 0 0 -.32 1.82 3.79 3.79 0 0 0 .32 1.82 1.07 1.07 0 0 0 1.82 0 3.92 3.92 0 0 0 .32-1.82 3.75 3.75 0 0 0 -.32-1.82z"/><path d="m56 24.85c-1.22 0-1.82-1-1.82-2.88a4.15 4.15 0 0 1 .4-2.08 1.52 1.52 0 0 1 1.42-.75 1.55 1.55 0 0 1 1.42.75 4.39 4.39 0 0 1 .43 2.11c0 1.89-.61 2.85-1.85 2.85zm1-4.67a1 1 0 0 0 -.91-.49 1 1 0 0 0 -.91.49 3.61 3.61 0 0 0 -.38 1.82 3.77 3.77 0 0 0 .33 1.82 1 1 0 0 0 .91.51 1 1 0 0 0 .91-.51 3.92 3.92 0 0 0 .32-1.82 3.75 3.75 0 0 0 -.27-1.82z"/><path d="m60.57 24.85a1.32 1.32 0 0 1 -.9-.33 1.49 1.49 0 0 1 -.47-.67l.52-.23a.91.91 0 0 0 .85.68c.74 0 1.15-.67 1.23-2a1.55 1.55 0 0 1 -1.18.55 1.53 1.53 0 0 1 -1.16-.45 1.76 1.76 0 0 1 -.46-1.29 2.23 2.23 0 0 1 .41-1.37 1.41 1.41 0 0 1 1.23-.61 1.46 1.46 0 0 1 1.42.9 5.17 5.17 0 0 1 .3 2c.03 1.88-.58 2.82-1.79 2.82zm.1-5.17a1 1 0 0 0 -.77.39 1.77 1.77 0 0 0 -.29 1c0 .78.35 1.17 1.07 1.17a1.4 1.4 0 0 0 1.12-.69c-.04-1.23-.41-1.87-1.13-1.87z"/><path d="m63.56 24.77v-5.57h3.51v.56h-2.92v1.89h2.59v.56h-2.59v2h2.92v.56z"/><path d="m69.6 24.85a1.33 1.33 0 0 1 -.9-.33 1.57 1.57 0 0 1 -.47-.67l.53-.23c.19.46.47.68.84.68.75 0 1.16-.67 1.23-2a1.55 1.55 0 0 1 -1.18.55 1.52 1.52 0 0 1 -1.15-.45 1.77 1.77 0 0 1 -.44-1.27 2.29 2.29 0 0 1 .41-1.37 1.56 1.56 0 0 1 2.65.29 5 5 0 0 1 .31 2c0 1.86-.61 2.8-1.83 2.8zm.1-5.17a.93.93 0 0 0 -.76.39 1.71 1.71 0 0 0 -.29 1c0 .78.35 1.17 1.06 1.17a1.39 1.39 0 0 0 1.12-.69c-.03-1.23-.4-1.87-1.13-1.87z"/><path d="m75.82 24.24a1.7 1.7 0 0 1 -1.36.61c-1.27 0-1.9-.92-1.9-2.75 0-2 .63-3 1.9-3a1.61 1.61 0 0 1 1.61 1.1l-.57.2a1.62 1.62 0 0 0 -.35-.54 1.13 1.13 0 0 0 -.69-.21c-.8 0-1.23.71-1.31 2.11a1.94 1.94 0 0 1 1.35-.55 1.73 1.73 0 0 1 1.33.51 1.69 1.69 0 0 1 .45 1.28 1.86 1.86 0 0 1 -.46 1.24zm-.43-2.14a1.18 1.18 0 0 0 -.89-.35 1.77 1.77 0 0 0 -.77.2 1.59 1.59 0 0 0 -.58.47c.06 1.26.49 1.88 1.31 1.88a1.14 1.14 0 0 0 .91-.42 1.43 1.43 0 0 0 0-1.78z"/><path d="m86.33 21.87a2.25 2.25 0 0 1 -1.39.4h-1.42v2.51h-.59v-5.57h2a2.29 2.29 0 0 1 1.41.4 1.38 1.38 0 0 1 .51 1.13 1.34 1.34 0 0 1 -.52 1.13zm-1.39-2.1h-1.42v1.94h1.42a1.57 1.57 0 0 0 1-.29.83.83 0 0 0 .32-.68c.02-.64-.43-.97-1.32-.97z"/><path d="m92 24.76-.66-1.58h-2.73l-.61 1.58h-.62l2.32-5.56h.65l2.32 5.56zm-2-4.87-1.14 2.73h2.27z"/><path d="m97 24.77-3.15-4.77v4.75h-.59v-5.55h.74l3.15 4.8v-4.8h.59v5.57z"/><path d="m100.92 19.77v5h-.58v-5h-1.92v-.56h4.41v.56z"/><path d="m107.53 24a2.3 2.3 0 0 1 -3.53 0 3.14 3.14 0 0 1 -.62-2 3.14 3.14 0 0 1 .62-2 2.33 2.33 0 0 1 3.57 0 3.2 3.2 0 0 1 .62 2 3.2 3.2 0 0 1 -.66 2zm-.47-3.69a1.59 1.59 0 0 0 -1.32-.63 1.56 1.56 0 0 0 -1.31.63 2.54 2.54 0 0 0 -.51 1.67 2.57 2.57 0 0 0 .51 1.68 1.57 1.57 0 0 0 1.31.64 1.6 1.6 0 0 0 1.32-.64 2.69 2.69 0 0 0 .5-1.68 2.66 2.66 0 0 0 -.5-1.67z"/><path d="m112.77 24.77-3.18-4.77v4.75h-.59v-5.55h.71l3.18 4.8v-4.8h.6v5.57z"/><path d="m114.51 24.77v-5.57h3.49v.56h-2.9v1.89h2.58v.56h-2.58v2h2.9v.56z"/><path d="m124.74 24.41a1.82 1.82 0 0 1 -1.25.44 1.53 1.53 0 0 1 -1.68-1.29l.56-.2a1 1 0 0 0 1.12.94 1.2 1.2 0 0 0 .84-.3 1 1 0 0 0 .33-.71 1.14 1.14 0 0 0 -.31-.79 1.09 1.09 0 0 0 -.77-.31h-.66v-.55h.57a.93.93 0 0 0 .66-.34 1 1 0 0 0 .33-.71.83.83 0 0 0 -1-.91.93.93 0 0 0 -1 .89l-.48-.17a1.64 1.64 0 0 1 .47-.89 1.51 1.51 0 0 1 1.06-.38 1.62 1.62 0 0 1 1.13.4 1.41 1.41 0 0 1 .4 1.06 1.33 1.33 0 0 1 -.77 1.24 1.42 1.42 0 0 1 .71.55 1.66 1.66 0 0 1 .25.91 1.43 1.43 0 0 1 -.51 1.12z"/><path d="m129.52 21.61a8.09 8.09 0 0 1 -.91 1 4.41 4.41 0 0 0 -1.28 1.66h2.57v.55h-3.39a4.21 4.21 0 0 1 .63-1.42 7.28 7.28 0 0 1 1.08-1.19 6.21 6.21 0 0 0 .84-.88 1.31 1.31 0 0 0 .26-.75.74.74 0 0 0 -.27-.59 1.31 1.31 0 0 0 -.87-.27c-.69 0-1.07.45-1.13 1.34l-.56-.22a2 2 0 0 1 .53-1.22 1.53 1.53 0 0 1 1.16-.45 2 2 0 0 1 1.26.37 1.27 1.27 0 0 1 .47 1 1.88 1.88 0 0 1 -.39 1.07z"/><path d="m133.22 22.09a9.81 9.81 0 0 0 -.26 2.69h-.6a9.43 9.43 0 0 1 .28-2.62 5.93 5.93 0 0 1 1.42-2.4h-3.06v-.56h3.83v.55a5.77 5.77 0 0 0 -1.61 2.34z"/><path d="m138.87 21.61a8.09 8.09 0 0 1 -.91 1 4.41 4.41 0 0 0 -1.28 1.66h2.57v.55h-3.39a4.21 4.21 0 0 1 .63-1.42 7.28 7.28 0 0 1 1.08-1.19 6.86 6.86 0 0 0 .84-.88 1.31 1.31 0 0 0 .26-.75.74.74 0 0 0 -.27-.59 1.31 1.31 0 0 0 -.87-.27c-.7 0-1.07.45-1.13 1.34l-.56-.22a2 2 0 0 1 .53-1.22 1.53 1.53 0 0 1 1.16-.45 2 2 0 0 1 1.26.37 1.27 1.27 0 0 1 .47 1 1.88 1.88 0 0 1 -.39 1.07z"/><path d="m144 20.64a1.41 1.41 0 0 0 -1.42-1 1.55 1.55 0 0 0 -1.24.65 2.69 2.69 0 0 0 -.57 1.77 2.39 2.39 0 0 0 .53 1.65 1.45 1.45 0 0 0 1.15.55 1.47 1.47 0 0 0 .93-.29 2 2 0 0 0 .55-.82l.55.21a2.09 2.09 0 0 1 -2 1.45 2 2 0 0 1 -1.6-.74 3 3 0 0 1 -.66-2 3.25 3.25 0 0 1 .69-2.12 2.12 2.12 0 0 1 1.7-.85 2 2 0 0 1 2 1.31z"/><path d="m209.53 213.68h-1l-.18 1.53h.87l-.05.53h-.89l-.17 1.48h-.62l.19-1.48h-.88l-.18 1.48h-.62l.17-1.48h-1l.05-.53h1l.18-1.53h-.87l.06-.54h.88l.18-1.48h.61l-.19 1.48h.93l.18-1.48h.6l-.18 1.48h1zm-2.47 0-.18 1.53h.89l.18-1.53z"/><path d="m212.09 217.3c-1.22 0-1.82-1-1.82-2.88a4.26 4.26 0 0 1 .4-2.08 1.53 1.53 0 0 1 1.42-.75 1.55 1.55 0 0 1 1.42.75 4.38 4.38 0 0 1 .4 2.08c0 1.92-.62 2.88-1.82 2.88zm.91-4.68a1 1 0 0 0 -.91-.48 1 1 0 0 0 -.91.48 3.67 3.67 0 0 0 -.32 1.8 3.79 3.79 0 0 0 .32 1.82 1 1 0 0 0 .91.51 1 1 0 0 0 .91-.51 3.92 3.92 0 0 0 .32-1.82 3.79 3.79 0 0 0 -.32-1.8z"/><path d="m218.17 216.69a1.75 1.75 0 0 1 -1.37.61c-1.27 0-1.9-.92-1.9-2.76s.63-2.95 1.9-2.95a1.61 1.61 0 0 1 1.61 1.1l-.57.2a1.62 1.62 0 0 0 -.35-.54 1.13 1.13 0 0 0 -.69-.21c-.79 0-1.23.71-1.3 2.11a1.92 1.92 0 0 1 1.34-.55 1.73 1.73 0 0 1 1.33.51 1.69 1.69 0 0 1 .45 1.23 1.9 1.9 0 0 1 -.45 1.25zm-.44-2.14a1.18 1.18 0 0 0 -.89-.35 1.64 1.64 0 0 0 -.77.2 1.54 1.54 0 0 0 -.57.47c.05 1.26.48 1.88 1.3 1.88a1.13 1.13 0 0 0 .91-.42 1.35 1.35 0 0 0 .32-.89 1.28 1.28 0 0 0 -.3-.89z"/><path d="m222.77 216.87a2.26 2.26 0 0 1 -2.65 0 1.5 1.5 0 0 1 -.48-1.17 1.67 1.67 0 0 1 1-1.54 1.36 1.36 0 0 1 -.35-2.22 2.07 2.07 0 0 1 2.33 0 1.34 1.34 0 0 1 -.35 2.22 1.67 1.67 0 0 1 1 1.54 1.49 1.49 0 0 1 -.5 1.17zm-.47-2.1a1.21 1.21 0 0 0 -.87-.32 1.11 1.11 0 0 0 -1.19 1.22 1 1 0 0 0 .28.75 1.21 1.21 0 0 0 .93.33c.79 0 1.19-.36 1.19-1.08a1.15 1.15 0 0 0 -.34-.9zm-.86-2.64c-.67 0-1 .3-1 .89a.76.76 0 0 0 .3.62 1.11 1.11 0 0 0 1.43 0 .77.77 0 0 0 .28-.62c-.01-.59-.35-.89-1.01-.89z"/><path d="m227.29 216.78a1.68 1.68 0 0 1 -1.25.52 1.6 1.6 0 0 1 -1.63-1.17l.55-.23a1.11 1.11 0 0 0 1.08.85 1.05 1.05 0 0 0 .82-.37 1.53 1.53 0 0 0 .37-1.1c0-.9-.34-1.36-1-1.36a1.08 1.08 0 0 0 -1 .68h-.54v-2.94h2.94v.56h-2.35v1.53a1.23 1.23 0 0 1 1-.39 1.47 1.47 0 0 1 1.18.52 2.44 2.44 0 0 1 -.1 2.9z"/><path d="m232.12 216.87a1.86 1.86 0 0 1 -1.32.43 1.88 1.88 0 0 1 -1.33-.43 1.5 1.5 0 0 1 -.48-1.17 1.67 1.67 0 0 1 1-1.54 1.36 1.36 0 0 1 -.35-2.22 2.07 2.07 0 0 1 2.33 0 1.36 1.36 0 0 1 -.35 2.22 1.67 1.67 0 0 1 1 1.54 1.49 1.49 0 0 1 -.5 1.17zm-.47-2.1a1.21 1.21 0 0 0 -.87-.32 1.11 1.11 0 0 0 -1.19 1.22 1 1 0 0 0 .28.75 1.21 1.21 0 0 0 .93.33c.79 0 1.19-.36 1.19-1.08a1.15 1.15 0 0 0 -.34-.9zm-.86-2.64c-.67 0-1 .3-1 .89a.76.76 0 0 0 .3.62 1.11 1.11 0 0 0 1.43 0 .77.77 0 0 0 .28-.62c-.01-.59-.35-.89-1.01-.89z"/><path d="m236.68 216.86a1.87 1.87 0 0 1 -1.25.44 1.52 1.52 0 0 1 -1.68-1.29l.56-.2a1 1 0 0 0 1.12.94 1.2 1.2 0 0 0 .84-.3 1 1 0 0 0 .32-.72 1 1 0 0 0 -1.08-1.09h-.65v-.55h.57a.93.93 0 0 0 .66-.34 1 1 0 0 0 .32-.71.82.82 0 0 0 -.94-.91.93.93 0 0 0 -1 .89l-.55-.17a1.64 1.64 0 0 1 .47-.89 1.51 1.51 0 0 1 1.06-.38 1.54 1.54 0 0 1 1.12.4 1.42 1.42 0 0 1 .43 1.02 1.33 1.33 0 0 1 -.77 1.24 1.4 1.4 0 0 1 .7.55 1.66 1.66 0 0 1 .26.9 1.43 1.43 0 0 1 -.51 1.17z"/><path d="m107.36 213.68h-1l-.18 1.53h.86v.53h-.88l-.18 1.48h-.61l.19-1.48h-.89l-.18 1.48h-.6l.18-1.48h-1v-.53h1l.18-1.53h-.87v-.54h.88l.18-1.48h.61l-.18 1.48h.88l.18-1.48h.6l-.17 1.48h1zm-2.47 0-.18 1.53h.89l.18-1.53z"/><path d="m109.92 217.3c-1.21 0-1.82-1-1.82-2.88a4.26 4.26 0 0 1 .4-2.08 1.72 1.72 0 0 1 2.84 0 4.38 4.38 0 0 1 .4 2.08c0 1.92-.61 2.88-1.82 2.88zm.91-4.68a1 1 0 0 0 -.91-.48 1 1 0 0 0 -.91.48 3.67 3.67 0 0 0 -.32 1.8 3.79 3.79 0 0 0 .32 1.82 1.07 1.07 0 0 0 1.82 0 3.92 3.92 0 0 0 .32-1.82 3.79 3.79 0 0 0 -.32-1.8z"/><path d="m116.55 216.49a3.13 3.13 0 0 1 -2.22.73h-1.56v-5.56h1.56a3.36 3.36 0 0 1 2.22.63 2.77 2.77 0 0 1 .78 2.19 2.6 2.6 0 0 1 -.78 2.01zm-.36-3.75a2.76 2.76 0 0 0 -1.86-.52h-1v4.44h1a2.52 2.52 0 0 0 1.84-.6 2.13 2.13 0 0 0 .58-1.58 2.28 2.28 0 0 0 -.56-1.74z"/><path d="m119.87 217.3a1.36 1.36 0 0 1 -.87-.3 1.55 1.55 0 0 1 -.46-.67l.52-.23a.91.91 0 0 0 .85.68c.74 0 1.15-.67 1.23-2a1.55 1.55 0 0 1 -1.18.55 1.53 1.53 0 0 1 -1.16-.45 1.76 1.76 0 0 1 -.43-1.27 2.21 2.21 0 0 1 .41-1.37 1.41 1.41 0 0 1 1.23-.61 1.44 1.44 0 0 1 1.42.9 5.17 5.17 0 0 1 .3 2c-.04 1.83-.65 2.77-1.86 2.77zm.1-5.17a1 1 0 0 0 -.77.39 1.75 1.75 0 0 0 -.29 1c0 .78.35 1.17 1.07 1.17a1.4 1.4 0 0 0 1.12-.69c-.04-1.23-.41-1.87-1.1-1.87z"/><path d="m125.86 216.78a1.68 1.68 0 0 1 -1.25.52 1.59 1.59 0 0 1 -1.62-1.17l.54-.23a1.11 1.11 0 0 0 1.08.85 1.05 1.05 0 0 0 .82-.37 1.53 1.53 0 0 0 .38-1.1c0-.9-.34-1.36-1-1.36a1.09 1.09 0 0 0 -1 .68h-.54v-2.94h2.94v.56h-2.35v1.53a1.23 1.23 0 0 1 1-.39 1.47 1.47 0 0 1 1.17.52 2.09 2.09 0 0 1 .43 1.4 2.07 2.07 0 0 1 -.6 1.5z"/><path d="m129.22 217.3a1.32 1.32 0 0 1 -.9-.33 1.49 1.49 0 0 1 -.47-.67l.53-.23a.89.89 0 0 0 .84.68c.74 0 1.15-.67 1.23-2a1.55 1.55 0 0 1 -1.18.55 1.53 1.53 0 0 1 -1.16-.45 1.76 1.76 0 0 1 -.43-1.27 2.21 2.21 0 0 1 .41-1.37 1.41 1.41 0 0 1 1.23-.61 1.44 1.44 0 0 1 1.42.9 5.17 5.17 0 0 1 .3 2c-.04 1.86-.61 2.8-1.82 2.8zm.1-5.17a1 1 0 0 0 -.77.39 1.75 1.75 0 0 0 -.29 1c0 .78.35 1.17 1.07 1.17a1.4 1.4 0 0 0 1.12-.69c-.04-1.23-.45-1.87-1.13-1.87z"/><path d="m135.25 216.86a1.87 1.87 0 0 1 -1.25.44 1.53 1.53 0 0 1 -1.68-1.29l.56-.2a1 1 0 0 0 1.12.94 1.2 1.2 0 0 0 .84-.3.92.92 0 0 0 .33-.72 1.13 1.13 0 0 0 -.31-.78 1.09 1.09 0 0 0 -.77-.31h-.66v-.55h.57a.93.93 0 0 0 .66-.34 1 1 0 0 0 .34-.75.83.83 0 0 0 -1-.91.93.93 0 0 0 -1 .89l-.56-.17a1.64 1.64 0 0 1 .56-.81 1.51 1.51 0 0 1 1.06-.38 1.56 1.56 0 0 1 1.13.4 1.41 1.41 0 0 1 .4 1.06 1.33 1.33 0 0 1 -.77 1.24 1.42 1.42 0 0 1 .71.55 1.65 1.65 0 0 1 .25.9 1.43 1.43 0 0 1 -.53 1.09z"/><path d="m311.69 213.68h-1l-.18 1.53h.87l-.06.53h-.88l-.18 1.48h-.61l.19-1.48h-.84l-.18 1.48h-.6l.18-1.48h-1v-.53h1l.18-1.53h-.87l.05-.54h.89l.17-1.48h.62l-.19 1.48h.88l.18-1.48h.69l-.18 1.48h1zm-2.47 0-.18 1.53h.9l.17-1.53z"/><path d="m314.25 217.3c-1.21 0-1.82-1-1.82-2.88a4.26 4.26 0 0 1 .4-2.08 1.72 1.72 0 0 1 2.84 0 4.26 4.26 0 0 1 .4 2.08c0 1.92-.61 2.88-1.82 2.88zm.91-4.68a1.1 1.1 0 0 0 -1.82 0 3.67 3.67 0 0 0 -.32 1.8 3.79 3.79 0 0 0 .32 1.82 1 1 0 0 0 .91.51 1 1 0 0 0 .91-.51 3.77 3.77 0 0 0 .33-1.82 3.66 3.66 0 0 0 -.33-1.8z"/><path d="m320.26 216.87a1.85 1.85 0 0 1 -1.31.43 1.91 1.91 0 0 1 -1.34-.43 1.5 1.5 0 0 1 -.48-1.17 1.67 1.67 0 0 1 1-1.54 1.36 1.36 0 0 1 -.35-2.22 2.07 2.07 0 0 1 2.33 0 1.34 1.34 0 0 1 -.35 2.22 1.67 1.67 0 0 1 1 1.54 1.49 1.49 0 0 1 -.5 1.17zm-.47-2.1a1.21 1.21 0 0 0 -.87-.32 1.19 1.19 0 0 0 -.87.32 1.18 1.18 0 0 0 -.32.9 1 1 0 0 0 .28.75 1.22 1.22 0 0 0 .94.33c.78 0 1.18-.36 1.18-1.08a1.15 1.15 0 0 0 -.34-.9zm-.86-2.64c-.67 0-1 .3-1 .89a.75.75 0 0 0 .29.62 1.11 1.11 0 0 0 1.43 0 .77.77 0 0 0 .28-.62c0-.59-.34-.89-1-.89z"/><path d="m324.78 216.78a1.68 1.68 0 0 1 -1.25.52 1.6 1.6 0 0 1 -1.63-1.17l.55-.23a1.11 1.11 0 0 0 1.08.85 1.05 1.05 0 0 0 .82-.37 1.53 1.53 0 0 0 .37-1.1c0-.9-.34-1.36-1-1.36a1.09 1.09 0 0 0 -1 .68h-.54v-2.94h2.94v.56h-2.35v1.53a1.23 1.23 0 0 1 1-.39 1.47 1.47 0 0 1 1.17.52 2.44 2.44 0 0 1 -.1 2.9z"/><path d="m330.73 217.21-.65-1.59h-2.74l-.65 1.59h-.62l2.32-5.56h.61l2.32 5.56zm-2-4.87-1.14 2.73h2.28z"/><path d="m335 216.78a1.66 1.66 0 0 1 -1.25.52 1.59 1.59 0 0 1 -1.62-1.17l.54-.23a1.12 1.12 0 0 0 1.08.85 1.06 1.06 0 0 0 .83-.37 1.57 1.57 0 0 0 .37-1.1c0-.9-.34-1.36-1-1.36a1.09 1.09 0 0 0 -1 .68h-.53v-2.94h2.94v.56h-2.36v1.53a1.26 1.26 0 0 1 1-.39 1.44 1.44 0 0 1 1.17.52 2.1 2.1 0 0 1 .44 1.4 2.08 2.08 0 0 1 -.61 1.5z"/><path d="m339.83 216.87a1.89 1.89 0 0 1 -1.32.43 1.87 1.87 0 0 1 -1.33-.43 1.47 1.47 0 0 1 -.48-1.17 1.65 1.65 0 0 1 1-1.54 1.36 1.36 0 0 1 -.35-2.22 2.07 2.07 0 0 1 2.33 0 1.36 1.36 0 0 1 -.35 2.22 1.67 1.67 0 0 1 1 1.54 1.53 1.53 0 0 1 -.5 1.17zm-.47-2.1a1.23 1.23 0 0 0 -.87-.32 1.11 1.11 0 0 0 -1.19 1.22 1 1 0 0 0 .28.75 1.21 1.21 0 0 0 .93.33c.78 0 1.18-.36 1.18-1.08a1.19 1.19 0 0 0 -.33-.9zm-.86-2.64c-.68 0-1 .3-1 .89a.76.76 0 0 0 .3.62 1 1 0 0 0 .71.26 1.08 1.08 0 0 0 .72-.26.8.8 0 0 0 .28-.62c-.01-.59-.35-.89-1.01-.89z"/><path d="m4.28 213.68h-1l-.18 1.53h.9l-.06.53h-.88l-.18 1.48h-.61l.19-1.48h-.89l-.18 1.48h-.6l.21-1.48h-1l.05-.53h.95l.18-1.53h-.84v-.54h.89l.17-1.48h.62l-.19 1.48h.88l.18-1.48h.6l-.17 1.48h1zm-2.47 0-.18 1.53h.89l.18-1.53z"/><path d="m6.56 217.23v-4.46h-1.19v-.34h.06a1.58 1.58 0 0 0 .73-.18 1.09 1.09 0 0 0 .55-.59h.44v5.57z"/><path d="m13.34 213.09a1.42 1.42 0 0 0 -1.43-1 1.53 1.53 0 0 0 -1.23.65 2.62 2.62 0 0 0 -.57 1.76 2.46 2.46 0 0 0 .52 1.66 1.46 1.46 0 0 0 1.15.55 1.52 1.52 0 0 0 .94-.29 2 2 0 0 0 .55-.82l.54.21a2.09 2.09 0 0 1 -2 1.45 2 2 0 0 1 -1.6-.74 3 3 0 0 1 -.66-2 3.2 3.2 0 0 1 .7-2.11 2.12 2.12 0 0 1 1.69-.85 2 2 0 0 1 2 1.31z"/><path d="m17.93 216.88a2.6 2.6 0 0 1 -1.35.34h-1.93v-5.56h2q1.86 0 1.86 1.41a1.32 1.32 0 0 1 -.77 1.23 1.42 1.42 0 0 1 .93 1.4 1.29 1.29 0 0 1 -.74 1.18zm-1.3-4.67h-1.39v1.84h1.23a1.74 1.74 0 0 0 1-.27.84.84 0 0 0 .4-.71c.03-.57-.39-.86-1.24-.86zm1 2.63a2 2 0 0 0 -1-.24h-1.39v2.06h1.34a1.89 1.89 0 0 0 1.07-.27.81.81 0 0 0 .41-.69 1 1 0 0 0 -.47-.86z"/><path d="m22.78 216.88a2.6 2.6 0 0 1 -1.35.34h-1.93v-5.56h2c1.23 0 1.85.47 1.85 1.41a1.31 1.31 0 0 1 -.76 1.23 1.41 1.41 0 0 1 .92 1.4 1.3 1.3 0 0 1 -.73 1.18zm-1.3-4.67h-1.4v1.84h1.24a1.78 1.78 0 0 0 1-.27.84.84 0 0 0 .4-.71c.03-.57-.4-.86-1.24-.86zm.95 2.63a2 2 0 0 0 -1-.24h-1.35v2.06h1.35a1.88 1.88 0 0 0 1.06-.27.82.82 0 0 0 .42-.69 1 1 0 0 0 -.48-.86z"/><path d="m27.62 216.88a2.6 2.6 0 0 1 -1.35.34h-1.93v-5.56h2q1.86 0 1.86 1.41a1.32 1.32 0 0 1 -.77 1.23 1.42 1.42 0 0 1 .93 1.4 1.29 1.29 0 0 1 -.74 1.18zm-1.3-4.67h-1.39v1.84h1.23a1.74 1.74 0 0 0 1-.27.84.84 0 0 0 .4-.71c.03-.57-.39-.86-1.24-.86zm1 2.63a2 2 0 0 0 -1-.24h-1.39v2.06h1.34a1.84 1.84 0 0 0 1.06-.27.8.8 0 0 0 .42-.69 1 1 0 0 0 -.47-.86z"/><path d="m32.1 215.86v1.38h-.61v-1.38h-2.31v-.57l2.36-3.64h.56v3.67h.75v.54zm-.61-3.14-1.7 2.6h1.7z"/></g><path d="m.74 29.22h395.79v171.52h-395.79z" fill="#009e96"/><path d="m.74 221.37h89.29v51.99h-89.29z" fill="#23b0aa"/><path d="m205.07 221.37h89.29v51.99h-89.29z" fill="#0a807e"/><path d="m102.91 221.37h89.29v51.99h-89.29z" fill="#0d9492"/><path d="m307.24 221.37h89.29v51.99h-89.29z" fill="#085a58"/><path d="m5.42 317.37h-1l-.18 1.53h.87v.54h-.92l-.19 1.48h-.6l.19-1.48h-.88l-.18 1.48h-.61l.18-1.48h-1l.05-.54h1l.18-1.53h-.86l.05-.53h.89l.18-1.49h.61l-.2 1.49h.9l.17-1.49h.61l-.18 1.49h1zm-2.48 0-.17 1.53h.89l.18-1.53z" fill="#5e5e5e"/><path d="m9.06 319.56v1.37h-.61v-1.37h-2.31v-.56l2.36-3.65h.56v3.65h.75v.55zm-.61-3.15-1.7 2.59h1.7z" fill="#5e5e5e"/><path d="m13 318.23a9.85 9.85 0 0 0 -.26 2.7h-.61a9.91 9.91 0 0 1 .28-2.63 6.23 6.23 0 0 1 1.42-2.4h-3.09v-.56h3.82v.55a6 6 0 0 0 -1.56 2.34z" fill="#5e5e5e"/><path d="m18.41 319.56v1.37h-.61v-1.37h-2.31v-.56l2.36-3.65h.56v3.65h.75v.55zm-.61-3.15-1.7 2.59h1.7z" fill="#5e5e5e"/><path d="m22.35 318.23a9.85 9.85 0 0 0 -.26 2.7h-.61a9.91 9.91 0 0 1 .28-2.63 6.23 6.23 0 0 1 1.42-2.4h-3.09v-.56h3.82v.55a6 6 0 0 0 -1.56 2.34z" fill="#5e5e5e"/><path d="m27.75 319.56v1.37h-.6v-1.37h-2.31v-.56l2.36-3.65h.55v3.65h.76v.55zm-.6-3.15-1.7 2.6h1.7z" fill="#5e5e5e"/><path d="m31.7 318.23a9.85 9.85 0 0 0 -.26 2.7h-.61a9.91 9.91 0 0 1 .28-2.63 6.23 6.23 0 0 1 1.42-2.4h-3.09v-.56h3.82v.55a6 6 0 0 0 -1.56 2.34z" fill="#5e5e5e"/><path d="m203.17 317.37h-1l-.17 1.53h.87v.54h-.89l-.18 1.48h-.61l.19-1.48h-.88l-.18 1.48h-.61l.18-1.48h-1l.05-.54h1l.18-1.53h-.87l.05-.53h.89l.18-1.49h.63l-.19 1.49h.89l.17-1.49h.61l-.18 1.49h1zm-2.48 0-.18 1.53h.9l.18-1.53z" fill="#5e5e5e"/><path d="m204.48 315.9v1.9h2.52v.55h-2.53v2.58h-.58v-5.59h3.47v.56z" fill="#5e5e5e"/><path d="m208.8 315.9v1.9h2.53v.55h-2.53v2.58h-.58v-5.59h3.46v.56z" fill="#5e5e5e"/><path d="m213.12 315.9v1.9h2.52v.55h-2.52v2.58h-.59v-5.59h3.47v.56z" fill="#5e5e5e"/><path d="m217.44 315.9v1.9h2.56v.55h-2.52v2.58h-.59v-5.59h3.47v.56z" fill="#5e5e5e"/><path d="m221.76 315.9v1.9h2.52v.55h-2.52v2.58h-.59v-5.59h3.47v.56z" fill="#5e5e5e"/><path d="m226.07 315.9v1.9h2.53v.55h-2.53v2.58h-.58v-5.59h3.51v.56z" fill="#5e5e5e"/><path d="m.96 325.31h197.75v30.09h-197.75z" fill="#474647"/><path d="m199 355.66h-198.29v-30.6h198.29zm-197.75-.5h197.21v-29.6h-197.25z" fill="#231815"/><path d="m198.71 325.31h197.75v30.09h-197.75z" fill="#fff"/><path d="m396.59 355.53h-198v-30.34h198zm-197.75-.25h197.5v-29.84h-197.5z" fill="#727272"/><path d="m.96 373.57h197.75v30.09h-197.75z" fill="#ff8"/><path d="m198.71 373.57h197.75v30.09h-197.75z" fill="#ffe6ec"/><path d="m.96 424.83h197.75v30.09h-197.75z" fill="#ee0708"/><path d="m5.42 417.19h-1l-.18 1.53h.87v.54h-.92l-.19 1.47h-.6l.19-1.47h-.88l-.18 1.47h-.61l.18-1.47h-1l.05-.54h1l.18-1.53h-.86l.05-.53h.89l.18-1.49h.61l-.2 1.49h.9l.17-1.49h.61l-.18 1.49h1zm-2.48 0-.17 1.53h.89l.18-1.53z" fill="#5e5e5e"/><path d="m6.15 420.73v-5.57h3.51v.56h-2.92v1.9h2.59v.55h-2.59v2h2.92v.56z" fill="#5e5e5e"/><path d="m10.51 420.73v-5.57h3.49v.56h-2.9v1.9h2.59v.55h-2.59v2h2.9v.56z" fill="#5e5e5e"/><path d="m16.7 420.81c-1.22 0-1.82-1-1.82-2.88a4.19 4.19 0 0 1 .4-2.07 1.52 1.52 0 0 1 1.42-.76 1.54 1.54 0 0 1 1.42.76 4.3 4.3 0 0 1 .4 2.07c0 1.92-.62 2.88-1.82 2.88zm.91-4.67a1 1 0 0 0 -.91-.49 1 1 0 0 0 -.91.49 3.61 3.61 0 0 0 -.33 1.79 3.75 3.75 0 0 0 .33 1.82 1 1 0 0 0 .91.51 1 1 0 0 0 .91-.51 3.89 3.89 0 0 0 .32-1.82 3.75 3.75 0 0 0 -.32-1.79z" fill="#5e5e5e"/><path d="m21.72 418.05a9.81 9.81 0 0 0 -.26 2.69h-.61a9.88 9.88 0 0 1 .28-2.62 6.16 6.16 0 0 1 1.42-2.4h-3.09v-.56h3.82v.55a5.84 5.84 0 0 0 -1.56 2.34z" fill="#5e5e5e"/><path d="m26.05 420.81c-1.22 0-1.82-1-1.82-2.88a4.19 4.19 0 0 1 .4-2.07 1.51 1.51 0 0 1 1.42-.76 1.54 1.54 0 0 1 1.42.76 4.3 4.3 0 0 1 .4 2.07c0 1.92-.62 2.88-1.82 2.88zm.91-4.67a1 1 0 0 0 -.91-.49 1 1 0 0 0 -.91.49 3.61 3.61 0 0 0 -.33 1.79 3.75 3.75 0 0 0 .33 1.82 1 1 0 0 0 .91.51 1 1 0 0 0 .91-.51 3.89 3.89 0 0 0 .32-1.82 3.75 3.75 0 0 0 -.28-1.79z" fill="#5e5e5e"/><path d="m32.06 420.39a1.89 1.89 0 0 1 -1.32.42 1.91 1.91 0 0 1 -1.34-.42 1.5 1.5 0 0 1 -.47-1.18 1.63 1.63 0 0 1 1-1.53 1.3 1.3 0 0 1 -.79-1.19 1.26 1.26 0 0 1 .44-1 1.73 1.73 0 0 1 1.16-.37 1.78 1.78 0 0 1 1.17.37 1.28 1.28 0 0 1 .43 1 1.31 1.31 0 0 1 -.78 1.19 1.65 1.65 0 0 1 1 1.53 1.53 1.53 0 0 1 -.5 1.18zm-.47-2.11a1.24 1.24 0 0 0 -.88-.32 1.17 1.17 0 0 0 -.86.32 1.15 1.15 0 0 0 -.33.9 1.08 1.08 0 0 0 .28.76 1.23 1.23 0 0 0 .94.32c.78 0 1.18-.36 1.18-1.08a1.19 1.19 0 0 0 -.33-.9zm-.87-2.64c-.67 0-1 .3-1 .89a.75.75 0 0 0 .3.63 1 1 0 0 0 .71.25 1 1 0 0 0 .71-.25.79.79 0 0 0 .28-.63c0-.59-.34-.89-1-.89z" fill="#5e5e5e"/><path d="m5.42 367.19h-1l-.18 1.53h.87v.54h-.92l-.19 1.47h-.6l.19-1.47h-.88l-.18 1.47h-.61l.18-1.47h-1l.05-.54h1l.18-1.53h-.86l.05-.53h.89l.18-1.49h.61l-.2 1.49h.9l.17-1.49h.61l-.18 1.49h1zm-2.48 0-.17 1.53h.89l.18-1.53z" fill="#5e5e5e"/><path d="m6.74 365.72v1.9h2.52v.55h-2.52v2.57h-.59v-5.58h3.47v.56z" fill="#5e5e5e"/><path d="m11.05 365.72v1.9h2.53v.55h-2.53v2.57h-.58v-5.58h3.46v.56z" fill="#5e5e5e"/><path d="m15.37 365.72v1.9h2.53v.55h-2.53v2.57h-.59v-5.58h3.47v.56z" fill="#5e5e5e"/><path d="m19.69 365.72v1.9h2.52v.55h-2.52v2.57h-.59v-5.58h3.47v.56z" fill="#5e5e5e"/><path d="m26.58 370.39a1.85 1.85 0 0 1 -1.32.42 1.9 1.9 0 0 1 -1.33-.42 1.51 1.51 0 0 1 -.48-1.18 1.64 1.64 0 0 1 1-1.53 1.31 1.31 0 0 1 -.78-1.19 1.25 1.25 0 0 1 .43-1 2 2 0 0 1 2.33 0 1.26 1.26 0 0 1 .44 1 1.32 1.32 0 0 1 -.79 1.19 1.64 1.64 0 0 1 1 1.53 1.5 1.5 0 0 1 -.5 1.18zm-.46-2.11a1.25 1.25 0 0 0 -.88-.32 1.11 1.11 0 0 0 -1.19 1.22 1 1 0 0 0 .28.76 1.21 1.21 0 0 0 .93.32c.79 0 1.19-.36 1.19-1.08a1.19 1.19 0 0 0 -.33-.9zm-.87-2.64c-.67 0-1 .3-1 .89a.77.77 0 0 0 .29.63 1.15 1.15 0 0 0 1.43 0 .79.79 0 0 0 .28-.63c0-.59-.34-.89-1-.89z" fill="#5e5e5e"/><path d="m31.26 370.39a1.89 1.89 0 0 1 -1.32.42 1.87 1.87 0 0 1 -1.33-.42 1.48 1.48 0 0 1 -.48-1.18 1.63 1.63 0 0 1 1-1.53 1.29 1.29 0 0 1 -.78-1.19 1.25 1.25 0 0 1 .43-1 1.73 1.73 0 0 1 1.16-.37 1.76 1.76 0 0 1 1.17.37 1.25 1.25 0 0 1 .43 1 1.31 1.31 0 0 1 -.78 1.19 1.66 1.66 0 0 1 1 1.53 1.54 1.54 0 0 1 -.5 1.18zm-.47-2.11a1.24 1.24 0 0 0 -.88-.32 1.17 1.17 0 0 0 -.86.32 1.19 1.19 0 0 0 -.33.9 1.08 1.08 0 0 0 .28.76 1.23 1.23 0 0 0 .94.32c.78 0 1.18-.36 1.18-1.08a1.19 1.19 0 0 0 -.33-.9zm-.87-2.64c-.67 0-1 .3-1 .89a.75.75 0 0 0 .3.63 1 1 0 0 0 .71.25 1.07 1.07 0 0 0 .72-.25.83.83 0 0 0 .28-.63c0-.59-.34-.89-1.01-.89z" fill="#5e5e5e"/><path d="m203.17 367.19h-1l-.18 1.53h.87v.54h-.89l-.18 1.47h-.61l.19-1.47h-.88l-.18 1.47h-.61l.18-1.47h-1l.05-.54h1l.18-1.53h-.87l.05-.53h.89l.18-1.49h.64l-.19 1.49h.89l.17-1.49h.61l-.18 1.49h1zm-2.48 0-.18 1.53h.9l.18-1.53z" fill="#5e5e5e"/><path d="m204.48 365.72v1.9h2.52v.55h-2.53v2.57h-.58v-5.58h3.47v.56z" fill="#5e5e5e"/><path d="m208.8 365.72v1.9h2.53v.55h-2.53v2.57h-.58v-5.58h3.46v.56z" fill="#5e5e5e"/><path d="m212.53 370.73v-5.57h3.47v.56h-2.91v1.9h2.58v.55h-2.58v2h2.91v.56z" fill="#5e5e5e"/><path d="m220.12 370.2a1.69 1.69 0 0 1 -1.37.61c-1.26 0-1.89-.92-1.89-2.75s.63-3 1.89-3a1.61 1.61 0 0 1 1.62 1.11l-.57.19a1.56 1.56 0 0 0 -.35-.53 1.08 1.08 0 0 0 -.7-.22c-.79 0-1.22.71-1.29 2.11a1.91 1.91 0 0 1 1.34-.54 1.76 1.76 0 0 1 1.33.5 1.69 1.69 0 0 1 .45 1.23 1.84 1.84 0 0 1 -.46 1.29zm-.43-2.13a1.15 1.15 0 0 0 -.89-.36 1.77 1.77 0 0 0 -.77.2 1.46 1.46 0 0 0 -.57.47c0 1.26.48 1.88 1.29 1.88a1.13 1.13 0 0 0 .92-.42 1.35 1.35 0 0 0 .33-.84 1.25 1.25 0 0 0 -.31-.93z" fill="#5e5e5e"/><path d="m221.57 370.73v-5.57h3.51v.56h-2.92v1.9h2.59v.55h-2.59v2h2.92v.56z" fill="#5e5e5e"/><path d="m229.58 366.6a1.44 1.44 0 0 0 -1.43-1 1.54 1.54 0 0 0 -1.23.65 2.63 2.63 0 0 0 -.57 1.77 2.48 2.48 0 0 0 .52 1.66 1.48 1.48 0 0 0 1.15.54 1.46 1.46 0 0 0 .98-.22 2.06 2.06 0 0 0 .55-.82l.54.22a2.08 2.08 0 0 1 -2 1.44 2 2 0 0 1 -1.6-.74 3 3 0 0 1 -.66-2 3.22 3.22 0 0 1 .7-2.12 2.12 2.12 0 0 1 1.69-.85 2 2 0 0 1 2 1.31z" fill="#5e5e5e"/><path d="m2.78 297.61v-1.1s0-.06.1-.06c.39 0 .6 0 .6.1s0 .11-.06.11-.07.06-.07.15v.8h1.19s.07 0 .07.1v.29c0 .1 0 .14-.07.14h-1.19v.63h1c.08 0 .13 0 .13.1v2.69c0 .07 0 .1-.13.1h-1v.73h1.29c.05 0 .07 0 .07.09v.28c0 .08 0 .12-.07.12h-1.29v1.12c0 .07-.05.1-.14.1h-.33a.09.09 0 0 1 -.1-.1v-1.17h-1.39s-.07 0-.07-.12v-.28c0-.06 0-.09.07-.09h1.39v-.73h-1.06c-.09 0-.13 0-.13-.1v-2.69c0-.07 0-.1.13-.1h1.06v-.63h-1.22c-.05 0-.07 0-.07-.14v-.26c0-.07 0-.1.07-.1zm0 2.33v-.7h-.63v.7zm0 .49h-.63v.7h.63zm.57-.49h.65v-.7h-.6zm.6.49h-.6v.7h.65zm2.72-2.85v-1.07s0-.06.1-.06c.39 0 .59 0 .59.1s0 .11-.06.11-.06.06-.06.15v.77h1.76s.07 0 .07.1v.26c0 .09 0 .14-.07.14h-1.76v.66h1.46c.1 0 .16.05.16.14v4.59a.52.52 0 0 1 -.28.45 2.69 2.69 0 0 1 -.68.17.1.1 0 0 1 -.11-.1 1.38 1.38 0 0 0 -.19-.5s0 0 .05 0a1.3 1.3 0 0 0 .55-.07.26.26 0 0 0 .1-.22v-.91h-1.06v1.71c0 .07-.06.11-.14.11h-.33c-.07 0-.1 0-.1-.11v-1.72h-1v1.72c0 .07 0 .11-.13.11h-.36c-.07 0-.1 0-.1-.11v-5.14c0-.07 0-.1.1-.1h1.49v-.66h-1.67s-.06-.05-.06-.14v-.26c0-.07 0-.1.06-.1zm0 2.66v-1h-1v1zm0 1.52v-1h-1v1zm.57-1.52h1.06v-1h-1.06zm0 1.52h1.06v-1h-1.06zm.82-5.28a6.61 6.61 0 0 1 .7.7v.11a.81.81 0 0 1 -.41.18c-.22-.31-.44-.57-.63-.79 0-.05.11-.13.33-.23a.07.07 0 0 1 .01.03z" fill="#5e5e5e"/><path d="m13.11 296.91c.08 0 .14 0 .14.1v5.13l.43-.13h.06s.07 0 .07.06a1.39 1.39 0 0 1 0 .46c-1.19.33-2.39.63-3.61.9-.08.16-.15.23-.2.23s-.17-.24-.34-.69l.8-.14v-5.77c0-.09 0-.14.11-.14zm-.43 1.83v-1.29h-1.68v1.29zm0 1.89v-1.36h-1.68v1.36zm-1.13 1.94c.39-.08.76-.18 1.13-.28v-1.13h-1.68v1.54c.17-.03.36-.08.55-.13zm3.45-4.33c0-.36 0-.75 0-1.16 0-.12 0-.35 0-.67 0 0 0-.06.1-.06h.61c.08 0 .12.05.12.08a.14.14 0 0 1 -.08.14.18.18 0 0 0 -.15.19v1.43h1.81c.07 0 .1.05.1.13 0 1.53-.06 2.64-.13 3.3a7.53 7.53 0 0 1 -.32 1.79 1 1 0 0 1 -1.05.63c-.37 0-.56-.07-.56-.19a1.71 1.71 0 0 0 -.23-.48v-.07a3.47 3.47 0 0 0 .79.11.57.57 0 0 0 .58-.45 6.28 6.28 0 0 0 .24-1.41c.07-.57.11-1.5.14-2.83h-1.44a16.52 16.52 0 0 1 -.14 1.79 7.58 7.58 0 0 1 -.67 2.27 6.11 6.11 0 0 1 -.8 1.26h-.11l-.52-.18s0-.05 0-.09a5.3 5.3 0 0 0 .94-1.26 5.88 5.88 0 0 0 .58-1.75 12.39 12.39 0 0 0 .2-2h-1.2c-.07 0-.1 0-.1-.13v-.27c0-.08 0-.13.1-.13z" fill="#5e5e5e"/><path d="m21.38 296.63c.07.05.1.09.1.12a.12.12 0 0 1 -.1.13c-.12 0-.2 0-.22.1l-.09.16h2.66a.3.3 0 0 1 .17 0c.11.11.17.18.17.23l-1.28 1.3h2.21c.08 0 .13 0 .13.1v3.05c0 .07-.05.1-.13.1h-.33c-.09 0-.14 0-.14-.1v-.26h-4.61v1.44c0 .27.16.39.5.39h4.44c.28 0 .44-.11.49-.33a4 4 0 0 0 .18-.76 1.48 1.48 0 0 0 .46.26.13.13 0 0 1 .11.14 3.11 3.11 0 0 1 -.29.89c-.1.24-.34.37-.75.37h-5c-.51 0-.77-.19-.77-.57v-4.19l-.43.28a.42.42 0 0 1 -.2 0l-.34-.14s-.06 0-.06-.05 0 0 .06-.07a6.05 6.05 0 0 0 1.24-1 4.72 4.72 0 0 0 .57-.7 5.74 5.74 0 0 0 .51-1 .14.14 0 0 1 .11-.07zm.63 2.08 1-1h-2.26a4.14 4.14 0 0 1 -.3.4q-.27.33-.57.63zm-2.09 2.35h2v-1.82h-2zm2.65 0h2v-1.82h-2z" fill="#5e5e5e"/><path d="m28.78 300.36v-.66c0-.07 0-.1.14-.1.42 0 .63 0 .63.1a.12.12 0 0 1 -.09.13c-.06 0-.08.07-.08.17v.36h1.62c.06 0 .09.05.09.14v.26c0 .1 0 .14-.09.14h-1.5a4.81 4.81 0 0 0 .45.62 2.91 2.91 0 0 0 .62.59 1.86 1.86 0 0 0 .63.34.11.11 0 0 1 -.08.1 2.53 2.53 0 0 0 -.28.31s-.06.06-.08.06a3.61 3.61 0 0 1 -.78-.59 3.91 3.91 0 0 1 -.59-.7v2.45c0 .07 0 .1-.13.1h-.33c-.09 0-.14 0-.14-.1v-2.19a1.57 1.57 0 0 1 -.12.19 7.11 7.11 0 0 1 -.64.79 5.27 5.27 0 0 1 -.8.68.16.16 0 0 1 -.14-.06l-.33-.28a.18.18 0 0 1 0-.09 3.69 3.69 0 0 0 .62-.45 4.71 4.71 0 0 0 .74-.78c.14-.2.34-.52.61-1h-1.73c-.06 0-.1 0-.1-.14v-.26c0-.09 0-.14.1-.14zm1.92-3.36a5.7 5.7 0 0 1 -.93.29 10 10 0 0 1 -2.35.3c-.1 0-.16 0-.17-.11l-.26-.35c0-.07 0-.1.1-.1h.49a6.52 6.52 0 0 0 1.16-.08 3.11 3.11 0 0 0 .88-.17 2.65 2.65 0 0 0 .85-.35h.07a.3.3 0 0 1 .15 0c.32.28.48.45.48.52s0 .1-.1.1l-.23-.1zm-2.77 1.7a4.27 4.27 0 0 1 .29.65s-.19.09-.57.17a2.47 2.47 0 0 0 -.19-.53 4.49 4.49 0 0 0 -.44-.74s.16-.13.47-.29a7.92 7.92 0 0 1 .44.69zm1.41-.2a7 7 0 0 1 .21.69 2.16 2.16 0 0 1 -.57.16 5 5 0 0 0 -.14-.56 4.83 4.83 0 0 0 -.29-.77 1.59 1.59 0 0 1 .46-.29 5.93 5.93 0 0 1 .33.72zm2-.61c.05 0 .08.08.08.1s0 .08-.09.08a.18.18 0 0 0 -.16.1 8.29 8.29 0 0 1 -.65 1.32c-.09 0-.13 0-.14 0l-.39-.23a4.08 4.08 0 0 0 .44-.75 6.67 6.67 0 0 0 .29-.81.11.11 0 0 1 .1-.07zm3.27 3.59a.1.1 0 0 1 -.11.1.31.31 0 0 0 -.23.16c-.18.22-.45.5-.78.85a6.75 6.75 0 0 1 -1.18 1 7.66 7.66 0 0 1 -1 .6.2.2 0 0 1 -.17-.08c-.09-.11-.18-.19-.24-.28s-.09-.05-.09-.07a.07.07 0 0 1 .05-.07 6.22 6.22 0 0 0 2.29-1.53 6.51 6.51 0 0 0 .76-1 .21.21 0 0 1 .09-.16 2.49 2.49 0 0 1 .6.43zm-.35-4.72a.16.16 0 0 1 .07.1c0 .07-.06.1-.16.1a.29.29 0 0 0 -.23.1 6 6 0 0 1 -.57.79 4.6 4.6 0 0 1 -.49.54c-.2.19-.4.36-.58.51a4.26 4.26 0 0 1 -.49.32.15.15 0 0 1 -.13-.08 1.76 1.76 0 0 0 -.24-.3c-.06 0-.09-.06-.09-.08a4.21 4.21 0 0 0 .68-.4 5.65 5.65 0 0 0 .74-.68 3 3 0 0 0 .41-.52 4 4 0 0 0 .33-.58c0-.05.06-.08.09-.08zm.24 2.33c0 .07 0 .1-.1.1a.21.21 0 0 0 -.18.13c-.14.18-.34.4-.6.68a5.61 5.61 0 0 1 -.91.8 5.79 5.79 0 0 1 -.8.48.19.19 0 0 1 -.17-.09 1.94 1.94 0 0 1 -.24-.27c-.06 0-.08 0-.08-.07a.05.05 0 0 1 0-.05 4.53 4.53 0 0 0 1-.56 4.83 4.83 0 0 0 .79-.69 5.77 5.77 0 0 0 .59-.81c0-.05.07-.09.11-.09.39.2.58.35.58.35z" fill="#5e5e5e"/><path d="m3.4 2v-1.67c0-.07.05-.1.14-.1.42 0 .63 0 .63.1a.12.12 0 0 1 -.09.13c-.08.01-.08.07-.08.17v1.37h.76c.07 0 .11.05.11.13v.27c0 .09 0 .13-.11.13h-.65a8.48 8.48 0 0 0 .3.9 4.14 4.14 0 0 0 .59 1.06.15.15 0 0 1 0 .09s0 0 0 .07a2.49 2.49 0 0 1 -.23.24.16.16 0 0 1 -.07.11.14.14 0 0 1 -.09-.06 5.63 5.63 0 0 1 -.52-1 2.14 2.14 0 0 1 -.09-.33v4.23c0 .06 0 .1-.13.1h-.33c-.09 0-.14 0-.14-.1v-3.41c-.08.25-.16.49-.24.7a6.34 6.34 0 0 1 -.49 1 .14.14 0 0 1 -.13 0l-.36-.13c-.05 0-.07 0-.07 0a8.39 8.39 0 0 0 .6-1.2 6.77 6.77 0 0 0 .35-1.08 11.11 11.11 0 0 0 .24-1.2h-.89c-.07 0-.1 0-.1-.13v-.27c0-.08 0-.13.1-.13zm3 4.38a.15.15 0 0 1 .06.11s0 0 0 0a.23.23 0 0 0 -.13 0 3.63 3.63 0 0 1 -.46.49 6.43 6.43 0 0 1 -.75.52c-.07 0-.11 0-.13-.07l-.27-.23a.11.11 0 0 1 -.06-.06.05.05 0 0 1 0 0 1.27 1.27 0 0 0 .34-.14 2.73 2.73 0 0 0 .52-.42 6.06 6.06 0 0 0 .42-.49s0 0 0 0zm3.38-1.23s.07 0 .07.09v.27c0 .09 0 .13-.07.13h-2.06v1.64c0 .41-.35.62-1 .62h-.39s-.06-.06-.06-.16a1.43 1.43 0 0 0 -.15-.44 3.5 3.5 0 0 0 .54 0c.3 0 .47-.1.47-.29v-1.37h-2.13s-.07 0-.07-.13v-.27c0-.06 0-.09.07-.09zm0-4.59s.07 0 .07.1v.27c0 .09 0 .13-.07.13h-1.46v.66h1.19c.09 0 .13 0 .13.11v1.62c0 .07 0 .1-.13.1h-4.25c-.09 0-.13 0-.13-.1v-1.62c0-.07 0-.11.13-.11h1.17v-.66h-1.37s-.06-.06-.06-.13v-.27c0-.07 0-.1.06-.1zm-.53 3.55s.06 0 .06.1v.27c0 .09 0 .13-.06.13h-3.69s-.07 0-.07-.13v-.27c0-.06 0-.1.07-.1zm-2.82-1.88h-.7v.82h.7zm1.32-1.17h-.75v.66h.76zm0 1.17h-.75v.82h.76zm1.3 0h-.73v.82h.73zm.31 4.38c.21.22.4.42.55.6v.06c-.17.22-.25.34-.25.34a7.8 7.8 0 0 0 -.74-.77 4.56 4.56 0 0 0 -.53-.4 1.83 1.83 0 0 1 .23-.35.1.1 0 0 1 .07 0 8.74 8.74 0 0 1 .67.52z" fill="#5e5e5e"/><path d="m11.89 2.08.55.38s0 0 0 .06a2.72 2.72 0 0 1 -.27.34c-.24-.17-.47-.34-.73-.49a5.63 5.63 0 0 0 -.52-.25 1.93 1.93 0 0 1 .22-.34l.07-.06zm2.61 3.77v-.54c0-.07 0-.1.12-.1.43 0 .64 0 .64.1s0 .12-.09.13-.08.07-.08.17v.24h3.05c.07 0 .1 0 .1.12v.27c0 .09 0 .13-.1.13h-3.05v1.53c0 .1-.09.1-.09.1h-.33c-.08 0-.12 0-.12-.1v-1.53h-3.55c-.07 0-.1 0-.1-.13v-.24c0-.08 0-.12.1-.12zm-1.65-2.73c.12.27.18.42.18.43a.08.08 0 0 1 0 .07c-.3.39-.58.71-.84 1s-.32.31-.53.49a.35.35 0 0 0 0 .18c0 .07 0 .1-.07.1a2.29 2.29 0 0 1 -.59-.49s0 0 0-.09 0 0 0-.07a2.65 2.65 0 0 0 .51-.36 7.42 7.42 0 0 0 .7-.68c.19-.22.36-.42.51-.61h.06s.05-.01.07.03zm-.39-2.47c.19.15.36.28.51.38 0 0 0 0-.05.06l-.25.34c-.22-.17-.44-.33-.68-.49a3 3 0 0 0 -.49-.24 1.47 1.47 0 0 1 .24-.34s0-.06.06-.06zm2.54-.28s0 .07 0 .07-.14 0-.16.1l-.3.59h1.34l.12-.25a4.23 4.23 0 0 0 .25-.65s0-.06.05-.06a4.63 4.63 0 0 1 .7.33s0 0-.11.06a.22.22 0 0 0 -.15.12 4.78 4.78 0 0 1 -.23.45h1.58s.06 0 .06.1v.27c0 .06 0 .1-.06.1h-1.7v.59h1.5s.07 0 .07.1v.27c0 .08 0 .13-.07.13h-1.5v.56h1.5s.07 0 .07.11v.26c0 .09 0 .13-.07.13h-1.5v.6h1.86c.05 0 .07 0 .07.09v.28c0 .08 0 .12-.07.12h-3.96v.34c0 .06 0 .1-.13.1h-.27c-.08 0-.13 0-.13-.1v-3.11c-.15.17-.34.35-.56.56a.19.19 0 0 1 -.15-.08l-.23-.2a.12.12 0 0 1 -.05-.09c.19-.17.37-.36.57-.55a4.48 4.48 0 0 0 .66-.84 4.7 4.7 0 0 0 .37-.8s0-.07 0-.07c.41.2.63.33.63.37zm.8 1.23h-1.5v.59h1.5zm0 1.09h-1.5v.56h1.5zm0 1.66v-.6h-1.5v.6z" fill="#5e5e5e"/><path d="m22.26.42c.07 0 .11.08.11.12a.12.12 0 0 1 -.11.12.23.23 0 0 0 -.22.1l-.04.17h2.66a.22.22 0 0 1 .16 0c.11.1.17.18.17.23l-1.32 1.33h2.21c.09 0 .13 0 .13.1v3.05c0 .07 0 .11-.13.11h-.33c-.09 0-.13 0-.13-.11v-.26h-4.62v1.36c0 .27.16.4.5.4h4.45a.43.43 0 0 0 .48-.33 4.16 4.16 0 0 0 .18-.81 1.46 1.46 0 0 0 .47.27.11.11 0 0 1 .1.13 2.82 2.82 0 0 1 -.29.89c-.09.24-.34.37-.75.37h-4.94c-.51 0-.76-.19-.76-.56v-4.16l-.44.28a.54.54 0 0 1 -.19 0l-.38-.22s-.05 0-.05 0 0-.05.05-.07a5.55 5.55 0 0 0 1.25-1 5.13 5.13 0 0 0 .52-.66 5.52 5.52 0 0 0 .52-1 .11.11 0 0 1 .15-.07zm.63 2.07 1.06-1h-2.31l-.3.4c-.19.22-.38.43-.58.63zm-2.09 2.35h2.06v-1.84h-2.06zm2.65 0h2v-1.84h-2z" fill="#5e5e5e"/><path d="m29.67 4.15v-.67c0-.06 0-.1.13-.1.42 0 .63 0 .63.1s0 .12-.08.13-.09.07-.09.17v.37h1.63c.06 0 .1 0 .1.13v.27c0 .09 0 .13-.1.13h-1.5a5.07 5.07 0 0 0 .45.62 3 3 0 0 0 .63.6 2.24 2.24 0 0 0 .62.34s0 .07-.08.09a2.67 2.67 0 0 0 -.28.32.15.15 0 0 1 -.07.06 3.69 3.69 0 0 1 -.78-.59 3.33 3.33 0 0 1 -.59-.71s0 0 0 0v2.43c0 .06 0 .1-.12.1h-.37c-.09 0-.13 0-.13-.1v-2.2l-.12.19a8.7 8.7 0 0 1 -.65.8 5.26 5.26 0 0 1 -.8.67.2.2 0 0 1 -.14 0l-.32-.3a.2.2 0 0 1 0-.08 3.84 3.84 0 0 0 .62-.46 3.74 3.74 0 0 0 .74-.82 10.13 10.13 0 0 0 .61-1h-1.7c-.07 0-.1 0-.1-.13v-.23c0-.08 0-.13.1-.13zm1.91-3.42a6.38 6.38 0 0 1 -.93.3 9.86 9.86 0 0 1 -1.17.22 10.3 10.3 0 0 1 -1.17.08.16.16 0 0 1 -.18-.12l-.25-.34c0-.07 0-.11.1-.11h.49a7.7 7.7 0 0 0 1.15-.07 4 4 0 0 0 .88-.17 3.09 3.09 0 0 0 .86-.36.1.1 0 0 1 .07 0 .18.18 0 0 1 .14 0c.32.28.49.45.49.52a.1.1 0 0 1 -.06.12l-.28-.1zm-2.76 1.7a6.4 6.4 0 0 1 .29.65 1.61 1.61 0 0 1 -.57.17 3.37 3.37 0 0 0 -.2-.53 4.34 4.34 0 0 0 -.43-.72s.15-.14.47-.3c.17.3.32.51.44.73zm1.41-.19c.08.22.14.45.2.68a2 2 0 0 1 -.57.16 5.21 5.21 0 0 0 -.13-.56 5.91 5.91 0 0 0 -.29-.76s.15-.14.46-.3q.2.42.33.78zm2-.62c.05 0 .07.08.07.1s0 .08-.09.08-.14.05-.15.1a8.94 8.94 0 0 1 -.66 1.32c-.08 0-.12 0-.13 0l-.4-.22a5.85 5.85 0 0 0 .44-.75 6.79 6.79 0 0 0 .29-.82.09.09 0 0 1 .09-.06zm3.26 3.59c0 .07 0 .1-.1.1s-.16.06-.23.16-.45.5-.78.85a7.13 7.13 0 0 1 -1.18 1 9.34 9.34 0 0 1 -1 .59.18.18 0 0 1 -.2-.09l-.25-.27c-.06 0-.08 0-.08-.08s0 0 .05-.07a6.48 6.48 0 0 0 1.28-.67 5.38 5.38 0 0 0 1-.86 6 6 0 0 0 .77-1 .19.19 0 0 1 .15-.1 2.36 2.36 0 0 1 .56.44zm-.36-4.72c0 .05.08.08.08.1s-.06.11-.16.11a.29.29 0 0 0 -.23.09 6.26 6.26 0 0 1 -.57.79 4.79 4.79 0 0 1 -.49.54c-.21.19-.4.36-.59.51a4.76 4.76 0 0 1 -.48.33.14.14 0 0 1 -.13-.09 1.41 1.41 0 0 0 -.25-.29c-.06 0-.08-.06-.08-.09s0 0 0 0a6.47 6.47 0 0 0 .68-.4 5.69 5.69 0 0 0 .75-.68 3.57 3.57 0 0 0 .44-.55 6.52 6.52 0 0 0 .33-.59c0-.05.06-.07.08-.07zm.25 2.33c0 .07 0 .1-.1.1a.23.23 0 0 0 -.18.13c-.15.18-.35.41-.6.68a5.69 5.69 0 0 1 -.91.81 8.15 8.15 0 0 1 -.8.47c-.09 0-.14 0-.17-.08a3 3 0 0 1 -.25-.27s-.08 0-.08-.08 0 0 0 0a4.62 4.62 0 0 0 1-.55 4.49 4.49 0 0 0 .79-.7 4.66 4.66 0 0 0 .59-.81.15.15 0 0 1 .12-.08 2.19 2.19 0 0 1 .59.38z" fill="#5e5e5e"/></svg>