<svg viewBox="0 0 479.84 410.4" xmlns="http://www.w3.org/2000/svg"><path d="m6 2.25a.27.27 0 0 1 .15 0c.12.11.18.17.18.23l-1.59 1.75v.46h3.18c.07 0 .1 0 .1.13v.34c0 .09 0 .13-.1.13h-3.22v1.84c0 .44-.31.67-.93.67h-.62s-.07-.06-.08-.17a1.08 1.08 0 0 0 -.16-.43s0-.07.07-.07a3.92 3.92 0 0 0 .79.1.26.26 0 0 0 .3-.29v-1.63h-3.41c-.07 0-.11 0-.11-.13v-.34c0-.08 0-.13.11-.13h3.41v-.89a.12.12 0 0 1 .14-.14l.19.09 1-1h-3.09c-.06 0-.1 0-.1-.14v-.24c0-.09 0-.14.1-.14zm-1.26-2.16a.12.12 0 0 1 -.09.13c-.05 0-.08.07-.08.17v.47h3c.09 0 .14 0 .14.1v1.66c0 .07-.05.1-.14.1h-.31c-.09 0-.14 0-.14-.1v-1.23h-5.77v1.23c0 .07-.05.1-.13.1h-.34c-.09 0-.13 0-.13-.1v-1.62a.12.12 0 0 1 .13-.14h3.06v-.77c0-.09.06-.09.13-.09.44 0 .67 0 .67.09z" fill="#08968f"/><path d="m12.54 5.34v-.76c0-.07 0-.1.13-.1.42 0 .63 0 .63.1s0 .12-.08.12-.09.08-.09.18v.46h2.43c.06 0 .1 0 .1.13v.27c0 .09 0 .13-.1.13h-2.43v1.13h3.33c.06 0 .1 0 .1.14v.26c0 .08 0 .13-.1.13h-7.37c-.07 0-.1 0-.1-.13v-.29c.01-.11.01-.11.1-.11h3.45v-1.13h-2.54c-.07 0-.09 0-.09-.13v-.27c0-.08 0-.13.09-.13zm.59-5s.07 0 .07.1v.26c0 .08 0 .12-.07.12h-.72v1.43h.89c.07 0 .11 0 .11.14v.26c0 .1 0 .14-.11.14h-.89v1.72c0 .07-.05.11-.14.11h-.33c-.09 0-.13 0-.13-.11v-1.72h-1.15a.18.18 0 0 0 0 .06 4.11 4.11 0 0 1 -.36 1.15 3.22 3.22 0 0 1 -.42.64h-.06a3.66 3.66 0 0 1 -.53-.17s0 0 0-.09a2.85 2.85 0 0 0 .5-.61 2.5 2.5 0 0 0 .27-.77.55.55 0 0 1 0-.17h-1c-.07 0-.1 0-.1-.14v-.3c0-.09 0-.14.1-.14h1c0-.31 0-.68 0-1.09 0-.08 0-.19 0-.34h-.71s-.07-.04-.07-.12v-.27c0-.06 0-.1.07-.1zm-1.32.48h-1.06v.07 1.36h1.1zm2.95-.16c0 .08 0 .12-.08.12s-.09.08-.09.18v2.59c0 .07 0 .1-.12.1h-.33c-.1 0-.14 0-.14-.1v-2.89c0-.06 0-.1.14-.1.41 0 .62.04.62.1zm1.64-.47c.06 0 .09.06.09.07s0 .08-.1.08-.16.17-.16.39v3.49c0 .4-.31.59-.9.59h-.6c-.05 0-.07 0-.07-.14a1.19 1.19 0 0 0 -.16-.39.05.05 0 0 1 .06-.06 4.62 4.62 0 0 0 .7.06q.36 0 .36-.3v-3.28a3.47 3.47 0 0 0 0-.38.37.37 0 0 1 0-.16s0-.07.17-.07z" fill="#08968f"/><path d="m6 163.79a.27.27 0 0 1 .15 0c.12.11.18.17.18.23l-1.63 1.71v.46h3.22c.07 0 .1.05.1.13v.34c0 .09 0 .13-.1.13h-3.22v1.82c0 .44-.31.67-.93.67h-.62s-.07-.06-.08-.17a1.08 1.08 0 0 0 -.16-.43c0-.05 0-.07.07-.07a3.92 3.92 0 0 0 .79.1.26.26 0 0 0 .3-.29v-1.63h-3.41c-.07 0-.11 0-.11-.13v-.34c0-.08 0-.13.11-.13h3.41v-.89a.12.12 0 0 1 .14-.14l.19.09 1-1h-3.09c-.06 0-.1 0-.1-.14v-.26c0-.09 0-.14.1-.14zm-1.3-2.16a.12.12 0 0 1 -.09.13c-.05 0-.08.07-.08.17v.47h3c.09 0 .14 0 .14.1v1.66c0 .07-.05.1-.14.1h-.27c-.09 0-.14 0-.14-.1v-1.23h-5.77v1.23c0 .07-.05.1-.13.1h-.34c-.09 0-.13 0-.13-.1v-1.63a.12.12 0 0 1 .13-.13h3.06v-.77c0-.06 0-.09.13-.09.44 0 .67.03.67.09z" fill="#08968f"/><path d="m12.54 166.88v-.76c0-.07 0-.1.13-.1.42 0 .63 0 .63.1s0 .12-.08.12-.09.08-.09.18v.46h2.43c.06 0 .1.05.1.13v.27c0 .09 0 .13-.1.13h-2.43v1.1h3.33c.06 0 .1 0 .1.14v.26c0 .08 0 .13-.1.13h-7.37c-.07 0-.1 0-.1-.13v-.26c0-.1 0-.14.1-.14h3.45v-1.1h-2.54c-.07 0-.09 0-.09-.13v-.28c0-.08 0-.13.09-.13zm.59-5s.07 0 .07.09v.28c0 .08 0 .12-.07.12h-.72v1.43h.89c.07 0 .11.05.11.14v.26c0 .1 0 .14-.11.14h-.89v1.72c0 .07-.05.1-.14.1h-.33c-.09 0-.13 0-.13-.1v-1.72h-1.15a.18.18 0 0 0 0 .06 4.11 4.11 0 0 1 -.35 1.18 3.22 3.22 0 0 1 -.42.64h-.07a3.66 3.66 0 0 1 -.53-.17s0 0 0-.09a2.85 2.85 0 0 0 .5-.61 2.5 2.5 0 0 0 .31-.84.55.55 0 0 1 0-.17h-1c-.07 0-.1 0-.1-.14v-.26c0-.09 0-.14.1-.14h1c0-.31 0-.68 0-1.09 0-.08 0-.19 0-.34h-.75s-.07 0-.07-.12v-.25c0-.05 0-.09.07-.09zm-1.32.49h-1.06v.07 1.36h1.1zm2.95-.16c0 .08 0 .12-.08.12s-.09.08-.09.18v2.59c0 .07 0 .1-.12.1h-.33c-.1 0-.14 0-.14-.1v-2.9c0-.07 0-.1.14-.1.41 0 .62.03.62.1zm1.64-.47c.06 0 .09.06.09.07s0 .08-.1.08-.16.17-.16.39v3.49c0 .39-.31.59-.9.59h-.6c-.05 0-.07 0-.07-.14a1.32 1.32 0 0 0 -.16-.4s0-.05.06-.05a4.51 4.51 0 0 0 .7.05c.24 0 .36-.09.36-.29v-3.28a3.47 3.47 0 0 0 0-.38.41.41 0 0 1 0-.16s0-.07.17-.07z" fill="#08968f"/><path d="m21 163.93a1.66 1.66 0 0 0 0-.32 13 13 0 0 0 0-2l.91.11a.12.12 0 0 1 -.08.11c-.09.06-.13.11-.13.18 0 .8-.06 1.43-.11 1.9h3.41c.06 0 .1 0 .1.13v.34c0 .08 0 .12-.1.12h-3.22a6.72 6.72 0 0 0 .35 1.07 5.81 5.81 0 0 0 .51 1 4.94 4.94 0 0 0 1.08 1.2 3.66 3.66 0 0 0 1.28.71s.06.05.06.08 0 .09-.1.15a2.94 2.94 0 0 0 -.32.37.16.16 0 0 1 -.15.11 1.72 1.72 0 0 1 -.34-.21 6.44 6.44 0 0 1 -1.56-1.35 5 5 0 0 1 -.74-1.24 6.85 6.85 0 0 1 -.46-1.3c-.05.17-.09.34-.14.5a7.52 7.52 0 0 1 -.59 1.29 5.21 5.21 0 0 1 -.79 1.07 10.8 10.8 0 0 1 -1.78 1.24c-.05 0-.09 0-.12-.1a2.57 2.57 0 0 0 -.33-.33.21.21 0 0 1 -.09-.14c.18-.08.42-.18.71-.33a5.43 5.43 0 0 0 .81-.55 2.93 2.93 0 0 0 .69-.72 4.94 4.94 0 0 0 .62-1 7.15 7.15 0 0 0 .41-1.13c0-.14.06-.27.09-.41h-3.26c-.07 0-.1 0-.1-.12v-.34c0-.09 0-.13.1-.13z" fill="#08968f"/><path d="m28.37 163.93c0 .06 0 .08-.06.08a.29.29 0 0 0 -.2.11 10 10 0 0 1 -.88 2.11 14.79 14.79 0 0 1 -.81 1.25.24.24 0 0 1 -.19-.08 3.48 3.48 0 0 0 -.28-.24c-.05 0-.07-.07-.07-.11.21-.27.41-.56.62-.88a6.91 6.91 0 0 0 .68-1.33 9.86 9.86 0 0 0 .4-1.28s0-.07 0-.07a2.77 2.77 0 0 1 .79.44zm2.09-2.29c.07 0 .11.08.11.1s-.05.09-.11.09-.19.19-.19.44v6.27c0 .46-.33.7-1 .7h-.79c-.06 0-.07-.06-.07-.17a2.06 2.06 0 0 0 -.16-.42c0-.07 0-.11.06-.11a4.32 4.32 0 0 0 .9.11c.26 0 .4-.11.4-.31v-6.1a2.31 2.31 0 0 0 0-.45.74.74 0 0 1 0-.19s.05-.06.17-.06zm1.75 2a11 11 0 0 0 .44 1.5 10.25 10.25 0 0 0 .93 1.95.59.59 0 0 1 .05.12s-.2.16-.57.33c-.05 0-.08 0-.1 0a13.15 13.15 0 0 1 -1-2.11 12.92 12.92 0 0 1 -.42-1.52c0-.06.19-.14.57-.27.07-.08.09-.06.1-.03z" fill="#08968f"/><g fill="#474647"><path d="m328.8 174.42v2.67h3.57v.78h-3.57v3.63h-.8v-7.88h4.89v.8z"/><path d="m338.34 180.89a2.94 2.94 0 0 1 -3.81 0 2.52 2.52 0 0 1 -.82-2 2.8 2.8 0 0 1 .75-2 2.84 2.84 0 0 1 4 0 2.89 2.89 0 0 1 .75 2 2.55 2.55 0 0 1 -.87 2zm-.53-3.44a1.93 1.93 0 0 0 -2.76 0 2.13 2.13 0 0 0 -.51 1.46 1.82 1.82 0 0 0 1.89 1.9 1.85 1.85 0 0 0 1.36-.52 1.79 1.79 0 0 0 .54-1.38 2.14 2.14 0 0 0 -.52-1.46z"/><path d="m344 181.5v-3c0-1.06-.45-1.58-1.35-1.58a2.06 2.06 0 0 0 -1.79 1.05v3.56h-.86v-5.32h.84v.79a2.36 2.36 0 0 1 1.86-.85c1.41 0 2.12.79 2.12 2.37v3z"/><path d="m347.33 177v3.18c0 .37.16.55.47.55h.92v.79h-.92a1.25 1.25 0 0 1 -1-.33 1.67 1.67 0 0 1 -.29-1.09v-3.1h-1v-.78h1v-1.45h.83v1.45h1.44v.78z"/><path d="m349.5 179.23v-.75h3v.75z"/><path d="m357.18 181.14a2.49 2.49 0 0 1 -1.52.45 2.66 2.66 0 0 1 -2.41-1.27l.81-.34a1.75 1.75 0 0 0 1.6.82 1.66 1.66 0 0 0 1-.29.62.62 0 0 0 .34-.51c0-.35-.54-.65-1.62-.91a5.39 5.39 0 0 1 -1.4-.48 1.13 1.13 0 0 1 -.65-1 1.29 1.29 0 0 1 .68-1.21 2.52 2.52 0 0 1 1.33-.31 2.59 2.59 0 0 1 2.29 1.1l-.77.33a1.78 1.78 0 0 0 -1.52-.66c-.79 0-1.18.26-1.18.75 0 .14.18.29.54.43l.94.3a11.94 11.94 0 0 1 1.41.52 1.29 1.29 0 0 1 .78 1.16 1.34 1.34 0 0 1 -.65 1.12z"/><path d="m359.57 174.58v-1h.91v1zm0 6.91v-5.28h.84v5.28z"/><path d="m362.2 181.49v-.72l3.05-3.79h-3v-.78h4v.73l-3 3.78h3v.78z"/><path d="m367.66 179a2.2 2.2 0 0 0 .47 1.39 1.3 1.3 0 0 0 1 .47 1.74 1.74 0 0 0 1.54-1l.74.38a2.59 2.59 0 0 1 -2.28 1.41 2.07 2.07 0 0 1 -1.74-.8 3.09 3.09 0 0 1 -.61-2 2.75 2.75 0 0 1 .72-2 2.34 2.34 0 0 1 3.27 0 2.56 2.56 0 0 1 .69 1.84v.31zm1.55-2.09a1.48 1.48 0 0 0 -1.49 1.3h2.91c-.21-.9-.63-1.34-1.42-1.34z"/><path d="m415.27 181.48-.93-2.24h-3.86l-.92 2.24h-.88l3.28-7.86h.91l3.27 7.86zm-2.86-6.88-1.6 3.86h3.19z"/><path d="m421.22 180.93a2.35 2.35 0 0 1 -1.7.66 2.14 2.14 0 0 1 -1.87-.94v2.46h-.84v-6.93h.84v.82a2.13 2.13 0 0 1 1.82-.93 2.32 2.32 0 0 1 1.82.75 3.23 3.23 0 0 1 -.07 4.08zm-.52-3.53a1.5 1.5 0 0 0 -1.23-.53 1.67 1.67 0 0 0 -1.3.58 2.13 2.13 0 0 0 -.52 1.52 1.7 1.7 0 0 0 .61 1.37 1.88 1.88 0 0 0 1.26.47 1.52 1.52 0 0 0 1.1-.43 2.1 2.1 0 0 0 .52-1.55 2.2 2.2 0 0 0 -.44-1.43z"/><path d="m427.23 180.93a2.34 2.34 0 0 1 -1.7.66 2.15 2.15 0 0 1 -1.87-.94v2.46h-.84v-6.93h.84v.82a2.13 2.13 0 0 1 1.82-.93 2.32 2.32 0 0 1 1.82.75 2.88 2.88 0 0 1 .69 2 2.82 2.82 0 0 1 -.76 2.11zm-.51-3.53a1.53 1.53 0 0 0 -1.24-.53 1.64 1.64 0 0 0 -1.29.58 2.14 2.14 0 0 0 -.53 1.52 1.7 1.7 0 0 0 .61 1.37 1.88 1.88 0 0 0 1.26.47 1.52 1.52 0 0 0 1.1-.43 2.1 2.1 0 0 0 .52-1.55 2.26 2.26 0 0 0 -.43-1.43z"/><path d="m429.93 181.5v-7.85h.84v7.85z"/><path d="m435 181.89a2 2 0 0 1 -.7 1 2.27 2.27 0 0 1 -1.23.3v-.83a1.89 1.89 0 0 0 .78-.14 1.46 1.46 0 0 0 .37-.59l.18-.47-1.94-4.92h.88l1.5 3.79 1.51-3.79h.89z"/><path d="m340.77 219.1v1.9h-.85v-1.9h-3.26v-.81l3.33-5.14h.78v5.18h1.07v.77zm-.85-4.44-2.4 3.67h2.4z"/><path d="m345.64 221.13a1.88 1.88 0 0 1 -1.27-.47 2.23 2.23 0 0 1 -.66-.94l.75-.33a1.28 1.28 0 0 0 1.18 1c1.06 0 1.63-.95 1.74-2.85a2.19 2.19 0 0 1 -1.66.77 2.14 2.14 0 0 1 -1.64-.63 2.5 2.5 0 0 1 -.61-1.79 3.14 3.14 0 0 1 .58-1.93 2 2 0 0 1 1.74-.87 2.05 2.05 0 0 1 2 1.28 7.13 7.13 0 0 1 .43 2.84q0 3.92-2.58 3.92zm.15-7.3a1.3 1.3 0 0 0 -1.08.56 2.36 2.36 0 0 0 -.41 1.46c0 1.1.49 1.65 1.5 1.65a1.93 1.93 0 0 0 1.58-1c-.05-1.77-.57-2.67-1.59-2.67z"/><path d="m354 220.45a2.3 2.3 0 0 1 -1.7.66 2.17 2.17 0 0 1 -1.87-.93v2.46h-.84v-6.94h.84v.86a2.11 2.11 0 0 1 1.82-.94 2.29 2.29 0 0 1 1.82.76 2.83 2.83 0 0 1 .69 2 2.8 2.8 0 0 1 -.76 2.07zm-.51-3.52a1.53 1.53 0 0 0 -1.24-.53 1.61 1.61 0 0 0 -1.25.6 2.14 2.14 0 0 0 -.53 1.52 1.72 1.72 0 0 0 .61 1.37 1.87 1.87 0 0 0 1.26.46 1.48 1.48 0 0 0 1.1-.43 2.08 2.08 0 0 0 .52-1.55 2.25 2.25 0 0 0 -.43-1.44z"/><path d="m360.05 221-1.9-2.34-1.91 2.34h-1l2.39-2.94-1.9-2.36h1l1.43 1.77 1.42-1.77h.95l-1.89 2.36 2.36 2.94z"/><path d="m412.26 214v7h-.82v-7h-2.7v-.79h6.26v.79z"/><path d="m416.75 214.11v-1h.91v1zm0 6.91v-5.28h.84v5.26z"/><path d="m421.22 216.51v3.18c0 .37.16.55.47.55h.92v.76h-.92a1.26 1.26 0 0 1 -1-.34 1.64 1.64 0 0 1 -.29-1.09v-3.09h-1v-.78h1v-1.45h.83v1.45h1.44v.78z"/><path d="m424.49 221v-7.86h.84v7.86z"/><path d="m428.1 218.49a2.2 2.2 0 0 0 .47 1.39 1.3 1.3 0 0 0 1 .47 1.71 1.71 0 0 0 1.53-1l.75.37a2.58 2.58 0 0 1 -2.28 1.42 2.08 2.08 0 0 1 -1.74-.81 3 3 0 0 1 -.61-2 2.79 2.79 0 0 1 .72-2 2.22 2.22 0 0 1 1.67-.68 2.18 2.18 0 0 1 1.6.66 2.55 2.55 0 0 1 .69 1.84v.37zm1.55-2.09a1.48 1.48 0 0 0 -1.49 1.3h2.91c-.21-.87-.68-1.3-1.42-1.3z"/><path d="m414.44 271.93-3.33-3.8-1.05 1v2.77h-.84v-7.88h.84v4l4.09-4h1.09l-3.56 3.52 3.82 4.36z"/><path d="m416.94 269.39a2.2 2.2 0 0 0 .47 1.39 1.3 1.3 0 0 0 1 .47 1.71 1.71 0 0 0 1.53-1l.75.37a2.58 2.58 0 0 1 -2.28 1.42 2.07 2.07 0 0 1 -1.74-.8 3.09 3.09 0 0 1 -.61-2 2.75 2.75 0 0 1 .72-2 2.32 2.32 0 0 1 3.27 0 2.56 2.56 0 0 1 .69 1.84v.37zm1.55-2.09a1.48 1.48 0 0 0 -1.49 1.3h2.91c-.21-.86-.68-1.3-1.42-1.3z"/><path d="m423.8 272.32a2.08 2.08 0 0 1 -.69 1 2.43 2.43 0 0 1 -1.24.3v-.83a1.68 1.68 0 0 0 .78-.15 1.34 1.34 0 0 0 .35-.64l.18-.47-1.94-4.92h.89l1.5 3.79 1.51-3.79h.86z"/><path d="m431.08 271.26a2.11 2.11 0 0 1 -1.64.76 2.3 2.3 0 0 1 -1.95-1v.87h-.84v-7.89h.84v3.38a2.32 2.32 0 0 1 1.88-.91 2.23 2.23 0 0 1 1.76.79 2.82 2.82 0 0 1 .69 1.91 2.94 2.94 0 0 1 -.74 2.09zm-.56-3.43a1.54 1.54 0 0 0 -1.22-.54 1.67 1.67 0 0 0 -1.29.59 2 2 0 0 0 -.52 1.44 1.85 1.85 0 0 0 .55 1.44 1.83 1.83 0 0 0 1.32.48 1.49 1.49 0 0 0 1.15-.55 2.21 2.21 0 0 0 .47-1.48 2.13 2.13 0 0 0 -.46-1.38z"/><path d="m437.17 271.32a3 3 0 0 1 -3.82 0 2.51 2.51 0 0 1 -.81-2 2.84 2.84 0 0 1 .74-2 2.64 2.64 0 0 1 2-.81 2.61 2.61 0 0 1 2 .81 2.88 2.88 0 0 1 .74 2 2.54 2.54 0 0 1 -.85 2zm-.53-3.44a1.83 1.83 0 0 0 -1.38-.58 1.8 1.8 0 0 0 -1.38.58 2.07 2.07 0 0 0 -.51 1.46 1.82 1.82 0 0 0 1.89 1.9 1.86 1.86 0 0 0 1.36-.52 1.79 1.79 0 0 0 .54-1.38 2.12 2.12 0 0 0 -.52-1.46z"/><path d="m442.63 272a2.5 2.5 0 0 1 -.16-.77v-.13a2.66 2.66 0 0 1 -2.05 1 1.87 1.87 0 0 1 -1.2-.37 1.21 1.21 0 0 1 -.51-1 1.57 1.57 0 0 1 .91-1.49 7 7 0 0 1 2.85-.53 1.25 1.25 0 0 0 -1.34-1.32 1.42 1.42 0 0 0 -1.3.7l-.81-.36a2.24 2.24 0 0 1 2.11-1.12 2.07 2.07 0 0 1 1.63.62 2.41 2.41 0 0 1 .55 1.66v2.38a2.07 2.07 0 0 0 .13.77zm-3.08-1.31a.52.52 0 0 0 .2.42 1 1 0 0 0 .67.23 1.94 1.94 0 0 0 1.36-.54 2.23 2.23 0 0 0 .69-1.37c-1.95-.03-2.92.39-2.92 1.21z"/><path d="m445.82 267.77a1.66 1.66 0 0 0 -.59 1.34v2.82h-.82v-5.39h.82v1a1.89 1.89 0 0 1 .9-.79 3.15 3.15 0 0 1 1.15-.19v.75a2.38 2.38 0 0 0 -1.46.46z"/><path d="m452.12 272v-.88a2.06 2.06 0 0 1 -1.92 1 2.13 2.13 0 0 1 -1.64-.73 2.87 2.87 0 0 1 -.73-2 2.82 2.82 0 0 1 .67-1.93 2.22 2.22 0 0 1 1.76-.81 2.13 2.13 0 0 1 1.86 1v-3.42h.88v7.77zm-.5-4.05a1.66 1.66 0 0 0 -1.28-.6 1.5 1.5 0 0 0 -1.22.57 2.12 2.12 0 0 0 -.47 1.39 2 2 0 0 0 .5 1.47 1.41 1.41 0 0 0 1.12.52 1.73 1.73 0 0 0 1.85-1.88 2.26 2.26 0 0 0 -.5-1.52z"/><path d="m413.54 319.39a3.6 3.6 0 0 1 -2 .54 2.52 2.52 0 0 1 -2.76-2l.78-.31a1.87 1.87 0 0 0 2 1.55 2.55 2.55 0 0 0 1.56-.42 1.25 1.25 0 0 0 .55-1c0-.46-.3-.84-.89-1.17a11.15 11.15 0 0 0 -1.47-.56 5.48 5.48 0 0 1 -1.58-.73 1.55 1.55 0 0 1 -.71-1.33 1.77 1.77 0 0 1 .78-1.58 3.13 3.13 0 0 1 1.81-.46 3 3 0 0 1 1.94.56 2.88 2.88 0 0 1 .75 1.16l-.77.32a2.26 2.26 0 0 0 -.53-.96 2.14 2.14 0 0 0 -1.4-.4c-1.18 0-1.76.42-1.76 1.26 0 .34.26.66.79.92a9.69 9.69 0 0 0 1.25.47 7.39 7.39 0 0 1 1.75.79 2 2 0 0 1 0 3.31z"/><path d="m419.19 319.83v-1a2.74 2.74 0 0 1 -1.95 1.06c-1.39 0-2.08-.76-2.08-2.29v-3.1h.84v3.19a1.5 1.5 0 0 0 .37 1.18 1.32 1.32 0 0 0 .87.22 2.06 2.06 0 0 0 1-.28 2.35 2.35 0 0 0 .94-1v-3.28h.82v5.3z"/><path d="m425.41 319.16a2.18 2.18 0 0 1 -1.65.76 2.33 2.33 0 0 1 -1.95-1v.87h-.81v-7.89h.84v3.38a2.33 2.33 0 0 1 1.88-.91 2.26 2.26 0 0 1 1.77.79 2.86 2.86 0 0 1 .68 1.91 2.94 2.94 0 0 1 -.76 2.09zm-.57-3.43a1.54 1.54 0 0 0 -1.22-.54 1.62 1.62 0 0 0 -1.28.59 2 2 0 0 0 -.53 1.44 1.77 1.77 0 0 0 1.87 1.92 1.46 1.46 0 0 0 1.15-.56 2.16 2.16 0 0 0 .47-1.47 2.13 2.13 0 0 0 -.46-1.38z"/><path d="m428.53 315.31v3.18c0 .37.16.55.47.55h.92v.79h-.92a1.29 1.29 0 0 1 -1-.33 1.67 1.67 0 0 1 -.29-1.09v-3.1h-1v-.78h1v-1.45h.83v1.45h1.46v.78z"/><path d="m431.76 312.91v-1h.91v1zm0 6.91v-5.28h.84v5.28z"/><path d="m436.23 315.31v3.18c0 .37.16.55.47.55h.92v.79h-.92a1.3 1.3 0 0 1 -1-.33 1.68 1.68 0 0 1 -.28-1.09v-3.1h-1v-.78h1v-1.45h.82v1.45h1.44v.78z"/><path d="m439.5 319.83v-7.83h.84v7.85z"/><path d="m443.11 317.29a2.26 2.26 0 0 0 .47 1.39 1.3 1.3 0 0 0 1 .47 1.74 1.74 0 0 0 1.54-1l.74.37a2.58 2.58 0 0 1 -2.28 1.42 2.08 2.08 0 0 1 -1.74-.81 3 3 0 0 1 -.61-2 2.75 2.75 0 0 1 .72-2 2.2 2.2 0 0 1 1.67-.69 2.18 2.18 0 0 1 1.6.66 2.55 2.55 0 0 1 .69 1.84v.37zm1.55-2.09a1.48 1.48 0 0 0 -1.49 1.3h2.91c-.21-.87-.68-1.3-1.42-1.3z"/><path d="m414.45 363.83v-3.54h-4.39v3.54h-.84v-7.83h.84v3.53h4.39v-3.53h.84v7.87z"/><path d="m417.21 361.3a2.32 2.32 0 0 0 .47 1.39 1.32 1.32 0 0 0 1.05.47 1.72 1.72 0 0 0 1.53-1l.74.37a2.57 2.57 0 0 1 -2.27 1.42 2.06 2.06 0 0 1 -1.74-.8 3.09 3.09 0 0 1 -.61-2 2.74 2.74 0 0 1 .71-2 2.22 2.22 0 0 1 1.67-.69 2.19 2.19 0 0 1 1.61.66 2.6 2.6 0 0 1 .68 1.84v.37zm1.55-2.09a1.48 1.48 0 0 0 -1.49 1.3h2.92c-.19-.86-.69-1.3-1.43-1.3z"/><path d="m425.7 363.86a2.5 2.5 0 0 1 -.16-.77v-.09a2.66 2.66 0 0 1 -2.05 1 1.87 1.87 0 0 1 -1.2-.37 1.22 1.22 0 0 1 -.52-1 1.56 1.56 0 0 1 .92-1.49 7 7 0 0 1 2.85-.53 1.25 1.25 0 0 0 -1.34-1.32 1.42 1.42 0 0 0 -1.3.7l-.81-.36a2.23 2.23 0 0 1 2.11-1.12 2.07 2.07 0 0 1 1.63.62 2.41 2.41 0 0 1 .55 1.66v2.38a2.07 2.07 0 0 0 .13.77zm-3.09-1.31a.5.5 0 0 0 .21.42 1 1 0 0 0 .67.23 1.91 1.91 0 0 0 1.35-.54 2.19 2.19 0 0 0 .7-1.37c-1.95.02-2.93.44-2.93 1.26z"/><path d="m431.65 363.86v-.86a2.06 2.06 0 0 1 -1.92 1 2.13 2.13 0 0 1 -1.64-.73 3.13 3.13 0 0 1 -.06-4 2.22 2.22 0 0 1 1.76-.81 2.14 2.14 0 0 1 1.86.95v-3.41h.84v7.9zm-.51-4.05a1.63 1.63 0 0 0 -1.27-.6 1.5 1.5 0 0 0 -1.22.57 2.12 2.12 0 0 0 -.47 1.39 2.09 2.09 0 0 0 .49 1.47 1.43 1.43 0 0 0 1.13.52 1.73 1.73 0 0 0 1.85-1.88 2.21 2.21 0 0 0 -.51-1.47z"/><path d="m434.17 361.3a2.26 2.26 0 0 0 .47 1.39 1.3 1.3 0 0 0 1 .47 1.74 1.74 0 0 0 1.54-1l.74.37a2.58 2.58 0 0 1 -2.28 1.42 2.07 2.07 0 0 1 -1.74-.8 3.09 3.09 0 0 1 -.61-2 2.75 2.75 0 0 1 .72-2 2.2 2.2 0 0 1 1.67-.69 2.18 2.18 0 0 1 1.6.66 2.56 2.56 0 0 1 .69 1.84v.37zm1.55-2.09a1.48 1.48 0 0 0 -1.49 1.3h2.91c-.21-.86-.68-1.3-1.42-1.3z"/><path d="m440.27 359.68a1.63 1.63 0 0 0 -.59 1.34v2.82h-.83v-5.39h.83v1a1.89 1.89 0 0 1 .9-.79 3.11 3.11 0 0 1 1.15-.19v.75a2.36 2.36 0 0 0 -1.46.46z"/><path d="m443.54 364.73a2.63 2.63 0 0 1 -.75.84l-.33-.35a1.85 1.85 0 0 0 .81-1.36h-.88v-1.44h1.43v1.32a2.1 2.1 0 0 1 -.28.99z"/><path d="m453.66 363.35a3.67 3.67 0 0 1 -1.91.48h-2.75v-7.83h2.79c1.74 0 2.61.67 2.61 2a1.85 1.85 0 0 1 -1.07 1.74 2 2 0 0 1 1.3 2 1.83 1.83 0 0 1 -.97 1.61zm-1.84-6.59h-2v2.6h1.74a2.43 2.43 0 0 0 1.44-.36 1.14 1.14 0 0 0 .57-1c.04-.84-.57-1.24-1.75-1.24zm1.34 3.71a2.83 2.83 0 0 0 -1.41-.33h-1.9v2.86h1.9a2.72 2.72 0 0 0 1.5-.38 1.16 1.16 0 0 0 .58-1 1.35 1.35 0 0 0 -.67-1.15z"/><path d="m459.66 363.84v-1a2.74 2.74 0 0 1 -2 1.06c-1.39 0-2.07-.76-2.07-2.29v-3.1h.84v3.19a1.5 1.5 0 0 0 .37 1.18 1.27 1.27 0 0 0 .86.23 2 2 0 0 0 1-.29 2.37 2.37 0 0 0 1-1v-3.28h.81v5.3z"/><path d="m463 359.32v3.18c0 .37.16.55.47.55h.92v.79h-.92a1.25 1.25 0 0 1 -1-.33 1.67 1.67 0 0 1 -.29-1.09v-3.1h-1v-.78h1v-1.45h.82v1.45h1.44v.78z"/><path d="m466.69 359.32v3.18c0 .37.15.55.47.55h.92v.79h-.92a1.25 1.25 0 0 1 -1-.33 1.67 1.67 0 0 1 -.29-1.09v-3.1h-1v-.78h1v-1.45h.83v1.45h1.44v.78z"/><path d="m473.36 363.23a3 3 0 0 1 -3.82 0 2.51 2.51 0 0 1 -.81-2 2.84 2.84 0 0 1 .74-2 2.64 2.64 0 0 1 2-.81 2.61 2.61 0 0 1 2 .81 2.88 2.88 0 0 1 .74 2 2.54 2.54 0 0 1 -.85 2zm-.53-3.44a1.93 1.93 0 0 0 -2.76 0 2.13 2.13 0 0 0 -.51 1.46 1.82 1.82 0 0 0 1.89 1.9 1.86 1.86 0 0 0 1.36-.52 1.79 1.79 0 0 0 .54-1.38 2.14 2.14 0 0 0 -.52-1.46z"/><path d="m479 363.84v-3c0-1.06-.46-1.58-1.36-1.58a2.06 2.06 0 0 0 -1.78 1v3.56h-.86v-5.32h.84v.77a2.37 2.37 0 0 1 1.86-.86c1.41 0 2.12.8 2.12 2.38v3z"/><path d="m412.26 397.87v7.07h-.82v-7.07h-2.7v-.79h6.26v.79z"/><path d="m419.48 405a2.5 2.5 0 0 1 -.16-.77v-.13a2.65 2.65 0 0 1 -2.05 1 1.89 1.89 0 0 1 -1.2-.37 1.24 1.24 0 0 1 -.51-1 1.57 1.57 0 0 1 .91-1.49 7 7 0 0 1 2.85-.53 1.24 1.24 0 0 0 -1.34-1.32 1.41 1.41 0 0 0 -1.29.7l-.82-.36a2.24 2.24 0 0 1 2.11-1.11 2.06 2.06 0 0 1 1.63.61 2.43 2.43 0 0 1 .55 1.66v2.38a1.89 1.89 0 0 0 .14.77zm-3.08-1.31a.52.52 0 0 0 .2.42.93.93 0 0 0 .67.23 1.92 1.92 0 0 0 1.36-.54 2.23 2.23 0 0 0 .69-1.37c-1.95-.02-2.92.4-2.92 1.22z"/><path d="m425.7 404.27a2.14 2.14 0 0 1 -1.65.76 2.31 2.31 0 0 1 -1.95-1v.87h-.84v-7.89h.84v3.39a2.33 2.33 0 0 1 1.88-.92 2.23 2.23 0 0 1 1.76.79 2.82 2.82 0 0 1 .69 1.91 2.92 2.92 0 0 1 -.73 2.09zm-.57-3.43a1.54 1.54 0 0 0 -1.22-.54 1.64 1.64 0 0 0 -1.28.59 2.07 2.07 0 0 0 -.53 1.44 1.77 1.77 0 0 0 1.87 1.92 1.48 1.48 0 0 0 1.15-.55 2.19 2.19 0 0 0 .47-1.48 2.13 2.13 0 0 0 -.46-1.38z"/><path d="m428.37 404.94v-7.85h.84v7.85z"/><path d="m432 402.4a2.25 2.25 0 0 0 .46 1.39 1.33 1.33 0 0 0 1.05.47 1.7 1.7 0 0 0 1.53-1l.75.38a2.6 2.6 0 0 1 -2.29 1.36 2.06 2.06 0 0 1 -1.74-.8 3.09 3.09 0 0 1 -.61-2 2.75 2.75 0 0 1 .72-2 2.17 2.17 0 0 1 1.66-.68 2.15 2.15 0 0 1 1.61.66 2.51 2.51 0 0 1 .68 1.83v.37zm1.54-2.09a1.47 1.47 0 0 0 -1.48 1.3h2.94c-.26-.86-.72-1.3-1.47-1.3z"/><path d="m341 319.3a2.57 2.57 0 0 1 -1.76.63 2.15 2.15 0 0 1 -2.37-1.82l.79-.28a1.44 1.44 0 0 0 1.58 1.32 1.67 1.67 0 0 0 1.19-.42 1.32 1.32 0 0 0 .45-1 1.54 1.54 0 0 0 -.43-1.1 1.52 1.52 0 0 0 -1.09-.45h-.92v-.78h.8a1.31 1.31 0 0 0 .93-.47 1.46 1.46 0 0 0 .46-1c0-.85-.44-1.28-1.33-1.28a1.31 1.31 0 0 0 -1.38 1.26l-.78-.26a2.27 2.27 0 0 1 .66-1.24 2.11 2.11 0 0 1 1.5-.54 2.21 2.21 0 0 1 1.58.56 2 2 0 0 1 .58 1.5 1.88 1.88 0 0 1 -1.09 1.75 2 2 0 0 1 1 .78 2.27 2.27 0 0 1 .36 1.27 2 2 0 0 1 -.73 1.57z"/><path d="m347.56 319.3a2.57 2.57 0 0 1 -1.76.63 2.16 2.16 0 0 1 -2.38-1.82l.8-.28a1.44 1.44 0 0 0 1.58 1.32 1.68 1.68 0 0 0 1.19-.42 1.32 1.32 0 0 0 .45-1 1.54 1.54 0 0 0 -.43-1.1 1.52 1.52 0 0 0 -1.09-.45h-.92v-.78h.8a1.31 1.31 0 0 0 .93-.47 1.46 1.46 0 0 0 .46-1c0-.85-.44-1.28-1.33-1.28a1.31 1.31 0 0 0 -1.38 1.26l-.78-.26a2.27 2.27 0 0 1 .66-1.24 2.11 2.11 0 0 1 1.5-.54 2.21 2.21 0 0 1 1.58.56 2 2 0 0 1 .58 1.5 1.88 1.88 0 0 1 -1.09 1.75 2 2 0 0 1 1 .78 2.27 2.27 0 0 1 .36 1.27 2 2 0 0 1 -.73 1.57z"/><path d="m354 319.26a2.34 2.34 0 0 1 -1.7.66 2.17 2.17 0 0 1 -1.87-.94v2.46h-.84v-6.93h.84v.85a2.11 2.11 0 0 1 1.82-.94 2.32 2.32 0 0 1 1.82.76 3.23 3.23 0 0 1 -.07 4.08zm-.51-3.53a1.53 1.53 0 0 0 -1.24-.53 1.61 1.61 0 0 0 -1.29.58 2.14 2.14 0 0 0 -.53 1.52 1.7 1.7 0 0 0 .61 1.37 1.88 1.88 0 0 0 1.26.47 1.52 1.52 0 0 0 1.1-.43 2.12 2.12 0 0 0 .52-1.55 2.26 2.26 0 0 0 -.39-1.43z"/><path d="m360.05 319.83-1.9-2.34-1.91 2.34h-1l2.39-2.94-1.9-2.36h1l1.43 1.78 1.42-1.78h.95l-1.89 2.36 2.38 2.94z"/><path d="m341 271.41a2.56 2.56 0 0 1 -1.76.62 2.15 2.15 0 0 1 -2.37-1.82l.79-.28a1.44 1.44 0 0 0 1.58 1.32 1.67 1.67 0 0 0 1.19-.42 1.32 1.32 0 0 0 .45-1 1.54 1.54 0 0 0 -.43-1.1 1.51 1.51 0 0 0 -1.09-.44h-.92v-.78h.8a1.32 1.32 0 0 0 .93-.48 1.46 1.46 0 0 0 .46-1c0-.85-.44-1.28-1.33-1.28a1.31 1.31 0 0 0 -1.38 1.26l-.78-.26a2.27 2.27 0 0 1 .66-1.24 2.11 2.11 0 0 1 1.5-.54 2.21 2.21 0 0 1 1.58.56 2 2 0 0 1 .58 1.5 1.88 1.88 0 0 1 -1.09 1.75 2 2 0 0 1 1 .78 2.27 2.27 0 0 1 .36 1.27 2 2 0 0 1 -.73 1.58z"/><path d="m347.73 271.43a3.21 3.21 0 0 1 -3.74 0 2.09 2.09 0 0 1 -.67-1.66 2.33 2.33 0 0 1 1.38-2.17 1.79 1.79 0 0 1 -1.11-1.68 1.83 1.83 0 0 1 .61-1.45 2.91 2.91 0 0 1 3.29 0 1.91 1.91 0 0 1 -.49 3.13 2.36 2.36 0 0 1 1.38 2.17 2.15 2.15 0 0 1 -.65 1.66zm-.66-3a1.76 1.76 0 0 0 -1.24-.45 1.69 1.69 0 0 0 -1.22.45 1.64 1.64 0 0 0 -.45 1.27 1.44 1.44 0 0 0 .39 1.06 1.69 1.69 0 0 0 1.32.46c1.1 0 1.67-.5 1.67-1.52a1.65 1.65 0 0 0 -.47-1.24zm-1.22-3.72c-1 0-1.42.42-1.42 1.24a1.08 1.08 0 0 0 .42.89 1.45 1.45 0 0 0 1 .36 1.51 1.51 0 0 0 1-.36 1.14 1.14 0 0 0 .39-.89c.02-.79-.46-1.21-1.39-1.21z"/><path d="m354 271.36a2.34 2.34 0 0 1 -1.7.66 2.15 2.15 0 0 1 -1.87-.94v2.46h-.84v-6.93h.84v.85a2.14 2.14 0 0 1 1.82-.94 2.32 2.32 0 0 1 1.82.76 2.88 2.88 0 0 1 .69 2 2.82 2.82 0 0 1 -.76 2.08zm-.51-3.53a1.53 1.53 0 0 0 -1.24-.53 1.64 1.64 0 0 0 -1.29.58 2.14 2.14 0 0 0 -.53 1.52 1.7 1.7 0 0 0 .61 1.37 1.88 1.88 0 0 0 1.26.47 1.52 1.52 0 0 0 1.1-.43 2.12 2.12 0 0 0 .52-1.55 2.26 2.26 0 0 0 -.39-1.43z"/><path d="m360.05 271.93-1.9-2.34-1.91 2.34h-1l2.39-2.93-1.9-2.37h1l1.43 1.78 1.42-1.78h.95l-1.9 2.37 2.38 2.93z"/><path d="m341.11 359.37a12.08 12.08 0 0 1 -1.29 1.36 6.38 6.38 0 0 0 -1.8 2.33h3.63v.78h-4.79a5.9 5.9 0 0 1 .89-2 10.4 10.4 0 0 1 1.52-1.68 8.33 8.33 0 0 0 1.19-1.25 1.81 1.81 0 0 0 .37-1.05 1.07 1.07 0 0 0 -.38-.84 1.88 1.88 0 0 0 -1.23-.37q-1.47 0-1.59 1.89l-.79-.31a2.81 2.81 0 0 1 .74-1.73 2.18 2.18 0 0 1 1.64-.63 2.92 2.92 0 0 1 1.78.51 1.85 1.85 0 0 1 .66 1.48 2.6 2.6 0 0 1 -.55 1.51z"/><path d="m347.73 363.34a3.21 3.21 0 0 1 -3.74 0 2.09 2.09 0 0 1 -.67-1.66 2.34 2.34 0 0 1 1.38-2.17 1.79 1.79 0 0 1 -1.11-1.68 1.83 1.83 0 0 1 .61-1.45 2.91 2.91 0 0 1 3.29 0 1.91 1.91 0 0 1 -.49 3.13 2.37 2.37 0 0 1 1.38 2.17 2.15 2.15 0 0 1 -.65 1.66zm-.66-3a1.76 1.76 0 0 0 -1.24-.45 1.69 1.69 0 0 0 -1.22.45 1.66 1.66 0 0 0 -.45 1.27 1.44 1.44 0 0 0 .39 1.06 1.69 1.69 0 0 0 1.32.46c1.1 0 1.67-.5 1.67-1.52a1.67 1.67 0 0 0 -.47-1.24zm-1.22-3.72c-1 0-1.42.42-1.42 1.24a1.08 1.08 0 0 0 .42.89 1.45 1.45 0 0 0 1 .36 1.51 1.51 0 0 0 1-.36 1.14 1.14 0 0 0 .39-.89c.02-.79-.46-1.21-1.39-1.21z"/><path d="m354 363.27a2.34 2.34 0 0 1 -1.7.66 2.15 2.15 0 0 1 -1.87-.94v2.46h-.84v-6.93h.84v.85a2.14 2.14 0 0 1 1.82-.94 2.32 2.32 0 0 1 1.82.76 2.88 2.88 0 0 1 .69 2 2.82 2.82 0 0 1 -.76 2.08zm-.51-3.53a1.53 1.53 0 0 0 -1.24-.53 1.64 1.64 0 0 0 -1.29.58 2.14 2.14 0 0 0 -.53 1.52 1.7 1.7 0 0 0 .61 1.37 1.88 1.88 0 0 0 1.26.47 1.52 1.52 0 0 0 1.1-.43 2.12 2.12 0 0 0 .52-1.55 2.26 2.26 0 0 0 -.39-1.43z"/><path d="m360.05 363.84-1.9-2.34-1.91 2.34h-1l2.39-2.93-1.9-2.37h1l1.43 1.78 1.42-1.78h.95l-1.89 2.37 2.38 2.93z"/></g><path d="m1.43 33.19a.57.57 0 0 1 -.43-.19.5.5 0 0 1 -.15-.39.64.64 0 0 1 .15-.4.66.66 0 0 1 .42-.13h7.5v-1.87a.54.54 0 0 1 .13-.4.61.61 0 0 1 .8 0 .49.49 0 0 1 .17.4v1.91h7.64a.62.62 0 0 1 .39.11.58.58 0 0 1 .14.42.48.48 0 0 1 -.14.37.45.45 0 0 1 -.39.17h-2.66a17.39 17.39 0 0 1 -4.75 9 25.48 25.48 0 0 0 7.44 3.89.6.6 0 0 1 .41.3.65.65 0 0 1 0 .44.54.54 0 0 1 -.28.34.85.85 0 0 1 -.5 0 21.76 21.76 0 0 1 -7.84-4.36 26.16 26.16 0 0 1 -2.4 1.76 30.62 30.62 0 0 1 -5.52 2.59.88.88 0 0 1 -.51 0 .5.5 0 0 1 -.3-.32.56.56 0 0 1 0-.44.6.6 0 0 1 .37-.34 32.64 32.64 0 0 0 5.75-2.61l1.84-1.34a13.28 13.28 0 0 1 -1.82-2.29 19.72 19.72 0 0 1 -2.82-6.62zm8.05 8.27 1.12-1.14a15.48 15.48 0 0 0 3.32-7.13h-8.75a16.83 16.83 0 0 0 3.83 7.81z" fill="#444344"/><path d="m22.15 42.87a.58.58 0 0 1 -.42-.15.56.56 0 0 1 -.13-.39.62.62 0 0 1 .13-.4.58.58 0 0 1 .42-.15h6v-.87a.49.49 0 0 0 -.55-.55h-3.6a1.38 1.38 0 0 1 -1.08-.43 1.61 1.61 0 0 1 -.37-1v-8.21a.67.67 0 0 1 .15-.44.64.64 0 0 1 .39-.17.75.75 0 0 1 .38.15.61.61 0 0 1 .17.46v7.9a.77.77 0 0 0 .15.49.58.58 0 0 0 .49.17h3.58a1.33 1.33 0 0 1 1 .4 1.36 1.36 0 0 1 .36 1v6a.62.62 0 0 1 -.17.44.76.76 0 0 1 -.4.15 1.07 1.07 0 0 1 -.38-.13.72.72 0 0 1 -.15-.46v-3.8h-3.21a7.7 7.7 0 0 1 -.66 2.12q-.91 2-1.65 2.16a.53.53 0 0 1 -.36-.15c-.32-.29-.34-.55-.07-.76a6.1 6.1 0 0 0 1.64-3.39zm4.61-4.29a1.3 1.3 0 0 1 -1-.39 1.43 1.43 0 0 1 -.28-.93v-5.52a1.14 1.14 0 0 1 .36-.95 1.27 1.27 0 0 1 .94-.37h6.92a1.25 1.25 0 0 1 1 .35 1.4 1.4 0 0 1 .35 1v5.52a1.35 1.35 0 0 1 -.35 1 1.3 1.3 0 0 1 -1 .37zm7.24-5.73v-.75a.67.67 0 0 0 -.17-.44.73.73 0 0 0 -.51-.17h-6.2a.44.44 0 0 0 -.43.17.6.6 0 0 0 -.15.44v.75zm0 2.29v-1.21h-7.46v1.21zm-7.41 1.08v.59a.92.92 0 0 0 .15.53.48.48 0 0 0 .43.17h6.15a.92.92 0 0 0 .49-.19 1 1 0 0 0 .19-.51v-.59zm5.84 6.58v3.87a.62.62 0 0 1 -.17.44.76.76 0 0 1 -.38.15 1 1 0 0 1 -.4-.13.72.72 0 0 1 -.15-.46v-6.14a1.21 1.21 0 0 1 .3-.91 1.15 1.15 0 0 1 1-.34h3.57a.82.82 0 0 0 .59-.19.83.83 0 0 0 .19-.6v-7.77a.67.67 0 0 1 .15-.44.64.64 0 0 1 .38-.17.74.74 0 0 1 .39.15.61.61 0 0 1 .17.46v8.22a1.82 1.82 0 0 1 -.34 1 1.44 1.44 0 0 1 -1.09.38h-3.64a.51.51 0 0 0 -.58.57v.77h6.16a.57.57 0 0 1 .4.13.75.75 0 0 1 .13.42.69.69 0 0 1 -.13.38.51.51 0 0 1 -.4.17h-1.48v3.87a.58.58 0 0 1 -.17.44.69.69 0 0 1 -.37.15.94.94 0 0 1 -.4-.13.67.67 0 0 1 -.15-.46v-3.83z" fill="#444344"/><path d="m44.76 46.56a1.62 1.62 0 0 1 -1.09-.38 1.17 1.17 0 0 1 -.38-1v-13.38a1.5 1.5 0 0 1 .38-1.08 1.54 1.54 0 0 1 1.09-.38h12.69a1.2 1.2 0 0 1 1 .4 1.88 1.88 0 0 1 .34 1.06v13.42a1.26 1.26 0 0 1 -.36 1 1.32 1.32 0 0 1 -1 .38zm12-1.08h.17a.73.73 0 0 0 .61-.24.81.81 0 0 0 .2-.57v-12.53a.67.67 0 0 0 -.81-.72h-11.86a.65.65 0 0 0 -.53.21.67.67 0 0 0 -.16.51v12.53a.81.81 0 0 0 .18.62.62.62 0 0 0 .51.19h.26l-.17-.28a.5.5 0 0 1 .06-.42.61.61 0 0 1 .39-.26 10.45 10.45 0 0 0 2.9-1.1.57.57 0 0 1 .45-.07.51.51 0 0 1 .32.28.42.42 0 0 1 .06.42c-.19.41-1.21.9-3.05 1.43h9.48l-1.44-.62a5.51 5.51 0 0 1 -1.66-.72.37.37 0 0 1 -.08-.38.57.57 0 0 1 .25-.36.54.54 0 0 1 .45 0c2.21.73 3.4 1.28 3.52 1.58a.61.61 0 0 1 0 .42zm-9.86-2.34a1.15 1.15 0 0 1 -1-.38 1.17 1.17 0 0 1 -.29-.87v-4.67a1.25 1.25 0 0 1 .36-.89 1.14 1.14 0 0 1 .93-.33h8.28a1.21 1.21 0 0 1 .91.34 1.48 1.48 0 0 1 .34.89v4.67a1.28 1.28 0 0 1 -.36.87 1.19 1.19 0 0 1 -.89.38zm.17-8a1.08 1.08 0 0 1 -.72-.26.81.81 0 0 1 -.24-.67v-1a1.07 1.07 0 0 1 .24-.66 1 1 0 0 1 .72-.32h8a.87.87 0 0 1 .68.32 1.05 1.05 0 0 1 .22.66v1a1.06 1.06 0 0 1 -.24.65 1 1 0 0 1 -.66.28zm8.26 3v-.7a.59.59 0 0 0 -.17-.42.73.73 0 0 0 -.49-.15h-7.35a.56.56 0 0 0 -.44.14.6.6 0 0 0 -.13.43v.7zm0 2.06v-1.2h-8.58v1.19zm-8.58.87v.55a.85.85 0 0 0 .13.49.57.57 0 0 0 .44.17h7.35a.84.84 0 0 0 .47-.17.82.82 0 0 0 .19-.49v-.55zm.92-8a.41.41 0 0 0 -.35.13.42.42 0 0 0 -.14.38v.29a.34.34 0 0 0 .14.32l.35.09h6.81a.38.38 0 0 0 .3-.11l.12-.3v-.29l-.1-.38a.35.35 0 0 0 -.32-.13z" fill="#444344"/><path d="m64.09 31.57a1.21 1.21 0 0 1 .32-.93 1.15 1.15 0 0 1 .91-.3h3a1.31 1.31 0 0 1 1 .36 1.24 1.24 0 0 1 .34.94v3.52a1.29 1.29 0 0 1 1.1.7 2.64 2.64 0 0 1 -.19 2 .57.57 0 0 1 -.29.38.49.49 0 0 1 -.41 0 .51.51 0 0 1 -.31-.74c.21-.51.27-.83.17-1a1 1 0 0 0 -.85-.38h-3.41a1 1 0 0 0 -.78.3 1 1 0 0 0 -.24.74v.47a.65.65 0 0 1 -.17.46l-.38.15a.7.7 0 0 1 -.4-.17.73.73 0 0 1 -.15-.44v-.81a1.62 1.62 0 0 1 .51-1.31l.23-.2zm1.4 15a.64.64 0 0 1 -.17.44.58.58 0 0 1 -.4.15.62.62 0 0 1 -.38-.13.75.75 0 0 1 -.15-.46v-7.8a1.27 1.27 0 0 1 1.34-1.34h2.59a1.24 1.24 0 0 1 1 .4 1.67 1.67 0 0 1 .32 1v6.77a1.66 1.66 0 0 1 -.28 1.06 1.08 1.08 0 0 1 -.81.4c-1.16.09-1.85 0-2.06-.33a.55.55 0 0 1 .15-.79.66.66 0 0 1 .47-.09 4.33 4.33 0 0 0 1 .11.44.44 0 0 0 .36-.19l.08-.55v-1.22h-3.06zm.56-11.38v-1.43a1.26 1.26 0 0 1 .33-.92 1.13 1.13 0 0 1 .9-.33h1.25v-.43a.71.71 0 0 0 -.15-.47.63.63 0 0 0 -.49-.19h-2.16a.63.63 0 0 0 -.45.17l-.1.41v3.14zm2.56 5.16v-1.28a.78.78 0 0 0 -.17-.37.46.46 0 0 0 -.42-.19h-2a.49.49 0 0 0 -.41.17.52.52 0 0 0 -.15.41v1.21zm0 2.59v-1.54h-3.12v1.49zm-.08-7.75v-1.6h-.89a.51.51 0 0 0 -.43.17.63.63 0 0 0 -.13.41v1zm4.1 8.91h-.41a1.2 1.2 0 0 1 -.76-.27.89.89 0 0 1 -.28-.72v-1.7a1 1 0 0 1 .28-.72 1 1 0 0 1 .76-.34h6.6a1 1 0 0 1 .73.34 1.09 1.09 0 0 1 .25.72v1.7a1 1 0 0 1 -.28.7 1 1 0 0 1 -.7.29h-.36l-.61 1.64h2.29a.57.57 0 0 1 .4.13.75.75 0 0 1 .13.42.72.72 0 0 1 -.13.38.51.51 0 0 1 -.4.17h-9.76a.52.52 0 0 1 -.54-.55.6.6 0 0 1 .15-.4.57.57 0 0 1 .39-.15h2.76zm7.21-5.73a.53.53 0 0 1 .39.13.51.51 0 0 1 .15.4.56.56 0 0 1 -.15.39.5.5 0 0 1 -.39.16h-8.84a.68.68 0 0 1 -.42-.14.59.59 0 0 1 -.15-.41.55.55 0 0 1 .15-.38.63.63 0 0 1 .42-.15zm-1.21-7.39a1.2 1.2 0 0 1 1 .37 1.46 1.46 0 0 1 .36.95v3.7a1.45 1.45 0 0 1 -.36.93 1.33 1.33 0 0 1 -1 .4h-6.36a1.31 1.31 0 0 1 -1-.42 1.37 1.37 0 0 1 -.27-.91v-3.75a1.14 1.14 0 0 1 .36-.93 1.23 1.23 0 0 1 .94-.39h1.27v-.72a.54.54 0 0 1 .13-.4.63.63 0 0 1 .42-.15.61.61 0 0 1 .38.15.49.49 0 0 1 .17.4v.72h1.49v-.72a.54.54 0 0 1 .13-.4.62.62 0 0 1 .4-.15.66.66 0 0 1 .4.15.49.49 0 0 1 .17.4v.72zm-5.09 1.02h-.89a.49.49 0 0 0 -.45.15.6.6 0 0 0 -.15.44v1h1.49zm0 2.65h-1.49v.87a.9.9 0 0 0 .15.55.57.57 0 0 0 .45.15h.89zm-.74 6.75a.48.48 0 0 0 -.39.13.53.53 0 0 0 -.14.4v.59a.36.36 0 0 0 .16.34.6.6 0 0 0 .37.11h5.47a.36.36 0 0 0 .32-.13l.13-.32v-.59l-.09-.38a.45.45 0 0 0 -.36-.15zm3.86 4.29.68-1.64h-3.59l.15.45.36 1.19zm-.53-13.69h-1.49v1.57h1.49zm0 2.65h-1.49v1.57h1.49zm1.1-1.08h1.64v-1a.63.63 0 0 0 -.17-.44.79.79 0 0 0 -.51-.15h-1zm0 2.65h1a1.06 1.06 0 0 0 .49-.17.85.85 0 0 0 .19-.53v-.87h-1.68z" fill="#444344"/><path d="m0 79.8 5.2-13.54h1.93l5.54 13.54h-2l-1.62-4.1h-5.66l-1.49 4.1zm3.91-5.56h4.58l-1.41-3.75c-.43-1.14-.75-2.08-1-2.81a16.44 16.44 0 0 1 -.73 2.59z" fill="#444344"/><path d="m15.76 79.8v-9.8h1.49v1.49a4 4 0 0 1 1.06-1.38 1.85 1.85 0 0 1 1.07-.33 3.25 3.25 0 0 1 1.7.53l-.57 1.55a2.36 2.36 0 0 0 -1.22-.36 1.64 1.64 0 0 0 -1 .32 1.84 1.84 0 0 0 -.61.91 6.32 6.32 0 0 0 -.28 1.94v5.13z" fill="#444344"/><path d="m24 68.17v-1.91h1.66v1.91zm0 11.63v-9.8h1.66v9.8z" fill="#444344"/><path d="m36.45 78.59a6 6 0 0 1 -1.77 1.1 5.05 5.05 0 0 1 -1.84.33 3.6 3.6 0 0 1 -2.48-.79 2.61 2.61 0 0 1 -.87-2 2.69 2.69 0 0 1 .33-1.32 2.81 2.81 0 0 1 .86-1 4.12 4.12 0 0 1 1.2-.55 13.12 13.12 0 0 1 1.47-.24 16.22 16.22 0 0 0 3-.58c0-.23 0-.37 0-.43a1.8 1.8 0 0 0 -.48-1.43 2.74 2.74 0 0 0 -1.87-.54 2.88 2.88 0 0 0 -1.73.42 2.49 2.49 0 0 0 -.87 1.44l-1.62-.22a4 4 0 0 1 .73-1.69 3.35 3.35 0 0 1 1.47-1 6.56 6.56 0 0 1 2.22-.34 6 6 0 0 1 2 .29 2.78 2.78 0 0 1 1.16.75 2.68 2.68 0 0 1 .51 1.13 8.58 8.58 0 0 1 .13 1.55v2.22a24.23 24.23 0 0 0 .1 2.93 3.71 3.71 0 0 0 .42 1.18h-1.73a3.42 3.42 0 0 1 -.34-1.21zm-.13-3.72a11.94 11.94 0 0 1 -2.72.63 6.57 6.57 0 0 0 -1.45.33 1.52 1.52 0 0 0 -.65.54 1.4 1.4 0 0 0 -.23.79 1.39 1.39 0 0 0 .5 1.11 2.12 2.12 0 0 0 1.47.45 3.34 3.34 0 0 0 1.76-.43 2.57 2.57 0 0 0 1.1-1.14 4 4 0 0 0 .27-1.67z" fill="#444344"/><path d="m42.43 79.8v-13.54h1.66v13.54z" fill="#444344"/><path d="m20.86 231.4v-12.4h-15.37v12.4h-2.94v-27.56h2.94v12.35h15.37v-12.35h2.94v27.56z" fill="#231815"/><path d="m30.52 222.53a7.94 7.94 0 0 0 1.64 4.88 4.55 4.55 0 0 0 3.65 1.64c2.27 0 4-1.18 5.38-3.53l2.6 1.3c-2 3.32-4.66 5-8 5a7.26 7.26 0 0 1 -6.07-2.82 10.73 10.73 0 0 1 -2.14-7 9.67 9.67 0 0 1 2.52-7.06 7.72 7.72 0 0 1 5.84-2.4 7.64 7.64 0 0 1 5.63 2.31 9 9 0 0 1 2.43 6.38v1.3zm5.42-7.3c-2.69 0-4.41 1.51-5.21 4.53h10.21c-.76-3.02-2.4-4.53-5-4.53z" fill="#231815"/><path d="m60.22 231.48a8.57 8.57 0 0 1 -.55-2.69v-.46a9.35 9.35 0 0 1 -7.18 3.45 6.47 6.47 0 0 1 -4.2-1.31 4.24 4.24 0 0 1 -1.81-3.57 5.49 5.49 0 0 1 3.19-5.21c2.1-1.09 5.46-1.72 10-1.84-.25-3.07-1.85-4.62-4.71-4.62a4.93 4.93 0 0 0 -4.53 2.43l-2.86-1.26c1.47-2.6 4-3.91 7.39-3.91a7.26 7.26 0 0 1 5.72 2.15 8.49 8.49 0 0 1 1.93 5.84v8.31a6.94 6.94 0 0 0 .46 2.69zm-10.8-4.58a1.79 1.79 0 0 0 .71 1.47 3.27 3.27 0 0 0 2.36.8 6.73 6.73 0 0 0 4.74-1.89 7.74 7.74 0 0 0 2.44-4.79c-6.85.09-10.25 1.56-10.25 4.41z" fill="#231815"/><path d="m81.05 231.48v-3.06c-1.39 2.26-3.61 3.36-6.72 3.36a7.5 7.5 0 0 1 -5.76-2.57 11.07 11.07 0 0 1 -.21-13.9 7.84 7.84 0 0 1 6.18-2.82 7.45 7.45 0 0 1 6.51 3.32v-12h2.95v27.64zm-1.77-14.15a5.69 5.69 0 0 0 -4.45-2.1 5.22 5.22 0 0 0 -4.28 2 7.38 7.38 0 0 0 -1.64 4.87 7.24 7.24 0 0 0 1.72 5.17 5 5 0 0 0 4 1.81 6 6 0 0 0 6.47-6.6 7.7 7.7 0 0 0 -1.82-5.15z" fill="#231815"/><path d="m91.08 207.2v-3.36h3.2v3.36zm.13 24.2v-18.49h2.94v18.49z" fill="#231815"/><path d="m115.28 231.44v-10.63c0-3.69-1.6-5.54-4.75-5.54a7.23 7.23 0 0 0 -6.26 3.69v12.48h-2.94v-18.65h2.94v2.69a8.36 8.36 0 0 1 6.51-3q7.44 0 7.44 8.32v10.63z" fill="#231815"/><path d="m135.86 234.72a8 8 0 0 1 -6 2.35c-3.74 0-6.34-1.39-7.81-4.12l2.64-1.26c1 1.77 2.74 2.65 5.17 2.65a5.23 5.23 0 0 0 3.87-1.56 6 6 0 0 0 1.47-4.32v-2.19a6.75 6.75 0 0 1 -5.67 3.11 8 8 0 0 1 -6-2.44 8.11 8.11 0 0 1 -2.4-6 8.27 8.27 0 0 1 2.36-6 8.06 8.06 0 0 1 11.72.09v-2.31h2.89v15.71a8.7 8.7 0 0 1 -2.24 6.29zm-2.23-17.81a5.41 5.41 0 0 0 -4.07-1.73 5.27 5.27 0 0 0 -4 1.68 5.86 5.86 0 0 0 -1.56 4.12 5.47 5.47 0 0 0 1.56 4 5.07 5.07 0 0 0 4 1.68 5.52 5.52 0 0 0 4-1.68 5.77 5.77 0 0 0 1.64-4.16 5.59 5.59 0 0 0 -1.57-3.91z" fill="#231815"/><path d="m159.33 231.44v-27.52h2.94v27.52z" fill="#231815"/><path d="m172 222.53a8 8 0 0 0 1.64 4.88 4.57 4.57 0 0 0 3.66 1.64c2.26 0 4-1.18 5.37-3.53l2.61 1.3c-2 3.32-4.67 5-8 5a7.28 7.28 0 0 1 -6.1-2.82 10.78 10.78 0 0 1 -2.14-7 9.67 9.67 0 0 1 2.52-7.06 7.74 7.74 0 0 1 5.84-2.4 7.64 7.64 0 0 1 5.6 2.26 9 9 0 0 1 2.4 6.43v1.3zm5.42-7.3c-2.69 0-4.41 1.51-5.21 4.53h10.21c-.79-3.02-2.42-4.53-5.03-4.53z" fill="#231815"/><path d="m198 231.4h-3.19l-7.73-18.53h3l6.3 15.38 6.3-15.38h3z" fill="#231815"/><path d="m210.36 222.53a7.94 7.94 0 0 0 1.64 4.88 4.55 4.55 0 0 0 3.65 1.64c2.27 0 4-1.18 5.38-3.53l2.6 1.3c-2 3.32-4.66 5-8 5a7.26 7.26 0 0 1 -6.09-2.82 10.73 10.73 0 0 1 -2.14-7 9.67 9.67 0 0 1 2.52-7.06 7.72 7.72 0 0 1 5.84-2.4 7.64 7.64 0 0 1 5.63 2.31 9 9 0 0 1 2.39 6.43v1.3zm5.42-7.3c-2.69 0-4.41 1.51-5.21 4.53h10.21c-.78-3.02-2.4-4.53-5-4.53z" fill="#231815"/><path d="m230.6 231.44v-27.52h2.94v27.52z" fill="#231815"/><path d="m263.2 231.44v-22.05h-5.89v-1.68h.3a7.89 7.89 0 0 0 3.61-.89 5.28 5.28 0 0 0 2.73-2.94h2.14v27.56z" fill="#231815"/><path d="m13.92 325.36v-8.26h-10.25v8.26h-2v-18.36h2v8.23h10.25v-8.23h2v18.37z" fill="#231815"/><path d="m20.35 319.45a5.29 5.29 0 0 0 1.1 3.25 3 3 0 0 0 2.43 1.09 4 4 0 0 0 3.59-2.35l1.73.86a6 6 0 0 1 -5.32 3.31 4.85 4.85 0 0 1 -4.06-1.88 7.16 7.16 0 0 1 -1.43-4.67 6.5 6.5 0 0 1 1.68-4.71 5.18 5.18 0 0 1 3.9-1.59 5.08 5.08 0 0 1 3.75 1.54 6 6 0 0 1 1.59 4.28v.87zm3.65-4.87c-1.8 0-2.94 1-3.47 3h6.8c-.54-2-1.63-3-3.33-3z" fill="#231815"/><path d="m40.15 325.41a5.79 5.79 0 0 1 -.36-1.79v-.31a6.25 6.25 0 0 1 -4.79 2.3 4.34 4.34 0 0 1 -2.8-.87 2.85 2.85 0 0 1 -1.2-2.38 3.64 3.64 0 0 1 2.13-3.47 16.15 16.15 0 0 1 6.67-1.23c-.17-2.05-1.24-3.08-3.14-3.08a3.3 3.3 0 0 0 -3 1.62l-1.91-.84a5.2 5.2 0 0 1 4.93-2.6 4.85 4.85 0 0 1 3.81 1.42 5.69 5.69 0 0 1 1.29 3.9v5.54a4.61 4.61 0 0 0 .3 1.79zm-7.15-3.05a1.19 1.19 0 0 0 .48 1 2.2 2.2 0 0 0 1.57.53 4.48 4.48 0 0 0 3.16-1.26 5.16 5.16 0 0 0 1.63-3.19c-4.62.04-6.84 1.02-6.84 2.92z" fill="#231815"/><path d="m54 325.41v-2a4.83 4.83 0 0 1 -4.48 2.24 5 5 0 0 1 -3.84-1.71 7.37 7.37 0 0 1 -.14-9.27 5.23 5.23 0 0 1 4.12-1.87 5 5 0 0 1 4.34 2.2v-8h2v18.42zm-1.14-9.41a3.78 3.78 0 0 0 -3-1.4 3.47 3.47 0 0 0 -2.86 1.29 5 5 0 0 0 -1 3.25 4.83 4.83 0 0 0 1.14 3.44 3.29 3.29 0 0 0 2.64 1.21 4 4 0 0 0 4.31-4.4 5.13 5.13 0 0 0 -1.23-3.39z" fill="#231815"/><path d="m60.73 309.23v-2.23h2.13v2.24zm.08 16.13v-12.36h2v12.32z" fill="#231815"/><path d="m76.86 325.38v-7.08c0-2.46-1.07-3.7-3.17-3.7a4.81 4.81 0 0 0 -4.17 2.47v8.31h-2v-12.38h2v1.79a5.59 5.59 0 0 1 4.34-2c3.31 0 5 1.84 5 5.54v7.08z" fill="#231815"/><path d="m90.58 327.57a5.33 5.33 0 0 1 -4 1.57c-2.49 0-4.23-.93-5.21-2.75l1.77-.84a3.63 3.63 0 0 0 3.44 1.77 3.49 3.49 0 0 0 2.58-1 4 4 0 0 0 1-2.88v-1.46a4.49 4.49 0 0 1 -3.78 2.02 5.34 5.34 0 0 1 -4-1.62 5.83 5.83 0 0 1 0-8 5.39 5.39 0 0 1 7.81 0v-1.54h1.93v10.56a5.79 5.79 0 0 1 -1.54 4.17zm-1.49-11.87a3.58 3.58 0 0 0 -2.71-1.15 3.49 3.49 0 0 0 -2.63 1.12 3.89 3.89 0 0 0 -1 2.74 3.65 3.65 0 0 0 1 2.66 3.34 3.34 0 0 0 2.63 1.12 3.66 3.66 0 0 0 2.69-1.12 3.87 3.87 0 0 0 1.09-2.77 3.72 3.72 0 0 0 -1.07-2.6z" fill="#231815"/><path d="m106.23 325.38v-18.38h2v18.34z" fill="#231815"/><path d="m114.66 319.45a5.28 5.28 0 0 0 1.09 3.25 3.07 3.07 0 0 0 2.44 1.09 4 4 0 0 0 3.58-2.35l1.74.86a6 6 0 0 1 -5.32 3.31 4.86 4.86 0 0 1 -4.07-1.88 7.15 7.15 0 0 1 -1.42-4.67 6.46 6.46 0 0 1 1.68-4.71 5.16 5.16 0 0 1 3.89-1.59 5.08 5.08 0 0 1 3.73 1.54 6 6 0 0 1 1.6 4.28v.87zm3.61-4.87c-1.79 0-2.94 1-3.47 3h6.8c-.5-2-1.6-3-3.33-3z" fill="#231815"/><path d="m132 325.36h-2.13l-5.13-12.36h2l4.2 10.25 4.2-10.25h2z" fill="#231815"/><path d="m140.25 319.45a5.28 5.28 0 0 0 1.09 3.25 3.07 3.07 0 0 0 2.44 1.09 4 4 0 0 0 3.58-2.35l1.74.86a6 6 0 0 1 -5.32 3.31 4.83 4.83 0 0 1 -4.06-1.88 7.16 7.16 0 0 1 -1.43-4.67 6.46 6.46 0 0 1 1.68-4.71 5.16 5.16 0 0 1 3.89-1.59 5.07 5.07 0 0 1 3.75 1.54 5.93 5.93 0 0 1 1.6 4.28v.87zm3.61-4.87c-1.79 0-2.94 1-3.47 3h6.8c-.5-2-1.59-3-3.33-3z" fill="#231815"/><path d="m153.75 325.38v-18.38h2v18.34z" fill="#231815"/><path d="m180.4 324.15a6 6 0 0 1 -4.11 1.46c-3.08 0-4.93-1.4-5.55-4.26l1.85-.64a3.39 3.39 0 0 0 3.7 3.08 3.92 3.92 0 0 0 2.77-1 3.1 3.1 0 0 0 1.06-2.35 3.62 3.62 0 0 0 -1-2.58 3.56 3.56 0 0 0 -2.54-1h-2.16v-1.86h1.88a3.08 3.08 0 0 0 2.18-1.12 3.33 3.33 0 0 0 1.06-2.32c0-2-1-3-3.11-3-1.79 0-2.88 1-3.21 2.94l-1.83-.58a5.45 5.45 0 0 1 1.54-2.92 5 5 0 0 1 3.5-1.26 5.18 5.18 0 0 1 3.7 1.32 4.64 4.64 0 0 1 1.34 3.5 4.4 4.4 0 0 1 -2.54 4.09 4.6 4.6 0 0 1 2.32 1.82 5.34 5.34 0 0 1 .84 3 4.7 4.7 0 0 1 -1.69 3.68z" fill="#231815"/><path d="m18.87 280.92v-11.21h-13.87v11.21h-2.69v-24.92h2.69v11.17h13.9v-11.17h2.66v24.93z" fill="#231815"/><path d="m27.62 272.9a7.11 7.11 0 0 0 1.48 4.41 4.09 4.09 0 0 0 3.3 1.48c2.05 0 3.65-1.06 4.87-3.19l2.35 1.18c-1.82 3-4.22 4.48-7.22 4.48a6.57 6.57 0 0 1 -5.51-2.55 9.71 9.71 0 0 1 -1.89-6.34 8.68 8.68 0 0 1 2.24-6.37 7 7 0 0 1 5.28-2.17 6.9 6.9 0 0 1 5.09 2.09 8.11 8.11 0 0 1 2.16 5.81v1.18zm4.9-6.61c-2.44 0-4 1.37-4.72 4.1h9.2c-.65-2.73-2.13-4.1-4.48-4.1z" fill="#231815"/><path d="m54.48 281a7.79 7.79 0 0 1 -.49-2.43v-.42a8.47 8.47 0 0 1 -6.5 3.12 5.89 5.89 0 0 1 -3.8-1.18 3.85 3.85 0 0 1 -1.64-3.23 5 5 0 0 1 2.89-4.71c1.9-1 4.94-1.56 9.05-1.67-.23-2.77-1.68-4.18-4.26-4.18a4.48 4.48 0 0 0 -4.1 2.2l-2.63-1.15c1.33-2.35 3.57-3.53 6.69-3.53a6.58 6.58 0 0 1 5.17 1.94 7.69 7.69 0 0 1 1.78 5.24v7.52a6.23 6.23 0 0 0 .42 2.43zm-9.77-4.14a1.61 1.61 0 0 0 .65 1.33 2.93 2.93 0 0 0 2.13.72 6.08 6.08 0 0 0 4.29-1.71 7 7 0 0 0 2.22-4.34c-6.21.08-9.29 1.41-9.29 3.99z" fill="#231815"/><path d="m73.33 281v-2.77c-1.26 2-3.27 3-6.08 3a6.81 6.81 0 0 1 -5.25-2.29 10 10 0 0 1 -.19-12.57 7.07 7.07 0 0 1 5.59-2.55 6.75 6.75 0 0 1 5.89 3v-10.82h2.71v25zm-1.6-12.8a5.17 5.17 0 0 0 -4-1.9 4.72 4.72 0 0 0 -3.87 1.79 6.67 6.67 0 0 0 -1.48 4.4 6.59 6.59 0 0 0 1.55 4.68 4.5 4.5 0 0 0 3.58 1.63 5.44 5.44 0 0 0 5.85-6 7 7 0 0 0 -1.63-4.61z" fill="#231815"/><path d="m82.41 259v-3h2.89v3zm.11 21.89v-16.69h2.66v16.72z" fill="#231815"/><path d="m104.3 281v-9.62c0-3.34-1.45-5-4.3-5a6.55 6.55 0 0 0 -5.66 3.34v11.28h-2.66v-16.91h2.66v2.43a7.58 7.58 0 0 1 5.89-2.7q6.72 0 6.73 7.52v9.66z" fill="#231815"/><path d="m122.92 283.92a7.22 7.22 0 0 1 -5.4 2.13c-3.38 0-5.74-1.26-7.07-3.73l2.4-1.14a4.93 4.93 0 0 0 4.67 2.4 4.76 4.76 0 0 0 3.5-1.41 5.42 5.42 0 0 0 1.33-3.91v-2a6.09 6.09 0 0 1 -5.13 2.81 7.24 7.24 0 0 1 -5.44-2.2 7.37 7.37 0 0 1 -2.16-5.4 7.46 7.46 0 0 1 2.13-5.43 7.29 7.29 0 0 1 10.6.08v-2.09h2.65v14.21a7.88 7.88 0 0 1 -2.08 5.68zm-2-16.11a4.89 4.89 0 0 0 -3.68-1.56 4.76 4.76 0 0 0 -3.58 1.52 5.33 5.33 0 0 0 -1.4 3.72 5 5 0 0 0 1.4 3.61 4.58 4.58 0 0 0 3.58 1.52 4.93 4.93 0 0 0 3.64-1.52 5.21 5.21 0 0 0 1.49-3.76 5.06 5.06 0 0 0 -1.47-3.53z" fill="#231815"/><path d="m144.16 281v-24.93h2.66v24.93z" fill="#231815"/><path d="m155.6 272.9a7.11 7.11 0 0 0 1.48 4.41 4.09 4.09 0 0 0 3.3 1.48c2.05 0 3.65-1.06 4.87-3.19l2.35 1.18c-1.82 3-4.22 4.48-7.22 4.48a6.57 6.57 0 0 1 -5.51-2.55 9.71 9.71 0 0 1 -1.93-6.34 8.72 8.72 0 0 1 2.28-6.38 7.38 7.38 0 0 1 10.37-.08 8.11 8.11 0 0 1 2.16 5.81v1.18zm4.9-6.61c-2.43 0-4 1.37-4.71 4.1h9.21c-.67-2.73-2.15-4.1-4.5-4.1z" fill="#231815"/><path d="m179.15 280.92h-2.88l-7-16.76h2.73l5.7 13.91 5.7-13.91h2.73z" fill="#231815"/><path d="m190.33 272.9a7.11 7.11 0 0 0 1.48 4.41 4.1 4.1 0 0 0 3.3 1.48c2.06 0 3.65-1.06 4.87-3.19l2.35 1.18c-1.82 3-4.21 4.48-7.22 4.48a6.57 6.57 0 0 1 -5.51-2.55 9.71 9.71 0 0 1 -1.93-6.34 8.72 8.72 0 0 1 2.33-6.37 7.38 7.38 0 0 1 10.37-.08 8.12 8.12 0 0 1 2.17 5.81v1.18zm4.9-6.61c-2.43 0-4 1.37-4.71 4.1h9.23c-.68-2.73-2.17-4.1-4.52-4.1z" fill="#231815"/><path d="m208.64 281v-24.93h2.66v24.93z" fill="#231815"/><path d="m245.27 266.78a33.7 33.7 0 0 1 -4.06 4.3q-4.8 4.44-5.7 7.41h11.49v2.51h-15.18a18.66 18.66 0 0 1 2.81-6.35 32 32 0 0 1 4.83-5.32 27 27 0 0 0 3.76-4 5.86 5.86 0 0 0 1.18-3.33 3.38 3.38 0 0 0 -1.22-2.66 5.88 5.88 0 0 0 -3.87-1.18c-3.12 0-4.79 2-5.06 6l-2.5-1a8.81 8.81 0 0 1 2.35-5.47 6.89 6.89 0 0 1 5.21-2 9.11 9.11 0 0 1 5.62 1.63 5.79 5.79 0 0 1 2.07 4.68 8.24 8.24 0 0 1 -1.73 4.78z" fill="#231815"/><path d="m11.93 368v-7.1h-8.78v7.1h-1.68v-15.76h1.68v7.05h8.78v-7.05h1.68v15.76z" fill="#231815"/><path d="m17.45 362.92a4.45 4.45 0 0 0 .94 2.78 2.58 2.58 0 0 0 2.09.94 3.44 3.44 0 0 0 3.07-2l1.49.75a5.18 5.18 0 0 1 -4.56 2.83 4.13 4.13 0 0 1 -3.48-1.63 6.14 6.14 0 0 1 -1.23-4 5.54 5.54 0 0 1 1.44-4 4.43 4.43 0 0 1 3.34-1.37 4.37 4.37 0 0 1 3.21 1.32 5.1 5.1 0 0 1 1.37 3.68v.74zm3.1-4.18c-1.54 0-2.52.87-3 2.59h5.85c-.4-1.72-1.4-2.59-2.85-2.59z" fill="#231815"/><path d="m34.42 368a4.78 4.78 0 0 1 -.31-1.53v-.27a5.36 5.36 0 0 1 -4.11 2 3.76 3.76 0 0 1 -2.4-.74 2.45 2.45 0 0 1 -1-2 3.13 3.13 0 0 1 1.82-3 14 14 0 0 1 5.72-1.06c-.15-1.75-1.06-2.64-2.69-2.64a2.82 2.82 0 0 0 -2.59 1.39l-1.64-.71a4.49 4.49 0 0 1 4.23-2.24 4.13 4.13 0 0 1 3.26 1.23 4.85 4.85 0 0 1 1.11 3.33v4.76a3.9 3.9 0 0 0 .26 1.53zm-6.17-2.61a1 1 0 0 0 .41.84 1.88 1.88 0 0 0 1.34.45 3.82 3.82 0 0 0 2.71-1.08 4.46 4.46 0 0 0 1.4-2.73q-5.87.13-5.86 2.55z" fill="#231815"/><path d="m46.32 368v-1.75a4.12 4.12 0 0 1 -3.84 1.92 4.29 4.29 0 0 1 -3.28-1.46 6.31 6.31 0 0 1 -.12-7.95 4.44 4.44 0 0 1 3.52-1.61 4.24 4.24 0 0 1 3.72 1.9v-6.84h1.68v15.79zm-1-8.09a3.28 3.28 0 0 0 -2.55-1.2 3 3 0 0 0 -2.45 1.13 4.27 4.27 0 0 0 -.93 2.79 4.16 4.16 0 0 0 1 2.95 2.85 2.85 0 0 0 2.26 1 3.44 3.44 0 0 0 3.69-3.77 4.45 4.45 0 0 0 -1.02-2.87z" fill="#231815"/><path d="m52.06 354.16v-1.92h1.82v1.92zm.07 13.84v-10.58h1.68v10.58z" fill="#231815"/><path d="m65.88 368v-6.07c0-2.12-.91-3.17-2.71-3.17a4.12 4.12 0 0 0 -3.57 2.11v7.13h-1.68v-10.65h1.68v1.54a4.77 4.77 0 0 1 3.72-1.71q4.25 0 4.24 4.76v6.06z" fill="#231815"/><path d="m77.64 369.88a4.51 4.51 0 0 1 -3.4 1.34 4.64 4.64 0 0 1 -4.47-2.35l1.51-.72a3.12 3.12 0 0 0 3 1.51 3 3 0 0 0 2.2-.88 3.42 3.42 0 0 0 .84-2.48v-1.24a3.83 3.83 0 0 1 -3.32 1.77 4.54 4.54 0 0 1 -3.43-1.39 4.65 4.65 0 0 1 -1.33-3.44 4.75 4.75 0 0 1 1.35-3.43 4.59 4.59 0 0 1 6.69 0v-1.32h1.66v9a4.94 4.94 0 0 1 -1.3 3.63zm-1.27-10.18a3.08 3.08 0 0 0 -2.33-1 3 3 0 0 0 -2.25 1 3.34 3.34 0 0 0 -.89 2.3 3.13 3.13 0 0 0 .89 2.28 2.86 2.86 0 0 0 2.25 1 3.14 3.14 0 0 0 2.31-1 3.31 3.31 0 0 0 .93-2.37 3.22 3.22 0 0 0 -.91-2.21z" fill="#231815"/><path d="m91.06 368v-15.71h1.68v15.71z" fill="#231815"/><path d="m98.28 362.92a4.57 4.57 0 0 0 .94 2.78 2.58 2.58 0 0 0 2.09.94 3.44 3.44 0 0 0 3.07-2l1.49.75a5.17 5.17 0 0 1 -4.56 2.83 4.14 4.14 0 0 1 -3.48-1.61 6.14 6.14 0 0 1 -1.23-4 5.54 5.54 0 0 1 1.44-4 4.45 4.45 0 0 1 3.34-1.37 4.39 4.39 0 0 1 3.22 1.32 5.14 5.14 0 0 1 1.36 3.68v.74zm3.1-4.18c-1.54 0-2.52.87-3 2.59h5.84c-.42-1.72-1.35-2.59-2.84-2.59z" fill="#231815"/><path d="m113.16 368h-1.82l-4.42-10.58h1.73l3.6 8.78 3.6-8.78h1.73z" fill="#231815"/><path d="m120.22 362.92a4.45 4.45 0 0 0 .94 2.78 2.57 2.57 0 0 0 2.08.94 3.44 3.44 0 0 0 3.08-2l1.48.75a5.16 5.16 0 0 1 -4.56 2.83 4.16 4.16 0 0 1 -3.48-1.61 6.19 6.19 0 0 1 -1.22-4 5.54 5.54 0 0 1 1.44-4 4.42 4.42 0 0 1 3.34-1.37 4.37 4.37 0 0 1 3.21 1.32 5.14 5.14 0 0 1 1.37 3.68v.74zm3.1-4.18c-1.54 0-2.52.87-3 2.59h5.83c-.41-1.72-1.35-2.59-2.83-2.59z" fill="#231815"/><path d="m131.79 368v-15.71h1.68v15.71z" fill="#231815"/><path d="m154.25 364.14v3.86h-1.7v-3.89h-6.55v-1.6l6.67-10.3h1.56v10.37h2.14v1.53zm-1.7-8.88-4.8 7.35h4.8z" fill="#231815"/><path d="m341.11 400.47a12.08 12.08 0 0 1 -1.29 1.36 6.31 6.31 0 0 0 -1.8 2.34h3.63v.77h-4.79a6 6 0 0 1 .89-2 10.4 10.4 0 0 1 1.52-1.68 8.9 8.9 0 0 0 1.19-1.24 1.87 1.87 0 0 0 .37-1.06 1.07 1.07 0 0 0 -.38-.84 1.88 1.88 0 0 0 -1.23-.37q-1.47 0-1.59 1.89l-.79-.31a2.81 2.81 0 0 1 .74-1.73 2.22 2.22 0 0 1 1.64-.63 2.92 2.92 0 0 1 1.78.51 1.85 1.85 0 0 1 .66 1.48 2.6 2.6 0 0 1 -.55 1.51z" fill="#474647"/><path d="m347.37 403v2h-.85v-2h-3.26v-.8l3.33-5.15h.78v5.19h1.07v.76zm-.85-4.43-2.4 3.67h2.4z" fill="#474647"/><path d="m354 404.37a2.34 2.34 0 0 1 -1.7.66 2.15 2.15 0 0 1 -1.87-.94v2.46h-.84v-6.93h.84v.85a2.13 2.13 0 0 1 1.82-.93 2.32 2.32 0 0 1 1.82.75 2.88 2.88 0 0 1 .69 2 2.8 2.8 0 0 1 -.76 2.08zm-.51-3.53a1.56 1.56 0 0 0 -1.24-.53 1.64 1.64 0 0 0 -1.29.58 2.14 2.14 0 0 0 -.53 1.52 1.7 1.7 0 0 0 .61 1.37 1.88 1.88 0 0 0 1.26.47 1.52 1.52 0 0 0 1.1-.43 2.1 2.1 0 0 0 .52-1.55 2.26 2.26 0 0 0 -.39-1.43z" fill="#474647"/><path d="m360.05 404.94-1.9-2.33-1.91 2.33h-1l2.39-2.93-1.9-2.37h1l1.43 1.78 1.42-1.78h.95l-1.9 2.36 2.38 2.93z" fill="#474647"/><path d="m10 407.7v-5.9h-7.37v5.9h-1.4v-13.12h1.4v5.88h7.37v-5.88h1.4v13.12z" fill="#231815"/><path d="m14.55 403.48a3.77 3.77 0 0 0 .78 2.32 2.17 2.17 0 0 0 1.74.78 2.87 2.87 0 0 0 2.56-1.68l1.24.62a4.3 4.3 0 0 1 -3.8 2.36 3.45 3.45 0 0 1 -2.9-1.34 5.12 5.12 0 0 1 -1-3.34 4.61 4.61 0 0 1 1.2-3.36 3.68 3.68 0 0 1 2.78-1.14 3.63 3.63 0 0 1 2.68 1.1 4.26 4.26 0 0 1 1.17 3.06v.62zm2.58-3.48a2.46 2.46 0 0 0 -2.48 2.16h4.86c-.36-1.44-1.14-2.16-2.38-2.16z" fill="#231815"/><path d="m28.69 407.74a4.12 4.12 0 0 1 -.26-1.28v-.22a4.45 4.45 0 0 1 -3.43 1.64 3.1 3.1 0 0 1 -2-.62 2 2 0 0 1 -.86-1.7 2.61 2.61 0 0 1 1.52-2.48 11.59 11.59 0 0 1 4.76-.88 2.08 2.08 0 0 0 -2.24-2.2 2.36 2.36 0 0 0 -2.18 1.16l-1.36-.6a3.72 3.72 0 0 1 3.52-1.86 3.46 3.46 0 0 1 2.72 1 4 4 0 0 1 .92 2.78v4a3.25 3.25 0 0 0 .22 1.28zm-5.14-2.18a.85.85 0 0 0 .34.7 1.55 1.55 0 0 0 1.12.38 3.21 3.21 0 0 0 2.26-.9 3.7 3.7 0 0 0 1.16-2.28c-3.26.04-4.88.74-4.88 2.1z" fill="#231815"/><path d="m38.61 407.74v-1.46a3.44 3.44 0 0 1 -3.2 1.6 3.57 3.57 0 0 1 -2.74-1.22 5.27 5.27 0 0 1 -.1-6.62 3.72 3.72 0 0 1 2.94-1.34 3.54 3.54 0 0 1 3.1 1.58v-5.7h1.39v13.16zm-.84-6.74a2.72 2.72 0 0 0 -2.12-1 2.49 2.49 0 0 0 -2 .94 3.54 3.54 0 0 0 -.78 2.32 3.45 3.45 0 0 0 .82 2.46 2.36 2.36 0 0 0 1.88.86 2.87 2.87 0 0 0 3.08-3.14 3.69 3.69 0 0 0 -.88-2.44z" fill="#231815"/><path d="m43.39 396.18v-1.6h1.52v1.6zm.06 11.52v-8.8h1.4v8.8z" fill="#231815"/><path d="m54.91 407.72v-5.06c0-1.76-.76-2.64-2.26-2.64a3.44 3.44 0 0 0 -3 1.76v5.94h-1.4v-8.88h1.4v1.28a4 4 0 0 1 3.1-1.42q3.54 0 3.54 4v5.06z" fill="#231815"/><path d="m64.71 409.28a3.78 3.78 0 0 1 -2.84 1.12 3.86 3.86 0 0 1 -3.72-2l1.26-.6a2.6 2.6 0 0 0 2.46 1.26 2.49 2.49 0 0 0 1.84-.74 2.85 2.85 0 0 0 .7-2.06v-1a3.2 3.2 0 0 1 -2.7 1.48 3.8 3.8 0 0 1 -2.86-1.16 3.88 3.88 0 0 1 -1.14-2.84 3.94 3.94 0 0 1 1.12-2.86 3.84 3.84 0 0 1 5.58 0v-1.1h1.38v7.48a4.13 4.13 0 0 1 -1.08 3.02zm-1.06-8.48a2.58 2.58 0 0 0 -1.94-.82 2.51 2.51 0 0 0 -1.88.8 2.78 2.78 0 0 0 -.74 2 2.61 2.61 0 0 0 .74 1.9 2.41 2.41 0 0 0 1.88.8 2.61 2.61 0 0 0 1.92-.8 2.75 2.75 0 0 0 .78-2 2.67 2.67 0 0 0 -.76-1.88z" fill="#231815"/><path d="m75.89 407.72v-13.1h1.4v13.1z" fill="#231815"/><path d="m81.91 403.48a3.77 3.77 0 0 0 .78 2.32 2.17 2.17 0 0 0 1.74.78 2.87 2.87 0 0 0 2.57-1.68l1.24.62a4.3 4.3 0 0 1 -3.8 2.36 3.45 3.45 0 0 1 -2.9-1.34 5.12 5.12 0 0 1 -1-3.34 4.61 4.61 0 0 1 1.2-3.36 3.68 3.68 0 0 1 2.78-1.14 3.63 3.63 0 0 1 2.68 1.1 4.26 4.26 0 0 1 1.14 3.06v.62zm2.58-3.48a2.46 2.46 0 0 0 -2.49 2.16h4.86c-.35-1.44-1.13-2.16-2.37-2.16z" fill="#231815"/><path d="m94.31 407.7h-1.52l-3.68-8.82h1.44l3 7.32 3-7.32h1.45z" fill="#231815"/><path d="m100.19 403.48a3.77 3.77 0 0 0 .78 2.32 2.17 2.17 0 0 0 1.74.78 2.87 2.87 0 0 0 2.56-1.68l1.24.62a4.3 4.3 0 0 1 -3.8 2.36 3.45 3.45 0 0 1 -2.9-1.34 5.12 5.12 0 0 1 -1-3.34 4.61 4.61 0 0 1 1.2-3.36 3.68 3.68 0 0 1 2.78-1.14 3.63 3.63 0 0 1 2.68 1.1 4.26 4.26 0 0 1 1.14 3.06v.62zm2.58-3.48a2.46 2.46 0 0 0 -2.48 2.16h4.86c-.36-1.44-1.15-2.16-2.38-2.16z" fill="#231815"/><path d="m109.83 407.72v-13.1h1.4v13.1z" fill="#231815"/><path d="m128.77 406.66a3.94 3.94 0 0 1 -2.94 1.22 3.77 3.77 0 0 1 -3.82-2.74l1.28-.56a2.62 2.62 0 0 0 2.54 2 2.51 2.51 0 0 0 1.94-.86 3.65 3.65 0 0 0 .88-2.6c0-2.12-.8-3.2-2.4-3.2a2.54 2.54 0 0 0 -2.42 1.62h-1.26v-6.94h6.92v1.32h-5.49v3.62a2.88 2.88 0 0 1 2.3-.92 3.45 3.45 0 0 1 2.76 1.22 5.69 5.69 0 0 1 -.24 6.82z" fill="#231815"/></svg>