<svg height="30" viewBox="0 0 30 30" width="30" xmlns="http://www.w3.org/2000/svg"><path d="m16.6162441 15 6.0490208 6.0490208c.4463135.4463135.4463135 1.1699306 0 1.6162441s-1.1699306.4463135-1.6162441 0l-6.0490208-6.0490208-6.04902082 6.0490208c-.44631348.4463135-1.1699306.4463135-1.61624407 0-.44631348-.4463135-.44631348-1.1699306 0-1.6162441l6.04902079-6.0490208-6.04902079-6.04902082c-.44631348-.44631348-.44631348-1.1699306 0-1.61624407.44631347-.44631348 1.16993059-.44631348 1.61624407 0l6.04902082 6.04902079 6.0490208-6.04902079c.4463135-.44631348 1.1699306-.44631348 1.6162441 0 .4463135.44631347.4463135 1.16993059 0 1.61624407z" fill="#cecece" opacity=".3"/></svg>