<svg height="32" viewBox="0 0 155 32" width="155" xmlns="http://www.w3.org/2000/svg"><g fill="none" fill-rule="evenodd"><path d="m140.239434 7.91867317c-1.631219 2.09795123-3.725268 4.29424393-5.957463 5.72643903l-1.564098-3.2296585c1.731903-1.0973659 3.361561-2.76370736 4.693854-4.42614638.931122.62985366 1.864585 1.29717073 2.827707 1.92936585" fill="#fff"/><path d="m.23170732 31.6307512h154.25795168v-31.63082925h-154.25795168z"/><path d="m141.336878 9.84889756h12.248195v-3.29443902h-12.248195z" fill="#fff"/><path d="m154.489424 13.3774829v3.1960976h-3.264l-.067122 9.152c-.133463.700878-.699317 1.3330732-1.333853 1.6312195-1.496976.6353171-3.392781.4003902-5.057561.4003902l-1.300293-3.3287804 3.995317-.067122c.166244-.0647805.300488-.2645854.369171-.4316098l.030439-7.321756-7.652683-.067122c-.033561-.7992195.030439-1.6327805-.068683-2.364878-.300488.5650731-.696195 1.1317073-1.095805 1.6655609v12.1155122h-3.332683c-.030439-2.6302439.035122-5.2932683-.030439-7.9227317-.565073.4331707-1.100488.9662439-1.632 1.4321951l-1.498536-3.5957073c2.263414-1.664 3.928195-3.9594146 5.295609-6.2243902l2.362537 1.6983414z" fill="#fff"/><path d="m117.410166 14.763161c-.164683-.2325854-.097561-.798439-.033561-1.0973659h3.662829c.233366.2318049.100683.6977561.132683 1.0310244-1.198049.1319025-2.527219.0663415-3.761951.0663415zm-.266927 8.8554146v-5.7592195c.199805-.1678049.900683-.3004878.834341.2325854.266147 1.7311219.667318 3.3943414 1.364293 4.9607805-.696975.2310243-1.431414.4987317-2.198634.5658536zm.169366-13.84741462.166244-.13424391h3.594146c.164683.26692683.067122.69853663.099122 1.06458533l-.099122.0679025h-3.594146c-.33561-.1342439-.102244-.6673171-.166244-.99824392zm-3.395903 14.41170732h-.731317c-.035122-.4331707.030439-.8663415-.035122-1.2651707-.131122.0343414-.166243-.1334635-.199024-.1990244.331707-1.0981464.465171-2.2306342.698537-3.328-.765659-.2677073-1.596878-.4347317-2.428878-.6001952l-.700878 3.3943415.067121.1685854 1.863805.4308292c-.696195.2013659-1.363512.4003903-2.163512.4339513v-4.7609756h3.095415l.033561-2.9947318-3.060293-.0663414v-.7336586c.696195-.0647804 1.430634-.0335609 2.161951-.0335609.101464-.3980488.035122-.8304391.067903-1.2628293.163902-.1678049.330146.131122.497951.131122.364488-.4667318.531512-1.0653659.83278-1.5313171zm-4.96-14.34536586c.532293.53229266 1.165269 1.06458536 1.432196 1.72799996l-2.595903.035122c.332488-.6321951.729756-1.1980488 1.163707-1.76312196zm15.212488 13.78107316c-.266927.065561-.132683-.2341463-.366049-.2341463-.069463-.2341464-.301268-.3004878-.46439-.4667317-.068683-.2310244-.33561-.2310244-.300488-.5642927.097561-.0343415 0-.3348293.231805-.2005854v-.1006829c.300488-.1319025.499512-.3324878.766439-.4979512.065561-.0999025.231805-.0999025.265366-.2341464.033561-.0327805.099122 0 .166244-.0327805v-.0663414c.033561-.067122.132683-.035122.164683-.035122v-.097561c.033561-.0679024.102244 0 .134244-.0327804v-.0663415c.035122-.0694634.134244-.035122.166244-.035122v-.0983414c.068683-.0679025.135805-.033561.199805-.033561v-.1014634c0-.033561.067902 0 .099902-.033561v-.0663414c.033561-.065561.099122-.0327805.135805-.0327805v-.2677074c-.269268-.0655609-.135805-.4651707-.435512-.5299512-.099122 0 .033561-.1998049-.131122-.1334634-.135805-.1326829-.099122-.3340488-.266927-.3996097-.067122-.100683-.100683-.2669269-.199805-.3317074-.135805-.1022439-.135805-.3356097-.298927-.3699512-.067122-.3309268-.302829-.5299512-.501073-.6961951-.065561.0663415-.100683.1662439-.233366.1334634 0 .0327805.036683.099122-.032.099122-.399609.1654634-.664975.6321951-1.100488.7992195-.131121.1998049-.364487.2653658-.564292.4011707-.298927.0983415-.268488-.1693658-.36761-.2692683-.065561-.4331707-.43239-1.0302439-.030439-1.3315122h3.328v-11.35063413h-10.553756l-.064781 3.39590244c-1.498536-.79921951-2.665365-2.39609756-3.462243-3.79551219h-2.962732c-.965464 1.79902439-2.394537 3.53092683-4.12722 4.89599998.365269 1.1637073.764878 2.3937561 1.23161 3.5605854l.865561-.5322927c.165463.1654634.065561.4979512.100683.7320976l1.695219.0312195c-.03278.2669268 0 .5674146-.03278.8335609h-3.326439v2.9283903l3.359219.0663415-.03278 5.3603902-.595512.2638049-2.83161.2357073.165463 3.328c2.86361-.3996098 5.691318-.9326829 8.455025-1.5305366.533073.2318049.233366.9646829.331707 1.4626342.234147.1334634.698537.0679024.933464 0 .500292.0679024.631414-.2989269 1.132487-.1654635.132683-.2661463.629854 0 .798439-.1990243.666537-.067122 1.230049-.2333659 1.827903-.3676098.36761-.0983415.801561-.0983415 1.132488-.2645854.367609-.1014634.900683-.0335609 1.166048-.3012683v-2.1283902l.166244-.1006829c.201366.1006829.300488.2669268.33561.4987317.196683.0679024.230244.3324878.430049.4331707.102244 0-.033561.2349268.132683.1662439 0 .3332683.401951.2325854.401951.5642927.300488.0679024.300488.4347317.564293.5010732.099122.2653658.334048.3332683.498731.4987317.033561.2669268.368391.1998048.368391.4667317.262244.1326829.46517.2645853.663414.4659512.233366-.0327805.132683.065561.366049 0 .135024-.2333659.301268-.4323902.40039-.7000976.131122-.0999024.199805-.2997073.332488-.3644878.067122-.1350244.167805-.1998048.167805-.3668292.166244 0 .166244-.1998049.233366-.2981464.164683-.2341463.330927-.4339512.46439-.732878.134244 0 .134244-.1662439.231805-.3012683v-.1982439c-.46439-.3340488-.996683-.6017561-1.329171-1.0645854z" fill="#fff"/><path d="m104.596117 23.6839024c.533854-.1006829 1.066146-.2341463 1.597659-.3340487.201365-.099122.532292-.0663415.598634-.2661464.034341-1.3642927-.299708-2.6622439-.364488-3.9274146-.332488-.2310244-.73522 0-1.099707.033561-.464391.1022439-.899903.2318048-1.365854.3340487l.234146 4.16.101464.065561c.130341 0 .265366.0679025.298146-.065561" fill="#fff"/><path d="m31.1601756 10.0124098c2.3836098 6.0636097.6954146 13.216-4.1420488 17.4907317-4.1732683 3.7752195-10.366439 5.1660487-15.8985366 3.3108292-6.19395118-2.0519024-10.53346337-7.6511219-10.86517069-14.2087805-.33014634-6.1939512 2.91590244-11.79317069 8.34731708-14.73951215 4.96858541-2.85112195 12.42146341-2.38517073 16.96000001 1.05912195 2.4835122 1.69053659 4.4714146 4.3395122 5.598439 7.0876098" fill="#fff"/><path d="m6.60376585 14.5245659c-.0124878.0070243-.01092683.0070243 0 0" fill="#45b29d"/><path d="m16.7188878 12.6854244c-.0757073.0148293-.1482927.0460488-.2005854.1100488.1194147-.0085854.1732683-.0522927.2005854-.1100488" fill="#45b29d"/><path d="m30.2645659 17.9940683h.5307317c-.100683-.3301463-.5970732-.1974634-.7960976-.4948293.1990244-.0647805.4636098.033561.6626341.132683v-.0327805c-.0983414-.0663415-.3301463-.0663415-.2653658-.2669269-1.5219512-.5611707-2.88-1.5242926-4.1732683-2.4819512-1.059122-.5978536-1.6226341-2.0222439-2.8167805-2.4179512-.1966829-.2677073-.2630244-.5307317-.4292683-.8288781l-.1326829.0663415c-.2318049-.2645854-.2653659-.5962927-.4300488-.8616585-.1654634-.2318049-.4963902-.2989269-.7289756-.2989269-.3644878.2005854-.9272195-.1319024-1.1590244.067122l.1990244.0999024c-.0671219.0999025-.1319024.1998049-.2989268.1639025-.7281951-.5291708-1.3580488-1.32214637-1.92-2.01990247.2981463-.82731707-.7960976-1.02478048-1.1925854-1.62185365-.5642927-.43239025-1.2924878 0-1.856.16468292-.926439-.26536585-1.888-.43004878-2.8807805-.5307317-.3988292.10068292-.6298536.5307317-.8296585.79609756-.5947317.82731707-.8593171 1.85443902-1.5555122 2.68253654-.19824391.3652683-.69463416.1982439-.96000001.4651708-.59707317 0-1.1262439.1982439-1.62341464.4963902-.032.0663415-.06712195.1654634-.16546341.1326829-.13346342.2645854-.33170732.4963903-.53073171.7594147-.49795122.6634146-1.42360975.8632195-2.11902439 1.2597073-.86165854.4979512-1.72253658.9623415-2.41951219 1.7225366l.03434146.033561c-.36292683.5291707-.89443902.8265365-1.25814634 1.3252682.36370732-.0991219.29814634-.5315121.72897561-.4643902.09834146.2638049-.23180488.3652683-.26692683.5315122.1342439-.067122.29814634-.1662439.43317073-.1319024-.06790244.1982439-.23336585.2965853-.39804878.4284878.16468293-.067122.13190244.0991219.19668293.1334634.16702439.0327805.43239024-.2653659.66419512-.1334634-.19902439.2005853-.43082927.4316097-.56429268.5307317v.0343414c.13346341 0 .23258536 0 .29892683-.1022439.23180487-.0312195.42926829-.3637073.62985365-.3949268l-.3644878.4971707.3964878-.3004878c.10068293.132683-.23258536.2333659-.06556097.3652683.29736585-.1319024.36370732-.4292683.62985366-.5619512-.03434147.2630244-.33248781.4628293-.46360976.6946342.13112195-.132683.52917073-.2318049.46360976-.4979513.26380487-.2645853.59629268-.4628292.79453658-.795317.72819512-.7953171 1.25892683-1.6218537 2.35239025-1.8536586.01560975.0148293 0 .0312195-.01170732.0398049.00312195-.0023415.00312195-.0023415.01170732-.0070244.59551219-.4987317 1.52195122-.4987317 2.0862439-1.0934634.09912195-.1319024.26380488-.3964878.49717073-.3301463v-.0663415c.03278049-.1326829.16468293-.2325854.33170732-.1998049l.03356097.1334634c.46204881-.5291707 1.25814631-.3309268 1.62185371-.8280975v.0647805c.5283902-.1639025.8952195-.6610732 1.1918048-1.0583415.1990244-.2997073.3301464-.6306342.5962927-.8288781.1662439-.2653658.2645854-.59473167.5299512-.82809752.2997073-.032.6946342-.06556098.993561.03512195.3980488.52760977 1.0934634.22946342 1.6905366.26302439.032.29814638.3301463 0 .3637073.29814638.4963903.2318048.6610732.9607805 1.0919024 1.3588292-.2645853.1654634-.5955121.4300488-.6626341.7937561-.3106341.0476098-.1912195.3036098-.2622439.4534634.1194146-.0218536.2481951.0093659.3293659.1100488l-.0983415.0999025c-.4979512.2318048-.9943415.5619512-1.4922927.862439l.0663415.0632195c-.131122.1014634-.2645854.2669268-.3644878.3332683h.0999024c.0999024.033561.0663415.1654634.0663415.1319024.1654634 0 .3309268-.2318048.4636097-.0983414.033561.032-.033561.0647805-.033561.0983414.1654635-.2318048.3660488.033561.4643903.033561-.2318049.1982439-.5307317.4300488-.7953171.6298537h.2645854c-.0983415.2965853-.4620488.1974634-.6282927.4628292.1982439 0 .0663415.2325854 0 .2645854.1319024-.032.2645854-.1990244.4300488-.0983415-.0983415.2294635-.3972683.2653659-.4300488.5291708.2310244-.1334634.3637073-.5291708.6626341-.3980488.032.0983415-.1998048.1342439-.1014634.2973658.1334634-.0327804.2325854-.1990243.3988293-.1303414.067122 0 .1319024.0663414.1006829.1303414.131122-.1631219.3964878 0 .5299512-.1303414.4612683-.6306342 1.3572683-.5315122 2.019122-.8280976l-.0327805-.1662439c.099122-.3972683.6961951-.2973658 1.0263415-.4316097.1006829-.3964878.6306341-.0983415.795317-.4628293.198244-.1670244.3652683.0663415.5627318.0663415.2661463-.1319025.6298536-.0999025.8616585-.2333659.6282927-.1303415 1.1582439.6298537 1.5219512.995122.8288781.992 2.0565854 1.723317 3.0821464 2.2197073-.5627318-.3964878-1.1574635-.6618537-1.7225366-1.092683.0335609-.0991219.1326829-.0663414.1990244-.0663414.4979512.3637073.9935609.6290731 1.4915122.9607805 1.0255609.8265366 2.2844878 1.5227317 3.4091707 1.9871219l-.1646829-.1326829c.0327804-.033561-.032-.0983415.0327804-.1326829l.2318049.1326829c.033561-.1326829.1998049-.1326829.2989269-.1670244-.164683-.2965854-.5955122-.3964878-.8936586-.5627317-.860878-.4963903-1.9207805-1.0247805-2.6825366-1.7553171l.0312195-.0312195c.96.5955122 1.955122 1.2589268 3.0478049 1.7225366.1654634.3301463.4308293.1303415.6954147.2302439-.0663415-.0327805-.1982439-.0327805-.1982439-.1342439" fill="#45b29d"/><path d="m22.8446244 11.2402732-.1319024-.3644878.1319024.4292683z" fill="#45b29d"/><path d="m16.1220488 13.0276683-.1662439-.0663415c.0991219.2645854-.2318049.1974634-.3332683.2989269l-.0312195-.1014635-.2653659.1998049c-.0327805.2661464-.4300488.0983415-.4636097.3644878.2325853 0 .4308292-.2989268.7289756-.2661463.0312195-.1966829.3644878-.2981464.5307317-.4292683" fill="#45b29d"/><path d="m15.0610537 13.2258341c-.1654635.100683-.2981464.100683-.3644878.2653659.1654634-.0343415.2989268-.1326829.3644878-.2653659" fill="#45b29d"/><path d="m26.5877659 17.1015805.3988292.2989268-.1334634-.1662439z" fill="#45b29d"/><g fill="#fff"><path d="m87.244 22.7174244h4.828878v-14.05346342h3.4661464v18.71609752h-3.4661464v-1.2628292l-13.2885853-.0343415-.035122 1.2027317h-3.5629268v-18.78868291h3.5629268v14.22048781l4.896-.0343415v-17.24878046h3.5988293z"/><path d="m65.7218927 9.31879024-7.8579512.01717074-.0632195.06712195v4.78829267l7.392.0725854v3.388878h-7.4263415l-.0374634 6.0300488 8.96.033561v3.4661463h-21.4782439v-3.4325853l8.9272195-.033561v-6.0245854l-7.3287805-.0390244v-3.4232195h7.3287805v-4.92253657l-7.8290732-.07570732v-3.39512195h19.4185366z"/><path d="m63.5321561 19.5550439c.2981463.4690732.4027317 1.1036098.2630244 1.7030244-.161561.6282927-.7640976 1.2932683-1.3955122 1.4595122-.8679024.2739512-1.7022439-.0343415-2.2985366-.6657561-.3683902-.4284878-.4995122-.958439-.4706341-1.568.0710244-.7906342.7047804-1.5836098 1.468878-1.792.899122-.2677073 1.8997073.033561 2.4327805.8632195"/><path d="m7.27756098 12.1984c.13190243-.097561.23180487-.2630244.26380487-.4284878-.09834146.1654634-.36370731.2302439-.26380487.4284878"/><path d="m10.4558634 12.2638829.1006829-.032h-.1006829z"/><path d="m9.5641561 12.5955122c.09834146.0351219.13112195-.0632195.1982439-.1319024-.06712195-.0647805-.1982439.0335609-.1982439.1319024"/><path d="m8.13804878 13.6907707c.03356098-.0663414.16546342.032.09990244-.0663414-.03278049 0-.06634146.032-.09990244.0663414"/><path d="m15.855278 15.0817561c.1334635-.0983415.3652683-.0983415.3980488-.2318049 0-.0343414-.0999024 0-.1311219-.0343414-.1006829.0663414-.2989269.1334634-.2669269.2661463"/><path d="m24.2036098 15.1800976c-.1334635-.0663415-.1982439-.2310244-.2989269-.3301464.132683.2965854.2645854.5299512.4971708.7601951l.1006829-.0991219c-.1006829-.0983415-.1662439-.2645854-.2989268-.3309268"/></g></g></svg>