<svg xmlns="http://www.w3.org/2000/svg" width="128.436" height="274.928" viewBox="0 0 128.436 274.928">
  <g id="marketing_float_btn01" transform="translate(-779.574 -4759.5)">
    <g id="Group_3898" data-name="Group 3898" transform="translate(0 -1)">
      <circle id="Ellipse_189" data-name="Ellipse 189" cx="25" cy="25" r="25" transform="translate(811 4944.5)" fill="#00a19b"/>
      <path id="Path_2690" data-name="Path 2690" d="M4907,908.118a1,1,0,0,1-.707-.293L4898,899.532l-8.293,8.293a1,1,0,0,1-1.414-1.414l9-9a1,1,0,0,1,1.414,0l9,9a1,1,0,0,1-.707,1.707Z" transform="translate(-4061.5 4066.882)" fill="#fff"/>
    </g>
    <circle id="Ellipse_190" data-name="Ellipse 190" cx="38" cy="38" r="38" transform="translate(798 4851.5)" fill="#ef7800"/>
    <g id="Group_3894" data-name="Group 3894" transform="translate(139 4563.5)">
      <path id="Rectangle_1217" data-name="Rectangle 1217" d="M1,1V25H25V1H1M0,0H26V26H0Z" transform="translate(684 300)" fill="#fff"/>
      <path id="Path_2693" data-name="Path 2693" d="M1.135,0H2.324V-7.369H1.135Zm.6-8.791a.785.785,0,0,0,.581-.243.794.794,0,0,0,.239-.578.791.791,0,0,0-.239-.581.791.791,0,0,0-.581-.239.794.794,0,0,0-.578.239.785.785,0,0,0-.243.581.789.789,0,0,0,.243.578A.789.789,0,0,0,1.736-8.791ZM7.431.13A3.563,3.563,0,0,0,8.948-.164,2.606,2.606,0,0,0,9.96-.974a3.108,3.108,0,0,0,.533-1.179l.014-.075-1.176.007-.014.041a1.766,1.766,0,0,1-.677.937,2.119,2.119,0,0,1-1.217.321,1.932,1.932,0,0,1-1.142-.342,2.2,2.2,0,0,1-.752-.967,3.738,3.738,0,0,1-.267-1.473v-.014a3.64,3.64,0,0,1,.263-1.446,2.146,2.146,0,0,1,.749-.947,1.972,1.972,0,0,1,1.148-.335A2,2,0,0,1,8.7-6.063a1.689,1.689,0,0,1,.622.93l.007.021h1.183l-.007-.041a2.732,2.732,0,0,0-.5-1.186,2.748,2.748,0,0,0-1.039-.844A3.513,3.513,0,0,0,7.424-7.5a3.342,3.342,0,0,0-1.791.468A3.107,3.107,0,0,0,4.46-5.715a4.505,4.505,0,0,0-.414,2v.014a4.613,4.613,0,0,0,.417,2.03A3.136,3.136,0,0,0,5.64-.342,3.323,3.323,0,0,0,7.431.13Zm7.7,0a3.42,3.42,0,0,0,1.812-.461,3.055,3.055,0,0,0,1.172-1.316,4.618,4.618,0,0,0,.414-2.03v-.014a4.635,4.635,0,0,0-.414-2.037,3.033,3.033,0,0,0-1.172-1.312A3.44,3.44,0,0,0,15.128-7.5a3.445,3.445,0,0,0-1.808.458,3.026,3.026,0,0,0-1.176,1.313,4.635,4.635,0,0,0-.414,2.037v.014a4.618,4.618,0,0,0,.414,2.03A3.048,3.048,0,0,0,13.32-.332,3.425,3.425,0,0,0,15.128.13Zm0-1.053a2.062,2.062,0,0,1-1.183-.328,2.056,2.056,0,0,1-.742-.943,3.852,3.852,0,0,1-.256-1.483v-.014a3.872,3.872,0,0,1,.256-1.49,2.035,2.035,0,0,1,.742-.94,2.078,2.078,0,0,1,1.183-.325,2.078,2.078,0,0,1,1.183.325,2.035,2.035,0,0,1,.742.94,3.872,3.872,0,0,1,.256,1.49v.014a3.852,3.852,0,0,1-.256,1.483,2.056,2.056,0,0,1-.742.943A2.062,2.062,0,0,1,15.128-.923ZM20.221,0H21.41V-4.361a2.437,2.437,0,0,1,.236-1.114,1.707,1.707,0,0,1,.667-.718,1.975,1.975,0,0,1,1.019-.253,1.638,1.638,0,0,1,1.3.482,2.207,2.207,0,0,1,.42,1.48V0h1.189V-4.771a2.835,2.835,0,0,0-.667-2.02A2.5,2.5,0,0,0,23.666-7.5a2.515,2.515,0,0,0-1.34.325,2.112,2.112,0,0,0-.807.913H21.41V-7.369H20.221ZM41.832-9.842H38.556c-.2-.644-.392-1.2-.6-1.708l-1.022.168a13.066,13.066,0,0,1,.616,1.54h-3.22v2.814h.952v-1.9h5.586v1.848h.966Zm-4.9,1.792c-.2.784-.406,1.526-.644,2.254h-2.3v.966h1.96A20.284,20.284,0,0,1,34.93-2.6q1.386.735,2.6,1.428A11.373,11.373,0,0,1,33.348.5l.406.952A11.01,11.01,0,0,0,38.486-.616c1.26.742,2.31,1.414,3.15,2.03l.686-.8C41.51.056,40.46-.6,39.144-1.33A7.354,7.354,0,0,0,40.6-4.83h1.68V-5.8H37.31c.2-.644.406-1.372.6-2.17Zm2.7,3.22a6.256,6.256,0,0,1-1.386,3.01c-.658-.35-1.372-.714-2.128-1.106a15.567,15.567,0,0,0,.854-1.9Zm-8.526,6.1a1.072,1.072,0,0,0,1.2-1.218V-3.99c.434-.2.868-.392,1.3-.6V-5.614q-.651.336-1.3.63v-2.8h1.316V-8.75H32.312V-11.4H31.276V-8.75H29.638v.966h1.638v3.206A16.9,16.9,0,0,1,29.358-4L29.61-3c.546-.168,1.106-.364,1.666-.574V-.2c0,.364-.182.546-.518.546s-.686-.028-1.05-.056l.21.98ZM46.06-7.154v1.568H44.2v.952H46.06V-.266c-.7.126-1.414.238-2.128.336l.252,1.008a42.126,42.126,0,0,0,4.76-1.05V-.938c-.616.168-1.26.336-1.9.476V-4.634h1.806v-.952H47.04V-7.154H48.3v-.91H45.052a22.529,22.529,0,0,0,1.526-2.3,26.5,26.5,0,0,1,2.058,2.576l.644-.7c-.784-.994-1.6-1.946-2.436-2.842h-.7a17.755,17.755,0,0,1-2.436,3.472l.546.756c.2-.224.392-.462.588-.7v.644ZM45-3.962l-.8.252a26.343,26.343,0,0,1,.546,2.7l.784-.2C45.374-2.24,45.192-3.164,45-3.962Zm3.094-.084a15.152,15.152,0,0,1-.574,2.422l.742.28a16.784,16.784,0,0,0,.63-2.478ZM54.614-9.87,54.334-5.7H51.94l.308-4.172ZM50.988-5.7H49.182v.952h1.736L50.568.028h-1.3V.98h7.14V.028h-1.47l.294-4.774h1.344V-5.7H55.286l.322-5.124H49.672v.952H51.3ZM51.52.028l.35-4.774h2.408L53.97.028Z" transform="translate(668.5 346)" fill="#fff"/>
    </g>
    <g id="Group_3895" data-name="Group 3895" transform="translate(136 4563.5)">
      <circle id="Ellipse_147" data-name="Ellipse 147" cx="38" cy="38" r="38" transform="translate(662 196)" fill="#ef7800"/>
      <path id="Ellipse_147_-_Outline" data-name="Ellipse 147 - Outline" d="M38,1A37.01,37.01,0,0,0,23.6,72.093,37.01,37.01,0,0,0,52.4,3.907,36.767,36.767,0,0,0,38,1m0-1A38,38,0,1,1,0,38,38,38,0,0,1,38,0Z" transform="translate(662 196)" fill="#ef7800"/>
      <path id="Path_2692" data-name="Path 2692" d="M-15.61-9.842v.91h3.038V-3.71h-1.512V-7.42h-.952V-2.8h2.464V-.126c0,.868.406,1.3,1.232,1.3h1.792A1.434,1.434,0,0,0-8.582.84a5.133,5.133,0,0,0,.5-2.254l-.9-.294A4.268,4.268,0,0,1-9.3.126a.782.782,0,0,1-.5.168h-1.274c-.364,0-.532-.21-.532-.6V-2.8H-9.1V-7.448h-.952V-3.71h-1.554V-8.932h3v-.91h-3V-11.41h-.966v1.568ZM-20.1-2.1a11.02,11.02,0,0,1-.672,3.248l.882.28a13.312,13.312,0,0,0,.672-3.416Zm2.394-.112-.8.182a27.085,27.085,0,0,1,.56,3.066l.882-.21C-17.248-.266-17.458-1.274-17.71-2.212Zm1.176-3.668-.784.252q.21.567.42,1.176c-.77.2-1.54.364-2.324.49a29.825,29.825,0,0,0,3.29-4.928l-.91-.336c-.322.588-.63,1.148-.938,1.68-.6.112-1.2.2-1.792.28A20.109,20.109,0,0,0-17.5-11.13l-.938-.364a19.758,19.758,0,0,1-1.9,3.934.9.9,0,0,1-.42.378l.266.924c.728-.112,1.442-.238,2.156-.364a13.617,13.617,0,0,1-1.876,2.506,1.868,1.868,0,0,1-.462.294l.266.91A26.414,26.414,0,0,0-16.66-3.7c.07.252.14.532.21.812l.826-.21A22.482,22.482,0,0,0-16.534-5.88Zm.434,3.234-.784.252A19.012,19.012,0,0,1-15.946.392l.826-.378A19.782,19.782,0,0,0-16.1-2.646Zm9.856-6.426v1.008h2.156A12.8,12.8,0,0,0-.714-2.436a13.748,13.748,0,0,1-5.8,3l.532.882A14.617,14.617,0,0,0-.014-1.792a18.734,18.734,0,0,0,5.74,3.248l.546-.84A18.347,18.347,0,0,1,.686-2.506,14.307,14.307,0,0,0,3.78-8.064H5.964V-9.072H.616A12.31,12.31,0,0,0-.84-11.536l-1.008.364a10.759,10.759,0,0,1,1.4,2.1Zm3.15,1.008H2.73A12.569,12.569,0,0,1-.014-3.136,11.626,11.626,0,0,1-3.094-8.064ZM20.076-10H14.8c-.182-.574-.378-1.092-.574-1.554l-1.148.2A11.205,11.205,0,0,1,13.706-10H8.2v3.122H9.212V-9.03h9.856v2.156h1.008ZM10.36-7.518v.938h6.006c-.574.364-1.428.854-2.562,1.442v1.372H7.952v.98H13.8V-.168c0,.406-.182.616-.546.616-.588,0-1.12-.014-1.61-.028l.238.924h1.722c.812,0,1.218-.392,1.218-1.162V-2.786h5.516v-.98H14.826V-4.7A31.955,31.955,0,0,0,17.878-6.58v-.938ZM-1.33,7.158H-4.606c-.2-.644-.392-1.2-.6-1.708l-1.022.168a13.067,13.067,0,0,1,.616,1.54h-3.22V9.972h.952v-1.9H-2.3V9.916h.966ZM-6.23,8.95c-.2.784-.406,1.526-.644,2.254h-2.3v.966h1.96A20.284,20.284,0,0,1-8.232,14.4q1.386.735,2.6,1.428A11.373,11.373,0,0,1-9.814,17.5l.406.952a11.01,11.01,0,0,0,4.732-2.072c1.26.742,2.31,1.414,3.15,2.03l.686-.8c-.812-.56-1.862-1.218-3.178-1.946a7.354,7.354,0,0,0,1.456-3.5h1.68V11.2h-4.97c.2-.644.406-1.372.6-2.17Zm2.7,3.22a6.256,6.256,0,0,1-1.386,3.01c-.658-.35-1.372-.714-2.128-1.106a15.567,15.567,0,0,0,.854-1.9Zm-8.526,6.1a1.072,1.072,0,0,0,1.2-1.218V13.01c.434-.2.868-.392,1.3-.6V11.386q-.651.336-1.3.63v-2.8h1.316V8.25H-10.85V5.6h-1.036V8.25h-1.638v.966h1.638v3.206A16.9,16.9,0,0,1-13.8,13L-13.552,14c.546-.168,1.106-.364,1.666-.574V16.8c0,.364-.182.546-.518.546s-.686-.028-1.05-.056l.21.98ZM2.9,9.846v1.568H1.036v.952H2.9v4.368c-.7.126-1.414.238-2.128.336l.252,1.008a42.126,42.126,0,0,0,4.76-1.05v-.966c-.616.168-1.26.336-1.9.476V12.366H5.684v-.952H3.878V9.846h1.26v-.91H1.89a22.529,22.529,0,0,0,1.526-2.3A26.5,26.5,0,0,1,5.474,9.216l.644-.7c-.784-.994-1.6-1.946-2.436-2.842h-.7A17.755,17.755,0,0,1,.546,9.146l.546.756c.2-.224.392-.462.588-.7v.644ZM1.834,13.038l-.8.252a26.343,26.343,0,0,1,.546,2.7l.784-.2C2.212,14.76,2.03,13.836,1.834,13.038Zm3.094-.084a15.152,15.152,0,0,1-.574,2.422l.742.28a16.784,16.784,0,0,0,.63-2.478ZM11.452,7.13l-.28,4.172H8.778L9.086,7.13ZM7.826,11.3H6.02v.952H7.756l-.35,4.774H6.1v.952h7.14v-.952h-1.47l.294-4.774h1.344V11.3H12.124l.322-5.124H6.51V7.13H8.134Zm.532,5.726.35-4.774h2.408l-.308,4.774Z" transform="translate(700 232)" fill="#fff"/>
    </g>
    <path id="Line_62" data-name="Line 62" d="M16,.5H0v-1H16Z" transform="translate(874.5 4797.5)" fill="#f8524c"/>
    <path id="Line_64" data-name="Line 64" d="M.5,16h-1V0h1Z" transform="translate(836 4835.5)" fill="#f8524c"/>
    <path id="Line_65" data-name="Line 65" d="M.5,16h-1V0h1Z" transform="translate(836 4927.5)" fill="#f8524c"/>
    <path id="Line_66" data-name="Line 66" d="M.5,16h-1V0h1Z" transform="translate(836 4994.5)" fill="#f8524c"/>
    <path id="Line_63" data-name="Line 63" d="M.5,213h-1V0h1Z" transform="translate(890 4797.5)" fill="#d9d9d9"/>
    <path id="Path_2695" data-name="Path 2695" d="M3.514,0h1.23V-9.864H3.521L.9-7.978v1.3L3.4-8.5h.109Zm7.417.232a3.546,3.546,0,0,0,1.777-.441,3.249,3.249,0,0,0,1.227-1.207,3.4,3.4,0,0,0,.448-1.75v-.014a3.39,3.39,0,0,0-.42-1.7A3.118,3.118,0,0,0,12.811-6.05a3.212,3.212,0,0,0-1.661-.431,3.162,3.162,0,0,0-1.189.212,2.74,2.74,0,0,0-.889.561,2.477,2.477,0,0,0-.547.752H8.285v1.777h.4v-.007a2.205,2.205,0,0,1,.3-1.145,2.146,2.146,0,0,1,.807-.79,2.291,2.291,0,0,1,1.145-.287,2.227,2.227,0,0,1,1.142.291,2.079,2.079,0,0,1,.783.8,2.354,2.354,0,0,1,.284,1.166v.014a2.284,2.284,0,0,1-.3,1.155,2.246,2.246,0,0,1-.8.824,2.146,2.146,0,0,1-1.128.3,2.111,2.111,0,0,1-1.128-.311A2.285,2.285,0,0,1,8.986-2a2.348,2.348,0,0,1-.3-1.176L8.395-4.819v-.188q0-.092.007-.181a7.324,7.324,0,0,1,.311-1.9,3.126,3.126,0,0,1,.831-1.388A2.049,2.049,0,0,1,11-9a2.3,2.3,0,0,1,.892.164,1.9,1.9,0,0,1,.67.461,2.059,2.059,0,0,1,.427.714l.027.075h1.237l-.021-.089a3.007,3.007,0,0,0-.612-1.275,3.076,3.076,0,0,0-1.114-.848,3.557,3.557,0,0,0-1.494-.3,3.322,3.322,0,0,0-2.044.632,3.943,3.943,0,0,0-1.3,1.825,8.142,8.142,0,0,0-.451,2.875v.014A7.425,7.425,0,0,0,7.54-2.4,4.21,4.21,0,0,0,8.4-.868a3.244,3.244,0,0,0,1.2.841A3.62,3.62,0,0,0,10.931.232Zm5.284,2.229H17.4V-1.162h.109a2.189,2.189,0,0,0,.55.684,2.6,2.6,0,0,0,.793.448,2.8,2.8,0,0,0,.954.161,2.83,2.83,0,0,0,1.63-.472,3.08,3.08,0,0,0,1.077-1.326,4.881,4.881,0,0,0,.383-2.01v-.014a4.862,4.862,0,0,0-.383-2,3.1,3.1,0,0,0-1.077-1.33,2.815,2.815,0,0,0-1.63-.475,2.79,2.79,0,0,0-.95.157,2.494,2.494,0,0,0-.779.448,2.475,2.475,0,0,0-.567.7H17.4V-7.369H16.215ZM19.537-.923a1.983,1.983,0,0,1-1.155-.335,2.119,2.119,0,0,1-.745-.954,3.773,3.773,0,0,1-.26-1.466v-.014a3.767,3.767,0,0,1,.26-1.47,2.122,2.122,0,0,1,.745-.95,1.983,1.983,0,0,1,1.155-.335,1.978,1.978,0,0,1,1.155.332,2.1,2.1,0,0,1,.735.947,3.831,3.831,0,0,1,.256,1.477v.014A3.837,3.837,0,0,1,21.427-2.2a2.094,2.094,0,0,1-.735.95A1.978,1.978,0,0,1,19.537-.923ZM23.68,0h1.333l1.75-2.782h.109L28.615,0H30.01L27.474-3.732l2.5-3.637H28.643L26.913-4.628H26.8l-1.75-2.741h-1.4L26.2-3.685Z" transform="translate(878 4786)" fill="#f8524c"/>
    <path id="Path_2694" data-name="Path 2694" d="M1.358-10.864V-6.44h1.96V-.49L2.24-.224v-4.8h-.9v5L.574.14l.28.966A44.5,44.5,0,0,0,5.964-.28v-.994c-.546.182-1.12.364-1.708.532V-3.3H5.74v-.952H4.256V-6.44H5.572v-4.424ZM4.606-7.378H2.338V-9.926H4.606ZM12.474-2.8V-7.588H7.8V-10H13.02v-.952H5.992V-10h.84V-.028H5.978V.91H13.23V-.028H7.8V-2.8ZM7.8-6.65h3.724v2.884H7.8Zm7.322-3.64v.868H21.5v-.868H18.788c-.126-.42-.252-.812-.378-1.162l-1.008.168a8.17,8.17,0,0,1,.392.994Zm4.956,4.368H16.534V-8.666h-.9V-5.11h2.324l-.266.994H15.344V1.316h.9V-3.276h1.218a6.612,6.612,0,0,1-.812,2.1l.14.63c.9-.14,1.708-.308,2.436-.476.056.224.126.448.182.672l.644-.168a14.79,14.79,0,0,0-.8-2.38l-.616.21a10.721,10.721,0,0,1,.378,1.008c-.406.084-.854.168-1.358.252a16.692,16.692,0,0,0,.658-1.848H20.5V.182c0,.252-.154.378-.448.378L19.026.532l.21.8h1.078c.7,0,1.064-.322,1.064-.952V-4.116H18.564l.28-.994H20.93v-.532l.56.518a11.365,11.365,0,0,0,.91-1.652V1.358h.91V.686h4.312V-.238H25.83v-2.2h1.3v-.9h-1.3V-5.264h1.3v-.9h-1.3V-8.106H27.4V-9.03H25.466l.406-.154c-.168-.672-.392-1.428-.686-2.254l-.91.252a19.362,19.362,0,0,1,.7,2.156H23.212c.182-.672.35-1.414.518-2.212l-.868-.238A18.729,18.729,0,0,1,20.93-5.768v-2.9h-.854ZM17.374-9l-.49.476c.378.308.742.616,1.078.938a4.95,4.95,0,0,1-1.092.728l.28.658a5.493,5.493,0,0,0,1.33-.882,11.36,11.36,0,0,1,.77.9l.518-.532c-.252-.28-.518-.574-.812-.868a5.372,5.372,0,0,0,.714-1.106l-.588-.434a5.214,5.214,0,0,1-.658,1.036C18.1-8.4,17.752-8.694,17.374-9ZM23.31-5.264h1.61v1.932H23.31Zm0,2.828h1.61v2.2H23.31Zm1.61-5.67V-6.16H23.31V-8.106Zm4.732,5.8A14.565,14.565,0,0,1,29.12.966l.812.238a15.671,15.671,0,0,0,.518-3.416Zm2.058-.028-.728.154A25.574,25.574,0,0,1,31.472.7L32.3.518Q32.046-1.036,31.71-2.338Zm1.106-3.668-.728.238c.14.434.28.882.406,1.358-.644.168-1.3.308-1.96.42a28.9,28.9,0,0,0,2.982-4.844l-.882-.322c-.294.588-.574,1.134-.84,1.666q-.777.147-1.554.252a20.94,20.94,0,0,0,1.9-3.92l-.91-.364a21.459,21.459,0,0,1-1.666,3.948,1,1,0,0,1-.406.364l.252.9c.63-.1,1.26-.2,1.9-.308a13.946,13.946,0,0,1-1.666,2.478,1.054,1.054,0,0,1-.42.252l.252.868a18.953,18.953,0,0,0,3.192-.686c.056.224.1.476.154.728l.756-.2A21.975,21.975,0,0,0,32.816-6.006Zm.238,3.29-.672.224a17.907,17.907,0,0,1,.756,2.464l.728-.322A20.343,20.343,0,0,0,33.054-2.716Zm4.228,1.75h2.366v-.826h-2.1c-.266,0-.392-.112-.392-.336V-3.864h2.688v-.868H38.3c-.14-.518-.294-.98-.448-1.4l-.868.14a10.73,10.73,0,0,1,.5,1.26H35.7v.868h.588v1.876A.891.891,0,0,0,37.282-.966Zm-.6-8.344-.728.238a11.29,11.29,0,0,1,.784,1.694l.7-.308A13.331,13.331,0,0,0,36.68-9.31Zm1.9-.084a10.1,10.1,0,0,1-.532,2.058H35.56v.868h4.41v-.868H38.808a9.046,9.046,0,0,0,.616-1.946ZM40.348,1.19c.728,0,1.106-.406,1.106-1.2V-10.85H34.09V1.288h.924V-9.954h5.5v9.73c0,.364-.168.546-.476.546L38.3.28l.252.91Zm4.956-9.9v7.644h9.3V-8.708H49.966a11.367,11.367,0,0,0,.266-1.274h5.614v-.924H43.834v.924h5.39a7.96,7.96,0,0,1-.28,1.274ZM53.606-2H46.284V-3.416h7.322ZM46.284-4.284V-5.628h7.322v1.344Zm0-2.212V-7.784h7.322V-6.5ZM51.576-.91l-.476.7A25.481,25.481,0,0,1,55.608,1.4L56.14.588A29.082,29.082,0,0,0,51.576-.91ZM48.02-.882A14.469,14.469,0,0,1,43.456.6l.476.826A14.581,14.581,0,0,0,48.552-.2ZM62.44-4.158h3.444a9.232,9.232,0,0,0,.308,1.6A8.373,8.373,0,0,0,67.41.2a1.882,1.882,0,0,0,1.414.924c.364,0,.686-.266.98-.8a9.173,9.173,0,0,0,.658-1.666l-.84-.546C69.328-.616,69.048.042,68.768.084q-.42-.021-.924-.84a8.679,8.679,0,0,1-.826-2.45c-.056-.294-.112-.616-.168-.952h2.94V-5.11H66.752c-.056-.63-.1-1.33-.1-2.114,1.008-.14,1.96-.308,2.884-.49L69.02-8.54a54.885,54.885,0,0,1-7.574.938V-2a.478.478,0,0,1-.336.476l.224.91c1.61-.28,3.01-.546,4.186-.8l-.168-.938c-.952.224-1.932.406-2.912.574Zm3.332-.952H62.44V-6.8Q64.1-6.93,65.674-7.1C65.674-6.384,65.716-5.726,65.772-5.11ZM64.5-11.48l-1.05.168a7.382,7.382,0,0,1,.686,1.134h-5.18V-6.02A16.035,16.035,0,0,1,57.75.658l.756.672a17.272,17.272,0,0,0,1.456-7.35V-9.2h10.36v-.98H65.17Q64.834-10.892,64.5-11.48ZM61.208.14v.938H66.29V.14ZM79.814-10.878V1.372h.98V-9.94h2.562a35.7,35.7,0,0,1-1.484,3.934,6.223,6.223,0,0,1,1.764,3.374,1.583,1.583,0,0,1-.238.938,1.643,1.643,0,0,1-1.008.266,9.186,9.186,0,0,1-.966-.07l.308,1.064a3.83,3.83,0,0,0,2.352-.5,2.155,2.155,0,0,0,.546-1.694,6.222,6.222,0,0,0-1.68-3.374c.532-1.26,1.036-2.632,1.5-4.116v-.756Zm-7.462.84v.966h.728a23.054,23.054,0,0,1,.826,2.87H72.114v.966h6.93V-6.2h-1.75a20.219,20.219,0,0,0,.966-2.87h.672v-.966H76.09c-.14-.546-.294-1.036-.434-1.47l-1.022.168c.168.392.322.826.476,1.3Zm4,3.836h-1.5c-.252-1.092-.518-2.044-.8-2.87h3.22A27.563,27.563,0,0,1,76.356-6.2Zm2.03,2.31H72.94V1.372h.98V.616h3.472v.756h.994ZM73.92-.336v-2.59h3.472v2.59ZM90.944,0h1.23V-9.864H90.951L88.326-7.978v1.3L90.834-8.5h.109Zm7.417.232a3.546,3.546,0,0,0,1.777-.441,3.249,3.249,0,0,0,1.227-1.207,3.4,3.4,0,0,0,.448-1.75v-.014a3.39,3.39,0,0,0-.42-1.7,3.118,3.118,0,0,0-1.152-1.176,3.212,3.212,0,0,0-1.661-.431,3.162,3.162,0,0,0-1.189.212,2.74,2.74,0,0,0-.889.561,2.477,2.477,0,0,0-.547.752h-.239v1.777h.4v-.007a2.205,2.205,0,0,1,.3-1.145,2.146,2.146,0,0,1,.807-.79,2.291,2.291,0,0,1,1.145-.287,2.227,2.227,0,0,1,1.142.291,2.079,2.079,0,0,1,.783.8,2.354,2.354,0,0,1,.284,1.166v.014a2.284,2.284,0,0,1-.3,1.155,2.246,2.246,0,0,1-.8.824,2.146,2.146,0,0,1-1.128.3,2.111,2.111,0,0,1-1.128-.311,2.285,2.285,0,0,1-.8-.837,2.348,2.348,0,0,1-.3-1.176l-.294-1.641v-.188q0-.092.007-.181a7.324,7.324,0,0,1,.311-1.9,3.126,3.126,0,0,1,.831-1.388A2.049,2.049,0,0,1,98.429-9a2.3,2.3,0,0,1,.892.164,1.9,1.9,0,0,1,.67.461,2.059,2.059,0,0,1,.427.714l.027.075h1.237l-.021-.089a3.007,3.007,0,0,0-.612-1.275,3.075,3.075,0,0,0-1.114-.848,3.557,3.557,0,0,0-1.494-.3,3.322,3.322,0,0,0-2.044.632,3.943,3.943,0,0,0-1.3,1.825,8.142,8.142,0,0,0-.451,2.875v.014A7.425,7.425,0,0,0,94.97-2.4a4.21,4.21,0,0,0,.858,1.535,3.244,3.244,0,0,0,1.2.841A3.62,3.62,0,0,0,98.361.232Zm7.116-4.908A1.815,1.815,0,0,0,106.56-5a2.042,2.042,0,0,0,.7-.923,3.743,3.743,0,0,0,.243-1.412v-.007a3.737,3.737,0,0,0-.243-1.415,2.021,2.021,0,0,0-.7-.916,1.829,1.829,0,0,0-1.083-.321,1.813,1.813,0,0,0-1.08.321,2.031,2.031,0,0,0-.694.916,3.737,3.737,0,0,0-.243,1.415v.007a3.743,3.743,0,0,0,.243,1.412A2.052,2.052,0,0,0,104.4-5,1.8,1.8,0,0,0,105.477-4.676Zm0-.813a.868.868,0,0,1-.786-.489,2.743,2.743,0,0,1-.28-1.357v-.007a2.723,2.723,0,0,1,.28-1.354.869.869,0,0,1,.786-.485.876.876,0,0,1,.79.485,2.7,2.7,0,0,1,.284,1.354v.007a2.715,2.715,0,0,1-.284,1.357A.875.875,0,0,1,105.477-5.489ZM106.215,0l6.713-9.864h-1.107L105.108,0Zm6.33.13a1.815,1.815,0,0,0,1.083-.325,2.044,2.044,0,0,0,.7-.919,3.737,3.737,0,0,0,.243-1.415v-.007a3.737,3.737,0,0,0-.243-1.415,2.021,2.021,0,0,0-.7-.916,1.829,1.829,0,0,0-1.083-.321,1.813,1.813,0,0,0-1.08.321,2.031,2.031,0,0,0-.694.916,3.737,3.737,0,0,0-.243,1.415v.007a3.737,3.737,0,0,0,.243,1.415,2.054,2.054,0,0,0,.694.919A1.8,1.8,0,0,0,112.545.13Zm0-.813a.868.868,0,0,1-.786-.489,2.743,2.743,0,0,1-.28-1.357v-.007a2.723,2.723,0,0,1,.28-1.354.869.869,0,0,1,.786-.485.876.876,0,0,1,.79.485,2.7,2.7,0,0,1,.284,1.354v.007a2.715,2.715,0,0,1-.284,1.357A.875.875,0,0,1,112.545-.684Z" transform="translate(779 5033)" fill="#f8524c"/>
    <path id="Line_67" data-name="Line 67" d="M95.5.5H0v-1H95.5Z" transform="translate(794.5 5010.5)" fill="#d9d9d9"/>
  </g>
</svg>
