<svg xmlns="http://www.w3.org/2000/svg" width="76" height="274.928" viewBox="0 0 76 274.928">
  <g id="marketing_float_btn02" transform="translate(-7787 -4784.25)">
    <circle id="Ellipse_192" data-name="Ellipse 192" cx="25" cy="25" r="25" transform="translate(7800 4969.25)" fill="#00a19b"/>
    <path id="Path_2696" data-name="Path 2696" d="M4907,908.118a1,1,0,0,1-.707-.293L4898,899.532l-8.293,8.293a1,1,0,0,1-1.414-1.414l9-9a1,1,0,0,1,1.414,0l9,9a1,1,0,0,1-.707,1.707Z" transform="translate(2927 4091.632)" fill="#fff"/>
    <g id="Group_3900" data-name="Group 3900" transform="translate(7125 4588.25)">
      <path id="Ellipse_147" data-name="Ellipse 147" d="M38,1A37.01,37.01,0,0,0,23.6,72.093,37.01,37.01,0,0,0,52.4,3.907,36.767,36.767,0,0,0,38,1m0-1A38,38,0,1,1,0,38,38,38,0,0,1,38,0Z" transform="translate(662 196)" fill="#ef7800"/>
      <path id="Path_2697" data-name="Path 2697" d="M-15.61-9.842v.91h3.038V-3.71h-1.512V-7.42h-.952V-2.8h2.464V-.126c0,.868.406,1.3,1.232,1.3h1.792A1.434,1.434,0,0,0-8.582.84a5.133,5.133,0,0,0,.5-2.254l-.9-.294A4.268,4.268,0,0,1-9.3.126a.782.782,0,0,1-.5.168h-1.274c-.364,0-.532-.21-.532-.6V-2.8H-9.1V-7.448h-.952V-3.71h-1.554V-8.932h3v-.91h-3V-11.41h-.966v1.568ZM-20.1-2.1a11.02,11.02,0,0,1-.672,3.248l.882.28a13.312,13.312,0,0,0,.672-3.416Zm2.394-.112-.8.182a27.085,27.085,0,0,1,.56,3.066l.882-.21C-17.248-.266-17.458-1.274-17.71-2.212Zm1.176-3.668-.784.252q.21.567.42,1.176c-.77.2-1.54.364-2.324.49a29.825,29.825,0,0,0,3.29-4.928l-.91-.336c-.322.588-.63,1.148-.938,1.68-.6.112-1.2.2-1.792.28A20.109,20.109,0,0,0-17.5-11.13l-.938-.364a19.758,19.758,0,0,1-1.9,3.934.9.9,0,0,1-.42.378l.266.924c.728-.112,1.442-.238,2.156-.364a13.617,13.617,0,0,1-1.876,2.506,1.868,1.868,0,0,1-.462.294l.266.91A26.414,26.414,0,0,0-16.66-3.7c.07.252.14.532.21.812l.826-.21A22.482,22.482,0,0,0-16.534-5.88Zm.434,3.234-.784.252A19.012,19.012,0,0,1-15.946.392l.826-.378A19.782,19.782,0,0,0-16.1-2.646Zm9.856-6.426v1.008h2.156A12.8,12.8,0,0,0-.714-2.436a13.748,13.748,0,0,1-5.8,3l.532.882A14.617,14.617,0,0,0-.014-1.792a18.734,18.734,0,0,0,5.74,3.248l.546-.84A18.347,18.347,0,0,1,.686-2.506,14.307,14.307,0,0,0,3.78-8.064H5.964V-9.072H.616A12.31,12.31,0,0,0-.84-11.536l-1.008.364a10.759,10.759,0,0,1,1.4,2.1Zm3.15,1.008H2.73A12.569,12.569,0,0,1-.014-3.136,11.626,11.626,0,0,1-3.094-8.064ZM20.076-10H14.8c-.182-.574-.378-1.092-.574-1.554l-1.148.2A11.205,11.205,0,0,1,13.706-10H8.2v3.122H9.212V-9.03h9.856v2.156h1.008ZM10.36-7.518v.938h6.006c-.574.364-1.428.854-2.562,1.442v1.372H7.952v.98H13.8V-.168c0,.406-.182.616-.546.616-.588,0-1.12-.014-1.61-.028l.238.924h1.722c.812,0,1.218-.392,1.218-1.162V-2.786h5.516v-.98H14.826V-4.7A31.955,31.955,0,0,0,17.878-6.58v-.938ZM-1.33,7.158H-4.606c-.2-.644-.392-1.2-.6-1.708l-1.022.168a13.067,13.067,0,0,1,.616,1.54h-3.22V9.972h.952v-1.9H-2.3V9.916h.966ZM-6.23,8.95c-.2.784-.406,1.526-.644,2.254h-2.3v.966h1.96A20.284,20.284,0,0,1-8.232,14.4q1.386.735,2.6,1.428A11.373,11.373,0,0,1-9.814,17.5l.406.952a11.01,11.01,0,0,0,4.732-2.072c1.26.742,2.31,1.414,3.15,2.03l.686-.8c-.812-.56-1.862-1.218-3.178-1.946a7.354,7.354,0,0,0,1.456-3.5h1.68V11.2h-4.97c.2-.644.406-1.372.6-2.17Zm2.7,3.22a6.256,6.256,0,0,1-1.386,3.01c-.658-.35-1.372-.714-2.128-1.106a15.567,15.567,0,0,0,.854-1.9Zm-8.526,6.1a1.072,1.072,0,0,0,1.2-1.218V13.01c.434-.2.868-.392,1.3-.6V11.386q-.651.336-1.3.63v-2.8h1.316V8.25H-10.85V5.6h-1.036V8.25h-1.638v.966h1.638v3.206A16.9,16.9,0,0,1-13.8,13L-13.552,14c.546-.168,1.106-.364,1.666-.574V16.8c0,.364-.182.546-.518.546s-.686-.028-1.05-.056l.21.98ZM2.9,9.846v1.568H1.036v.952H2.9v4.368c-.7.126-1.414.238-2.128.336l.252,1.008a42.126,42.126,0,0,0,4.76-1.05v-.966c-.616.168-1.26.336-1.9.476V12.366H5.684v-.952H3.878V9.846h1.26v-.91H1.89a22.529,22.529,0,0,0,1.526-2.3A26.5,26.5,0,0,1,5.474,9.216l.644-.7c-.784-.994-1.6-1.946-2.436-2.842h-.7A17.755,17.755,0,0,1,.546,9.146l.546.756c.2-.224.392-.462.588-.7v.644ZM1.834,13.038l-.8.252a26.343,26.343,0,0,1,.546,2.7l.784-.2C2.212,14.76,2.03,13.836,1.834,13.038Zm3.094-.084a15.152,15.152,0,0,1-.574,2.422l.742.28a16.784,16.784,0,0,0,.63-2.478ZM11.452,7.13l-.28,4.172H8.778L9.086,7.13ZM7.826,11.3H6.02v.952H7.756l-.35,4.774H6.1v.952h7.14v-.952h-1.47l.294-4.774h1.344V11.3H12.124l.322-5.124H6.51V7.13H8.134Zm.532,5.726.35-4.774h2.408l-.308,4.774Z" transform="translate(700 232)" fill="#ef7800"/>
    </g>
    <g id="Group_3901" data-name="Group 3901" transform="translate(7125 4680.75)">
      <circle id="Ellipse_147-2" data-name="Ellipse 147" cx="38" cy="38" r="38" transform="translate(662 196)" fill="#ef7800"/>
      <path id="Ellipse_147_-_Outline" data-name="Ellipse 147 - Outline" d="M38,1A37.01,37.01,0,0,0,23.6,72.093,37.01,37.01,0,0,0,52.4,3.907,36.767,36.767,0,0,0,38,1m0-1A38,38,0,1,1,0,38,38,38,0,0,1,38,0Z" transform="translate(662 196)" fill="#ef7800"/>
      <path id="Path_2696-2" data-name="Path 2696" d="M-15.61-9.842v.91h3.038V-3.71h-1.512V-7.42h-.952V-2.8h2.464V-.126c0,.868.406,1.3,1.232,1.3h1.792A1.434,1.434,0,0,0-8.582.84a5.133,5.133,0,0,0,.5-2.254l-.9-.294A4.268,4.268,0,0,1-9.3.126a.782.782,0,0,1-.5.168h-1.274c-.364,0-.532-.21-.532-.6V-2.8H-9.1V-7.448h-.952V-3.71h-1.554V-8.932h3v-.91h-3V-11.41h-.966v1.568ZM-20.1-2.1a11.02,11.02,0,0,1-.672,3.248l.882.28a13.312,13.312,0,0,0,.672-3.416Zm2.394-.112-.8.182a27.085,27.085,0,0,1,.56,3.066l.882-.21C-17.248-.266-17.458-1.274-17.71-2.212Zm1.176-3.668-.784.252q.21.567.42,1.176c-.77.2-1.54.364-2.324.49a29.825,29.825,0,0,0,3.29-4.928l-.91-.336c-.322.588-.63,1.148-.938,1.68-.6.112-1.2.2-1.792.28A20.109,20.109,0,0,0-17.5-11.13l-.938-.364a19.758,19.758,0,0,1-1.9,3.934.9.9,0,0,1-.42.378l.266.924c.728-.112,1.442-.238,2.156-.364a13.617,13.617,0,0,1-1.876,2.506,1.868,1.868,0,0,1-.462.294l.266.91A26.414,26.414,0,0,0-16.66-3.7c.07.252.14.532.21.812l.826-.21A22.482,22.482,0,0,0-16.534-5.88Zm.434,3.234-.784.252A19.012,19.012,0,0,1-15.946.392l.826-.378A19.782,19.782,0,0,0-16.1-2.646Zm9.856-6.426v1.008h2.156A12.8,12.8,0,0,0-.714-2.436a13.748,13.748,0,0,1-5.8,3l.532.882A14.617,14.617,0,0,0-.014-1.792a18.734,18.734,0,0,0,5.74,3.248l.546-.84A18.347,18.347,0,0,1,.686-2.506,14.307,14.307,0,0,0,3.78-8.064H5.964V-9.072H.616A12.31,12.31,0,0,0-.84-11.536l-1.008.364a10.759,10.759,0,0,1,1.4,2.1Zm3.15,1.008H2.73A12.569,12.569,0,0,1-.014-3.136,11.626,11.626,0,0,1-3.094-8.064ZM20.076-10H14.8c-.182-.574-.378-1.092-.574-1.554l-1.148.2A11.205,11.205,0,0,1,13.706-10H8.2v3.122H9.212V-9.03h9.856v2.156h1.008ZM10.36-7.518v.938h6.006c-.574.364-1.428.854-2.562,1.442v1.372H7.952v.98H13.8V-.168c0,.406-.182.616-.546.616-.588,0-1.12-.014-1.61-.028l.238.924h1.722c.812,0,1.218-.392,1.218-1.162V-2.786h5.516v-.98H14.826V-4.7A31.955,31.955,0,0,0,17.878-6.58v-.938ZM-1.33,7.158H-4.606c-.2-.644-.392-1.2-.6-1.708l-1.022.168a13.067,13.067,0,0,1,.616,1.54h-3.22V9.972h.952v-1.9H-2.3V9.916h.966ZM-6.23,8.95c-.2.784-.406,1.526-.644,2.254h-2.3v.966h1.96A20.284,20.284,0,0,1-8.232,14.4q1.386.735,2.6,1.428A11.373,11.373,0,0,1-9.814,17.5l.406.952a11.01,11.01,0,0,0,4.732-2.072c1.26.742,2.31,1.414,3.15,2.03l.686-.8c-.812-.56-1.862-1.218-3.178-1.946a7.354,7.354,0,0,0,1.456-3.5h1.68V11.2h-4.97c.2-.644.406-1.372.6-2.17Zm2.7,3.22a6.256,6.256,0,0,1-1.386,3.01c-.658-.35-1.372-.714-2.128-1.106a15.567,15.567,0,0,0,.854-1.9Zm-8.526,6.1a1.072,1.072,0,0,0,1.2-1.218V13.01c.434-.2.868-.392,1.3-.6V11.386q-.651.336-1.3.63v-2.8h1.316V8.25H-10.85V5.6h-1.036V8.25h-1.638v.966h1.638v3.206A16.9,16.9,0,0,1-13.8,13L-13.552,14c.546-.168,1.106-.364,1.666-.574V16.8c0,.364-.182.546-.518.546s-.686-.028-1.05-.056l.21.98ZM2.9,9.846v1.568H1.036v.952H2.9v4.368c-.7.126-1.414.238-2.128.336l.252,1.008a42.126,42.126,0,0,0,4.76-1.05v-.966c-.616.168-1.26.336-1.9.476V12.366H5.684v-.952H3.878V9.846h1.26v-.91H1.89a22.529,22.529,0,0,0,1.526-2.3A26.5,26.5,0,0,1,5.474,9.216l.644-.7c-.784-.994-1.6-1.946-2.436-2.842h-.7A17.755,17.755,0,0,1,.546,9.146l.546.756c.2-.224.392-.462.588-.7v.644ZM1.834,13.038l-.8.252a26.343,26.343,0,0,1,.546,2.7l.784-.2C2.212,14.76,2.03,13.836,1.834,13.038Zm3.094-.084a15.152,15.152,0,0,1-.574,2.422l.742.28a16.784,16.784,0,0,0,.63-2.478ZM11.452,7.13l-.28,4.172H8.778L9.086,7.13ZM7.826,11.3H6.02v.952H7.756l-.35,4.774H6.1v.952h7.14v-.952h-1.47l.294-4.774h1.344V11.3H12.124l.322-5.124H6.51V7.13H8.134Zm.532,5.726.35-4.774h2.408l-.308,4.774Z" transform="translate(700 232)" fill="#fff"/>
    </g>
    <path id="Path_2698" data-name="Path 2698" d="M-34.4-2.058A12.034,12.034,0,0,1-35,.994l.882.266a14.113,14.113,0,0,0,.56-3.22Zm2.268-.182-.784.168c.112.84.224,1.806.322,2.9l.868-.21C-31.836-.406-31.976-1.358-32.13-2.24Zm1.232-3.5-.784.252c.14.378.266.784.378,1.2-.728.2-1.456.35-2.184.49A32.056,32.056,0,0,0-30.3-8.75l-.91-.336c-.322.6-.63,1.162-.91,1.68-.588.112-1.176.2-1.75.266a20.236,20.236,0,0,0,2.016-3.892l-.952-.392a19.7,19.7,0,0,1-1.806,3.976,1.129,1.129,0,0,1-.406.378l.238.924,2.128-.336a13.63,13.63,0,0,1-1.82,2.534,1.868,1.868,0,0,1-.462.294l.266.91a20.2,20.2,0,0,0,3.556-.784l.14.658.826-.21A21.383,21.383,0,0,0-30.9-5.74Zm.168,3.164-.728.238A20.775,20.775,0,0,1-30.772-.28l.728-.336A14.61,14.61,0,0,0-30.73-2.576Zm1.288-7.63v5.012h2.772V.028c0,.336-.168.518-.476.518s-.63-.028-.966-.056l.21.9h1.078A.994.994,0,0,0-25.718.252V-2.6A12.5,12.5,0,0,0-22.848.952L-22.232.2a11.12,11.12,0,0,1-2.422-2.45,12.793,12.793,0,0,0,2.184-1.54l-.574-.686A11,11,0,0,1-25.1-2.926,8.183,8.183,0,0,1-25.718-4.2v-.994h2.436v-5.012h-3.164a5.383,5.383,0,0,0,.434-1.092l-1.008-.14a5.773,5.773,0,0,1-.406,1.232Zm5.236,4.116h-4.312V-7.28h4.312Zm-4.312-2.03V-9.31h4.312v1.19Zm-1.316,4.242v.84h1.6A6.111,6.111,0,0,1-30.366.224l.546.742a7,7,0,0,0,2.478-4.144v-.7Zm16.38-7.63a6.352,6.352,0,0,1-2.2,3.178l.6.77a8.564,8.564,0,0,0,1.666-1.834h2.87A3.986,3.986,0,0,1-11.858-7.35a4.175,4.175,0,0,1-1.4-1.344l-.756.322a4.54,4.54,0,0,0,1.358,1.554,8.706,8.706,0,0,1-2.772.924l.392.854A8.922,8.922,0,0,0-11.8-6.286a13.05,13.05,0,0,0,3.43,1.162l.378-.9a13.923,13.923,0,0,1-3.024-.9A5.363,5.363,0,0,0-9.59-9.394h1.064v-.924H-12.88a8.792,8.792,0,0,0,.406-1.064Zm-1.694,7.35v.938h2.87V1.372h.966V-3.22H-8.4v-.938h-2.912V-5.194h-.966v1.036Zm1.162,1.736A11.624,11.624,0,0,1-15.652.28l.8.56A12.049,12.049,0,0,0-13.2-2.03Zm4.158-.056-.728.462A21.647,21.647,0,0,1-8.946.756L-8.162.21A21.653,21.653,0,0,0-9.828-2.478Zm-8.036-8.974a15.86,15.86,0,0,1-3.08,5.726l.336,1.05a18.693,18.693,0,0,0,1.4-1.75v7.84h.966V-7.98a16.507,16.507,0,0,0,1.288-3.052Zm.826,2.534v7.812h.924V-8.918ZM5.936-10.864H-.56v5.628A12.855,12.855,0,0,1-1.806.686l.756.672A14.313,14.313,0,0,0,.364-5.236V-6.384h.56A10.472,10.472,0,0,0,2.66-1.736,9.214,9.214,0,0,1-.154.518l.49.9A9.767,9.767,0,0,0,3.262-.924,15.531,15.531,0,0,0,5.684,1.428l.658-.77A12.156,12.156,0,0,1,3.836-1.666a11.988,11.988,0,0,0,1.82-4.8v-.868H.364v-2.6H5.936ZM1.82-6.384H4.676A10.391,10.391,0,0,1,3.22-2.506,9.245,9.245,0,0,1,1.82-6.384ZM-4.62-3.64h1.708V1.344h.98V-4.592H-4.578v-2h2.6v-4.7h-.98v3.752H-4.578v-3.486h-.994v6.216A11.2,11.2,0,0,1-6.552.5l.742.672A10.282,10.282,0,0,0-4.62-3.64Zm14.98-.938A13.355,13.355,0,0,1,7.9.084L8.778.63a15.084,15.084,0,0,0,2.576-5Zm7.35-.2-.924.308A31.251,31.251,0,0,1,19.4.518L20.328.1A31.234,31.234,0,0,0,17.71-4.774ZM9.464-10.668v.98h9.394v-.98ZM8.176-7.14v.994H13.65V1.4h1.036V-6.146H20.1V-7.14Zm17.08-2.576L25.7-8.61h-3.36v.882H34.5V-8.61H31.01l.546-1.106h2.282v-.868H28.91c-.14-.364-.294-.686-.434-.98L27.4-11.4a6.263,6.263,0,0,1,.406.812H23v.868Zm1.5,1.106-.448-1.106h4.2L29.96-8.61ZM23.94-6.9v4.144H32.9V-6.9Zm7.98,3.36h-7v-.924h7Zm-7-1.666v-.9h7v.9ZM23.38-2.1A7.886,7.886,0,0,1,22.12.448l.868.546A9.583,9.583,0,0,0,24.36-1.9Zm6.958,3.276A2.092,2.092,0,0,0,31.5.91a2.789,2.789,0,0,0,.574-1.778l-.952-.308A2.164,2.164,0,0,1,30.786.1a.894.894,0,0,1-.63.168h-2.94c-.448,0-.672-.21-.672-.6V-1.974H25.508V-.126c0,.868.462,1.3,1.414,1.3ZM28.574-2.492l-.854.532A10.886,10.886,0,0,1,29.092-.322l.84-.588A11.026,11.026,0,0,0,28.574-2.492Zm4.4.266-.812.5A19.677,19.677,0,0,1,33.95.812l.84-.588A20.483,20.483,0,0,0,32.97-2.226Z" transform="translate(7826 5057.75)" fill="#f8524c"/>
  </g>
</svg>
